<svg width="180" height="54" fill="none" xmlns="http://www.w3.org/2000/svg">
  <path d="M173.3 54H6.7A6.7 6.7 0 0 1 0 47.2V6.8C0 3 3 0 6.7 0h166.6a6.7 6.7 0 0 1 6.7 6.8v40.5c0 3.7-3 6.7-6.7 6.7Z" fill="#000"/>
  <path d="M27.6 26.2 13.4 41.5a3.8 3.8 0 0 0 5.7 2.3l16-9.3-7.5-8.3Z" fill="#EA4335"/>
  <path d="m42 23.6-7-4-7.7 7 7.8 7.9 6.9-4a3.9 3.9 0 0 0 2-3.5 4 4 0 0 0-2-3.4Z" fill="#FBBC04"/>
  <path d="M13.4 12.5a3.7 3.7 0 0 0-.1 1v27l.1 1 14.7-14.9-14.7-14Z" fill="#4285F4"/>
  <path d="m27.7 27 7.4-7.4-16-9.4a3.9 3.9 0 0 0-5.7 2.3L27.7 27Z" fill="#34A853"/>
  <path d="m59.8 8-3 3.5L60 16h-1.3L56 12.3l-1.2 1.4V16h-1V8h1v4.1l3.5-4h1.4Z" fill="#fff"/>
  <path d="M59.8 8h-.2.1l-3 3.5 3.1 4.5h.2-1.2L56 12l-1.4 1.6v2.2H54V8.2h.7v4h.3l3.5-4h1.3v-.3h-1.4L54.8 12h.1v.1h.1V8h-1.3v8.3H55v-2.4l1-1.3 2.6 3.7h1.5V16l-3.2-4.4 3-3.4V8h-.1Zm2.2 3.8h1.7c.4 0 .7-.1 1-.4a1.4 1.4 0 0 0 0-2 1.3 1.3 0 0 0-1-.4H62v2.8ZM61 16V8h2.7c.7 0 1.3.2 1.8.7.5.5.7 1 .7 1.7 0 .6-.2 1-.5 1.5-.4.4-.8.7-1.4.8l2.2 3.3h-1.2l-2.1-3.2H62V16h-1Z" fill="#fff"/>
  <path d="M62 11.8v.2h1.7c.4 0 .8-.2 1.1-.5a1.5 1.5 0 0 0 0-2.1 1.5 1.5 0 0 0-1-.5h-2v3h.4V9h1.6c.4 0 .7.2.9.4l.3.9c0 .4 0 .7-.4 1-.2.2-.5.3-1 .3H62v.1ZM61 16h.1V8.2h2.6c.7 0 1.2.2 1.7.6.5.4.7 1 .7 1.6a2.2 2.2 0 0 1-1.8 2.2h-.1v.1l2.2 3.3h.1-1.1l-2.1-3.3h-1.4V16H61v.3h1.2V13h1l2 3.3h1.5V16l-2.3-3.3v.2-.1.1a2.5 2.5 0 0 0 2-2.4c0-.7-.3-1.3-.8-1.8a2.7 2.7 0 0 0-1.9-.7H61v8.3h.1V16Zm9.5 0h-1v-3.7L66.8 8H68l2 3.3L72 8h1.2l-2.7 4.3V16Z" fill="#fff"/>
  <path d="M70.5 16h-.9v-3.6L67 8.2h1l1.9 3.2h.2l2-3.2h.8l-2.5 4V16h.2v-3.7L73.4 8h-1.5l-2 3.3h.1L68 8h-1.5l2.8 4.4v3.9h1.3V16Zm7.5-1h1.4a3 3 0 0 0 2.2-.8c.6-.5.8-1.2.8-2.2a3 3 0 0 0-.8-2.2 3 3 0 0 0-2.2-.8H78v6Zm-1 1V8h2.4a4 4 0 0 1 3 1.1 3.9 3.9 0 0 1 1.1 3 4 4 0 0 1-1.1 2.8 4 4 0 0 1-3 1.1H77Z" fill="#fff"/>
  <path d="M78 15v.2h1.4c1 0 1.8-.3 2.3-.9a3.1 3.1 0 0 0 .9-2.3 3.1 3.1 0 0 0-.9-2.3 3.1 3.1 0 0 0-2.3-.8H78v6.3h.1V15h.2V9.1h1.2c1 0 1.6.3 2.1.8.6.5.8 1.2.8 2.1 0 1-.2 1.6-.7 2.1a3 3 0 0 1-2.1.8H78v.1Zm-1 1h.1V8.2h2.3c1.2 0 2.2.3 2.9 1a3.8 3.8 0 0 1 1 2.8 3.8 3.8 0 0 1-1 2.8 3.8 3.8 0 0 1-2.9 1H77v.4h2.4c1.3 0 2.3-.4 3-1.2a4 4 0 0 0 1.2-3 4 4 0 0 0-1.1-3 4.1 4.1 0 0 0-3-1.1h-2.6v8.3h.1V16Zm8 0V8h1v8h-1Z" fill="#fff"/>
  <path d="M85 16V8.2h.8v7.7H85v.3h1.2V7.9h-1.3v8.3h.1V16Zm5.5 0h-1V9h-2.2V8h5.5v1h-2.3v7Z" fill="#fff"/>
  <path d="M90.5 16h-.9V9h-2.2v-.7h5.2V9h-2.2v7h.3V9.1h2.2V8h-5.8v1h2.3v7h1.3-.2Zm7.6-1.7a3 3 0 0 0 2.1 1 3 3 0 0 0 2.2-1c.6-.6 1-1.4 1-2.3a3 3 0 0 0-1-2.3 3 3 0 0 0-2.2-.9 3 3 0 0 0-2.1 1c-.6.5-1 1.3-1 2.2a3 3 0 0 0 1 2.3Zm5 .7a4 4 0 0 1-2.9 1.2 4 4 0 0 1-4-4.2 4 4 0 0 1 4-4.2 4.1 4.1 0 0 1 4.1 4.2 4.1 4.1 0 0 1-1.1 3Z" fill="#fff"/>
  <path d="M98 14.3v.1a3.1 3.1 0 0 0 2.2 1 3 3 0 0 0 2.3-1c.6-.6 1-1.4 1-2.4s-.4-1.7-1-2.4a3 3 0 0 0-2.3-1 3.1 3.1 0 0 0-2.2 1 3.3 3.3 0 0 0-1 2.4 3 3 0 0 0 1 2.4l.2-.2a3 3 0 0 1-.9-2.2 3 3 0 0 1 .9-2.2 2.8 2.8 0 0 1 2-.8 3 3 0 0 1 2.1.8 3 3 0 0 1 .9 2.2 3 3 0 0 1-.9 2.2 2.8 2.8 0 0 1-2 .9 2.8 2.8 0 0 1-2.1-.9l-.1.1Zm5.2.7-.1-.1a3.8 3.8 0 0 1-2.9 1.2 4 4 0 0 1-4-4 4 4 0 0 1 4-4.1c1.2 0 2.1.4 2.9 1.2a4 4 0 0 1 1.1 2.8 4 4 0 0 1-1.1 2.9l.2.2a4.2 4.2 0 0 0 1.2-3 4.2 4.2 0 0 0-4.3-4.4A4.2 4.2 0 0 0 96 12a4.2 4.2 0 0 0 4.2 4.3 4 4 0 0 0 3-1.2V15Zm3.6-3.2h1.7c.5 0 .8-.1 1-.4.3-.3.5-.6.5-1 0-.3-.2-.7-.4-1-.3-.2-.6-.4-1-.4h-1.8v2.8Zm0 4.2h-1V8h2.7c.7 0 1.3.2 1.8.7.5.5.7 1 .7 1.7a2.2 2.2 0 0 1-.7 1.7 2.5 2.5 0 0 1-1.8.7h-1.7V16Z" fill="#fff"/>
  <path d="M106.8 11.8v.1h1.7c.5 0 .9-.1 1.2-.4.3-.3.4-.7.4-1.1 0-.4-.1-.7-.4-1a1.5 1.5 0 0 0-1.2-.5h-1.8v3h.1v-.1h.2V9.1h1.5c.4 0 .7.2 1 .4l.3.9c0 .3 0 .6-.3.9a1.2 1.2 0 0 1-1 .4h-1.7v.1Zm0 4.2h-.9V8.2h2.6c.7 0 1.2.2 1.7.6.5.4.7 1 .7 1.6a2 2 0 0 1-.7 1.6 2.4 2.4 0 0 1-1.7.7h-1.8V16h.3v-3h1.5a3 3 0 0 0 1.9-.8c.5-.5.8-1 .8-1.8 0-.7-.3-1.3-.8-1.8a2.7 2.7 0 0 0-1.9-.7h-2.8v8.3h1.3V16h-.2Zm34.4 22.7h2.5V22h-2.5v16.7ZM163.8 28l-2.9 7.2-3-7.2H155l4.4 10.1-2.5 5.6h2.6l6.8-15.7h-2.8Zm-14.1 8.8c-.9 0-2-.4-2-1.4 0-1.3 1.4-1.8 2.6-1.8 1.1 0 1.6.2 2.3.5a3 3 0 0 1-3 2.7Zm.3-9.2c-1.8 0-3.7.8-4.5 2.6l2.2 1c.5-1 1.4-1.3 2.3-1.3 1.3 0 2.6.8 2.6 2.1v.2a5.5 5.5 0 0 0-2.6-.6c-2.4 0-4.8 1.3-4.8 3.7 0 2.2 2 3.7 4.2 3.7a3.5 3.5 0 0 0 3.1-1.7h.1v1.3h2.4v-6.4c0-3-2.2-4.6-5-4.6ZM134.5 30h-3.6v-5.7h3.6a2.9 2.9 0 0 1 2.9 2.9 2.9 2.9 0 0 1-3 2.8Zm0-8h-6v16.7h2.4v-6.4h3.5c2.8 0 5.5-2 5.5-5.1 0-3.2-2.7-5.2-5.5-5.2Zm-32.6 14.8c-1.7 0-3.2-1.5-3.2-3.4 0-2 1.5-3.5 3.2-3.5 1.7 0 3 1.5 3 3.5s-1.3 3.4-3 3.4Zm2.9-7.9h-.1a4 4 0 0 0-3-1.2 5.6 5.6 0 0 0-5.5 5.7c0 3.1 2.6 5.6 5.5 5.6a4 4 0 0 0 3-1.3v.8c0 2.2-1.1 3.4-3 3.4a3.1 3.1 0 0 1-2.8-2l-2.2.9a5.4 5.4 0 0 0 5 3.3c3 0 5.4-1.7 5.4-5.9V28h-2.3v1Zm4 9.8h2.5V22h-2.5v16.7Zm6.2-5.5a3.1 3.1 0 0 1 3-3.3c1 0 1.8.5 2 1.2l-5 2Zm7.7-2a5.2 5.2 0 0 0-4.8-3.5c-3 0-5.4 2.3-5.4 5.6 0 3.2 2.4 5.7 5.7 5.7 2.6 0 4-1.6 4.7-2.5l-2-1.3a3.2 3.2 0 0 1-2.7 1.6 2.9 2.9 0 0 1-2.8-1.7l7.6-3.2-.3-.6Zm-60.4-1.8v2.4h5.8a5 5 0 0 1-1.3 3 5.9 5.9 0 0 1-4.5 1.8 6.3 6.3 0 0 1-6.3-6.4 6.3 6.3 0 0 1 10.7-4.7l1.7-1.7a8.4 8.4 0 0 0-6-2.4 9 9 0 0 0-9 8.8 9 9 0 0 0 9 8.8 8 8 0 0 0 6-2.5 8 8 0 0 0 2.1-5.6 7.8 7.8 0 0 0 0-1.5h-8.2Zm14.8 7.4c-1.7 0-3.2-1.4-3.2-3.5 0-2 1.5-3.4 3.2-3.4 1.7 0 3.2 1.4 3.2 3.4s-1.5 3.5-3.2 3.5Zm0-9.1a5.6 5.6 0 0 0-5.7 5.6 5.6 5.6 0 0 0 5.7 5.7 5.6 5.6 0 0 0 5.7-5.7 5.6 5.6 0 0 0-5.7-5.6Zm12.4 9c-1.7 0-3.2-1.3-3.2-3.4 0-2 1.5-3.4 3.2-3.4 1.7 0 3.2 1.4 3.2 3.4s-1.5 3.5-3.2 3.5Zm0-9a5.6 5.6 0 0 0-5.7 5.6 5.6 5.6 0 0 0 5.7 5.7 5.6 5.6 0 0 0 5.7-5.7 5.6 5.6 0 0 0-5.7-5.6Z" fill="#fff"/>
</svg>
