<svg width="180" height="54" fill="none" xmlns="http://www.w3.org/2000/svg">
  <path d="M173.33 54H6.67A6.73 6.73 0 0 1 0 47.25V6.75C0 3.04 3 0 6.67 0h166.66A6.73 6.73 0 0 1 180 6.75v40.5c0 3.71-3 6.75-6.67 6.75Z" fill="#000"/>
  <path d="m27.63 26.22-14.2 15.26a3.84 3.84 0 0 0 5.65 2.35l.05-.03 15.97-9.33-7.48-8.25Z" fill="#EA4335"/>
  <path d="m41.98 23.63-.01-.02-6.9-4.05-7.77 7 7.8 7.9 6.86-4a3.89 3.89 0 0 0 2.02-3.43c0-1.47-.8-2.75-2-3.4Z" fill="#FBBC04"/>
  <path d="M13.43 12.52a3.7 3.7 0 0 0-.13 1v26.96c0 .35.04.68.13 1L28.1 26.62l-14.68-14.1Z" fill="#4285F4"/>
  <path d="m27.73 27 7.34-7.44-15.96-9.37a3.85 3.85 0 0 0-5.69 2.33L27.73 27Z" fill="#34A853"/>
  <path d="M59.75 8.02v.05l-2.97 3.43 3.17 4.48v.04h-1.26l-2.6-3.73-1.24 1.42v2.31h-1.02v-8h1.02v4.13h.05l3.52-4.13h1.33Z" fill="#fff"/>
  <path d="M59.75 8.02h-.14v.05h.14l-.1-.09-3.04 3.51 3.2 4.53h.14v-.13h-1.2l-2.66-3.82-1.37 1.6v2.22h-.76V8.16h.76v4.12h.24l3.52-4.12h1.27v-.27h-1.4l-3.55 4.17.1.09V12h-.05v.14H55V7.89h-1.3v8.27H55v-2.4l1.08-1.25 2.55 3.65h1.46v-.22l-3.14-4.43 2.94-3.4V7.9h-.13v.13Zm2.28 3.8h1.65c.41 0 .76-.13 1.06-.4a1.37 1.37 0 0 0 .04-1.98 1.3 1.3 0 0 0-1.03-.43h-1.72v2.81ZM61 16.02v-8h2.73c.67 0 1.26.23 1.75.68.5.45.75 1.02.75 1.7 0 .56-.18 1.06-.55 1.48-.36.43-.82.7-1.36.81l-.03.04 2.25 3.25v.04h-1.22l-2.15-3.24h-1.14v3.24H61Z" fill="#fff"/>
  <path d="M62.03 11.82v.14h1.65c.44 0 .83-.15 1.15-.44a1.54 1.54 0 0 0 .06-2.16 1.46 1.46 0 0 0-1.14-.49h-1.86v3.09h.14v-.14h.13V9.14h1.59c.4 0 .7.13.94.4.24.26.35.55.35.86 0 .38-.13.68-.4.92-.27.25-.58.37-.96.37h-1.65v.13ZM61 16.02h.13V8.16h2.6c.64 0 1.2.2 1.66.64.47.43.7.95.7 1.6a2.24 2.24 0 0 1-1.8 2.16l-.05.01-.06.08-.05.08 2.28 3.3h.13v-.14H65.4l-2.15-3.24H61.9v3.24H61v.27h1.17v-3.24h.94l2.15 3.24h1.42v-.22l-2.27-3.29-.1.08.1.07.03-.03-.11-.08.02.13a2.5 2.5 0 0 0 2.02-2.42c0-.71-.26-1.33-.79-1.8a2.66 2.66 0 0 0-1.84-.71h-2.86v8.27H61v-.14Zm9.5 0h-1.02V12.3l-2.7-4.28H68l1.98 3.26h.04l1.94-3.26h1.2l-2.64 4.28v3.72Z" fill="#fff"/>
  <path d="M70.5 16.02v-.13h-.89v-3.63l-2.58-4.1h.89l1.98 3.25h.19l1.93-3.25h.9l-2.55 4.1v3.76h.27v-3.68l2.75-4.45h-1.52l-1.97 3.32.11.06v-.13h-.04v.13l.11-.06-2.01-3.32h-1.53l2.8 4.45v3.82h1.3v-.14h-.13Zm7.53-.98h1.41a3 3 0 0 0 2.2-.8c.54-.52.8-1.26.8-2.22 0-.94-.26-1.68-.8-2.21a3 3 0 0 0-2.2-.8h-1.41v6.03Zm-1.03.98v-8h2.44c1.23 0 2.22.37 2.95 1.12a3.9 3.9 0 0 1 1.11 2.88c0 1.19-.37 2.15-1.1 2.9a3.98 3.98 0 0 1-2.96 1.1H77Z" fill="#fff"/>
  <path d="M78.03 15.04v.13h1.41c.95 0 1.72-.27 2.3-.83a3.1 3.1 0 0 0 .84-2.32 3.1 3.1 0 0 0-.85-2.31 3.13 3.13 0 0 0-2.29-.84H77.9v6.3h.14v-.13h.13v-5.9h1.28c.9 0 1.6.26 2.1.76.52.5.77 1.2.78 2.12 0 .93-.26 1.63-.77 2.13-.52.5-1.2.76-2.1.76h-1.42v.13Zm-1.03.98h.13V8.16h2.31c1.2 0 2.15.36 2.86 1.07a3.78 3.78 0 0 1 1.07 2.8 3.8 3.8 0 0 1-1.07 2.79 3.84 3.84 0 0 1-2.86 1.07H77v.27h2.44c1.26 0 2.28-.38 3.05-1.15a4.05 4.05 0 0 0 1.14-2.99c0-1.2-.38-2.21-1.14-2.98a4.11 4.11 0 0 0-3.05-1.15h-2.58v8.27H77v-.14Zm7.94 0v-8h1.03v8h-1.03Z" fill="#fff"/>
  <path d="M84.94 16.02h.14V8.16h.76v7.73h-.9v.27h1.16V7.89h-1.3v8.27h.14v-.14Zm5.59 0H89.5V9.01h-2.23v-.99h5.5v.99h-2.24v7.01Z" fill="#fff"/>
  <path d="M90.53 16.02v-.13h-.9V8.87H87.4v-.71h5.23v.71H90.4v7.15h.26V9.14h2.24V7.89h-5.77v1.25h2.24v7.02h1.3v-.14h-.14Zm7.54-1.7c.59.6 1.31.9 2.17.9.86 0 1.58-.3 2.17-.9.6-.6.9-1.37.9-2.3 0-.93-.3-1.7-.9-2.3-.59-.6-1.31-.9-2.17-.9-.86 0-1.58.3-2.17.9-.6.6-.9 1.37-.9 2.3 0 .93.3 1.7.9 2.3Zm5.1.67a3.93 3.93 0 0 1-2.93 1.21 4.09 4.09 0 0 1-4.11-4.18 4.09 4.09 0 0 1 4.11-4.18 4.1 4.1 0 0 1 4.11 4.18 4.1 4.1 0 0 1-1.18 2.97Z" fill="#fff"/>
  <path d="m98.07 14.32-.1.1a3.1 3.1 0 0 0 2.27.93c.89 0 1.66-.31 2.27-.94.62-.62.93-1.43.93-2.39 0-.96-.31-1.76-.93-2.39a3.07 3.07 0 0 0-2.27-.94 3.1 3.1 0 0 0-2.27.94 3.27 3.27 0 0 0-.92 2.4c0 .95.3 1.76.92 2.38l.1-.09.1-.1a3 3 0 0 1-.86-2.2 3 3 0 0 1 .85-2.2 2.8 2.8 0 0 1 2.08-.86c.83 0 1.5.29 2.08.86a3 3 0 0 1 .85 2.2 3 3 0 0 1-.85 2.2 2.8 2.8 0 0 1-2.08.87 2.8 2.8 0 0 1-2.08-.86l-.1.09Zm5.1.67-.1-.1a3.8 3.8 0 0 1-2.83 1.18 3.96 3.96 0 0 1-3.98-4.05 3.95 3.95 0 0 1 3.98-4.04c1.13 0 2.06.39 2.83 1.18a3.95 3.95 0 0 1 1.15 2.86c0 1.14-.38 2.1-1.14 2.88l.1.09.09.1a4.23 4.23 0 0 0 1.22-3.07 4.23 4.23 0 0 0-4.25-4.3 4.22 4.22 0 0 0-4.24 4.3 4.22 4.22 0 0 0 4.24 4.3c1.2 0 2.22-.41 3.03-1.25l-.1-.09Zm3.65-3.19h1.72c.43 0 .78-.15 1.04-.44.26-.29.4-.6.4-.96 0-.35-.14-.67-.4-.96-.26-.29-.6-.43-1.04-.43h-1.72v2.79Zm0 4.22h-1.03v-8h2.73c.68 0 1.27.23 1.76.68.5.45.74 1.02.74 1.7a2.2 2.2 0 0 1-.74 1.7 2.5 2.5 0 0 1-1.76.68h-1.7v3.24Z" fill="#fff"/>
  <path d="M106.82 11.8v.13h1.72c.46 0 .86-.16 1.14-.48.28-.3.43-.66.43-1.05 0-.38-.15-.74-.43-1.05a1.46 1.46 0 0 0-1.14-.48h-1.85v3.06h.13v-.13h.14V9.14h1.58c.4 0 .7.13.94.4.24.26.36.55.36.86 0 .32-.12.6-.36.88a1.2 1.2 0 0 1-.94.39h-1.72v.13Zm0 4.22v-.13h-.9V8.16h2.6c.65 0 1.2.2 1.67.64.47.43.7.95.7 1.6 0 .66-.23 1.18-.7 1.6a2.4 2.4 0 0 1-1.67.65h-1.83v3.37h.27v-3.1h1.56c.7 0 1.33-.24 1.85-.71.52-.48.79-1.09.79-1.8 0-.72-.27-1.34-.79-1.8a2.66 2.66 0 0 0-1.85-.72h-2.86v8.27h1.3v-.14h-.14Zm34.43 22.65h2.49V22h-2.5v16.67ZM163.65 28l-2.84 7.23h-.09L157.76 28h-2.68l4.44 10.1-2.53 5.62h2.6L166.41 28h-2.76Zm-14.1 8.77c-.82 0-1.95-.4-1.95-1.41 0-1.29 1.41-1.78 2.63-1.78 1.1 0 1.61.23 2.28.56a3.02 3.02 0 0 1-2.96 2.63Zm.3-9.13c-1.8 0-3.67.8-4.44 2.55l2.2.92c.48-.92 1.36-1.22 2.28-1.22 1.29 0 2.6.77 2.62 2.14v.18a5.5 5.5 0 0 0-2.6-.65c-2.38 0-4.8 1.31-4.8 3.76 0 2.23 1.95 3.66 4.14 3.66a3.5 3.5 0 0 0 3.17-1.63h.09v1.29h2.4v-6.4c0-2.95-2.21-4.6-5.06-4.6Zm-15.38 2.4h-3.54v-5.72h3.54a2.89 2.89 0 0 1 2.92 2.86 2.9 2.9 0 0 1-2.92 2.85Zm-.06-8.04h-5.96v16.67h2.48v-6.32h3.48c2.75 0 5.47-2 5.47-5.18 0-3.18-2.72-5.17-5.47-5.17ZM101.9 36.78c-1.72 0-3.16-1.44-3.16-3.42 0-2 1.44-3.46 3.16-3.46 1.7 0 3.03 1.46 3.03 3.46 0 1.98-1.33 3.42-3.03 3.42Zm2.86-7.84h-.09a3.93 3.93 0 0 0-2.98-1.27 5.64 5.64 0 0 0-5.44 5.7c0 3.17 2.6 5.64 5.44 5.64 1.35 0 2.42-.6 2.98-1.29h.09v.82c0 2.17-1.16 3.33-3.03 3.33a3.14 3.14 0 0 1-2.86-2.02l-2.17.9a5.4 5.4 0 0 0 5.03 3.35c2.92 0 5.39-1.72 5.39-5.9V28h-2.36v.93Zm4.08 9.73h2.49V22h-2.5v16.67Zm6.16-5.5a3.11 3.11 0 0 1 2.97-3.31c.99 0 1.82.5 2.1 1.2l-5.07 2.1Zm7.74-1.9c-.48-1.26-1.92-3.6-4.86-3.6-2.92 0-5.35 2.3-5.35 5.67 0 3.18 2.4 5.67 5.63 5.67 2.6 0 4.1-1.59 4.73-2.51l-1.94-1.3a3.24 3.24 0 0 1-2.79 1.58 2.88 2.88 0 0 1-2.75-1.72l7.58-3.14-.25-.64Zm-60.41-1.86v2.4h5.75a5.02 5.02 0 0 1-1.3 3.03 5.9 5.9 0 0 1-4.45 1.76A6.32 6.32 0 0 1 56 30.2a6.32 6.32 0 0 1 10.65-4.68l1.7-1.7a8.4 8.4 0 0 0-6.03-2.42 8.93 8.93 0 0 0-8.94 8.8 8.93 8.93 0 0 0 8.94 8.81c2.62 0 4.6-.86 6.14-2.47 1.59-1.59 2.08-3.82 2.08-5.63a7.8 7.8 0 0 0-.13-1.5h-8.1Zm14.77 7.37c-1.72 0-3.2-1.42-3.2-3.44 0-2.04 1.48-3.44 3.2-3.44 1.72 0 3.2 1.4 3.2 3.44 0 2.02-1.48 3.44-3.2 3.44Zm0-9.11a5.59 5.59 0 0 0-5.7 5.67 5.6 5.6 0 0 0 5.7 5.67 5.6 5.6 0 0 0 5.69-5.67 5.59 5.59 0 0 0-5.7-5.67Zm12.41 9.1c-1.71 0-3.2-1.41-3.2-3.43 0-2.04 1.49-3.44 3.2-3.44 1.72 0 3.2 1.4 3.2 3.44 0 2.02-1.48 3.44-3.2 3.44Zm0-9.1a5.59 5.59 0 0 0-5.69 5.67 5.6 5.6 0 0 0 5.7 5.67 5.6 5.6 0 0 0 5.69-5.67 5.59 5.59 0 0 0-5.7-5.67Z" fill="#fff"/>
</svg>
