<svg id="artwork" xmlns="http://www.w3.org/2000/svg" version="1.1" viewBox="0 0 240.4 70.9">
  <defs>
    <style>
      .st5{fill:#fff}
    </style>
  </defs>
  <rect x=".6" width="239.2" height="70.9" rx="8.9" ry="8.9"/>
  <path class="st5" d="M121.3 38.5c-4.1 0-7.5 3.2-7.5 7.6s3.4 7.5 7.5 7.5 7.6-3.2 7.6-7.5-3.4-7.6-7.6-7.6Zm0 12.1c-2.3 0-4.2-1.8-4.2-4.5s2-4.6 4.2-4.6 4.3 1.9 4.3 4.6-2 4.5-4.3 4.5Zm-16.5-12c-4.1 0-7.5 3.1-7.5 7.5s3.4 7.5 7.5 7.5 7.6-3.2 7.6-7.5-3.4-7.6-7.6-7.6Zm0 12c-2.3 0-4.2-1.8-4.2-4.5s2-4.6 4.2-4.6 4.3 1.9 4.3 4.6-2 4.5-4.3 4.5Zm-19.6-9.8V44h7.6a6.6 6.6 0 0 1-1.7 4 7.8 7.8 0 0 1-6 2.4 8.4 8.4 0 0 1-8.3-8.5A8.4 8.4 0 0 1 91 35.7l2.2-2.3c-2-1.8-4.4-3.2-8-3.2-6.5 0-11.9 5.3-11.9 11.7s5.4 11.7 11.9 11.7a10.3 10.3 0 0 0 10.9-10.7c0-.8 0-1.5-.2-2H85.2Zm80.2 2.5c-.6-1.6-2.5-4.8-6.4-4.8s-7.1 3-7.1 7.6c0 4.2 3.2 7.5 7.5 7.5 3.4 0 5.4-2.1 6.2-3.3l-2.5-1.8c-.9 1.3-2 2.1-3.7 2.1s-3-.7-3.7-2.3l10.1-4.1-.3-.9ZM155.3 46a4 4 0 0 1 4-4.4c1.2 0 2.3.6 2.7 1.6l-6.7 2.8Zm-8.2 7.3h3.3V31H147v22.1Zm-5.4-13h-.1a5.2 5.2 0 0 0-4-1.7c-3.8 0-7.2 3.3-7.2 7.6s3.4 7.5 7.2 7.5c1.8 0 3.2-.8 4-1.7v1c0 3-1.5 4.5-4 4.5-2 0-3.2-1.4-3.7-2.7l-3 1.2c.9 2 3.1 4.5 6.7 4.5 4 0 7.2-2.3 7.2-7.9V39h-3.1v1.2Zm-3.8 10.4c-2.3 0-4.2-1.9-4.2-4.5s1.9-4.6 4.2-4.6 4 2 4 4.6-1.8 4.5-4 4.5ZM181 31h-8v22.1h3.4v-8.4h4.6c3.7 0 7.2-2.6 7.2-6.8S184.6 31 181 31Zm0 10.7h-4.7V34h4.7c2.5 0 4 2 4 3.8s-1.5 3.8-4 3.8Zm20.5-3.2c-2.4 0-4.9 1-6 3.4l3 1.2c.7-1.2 1.8-1.6 3-1.6 1.7 0 3.5 1 3.5 2.8v.3c-.6-.4-1.9-.9-3.4-.9-3.2 0-6.4 1.7-6.4 5 0 3 2.6 4.8 5.5 4.8 2.2 0 3.4-1 4.2-2.1h.1V53h3.2v-8.5c0-4-3-6.1-6.7-6.1Zm-.4 12.1c-1.1 0-2.6-.5-2.6-1.8 0-1.7 1.9-2.4 3.5-2.4 1.4 0 2.1.3 3 .7a4 4 0 0 1-4 3.5ZM219.8 39l-3.8 9.6-4-9.6h-3.6l6 13.4L211 60h3.4l9.1-21h-3.7Zm-29.7 14h3.3V31H190v22.1Z"/>
  <path d="m37.3 34.4-18.9 20a5 5 0 0 0 7.6 3l21.2-12.2-10-10.8h.1Z" style="fill:#ea4335"/>
  <path d="m56.4 31-9.2-5.3L37 34.9l10.3 10.3 9.2-5.2c1.5-1 2.6-2.6 2.6-4.5s-1-3.6-2.6-4.5Z" style="fill:#fbbc04"/>
  <path d="m18.4 16.4-.1 1.4V53l.1 1.3L38 35 18.4 16.4Z" style="fill:#4285f4"/>
  <path d="m37.5 35.4 9.7-9.7L26 13.4a5.1 5.1 0 0 0-7.6 3l19 19Z" style="fill:#34a853"/>
  <path class="st5" d="M74.6 12h1.8v5.4L81 12h2.2L79 17l4.4 6.3h-2.1l-3.5-5-1.6 1.8v3.2h-1.7V12Zm10.6 0h4c.6 0 1.2.2 1.8.5s1 .7 1.3 1.2a3.3 3.3 0 0 1-.3 3.8c-.4.6-1 1-1.8 1.2l3 4.4v.1h-2l-3-4.4H87v4.4h-1.8V12Zm4 5.3c.4 0 .9-.2 1.2-.5s.6-.8.6-1.3c0-.3 0-.6-.2-.9l-.6-.6c-.3-.2-.6-.3-1-.3H87v3.6h2Zm8.3.7-3.7-6h2l2.6 4.2L101 12h2l-3.6 6v5.3h-1.8V18Zm11.3-6h3.6c1.1 0 2.1.3 3 .8s1.5 1 2 2 .7 1.8.7 2.9-.2 2-.7 2.9-1.1 1.5-2 2c-.9.4-1.9.7-3 .7h-3.6V12Zm3.5 9.6c1.3 0 2.3-.4 3-1s1-1.7 1-3-.3-2.1-1-2.9-1.7-1-3-1h-1.8v7.9h1.8Zm8.1-9.6h1.8v11.3h-1.8V12Zm6.9 1.7h-3.1v-1.6h8v1.6h-3.1v9.6h-1.8v-9.6Zm12.9 9c-1-.5-1.6-1.2-2.1-2.1s-.8-1.9-.8-3 .3-2 .8-3 1.2-1.5 2-2a6 6 0 0 1 6 0c.9.5 1.6 1.2 2 2a6.1 6.1 0 0 1 0 6 5.6 5.6 0 0 1-5 3c-1 0-2-.4-3-.9Zm5-1.4c.6-.3 1-.8 1.4-1.5s.5-1.3.5-2.1-.1-1.6-.5-2.2-.8-1.1-1.4-1.5-1.3-.5-2-.5-1.5.2-2.1.5c-.6.4-1.1.9-1.5 1.5-.3.7-.5 1.4-.5 2.2s.2 1.5.5 2.1c.4.7.9 1.2 1.5 1.5s1.3.5 2 .5 1.4-.1 2-.5Zm6-9.3h4c.6 0 1.2.2 1.7.5s1 .7 1.4 1.2a3.5 3.5 0 0 1 0 3.6 3.7 3.7 0 0 1-3.2 1.6H153v4.4h-1.8V12Zm4 5.3c.4 0 .7-.1 1-.3l.6-.7a1.8 1.8 0 0 0 0-1.7c-.1-.2-.3-.5-.6-.6a2 2 0 0 0-1-.3H153v3.5h2.2Z" style="isolation:isolate"/>
</svg>
