<svg width="180" height="54" fill="none" xmlns="http://www.w3.org/2000/svg">
  <path d="M173.3 54H6.7A6.7 6.7 0 0 1 0 47.2V6.8C0 3 3 0 6.7 0h166.6a6.7 6.7 0 0 1 6.7 6.8v40.5c0 3.7-3 6.7-6.7 6.7Z" fill="#000"/>
  <path d="M27.6 26.2 13.4 41.5a3.8 3.8 0 0 0 5.7 2.3l16-9.3-7.5-8.3Z" fill="#EA4335"/>
  <path d="m42 23.6-7-4-7.7 7 7.8 7.9 6.9-4a3.9 3.9 0 0 0 2-3.5 4 4 0 0 0-2-3.4Z" fill="#FBBC04"/>
  <path d="M13.4 12.5a3.7 3.7 0 0 0-.1 1v27l.1 1 14.7-14.9-14.7-14Z" fill="#4285F4"/>
  <path d="m27.7 27 7.4-7.4-16-9.4a3.9 3.9 0 0 0-5.7 2.3L27.7 27Z" fill="#34A853"/>
  <path d="M131.5 26.7h2.2V12h-2.2v14.6Zm19.6-9.3-2.5 6.3-2.6-6.3h-2.4l3.9 8.8-2.2 4.9h2.2l6-13.8h-2.4ZM138.8 25c-.7 0-1.7-.3-1.7-1.2 0-1.2 1.2-1.6 2.3-1.6 1 0 1.4.2 2 .5a2.6 2.6 0 0 1-2.6 2.3Zm.2-8c-1.5 0-3.2.7-3.8 2.2l1.9.9c.4-.9 1.2-1.1 2-1.1 1.1 0 2.2.7 2.3 1.9v.1a4.8 4.8 0 0 0-2.3-.6c-2 0-4.2 1.2-4.2 3.3 0 2 1.7 3.2 3.6 3.2a3 3 0 0 0 2.8-1.4v1.1h2.2V21c0-2.5-2-4-4.5-4Zm-13.4 2.1h-3.1v-5h3.1a2.5 2.5 0 0 1 2.6 2.5c0 1.1-1 2.5-2.6 2.5Zm0-7h-5.3v14.6h2.2V21h3c2.5 0 4.8-1.7 4.8-4.5S128 12 125.5 12ZM97 25c-1.5 0-2.7-1.3-2.7-3s1.2-3 2.7-3c1.5 0 2.7 1.3 2.7 3s-1.2 3-2.7 3Zm2.5-6.8a3.4 3.4 0 0 0-2.7-1.2 5 5 0 0 0-4.7 5 4.9 4.9 0 0 0 4.7 5c1.2 0 2.2-.6 2.6-1.2h.1v.7c0 2-1 3-2.6 3a2.7 2.7 0 0 1-2.5-1.8l-2 .8c.6 1.3 2 3 4.5 3s4.7-1.6 4.7-5.3v-8.9h-2v.8Zm3.6 8.4h2.2V12.1h-2.2v14.6Zm5.4-4.8a2.7 2.7 0 0 1 2.6-2.9c.8 0 1.6.5 1.8 1.1l-4.4 1.8Zm6.7-1.6c-.4-1.1-1.6-3.2-4.2-3.2s-4.7 2-4.7 5c0 2.8 2.1 5 5 5a5 5 0 0 0 4-2.2l-1.6-1.2a2.8 2.8 0 0 1-2.5 1.4c-1 0-1.9-.5-2.4-1.5l6.7-2.7-.3-.6Zm-52.8-1.6v2h5a4.4 4.4 0 0 1-1 2.7 5.2 5.2 0 0 1-4 1.5 5.5 5.5 0 0 1-5.5-5.6 5.5 5.5 0 0 1 9.3-4l1.5-1.5a7.3 7.3 0 0 0-5.3-2.1 7.8 7.8 0 0 0-7.8 7.7 7.8 7.8 0 0 0 7.8 7.7 7 7 0 0 0 5.4-2.2 7 7 0 0 0 1.8-5v-1.2h-7.2Zm13 6.4c-1.6 0-2.9-1.2-2.9-3s1.3-3 2.8-3c1.5 0 2.8 1.2 2.8 3s-1.3 3-2.8 3Zm0-8a4.9 4.9 0 0 0-5 5 4.9 4.9 0 0 0 5 5 4.9 4.9 0 0 0 5-5 4.9 4.9 0 0 0-5-5Zm10.8 8c-1.5 0-2.8-1.2-2.8-3s1.3-3 2.8-3c1.5 0 2.8 1.2 2.8 3s-1.3 3-2.8 3Zm0-8a4.9 4.9 0 0 0-5 5 4.9 4.9 0 0 0 5 5 4.9 4.9 0 0 0 5-5 4.9 4.9 0 0 0-5-5Zm-26 27h-1l-1.7-5.2c-.4.1-.7.2-.9.4l-.5 1a13.1 13.1 0 0 0-.4 2h-1c.2-1 .3-1.7.6-2.3.2-.6.4-1 .7-1.3.3-.3.7-.5 1.2-.6l-.5-1.6h1l2.6 7.6Z" fill="#fff"/>
  <path d="M60.4 44v-.1h-1l-1.7-5.2h-.2c-.3 0-.6.2-.9.4l-.5 1-.4 2h.1V42h-1v.1h.2c.1-.9.3-1.6.5-2.2s.4-1 .7-1.2a2.1 2.1 0 0 1 1.2-.5h.1l-.6-1.7h.8l2.5 7.5h.2L58 36.3h-1.3l.6 1.8h.1v-.2c-.5.1-1 .3-1.3.6-.3.3-.6.8-.8 1.4a9 9 0 0 0-.5 2.2v.2H56V42l.5-1.9c0-.4.3-.7.4-.9.2-.1.5-.3.8-.3v-.2h-.1l1.8 5.3h1.3l-.1-.1h-.1Zm4.6-7a1 1 0 0 0-.9.5 2.7 2.7 0 0 0-.3 1.5c.7 0 1.3 0 1.6-.2.3-.2.4-.5.4-.9a1 1 0 0 0-.2-.7.8.8 0 0 0-.6-.2Zm-.7 6.3a4.3 4.3 0 0 1-1.1-1.7 6.5 6.5 0 0 1-.4-2.3c0-1 .2-1.7.6-2.2.4-.6.9-.8 1.6-.8.3 0 .7 0 1 .2l.6.5.2.9c0 .6-.3 1-.8 1.4-.5.3-1.2.5-2.2.5 0 .7.2 1.3.4 1.8s.5 1 .8 1.2c.4.3.7.5 1 .5.5 0 .8-.2 1-.5.3-.3.4-.7.4-1.2v-.4h1v.3c0 .8-.2 1.4-.6 1.9-.4.4-1 .6-1.7.6h-3.2a1.3 1.3 0 0 1-.4.6.8.8 0 0 1-.5.2h-.2l.1-1.2-.2-1.2h.2l.6.3c.2.1.3.3.3.6h1.5Z" fill="#fff"/>
  <path d="M65 37v-.1c-.4 0-.8.2-1 .6-.3.4-.4.9-.4 1.5v.2h.2a4 4 0 0 0 1.7-.3c.3-.2.5-.6.5-1a1 1 0 0 0-.3-.7.9.9 0 0 0-.7-.3v.2c.2 0 .4 0 .5.2l.2.6c0 .4-.1.6-.4.8l-1.5.2v.2-.1c0-.6.2-1 .4-1.4.2-.3.5-.5.8-.5V37Zm-.7 6.3v-.1a4 4 0 0 1-1-1.7 6.3 6.3 0 0 1-.4-2.2c0-1 .2-1.6.6-2.1.4-.6.8-.8 1.5-.8.3 0 .6 0 .9.2l.6.5.2.8c0 .6-.3 1-.7 1.3a4 4 0 0 1-2.2.5h-.2v.1l.5 1.8c.2.6.5 1 .9 1.3.3.3.7.5 1 .5.5 0 1-.2 1.2-.5.3-.3.4-.8.4-1.3v-.3h.7v.2c0 .8-.2 1.4-.6 1.8-.3.4-.9.6-1.6.6h-3.3l-.4.6-.4.2h-.1l.2-1-.2-1.1c.2 0 .3 0 .5.2.1.1.3.3.3.5v.1h2l-.3-.2h-1.6.2a1.5 1.5 0 0 0-.4-.6 1 1 0 0 0-.6-.3h-.4l.2 1.3-.2 1.4h.4a.9.9 0 0 0 .6-.3l.4-.7h-.2v.1h3.3c.8 0 1.4-.2 1.8-.7.5-.4.7-1 .7-2V41h-1.3v.6c0 .5-.1.9-.3 1.2-.2.2-.5.4-1 .4l-.9-.5a3.3 3.3 0 0 1-.8-1.2 5.8 5.8 0 0 1-.4-1.7h-.1v.1c1 0 1.8-.1 2.3-.5s.8-.9.8-1.5c0-.4 0-.7-.2-1a1.6 1.6 0 0 0-.7-.6 2.3 2.3 0 0 0-1-.2 2 2 0 0 0-1.7.9 3.9 3.9 0 0 0-.7 2.3c0 .8.2 1.6.4 2.3a4.5 4.5 0 0 0 1.2 1.8v-.1ZM75.9 37a.9.9 0 0 0-.7.3 1 1 0 0 0-.2.8c0 .4.1.9.5 1.3.4 0 .8-.2 1-.4.2-.3.4-.6.4-1a1 1 0 0 0-.3-.7.9.9 0 0 0-.7-.3Zm-1.6 7a1.3 1.3 0 0 1-.3.6.8.8 0 0 1-.6.2h-.2l.2-1.1-.2-1.3h.2l.6.3c.1.1.3.3.3.6h1.2V43a5 5 0 0 0-.7-2.7 7 7 0 0 1-.5-1 4.2 4.2 0 0 1-.2-.6v-.6c0-.6.1-1 .4-1.3.4-.4.8-.5 1.4-.5a2 2 0 0 1 1.4.4c.3.4.5.8.5 1.4 0 .5-.2 1-.6 1.3-.3.4-.8.6-1.4.7a5.8 5.8 0 0 1 .6 2.6V44h-2Z" fill="#fff"/>
  <path d="M76 37v-.1a1 1 0 0 0-.9.3c-.2.2-.3.5-.3.8 0 .5.2 1 .5 1.5h.2a1.9 1.9 0 0 0 1.1-.4c.3-.3.4-.6.4-1s-.1-.7-.3-.9a1 1 0 0 0-.8-.3v.2c.3 0 .5.1.6.3a1 1 0 0 1 .2.7 1 1 0 0 1-.3.8c-.2.2-.5.3-1 .4v.1h.2a3 3 0 0 1-.5-1.3c0-.4 0-.6.2-.7a.7.7 0 0 1 .6-.3V37Zm-1.7 7h-.1c0 .2-.2.4-.3.5-.2.2-.3.2-.5.2l.1-1-.1-1.1c.2 0 .3 0 .5.2l.3.5v.1h1.4V43a5.2 5.2 0 0 0-.6-2.8 18 18 0 0 1-.5-.9 4.3 4.3 0 0 1-.3-.6v-.6c0-.5.1-1 .4-1.2.3-.3.7-.5 1.3-.5.6 0 1 .2 1.3.4.3.3.5.7.5 1.3 0 .5-.2 1-.6 1.3-.3.3-.8.5-1.3.5h-.2v.2a5.8 5.8 0 0 1 .7 2.6V44h-2.1l.1.1v.1h2.3v-1.4a6 6 0 0 0-.7-2.7h-.1v.2a2.5 2.5 0 0 0 1.5-.6c.4-.4.6-1 .6-1.5 0-.6-.1-1.1-.5-1.4-.4-.4-.9-.5-1.5-.5a2 2 0 0 0-1.5.5 2 2 0 0 0-.5 1.4v.7l.3.6.5 1h.1a4.9 4.9 0 0 1 .5 2.6v.2h-1v.1h.1c0-.3-.2-.5-.4-.7a1 1 0 0 0-.6-.3h-.3l.2 1.4L73 45h.3a.9.9 0 0 0 .7-.3l.4-.7h-.2Zm7.1-7a1 1 0 0 0-.6.2.8.8 0 0 0-.3.7c0 .3.1.5.3.7l.6.2c.3 0 .5 0 .7-.2l.2-.7a.8.8 0 0 0-.2-.7 1 1 0 0 0-.7-.2Zm4 3c0-.8 0-1.4-.2-1.8a1.5 1.5 0 0 0-.7-.8 3.4 3.4 0 0 0-1.4-.3l.2.8c0 .4-.2.8-.5 1a2 2 0 0 1-1.4.5 2 2 0 0 1-1.3-.4 1.4 1.4 0 0 1-.5-1.1c0-.5.1-.9.4-1.1.4-.3.8-.4 1.4-.4H83c1 0 1.7 0 2.2.3a2 2 0 0 1 1 1c.2.5.3 1.2.3 2V44h-1v-4Z" fill="#fff"/>
  <path d="M81.4 37v-.1a1 1 0 0 0-.7.2 1 1 0 0 0-.3.8c0 .3 0 .5.3.7.2.2.4.3.7.3s.6 0 .8-.2c.2-.3.2-.5.2-.8a1 1 0 0 0-.2-.8 1 1 0 0 0-.8-.2v.2l.6.2.2.6c0 .2 0 .4-.2.6a.7.7 0 0 1-.6.2.7.7 0 0 1-.5-.2.8.8 0 0 1-.2-.6c0-.3 0-.4.2-.6l.5-.2Zm4 3h.2c0-.8 0-1.4-.2-1.9a1.6 1.6 0 0 0-.8-.9A3.5 3.5 0 0 0 83 37h-.3l.2.2.1.6c0 .5-.1.8-.4 1-.3.3-.7.5-1.3.5-.5 0-1-.2-1.3-.4a1.3 1.3 0 0 1-.4-1c0-.5.1-.8.4-1 .3-.3.7-.4 1.3-.4H83c1 0 1.7.1 2.1.3.5.2.8.5 1 1 .2.4.3 1 .3 1.9v4.2h-.7v-4h-.3v4.2h1.3v-4.4c0-.8-.1-1.5-.4-2s-.6-.9-1-1.1a5.7 5.7 0 0 0-2.3-.3h-1.5a2.3 2.3 0 0 0-1.4.4c-.4.2-.6.7-.6 1.2s.2.9.6 1.2c.3.3.8.5 1.4.5.6 0 1.1-.2 1.5-.5.3-.3.5-.7.5-1.2 0-.3 0-.6-.2-.9l-.1.1v.1c.6 0 1 .1 1.4.3.3.1.5.4.6.8.2.3.2.9.2 1.7h.2Zm7.3-1.2v1.5h2l.1 1.6h-.2a.8.8 0 0 1-.5-.3 1.4 1.4 0 0 1-.4-.6h-1v3h-1v-4.5c-.6 0-1-.2-1.3-.5-.3-.3-.4-.8-.4-1.4V37h-1c0 .2-.2.4-.3.5a.8.8 0 0 1-.6.2H88l.2-1-.2-1h.2l.6.1.3.6H92l.3-.6.6-.1h.2l-.2 1 .2 1h-.2a.8.8 0 0 1-.6-.2 1 1 0 0 1-.3-.5h-1v.6l.1.7.4.4.7.1h.6Z" fill="#fff"/>
  <path d="M92.7 38.8h-.1v1.6h1.9l.2 1.3a.6.6 0 0 1-.5-.2 1.2 1.2 0 0 1-.4-.5v-.1h-1.2v3h-.7v-4.5h-.1a2 2 0 0 1-1.3-.4c-.3-.3-.4-.8-.4-1.4v-.7h-1.2a1 1 0 0 1-.3.5.7.7 0 0 1-.5.2l.1-.9-.1-1 .5.2a1 1 0 0 1 .3.5v.1H92c0-.3.2-.4.3-.5l.5-.2-.1.9.1 1a.7.7 0 0 1-.5-.3.9.9 0 0 1-.3-.4v-.1h-1.2v.7l.1.7.4.5.8.1h.6v-.2h-.6a1.7 1.7 0 0 1-.7-.1.6.6 0 0 1-.2-.4 2 2 0 0 1-.1-.7v-.4h.8V37h-.2c.1.3.2.5.4.6.2.2.4.3.7.3h.3l-.2-1.2.2-1.2h-.3a1 1 0 0 0-.7.3 1.2 1.2 0 0 0-.4.6h.2v-.1H89v.1h.2a1.3 1.3 0 0 0-.4-.6 1 1 0 0 0-.7-.3h-.3l.2 1.2-.2 1v.2h.3a1 1 0 0 0 .7-.2l.4-.7H89v.1h.8v.5c0 .7.2 1.2.5 1.5.3.4.8.6 1.4.6v-.1V44h1.2v-3h.8-.1c0 .3.2.5.4.7l.6.2h.4l-.3-1.8H93v-1.5h-.2v.1Zm6.9-1.2v1.3h2l.2 1.6h-.2a.8.8 0 0 1-.5-.3 1.4 1.4 0 0 1-.4-.6h-1.1V44h-1v-4.4h-1.2a1.3 1.3 0 0 1-.3.6.8.8 0 0 1-.6.3h-.2l.2-1.6h2v-.5a2.5 2.5 0 0 1-1-.3 1.3 1.3 0 0 1-.5-.6 2.8 2.8 0 0 1-.2-1.1v-.5h1V37l.4.4.8.1h.6Z" fill="#fff"/>
  <path d="M99.6 37.6h-.2v1.5h2.1l.2 1.3a.6.6 0 0 1-.5-.2 1.2 1.2 0 0 1-.3-.6v-.1h-1.5v4.4h-.7v-4.4h-1.4c0 .3-.2.5-.3.6-.2.2-.3.2-.5.2l.1-1.2h2.1v-.9h-.1a2.5 2.5 0 0 1-1-.2 1 1 0 0 1-.5-.6 2.7 2.7 0 0 1-.2-1V36h.7v.4c0 .3 0 .6.2.8 0 .2.2.3.3.4l.9.1h.6v-.2H99l-.7-.1a.6.6 0 0 1-.3-.3l-.1-.7v-.6h-1.2v.6c0 .5 0 .9.2 1.2 0 .3.3.5.6.6.2.2.6.3 1 .3v-.1.4h-2.1l-.3 1.8h.4a.9.9 0 0 0 .7-.3l.3-.6h1v4.4h1.2v-4.3h1v-.2h-.1c0 .3.2.6.4.7l.6.3h.4l-.3-1.8h-2v-1.3h-.1v.1Z" fill="#fff"/>
</svg>
