<svg width="180" height="54" fill="none" xmlns="http://www.w3.org/2000/svg">
  <path d="M173.33 54H6.67A6.73 6.73 0 0 1 0 47.25V6.75C0 3.04 3 0 6.67 0h166.66A6.73 6.73 0 0 1 180 6.75v40.5c0 3.71-3 6.75-6.67 6.75Z" fill="#000"/>
  <path d="m27.63 26.22-14.2 15.26a3.84 3.84 0 0 0 5.65 2.35l.05-.03 15.97-9.33-7.48-8.25Z" fill="#EA4335"/>
  <path d="m41.98 23.63-.01-.02-6.9-4.05-7.77 7 7.8 7.9 6.86-4a3.89 3.89 0 0 0 2.02-3.43c0-1.47-.8-2.75-2-3.4Z" fill="#FBBC04"/>
  <path d="M13.43 12.52a3.7 3.7 0 0 0-.13 1v26.96c0 .35.04.68.13 1L28.1 26.62l-14.68-14.1Z" fill="#4285F4"/>
  <path d="m27.73 27 7.34-7.44-15.96-9.37a3.85 3.85 0 0 0-5.69 2.33L27.73 27Z" fill="#34A853"/>
  <path d="M131.52 26.67h2.17V12.1h-2.17v14.57Zm19.59-9.32-2.5 6.31h-.07l-2.59-6.31h-2.34l3.88 8.82-2.21 4.91h2.26l5.99-13.73h-2.42ZM138.77 25c-.7 0-1.7-.35-1.7-1.24 0-1.12 1.24-1.55 2.3-1.55.96 0 1.4.2 1.99.49a2.64 2.64 0 0 1-2.59 2.3Zm.27-7.98c-1.58 0-3.2.69-3.88 2.23l1.93.8c.4-.8 1.18-1.07 1.98-1.07 1.13 0 2.27.68 2.29 1.88v.15a4.8 4.8 0 0 0-2.27-.56c-2.08 0-4.2 1.14-4.2 3.28 0 1.95 1.7 3.2 3.62 3.2 1.46 0 2.27-.65 2.78-1.42h.07v1.12h2.1v-5.58c0-2.59-1.93-4.03-4.42-4.03Zm-13.44 2.09h-3.1v-5h3.1a2.52 2.52 0 0 1 2.55 2.5c0 1.13-.93 2.5-2.55 2.5Zm-.06-7.02h-5.21v14.57h2.17v-5.52h3.04c2.41 0 4.78-1.75 4.78-4.53 0-2.78-2.37-4.52-4.78-4.52ZM97.13 25c-1.5 0-2.76-1.25-2.76-2.98 0-1.75 1.25-3.02 2.76-3.02 1.48 0 2.64 1.27 2.64 3.02 0 1.73-1.16 2.98-2.64 2.98Zm2.5-6.85h-.08a3.43 3.43 0 0 0-2.61-1.1 4.93 4.93 0 0 0-4.75 4.97 4.9 4.9 0 0 0 4.75 4.94c1.18 0 2.12-.53 2.6-1.13h.08v.71c0 1.9-1.01 2.91-2.64 2.91a2.74 2.74 0 0 1-2.5-1.76l-1.9.79c.55 1.31 2 2.93 4.4 2.93 2.55 0 4.7-1.5 4.7-5.17v-8.9h-2.06v.81Zm3.56 8.5h2.18V12.1h-2.18v14.57Zm5.39-4.8a2.72 2.72 0 0 1 2.59-2.9c.86 0 1.6.44 1.84 1.06l-4.43 1.84Zm6.76-1.65c-.42-1.11-1.67-3.16-4.25-3.16-2.55 0-4.67 2.01-4.67 4.96 0 2.78 2.1 4.96 4.92 4.96a4.93 4.93 0 0 0 4.13-2.2l-1.69-1.13a2.83 2.83 0 0 1-2.44 1.37c-1.1 0-1.9-.5-2.4-1.5l6.62-2.74-.22-.56Zm-52.8-1.64v2.1h5.03a4.39 4.39 0 0 1-1.15 2.65 5.15 5.15 0 0 1-3.89 1.54c-3.1 0-5.52-2.5-5.52-5.6a5.52 5.52 0 0 1 9.32-4.08l1.48-1.49a7.34 7.34 0 0 0-5.28-2.12 7.8 7.8 0 0 0-7.8 7.7 7.8 7.8 0 0 0 7.8 7.7c2.3 0 4.02-.75 5.37-2.16a6.95 6.95 0 0 0 1.82-4.92c0-.49-.03-.94-.1-1.32h-7.09ZM75.44 25c-1.5 0-2.8-1.23-2.8-3 0-1.78 1.3-3 2.8-3 1.5 0 2.8 1.22 2.8 3 0 1.77-1.3 3-2.8 3Zm0-7.96A4.89 4.89 0 0 0 70.47 22a4.9 4.9 0 0 0 4.98 4.96A4.9 4.9 0 0 0 80.42 22a4.89 4.89 0 0 0-4.97-4.96ZM86.3 25c-1.5 0-2.8-1.23-2.8-3 0-1.78 1.3-3 2.8-3 1.5 0 2.8 1.22 2.8 3 0 1.77-1.3 3-2.8 3Zm0-7.96A4.89 4.89 0 0 0 81.32 22a4.9 4.9 0 0 0 4.98 4.96A4.9 4.9 0 0 0 91.28 22a4.89 4.89 0 0 0-4.98-4.96ZM60.36 44h-1.02l-1.76-5.17c-.36.07-.64.2-.84.41-.2.21-.37.53-.51.97a13.1 13.1 0 0 0-.41 1.9h-.97c.13-.9.29-1.65.5-2.21.2-.57.45-1 .76-1.3.3-.29.7-.48 1.21-.56l-.57-1.65h1.01l2.6 7.61Z" fill="#fff"/>
  <path d="M60.36 44v-.13h-.92l-1.77-5.2-.12.03c-.38.07-.69.22-.9.45-.23.23-.4.57-.55 1.02-.14.44-.28 1.08-.41 1.92l.13.02v-.13h-.97v.13l.13.02c.13-.9.29-1.64.49-2.19s.44-.96.73-1.24a2.1 2.1 0 0 1 1.15-.53l.15-.03-.57-1.62h.74l2.56 7.52.13-.04.12-.04-2.62-7.7h-1.3l.64 1.82.12-.04-.02-.14c-.52.1-.96.3-1.29.6-.32.32-.58.77-.8 1.35-.2.58-.37 1.33-.5 2.25l-.01.15h1.23l.02-.11c.13-.84.27-1.47.4-1.9.14-.41.3-.72.48-.9.18-.19.43-.31.77-.38l-.02-.13-.13.04 1.8 5.26h1.3l-.07-.17-.12.04Zm4.67-7.01c-.39 0-.7.18-.93.55a2.7 2.7 0 0 0-.34 1.44v.07c.77 0 1.3-.1 1.62-.28.31-.17.47-.47.47-.87a.93.93 0 0 0-.24-.66.77.77 0 0 0-.58-.25Zm-.76 6.3a4.3 4.3 0 0 1-1.09-1.72 6.47 6.47 0 0 1-.4-2.27c0-.94.2-1.68.59-2.22.39-.54.92-.81 1.6-.81.38 0 .7.06.98.2.27.13.48.32.63.57.15.24.22.52.22.82 0 .64-.26 1.13-.77 1.46-.51.32-1.26.49-2.24.49.06.66.2 1.25.42 1.78.22.53.5.95.84 1.25.33.3.67.45 1.01.45.44 0 .78-.15 1.02-.45.25-.3.37-.73.37-1.28v-.4h.98v.3c0 .83-.2 1.46-.6 1.89-.4.43-1 .64-1.78.64h-3.2a1.3 1.3 0 0 1-.37.61.77.77 0 0 1-.53.24h-.2l.17-1.2-.18-1.2h.2c.2 0 .37.07.54.23.17.16.29.36.36.62h1.43Z" fill="#fff"/>
  <path d="M65.03 36.99v-.13c-.43 0-.8.21-1.04.6-.25.4-.36.9-.36 1.52v.2h.13c.78 0 1.33-.09 1.69-.3.35-.19.54-.54.53-.98 0-.3-.09-.55-.27-.75a.9.9 0 0 0-.68-.3v.27c.2 0 .35.07.49.21.13.15.2.33.2.57-.01.37-.14.6-.4.76-.28.16-.8.25-1.56.26v.13h.13v-.07c0-.58.11-1.04.33-1.37.21-.34.46-.48.81-.49V37Zm-.76 6.3.09-.1c-.44-.4-.79-.95-1.05-1.67a6.35 6.35 0 0 1-.4-2.22c0-.92.2-1.63.56-2.14.38-.51.86-.76 1.5-.76.36 0 .66.06.92.19.25.12.44.3.58.51.13.23.2.48.2.76 0 .6-.23 1.03-.71 1.34-.48.31-1.2.47-2.17.47h-.15l.02.15c.06.67.2 1.28.43 1.83.23.54.51.97.87 1.29.35.31.72.48 1.1.48.47 0 .86-.17 1.13-.5.27-.33.4-.8.4-1.36v-.28h.7v.18c0 .81-.19 1.4-.56 1.8-.36.4-.91.6-1.68.6h-3.3l-.04.1c-.06.22-.17.4-.32.54-.15.15-.3.21-.44.21h-.05l.15-1.06-.15-1.08h.05c.15 0 .29.06.44.2.15.14.26.32.32.55l.03.1h1.87l-.25-.23-.1.1v-.14h-1.42v.14l.13-.04a1.5 1.5 0 0 0-.4-.68.91.91 0 0 0-.62-.27h-.36l.2 1.35-.2 1.33h.36a.9.9 0 0 0 .62-.28c.2-.18.33-.4.4-.67l-.13-.04v.13h3.21c.81 0 1.45-.22 1.88-.68.43-.46.63-1.13.63-1.98v-.44h-1.24v.54c0 .53-.12.92-.34 1.2-.22.26-.51.4-.92.4-.3 0-.6-.14-.92-.42a3.27 3.27 0 0 1-.8-1.2 5.81 5.81 0 0 1-.42-1.74h-.13v.14c1 0 1.76-.16 2.31-.51s.84-.89.83-1.57c0-.32-.08-.62-.24-.9a1.6 1.6 0 0 0-.68-.61 2.3 2.3 0 0 0-1.04-.22 2 2 0 0 0-1.71.87 3.86 3.86 0 0 0-.61 2.3c0 .8.13 1.58.4 2.32a4.5 4.5 0 0 0 1.13 1.76l.09-.1ZM75.91 37a.9.9 0 0 0-.68.29c-.17.19-.25.44-.25.76 0 .46.16.91.48 1.35.46-.05.81-.2 1.05-.43.23-.23.35-.53.35-.9 0-.32-.08-.58-.26-.77a.88.88 0 0 0-.69-.3Zm-1.58 7a1.3 1.3 0 0 1-.36.61.77.77 0 0 1-.54.24h-.2l.17-1.2-.17-1.2h.2c.19 0 .37.07.53.23.17.16.3.36.37.62h1.16V43a5 5 0 0 0-.65-2.69 7.03 7.03 0 0 1-.5-.96 4.2 4.2 0 0 1-.23-.63c-.05-.2-.08-.4-.08-.6 0-.57.17-1.02.5-1.35.34-.33.79-.5 1.34-.5.62 0 1.1.16 1.44.47.34.32.5.76.5 1.34 0 .55-.18 1-.57 1.37-.38.36-.86.57-1.45.62a5.85 5.85 0 0 1 .66 2.67V44h-2.12Z" fill="#fff"/>
  <path d="M75.91 37v-.13a1 1 0 0 0-.77.33c-.2.22-.3.5-.3.85 0 .5.18.97.5 1.43l.05.06h.08a1.9 1.9 0 0 0 1.13-.47c.26-.25.4-.6.4-1 0-.34-.1-.64-.3-.86-.2-.22-.47-.34-.79-.34v.27c.26 0 .45.08.6.25a1 1 0 0 1 .22.68 1 1 0 0 1-.32.8c-.2.21-.52.35-.97.4l.02.13.1-.08c-.3-.42-.45-.84-.45-1.27 0-.3.08-.5.22-.67a.74.74 0 0 1 .58-.24V37Zm-1.58 7-.13-.04c-.07.23-.17.41-.33.56-.15.14-.3.2-.44.2h-.05l.15-1.05v-.01l-.15-1.08h.05c.15 0 .3.06.44.2.15.14.26.32.33.55l.03.1h1.39v-.44a5.16 5.16 0 0 0-.67-2.75 18 18 0 0 1-.5-.94 4.32 4.32 0 0 1-.21-.6c-.05-.2-.08-.4-.08-.59 0-.54.16-.95.47-1.25.3-.3.71-.45 1.24-.45.6 0 1.04.15 1.35.43.3.29.46.69.46 1.24 0 .52-.17.93-.53 1.27-.36.35-.8.54-1.37.59l-.2.02.1.17a5.75 5.75 0 0 1 .65 2.6v1.14h-2.1l-.03.1.13.03v.13h2.26v-1.4a6.01 6.01 0 0 0-.68-2.72l-.12.06.02.14a2.46 2.46 0 0 0 1.53-.66c.4-.39.61-.89.6-1.47.01-.6-.17-1.1-.54-1.43-.37-.34-.89-.5-1.53-.5-.58 0-1.07.17-1.43.52-.37.36-.55.85-.54 1.44 0 .22.02.43.08.65.06.21.13.43.23.65.1.22.27.54.51.96l.12-.06-.12.06a4.87 4.87 0 0 1 .63 2.62v.17h-1.02v.14l.12-.04c-.07-.27-.2-.5-.4-.68a.91.91 0 0 0-.62-.27h-.36l.2 1.35-.2 1.33h.36a.9.9 0 0 0 .63-.28c.19-.18.32-.4.4-.67l-.13-.04Zm7.09-7c-.28 0-.5.08-.66.23a.83.83 0 0 0-.24.63c0 .29.08.51.25.7.16.17.38.26.65.26.26 0 .48-.1.64-.27.17-.18.25-.4.25-.69a.83.83 0 0 0-.24-.63.91.91 0 0 0-.65-.22Zm4.04 2.98c0-.8-.07-1.4-.22-1.79a1.48 1.48 0 0 0-.72-.83 3.35 3.35 0 0 0-1.45-.26c.13.22.2.47.2.75 0 .47-.17.85-.5 1.13a2 2 0 0 1-1.35.43c-.58 0-1.04-.14-1.36-.42a1.42 1.42 0 0 1-.49-1.14c0-.48.16-.84.47-1.09.31-.25.77-.37 1.38-.37h1.5c.95 0 1.67.1 2.14.31a2 2 0 0 1 1.05 1.03c.21.47.32 1.13.32 1.96V44h-.97v-4.02Z" fill="#fff"/>
  <path d="M81.42 37v-.13c-.3 0-.56.09-.75.27a.97.97 0 0 0-.28.72c0 .31.09.58.28.78.19.2.45.31.75.31s.55-.1.74-.3c.2-.21.29-.48.28-.79a.96.96 0 0 0-.28-.72 1.05 1.05 0 0 0-.74-.27v.27c.25 0 .42.07.56.2.13.12.2.28.2.52 0 .26-.07.45-.21.6a.71.71 0 0 1-.55.22.71.71 0 0 1-.56-.22.83.83 0 0 1-.2-.6c0-.24.06-.4.2-.53.13-.12.3-.19.56-.2v-.12Zm4.04 2.98h.13c0-.81-.07-1.42-.22-1.83a1.6 1.6 0 0 0-.79-.9 3.47 3.47 0 0 0-1.5-.28h-.24l.12.2c.11.2.17.42.17.68 0 .44-.15.77-.45 1.03-.3.26-.71.4-1.26.4-.56 0-.98-.14-1.27-.39a1.3 1.3 0 0 1-.45-1.04c0-.45.15-.76.42-.99.28-.22.7-.34 1.3-.34h1.5c.94 0 1.64.1 2.09.3.45.2.77.52.97.96.21.45.32 1.09.32 1.91v4.18h-.7v-3.9h-.28v4.16h1.24V39.7c0-.84-.1-1.52-.33-2.02s-.6-.87-1.11-1.1a5.7 5.7 0 0 0-2.2-.32h-1.5a2.3 2.3 0 0 0-1.46.4c-.35.28-.52.7-.52 1.2 0 .51.18.94.53 1.24.36.31.85.46 1.45.45.59 0 1.08-.14 1.44-.45.36-.31.54-.74.54-1.24 0-.3-.07-.58-.21-.82l-.12.07v.13c.62 0 1.09.1 1.4.25.3.15.51.4.65.76.13.36.2.94.2 1.74h.14Zm7.27-1.18v1.52h1.88l.21 1.55h-.2a.78.78 0 0 1-.54-.23 1.36 1.36 0 0 1-.37-.61h-.98V44h-.98v-4.45c-.65-.03-1.1-.2-1.38-.5-.27-.31-.41-.8-.41-1.46v-.6h-.94c-.07.23-.18.4-.35.54a.83.83 0 0 1-.54.21h-.2l.17-1.05-.18-1.04h.2c.2 0 .38.06.55.2.16.13.28.32.35.55h2.85c.06-.23.18-.4.34-.55.17-.13.36-.2.56-.2h.2l-.17 1.04.17 1.05h-.2a.84.84 0 0 1-.56-.21 1.04 1.04 0 0 1-.34-.54h-.94v.57c0 .31.04.56.11.74.07.18.19.3.34.38.15.08.4.12.76.12h.59Z" fill="#fff"/>
  <path d="M92.73 38.8h-.14v1.65h1.9l.18 1.3h-.05a.64.64 0 0 1-.45-.2 1.22 1.22 0 0 1-.33-.56l-.03-.1H92.6v2.98h-.7v-4.45h-.13c-.63-.03-1.06-.2-1.3-.46-.23-.27-.37-.72-.37-1.37v-.73h-1.17l-.03.1a.97.97 0 0 1-.3.47.7.7 0 0 1-.46.18h-.05l.15-.9v-.02l-.15-.91h.05c.16 0 .3.05.45.17a1 1 0 0 1 .32.49l.02.09h3.05l.03-.1c.06-.2.15-.35.3-.47s.3-.18.47-.18h.04l-.15.91.15.92h-.04a.71.71 0 0 1-.47-.18.9.9 0 0 1-.3-.47l-.03-.1H90.8v.7c0 .32.03.59.12.79.08.2.22.36.4.45.19.1.45.13.82.13h.59v-.27h-.6a1.7 1.7 0 0 1-.69-.1.58.58 0 0 1-.28-.31 2 2 0 0 1-.1-.7v-.43h.81V37l-.13.03c.07.25.2.45.39.61.18.16.4.24.64.24h.36l-.2-1.18.2-1.18h-.36a.98.98 0 0 0-.64.24 1.2 1.2 0 0 0-.39.6l.13.05v-.14h-2.85v.14l.13-.04a1.26 1.26 0 0 0-.4-.61.97.97 0 0 0-.62-.24h-.36l.19 1.18-.17 1.03-.02.15h.36a1 1 0 0 0 .63-.23c.18-.16.31-.36.39-.61l-.13-.04v.13h.8v.47c0 .68.14 1.2.45 1.54.3.35.8.52 1.47.56l.01-.14h-.13v4.58h1.24v-2.97h.85v-.13l-.12.03c.08.28.21.5.4.68.18.17.4.27.63.27h.36l-.25-1.83h-1.87v-1.52h-.13v.14Zm6.83-1.2v1.32h2.06l.21 1.56h-.2a.78.78 0 0 1-.54-.24 1.35 1.35 0 0 1-.37-.62h-1.16V44h-.97v-4.38h-1.17a1.3 1.3 0 0 1-.35.61.77.77 0 0 1-.55.25h-.2l.21-1.56h2.06v-.55a2.5 2.5 0 0 1-1.06-.25 1.27 1.27 0 0 1-.55-.62 2.84 2.84 0 0 1-.18-1.11v-.5h.97v.5c0 .3.04.55.1.72.08.18.19.3.33.38.15.08.4.12.77.12h.6Z" fill="#fff"/>
  <path d="M99.56 37.6h-.13v1.46h2.07l.18 1.29h-.05a.64.64 0 0 1-.45-.2 1.21 1.21 0 0 1-.33-.56l-.03-.1h-1.4v4.38h-.7v-4.38h-1.4l-.03.1c-.06.22-.16.4-.31.55-.15.14-.3.2-.46.2h-.05l.18-1.28h2.08v-.82h-.13a2.45 2.45 0 0 1-1-.23c-.22-.13-.38-.3-.5-.57a2.7 2.7 0 0 1-.17-1.05v-.36h.7v.36c0 .32.04.57.13.77.08.2.2.36.38.45.19.1.45.13.83.13h.6v-.26h-.6c-.36 0-.6-.05-.7-.1a.6.6 0 0 1-.27-.32c-.06-.15-.1-.38-.1-.67v-.63h-1.23v.63c0 .47.06.86.2 1.16.12.3.33.54.6.69.27.15.64.23 1.11.26l.01-.13h-.13v.42H96.4l-.25 1.82h.36a.9.9 0 0 0 .65-.28c.18-.19.3-.41.37-.67l-.12-.04v.14h1.04v4.37h1.23v-4.37h1.03v-.14l-.13.04c.09.28.22.5.4.68.19.18.4.27.64.27h.36l-.25-1.82h-2.05v-1.31h-.13v.13Z" fill="#fff"/>
</svg>
