<svg id="artwork" xmlns="http://www.w3.org/2000/svg" version="1.1" viewBox="0 0 239 70.9">
  <defs>
    <style>
      .st2{stroke:#fff;stroke-miterlimit:10;stroke-width:.2px;fill:#fff}
    </style>
  </defs>
  <rect x="-.1" width="239.2" height="70.9" rx="8.9" ry="8.9"/>
  <path d="M120.6 38.5c-4.1 0-7.5 3.2-7.5 7.6s3.4 7.5 7.5 7.5 7.6-3.2 7.6-7.5-3.4-7.6-7.6-7.6Zm0 12.1c-2.3 0-4.2-1.8-4.2-4.5s2-4.6 4.2-4.6 4.3 1.9 4.3 4.6-2 4.5-4.3 4.5Zm-16.5-12c-4.2 0-7.6 3.1-7.6 7.5s3.4 7.5 7.6 7.5 7.6-3.2 7.6-7.5-3.4-7.6-7.6-7.6Zm0 12c-2.3 0-4.3-1.8-4.3-4.5s2-4.6 4.3-4.6 4.3 1.9 4.3 4.6-2 4.5-4.3 4.5Zm-19.6-9.8V44H92a6.6 6.6 0 0 1-1.7 4 7.8 7.8 0 0 1-6 2.4 8.4 8.4 0 0 1-8.3-8.5 8.4 8.4 0 0 1 14.1-6.2l2.3-2.3c-2-1.8-4.5-3.2-8-3.2-6.5 0-12 5.3-12 11.7s5.5 11.7 12 11.7c3.5 0 6-1 8.1-3.2 2.1-2.1 2.8-5.1 2.8-7.5 0-.8 0-1.5-.2-2H84.5Zm80.3 2.5c-.7-1.6-2.6-4.8-6.5-4.8s-7.1 3-7.1 7.6c0 4.2 3.2 7.5 7.5 7.5 3.4 0 5.4-2.1 6.3-3.3l-2.6-1.8c-.9 1.3-2 2.1-3.7 2.1s-3-.7-3.7-2.3l10.1-4.1-.3-.9ZM154.4 46a4 4 0 0 1 3.9-4.4c1.3 0 2.4.6 2.8 1.6l-6.7 2.8Zm-8.2 7.3h3.3V31h-3.3v22.1Zm-5.4-13h-.1a5.2 5.2 0 0 0-4-1.7c-3.8 0-7.3 3.3-7.3 7.6s3.5 7.5 7.3 7.5c1.8 0 3.2-.8 4-1.7v1c0 3-1.5 4.5-4 4.5-2 0-3.2-1.4-3.8-2.7l-2.8 1.2c.8 2 3 4.5 6.6 4.5 4 0 7.2-2.3 7.2-7.9V39h-3.1v1.2ZM137 50.6c-2.3 0-4.2-1.9-4.2-4.5s1.9-4.6 4.2-4.6 4 2 4 4.6-1.8 4.5-4 4.5ZM180.3 31h-8v22.1h3.4v-8.4h4.6c3.7 0 7.2-2.6 7.2-6.8S184 31 180.3 31Zm0 10.7h-4.7V34h4.7c2.5 0 4 2 4 3.8s-1.5 3.8-4 3.8Zm20.5-3.2c-2.4 0-4.9 1-6 3.4l3 1.2c.6-1.2 1.8-1.6 3-1.6 1.7 0 3.5 1 3.5 2.8v.3c-.6-.4-1.9-.9-3.5-.9-3.1 0-6.3 1.7-6.3 5 0 3 2.6 4.8 5.5 4.8 2.2 0 3.4-1 4.2-2.1V53h3.3v-8.5c0-4-3-6.1-6.7-6.1Zm-.4 12.1c-1.1 0-2.6-.5-2.6-1.8 0-1.7 1.9-2.4 3.5-2.4 1.4 0 2.1.3 3 .7a4 4 0 0 1-4 3.5ZM219 39l-3.8 9.6-4-9.6h-3.6l6 13.4-3.4 7.5h3.4l9.1-21H219Zm-29.7 14h3.4V31h-3.3v22.1Z" style="fill:#fff"/>
  <path d="m36.6 34.4-18.9 20a5 5 0 0 0 7.6 3l21.2-12.2-10-10.8h.1Z" style="fill:#ea4335"/>
  <path d="m55.7 31-9.2-5.3-10.3 9.2 10.3 10.3 9.2-5.2c1.5-1 2.6-2.6 2.6-4.5s-1-3.6-2.6-4.5Z" style="fill:#fbbc04"/>
  <path d="m17.7 16.4-.1 1.4V53l.1 1.3L37.2 35 17.7 16.4Z" style="fill:#4285f4"/>
  <path d="m36.7 35.4 9.8-9.7-21.2-12.3a5.1 5.1 0 0 0-7.6 3l19 19Z" style="fill:#34a853"/>
  <path class="st2" d="M124.7 25.7c-1.2 0-2-.3-2.6-1s-1-1.5-1-2.7l.1-1 .3-1.5.7.2a6 6 0 0 0-.2 1.4c0 1 .2 1.7.7 2.2.5.5 1.1.8 2 .8 1 0 2-.2 2.9-.7s1.6-1 1.9-1.7a12 12 0 0 1-1.3-3.8l.3-.9c.2-.3.5-.5 1-.8l.4 2.5c.5.3 1 .4 1.5.4l.1.2v1.1l-.1.2-1.2-.2v.5a4 4 0 0 1-.7 2.3c-.6.7-1.2 1.3-2.1 1.8s-1.8.7-2.8.7Zm1.5-10.6-1.3 1.4-1.4-1.3c.7-.6 1.2-1 1.4-1.4l1.3 1.3Z"/>
  <path class="st2" d="M131.5 20.6c-.1 0-.2 0-.2-.2v-1.1c0-.1 0-.2.2-.2.5 0 .9-.1 1.3-.3.3-.3.6-.6.8-1.1l.4-.8c.5-1 1-1.8 1.5-2.3s1-.6 1.6-.6c.3 0 .7.2 1.1.7l1 1.7.3 2.2c0 .4 0 .7-.2 1l-.8 1a11 11 0 0 1-4.7-1.2l-1 1c-.4.2-.8.2-1.3.2Zm6.5-1.5c0-.8-.1-1.6-.4-2.3s-.6-1.1-.9-1.1c-.2 0-.4 0-.7.2l-.6.7-.9 1.5c1 .5 2 .8 3.5 1Zm12 .7-1.4-.1-.8-.3a6.5 6.5 0 0 1-1.6-1l-.2-.4c0-.2 0-.4.3-.9l.4-.9c.2-.3.6-.8 1.3-1.3l2-1.1v-.5l1.4-1 .2 6.3a4 4 0 0 0 2 .5l.2.1v1.2c0 .1 0 .2-.2.2-.7 0-1.4-.2-1.9-.5s-.7-.7-.8-1.2l-.1-.4-.7 1.3Zm-3-2.7c.4.5 1 .8 1.7 1s1.3.1 2 .1l-.4-3V15a7 7 0 0 0-3.3 2Z"/>
  <path class="st2" d="m159 16.2.4.1-.6 1.4-.3.7 1.2.6 1.2.1c.1 0 .2 0 .2.2v1.2l-.2.1c-1.2 0-2.2-.4-3-1.1l-.4.4c0 .2-.6.3-1.4.5l-2.4.2-.1-.1v-1.2l.1-.2h2c.7-.1 1-.3 1.3-.4s.6-.7 1-1.6l.4-.6c0-.2.3-.3.6-.3Zm-1.8 6.9-1.1 1.3-1.3-1.2L156 22l1.2 1.2Zm3-.3L159 24c-.6-.4-1-.8-1.3-1.2l1.2-1.3 1.2 1.2Zm1-2.2-.1-.2v-1.1l.1-.2c.8 0 1.5-.1 2.2-.5a153 153 0 0 1-.7-7.4l-.1-2.6c.4-.4.8-.8 1.3-1l.2 8.3v2.7a4 4 0 0 0 2 .5c.2 0 .2 0 .2.2v1.1l-.1.2c-1 0-1.7-.2-2.3-.7l-1.3.6-1.4.1Z"/>
  <path class="st2" d="M166.3 20.6c-.2 0-.2 0-.2-.2v-1.1c0-.1 0-.2.2-.2h2.4c-.3-.2-.6-.5-.8-.9a2 2 0 0 1-.4-1.1c0-.5.2-1.1.5-1.7s.7-1.1 1.1-1.5c.5-.4 1-.6 1.5-.6s1 .1 1.3.4c.4.2.9.5 1.4 1l-.3.6-1.1-.3-.8-.1a5 5 0 0 0-2.5.7 3 3 0 0 0 1.6 2.6c.5.3 1.1.5 1.8.5a17.2 17.2 0 0 0 3.3-1c.2.1.3.4.3.7v.1c0 .5-.4.8-.8.9a53 53 0 0 1-6 1.1l-2.6.1Zm23.7 1-.4-3.1a208.4 208.4 0 0 1-1.4-9.5c0-.4.1-.7.3-1 .2-.2.5-.4 1-.5v.3l.7 2-.5.5v.3l.7 5.7.3 2.5c.4.2.9.3 1.4.3l.2.2v1.2l-.2.1c-.5 0-1 0-1.3-.3v.7c0 .8-.3 1.5-.8 2.3s-1.2 1.3-2 1.7c-.9.5-1.8.7-2.7.7-1.2 0-2-.3-2.6-1s-1-1.5-1-2.6v-1l.4-1.5.7.1a6 6 0 0 0-.2 1.4c0 1 .2 1.7.7 2.2.5.6 1.1.8 2 .8A6.4 6.4 0 0 0 189 23c.5-.4.8-.8 1-1.2Z"/>
  <path class="st2" d="m207.5 20.6-1.6-.3a4 4 0 0 1-1.4-1c-.6.5-1.3.8-2.1 1l-2.5.3-3-.3c-1-.2-1.7-.5-2.3-.8l-.3.4c-.4.5-1.1.7-2.1.7-.1 0-.2 0-.2-.2v-1.1c0-.2 0-.2.2-.2.5 0 1-.1 1.3-.3s.7-.7 1-1.3l.4-.5c.1-.2.3-.4.6-.4.2 0 .3 0 .5.2l-.6 1.4c.3.1.6.3 1 .3 2.4-3.3 4.5-4.9 6.3-4.9.4 0 .8.1 1.4.4.5.3 1 .7 1.4 1.2s.7.9.7 1.2c0 .8-.3 1.5-.8 2.1a4 4 0 0 0 2 .6l.3.1v1.2c0 .1 0 .2-.2.2Zm-7.4-1.5a9 9 0 0 0 5.2-1.7 4 4 0 0 0-1.4-1.5c-.5-.4-1.1-.6-1.6-.6a4 4 0 0 0-2.2.9c-.9.6-1.8 1.5-2.8 2.6l2.8.3Z"/>
  <path class="st2" d="M207.6 20.6c-.1 0-.2 0-.2-.2v-1.1c0-.1 0-.2.2-.2 2 0 3.4-.1 4.5-.5l1-.4 2-.5-1.5-1-1.2-.9-1-.2a3 3 0 0 0-1.7.5l-.5.2a1 1 0 0 1-.3-.7c0-.5.2-1 .7-1.2.4-.3 1-.4 1.7-.4.4 0 .8 0 1.2.2l1.5.9 1.8 1.1c.4.3 1 .5 1.4.6l2.1.1-.7 1.5-1.1-.2h-.5l-1.3.2-1.9.9c-1 .5-1.8.8-2.6 1-.8.2-2 .3-3.6.3Zm14.2-6.5v1.2c0 1.3 0 3-.2 5.1l-.8.2c-.1-4.6-.3-8.4-.6-11.4V9c0-.4.1-.7.3-1s.6-.4 1-.5v.2l.7 2.1-.5.5v3.8Z"/>
</svg>
