<svg width="180" height="54" fill="none" xmlns="http://www.w3.org/2000/svg">
  <path d="M173.33 54H6.67A6.73 6.73 0 0 1 0 47.25V6.75C0 3.04 3 0 6.67 0h166.66A6.73 6.73 0 0 1 180 6.75v40.5c0 3.71-3 6.75-6.67 6.75Z" fill="#000"/>
  <path d="m27.63 26.22-14.2 15.26a3.84 3.84 0 0 0 5.65 2.35l.05-.03 15.97-9.33-7.48-8.25Z" fill="#EA4335"/>
  <path d="m41.98 23.63-.01-.02-6.9-4.05-7.77 7 7.8 7.9 6.86-4a3.89 3.89 0 0 0 2.02-3.43c0-1.47-.8-2.75-2-3.4Z" fill="#FBBC04"/>
  <path d="M13.43 12.52a3.7 3.7 0 0 0-.13 1v26.96c0 .35.04.68.13 1L28.1 26.62l-14.68-14.1Z" fill="#4285F4"/>
  <path d="m27.73 27 7.34-7.44-15.96-9.37a3.85 3.85 0 0 0-5.69 2.33L27.73 27Z" fill="#34A853"/>
  <path d="M142.58 40h2.49V23.33h-2.49V40ZM165 29.34l-2.85 7.22h-.09l-2.96-7.22h-2.68l4.44 10.1-2.53 5.61h2.6l6.84-15.71H165Zm-14.1 8.77c-.82 0-1.96-.41-1.96-1.42 0-1.29 1.41-1.78 2.64-1.78 1.1 0 1.6.24 2.27.56a3.02 3.02 0 0 1-2.96 2.64Zm.3-9.14c-1.81 0-3.68.8-4.45 2.55l2.21.93c.47-.93 1.35-1.23 2.27-1.23 1.3 0 2.6.78 2.62 2.15v.17a5.5 5.5 0 0 0-2.6-.64c-2.38 0-4.8 1.3-4.8 3.75 0 2.23 1.95 3.67 4.14 3.67a3.5 3.5 0 0 0 3.17-1.63h.09v1.28h2.4v-6.39c0-2.96-2.2-4.6-5.06-4.6Zm-15.38 2.4h-3.54v-5.72h3.53a2.89 2.89 0 0 1 2.92 2.86 2.9 2.9 0 0 1-2.91 2.86Zm-.07-8.04h-5.96V40h2.49v-6.32h3.47c2.76 0 5.47-2 5.47-5.17 0-3.18-2.71-5.18-5.47-5.18Zm-32.5 14.78c-1.72 0-3.16-1.44-3.16-3.42 0-2 1.44-3.45 3.15-3.45 1.7 0 3.03 1.46 3.03 3.45 0 1.98-1.33 3.42-3.03 3.42Zm2.85-7.84h-.1a3.93 3.93 0 0 0-2.98-1.27 5.64 5.64 0 0 0-5.44 5.7c0 3.17 2.6 5.64 5.44 5.64 1.35 0 2.43-.6 2.98-1.28h.09v.81c0 2.17-1.16 3.33-3.03 3.33a3.14 3.14 0 0 1-2.86-2.02l-2.17.9a5.4 5.4 0 0 0 5.03 3.35c2.92 0 5.4-1.71 5.4-5.9V29.35h-2.37v.92Zm4.08 9.73h2.5V23.33h-2.5V40Zm6.17-5.5a3.11 3.11 0 0 1 2.96-3.3c.99 0 1.83.49 2.1 1.2l-5.06 2.1Zm7.73-1.89c-.47-1.27-1.91-3.6-4.85-3.6-2.93 0-5.35 2.29-5.35 5.66 0 3.18 2.4 5.67 5.62 5.67 2.6 0 4.1-1.59 4.73-2.5l-1.93-1.3a3.24 3.24 0 0 1-2.8 1.57 2.89 2.89 0 0 1-2.75-1.72l7.59-3.13-.26-.65Zm-60.41-1.87v2.4h5.76a5.02 5.02 0 0 1-1.32 3.04 5.9 5.9 0 0 1-4.44 1.76 6.32 6.32 0 0 1-6.32-6.4A6.32 6.32 0 0 1 68 26.85l1.7-1.7a8.4 8.4 0 0 0-6.04-2.42 8.93 8.93 0 0 0-8.94 8.8 8.93 8.93 0 0 0 8.94 8.81c2.62 0 4.6-.86 6.14-2.47 1.6-1.59 2.09-3.82 2.09-5.62a7.8 7.8 0 0 0-.13-1.5h-8.1Zm14.77 7.37c-1.72 0-3.2-1.42-3.2-3.44 0-2.04 1.48-3.43 3.2-3.43 1.72 0 3.2 1.4 3.2 3.43 0 2.02-1.48 3.44-3.2 3.44Zm0-9.1a5.59 5.59 0 0 0-5.7 5.66 5.6 5.6 0 0 0 5.7 5.67 5.6 5.6 0 0 0 5.7-5.67 5.59 5.59 0 0 0-5.7-5.67Zm12.42 9.1c-1.72 0-3.2-1.42-3.2-3.44 0-2.04 1.48-3.43 3.2-3.43 1.72 0 3.2 1.4 3.2 3.43 0 2.02-1.48 3.44-3.2 3.44Zm0-9.1a5.59 5.59 0 0 0-5.7 5.66 5.6 5.6 0 0 0 5.7 5.67 5.6 5.6 0 0 0 5.69-5.67 5.59 5.59 0 0 0-5.7-5.67Zm4.21-17.68c-.23.33-.54.68-.94 1.07a9.1 9.1 0 0 1-1.06-.95c.5-.5.84-.86 1.03-1.08.3.34.63.66.97.96Zm-1.17 8.01a2.6 2.6 0 0 1-1.95-.72 2.8 2.8 0 0 1-.7-2.04c0-.28.01-.54.05-.8.03-.25.11-.61.23-1.1l.54.13c-.11.43-.17.78-.17 1.05 0 .72.18 1.27.54 1.67.36.4.86.6 1.5.6a4.9 4.9 0 0 0 2.17-.53 2.9 2.9 0 0 0 1.44-1.3c-.63-1.4-.95-2.34-.95-2.8 0-.26.07-.49.21-.7.14-.2.4-.4.74-.61.05.34.16.97.34 1.9v.05c.33.16.69.24 1.08.24l.12.13v.87l-.12.12a2.2 2.2 0 0 1-.9-.18l.03.43c0 .6-.2 1.17-.57 1.72-.39.55-.9 1-1.57 1.35-.67.35-1.35.52-2.06.52Z" fill="#fff"/>
  <path d="m95.07 11.33-.1-.08a7.3 7.3 0 0 1-.94 1.06l.1.1.08-.11a8.97 8.97 0 0 1-1.04-.94l-.1.09.1.1c.5-.51.84-.87 1.03-1.09l-.1-.09-.1.1c.31.34.64.66.98.96l.09-.1.09-.1c-.34-.3-.66-.61-.97-.95l-.1-.1-.1.1c-.17.22-.51.57-1.01 1.07l-.1.1.1.09c.27.3.62.62 1.06.97l.1.07.08-.08c.4-.4.72-.76.96-1.1l.07-.1-.1-.07-.08.1Zm-1.17 8.01v-.13c-.8 0-1.42-.23-1.86-.68-.44-.45-.66-1.1-.66-1.95a6.53 6.53 0 0 1 .28-1.86l-.13-.03-.03.13.54.12.03-.13-.13-.03c-.11.44-.17.8-.17 1.08 0 .74.19 1.33.57 1.76.39.43.93.65 1.6.64.75 0 1.49-.18 2.23-.54a3.06 3.06 0 0 0 1.5-1.37l.03-.05-.02-.06c-.64-1.39-.96-2.33-.95-2.74a1 1 0 0 1 .19-.61c.12-.19.36-.39.7-.59l-.07-.11-.13.01c.05.35.16.99.34 1.91l.13-.03-.13.02v.06l.02.07.06.03c.34.17.72.26 1.13.26v-.14l-.1.1.08.08v.76l-.08.09.1.1v-.14a2 2 0 0 1-.84-.17l-.2-.09.04.64h.13-.13c0 .57-.19 1.11-.55 1.65-.37.52-.88.96-1.52 1.3-.65.34-1.31.5-2 .5v.27a4.6 4.6 0 0 0 2.12-.53 4.44 4.44 0 0 0 1.62-1.4c.39-.56.6-1.16.6-1.8l-.03-.42h-.13l-.06.12c.28.13.6.2.95.2h.05l.16-.17.04-.03v-.99l-.16-.16-.04-.04h-.05c-.37 0-.7-.08-1.01-.23l-.06.12.13-.02v-.06a33.6 33.6 0 0 1-.34-1.89l-.03-.2-.17.1c-.37.22-.63.43-.79.66a1.3 1.3 0 0 0-.24.77c0 .52.33 1.44.97 2.85l.12-.05-.12-.06c-.22.48-.68.9-1.38 1.24-.7.35-1.4.52-2.11.52-.62 0-1.07-.19-1.4-.56-.33-.37-.5-.88-.5-1.58 0-.25.05-.59.16-1.01l.03-.13-.67-.16-.13-.04-.03.13c-.12.49-.2.86-.23 1.12a5.7 5.7 0 0 0-.06.81c0 .9.24 1.62.74 2.13.5.51 1.2.76 2.05.76v-.13Z" fill="#fff"/>
  <path d="M103.96 14.38a5.4 5.4 0 0 0-.34-1.74c-.21-.55-.42-.83-.62-.83a.91.91 0 0 0-.53.17c-.16.1-.32.28-.48.5-.17.24-.39.62-.66 1.17.68.37 1.56.62 2.63.73Zm-4.92 1.12-.13-.12v-.87l.13-.13c.37 0 .68-.09.94-.26.25-.18.47-.46.66-.82l.3-.6a5.4 5.4 0 0 1 1.1-1.69c.36-.33.76-.5 1.18-.5.3 0 .58.18.86.53a5.23 5.23 0 0 1 .95 2.94 2 2 0 0 1-.17.82c-.1.24-.3.48-.58.7a7.9 7.9 0 0 1-3.53-.87c-.22.3-.47.53-.75.67-.27.13-.6.2-.96.2Z" fill="#fff"/>
  <path d="M103.96 14.38h.14a5.5 5.5 0 0 0-.36-1.78c-.22-.56-.4-.9-.74-.92a1 1 0 0 0-.6.19c-.18.12-.35.3-.52.54a9 9 0 0 0-.67 1.18l-.06.11.11.06c.71.4 1.6.64 2.69.76l.15.01v-.15h-.14l.02-.13a6.92 6.92 0 0 1-2.59-.72l-.06.12.12.06c.27-.54.49-.93.64-1.15.16-.22.31-.37.46-.47.14-.1.28-.14.45-.14.07-.03.3.2.5.74s.31 1.1.33 1.7h.13Zm-4.92 1.12.09-.1-.08-.08v-.76l.08-.08-.1-.1v.14c.4 0 .74-.1 1.02-.3.28-.19.52-.48.7-.86l.3-.6a5.4 5.4 0 0 1 1.08-1.65c.34-.31.7-.46 1.1-.46.22 0 .47.14.75.47a5.13 5.13 0 0 1 .92 2.85c0 .3-.06.54-.16.77-.1.22-.27.44-.54.66l.08.1v-.13a7.75 7.75 0 0 1-3.46-.86l-.1-.06-.07.1a2 2 0 0 1-.7.63 2 2 0 0 1-.91.19v.27c.38 0 .73-.08 1.02-.22.3-.15.56-.39.8-.71l-.1-.08-.07.11a8.01 8.01 0 0 0 3.6.9h.04l.04-.03c.29-.24.5-.49.62-.76.11-.26.17-.56.17-.87a5.38 5.38 0 0 0-.98-3.02c-.3-.37-.61-.57-.96-.58-.46 0-.9.19-1.27.53-.38.35-.76.93-1.14 1.74l.12.06-.12-.06-.29.59c-.18.35-.39.6-.62.77-.23.16-.51.24-.86.24h-.06l-.16.16-.04.04v.99l.16.16.04.04h.06v-.14Zm11.63-2.6c.39.33.82.55 1.3.66.48.11 1 .17 1.58.18l-.38-2.36v-.03c-1.17.4-2 .92-2.5 1.55Zm2.37 2.03c-.53-.05-.9-.1-1.1-.14a4.5 4.5 0 0 1-1.81-.89l-.18-.32a6.33 6.33 0 0 1 .52-1.36c.15-.28.47-.6.97-.95s1.03-.64 1.59-.87l-.05-.4c.34-.3.7-.56 1.07-.76l.13 4.76c.45.26.95.38 1.53.38l.12.13v.87l-.12.12c-.6 0-1.07-.1-1.44-.33a1.27 1.27 0 0 1-.64-.94l-.05-.31-.54 1Z" fill="#fff"/>
  <path d="m110.67 12.9-.1.1c.42.34.87.58 1.37.7.49.1 1.02.16 1.61.17h.16l-.4-2.52-.02-.04-.03-.13-.14.04a5.3 5.3 0 0 0-2.56 1.6l-.08.1.1.08.09-.1.1.08a5.09 5.09 0 0 1 2.44-1.5l-.04-.13-.13.03v.03l.38 2.35.13-.02v-.13a7.5 7.5 0 0 1-1.55-.18 2.9 2.9 0 0 1-1.25-.64l-.08.1Zm2.37 2.03.02-.13c-.54-.05-.9-.1-1.09-.14a4.39 4.39 0 0 1-1.75-.85l-.1.1.12-.07-.17-.33-.12.07h.13a6.53 6.53 0 0 1 .5-1.3h.01c.13-.24.44-.55.93-.9a7.47 7.47 0 0 1 1.56-.85l.1-.04-.07-.5-.13.01.09.1c.33-.3.68-.55 1.04-.75l-.06-.11h-.14l.14 4.84.06.03c.47.27 1 .4 1.6.4v-.13l-.1.1.09.08v.76l-.09.09.1.1v-.14c-.58 0-1.03-.11-1.37-.32-.34-.2-.52-.47-.58-.84l-.05-.31-.06-.4-.73 1.37.12.06.12.06.54-1-.12-.07-.13.02.05.3.13-.01-.13.02c.06.44.3.8.7 1.03.4.24.9.36 1.5.36h.06l.16-.17.04-.03v-.99l-.16-.16-.04-.04h-.05c-.56 0-1.04-.12-1.46-.37l-.07.12h.14l-.15-5-.19.1a5.8 5.8 0 0 0-1.09.8l-.05.04.06.47.13-.02-.05-.12c-.57.23-1.1.52-1.62.88-.5.37-.84.69-1 1l.11.05-.11-.06c-.1.16-.2.39-.34.7-.13.33-.2.55-.2.73v.03l.19.36v.01l.02.02c.13.13.31.26.55.4a5.27 5.27 0 0 0 1.33.52c.22.05.58.1 1.12.14l.09.01.04-.08-.12-.06Z" fill="#fff"/>
  <path d="M120.6 17.15c-.18.28-.47.6-.88 1a7.13 7.13 0 0 1-.97-.9c.22-.2.54-.53.95-.99.08.1.38.4.9.89Zm-2.21.2c-.18.29-.47.62-.87 1a7.85 7.85 0 0 1-.97-.89c.25-.24.57-.56.94-.98l.9.88Zm1.3-5.19a.6.6 0 0 1 .37.12 28.05 28.05 0 0 1-.71 1.55c.33.2.63.35.92.43.28.08.59.12.92.12l.13.13v.87l-.13.12a3.4 3.4 0 0 1-2.32-.85l-.23.31c-.1.11-.46.23-1.06.36-.61.12-1.21.18-1.8.18l-.12-.12v-.87l.12-.13c.6 0 1.12-.02 1.54-.07.43-.06.72-.14.9-.27.17-.12.43-.51.77-1.17l.26-.47c.08-.16.23-.24.45-.24Z" fill="#fff"/>
  <path d="m120.6 17.15-.11-.07a5.6 5.6 0 0 1-.86.97l.09.1.08-.1a7.16 7.16 0 0 1-.95-.89l-.1.09.1.1c.22-.2.53-.54.95-1l-.1-.09-.1.09.9.9.1-.1.1-.1-.9-.88-.1-.1-.1.1c-.41.46-.72.79-.94.98l-.1.09.09.1c.23.26.56.57.98.9l.1.08.08-.08c.41-.39.72-.73.9-1.02l.06-.1-.08-.07-.09.1Zm-2.21.2-.12-.06c-.16.26-.45.6-.84.97l.09.1.08-.1a7.75 7.75 0 0 1-.95-.88l-.1.08.09.1c.26-.24.58-.57.95-1l-.1-.08-.1.09.9.88.1-.1.09-.09-.9-.88-.1-.1-.09.1c-.37.43-.68.75-.94.99l-.09.08.08.1c.23.26.55.56 1 .91l.09.08.08-.08c.4-.4.7-.74.89-1.03l.06-.1-.08-.07-.1.1Zm1.3-5.19v.14l.29.09.08-.11-.13-.05a28.07 28.07 0 0 1-.62 1.4l-.05.08-.01.03.01.02-.02-.02.02.02-.02-.02-.1.12.14.08a3.32 3.32 0 0 0 1.91.58v-.14l-.09.1.08.08v.76l-.08.09.1.1v-.14c-.88 0-1.62-.27-2.24-.82l-.1-.1-.33.43.1.08-.1-.08c-.02.05-.39.19-.98.3a8.8 8.8 0 0 1-1.77.19v.13l.1-.1-.09-.08v-.76l.08-.08-.09-.1v.14c.61 0 1.13-.03 1.56-.08.43-.06.75-.14.96-.29.22-.16.46-.55.8-1.22l-.11-.06.12.07.25-.47c.07-.12.15-.17.34-.17v-.27c-.25 0-.46.1-.57.3l-.26.48a3.9 3.9 0 0 1-.73 1.12c-.14.1-.42.2-.83.24-.42.06-.93.08-1.53.08h-.06l-.16.16-.03.04v.99l.16.16.03.04h.06c.6 0 1.2-.07 1.82-.2.62-.13.97-.22 1.14-.39l.24-.32-.1-.08-.1.1c.67.59 1.48.89 2.41.89h.06l.16-.17.04-.03v-.99l-.2-.2h-.06a3.2 3.2 0 0 1-.89-.12 3.45 3.45 0 0 1-.88-.42l-.07.12.1.08.1-.17.16-.34c.14-.29.3-.64.47-1.07l.04-.1-.08-.06a.74.74 0 0 0-.44-.14v.13Z" fill="#fff"/>
  <path d="m121.42 15.5-.12-.12v-.87l.12-.13a3.6 3.6 0 0 0 1.6-.37 116.8 116.8 0 0 1-.46-5.58l-.14-1.95c.29-.3.62-.57.98-.82.07 1.34.12 3.45.16 6.33l.05 2c.44.27.95.4 1.52.4l.13.12v.87l-.13.12a2.5 2.5 0 0 1-1.68-.52c-.36.2-.68.34-.97.41-.29.07-.64.11-1.06.11Z" fill="#fff"/>
  <path d="m121.42 15.5.1-.1-.09-.08v-.76l.08-.08-.09-.1v.14a3.6 3.6 0 0 0 1.66-.4l.09-.04-.01-.1c-.13-1.02-.29-2.87-.47-5.56l-.14-1.95h-.13l.1.1c.28-.3.6-.56.96-.8l-.08-.1h-.13c.06 1.34.11 3.44.15 6.32l.05 2.09.07.03c.46.27 1 .4 1.6.4v-.13l-.1.1.08.08v.76l-.08.09.1.1v-.14c-.7 0-1.23-.17-1.6-.5l-.08-.05-.08.04c-.35.2-.66.33-.93.4s-.62.1-1.03.1v.28c.43 0 .8-.04 1.1-.12.3-.08.63-.22 1-.42l-.07-.12-.09.1c.44.37 1.03.56 1.77.56h.05l.17-.16.04-.04v-1l-.2-.19h-.06a2.8 2.8 0 0 1-1.46-.37l-.06.12h.13l-.05-2.02h-.13.13c-.04-2.87-.09-4.98-.15-6.32l-.01-.24-.2.13a6 6 0 0 0-1.01.84l-.04.04.14 2.01c.19 2.69.34 4.54.47 5.58l.14-.01-.06-.12c-.5.24-1.02.36-1.55.36h-.06l-.16.16-.03.04v.99l.16.16.03.04h.06v-.14Z" fill="#fff"/>
  <path d="m125.2 15.5-.12-.12v-.87l.13-.13c.63 0 1.23-.01 1.82-.04a2.14 2.14 0 0 1-.61-.63 1.54 1.54 0 0 1-.26-.85c0-.42.11-.85.34-1.31.22-.46.52-.83.88-1.11a1.8 1.8 0 0 1 2.1-.17c.3.17.66.43 1.08.8l-.26.46a6.72 6.72 0 0 0-.85-.28 2.73 2.73 0 0 0-.58-.06c-.6 0-1.23.18-1.88.54a2.22 2.22 0 0 0 1.19 1.98c.38.21.84.33 1.36.36.38-.08.73-.17 1.07-.28.34-.1.82-.28 1.43-.52.13.13.2.3.2.53l-.02.15c-.05.33-.26.53-.6.62-1.17.3-2.05.5-2.65.6a21.16 21.16 0 0 1-3.77.33Z" fill="#fff"/>
  <path d="m125.2 15.5.1-.1-.08-.08v-.76l.08-.08-.1-.1v.14c.64 0 1.25-.02 1.84-.05l.4-.02-.34-.22a2 2 0 0 1-.57-.6c-.16-.24-.24-.5-.24-.77 0-.4.1-.8.33-1.25.22-.44.5-.8.84-1.07a1.69 1.69 0 0 1 1.95-.15c.3.16.65.42 1.06.77l.09-.1-.12-.06-.26.46.12.07.04-.13a6.66 6.66 0 0 0-.86-.28 2.88 2.88 0 0 0-.6-.06c-.64 0-1.29.18-1.95.55l-.07.04v.08a2.36 2.36 0 0 0 1.25 2.1c.41.22.89.34 1.43.37h.03c.38-.08.74-.17 1.08-.28.35-.1.82-.28 1.44-.52l-.05-.13-.1.1c.1.1.16.23.16.43h.14l-.14-.02v.16h.12l-.13-.02c-.05.29-.2.44-.5.52-1.17.3-2.05.5-2.64.6a21.08 21.08 0 0 1-3.74.33v.27a21.3 21.3 0 0 0 3.79-.34 44 44 0 0 0 2.65-.6.87.87 0 0 0 .7-.73l.02-.16v-.01a.81.81 0 0 0-.24-.62l-.06-.06-.08.03c-.61.24-1.08.41-1.42.52-.33.1-.68.2-1.05.27l.02.13.01-.13c-.5-.03-.94-.15-1.31-.35a2.09 2.09 0 0 1-1.12-1.87H127l.06.12a3.79 3.79 0 0 1 1.82-.52c.2 0 .39.02.56.06.16.03.44.13.82.27l.1.04.32-.56.05-.1-.08-.07a6.59 6.59 0 0 0-1.1-.8 1.93 1.93 0 0 0-2.24.18h-.01c-.37.29-.68.68-.91 1.15-.23.47-.35.93-.35 1.37 0 .33.09.64.28.92.18.29.4.5.65.67l.07-.1v-.14c-.59.03-1.2.04-1.83.04h-.05l-.16.16-.04.04v.99l.16.16.04.04h.05v-.14Zm17.92.8-.38-2.37a197.2 197.2 0 0 1-.82-5.2c-.13-.97-.2-1.61-.2-1.92 0-.33.08-.59.24-.77.15-.18.4-.3.73-.38l.04.17.48 1.57-.34.3.03.23.47 4.35c.09.63.16 1.24.2 1.83v.02c.32.17.68.25 1.08.25l.12.13v.87l-.12.12a2.2 2.2 0 0 1-1-.23l.01.48c0 .6-.19 1.18-.56 1.73-.38.55-.9 1-1.56 1.34a4.3 4.3 0 0 1-2.04.52 2.6 2.6 0 0 1-1.96-.72 2.83 2.83 0 0 1-.7-2.04c0-.28.02-.54.06-.8.03-.25.11-.61.23-1.1l.54.13c-.11.43-.17.78-.17 1.05 0 .72.18 1.27.54 1.67.36.4.86.6 1.5.6a4.72 4.72 0 0 0 2.77-.91c.38-.28.65-.59.8-.92Z" fill="#fff"/>
  <path d="m143.12 16.3.13-.02-.38-2.37c-.4-2.49-.68-4.22-.81-5.19-.13-.97-.2-1.62-.2-1.91 0-.31.07-.53.2-.68.13-.15.34-.27.66-.34l-.03-.13-.13.04.04.17.13-.04-.13.04.48 1.57.13-.04-.09-.1-.4.35.04.3.48 4.35c.09.63.15 1.24.2 1.82v.04l.02.06.05.03c.34.18.72.27 1.14.27v-.14l-.1.1.09.08v.76l-.08.09.09.1v-.14c-.33 0-.65-.08-.94-.22l-.2-.1.02.7h.13-.13a2.9 2.9 0 0 1-.54 1.65 4.1 4.1 0 0 1-1.51 1.3c-.64.34-1.3.5-1.98.5-.81 0-1.42-.22-1.86-.67-.44-.45-.66-1.1-.66-1.95 0-.27.01-.53.05-.78.03-.24.11-.6.23-1.08l-.13-.03-.03.13.54.12.03-.13-.13-.03c-.11.44-.17.8-.17 1.08 0 .74.19 1.33.57 1.76.38.43.93.65 1.6.64a4.84 4.84 0 0 0 2.85-.93c.4-.3.68-.62.85-.98l.01-.03v-.04l-.13.02-.13-.06c-.14.3-.4.6-.76.87-.37.28-.8.5-1.29.65-.49.16-.96.24-1.4.24-.62 0-1.07-.19-1.4-.56-.33-.37-.5-.88-.5-1.58 0-.25.05-.59.16-1.01l.03-.13-.67-.16-.13-.04-.03.13a6.9 6.9 0 0 0-.29 1.93c0 .9.24 1.62.74 2.13.5.51 1.19.76 2.05.76.72 0 1.43-.18 2.1-.53a4.37 4.37 0 0 0 1.6-1.39c.4-.56.6-1.17.6-1.8l-.02-.49h-.13l-.06.12c.33.17.69.26 1.06.26h.06l.16-.17.03-.03v-.99l-.16-.16-.03-.04h-.06c-.38 0-.72-.08-1.01-.23l-.06.11.12-.03v-.02l-.13.03.13-.01c-.04-.59-.1-1.2-.2-1.84l-.13.02.14-.02-.48-4.34-.02-.16.29-.26.06-.05-.02-.09-.48-1.56-.05-.17-.03-.13-.12.03a1.4 1.4 0 0 0-.8.43c-.19.21-.27.5-.27.85 0 .32.07.97.2 1.95s.4 2.7.82 5.19l.37 2.37.14-.02Z" fill="#fff"/>
  <path d="M150.68 14.38a7.3 7.3 0 0 0 3.91-1.25 3.57 3.57 0 0 0-1.06-1.2 2.15 2.15 0 0 0-1.23-.44c-.47 0-1.02.23-1.66.68a11.8 11.8 0 0 0-2.08 2c.76.14 1.47.21 2.12.21Zm5.57 1.12a3.25 3.25 0 0 1-2.25-.9c-.43.27-.97.5-1.6.66a7.5 7.5 0 0 1-1.87.24c-.7 0-1.44-.07-2.18-.23a6.37 6.37 0 0 1-1.78-.6l-.25.3c-.32.35-.85.53-1.6.53l-.12-.12v-.87l.12-.13c.44 0 .79-.08 1.04-.23.26-.17.52-.47.78-.93l.24-.41a.5.5 0 0 1 .46-.26c.14 0 .25.05.34.14-.2.5-.35.83-.43 1.01.24.12.48.21.73.3 1.87-2.5 3.47-3.73 4.78-3.73.28 0 .62.1 1.03.33.4.23.77.52 1.09.87.31.35.47.66.47.93 0 .6-.18 1.12-.56 1.58.44.27.96.4 1.56.4l.13.13v.87l-.13.12Z" fill="#fff"/>
  <path d="M150.68 14.38v.14a7.5 7.5 0 0 0 3.98-1.28l.12-.06-.07-.11c-.3-.53-.67-.95-1.1-1.25-.44-.3-.87-.46-1.31-.46-.51 0-1.08.24-1.74.7a11.7 11.7 0 0 0-2.1 2.02l-.15.18.22.04c.78.15 1.49.22 2.15.22v-.27c-.64 0-1.34-.07-2.1-.21l-.02.13.1.09c.75-.88 1.43-1.54 2.06-1.98.63-.45 1.16-.66 1.58-.66.37 0 .75.14 1.15.41.4.28.74.67 1.03 1.17l.12-.07-.08-.11a7.24 7.24 0 0 1-3.84 1.23v.13Zm5.57 1.12v-.13a3.1 3.1 0 0 1-2.15-.87l-.08-.08-.1.06c-.41.27-.93.49-1.54.65a7.4 7.4 0 0 1-1.85.24c-.7 0-1.42-.08-2.15-.23a6.24 6.24 0 0 1-1.74-.58l-.1-.05-.32.37.1.08-.1-.08c-.28.31-.78.49-1.5.49v.13l.1-.1-.09-.08v-.76l.09-.08-.1-.1v.14c.46 0 .83-.08 1.12-.26.28-.18.55-.5.82-.98l.23-.4-.11-.07.1.07c.1-.14.19-.2.36-.2l.25.1.1-.1-.13-.04c-.2.5-.35.83-.43 1l-.06.13.12.05c.25.12.5.22.75.3l.09.03.06-.08c1.85-2.47 3.44-3.68 4.67-3.67.24 0 .57.1.96.32.4.22.75.5 1.06.84.3.34.44.63.44.84a2.3 2.3 0 0 1-.53 1.5l-.1.12.13.08a3.1 3.1 0 0 0 1.63.42v-.14l-.1.1.1.08v.76l-.1.09.1.1.1.09.12-.12.04-.04v-1l-.2-.19h-.06a2.9 2.9 0 0 1-1.5-.38l-.06.11.1.09c.4-.49.6-1.05.6-1.67 0-.32-.19-.65-.52-1.02-.33-.36-.7-.66-1.12-.9a2.35 2.35 0 0 0-1.09-.35c-1.4.01-3 1.3-4.89 3.78l.1.08.05-.13a5.34 5.34 0 0 1-.72-.28l-.05.12.12.06.44-1.02.03-.08-.06-.07a.6.6 0 0 0-.44-.17.64.64 0 0 0-.58.32l-.23.41c-.25.45-.5.74-.74.88-.22.14-.55.22-.97.22h-.06l-.16.16-.04.04v.99l.17.16.03.04h.06c.76 0 1.34-.19 1.7-.59l.26-.28-.1-.1-.07.13c.46.25 1.06.45 1.81.6.76.16 1.5.24 2.2.24a7.6 7.6 0 0 0 1.92-.25 5.5 5.5 0 0 0 1.63-.69l-.07-.1-.1.08a3.4 3.4 0 0 0 2.35.95h.05l.04-.03-.09-.1Z" fill="#fff"/>
  <path d="m156.32 15.5-.12-.12v-.87l.12-.13c1.44 0 2.57-.12 3.4-.37l.8-.28a8.46 8.46 0 0 1 1.48-.43 6.18 6.18 0 0 1-1.13-.73 8.6 8.6 0 0 0-.96-.65c-.25-.12-.5-.18-.76-.18-.47 0-.89.12-1.26.36l-.34.22a.77.77 0 0 1-.22-.58c0-.37.17-.66.5-.89.31-.22.74-.33 1.27-.33.31 0 .63.06.94.2.32.13.7.35 1.11.66.51.37.95.66 1.3.85.36.18.73.32 1.1.4.36.08.9.12 1.6.12l-.56 1.08c-.3-.04-.58-.06-.83-.08h-.34c-.34 0-.67.05-.98.15-.3.1-.78.32-1.43.66-.73.37-1.4.63-1.98.75-.6.13-1.5.2-2.7.2Z" fill="#fff"/>
  <path d="m156.32 15.5.1-.1-.08-.08v-.76l.08-.08-.1-.1v.14c1.45 0 2.59-.13 3.43-.38l.82-.28a8.74 8.74 0 0 1 1.46-.43l.4-.07-.37-.18a6.24 6.24 0 0 1-1.1-.71c-.4-.32-.73-.54-1-.66-.25-.14-.53-.2-.8-.2-.5 0-.95.12-1.34.38l.07.11-.07-.11-.34.21.07.12.1-.1a.62.62 0 0 1-.18-.48.9.9 0 0 1 .43-.78c.3-.2.7-.3 1.2-.3.3 0 .59.05.9.18.3.13.66.34 1.07.64.52.38.96.67 1.32.86.37.2.75.34 1.13.42.38.09.92.12 1.63.13v-.14l-.12-.06-.56 1.08.12.06.01-.13c-.3-.04-.58-.06-.83-.08v.13l.01-.13h-.37v.13-.13a3 3 0 0 0-1 .16c-.33.1-.81.32-1.46.66-.73.37-1.38.62-1.95.74-.57.12-1.47.19-2.68.19v.27c1.22 0 2.13-.07 2.74-.2a7.8 7.8 0 0 0 2-.77 12.5 12.5 0 0 1 1.43-.64c.29-.1.6-.14.92-.14h.35c.25.01.52.04.82.08h.1l.6-1.16.1-.2h-.22c-.7 0-1.23-.03-1.58-.11-.35-.08-.7-.2-1.05-.4-.35-.18-.78-.46-1.29-.83a5.5 5.5 0 0 0-1.13-.67 2.55 2.55 0 0 0-1-.22c-.54 0-1 .12-1.35.36-.36.25-.55.6-.55 1 0 .27.08.5.25.67l.08.07.43-.27a2.2 2.2 0 0 1 1.2-.33c.23 0 .46.05.69.16.23.12.55.33.94.64.38.3.76.55 1.15.74l.06-.12-.02-.13c-.44.08-.94.23-1.5.44l.05.12-.05-.12-.81.28.04.12-.04-.13c-.8.25-1.92.37-3.35.37h-.05l-.16.16-.04.04v.99l.16.16.04.04h.05v-.14ZM167 10.62v.91c0 .95-.03 2.23-.1 3.85l-.67.12c-.06-3.43-.2-6.27-.4-8.53v-.2c0-.3.07-.55.23-.73.15-.19.4-.31.73-.38l.04.17.48 1.57-.4.34.02.07c.05 1.05.07 1.99.07 2.8Z" fill="#fff"/>
  <path d="M167 10.62h-.13v.91c0 .95-.03 2.23-.1 3.84l.13.01-.02-.13-.67.12.02.13h.14c-.07-3.43-.2-6.28-.4-8.55l-.14.02h.13v-.2h-.14.14a1 1 0 0 1 .2-.65c.13-.15.34-.26.66-.33l-.03-.13-.13.03.04.18.49 1.57.12-.04-.08-.1-.4.34-.05.04.01.14.14-.01h-.14c.06 1.06.08 1.99.08 2.8h.27c0-.82-.03-1.75-.08-2.8V7.8l.34-.3.07-.05-.03-.09-.48-1.56-.13.03.13-.03-.07-.3-.13.03c-.35.07-.62.2-.8.42-.19.22-.27.5-.27.83v.19c.21 2.27.35 5.1.4 8.53l.01.16.83-.15.1-.02v-.1c.07-1.62.1-2.9.1-3.86v-.91H167Z" fill="#fff"/>
</svg>
