<svg width="180" height="54" fill="none" xmlns="http://www.w3.org/2000/svg">
  <path d="M173.3 54H6.7A6.7 6.7 0 0 1 0 47.2V6.8C0 3 3 0 6.7 0h166.6a6.7 6.7 0 0 1 6.7 6.8v40.5c0 3.7-3 6.7-6.7 6.7Z" fill="#000"/>
  <path d="M27.6 26.2 13.4 41.5a3.8 3.8 0 0 0 5.7 2.3l16-9.3-7.5-8.3Z" fill="#EA4335"/>
  <path d="m42 23.6-7-4-7.7 7 7.8 7.9 6.9-4a3.9 3.9 0 0 0 2-3.5 4 4 0 0 0-2-3.4Z" fill="#FBBC04"/>
  <path d="M13.4 12.5a3.7 3.7 0 0 0-.1 1v27l.1 1 14.7-14.9-14.7-14Z" fill="#4285F4"/>
  <path d="m27.7 27 7.4-7.4-16-9.4a3.9 3.9 0 0 0-5.7 2.3L27.7 27Z" fill="#34A853"/>
  <path d="M142.6 40h2.5V23.3h-2.5V40ZM165 29.3l-2.9 7.3-3-7.3h-2.7l4.5 10.1-2.6 5.7h2.6l6.9-15.8H165Zm-14.1 8.8c-.8 0-2-.4-2-1.4 0-1.3 1.4-1.8 2.7-1.8 1 0 1.6.2 2.2.6a3 3 0 0 1-3 2.6Zm.3-9.1c-1.8 0-3.7.8-4.4 2.5l2.2 1c.4-1 1.3-1.3 2.2-1.3 1.3 0 2.6.8 2.7 2.2v.1a5.5 5.5 0 0 0-2.6-.6c-2.4 0-4.8 1.3-4.8 3.8 0 2.2 1.9 3.6 4 3.6a3.5 3.5 0 0 0 3.3-1.6V40h2.5v-6.4c0-3-2.2-4.6-5.1-4.6Zm-15.4 2.4h-3.5v-5.8h3.5a2.9 2.9 0 0 1 3 3 2.9 2.9 0 0 1-3 2.8Zm0-8h-6V40h2.5v-6.3h3.5c2.7 0 5.4-2 5.4-5.2s-2.7-5.2-5.4-5.2ZM103.3 38c-1.8 0-3.2-1.4-3.2-3.4s1.4-3.5 3.1-3.5c1.7 0 3 1.5 3 3.5s-1.3 3.4-3 3.4Zm2.8-7.8h-.1a4 4 0 0 0-3-1.3 5.6 5.6 0 0 0-5.4 5.7c0 3.2 2.6 5.6 5.4 5.6a4 4 0 0 0 3-1.2v.8c0 2.1-1 3.3-3 3.3a3.1 3.1 0 0 1-2.8-2L98 42a5.4 5.4 0 0 0 5 3.3c3 0 5.5-1.7 5.5-5.9v-10H106v.9Zm4 9.7h2.6V23.3h-2.5V40Zm6.3-5.5a3.1 3.1 0 0 1 3-3.3c.9 0 1.7.5 2 1.2l-5 2.1Zm7.7-1.9c-.5-1.3-2-3.6-4.9-3.6-2.9 0-5.3 2.3-5.3 5.7 0 3.1 2.4 5.6 5.6 5.6 2.6 0 4.1-1.5 4.7-2.5l-1.9-1.3a3.2 3.2 0 0 1-2.8 1.6 2.9 2.9 0 0 1-2.7-1.7l7.5-3.1-.2-.7Zm-60.4-1.9V33h5.7a5 5 0 0 1-1.3 3 5.9 5.9 0 0 1-4.4 1.8 6.3 6.3 0 0 1-6.3-6.4A6.3 6.3 0 0 1 68 27l1.7-1.7a8.4 8.4 0 0 0-6-2.5 9 9 0 0 0-9 8.8 9 9 0 0 0 9 8.8 8 8 0 0 0 6.1-2.4c1.6-1.6 2-3.8 2-5.6a7.8 7.8 0 0 0 0-1.5h-8.1ZM78.4 38c-1.7 0-3.2-1.4-3.2-3.4s1.5-3.5 3.2-3.5c1.8 0 3.2 1.4 3.2 3.5 0 2-1.4 3.4-3.2 3.4Zm0-9a5.6 5.6 0 0 0-5.7 5.6 5.6 5.6 0 0 0 5.7 5.6 5.6 5.6 0 0 0 5.7-5.6 5.6 5.6 0 0 0-5.7-5.7ZM91 38c-1.8 0-3.2-1.4-3.2-3.4s1.4-3.5 3.2-3.5c1.7 0 3.2 1.4 3.2 3.5 0 2-1.5 3.4-3.2 3.4Zm0-9a5.6 5.6 0 0 0-5.7 5.6 5.6 5.6 0 0 0 5.7 5.6 5.6 5.6 0 0 0 5.7-5.6 5.6 5.6 0 0 0-5.7-5.7Zm4-17.8-1 1.1a9.1 9.1 0 0 1-1-1l1-1 1 1Zm-1.2 8a2.6 2.6 0 0 1-2-.7 2.8 2.8 0 0 1-.6-2v-.8l.2-1.1.6.1-.2 1c0 .8.2 1.3.5 1.7.4.4.9.6 1.5.6a4.9 4.9 0 0 0 2.2-.5 2.9 2.9 0 0 0 1.5-1.3c-.7-1.4-1-2.3-1-2.8 0-.3 0-.5.2-.7l.8-.6.3 1.9c.3.2.7.3 1 .3l.2.1v.9l-.1.1a2.2 2.2 0 0 1-1-.2l.1.5a3 3 0 0 1-.6 1.7 4.4 4.4 0 0 1-3.6 1.9Z" fill="#fff"/>
  <path d="M95 11.3a7.3 7.3 0 0 1-1 1l.1.1.1-.1a9 9 0 0 1-1-1l-.1.2 1.1-1-.1-.1H94l1 1 .2-.2-1-1H94l-1 1.2h-.1v.1l1.1 1h.2l1-1.1v-.1H95Zm-1.1 8c-.8 0-1.4-.3-1.9-.8-.4-.4-.6-1-.6-2a6.5 6.5 0 0 1 .3-1.8h-.2v.1l.5.1v-.1c-.2.4-.2.8-.2 1 0 .8.2 1.4.5 1.8.4.5 1 .7 1.6.7a5 5 0 0 0 2.3-.6 3 3 0 0 0 1.5-1.3v-.1c-.7-1.4-1-2.4-1-2.8a1 1 0 0 1 .2-.6l.7-.6v-.1h-.2l.4 2V14v.1l1.2.3v-.1h-.1v1.3-.1a2 2 0 0 1-.8-.2H98v.6h.2-.1a3 3 0 0 1-.6 1.6c-.3.5-.9 1-1.5 1.3-.6.3-1.3.5-2 .5v.3a4.6 4.6 0 0 0 2.1-.6 4.4 4.4 0 0 0 1.6-1.4c.4-.5.6-1.1.6-1.8v-.4h-.1v.1c.2.2.5.2.9.2l.2-.1v-1l-.1-.2H99c-.4 0-.7-.1-1-.3l-.1.1h.1a33.6 33.6 0 0 1-.3-2V12h-.2l-.8.7a1.3 1.3 0 0 0-.2.8c0 .5.3 1.4 1 2.9v-.1c-.3.4-.7.8-1.4 1.2-.7.3-1.4.5-2.2.5-.6 0-1-.2-1.4-.6-.3-.3-.5-.8-.5-1.5 0-.3 0-.6.2-1v-.2l-.6-.1h-.2l-.2 1.2a5.7 5.7 0 0 0 0 .8c0 .9.1 1.6.6 2.1s1.2.8 2.1.8v-.2Z" fill="#fff"/>
  <path d="M104 14.4a5.4 5.4 0 0 0-.4-1.8c-.2-.5-.4-.8-.6-.8a1 1 0 0 0-.5.2 2 2 0 0 0-.5.5 9 9 0 0 0-.7 1.2 7 7 0 0 0 2.7.7Zm-5 1.1v-1.1c.4 0 .7-.1 1-.3l.6-.8.3-.6A5.4 5.4 0 0 1 102 11a2 2 0 0 1 1.2-.5c.3 0 .6.2.9.5a5.2 5.2 0 0 1 1 3 2 2 0 0 1-.2.8l-.6.7a7.9 7.9 0 0 1-3.6-.9c-.2.3-.4.6-.7.7l-1 .2Z" fill="#fff"/>
  <path d="M104 14.4h.1a5.5 5.5 0 0 0-.4-1.8c-.2-.6-.4-.9-.7-1a1 1 0 0 0-.6.3 2 2 0 0 0-.5.5 9 9 0 0 0-.7 1.2v.1a7 7 0 0 0 2.8.8h.1v-.1h-.1v-.2a7 7 0 0 1-2.6-.7v.2c.3-.5.5-1 .7-1.1l.5-.5.4-.2s.3.2.5.8l.3 1.7h.2Zm-5 1.1.1-.1v-1 .1c.3 0 .7 0 1-.3l.7-.8.3-.6a5.4 5.4 0 0 1 1-1.7c.4-.3.7-.4 1.1-.4.2 0 .5 0 .8.4a5.1 5.1 0 0 1 .9 2.9c0 .3 0 .5-.2.7 0 .3-.2.5-.5.7v.1-.1a7.8 7.8 0 0 1-3.4-.9h-.1a2 2 0 0 1-.7.7 2 2 0 0 1-1 .2v.2c.4 0 .8 0 1-.2.4-.1.6-.4.9-.7h-.2a8 8 0 0 0 3.6 1c.4-.3.6-.6.7-.9l.2-.8a5.4 5.4 0 0 0-1-3c-.3-.4-.6-.6-1-.6s-.9.2-1.2.5l-1.2 1.7.1.1-.4.5-.6.8c-.2.2-.5.2-.9.2l-.2.2v1l.1.2h.1v-.1Zm11.7-2.6c.4.3.8.6 1.3.7l1.5.1-.3-2.3c-1.2.4-2 .9-2.5 1.5Zm2.3 2-1-.1a4.5 4.5 0 0 1-1.9-.9l-.1-.3a6.3 6.3 0 0 1 .5-1.4c.1-.3.4-.6 1-1l1.5-.8V10l1-.8.2 4.8c.4.3 1 .4 1.5.4l.1.1v1c-.7 0-1.2-.1-1.5-.3a1.3 1.3 0 0 1-.7-1V14l-.6 1Z" fill="#fff"/>
  <path d="m110.7 12.9-.1.1c.4.3.8.6 1.3.7l1.7.2h.1l-.4-2.6v-.1h-.2a5.3 5.3 0 0 0-2.5 1.6l-.1.1v.1l.2-.1a5 5 0 0 1 2.5-1.4v-.2h-.2v.1l.4 2.4h.1v-.2a7.5 7.5 0 0 1-1.5-.2 2.9 2.9 0 0 1-1.3-.6Zm2.3 2v-.1l-1-.1a4.4 4.4 0 0 1-1.8-.9v.1l-.1-.4h-.1a6.5 6.5 0 0 1 .6-1.2c.1-.3.4-.6 1-1a7.5 7.5 0 0 1 1.5-.8V10h-.1v.1l1.1-.8h-.2l.2 4.8c.5.3 1 .4 1.6.4v-.1 1.2-.1c-.6 0-1-.1-1.4-.4-.3-.2-.5-.4-.5-.8V14l-.1-.4-.8 1.4h.3l.5-1h-.2v.3h.1-.1c0 .5.3.8.7 1 .4.3.9.4 1.5.4l.2-.1v-1l-.1-.2c-.6 0-1.1-.2-1.5-.4l-.1.1h.1l-.1-5-.2.1a5.8 5.8 0 0 0-1.1.8v.5h.1v-.1l-1.6.8c-.5.4-.9.7-1 1v.1l-.4.6-.2.8.2.4.6.4a5.3 5.3 0 0 0 1.3.5l1.1.1h.1Z" fill="#fff"/>
  <path d="m120.6 17.1-.9 1a7.1 7.1 0 0 1-1-.9c.3-.1.6-.5 1-1 0 .2.4.5.9 1Zm-2.2.2-.9 1a7.8 7.8 0 0 1-1-.8l1-1 .9.9Zm1.3-5.1a.6.6 0 0 1 .4 0 28 28 0 0 1-.7 1.6l.9.5h.9l.1.2v.9l-.1.1a3.4 3.4 0 0 1-2.3-.9l-.3.4-1 .3-1.8.2-.1-.1v-1h1.6l1-.4.7-1.1.3-.5c0-.2.2-.2.4-.2Z" fill="#fff"/>
  <path d="M120.6 17.1h-.1a5.6 5.6 0 0 1-.9 1h.2a7.2 7.2 0 0 1-1-1v.2l1-1h-.2l.9 1 .1-.2h.1l-.9-1h-.2c-.4.5-.7.9-1 1v.2l1 1h.2l1-1V17h-.2Zm-2.2.2h-.1l-.9 1h.2a7.8 7.8 0 0 1-1-1v.2l1-1h-.2l.9 1v-.2h.2l-1-1h-.1l-1 1v.2l1 1h.2l.9-1v-.2h-.1Zm1.3-5.1v.1h.3a28 28 0 0 1-.7 1.3v.1l-.2.2h.2a3.3 3.3 0 0 0 1.9.6v-.1h-.1v1.1l.1.1v-.1a3 3 0 0 1-2.2-.9h-.1l-.4.4h.1l-1 .3a8.8 8.8 0 0 1-1.8.2v.1-1.1.1h1.5c.5-.1.8-.2 1-.4.2-.1.5-.5.8-1.2h-.1.1l.3-.4c0-.2.1-.2.3-.2V12c-.3 0-.5.1-.6.3l-.2.5a3.9 3.9 0 0 1-.8 1.1l-.8.3h-1.5l-.2.2v1.2h.1c.7 0 1.3 0 1.9-.2.6 0 1-.2 1.1-.4l.3-.3h-.2c.7.6 1.5 1 2.4 1l.2-.2v-1l-.2-.3a3.2 3.2 0 0 1-.9 0 3.5 3.5 0 0 1-.9-.5v.2l.1-.2.2-.3.5-1v-.2a.7.7 0 0 0-.5-.2v.2Z" fill="#fff"/>
  <path d="m121.4 15.5-.1-.1v-.9l.1-.1a3.6 3.6 0 0 0 1.6-.4 116.8 116.8 0 0 1-.4-5.6l-.2-2 1-.7.2 6.3v2c.5.3 1 .4 1.5.4l.2.1v.9l-.2.1a2.5 2.5 0 0 1-1.6-.5 4 4 0 0 1-1 .4l-1 .1Z" fill="#fff"/>
  <path d="m121.4 15.5.1-.1v-1 .1a3.6 3.6 0 0 0 1.6-.4V14l-.4-5.6-.2-2v.2l1-.8-.1-.1h-.1l.1 6.3v2l.1.1c.5.3 1 .4 1.6.4v-.1 1.2-.1c-.7 0-1.2-.2-1.6-.5h-.1l-1 .4h-1v.3h1.1l1-.5V15h-.1c.4.4 1 .6 1.7.6l.2-.1v-1l-.1-.3a2.8 2.8 0 0 1-1.5-.3v.1-2h-.1V5.4l-.3.1a6 6 0 0 0-1 .9l.1 2 .5 5.6h.1c-.5.2-1 .4-1.6.4l-.2.1v1l.1.2h.1v-.1Z" fill="#fff"/>
  <path d="m125.2 15.5-.1-.1v-.9l.1-.1h1.8a2.1 2.1 0 0 1-.6-.7 1.5 1.5 0 0 1-.2-.8c0-.5 0-.9.3-1.3.2-.5.5-.9.9-1.2a1.8 1.8 0 0 1 2-.1c.4.1.7.4 1.2.8l-.3.4a6.7 6.7 0 0 0-.8-.2 2.7 2.7 0 0 0-.6-.1c-.6 0-1.3.2-2 .5a2.2 2.2 0 0 0 1.3 2l1.3.4a10.4 10.4 0 0 0 2.5-.8c.2.1.2.3.2.5v.2c0 .3-.2.5-.6.6l-2.6.6a21.2 21.2 0 0 1-3.8.3Z" fill="#fff"/>
  <path d="m125.2 15.5.1-.1v-.9l-.1-.1v.1h2.2l-.3-.3a2 2 0 0 1-.6-.6l-.2-.7c0-.4 0-.8.3-1.3.2-.4.5-.8.9-1a1.7 1.7 0 0 1 2-.2l1 .8V11l-.3.5h.1v-.1a6.7 6.7 0 0 0-.8-.3 2.9 2.9 0 0 0-.6 0 4 4 0 0 0-2 .5v.1a2.4 2.4 0 0 0 1.2 2.1c.4.2.9.4 1.4.4a10.6 10.6 0 0 0 2.6-.8v-.1h-.2l.2.5h.1-.1v.1h.1-.1c0 .3-.2.5-.5.5l-2.6.6a21 21 0 0 1-3.8.4v.2a21.3 21.3 0 0 0 3.8-.3 44 44 0 0 0 2.7-.6.9.9 0 0 0 .7-.7v-.2a.8.8 0 0 0-.3-.6h-.1a25.5 25.5 0 0 1-2.5.7v.2-.2a3 3 0 0 1-1.3-.3 2 2 0 0 1-1-1.9h-.2v.1a3.8 3.8 0 0 1 1.9-.5h.5l.9.3.4-.5V11a6.6 6.6 0 0 0-1.2-.8 2 2 0 0 0-2.2.1 4 4 0 0 0-1 1.2l-.3 1.4.3.9c.2.3.4.5.7.6v-.2h-1.8l-.2.2v1l.1.2h.1v-.1Zm18 .8-.5-2.4a197.2 197.2 0 0 1-.8-5.2 19 19 0 0 1-.2-1.9c0-.3.1-.6.3-.8.1-.1.4-.3.7-.3v.1l.5 1.6-.3.3v.2l.5 4.4.2 1.8c.3.2.6.3 1 .3l.2.1v.9l-.2.1a2.2 2.2 0 0 1-1-.2v.4a3 3 0 0 1-.5 1.8c-.4.5-.9 1-1.6 1.3a4.3 4.3 0 0 1-2 .5 2.6 2.6 0 0 1-2-.7 2.8 2.8 0 0 1-.7-2l.1-.8.2-1.1.6.1-.2 1c0 .8.2 1.3.5 1.7.4.4.9.6 1.5.6a4.7 4.7 0 0 0 2.8-.9c.4-.3.7-.6.8-.9Z" fill="#fff"/>
  <path d="M143.1 16.3h.2l-.4-2.4-.8-5.2-.2-1.9c0-.3 0-.5.2-.7l.6-.3v-.1h-.1v.2h.1-.1l.5 1.5h.1v-.1l-.5.3V8l.5 4.4.2 1.8v.1h.1c.3.2.7.3 1.1.3v-.1 1.1-.1l-.9-.3h-.2v.6h.2-.2a2.9 2.9 0 0 1-.5 1.7 4.1 4.1 0 0 1-1.5 1.3 5 5 0 0 1-2 .5c-.8 0-1.4-.2-1.9-.7-.4-.4-.6-1-.6-2v-.7l.3-1-.2-.1v.1l.5.1v-.1c-.2.4-.2.8-.2 1 0 .8.2 1.4.5 1.8.4.4 1 .7 1.6.7a4.8 4.8 0 0 0 2.9-1c.4-.3.7-.6.8-1h-.2l-.8.8c-.3.3-.8.5-1.3.7l-1.4.2c-.6 0-1-.2-1.4-.6-.3-.3-.5-.8-.5-1.5 0-.3 0-.6.2-1v-.2l-.6-.1h-.2a6.9 6.9 0 0 0-.3 2c0 .9.3 1.6.8 2.1s1.1.8 2 .8c.7 0 1.4-.2 2.1-.6a4.4 4.4 0 0 0 1.6-1.4 3 3 0 0 0 .6-1.8v-.4h-.2c.3.2.7.3 1 .3h.1l.2-.1v-1l-.2-.2c-.4 0-.8-.1-1-.3l-.1.1h.1-.1.1l-.2-1.8h-.1.1L143 8v-.1l.3-.3v-.1l-.4-1.6v-.2l-.1-.1h-.1a1.4 1.4 0 0 0-.8.5c-.2.2-.3.5-.3.8l.2 2 .8 5.1.4 2.4h.1Z" fill="#fff"/>
  <path d="M150.7 14.4a7.3 7.3 0 0 0 3.9-1.3 3.6 3.6 0 0 0-1-1.2 2.1 2.1 0 0 0-1.3-.4 3 3 0 0 0-1.7.7 11.8 11.8 0 0 0-2 2l2 .2Zm5.6 1.1a3.3 3.3 0 0 1-2.3-.9 6 6 0 0 1-1.6.7 7.5 7.5 0 0 1-1.9.2c-.7 0-1.4 0-2.1-.2a6.4 6.4 0 0 1-1.8-.6l-.3.3c-.3.3-.8.5-1.6.5l-.1-.1v-.9l.1-.1 1-.2c.3-.2.6-.5.8-1l.3-.4a.5.5 0 0 1 .4-.3l.4.2-.4 1 .7.3c1.8-2.5 3.4-3.7 4.8-3.7.2 0 .6 0 1 .3.4.2.8.5 1 .9.4.3.6.6.6.9 0 .6-.2 1.1-.6 1.6.4.3 1 .4 1.6.4v1.1Z" fill="#fff"/>
  <path d="M150.7 14.4v.1a7.5 7.5 0 0 0 4-1.3V13c-.3-.6-.7-1-1-1.3-.5-.3-1-.4-1.4-.4-.5 0-1 .2-1.7.7a11.7 11.7 0 0 0-2.1 2l-.2.2h.2l2.2.2v-.3c-.7 0-1.4 0-2.1-.2v.2l2.1-2c.7-.4 1.2-.6 1.6-.6.4 0 .8.2 1.1.4.5.3.8.7 1 1.2h.2V13a7.2 7.2 0 0 1-4 1.2v.2Zm5.6 1.1v-.1a3.1 3.1 0 0 1-2.2-.9h-.2a4 4 0 0 1-1.5.6 7.4 7.4 0 0 1-1.9.3l-2.1-.3a6.2 6.2 0 0 1-1.8-.5l-.4.3h.1c-.4.3-.9.5-1.6.5v.1l.1-.1v-1 .1c.4 0 .7 0 1-.2.3-.2.6-.5.9-1l.2-.4h-.1l.4-.2h.3l-.5 1v.1l.8.3h.1c2-2.5 3.5-3.7 4.8-3.7l1 .3 1 .9c.3.3.4.6.4.8a2.3 2.3 0 0 1-.5 1.5l-.1.1.1.1a3.1 3.1 0 0 0 1.6.4v-.1 1.2l.1.1.2-.1v-1l-.2-.2a2.9 2.9 0 0 1-1.6-.4v.2c.5-.5.7-1 .7-1.7 0-.3-.2-.6-.5-1l-1.2-1a2.4 2.4 0 0 0-1-.3c-1.4 0-3 1.3-5 3.8h.2a5.3 5.3 0 0 1-.7-.3v.1l.5-1v-.1a.6.6 0 0 0-.5-.2.6.6 0 0 0-.5.3l-.3.5c-.2.4-.5.7-.7.8-.2.2-.6.3-1 .3l-.2.1v1l.1.2h.1c.8 0 1.4-.1 1.7-.5l.3-.3-.1-.1v.1c.4.3 1 .5 1.7.6.8.2 1.5.2 2.2.2a7.6 7.6 0 0 0 2-.2 5.5 5.5 0 0 0 1.6-.7l-.1-.1h-.1a3.4 3.4 0 0 0 2.3 1h.1v-.1Z" fill="#fff"/>
  <path d="m156.3 15.5-.1-.1v-.9l.1-.1c1.5 0 2.6-.1 3.4-.4l.8-.3a8.5 8.5 0 0 1 1.5-.4 6.2 6.2 0 0 1-1.1-.7 8.6 8.6 0 0 0-1-.7l-.8-.2c-.4 0-.8.2-1.2.4l-.3.2a.8.8 0 0 1-.3-.6c0-.3.2-.6.5-.8.3-.3.8-.4 1.3-.4.3 0 .6 0 1 .2l1 .7 1.4.8c.3.2.7.4 1 .4l1.7.2-.6 1h-1.2l-1 .1-1.4.7a8.3 8.3 0 0 1-4.7 1Z" fill="#fff"/>
  <path d="m156.3 15.5.1-.1v-1 .1c1.4 0 2.5-.1 3.3-.4l.9-.2a8.7 8.7 0 0 1 1.4-.5h.4l-.3-.2a6.2 6.2 0 0 1-1.1-.7 5 5 0 0 0-1-.7l-.8-.2c-.5 0-1 .1-1.4.4v.1-.1l-.3.2v.1h.1a.6.6 0 0 1-.1-.6.9.9 0 0 1 .4-.7c.3-.2.7-.3 1.2-.3l.9.1 1 .7c.6.4 1 .7 1.4.8l1.1.5h1.6v-.1l-.6 1v.1l.1-.1h-1.2a3 3 0 0 0-1 0l-1.5.7a6 6 0 0 1-1.9.8l-2.7.2v.2c1.2 0 2.1 0 2.8-.2a7.8 7.8 0 0 0 2-.7 12.5 12.5 0 0 1 1.4-.7l1-.1h1.1l.7-1v-.3h-.1l-1.6-.1c-.4 0-.7-.2-1-.4l-1.4-.8a5.5 5.5 0 0 0-1-.7 2.5 2.5 0 0 0-1-.2c-.6 0-1 .1-1.4.3-.4.3-.6.6-.6 1 0 .3 0 .5.3.7l.5-.2a2.2 2.2 0 0 1 1.2-.3l.7.1.9.7 1.1.7.1-.1v-.1a9 9 0 0 0-1.5.4v.1l-.8.2v.1-.1c-.8.2-2 .4-3.4.4l-.2.1v1l.1.2h.1v-.1Zm10.7-4.9v1l-.1 3.8-.7.1c0-3.4-.2-6.3-.4-8.5v-.2c0-.3.1-.6.3-.8.1-.2.4-.3.7-.3v.1l.5 1.6-.4.3v.1l.1 2.8Z" fill="#fff"/>
  <path d="M167 10.6h-.1v1l-.1 3.8h.1v-.2l-.7.2v.1h.2l-.4-8.6h-.2.2v-.1h-.2.2a1 1 0 0 1 .2-.7l.6-.3v-.1h-.1v.2l.5 1.5h.1v-.1l-.5.3v.2h.1-.1v2.8h.3V7.8l.3-.3v-.1l-.4-1.6h-.2.2l-.1-.3h-.1c-.4.1-.7.2-.8.5-.2.2-.3.5-.3.8V7l.4 8.5v.2l.8-.2h.1v-.1l.1-3.9v-.9h-.1Z" fill="#fff"/>
</svg>
