<svg width="270" height="80" fill="none" xmlns="http://www.w3.org/2000/svg">
  <g clip-path="url(#a)">
    <mask id="b" style="mask-type:luminance" maskUnits="userSpaceOnUse" x="-20" y="-20" width="310" height="120">
      <path d="M-19.8-19.9h309.6V100H-19.8V-20Z" fill="#fff"/>
    </mask>
    <g mask="url(#b)">
      <path d="M260 80H10A10 10 0 0 1 0 70V10.1a10 10 0 0 1 10-10h250a10 10 0 0 1 10 10v60a10 10 0 0 1-10 9.9Z" fill="#000"/>
    </g>
    <mask id="c" style="mask-type:luminance" maskUnits="userSpaceOnUse" x="-20" y="-20" width="310" height="120">
      <path d="M-19.8-19.9h309.6V100H-19.8V-20Z" fill="#fff"/>
    </mask>
    <g mask="url(#c)">
      <path d="M204.3 60h3.7V35h-3.7v25Zm33.5-16-4.2 11h-.2L229 44h-4l6.6 15-3.7 8.5h3.8L242 44.1h-4.2Zm-21 13.2c-1.3 0-3-.6-3-2.1 0-2 2.1-2.7 4-2.7 1.6 0 2.3.4 3.3.8-.2 2.4-2.2 4-4.4 4Zm.4-13.7c-2.7 0-5.5 1.2-6.7 3.8l3.3 1.4c.7-1.4 2-1.8 3.4-1.8 2 0 4 1.1 4 3.2v.2c-.7-.3-2.2-1-4-1-3.5 0-7.1 2-7.1 5.7 0 3.3 2.9 5.5 6.2 5.5 2.5 0 3.8-1.1 4.7-2.4h.1V60h3.6v-9.6c0-4.4-3.3-6.9-7.5-6.9Zm-23 3.6h-5.4v-8.6h5.3c2.8 0 4.4 2.3 4.4 4.3s-1.6 4.3-4.4 4.3Zm-.2-12h-8.9v25h3.7v-9.5h5.2c4.2 0 8.2-3 8.2-7.8 0-4.7-4-7.7-8.2-7.7Zm-48.7 22.1c-2.5 0-4.7-2.2-4.7-5.1 0-3 2.2-5.2 4.7-5.2 2.6 0 4.6 2.2 4.6 5.2s-2 5.1-4.6 5.1Zm4.3-11.7h-.1a6 6 0 0 0-4.5-2 8.4 8.4 0 0 0-8.1 8.6c0 4.7 3.9 8.4 8.1 8.4a6 6 0 0 0 4.5-1.9h.1v1.2c0 3.3-1.7 5-4.5 5a4.7 4.7 0 0 1-4.3-3l-3.3 1.3c1 2.3 3.5 5 7.6 5 4.4 0 8-2.5 8-8.8V44.1h-3.5v1.4Zm6.1 14.5h3.8V35h-3.8v25Zm9.3-8.2c-.1-3.3 2.5-5 4.4-5 1.5 0 2.7.8 3.2 1.8l-7.6 3.2Zm11.5-2.8c-.7-2-2.8-5.4-7.2-5.4s-8 3.4-8 8.4c0 4.8 3.6 8.5 8.4 8.5 3.9 0 6.1-2.3 7-3.7l-2.8-2a4.9 4.9 0 0 1-4.2 2.4c-1.9 0-3.3-.9-4.1-2.6l11.3-4.7-.4-1Zm-90.4-2.8v3.6h8.6c-.3 2-1 3.5-2 4.5a8.8 8.8 0 0 1-6.6 2.6 9.5 9.5 0 0 1-9.5-9.5 9.5 9.5 0 0 1 16-7l2.5-2.6a13.4 13.4 0 0 0-22.4 9.6c0 7.2 6 13.1 13.4 13.1a12 12 0 0 0 9.2-3.7 12 12 0 0 0 3-8.4l-.1-2.2H86Zm22 11c-2.5 0-4.7-2.1-4.7-5.2 0-3 2.2-5.1 4.8-5.1 2.6 0 4.8 2 4.8 5.1 0 3-2.2 5.2-4.8 5.2Zm0-13.6a8.4 8.4 0 0 0-8.4 8.4c0 5 3.8 8.5 8.5 8.5s8.5-3.6 8.5-8.5-3.8-8.4-8.5-8.4Zm18.7 13.6c-2.6 0-4.8-2.1-4.8-5.2 0-3 2.2-5.1 4.8-5.1 2.6 0 4.8 2 4.8 5.1 0 3-2.2 5.2-4.8 5.2Zm0-13.6a8.4 8.4 0 0 0-8.5 8.4c0 5 3.8 8.5 8.5 8.5s8.5-3.6 8.5-8.5-3.8-8.4-8.5-8.4Z" fill="#fff"/>
    </g>
    <mask id="d" style="mask-type:luminance" maskUnits="userSpaceOnUse" x="-20" y="-20" width="310" height="120">
      <path d="M-19.8-19.9h309.6V100H-19.8V-20Z" fill="#fff"/>
    </mask>
    <g mask="url(#d)">
      <path d="M34.4 39 13.2 61.4a5.7 5.7 0 0 0 8.4 3.5l24-13.9-11.2-12.2Z" fill="#EA4335"/>
    </g>
    <mask id="e" style="mask-type:luminance" maskUnits="userSpaceOnUse" x="-20" y="-20" width="310" height="120">
      <path d="M-19.8-19.9h309.6V100H-19.8V-20Z" fill="#fff"/>
    </mask>
    <g mask="url(#e)">
      <path d="m56 35-10.4-6-11.7 10.4 11.7 11.7 10.3-6a5.8 5.8 0 0 0 0-10Z" fill="#FBBC04"/>
    </g>
    <mask id="f" style="mask-type:luminance" maskUnits="userSpaceOnUse" x="-20" y="-20" width="310" height="120">
      <path d="M-19.8-19.9h309.6V100H-19.8V-20Z" fill="#fff"/>
    </mask>
    <g mask="url(#f)">
      <path d="M13.2 18.6c-.2.5-.2 1-.2 1.5V60c0 .5 0 1 .2 1.5l22-22-22-20.9Z" fill="#4285F4"/>
    </g>
    <mask id="g" style="mask-type:luminance" maskUnits="userSpaceOnUse" x="-20" y="-20" width="310" height="120">
      <path d="M-19.8-19.9h309.6V100H-19.8V-20Z" fill="#fff"/>
    </mask>
    <g mask="url(#g)">
      <path d="m34.6 40 11-11-24-13.8a5.7 5.7 0 0 0-8.4 3.4l21.4 21.5Z" fill="#34A853"/>
    </g>
    <path d="M77 25.4a5 5 0 0 1-2.2-.5 4 4 0 0 1-1.4-1.5c-.3-.6-.4-1.3-.4-2.2h1.7c0 .6 0 1 .2 1.5l.8 1c.4.2.8.3 1.3.3.6 0 1-.1 1.4-.3.3-.2.5-.5.7-.9.2-.4.3-.8.3-1.4v-2.9H81v3c0 .9-.1 1.6-.5 2.1-.3.6-.7 1-1.3 1.3-.6.3-1.3.5-2.2.5ZM76.6 15l.1.2-1.1.8h-.8c-.7 0-1.2-.2-1.6-.6a3 3 0 0 1-.5-1.8V13h1.7v1.5l.5.4h1.7Zm-2 6.1H73a8.6 8.6 0 0 1 1-4.3l1.1-1.6h1.6l-.7 1.2a11.4 11.4 0 0 0-1.2 3l-.1 1.7Zm8.5-7.4h1.7V21c0 .6 0 1.2.3 1.7.2.4.5.7.9 1 .4.2.8.3 1.4.3 1 0 1.6-.3 2-.8.5-.5.7-1.3.7-2.3h1.7c0 1-.2 1.7-.5 2.4s-.8 1.2-1.4 1.6a5 5 0 0 1-2.4.5c-1 0-1.8-.2-2.4-.5-.7-.4-1.2-.9-1.5-1.5a5 5 0 0 1-.5-2.2v-7.4Zm1.5 3.3v-1.4h7.2V17h-7.2Zm9.3 8.1v-7.4c0-.8.2-1.6.5-2.2.3-.6.8-1.1 1.4-1.4.7-.4 1.4-.6 2.3-.6 1 0 1.8.2 2.4.6.6.3 1 .8 1.4 1.5.3.6.4 1.5.4 2.5h-1.7c0-1.1-.2-2-.6-2.4-.4-.5-1-.8-2-.8-.5 0-1 .2-1.3.4a2 2 0 0 0-.9 1l-.2 1.6v7.2h-1.7Zm10.3 0v-7.4c0-.8.2-1.6.5-2.2a4 4 0 0 1 1.5-1.4c.7-.4 1.5-.6 2.4-.6 1 0 1.8.2 2.4.6a3 3 0 0 1 1.4 1.5c.3.6.5 1.5.5 2.5h-1.7c0-1.1-.2-1.9-.6-2.4-.4-.5-1.1-.8-2-.8a3 3 0 0 0-1.5.4c-.4.2-.7.5-.9 1-.2.4-.3 1-.3 1.6v7.2h-1.7Zm1.5-5.5h7.3V21h-7.3v-1.4Zm9.3-6h1.7V21c0 .6.1 1.2.3 1.7.2.4.5.7.9 1 .4.2.9.3 1.5.3.9 0 1.5-.3 2-.8.4-.5.6-1.3.6-2.3h1.7c0 1-.2 1.7-.5 2.4s-.8 1.2-1.4 1.6a5 5 0 0 1-2.4.5c-1 0-1.8-.2-2.4-.5-.7-.4-1.1-.9-1.5-1.5a5 5 0 0 1-.5-2.2v-7.4Zm1.5 3.4v-1.4h7.3V17h-7.3Zm9.3 8.1v-7.4c0-.8.2-1.6.5-2.2a3 3 0 0 1 1.5-1.4c.6-.4 1.4-.6 2.4-.6s1.7.2 2.3.6c.7.3 1.1.8 1.5 1.4.3.6.5 1.4.5 2.3v7.3h-1.7V18c0-1-.2-1.9-.7-2.3-.4-.5-1-.8-2-.8a3 3 0 0 0-1.4.4c-.4.2-.7.5-1 1l-.2 1.6v7.2h-1.7Zm8.4-5.5h2.6V21h-2.6v-1.4Zm7.8 5.7a5 5 0 0 1-2.2-.5 4 4 0 0 1-1.9-3.7h1.8c0 .6 0 1 .2 1.5l.8 1c.4.2.8.3 1.3.3.6 0 1-.1 1.4-.3.3-.2.5-.5.7-.9.2-.4.3-.8.3-1.4v-2.9h1.6v3c0 .9-.1 1.6-.5 2.1-.3.6-.7 1-1.3 1.3-.6.3-1.3.5-2.2.5Zm-.4-10.3.1.2-1.1.8h-.8c-.7 0-1.2-.2-1.6-.6a3 3 0 0 1-.5-1.8V13h1.7v1.5l.5.4h1.7Zm-2 6.1H138a8.6 8.6 0 0 1 1-4.1l1.1-1.6h1.6l-.7 1.2a11.3 11.3 0 0 0-1.2 3l-.1 1.7Zm8.5-7.4h1.7V21c0 .6 0 1.2.3 1.7.2.4.5.7.9 1 .4.2.8.3 1.4.3 1 0 1.6-.3 2-.8.5-.5.7-1.3.7-2.3h1.7c0 1-.2 1.7-.5 2.4s-.8 1.2-1.4 1.6a5 5 0 0 1-2.4.5c-1 0-1.8-.2-2.4-.5-.7-.4-1.2-.9-1.5-1.5a5 5 0 0 1-.5-2.2v-7.4Zm1.5 3.3v-1.4h7.2V17h-7.2Zm9.5 8.1v-6.8c0-.8 0-1.5.2-2 .2-.7.5-1.2.8-1.6a3 3 0 0 1 1.2-.9c.5-.2 1-.3 1.6-.3.8 0 1.4.2 2 .4.5.3 1 .7 1.2 1.2.3.4.5 1 .5 1.6 0 1-.4 1.9-1.1 2.4-.7.6-1.7.9-3 .9h-1.7v5.1H159Zm1.7-6.5h1.6c.7 0 1.3-.2 1.8-.5.4-.3.7-.7.7-1.4l-.2-.9c-.2-.3-.4-.5-.7-.6-.3-.2-.6-.3-1-.3a2 2 0 0 0-1.3.4 2 2 0 0 0-.7 1.1c-.2.6-.2 1.3-.2 2.2Zm-3.1 2.7h8.9v1.4h-9v-1.4Zm10.3-9.2h1.3a16.7 16.7 0 0 0 .9 3.6H169l-.4-1a33.4 33.4 0 0 1-.8-2.4l.2-.2Zm11.8 13.2a5 5 0 0 1-2.4-.5 5 5 0 0 1-1.4-1.5 4 4 0 0 1-.5-2.2v-7.4h1.7v7.1c0 1 .2 1.9.7 2.3.4.5 1.1.8 2 .8.6 0 1-.1 1.5-.4a2 2 0 0 0 .9-1c.2-.4.3-1 .3-1.6v-7.2h1.7v7.4a4 4 0 0 1-.6 2.2c-.3.6-.8 1.1-1.5 1.5-.6.3-1.4.5-2.4.5Zm4.3-3.8h.5c.8 0 1.4.2 1.9.7.4.4.6 1.1.6 2.1v.8h-1.5v-.7c0-.6-.1-1-.3-1.2-.2-.3-.5-.4-1-.4a3 3 0 0 0-.3 0h-.2l.3-1.3Zm7.7 3.8a5 5 0 0 1-2.2-.5 4 4 0 0 1-1.9-3.7h1.7c0 .6.1 1 .3 1.5l.8 1c.4.2.8.3 1.3.3.6 0 1-.1 1.3-.3.4-.2.6-.5.8-.9.2-.4.2-.8.2-1.4v-2.9h1.7v3a4 4 0 0 1-.5 2.1c-.3.6-.7 1-1.3 1.3-.6.3-1.3.5-2.2.5Zm-.4-10.3.1.2-1.1.8h-.8c-.7 0-1.2-.2-1.6-.6-.4-.4-.5-1-.5-1.8V13h1.6v.6c0 .4 0 .7.2.9l.4.4h1.7Zm-2 6.1h-1.7a8.7 8.7 0 0 1 1.1-4.3l1.1-1.6h1.6l-.7 1.2a11.5 11.5 0 0 0-1.2 3l-.2 1.7Zm13-2.6-1.3 1-2.2-.8c-.5-.3-.9-.6-1.1-1-.3-.4-.4-.9-.4-1.4 0-.6.2-1 .5-1.5a5 5 0 0 1 1.4-1c.7-.1 1.4-.3 2.2-.3 1.3 0 2.3.3 3 .8.7.5 1 1.1 1 2 0 .4 0 .8-.2 1.1l-.8.8a5 5 0 0 1-1.2.6c.6.2 1.1.4 1.5.7.5.3.8.6 1 1 .2.4.3.9.3 1.4a3 3 0 0 1-.5 1.8c-.4.5-1 .9-1.7 1.2-.7.2-1.5.4-2.5.4a10 10 0 0 1-2.6-.4l-1-.4V23l1.8.7 1.7.2a4 4 0 0 0 1.7-.3c.5-.1.8-.4 1-.7.3-.3.5-.6.5-1s-.1-.7-.3-.9l-.6-.6-1-.5-1.3-.3-3.3.9-.5-1.3 4.3-1 1.1-.4c.3-.1.6-.3.7-.6.2-.2.3-.5.3-.8 0-.5-.3-.8-.7-1.1-.4-.3-1-.4-1.7-.4s-1.3.1-1.8.4c-.4.3-.6.6-.6 1.1 0 .3 0 .6.3.9.2.2.5.5 1 .6l2 .6Zm9.4 6.8c-.9 0-1.6-.2-2.2-.5a4 4 0 0 1-1.9-3.7h1.7c0 .6.1 1 .3 1.5.2.4.4.7.8 1 .4.2.8.3 1.3.3.6 0 1-.1 1.3-.3.4-.2.6-.5.8-.9l.2-1.4v-2.9h1.7v3a4 4 0 0 1-.5 2.1 3 3 0 0 1-1.4 1.3 4 4 0 0 1-2 .5Zm-.4-10.3.1.2-1.1.8h-.8c-.7 0-1.2-.2-1.6-.6-.4-.4-.6-1-.6-1.8V13h1.7v.6l.1.9.5.4h1.7Zm-2 6.1h-1.7a8.7 8.7 0 0 1 1.1-4.3l1.1-1.6h1.6l-.8 1.2a11.5 11.5 0 0 0-1.1 3l-.2 1.7Zm8.5-7.4h1.7V21c0 .6 0 1.2.3 1.7.2.4.4.7.8 1 .4.2 1 .3 1.5.3 1 0 1.6-.3 2-.8.5-.5.7-1.3.7-2.3h1.6c0 1-.1 1.7-.4 2.4-.3.7-.8 1.2-1.4 1.6a5 5 0 0 1-2.4.5c-1 0-1.8-.2-2.4-.5-.7-.4-1.2-.9-1.5-1.5a5 5 0 0 1-.5-2.2v-7.4Zm1.5 3.3v-1.4h7.2V17h-7.2Zm9.4 8.1V13.8h1.6v10h3.2v1.4h-4.8Zm6.2 0v-7.4c0-.8.1-1.6.5-2.2a3 3 0 0 1 1.5-1.4c.6-.4 1.4-.6 2.4-.6s1.7.2 2.4.6c.6.3 1.1.8 1.4 1.4.4.6.6 1.4.6 2.3v7.3H242V18c0-1-.2-1.9-.7-2.3-.5-.5-1.2-.8-2-.8-.6 0-1.1.2-1.5.4a2 2 0 0 0-1 1 4 4 0 0 0-.2 1.6v7.2H235Zm19.4 0h-1.7v-2.8a25.9 25.9 0 0 1 .2-1.3h-.2v-7.3h1.7v11.4Zm-1-8.5v2a4 4 0 0 1-.3 1.7c-.2.5-.4 1-.8 1.3-.3.3-.7.6-1.2.8-.5.2-1 .2-1.7.2-.8 0-1.4 0-2-.4a3 3 0 0 1-1.2-1.3c-.3-.6-.4-1.3-.4-2.2v-1.2h1.6v.8c0 .7.1 1.2.3 1.6.2.5.4.8.8 1 .4.2.8.3 1.4.3a3 3 0 0 0 1.7-.4c.4-.3.7-.7.9-1.2a6 6 0 0 0 .2-2v-1h.6Zm.7 7.1h2.9v1.4h-3v-1.4Z" fill="#fff"/>
  </g>
  <defs>
    <clipPath id="a">
      <path fill="#fff" transform="matrix(1 0 0 -1 0 80)" d="M0 0h270v80H0z"/>
    </clipPath>
  </defs>
</svg>
