<svg id="artwork" xmlns="http://www.w3.org/2000/svg" version="1.1" viewBox="0 0 239 70.9">
  <defs>
    <style>
      .st4{fill:#fff}
    </style>
  </defs>
  <rect x="-.1" width="239.2" height="70.9" rx="8.9" ry="8.9"/>
  <path class="st4" d="M120.6 38.5c-4.1 0-7.5 3.2-7.5 7.6s3.4 7.5 7.5 7.5 7.6-3.2 7.6-7.5-3.4-7.6-7.6-7.6Zm0 12.1c-2.3 0-4.2-1.8-4.2-4.5s2-4.6 4.2-4.6 4.3 1.9 4.3 4.6-2 4.5-4.3 4.5Zm-16.5-12c-4.2 0-7.6 3.1-7.6 7.5s3.4 7.5 7.6 7.5 7.6-3.2 7.6-7.5-3.4-7.6-7.6-7.6Zm0 12c-2.3 0-4.3-1.8-4.3-4.5s2-4.6 4.3-4.6 4.3 1.9 4.3 4.6-2 4.5-4.3 4.5Zm-19.6-9.8V44H92a6.6 6.6 0 0 1-1.7 4 7.8 7.8 0 0 1-6 2.4 8.4 8.4 0 0 1-8.3-8.5 8.4 8.4 0 0 1 14.1-6.2l2.3-2.3c-2-1.8-4.5-3.2-8-3.2-6.5 0-12 5.3-12 11.7s5.5 11.7 12 11.7c3.5 0 6-1 8.1-3.2 2.1-2.1 2.8-5.1 2.8-7.5 0-.8 0-1.5-.2-2H84.5Zm80.3 2.5c-.7-1.6-2.6-4.8-6.5-4.8s-7.1 3-7.1 7.6c0 4.2 3.2 7.5 7.5 7.5 3.4 0 5.4-2.1 6.3-3.3l-2.6-1.8c-.9 1.3-2 2.1-3.7 2.1s-3-.7-3.7-2.3l10.1-4.1-.3-.9ZM154.4 46a4 4 0 0 1 3.9-4.4c1.3 0 2.4.6 2.8 1.6l-6.7 2.8Zm-8.2 7.3h3.3V31h-3.3v22.1Zm-5.4-13h-.1a5.2 5.2 0 0 0-4-1.7c-3.8 0-7.3 3.3-7.3 7.6s3.5 7.5 7.3 7.5c1.8 0 3.2-.8 4-1.7v1c0 3-1.5 4.5-4 4.5-2 0-3.2-1.4-3.8-2.7l-2.8 1.2c.8 2 3 4.5 6.6 4.5 4 0 7.2-2.3 7.2-7.9V39h-3.1v1.2ZM137 50.6c-2.3 0-4.2-1.9-4.2-4.5s1.9-4.6 4.2-4.6 4 2 4 4.6-1.8 4.5-4 4.5ZM180.3 31h-8v22.1h3.4v-8.4h4.6c3.7 0 7.2-2.6 7.2-6.8S184 31 180.3 31Zm0 10.7h-4.7V34h4.7c2.5 0 4 2 4 3.8s-1.5 3.8-4 3.8Zm20.5-3.2c-2.4 0-4.9 1-6 3.4l3 1.2c.6-1.2 1.8-1.6 3-1.6 1.7 0 3.5 1 3.5 2.8v.3c-.6-.4-1.9-.9-3.5-.9-3.1 0-6.3 1.7-6.3 5 0 3 2.6 4.8 5.5 4.8 2.2 0 3.4-1 4.2-2.1V53h3.3v-8.5c0-4-3-6.1-6.7-6.1Zm-.4 12.1c-1.1 0-2.6-.5-2.6-1.8 0-1.7 1.9-2.4 3.5-2.4 1.4 0 2.1.3 3 .7a4 4 0 0 1-4 3.5ZM219 39l-3.8 9.6-4-9.6h-3.6l6 13.4-3.4 7.5h3.4l9.1-21H219Zm-29.7 14h3.4V31h-3.3v22.1Z"/>
  <path d="m36.6 34.4-18.9 20a5 5 0 0 0 7.6 3l21.2-12.2-10-10.8h.1Z" style="fill:#ea4335"/>
  <path d="m55.7 31-9.2-5.3-10.3 9.2 10.3 10.3 9.2-5.2c1.6-1 2.6-2.6 2.6-4.5s-1-3.6-2.6-4.5Z" style="fill:#fbbc04"/>
  <path d="m17.7 16.4-.1 1.4V53l.1 1.3L37.2 35 17.7 16.4Z" style="fill:#4285f4"/>
  <path d="m36.7 35.4 9.8-9.7-21.2-12.3a5.1 5.1 0 0 0-7.6 3l19 19Z" style="fill:#34a853"/>
  <path class="st4" d="M73.7 21.5V10.7h4c.9 0 1.5.1 2 .3s1 .6 1.2 1 .4 1 .4 1.5c0 .4-.1.9-.3 1.3a4 4 0 0 1-1.2 1 2 2 0 0 1 1.5 1c.4.4.6 1 .6 1.5a3.2 3.2 0 0 1-1.2 2.5l-1.1.5-1.8.2h-4.1Zm1.4-6.3h3.7l.9-.6c.2-.2.2-.6.2-1s0-.6-.2-.9c-.2-.3-.5-.4-.8-.6s-.8-.1-1.6-.1H75v3.3Zm0 5h3.7c.3 0 .6-.2.8-.3l.6-.6c.2-.2.2-.6.2-1s-.2-.7-.3-1-.5-.5-.9-.6l-1.6-.2h-2.5v3.7Zm15.4-9.5h1.4V17c0 1-.1 2-.4 2.6s-.7 1.1-1.3 1.5-1.5.6-2.5.6-1.9-.2-2.5-.5-1.1-.8-1.4-1.5a7 7 0 0 1-.4-2.7v-6.3h1.4V17c0 .9.1 1.6.3 2s.5.8 1 1c.4.3.9.4 1.5.4 1 0 1.8-.2 2.2-.7.5-.5.7-1.4.7-2.8v-6.2Zm3.4 10.8V10.7h4.7c1 0 1.7.1 2.2.3s1 .5 1.2 1 .5 1 .5 1.7-.3 1.4-.8 1.9-1.2.8-2.2 1l.8.5c.5.4.8.9 1.2 1.4l1.9 3h-1.8l-1.4-2.3-1-1.5-.8-.7-.6-.3h-2.5v4.8H94Zm1.4-6h3l1.6-.2c.4-.1.6-.4.8-.7s.3-.6.3-1c0-.5-.2-.9-.6-1.2-.3-.3-1-.5-1.7-.5h-3.4v3.6Z"/>
  <path class="st4" d="m103.1 21.5 4.2-10.8h1.5l4.4 10.8h-1.6l-1.3-3.3h-4.5l-1.2 3.3h-1.5Zm3.1-4.4h3.7l-1.1-3-.8-2.3-.6 2.1-1.2 3.1Zm7.8 4.4V10.7h3.6c.9 0 1.5 0 2 .2.6.1 1.1.4 1.5.8.6.4 1 1 1.3 1.8s.4 1.6.4 2.6c0 .8 0 1.5-.2 2.1-.2.7-.5 1.2-.8 1.6l-1 1a4 4 0 0 1-1.2.5c-.5.2-1.1.2-1.8.2H114Zm1.3-1.3h2.3a6 6 0 0 0 1.7-.2 2 2 0 0 0 1-.6c.3-.3.6-.7.8-1.3s.2-1.3.2-2c0-1.2-.1-2-.5-2.7s-.8-1-1.4-1.2l-1.8-.2h-2.3v8.2Zm7.9 1.3 4.1-10.8h1.6l4.4 10.8h-1.7l-1.2-3.3h-4.5l-1.2 3.3h-1.5Zm3.1-4.4h3.6l-1-3c-.4-1-.7-1.7-.8-2.3l-.6 2.1-1.2 3.1Zm20.1-1.1c0 1.6-.3 3-1.2 4-.8 1.1-2 1.7-3.8 1.7s-3-.6-3.8-1.7a7 7 0 0 1-1.1-4v-.7h8.4c0-1-.4-2-1-2.6-.6-.6-1.4-1-2.5-1-1.5 0-2.5.8-3 2.3l-1.3-.3a4 4 0 0 1 1.6-2.4c.7-.5 1.6-.8 2.7-.8 1 0 1.9.3 2.7.7.8.5 1.4 1.2 1.8 2.1.3.8.5 1.7.5 2.7Zm-1.5.6h-7c.1 1.2.5 2.1 1 2.8.7.7 1.5 1 2.6 1s1.8-.3 2.4-1c.7-.7 1-1.6 1-2.8Zm2.9 4.9V10.7h1.4v9.5h5.3v1.3h-6.7Zm8 0V10.7h3.7c.8 0 1.5 0 2 .2.5.1 1 .4 1.5.8.6.4 1 1 1.3 1.8s.4 1.6.4 2.6c0 .8 0 1.5-.3 2.1-.2.7-.4 1.2-.7 1.6l-1 1a4 4 0 0 1-1.3.5c-.5.2-1 .2-1.7.2h-4 .1Zm1.4-1.3h2.3c.7 0 1.3 0 1.7-.2l1-.6c.3-.3.6-.7.8-1.3s.2-1.3.2-2c0-1.2-.1-2-.5-2.7s-.8-1-1.4-1.2l-1.8-.2h-2.3v8.2Zm18.5-4.2c0 1.6-.3 3-1.1 4-.9 1.1-2.1 1.7-3.8 1.7s-3-.6-3.8-1.7c-.8-1-1.2-2.4-1.2-4v-.7h8.4c0-1-.4-2-1-2.6-.6-.6-1.4-1-2.5-1-1.5 0-2.5.8-3 2.3l-1.3-.3a4 4 0 0 1 1.6-2.4c.7-.5 1.7-.8 2.7-.8 1 0 1.9.3 2.7.7.8.5 1.4 1.2 1.8 2.1.3.8.5 1.7.5 2.7Zm-1.4.6h-7c0 1.2.4 2.1 1 2.8.6.7 1.5 1 2.5 1s1.8-.3 2.5-1c.6-.7 1-1.6 1-2.8Zm6.7 4.9V10.7h7.7V12h-6.3v3.3h6v1.3h-6v3.6h6.6v1.3h-8Zm9.5 0V10.7h3.8c.8 0 1.4 0 1.9.2.6.1 1.1.4 1.5.8.6.4 1 1 1.3 1.8a7 7 0 0 1 .2 4.7c-.2.7-.5 1.2-.8 1.6l-1 1a4 4 0 0 1-1.2.5c-.5.2-1.1.2-1.8.2h-3.9Zm1.5-1.3h2.3c.7 0 1.2 0 1.6-.2l1-.6c.3-.3.6-.7.8-1.3s.3-1.3.3-2c0-1.2-.2-2-.6-2.7s-.8-1-1.3-1.2l-1.9-.2H192v8.2Zm9.1-10.2V8.5h1.7V10H201Zm.1 11.5V10.7h1.4v10.8h-1.4Zm3.5 0V10.7h1.5l5.7 8.5v-8.5h1.3v10.8h-1.4L206 13v8.5h-1.4Zm10.7-6.3v-1.5h1.5v1.5h-1.5Zm0 6.3V20h1.5v1.5h-1.5Z"/>
</svg>
