<svg width="180" height="54" fill="none" xmlns="http://www.w3.org/2000/svg">
  <path d="M173.33 54H6.67A6.73 6.73 0 0 1 0 47.25V6.75C0 3.04 3 0 6.67 0h166.66A6.73 6.73 0 0 1 180 6.75v40.5c0 3.71-3 6.75-6.67 6.75Z" fill="#000"/>
  <path d="m27.63 26.22-14.2 15.26a3.84 3.84 0 0 0 5.65 2.35l.05-.03 15.97-9.33-7.48-8.25Z" fill="#EA4335"/>
  <path d="m41.98 23.63-.01-.02-6.9-4.05-7.77 7 7.8 7.9 6.86-4a3.89 3.89 0 0 0 2.02-3.43c0-1.47-.8-2.75-2-3.4Z" fill="#FBBC04"/>
  <path d="M13.43 12.52a3.7 3.7 0 0 0-.13 1v26.96c0 .35.04.68.13 1L28.1 26.62l-14.68-14.1Z" fill="#4285F4"/>
  <path d="m27.73 27 7.34-7.44-15.96-9.37a3.85 3.85 0 0 0-5.69 2.33L27.73 27Z" fill="#34A853"/>
  <path d="M131.52 26.67h2.17V12.1h-2.17v14.57Zm19.59-9.32-2.5 6.31h-.07l-2.59-6.31h-2.34l3.88 8.82-2.21 4.91h2.26l5.99-13.73h-2.42ZM138.77 25c-.7 0-1.7-.35-1.7-1.24 0-1.12 1.24-1.55 2.3-1.55.96 0 1.4.2 1.99.49a2.64 2.64 0 0 1-2.59 2.3Zm.27-7.98c-1.58 0-3.2.69-3.88 2.23l1.93.8c.4-.8 1.18-1.07 1.98-1.07 1.13 0 2.27.68 2.29 1.88v.15a4.8 4.8 0 0 0-2.27-.56c-2.08 0-4.2 1.14-4.2 3.28 0 1.95 1.7 3.2 3.62 3.2 1.46 0 2.27-.65 2.78-1.42h.07v1.12h2.1v-5.58c0-2.59-1.93-4.03-4.42-4.03Zm-13.44 2.09h-3.1v-5h3.1a2.52 2.52 0 0 1 2.55 2.5c0 1.13-.93 2.5-2.55 2.5Zm-.06-7.02h-5.21v14.57h2.17v-5.52h3.04c2.41 0 4.78-1.75 4.78-4.53 0-2.78-2.37-4.52-4.78-4.52ZM97.13 25c-1.5 0-2.76-1.25-2.76-2.98 0-1.75 1.25-3.02 2.76-3.02 1.48 0 2.64 1.27 2.64 3.02 0 1.73-1.16 2.98-2.64 2.98Zm2.5-6.85h-.08a3.43 3.43 0 0 0-2.61-1.1 4.93 4.93 0 0 0-4.75 4.97 4.9 4.9 0 0 0 4.75 4.94c1.18 0 2.12-.53 2.6-1.13h.08v.71c0 1.9-1.01 2.91-2.64 2.91a2.74 2.74 0 0 1-2.5-1.76l-1.9.79c.55 1.31 2 2.93 4.4 2.93 2.55 0 4.7-1.5 4.7-5.17v-8.9h-2.06v.81Zm3.56 8.5h2.18V12.1h-2.18v14.57Zm5.39-4.8a2.72 2.72 0 0 1 2.59-2.9c.86 0 1.6.44 1.84 1.06l-4.43 1.84Zm6.76-1.65c-.42-1.11-1.67-3.16-4.25-3.16-2.55 0-4.67 2.01-4.67 4.96 0 2.78 2.1 4.96 4.92 4.96a4.93 4.93 0 0 0 4.13-2.2l-1.69-1.13a2.83 2.83 0 0 1-2.44 1.37c-1.1 0-1.9-.5-2.4-1.5l6.62-2.74-.22-.56Zm-52.8-1.64v2.1h5.03a4.38 4.38 0 0 1-1.15 2.65 5.15 5.15 0 0 1-3.89 1.54c-3.1 0-5.52-2.5-5.52-5.6a5.52 5.52 0 0 1 9.32-4.08l1.48-1.49a7.34 7.34 0 0 0-5.28-2.12 7.8 7.8 0 0 0-7.8 7.7 7.8 7.8 0 0 0 7.8 7.7c2.3 0 4.02-.75 5.37-2.16a6.95 6.95 0 0 0 1.82-4.92c0-.49-.03-.94-.1-1.32h-7.09ZM75.44 25c-1.5 0-2.8-1.23-2.8-3 0-1.78 1.3-3 2.8-3 1.5 0 2.8 1.22 2.8 3 0 1.77-1.3 3-2.8 3Zm0-7.96A4.89 4.89 0 0 0 70.47 22a4.9 4.9 0 0 0 4.98 4.96A4.9 4.9 0 0 0 80.42 22a4.89 4.89 0 0 0-4.97-4.96ZM86.3 25c-1.5 0-2.8-1.23-2.8-3 0-1.78 1.3-3 2.8-3 1.5 0 2.8 1.22 2.8 3 0 1.77-1.3 3-2.8 3Zm0-7.96A4.89 4.89 0 0 0 81.32 22a4.9 4.9 0 0 0 4.98 4.96A4.9 4.9 0 0 0 91.28 22a4.89 4.89 0 0 0-4.98-4.96ZM56.03 36.02l-.22 2.88h-.62l-.22-2.88h1.06Z" fill="#fff"/>
  <path d="M56.03 36.02h-.13l-.21 2.75h-.37l-.2-2.61h.91v-.27h-1.2l.24 3.15h.87l.24-3.15h-.15v.13Zm7.37 3.95c0-1.02-.25-1.79-.75-2.3-.5-.53-1.26-.79-2.27-.79h-1.3v6.26h1.08c2.16 0 3.24-1.06 3.24-3.17Zm1.06-.04c0 1.32-.36 2.33-1.08 3.03-.72.7-1.75 1.04-3.09 1.04h-2.22v-7.98h2.45a3.9 3.9 0 0 1 2.9 1.03c.7.68 1.04 1.64 1.04 2.88Z" fill="#fff"/>
  <path d="M63.4 39.97h.13c0-1.04-.25-1.84-.78-2.4-.54-.56-1.33-.82-2.37-.82h-1.44v6.52h1.22c1.1 0 1.95-.27 2.52-.83.58-.56.85-1.4.85-2.47h-.26c0 1.03-.27 1.78-.77 2.28-.51.5-1.28.75-2.34.75h-.95v-5.99h1.17c1 0 1.7.26 2.17.74.47.5.72 1.22.72 2.22h.13Zm1.06-.04h-.14c0 1.3-.35 2.26-1.03 2.93-.69.66-1.68 1-3 1H58.2v-7.7h2.32c1.22 0 2.15.33 2.8.98.67.65 1 1.57 1 2.8h.27a4 4 0 0 0-1.07-2.99 4.08 4.08 0 0 0-3-1.06h-2.58v8.24h2.35c1.36 0 2.43-.35 3.18-1.08.75-.73 1.12-1.77 1.12-3.12h-.13Zm4.87 3.3c.75 0 1.34-.24 1.78-.71.45-.48.7-1.15.76-2h-4.78c0 .92.19 1.6.55 2.05.37.44.93.66 1.69.66Zm-.26-6.45c-.81 0-1.66.15-2.54.46v-.92a7.12 7.12 0 0 1 2.57-.42c1.2 0 2.14.36 2.82 1.09.67.73 1 1.74 1 3.03 0 1.28-.31 2.27-.94 3a3.32 3.32 0 0 1-2.65 1.09c-1.1 0-1.92-.34-2.47-1.03-.56-.68-.84-1.7-.84-3.07v-.38h5.85a3.24 3.24 0 0 0-.8-2.13c-.47-.48-1.13-.72-2-.72Z" fill="#fff"/>
  <path d="M69.33 43.23v.13c.77 0 1.41-.25 1.88-.75s.73-1.2.79-2.09v-.14h-5.04v.13c0 .95.18 1.66.58 2.14.4.48 1 .72 1.79.71v-.26c-.74 0-1.25-.21-1.59-.62-.33-.4-.51-1.06-.51-1.97h-.14v.14h4.78v-.14h-.14c-.05.84-.3 1.47-.71 1.92-.42.44-.97.67-1.69.67v.13Zm-.26-6.45v-.13c-.83 0-1.7.15-2.59.46l.05.13h.13v-.92h-.13l.04.13a7.03 7.03 0 0 1 2.53-.42 3.5 3.5 0 0 1 2.72 1.05c.64.7.97 1.67.97 2.94 0 1.25-.3 2.22-.91 2.91-.6.7-1.44 1.04-2.55 1.05-1.07 0-1.84-.33-2.37-.98-.53-.65-.8-1.64-.8-2.99v-.25H72l-.01-.14a3.37 3.37 0 0 0-.83-2.21 2.8 2.8 0 0 0-2.1-.76v.27c.84 0 1.47.23 1.9.67.45.45.7 1.13.76 2.05l.14-.01v-.13h-5.98v.5c0 1.38.28 2.43.86 3.15.58.73 1.46 1.08 2.58 1.08 1.16 0 2.1-.37 2.75-1.13.66-.76.98-1.8.98-3.09A4.4 4.4 0 0 0 72 36.89a3.78 3.78 0 0 0-2.91-1.13 7.32 7.32 0 0 0-2.61.43l-.1.03v1.2l.18-.06c.87-.3 1.7-.45 2.5-.45v-.14Zm11.86 6.45c.75 0 1.34-.24 1.79-.71.44-.48.7-1.15.75-2H78.7c0 .92.18 1.6.55 2.05.36.44.92.66 1.68.66Zm-.25-6.45c-.82 0-1.67.15-2.55.46v-.92a7.13 7.13 0 0 1 2.57-.42c1.2 0 2.15.36 2.82 1.09.67.73 1 1.74 1 3.03 0 1.28-.3 2.27-.94 3a3.32 3.32 0 0 1-2.65 1.09c-1.1 0-1.91-.34-2.47-1.03-.55-.68-.83-1.7-.83-3.07v-.38h5.84a3.24 3.24 0 0 0-.8-2.13c-.46-.48-1.13-.72-2-.72Z" fill="#fff"/>
  <path d="M80.93 43.23v.13c.78 0 1.42-.25 1.89-.75s.73-1.2.78-2.09l.01-.14h-5.05v.13c0 .95.19 1.66.58 2.14.4.48 1.01.72 1.8.71v-.26c-.74 0-1.26-.21-1.6-.62-.33-.4-.51-1.06-.5-1.97h-.14v.14h4.77v-.14h-.13c-.06.84-.3 1.47-.72 1.92-.42.44-.97.67-1.69.67v.13Zm-.25-6.45v-.13c-.84 0-1.7.15-2.6.46l.05.13h.13v-.92h-.13l.04.13a7.03 7.03 0 0 1 2.53-.42c1.18 0 2.08.35 2.72 1.05.65.7.98 1.67.98 2.94 0 1.25-.31 2.22-.92 2.91-.6.7-1.44 1.04-2.55 1.05-1.06 0-1.84-.33-2.37-.98-.52-.65-.8-1.64-.8-2.99v-.25h5.85v-.14a3.37 3.37 0 0 0-.84-2.21 2.8 2.8 0 0 0-2.1-.76v.27c.85 0 1.47.23 1.91.67.44.45.7 1.13.76 2.05l.13-.01v-.13H77.5v.5c0 1.38.28 2.43.87 3.15.58.73 1.45 1.08 2.57 1.08 1.17 0 2.1-.37 2.75-1.13.66-.76.98-1.8.98-3.09 0-1.31-.34-2.36-1.04-3.12a3.79 3.79 0 0 0-2.92-1.13 7.32 7.32 0 0 0-2.61.43l-.1.03v1.2l.18-.06c.87-.3 1.7-.45 2.5-.45v-.14ZM86.53 44v-7.98h1v7.09h3.5V44h-4.5Z" fill="#fff"/>
  <path d="M86.53 44h.14v-7.84h.73v7.08h3.49v.63h-4.36v.26h4.63v-1.16h-3.5V35.9H86.4v8.24h.13V44Zm11.41-4.03c0-1.02-.25-1.79-.75-2.3-.5-.53-1.26-.79-2.27-.79h-1.3v6.26h1.08c2.16 0 3.24-1.06 3.24-3.17Zm1.06-.04c0 1.32-.36 2.33-1.08 3.03-.72.7-1.75 1.04-3.09 1.04h-2.22v-7.98h2.45c1.24 0 2.2.34 2.9 1.03.7.68 1.04 1.64 1.04 2.88Z" fill="#fff"/>
  <path d="M97.94 39.97h.13c0-1.04-.25-1.84-.78-2.4-.54-.56-1.34-.82-2.37-.82h-1.44v6.52h1.22c1.1 0 1.95-.27 2.52-.83.58-.56.85-1.4.85-2.47h-.26c0 1.03-.27 1.78-.77 2.28-.51.5-1.28.75-2.34.75h-.95v-5.99h1.17c1 0 1.7.26 2.17.74.47.5.72 1.22.72 2.22h.13Zm1.06-.04h-.14c0 1.3-.35 2.26-1.03 2.93-.69.66-1.68 1-3 1h-2.09v-7.7h2.32c1.22 0 2.15.33 2.8.98.67.65 1 1.57 1 2.8h.27a4 4 0 0 0-1.08-2.99 4.08 4.08 0 0 0-2.99-1.06h-2.58v8.24h2.35c1.36 0 2.43-.35 3.18-1.08.75-.73 1.12-1.77 1.12-3.12H99Zm4.87 3.3c.75 0 1.34-.24 1.78-.71.45-.48.7-1.15.76-2h-4.78c0 .92.19 1.6.55 2.05.37.44.93.66 1.69.66Zm-.26-6.45a7.7 7.7 0 0 0-2.55.46v-.92a7.13 7.13 0 0 1 2.58-.42c1.2 0 2.14.36 2.82 1.09.67.73 1 1.74 1 3.03 0 1.28-.31 2.27-.94 3a3.32 3.32 0 0 1-2.65 1.09c-1.1 0-1.92-.34-2.47-1.03-.56-.68-.84-1.7-.84-3.07v-.38h5.85a3.23 3.23 0 0 0-.8-2.13c-.47-.48-1.14-.72-2-.72Z" fill="#fff"/>
  <path d="M103.87 43.23v.13c.77 0 1.41-.25 1.88-.75s.73-1.2.79-2.09v-.14h-5.04v.13c0 .95.18 1.66.58 2.14.4.48 1 .72 1.79.71v-.26c-.74 0-1.25-.21-1.59-.62-.33-.4-.51-1.06-.51-1.97h-.14v.14h4.78v-.14h-.14a3 3 0 0 1-.71 1.92c-.42.44-.97.67-1.69.67v.13Zm-.26-6.45v-.13c-.83 0-1.7.15-2.59.46l.05.13h.13v-.92h-.14l.05.13a7.03 7.03 0 0 1 2.53-.42 3.5 3.5 0 0 1 2.72 1.05c.64.7.97 1.67.97 2.94 0 1.25-.3 2.22-.91 2.91-.6.7-1.44 1.04-2.55 1.05-1.07 0-1.84-.33-2.37-.98-.53-.65-.8-1.64-.8-2.99v-.25h5.85l-.01-.14a3.38 3.38 0 0 0-.83-2.21 2.8 2.8 0 0 0-2.1-.76v.27c.84 0 1.47.23 1.9.67.44.45.7 1.13.76 2.05l.14-.01v-.13h-5.98v.5c0 1.38.28 2.43.86 3.15.58.73 1.46 1.08 2.58 1.08 1.16 0 2.1-.37 2.75-1.13.66-.76.98-1.8.98-3.09a4.4 4.4 0 0 0-1.05-3.12 3.79 3.79 0 0 0-2.91-1.13 7.33 7.33 0 0 0-2.61.43l-.1.03v1.2l.18-.06c.87-.3 1.7-.45 2.5-.45v-.14ZM117.05 44h-4.46v-7.98h4.46v.89h-3.45v2.49h3.25v.87h-3.25v2.85h3.45V44Z" fill="#fff"/>
  <path d="M117.05 44v-.13h-4.32v-7.71h4.19v.61h-3.46v2.76h3.26v.6h-3.26v3.12h3.46V44h.26v-1.02h-3.45V40.4h3.25v-1.14h-3.25v-2.22h3.45V35.9h-4.72v8.24h4.72V44h-.13Zm7.31-4.03c0-1.02-.25-1.79-.75-2.3-.5-.53-1.25-.79-2.27-.79h-1.3v6.26h1.08c2.16 0 3.24-1.06 3.24-3.17Zm1.06-.04c0 1.32-.36 2.33-1.08 3.03-.72.7-1.75 1.04-3.09 1.04h-2.22v-7.98h2.45a3.9 3.9 0 0 1 2.9 1.03c.7.68 1.04 1.64 1.04 2.88Z" fill="#fff"/>
  <path d="M124.36 39.97h.14c0-1.04-.26-1.84-.8-2.4-.53-.56-1.32-.82-2.36-.82h-1.44v6.52h1.22c1.1 0 1.95-.27 2.52-.83.58-.56.86-1.4.86-2.47h-.27c0 1.03-.27 1.78-.77 2.28-.5.5-1.28.75-2.34.75h-.95v-5.99h1.17c1 0 1.7.26 2.17.74.47.5.72 1.22.72 2.22h.13Zm1.06-.04h-.14c0 1.3-.34 2.26-1.03 2.93-.69.66-1.68 1-3 1h-2.08v-7.7h2.31c1.22 0 2.15.33 2.8.98.67.65 1 1.57 1 2.8h.27a4 4 0 0 0-1.07-2.99 4.08 4.08 0 0 0-3-1.06h-2.58v8.24h2.35c1.37 0 2.44-.35 3.19-1.08.75-.73 1.11-1.77 1.11-3.12h-.13Zm4.23 4.07h-2.88v-.58l.94-.21v-6.38l-.94-.23v-.58h2.88v.58l-.94.23v6.38l.94.21V44Z" fill="#fff"/>
  <path d="M129.65 44v-.13h-2.75v-.34l.84-.2.1-.02v-6.59l-.94-.22v-.34h2.62v.34l-.94.22v6.6l.94.2V44h.26v-.68l-.93-.22v-6.17l.94-.22v-.82h-3.15v.82l.94.22v6.17l-.84.2-.1.02v.81h3.14V44h-.13Zm8.09 0h-1.17l-4.27-6.62h-.05l.03.44c.04.66.07 1.23.07 1.72V44h-.93v-7.98h1.16l.25.4 2.62 4.04 1.39 2.16h.04l-.04-.93-.03-1.17v-4.5h.93V44Z" fill="#fff"/>
  <path d="M137.74 44v-.13h-1.1l-4.27-6.63h-.26l.04.59c.04.66.06 1.23.06 1.71v4.33h-.66v-7.71h.96l.2.32 2.63 4.05 1.42 2.23h.27l-.02-.15a28.9 28.9 0 0 1-.07-2.09v-4.36h.67V44h.27v-8.11h-1.2v4.63c0 .25 0 .64.02 1.18l.05.94.13-.02v-.13h-.04v.13l.1-.07-1.38-2.16-2.62-4.05-.25-.39-.03-.06h-1.37v8.24h1.2v-4.59c0-.49-.03-1.07-.07-1.73l-.03-.44h-.13v.14h.04v-.13l-.11.07 4.3 6.68h1.39V44h-.14Z" fill="#fff"/>
</svg>
