<svg width="180" height="54" fill="none" xmlns="http://www.w3.org/2000/svg">
  <path d="M173.3 54H6.7A6.7 6.7 0 0 1 0 47.2V6.8C0 3 3 0 6.7 0h166.6a6.7 6.7 0 0 1 6.7 6.8v40.5c0 3.7-3 6.7-6.7 6.7Z" fill="#000"/>
  <path d="M27.6 26.2 13.4 41.5a3.8 3.8 0 0 0 5.7 2.3l16-9.3-7.5-8.3Z" fill="#EA4335"/>
  <path d="m42 23.6-7-4-7.7 7 7.8 7.9 6.9-4a3.9 3.9 0 0 0 2-3.5 4 4 0 0 0-2-3.4Z" fill="#FBBC04"/>
  <path d="M13.4 12.5a3.7 3.7 0 0 0-.1 1v27l.1 1 14.7-14.9-14.7-14Z" fill="#4285F4"/>
  <path d="m27.7 27 7.4-7.4-16-9.4a3.9 3.9 0 0 0-5.7 2.3L27.7 27Z" fill="#34A853"/>
  <path d="M131.5 26.7h2.2V12h-2.2v14.6Zm19.6-9.3-2.5 6.3-2.6-6.3h-2.4l3.9 8.8-2.2 4.9h2.2l6-13.8h-2.4ZM138.8 25c-.7 0-1.7-.3-1.7-1.2 0-1.2 1.2-1.6 2.3-1.6 1 0 1.4.2 2 .5a2.6 2.6 0 0 1-2.6 2.3Zm.2-8c-1.5 0-3.2.7-3.8 2.2l1.9.9c.4-.9 1.2-1.1 2-1.1 1.1 0 2.2.7 2.3 1.9v.1a4.8 4.8 0 0 0-2.3-.6c-2 0-4.2 1.2-4.2 3.3 0 2 1.7 3.2 3.6 3.2a3 3 0 0 0 2.8-1.4v1.1h2.2V21c0-2.5-2-4-4.5-4Zm-13.4 2.1h-3.1v-5h3.1a2.5 2.5 0 0 1 2.6 2.5c0 1.1-1 2.5-2.6 2.5Zm0-7h-5.3v14.6h2.2V21h3c2.5 0 4.8-1.7 4.8-4.5S128 12 125.5 12ZM97 25c-1.5 0-2.7-1.3-2.7-3s1.2-3 2.7-3c1.5 0 2.7 1.3 2.7 3s-1.2 3-2.7 3Zm2.5-6.8a3.4 3.4 0 0 0-2.7-1.2 5 5 0 0 0-4.7 5 4.9 4.9 0 0 0 4.7 5c1.2 0 2.2-.6 2.6-1.2h.1v.7c0 2-1 3-2.6 3a2.7 2.7 0 0 1-2.5-1.8l-2 .8c.6 1.3 2 3 4.5 3s4.7-1.6 4.7-5.3v-8.9h-2v.8Zm3.6 8.4h2.2V12.1h-2.2v14.6Zm5.4-4.8a2.7 2.7 0 0 1 2.6-2.9c.8 0 1.6.5 1.8 1.1l-4.4 1.8Zm6.7-1.6c-.4-1.1-1.6-3.2-4.2-3.2s-4.7 2-4.7 5c0 2.8 2.1 5 5 5a5 5 0 0 0 4-2.2l-1.6-1.2a2.8 2.8 0 0 1-2.5 1.4c-1 0-1.9-.5-2.4-1.5l6.7-2.7-.3-.6Zm-52.8-1.6v2h5a4.4 4.4 0 0 1-1 2.7 5.2 5.2 0 0 1-4 1.5 5.5 5.5 0 0 1-5.5-5.6 5.5 5.5 0 0 1 9.3-4l1.5-1.5a7.3 7.3 0 0 0-5.3-2.1 7.8 7.8 0 0 0-7.8 7.7 7.8 7.8 0 0 0 7.8 7.7 7 7 0 0 0 5.4-2.2 7 7 0 0 0 1.8-5v-1.2h-7.2Zm13 6.4c-1.6 0-2.9-1.2-2.9-3s1.3-3 2.8-3c1.5 0 2.8 1.2 2.8 3s-1.3 3-2.8 3Zm0-8a4.9 4.9 0 0 0-5 5 4.9 4.9 0 0 0 5 5 4.9 4.9 0 0 0 5-5 4.9 4.9 0 0 0-5-5Zm10.8 8c-1.5 0-2.8-1.2-2.8-3s1.3-3 2.8-3c1.5 0 2.8 1.2 2.8 3s-1.3 3-2.8 3Zm0-8a4.9 4.9 0 0 0-5 5 4.9 4.9 0 0 0 5 5 4.9 4.9 0 0 0 5-5 4.9 4.9 0 0 0-5-5ZM56 36l-.2 2.9h-.6L55 36h1Z" fill="#fff"/>
  <path d="m56 36-.2 2.8h-.4l-.2-2.6h1v-.3h-1.3l.3 3.1h.8l.3-3.1H56v.1Zm7.4 4c0-1-.3-1.8-.8-2.3-.5-.6-1.2-.8-2.2-.8H59V43h1c2.2 0 3.3-1 3.3-3.1Zm1 0c0 1.3-.3 2.3-1 3-.7.7-1.8 1-3.1 1H58v-8h2.4a3.9 3.9 0 0 1 3 1c.6.7 1 1.7 1 3Z" fill="#fff"/>
  <path d="M63.4 40h.1c0-1-.2-1.9-.7-2.4-.6-.6-1.4-.9-2.4-.9h-1.5v6.6h1.3c1 0 2-.3 2.5-.9.6-.5.8-1.4.8-2.4h-.2a3 3 0 0 1-.8 2.2c-.5.5-1.3.8-2.3.8h-1v-6h1.2c1 0 1.7.3 2.2.7.4.5.7 1.3.7 2.3h.1Zm1 0a4 4 0 0 1-1.1 2.9c-.7.6-1.7 1-3 1h-2.1v-7.7h2.3c1.2 0 2.2.3 2.8 1 .7.6 1 1.5 1 2.7h.3a4 4 0 0 0-1-3 4 4 0 0 0-3-1h-2.7V44h2.4c1.3 0 2.4-.3 3.2-1 .7-.8 1-1.8 1-3.2Zm5 3.2c.7 0 1.3-.2 1.7-.7.5-.5.7-1.1.8-2H67c0 1 .2 1.6.5 2 .4.5 1 .7 1.7.7Zm-.3-6.4c-.8 0-1.7.1-2.6.4v-.9a7.1 7.1 0 0 1 2.6-.4c1.2 0 2.1.4 2.8 1 .7.8 1 1.8 1 3.1s-.3 2.3-1 3a3.3 3.3 0 0 1-2.6 1.1c-1 0-1.9-.3-2.4-1-.6-.7-.9-1.7-.9-3v-.5h6a3.2 3.2 0 0 0-.8-2.1c-.5-.5-1.2-.7-2-.7Z" fill="#fff"/>
  <path d="M69.3 43.2v.2c.8 0 1.4-.3 2-.8s.6-1.2.7-2v-.2h-5v.1c0 1 .1 1.7.5 2.1.4.5 1 .8 1.8.8V43c-.7 0-1.2-.2-1.6-.6-.3-.4-.5-1-.5-2h-.1v.2h4.8v-.2h-.2a3 3 0 0 1-.7 2c-.4.4-1 .6-1.7.6v.1Zm-.2-6.4v-.2a8 8 0 0 0-2.6.5v.1h.2v-.9h-.2v.1a7 7 0 0 1 2.6-.4 3.5 3.5 0 0 1 2.7 1c.7.8 1 1.7 1 3s-.3 2.2-1 3c-.5.6-1.4 1-2.5 1a3 3 0 0 1-2.3-1c-.6-.7-.8-1.6-.8-3v-.2H72v-.2a3.4 3.4 0 0 0-.8-2.2 2.8 2.8 0 0 0-2.1-.8v.3c.8 0 1.4.2 1.9.7.4.4.7 1.1.7 2h.2v-.1h-6v.5c0 1.4.3 2.4.8 3.1.6.8 1.5 1.1 2.6 1.1 1.2 0 2.1-.3 2.8-1.1a5 5 0 0 0 1-3 4.4 4.4 0 0 0-1.1-3.2 3.8 3.8 0 0 0-3-1.1 7.3 7.3 0 0 0-2.5.4h-.1v1.2h.2c.8-.3 1.7-.5 2.5-.5v-.1Zm11.8 6.4c.8 0 1.4-.2 1.8-.7.5-.5.7-1.1.8-2h-4.8c0 1 .2 1.6.6 2 .3.5.9.7 1.6.7Zm-.2-6.4c-.8 0-1.7.1-2.6.4v-.9a7.1 7.1 0 0 1 2.6-.4c1.2 0 2.1.4 2.8 1 .7.8 1 1.8 1 3.1s-.3 2.3-1 3a3.3 3.3 0 0 1-2.6 1.1c-1 0-1.9-.3-2.4-1-.6-.7-.9-1.7-.9-3v-.5h5.9a3.2 3.2 0 0 0-.8-2.1c-.5-.5-1.2-.7-2-.7Z" fill="#fff"/>
  <path d="M81 43.2v.2c.7 0 1.4-.3 1.8-.8s.8-1.2.8-2v-.2h-5v.1c0 1 .2 1.7.5 2.1.4.5 1 .8 1.8.8V43c-.7 0-1.2-.2-1.6-.6-.3-.4-.5-1-.5-2h-.1v.2h4.8v-.2h-.2a3 3 0 0 1-.7 2c-.4.4-1 .6-1.7.6v.1Zm-.3-6.4v-.2a8 8 0 0 0-2.6.5v.1h.2v-.9H78v.1a7 7 0 0 1 2.6-.4c1.2 0 2 .4 2.7 1 .7.8 1 1.7 1 3s-.3 2.2-1 3c-.5.6-1.4 1-2.5 1a3 3 0 0 1-2.3-1c-.6-.7-.8-1.6-.8-3v-.2h5.8v-.2a3.4 3.4 0 0 0-.8-2.2 2.8 2.8 0 0 0-2.1-.8v.3c.8 0 1.4.2 1.9.7.4.4.7 1.1.7 2h.2v-.1h-6v.5c0 1.4.3 2.4.9 3.1.5.8 1.4 1.1 2.5 1.1 1.2 0 2.1-.3 2.8-1.1a5 5 0 0 0 1-3c0-1.4-.4-2.5-1-3.2a3.8 3.8 0 0 0-3-1.1 7.3 7.3 0 0 0-2.6.4v1.2h.2a8 8 0 0 1 2.5-.5v-.1Zm5.8 7.2v-8h1v7.1H91v.9h-4.5Z" fill="#fff"/>
  <path d="M86.5 44h.2v-7.8h.7v7h3.5v.7h-4.4v.2h4.7V43h-3.5v-7.1h-1.3v8.2h.1V44ZM98 40c0-1-.2-1.8-.7-2.3-.5-.6-1.3-.8-2.3-.8h-1.3V43h1.1c2.2 0 3.2-1 3.2-3.1Zm1.1 0c0 1.2-.4 2.3-1 3-.8.7-1.8 1-3.2 1h-2.2v-8h2.5a4 4 0 0 1 2.9 1c.7.7 1 1.7 1 3Z" fill="#fff"/>
  <path d="M98 40c0-1-.2-1.9-.7-2.4-.6-.6-1.4-.9-2.4-.9h-1.4v6.6h1.2c1.1 0 2-.3 2.5-.9.6-.5.9-1.4.9-2.4h-.3a3 3 0 0 1-.8 2.2c-.5.5-1.2.8-2.3.8h-1v-6H95c1 0 1.7.3 2.2.7.5.5.7 1.3.7 2.3h.1Zm1 0h-.1c0 1.2-.4 2.2-1 2.9a5 5 0 0 1-3 1h-2.2v-7.7h2.4c1.2 0 2.1.3 2.8 1 .6.6 1 1.5 1 2.7h.2a4 4 0 0 0-1-3 4 4 0 0 0-3-1h-2.6V44h2.3c1.4 0 2.5-.3 3.2-1 .8-.8 1.1-1.8 1.1-3.2H99Zm4.9 3.2c.7 0 1.3-.2 1.7-.7.5-.5.8-1.1.8-2h-4.8c0 1 .2 1.6.6 2 .4.5 1 .7 1.7.7Zm-.3-6.4a7.7 7.7 0 0 0-2.5.4v-.9a7.1 7.1 0 0 1 2.5-.4c1.2 0 2.2.4 2.9 1 .6.8 1 1.8 1 3.1s-.4 2.3-1 3a3.3 3.3 0 0 1-2.6 1.1c-1.1 0-2-.3-2.5-1-.6-.7-.8-1.7-.8-3v-.5h5.8a3.2 3.2 0 0 0-.8-2.1c-.5-.5-1.1-.7-2-.7Z" fill="#fff"/>
  <path d="M103.9 43.2v.2c.7 0 1.4-.3 1.8-.8s.8-1.2.8-2v-.2h-5v.1c0 1 .2 1.7.6 2.1.4.5 1 .8 1.8.8V43c-.8 0-1.3-.2-1.6-.6-.3-.4-.5-1-.5-2h-.2v.2h4.8v-.2h-.1a3 3 0 0 1-.7 2c-.5.4-1 .6-1.7.6v.1Zm-.3-6.4v-.2c-.8 0-1.7.2-2.6.5v.1h.2v-.9h-.1v.1a7 7 0 0 1 2.5-.4 3.5 3.5 0 0 1 2.8 1c.6.8 1 1.7 1 3s-.4 2.2-1 3c-.6.6-1.4 1-2.5 1s-1.9-.4-2.4-1c-.5-.7-.8-1.6-.8-3v-.2h5.8v-.2a3.4 3.4 0 0 0-.8-2.2 2.8 2.8 0 0 0-2-.8v.3c.7 0 1.4.2 1.8.7.4.4.7 1.1.8 2h.1v-.1h-6v.5c0 1.4.3 2.4.9 3.1.6.8 1.4 1.1 2.6 1.1 1.1 0 2-.3 2.7-1.1.7-.8 1-1.8 1-3a4.4 4.4 0 0 0-1-3.2 3.8 3.8 0 0 0-3-1.1 7.3 7.3 0 0 0-2.6.4v1.2h.1a8 8 0 0 1 2.5-.5v-.1Zm13.5 7.2h-4.5v-8h4.5v1h-3.5v2.4h3.3v.9h-3.3V43h3.5v.9Z" fill="#fff"/>
  <path d="M117 44v-.1h-4.3v-7.7h4.2v.6h-3.4v2.7h3.2v.6h-3.2v3.1h3.4v.8h.3v-1h-3.5v-2.6h3.3v-1.1h-3.3V37h3.5v-1h-4.7v8.2h4.7V44h-.2Zm7.4-4c0-1-.3-1.8-.8-2.3-.5-.6-1.2-.8-2.3-.8H120V43h1.1c2.2 0 3.3-1 3.3-3.1Zm1 0c0 1.2-.3 2.3-1 3-.8.7-1.8 1-3.2 1H119v-8h2.5a3.9 3.9 0 0 1 2.9 1c.7.7 1 1.7 1 3Z" fill="#fff"/>
  <path d="M124.4 40h.1c0-1-.3-1.9-.8-2.4-.5-.6-1.3-.9-2.4-.9H120v6.6h1.2c1.1 0 2-.3 2.5-.9.6-.5.9-1.4.9-2.4h-.3c0 1-.2 1.7-.7 2.2-.5.5-1.3.8-2.4.8h-1v-6h1.2c1 0 1.7.3 2.2.7.5.5.7 1.3.7 2.3h.2Zm1 0h-.1c0 1.2-.4 2.2-1 2.9-.7.6-1.7 1-3 1h-2.1v-7.7h2.3c1.2 0 2.1.3 2.8 1 .7.6 1 1.5 1 2.7h.3a4 4 0 0 0-1.1-3 4 4 0 0 0-3-1h-2.6V44h2.4c1.3 0 2.4-.3 3.1-1 .8-.8 1.1-1.8 1.1-3.2Zm4.2 4h-2.8v-.6l1-.2v-6.4l-1-.2V36h2.9v.6l-1 .2v6.4l1 .2v.6Z" fill="#fff"/>
  <path d="M129.7 44v-.1h-2.8v-.4l.8-.2h.1v-6.6l-.9-.2v-.3h2.6v.3l-1 .2v6.6l1 .2v.5h.3v-.7l-1-.2v-6.2l1-.2V36h-3.2v.8l1 .2v6.2l-.9.2v.8h3V44Zm8 0h-1.1l-4.3-6.6V44h-.9v-8h1.2l.2.4 2.6 4 1.4 2.2V36h1v8Z" fill="#fff"/>
  <path d="M137.7 44v-.1h-1l-4.3-6.7h-.3v.6l.1 1.7V44h-.6v-7.7h1l.1.3 2.6 4 1.5 2.3h.2v-.2a28.9 28.9 0 0 1 0-2v-4.4h.6V44h.3v-8.1h-1.2v6.8h.2v-.2.1l-1.3-2.2-2.7-4-.2-.4v-.1h-1.4V44h1.2v-6.3l-.1-.4h-.1v.1-.1h-.1l4.3 6.7h1.4-.2Z" fill="#fff"/>
</svg>
