<svg width="270" height="80" fill="none" xmlns="http://www.w3.org/2000/svg">
  <g clip-path="url(#a)">
    <mask id="b" style="mask-type:luminance" maskUnits="userSpaceOnUse" x="-21" y="-20" width="311" height="121">
      <path d="M-20-20h310v120H-20V-20Z" fill="#fff"/>
    </mask>
    <g mask="url(#b)">
      <path d="M260 80H10A10 10 0 0 1 0 70V10A10 10 0 0 1 10 0h250a10 10 0 0 1 10 10v60a10 10 0 0 1-10 10Z" fill="#000"/>
    </g>
    <mask id="c" style="mask-type:luminance" maskUnits="userSpaceOnUse" x="-21" y="-20" width="311" height="121">
      <path d="M-20-20h310v120H-20V-20Z" fill="#fff"/>
    </mask>
    <g mask="url(#c)">
      <path d="M213.9 60h3.7V35h-3.7v25Zm33.6-16-4.3 10.8h-.1L238.6 44h-4l6.7 15.2-3.8 8.4h3.9L251.6 44h-4.1Zm-21.2 13.2c-1.2 0-3-.6-3-2.2 0-1.9 2.2-2.6 4-2.6 1.7 0 2.5.3 3.5.8-.3 2.3-2.3 4-4.5 4Zm.5-13.7c-2.7 0-5.5 1.1-6.7 3.8l3.3 1.4c.7-1.4 2-1.9 3.4-1.9 2 0 4 1.2 4 3.3v.2c-.7-.4-2.2-1-4-1-3.5 0-7.1 2-7.1 5.7 0 3.3 2.9 5.5 6.2 5.5 2.5 0 3.9-1.2 4.7-2.5h.2v2h3.6v-9.6c0-4.5-3.3-7-7.6-7Zm-23 3.5h-5.4v-8.5h5.3c2.8 0 4.4 2.3 4.4 4.3 0 1.9-1.6 4.2-4.4 4.2Zm-.2-12h-9v25h3.8v-9.5h5.2c4.1 0 8.2-3 8.2-7.7 0-4.8-4-7.8-8.2-7.8Zm-48.8 22.2c-2.5 0-4.7-2.2-4.7-5.2s2.2-5.1 4.8-5.1c2.5 0 4.5 2.1 4.5 5.1 0 3-2 5.2-4.6 5.2Zm4.3-11.8c-1-1-2.5-1.9-4.6-1.9a8.5 8.5 0 0 0-8.1 8.5c0 4.8 3.9 8.5 8.1 8.5 2 0 3.7-.9 4.5-2h.1v1.3c0 3.3-1.7 5-4.5 5a4.7 4.7 0 0 1-4.3-3l-3.2 1.3a8 8 0 0 0 7.5 5c4.4 0 8-2.5 8-8.8V44h-3.5v1.4Zm6.2 14.6h3.7V35h-3.7v25Zm9.2-8.2c0-3.3 2.6-5 4.4-5 1.5 0 2.8.7 3.2 1.8l-7.6 3.2Zm11.6-2.9c-.7-1.9-2.9-5.4-7.3-5.4s-8 3.5-8 8.5c0 4.8 3.6 8.5 8.4 8.5 4 0 6.2-2.4 7.1-3.8l-2.9-1.9a4.9 4.9 0 0 1-4.2 2.4c-1.9 0-3.2-1-4-2.6l11.3-4.7-.4-1Zm-90.6-2.8v3.6h8.6c-.2 2-1 3.5-2 4.6a8.8 8.8 0 0 1-6.6 2.6 9.5 9.5 0 0 1-9.5-9.6 9.5 9.5 0 0 1 16-7l2.5-2.6A13.4 13.4 0 0 0 82 47.3c0 7.3 6.1 13.2 13.4 13.2 4 0 6.9-1.3 9.2-3.7a12 12 0 0 0 3.1-8.4c0-.9 0-1.6-.2-2.3h-12Zm22.1 11c-2.5 0-4.8-2-4.8-5 0-3.2 2.3-5.2 4.8-5.2 2.6 0 4.8 2 4.8 5.1 0 3-2.2 5.2-4.8 5.2Zm0-13.6a8.4 8.4 0 0 0-8.5 8.5c0 5 3.8 8.5 8.5 8.5 4.8 0 8.6-3.6 8.6-8.5 0-5-3.9-8.5-8.6-8.5Zm18.7 13.7c-2.6 0-4.8-2.2-4.8-5.2s2.2-5.1 4.8-5.1c2.5 0 4.8 2 4.8 5.1 0 3-2.3 5.2-4.8 5.2Zm0-13.7a8.4 8.4 0 0 0-8.6 8.5c0 5 3.9 8.5 8.6 8.5 4.7 0 8.5-3.6 8.5-8.5 0-5-3.8-8.5-8.5-8.5Z" fill="#fff"/>
    </g>
    <mask id="d" style="mask-type:luminance" maskUnits="userSpaceOnUse" x="-21" y="-20" width="311" height="121">
      <path d="M-20-20h310v120H-20V-20Z" fill="#fff"/>
    </mask>
    <g mask="url(#d)">
      <path d="M41.4 38.8 20.1 61.4a5.7 5.7 0 0 0 8.5 3.5l24-13.8-11.2-12.3Z" fill="#EA4335"/>
    </g>
    <mask id="e" style="mask-type:luminance" maskUnits="userSpaceOnUse" x="-21" y="-20" width="311" height="121">
      <path d="M-20-20h310v120H-20V-20Z" fill="#fff"/>
    </mask>
    <g mask="url(#e)">
      <path d="m63 35-10.4-6L41 39.4 52.7 51l10.2-6a5.8 5.8 0 0 0 .1-10Z" fill="#FBBC04"/>
    </g>
    <mask id="f" style="mask-type:luminance" maskUnits="userSpaceOnUse" x="-21" y="-20" width="311" height="121">
      <path d="M-20-20h310v120H-20V-20Z" fill="#fff"/>
    </mask>
    <g mask="url(#f)">
      <path d="M20.1 18.6 20 20v40l.2 1.4 22-22-22-20.8Z" fill="#4285F4"/>
    </g>
    <mask id="g" style="mask-type:luminance" maskUnits="userSpaceOnUse" x="-21" y="-20" width="311" height="121">
      <path d="M-20-20h310v120H-20V-20Z" fill="#fff"/>
    </mask>
    <g mask="url(#g)">
      <path d="m41.6 40 11-11-24-13.9a5.8 5.8 0 0 0-8.5 3.4L41.6 40Z" fill="#34A853"/>
    </g>
    <path d="M82.5 24.3V12h4.6c.9 0 1.6.1 2.2.4.6.2 1 .6 1.3 1.1.3.5.5 1 .5 1.6 0 .5-.1 1-.4 1.5a3 3 0 0 1-1.3 1.1c.7.2 1.3.6 1.7 1.1.4.5.6 1.1.6 1.9a3.6 3.6 0 0 1-1.3 2.7l-1.3.6-2 .2h-4.6Zm1.6-7h2.6l1.6-.2.9-.6c.2-.3.3-.7.3-1 0-.5-.1-.8-.3-1.1-.2-.4-.5-.6-.8-.7l-1.8-.2H84v3.7Zm0 5.5h4.1c.4 0 .7-.2 1-.4l.6-.6.2-1a2 2 0 0 0-.3-1.2c-.3-.4-.6-.6-1-.7-.4-.2-1-.3-1.8-.3h-2.8v4.2Zm17.3-10.7h1.6v7c0 1.3-.1 2.2-.4 3-.3.7-.8 1.2-1.5 1.7s-1.7.7-2.8.7c-1.2 0-2.1-.2-2.8-.6-.7-.4-1.2-1-1.6-1.7a8 8 0 0 1-.4-3V12H95v7c0 1 0 1.9.3 2.4.2.5.5.8 1 1.1.5.3 1 .4 1.7.4 1.2 0 2-.2 2.6-.8.5-.5.7-1.5.7-3V12Zm3.9 12.2V12h5.4c1 0 1.9.1 2.4.3.6.3 1 .6 1.4 1.2.3.6.5 1.2.5 1.8a3 3 0 0 1-.8 2.2c-.6.6-1.5 1-2.6 1.1l1 .6c.4.5.9 1 1.3 1.7l2.1 3.3h-2l-1.6-2.6-1.2-1.6-.8-.8-.7-.4h-2.8v5.4h-1.6Zm1.6-6.8h3.5l1.7-.2a2 2 0 0 0 1.3-1.9c0-.5-.3-1-.7-1.4-.4-.4-1-.6-2-.6H107v4Zm8.8 6.8 4.7-12.2h1.7l5 12.2h-1.8l-1.4-3.7h-5.1l-1.3 3.7h-1.8Zm3.6-5h4l-1.2-3.4-.8-2.5-.7 2.3-1.3 3.6Zm8.7 5V12h4.2c.9 0 1.6 0 2.1.2.7.1 1.3.4 1.8.9.6.5 1.1 1.2 1.4 2 .4.9.5 1.8.5 3 0 .9-.1 1.7-.3 2.4a4 4 0 0 1-.9 1.7 4.1 4.1 0 0 1-2.5 1.8 8 8 0 0 1-2 .2H128Zm1.6-1.5h2.6c.8 0 1.4 0 1.9-.2.4-.1.8-.3 1-.6.4-.4.7-1 1-1.6.1-.6.3-1.4.3-2.3a6 6 0 0 0-.7-3c-.4-.6-.9-1-1.5-1.3a6 6 0 0 0-2-.3h-2.6v9.3Zm8.8 1.5 4.7-12.2h1.7l5 12.2H148l-1.4-3.7h-5.1l-1.4 3.7h-1.7Zm3.6-5h4l-1.2-3.4-.9-2.5c-.1.8-.3 1.5-.6 2.3l-1.3 3.6Zm22.7-1.2c0 1.8-.4 3.3-1.3 4.5-1 1.3-2.4 1.9-4.3 1.9-2 0-3.3-.6-4.3-1.9a7.4 7.4 0 0 1-1.3-4.5v-.8h9.5a5 5 0 0 0-1.1-2.9 3.7 3.7 0 0 0-2.8-1.1c-1.8 0-2.9.9-3.4 2.6l-1.5-.5c.3-1.1.9-2 1.8-2.6.8-.6 1.9-1 3-1a5 5 0 0 1 3 1 4 4 0 0 1 2 2.2c.5.9.7 1.9.7 3Zm-1.7.6h-7.8c0 1.4.4 2.5 1 3.2.8.8 1.7 1.2 2.9 1.2s2-.4 2.8-1.2a5 5 0 0 0 1.1-3.2Zm3.2 5.6V12h1.7v10.7h6v1.5h-7.7Zm9.1 0V12h4.2c1 0 1.7 0 2.2.2.7.1 1.3.4 1.7.9.7.5 1.2 1.2 1.5 2a8.6 8.6 0 0 1 .1 5.4c-.2.7-.5 1.3-.8 1.7a4.1 4.1 0 0 1-2.6 1.8 8 8 0 0 1-2 .2h-4.3Zm1.6-1.5h2.6c.8 0 1.4 0 1.9-.2.4-.1.8-.3 1.1-.6.4-.4.7-1 .9-1.6.2-.6.3-1.4.3-2.3 0-1.3-.2-2.3-.6-3a3 3 0 0 0-1.6-1.3 6 6 0 0 0-2-.3h-2.6v9.3Zm21-4.7c0 1.8-.5 3.3-1.4 4.5-1 1.3-2.4 1.9-4.3 1.9s-3.3-.6-4.3-1.9a7.4 7.4 0 0 1-1.3-4.5v-.8h9.5c0-1.2-.4-2.2-1-2.9a3.7 3.7 0 0 0-2.9-1.1c-1.7 0-2.9.9-3.3 2.6l-1.6-.5a5 5 0 0 1 1.8-2.6 5.6 5.6 0 0 1 6 0 4 4 0 0 1 2 2.2c.5.9.7 1.9.7 3Zm-1.7.6h-8c.1 1.4.5 2.5 1.2 3.2.7.8 1.7 1.2 2.8 1.2 1.2 0 2.1-.4 2.8-1.2a5 5 0 0 0 1.2-3.2Zm7.5 5.6V12h8.8v1.4h-7.1v3.8h6.7v1.4h-6.7v4.1h7.4v1.5h-9Zm10.9 0V12h4.2c1 0 1.6 0 2.1.2.7.1 1.3.4 1.8.9a5 5 0 0 1 1.5 2c.3.9.4 1.8.4 3 0 .9 0 1.7-.3 2.4-.2.7-.5 1.3-.8 1.7a4.1 4.1 0 0 1-2.6 1.8 8 8 0 0 1-2 .2h-4.3Zm1.6-1.5h2.6c.8 0 1.4 0 1.9-.2.4-.1.8-.3 1-.6.5-.4.7-1 1-1.6.2-.6.3-1.4.3-2.3 0-1.3-.2-2.3-.7-3a3 3 0 0 0-1.5-1.3 6 6 0 0 0-2-.3h-2.6v9.3Zm10.5 1.5V12h1.6v12.2h-1.6Zm-.1-13V9.6h1.8v1.9h-1.8Zm4 13V12h1.7l6.4 9.5V12h1.5v12.2h-1.6l-6.4-9.6v9.6h-1.6Zm12.1-7.1v-1.7h1.7v1.7h-1.7Zm0 7v-1.6h1.7v1.7h-1.7Z" fill="#fff"/>
  </g>
  <defs>
    <clipPath id="a">
      <path fill="#fff" transform="matrix(1 0 0 -1 0 80)" d="M0 0h270v80H0z"/>
    </clipPath>
  </defs>
</svg>
