<svg width="270" height="80" fill="none" xmlns="http://www.w3.org/2000/svg">
  <g clip-path="url(#a)">
    <mask id="b" style="mask-type:luminance" maskUnits="userSpaceOnUse" x="-21" y="-20" width="311" height="121">
      <path d="M-20-20h310v120H-20V-20Z" fill="#fff"/>
    </mask>
    <g mask="url(#b)">
      <path d="M260 80H10A10 10 0 0 1 0 70V10A10 10 0 0 1 10 0h250a10 10 0 0 1 10 10v60a10 10 0 0 1-10 10Z" fill="#000"/>
    </g>
    <mask id="c" style="mask-type:luminance" maskUnits="userSpaceOnUse" x="-21" y="-20" width="311" height="121">
      <path d="M-20-20h310v120H-20V-20Z" fill="#fff"/>
    </mask>
    <g mask="url(#c)">
      <path d="M213.9 60h3.7V35h-3.7v25Zm33.6-16-4.3 10.8h-.1L238.6 44h-4l6.7 15.2-3.8 8.4h3.9L251.6 44h-4.1Zm-21.2 13.2c-1.2 0-3-.6-3-2.2 0-1.9 2.2-2.6 4-2.6 1.7 0 2.5.3 3.5.8-.3 2.3-2.3 4-4.5 4Zm.5-13.7c-2.7 0-5.5 1.1-6.7 3.8l3.3 1.4c.7-1.4 2-1.9 3.4-1.9 2 0 4 1.2 4 3.3v.2c-.7-.4-2.2-1-4-1-3.5 0-7.1 2-7.1 5.7 0 3.3 2.9 5.5 6.2 5.5 2.5 0 3.9-1.2 4.7-2.5h.2v2h3.6v-9.6c0-4.5-3.3-7-7.6-7Zm-23 3.5h-5.4v-8.5h5.3c2.8 0 4.4 2.3 4.4 4.3 0 1.9-1.6 4.2-4.4 4.2Zm-.2-12h-9v25h3.8v-9.5h5.2c4.1 0 8.2-3 8.2-7.7 0-4.8-4-7.8-8.2-7.8Zm-48.8 22.2c-2.5 0-4.7-2.2-4.7-5.2s2.2-5.1 4.8-5.1c2.5 0 4.5 2.1 4.5 5.1 0 3-2 5.2-4.6 5.2Zm4.3-11.8c-1-1-2.5-1.9-4.6-1.9a8.5 8.5 0 0 0-8.1 8.5c0 4.8 3.9 8.5 8.1 8.5 2 0 3.7-.9 4.5-2h.1v1.3c0 3.3-1.7 5-4.5 5a4.7 4.7 0 0 1-4.3-3l-3.2 1.3a8 8 0 0 0 7.5 5c4.4 0 8-2.5 8-8.8V44h-3.5v1.4Zm6.2 14.6h3.7V35h-3.7v25Zm9.2-8.2c0-3.3 2.6-5 4.4-5 1.5 0 2.8.7 3.2 1.8l-7.6 3.2Zm11.6-2.9c-.7-1.9-2.9-5.4-7.3-5.4s-8 3.5-8 8.5c0 4.8 3.6 8.5 8.4 8.5 4 0 6.2-2.4 7.1-3.8l-2.9-1.9a4.9 4.9 0 0 1-4.2 2.4c-1.9 0-3.2-1-4-2.6l11.3-4.7-.4-1Zm-90.6-2.8v3.6h8.6c-.2 2-1 3.5-2 4.6a8.8 8.8 0 0 1-6.6 2.6 9.5 9.5 0 0 1-9.5-9.6 9.5 9.5 0 0 1 16-7l2.5-2.6A13.4 13.4 0 0 0 82 47.3c0 7.3 6.1 13.2 13.4 13.2 4 0 6.9-1.3 9.2-3.7a12 12 0 0 0 3.1-8.4c0-.9 0-1.6-.2-2.3h-12Zm22.1 11c-2.5 0-4.8-2-4.8-5 0-3.2 2.3-5.2 4.8-5.2 2.6 0 4.8 2 4.8 5.1 0 3-2.2 5.2-4.8 5.2Zm0-13.6a8.4 8.4 0 0 0-8.5 8.5c0 5 3.8 8.5 8.5 8.5 4.8 0 8.6-3.6 8.6-8.5 0-5-3.9-8.5-8.6-8.5Zm18.7 13.7c-2.6 0-4.8-2.2-4.8-5.2s2.2-5.1 4.8-5.1c2.5 0 4.8 2 4.8 5.1 0 3-2.3 5.2-4.8 5.2Zm0-13.7a8.4 8.4 0 0 0-8.6 8.5c0 5 3.9 8.5 8.6 8.5 4.7 0 8.5-3.6 8.5-8.5 0-5-3.8-8.5-8.5-8.5Z" fill="#fff"/>
    </g>
    <mask id="d" style="mask-type:luminance" maskUnits="userSpaceOnUse" x="-21" y="-20" width="311" height="121">
      <path d="M-20-20h310v120H-20V-20Z" fill="#fff"/>
    </mask>
    <g mask="url(#d)">
      <path d="M41.4 38.8 20.1 61.4a5.7 5.7 0 0 0 8.5 3.5l24-13.8-11.2-12.3Z" fill="#EA4335"/>
    </g>
    <mask id="e" style="mask-type:luminance" maskUnits="userSpaceOnUse" x="-21" y="-20" width="311" height="121">
      <path d="M-20-20h310v120H-20V-20Z" fill="#fff"/>
    </mask>
    <g mask="url(#e)">
      <path d="m63 35-10.4-6L41 39.4 52.7 51l10.2-6a5.8 5.8 0 0 0 .1-10Z" fill="#FBBC04"/>
    </g>
    <mask id="f" style="mask-type:luminance" maskUnits="userSpaceOnUse" x="-21" y="-20" width="311" height="121">
      <path d="M-20-20h310v120H-20V-20Z" fill="#fff"/>
    </mask>
    <g mask="url(#f)">
      <path d="M20.1 18.6 20 20v40l.2 1.4 22-22-22-20.8Z" fill="#4285F4"/>
    </g>
    <mask id="g" style="mask-type:luminance" maskUnits="userSpaceOnUse" x="-21" y="-20" width="311" height="121">
      <path d="M-20-20h310v120H-20V-20Z" fill="#fff"/>
    </mask>
    <g mask="url(#g)">
      <path d="m41.6 40 11-11-24-13.9a5.8 5.8 0 0 0-8.5 3.4L41.6 40Z" fill="#34A853"/>
    </g>
    <path d="M88.6 17.6a2.9 2.9 0 0 1 1.7.5l.5.6.1 1v6.7h-1.2l-.4-.7c-.1-.1-.3-.3-.5-.3a2 2 0 0 0-.7-.2h-1l-.8.2a9.7 9.7 0 0 1-2.2 0l-1-.4a2 2 0 0 1-.8-1 3 3 0 0 1-.3-1.5v-.7l.2-.7 1.2.2a4.4 4.4 0 0 0 0 2.1l.5.6.7.2h2l1.2-.2c.4 0 .8 0 1 .2.3.1.6.3.8.6v-5.5l-.3-.4-.7-.1a2 2 0 0 0-.9.2 2.8 2.8 0 0 0-1.3 1.2l-.1.6v.3s.1.2.3.2l.5.1h.5l.1 1.1a2.5 2.5 0 0 1-1 .1 2 2 0 0 1-1.2-.4c-.4-.3-.5-.7-.5-1.3 0-.4 0-.7.2-1.1.2-.4.5-.8.9-1.1l1.1-.8 1.4-.3Zm13 0v1.2h-1.4v7.6H99a10.7 10.7 0 0 0-2-2c-.4-.3-.9-.6-1.4-.7l-1.6-.5-.4-1.4.7.4c1 .2 1.6.4 2.2.7.6.2 1.1.6 1.5.9l1 1v-8.1h1l.3 1h1.5ZM98 19.9c0 .6-.2 1-.5 1.4-.2.4-.6.7-1.1 1l-1.8.4-.8-.1-.3-.7c.7 0 1.3-.2 1.8-.4.5-.1.8-.3 1-.6.3-.2.4-.5.4-.9 0-.3 0-.5-.2-.7l-.6-.7 1-.9.8 1 .3 1.2Zm-3.9.6a2 2 0 0 1-1.3-.5c-.4-.2-.6-.7-.6-1.2a2.4 2.4 0 0 1 .3-1.1l1.3.3-.2.3v.4l.1.5.5.1h.6l.6-.5.6-.9 1-.2v.7l-.7 1c-.3.4-.6.6-1 .8-.3.2-.7.3-1.2.3Zm11-2.7v1.1h-1.3v7.6h-1.3V20a2 2 0 0 0-.5-.8c-.2-.2-.5-.3-.9-.3v-1.1h.2c.2 0 .4 0 .6.2.3.1.5.3.6.6v-1.7h1l.3.9h1.4Zm8.3 0v1.1H112v7.6h-1.3V23l.2.8a7 7 0 0 0-2-2l-1.1-.2c-.3 0-.6 0-.8.2a1 1 0 0 0-.3.7c0 .3 0 .5.2.7l.9.5-.6 1.1c-.6-.2-1-.5-1.4-1-.4-.4-.5-.8-.5-1.3s0-.9.3-1.2c.2-.3.5-.5.9-.7l1-.2c.5 0 1 0 1.3.2l1.2.7 1 1h-.2l-.1-.6v-3h-6.1v-1.1h8.8Zm8 0v1.1h-.4a3.6 3.6 0 0 0-1.8 1.3 4 4 0 0 0-.7 4.1c.2.4.4.7.7.8.3.2.6.2.9.2a2 2 0 0 0 1-.3l.6 1a2.6 2.6 0 0 1-1.7.5 3 3 0 0 1-1.6-.4c-.5-.3-.9-.7-1.1-1.3-.3-.6-.4-1.2-.4-2l.3-1.8a5.4 5.4 0 0 1 2-2.5 6 6 0 0 1 1.3-.7h1Zm9 0v1.1H129v7.6h-1.3a8.6 8.6 0 0 0-3-2.5c-.6-.3-1.3-.6-2-.7l-.4-1.4.7.4a9 9 0 0 1 2.1.7 6.7 6.7 0 0 1 2.6 2v-8.2h1l.3 1h1.4Zm-6.4 0c.6 0 1.1 0 1.5.3.4.2.7.4 1 .8l.2 1.1c0 .8-.3 1.4-.9 1.9-.6.4-1.4.7-2.4.8l-.8-.1-.3-.7a4 4 0 0 0 1.8-.4 2 2 0 0 0 1-.6l.3-.9a1 1 0 0 0-.4-.8c-.2-.2-.6-.3-1-.3-.5 0-.8 0-1 .2l-.2.5.1.4.3.3-.7 1-.5-.5-.4-.5-.1-.7c0-.4 0-.7.3-1 .2-.2.4-.5.8-.6.4-.2.8-.3 1.4-.3Zm11.1 0v1.1h-.4a3.6 3.6 0 0 0-1.8 1.3 4 4 0 0 0-.7 4.1c.2.4.4.7.7.8.3.2.6.2.9.2a2 2 0 0 0 1-.3l.6 1a2.6 2.6 0 0 1-1.7.5 3 3 0 0 1-1.6-.4c-.5-.3-.9-.7-1.1-1.3-.3-.6-.4-1.2-.4-2a4.7 4.7 0 0 1 3.1-4.5l-.9.6h-3v-1.1h5.3Zm11.2 0v1.1h-4.6v7.5h-1.3a6.2 6.2 0 0 0-2.8-2.7 6 6 0 0 0-2-.6l-.5-1.4a25.2 25.2 0 0 1 5.7-2.5l-.3.6v-1h-6v-1.1h11.8Zm-5.9 2.4.4.4a16.7 16.7 0 0 0-2.8 1l-1.3.7 1.5.6c.5.2 1 .5 1.4.9.5.4.8.8 1 1.3l-.1-.6v-4.3Zm5.2 2.4c0 .3 0 .6-.2.8-.1.3-.3.5-.6.7-.3.2-.7.3-1.2.3h-.9V23h.6c.4 0 .7 0 .8-.2l.2-.6c0-.5-.3-.8-.7-1.2-.5-.3-1.1-.5-2-.6v-1.2c.7 0 1.4.3 2 .5.6.3 1 .7 1.4 1.1.4.5.6 1 .6 1.6Zm13.7-4.8v1.1h-5v2.9l.5.1.4-.1.6-.5.7-.9 1-.1c.3.4.6.9.7 1.3l.3 1.4c0 .6-.2 1.2-.4 1.6-.3.5-.7.9-1.2 1.1a4 4 0 0 1-1.9.4c-.6 0-1.2 0-1.7-.2-.6-.2-1-.6-1.5-1-.5-.5-1-1.1-1.3-1.9-.4-.8-.7-1.7-1-2.9l1.2-.3c.4 1.2.7 2.2 1.1 3 .4.7.9 1.3 1.4 1.6.5.4 1 .5 1.7.5s1.3-.1 1.7-.5c.4-.3.6-.8.6-1.4a2.6 2.6 0 0 0-.6-1.7l.8-.2-.9 1.1c-.3.3-.6.6-.9.7a2.3 2.3 0 0 1-1.6.1c-.2 0-.4-.2-.5-.3-.2-.1-.3-.3-.4-.6l-.1-1.2v-2h-4v-1.1h10.3Zm3.6 0v1.1h-1.5v7.6h-1.3V20a2 2 0 0 0-.5-.8c-.2-.2-.5-.3-.8-.3v-1.1h.1c.3 0 .5 0 .7.2l.6.6v-1.7h1l.2.9h1.5Zm6.6 0c0-.4-.1-.6-.3-.8l-.8-.2h-2c-.6 0-1 0-1.4-.2-.4 0-.7-.2-1-.4l-.5-.7a2.7 2.7 0 0 1-.1-1.4v-.4h1.3v1.1c0 .2 0 .3.2.4.1.2.3.2.5.3l1 .1h1.8l1.2.1.8.4.4.7.1 1h-1.2Zm3.1 0v1.1h-5v2.9l.4.1.5-.1.6-.5.6-.9 1.1-.1.7 1.3.3 1.4c0 .6-.2 1.2-.4 1.6-.3.5-.7.9-1.2 1.1a4 4 0 0 1-2 .4c-.5 0-1.1 0-1.6-.2-.6-.2-1.1-.6-1.6-1-.4-.5-.9-1.1-1.2-1.9-.4-.8-.8-1.7-1-2.9l1.2-.3a15 15 0 0 0 1 3c.5.7 1 1.3 1.5 1.6.5.4 1 .5 1.7.5s1.3-.1 1.7-.5c.4-.3.6-.8.6-1.4a2.6 2.6 0 0 0-.7-1.7l.9-.2a7 7 0 0 1-1 1.1c-.2.3-.5.6-.8.7a2.3 2.3 0 0 1-1.6.1c-.2 0-.4-.2-.5-.3-.2-.1-.3-.3-.4-.6l-.2-1.2v-2h-4v-1.1h10.4Zm8.2 0v1.1h-1.4v7.6h-1.3V23l.2.8a7 7 0 0 0-2-2l-1.1-.2c-.3 0-.6 0-.8.2a1 1 0 0 0-.3.7c0 .3 0 .5.2.7l.9.5-.6 1.1c-.6-.2-1-.5-1.4-1-.4-.4-.5-.8-.5-1.3s0-.9.3-1.2c.2-.3.5-.5.9-.7l1-.2c.5 0 1 0 1.3.2l1.2.7 1 1h-.2l-.1-.6v-3H172v-1.1h8.8Zm4.8 0v1.1h-.5a3.6 3.6 0 0 0-1.8 1.3 4 4 0 0 0-.7 4.1c.2.4.5.7.7.8.3.2.6.2.9.2a2 2 0 0 0 1.1-.3l.6 1a2.6 2.6 0 0 1-1.8.5 3 3 0 0 1-1.6-.4c-.5-.3-.8-.7-1.1-1.3-.3-.6-.4-1.2-.4-2a4.7 4.7 0 0 1 3.1-4.5l-.9.6h-3v-1.1h5.4Zm10 0v1.1h-1.4v7.6h-1.3v-4.6l.2.4c-.2-.2-.4-.5-.7-.6a1.1 1.1 0 0 0-1-.2l-.4.2-.2.6v.5l-1 .1a2 2 0 0 0-.3-1 1.6 1.6 0 0 0-1.4-.7c-.2 0-.4 0-.6.2a1 1 0 0 0-.4.3v.5c0 .4 0 .7.3 1l1.1.5-.4 1.2c-.5-.1-.9-.3-1.3-.6a2.5 2.5 0 0 1-1.2-2.2c0-.4.1-.8.3-1a2 2 0 0 1 1-.8 2 2 0 0 1 1-.3c.6 0 1 .1 1.4.3l1 .9h-.2c.1-.4.3-.6.6-.8l.8-.2c.3 0 .6 0 .8.2l.8.5-.2.3V19h-8v-1.2h10.7Zm3.5 0v1.1h-1.4v7.6h-1.3V20a2 2 0 0 0-.5-.8c-.2-.2-.5-.3-.8-.3h-.1v-1.1h.2c.2 0 .5 0 .7.2l.6.6v-1.7h1l.2.9h1.4Zm9.8 0v1.1h-5v2.9l.4.1.5-.1.6-.5.6-.9 1.1-.1.7 1.3c.2.5.2 1 .2 1.4 0 .6 0 1.2-.4 1.6a2 2 0 0 1-1.1 1.1 4 4 0 0 1-2 .4c-.5 0-1.1 0-1.7-.2-.5-.2-1-.6-1.5-1-.4-.5-.9-1.1-1.3-1.9-.3-.8-.7-1.7-1-2.9l1.3-.3 1 3a8 8 0 0 0 1.4 1.6c.6.4 1.1.5 1.8.5s1.3-.1 1.6-.5c.4-.3.7-.8.7-1.4a2.6 2.6 0 0 0-.7-1.7l.9-.2-1 1.1c-.2.3-.5.6-.8.7a2.3 2.3 0 0 1-1.7.1l-.5-.3-.3-.6-.2-1.2v-2h-4v-1.1H209Zm14.5 0v1.1h-4.6v7.5h-1.3a6.2 6.2 0 0 0-2.8-2.7 6 6 0 0 0-2-.6l-.6-1.4a25.1 25.1 0 0 1 5.7-2.5l-.3.6v-1h-6v-1.1h11.9Zm-6 2.4.4.4a16.7 16.7 0 0 0-2.8 1l-1.3.7 1.5.6c.6.2 1 .5 1.5.9.4.4.8.8 1 1.3h-.1v-.6l-.1-.7V20Zm5.2 2.4c0 .3 0 .6-.2.8 0 .3-.3.5-.6.7-.3.2-.7.3-1.2.3h-.8V23h.5c.4 0 .7 0 .8-.2l.2-.6c0-.5-.2-.8-.7-1.2-.4-.3-1.1-.5-2-.6v-1.2c.8 0 1.4.3 2 .5.6.3 1.1.7 1.5 1.1.3.5.5 1 .5 1.6Zm11.8-4.8v1.1H230v7.6h-1.3c-.3-.6-.7-1-1.2-1.5-.4-.5-1-.8-1.6-1.1-.6-.3-1.3-.6-2-.7l-.6-1.4a26.2 26.2 0 0 1 5.7-2.5l-.3.5v-.9h-6v-1.1h11.7Zm-5.7 2.3.3.4a24.6 24.6 0 0 0-4.1 1.8l1.5.5 1.5 1c.4.4.8.8 1 1.3l-.1-.6V20Zm3.2 4.2c-.3 0-.7 0-1-.2l-.9-.7-.7-1.3.7-1 .4 1.2.6.7.7.2c.2 0 .4 0 .6-.2.2-.1.2-.3.2-.6l-.1-.5a1 1 0 0 0-.4-.4l-.7-.3.3-1.2 1.1.5a2.2 2.2 0 0 1 1.1 1.9c0 .6-.2 1-.5 1.4a2 2 0 0 1-1.4.5Zm-6.5 2.3a1 1 0 0 1-.6-.2.9.9 0 0 1-.3-.7.9.9 0 0 1 .9-1 .9.9 0 0 1 .9 1c0 .3-.1.5-.3.7a1 1 0 0 1-.6.2Zm17.3-8.8v1.1h-1.5v7.6H240V23l.3.8a7 7 0 0 0-2.1-2l-1-.2c-.4 0-.7 0-1 .2l-.2.7c0 .3 0 .5.2.7l1 .5-.7 1.1c-.6-.2-1-.5-1.4-1-.3-.4-.5-.8-.5-1.3s.1-.9.3-1.2l.9-.7 1-.2c.6 0 1 0 1.4.2l1 .7c.5.2.8.6 1.1 1h-.2v-3.5h-6.2v-1.1h8.9Zm1.6 3a1 1 0 0 1-.7-.3c-.2-.1-.3-.4-.3-.7 0-.4.1-.7.3-.8.2-.2.4-.3.7-.3.3 0 .5.1.7.3.2.1.2.4.2.8 0 .3 0 .6-.2.7a1 1 0 0 1-.7.3Zm0 5.9a1 1 0 0 1-.7-.3c-.2-.1-.3-.4-.3-.7 0-.4.1-.7.3-.8.2-.2.4-.3.7-.3.3 0 .5.1.7.3.2.1.2.4.2.8 0 .3 0 .6-.2.7a1 1 0 0 1-.7.3Z" fill="#fff"/>
  </g>
  <defs>
    <clipPath id="a">
      <path fill="#fff" transform="matrix(1 0 0 -1 0 80)" d="M0 0h270v80H0z"/>
    </clipPath>
  </defs>
</svg>
