<svg width="180" height="54" fill="none" xmlns="http://www.w3.org/2000/svg">
  <path d="M173.3 54H6.7A6.7 6.7 0 0 1 0 47.2V6.8C0 3 3 0 6.7 0h166.6a6.7 6.7 0 0 1 6.7 6.8v40.5c0 3.7-3 6.7-6.7 6.7Z" fill="#000"/>
  <path d="M27.6 26.2 13.4 41.5a3.8 3.8 0 0 0 5.7 2.3l16-9.3-7.5-8.3Z" fill="#EA4335"/>
  <path d="m42 23.6-7-4-7.7 7 7.8 7.9 6.9-4a3.9 3.9 0 0 0 2-3.5 4 4 0 0 0-2-3.4Z" fill="#FBBC04"/>
  <path d="M13.4 12.5a3.7 3.7 0 0 0-.1 1v27l.1 1 14.7-14.9-14.7-14Z" fill="#4285F4"/>
  <path d="m27.7 27 7.4-7.4-16-9.4a3.9 3.9 0 0 0-5.7 2.3L27.7 27Z" fill="#34A853"/>
  <path d="M142.6 40h2.5V23.3h-2.5V40ZM165 29.3l-2.9 7.3-3-7.3h-2.7l4.5 10.1-2.6 5.7h2.6l6.9-15.8H165Zm-14.1 8.8c-.8 0-2-.4-2-1.4 0-1.3 1.4-1.8 2.7-1.8 1 0 1.6.2 2.2.6a3 3 0 0 1-3 2.6Zm.3-9.1c-1.8 0-3.7.8-4.4 2.5l2.2 1c.4-1 1.3-1.3 2.2-1.3 1.3 0 2.6.8 2.7 2.2v.1a5.5 5.5 0 0 0-2.6-.6c-2.4 0-4.8 1.3-4.8 3.8 0 2.2 1.9 3.6 4 3.6a3.5 3.5 0 0 0 3.3-1.6V40h2.5v-6.4c0-3-2.2-4.6-5.1-4.6Zm-15.4 2.4h-3.5v-5.8h3.5a2.9 2.9 0 0 1 3 3 2.9 2.9 0 0 1-3 2.8Zm0-8h-6V40h2.5v-6.3h3.5c2.7 0 5.4-2 5.4-5.2s-2.7-5.2-5.4-5.2ZM103.3 38c-1.8 0-3.2-1.4-3.2-3.4s1.4-3.5 3.1-3.5c1.7 0 3 1.5 3 3.5s-1.3 3.4-3 3.4Zm2.8-7.8h-.1a4 4 0 0 0-3-1.3 5.6 5.6 0 0 0-5.4 5.7c0 3.2 2.6 5.6 5.4 5.6a4 4 0 0 0 3-1.2v.8c0 2.1-1 3.3-3 3.3a3.1 3.1 0 0 1-2.8-2L98 42a5.4 5.4 0 0 0 5 3.3c3 0 5.5-1.7 5.5-5.9v-10H106v.9Zm4 9.7h2.6V23.3h-2.5V40Zm6.3-5.5a3.1 3.1 0 0 1 3-3.3c.9 0 1.7.5 2 1.2l-5 2.1Zm7.7-1.9c-.5-1.3-2-3.6-4.9-3.6-2.9 0-5.3 2.3-5.3 5.7 0 3.1 2.4 5.6 5.6 5.6 2.6 0 4.1-1.5 4.7-2.5l-1.9-1.3a3.2 3.2 0 0 1-2.8 1.6 2.9 2.9 0 0 1-2.7-1.7l7.5-3.1-.2-.7Zm-60.4-1.9V33h5.7a5 5 0 0 1-1.3 3 5.9 5.9 0 0 1-4.4 1.8 6.3 6.3 0 0 1-6.3-6.4A6.3 6.3 0 0 1 68 27l1.7-1.7a8.4 8.4 0 0 0-6-2.5 9 9 0 0 0-9 8.8 9 9 0 0 0 9 8.8 8 8 0 0 0 6.1-2.4c1.6-1.6 2-3.8 2-5.6a7.8 7.8 0 0 0 0-1.5h-8.1ZM78.4 38c-1.7 0-3.2-1.4-3.2-3.4s1.5-3.5 3.2-3.5c1.8 0 3.2 1.4 3.2 3.5 0 2-1.4 3.4-3.2 3.4Zm0-9a5.6 5.6 0 0 0-5.7 5.6 5.6 5.6 0 0 0 5.7 5.6 5.6 5.6 0 0 0 5.7-5.6 5.6 5.6 0 0 0-5.7-5.7ZM91 38c-1.8 0-3.2-1.4-3.2-3.4s1.4-3.5 3.2-3.5c1.7 0 3.2 1.4 3.2 3.5 0 2-1.5 3.4-3.2 3.4Zm0-9a5.6 5.6 0 0 0-5.7 5.6 5.6 5.6 0 0 0 5.7 5.6 5.6 5.6 0 0 0 5.7-5.6 5.6 5.6 0 0 0-5.7-5.7ZM59.2 10a2.5 2.5 0 0 0-2 .9 3.5 3.5 0 0 0-.7 2.4c0 1 .2 1.8.7 2.3.4.6 1.1.9 2 .9.6 0 1.2-.1 2-.4v1a5 5 0 0 1-2.1.2 3.4 3.4 0 0 1-2.7-1 4.4 4.4 0 0 1-1-3c0-.9.2-1.6.5-2.2.3-.6.7-1.1 1.3-1.5a4 4 0 0 1 2-.5c.9 0 1.6.2 2.2.5l-.4.9a4.4 4.4 0 0 0-1.8-.5Z" fill="#fff"/>
  <path d="M59.2 10.1V10c-.9 0-1.6.3-2.1.9-.5.6-.8 1.4-.8 2.5 0 1 .3 1.8.8 2.4.5.6 1.2.9 2.1.9l2-.3v-.1H61v.8h.1V17l-1 .2-1 .1c-1.2 0-2-.3-2.6-1-.6-.7-1-1.7-1-3 0-.8.2-1.5.5-2 .3-.7.7-1.1 1.2-1.4a3.9 3.9 0 0 1 2-.5c.9 0 1.6.1 2.2.4v-.1l-.5.8h.1a4.5 4.5 0 0 0-1.8-.5v.3a4 4 0 0 1 1.8.4h.1l.5-1-.1-.1a5 5 0 0 0-2.3-.5 4 4 0 0 0-2 .5 3.4 3.4 0 0 0-1.5 1.5 5 5 0 0 0-.4 2.2c0 1.4.3 2.4 1 3.2a3.6 3.6 0 0 0 2.8 1 5 5 0 0 0 2-.2h.2V16H61a7 7 0 0 1-1.9.3c-.8 0-1.5-.2-2-.8-.4-.5-.6-1.2-.6-2.3 0-1 .2-1.7.7-2.2.5-.6 1.1-.8 2-.8V10Zm9.9 7.2h-1v-7h-4v7h-1v-8h6v8Z" fill="#fff"/>
  <path d="M69 17.3v-.1h-.8v-7.1H64v7.1h-.8V9.5H69v7.8h.3v-8H63v8.2h1.2v-7.1H68v7h1.3-.1Zm6.2-3.3-.9-2.4-.4-1.2-.3 1.2-.9 2.4h2.5Zm1.3 3.3-1-2.4h-3.1l-1 2.4h-1l3.1-8h1l3 8h-1Z" fill="#fff"/>
  <path d="M75.2 14h.1l-.9-2.5L74 10v.4l-.4 1.2h.1-.1l-1 2.6h3l-.2-.2H73l.8-2.3.4-1.2h-.4l.4 1.2 1 2.4Zm1.3 3.3h.1l-1-2.6h-3.3l-1 2.5h-.7l3-7.7h.7l3 7.7h-.8v.3h1.2l-3.2-8.3h-1l-3.3 8.3h1.3l1-2.5h3l.9 2.5v-.2Zm5.9 0-2.7-7v7H79v-8h1.4l2.5 6.6 2.5-6.5h1.5v8h-1v-5l.1-2-2.7 7h-.8Z" fill="#fff"/>
  <path d="m82.4 17.3-2.6-7h-.2v6.9H79V9.5h1.2l2.5 6.5h.2l2.5-6.5h1.3v7.7H86v-7h-.2l-2.7 7h-.7v.3h.9l2.7-7.1h-.2.1-.1l-.1 2v5h1.2V9.3h-1.7L82.8 16h.1v-.1h.1l-2.5-6.6h-1.7v8.3H80v-7.2h-.2v.2-.2l2.6 7.2v-.2Zm12.8 0h-1v-7h-4v7h-1v-8h6v8Z" fill="#fff"/>
  <path d="M95.2 17.3v-.1h-.9v-7.1h-4.2v7.1h-.8V9.5h5.8v7.8h.2v-8h-6.2v8.2h1.2v-7.1h3.8v7h1.2-.1Zm2.9.1-1-.1v-1c.3.2.6.2 1 .2s.7 0 1-.2l.6-1-3-6h1l2.3 4.5.2.6h.1v-.2l.2-.4 2-4.4h1l-2.6 5.7a6.9 6.9 0 0 1-.8 1.4 2.3 2.3 0 0 1-2 1Z" fill="#fff"/>
  <path d="m98.1 17.4-1-.2v-.9l-.1.2 1 .2c.5 0 .8-.1 1.1-.3.3-.2.5-.6.7-1v-.1l-3-5.8h.9l2.2 4.4.2.5v.1h.3v-.2l.2-.5 2-4.3h.7l-2.5 5.5a7.3 7.3 0 0 1-.8 1.5c-.2.3-.5.5-.8.6l-1 .2v.3a2.5 2.5 0 0 0 2-1c.3-.3.5-.8.9-1.5l2.6-5.9h-1.4l-2 4.5v.5l-.1.1h.1a3.4 3.4 0 0 0-.2-.6l-2.3-4.5h-1.4l3.2 6.1h.1-.1a2.5 2.5 0 0 1-.7.9l-.8.2a2.4 2.4 0 0 1-1-.2h-.2v1.2l1.2.2v-.2Zm10-8.7c-.7 0-1.2-.1-1.5-.4-.3-.3-.5-.7-.5-1.3h.9c0 .4.1.7.3.8.1.2.4.2.8.2s.7 0 .9-.2c.2-.2.3-.4.3-.8h1c-.1.6-.3 1-.7 1.3-.3.3-.8.4-1.5.4Zm-3.3.7h1v4.3a36.4 36.4 0 0 1-.1 2.3l4.4-6.6h1.1v8h-1V13a27.1 27.1 0 0 1 .2-2.3l-4.5 6.6h-1.1v-8Z" fill="#fff"/>
  <path d="M108.1 8.7v-.1c-.6 0-1.1-.1-1.4-.4-.3-.2-.5-.6-.5-1.2h-.1v.2h.9V7h-.1c0 .4.1.7.3 1l1 .2c.4 0 .7-.1.9-.3.2-.2.3-.5.4-.9h-.2v.2h1V7h-.2c0 .6-.2 1-.5 1.2-.3.3-.8.4-1.5.4v.3c.7 0 1.3-.2 1.6-.5.4-.3.6-.7.7-1.4h-1.2c0 .3-.2.6-.3.7l-.7.2c-.4 0-.7 0-.8-.2L107 7v-.1h-1V7c0 .6.3 1.1.6 1.4.4.3 1 .4 1.6.4Zm-3.3.7h.8v4.3a39.1 39.1 0 0 1 0 2.2v.2h.2l4.4-6.6h.9v7.7h-.7V13a27 27 0 0 1 .1-2.3v-.1h-.3l-4.4 6.6h-.9V9.4h-.2v8h1.3l4.4-6.6v-.1.1-.1h-.2a86.5 86.5 0 0 0 0 2.3v4.5h1.1V9.2H110l-4.4 6.7h.1a34 34 0 0 0 .2-2.2V9.2h-1.2v.2h.1Zm14.8 7h1v3h-1v-2h-6v-8h1v7h4v-7h1v7Z" fill="#fff"/>
  <path d="M119.6 16.4v.2h.8v2.7h-.7v-2.1h-6V9.5h.8v7h4.2v-7h.7v7.1h.2v-.1h.1V9.2h-1.2v7.1h-3.8v-7h-1.2v8.2h6v2h1.2v-3.2h-1.1v.1Zm7 1H122v-8h4.5v.8H123v2.5h3.3v.9H123v2.9h3.5v.8Z" fill="#fff"/>
  <path d="M126.6 17.3v-.1h-4.4V9.5h4.2v.6H123V13h3.2v.6H123v3h3.4v.8h.3v-1h-3.5v-2.6h3.3v-1.1h-3.3v-2.2h3.5V9.2H122v8.3h4.7v-.2h-.1Zm9.8-6c0 .4-.2.9-.5 1.2a3 3 0 0 1-1.4.6c.7.2 1.2.4 1.5.7.4.3.6.7.6 1.3a2 2 0 0 1-.9 1.7 4 4 0 0 1-2.4.6 5 5 0 0 1-2.3-.4v-.9a5.3 5.3 0 0 0 2.3.5c.7 0 1.3-.1 1.6-.4.4-.2.6-.6.6-1.1 0-.5-.2-.9-.6-1.1a3.7 3.7 0 0 0-1.9-.4h-1v-.8h1a3.2 3.2 0 0 0 1.9-.4c.3-.3.5-.6.5-1a1 1 0 0 0-.4-1 1.9 1.9 0 0 0-1.2-.3l-1 .1-1.2.6-.5-.7a4.5 4.5 0 0 1 2.7-.9 3 3 0 0 1 2 .6c.4.3.7.8.7 1.4Z" fill="#fff"/>
  <path d="M136.4 11.2h-.2c0 .5-.1.9-.4 1.2-.3.3-.8.5-1.3.6h-.1v.3a2 2 0 0 1 1.5.6c.3.3.5.7.5 1.2a1.9 1.9 0 0 1-.8 1.6c-.5.4-1.3.6-2.3.6-1 0-1.7-.1-2.2-.4l-.1.1h.1v-.9h-.1v.1a5.4 5.4 0 0 0 2.3.5c.7 0 1.3 0 1.7-.4.4-.3.6-.7.6-1.2s-.2-1-.7-1.2a3.8 3.8 0 0 0-1.9-.4h-1v-.6h1c.8 0 1.4-.1 1.8-.4.4-.3.7-.7.7-1.2 0-.4-.2-.8-.5-1a2 2 0 0 0-1.3-.4c-.4 0-.8 0-1.1.2-.4 0-.8.3-1.2.5l.1.2.1-.1-.5-.7v.2a4 4 0 0 1 2.6-.8 3 3 0 0 1 1.9.5c.4.3.6.7.6 1.3h.3c0-.6-.2-1.2-.7-1.5a3.3 3.3 0 0 0-2-.6c-1.1 0-2 .3-2.8.9h-.1l.5.8v.1h.2a3.6 3.6 0 0 1 2.1-.7c.5 0 .9.1 1.1.3.3.2.4.5.4.8 0 .4-.2.7-.5 1a4 4 0 0 1-1.7.3h-1.2v1.1h1.2a4 4 0 0 1 1.8.4c.4.2.6.5.6 1 0 .4-.2.8-.5 1a2.6 2.6 0 0 1-1.6.4 5.4 5.4 0 0 1-2.2-.5l-.2-.1V17c.7.3 1.4.5 2.4.5a4 4 0 0 0 2.5-.7c.6-.4.9-1 .9-1.8 0-.6-.2-1-.6-1.4a2.8 2.8 0 0 0-1.6-.7v.2h.1-.1a2.6 2.6 0 0 0 1.5-.6c.3-.4.5-.8.5-1.4h-.1Z" fill="#fff"/>
</svg>
