<svg xmlns="http://www.w3.org/2000/svg" viewBox="0 0 239 70.9">
  <rect x="-.1" width="239.2" height="70.9" rx="8.9" ry="8.9"/>
  <path d="m36.6 34.4-18.9 20a5 5 0 0 0 7.6 3l21.2-12.2-10-10.8h.1Z" style="fill:#ea4335"/>
  <path d="m55.7 31-9.2-5.3-10.3 9.2 10.3 10.3 9.2-5.2c1.6-1 2.6-2.6 2.6-4.5s-1-3.6-2.6-4.5Z" style="fill:#fbbc04"/>
  <path d="m17.7 16.4-.1 1.4V53l.1 1.3L37.2 35 17.7 16.4Z" style="fill:#4285f4"/>
  <path d="m36.7 35.4 9.8-9.7-21.2-12.3a5.1 5.1 0 0 0-7.6 3l19 19Z" style="fill:#34a853"/>
  <path d="M75.3 22.8a5.5 5.5 0 0 1-2-2.1c-.6-1-.9-2-.9-3s.3-2 .8-3 1.2-1.5 2.1-2c.9-.5 1.9-.8 3-.8.8 0 1.5.2 2.2.5s1.3.8 1.9 1.3L81 15a3.6 3.6 0 0 0-2.9-1.3c-.7 0-1.4.2-2 .5s-1.1.8-1.5 1.4a5 5 0 0 0 0 4.4 4.7 4.7 0 0 0 3.5 2 4 4 0 0 0 3.2-1.6l1.3 1.2a5.5 5.5 0 0 1-4.4 2c-1.1 0-2.1-.3-3-.8Zm8.8-10.6h8.3v11h-1.8v-9.4H86v9.5h-2V12.2Zm13.5 0h2l4.1 11h-2l-.9-2.8h-4.5l-1 2.9h-1.9l4.2-11.1Zm2.6 6.6L99 15.5l-.4-1.3h-.1l-.4 1.3-1.2 3.3h3.3Zm4.6-6.6h2.3l3.2 8.4h.1l3.2-8.4h2.4v11h-1.8V17l.1-2-3.2 8.3h-1.4l-3.2-8.3v8.3h-1.7V12.2Zm13.2 0h8.3v11h-1.7v-9.4h-4.8v9.5H118V12.2Zm10.6 11.1v-1.7c.3.2.7.3 1 .3l.6-.1.4-.7.4-.8-3.7-8.1h2l2.6 6.1 2.6-6.1h2l-4.3 9.3c-.3.7-.7 1.2-1 1.6s-1 .4-1.7.4l-1-.1Zm8.9-11.1h1.8v6l-.1 2.2 5-8.2h2v11h-1.8V17l.1-2.1-5 8.3h-2v-11Zm3.4-1a2 2 0 0 1-.8-.8 2 2 0 0 1-.3-1h1.3c0 .2 0 .4.2.5.2.2.4.2.6.2l.5-.2c.2-.2.3-.3.3-.6h1.2c0 .4 0 .8-.3 1-.1.4-.4.6-.7.8s-.6.3-1 .3-.7-.1-1-.3ZM156 23.3h-7.8V12.2h1.8v9.4h4.6v-9.4h1.7v9.4h1.4V26H156v-2.6Zm3.2-11.1h6.7v1.6h-5V17h4.5v1.6H161v3.1h5v1.7h-6.7V12.2Zm11.6 0h1.7v4.6h5.2v-4.6h1.7v11h-1.7v-4.8h-5.2v4.9h-1.7V12.2Zm13.8 0h2l4.1 11h-1.9l-1-2.8h-4.5l-1 2.9h-1.9l4.2-11.1Zm2.7 6.6-1.2-3.3-.5-1.3-.5 1.3-1.2 3.3h3.4Zm-67.1 18.9c-4.1 0-7.5 3.2-7.5 7.6s3.4 7.5 7.5 7.5 7.6-3.2 7.6-7.5-3.4-7.6-7.6-7.6Zm0 12.2c-2.3 0-4.2-2-4.2-4.6s2-4.6 4.2-4.6 4.3 1.9 4.3 4.6-2 4.6-4.3 4.6Zm-16.5-12.2c-4.2 0-7.6 3.2-7.6 7.6s3.4 7.5 7.6 7.5 7.5-3.2 7.5-7.5-3.4-7.6-7.5-7.6Zm0 12.2c-2.3 0-4.3-2-4.3-4.6s2-4.6 4.3-4.6 4.2 1.9 4.2 4.6-2 4.6-4.2 4.6ZM84 40v3.2h7.7a6.6 6.6 0 0 1-1.8 4 7.8 7.8 0 0 1-6 2.4 8.5 8.5 0 0 1-8.4-8.5 8.4 8.4 0 0 1 14.3-6.2l2.2-2.3a12 12 0 0 0-20 8.5C72 47.6 77.6 53 84 53a11 11 0 0 0 8.2-3.3 11 11 0 0 0 2.7-7.5l-.1-2H84Zm80.5 2.5c-.6-1.7-2.5-4.8-6.5-4.8s-7.1 3-7.1 7.6c0 4.2 3.2 7.5 7.5 7.5 3.5 0 5.5-2.1 6.3-3.3l-2.6-1.8c-.8 1.3-2 2.1-3.7 2.1s-2.9-.7-3.7-2.3l10.1-4.1-.3-.9Zm-10.3 2.6c-.1-3 2.3-4.4 4-4.4 1.2 0 2.4.6 2.7 1.6l-6.7 2.8Zm-8.2 7.3h3.3V30.2H146v22.2Zm-5.5-13a5.2 5.2 0 0 0-4-1.7c-3.8 0-7.3 3.3-7.3 7.6s3.5 7.5 7.3 7.5c1.8 0 3.2-.8 4-1.7v1c0 3-1.5 4.5-4 4.5-2 0-3.3-1.4-3.8-2.7l-2.9 1.2c.8 2 3 4.5 6.7 4.5 3.9 0 7.2-2.3 7.2-7.9V38.1h-3.2v1.3ZM136.7 50c-2.3 0-4.2-2-4.2-4.6s2-4.6 4.2-4.6 4 2 4 4.6-1.7 4.6-4 4.6Zm43.4-19.7h-8v22.2h3.3V44h4.7c3.6 0 7.2-2.7 7.2-7s-3.6-6.8-7.2-6.8Zm0 10.7h-4.7v-7.7h4.7c2.5 0 4 2.1 4 3.8s-1.5 3.8-4 3.8Zm20.5-3.2c-2.4 0-4.8 1-5.9 3.4l3 1.2c.6-1.2 1.8-1.6 3-1.6 1.7 0 3.5 1 3.5 2.8v.3a7 7 0 0 0-3.5-.9c-3.2 0-6.4 1.8-6.4 5 0 3 2.6 4.9 5.5 4.9 2.2 0 3.5-1 4.2-2.2h.2v1.7h3.2v-8.5c0-4-3-6.1-6.8-6.1Zm-.4 12.2c-1 0-2.6-.6-2.6-2 0-1.6 2-2.3 3.6-2.3a6 6 0 0 1 3 .7 4 4 0 0 1-4 3.6ZM219 38.2l-3.8 9.6-4-9.6h-3.6l6 13.4-3.5 7.5h3.5l9.1-21H219Zm-29.8 14.2h3.3V30.2h-3.3v22.2Z" style="fill:#fff"/>
</svg>
