<svg width="180" height="54" fill="none" xmlns="http://www.w3.org/2000/svg">
  <path d="M173.33 54H6.67A6.73 6.73 0 0 1 0 47.25V6.75C0 3.04 3 0 6.67 0h166.66A6.73 6.73 0 0 1 180 6.75v40.5c0 3.71-3 6.75-6.67 6.75Z" fill="#000"/>
  <path d="m27.63 26.22-14.2 15.26a3.84 3.84 0 0 0 5.65 2.35l.05-.03 15.97-9.33-7.48-8.25Z" fill="#EA4335"/>
  <path d="m41.98 23.63-.01-.02-6.9-4.05-7.77 7 7.8 7.9 6.86-4a3.89 3.89 0 0 0 2.02-3.43c0-1.47-.8-2.75-2-3.4Z" fill="#FBBC04"/>
  <path d="M13.43 12.52a3.7 3.7 0 0 0-.13 1v26.96c0 .35.04.68.13 1L28.1 26.62l-14.68-14.1Z" fill="#4285F4"/>
  <path d="m27.73 27 7.34-7.44-15.96-9.37a3.85 3.85 0 0 0-5.69 2.33L27.73 27Z" fill="#34A853"/>
  <path d="M142.58 40h2.49V23.33h-2.49V40ZM165 29.34l-2.85 7.22h-.09l-2.96-7.22h-2.68l4.44 10.1-2.53 5.61h2.6l6.84-15.71H165Zm-14.1 8.77c-.82 0-1.96-.41-1.96-1.42 0-1.29 1.41-1.78 2.64-1.78 1.1 0 1.6.24 2.27.56a3.02 3.02 0 0 1-2.96 2.64Zm.3-9.14c-1.81 0-3.68.8-4.45 2.55l2.21.93c.47-.93 1.35-1.23 2.27-1.23 1.3 0 2.6.78 2.62 2.15v.17a5.5 5.5 0 0 0-2.6-.64c-2.38 0-4.8 1.3-4.8 3.75 0 2.23 1.95 3.67 4.14 3.67a3.5 3.5 0 0 0 3.17-1.63h.09v1.28h2.4v-6.39c0-2.96-2.2-4.6-5.06-4.6Zm-15.38 2.4h-3.54v-5.72h3.53a2.89 2.89 0 0 1 2.92 2.86 2.9 2.9 0 0 1-2.91 2.86Zm-.07-8.04h-5.96V40h2.49v-6.32h3.47c2.76 0 5.47-2 5.47-5.17 0-3.18-2.71-5.18-5.47-5.18Zm-32.5 14.78c-1.72 0-3.16-1.44-3.16-3.42 0-2 1.44-3.45 3.15-3.45 1.7 0 3.03 1.46 3.03 3.45 0 1.98-1.33 3.42-3.03 3.42Zm2.85-7.84h-.1a3.93 3.93 0 0 0-2.98-1.27 5.64 5.64 0 0 0-5.44 5.7c0 3.17 2.6 5.64 5.44 5.64 1.35 0 2.43-.6 2.98-1.28h.09v.81c0 2.17-1.16 3.33-3.03 3.33a3.14 3.14 0 0 1-2.86-2.02l-2.17.9a5.4 5.4 0 0 0 5.03 3.35c2.92 0 5.4-1.71 5.4-5.9V29.35h-2.37v.92Zm4.08 9.73h2.5V23.33h-2.5V40Zm6.17-5.5a3.11 3.11 0 0 1 2.96-3.3c.99 0 1.83.49 2.1 1.2l-5.06 2.1Zm7.73-1.89c-.47-1.27-1.91-3.6-4.85-3.6-2.93 0-5.35 2.29-5.35 5.66 0 3.18 2.4 5.67 5.62 5.67 2.6 0 4.1-1.59 4.73-2.5l-1.93-1.3a3.24 3.24 0 0 1-2.8 1.57 2.89 2.89 0 0 1-2.75-1.72l7.59-3.13-.26-.65Zm-60.41-1.87v2.4h5.76a5.02 5.02 0 0 1-1.32 3.04 5.9 5.9 0 0 1-4.44 1.76 6.32 6.32 0 0 1-6.32-6.4A6.32 6.32 0 0 1 68 26.85l1.7-1.7a8.4 8.4 0 0 0-6.04-2.42 8.93 8.93 0 0 0-8.94 8.8 8.93 8.93 0 0 0 8.94 8.81c2.62 0 4.6-.86 6.14-2.47 1.6-1.59 2.09-3.82 2.09-5.62a7.8 7.8 0 0 0-.13-1.5h-8.1Zm14.77 7.37c-1.72 0-3.2-1.42-3.2-3.44 0-2.04 1.48-3.43 3.2-3.43 1.72 0 3.2 1.4 3.2 3.43 0 2.02-1.48 3.44-3.2 3.44Zm0-9.1a5.59 5.59 0 0 0-5.7 5.66 5.6 5.6 0 0 0 5.7 5.67 5.6 5.6 0 0 0 5.7-5.67 5.59 5.59 0 0 0-5.7-5.67Zm12.42 9.1c-1.72 0-3.2-1.42-3.2-3.44 0-2.04 1.48-3.43 3.2-3.43 1.72 0 3.2 1.4 3.2 3.43 0 2.02-1.48 3.44-3.2 3.44Zm0-9.1a5.59 5.59 0 0 0-5.7 5.66 5.6 5.6 0 0 0 5.7 5.67 5.6 5.6 0 0 0 5.69-5.67 5.59 5.59 0 0 0-5.7-5.67ZM59.22 10.13a2.5 2.5 0 0 0-2.02.86 3.52 3.52 0 0 0-.74 2.36c0 1.02.24 1.82.72 2.38.47.56 1.15.83 2.03.83.57 0 1.2-.1 1.92-.31v.87a4.92 4.92 0 0 1-2.06.32 3.44 3.44 0 0 1-2.71-1.07 4.42 4.42 0 0 1-.96-3.04c0-.82.16-1.54.46-2.16.3-.61.74-1.09 1.33-1.43.58-.33 1.26-.5 2.04-.5.85 0 1.58.16 2.2.47l-.4.85a4.37 4.37 0 0 0-1.8-.43Z" fill="#fff"/>
  <path d="M59.22 10.13v-.14c-.89 0-1.6.3-2.12.91-.52.6-.77 1.43-.77 2.45 0 1.04.24 1.87.75 2.46.5.6 1.22.89 2.13.89.59 0 1.24-.11 1.96-.33l-.04-.12h-.14v.87h.14l-.05-.12c-.33.12-.65.2-.95.24-.3.05-.66.07-1.06.07-1.15 0-2-.35-2.61-1.03-.61-.68-.92-1.66-.92-2.95 0-.8.15-1.5.44-2.1.3-.6.71-1.05 1.27-1.37a3.9 3.9 0 0 1 1.98-.48c.83 0 1.54.15 2.15.45l.06-.12-.12-.06-.4.86.11.05.06-.12a4.51 4.51 0 0 0-1.87-.45v.27c.55 0 1.14.14 1.76.42l.12.06.46-.97.05-.12-.11-.06a5 5 0 0 0-2.27-.48c-.8 0-1.5.17-2.11.52a3.4 3.4 0 0 0-1.38 1.49 4.96 4.96 0 0 0-.47 2.21c0 1.33.32 2.38.99 3.13a3.57 3.57 0 0 0 2.81 1.12 5.09 5.09 0 0 0 2.1-.33l.09-.04v-1.14l-.17.05a7 7 0 0 1-1.88.31c-.85 0-1.48-.26-1.93-.79-.45-.53-.68-1.28-.68-2.3 0-.97.23-1.72.7-2.27.47-.54 1.1-.8 1.92-.81v-.13Zm9.86 7.2h-1v-7.09H64.1v7.1h-1V9.35h5.98v7.97Z" fill="#fff"/>
  <path d="M69.08 17.33v-.13h-.86v-7.1h-4.26v7.1h-.73V9.49h5.71v7.84h.27v-8.1h-6.25v8.24h1.27v-7.1h3.72v7.1h1.26v-.14h-.13Zm6.14-3.36-.9-2.41-.37-1.2c-.11.44-.23.84-.35 1.2l-.9 2.41h2.52Zm1.26 3.36-.96-2.47h-3.16l-.95 2.47H70.4l3.11-8h.9l3.12 8h-1.05Z" fill="#fff"/>
  <path d="m75.22 13.97.13-.04-.9-2.42-.52-1.64-.11.46c-.11.43-.22.83-.34 1.18l.12.05-.12-.05-.98 2.6h2.91l-.06-.18-.13.04v-.13H72.9l.84-2.24c.12-.37.24-.77.35-1.2l-.13-.04-.13.04.38 1.2.9 2.42.12-.05Zm1.26 3.36.13-.05-1-2.55h-3.34l-.95 2.47h-.73l3.01-7.74h.73l3 7.74h-.85v.27h1.24l-3.21-8.28h-1.1l-3.2 8.28h1.3l.94-2.47h2.98l.96 2.47h.1v-.14Zm5.89 0-2.63-7h-.05c.06.6.08 1.31.08 2.16v4.84h-.92V9.36h1.48l2.46 6.53h.05l2.5-6.53h1.47v7.97h-.99v-4.9c0-.55.02-1.24.08-2.08h-.05l-2.66 6.98h-.82Z" fill="#fff"/>
  <path d="m82.37 17.33.12-.04-2.66-7.08h-.28v.14c.06.58.1 1.3.1 2.14v4.71h-.67V9.49h1.26l2.46 6.54h.23l2.5-6.54h1.25v7.71h-.73v-4.77c0-.54.03-1.23.08-2.07v-.14h-.27L83.1 17.2h-.73v.27h.91l2.7-7.07-.13-.05v.13h.05v-.13h-.14c-.05.83-.07 1.53-.07 2.08v5.04h1.26V9.22h-1.7l-2.54 6.63.13.04v-.13h-.05v.13l.13-.04-2.5-6.63h-1.7v8.25h1.19v-4.98c0-.85-.03-1.58-.08-2.16h-.14v.14h.05v-.13l-.13.05 2.66 7.08h.1v-.14Zm12.82 0h-1v-7.09h-3.98v7.1h-1V9.35h5.98v7.97Z" fill="#fff"/>
  <path d="M95.19 17.33v-.13h-.86v-7.1h-4.25v7.1h-.74V9.49h5.72v7.84h.26v-8.1h-6.25v8.24h1.27v-7.1h3.72v7.1h1.26v-.14h-.13Zm2.91.11c-.4 0-.76-.05-1.08-.16v-.95c.33.15.69.22 1.06.22.38 0 .7-.09.94-.27.24-.18.47-.51.69-1l-3.07-5.92h1.1l2.28 4.43c.09.17.17.36.23.57h.05l.04-.13.17-.45 1.9-4.42h1.07l-2.55 5.7a6.9 6.9 0 0 1-.82 1.48 2.31 2.31 0 0 1-2 .9Z" fill="#fff"/>
  <path d="M98.1 17.44v-.13c-.4 0-.74-.05-1.03-.16l-.05.13h.14v-.95h-.14l-.05.12c.35.16.72.24 1.1.24.41 0 .76-.1 1.03-.3.27-.2.5-.56.73-1.05l.03-.06-3-5.79h.8l2.24 4.37c.09.16.16.34.22.54l.03.1h.24l.08-.23.16-.44 1.88-4.34h.77l-2.47 5.52a7.3 7.3 0 0 1-.8 1.45c-.24.3-.5.5-.8.64-.3.14-.66.2-1.1.2v.28a2.46 2.46 0 0 0 2.1-.95c.26-.33.54-.83.85-1.51l2.63-5.9h-1.36l-1.94 4.51-.17.45-.05.14.13.04v-.13h-.05v.13l.13-.04a3.41 3.41 0 0 0-.24-.59l-.12.06.12-.06-2.32-4.5h-1.4l3.17 6.12.12-.06-.12-.06a2.5 2.5 0 0 1-.65.94c-.21.16-.5.25-.86.25a2.4 2.4 0 0 1-1-.21l-.19-.09v1.25l.09.03c.33.12.7.18 1.13.18v-.14Zm10.03-8.72c-.7 0-1.2-.13-1.52-.4-.32-.27-.5-.7-.53-1.3h.91c.04.38.13.64.3.8.16.14.45.22.86.22.38 0 .66-.08.84-.24.18-.16.29-.42.33-.78h.92c-.05.6-.25 1.02-.6 1.3-.33.26-.84.4-1.5.4Zm-3.33.64h.94v4.38a36.43 36.43 0 0 1-.08 2.22h.05l4.39-6.6h1.11v7.97h-.93V13a27.14 27.14 0 0 1 .09-2.3h-.05l-4.4 6.63h-1.12V9.36Z" fill="#fff"/>
  <path d="M108.13 8.72v-.13c-.68 0-1.16-.14-1.44-.37-.28-.24-.45-.63-.48-1.2h-.13v.14h.91v-.14l-.13.01c.03.4.14.7.34.88.2.19.53.26.95.26.4 0 .7-.08.92-.27.22-.2.34-.49.38-.86l-.14-.02v.14h.93v-.14l-.13-.01c-.05.57-.24.96-.54 1.2-.31.24-.79.38-1.44.38v.26c.69 0 1.22-.14 1.6-.43.38-.3.59-.77.65-1.39l.01-.14h-1.2V7c-.05.34-.15.56-.3.69-.14.13-.38.2-.74.2-.4 0-.65-.07-.77-.19-.13-.1-.22-.34-.26-.7v-.12h-1.19l.01.14c.04.62.23 1.1.58 1.4.36.29.9.42 1.61.42v-.13Zm-3.33.64v.13h.8v4.25a39.1 39.1 0 0 1-.07 2.2l-.02.15h.27l4.39-6.6h.91v7.71h-.67V13a26.98 26.98 0 0 1 .1-2.3v-.14h-.26l-4.4 6.64h-.91V9.36h-.27v8.1h1.32l4.44-6.7-.11-.07v.14h.05v-.14h-.14a86.5 86.5 0 0 0-.09 2.3v4.48h1.2V9.22h-1.32l-4.42 6.66.1.08v-.14h-.04v.14l.13.01a34.09 34.09 0 0 0 .08-2.24v-4.5h-1.2v.13h.13Zm14.78 7.09h.98v2.98h-.97v-2.1h-6V9.36h1.01v7.08h3.99V9.36h1v7.09Z" fill="#fff"/>
  <path d="M119.58 16.45v.13h.84v2.72h-.7v-2.1h-5.99V9.49h.74v7.08h4.25V9.5h.73v7.1h.13v-.14h.14V9.22h-1.26v7.09h-3.72V9.22h-1.28v8.25h6v2.1h1.23v-3.25h-1.1v.13Zm6.98.88h-4.46V9.36h4.46v.88h-3.45v2.49h3.25v.87h-3.25v2.85h3.45v.88Z" fill="#fff"/>
  <path d="M126.56 17.33v-.13h-4.32V9.49h4.19v.62h-3.46v2.75h3.25v.6h-3.25v3.12h3.46v.75h.26v-1.01h-3.45v-2.59h3.25V12.6h-3.25v-2.23h3.45V9.22h-4.72v8.25h4.72v-.14h-.13Zm9.82-6.11c0 .52-.17.94-.5 1.27-.33.33-.8.54-1.39.63v.05c.68.09 1.19.3 1.54.62.34.33.52.76.52 1.28 0 .75-.29 1.33-.85 1.75-.56.41-1.35.62-2.37.62-.96 0-1.73-.14-2.33-.43v-.91a5.3 5.3 0 0 0 2.32.52c.72 0 1.26-.13 1.63-.4.36-.27.55-.65.55-1.15 0-.47-.21-.83-.62-1.08a3.66 3.66 0 0 0-1.84-.37h-1.14v-.84h1.08a3.2 3.2 0 0 0 1.77-.4c.39-.26.59-.61.59-1.06 0-.38-.15-.69-.44-.91a1.86 1.86 0 0 0-1.17-.34c-.41 0-.79.05-1.12.15-.33.1-.7.28-1.1.53l-.47-.68a4.51 4.51 0 0 1 2.7-.83c.82 0 1.47.18 1.94.54.46.35.7.84.7 1.44Z" fill="#fff"/>
  <path d="M136.38 11.22h-.13c0 .5-.16.87-.46 1.18-.3.3-.74.5-1.32.59l-.11.02v.27l.11.02c.66.09 1.15.29 1.47.59.31.3.47.69.47 1.18a1.9 1.9 0 0 1-.79 1.64c-.53.4-1.29.6-2.3.6-.94 0-1.69-.14-2.26-.42l-.06.12h.14v-.91H131l-.06.12a5.42 5.42 0 0 0 2.37.53c.73 0 1.3-.13 1.7-.42.4-.29.61-.73.6-1.26.01-.51-.23-.93-.67-1.2a3.79 3.79 0 0 0-1.91-.38h-1v-.57h.94c.8 0 1.42-.14 1.84-.42.43-.28.65-.7.65-1.18 0-.42-.16-.77-.48-1.02a2 2 0 0 0-1.26-.36c-.42 0-.8.05-1.16.15-.35.1-.72.29-1.13.55l.08.11.1-.07-.47-.69-.11.08.08.11c.74-.54 1.61-.8 2.62-.8a3 3 0 0 1 1.85.5c.44.34.65.77.66 1.34h.26c0-.64-.25-1.17-.75-1.55a3.25 3.25 0 0 0-2.02-.56c-1.06 0-2 .28-2.78.85l-.1.08.55.8.07.1.11-.07a3.61 3.61 0 0 1 2.14-.67c.47 0 .83.11 1.1.31.25.2.37.46.37.81 0 .4-.16.71-.52.96-.36.24-.93.37-1.7.37h-1.21v1.1h1.27c.8 0 1.4.13 1.77.36.38.22.55.53.55.96 0 .47-.16.8-.5 1.04a2.6 2.6 0 0 1-1.54.38 5.36 5.36 0 0 1-2.26-.52l-.19-.09v1.22l.08.03c.62.3 1.4.45 2.38.45 1.03 0 1.85-.22 2.45-.66.6-.43.9-1.07.9-1.85 0-.55-.19-1.02-.56-1.37a2.84 2.84 0 0 0-1.61-.67l-.02.14h.13v-.05h-.13l.02.13a2.57 2.57 0 0 0 1.47-.66c.35-.36.53-.82.53-1.37h-.13Z" fill="#fff"/>
</svg>
