<svg width="270" height="80" fill="none" xmlns="http://www.w3.org/2000/svg">
  <g clip-path="url(#a)">
    <mask id="b" style="mask-type:luminance" maskUnits="userSpaceOnUse" x="-21" y="-20" width="311" height="121">
      <path d="M-20-20h310v120H-20V-20Z" fill="#fff"/>
    </mask>
    <g mask="url(#b)">
      <path d="M260 80H10A10 10 0 0 1 0 70V10A10 10 0 0 1 10 0h250a10 10 0 0 1 10 10v60a10 10 0 0 1-10 10Z" fill="#000"/>
    </g>
    <mask id="c" style="mask-type:luminance" maskUnits="userSpaceOnUse" x="-21" y="-20" width="311" height="121">
      <path d="M-20-20h310v120H-20V-20Z" fill="#fff"/>
    </mask>
    <g mask="url(#c)">
      <path d="M41.4 38.8 20.1 61.4a5.7 5.7 0 0 0 8.5 3.5l24-13.8-11.2-12.3Z" fill="#EA4335"/>
    </g>
    <mask id="d" style="mask-type:luminance" maskUnits="userSpaceOnUse" x="-21" y="-20" width="311" height="121">
      <path d="M-20-20h310v120H-20V-20Z" fill="#fff"/>
    </mask>
    <g mask="url(#d)">
      <path d="m63 35-10.4-6L41 39.4 52.7 51l10.2-6a5.8 5.8 0 0 0 .1-10Z" fill="#FBBC04"/>
    </g>
    <mask id="e" style="mask-type:luminance" maskUnits="userSpaceOnUse" x="-21" y="-20" width="311" height="121">
      <path d="M-20-20h310v120H-20V-20Z" fill="#fff"/>
    </mask>
    <g mask="url(#e)">
      <path d="M20.1 18.6 20 20v40l.2 1.4 22-22-22-20.8Z" fill="#4285F4"/>
    </g>
    <mask id="f" style="mask-type:luminance" maskUnits="userSpaceOnUse" x="-21" y="-20" width="311" height="121">
      <path d="M-20-20h310v120H-20V-20Z" fill="#fff"/>
    </mask>
    <g mask="url(#f)">
      <path d="m41.6 40 11-11-24-13.9a5.8 5.8 0 0 0-8.5 3.4L41.6 40Z" fill="#34A853"/>
    </g>
    <path d="M89 26.5a6.3 6.3 0 0 1-5.7-3.2 7 7 0 0 1-.8-3.3 6.5 6.5 0 0 1 9.1-6 6 6 0 0 1 2.1 1.5l-1.4 1.3c-.5-.5-1-.9-1.5-1.1a3 3 0 0 0-1.7-.4c-.9 0-1.7.2-2.4.6-.7.4-1.2 1-1.6 1.6-.4.8-.6 1.6-.6 2.5 0 1 .2 1.8.6 2.5a4.3 4.3 0 0 0 4 2.2c1.3 0 2.5-.6 3.5-1.8l1.4 1.4c-.6.7-1.3 1.3-2.2 1.7-.8.3-1.7.5-2.7.5Zm6.7-12.8h9.4v12.6h-2V15.6h-5.4v10.7h-2V13.7Zm15.3 0h2.2l4.7 12.6h-2.1l-1.2-3.2h-5l-1.1 3.2h-2.2l4.7-12.6Zm3 7.6-1.3-3.8-.5-1.4h-.1l-.5 1.4-1.4 3.8h3.8Zm5.2-7.6h2.6l3.6 9.5h.1l3.6-9.5h2.7v12.6h-2v-7l.2-2.3h-.1l-3.6 9.3h-1.6L121 17v9.2h-2V13.8Zm15 0h9.3v12.6h-2V15.6h-5.3v10.7h-2V13.7Zm13 12.8c-.4 0-.8 0-1-.2v-1.9c.3.2.7.3 1 .3l.8-.1.5-.7.4-1-4.2-9.2h2.2l3 7 3-7h2.2l-4.8 10.6c-.4.8-.8 1.3-1.3 1.7a3 3 0 0 1-1.7.5Zm9-12.8h2V23l5.6-9.3h2.2v12.6h-1.9v-9.5l-5.7 9.5h-2.1V13.7Zm5-.9c-.4 0-.8 0-1.2-.2-.3-.2-.6-.5-.8-.9-.2-.3-.4-.7-.4-1.1h1.5c0 .2 0 .4.2.6.2.2.4.3.7.3l.6-.3c.2-.2.2-.4.2-.6h1.5c0 .4-.1.8-.4 1.1a2.2 2.2 0 0 1-2 1.1Zm16 13.5h-8.8V13.7h2v10.7h5.2V13.7h2v10.7h1.5v4.8h-2v-3Zm3.6-12.6h7.7v1.9h-5.7v3.5h5.1v1.8h-5v3.5h5.6v1.9h-7.7V13.7Zm13.2 0h2V19h5.8v-5.2h2v12.6h-2v-5.5H196v5.5h-2V13.7Zm15.7 0h2.2l4.7 12.6h-2.1l-1.2-3.2h-5l-1.1 3.2H205l4.7-12.6Zm3 7.6-1.3-3.8-.5-1.4h-.1l-.5 1.4-1.4 3.8h3.8ZM95.6 60.6a13.2 13.2 0 0 1-11.3-6.4 13 13 0 0 1-1.8-6.7 13 13 0 0 1 13.1-13c1.9 0 3.7.3 5.3 1 1.6.6 3 1.6 4.1 2.8l-2.7 2.7a8.3 8.3 0 0 0-3-2 9.4 9.4 0 0 0-8.3.4 8.7 8.7 0 0 0-3.3 3.2 9.8 9.8 0 0 0 0 9.8c.9 1.4 2 2.5 3.4 3.3a9 9 0 0 0 4.5 1.2c1.5 0 2.8-.3 3.8-.7 1-.5 1.9-1 2.7-1.8.5-.5.9-1.1 1.3-2a9 9 0 0 0 .7-2.4h-8.5v-3.5h12.2l.2 2a14 14 0 0 1-.8 4.6 9.6 9.6 0 0 1-2.3 3.8 12.1 12.1 0 0 1-9.3 3.7Zm22 0a9.2 9.2 0 0 1-8.2-4.6 10 10 0 0 1-1.1-4.9c0-1.8.4-3.4 1.1-4.8a9.4 9.4 0 0 1 8.2-4.7 9.6 9.6 0 0 1 8.2 4.7 11 11 0 0 1 1.1 4.8 10 10 0 0 1-1.1 4.9 9.5 9.5 0 0 1-8.2 4.6Zm0-3.5a6 6 0 0 0 2.7-.7 5 5 0 0 0 2-2.1c.6-1 .8-2 .8-3.2 0-1.2-.2-2.2-.7-3.1a5.5 5.5 0 0 0-9.5 0 6.5 6.5 0 0 0 0 6.3 5.3 5.3 0 0 0 4.7 2.8Zm18.8 3.5a9.2 9.2 0 0 1-8.2-4.6 10 10 0 0 1-1.1-4.9c0-1.8.3-3.4 1.1-4.8s2-2.6 3.4-3.4a9.6 9.6 0 0 1 9.6 0 9 9 0 0 1 3.3 3.4c.8 1.5 1.2 3 1.2 4.8a10 10 0 0 1-1.2 4.9 9.8 9.8 0 0 1-3.3 3.4c-1.4.8-3 1.2-4.8 1.2Zm0-3.5a6 6 0 0 0 2.7-.7 5 5 0 0 0 2-2.1c.5-1 .8-2 .8-3.2 0-1.2-.3-2.2-.8-3.1a5.5 5.5 0 0 0-9.5 0c-.5.9-.7 2-.7 3.1 0 1.2.2 2.3.8 3.2a5.3 5.3 0 0 0 4.7 2.8Zm18.5 11c-2.2 0-4-.5-5.5-1.5a7.3 7.3 0 0 1-2.8-3.5l3.5-1.5a5 5 0 0 0 4.8 3.1 5 5 0 0 0 3.8-1.4c1-1 1.4-2.4 1.4-4.1v-1.7h-.2a6 6 0 0 1-2.3 2c-1 .5-2.1.7-3.4.7a8.3 8.3 0 0 1-7.2-4.4c-.8-1.4-1.1-3-1.1-4.9 0-1.8.3-3.4 1-4.8a8.5 8.5 0 0 1 3.2-3.3 7.9 7.9 0 0 1 7.4-.4 6 6 0 0 1 2.4 2h.2v-2.2h3.7v16.9c0 1.9-.4 3.5-1.2 4.9a7.3 7.3 0 0 1-3 3c-1.4.8-3 1.1-4.7 1.1Zm0-11.4c1 0 1.8-.2 2.6-.7.8-.4 1.4-1 1.9-2a7 7 0 0 0 .7-3c0-1.9-.5-3.3-1.5-4.3a5 5 0 0 0-3.7-1.5 5 5 0 0 0-4.5 2.6c-.5.9-.7 2-.7 3.1 0 1.3.2 2.3.7 3.2a5 5 0 0 0 4.5 2.6Zm11-21.7h3.8v25h-3.9V35Zm13.8 25.6c-1.7 0-3.3-.4-4.7-1.2-1.4-.8-2.4-2-3.2-3.4a10 10 0 0 1-1.2-4.8c0-1.7.4-3.3 1.1-4.8a8.5 8.5 0 0 1 7.8-4.8c1.8 0 3.4.4 4.7 1.2a8 8 0 0 1 3 3.3 10.3 10.3 0 0 1 1 5.9h-13.8a6 6 0 0 0 1.8 3.8c1 .9 2.3 1.3 3.6 1.3 1.1 0 2-.2 2.9-.7.8-.5 1.4-1.2 2-2l3.2 1.5c-.9 1.4-2 2.6-3.3 3.4-1.4.9-3 1.3-4.9 1.3Zm4.6-11.6a4.3 4.3 0 0 0-2.2-3.4 5 5 0 0 0-2.6-.6c-1.2 0-2.3.3-3.1 1-.9.8-1.5 1.8-1.8 3h9.7Zm11.3-14h8.7c1.5 0 2.9.3 4 1 1.3.6 2.3 1.5 3 2.7a7 7 0 0 1 1.2 4c0 1.4-.4 2.7-1.1 4a8.5 8.5 0 0 1-7 3.7h-4.8V60h-4V35Zm8.8 11.6a4.1 4.1 0 0 0 3.7-2 3.8 3.8 0 0 0 0-3.8 4.3 4.3 0 0 0-3.7-2.1h-4.8v8h4.8Zm9.2-11.6h3.8v25h-3.8V35Zm11.3 25.6a9 9 0 0 1-3.4-.7c-1-.5-1.8-1.3-2.4-2.2a6 6 0 0 1-.8-3.1c0-1.9.7-3.3 2-4.4 1.5-1 3.2-1.6 5.4-1.6a12.1 12.1 0 0 1 4.8 1v-1c0-1-.4-2-1.3-2.6-.8-.7-1.8-1-3.1-1-1 0-1.8.1-2.6.5a5 5 0 0 0-1.9 1.7l-2.7-2.1c.8-1.1 1.8-2 3-2.5 1.3-.7 2.7-1 4.3-1 2.6 0 4.6.7 6 2 1.4 1.2 2 3 2 5.3V60h-3.7v-2h-.2a6 6 0 0 1-2.2 1.8c-.9.5-2 .8-3.2.8Zm.7-3.2a4.8 4.8 0 0 0 4.9-4.9 8.8 8.8 0 0 0-4.1-1c-1.5 0-2.5.3-3.2.9-.7.6-1 1.3-1 2.2 0 .8.3 1.5 1 2 .6.6 1.4.8 2.4.8Zm15.5 1.7-7.4-16.9h4.3l5 12.1h.2l4.9-12.1h4.2l-11 25.4h-4L241 59Z" fill="#fff"/>
  </g>
  <defs>
    <clipPath id="a">
      <path fill="#fff" transform="matrix(1 0 0 -1 0 80)" d="M0 0h270v80H0z"/>
    </clipPath>
  </defs>
</svg>
