<svg width="180" height="54" fill="none" xmlns="http://www.w3.org/2000/svg">
  <path d="M173.33 54H6.67A6.73 6.73 0 0 1 0 47.25V6.75C0 3.04 3 0 6.67 0h166.66A6.73 6.73 0 0 1 180 6.75v40.5c0 3.71-3 6.75-6.67 6.75Z" fill="#000"/>
  <path d="m27.63 26.22-14.2 15.26a3.84 3.84 0 0 0 5.65 2.35l.05-.03 15.97-9.33-7.48-8.25Z" fill="#EA4335"/>
  <path d="m41.98 23.63-.01-.02-6.9-4.05-7.77 7 7.8 7.9 6.86-4a3.89 3.89 0 0 0 2.02-3.43c0-1.47-.8-2.75-2-3.4Z" fill="#FBBC04"/>
  <path d="M13.43 12.52a3.7 3.7 0 0 0-.13 1v26.96c0 .35.04.68.13 1L28.1 26.62l-14.68-14.1Z" fill="#4285F4"/>
  <path d="m27.73 27 7.34-7.44-15.96-9.37a3.85 3.85 0 0 0-5.69 2.33L27.73 27Z" fill="#34A853"/>
  <path d="M61.8 17.33h-1v-7.09h-3.99v7.1h-1V9.35h5.98v7.97Z" fill="#fff"/>
  <path d="M61.8 17.33v-.13h-.87v-7.1h-4.25v7.1h-.74V9.49h5.72v7.84h.27v-8.1h-6.26v8.24h1.28v-7.1h3.72v7.1h1.26v-.14h-.14Zm3.4-3.96h.8c.8 0 1.37-.13 1.73-.39.35-.25.53-.67.53-1.23 0-.52-.16-.9-.5-1.15-.32-.26-.84-.39-1.54-.39H65.2v3.16Zm4.1-1.67c0 .82-.27 1.44-.83 1.88-.56.43-1.34.65-2.35.65h-.92v3.1h-1V9.36h2.1c2 0 3 .78 3 2.34Z" fill="#fff"/>
  <path d="M65.2 13.37v.13h.8a3.2 3.2 0 0 0 1.8-.4c.4-.3.6-.76.6-1.35 0-.54-.18-.98-.55-1.26-.37-.28-.92-.4-1.63-.41h-1.15v3.42h.13v-.13h.14v-3.02h.88c.68 0 1.17.12 1.46.35.3.23.45.56.45 1.05 0 .54-.17.9-.48 1.12-.32.23-.87.36-1.65.36h-.8v.14Zm4.1-1.67h-.13c0 .79-.26 1.36-.78 1.77-.53.41-1.28.63-2.27.63h-1.05v3.1h-.74V9.49h1.98c.98 0 1.7.2 2.16.56.47.36.7.9.7 1.65h.27c0-.8-.27-1.44-.8-1.86a3.74 3.74 0 0 0-2.33-.62h-2.24v8.25h1.27v-3.1h.78c1.03 0 1.84-.23 2.43-.69.6-.46.9-1.13.89-1.98h-.13Zm6.34 5.63h-4.46V9.36h4.46v.88h-3.46v2.49h3.26v.87h-3.26v2.85h3.46v.88Z" fill="#fff"/>
  <path d="M75.64 17.33v-.13H71.3V9.49h4.2v.62h-3.46v2.75h3.25v.6h-3.25v3.12h3.45v.75h.27v-1.01h-3.45v-2.59h3.25V12.6h-3.25v-2.23h3.45V9.22h-4.72v8.25h4.72v-.14h-.13Zm6.36-.89v-6.18h-1.81c-.07.9-.3 1.96-.67 3.17a14.7 14.7 0 0 1-1.25 3H82Zm2 3h-.95v-2.1h-5.5v2.1h-.95v-3h.61c.54-.92 1-2.03 1.4-3.33.4-1.31.62-2.56.7-3.75h3.68v7.08h1.02v3Z" fill="#fff"/>
  <path d="M82 16.44h.13v-6.31h-2.07v.12c-.07.9-.3 1.94-.66 3.14a14.6 14.6 0 0 1-1.24 2.98l-.12.2h4.09v-.13h-.14v-.13h-3.72v.13l.12.07c.47-.81.89-1.82 1.26-3.04.38-1.21.6-2.28.67-3.2h-.13v.13h1.67v6.04h.13Zm2 3v-.14h-.82v-2.1h-5.76v2.1h-.69v-2.73h.56l.04-.06a15.4 15.4 0 0 0 1.4-3.37c.4-1.31.64-2.57.7-3.78h-.13v.13h3.56v7.08h1.01v2.86h.27v-3.12h-1.01V9.22h-3.95v.13a16.2 16.2 0 0 1-.7 3.72c-.39 1.3-.85 2.4-1.38 3.3l.11.07v-.13h-.75v3.26h1.23v-2.1h5.22v2.1h1.23v-.14H84Zm7.3-2.11h-1v-7.09h-2.53l-.17 1.3a49.2 49.2 0 0 1-.6 3.85c-.17.77-.4 1.3-.67 1.61-.27.3-.65.46-1.12.46a1.9 1.9 0 0 1-.73-.14v-.84c.2.1.4.14.62.14.29 0 .52-.18.69-.54.17-.37.35-1.19.55-2.46.2-1.28.4-2.7.6-4.26h4.36v7.97Z" fill="#fff"/>
  <path d="M91.3 17.33v-.13h-.87v-7.1h-2.78l-.18 1.42a48.88 48.88 0 0 1-.6 3.84 3.54 3.54 0 0 1-.64 1.55c-.25.28-.57.41-1.02.41-.25 0-.48-.04-.67-.12l-.06.12h.14v-.84h-.14l-.05.12c.2.1.43.15.67.15.35 0 .63-.23.8-.62.19-.4.37-1.2.57-2.5.2-1.27.4-2.7.6-4.26l-.13-.01v.13h4.23v7.84h.26v-8.1h-4.61l-.02.11c-.2 1.56-.4 2.98-.6 4.26a11.4 11.4 0 0 1-.53 2.42c-.17.34-.34.46-.57.47-.2 0-.39-.05-.56-.13l-.19-.09v1.14l.08.04c.24.1.5.14.78.14.5 0 .92-.16 1.22-.5.3-.33.53-.89.7-1.68.17-.78.37-2.06.6-3.85l.16-1.19h2.27v7.1h1.27v-.14h-.13Zm6.14-3.36-.9-2.41-.38-1.2c-.1.44-.22.84-.34 1.2l-.9 2.41h2.52Zm1.26 3.36-.96-2.47h-3.17l-.95 2.47h-1.01l3.11-8h.91l3.11 8H98.7Z" fill="#fff"/>
  <path d="m97.44 13.97.12-.04-.9-2.42-.51-1.64-.12.46c-.1.43-.22.83-.34 1.18l.13.05-.13-.05-.97 2.6h2.9l-.06-.18-.12.04v-.13H95.1l.84-2.24c.13-.37.24-.77.35-1.2l-.13-.04-.13.04.39 1.2.9 2.42.12-.05Zm1.26 3.36.12-.05-.99-2.55h-3.35l-.95 2.47h-.73l3.02-7.74h.72l3 7.74h-.84v.27h1.23l-3.2-8.28h-1.1l-3.22 8.28h1.3l.95-2.47h2.99l.96 2.47h.09v-.14Zm6.86-7.97v.9h-3.5v7.07h-1V9.36h4.5Z" fill="#fff"/>
  <path d="M105.56 9.36h-.13v.76h-3.5v7.08h-.74V9.49h4.37v-.27h-4.63v8.25h1.27v-7.08h3.5V9.22h-.14v.14Zm4.94 4.61-.9-2.41-.38-1.2c-.1.44-.22.84-.34 1.2l-.9 2.41h2.52Zm1.26 3.36-.96-2.47h-3.17l-.94 2.47h-1.02l3.11-8h.91l3.11 8h-1.04Z" fill="#fff"/>
  <path d="m110.5 13.97.12-.04-.89-2.42-.38-1.19-.14-.45-.12.46c-.1.43-.22.83-.34 1.18l.13.05-.13-.05-.97 2.6h2.91l-.07-.18-.12.04v-.13h-2.33l.83-2.24c.13-.37.24-.77.35-1.2l-.13-.04-.12.04.38 1.2.9 2.42.12-.05Zm1.26 3.36.12-.05-.99-2.55h-3.35l-.95 2.47h-.72l3-7.74h.73l3 7.74h-.84v.27H113l-3.22-8.28h-1.09l-3.22 8.28h1.3l.95-2.47h2.99l.96 2.47h.09v-.14Zm8.9-7.2a2.5 2.5 0 0 0-2.02.86 3.5 3.5 0 0 0-.74 2.36c0 1.02.24 1.82.72 2.38.47.56 1.15.83 2.03.83.57 0 1.2-.1 1.92-.31v.87a4.92 4.92 0 0 1-2.06.32 3.44 3.44 0 0 1-2.71-1.07 4.42 4.42 0 0 1-.95-3.04c0-.82.15-1.54.45-2.16.3-.61.75-1.09 1.33-1.43a4.92 4.92 0 0 1 4.25-.03l-.4.85a4.37 4.37 0 0 0-1.82-.43Z" fill="#fff"/>
  <path d="M120.66 10.13v-.14c-.88 0-1.6.3-2.12.91-.52.6-.77 1.43-.77 2.45 0 1.04.24 1.87.75 2.46.5.6 1.23.89 2.13.89.59 0 1.24-.11 1.95-.33l-.03-.12h-.13v.87h.13l-.05-.12c-.33.12-.64.2-.95.24-.3.05-.66.07-1.06.07-1.15 0-2-.35-2.61-1.03-.61-.68-.92-1.66-.92-2.95 0-.8.15-1.5.44-2.1.3-.6.71-1.05 1.27-1.37a3.9 3.9 0 0 1 1.98-.48c.83 0 1.55.15 2.15.45l.06-.12-.12-.06-.4.86.11.05.06-.12a4.52 4.52 0 0 0-1.87-.45v.27c.55 0 1.14.14 1.76.42l.12.06.52-1.09-.12-.06a5 5 0 0 0-2.27-.48c-.8 0-1.5.17-2.11.52a3.5 3.5 0 0 0-1.38 1.49 4.96 4.96 0 0 0-.47 2.21c0 1.33.32 2.38.99 3.13a3.57 3.57 0 0 0 2.81 1.12 5.06 5.06 0 0 0 2.1-.33l.1-.04v-1.14l-.18.05a7 7 0 0 1-1.88.31c-.85 0-1.48-.26-1.93-.79-.45-.53-.68-1.28-.68-2.3 0-.97.23-1.72.7-2.27.47-.54 1.1-.8 1.92-.81v-.13Zm8.33 7.2h-4.46V9.36H129v.88h-3.46v2.49h3.26v.87h-3.25v2.85H129v.88Z" fill="#fff"/>
  <path d="M128.99 17.33v-.13h-4.33V9.49h4.2v.62h-3.46v2.75h3.25v.6h-3.25v3.12h3.45v.75h.27v-1.01h-3.45v-2.59h3.25V12.6h-3.25v-2.23h3.45V9.22h-4.72v8.25h4.72v-.14H129Zm6.11-3.73v2.88h1.6c.65 0 1.12-.12 1.43-.37.31-.25.47-.62.47-1.12 0-.48-.17-.83-.5-1.06a2.59 2.59 0 0 0-1.47-.34h-1.53Zm0-.85h1.47c.63 0 1.08-.1 1.37-.3.28-.2.42-.53.42-1 0-.44-.16-.75-.47-.95a2.9 2.9 0 0 0-1.47-.29h-1.32v2.54Zm-1-3.4h2.27c1.07 0 1.84.17 2.31.48.48.32.72.82.72 1.5 0 .47-.13.87-.4 1.17-.25.31-.63.5-1.12.6v.05c.62.11 1.07.32 1.36.64.28.32.43.75.43 1.27 0 .72-.24 1.27-.73 1.67-.49.4-1.17.6-2.04.6h-2.8V9.36Z" fill="#fff"/>
  <path d="M135.1 13.6h-.14v3.02h1.75c.65 0 1.16-.13 1.5-.4.35-.28.52-.7.52-1.23 0-.5-.18-.92-.55-1.17a2.71 2.71 0 0 0-1.55-.36h-1.67v.13h.14v.13h1.53c.64 0 1.1.12 1.4.32.29.2.43.5.43.95 0 .47-.14.8-.41 1.02-.27.22-.72.34-1.34.34h-1.48v-2.76h-.13Zm0-.85v.13h1.47c.64 0 1.12-.1 1.44-.32.33-.23.49-.62.48-1.11 0-.47-.17-.84-.53-1.06a3 3 0 0 0-1.54-.31h-1.46v2.8h.14v-.13h.13v-2.4h1.19c.66 0 1.13.1 1.4.27s.4.42.4.83c0 .44-.12.72-.36.9-.25.17-.68.27-1.29.27h-1.47v.13Zm-1-3.4v.14h2.27c1.05 0 1.8.16 2.24.46.43.29.65.73.65 1.38 0 .45-.12.8-.35 1.09-.24.28-.58.46-1.05.55l-.11.02v.28l.1.02c.6.1 1.03.3 1.29.6.26.28.4.67.4 1.17 0 .69-.23 1.2-.69 1.57a3 3 0 0 1-1.95.57h-2.67V9.36h-.27v8.1h2.94c.9 0 1.6-.2 2.12-.62a2.2 2.2 0 0 0 .78-1.78c0-.55-.15-1-.47-1.36a2.4 2.4 0 0 0-1.43-.68l-.02.13h.13v-.05h-.13l.02.13c.52-.1.93-.3 1.21-.64.28-.34.42-.76.42-1.26 0-.7-.26-1.26-.77-1.6a4.4 4.4 0 0 0-2.4-.5h-2.4v.13h.13ZM142.58 40h2.49V23.33h-2.49V40ZM165 29.34l-2.85 7.22h-.09l-2.96-7.22h-2.68l4.44 10.1-2.53 5.61h2.6l6.84-15.71H165Zm-14.1 8.77c-.82 0-1.96-.41-1.96-1.42 0-1.29 1.41-1.78 2.64-1.78 1.1 0 1.6.24 2.27.56a3.02 3.02 0 0 1-2.96 2.64Zm.3-9.14c-1.81 0-3.68.8-4.45 2.55l2.21.93c.47-.93 1.35-1.23 2.27-1.23 1.3 0 2.6.78 2.62 2.15v.17a5.5 5.5 0 0 0-2.6-.64c-2.38 0-4.8 1.3-4.8 3.75 0 2.23 1.95 3.67 4.14 3.67a3.5 3.5 0 0 0 3.17-1.63h.09v1.28h2.4v-6.39c0-2.96-2.2-4.6-5.06-4.6Zm-15.38 2.4h-3.54v-5.72h3.53a2.89 2.89 0 0 1 2.92 2.86 2.9 2.9 0 0 1-2.91 2.86Zm-.07-8.04h-5.96V40h2.49v-6.32h3.47c2.76 0 5.47-2 5.47-5.17 0-3.18-2.71-5.18-5.47-5.18Zm-32.5 14.78c-1.72 0-3.16-1.44-3.16-3.42 0-2 1.44-3.45 3.15-3.45 1.7 0 3.03 1.46 3.03 3.45 0 1.98-1.33 3.42-3.03 3.42Zm2.85-7.84h-.1a3.93 3.93 0 0 0-2.98-1.27 5.64 5.64 0 0 0-5.44 5.7c0 3.17 2.6 5.64 5.44 5.64 1.35 0 2.43-.6 2.98-1.28h.09v.81c0 2.17-1.16 3.33-3.03 3.33a3.14 3.14 0 0 1-2.86-2.02l-2.17.9a5.4 5.4 0 0 0 5.03 3.35c2.92 0 5.4-1.71 5.4-5.9V29.35h-2.37v.92Zm4.08 9.73h2.5V23.33h-2.5V40Zm6.17-5.5a3.11 3.11 0 0 1 2.96-3.3c.99 0 1.83.49 2.1 1.2l-5.06 2.1Zm7.73-1.89c-.47-1.27-1.91-3.6-4.85-3.6-2.93 0-5.35 2.29-5.35 5.66 0 3.18 2.4 5.67 5.62 5.67 2.6 0 4.1-1.59 4.73-2.5l-1.93-1.3a3.24 3.24 0 0 1-2.8 1.57 2.89 2.89 0 0 1-2.75-1.72l7.59-3.13-.26-.65Zm-60.41-1.87v2.4h5.76a5.02 5.02 0 0 1-1.32 3.04 5.9 5.9 0 0 1-4.44 1.76 6.32 6.32 0 0 1-6.32-6.4A6.32 6.32 0 0 1 68 26.85l1.7-1.7a8.4 8.4 0 0 0-6.04-2.42 8.93 8.93 0 0 0-8.94 8.8 8.93 8.93 0 0 0 8.94 8.81c2.62 0 4.6-.86 6.14-2.47 1.6-1.59 2.09-3.82 2.09-5.62a7.8 7.8 0 0 0-.13-1.5h-8.1Zm14.77 7.37c-1.72 0-3.2-1.42-3.2-3.44 0-2.04 1.48-3.43 3.2-3.43 1.72 0 3.2 1.4 3.2 3.43 0 2.02-1.48 3.44-3.2 3.44Zm0-9.1a5.59 5.59 0 0 0-5.7 5.66 5.6 5.6 0 0 0 5.7 5.67 5.6 5.6 0 0 0 5.7-5.67 5.59 5.59 0 0 0-5.7-5.67Zm12.42 9.1c-1.72 0-3.2-1.42-3.2-3.44 0-2.04 1.48-3.43 3.2-3.43 1.72 0 3.2 1.4 3.2 3.43 0 2.02-1.48 3.44-3.2 3.44Zm0-9.1a5.59 5.59 0 0 0-5.7 5.66 5.6 5.6 0 0 0 5.7 5.67 5.6 5.6 0 0 0 5.69-5.67 5.59 5.59 0 0 0-5.7-5.67Z" fill="#fff"/>
</svg>
