<svg width="180" height="54" fill="none" xmlns="http://www.w3.org/2000/svg">
  <path d="M173.3 54H6.7A6.7 6.7 0 0 1 0 47.2V6.8C0 3 3 0 6.7 0h166.6a6.7 6.7 0 0 1 6.7 6.8v40.5c0 3.7-3 6.7-6.7 6.7Z" fill="#000"/>
  <path d="M27.6 26.2 13.4 41.5a3.8 3.8 0 0 0 5.7 2.3l16-9.3-7.5-8.3Z" fill="#EA4335"/>
  <path d="m42 23.6-7-4-7.7 7 7.8 7.9 6.9-4a3.9 3.9 0 0 0 2-3.5 4 4 0 0 0-2-3.4Z" fill="#FBBC04"/>
  <path d="M13.4 12.5a3.7 3.7 0 0 0-.1 1v27l.1 1 14.7-14.9-14.7-14Z" fill="#4285F4"/>
  <path d="m27.7 27 7.4-7.4-16-9.4a3.9 3.9 0 0 0-5.7 2.3L27.7 27Z" fill="#34A853"/>
  <path d="M61.8 17.3h-1v-7h-4v7h-1v-8h6v8Z" fill="#fff"/>
  <path d="M61.8 17.3v-.1h-.9v-7.1h-4.2v7.1h-.8V9.5h5.8v7.8h.2v-8h-6.2v8.2h1.2v-7.1h3.8v7h1.2-.1Zm3.4-4h.8c.8 0 1.4 0 1.7-.3.4-.3.6-.7.6-1.3 0-.5-.2-.9-.5-1.1-.4-.3-.9-.4-1.6-.4h-1v3.2Zm4.1-1.6c0 .8-.3 1.4-.8 1.9-.6.4-1.4.6-2.4.6h-.9v3.1h-1v-8h2.1c2 0 3 .8 3 2.4Z" fill="#fff"/>
  <path d="M65.2 13.4v.1h.8a3.2 3.2 0 0 0 1.8-.4c.4-.3.6-.8.6-1.4 0-.5-.2-1-.6-1.2-.3-.3-.9-.4-1.6-.4h-1.1v3.4h.1v-.1h.1v-3h1c.6 0 1 0 1.4.3.3.2.4.6.4 1 0 .6-.1 1-.5 1.2-.3.2-.8.3-1.6.3h-.8v.2Zm4.1-1.7h-.1c0 .8-.3 1.4-.8 1.8-.5.4-1.3.6-2.3.6h-1v3.1h-.8V9.5h2c1 0 1.7.2 2.2.6.4.3.7.9.7 1.6h.2c0-.8-.2-1.4-.8-1.9a3.7 3.7 0 0 0-2.3-.6h-2.2v8.3h1.2v-3.1h.8c1 0 1.9-.3 2.5-.7a2 2 0 0 0 .8-2Zm6.3 5.6h-4.4v-8h4.4v1h-3.4v2.4h3.2v.9h-3.2v2.9h3.4v.8Z" fill="#fff"/>
  <path d="M75.6 17.3v-.1h-4.3V9.5h4.2v.6H72V13h3.3v.6H72v3h3.5v.8h.3v-1h-3.5v-2.6h3.3v-1.1h-3.3v-2.2h3.5V9.2H71v8.3h4.8v-.2h-.2Zm6.4-.9v-6.1h-1.8c0 .9-.3 2-.7 3.1a14.7 14.7 0 0 1-1.2 3H82Zm2 3h-1v-2h-5.5v2h-.9v-3h.6a16.6 16.6 0 0 0 2.1-7H83v7h1v3Z" fill="#fff"/>
  <path d="M82 16.4h.1v-6.3h-2v.2c-.1.9-.3 1.9-.7 3a14.6 14.6 0 0 1-1.2 3l-.2.3h4.1v-.2h-3.8v.1a14.6 14.6 0 0 0 2-6.2h-.1v.1h1.7v6Zm2 3v-.1h-.8v-2.1h-5.8v2.1h-.7v-2.7h.6a15.4 15.4 0 0 0 1.4-3.5c.4-1.3.7-2.5.7-3.7h-.1 3.6v7.2h1v2.8h.2v-3h-1V9.1h-4v.2a16.2 16.2 0 0 1-.6 3.7 15 15 0 0 1-1.4 3.3h.1-.7v3.2h1.2v-2.1h5.2v2h1.2-.1Zm7.3-2h-1v-7.2h-2.5l-.2 1.3a49.2 49.2 0 0 1-.6 3.9c-.2.8-.4 1.3-.7 1.6-.2.3-.6.5-1 .5a1.9 1.9 0 0 1-.8-.2v-.8l.6.1c.3 0 .5-.2.7-.5.2-.4.3-1.2.5-2.5l.6-4.2h4.4v8Z" fill="#fff"/>
  <path d="M91.3 17.3v-.1h-.9v-7.1h-2.8l-.1 1.4a48.9 48.9 0 0 1-.6 3.9 3.5 3.5 0 0 1-.7 1.5c-.2.3-.5.4-1 .4l-.7-.1v.1h.1v-.8h-.1v.1l.6.1c.3 0 .6-.2.8-.6a152.2 152.2 0 0 0 1.2-6.8h-.2v.2h4.3v7.8h.2v-8h-4.6l-.6 4.3a11.4 11.4 0 0 1-.5 2.4c-.2.4-.4.5-.6.5l-.6-.1-.1-.1v1.1l.8.2c.5 0 1-.2 1.2-.5.3-.3.6-.9.7-1.7l.6-3.8.2-1.2h2.3v7h1.2-.1Zm6.1-3.3-.9-2.4-.3-1.2-.4 1.2L95 14h2.5Zm1.3 3.3-1-2.4h-3.1l-1 2.4h-1l3.1-8h1l3 8h-1Z" fill="#fff"/>
  <path d="M97.4 14h.2l-1-2.5-.4-1.6-.2.4c0 .5-.2.9-.3 1.2h.1-.1l-1 2.6h3l-.1-.2H95l.8-2.3.4-1.2H96l.4 1.2 1 2.4Zm1.3 3.3h.1l-1-2.6h-3.3l-1 2.5h-.7l3-7.7h.7l3 7.7h-.8v.3h1.2l-3.2-8.3h-1l-3.3 8.3h1.3l1-2.5h3l1 2.5v-.2Zm6.9-8v1H102v7h-1v-8h4.5Z" fill="#fff"/>
  <path d="M105.6 9.4h-.2v.7H102v7.1h-.7V9.5h4.4v-.3H101v8.3h1.3v-7.1h3.5V9.2h-.1v.2Zm4.9 4.6-.9-2.4-.4-1.2-.3 1.2-1 2.4h2.6Zm1.3 3.3-1-2.4h-3.2l-1 2.4h-1l3.2-8h.9l3.1 8h-1Z" fill="#fff"/>
  <path d="M110.5 14h.1l-.9-2.5-.3-1.2-.2-.4-.1.4-.3 1.2-1 2.6h2.9V14h-2.5l.8-2.3.3-1.2h-.2l.4 1.2.9 2.4h.1Zm1.3 3.3-1-2.6h-3.3l-1 2.5h-.6l3-7.7h.7l3 7.7h-.8v.3h1.2l-3.2-8.3h-1.1l-3.2 8.3h1.3l1-2.5h3l.9 2.5v-.2Zm8.9-7.2a2.5 2.5 0 0 0-2 .9 3.5 3.5 0 0 0-.8 2.4c0 1 .2 1.8.7 2.3.5.6 1.2.9 2 .9a5 5 0 0 0 2-.4v1a5 5 0 0 1-2 .2 3.4 3.4 0 0 1-2.8-1 4.4 4.4 0 0 1-1-3c0-.9.2-1.6.5-2.2.3-.6.8-1.1 1.3-1.5a5 5 0 0 1 4.3 0l-.4.9a4.4 4.4 0 0 0-1.8-.5Z" fill="#fff"/>
  <path d="M120.7 10.1V10c-1 0-1.6.3-2.2.9-.5.6-.7 1.4-.7 2.5 0 1 .2 1.8.7 2.4.5.6 1.2.9 2.1.9l2-.3v-.1h-.2v.8h.2V17l-1 .2-1 .1c-1.2 0-2-.3-2.7-1-.6-.7-1-1.7-1-3 0-.8.2-1.5.5-2 .3-.7.7-1.1 1.3-1.4a3.9 3.9 0 0 1 2-.5c.8 0 1.5.1 2.1.4v-.1l-.4.8h.1a4.5 4.5 0 0 0-1.8-.5v.3c.5 0 1.1.1 1.7.4h.1l.6-1-.2-.1a5 5 0 0 0-2.2-.5c-.8 0-1.5.2-2.1.5a3.5 3.5 0 0 0-1.4 1.5 5 5 0 0 0-.5 2.2c0 1.4.3 2.4 1 3.2a3.6 3.6 0 0 0 2.8 1 5 5 0 0 0 2.1-.2h.1V16h-.2a7 7 0 0 1-1.9.3c-.8 0-1.4-.2-1.9-.8-.4-.5-.7-1.2-.7-2.3 0-1 .3-1.7.7-2.2.5-.6 1.1-.8 2-.8V10Zm8.3 7.2h-4.5v-8h4.5v1h-3.5v2.4h3.3v.9h-3.3v2.9h3.5v.8Z" fill="#fff"/>
  <path d="M129 17.3v-.1h-4.3V9.5h4.2v.6h-3.5V13h3.3v.6h-3.3v3h3.5v.8h.2v-1h-3.4v-2.6h3.2v-1.1h-3.2v-2.2h3.4V9.2h-4.7v8.3h4.7v-.2h-.1Zm6.1-3.7v2.9h1.6c.7 0 1.1-.1 1.4-.4.3-.2.5-.6.5-1.1 0-.5-.2-.8-.5-1a2.6 2.6 0 0 0-1.5-.4h-1.5Zm0-.9h1.5c.6 0 1 0 1.3-.3.3-.2.5-.5.5-1a1 1 0 0 0-.5-.9 2.9 2.9 0 0 0-1.5-.3h-1.3v2.5Zm-1-3.4h2.3c1 0 1.8.2 2.3.5.5.3.7.8.7 1.5 0 .5-.1.9-.4 1.2-.2.3-.6.5-1.1.6.6.2 1 .4 1.3.7.3.3.5.7.5 1.3a2 2 0 0 1-.8 1.6c-.4.4-1.1.6-2 .6h-2.8v-8Z" fill="#fff"/>
  <path d="M135.1 13.6h-.1v3h1.7c.7 0 1.2-.1 1.5-.4.4-.3.5-.7.5-1.2s-.1-1-.5-1.2a2.7 2.7 0 0 0-1.6-.3H135h.1v.2h1.5c.7 0 1.1.1 1.4.3.3.2.5.5.5 1s-.2.8-.4 1c-.3.2-.8.4-1.4.4h-1.5v-2.8h-.1Zm0-.8h1.5c.6 0 1 0 1.4-.2.3-.3.5-.7.5-1.1 0-.5-.2-.9-.5-1.1a3 3 0 0 0-1.6-.3H135v2.8h.1v-.2h.1v-2.4h1.2c.7 0 1.1.1 1.4.3s.4.4.4.8c0 .5-.1.8-.3 1l-1.3.2H135v.1Zm-1-3.5v.2h2.3c1 0 1.8.2 2.2.5.4.2.7.7.7 1.3 0 .5-.2.8-.4 1.1-.2.3-.6.5-1 .6h-.1v.3c.6 0 1 .3 1.3.6.3.3.4.7.4 1.2 0 .7-.2 1.2-.7 1.5a3 3 0 0 1-1.9.6h-2.7V9.4h-.2v8h2.9c.9 0 1.6-.1 2.1-.6a2.2 2.2 0 0 0 .8-1.7c0-.6-.1-1-.5-1.4a2.4 2.4 0 0 0-1.4-.7v.2h.1V13h-.1v.1a2 2 0 0 0 1.2-.6c.3-.3.4-.8.4-1.3 0-.7-.2-1.2-.7-1.6a4.4 4.4 0 0 0-2.4-.5H134v.2Zm8.5 30.7h2.5V23.3h-2.5V40ZM165 29.3l-2.9 7.3-3-7.3h-2.7l4.5 10.1-2.6 5.7h2.6l6.9-15.8H165Zm-14.1 8.8c-.8 0-2-.4-2-1.4 0-1.3 1.4-1.8 2.7-1.8 1 0 1.6.2 2.2.6a3 3 0 0 1-3 2.6Zm.3-9.1c-1.8 0-3.7.8-4.4 2.5l2.2 1c.4-1 1.3-1.3 2.2-1.3 1.3 0 2.6.8 2.7 2.2v.1a5.5 5.5 0 0 0-2.6-.6c-2.4 0-4.8 1.3-4.8 3.8 0 2.2 1.9 3.6 4 3.6a3.5 3.5 0 0 0 3.3-1.6V40h2.5v-6.4c0-3-2.2-4.6-5.1-4.6Zm-15.4 2.4h-3.5v-5.8h3.5a2.9 2.9 0 0 1 3 3 2.9 2.9 0 0 1-3 2.8Zm0-8h-6V40h2.5v-6.3h3.5c2.7 0 5.4-2 5.4-5.2s-2.7-5.2-5.4-5.2ZM103.3 38c-1.8 0-3.2-1.4-3.2-3.4s1.4-3.5 3.1-3.5c1.7 0 3 1.5 3 3.5s-1.3 3.4-3 3.4Zm2.8-7.8h-.1a4 4 0 0 0-3-1.3 5.6 5.6 0 0 0-5.4 5.7c0 3.2 2.6 5.6 5.4 5.6a4 4 0 0 0 3-1.2v.8c0 2.1-1 3.3-3 3.3a3.1 3.1 0 0 1-2.8-2L98 42a5.4 5.4 0 0 0 5 3.3c3 0 5.5-1.7 5.5-5.9v-10H106v.9Zm4 9.7h2.6V23.3h-2.5V40Zm6.3-5.5a3.1 3.1 0 0 1 3-3.3c.9 0 1.7.5 2 1.2l-5 2.1Zm7.7-1.9c-.5-1.3-2-3.6-4.9-3.6-2.9 0-5.3 2.3-5.3 5.7 0 3.1 2.4 5.6 5.6 5.6 2.6 0 4.1-1.5 4.7-2.5l-1.9-1.3a3.2 3.2 0 0 1-2.8 1.6 2.9 2.9 0 0 1-2.7-1.7l7.5-3.1-.2-.7Zm-60.4-1.9V33h5.7a5 5 0 0 1-1.3 3 5.9 5.9 0 0 1-4.4 1.8 6.3 6.3 0 0 1-6.3-6.4A6.3 6.3 0 0 1 68 27l1.7-1.7a8.4 8.4 0 0 0-6-2.5 9 9 0 0 0-9 8.8 9 9 0 0 0 9 8.8 8 8 0 0 0 6.1-2.4c1.6-1.6 2-3.8 2-5.6a7.8 7.8 0 0 0 0-1.5h-8.1ZM78.4 38c-1.7 0-3.2-1.4-3.2-3.4s1.5-3.5 3.2-3.5c1.8 0 3.2 1.4 3.2 3.5 0 2-1.4 3.4-3.2 3.4Zm0-9a5.6 5.6 0 0 0-5.7 5.6 5.6 5.6 0 0 0 5.7 5.6 5.6 5.6 0 0 0 5.7-5.6 5.6 5.6 0 0 0-5.7-5.7ZM91 38c-1.8 0-3.2-1.4-3.2-3.4s1.4-3.5 3.2-3.5c1.7 0 3.2 1.4 3.2 3.5 0 2-1.5 3.4-3.2 3.4Zm0-9a5.6 5.6 0 0 0-5.7 5.6 5.6 5.6 0 0 0 5.7 5.6 5.6 5.6 0 0 0 5.7-5.6 5.6 5.6 0 0 0-5.7-5.7Z" fill="#fff"/>
</svg>
