<svg width="180" height="54" fill="none" xmlns="http://www.w3.org/2000/svg">
  <path d="M173.33 54H6.67A6.73 6.73 0 0 1 0 47.25V6.75C0 3.04 3 0 6.67 0h166.66A6.73 6.73 0 0 1 180 6.75v40.5c0 3.71-3 6.75-6.67 6.75Z" fill="#000"/>
  <path d="m27.63 26.22-14.2 15.26a3.84 3.84 0 0 0 5.65 2.35l.05-.03 15.97-9.33-7.48-8.25Z" fill="#EA4335"/>
  <path d="m41.98 23.63-.01-.02-6.9-4.05-7.77 7 7.8 7.9 6.86-4a3.89 3.89 0 0 0 2.02-3.43c0-1.47-.8-2.75-2-3.4Z" fill="#FBBC04"/>
  <path d="M13.43 12.52a3.7 3.7 0 0 0-.13 1v26.96c0 .35.04.68.13 1L28.1 26.62l-14.68-14.1Z" fill="#4285F4"/>
  <path d="m27.73 27 7.34-7.44-15.96-9.37a3.85 3.85 0 0 0-5.69 2.33L27.73 27Z" fill="#34A853"/>
  <path d="M131.52 32h2.17V17.43h-2.17V32Zm19.59-9.32L148.6 29h-.07l-2.59-6.32h-2.34l3.88 8.83-2.21 4.9h2.27l5.97-13.73h-2.41Zm-12.34 7.67c-.7 0-1.7-.36-1.7-1.24 0-1.13 1.24-1.56 2.3-1.56.96 0 1.41.2 1.99.49a2.64 2.64 0 0 1-2.59 2.3Zm.27-7.99c-1.58 0-3.2.7-3.88 2.23l1.93.8c.4-.8 1.18-1.06 1.98-1.06 1.13 0 2.27.67 2.29 1.87v.15a4.8 4.8 0 0 0-2.27-.56c-2.08 0-4.2 1.14-4.2 3.28 0 1.95 1.71 3.2 3.62 3.2 1.46 0 2.27-.65 2.78-1.42h.07v1.13h2.1v-5.59c0-2.59-1.93-4.03-4.42-4.03Zm-13.44 2.1h-3.1v-5h3.1a2.52 2.52 0 0 1 2.55 2.5c0 1.12-.93 2.5-2.55 2.5Zm-.06-7.03h-5.21V32h2.17v-5.52h3.04c2.41 0 4.78-1.75 4.78-4.52 0-2.78-2.37-4.53-4.78-4.53ZM97.13 30.35c-1.5 0-2.77-1.26-2.77-2.99 0-1.74 1.26-3.02 2.77-3.02 1.48 0 2.64 1.28 2.64 3.02 0 1.73-1.16 2.99-2.64 2.99Zm2.5-6.86h-.08a3.43 3.43 0 0 0-2.61-1.1 4.93 4.93 0 0 0-4.75 4.97 4.9 4.9 0 0 0 4.75 4.94c1.18 0 2.12-.53 2.6-1.13h.08v.72c0 1.9-1.01 2.9-2.65 2.9a2.74 2.74 0 0 1-2.5-1.76l-1.89.8a4.72 4.72 0 0 0 4.4 2.92c2.55 0 4.7-1.5 4.7-5.16v-8.9h-2.06v.8Zm3.56 8.51h2.18V17.43h-2.18V32Zm5.39-4.8a2.72 2.72 0 0 1 2.59-2.9c.86 0 1.6.43 1.84 1.05l-4.43 1.84Zm6.76-1.66c-.42-1.1-1.67-3.15-4.25-3.15-2.55 0-4.67 2-4.67 4.95 0 2.78 2.1 4.96 4.92 4.96a4.93 4.93 0 0 0 4.13-2.2l-1.69-1.12a2.83 2.83 0 0 1-2.44 1.37c-1.1 0-1.9-.5-2.4-1.5l6.62-2.75-.22-.56Zm-52.8-1.63V26h5.02a4.39 4.39 0 0 1-1.14 2.65 5.15 5.15 0 0 1-3.89 1.54c-3.1 0-5.52-2.5-5.52-5.6a5.52 5.52 0 0 1 9.32-4.1l1.48-1.47a7.34 7.34 0 0 0-5.28-2.13 7.8 7.8 0 0 0-7.8 7.7 7.8 7.8 0 0 0 7.8 7.7c2.3 0 4.02-.75 5.37-2.16a6.95 6.95 0 0 0 1.82-4.92c0-.49-.03-.94-.1-1.31h-7.09Zm12.9 6.44c-1.5 0-2.8-1.24-2.8-3 0-1.79 1.3-3.01 2.8-3.01 1.5 0 2.8 1.22 2.8 3 0 1.77-1.3 3-2.8 3Zm0-7.96a4.89 4.89 0 0 0-4.97 4.95 4.9 4.9 0 0 0 4.98 4.96 4.9 4.9 0 0 0 4.97-4.96 4.89 4.89 0 0 0-4.97-4.95Zm10.86 7.96c-1.5 0-2.8-1.24-2.8-3 0-1.79 1.3-3.01 2.8-3.01 1.5 0 2.8 1.22 2.8 3 0 1.77-1.3 3-2.8 3Zm0-7.96a4.89 4.89 0 0 0-4.98 4.95 4.9 4.9 0 0 0 4.98 4.96 4.9 4.9 0 0 0 4.98-4.96 4.89 4.89 0 0 0-4.98-4.95ZM57.59 46.55a.69.69 0 0 1-.71.7l-.31-.08-.29-.21-.25-.26-.18-.24a4.89 4.89 0 0 1-.85-1.72 5.8 5.8 0 0 1-.12-2.75 4.61 4.61 0 0 1 .97-1.97c.25-.31.54-.61.88-.9l.44.77c-.26.18-.49.4-.68.64a4.33 4.33 0 0 0-.93 2.48 4.96 4.96 0 0 0 .9 2.97l.18-.1.23-.04c.2 0 .37.07.51.2.14.14.2.3.2.5Z" fill="#fff"/>
  <path d="M57.59 46.55h-.13c0 .16-.06.29-.17.4a.55.55 0 0 1-.41.17v.13l.03-.13-.28-.08-.26-.18-.24-.25-.18-.23-.1.08.1-.08a4.76 4.76 0 0 1-.82-1.68 5.62 5.62 0 0 1-.12-2.68 4.44 4.44 0 0 1 .94-1.92c.25-.3.53-.6.86-.87l-.08-.1-.12.06.44.76.12-.06-.08-.11a4.46 4.46 0 0 0-1.66 3.24 5.1 5.1 0 0 0 .92 3.04l.06.1.28-.15.2-.04-.02-.13v.13c.17 0 .3.06.42.17a.6.6 0 0 1 .17.4h.26a.81.81 0 0 0-.25-.59.83.83 0 0 0-.6-.24l-.25.04h-.02l-.21.11.06.12.11-.08a5.42 5.42 0 0 1-.87-2.9 4.13 4.13 0 0 1 1.55-3l.1-.06-.5-.86-.07-.14-.13.1a6.16 6.16 0 0 0-1.52 1.9 4.74 4.74 0 0 0-.44 2.95 5.84 5.84 0 0 0 1.06 2.67l.19.24v.01l.25.26.01.01.3.21.02.02.33.1h.04c.23 0 .44-.09.6-.25a.82.82 0 0 0 .24-.6h-.13Zm7.3-2.48a2.9 2.9 0 0 1-.8 2.01 2.66 2.66 0 0 1-1.93.8c-1.3 0-2.3-.64-3-1.93-.38-.71-.77-1.94-1.15-3.7l.78-.15c.2.8.36 1.46.52 1.99.15.53.29.92.4 1.19.3.61.65 1.07 1.06 1.38.41.3.88.46 1.4.46.28 0 .53-.05.77-.16a1.92 1.92 0 0 0 1-1.1c.1-.25.15-.51.15-.8a3.07 3.07 0 0 0-.45-1.67 1.79 1.79 0 0 0-.57-.56 1.5 1.5 0 0 0-.8-.21.86.86 0 0 0-.62.22.73.73 0 0 0-.23.55c0 .18.04.34.12.49.08.14.2.25.36.33l-.05-.26.05-.28.16-.23.23-.16.27-.05.3.06.22.17.14.23.05.25c0 .3-.1.56-.32.75-.21.2-.5.3-.85.3a1.38 1.38 0 0 1-1.08-.47 1.52 1.52 0 0 1-.3-.5c-.06-.2-.1-.41-.1-.63a1.43 1.43 0 0 1 .5-1.1 1.67 1.67 0 0 1 1.15-.44 2.33 2.33 0 0 1 1.93.99c.23.3.4.64.51 1.02.12.39.18.79.18 1.2Zm1.3-4.96v.8h-8.75v-.8h8.75Z" fill="#fff"/>
  <path d="M64.89 44.07h-.13a2.77 2.77 0 0 1-.77 1.92 2.52 2.52 0 0 1-1.83.76c-1.25 0-2.2-.6-2.89-1.87-.37-.68-.75-1.9-1.13-3.66l-.13.03.02.13.78-.15-.02-.13-.13.03c.2.8.37 1.47.52 2 .15.53.3.93.42 1.2.3.63.66 1.11 1.1 1.44a2.38 2.38 0 0 0 2.29.31 2.05 2.05 0 0 0 1.08-1.17c.1-.27.16-.55.16-.84 0-.32-.04-.63-.12-.93-.08-.3-.2-.58-.36-.83a1.92 1.92 0 0 0-.61-.6 1.63 1.63 0 0 0-.87-.22 1 1 0 0 0-.7.25.86.86 0 0 0-.28.65c0 .2.04.39.13.55.1.17.24.3.42.39l.23.1-.08-.48.04-.23.12-.19.19-.12.22-.04.24.05.18.13.12.19.04.23.13-.03h-.13c0 .28-.1.48-.28.66-.18.17-.43.25-.76.25-.21 0-.4-.03-.56-.1a1.2 1.2 0 0 1-.42-.32 1.4 1.4 0 0 1-.27-.46 1.8 1.8 0 0 1-.1-.58 1.29 1.29 0 0 1 .46-1 1.57 1.57 0 0 1 1.06-.4c.4 0 .74.08 1.04.25.31.17.57.4.79.68.21.28.37.6.49.98.1.37.17.76.17 1.17h.26c0-.43-.06-.85-.18-1.25s-.3-.75-.53-1.06a2.72 2.72 0 0 0-.87-.75c-.34-.2-.74-.29-1.17-.29a1.79 1.79 0 0 0-1.24.47 1.6 1.6 0 0 0-.54 1.2 2 2 0 0 0 .1.67c.08.2.19.4.33.55a1.52 1.52 0 0 0 1.18.51c.38 0 .7-.1.94-.33.24-.22.37-.51.37-.85v-.01l-.06-.27v-.02l-.16-.25-.01-.03-.24-.18-.03-.01-.32-.07h-.02l-.31.05h-.03l-.25.18-.02.01-.17.25-.01.03-.07.32.06.29.13-.02.05-.13a.6.6 0 0 1-.3-.26.89.89 0 0 1-.1-.43.6.6 0 0 1 .2-.45c.13-.12.3-.19.52-.19.28 0 .52.07.73.2.2.12.39.3.53.51.14.22.25.47.32.75s.1.56.1.86a2.05 2.05 0 0 1-.5 1.35c-.16.18-.35.31-.57.41-.22.1-.45.16-.71.16-.5 0-.93-.15-1.32-.44a3.46 3.46 0 0 1-1.01-1.33l-.12.06.12-.06a9.6 9.6 0 0 1-.4-1.17c-.16-.52-.33-1.19-.52-1.98l-.03-.13-1.04.2.03.14c.38 1.76.77 3 1.16 3.73.71 1.32 1.77 2.01 3.12 2a2.8 2.8 0 0 0 2.64-1.77 3 3 0 0 0 .22-1.17h-.13Zm1.3-4.96h-.13v.66h-8.5v-.52h8.63v-.27H57.3v1.05h9.03v-1.05h-.14v.13Zm11.62 2.17a1.8 1.8 0 0 0-.3-.6 2.7 2.7 0 0 0-1.1-.87 1.66 1.66 0 0 0-1.05-.1c-.13.03-.25.08-.36.13l-.34.2-.36.27c.2.01.4.06.55.15a1.34 1.34 0 0 1 .68 1.6l-.15.3 2.43-1.08Zm2.32-2.17v.8h-1.52v6.76h-.8v-4.59l-3.46 1.56-.31-.68.4-.2a2 2 0 0 0 .32-.43c.1-.17.14-.38.14-.63l-.07-.32-.2-.26-.3-.18a1.06 1.06 0 0 0-.37-.06h-.17l-.4.35-.29-.69c.84-1.09 1.73-1.63 2.67-1.63.76 0 1.44.33 2.04 1v-.8h2.32Z" fill="#fff"/>
  <path d="m77.81 41.28.13-.04a1.92 1.92 0 0 0-.32-.64 2.85 2.85 0 0 0-1.16-.91 1.8 1.8 0 0 0-1.13-.1c-.13.03-.26.07-.39.13l-.35.2-.38.28-.27.21.35.03a1.2 1.2 0 0 1 1.1.8c.04.15.07.3.07.46l-.06.32.13.04-.12-.06-.32.63 2.88-1.28-.03-.1-.13.03-.05-.13-2.44 1.08.06.12.12.06.15-.29v-.01c.05-.13.08-.27.08-.41 0-.19-.03-.37-.1-.54a1.44 1.44 0 0 0-.71-.82c-.19-.1-.39-.15-.61-.17l-.01.14.08.1.36-.26-.08-.11.07.11.34-.2-.07-.11.06.12.33-.11-.03-.13.03.13a1.53 1.53 0 0 1 .97.09 2.53 2.53 0 0 1 1.04.82c.14.18.23.36.28.55l.13-.03Zm2.32-2.17H80v.66h-1.53v6.76h-.53v-4.66l-3.52 1.6-.2-.45.28-.14.02-.01.02-.02c.12-.13.24-.28.34-.46.1-.19.16-.42.16-.7l-.08-.34v-.03l-.23-.28-.01-.03-.33-.18-.02-.01a1.2 1.2 0 0 0-.41-.08h-.22l-.3.27-.22-.52-.12.05.1.09c.84-1.08 1.7-1.59 2.57-1.59.72 0 1.35.31 1.94.97l.23.25v-1.01h2.2v-.27h-2.46v.94h.13l.1-.1a2.83 2.83 0 0 0-2.14-1.04c-1 0-1.92.58-2.78 1.68l-.04.06.32.77.08.17.5-.45h.1l.33.06.05-.13-.07.12.28.16.17.22.07.29.12-.03h-.13c0 .24-.04.42-.12.56-.1.16-.2.3-.3.4l.09.1-.06-.12-.4.2-.12.05.37.8.05.13 3.4-1.53v4.51h1.06v-6.77h1.52v-1.05h-.13v.13Zm3.8 0v.8h-.54c-.24 0-.41.08-.5.23a.93.93 0 0 0-.15.52v6.56h-.8v-5.81c0-.19-.01-.37-.06-.55a1.69 1.69 0 0 0-.2-.48 1.07 1.07 0 0 0-.32-.35.8.8 0 0 0-.46-.13h-.55v-.79h.55a1.5 1.5 0 0 1 .85.25l.29.23.16.23c.06-.2.2-.36.4-.5.22-.14.47-.2.78-.2h.55Z" fill="#fff"/>
  <path d="M83.93 39.11h-.13v.66h-.42c-.26 0-.48.1-.61.3-.11.16-.17.36-.17.59v6.43h-.52V41.4c0-.2-.02-.4-.07-.59a1.8 1.8 0 0 0-.21-.51c-.1-.16-.22-.29-.37-.39a.93.93 0 0 0-.53-.15h-.41v-.52h.41a1.44 1.44 0 0 1 .78.22l.07-.11-.08.1.27.22.3.44.08-.26c.05-.16.17-.3.36-.43l-.08-.11.08.11c.18-.12.41-.18.7-.18h.55v-.27h-.55c-.33 0-.61.07-.85.23a1.1 1.1 0 0 0-.46.57l.13.04.1-.07-.15-.24-.02-.01-.3-.24v-.01a1.61 1.61 0 0 0-.92-.27h-.69v1.05h.68c.15 0 .28.04.38.11.12.08.21.18.3.3a2.17 2.17 0 0 1 .24.96v5.95h1.05v-6.7a.8.8 0 0 1 .12-.44c.07-.1.19-.16.4-.18v-.13.13h.68v-1.05h-.14v.13Zm7.67 0v.8h-1.52v6.76h-.8v-1.44c0-.2-.02-.41-.09-.65a4.28 4.28 0 0 0-1.18-2.01 2.54 2.54 0 0 0-.59-.42 1.4 1.4 0 0 0-.64-.16c-.36 0-.65.1-.86.3-.22.19-.33.46-.33.82l.05.28.13.26.2.19.26.07h.13l.12-.04-.17-.23-.06-.3.05-.27.15-.23.23-.15.28-.05c.2 0 .37.06.5.2.14.14.2.3.2.5 0 .24-.04.43-.14.6a1.43 1.43 0 0 1-.83.66 1.6 1.6 0 0 1-.47.07 1.4 1.4 0 0 1-.98-.43 1.62 1.62 0 0 1-.44-1.13 1.82 1.82 0 0 1 1.22-1.75 2.35 2.35 0 0 1 2.21.34c.43.32.78.76 1.06 1.31v-3.1h-5.14v-.8h7.46Z" fill="#fff"/>
  <path d="M91.6 39.11h-.13v.66h-1.52v6.76h-.53v-1.3c0-.21-.03-.44-.1-.68a4.35 4.35 0 0 0-.68-1.46 4.1 4.1 0 0 0-.53-.62 2.7 2.7 0 0 0-.63-.44 1.53 1.53 0 0 0-.7-.18c-.38 0-.7.11-.95.33a1.2 1.2 0 0 0-.37.93v.01l.05.3v.02l.15.3.23.2.02.02.29.08h.19l.13-.04.19-.05-.28-.37-.05-.24.05-.22.12-.18.18-.12.26-.05-.03-.13v.13c.17 0 .3.05.4.17.12.11.17.24.18.4a1 1 0 0 1-.13.53 1.3 1.3 0 0 1-.76.6c-.16.05-.3.07-.43.07a1.26 1.26 0 0 1-.89-.39 1.47 1.47 0 0 1-.4-1.04 1.69 1.69 0 0 1 1.13-1.62 2.22 2.22 0 0 1 2.08.32c.42.3.76.72 1.03 1.26l.25.5v-3.8h-5.13v-.52h7.32v-.27h-7.59v1.05h5.13v2.98h.14l.12-.06a3.74 3.74 0 0 0-1.1-1.36 2.49 2.49 0 0 0-2.34-.35 1.97 1.97 0 0 0-1.17 2.56 1.54 1.54 0 0 0 .84.89c.19.08.38.12.58.12a1.72 1.72 0 0 0 1.02-.35c.16-.12.29-.27.4-.45.1-.2.16-.42.16-.66a.83.83 0 0 0-.24-.6.82.82 0 0 0-.6-.25h-.01l-.3.06h-.02l-.25.17-.02.01-.18.27-.06.3v.03l.06.33v.03l.2.25.1-.08-.03-.13-.1.03h-.1l-.2-.05-.17-.15-.11-.22-.05-.26-.13.02h.13c0-.33.1-.56.29-.73.18-.17.43-.26.77-.26.2 0 .4.05.58.15.2.1.39.23.56.4a3.86 3.86 0 0 1 .89 1.25 3.92 3.92 0 0 1 .35 1.31v1.57h1.06v-6.77h1.52v-1.05h-.13v.13ZM59.6 8.4v5.02h-.73v-.16c-.22-.3-.46-.45-.7-.45-.13 0-.28.03-.44.09l-.5.18-.54.18a1.63 1.63 0 0 1-1.09-.02 1.45 1.45 0 0 1-.72-.72 1.82 1.82 0 0 1-.13-.56l.73-.1c0 .23.06.42.17.57a.6.6 0 0 0 .5.23c.13 0 .28-.03.46-.08a17.72 17.72 0 0 0 1.08-.35c.18-.06.34-.08.47-.08.25 0 .48.07.7.22V8.4a.8.8 0 0 0-.08-.36l-.2-.3-.3-.19-.33-.06c-.33 0-.58.1-.75.3-.18.2-.27.47-.27.8h.09a.63.63 0 0 1 .66.64c0 .18-.07.33-.2.46a.63.63 0 0 1-.45.19.6.6 0 0 1-.37-.12l-.26-.3a1.66 1.66 0 0 1-.2-.76c0-.27.03-.53.11-.76.08-.24.19-.44.34-.62.14-.17.33-.3.55-.4a1.83 1.83 0 0 1 1.9.28 1.6 1.6 0 0 1 .5 1.2Z" fill="#fff"/>
  <path d="M59.6 8.4h-.14v4.88H59v-.07l-.03-.03c-.23-.32-.5-.5-.8-.5-.15 0-.31.03-.49.1-.16.05-.33.1-.5.17-.18.07-.35.13-.53.18-.17.05-.34.07-.5.07a1.3 1.3 0 0 1-.5-.09 1.11 1.11 0 0 1-.38-.25c-.1-.11-.2-.25-.26-.4a1.67 1.67 0 0 1-.13-.51l-.13.01.02.13.73-.09-.02-.13h-.13c0 .24.06.46.2.64.13.19.35.28.6.28.15 0 .31-.03.5-.09l.54-.17.53-.17a1.15 1.15 0 0 1 1.07.12l.21.13V8.4a.94.94 0 0 0-.1-.42v-.01l-.22-.3-.02-.02-.3-.2-.03-.02-.35-.07h-.03c-.35 0-.65.1-.86.34-.2.23-.3.54-.3.89v.14l.24-.02-.01-.13v.13a.5.5 0 0 1 .37.16c.1.1.15.21.15.36s-.04.26-.15.36a.5.5 0 0 1-.36.15l-.29-.09-.08.11.1-.09-.26-.3-.1.1.11-.07c-.06-.1-.1-.22-.14-.34a1.5 1.5 0 0 1-.04-.35c0-.27.03-.51.1-.73.08-.22.18-.41.32-.57.13-.16.3-.28.5-.37A1.71 1.71 0 0 1 59 7.3a1.43 1.43 0 0 1 .46 1.1h.27a1.72 1.72 0 0 0-1.77-1.76c-.3 0-.58.05-.82.16a1.73 1.73 0 0 0-.96 1.1c-.08.25-.12.52-.12.8a1.52 1.52 0 0 0 .22.83l.01.02.28.3.01.02c.13.1.28.14.45.14.2 0 .4-.08.55-.23a.76.76 0 0 0 .23-.55c0-.21-.08-.4-.23-.55a.77.77 0 0 0-.56-.23h-.1v.14h.14c0-.3.09-.54.24-.71.14-.17.35-.26.65-.26v-.13l-.02.13.3.06.25.16.2.28.1-.08-.12.05.07.3v3.98h.14l.07-.12a1.4 1.4 0 0 0-.78-.23c-.15 0-.32.02-.51.08a16.87 16.87 0 0 1-1.08.35c-.16.05-.3.07-.42.07-.19 0-.3-.05-.4-.17a.77.77 0 0 1-.14-.48v-.15l-.88.1-.13.02.02.13c.02.21.07.41.15.6.08.18.18.34.31.47.14.14.3.24.47.32a1.87 1.87 0 0 0 1.17.02c.19-.05.37-.1.55-.18l.5-.18c.15-.05.29-.07.4-.07.19 0 .38.1.59.38l.1-.07h-.13v.29h1V8.4h-.13Zm7.62-1.63c-.1-.25-.2-.43-.34-.54a1.2 1.2 0 0 0-.5-.24 3.1 3.1 0 0 0-.66-.09 9.24 9.24 0 0 1-1.46-.17c-.18-.04-.36-.1-.52-.17a1.84 1.84 0 0 1-.45-.3c-.15-.14-.29-.3-.42-.52-.3.13-.52.3-.69.52-.16.2-.24.45-.24.74 0 .2.04.37.13.49.1.12.23.21.41.28h4.74Zm1.27-.75a4.63 4.63 0 0 0-.87-.66 6.2 6.2 0 0 0-2.2-.79 6.65 6.65 0 0 0-1.94-.03c.06.15.14.27.25.36.12.1.25.16.39.22.14.05.3.1.46.12a43.14 43.14 0 0 1 1.56.17 3 3 0 0 1 .81.2c.23.09.42.23.58.4.16.19.29.44.39.76h1.27v.72h-4.41v4.28a2.08 2.08 0 0 0 .2.97c.07.13.17.24.28.33.11.08.25.12.4.12.21 0 .42-.04.65-.13.22-.09.44-.23.65-.44a1.64 1.64 0 0 0 .58-1.24c0-.44-.1-.72-.3-.85 0 .18-.06.33-.19.46a.64.64 0 0 1-.46.2l-.26-.06-.21-.14-.14-.2-.05-.26c0-.13.03-.24.09-.34l.23-.25.32-.15.36-.05c.21 0 .4.05.57.15.16.1.3.21.42.37a1.99 1.99 0 0 1 .15 1.99c-.14.29-.35.57-.64.85-.3.28-.59.48-.89.6-.3.13-.6.2-.89.2a1.4 1.4 0 0 1-1.27-.64 2.3 2.3 0 0 1-.26-.68 3.98 3.98 0 0 1-.08-.8V7.49h-1.82v6.71h-.73V7.5h-1.02v-.73h1.02a1.14 1.14 0 0 1-.18-.37 1.73 1.73 0 0 1 .73-1.92 4.1 4.1 0 0 1 2.3-.54 6.25 6.25 0 0 1 2.18.4c.4.14.8.32 1.2.53a6 6 0 0 1 1.12.8l-.35.35Z" fill="#fff"/>
  <path d="m67.22 6.77.12-.05c-.1-.26-.22-.46-.38-.6a1.35 1.35 0 0 0-.55-.26 3.4 3.4 0 0 0-.68-.09 10.55 10.55 0 0 1-1.44-.17 2.12 2.12 0 0 1-.5-.16 1.68 1.68 0 0 1-.41-.28 2.25 2.25 0 0 1-.4-.5l-.06-.1-.1.05c-.31.15-.56.33-.74.56a1.3 1.3 0 0 0-.27.83c0 .22.04.42.16.57l.1-.08-.1.08a1 1 0 0 0 .47.32l.02.01h4.95l-.07-.18-.12.05v-.13h-4.74v.13l.05-.13a.74.74 0 0 1-.35-.23c-.07-.09-.1-.22-.1-.41a1 1 0 0 1 .21-.66c.15-.2.36-.36.63-.48l-.05-.12-.11.07c.13.22.28.4.44.54a1.96 1.96 0 0 0 1.04.5 9.5 9.5 0 0 0 1.48.18c.24.02.45.04.63.09a1 1 0 0 1 .44.21c.11.1.22.25.3.49l.13-.05Zm1.27-.75.1-.1a4.75 4.75 0 0 0-.9-.67 6.32 6.32 0 0 0-2.25-.81c-.4-.07-.8-.11-1.18-.11-.28 0-.55.03-.8.08l-.16.03.06.15c.06.17.16.3.3.41.12.1.26.18.41.24.15.06.32.1.49.13l.5.06 1.07.12c.3.03.55.1.77.18.21.09.39.2.53.38.14.16.26.4.36.7l.03.1h1.24v.45h-4.42v4.41c0 .18.02.36.05.54.04.18.1.34.17.5.08.14.19.27.32.36.14.1.3.16.48.16a2.13 2.13 0 0 0 1.39-.6v-.01c.22-.22.39-.44.48-.67.1-.23.14-.45.14-.67 0-.45-.1-.79-.35-.96l-.21-.14v.25a.5.5 0 0 1-.15.37.5.5 0 0 1-.37.15v.13l.02-.13-.23-.05-.17-.1-.1-.17-.05-.23-.13.03h.13l.07-.27-.11-.07.1.09.2-.23.29-.13.34-.05-.02-.13v.14a1.03 1.03 0 0 1 .88.46 1.85 1.85 0 0 1 .13 1.85 3 3 0 0 1-1.45 1.39c-.28.12-.56.18-.84.18a1.26 1.26 0 0 1-1.15-.58c-.11-.17-.2-.38-.25-.62a3.9 3.9 0 0 1-.07-.78V7.36h-2.09v6.71h-.46V7.36H60.6V6.9h1.15l-.16-.2-.15-.33a1.59 1.59 0 0 1 .68-1.78c.5-.34 1.23-.52 2.23-.52a6.14 6.14 0 0 1 2.13.4 6.74 6.74 0 0 1 2.28 1.3l.08-.1-.1-.1-.34.35.1.1.09.1.35-.36.1-.1-.1-.1a6.12 6.12 0 0 0-1.16-.8 8.22 8.22 0 0 0-2.4-.86c-.38-.06-.72-.1-1.03-.1a4.2 4.2 0 0 0-2.38.57 1.86 1.86 0 0 0-.79 2.07c.04.15.11.29.2.4l.1-.07v-.13h-1.14v.99h1.02v6.7h1v-6.7h1.55v4.15c0 .29.03.57.08.83.06.27.15.5.28.72a1.6 1.6 0 0 0 1.38.7c.32 0 .63-.07.94-.2a3.33 3.33 0 0 0 1.6-1.53 2.2 2.2 0 0 0 .12-1.56c-.07-.21-.16-.4-.29-.56a1.5 1.5 0 0 0-.46-.41c-.19-.1-.4-.16-.63-.16h-.01l-.37.05h-.02l-.34.16-.02.01-.25.27h-.01v.02a.78.78 0 0 0-.12.4v.02l.06.3.16.23.01.02.24.15.02.02.28.05h.02a.76.76 0 0 0 .79-.79h-.13l-.07.12c.14.08.24.32.23.74a1.51 1.51 0 0 1-.54 1.15c-.2.2-.4.33-.6.4-.21.09-.4.13-.6.13a.53.53 0 0 1-.32-.1.84.84 0 0 1-.24-.28 1.54 1.54 0 0 1-.15-.42 2.49 2.49 0 0 1-.04-.49V7.63h4.42v-1h-1.41v.14l.13-.04c-.1-.33-.24-.6-.42-.8-.17-.2-.38-.35-.63-.45-.24-.1-.52-.16-.84-.2a46.68 46.68 0 0 0-1.56-.17 1.8 1.8 0 0 1-.43-.12 1.3 1.3 0 0 1-.35-.2l-.09.11.09-.1a.7.7 0 0 1-.22-.3l-.12.04.03.13c.24-.05.5-.07.75-.07a6.43 6.43 0 0 1 2.26.4 6.05 6.05 0 0 1 1.88 1.11l.1.1.09-.1-.1-.1Z" fill="#fff"/>
</svg>
