<svg width="180" height="54" fill="none" xmlns="http://www.w3.org/2000/svg">
  <path d="M173.3 54H6.7A6.7 6.7 0 0 1 0 47.2V6.8C0 3 3 0 6.7 0h166.6a6.7 6.7 0 0 1 6.7 6.8v40.5c0 3.7-3 6.7-6.7 6.7Z" fill="#000"/>
  <path d="M27.6 26.2 13.4 41.5a3.8 3.8 0 0 0 5.7 2.3l16-9.3-7.5-8.3Z" fill="#EA4335"/>
  <path d="m42 23.6-7-4-7.7 7 7.8 7.9 6.9-4a3.9 3.9 0 0 0 2-3.5 4 4 0 0 0-2-3.4Z" fill="#FBBC04"/>
  <path d="M13.4 12.5a3.7 3.7 0 0 0-.1 1v27l.1 1 14.7-14.9-14.7-14Z" fill="#4285F4"/>
  <path d="m27.7 27 7.4-7.4-16-9.4a3.9 3.9 0 0 0-5.7 2.3L27.7 27Z" fill="#34A853"/>
  <path d="M131.5 32h2.2V17.4h-2.2V32Zm19.6-9.3-2.5 6.3-2.7-6.3h-2.3l3.9 8.8-2.2 5h2.2l6-13.8h-2.4Zm-12.3 7.7c-.7 0-1.7-.4-1.7-1.3 0-1.1 1.2-1.5 2.3-1.5 1 0 1.4.2 2 .4a2.6 2.6 0 0 1-2.6 2.3Zm.2-8c-1.5 0-3.2.7-3.8 2.2l1.9.8c.4-.8 1.2-1 2-1 1.1 0 2.2.6 2.3 1.8v.2a4.8 4.8 0 0 0-2.3-.6c-2 0-4.2 1.1-4.2 3.3 0 2 1.7 3.2 3.6 3.2a3 3 0 0 0 2.8-1.4v1h2.2v-5.5c0-2.6-2-4-4.5-4Zm-13.4 2h-3.1v-5h3.1a2.5 2.5 0 0 1 2.6 2.6c0 1-1 2.5-2.6 2.5Zm0-7h-5.3V32h2.2v-5.5h3c2.5 0 4.8-1.8 4.8-4.5 0-2.8-2.3-4.6-4.8-4.6ZM97 30.4c-1.5 0-2.7-1.3-2.7-3 0-1.8 1.2-3 2.7-3 1.5 0 2.7 1.2 2.7 3 0 1.7-1.2 3-2.7 3Zm2.5-7a3.4 3.4 0 0 0-2.7-1 5 5 0 0 0-4.7 5 4.9 4.9 0 0 0 4.7 4.9c1.2 0 2.2-.5 2.6-1.1h.1v.7c0 1.9-1 2.9-2.6 2.9a2.7 2.7 0 0 1-2.5-1.8l-2 .8a4.7 4.7 0 0 0 4.5 3c2.5 0 4.7-1.5 4.7-5.2v-9h-2v.9Zm3.6 8.6h2.2V17.4h-2.2V32Zm5.4-4.8a2.7 2.7 0 0 1 2.6-2.9c.8 0 1.6.4 1.8 1l-4.4 1.9Zm6.7-1.7c-.4-1-1.6-3.1-4.2-3.1s-4.7 2-4.7 5c0 2.7 2.1 4.9 5 4.9a5 5 0 0 0 4-2.2l-1.6-1.1a2.8 2.8 0 0 1-2.5 1.3c-1 0-1.9-.5-2.4-1.5l6.7-2.7-.3-.6ZM62.5 24v2h5a4.4 4.4 0 0 1-1 2.6 5.2 5.2 0 0 1-4 1.6 5.5 5.5 0 0 1-5.5-5.6 5.5 5.5 0 0 1 9.3-4.1l1.5-1.5a7.3 7.3 0 0 0-5.3-2.1 7.8 7.8 0 0 0-7.8 7.7 7.8 7.8 0 0 0 7.8 7.7A7 7 0 0 0 68 30a7 7 0 0 0 1.8-4.9V24h-7.2Zm13 6.5a3 3 0 0 1-2.9-3c0-1.8 1.3-3 2.8-3 1.5 0 2.8 1.2 2.8 3 0 1.7-1.3 3-2.8 3Zm0-8a4.9 4.9 0 0 0-5 5 4.9 4.9 0 0 0 5 4.9 4.9 4.9 0 0 0 5-5 4.9 4.9 0 0 0-5-5Zm10.8 8c-1.5 0-2.8-1.3-2.8-3 0-1.8 1.3-3 2.8-3 1.5 0 2.8 1.2 2.8 3 0 1.7-1.3 3-2.8 3Zm0-8a4.9 4.9 0 0 0-5 5 4.9 4.9 0 0 0 5 4.9 4.9 4.9 0 0 0 5-5 4.9 4.9 0 0 0-5-5Zm-28.7 24a.7.7 0 0 1-.7.7h-.3l-.3-.2-.3-.3-.1-.2a4.9 4.9 0 0 1-.9-1.8 5.8 5.8 0 0 1-.1-2.7 4.6 4.6 0 0 1 1-2l.8-.9.5.8-.7.6a4.3 4.3 0 0 0-1 2.5 5 5 0 0 0 1 3l.1-.1h.3l.5.1.2.5Z" fill="#fff"/>
  <path d="M57.6 46.5h-.1l-.2.4a.6.6 0 0 1-.4.2v.1l-.3-.2-.2-.1-.3-.3-.1-.2h-.1a4.8 4.8 0 0 1-.8-1.7 5.6 5.6 0 0 1 0-2.7 4.4 4.4 0 0 1 .9-1.9l.8-.9h-.2l.5.8v-.2a4.5 4.5 0 0 0-1.7 3.2 5.1 5.1 0 0 0 1 3v.2l.3-.2h.2v-.2.2l.4.1a.6.6 0 0 1 .2.4h.2a.8.8 0 0 0-.2-.5.8.8 0 0 0-.6-.3h-.3l-.2.2h.2a5.4 5.4 0 0 1-1-2.9 4.1 4.1 0 0 1 1.6-3h.1l-.5-1h-.2a6.2 6.2 0 0 0-1.5 2 4.7 4.7 0 0 0-.4 2.9 5.8 5.8 0 0 0 1 2.7l.2.2.3.3.3.2.3.1c.3 0 .5 0 .7-.2a.8.8 0 0 0 .2-.6h-.1Zm7.3-2.4a2.9 2.9 0 0 1-.8 2 2.7 2.7 0 0 1-2 .8c-1.2 0-2.2-.7-3-2-.3-.7-.7-1.9-1-3.7l.7-.1.5 2 .4 1.2c.3.6.7 1 1 1.4.5.3 1 .4 1.5.4l.7-.1a2 2 0 0 0 1-1.1l.2-.8a3 3 0 0 0-.5-1.7 1.8 1.8 0 0 0-.5-.6 1.5 1.5 0 0 0-.8-.2.9.9 0 0 0-.6.2.7.7 0 0 0-.3.6l.1.5.4.3v-.5l.2-.3.2-.1h.6l.2.2.1.2v.2c0 .3 0 .6-.2.8-.3.2-.5.3-.9.3a1.4 1.4 0 0 1-1-.5 1.5 1.5 0 0 1-.4-.5v-.6a1.4 1.4 0 0 1 .4-1.1 1.7 1.7 0 0 1 1.2-.4 2.3 2.3 0 0 1 1.9 1l.5 1L65 44Zm1.3-5v.8h-8.8v-.8h8.8Z" fill="#fff"/>
  <path d="M64.9 44h-.1a2.8 2.8 0 0 1-.8 2 2.5 2.5 0 0 1-1.8.8c-1.3 0-2.2-.6-3-2-.3-.6-.7-1.8-1-3.6H58v.2l.8-.2v-.1h-.1a72.1 72.1 0 0 0 .9 3.2c.3.7.7 1.1 1.1 1.5a2.4 2.4 0 0 0 2.3.3 2 2 0 0 0 1-1.2c.2-.3.2-.5.2-.8v-1a3 3 0 0 0-.5-.8 2 2 0 0 0-.6-.6 1.6 1.6 0 0 0-.8-.2 1 1 0 0 0-.7.2.9.9 0 0 0-.3.7l.1.5.4.4.3.1-.1-.4v-.3l.2-.2h.1l.3-.1h.2l.2.2.1.1v.3h.2-.2c0 .2 0 .4-.2.6-.2.2-.5.3-.8.3l-.6-.1a1.2 1.2 0 0 1-.4-.4 1.4 1.4 0 0 1-.3-.4 1.8 1.8 0 0 1 0-.6 1.3 1.3 0 0 1 .4-1 1.6 1.6 0 0 1 1-.4c.5 0 .8 0 1.1.2l.8.7.5 1 .2 1.2h.2c0-.5 0-.9-.2-1.3l-.5-1a2.7 2.7 0 0 0-.9-.8 2 2 0 0 0-1.1-.3 1.8 1.8 0 0 0-1.3.5 1.6 1.6 0 0 0-.5 1.2 2 2 0 0 0 0 .7l.4.5a1.5 1.5 0 0 0 1.2.5c.4 0 .7 0 1-.3.2-.2.3-.5.3-.9v-.2l-.2-.3-.3-.2-.3-.1h-.3l-.3.2-.2.3v.6h.1v-.1a.6.6 0 0 1-.3-.3.9.9 0 0 1 0-.4.6.6 0 0 1 .1-.5l.6-.2.7.2c.2.2.4.3.5.6.2.2.3.4.3.7l.1.9a2 2 0 0 1-.5 1.3l-.5.4-.7.2c-.5 0-1-.2-1.4-.5a3.5 3.5 0 0 1-1-1.3 9.6 9.6 0 0 1-.4-1.2 35 35 0 0 1-.5-2l-1 .1v.2c.4 1.7.7 3 1.1 3.7.7 1.3 1.8 2 3.2 2a2.8 2.8 0 0 0 2.6-1.8 3 3 0 0 0 .2-1.1Zm1.3-4.9H66v.7h-8.5v-.6h8.6V39h-8.9v1h9v-1h-.1v.1Zm11.6 2.2a1.8 1.8 0 0 0-.3-.6 2.7 2.7 0 0 0-1-.9 1.7 1.7 0 0 0-1.1 0 2 2 0 0 0-.4 0l-.3.2-.4.3c.2 0 .4 0 .6.2a1.3 1.3 0 0 1 .6 1.6l-.1.3 2.4-1.1Zm2.3-2.2v.8h-1.5v6.8h-.8V42l-3.4 1.5-.4-.6.4-.2a2 2 0 0 0 .4-.5l.1-.6v-.3l-.3-.3-.3-.2a1 1 0 0 0-.3 0h-.2l-.4.3-.3-.7c.8-1 1.7-1.6 2.7-1.6.7 0 1.4.3 2 1V39h2.3Z" fill="#fff"/>
  <path d="M77.8 41.3h.1a2 2 0 0 0-.3-.7 2.9 2.9 0 0 0-1.1-1 1.8 1.8 0 0 0-1.2 0 2 2 0 0 0-.4.1l-.3.2-.4.3-.3.2h.4a1.2 1.2 0 0 1 1 .8l.2.5-.1.3h.1l-.4.6 2.9-1.2v-.1h-.2v-.1l-2.5 1v.2h.2l.2-.3v-.9a1.4 1.4 0 0 0-.8-.9l-.6-.1v.2l.4-.2V40v.2l.4-.2-.1-.2v.2l.4-.1v-.2.2a1.5 1.5 0 0 1 1 0 2.5 2.5 0 0 1 1 .9l.3.5h.1Zm2.3-2.2H80v.7h-1.5v6.7h-.6V42l-3.5 1.6-.2-.5.3-.1.4-.5.1-.7v-.4l-.3-.3-.3-.2a1.2 1.2 0 0 0-.4 0h-.3l-.3.2-.2-.5h-.1l.1.1c.8-1 1.7-1.6 2.6-1.6.7 0 1.3.3 2 1l.1.3v-1h2.2V39h-2.4v1h.1l.1-.2a2.8 2.8 0 0 0-2.1-1c-1 0-2 .6-2.8 1.7l.3.8v.2l.5-.5h.5l.2.2.2.2v.3h.2-.1c0 .2 0 .4-.2.6l-.3.4h.1l-.4.1h-.1l.3.9v.1l3.5-1.5v4.5h1V40h1.6v-1H80v.1Zm3.8 0v.8h-.5c-.3 0-.4 0-.5.2a1 1 0 0 0-.2.6v6.5H82V41a1.7 1.7 0 0 0-.2-.5 1 1 0 0 0-.3-.4.8.8 0 0 0-.5-.1h-.6v-.8h.6a1.5 1.5 0 0 1 .8.3l.3.2.2.2c0-.2.2-.3.4-.5l.8-.2h.5Z" fill="#fff"/>
  <path d="M84 39.1h-.2v.7h-.4c-.3 0-.5 0-.6.3a1 1 0 0 0-.2.6V47h-.5v-6.3a1.8 1.8 0 0 0-.3-.5l-.4-.4a1 1 0 0 0-.5-.1h-.4v-.6h.4a1.4 1.4 0 0 1 .8.3v-.2.1l.2.3.3.4.1-.3.4-.4h-.1l.8-.2h.5V39h-.5c-.3 0-.6 0-.9.2a1.1 1.1 0 0 0-.4.6h.2l-.1-.3-.4-.3a1.6 1.6 0 0 0-.9-.2h-.7v1h.7l.4.1.3.3a2.2 2.2 0 0 1 .2 1v6h1v-6.8a.8.8 0 0 1 .2-.4l.4-.2v.1h.7v-1h-.2v.1Zm7.6 0v.8h-1.5v6.8h-.8v-1.5l-.1-.6a4.3 4.3 0 0 0-1.2-2 2.5 2.5 0 0 0-.6-.5 1.4 1.4 0 0 0-.6-.1c-.4 0-.7 0-.9.3-.2.2-.3.5-.3.8v.3l.2.3.2.1.2.1h.2v-.3l-.2-.3.1-.2.1-.3.3-.1h.3l.5.1.2.5c0 .3 0 .5-.2.6a1.4 1.4 0 0 1-.8.7 1.6 1.6 0 0 1-.5 0 1.4 1.4 0 0 1-1-.4 1.6 1.6 0 0 1-.4-1 1.8 1.8 0 0 1 1.2-1.8 2.4 2.4 0 0 1 2.2.3c.5.3.8.8 1 1.3v-3h-5v-1h7.4Z" fill="#fff"/>
  <path d="M91.6 39.1h-.1v.7h-1.6v6.7h-.5v-2a4.3 4.3 0 0 0-.8-1.4 4.1 4.1 0 0 0-.5-.6 2.7 2.7 0 0 0-.6-.5 1.5 1.5 0 0 0-.7-.1c-.4 0-.7 0-1 .3a1.2 1.2 0 0 0-.3 1v.2l.2.3.2.2.3.1h.5l-.3-.4V43l.1-.2h.2l.3-.1v-.2.2l.4.1.1.4a1 1 0 0 1 0 .6 1.3 1.3 0 0 1-.8.6h-.5a1.3 1.3 0 0 1-.9-.3 1.5 1.5 0 0 1-.4-1 1.7 1.7 0 0 1 1.2-1.7 2.2 2.2 0 0 1 2 .3c.5.3.8.7 1 1.3l.3.5v-3.8h-5.1v-.5h7.3V39H84v1h5.2v3h.2a3.7 3.7 0 0 0-1-1.4 2.5 2.5 0 0 0-2.4-.4 2 2 0 0 0-1.2 2.6 1.5 1.5 0 0 0 .8.9l.6.1a1.7 1.7 0 0 0 1-.3l.4-.5.2-.7a.8.8 0 0 0-.2-.5.8.8 0 0 0-.6-.3h-.3l-.3.2-.2.3v.7l.2.3v-.3H86l-.2-.1-.1-.2V43h-.2.1c0-.3.1-.5.3-.7.2-.2.4-.3.8-.3.2 0 .4 0 .6.2.2 0 .4.2.5.4a3.9 3.9 0 0 1 1 1.2 4 4 0 0 1 .3 1.3v1.6h1V40h1.5v-1 .1Zm-32-30.7v5h-.7v-.1c-.2-.3-.5-.5-.7-.5l-.5.1-.5.2-.5.2a1.6 1.6 0 0 1-1.1 0 1.4 1.4 0 0 1-.7-.8 1.8 1.8 0 0 1-.1-.5l.7-.1.1.5a.6.6 0 0 0 .5.3l.5-.1a17.7 17.7 0 0 0 1-.4h.6c.2 0 .4 0 .7.2v-4a.8.8 0 0 0-.1-.4l-.2-.3-.3-.1-.3-.1c-.4 0-.6 0-.8.3-.2.2-.3.5-.3.8h.1a.6.6 0 0 1 .7.6c0 .2 0 .4-.2.5a.6.6 0 0 1-.5.2.6.6 0 0 1-.3-.1l-.3-.3a1.7 1.7 0 0 1-.2-.8l.1-.8.3-.6.6-.4a1.8 1.8 0 0 1 1.9.3 1.6 1.6 0 0 1 .5 1.2Z" fill="#fff"/>
  <path d="M59.6 8.4h-.1v4.9H59v-.1c-.3-.3-.5-.5-.8-.5h-.5l-.5.3-.6.1-.5.1a1.3 1.3 0 0 1-.5 0 1.1 1.1 0 0 1-.3-.3l-.3-.4a1.7 1.7 0 0 1-.1-.5h-.2.8v-.1h-.2l.2.6.6.3.5-.1.6-.2.5-.1a1.1 1.1 0 0 1 1 0l.3.2V8.4a1 1 0 0 0-.1-.4l-.2-.3-.3-.2-.4-.1c-.4 0-.7 0-1 .3l-.2.9v.1h.2v-.1.1a.5.5 0 0 1 .4.2l.1.3-.1.4a.5.5 0 0 1-.4.1h-.3l-.2-.3h-.1.1l-.1-.3a1.5 1.5 0 0 1 0-.4V8l.4-.6c0-.2.3-.3.5-.4a1.7 1.7 0 0 1 1.7.3 1.4 1.4 0 0 1 .5 1.1h.2A1.7 1.7 0 0 0 58 6.6a2 2 0 0 0-.9.2 1.7 1.7 0 0 0-1 1.1v.8a1.5 1.5 0 0 0 .2.8l.3.4.4.1c.2 0 .4 0 .6-.2a.8.8 0 0 0 .2-.6c0-.2 0-.4-.2-.5a.8.8 0 0 0-.6-.2c0-.2.1-.5.3-.6.1-.2.3-.3.7-.3v-.1.1h.2l.3.2.2.3v4.3h.2v-.1a1.4 1.4 0 0 0-.7-.3l-.6.1a16.9 16.9 0 0 1-1 .4H56l-.4-.1a.8.8 0 0 1 0-.5v-.2l-1 .1h-.1v.2c0 .2 0 .4.2.6 0 .2.1.3.3.4l.4.4a1.9 1.9 0 0 0 1.2 0l.6-.2.5-.2h.4c.2 0 .3 0 .6.3v.3h1V8.4h-.2Zm7.6-1.6c0-.3-.2-.5-.3-.6a1.2 1.2 0 0 0-.5-.2 3.1 3.1 0 0 0-.7-.1 9.2 9.2 0 0 1-1.4-.2l-.6-.1a1.8 1.8 0 0 1-.4-.3l-.4-.6c-.3.2-.6.3-.7.6a1 1 0 0 0-.3.7c0 .2 0 .4.2.5l.4.3h4.7Zm1.3-.8a4.6 4.6 0 0 0-.9-.6 6.2 6.2 0 0 0-2.2-.8 6.7 6.7 0 0 0-2 0l.3.3.4.2.5.1a43.1 43.1 0 0 1 1.5.2 3 3 0 0 1 .8.2c.3.1.5.2.6.4l.4.8h1.3v.7h-4.4v4.3a2 2 0 0 0 .2 1l.3.3h1l.7-.5a1.6 1.6 0 0 0 .5-1.2c0-.5 0-.7-.3-.9l-.1.5a.6.6 0 0 1-.5.2h-.3l-.2-.2-.1-.2v-.6l.3-.3.3-.1h.9l.4.5a2 2 0 0 1 .2 2 3 3 0 0 1-.7.8 3 3 0 0 1-.9.6l-.8.2a1.4 1.4 0 0 1-1.3-.6 2.3 2.3 0 0 1-.3-.7 4 4 0 0 1 0-.8V7.5h-1.9v6.7h-.7V7.5h-1v-.7h1a1.1 1.1 0 0 1-.2-.4 1.7 1.7 0 0 1 .7-2 4.1 4.1 0 0 1 2.3-.5 6.3 6.3 0 0 1 2.2.4l1.2.6a6 6 0 0 1 1.1.8l-.3.3Z" fill="#fff"/>
  <path d="M67.2 6.8h.1c0-.3-.2-.5-.3-.7a1.4 1.4 0 0 0-.6-.2 3.4 3.4 0 0 0-.7-.1 10.6 10.6 0 0 1-1.4-.2 2.1 2.1 0 0 1-.5-.2 1.7 1.7 0 0 1-.4-.2 2.3 2.3 0 0 1-.4-.5v-.1h-.2a2 2 0 0 0-.7.6 1.3 1.3 0 0 0-.3.8c0 .2 0 .4.2.6v-.1a1 1 0 0 0 .4.4h5v-.2h-4.9a.7.7 0 0 1-.3-.3L62 6a1 1 0 0 1 .2-.7c.1-.2.3-.3.6-.4v-.2l-.1.1c0 .2.2.4.4.5a2 2 0 0 0 1 .5 9.5 9.5 0 0 0 1.5.2l.6.1a1 1 0 0 1 .5.2l.3.5h.1Zm1.3-.8a4.8 4.8 0 0 0-.8-.8 6.3 6.3 0 0 0-2.3-.8 7 7 0 0 0-1.1 0 4 4 0 0 0-.8 0h-.2v.2l.4.4.4.2.5.2h.5l1 .1.8.2.5.4.4.7V7h1.3v.5h-4.5v4.9l.3.5.3.4.5.1a2.1 2.1 0 0 0 1.3-.6c.3-.2.4-.4.5-.7l.2-.6c0-.5-.1-.8-.4-1l-.2-.1v.2a.5.5 0 0 1-.1.4.5.5 0 0 1-.4.1v.2-.2h-.2l-.2-.1v-.2l-.1-.2h-.2.2v-.4l.2-.2h.3l.3-.1v-.2.2a1 1 0 0 1 1 .4 1.9 1.9 0 0 1 0 1.9 3 3 0 0 1-1.4 1.4l-.9.2a1.3 1.3 0 0 1-1.1-.6l-.3-.6a3.9 3.9 0 0 1 0-.8V7.4H62V14h-.5V7.4h-1v-.5h1.1l-.1-.2-.2-.3a1.6 1.6 0 0 1 .7-1.8 4 4 0 0 1 2.3-.5 6.1 6.1 0 0 1 2 .4 6.7 6.7 0 0 1 2.4 1.3v-.2l-.4.3.1.1v.1l.4-.3.1-.1v-.1a6.1 6.1 0 0 0-1.2-.8 8.2 8.2 0 0 0-2.4-.9l-1-.1a4.2 4.2 0 0 0-2.4.6 1.9 1.9 0 0 0-.8 2c0 .2 0 .3.2.4v-.2h-1v1h1v6.7h1V7.6h1.5v5l.4.7a1.6 1.6 0 0 0 1.3.7c.4 0 .7 0 1-.2a3.3 3.3 0 0 0 1.6-1.5 2.2 2.2 0 0 0 .1-1.6c0-.2-.2-.4-.3-.5a1.5 1.5 0 0 0-.4-.4l-.7-.2h-.4l-.3.2-.3.3a.8.8 0 0 0-.1.4v.3l.2.3.3.1.3.1a.8.8 0 0 0 .8-.8h-.2v.1l.2.8a1.5 1.5 0 0 1-.5 1.1c-.2.2-.4.4-.6.4l-.6.2a.5.5 0 0 1-.4-.1.8.8 0 0 1-.2-.3 1.5 1.5 0 0 1-.1-.4 2.5 2.5 0 0 1 0-.5V7.6h4.3v-1H68v.2h.1a2 2 0 0 0-.4-.9c-.1-.2-.3-.3-.6-.4l-.8-.2a46.7 46.7 0 0 0-1.6-.2 1.8 1.8 0 0 1-.4-.1 1.3 1.3 0 0 1-.4-.2v.1-.1a.7.7 0 0 1-.2-.3h-.1v.2l.8-.1a6.4 6.4 0 0 1 2.2.4 6 6 0 0 1 1.9 1.1l.1.1V6Z" fill="#fff"/>
</svg>
