<svg id="artwork" xmlns="http://www.w3.org/2000/svg" version="1.1" viewBox="0 0 240.4 70.9">
  <defs>
    <style>
      .st4{fill:#fff}
    </style>
  </defs>
  <rect x=".6" width="239.2" height="70.9" rx="9.9" ry="9.9"/>
  <path class="st4" d="M121.3 20.6c-4.1 0-7.5 3.1-7.5 7.5s3.4 7.5 7.5 7.5 7.6-3.2 7.6-7.5-3.4-7.6-7.6-7.6Zm0 12c-2.3 0-4.2-1.8-4.2-4.5s2-4.6 4.2-4.6 4.3 1.9 4.3 4.6-2 4.6-4.3 4.6Zm-16.5-12c-4.1 0-7.5 3.1-7.5 7.5s3.4 7.5 7.5 7.5 7.6-3.2 7.6-7.5-3.4-7.6-7.6-7.6Zm0 12c-2.3 0-4.2-1.8-4.2-4.5s2-4.6 4.2-4.6 4.3 1.9 4.3 4.6-2 4.6-4.3 4.6ZM85.2 23v3h7.6a6.7 6.7 0 0 1-1.7 4 7.8 7.8 0 0 1-5.9 2.3 8.4 8.4 0 0 1-8.4-8.5A8.4 8.4 0 0 1 91 17.7l2.2-2.3a11.1 11.1 0 0 0-8-3.2c-6.5 0-11.9 5.3-11.9 11.7s5.5 11.7 11.9 11.7c3.5 0 6.1-1 8.2-3.2a11 11 0 0 0 2.7-7.5l-.1-2H85.1Zm80.3 2.5c-.7-1.7-2.6-4.8-6.5-4.8s-7.1 3-7.1 7.5c0 4.2 3.2 7.5 7.5 7.5 3.4 0 5.4-2.1 6.2-3.3l-2.5-1.7c-.9 1.2-2 2-3.7 2s-3-.7-3.7-2.2l10.1-4.2-.3-.8ZM155.2 28a4 4 0 0 1 4-4.4c1.2 0 2.3.6 2.7 1.6l-6.7 2.8Zm-8.2 7.3h3.3V13H147v22.2Zm-5.4-13h-.1a5.2 5.2 0 0 0-4-1.6c-3.8 0-7.2 3.3-7.2 7.5s3.4 7.5 7.2 7.5c1.8 0 3.2-.8 4-1.7v1c0 3-1.5 4.4-4 4.4a4 4 0 0 1-3.7-2.6l-3 1.2c1 2 3.1 4.4 6.8 4.4 3.8 0 7.1-2.3 7.1-7.8V21h-3.1v1.3Zm-3.8 10.5c-2.3 0-4.2-2-4.2-4.6s1.9-4.6 4.2-4.6 4 2 4 4.6-1.8 4.6-4 4.6ZM181 13h-8v22.2h3.4v-8.4h4.6c3.7 0 7.3-2.7 7.3-7S184.7 13 181 13Zm0 10.7h-4.6v-7.6h4.7a3.8 3.8 0 1 1 0 7.6Zm20.5-3.2c-2.4 0-4.9 1-5.9 3.4l3 1.2c.6-1.2 1.7-1.6 3-1.6 1.6 0 3.4 1 3.4 2.8v.3c-.6-.4-1.9-.9-3.4-.9-3.2 0-6.4 1.8-6.4 5 0 3 2.6 4.9 5.5 4.9 2.2 0 3.4-1 4.2-2.2h.1v1.7h3.2v-8.4c0-4-3-6.2-6.7-6.2Zm-.4 12.1c-1 0-2.6-.5-2.6-1.8 0-1.7 1.9-2.4 3.5-2.4 1.5 0 2.2.3 3 .8a4 4 0 0 1-3.9 3.5ZM219.8 21l-3.8 9.6-4-9.6h-3.6l6 13.4L211 42h3.4l9.1-20.9h-3.7Zm-29.7 14.2h3.3V13H190v22.2Z"/>
  <path d="m37.3 34.4-18.8 20a5 5 0 0 0 7.4 3.1h.1l21.2-12.3-9.9-10.8Z" style="fill:#ea4335"/>
  <path d="m56.4 31-9.2-5.3L37 34.9l10.4 10.3 9-5.2a5 5 0 0 0 0-9h.1Z" style="fill:#fbbc04"/>
  <path d="m18.4 16.4-.1 1.4V53l.1 1.3L38 35 18.5 16.5Z" style="fill:#4285f4"/>
  <path d="m37.5 35.4 9.7-9.7L26 13.4a5.1 5.1 0 0 0-7.6 3l19 19Z" style="fill:#34a853"/>
  <path class="st4" d="M79 56.6a8 8 0 0 0-1.3-1.5c-.4-.5-1-.9-1.6-1.2s-1.3-.5-2-.6l-.6-1.4c.8 0 1.5-.2 2-.4l1-.7c.3-.3.3-.5.3-1 0-.2 0-.4-.2-.6 0-.2-.2-.3-.4-.4l-.8-.2c-.3 0-.6 0-.8.2l-.4.4a1 1 0 0 0-.2.6l.1.3.3.3-1-.4c0-.2 0-.4.2-.6l.5-.2.7.2.2.6c0 .2 0 .5-.2.6a1 1 0 0 1-.7.3c-.4 0-.7-.1-.9-.4-.2-.3-.3-.5-.3-.8 0-.4.1-.8.3-1s.5-.6.9-.8a3 3 0 0 1 1.3-.3c.5 0 1 .1 1.4.4s.7.4.9.8l.3 1.1c0 .6-.2 1-.5 1.4s-.7.7-1.3 1-1.2.4-2 .5v-.4c1 .1 1.8.4 2.4.7a6.2 6.2 0 0 1 2.6 2.4l-.1.2-.1-1c-.1-.3 0-.5 0-.8v-7h.8l.3.9h1.5v1H80v7.8h-1Z"/>
  <path class="st4" d="M81.2 48.8v-1h5.4v1h-5.4Zm3.8 7.9c-.5 0-1-.2-1.4-.5a3 3 0 0 1-1-1.3c-.3-.6-.4-1.2-.4-2a6 6 0 0 1 1.1-3.6c.4-.4.8-.8 1.3-1s1.1-.5 1.7-.5h.4v1h-.2a2 2 0 0 0-1.1.3 4 4 0 0 0-1.8 2.3 5.3 5.3 0 0 0 0 3.1c.2.4.3.7.6.9l.7.2h.6c.2 0 .3-.2.5-.3l-.7 1.1-.5-.1-.4-.3v-.6c0-.2 0-.5.2-.7.2-.2.4-.3.8-.3.3 0 .6.2.7.4l.3.7c0 .4-.1.7-.4.9s-.5.3-1 .3Z"/>
  <path class="st4" d="M92.4 56.6c-.3-.6-.6-1-1.1-1.5s-1-1-1.7-1.2-1.3-.6-2-.7l-.6-1.4a35.6 35.6 0 0 1 5.7-2.6l-.3.5v-1h-6v-1H98v1h-4.6v7.9h-1.1Zm0-1.3V50l.3.5-1.5.5-1.6.8-1.5.8v-.2a7.2 7.2 0 0 1 3.7 1.9c.4.3.6.7.8 1.1h-.1Zm3.3-1c-.3 0-.6-.1-.8-.3s-.4-.4-.4-.7c0-.3.1-.5.3-.7.2-.2.4-.3.7-.3l.6.3c.2.2.3.3.3.6l-.3.6a1 1 0 0 1-.7.3v-.9c.2 0 .4 0 .6-.2s.2-.4.2-.6c0-.4-.2-.7-.4-1s-.7-.6-1.2-.8a5 5 0 0 0-1.9-.3v-1c.6 0 1.2 0 1.8.2l1.4.6c.4.3.8.6 1 1s.4.9.4 1.4c0 .3 0 .6-.2.8 0 .3-.2.5-.5.7-.2.2-.5.3-.9.3Z"/>
  <path class="st4" d="M97.8 48.8v-1h5.4v1h-5.4Zm3.8 7.9c-.6 0-1-.2-1.5-.5-.4-.3-.7-.8-1-1.3s-.3-1.2-.3-2c0-.6 0-1.3.3-1.9l.8-1.6c.3-.4.8-1 1.3-1.2s1-.4 1.7-.4h.3v1c-.5 0-.9.1-1.2.3a4 4 0 0 0-1.8 2.3 5.3 5.3 0 0 0 0 3.1c.1.4.3.7.5.9s.5.2.7.2h.6l.6-.3-.8 1.1-.5-.1-.3-.3-.1-.6c0-.2 0-.5.3-.7.1-.2.4-.3.7-.3.4 0 .6.2.8.4s.3.4.3.7c0 .4-.1.7-.4.9s-.6.3-1 .3Zm13.1-.1a2 2 0 0 0-.3-.7c0-.2-.2-.3-.4-.4l-.7-.1a9.6 9.6 0 0 0-1.8.1h-2.1c-.3 0-.6-.2-1-.4-.2-.2-.5-.5-.7-1s-.3-.8-.3-1.5V52l.2-.7 1 .2v.5l-.1.7c0 .4 0 .8.2 1 .1.3.2.5.4.6l.7.3h1.6l.7-.2h1c.4 0 .8 0 1.1.3s.6.5.8 1h-.3v-5.9c0-.3 0-.6-.2-.8 0-.2-.3-.3-.7-.3l-1 .2-.7.6-.4.8a2 2 0 0 0-.2.7c0 .2 0 .3.2.5l.6.2-.2.9c-.3 0-.6-.1-.7-.3l-.3-.6c0-.2 0-.4.2-.5 0-.2.2-.3.3-.3l.5-.2.6.3c.2.2.3.4.3.7 0 .3 0 .6-.3.8s-.5.2-.9.2c-.2 0-.4 0-.6-.2l-.6-.5-.2-1 .3-1.2c.2-.4.3-.7.7-1l1-.9c.4-.2.8-.3 1.3-.3.6 0 1.1.2 1.5.6s.6.9.6 1.7v6.7h-1Zm5.7-.3c-.6 0-1.1-.2-1.4-.6-.4-.4-.5-1-.5-1.9v-5H117v-1h8v1h-5.4v5.1c0 .5 0 .8.2 1s.4.3.7.3c.4 0 .7 0 1-.2l.8-.7.6-1c.2-.2.2-.6.2-1 0-.3 0-.5-.2-.7s-.4-.2-.7-.2v-.8c.4 0 .7 0 .8.2l.3.7c0 .3-.1.6-.3.7l-.7.2c-.3 0-.5 0-.7-.2s-.3-.5-.3-.8c0-.3.1-.6.4-.8.2-.2.5-.3.8-.3.4 0 .6.1.9.3l.6.6c.2.3.2.6.2 1l-.3 1.5-.8 1.2c-.3.4-.8.7-1.2 1s-1 .3-1.4.3Zm2.4-8.5c0-.4-.1-.7-.3-1-.1-.1-.4-.2-.9-.2h-1.3a5 5 0 0 1-1.7-.2c-.4-.2-.8-.4-1-.7s-.4-.8-.4-1.3v-.7h1.1v.6c0 .5.1.8.4 1 .3.2.8.3 1.3.3h1.3c.6 0 1 0 1.4.2s.6.4.8.8.3.7.3 1.3h-1Z"/>
  <path class="st4" d="M126.2 56.6v-7.8h-1.5v-1h1.3l-.5-.7-.4-.7a5 5 0 0 1 1.8-1.9 5 5 0 0 1 2.6-.6 7.5 7.5 0 0 1 3.8 1c.6.4 1.2.8 1.8 1.4l-.6.6a11 11 0 0 0-1.8-1.2 6 6 0 0 0-3-.8c-.8 0-1.4.2-2 .4s-1 .7-1.3 1.2l.4.5.4.7h1.6v1h-1.5v7.9h-1.1Z"/>
  <path class="st4" d="M138.2 56.3c-.6 0-1.2-.2-1.7-.4s-1-.5-1.5-1-.9-1.2-1.2-2l-1-3 1-.2a15 15 0 0 0 1.1 3.2c.5.8 1 1.4 1.5 1.7.5.4 1.1.6 1.8.6.8 0 1.4-.2 1.8-.6s.6-.9.6-1.4c0-.5 0-.9-.2-1.2l-.5-.7.7-.2c-.2.5-.5.8-.8 1.1l-1 .7c-.3.2-.6.2-1 .2-.5 0-.9-.1-1.1-.5s-.4-.9-.4-1.6v-2.2h-4.1v-1h10.4v1h-5.2v2.5l.1.6.4.2c.3 0 .6-.1.9-.4l1-1.2.9-.2.7 1.4.2 1.4c0 .6-.1 1.2-.4 1.6-.2.5-.6.9-1.1 1.2s-1.1.4-1.9.4Z"/>
  <path class="st4" d="M146.3 47.8v1h-1.5v7.8h-1v-6.7l-.6-.8c-.1-.2-.5-.3-.8-.3h-.1v-1h.3c.2 0 .5 0 .8.3s.4.6.6 1h-.2v-2.3h.7l.4 1h1.5Z"/>
  <path class="st4" d="M152 56.3c-.5 0-1.1-.2-1.6-.4s-1-.5-1.5-1-.9-1.2-1.3-2-.7-1.7-1-3l1-.2a15 15 0 0 0 1.2 3.2 5 5 0 0 0 1.4 1.7c.6.4 1.2.6 1.9.6s1.3-.2 1.7-.6.6-.9.6-1.4c0-.5 0-.9-.2-1.2l-.4-.7.7-.2-.9 1.1c-.3.3-.6.6-.9.7-.3.2-.6.2-1 .2-.5 0-1-.1-1.2-.5s-.3-.9-.3-1.6v-2.2H146v-1h10.3v1h-5.1v3.1l.5.2c.2 0 .5-.1.8-.4l1.1-1.2.8-.2c.3.5.6.9.7 1.4l.3 1.4c0 .6-.1 1.2-.4 1.6-.3.5-.6.9-1.1 1.2s-1.2.4-1.9.4Zm1.4-8.5c0-.4-.1-.7-.3-1-.1-.1-.4-.2-.9-.2h-2a5 5 0 0 1-1.5-.2l-1.1-.7c-.3-.3-.4-.8-.4-1.3v-.7h1.1v.6c0 .5.2.8.5 1 .3.2.7.3 1.3.3h1.9c.5 0 1 0 1.3.2.3.2.6.4.8.8s.3.7.3 1.3h-1Z"/>
  <path class="st4" d="M162.4 56.6v-3.3h.2v.8a5 5 0 0 0-2.2-2.3 3 3 0 0 0-1.3-.3c-.4 0-.6.1-.7.2l-.2.7h-.9l.1-.6.4-.4.6-.2c.4 0 .7.1.9.3s.3.4.3.8-.2.6-.4.8-.5.4-.9.4-.7-.2-1-.4c-.2-.3-.3-.6-.3-1 0-.5.2-.9.5-1.2s.8-.4 1.4-.4 1 0 1.5.3l1.3.8 1 1-.2.1v-3.9h-6.3v-1h8.8v1h-1.5v7.8h-1.1Z"/>
  <path class="st4" d="M172.7 56.6V52h.1v.4a2 2 0 0 0-.5-.8c-.3-.2-.6-.3-1-.3-.2 0-.5 0-.6.3s-.3.4-.3.8v.5h-.9c0-.5-.2-1-.5-1.3a1.5 1.5 0 0 0-1.8-.3l-.4.4-.2.7c0 .2 0 .6.2.8l.4.5.7.2v.8c-.2 0-.4 0-.6-.2a.8.8 0 0 1-.2-.6c0-.3 0-.6.3-.7l.6-.3c.3 0 .6.1.7.3l.3.6c0 .4-.1.6-.4.8-.2.2-.5.3-.9.3s-.8-.1-1.1-.3c-.4-.2-.7-.5-.9-.9s-.3-.8-.3-1.3.1-.9.3-1.2l.8-.8a2 2 0 0 1 1.1-.2c.5 0 .9 0 1.2.2l1 .8c.3.3.4.8.4 1.4l-.7-.2c0-.5 0-1 .2-1.3l.6-.6.8-.2c.4 0 .7 0 1 .3l.9.8h-.3v-2.6h-8v-1h10.6v1h-1.5v7.8h-1.1Z"/>
  <path class="st4" d="M175 48.8v-1h5.4v1H175Zm3.8 7.9c-.6 0-1-.2-1.5-.5-.4-.3-.7-.8-1-1.3s-.3-1.2-.3-2c0-.6 0-1.3.3-1.9l.8-1.6c.4-.5.8-1 1.3-1.2s1-.4 1.7-.4h.3v1c-.5 0-.9.1-1.2.3-.4.2-.8.5-1 .9-.4.4-.6.8-.8 1.4s-.3 1-.3 1.7c0 .6.1 1 .3 1.4.1.4.3.7.5.9s.5.2.7.2h.6l.6-.3-.8 1.1-.5-.1-.3-.3-.1-.6c0-.2 0-.5.3-.7.2-.2.4-.3.7-.3.4 0 .6.2.8.4s.3.4.3.7c0 .4-.1.7-.4.9s-.6.3-1 .3Zm2.6-4.1c-.3 0-.4-.2-.4-.4s.2-.4.4-.4.4.1.4.4-.1.4-.4.4Zm.7-1.8c-.3 0-.4-.1-.4-.4s0-.4.4-.4.4.1.4.4-.2.4-.4.4Zm0 3.6c-.3 0-.4-.2-.4-.4s0-.5.4-.5.4.2.4.5-.2.4-.4.4Zm1.8-4.3c-.3 0-.4-.1-.4-.4s.1-.4.4-.4c.3 0 .4.2.4.4s-.1.4-.4.4Zm0 5c-.3 0-.4-.2-.4-.4s.1-.5.4-.5c.3 0 .4.2.4.5s-.1.4-.4.4Zm1.8-4.3c-.2 0-.4-.1-.4-.4s.1-.4.4-.4.4.1.4.4-.1.4-.4.4Zm0 3.6c-.2 0-.4-.2-.4-.4s.1-.5.4-.5.4.2.4.5-.1.4-.4.4Zm.7-1.8c-.3 0-.5-.2-.5-.4s.2-.4.4-.4.5.1.5.4-.2.4-.5.4Zm5-4.8v1H190v7.8h-1v-6.7l-.6-.8c-.2-.2-.5-.3-.8-.3h-.1v-1h.3c.2 0 .5 0 .7.3s.5.6.6 1l-.1-.6v-1.7h.7l.3 1h1.6Z"/>
  <path class="st4" d="M197.2 56.3c-.7 0-1.2-.2-1.8-.4s-1-.5-1.5-1l-1.2-2a13 13 0 0 1-1-3l1-.2a15 15 0 0 0 1.2 3.2c.4.8.9 1.4 1.4 1.7.5.4 1.2.6 1.9.6s1.3-.2 1.7-.6.6-.9.6-1.4c0-.5 0-.9-.2-1.2l-.4-.7.7-.2-.9 1.1c-.3.3-.6.6-1 .7-.2.2-.6.2-.9.2-.5 0-1-.1-1.2-.5s-.4-.9-.4-1.6v-2.2h-4v-1h10.3v1h-5.2v2.5c0 .3 0 .5.2.6l.3.2c.3 0 .6-.1 1-.4s.6-.6 1-1.2l.8-.2c.3.5.6.9.7 1.4l.3 1.4c0 .6-.2 1.2-.4 1.6a3.2 3.2 0 0 1-3 1.6Zm13.8.3c-.3-.6-.7-1-1.2-1.5s-1-1-1.6-1.2-1.4-.6-2-.7l-.6-1.4a35.6 35.6 0 0 1 5.6-2.6l-.3.5v-1h-6v-1h11.7v1H212v7.9h-1.1Zm0-1.3v-.6l-.1-.8v-4l.3.5-1.5.5-1.6.8-1.4.8v-.2a7 7 0 0 1 2.5 1l1.2.9c.3.3.6.7.7 1.1h-.1Zm3.3-1c-.4 0-.6-.1-.9-.3s-.3-.4-.3-.7c0-.3 0-.5.3-.7s.3-.3.6-.3.5.1.7.3.2.3.2.6c0 .2 0 .4-.2.6s-.5.3-.8.3v-.9c.3 0 .5 0 .6-.2l.2-.6c0-.4-.1-.7-.4-1s-.6-.6-1.1-.8a6 6 0 0 0-2-.3v-1c.7 0 1.2 0 1.8.2l1.5.6c.5.3.7.6 1 1s.3.9.3 1.4l-.1.8-.5.7c-.3.2-.6.3-1 .3Z"/>
  <path class="st4" d="M222.5 56.6c-.3-.6-.7-1-1.2-1.5a7 7 0 0 0-3.7-2l-.6-1.3a42 42 0 0 1 5.8-2.7l-.3.6v-1h-6.1v-1h8.7v1h-1.5v7.9h-1.1Zm0-1.3V50l.3.4-1.6.6-1.6.7-1.5.9v-.2a7 7 0 0 1 2.6 1l1.2.9.8 1.1h-.1Zm-3.3 1.4c-.2 0-.4 0-.5-.3a.8.8 0 0 1 0-1.2.8.8 0 0 1 1.2 0l.2.6-.3.6c0 .2-.3.3-.6.3Z"/>
  <path class="st4" d="m228 59.8-1.6-1.4c-.4-.4-.8-.6-1.2-.8a3 3 0 0 0-1.3-.3c-.4 0-.7 0-.8.2l-.3.6.1.4.4.3h.4c.3 0 .5 0 .7-.2l.4-.6v-1.4h1.2c0 .6 0 1-.2 1.4l-.4 1-.7.6c-.2.2-.6.1-1 .1-.3 0-.7 0-1-.2l-.7-.5c-.2-.2-.2-.6-.2-1s.2-.8.5-1.1.9-.5 1.5-.5a5 5 0 0 1 1.7.3c.6.2 1 .5 1.5 1l1.6 1.3-.6.8Zm3-3.2v-3.3h.3v.8a5 5 0 0 0-2.3-2.3 3 3 0 0 0-1.3-.3l-.6.2-.2.7h-.9l.1-.6.3-.4.7-.2c.3 0 .6.1.8.3s.3.4.3.8 0 .6-.3.8-.5.4-.9.4-.7-.2-1-.4c-.2-.3-.3-.6-.3-1 0-.5.2-.9.5-1.2s.8-.4 1.4-.4 1 0 1.5.3l1.3.8 1 1-.3.1v-3.9h-6.2v-1h8.8v1h-1.5v7.8h-1.1Z"/>
</svg>
