<svg width="270" height="80" fill="none" xmlns="http://www.w3.org/2000/svg">
  <g clip-path="url(#a)">
    <mask id="b" style="mask-type:luminance" maskUnits="userSpaceOnUse" x="-21" y="-20" width="311" height="121">
      <path d="M-20-20h310v120H-20V-20Z" fill="#fff"/>
    </mask>
    <g mask="url(#b)">
      <path d="M260 80H10A10 10 0 0 1 0 70V10A10 10 0 0 1 10 0h250a10 10 0 0 1 10 10v60a10 10 0 0 1-10 10Z" fill="#000"/>
    </g>
    <mask id="c" style="mask-type:luminance" maskUnits="userSpaceOnUse" x="-21" y="-20" width="311" height="121">
      <path d="M-20-20h310v120H-20V-20Z" fill="#fff"/>
    </mask>
    <g mask="url(#c)">
      <path d="M41.4 38.8 20.1 61.4a5.7 5.7 0 0 0 8.5 3.5l24-13.8-11.2-12.3Z" fill="#EA4335"/>
    </g>
    <mask id="d" style="mask-type:luminance" maskUnits="userSpaceOnUse" x="-21" y="-20" width="311" height="121">
      <path d="M-20-20h310v120H-20V-20Z" fill="#fff"/>
    </mask>
    <g mask="url(#d)">
      <path d="m63 35-10.4-6L41 39.4 52.7 51l10.2-6a5.8 5.8 0 0 0 .1-10Z" fill="#FBBC04"/>
    </g>
    <mask id="e" style="mask-type:luminance" maskUnits="userSpaceOnUse" x="-21" y="-20" width="311" height="121">
      <path d="M-20-20h310v120H-20V-20Z" fill="#fff"/>
    </mask>
    <g mask="url(#e)">
      <path d="M20.1 18.6 20 20v40l.2 1.4 22-22-22-20.8Z" fill="#4285F4"/>
    </g>
    <mask id="f" style="mask-type:luminance" maskUnits="userSpaceOnUse" x="-21" y="-20" width="311" height="121">
      <path d="M-20-20h310v120H-20V-20Z" fill="#fff"/>
    </mask>
    <g mask="url(#f)">
      <path d="m41.6 40 11-11-24-13.9a5.8 5.8 0 0 0-8.5 3.4L41.6 40Z" fill="#34A853"/>
    </g>
    <path d="M83.5 13.6H86l5.7 9.2h.1l-.1-2.4v-6.8h2v12.7h-2.1l-6-9.7v9.7h-2V13.6Zm16.2 0h2.2l4.8 12.7h-2.2l-1.1-3.2h-5.2l-1.1 3.2h-2.2l4.8-12.7Zm3 7.6-1.4-3.8-.5-1.4-.6 1.4-1.3 3.8h3.8Zm5.3-7.6h4.8a4 4 0 0 1 1.8.4c.6.3 1 .7 1.4 1.3.4.5.5 1 .5 1.7 0 .6-.1 1.2-.4 1.6a3 3 0 0 1-1.3 1v.2a3 3 0 0 1 1.6 1.1c.4.5.6 1.1.6 1.8s-.2 1.3-.5 1.9c-.4.5-.9 1-1.5 1.3-.6.3-1.3.4-2 .4h-5V13.6Zm4.7 5.3c.6 0 1-.2 1.4-.5.3-.4.5-.8.5-1.3 0-.4-.2-.8-.5-1.1-.3-.4-.8-.6-1.3-.6H110V19h2.7Zm.3 5.6c.6 0 1-.2 1.4-.6a1.8 1.8 0 0 0 0-2.6 2 2 0 0 0-1.5-.6h-3v3.8h3.1Zm9.2-11h2.2l4.8 12.8H127l-1.1-3.2h-5.2l-1.1 3.2h-2.2l4.8-12.7Zm3 7.7-1.4-3.8-.5-1.4-.6 1.4-1.3 3.8h3.8Zm2.8-7.6h2.2l2.9 8.4.4 1.4h.1l.5-1.4 3-8.4h2.2l-4.7 12.7h-2L128 13.6Zm12.5 0h2v12.7h-2V13.6Zm7 1.9H144v-2h9.1v2h-3.5v10.8h-2V15.5Zm7-2h7.8v2h-5.7V19h5.2v1.9h-5.2v3.5h5.7v2h-7.7V13.5Zm13.6 0h2.4l5.6 9.3h.2l-.2-2.4v-6.8h2v12.7h-2l-6-9.7h-.1v9.7h-2V13.6Zm16.1 0h2.3l4.8 12.8H189l-1.2-3.2h-5.1l-1.2 3.2h-2.2l4.8-12.7Zm3 7.7-1.3-3.8-.5-1.4h-.1l-.5 1.4-1.4 3.8h3.8ZM92.8 60.5a11 11 0 0 1-9.5-5.3c-1-1.7-1.5-3.5-1.5-5.6a10.5 10.5 0 0 1 5.5-9.4 11 11 0 0 1 5.5-1.4c1.6 0 3 .3 4.4.8a10 10 0 0 1 3.5 2.4L98 44.7a6.9 6.9 0 0 0-5.3-2.2 7 7 0 0 0-3.5.9 7.3 7.3 0 0 0-2.5 9.9 6.5 6.5 0 0 0 6.1 3.4c2 0 3.5-.5 4.8-1.7.3-.3.7-.7 1-1.3.2-.5.5-1.1.6-1.8h-6.5v-3.3h10.2l.2 1.8a10 10 0 0 1-.7 3.9c-.4 1.2-1 2.2-1.9 3a9 9 0 0 1-3.3 2.4c-1.3.5-2.8.8-4.4.8Zm19.7 0c-1.5 0-3-.4-4.1-1a7.4 7.4 0 0 1-2.8-2.9c-.7-1.2-1-2.5-1-4a8 8 0 0 1 1-4 7.4 7.4 0 0 1 2.8-2.8 8 8 0 0 1 4-1 8 8 0 0 1 4.1 1c1.2.7 2.2 1.6 2.8 2.8a8 8 0 0 1 1 4 8 8 0 0 1-1 4 7.2 7.2 0 0 1-2.8 2.8 8 8 0 0 1-4 1Zm0-3.5a4 4 0 0 0 2-.6c.6-.3 1.1-.8 1.5-1.5.4-.6.5-1.4.5-2.3 0-.9-.1-1.6-.5-2.3-.4-.6-.9-1.1-1.5-1.5a4 4 0 0 0-5.5 1.5c-.4.7-.6 1.4-.6 2.3 0 .9.2 1.6.6 2.3a3.8 3.8 0 0 0 3.5 2Zm17.1 3.5c-1.5 0-2.9-.4-4.1-1a7.3 7.3 0 0 1-2.8-2.9c-.6-1.2-1-2.5-1-4 0-1.4.4-2.8 1-4a7.4 7.4 0 0 1 2.8-2.8 8 8 0 0 1 4.1-1 8 8 0 0 1 4 1c1.3.7 2.2 1.6 2.8 2.8a8 8 0 0 1 1 4 8 8 0 0 1-1 4 7.2 7.2 0 0 1-2.7 2.8 8 8 0 0 1-4.1 1Zm0-3.5a4 4 0 0 0 2-.6c.6-.3 1.1-.8 1.5-1.5.4-.6.6-1.4.6-2.3 0-.9-.2-1.6-.6-2.3-.4-.6-.9-1.1-1.5-1.5a4 4 0 0 0-5.5 1.5c-.4.7-.6 1.4-.6 2.3 0 .9.2 1.6.6 2.3a3.8 3.8 0 0 0 3.5 2Zm16.9 9.7a8 8 0 0 1-4.7-1.2c-1.2-.9-2-1.9-2.5-3l3.5-1.5a3.8 3.8 0 0 0 3.7 2.3c1.2 0 2.1-.3 2.8-1 .7-.8 1-1.8 1-3.2V58h-.2c-.4.6-1 1.1-1.8 1.5-.7.3-1.6.5-2.6.5a6.6 6.6 0 0 1-6-3.6c-.6-1.2-.9-2.5-.9-4s.3-2.9 1-4a7 7 0 0 1 2.5-2.7 6.5 6.5 0 0 1 6-.4c.8.3 1.4.8 1.8 1.5h.3v-1.6h3.6V59a7 7 0 0 1-1 4 5.3 5.3 0 0 1-2.5 2.8c-1.2.6-2.5 1-4 1Zm0-10.1c1 0 2-.4 2.7-1.1.8-.8 1.2-1.8 1.2-3.1 0-1.4-.4-2.4-1.2-3.1-.7-.7-1.6-1-2.7-1-1 0-2 .3-2.7 1a4 4 0 0 0-1.2 3c0 1.4.4 2.4 1.2 3.2.7.7 1.6 1 2.7 1ZM157 39.2h3.8V60H157V39.2Zm13.6 21.3a7.4 7.4 0 0 1-6.8-3.8c-.6-1.2-1-2.6-1-4a8 8 0 0 1 3.8-6.9 7 7 0 0 1 3.9-1 7 7 0 0 1 6.4 3.6c.6 1.2.9 2.4.9 3.8l-.1 1.3h-11.1c.2 1.2.6 2 1.4 2.7a4 4 0 0 0 2.7.9 4.2 4.2 0 0 0 3.8-2l3 1.4a7.4 7.4 0 0 1-6.9 4Zm3.5-9.7c0-.5-.2-1-.5-1.4a3.6 3.6 0 0 0-3.1-1.5c-1 0-1.7.2-2.3.8a4 4 0 0 0-1.5 2.1h7.4Zm12.4-11.6h7.4c1.3 0 2.5.3 3.5.9a6.2 6.2 0 0 1 3.5 5.7 6.3 6.3 0 0 1-3.5 5.8c-1 .5-2.2.8-3.5.8h-3.4V60h-4V39.2Zm7.5 9.5a3 3 0 0 0 2.3-.9c.5-.5.8-1.2.8-2s-.3-1.5-.8-2a3 3 0 0 0-2.3-.8h-3.5v5.7h3.5Zm9.1-9.5h3.8V60h-3.8V39.2Zm11.2 21.3c-1.5 0-2.8-.5-3.8-1.4-1-1-1.5-2.1-1.5-3.6 0-1 .2-1.9.7-2.6A5 5 0 0 1 212 51c.9-.4 2-.6 3-.6 1.5 0 2.9.3 4 .7v-.6c0-.9-.4-1.5-1-2s-1.4-.8-2.4-.8c-.7 0-1.4.2-2 .5-.7.3-1.2.7-1.7 1.3l-2.4-2a6 6 0 0 1 2.7-2 8 8 0 0 1 3.5-.9c2.3 0 4 .6 5.2 1.6 1.2 1 1.8 2.6 1.8 4.6V60h-3.8v-1.5h-.2a5.6 5.6 0 0 1-4.3 2Zm1-3c1 0 2-.3 2.5-1 .7-.8 1-1.6 1-2.5-1-.5-2-.7-3-.7-2 0-3 .7-3 2.2 0 .6.2 1 .6 1.5.4.3 1 .5 1.8.5Zm14.4 1.8-6.3-14h4.4l3.8 9.1h.2l3.7-9.2h4.2l-9.1 21h-4l3-6.9Zm16.7 1.2a5 5 0 0 1-4-1.7 7 7 0 0 1-1.4-4.6v-9h3.8v8.5c0 1 .2 1.8.7 2.4.5.6 1.1.9 2 .9a3 3 0 0 0 2.5-1.2 5 5 0 0 0 1-3v-7.6h3.8V60h-3.6v-1.9h-.2a5 5 0 0 1-2 1.8c-.7.4-1.6.6-2.6.6Z" fill="#fff"/>
  </g>
  <defs>
    <clipPath id="a">
      <path fill="#fff" transform="matrix(1 0 0 -1 0 80)" d="M0 0h270v80H0z"/>
    </clipPath>
  </defs>
</svg>
