<svg id="artwork" xmlns="http://www.w3.org/2000/svg" version="1.1" viewBox="0 0 239 70.9">
  <defs>
    <style>
      .st5{fill:#fff}
    </style>
  </defs>
  <rect width="239" height="70.8" rx="8.8" ry="8.8"/>
  <path d="m36.7 34.4-18.9 20a5 5 0 0 0 7.5 3l21.3-12.2-10-10.8Z" style="fill:#ea4335"/>
  <path d="m55.7 31-9.1-5.3-10.3 9.2 10.3 10.3 9.1-5.2c1.6-1 2.7-2.6 2.7-4.5s-1-3.6-2.6-4.5Z" style="fill:#fbbc04"/>
  <path d="m17.8 16.5-.2 1.3V53c0 .5 0 1 .2 1.3L37.3 35 17.8 16.5Z" style="fill:#4285f4"/>
  <path d="m36.8 35.4 9.8-9.7-21.2-12.3a5.1 5.1 0 0 0-7.6 3l19 19Z" style="fill:#34a853"/>
  <path class="st5" d="M74.1 12h2.1l5 8.2h.1v-8.1H83v11.2h-1.8l-5.3-8.6h-.1v8.6h-1.7V12Zm14.2 0h2l4.2 11.3h-2l-1-2.9H87l-1 3h-2L88.3 12Zm2.7 6.8-1.2-3.4-.5-1.3-.5 1.3-1.2 3.4H91Zm4.6-6.8h4.2a3.5 3.5 0 0 1 3 1.5 2.7 2.7 0 0 1 0 3 4 4 0 0 1-1.2 1c.6.2 1 .5 1.4 1s.6 1 .6 1.6-.2 1.2-.5 1.7-.8.8-1.3 1.1-1.1.4-1.8.4h-4.4V12Zm4.2 4.8c.5 0 .9-.2 1.2-.5a1.5 1.5 0 0 0 0-2.2c-.3-.3-.7-.4-1.2-.4h-2.4v3h2.4Zm.2 4.9c.6 0 1-.2 1.3-.5.3-.4.5-.8.5-1.2s-.2-.9-.5-1.2c-.3-.3-.8-.5-1.3-.5h-2.6v3.4h2.6Zm8-9.7h2l4.3 11.3h-2l-1-2.9h-4.5l-1 3h-2L108 12Zm2.7 6.8-1.2-3.4-.4-1.3-.5 1.3-1.2 3.4h3.3Zm2.5-6.8h2l2.4 7.5.4 1.3h.1l.4-1.3 2.7-7.5h1.9L119 23.3h-1.8l-4-11.3Zm11 0h1.7v11.3h-1.7V12Zm6.1 1.7h-3.1V12h8v1.7h-3.1v9.6h-1.8v-9.6Zm6.2-1.7h6.8v1.7h-5v3.1h4.5v1.7h-4.6v3.1h5.1v1.7h-6.8V12Zm11.7 0h2.1l5 8.2h.2l-.1-2.1v-6h1.7v11.2h-1.8l-5.3-8.6h-.1v8.6h-1.7V12Zm14.2 0h2l4.3 11.3h-2l-1-2.9h-4.5l-1 3h-2l4.2-11.4Zm2.7 6.8-1.2-3.4-.4-1.3h-.1l-.5 1.3-1.2 3.4h3.4Z" style="isolation:isolate"/>
  <path class="st5" d="M82 43.2v2.5h6.3a6 6 0 0 1-.6 1.9 5.1 5.1 0 0 1-3 2.7c-.7.3-1.6.5-2.7.5a6.4 6.4 0 0 1-5.8-3.3c-.6-1-.9-2.2-.9-3.5s.3-2.6 1-3.6c.6-1 1.4-1.9 2.4-2.4a6.9 6.9 0 0 1 6-.3 6 6 0 0 1 2.2 1.5l2-2c-.8-.9-1.8-1.6-3-2s-2.5-.8-3.9-.8a9.6 9.6 0 1 0 0 19.2c2.8 0 5-1 6.8-2.8.8-.8 1.4-1.7 1.7-2.8s.6-2.2.6-3.3l-.1-1.5h-9Zm21-2.6c-1-.7-2.3-1-3.6-1s-2.5.3-3.5 1c-1 .6-1.9 1.4-2.5 2.4-.5 1.1-.8 2.3-.8 3.6s.3 2.5.8 3.5a6 6 0 0 0 2.5 2.5 7 7 0 0 0 7 0c1.1-.6 2-1.4 2.5-2.5s.9-2.2.9-3.5-.3-2.5-.9-3.5c-.6-1-1.4-2-2.4-2.6Zm0 8.3c-.5.7-1 1.2-1.6 1.5s-1.3.5-2 .5a4 4 0 0 1-3.5-2c-.3-.6-.5-1.4-.5-2.3s.2-1.7.5-2.3a4 4 0 0 1 7 0c.4.6.6 1.4.6 2.3s-.2 1.6-.6 2.3Zm14.8-8.3a6 6 0 0 0-3.6-1 6.7 6.7 0 0 0-6.8 7c0 1.3.3 2.5.9 3.5.5 1 1.3 2 2.4 2.5a7 7 0 0 0 7 0c1.1-.6 2-1.4 2.5-2.5.6-1 .9-2.2.9-3.5s-.3-2.5-.9-3.5c-.6-1-1.4-2-2.4-2.6Zm0 8.3a4.2 4.2 0 0 1-3.6 2c-.8 0-1.4-.1-2-.5-.6-.3-1-.8-1.4-1.5s-.6-1.4-.6-2.3.2-1.7.6-2.3a3 3 0 0 1 1.4-1.5 4 4 0 0 1 5.5 1.5c.4.6.6 1.4.6 2.3s-.2 1.6-.6 2.3Zm14.8-7.3h-.1c-.4-.6-1-1-1.7-1.4s-1.6-.6-2.5-.6a6.2 6.2 0 0 0-5.3 3.2c-.5 1.1-.8 2.3-.8 3.6s.3 2.5.8 3.5a6 6 0 0 0 5.3 3.2c1 0 1.8-.1 2.5-.5a4 4 0 0 0 1.7-1.4h.1v1.2c0 1.3-.3 2.3-1 3-.6.8-1.6 1.2-2.8 1.2a3.7 3.7 0 0 1-3.4-2.3l-2.7 1c.4 1 1 2 2.1 2.7a7 7 0 0 0 4 1c1.3 0 2.5-.2 3.4-.7s1.8-1.2 2.3-2.2c.6-1 .9-2.3.9-3.7V40.1h-2.7v1.5Zm-.5 7c-.3.7-.8 1.1-1.4 1.5a3.8 3.8 0 0 1-3.8 0 4.2 4.2 0 0 1-1.9-3.7c0-.9.2-1.6.5-2.3s.8-1 1.4-1.4c.6-.3 1.2-.5 2-.5 1 0 2 .4 2.6 1.1a4 4 0 0 1 1.1 3c0 1-.1 1.7-.5 2.3Zm6.9-13.8h2.8v18.4H139zm15.1 5.7a6.5 6.5 0 0 0-9.1 2.6 7.4 7.4 0 0 0 0 7.1 6.7 6.7 0 0 0 5.8 3.4 6.8 6.8 0 0 0 6-3.5l-2.4-1.1c-.3.6-.8 1-1.4 1.5-.6.3-1.3.5-2 .5a4 4 0 0 1-2.7-1 4 4 0 0 1-1.3-2.8h10v-.9c0-1.3-.2-2.4-.7-3.4s-1.2-1.8-2.2-2.4Zm-7 4.5c.2-.9.7-1.6 1.3-2.1.6-.6 1.4-.8 2.3-.8.7 0 1.4.1 1.9.4s1 .7 1.2 1.2c.2.4.4.9.4 1.3h-7.1Zm27.4-9.5c-1-.5-2-.7-3-.7H165V53h2.9v-7h3.5c1 0 2-.2 3-.7.9-.5 1.6-1.2 2.1-2 .6-.9.9-1.8.9-3s-.3-2-.8-2.8a5.6 5.6 0 0 0-2.2-2Zm-.3 6.3c-.2.4-.6.8-1 1-.5.3-1 .5-1.7.5H168v-5.8h3.5a3 3 0 0 1 1.7.4c.4.3.8.6 1 1a2.9 2.9 0 0 1 0 2.9Zm5.6-7h2.8v18.4h-2.8zm10.9 4.8a7 7 0 0 0-3 .7 6 6 0 0 0-2.3 1.9l2 1.5c.3-.5.8-1 1.4-1.2.6-.3 1.2-.5 1.9-.5 1 0 1.7.3 2.3.8.6.5.9 1.2.9 2v.6a8 8 0 0 0-3.6-.7c-1.5 0-2.8.4-3.8 1.2s-1.5 1.9-1.5 3.2c0 .9.2 1.6.6 2.3a4 4 0 0 0 1.7 1.6c.7.3 1.6.5 2.5.5a4.8 4.8 0 0 0 4-2h.1v1.6h2.8V45a5 5 0 0 0-1.6-4c-1-1-2.5-1.4-4.4-1.4Zm2.7 9.8a3.5 3.5 0 0 1-3.1 1.8c-.8 0-1.3-.2-1.8-.6-.5-.3-.7-.8-.7-1.4 0-.7.2-1.2.7-1.7.5-.4 1.3-.6 2.4-.6a6.2 6.2 0 0 1 3 .8c0 .6-.2 1.2-.5 1.7Zm11.3-.4h-.1l-3.7-8.9h-3.1l5.4 12.3-2.8 6.3h2.9l8.1-18.6h-3.1l-3.6 8.9zm16.9-9v7.2c0 .6-.2 1.2-.4 1.8-.3.6-.7 1-1.2 1.4s-1.1.6-1.8.6c-.8 0-1.5-.3-2-.8s-.7-1.4-.7-2.4V40h-2.9v8.1c0 1.7.5 3 1.3 4s2 1.4 3.6 1.4a5 5 0 0 0 4.1-2.1h.1v1.7h2.7v-13h-2.8Z"/>
</svg>
