<svg width="180" height="54" fill="none" xmlns="http://www.w3.org/2000/svg">
  <path d="M173.3 54H6.7A6.7 6.7 0 0 1 0 47.2V6.8C0 3 3 0 6.7 0h166.6a6.7 6.7 0 0 1 6.7 6.8v40.5c0 3.7-3 6.7-6.7 6.7Z" fill="#000"/>
  <path d="M27.6 26.2 13.4 41.5a3.8 3.8 0 0 0 5.7 2.3l16-9.3-7.5-8.3Z" fill="#EA4335"/>
  <path d="m42 23.6-7-4-7.7 7 7.8 7.9 6.9-4a3.9 3.9 0 0 0 2-3.5 4 4 0 0 0-2-3.4Z" fill="#FBBC04"/>
  <path d="M13.4 12.5a3.7 3.7 0 0 0-.1 1v27l.1 1 14.7-14.9-14.7-14Z" fill="#4285F4"/>
  <path d="m27.7 27 7.4-7.4-16-9.4a3.9 3.9 0 0 0-5.7 2.3L27.7 27Z" fill="#34A853"/>
  <path d="M138.4 17.6a3 3 0 0 1-1.9-.6 3.2 3.2 0 0 1-1-1.6v-.1l1.1-.6v.2l.3.6.4.5a1.4 1.4 0 0 0 1 .4c.5 0 .9-.1 1.2-.3.2-.3.4-.5.4-.9a1 1 0 0 0-.4-.8l-1.2-.6-1.2-.5a2.6 2.6 0 0 1-1-.8 2.1 2.1 0 0 1-.4-1.2c0-.6.3-1.2.8-1.6.5-.4 1-.7 1.8-.7a3 3 0 0 1 1.7.5c.4.3.8.7 1 1.2v.2l-1.2.5v-.2l-.6-.7a1.4 1.4 0 0 0-.9-.2c-.4 0-.7 0-.9.3a.9.9 0 0 0-.4.7l.3.6.6.3 1 .4a4 4 0 0 1 1.7 1c.4.5.6 1 .6 1.6a2.3 2.3 0 0 1-.8 1.8 3.3 3.3 0 0 1-2 .7Zm-82.7-.1H57v-6.2l3.9 6.2H62V9.2h-1v5.9l-3.7-5.9h-1.5v8.3Z" fill="#fff"/>
  <path fill-rule="evenodd" clip-rule="evenodd" d="M64.4 17.5H63l3.1-8.3h1.4l3 8.3h-1.4l-.7-2.2h-3.2l-.8 2.2Zm2.4-6.6-1.2 3.2H68l-1.1-3.2Zm4.6 6.6h3.2a2.5 2.5 0 0 0 1.8-.7c.5-.5.7-1 .7-1.7 0-.5 0-.9-.3-1.3a2 2 0 0 0-.9-.6 1.9 1.9 0 0 0 1-1.7c0-.6-.3-1.2-.7-1.6a2.5 2.5 0 0 0-1.8-.7h-3v8.3Zm1.3-1.3V14h1.9c.4 0 .7 0 .9.3a1.1 1.1 0 0 1 0 1.7c-.3.2-.5.3-.9.3h-1.9Zm0-3.6v-2.2h1.8c.3 0 .6.2.8.4.2.2.3.5.3.7 0 .3-.1.6-.3.8a1 1 0 0 1-.9.3h-1.7Zm6.2 4.9h-1.5l3.1-8.3H82l3.1 8.3h-1.4l-.8-2.2h-3.1l-.8 2.2Zm2.3-6.6-1.1 3.2h2.3l-1.2-3.2Z" fill="#fff"/>
  <path d="M87.3 17.5h1.2l3-8.3h-1.4l-2.2 6.3-2.1-6.3h-1.5l3 8.3Zm6.4 0h-1.3V9.2h1.2v8.3Zm3.2 0h1.3v-7h2.3V9.1h-5.8v1.3h2.2v7Zm9.5 0h-5V9.2h5v1.3h-3.6v2.2h3.2V14h-3.2v2.3h3.6v1.3Zm4 0h1.3v-6.2l3.9 6.2h1.3V9.2h-1.3v5.9l-3.7-5.9h-1.5v8.3Z" fill="#fff"/>
  <path fill-rule="evenodd" clip-rule="evenodd" d="M119.1 17.5h-1.4l3.1-8.3h1.4l3 8.3H124l-.8-2.2H120l-.8 2.2Zm2.4-6.6-1.1 3.2h2.2l-1.1-3.2Z" fill="#fff"/>
  <path d="M129.2 16.7a3 3 0 0 0 2.3 1 3 3 0 0 0 2.3-1c.5-.5.8-1.3.8-2.3V9.1h-1.3v5.2c0 .6-.2 1.1-.5 1.5-.3.3-.7.5-1.3.5a1.7 1.7 0 0 1-1.3-.5 2 2 0 0 1-.5-1.5V9.2h-1.3v5.2c0 1 .3 1.7.8 2.3Zm13.2.8h4.7v-1.3h-3.4v-7h-1.3v8.3Zm8.6.1a3 3 0 0 1-2.3-.9 3.3 3.3 0 0 1-.8-2.4V9.2h1.3v5.2c0 .6.1 1.1.4 1.5.4.3.8.5 1.4.5.5 0 1-.2 1.3-.5.3-.4.5-.9.5-1.5V9.2h1.2v5.2c0 1-.2 1.8-.8 2.3a3 3 0 0 1-2.2 1Zm4-.1h5.8v-1.3h-4.2l4.1-5.7V9.2h-5.5v1.3h4l-4.2 5.7v1.3Zm8.3 0H162V9.2h1.3v8.3ZM145 40h-2.5V23.3h2.5V40Zm17-3.4 2.9-7.3h2.8l-6.9 15.8h-2.6l2.5-5.7-4.4-10h2.7l3 7.2Z" fill="#fff"/>
  <path fill-rule="evenodd" clip-rule="evenodd" d="M146.7 31.5c.8-1.7 2.7-2.5 4.5-2.5 2.8 0 5 1.6 5 4.6V40h-2.4v-1.3a3.5 3.5 0 0 1-3.2 1.6c-2.2 0-4.2-1.4-4.2-3.6 0-2.5 2.5-3.8 4.8-3.8a5.5 5.5 0 0 1 2.6.6v-.1c0-1.4-1.3-2.2-2.6-2.2-.9 0-1.8.3-2.2 1.2l-2.2-.9Zm2.2 5.2c0 1 1.2 1.4 2 1.4a3 3 0 0 0 3-2.6 4.4 4.4 0 0 0-2.3-.6c-1.3 0-2.7.5-2.7 1.8Zm-19.1-13.4h6c2.7 0 5.4 2 5.4 5.2s-2.7 5.2-5.5 5.2h-3.4V40h-2.5V23.3Zm2.5 8h3.5a2.9 2.9 0 0 0 3-2.8 2.9 2.9 0 0 0-3-2.9h-3.5v5.8Zm-26.3-1v-1h2.5v10.2c0 4.2-2.5 6-5.4 6a5.4 5.4 0 0 1-5-3.4l2.1-1a3.1 3.1 0 0 0 2.9 2.1c1.8 0 3-1.2 3-3.3V39h-.1a3.9 3.9 0 0 1-3 1.2 5.6 5.6 0 0 1-5.4-5.6c0-3.2 2.6-5.7 5.4-5.7 1.4 0 2.4.6 3 1.3Zm-6 4.4c0 2 1.5 3.4 3.2 3.4 1.7 0 3-1.4 3-3.4s-1.3-3.5-3-3.5-3.1 1.5-3.1 3.5Z" fill="#fff"/>
  <path d="M112.7 40h-2.5V23.3h2.5V40Z" fill="#fff"/>
  <path fill-rule="evenodd" clip-rule="evenodd" d="M119.2 29c3 0 4.4 2.3 4.9 3.6l.2.7-7.6 3a2.9 2.9 0 0 0 2.8 1.8c1.3 0 2.1-.6 2.8-1.6l2 1.3a5.6 5.6 0 0 1-4.8 2.5 5.5 5.5 0 0 1-5.6-5.6c0-3.4 2.4-5.7 5.3-5.7Zm.1 2.2a3.1 3.1 0 0 0-3 3.3l5.1-2.1c-.3-.7-1.1-1.2-2.1-1.2Z" fill="#fff"/>
  <path d="M63.7 33.1v-2.4h8l.2 1.6a8 8 0 0 1-2.1 5.6 8 8 0 0 1-6.1 2.4 9 9 0 0 1-9-8.8 9 9 0 0 1 9-8.8 8.4 8.4 0 0 1 6 2.5L68 26.9a6.3 6.3 0 0 0-10.7 4.6c0 3.6 2.8 6.4 6.4 6.4a6 6 0 0 0 4.4-1.7 5 5 0 0 0 1.3-3h-5.7Z" fill="#fff"/>
  <path fill-rule="evenodd" clip-rule="evenodd" d="M72.7 34.7a5.6 5.6 0 0 1 5.7-5.7 5.6 5.6 0 0 1 5.7 5.7 5.6 5.6 0 0 1-5.7 5.6 5.6 5.6 0 0 1-5.7-5.6Zm2.5 0c0 2 1.5 3.4 3.2 3.4 1.7 0 3.2-1.4 3.2-3.4s-1.4-3.5-3.2-3.5c-1.7 0-3.2 1.4-3.2 3.5Zm10 0a5.6 5.6 0 0 1 5.6-5.7 5.6 5.6 0 0 1 5.7 5.7 5.6 5.6 0 0 1-5.7 5.6 5.6 5.6 0 0 1-5.6-5.6Zm2.4 0c0 2 1.5 3.4 3.2 3.4 1.8 0 3.2-1.4 3.2-3.4s-1.4-3.5-3.2-3.5c-1.7 0-3.2 1.4-3.2 3.5Z" fill="#fff"/>
</svg>
