<svg width="180" height="54" fill="none" xmlns="http://www.w3.org/2000/svg">
  <path d="M173.33 54H6.67A6.73 6.73 0 0 1 0 47.25V6.75C0 3.04 3 0 6.67 0h166.66A6.73 6.73 0 0 1 180 6.75v40.5c0 3.71-3 6.75-6.67 6.75Z" fill="#000"/>
  <path d="m27.63 26.22-14.2 15.26a3.84 3.84 0 0 0 5.65 2.35l.05-.03 15.97-9.33-7.48-8.25Z" fill="#EA4335"/>
  <path d="m41.98 23.63-.01-.02-6.9-4.05-7.77 7 7.8 7.9 6.86-4a3.89 3.89 0 0 0 2.02-3.43c0-1.47-.8-2.75-2-3.4Z" fill="#FBBC04"/>
  <path d="M13.43 12.52a3.7 3.7 0 0 0-.13 1v26.96c0 .35.04.68.13 1L28.1 26.62l-14.68-14.1Z" fill="#4285F4"/>
  <path d="m27.73 27 7.34-7.44-15.96-9.37a3.85 3.85 0 0 0-5.69 2.33L27.73 27Z" fill="#34A853"/>
  <path d="M138.37 17.65c-.68 0-1.31-.21-1.84-.6a3.24 3.24 0 0 1-1.09-1.66l-.03-.11 1.23-.53.04.16c.06.23.16.42.26.6.12.19.25.36.4.47h.01a1.42 1.42 0 0 0 1.03.41c.46 0 .8-.1 1.09-.33.26-.22.39-.5.39-.85 0-.3-.11-.56-.34-.78-.2-.2-.6-.43-1.24-.64-.63-.23-1.05-.4-1.2-.46a2.58 2.58 0 0 1-1.01-.86 2.1 2.1 0 0 1-.34-1.18c0-.62.25-1.18.76-1.6.5-.44 1.1-.66 1.83-.66.63 0 1.18.16 1.66.48.46.33.8.73.95 1.22l.04.12-1.2.52-.05-.14c-.1-.29-.25-.51-.5-.68a1.45 1.45 0 0 0-.88-.27c-.39 0-.69.1-.93.3a.86.86 0 0 0-.37.71c0 .23.1.45.29.61.1.1.27.2.53.31.25.12.57.25.96.4.83.27 1.44.61 1.81 1.03.36.42.56.95.56 1.57a2.3 2.3 0 0 1-.82 1.79h-.01a3.3 3.3 0 0 1-2 .65Zm-82.64-.18h1.29v-5.12l-.03-1.12 3.88 6.24h1.27V9.2h-1.28v4.82l.03 1.12-3.7-5.94h-1.46v8.27Z" fill="#fff"/>
  <path fill-rule="evenodd" clip-rule="evenodd" d="M64.42 17.47H63l3.1-8.27h1.35l3.12 8.27h-1.43l-.77-2.17H65.2l-.79 2.17Zm2.37-6.53-1.15 3.13h2.29l-1.14-3.13Zm4.63 6.53h3.17a2.5 2.5 0 0 0 1.8-.68c.51-.47.75-1.05.75-1.73 0-.46-.13-.86-.37-1.22a2 2 0 0 0-.83-.65 1.87 1.87 0 0 0 .94-1.67c0-.66-.23-1.22-.72-1.66a2.48 2.48 0 0 0-1.73-.66h-3.01v8.27Zm1.29-1.25v-2.36h1.88c.37 0 .66.12.88.36a1.14 1.14 0 0 1 .03 1.64c-.25.23-.53.36-.86.36H72.7Zm0-3.58v-2.2h1.78c.3 0 .57.12.78.34.2.23.32.49.32.76 0 .28-.11.53-.34.76-.2.22-.48.34-.82.34H72.7Zm6.14 4.83h-1.43l3.12-8.27h1.35l3.13 8.27h-1.44l-.77-2.17h-3.16l-.8 2.17Zm2.37-6.53-1.14 3.13h2.28l-1.14-3.13Z" fill="#fff"/>
  <path d="M87.26 17.47h1.25l3-8.27h-1.42l-2.21 6.28-2.12-6.28h-1.43l2.93 8.27Zm6.39 0h-1.29V9.2h1.29v8.27Zm3.25 0h1.3v-7.02h2.25V9.2h-5.77v1.25h2.23v7.02Zm9.5 0h-4.92V9.2h4.93v1.25h-3.65v2.27h3.27v1.23h-3.27v2.27h3.65v1.25Zm4.04 0h1.29v-5.12l-.03-1.12 3.88 6.24h1.27V9.2h-1.28v4.82l.03 1.12-3.7-5.94h-1.46v8.27Z" fill="#fff"/>
  <path fill-rule="evenodd" clip-rule="evenodd" d="M119.12 17.47h-1.43l3.12-8.27h1.36l3.12 8.27h-1.44l-.77-2.17h-3.16l-.8 2.17Zm2.37-6.53-1.14 3.13h2.28l-1.14-3.13Z" fill="#fff"/>
  <path d="M129.24 16.74c.57.61 1.34.91 2.24.91a3 3 0 0 0 2.27-.9c.55-.59.83-1.4.83-2.4V9.2h-1.3v5.22c0 .62-.15 1.1-.48 1.45-.3.34-.74.52-1.32.52a1.7 1.7 0 0 1-1.31-.52 2.03 2.03 0 0 1-.49-1.45V9.2h-1.29v5.15c0 .99.28 1.77.85 2.39Zm13.14.73h4.75v-1.25h-3.46V9.2h-1.29v8.27Zm8.58.18c-.9 0-1.67-.3-2.24-.91a3.34 3.34 0 0 1-.85-2.39V9.2h1.29v5.22c0 .62.16 1.1.48 1.45.33.34.75.52 1.32.52.58 0 1.02-.18 1.32-.52.33-.35.49-.83.49-1.45V9.2h1.28v5.15c0 1-.27 1.81-.82 2.4a3 3 0 0 1-2.27.9Zm4.04-.18h5.76v-1.25h-4.16l4.12-5.76V9.2h-5.54v1.25h3.94L155 16.23v1.24Zm8.27 0h-1.29V9.2h1.29v8.27ZM145.07 40h-2.49V23.33h2.49V40Zm17.07-3.44 2.85-7.22h2.77l-6.84 15.71h-2.6l2.53-5.61-4.44-10.1h2.68l2.96 7.22h.09Z" fill="#fff"/>
  <path fill-rule="evenodd" clip-rule="evenodd" d="M146.74 31.52c.77-1.75 2.64-2.55 4.44-2.55 2.85 0 5.06 1.65 5.06 4.61v6.4h-2.4v-1.3h-.09a3.51 3.51 0 0 1-3.17 1.64c-2.19 0-4.14-1.44-4.14-3.67 0-2.45 2.43-3.75 4.8-3.75a5.5 5.5 0 0 1 2.6.64v-.17c-.02-1.37-1.33-2.15-2.62-2.15-.92 0-1.8.3-2.27 1.23l-2.2-.93Zm2.19 5.17c0 1.01 1.13 1.42 1.95 1.42 1.44 0 2.77-1.1 2.96-2.64a4.43 4.43 0 0 0-2.27-.56c-1.22 0-2.64.5-2.64 1.78Zm-19.15-13.36h5.96c2.76 0 5.47 2 5.47 5.18 0 3.18-2.71 5.17-5.47 5.17h-3.47V40h-2.49V23.33Zm2.49 8.04h3.53a2.9 2.9 0 0 0 2.92-2.86 2.89 2.89 0 0 0-2.91-2.86h-3.54v5.72ZM106 30.27h.09v-.92h2.36v10.18c0 4.19-2.47 5.9-5.39 5.9a5.4 5.4 0 0 1-5.03-3.35l2.17-.9a3.14 3.14 0 0 0 2.86 2.02c1.87 0 3.03-1.16 3.03-3.33v-.81H106a3.87 3.87 0 0 1-2.98 1.28 5.62 5.62 0 0 1-5.44-5.65c0-3.2 2.6-5.69 5.44-5.69 1.35 0 2.43.6 2.98 1.27Zm-5.92 4.42c0 1.98 1.44 3.42 3.15 3.42 1.7 0 3.03-1.44 3.03-3.42 0-2-1.33-3.45-3.03-3.45-1.72 0-3.16 1.46-3.16 3.45Z" fill="#fff"/>
  <path d="M112.66 40h-2.49V23.33h2.5V40Z" fill="#fff"/>
  <path fill-rule="evenodd" clip-rule="evenodd" d="M119.22 29c2.94 0 4.38 2.34 4.85 3.61l.26.65-7.59 3.13a2.89 2.89 0 0 0 2.75 1.72c1.27 0 2.15-.62 2.8-1.57l1.93 1.3a5.64 5.64 0 0 1-4.73 2.5 5.55 5.55 0 0 1-5.62-5.67c0-3.37 2.42-5.67 5.34-5.67Zm.08 2.2a3.11 3.11 0 0 0-2.96 3.3l5.06-2.1c-.27-.71-1.11-1.2-2.1-1.2Z" fill="#fff"/>
  <path d="M63.66 33.15v-2.4h8.1c.08.42.13.94.13 1.5 0 1.8-.5 4.03-2.09 5.62a8.05 8.05 0 0 1-6.14 2.47 8.93 8.93 0 0 1-8.94-8.8 8.93 8.93 0 0 1 8.94-8.81 8.4 8.4 0 0 1 6.03 2.43l-1.7 1.7a6.32 6.32 0 0 0-10.65 4.68c0 3.54 2.77 6.4 6.32 6.4 2.3 0 3.6-.93 4.44-1.76a5.02 5.02 0 0 0 1.32-3.03h-5.76Z" fill="#fff"/>
  <path fill-rule="evenodd" clip-rule="evenodd" d="M72.74 34.67A5.59 5.59 0 0 1 78.43 29a5.6 5.6 0 0 1 5.7 5.67 5.6 5.6 0 0 1-5.7 5.67 5.6 5.6 0 0 1-5.7-5.67Zm2.49 0c0 2.02 1.48 3.44 3.2 3.44 1.72 0 3.2-1.42 3.2-3.44 0-2.04-1.48-3.43-3.2-3.43-1.72 0-3.2 1.4-3.2 3.43Zm9.93 0A5.59 5.59 0 0 1 90.85 29a5.6 5.6 0 0 1 5.69 5.67 5.6 5.6 0 0 1-5.7 5.67 5.6 5.6 0 0 1-5.68-5.67Zm2.49 0c0 2.02 1.48 3.44 3.2 3.44 1.72 0 3.2-1.42 3.2-3.44 0-2.04-1.48-3.43-3.2-3.43-1.72 0-3.2 1.4-3.2 3.43Z" fill="#fff"/>
</svg>
