<svg width="180" height="54" fill="none" xmlns="http://www.w3.org/2000/svg">
  <path d="M173.33 54H6.67A6.73 6.73 0 0 1 0 47.25V6.75C0 3.04 3 0 6.67 0h166.66A6.73 6.73 0 0 1 180 6.75v40.5c0 3.71-3 6.75-6.67 6.75Z" fill="#000"/>
  <path d="m27.63 26.22-14.2 15.26a3.84 3.84 0 0 0 5.65 2.35l.05-.03 15.97-9.33-7.48-8.25Z" fill="#EA4335"/>
  <path d="m41.98 23.63-.01-.02-6.9-4.05-7.77 7 7.8 7.9 6.86-4a3.89 3.89 0 0 0 2.02-3.43c0-1.47-.8-2.75-2-3.4Z" fill="#FBBC04"/>
  <path d="M13.43 12.52a3.7 3.7 0 0 0-.13 1v26.96c0 .35.04.68.13 1L28.1 26.62l-14.68-14.1Z" fill="#4285F4"/>
  <path d="m27.73 27 7.34-7.44-15.96-9.37a3.85 3.85 0 0 0-5.69 2.33L27.73 27Z" fill="#34A853"/>
  <path d="M142.58 40h2.49V23.33h-2.49V40ZM165 29.34l-2.85 7.22h-.09l-2.96-7.22h-2.68l4.44 10.1-2.53 5.61h2.6l6.84-15.71H165Zm-14.1 8.77c-.82 0-1.96-.41-1.96-1.42 0-1.29 1.41-1.78 2.64-1.78 1.1 0 1.6.24 2.27.56a3.02 3.02 0 0 1-2.96 2.64Zm.3-9.14c-1.81 0-3.68.8-4.45 2.55l2.21.93c.47-.93 1.35-1.23 2.27-1.23 1.3 0 2.6.78 2.62 2.15v.17a5.5 5.5 0 0 0-2.6-.64c-2.38 0-4.8 1.3-4.8 3.75 0 2.23 1.95 3.67 4.14 3.67a3.5 3.5 0 0 0 3.17-1.63h.09v1.28h2.4v-6.39c0-2.96-2.2-4.6-5.06-4.6Zm-15.38 2.4h-3.54v-5.72h3.53a2.89 2.89 0 0 1 2.92 2.86 2.9 2.9 0 0 1-2.91 2.86Zm-.07-8.04h-5.96V40h2.49v-6.32h3.47c2.76 0 5.47-2 5.47-5.17 0-3.18-2.71-5.18-5.47-5.18Zm-32.5 14.78c-1.72 0-3.16-1.44-3.16-3.42 0-2 1.44-3.45 3.15-3.45 1.7 0 3.03 1.46 3.03 3.45 0 1.98-1.33 3.42-3.03 3.42Zm2.85-7.84h-.1a3.93 3.93 0 0 0-2.98-1.27 5.64 5.64 0 0 0-5.44 5.7c0 3.17 2.6 5.64 5.44 5.64 1.35 0 2.43-.6 2.98-1.28h.09v.81c0 2.17-1.16 3.33-3.03 3.33a3.14 3.14 0 0 1-2.86-2.02l-2.16.9a5.4 5.4 0 0 0 5.02 3.35c2.92 0 5.4-1.71 5.4-5.9V29.35h-2.37v.92Zm4.08 9.73h2.5V23.33h-2.5V40Zm6.17-5.5a3.1 3.1 0 0 1 2.96-3.3c.99 0 1.83.49 2.1 1.2l-5.06 2.1Zm7.73-1.89c-.47-1.27-1.91-3.6-4.85-3.6-2.93 0-5.35 2.29-5.35 5.66 0 3.18 2.4 5.67 5.62 5.67 2.6 0 4.1-1.59 4.73-2.5l-1.93-1.3a3.24 3.24 0 0 1-2.8 1.57 2.89 2.89 0 0 1-2.75-1.72l7.59-3.13-.26-.65Zm-60.41-1.87v2.4h5.76a5.02 5.02 0 0 1-1.32 3.04 5.9 5.9 0 0 1-4.44 1.76 6.32 6.32 0 0 1-6.32-6.4A6.32 6.32 0 0 1 68 26.85l1.7-1.7a8.4 8.4 0 0 0-6.04-2.42 8.93 8.93 0 0 0-8.94 8.8 8.93 8.93 0 0 0 8.94 8.81c2.62 0 4.6-.86 6.14-2.47 1.6-1.59 2.09-3.82 2.09-5.62a7.8 7.8 0 0 0-.13-1.5h-8.1Zm14.77 7.37c-1.72 0-3.2-1.42-3.2-3.44 0-2.04 1.48-3.43 3.2-3.43 1.72 0 3.2 1.4 3.2 3.43 0 2.02-1.48 3.44-3.2 3.44Zm0-9.1a5.59 5.59 0 0 0-5.7 5.66 5.6 5.6 0 0 0 5.7 5.67 5.6 5.6 0 0 0 5.7-5.67 5.59 5.59 0 0 0-5.7-5.67Zm12.42 9.1c-1.72 0-3.2-1.42-3.2-3.44 0-2.04 1.48-3.43 3.2-3.43 1.72 0 3.2 1.4 3.2 3.43 0 2.02-1.48 3.44-3.2 3.44Zm0-9.1a5.59 5.59 0 0 0-5.7 5.66 5.6 5.6 0 0 0 5.7 5.67 5.6 5.6 0 0 0 5.69-5.67 5.59 5.59 0 0 0-5.7-5.67ZM55.9 16.13h1.45c.93 0 1.67-.27 2.22-.8.55-.54.82-1.3.82-2.26a3 3 0 0 0-.82-2.25 3.04 3.04 0 0 0-2.22-.81H55.9v6.12Zm-1.04 1V9h2.49c1.24 0 2.24.38 2.99 1.13a3.98 3.98 0 0 1 1.12 2.93c0 1.2-.37 2.18-1.12 2.93a4.03 4.03 0 0 1-3 1.13h-2.48Z" fill="#fff"/>
  <path d="M55.9 16.13v.13h1.45c.96 0 1.74-.27 2.32-.84.57-.56.86-1.36.86-2.35 0-.98-.29-1.78-.86-2.34a3.17 3.17 0 0 0-2.32-.85h-1.58v6.38h.14v-.13h.13v-5.99h1.3c.92 0 1.62.26 2.14.78.52.5.78 1.21.78 2.15s-.26 1.65-.78 2.16c-.52.5-1.22.77-2.13.77H55.9v.13Zm-1.04 1H55V9.15h2.35a3.9 3.9 0 0 1 2.9 1.08 3.84 3.84 0 0 1 1.08 2.84c0 1.17-.37 2.11-1.09 2.84a3.9 3.9 0 0 1-2.9 1.08h-2.48v.27h2.49c1.27 0 2.3-.39 3.08-1.17a4.1 4.1 0 0 0 1.16-3.02 4.1 4.1 0 0 0-1.16-3.02 4.17 4.17 0 0 0-3.08-1.17h-2.62v8.38h.13v-.13Zm8.04 0V9h1.04v8.12H62.9Z" fill="#fff"/>
  <path d="M62.9 17.13h.14V9.15h.77v7.84h-.9v.27h1.17V8.88h-1.31v8.38h.13v-.13Zm5.2.17c-.6 0-1.17-.18-1.73-.57a2.67 2.67 0 0 1-1.11-1.62l.95-.39c.12.45.35.83.7 1.13a1.9 1.9 0 0 0 2.35.1c.32-.23.48-.56.48-.96 0-.46-.16-.8-.49-1.05a4.99 4.99 0 0 0-1.52-.69 4.1 4.1 0 0 1-1.63-.88 2.01 2.01 0 0 1 .14-2.9 2.53 2.53 0 0 1 1.8-.64 2.57 2.57 0 0 1 2.51 1.64l-.95.4a1.4 1.4 0 0 0-.5-.71 1.58 1.58 0 0 0-1.04-.33c-.4 0-.74.11-1.03.33-.28.23-.42.5-.42.84 0 .3.13.55.39.76.26.2.64.4 1.15.56.4.13.74.26 1 .38.27.12.54.28.82.48.27.2.48.45.62.75s.21.64.21 1.03c0 .4-.08.75-.24 1.06a2 2 0 0 1-.65.73 3.2 3.2 0 0 1-1.82.56Z" fill="#fff"/>
  <path d="M68.1 17.3v-.13c-.57 0-1.11-.18-1.66-.55a2.54 2.54 0 0 1-1.05-1.54l-.13.03.05.12.95-.38-.05-.13-.13.04c.12.47.37.87.74 1.2.37.32.8.49 1.27.48.48 0 .9-.12 1.24-.38.36-.26.54-.63.54-1.07 0-.49-.18-.89-.53-1.16a5.1 5.1 0 0 0-1.57-.7 4.09 4.09 0 0 1-1.58-.85 1.7 1.7 0 0 1-.51-1.28c0-.55.2-1.01.64-1.42.44-.41 1-.61 1.72-.61a2.35 2.35 0 0 1 2.39 1.55l.12-.05-.05-.12-.95.4.05.12.13-.03a1.54 1.54 0 0 0-.55-.79c-.3-.24-.68-.36-1.12-.35-.43 0-.8.12-1.1.36a1.12 1.12 0 0 0-.04 1.81c.28.22.67.41 1.19.58.4.13.73.25.99.37.26.11.52.27.79.47.26.18.45.41.58.7.13.27.2.6.2.97 0 .38-.08.7-.23 1a1.8 1.8 0 0 1-.6.68 3.07 3.07 0 0 1-1.75.53v.27a3.36 3.36 0 0 0 1.9-.58c.28-.19.51-.45.69-.78a2.64 2.64 0 0 0 .03-2.22 2.04 2.04 0 0 0-.66-.79 5.3 5.3 0 0 0-.84-.5 9.73 9.73 0 0 0-1.02-.37 3.6 3.6 0 0 1-1.1-.54.81.81 0 0 1-.35-.66c0-.3.12-.53.38-.73.26-.2.56-.3.94-.3.4 0 .71.1.95.3.25.2.4.41.46.64l.04.14 1.2-.5-.03-.12a2.53 2.53 0 0 0-.88-1.19 2.75 2.75 0 0 0-1.76-.54c-.77 0-1.41.22-1.9.68a2.15 2.15 0 0 0-.13 3.09c.39.38.95.68 1.68.9.69.22 1.18.44 1.48.67.3.23.43.52.43.95a1 1 0 0 1-.42.86 1.79 1.79 0 0 1-2.19-.1 2.05 2.05 0 0 1-.65-1.06l-.04-.15-1.09.45-.1.04.02.11a3.13 3.13 0 0 0 2.96 2.3v-.13Zm5.2-4.46h1.75c.44 0 .8-.14 1.05-.44.27-.3.4-.62.4-.97 0-.36-.13-.68-.4-.98-.26-.3-.61-.44-1.05-.44h-1.74v2.83Zm0 4.29h-1.04V9h2.77c.69 0 1.28.23 1.78.69.5.46.76 1.03.76 1.73s-.25 1.27-.76 1.72c-.5.46-1.1.7-1.78.7H73.3v3.28Z" fill="#fff"/>
  <path d="M73.3 12.84v.14h1.75c.47 0 .87-.17 1.15-.49.29-.31.44-.67.44-1.06a1.57 1.57 0 0 0-1.59-1.55h-1.88v3.1h.14v-.14h.13v-2.7h1.61c.41 0 .72.14.96.4.24.28.36.57.36.89 0 .32-.12.6-.36.88-.24.27-.55.4-.96.4h-1.74v.13Zm0 4.29v-.14h-.9V9.15h2.63c.66 0 1.21.21 1.7.65.47.43.7.96.7 1.63 0 .66-.23 1.2-.7 1.63-.49.43-1.04.65-1.7.65h-1.86v3.42h.27v-3.16h1.59a2.7 2.7 0 0 0 1.87-.72c.53-.48.8-1.1.8-1.82 0-.73-.27-1.35-.8-1.83a2.7 2.7 0 0 0-1.87-.72h-2.9v8.38h1.3v-.13h-.12Zm7.1-1.73c.6.6 1.34.91 2.2.91a3 3 0 0 0 2.21-.91c.6-.6.9-1.38.9-2.33 0-.94-.3-1.72-.9-2.33-.6-.6-1.34-.91-2.2-.91-.87 0-1.6.3-2.2.91a3.16 3.16 0 0 0-.91 2.33c0 .95.3 1.72.9 2.33Zm5.18.68a3.98 3.98 0 0 1-2.98 1.23 4.16 4.16 0 0 1-4.17-4.24 4.16 4.16 0 0 1 7.15-3c.8.82 1.2 1.82 1.2 3 0 1.19-.4 2.19-1.2 3.01Z" fill="#fff"/>
  <path d="m80.4 15.4-.1.1c.63.63 1.4.95 2.3.94.9 0 1.68-.31 2.3-.95.63-.63.94-1.45.94-2.42s-.31-1.79-.94-2.42a3.12 3.12 0 0 0-2.3-.95c-.9 0-1.67.32-2.3.95a3.31 3.31 0 0 0-.93 2.42c0 .97.31 1.79.94 2.42l.1-.1.09-.08a3.04 3.04 0 0 1-.87-2.24c0-.92.29-1.65.87-2.24a2.85 2.85 0 0 1 2.1-.87c.84 0 1.54.29 2.11.87.58.59.87 1.32.87 2.24 0 .92-.3 1.65-.87 2.24-.57.58-1.27.87-2.1.87-.84 0-1.53-.29-2.11-.87l-.1.09Zm5.18.68-.1-.1a3.84 3.84 0 0 1-2.88 1.2c-1.15 0-2.1-.4-2.87-1.2a4.02 4.02 0 0 1-1.16-2.91 4.02 4.02 0 0 1 4.03-4.1 4.01 4.01 0 0 1 4.04 4.1 4 4 0 0 1-1.16 2.92l.1.09.1.1a4.29 4.29 0 0 0 1.23-3.11 4.28 4.28 0 0 0-4.3-4.37 4.29 4.29 0 0 0-4.3 4.37 4.29 4.29 0 0 0 4.3 4.37c1.21 0 2.25-.42 3.07-1.27l-.1-.09Zm2.62 1.05V9h1.27l3.95 6.32h.04l-.04-1.57V9.01h1.04v8.12h-1.09l-4.13-6.62h-.04l.04 1.56v5.06H88.2Z" fill="#fff"/>
  <path d="M88.2 17.13h.14V9.15h1.06l3.94 6.3h.26l-.05-1.69V9.15h.78v7.84h-.89l-4.12-6.61h-.26l.05 1.7v4.91h-.9v.27h1.17v-5.19l-.05-1.56h-.13v.13h.04v-.13l-.1.07 4.16 6.68h1.3V8.88h-1.32v4.88l.05 1.57h.13v-.14h-.04v.14l.11-.08-3.98-6.37h-1.48v8.38h.13v-.13Zm8.12 0V9h1.04v8.12h-1.04Z" fill="#fff"/>
  <path d="M96.32 17.13h.14V9.15h.77v7.84h-.9v.27h1.17V8.88h-1.31v8.38h.13v-.13Zm3.95-1h2.1c.4 0 .72-.14.97-.42a1.3 1.3 0 0 0-.01-1.83c-.26-.28-.6-.41-1.01-.41h-2.05v2.66Zm0-3.64h1.9c.39 0 .7-.13.94-.39s.36-.54.36-.85c0-.31-.12-.6-.35-.85a1.17 1.17 0 0 0-.91-.39h-1.94v2.48Zm-1.04 4.64V9h2.93c.64 0 1.19.21 1.65.63.47.42.7.95.7 1.58 0 .39-.1.73-.3 1.02-.2.3-.47.52-.8.67v.05c.4.13.73.37.99.7a2.13 2.13 0 0 1-.35 2.81 2.5 2.5 0 0 1-1.73.66h-3.1Z" fill="#fff"/>
  <path d="M100.27 16.13v.13h2.1c.43 0 .8-.15 1.07-.46.27-.3.4-.64.4-1 0-.37-.14-.72-.41-1.01-.28-.3-.66-.46-1.11-.46h-2.18v2.93h.13v-.13h.13V13.6h1.92c.39 0 .68.12.91.37.24.26.35.53.35.82 0 .3-.1.57-.34.83-.22.25-.5.38-.87.38h-2.1v.13Zm0-3.64v.14h1.9c.41 0 .77-.15 1.04-.44.25-.28.4-.6.39-.94 0-.35-.13-.67-.38-.94a1.3 1.3 0 0 0-1.01-.43h-2.07v2.75h.13v-.14h.13v-2.35h1.8a1.12 1.12 0 0 1 1.12 1.1c.01.28-.09.53-.3.77a1.1 1.1 0 0 1-.86.35h-1.9v.13Zm-1.04 4.64h.13V9.15h2.8c.6 0 1.12.2 1.56.6a1.9 1.9 0 0 1 .38 2.42c-.19.27-.43.48-.75.62l-.07.04v.22l.09.03c.37.13.68.35.92.66.24.31.36.66.36 1.08a2 2 0 0 1-.69 1.55c-.46.42-1 .62-1.64.62h-3.1v.27h3.1c.7 0 1.31-.23 1.82-.7.51-.45.78-1.05.78-1.74 0-.47-.14-.89-.42-1.24a2.2 2.2 0 0 0-1.05-.75l-.04.13h.13v-.05h-.13l.05.12a1.9 1.9 0 0 0 1.18-1.81 2.2 2.2 0 0 0-.74-1.68 2.5 2.5 0 0 0-1.74-.66H99.1v8.38h.14v-.13Zm7.01 0V9h1.04v7.12h3.51v1h-4.55Z" fill="#fff"/>
  <path d="M106.24 17.13h.13V9.15h.78v7.11h3.51V17h-4.42v.27h4.69V16h-3.52V8.88h-1.3v8.38h.13v-.13Zm10.43-7.12h-3.7v2.57h3.34v.98h-3.34v2.57h3.7v1h-4.74V9h4.74v1Z" fill="#fff"/>
  <path d="M116.67 10.01v-.13h-3.83v2.84h3.33v.7h-3.33v2.84h3.7V17h-4.48V9.15h4.47V10h.27V8.88h-5v8.38h5V16h-3.7v-2.3h3.34v-1.25h-3.33v-2.3h3.69V10h-.13Zm5.52 3.94h2.7l-1.33-3.66h-.05l-1.32 3.66Zm-2.3 3.18L122.95 9h1.17l3.06 8.12h-1.15l-.78-2.2h-3.41l-.8 2.2h-1.15Z" fill="#fff"/>
  <path d="M122.19 13.95v.14h2.89l-1.43-3.93h-.23L122 14.09h.19v-.14l.12.05 1.33-3.66-.13-.05v.14h.05v-.14l-.13.05 1.26 3.48h-2.5v.13Zm-2.3 3.18.12.04 3.03-8.02h1l2.95 7.84h-.87l-.78-2.2h-3.6l-.8 2.2h-1.05v.27h1.25l.79-2.2h3.22l.78 2.2h1.45l-3.16-8.38h-1.36l-3.17 8.38h.2v-.13Z" fill="#fff"/>
</svg>
