<svg width="180" height="54" fill="none" xmlns="http://www.w3.org/2000/svg">
  <path d="M173.3 54H6.7A6.7 6.7 0 0 1 0 47.2V6.8C0 3 3 0 6.7 0h166.6a6.7 6.7 0 0 1 6.7 6.8v40.5c0 3.7-3 6.7-6.7 6.7Z" fill="#000"/>
  <path d="M27.6 26.2 13.4 41.5a3.8 3.8 0 0 0 5.7 2.3l16-9.3-7.5-8.3Z" fill="#EA4335"/>
  <path d="m42 23.6-7-4-7.7 7 7.8 7.9 6.9-4a3.9 3.9 0 0 0 2-3.5 4 4 0 0 0-2-3.4Z" fill="#FBBC04"/>
  <path d="M13.4 12.5a3.7 3.7 0 0 0-.1 1v27l.1 1 14.7-14.9-14.7-14Z" fill="#4285F4"/>
  <path d="m27.7 27 7.4-7.4-16-9.4a3.9 3.9 0 0 0-5.7 2.3L27.7 27Z" fill="#34A853"/>
  <path d="M142.6 40h2.5V23.3h-2.5V40ZM165 29.3l-2.9 7.3-3-7.3h-2.7l4.5 10.1-2.6 5.7h2.6l6.9-15.8H165Zm-14.1 8.8c-.8 0-2-.4-2-1.4 0-1.3 1.4-1.8 2.7-1.8 1 0 1.6.2 2.2.6a3 3 0 0 1-3 2.6Zm.3-9.1c-1.8 0-3.7.8-4.4 2.5l2.2 1c.4-1 1.3-1.3 2.2-1.3 1.3 0 2.6.8 2.7 2.2v.1a5.5 5.5 0 0 0-2.6-.6c-2.4 0-4.8 1.3-4.8 3.8 0 2.2 1.9 3.6 4 3.6a3.5 3.5 0 0 0 3.3-1.6V40h2.5v-6.4c0-3-2.2-4.6-5.1-4.6Zm-15.4 2.4h-3.5v-5.8h3.5a2.9 2.9 0 0 1 3 3 2.9 2.9 0 0 1-3 2.8Zm0-8h-6V40h2.5v-6.3h3.5c2.7 0 5.4-2 5.4-5.2s-2.7-5.2-5.4-5.2ZM103.3 38c-1.8 0-3.2-1.4-3.2-3.4s1.4-3.5 3.1-3.5c1.7 0 3 1.5 3 3.5s-1.3 3.4-3 3.4Zm2.8-7.8h-.1a4 4 0 0 0-3-1.3 5.6 5.6 0 0 0-5.4 5.7c0 3.2 2.6 5.6 5.4 5.6a4 4 0 0 0 3-1.2v.8c0 2.1-1 3.3-3 3.3a3.1 3.1 0 0 1-2.8-2L98 42a5.4 5.4 0 0 0 5 3.3c3 0 5.5-1.7 5.5-5.9v-10H106v.9Zm4 9.7h2.6V23.3h-2.5V40Zm6.3-5.5a3.1 3.1 0 0 1 3-3.3c.9 0 1.7.5 2 1.2l-5 2.1Zm7.7-1.9c-.5-1.3-2-3.6-4.9-3.6-2.9 0-5.3 2.3-5.3 5.7 0 3.1 2.4 5.6 5.6 5.6 2.6 0 4.1-1.5 4.7-2.5l-1.9-1.3a3.2 3.2 0 0 1-2.8 1.6 2.9 2.9 0 0 1-2.7-1.7l7.5-3.1-.2-.7Zm-60.4-1.9V33h5.7a5 5 0 0 1-1.3 3 5.9 5.9 0 0 1-4.4 1.8 6.3 6.3 0 0 1-6.3-6.4A6.3 6.3 0 0 1 68 27l1.7-1.7a8.4 8.4 0 0 0-6-2.5 9 9 0 0 0-9 8.8 9 9 0 0 0 9 8.8 8 8 0 0 0 6.1-2.4c1.6-1.6 2-3.8 2-5.6a7.8 7.8 0 0 0 0-1.5h-8.1ZM78.4 38c-1.7 0-3.2-1.4-3.2-3.4s1.5-3.5 3.2-3.5c1.8 0 3.2 1.4 3.2 3.5 0 2-1.4 3.4-3.2 3.4Zm0-9a5.6 5.6 0 0 0-5.7 5.6 5.6 5.6 0 0 0 5.7 5.6 5.6 5.6 0 0 0 5.7-5.6 5.6 5.6 0 0 0-5.7-5.7ZM91 38c-1.8 0-3.2-1.4-3.2-3.4s1.4-3.5 3.2-3.5c1.7 0 3.2 1.4 3.2 3.5 0 2-1.5 3.4-3.2 3.4Zm0-9a5.6 5.6 0 0 0-5.7 5.6 5.6 5.6 0 0 0 5.7 5.6 5.6 5.6 0 0 0 5.7-5.6 5.6 5.6 0 0 0-5.7-5.7ZM56 16h1.4a3 3 0 0 0 2.3-.8 3 3 0 0 0 .8-2.2 3 3 0 0 0-.8-2.3 3 3 0 0 0-2.3-.8H56V16Zm-1 1V9h2.5a4 4 0 0 1 3 1.1 4 4 0 0 1 1 3 4 4 0 0 1-1 2.9 4 4 0 0 1-3 1.1H55Z" fill="#fff"/>
  <path d="M55.9 16.1v.2h1.4c1 0 1.8-.3 2.4-.9.5-.5.8-1.3.8-2.3 0-1-.3-1.8-.8-2.4a3.2 3.2 0 0 0-2.4-.8h-1.5v6.4h.1V16h.1v-6h1.3c1 0 1.7.3 2.2.8.5.5.8 1.2.8 2.2s-.3 1.6-.8 2.1a3 3 0 0 1-2.1.8h-1.5v.1Zm-1 1h.1v-8h2.4a3.9 3.9 0 0 1 2.9 1.1 3.8 3.8 0 0 1 1 2.9 4 4 0 0 1-1 2.8 3.9 3.9 0 0 1-3 1H55v.4h2.5a4 4 0 0 0 3-1.2 4.1 4.1 0 0 0 1.2-3 4.1 4.1 0 0 0-1.2-3 4.2 4.2 0 0 0-3-1.2h-2.7v8.4h.2V17Zm8 0V9h1v8.1h-1Z" fill="#fff"/>
  <path d="M62.9 17.1h.1v-8h.8V17H63v.3h1.2V8.9h-1.3v8.4h.1V17Zm5.2.2a3 3 0 0 1-1.7-.6 2.7 2.7 0 0 1-1.1-1.6l1-.4c0 .5.3.8.6 1.1a1.9 1.9 0 0 0 2.4.1c.3-.2.4-.5.4-1 0-.4-.1-.7-.5-1a5 5 0 0 0-1.5-.7 4.1 4.1 0 0 1-1.6-.8 2 2 0 0 1 .1-3 2.5 2.5 0 0 1 1.8-.6 2.6 2.6 0 0 1 2.6 1.7l-1 .4a1.4 1.4 0 0 0-.5-.7 1.6 1.6 0 0 0-1-.4c-.4 0-.8.1-1 .4a1 1 0 0 0-.5.8c0 .3.1.5.4.8.3.2.6.4 1.1.5l1 .4.9.5.6.7c.2.3.2.7.2 1 0 .5 0 .8-.2 1.1a2 2 0 0 1-.7.7 3.2 3.2 0 0 1-1.8.6Z" fill="#fff"/>
  <path d="M68.1 17.3v-.1a3 3 0 0 1-1.7-.6 2.5 2.5 0 0 1-1-1.5h-.1v.1l1-.3v-.2H66c.1.5.4 1 .7 1.3.4.3.8.4 1.3.4a2 2 0 0 0 1.2-.3c.4-.3.6-.7.6-1.1 0-.5-.2-.9-.6-1.2a5.1 5.1 0 0 0-1.5-.7 4 4 0 0 1-1.6-.8 1.7 1.7 0 0 1-.5-1.3c0-.6.2-1 .6-1.4.5-.4 1-.6 1.7-.6a2.4 2.4 0 0 1 2.4 1.5h.2l-.1-.1-1 .4h.2a1.5 1.5 0 0 0-.5-.7c-.3-.3-.7-.4-1.1-.4-.5 0-.8.1-1.1.4a1.1 1.1 0 0 0 0 1.8l1.1.6c.4 0 .7.2 1 .3l.8.5.6.7.2 1c0 .3-.1.7-.3 1a1.8 1.8 0 0 1-.6.6 3 3 0 0 1-1.7.6v.2a3.4 3.4 0 0 0 2-.4l.7-.8a2.6 2.6 0 0 0 0-2.2 2 2 0 0 0-.6-.8 5.3 5.3 0 0 0-.9-.5 9.7 9.7 0 0 0-1-.4 3.6 3.6 0 0 1-1.1-.5.8.8 0 0 1-.4-.7c0-.3.2-.5.4-.7.3-.2.6-.3 1-.3s.7 0 1 .3l.4.6v.1l1.2-.4v-.2a2.5 2.5 0 0 0-.9-1.2 2.8 2.8 0 0 0-1.8-.5c-.7 0-1.4.2-1.9.7a2.1 2.1 0 0 0 0 3c.3.5.9.8 1.6 1a5 5 0 0 1 1.5.6c.3.3.4.6.4 1a1 1 0 0 1-.4.9 1.8 1.8 0 0 1-2.2-.1 2 2 0 0 1-.7-1.1v-.2l-1 .5H65v.1a3.1 3.1 0 0 0 3 2.3Zm5.2-4.5h1.8c.4 0 .8-.1 1-.4.3-.3.4-.6.4-1 0-.3-.1-.7-.4-1-.3-.3-.6-.4-1-.4h-1.8v2.8Zm0 4.3h-1V9H75c.7 0 1.3.2 1.8.7.5.5.8 1 .8 1.7s-.3 1.3-.8 1.7c-.5.5-1 .7-1.8.7h-1.7v3.3Z" fill="#fff"/>
  <path d="M73.3 12.8v.2h1.8c.4 0 .8-.2 1.1-.5.3-.3.4-.7.4-1a1.6 1.6 0 0 0-1.5-1.6h-2v3h.4V10H75c.5 0 .8.2 1 .4.2.3.4.6.4 1l-.4.8c-.2.3-.5.4-1 .4h-1.7v.1Zm0 4.3V17h-.9V9.2H75c.7 0 1.2.2 1.7.6.5.4.7 1 .7 1.6 0 .7-.2 1.2-.7 1.7-.5.4-1 .6-1.7.6h-1.8v3.4h.2V14H75a2.7 2.7 0 0 0 1.9-.8c.5-.4.8-1 .8-1.8 0-.7-.3-1.3-.8-1.8a2.7 2.7 0 0 0-1.9-.7h-2.9v8.4h1.3V17Zm7.1-1.7a3 3 0 0 0 2.2 1 3 3 0 0 0 2.2-1 3.3 3.3 0 0 0 0-4.7 3 3 0 0 0-2.2-.9 3 3 0 0 0-2.2 1 3.2 3.2 0 0 0-.9 2.3c0 1 .3 1.7.9 2.3Zm5.2.7a4 4 0 0 1-3 1.2 4.2 4.2 0 0 1-4.2-4.2 4.2 4.2 0 0 1 7.2-3c.8.8 1.2 1.8 1.2 3s-.4 2.2-1.2 3Z" fill="#fff"/>
  <path d="m80.4 15.4-.1.1a3 3 0 0 0 2.3 1 3 3 0 0 0 2.3-1c.6-.6 1-1.5 1-2.4s-.4-1.8-1-2.4a3.1 3.1 0 0 0-2.3-1c-.9 0-1.7.3-2.3 1a3.3 3.3 0 0 0-1 2.4c0 1 .4 1.8 1 2.4l.1-.1h.1a3 3 0 0 1-.9-2.3c0-1 .3-1.7.9-2.3a2.9 2.9 0 0 1 2.1-.8c.8 0 1.5.3 2.1.8.6.6.9 1.4.9 2.3a3 3 0 0 1-.9 2.2c-.6.6-1.3.9-2 .9-1 0-1.6-.3-2.2-.9l-.1.1Zm5.2.7-.1-.1a3.8 3.8 0 0 1-2.9 1.2 4 4 0 0 1-2.9-1.2 4 4 0 0 1-1.1-3 4 4 0 0 1 4-4 4 4 0 0 1 4 4 4 4 0 0 1-1.1 3l.2.2a4.3 4.3 0 0 0 1.2-3.1 4.3 4.3 0 0 0-4.3-4.4 4.3 4.3 0 0 0-4.3 4.4 4.3 4.3 0 0 0 4.3 4.3 4 4 0 0 0 3-1.2V16Zm2.6 1V9h1.3l4 6.3V9h1v8.1h-1.1l-4.2-6.6v6.6h-1Z" fill="#fff"/>
  <path d="M88.2 17.1h.1v-8h1.1l4 6.4h.2V9h.7v8h-.9l-4-6.6H89V17h-.9v.3h1.2v-6.8h-.2v.1l4.1 6.7h1.3V8.9h-1.3v6.4h.2v-.1.1l-4-6.4H88v8.4h.1V17Zm8.1 0V9h1v8.1h-1Z" fill="#fff"/>
  <path d="M96.3 17.1h.2v-8h.7V17h-.9v.3h1.2V8.9h-1.3v8.4h.1V17Zm4-1h2c.5 0 .8-.1 1-.4a1.3 1.3 0 0 0 0-1.8c-.2-.3-.6-.4-1-.4h-2V16Zm0-3.6h1.9c.4 0 .7-.1 1-.4s.3-.5.3-.9c0-.3-.2-.6-.4-.8a1.2 1.2 0 0 0-.9-.4h-2v2.5Zm-1 4.6V9h2.9c.6 0 1.1.2 1.6.6.5.5.7 1 .7 1.6 0 .4 0 .7-.3 1-.2.3-.5.6-.8.7.4.2.7.4 1 .8a2.1 2.1 0 0 1-.3 2.8 2.5 2.5 0 0 1-1.8.6h-3Z" fill="#fff"/>
  <path d="M100.3 16.1v.2h2c.5 0 .9-.2 1.1-.5.3-.3.4-.6.4-1s-.1-.7-.4-1c-.3-.3-.6-.5-1-.5H100v3h.2V16h.1v-2.5h2c.3 0 .6.1.8.4.3.2.4.5.4.8 0 .3-.1.6-.4.8a1 1 0 0 1-.8.4h-2.1v.1Zm0-3.6v.1h1.9a1.4 1.4 0 0 0 1.4-1.4c0-.3-.1-.6-.4-.9a1.3 1.3 0 0 0-1-.4h-2v2.7-.1h.2V10h1.8a1.1 1.1 0 0 1 1.1 1.1c0 .3 0 .6-.3.8a1.1 1.1 0 0 1-.8.4h-2Zm-1 4.6v-8h2.9c.6 0 1 .3 1.5.7a1.9 1.9 0 0 1 .4 2.4c-.2.2-.4.5-.8.6v.2l1 .7c.2.3.3.7.3 1.1a2 2 0 0 1-.6 1.6c-.5.4-1 .6-1.7.6h-3v.3h3c.7 0 1.3-.3 1.8-.7.5-.5.8-1 .8-1.8a2 2 0 0 0-.4-1.2 2.2 2.2 0 0 0-1-.8v.2a1.9 1.9 0 0 0 1.1-1.8 2.2 2.2 0 0 0-.7-1.7 2.5 2.5 0 0 0-1.7-.6H99v8.4h.1V17Zm7 0V9h1v7.1h3.5v1h-4.6Z" fill="#fff"/>
  <path d="M106.2 17.1h.2v-8h.7v7.2h3.6v.7h-4.5v.3h4.7V16h-3.5V8.9h-1.3v8.4h.1V17Zm10.5-7H113v2.5h3.3v1H113V16h3.7v1h-4.8V9h4.8v1Z" fill="#fff"/>
  <path d="M116.7 10h-3.9v2.8h3.4v.7h-3.4v2.9h3.7v.7h-4.4V9.2h4.4v.8h.3V8.9h-5v8.4h5V16h-3.7v-2.3h3.3v-1.3h-3.3v-2.3h3.7V10h-.1Zm5.5 4h2.7l-1.3-3.7-1.4 3.6Zm-2.3 3.1 3-8.1h1.2l3 8.1h-1l-.8-2.2h-3.5l-.8 2.2h-1Z" fill="#fff"/>
  <path d="M122.2 14h2.9l-1.4-3.8h-.3L122 14h.3l1.3-3.7v.1-.1h-.2l1.3 3.5h-2.5v.1Zm-2.3 3.1h.1l3-8h1l3 7.9h-.9l-.8-2.2h-3.6L121 17h-1v.3h1.2l.8-2.2h3.3l.7 2.2h1.5l-3.2-8.4H123l-3.2 8.4h.2V17Z" fill="#fff"/>
</svg>
