<svg width="270" height="80" fill="none" xmlns="http://www.w3.org/2000/svg">
  <g clip-path="url(#a)">
    <mask id="b" style="mask-type:luminance" maskUnits="userSpaceOnUse" x="0" y="0" width="270" height="80">
      <path d="M0 0h270v80H0V0Z" fill="#fff"/>
    </mask>
    <g mask="url(#b)">
      <path d="M260 80H10A10 10 0 0 1 0 70V10A10 10 0 0 1 10 0h250a10 10 0 0 1 10 10v60a10 10 0 0 1-10 10Z" fill="#000"/>
    </g>
    <mask id="c" style="mask-type:luminance" maskUnits="userSpaceOnUse" x="0" y="0" width="270" height="80">
      <path d="M0 0h270v80H0V0Z" fill="#fff"/>
    </mask>
    <g mask="url(#c)">
      <path d="M92.8 21.2h3.6v-1h-3.6V17h-1.2v3.1h-3.5v1.1h3.5v4.5h-4.2v1.1h9.7v-1h-4.3v-4.6Zm-4-6.1.8-2.2-1.2-.3-.9 2.5h-4.4v1.1H87c-1 2-2.4 4-4.2 5.2l.6 1.1c.6-.5 1.3-1 1.8-1.6V27h1.2v-7.6c.7-1 1.4-2.1 2-3.3H97V15h-8.3Zm15.8 9.7v-6.1h2.3v-1.2h-2.3v-4.9h-1.2V25l-1.8.3v-9.5h-1.1v9.8c-.5 0-1 0-1.3.2l.2 1.2 7.6-1.4v-1.2l-2.4.4Zm5.1.7c-.6 0-.8-.1-.8-1v-5.8h4v-1.2h-4v-4.9h-1.2v11.9c0 1.7.4 2.2 1.9 2.2h2.4c1.4 0 1.8-.9 2-3.4l-1.2-.6c-.1 2.3-.2 2.8-.9 2.8h-2.2Zm20-10.5v-1.2h-14V15h6v12.2h1.3v-8.4c1.9 1 4 2.3 5.1 3.2l.8-1.1a36 36 0 0 0-5.6-3.3l-.3.2V15h6.8Zm16 0a9.1 9.1 0 0 0-2.2-2.2l-.8.6a13 13 0 0 1 2.2 2.2l.9-.6Zm-12 7.2h2v1h-2v-1Zm0-1.5h2v.8h-2v-.8Zm4.9.8h-2v-.8h2v.8Zm0 1.6h-2v-.9h2v1Zm5.8-5c-.4 1.4-1.1 2.9-2 4.2a34 34 0 0 1-.6-5.2h4.4v-1h-4.5v-3.5h-1.2v3.5h-3.8v-1.3h2.9v-1h-3v-1.2h-1v1.3h-3v1h3V16H132v1h8.6c.2 2.5.5 4.7 1 6.5-.5.6-1 1.2-1.7 1.7v-.6h-3.3v-.9h3V20h-3v-1h3.3v-.8h-3.3v-1h-1v1h-3.2v.9h3.2v.9h-2.8v3.8h2.8v1H132v.8h3.5v1.6h1v-1.6h3l-1.1.7c.3.3.7.6.8 1a13 13 0 0 0 2.7-2.5c.6 1.5 1.5 2.4 2.6 2.4 1.2 0 1.6-.7 1.8-3.3-.3 0-.7-.3-1-.6 0 2-.2 2.8-.6 2.8-.8 0-1.5-.9-2-2.4a19 19 0 0 0 2.7-5.3l-1-.4Z" fill="#fff"/>
    </g>
    <mask id="d" style="mask-type:luminance" maskUnits="userSpaceOnUse" x="0" y="0" width="270" height="80">
      <path d="M0 0h270v80H0V0Z" fill="#fff"/>
    </mask>
    <g mask="url(#d)">
      <path d="M92.8 21.2h3.6v-1h-3.6V17h-1.2v3h-3.5v1.1h3.5v4.5h-4.2v1.1H97v-1h-4.2v-4.6Zm-4-6.1.8-2.2-1.2-.3-.9 2.5h-4.4v1.1H87c-1 2-2.4 4-4.2 5.2l.6 1.1c.6-.5 1.3-1 1.8-1.6v6.3h1.2v-7.7c.7-1 1.4-2.1 2-3.3H97v-1.1h-8.2Z" stroke="#fff" stroke-width=".3" stroke-miterlimit="10"/>
    </g>
    <mask id="e" style="mask-type:luminance" maskUnits="userSpaceOnUse" x="0" y="0" width="270" height="80">
      <path d="M0 0h270v80H0V0Z" fill="#fff"/>
    </mask>
    <g mask="url(#e)">
      <path d="M104.6 24.8v-6.1h2.3v-1.2h-2.3v-4.9h-1.2V25l-1.8.3v-9.5h-1.1v9.8l-1.3.2.2 1.2 7.6-1.4-.1-1.2-2.3.4Zm5.1.7c-.6 0-.8-.1-.8-1v-5.8h4v-1.2h-4v-4.9h-1.2v12c0 1.6.4 2.1 1.9 2.1h2.4c1.4 0 1.7-.9 2-3.5-.4 0-1-.3-1.2-.5-.1 2.3-.2 2.8-.9 2.8h-2.2Z" stroke="#fff" stroke-width=".3" stroke-miterlimit="10"/>
    </g>
    <mask id="f" style="mask-type:luminance" maskUnits="userSpaceOnUse" x="0" y="0" width="270" height="80">
      <path d="M0 0h270v80H0V0Z" fill="#fff"/>
    </mask>
    <g mask="url(#f)">
      <path d="M129.8 15v-1.2h-14.1V15h6v12.2h1.3v-8.4c1.9 1 4 2.3 5.1 3.2l.8-1.1c-1.2-1-3.7-2.4-5.6-3.3l-.3.2V15h6.8Z" stroke="#fff" stroke-width=".3" stroke-miterlimit="10"/>
    </g>
    <mask id="g" style="mask-type:luminance" maskUnits="userSpaceOnUse" x="0" y="0" width="270" height="80">
      <path d="M0 0h270v80H0V0Z" fill="#fff"/>
    </mask>
    <g mask="url(#g)">
      <path d="M145.8 15a12 12 0 0 0-2.3-2.2l-.8.6c.8.7 1.8 1.6 2.2 2.2l.9-.6Zm-12.1 7.2h2v1h-2v-1Zm0-1.5h2v.9h-2v-1Zm4.9.9h-2v-1h2v1Zm0 1.5h-2v-.9h2v1Zm5.8-5.1a14 14 0 0 1-2 4.3 36 36 0 0 1-.6-5.2h4.4v-1h-4.5v-3.5h-1.2v3.5h-3.8v-1.3h2.9v-1h-3v-1.2h-1V14h-3v1h3v1H132v1h8.6c.2 2.5.5 4.7 1 6.5-.5.6-1 1.2-1.7 1.7v-.6h-3.3v-.9h3V20h-3v-1h3.3v-.8h-3.3v-1h-1v1h-3.2v.9h3.2v.9h-2.8v3.8h2.8v.9H132v1h3.5v1.5h1v-1.6h3l-1.1.7c.3.3.7.6.8 1a13 13 0 0 0 2.7-2.5c.6 1.5 1.5 2.4 2.6 2.4 1.2 0 1.6-.7 1.8-3.3-.3 0-.7-.3-1-.6 0 2-.2 2.8-.7 2.8-.7 0-1.4-.9-1.8-2.4 1-1.5 2-3.4 2.6-5.3l-1-.4Z" stroke="#fff" stroke-width=".3" stroke-miterlimit="10"/>
    </g>
    <mask id="h" style="mask-type:luminance" maskUnits="userSpaceOnUse" x="0" y="0" width="270" height="80">
      <path d="M0 0h270v80H0V0Z" fill="#fff"/>
    </mask>
    <g mask="url(#h)">
      <path d="M213.9 60h3.7V35h-3.7v25Zm33.6-16-4.3 10.8h-.1L238.6 44h-4l6.7 15.2-3.8 8.4h3.9L251.6 44h-4.1Zm-21.2 13.2c-1.2 0-3-.7-3-2.2 0-1.9 2.2-2.6 4-2.6 1.7 0 2.5.3 3.5.8-.3 2.3-2.3 4-4.5 4Zm.5-13.7c-2.7 0-5.5 1.1-6.7 3.8l3.3 1.4c.7-1.4 2-1.9 3.4-1.9 2 0 4 1.2 4 3.3v.2c-.7-.4-2.2-1-4-1-3.5 0-7.1 2-7.1 5.7 0 3.3 2.9 5.5 6.2 5.5 2.5 0 3.9-1.2 4.7-2.5h.2v2h3.6v-9.6c0-4.5-3.3-7-7.6-7Zm-23 3.5h-5.4v-8.5h5.3c2.8 0 4.4 2.3 4.4 4.3 0 1.9-1.6 4.2-4.4 4.2Zm-.2-12h-9v25h3.8v-9.5h5.2c4.1 0 8.2-3 8.2-7.7 0-4.8-4-7.8-8.2-7.8Zm-48.8 22.2c-2.5 0-4.7-2.2-4.7-5.2s2.2-5.1 4.8-5.1c2.5 0 4.5 2.1 4.5 5.1 0 3-2 5.2-4.6 5.2Zm4.3-11.8c-1-1-2.5-1.9-4.6-1.9a8.5 8.5 0 0 0-8.1 8.5c0 4.8 3.9 8.5 8.1 8.5 2 0 3.7-.9 4.5-2h.1v1.3c0 3.3-1.7 5-4.5 5a4.7 4.7 0 0 1-4.3-3l-3.2 1.3a8 8 0 0 0 7.5 5c4.4 0 8-2.5 8-8.8V44h-3.5v1.4Zm6.2 14.6h3.7V35h-3.7v25Zm9.2-8.2c0-3.3 2.6-5 4.4-5 1.5 0 2.8.7 3.2 1.8l-7.6 3.2Zm11.6-2.9c-.7-1.9-2.9-5.4-7.3-5.4s-8 3.5-8 8.5c0 4.8 3.6 8.5 8.4 8.5 4 0 6.2-2.4 7.1-3.8l-2.9-1.9a4.9 4.9 0 0 1-4.2 2.4c-1.9 0-3.2-1-4-2.6l11.3-4.7-.4-1Zm-90.6-2.8v3.6h8.6c-.2 2-1 3.5-2 4.6a8.8 8.8 0 0 1-6.6 2.6 9.5 9.5 0 0 1-9.5-9.6 9.5 9.5 0 0 1 16-7l2.5-2.6A13.4 13.4 0 0 0 82 47.3c0 7.3 6.1 13.2 13.4 13.2 4 0 6.9-1.3 9.2-3.7a12 12 0 0 0 3.1-8.4c0-.9 0-1.6-.2-2.3h-12Zm22.1 11c-2.5 0-4.8-2-4.8-5 0-3.2 2.3-5.2 4.8-5.2 2.6 0 4.8 2 4.8 5.1 0 3-2.2 5.2-4.8 5.2Zm0-13.6a8.4 8.4 0 0 0-8.5 8.5c0 5 3.8 8.5 8.5 8.5 4.8 0 8.6-3.6 8.6-8.5 0-5-3.9-8.5-8.6-8.5Zm18.7 13.7c-2.6 0-4.8-2.2-4.8-5.2s2.2-5.1 4.8-5.1c2.5 0 4.8 2 4.8 5.1 0 3-2.3 5.2-4.8 5.2Zm0-13.7a8.4 8.4 0 0 0-8.6 8.5c0 5 3.9 8.5 8.6 8.5 4.7 0 8.5-3.6 8.5-8.5 0-5-3.8-8.5-8.5-8.5Z" fill="#fff"/>
    </g>
    <mask id="i" style="mask-type:luminance" maskUnits="userSpaceOnUse" x="0" y="0" width="270" height="80">
      <path d="M0 0h270v80H0V0Z" fill="#fff"/>
    </mask>
    <g mask="url(#i)">
      <path d="m24.4 26.2 12.4 12.4c.8.8.8 2.2 0 3L24.4 54.2v-28Zm4.3-6L42.5 28l4.9 2.8-4.6 4.6a2 2 0 0 1-3 0L24.9 20.7c1-1 2.5-1.3 3.8-.6Zm-1.7 40a3 3 0 0 1-2-.9l14.7-14.8c.8-.8 2.2-.8 3 0l4.5 4.6-18.7 10.7a3 3 0 0 1-1.5.4Zm31.5-17.7L51.2 47l-5.4-5.4c-.8-.8-.8-2.2 0-3l5.4-5.5 7.4 4.4c1 .5 1.6 1.5 1.6 2.5s-.6 2-1.6 2.6Zm2.3-8.8L31 16.4c-1.2-.6-2.5-1-3.8-1a7 7 0 0 0-7.2 7.2v34.9c0 .7.3 1.7.3 1.8a7.2 7.2 0 0 0 10.6 4.3l30-17.2a7.2 7.2 0 0 0 .1-12.6Z" fill="#fff"/>
    </g>
    <mask id="j" style="mask-type:luminance" maskUnits="userSpaceOnUse" x="0" y="0" width="270" height="80">
      <path d="M0 0h270v80H0V0Z" fill="#fff"/>
    </mask>
    <g mask="url(#j)">
      <path d="M41.4 38.8 20.1 61.4a5.7 5.7 0 0 0 8.5 3.5l24-13.8-11.2-12.3Z" fill="#EA4335"/>
    </g>
    <mask id="k" style="mask-type:luminance" maskUnits="userSpaceOnUse" x="0" y="0" width="270" height="80">
      <path d="M0 0h270v80H0V0Z" fill="#fff"/>
    </mask>
    <g mask="url(#k)">
      <path d="m63 35-10.4-6L41 39.4 52.7 51l10.2-6a5.8 5.8 0 0 0 .1-10Z" fill="#FBBC04"/>
    </g>
    <mask id="l" style="mask-type:luminance" maskUnits="userSpaceOnUse" x="0" y="0" width="270" height="80">
      <path d="M0 0h270v80H0V0Z" fill="#fff"/>
    </mask>
    <g mask="url(#l)">
      <path d="M20.1 18.6 20 20v40l.2 1.4 22-22-22-20.8Z" fill="#4285F4"/>
    </g>
    <mask id="m" style="mask-type:luminance" maskUnits="userSpaceOnUse" x="0" y="0" width="270" height="80">
      <path d="M0 0h270v80H0V0Z" fill="#fff"/>
    </mask>
    <g mask="url(#m)">
      <path d="m41.6 40 11-11-24-13.9a5.8 5.8 0 0 0-8.5 3.4L41.6 40Z" fill="#34A853"/>
    </g>
  </g>
  <defs>
    <clipPath id="a">
      <path fill="#fff" d="M0 0h270v80H0z"/>
    </clipPath>
  </defs>
</svg>
