<svg width="270" height="80" fill="none" xmlns="http://www.w3.org/2000/svg">
  <g clip-path="url(#a)">
    <mask id="b" style="mask-type:luminance" maskUnits="userSpaceOnUse" x="-21" y="-20" width="311" height="121">
      <path d="M-20-20h310v120H-20V-20Z" fill="#fff"/>
    </mask>
    <g mask="url(#b)">
      <path d="M260 80H10A10 10 0 0 1 0 70V10A10 10 0 0 1 10 0h250a10 10 0 0 1 10 10v60a10 10 0 0 1-10 10Z" fill="#000"/>
    </g>
    <mask id="c" style="mask-type:luminance" maskUnits="userSpaceOnUse" x="-21" y="-20" width="311" height="121">
      <path d="M-20-20h310v120H-20V-20Z" fill="#fff"/>
    </mask>
    <g mask="url(#c)">
      <path d="M197.3 40h3.2V18.1h-3.2V40Zm29.4-14-3.8 9.5-4-9.5h-3.5l5.8 13.3-3.3 7.3h3.4l9-20.6h-3.6Zm-18.5 11.5c-1.1 0-2.6-.5-2.6-1.8 0-1.7 1.9-2.4 3.5-2.4 1.4 0 2 .3 3 .8a4 4 0 0 1-4 3.4Zm.4-12c-2.4 0-4.9 1-5.9 3.4l3 1.2c.5-1.2 1.7-1.6 3-1.6 1.6 0 3.3 1 3.3 2.8v.2c-.6-.3-1.8-.8-3.4-.8-3 0-6.3 1.7-6.3 5 0 2.8 2.6 4.7 5.5 4.7 2.2 0 3.4-1 4.1-2.1h.1V40h3.2v-8.4c0-3.9-3-6-6.6-6Zm-20.2 3.2h-4.6v-7.5h4.6c2.4 0 3.8 2 3.8 3.7 0 1.7-1.4 3.8-3.8 3.8Zm0-10.6h-8V40h3.4v-8.3h4.5c3.6 0 7.2-2.6 7.2-6.8 0-4.1-3.6-6.8-7.2-6.8Zm-42.7 19.4c-2.3 0-4.2-1.9-4.2-4.5s2-4.5 4.2-4.5 4 2 4 4.5c0 2.6-1.8 4.5-4 4.5Zm3.7-10.3a5.2 5.2 0 0 0-4-1.6 7.4 7.4 0 0 0-7.1 7.4c0 4.2 3.4 7.5 7.1 7.5a5 5 0 0 0 4-1.7v1c0 2.9-1.5 4.4-4 4.4a4 4 0 0 1-3.7-2.6l-2.8 1.1a7 7 0 0 0 6.6 4.4c3.8 0 7-2.2 7-7.7V26h-3v1.2Zm5.4 12.8h3.3V18.1h-3.3V40Zm8-7.2a4 4 0 0 1 4-4.3c1.3 0 2.3.6 2.7 1.5l-6.6 2.8Zm10.2-2.5c-.6-1.6-2.5-4.7-6.4-4.7-3.8 0-7 3-7 7.4 0 4.2 3.2 7.5 7.4 7.5 3.4 0 5.4-2.1 6.2-3.3l-2.5-1.7c-.9 1.2-2 2-3.7 2-1.7 0-2.8-.7-3.6-2.2l10-4.1-.4-.9ZM93.8 28v3h7.5c-.2 1.8-.8 3-1.7 4a7.7 7.7 0 0 1-5.8 2.3 8.3 8.3 0 0 1-8.3-8.4 8.3 8.3 0 0 1 14-6.1l2.2-2.3a11 11 0 0 0-7.9-3.1c-6.4 0-11.7 5.1-11.7 11.5s5.3 11.6 11.7 11.6c3.4 0 6-1.2 8-3.3 2.1-2 2.8-5 2.8-7.4 0-.7 0-1.4-.2-2H93.8Zm19.4 9.6c-2.3 0-4.2-1.8-4.2-4.5s2-4.5 4.2-4.5 4.2 1.8 4.2 4.5-2 4.5-4.2 4.5Zm0-12a7.3 7.3 0 0 0-7.5 7.5c0 4.3 3.4 7.5 7.5 7.5 4 0 7.4-3.2 7.4-7.5s-3.3-7.4-7.4-7.4Zm16.2 12c-2.2 0-4.1-1.8-4.1-4.5s1.9-4.5 4.1-4.5c2.3 0 4.2 1.8 4.2 4.5s-1.9 4.5-4.2 4.5Zm0-12A7.3 7.3 0 0 0 122 33c0 4.3 3.3 7.5 7.4 7.5 4.2 0 7.5-3.2 7.5-7.5s-3.3-7.4-7.5-7.4Z" fill="#fff"/>
    </g>
    <mask id="d" style="mask-type:luminance" maskUnits="userSpaceOnUse" x="-21" y="-20" width="311" height="121">
      <path d="M-20-20h310v120H-20V-20Z" fill="#fff"/>
    </mask>
    <g mask="url(#d)">
      <path d="M41.4 38.8 20.1 61.4a5.7 5.7 0 0 0 8.5 3.5l24-13.8-11.2-12.3Z" fill="#EA4335"/>
    </g>
    <mask id="e" style="mask-type:luminance" maskUnits="userSpaceOnUse" x="-21" y="-20" width="311" height="121">
      <path d="M-20-20h310v120H-20V-20Z" fill="#fff"/>
    </mask>
    <g mask="url(#e)">
      <path d="m63 35-10.4-6L41 39.4 52.7 51l10.2-6a5.8 5.8 0 0 0 .1-10Z" fill="#FBBC04"/>
    </g>
    <mask id="f" style="mask-type:luminance" maskUnits="userSpaceOnUse" x="-21" y="-20" width="311" height="121">
      <path d="M-20-20h310v120H-20V-20Z" fill="#fff"/>
    </mask>
    <g mask="url(#f)">
      <path d="M20.1 18.6 20 20v40l.2 1.4 22-22-22-20.8Z" fill="#4285F4"/>
    </g>
    <mask id="g" style="mask-type:luminance" maskUnits="userSpaceOnUse" x="-21" y="-20" width="311" height="121">
      <path d="M-20-20h310v120H-20V-20Z" fill="#fff"/>
    </mask>
    <g mask="url(#g)">
      <path d="m41.6 40 11-11-24-13.9a5.8 5.8 0 0 0-8.5 3.4L41.6 40Z" fill="#34A853"/>
    </g>
    <mask id="h" style="mask-type:luminance" maskUnits="userSpaceOnUse" x="-21" y="-20" width="311" height="121">
      <path d="M-20-20h310v120H-20V-20Z" fill="#fff"/>
    </mask>
    <g mask="url(#h)">
      <path d="m94.3 57.6-.4.2c-.4 2-1.3 4.9-2 6.5l-.9-.2c.7-1.7 1.5-4.7 1.8-6.8l1.5.3Zm-8-.2a23 23 0 0 1 1.5 6.3l-1 .2c-.1-1.7-.6-4.3-1.4-6.3l1-.2Zm9.8-1.8v1H83.4v-1h5.7v-3.1h1.4c0 .2-.1.3-.3.3v2.8H96Zm-13.2 9.2h13.6v1H82.9v-1Z" fill="#fff" stroke="#fff" stroke-width=".3" stroke-miterlimit="10"/>
    </g>
    <mask id="i" style="mask-type:luminance" maskUnits="userSpaceOnUse" x="-21" y="-20" width="311" height="121">
      <path d="M-20-20h310v120H-20V-20Z" fill="#fff"/>
    </mask>
    <g mask="url(#i)">
      <path d="M111.3 53.3v9.3c0 1.3-.7 1.4-2.8 1.4 0-.3-.2-.8-.4-1.1h1.3c.8 0 .8 0 .8-.3v-8.3H107v12.1h-1v-13h5.4Zm-11.3 6h3.5v-2H100v2Zm3.5-5H100v2h3.5v-2Zm-.5 8.8-1.4-1.8.8-.5c1 1.2 2.3 2.9 2.8 4l-.9.5-.7-1.4a287.6 287.6 0 0 1-5.2 1.7l-.4-1.2 1-.2V53.3h5.4v7H100v3.6l3-.8Z" fill="#fff" stroke="#fff" stroke-width=".3" stroke-miterlimit="10"/>
    </g>
    <mask id="j" style="mask-type:luminance" maskUnits="userSpaceOnUse" x="-21" y="-20" width="311" height="121">
      <path d="M-20-20h310v120H-20V-20Z" fill="#fff"/>
    </mask>
    <g mask="url(#j)">
      <path d="M126.7 54.6h-6.5v2.7-.1c2 1 4.4 2.3 5.7 3.3l-.7.9c-1.1-.9-3.2-2.2-5-3.1v8.1h-1V54.6h-6v-1h13.5v1Z" fill="#fff" stroke="#fff" stroke-width=".3" stroke-miterlimit="10"/>
    </g>
    <mask id="k" style="mask-type:luminance" maskUnits="userSpaceOnUse" x="-21" y="-20" width="311" height="121">
      <path d="M-20-20h310v120H-20V-20Z" fill="#fff"/>
    </mask>
    <g mask="url(#k)">
      <path d="M139 52.7a15 15 0 0 1 2.2 2l-.7.7c-.5-.7-1.4-1.6-2.2-2.2l.8-.5Zm-4.6 9h-2v.9h2v-1Zm0-1.6h-2v1h2v-1Zm-4.7 2.5h2v-1h-2v1Zm0-1.6h2v-.9h-2v1Zm7.7-4.2c0 1.9.3 3.6.7 5a18 18 0 0 0 2-4.2l1.1.3c0 .2-.1.2-.3.2a18 18 0 0 1-2.5 5c.5 1.5 1.1 2.4 2 2.4.4 0 .5-.8.6-2.7.2.2.6.5.8.5-.1 2.4-.5 3.1-1.6 3.1-1 0-1.9-.9-2.5-2.4-.8 1-1.6 1.8-2.6 2.4l-.8-.7 1.1-.8h-3v1.6h-.9v-1.6h-3.3v-.8h3.3v-.9H129v-3.7h2.6v-.9h-3v-.8h3v-1l1.3.1c0 .1-.1.2-.3.2v.7h3.1v.8h-3.1v.9h2.7v3.7h-2.7v.9h3.2v.6l1.6-1.8c-.5-1.7-.8-3.8-1-6.1H128v-1h3.5v-1.2h-2.8v-.9h2.8v-1.2h1.3c0 .2 0 .2-.3.3v1h2.8v.8h-2.8v1.3h3.8v-3.4h1.2c0 .2 0 .3-.3.3l.1 3h4.4v1h-4.3Z" fill="#fff" stroke="#fff" stroke-width=".3" stroke-miterlimit="10"/>
    </g>
  </g>
  <defs>
    <clipPath id="a">
      <path fill="#fff" transform="matrix(1 0 0 -1 0 80)" d="M0 0h270v80H0z"/>
    </clipPath>
  </defs>
</svg>
