<svg width="270" height="80" fill="none" xmlns="http://www.w3.org/2000/svg">
  <mask id="a" style="mask-type:luminance" maskUnits="userSpaceOnUse" x="0" y="0" width="270" height="81">
    <path d="M0 0h270v80H0V0Z" fill="#fff"/>
  </mask>
  <g mask="url(#a)">
    <path d="M260 80H10A10 10 0 0 1 0 70V10A10 10 0 0 1 10 0h250a10 10 0 0 1 10 10v60a10 10 0 0 1-10 10Z" fill="#000"/>
  </g>
  <mask id="b" style="mask-type:luminance" maskUnits="userSpaceOnUse" x="0" y="0" width="270" height="81">
    <path d="M0 0h270v80H0V0Z" fill="#fff"/>
  </mask>
  <g mask="url(#b)">
    <path d="M213.9 60h3.7V35h-3.7v25Zm33.6-16-4.3 10.8h-.1L238.6 44h-4l6.7 15.2-3.8 8.4h3.9L251.6 44h-4.1Zm-21.2 13.2c-1.2 0-3-.7-3-2.2 0-1.9 2.2-2.6 4-2.6 1.7 0 2.5.3 3.5.8-.3 2.3-2.3 4-4.5 4Zm.5-13.7c-2.7 0-5.5 1.1-6.7 3.8l3.3 1.4c.7-1.4 2-1.9 3.4-1.9 2 0 4 1.2 4 3.3v.2c-.7-.4-2.2-1-4-1-3.5 0-7.1 2-7.1 5.7 0 3.3 2.9 5.5 6.2 5.5 2.5 0 3.9-1.2 4.7-2.5h.2v2h3.6v-9.6c0-4.5-3.3-7-7.6-7Zm-23 3.5h-5.4v-8.5h5.3c2.8 0 4.4 2.3 4.4 4.3 0 1.9-1.6 4.2-4.4 4.2Zm-.2-12h-9v25h3.8v-9.5h5.2c4.1 0 8.2-3 8.2-7.7 0-4.8-4-7.8-8.2-7.8Zm-48.8 22.2c-2.5 0-4.7-2.2-4.7-5.2s2.2-5.1 4.8-5.1c2.5 0 4.5 2.1 4.5 5.1 0 3-2 5.2-4.6 5.2Zm4.3-11.8c-1-1-2.5-1.9-4.6-1.9a8.5 8.5 0 0 0-8.1 8.5c0 4.8 3.9 8.5 8.1 8.5 2 0 3.7-.9 4.5-2h.1v1.3c0 3.3-1.7 5-4.5 5a4.7 4.7 0 0 1-4.3-3l-3.2 1.3a8 8 0 0 0 7.5 5c4.4 0 8-2.5 8-8.8V44h-3.5v1.4Zm6.2 14.6h3.7V35h-3.7v25Zm9.2-8.2c0-3.3 2.6-5 4.4-5 1.5 0 2.8.7 3.2 1.8l-7.6 3.2Zm11.6-2.9c-.7-1.9-2.9-5.4-7.3-5.4s-8 3.5-8 8.5c0 4.8 3.6 8.5 8.4 8.5 4 0 6.2-2.4 7.1-3.8l-2.9-1.9a4.9 4.9 0 0 1-4.2 2.4c-1.9 0-3.2-1-4-2.6l11.3-4.7-.4-1Zm-90.6-2.8v3.6h8.6c-.2 2-1 3.5-2 4.6a8.8 8.8 0 0 1-6.6 2.6 9.5 9.5 0 0 1-9.5-9.6 9.5 9.5 0 0 1 16-7l2.5-2.6A13.4 13.4 0 0 0 82 47.3c0 7.3 6.1 13.2 13.4 13.2 4 0 6.9-1.3 9.2-3.7a12 12 0 0 0 3.1-8.4c0-.9 0-1.6-.2-2.3h-12Zm22.1 11c-2.5 0-4.8-2-4.8-5 0-3.2 2.3-5.2 4.8-5.2 2.6 0 4.8 2 4.8 5.1 0 3-2.2 5.2-4.8 5.2Zm0-13.6a8.4 8.4 0 0 0-8.5 8.5c0 5 3.8 8.5 8.5 8.5s8.6-3.6 8.6-8.5c0-5-3.9-8.5-8.6-8.5Zm18.7 13.7c-2.6 0-4.8-2.2-4.8-5.2s2.2-5.1 4.8-5.1c2.5 0 4.8 2 4.8 5.1 0 3-2.3 5.2-4.8 5.2Zm0-13.7a8.4 8.4 0 0 0-8.6 8.5c0 5 3.9 8.5 8.6 8.5 4.7 0 8.5-3.6 8.5-8.5 0-5-3.8-8.5-8.5-8.5Z" fill="#fff"/>
  </g>
  <mask id="c" style="mask-type:luminance" maskUnits="userSpaceOnUse" x="0" y="0" width="270" height="81">
    <path d="M0 0h270v80H0V0Z" fill="#fff"/>
  </mask>
  <g mask="url(#c)">
    <path d="M41.4 38.8 20.1 61.4a5.7 5.7 0 0 0 8.5 3.5l24-13.8-11.2-12.3Z" fill="#EA4335"/>
  </g>
  <mask id="d" style="mask-type:luminance" maskUnits="userSpaceOnUse" x="0" y="0" width="270" height="81">
    <path d="M0 0h270v80H0V0Z" fill="#fff"/>
  </mask>
  <g mask="url(#d)">
    <path d="m63 35-10.4-6L41 39.4 52.7 51l10.2-6a5.8 5.8 0 0 0 .1-10Z" fill="#FBBC04"/>
  </g>
  <mask id="e" style="mask-type:luminance" maskUnits="userSpaceOnUse" x="0" y="0" width="270" height="81">
    <path d="M0 0h270v80H0V0Z" fill="#fff"/>
  </mask>
  <g mask="url(#e)">
    <path d="M20.1 18.6 20 20v40l.2 1.4 22-22-22-20.8Z" fill="#4285F4"/>
  </g>
  <mask id="f" style="mask-type:luminance" maskUnits="userSpaceOnUse" x="0" y="0" width="270" height="81">
    <path d="M0 0h270v80H0V0Z" fill="#fff"/>
  </mask>
  <g mask="url(#f)">
    <path d="m41.6 40 11-11-24-13.9a5.8 5.8 0 0 0-8.5 3.4L41.6 40Z" fill="#34A853"/>
  </g>
  <mask id="g" style="mask-type:luminance" maskUnits="userSpaceOnUse" x="0" y="0" width="270" height="81">
    <path d="M0 0h270v80H0V0Z" fill="#fff"/>
  </mask>
  <g mask="url(#g)">
    <path d="M98.7 20.4v-1.6h-7v-3h5.7v-1.6h-5.7v-2.5H90v2.5h-5.5V16H90v2.9h-6.9v1.6h5.2c-1 1.8-2.4 3.6-2.9 4-.5.6-.8 1-1.2 1.1l.5 1.6c.8-.3 1.8-.3 11-1l.7 1.4 1.6-.8c-.8-1.6-2.4-3.8-4-5.5l-1.4.6a20 20 0 0 1 2 2.8l-7.8.5c1.2-1.3 2.5-3 3.6-4.7h8.3Zm11.3 2.2v1.7h-3.8v-1.7h3.8Zm1.3 2.9v-4H105l2.5-2.3-1.2-.6c-.8.8-2 1.6-3 2.2l.7 1.3.8-.5v4.6h1.4v-.7h5.1Zm2-4.5-3.4-2.5-.9 1c1.1.7 2.6 1.9 3.3 2.5l1-1Zm2.4-7.6h-6.3a22 22 0 0 0-.8-1.8l-1.6.4.6 1.4h-7v1.4h4.7l-1.2.4 1 2h-3.7v10.4h1.5v-9.1h10.5V26c0 .2-.1.3-.4.3h-2.3l.5 1.3c1.5 0 2.3 0 3-.3.5-.2.7-.5.7-1.3v-8.8H111l1.2-2-1.7-.3-1.1 2.3h-4.2l1.4-.6-1-1.8h10v-1.4Zm14.6 12h-6.8v-2.8h6.8v2.7Zm-3-9.6h-1.7V21H122v6.3h1.6v-.6h6.8v.6h1.6V21h-4.6v-2h5.5v-1.4h-5.5v-2Zm.1-2a9 9 0 0 0-1-2.1l-1.6.4c.4.5.6 1 .8 1.6H119v4.4c0 2.5-.1 6.1-1.6 8.6l1.4 1c1.6-2.7 1.9-6.8 1.9-9.6v-2.8h12.5v-1.6h-5.8Zm23.5.8v-1.7h-15.4v1.7h6.5v13h1.7v-8.7c1.9 1 4 2.4 5.2 3.3l1.1-1.5c-1.3-1-4-2.6-6-3.5l-.3.3v-3h7.2Zm17-.4-2-2.3-1.3.8c.8.7 1.7 1.7 2 2.3l1.3-.8Zm-1.6 3.4c-.4 1.5-1 3-1.7 4.3l-.6-5.1h4.4v-1.3H164v-3.8h-1.6v3.8h-4v-1.3h3V13h-3v-1.3h-1.6V13h-3v1.2h3v1.3h-4v1.3h3.2l-.5 1.5H153v1.3h1.8l-.6 1a3 3 0 0 1-.9 1l.6 1.3 1.4-.2h2.1V24l-4.5.4.2 1.5 4.3-.5v2h1.5v-2.1l3-.3v-1.3l-3 .2v-1.3h2.6v-1.4H159V20h-1.5v1.2h-2l1-1.7h5.4v-1.3h-4.8l.6-1.1-1.4-.4h6.2c.2 2.7.4 5 1 7-.8 1-1.8 2-2.9 2.8l1.2 1.1c.8-.6 1.6-1.4 2.3-2.3.6 1.3 1.4 2 2.5 2 1.3 0 1.8-.7 2-3.3-.4-.1-1-.5-1.2-.8-.1 1.9-.3 2.6-.7 2.6-.6 0-1.1-.7-1.6-2 1.1-1.7 2-3.7 2.6-5.9l-1.4-.4Z" fill="#fff"/>
  </g>
</svg>
