<svg id="artwork" xmlns="http://www.w3.org/2000/svg" version="1.1" viewBox="0 0 239 70.9">
  <defs>
    <style>
      .st5{fill:#fff}
    </style>
  </defs>
  <rect x=".1" width="238.8" height="70.8" rx="8.8" ry="8.8"/>
  <path class="st5" d="M120.7 38.5c-4.2 0-7.6 3.2-7.6 7.5s3.4 7.6 7.6 7.6 7.5-3.2 7.5-7.6-3.4-7.5-7.5-7.5Zm0 12.1c-2.3 0-4.3-1.9-4.3-4.6s2-4.5 4.3-4.5 4.2 1.8 4.2 4.5-2 4.6-4.2 4.6Zm-16.5-12c-4.2 0-7.6 3-7.6 7.4s3.4 7.6 7.6 7.6 7.5-3.2 7.5-7.6-3.4-7.5-7.5-7.5Zm0 12c-2.3 0-4.3-1.9-4.3-4.6s2-4.5 4.3-4.5 4.2 1.8 4.2 4.5-2 4.6-4.2 4.6Zm-19.6-9.8V44h7.6a6.7 6.7 0 0 1-1.7 4 7.8 7.8 0 0 1-6 2.4 8.4 8.4 0 0 1-8.3-8.5 8.4 8.4 0 0 1 14.1-6.2l2.3-2.3a11.8 11.8 0 0 0-19.9 8.5c0 6.5 5.4 11.7 11.9 11.7a10.4 10.4 0 0 0 10.9-10.7c0-.8 0-1.5-.2-2H84.6Zm80.1 2.5c-.6-1.7-2.5-4.8-6.4-4.8s-7 3-7 7.5c0 4.3 3 7.6 7.4 7.6 3.4 0 5.4-2.1 6.2-3.4l-2.5-1.7c-.9 1.3-2 2.1-3.7 2.1s-3-.8-3.7-2.3l10.1-4.1-.3-.9Zm-10.2 2.5a4.1 4.1 0 0 1 4-4.4c1.2 0 2.3.7 2.7 1.6l-6.7 2.8Zm-8.2 7.3h3.3V31h-3.3v22Zm-5.4-13h-.1a5.2 5.2 0 0 0-4-1.6c-3.8 0-7.2 3.3-7.2 7.6s3.4 7.5 7.2 7.5a5 5 0 0 0 4-1.8V53c0 2.9-1.5 4.4-4 4.4a4 4 0 0 1-3.7-2.6l-2.9 1.2a7 7 0 0 0 6.7 4.4c3.8 0 7.1-2.3 7.1-7.8V38.9h-3v1.3ZM137 50.7c-2.3 0-4.2-2-4.2-4.5s1.9-4.6 4.2-4.6 4 2 4 4.6-1.8 4.5-4 4.5ZM180.2 31h-7.9v22h3.3v-8.4h4.7c3.6 0 7.2-2.6 7.2-6.8S184 31 180.3 31Zm.1 10.6h-4.7v-7.5h4.7a3.8 3.8 0 1 1 0 7.6Zm20.4-3.1c-2.4 0-4.8 1-5.9 3.4l3 1.2c.6-1.2 1.8-1.7 3-1.7 1.7 0 3.4 1 3.5 2.9v.2c-.6-.3-2-.8-3.5-.8-3.2 0-6.4 1.7-6.4 5 0 2.9 2.6 4.8 5.5 4.8 2.2 0 3.5-1 4.2-2.1h.1V53h3.2v-8.5c0-4-3-6.1-6.7-6.1Zm-.4 12.1c-1 0-2.6-.6-2.6-1.9 0-1.7 2-2.3 3.5-2.3s2.2.3 3 .7a4 4 0 0 1-3.9 3.5ZM219 39l-3.8 9.6-4-9.6h-3.6l6 13.4-3.4 7.4h3.4l9.1-20.8H219Zm-29.7 14h3.3V31h-3.3v22Z"/>
  <path d="m36.8 34.4-18.9 20a5 5 0 0 0 7.5 3l21.3-12.2-10-10.8Z" style="fill:#ea4335"/>
  <path d="m55.8 31-9.2-5.3-10.3 9.1 10.4 10.4 9.1-5.3a5.1 5.1 0 0 0 0-8.9Z" style="fill:#fbbc04"/>
  <path d="M18 16.4c-.2.5-.3.9-.3 1.4V53c0 .4 0 .9.2 1.3l19.5-19.5-19.5-18.4Z" style="fill:#4285f4"/>
  <path d="m37 35.4 9.7-9.7-21.2-12.3a5.1 5.1 0 0 0-7.6 3l19 19Z" style="fill:#34a853"/>
  <path class="st5" d="M74 12.2h3.9a4 4 0 0 1 1.8.5c.5.3 1 .7 1.2 1.2.4.5.5 1 .5 1.7a3 3 0 0 1-.7 2c-.5.5-1 1-1.8 1.1v.1l3 4.4h-2L77 19h-1.3v4.4H74v-11Zm3.8 5.2c.5 0 1-.2 1.3-.5s.6-.8.6-1.3c0-.3-.1-.6-.3-.8-.1-.3-.3-.5-.6-.7l-1-.2h-2.1v3.5h2.1Zm8 5.4a5.8 5.8 0 0 1-2.8-5 5.7 5.7 0 0 1 2.8-5c.9-.6 1.8-.8 3-.8s2 .3 2.8.8c.9.5 1.6 1.2 2 2 .6 1 .8 1.9.8 3a5.7 5.7 0 0 1-5.7 5.7c-1 0-2-.2-3-.7Zm5-1.5c.5-.3 1-.8 1.3-1.4.4-.6.6-1.3.6-2.1s-.2-1.5-.6-2.2-.8-1-1.4-1.4-1.3-.5-2-.5-1.4.1-2 .5c-.6.3-1 .8-1.4 1.4s-.6 1.4-.6 2.2.2 1.5.6 2a3 3 0 0 0 1.4 1.5 3.6 3.6 0 0 0 4 0Zm5.1.2 5.7-7.6h-5.5v-1.7h7.5V14L98 21.6h5.8v1.7H96v-1.8Zm10.4 1.3c-.6-.4-1-1-1.3-1.9l1.6-.7c.3 1.1 1 1.7 1.9 1.7.5 0 1-.2 1.3-.6s.5-.8.5-1.4v-7.7h1.7v7.6c0 .8-.2 1.4-.5 2-.3.5-.7 1-1.2 1.3s-1.1.4-1.8.4c-.8 0-1.6-.2-2.2-.7Zm8.2-10.6h6.7V14h-5v3h4.5v1.7h-4.5v3h5v1.7h-6.7v-11Zm9 0h3.5c1.1 0 2.1.3 3 .7s1.5 1.1 2 2 .6 1.8.6 2.8-.2 2-.7 3-1 1.4-2 1.9-1.8.7-3 .7h-3.4v-11Zm1.4-2.8h1.6l.7.8h.2l.7-.9h1.6v.1l-1.7 1.9h-1.4l-1.7-1.9Zm2 12.2a4 4 0 0 0 3-1c.6-.7 1-1.6 1-2.8s-.4-2.2-1-2.9c-.8-.7-1.7-1-3-1h-1.7v7.7h1.8Zm9.6-7.7h-3v-1.7h7.8V14h-3v9.4h-1.8V14Zm6.6-1.7h6.7V14h-5v3h4.5v1.7h-4.5v3h5v1.7h-6.7v-11Zm14.4 1.7h-3v-1.7h7.8V14h-3v9.4h-1.8V14Zm8.4 8.9a5.8 5.8 0 0 1-2.8-5 5.7 5.7 0 0 1 2.8-5 5.7 5.7 0 0 1 5.8 0c.9.5 1.6 1.2 2 2 .6 1 .8 1.9.8 3a5.7 5.7 0 0 1-5.7 5.7c-1 0-2-.2-3-.7Zm4.9-1.5c.6-.3 1-.8 1.4-1.4.4-.6.6-1.3.6-2.1s-.2-1.5-.6-2.2-.8-1-1.4-1.4c-.6-.4-1.3-.5-2-.5s-1.4.1-2 .5c-.6.3-1 .8-1.4 1.4s-.6 1.4-.6 2.2.2 1.5.6 2a3 3 0 0 0 1.4 1.5 3.6 3.6 0 0 0 4 0Z" style="isolation:isolate"/>
</svg>
