<svg width="180" height="54" fill="none" xmlns="http://www.w3.org/2000/svg">
  <path d="M173.3 54H6.7A6.7 6.7 0 0 1 0 47.2V6.8C0 3 3 0 6.7 0h166.6a6.7 6.7 0 0 1 6.7 6.8v40.5c0 3.7-3 6.7-6.7 6.7Z" fill="#000"/>
  <path d="M27.6 26.2 13.4 41.5a3.8 3.8 0 0 0 5.7 2.3l16-9.3-7.5-8.3Z" fill="#EA4335"/>
  <path d="m42 23.6-7-4-7.7 7 7.8 7.9 6.9-4a3.9 3.9 0 0 0 2-3.5 4 4 0 0 0-2-3.4Z" fill="#FBBC04"/>
  <path d="M13.4 12.5a3.7 3.7 0 0 0-.1 1v27l.1 1 14.7-14.9-14.7-14Z" fill="#4285F4"/>
  <path d="m27.7 27 7.4-7.4-16-9.4a3.9 3.9 0 0 0-5.7 2.3L27.7 27Z" fill="#34A853"/>
  <path d="M141.3 38h2.4V21.3h-2.5V38Zm22.3-10.7-2.8 7.2-3-7.2H155l4.4 10.1L157 43h2.6l6.8-15.7h-2.7Zm-14 8.8c-.9 0-2-.4-2-1.4 0-1.3 1.4-1.8 2.6-1.8a4 4 0 0 1 2.3.6 3 3 0 0 1-3 2.6Zm.3-9.2c-1.8 0-3.7.8-4.5 2.6l2.2 1c.5-1 1.4-1.3 2.3-1.3 1.3 0 2.6.8 2.6 2.1v.2a5.5 5.5 0 0 0-2.6-.6c-2.4 0-4.8 1.3-4.8 3.7 0 2.3 2 3.7 4.2 3.7a3.5 3.5 0 0 0 3.1-1.6h.1V38h2.4v-6.4c0-3-2.2-4.6-5-4.6Zm-15.4 2.4h-3.6v-5.7h3.6a2.9 2.9 0 0 1 2.9 2.9 2.9 2.9 0 0 1-3 2.8Zm0-8h-6V38h2.4v-6.3h3.5c2.8 0 5.5-2 5.5-5.2s-2.7-5.2-5.5-5.2Zm-32.6 14.8c-1.7 0-3.2-1.4-3.2-3.4s1.5-3.5 3.2-3.5c1.7 0 3 1.5 3 3.5s-1.3 3.4-3 3.4Zm2.9-7.8h-.1a4 4 0 0 0-3-1.3 5.6 5.6 0 0 0-5.5 5.7c0 3.1 2.6 5.6 5.5 5.6a4 4 0 0 0 3-1.3v.9c0 2.1-1.1 3.3-3 3.3a3.1 3.1 0 0 1-2.8-2l-2.2.9a5.4 5.4 0 0 0 5 3.3c3 0 5.4-1.7 5.4-5.9V27.3h-2.3v1Zm4 9.7h2.5V21.3h-2.5V38Zm6.2-5.5a3.1 3.1 0 0 1 3-3.3c1 0 1.8.5 2 1.2l-5 2Zm7.7-2a5.2 5.2 0 0 0-4.8-3.5c-3 0-5.4 2.3-5.4 5.7 0 3.1 2.4 5.6 5.7 5.6 2.6 0 4-1.6 4.7-2.5l-2-1.3a3.2 3.2 0 0 1-2.7 1.6 2.9 2.9 0 0 1-2.8-1.7l7.6-3.2-.3-.6Zm-60.4-1.8v2.4h5.8a5 5 0 0 1-1.3 3 5.9 5.9 0 0 1-4.5 1.8 6.3 6.3 0 0 1-6.3-6.4 6.3 6.3 0 0 1 10.7-4.7l1.7-1.7a8.4 8.4 0 0 0-6-2.4 9 9 0 0 0-9 8.8 9 9 0 0 0 9 8.8 8 8 0 0 0 6-2.4 8 8 0 0 0 2.1-5.7 7.8 7.8 0 0 0 0-1.5h-8.2Zm14.8 7.4c-1.7 0-3.2-1.4-3.2-3.4s1.5-3.5 3.2-3.5c1.7 0 3.2 1.4 3.2 3.5 0 2-1.5 3.4-3.2 3.4Zm0-9.1a5.6 5.6 0 0 0-5.7 5.7 5.6 5.6 0 0 0 5.7 5.6 5.6 5.6 0 0 0 5.7-5.6A5.6 5.6 0 0 0 77 27Zm12.4 9a3.2 3.2 0 0 1-3.2-3.3c0-2 1.5-3.5 3.2-3.5 1.7 0 3.2 1.4 3.2 3.5 0 2-1.5 3.4-3.2 3.4Zm0-9a5.6 5.6 0 0 0-5.7 5.7 5.6 5.6 0 0 0 5.7 5.6 5.6 5.6 0 0 0 5.7-5.6 5.6 5.6 0 0 0-5.7-5.7ZM53.6 15.3v-8H55l3.9 6.2V7.3h1v8h-1l-4.1-6.5v6.5h-1Z" fill="#fff"/>
  <path d="M53.6 15.3h.2V7.4h1l4 6.3h.2V7.4h.7v7.8h-.9l-4-6.5h-.3v6.5h-.9v.2h1.2V8.8h-.2v.1-.1l4 6.6H60V7.2h-1.3v6.3h.2v-.1.1L55 7.2h-1.5v8.2h.1Zm10.8.2c-.9 0-1.6-.3-2.1-.9a3.2 3.2 0 0 1-.8-2.3v-5h1v5c0 .7.2 1.2.5 1.6.3.4.8.6 1.4.6.6 0 1.1-.2 1.4-.6.4-.4.6-.9.6-1.5v-5h1v5c0 .9-.3 1.6-.8 2.2a2.8 2.8 0 0 1-2.2.9Z" fill="#fff"/>
  <path d="M64.4 15.5v-.1c-.8 0-1.5-.3-2-.9a3 3 0 0 1-.8-2.2V7.4h.8v5c0 .6.1 1.2.5 1.6.3.4.9.6 1.5.6s1.2-.2 1.6-.6c.3-.4.5-1 .5-1.6v-5h.8v5a3.1 3.1 0 0 1-.8 2.1c-.5.6-1.2.8-2 .8v.3a3 3 0 0 0 2.2-.9c.5-.6.8-1.4.8-2.4V7.2h-1.3v5.2c0 .6-.1 1-.4 1.4-.3.4-.8.6-1.4.6-.6 0-1-.2-1.3-.6a2.1 2.1 0 0 1-.5-1.4V7.2h-1.3v5.1c0 1 .3 1.8.9 2.4a3 3 0 0 0 2.2 1v-.2Zm8.3-4.4h1.8c.4 0 .7-.2 1-.4.3-.3.4-.7.4-1s-.1-.7-.4-1a1.3 1.3 0 0 0-1-.4h-1.8V11Zm0 4.2h-1v-8h2.7c.7 0 1.3.2 1.8.7.5.4.7 1 .7 1.7a2.2 2.2 0 0 1-.7 1.7c-.5.4-1 .7-1.8.7h-1.7v3.2Z" fill="#fff"/>
  <path d="M72.7 11v.2h1.8c.4 0 .8-.1 1.1-.5.3-.3.4-.6.4-1s-.1-.7-.4-1a1.5 1.5 0 0 0-1.1-.5h-1.9v3h.1v-.1h.2V8.4h1.6c.4 0 .7.2.9.4a1.2 1.2 0 0 1 0 1.8c-.2.2-.5.4-1 .4h-1.7Zm0 4.3v-.1h-.9V7.4h2.6c.7 0 1.2.3 1.7.7.5.4.7 1 .7 1.6a2 2 0 0 1-.7 1.6 2.4 2.4 0 0 1-1.7.6h-1.8v3.4h.3v-3h1.5c.7 0 1.4-.3 1.9-.8a2.5 2.5 0 0 0 0-3.6 2.7 2.7 0 0 0-1.9-.7h-2.8v8.2h1.3-.2Zm7.7-8 .3-.1.1-.3-.1-.4h-.6l-.2.4.2.3.2.1ZM79 12.2h2.6l-1.3-3.6-1.3 3.6Zm-2.3 3.1 2.8-7.5a1.1 1.1 0 0 1-.4-1c0-.3.1-.5.4-.8.2-.2.5-.3.8-.3.3 0 .6.1.8.3.2.3.3.5.3.9 0 .3 0 .6-.4.9l2.9 7.5h-1.2l-.7-2.2h-3.4l-.8 2.2h-1.1Z" fill="#fff"/>
  <path d="M80.4 7.3v.1l.3-.1h.1l.1-.4v-.4h-.1l-.4-.2-.4.1-.2.4.1.4.4.2h.1v-.2l-.2-.1-.1-.2v-.2l.3-.1h.2v.5h-.3v.2ZM79 12.2v.1h2.8l-1.4-3.9h-.2l-1.4 4h.2v-.2l1.4-3.6h-.1v.1-.1h-.1l1.2 3.5H79Zm-2.3 3.1h.1l2.9-7.6a1 1 0 0 1-.4-.8c0-.3 0-.6.3-.8.2-.2.4-.3.7-.3.3 0 .5.1.7.3.2.2.3.5.3.8a1 1 0 0 1-.3.8l2.8 7.5H83l-.8-2.2h-3.6l-.8 2.2h-1v.2H78l.8-2.1H82l.8 2.1h1.4l-3-7.7v.1a1.2 1.2 0 0 0 .1-1.9 1.3 1.3 0 0 0-.9-.3 1.3 1.3 0 0 0-1.3 1.3c0 .3.2.7.5 1v-.2l-3 7.7h.2v-.1Z" fill="#fff"/>
</svg>
