<svg width="180" height="54" fill="none" xmlns="http://www.w3.org/2000/svg">
  <path d="M173.33 54H6.67A6.73 6.73 0 0 1 0 47.25V6.75C0 3.04 3 0 6.67 0h166.66A6.73 6.73 0 0 1 180 6.75v40.5c0 3.71-3 6.75-6.67 6.75Z" fill="#000"/>
  <path d="m27.63 26.22-14.2 15.26a3.84 3.84 0 0 0 5.65 2.35l.05-.03 15.97-9.33-7.48-8.25Z" fill="#EA4335"/>
  <path d="m41.98 23.63-.01-.02-6.9-4.05-7.77 7 7.8 7.9 6.86-4a3.89 3.89 0 0 0 2.02-3.43c0-1.47-.8-2.75-2-3.4Z" fill="#FBBC04"/>
  <path d="M13.43 12.52a3.7 3.7 0 0 0-.13 1v26.96c0 .35.04.68.13 1L28.1 26.62l-14.68-14.1Z" fill="#4285F4"/>
  <path d="m27.73 27 7.34-7.44-15.96-9.37a3.85 3.85 0 0 0-5.69 2.33L27.73 27Z" fill="#34A853"/>
  <path d="M141.25 37.98h2.49V21.3h-2.5v16.67Zm22.4-10.67-2.84 7.23h-.09l-2.96-7.23h-2.68l4.44 10.1-2.53 5.62h2.6l6.83-15.72h-2.76Zm-14.1 8.77c-.82 0-1.95-.4-1.95-1.41 0-1.29 1.41-1.78 2.63-1.78 1.1 0 1.61.23 2.28.56a3.02 3.02 0 0 1-2.96 2.63Zm.3-9.13c-1.8 0-3.67.8-4.44 2.55l2.2.92c.48-.92 1.36-1.22 2.28-1.22 1.29 0 2.6.77 2.62 2.14v.18a5.5 5.5 0 0 0-2.6-.65c-2.38 0-4.8 1.31-4.8 3.75 0 2.23 1.95 3.67 4.14 3.67a3.5 3.5 0 0 0 3.17-1.63h.09v1.29h2.4v-6.4c0-2.95-2.21-4.6-5.06-4.6Zm-15.38 2.4h-3.54v-5.72h3.54a2.89 2.89 0 0 1 2.92 2.85 2.9 2.9 0 0 1-2.92 2.86Zm-.06-8.04h-5.96v16.67h2.48v-6.32h3.48c2.75 0 5.47-2 5.47-5.18 0-3.18-2.72-5.17-5.47-5.17ZM101.9 36.09c-1.72 0-3.16-1.44-3.16-3.42 0-2 1.44-3.46 3.16-3.46 1.7 0 3.03 1.46 3.03 3.46 0 1.98-1.33 3.42-3.03 3.42Zm2.86-7.84h-.09a3.93 3.93 0 0 0-2.98-1.27 5.64 5.64 0 0 0-5.44 5.69c0 3.18 2.6 5.65 5.44 5.65 1.35 0 2.42-.6 2.98-1.29h.09v.82c0 2.17-1.16 3.33-3.03 3.33a3.14 3.14 0 0 1-2.86-2.02l-2.17.9a5.4 5.4 0 0 0 5.03 3.35c2.92 0 5.39-1.72 5.39-5.9v-10.2h-2.36v.93Zm4.08 9.73h2.49V21.3h-2.5v16.67Zm6.16-5.5a3.11 3.11 0 0 1 2.97-3.31c.99 0 1.82.5 2.1 1.2l-5.07 2.1Zm7.74-1.9c-.48-1.26-1.92-3.6-4.86-3.6-2.92 0-5.35 2.3-5.35 5.67 0 3.18 2.4 5.67 5.63 5.67 2.6 0 4.1-1.59 4.73-2.51l-1.94-1.3a3.24 3.24 0 0 1-2.79 1.58 2.88 2.88 0 0 1-2.75-1.72l7.58-3.14-.25-.64Zm-60.41-1.86v2.4h5.75a5.02 5.02 0 0 1-1.3 3.03 5.9 5.9 0 0 1-4.45 1.76 6.32 6.32 0 0 1-6.32-6.4 6.32 6.32 0 0 1 10.65-4.68l1.7-1.7a8.4 8.4 0 0 0-6.03-2.42 8.93 8.93 0 0 0-8.94 8.8 8.93 8.93 0 0 0 8.94 8.81c2.62 0 4.6-.86 6.14-2.47 1.59-1.59 2.08-3.82 2.08-5.63a7.8 7.8 0 0 0-.13-1.5h-8.1Zm14.77 7.37c-1.72 0-3.2-1.42-3.2-3.44 0-2.04 1.48-3.44 3.2-3.44 1.72 0 3.2 1.4 3.2 3.44 0 2.02-1.48 3.44-3.2 3.44Zm0-9.11a5.59 5.59 0 0 0-5.7 5.67 5.6 5.6 0 0 0 5.7 5.67 5.6 5.6 0 0 0 5.69-5.67 5.59 5.59 0 0 0-5.7-5.67Zm12.41 9.1c-1.71 0-3.2-1.41-3.2-3.43 0-2.04 1.49-3.44 3.2-3.44 1.72 0 3.2 1.4 3.2 3.44 0 2.02-1.48 3.44-3.2 3.44Zm0-9.1a5.59 5.59 0 0 0-5.69 5.67 5.6 5.6 0 0 0 5.7 5.67 5.6 5.6 0 0 0 5.69-5.67 5.59 5.59 0 0 0-5.7-5.67ZM53.64 15.3v-8h1.25l3.89 6.23h.04L58.78 12V7.31h1.03v8h-1.08l-4.07-6.53h-.04l.04 1.55v4.98h-1.02Z" fill="#fff"/>
  <path d="M53.64 15.3h.13V7.45h1.04l3.9 6.23h.25L58.91 12V7.44h.76v7.74h-.86l-4.07-6.53h-.26l.05 1.68v4.85h-.9v.26h1.17v-5.12l-.05-1.54h-.13v.14h.04v-.14l-.1.08 4.1 6.58h1.28V7.18h-1.3v4.81l.05 1.55h.13v-.14h-.04v.13l.11-.07-3.93-6.28H53.5v8.26h.14v-.13Zm10.78.19c-.88 0-1.6-.3-2.14-.87a3.19 3.19 0 0 1-.82-2.28V7.3h1.03v5.07c0 .64.16 1.15.5 1.54.32.39.8.58 1.43.58.62 0 1.1-.2 1.43-.58.34-.4.5-.9.5-1.54V7.31h1.03v5.03c0 .94-.27 1.7-.8 2.28a2.8 2.8 0 0 1-2.16.87Z" fill="#fff"/>
  <path d="M64.42 15.49v-.14c-.85 0-1.52-.27-2.04-.83a3.06 3.06 0 0 1-.79-2.18v-4.9h.76v4.94c0 .66.18 1.2.53 1.63.36.42.89.63 1.54.63s1.18-.21 1.54-.64c.35-.41.53-.96.53-1.62V7.44h.76v4.9a3.1 3.1 0 0 1-.77 2.2c-.5.54-1.18.81-2.06.81v.27c.93 0 1.7-.3 2.26-.9.56-.61.84-1.41.83-2.38V7.18h-1.3v5.2c0 .61-.15 1.09-.46 1.45-.3.36-.73.54-1.33.54-.6 0-1.03-.18-1.33-.54a2.14 2.14 0 0 1-.47-1.45v-5.2h-1.3v5.16c0 .96.29 1.76.86 2.37.57.6 1.33.91 2.24.91v-.13Zm8.32-4.4h1.72c.44 0 .78-.15 1.04-.44.26-.3.4-.61.4-.96s-.14-.67-.4-.96a1.3 1.3 0 0 0-1.04-.44h-1.72v2.8Zm0 4.22h-1.02v-8h2.72c.68 0 1.27.22 1.76.67.5.46.74 1.02.74 1.71a2.2 2.2 0 0 1-.74 1.7c-.5.45-1.08.68-1.76.68h-1.7v3.24Z" fill="#fff"/>
  <path d="M72.74 11.09v.13h1.72c.47 0 .86-.16 1.14-.48.28-.31.43-.67.43-1.05s-.15-.74-.43-1.05a1.46 1.46 0 0 0-1.14-.48h-1.85v3.06h.13v-.13h.14V8.43h1.58c.4 0 .7.13.94.39a1.23 1.23 0 0 1 0 1.74c-.23.26-.53.39-.94.4h-1.72v.13Zm0 4.22v-.13h-.9V7.44h2.6c.65 0 1.2.21 1.67.64.47.43.7.96.7 1.61 0 .65-.23 1.18-.7 1.6a2.4 2.4 0 0 1-1.67.65h-1.83v3.37h.27v-3.1h1.56c.7 0 1.33-.25 1.85-.72s.79-1.08.79-1.8-.27-1.33-.79-1.8a2.66 2.66 0 0 0-1.85-.71h-2.86v8.26h1.3v-.13h-.14Zm7.65-8.01.3-.13.14-.3-.13-.32-.31-.13-.32.13-.13.31.12.31.28.14h.05Zm-1.33 4.88h2.65l-1.3-3.6h-.05l-1.3 3.6Zm-2.27 3.13 2.85-7.55a1.11 1.11 0 0 1-.42-.9c0-.33.11-.6.34-.82.22-.23.5-.34.83-.34.32 0 .59.11.82.34.22.23.34.5.34.82 0 .36-.14.66-.42.9l2.85 7.55h-1.14l-.77-2.17h-3.36l-.78 2.17h-1.14Z" fill="#fff"/>
  <path d="m80.39 7.3.05.13.31-.13.05-.02.15-.36.03-.06-.16-.36-.02-.05-.36-.16-.05-.02-.37.16-.05.02-.15.36-.03.05.14.36.02.05.33.16.03.01h.13l-.05-.13v-.13h-.02l-.2-.1-.09-.21.1-.22.2-.09.22.1.09.2-.1.21-.26.12.06.12Zm-1.33 4.88v.13h2.84l-1.4-3.87h-.23l-1.4 3.87h.19v-.13l.12.05 1.3-3.61-.12-.05v.14h.05v-.14l-.13.05 1.24 3.43h-2.46v.13Zm-2.27 3.13.12.05L79.8 7.7l-.07-.06a.97.97 0 0 1-.36-.79c0-.3.1-.53.3-.73.2-.2.43-.3.73-.3.28 0 .52.1.72.3.2.21.3.44.3.73a1 1 0 0 1-.36.8l-.07.06 2.81 7.46h-.85L82.17 13h-3.55l-.79 2.17H76.8v.26h1.23l.78-2.17h3.18l.77 2.17h1.43L81.27 7.7l-.13.05.09.1c.3-.26.46-.6.46-1 0-.35-.13-.66-.38-.91a1.26 1.26 0 0 0-.91-.38 1.27 1.27 0 0 0-1.3 1.29c0 .4.16.75.46 1l.09-.1-.13-.05-2.92 7.73h.2v-.13Z" fill="#fff"/>
</svg>
