<svg width="180" height="54" fill="none" xmlns="http://www.w3.org/2000/svg">
  <path d="M173.33 54H6.67A6.73 6.73 0 0 1 0 47.25V6.75C0 3.04 3 0 6.67 0h166.66A6.73 6.73 0 0 1 180 6.75v40.5c0 3.71-3 6.75-6.67 6.75Z" fill="#000"/>
  <path d="m27.63 26.22-14.2 15.26a3.84 3.84 0 0 0 5.65 2.35l.05-.03 15.97-9.33-7.48-8.25Z" fill="#EA4335"/>
  <path d="m41.98 23.63-.01-.02-6.9-4.05-7.77 7 7.8 7.9 6.86-4a3.89 3.89 0 0 0 2.02-3.43c0-1.47-.8-2.75-2-3.4Z" fill="#FBBC04"/>
  <path d="M13.43 12.52a3.7 3.7 0 0 0-.13 1v26.96c0 .35.04.68.13 1L28.1 26.62l-14.68-14.1Z" fill="#4285F4"/>
  <path d="m27.73 27 7.34-7.44-15.96-9.37a3.85 3.85 0 0 0-5.69 2.33L27.73 27Z" fill="#34A853"/>
  <path d="M142.58 40h2.49V23.33h-2.49V40ZM165 29.34l-2.85 7.22h-.09l-2.96-7.22h-2.68l4.44 10.1-2.53 5.61h2.6l6.84-15.71H165Zm-14.1 8.77c-.82 0-1.96-.41-1.96-1.42 0-1.29 1.41-1.78 2.64-1.78 1.1 0 1.6.24 2.27.56a3.02 3.02 0 0 1-2.96 2.64Zm.3-9.14c-1.81 0-3.68.8-4.45 2.55l2.21.93c.47-.93 1.35-1.23 2.27-1.23 1.3 0 2.6.78 2.62 2.15v.17a5.5 5.5 0 0 0-2.6-.64c-2.38 0-4.8 1.3-4.8 3.75 0 2.23 1.95 3.67 4.14 3.67a3.5 3.5 0 0 0 3.17-1.63h.09v1.28h2.4v-6.39c0-2.96-2.2-4.6-5.06-4.6Zm-15.38 2.4h-3.54v-5.72h3.53a2.89 2.89 0 0 1 2.92 2.86 2.9 2.9 0 0 1-2.91 2.86Zm-.07-8.04h-5.96V40h2.49v-6.32h3.47c2.76 0 5.47-2 5.47-5.17 0-3.18-2.71-5.18-5.47-5.18Zm-32.5 14.78c-1.72 0-3.16-1.44-3.16-3.42 0-2 1.44-3.45 3.15-3.45 1.7 0 3.03 1.46 3.03 3.45 0 1.98-1.33 3.42-3.03 3.42Zm2.85-7.84h-.1a3.93 3.93 0 0 0-2.98-1.27 5.64 5.64 0 0 0-5.44 5.7c0 3.17 2.6 5.64 5.44 5.64 1.35 0 2.43-.6 2.98-1.28h.09v.81c0 2.17-1.16 3.33-3.03 3.33a3.14 3.14 0 0 1-2.86-2.02l-2.17.9a5.4 5.4 0 0 0 5.03 3.35c2.92 0 5.4-1.71 5.4-5.9V29.35h-2.37v.92Zm4.08 9.73h2.5V23.33h-2.5V40Zm6.17-5.5a3.11 3.11 0 0 1 2.96-3.3c.99 0 1.83.49 2.1 1.2l-5.06 2.1Zm7.73-1.89c-.47-1.27-1.91-3.6-4.85-3.6-2.93 0-5.35 2.29-5.35 5.66 0 3.18 2.4 5.67 5.62 5.67 2.6 0 4.1-1.59 4.73-2.5l-1.93-1.3a3.24 3.24 0 0 1-2.8 1.57 2.89 2.89 0 0 1-2.75-1.72l7.59-3.13-.26-.65Zm-60.41-1.87v2.4h5.76a5.02 5.02 0 0 1-1.32 3.04 5.9 5.9 0 0 1-4.44 1.76 6.32 6.32 0 0 1-6.32-6.4A6.32 6.32 0 0 1 68 26.85l1.7-1.7a8.4 8.4 0 0 0-6.04-2.42 8.93 8.93 0 0 0-8.94 8.8 8.93 8.93 0 0 0 8.94 8.81c2.62 0 4.6-.86 6.14-2.47 1.6-1.59 2.09-3.82 2.09-5.62a7.8 7.8 0 0 0-.13-1.5h-8.1Zm14.77 7.37c-1.72 0-3.2-1.42-3.2-3.44 0-2.04 1.48-3.43 3.2-3.43 1.72 0 3.2 1.4 3.2 3.43 0 2.02-1.48 3.44-3.2 3.44Zm0-9.1a5.59 5.59 0 0 0-5.7 5.66 5.6 5.6 0 0 0 5.7 5.67 5.6 5.6 0 0 0 5.7-5.67 5.59 5.59 0 0 0-5.7-5.67Zm12.42 9.1c-1.72 0-3.2-1.42-3.2-3.44 0-2.04 1.48-3.43 3.2-3.43 1.72 0 3.2 1.4 3.2 3.43 0 2.02-1.48 3.44-3.2 3.44Zm0-9.1a5.59 5.59 0 0 0-5.7 5.66 5.6 5.6 0 0 0 5.7 5.67 5.6 5.6 0 0 0 5.69-5.67 5.59 5.59 0 0 0-5.7-5.67Zm-33.51-11.5c-.58 0-1.08-.16-1.49-.48-.4-.33-.7-.78-.87-1.37l.94-.4c.24.85.73 1.27 1.46 1.27.48 0 .85-.16 1.1-.46.26-.31.39-.73.39-1.26V9.33h1.03v5.46c0 .87-.24 1.54-.72 2.01a2.5 2.5 0 0 1-1.84.71Z" fill="#fff"/>
  <path d="M57.35 17.51v-.13a2.2 2.2 0 0 1-1.4-.46c-.4-.3-.67-.73-.83-1.3l-.13.04.05.12.94-.39-.05-.12-.13.03c.24.88.8 1.37 1.6 1.36.5 0 .91-.17 1.2-.5.28-.35.41-.8.41-1.35V9.47h.76v5.32c0 .84-.23 1.47-.68 1.92-.45.45-1.02.67-1.74.67v.27c.77 0 1.42-.25 1.93-.75s.76-1.22.76-2.11V9.2h-1.3v5.6c0 .52-.12.9-.35 1.18-.23.28-.55.41-1 .42-.68-.01-1.1-.36-1.33-1.17l-.04-.14-1.2.49.04.11c.18.61.49 1.1.92 1.44.43.34.96.52 1.57.52v-.14Zm8.93-7.19h-3.65v2.53h3.29v.96h-3.29v2.54h3.65v.98H61.6v-8h4.68v.99Z" fill="#fff"/>
  <path d="M66.28 10.32v-.14H62.5v2.8h3.28v.7H62.5v2.8h3.64v.72h-4.4V9.47h4.4v.85h.27V9.2h-4.94v8.27h4.94v-1.25h-3.64v-2.27h3.28v-1.23h-3.28v-2.27h3.64v-.13h-.13Zm4.33 7.01h-1.03v-7.01h-2.23v-.99h5.5v.99H70.6v7.01Z" fill="#fff"/>
  <path d="M70.61 17.33v-.13h-.9v-7.02h-2.23v-.71h5.23v.71h-2.23v7.15h.26v-6.88h2.24V9.2H67.2v1.25h2.24v7.02h1.3v-.14h-.14Zm3.09 0v-1.07l4.25-5.94h-4.08v-.99h5.28v1.08l-4.26 5.94h4.3v.98h-5.5Z" fill="#fff"/>
  <path d="M73.7 17.33h.13V16.3l4.38-6.12h-4.2v-.71h5v.9l-4.38 6.11h4.43v.72h-5.37v.27h5.64v-1.25h-4.18l4.13-5.77V9.2h-5.54v1.25h3.95l-4.13 5.77v1.25h.13v-.14Zm9.7 0h-1.04v-7.01h-2.23v-.99h5.5v.99h-2.24v7.01Z" fill="#fff"/>
  <path d="M83.4 17.33v-.13h-.9v-7.02h-2.24v-.71h5.23v.71h-2.23v7.15h.27v-6.88h2.23V9.2H80v1.25h2.23v7.02h1.3v-.14h-.14Zm7.23-.98h2.07c.4 0 .72-.14.96-.41a1.27 1.27 0 0 0-.01-1.8 1.3 1.3 0 0 0-1-.42h-2.02v2.63Zm0-3.59h1.87c.39 0 .7-.12.93-.38a1.2 1.2 0 0 0 .01-1.68 1.15 1.15 0 0 0-.9-.38h-1.9v2.44Zm-1.02 4.57v-8h2.89c.63 0 1.17.21 1.63.62.45.42.68.94.68 1.56 0 .38-.1.72-.3 1-.2.3-.45.52-.78.67v.04c.4.14.72.37.97.7.25.32.38.7.38 1.13 0 .66-.24 1.2-.72 1.63-.48.44-1.05.65-1.7.65H89.6Z" fill="#fff"/>
  <path d="M90.63 16.35v.13h2.07c.43 0 .8-.15 1.06-.46.27-.29.4-.63.4-.99s-.14-.7-.41-.99c-.28-.3-.66-.45-1.1-.45H90.5v2.9h.13v-.14h.14v-2.5h1.88c.39 0 .67.13.9.37.24.26.35.52.35.81 0 .3-.11.56-.34.82-.22.25-.5.37-.86.37h-2.07v.13Zm0-3.59v.14h1.87a1.4 1.4 0 0 0 1.42-1.37c0-.33-.13-.65-.38-.92-.25-.29-.6-.43-1-.43H90.5v2.72h.13v-.14h.14v-2.31h1.77c.35 0 .6.11.8.34.21.23.3.47.31.74 0 .27-.1.52-.32.76-.2.23-.47.34-.83.34h-1.87v.13Zm-1.02 4.57h.13V9.47h2.76c.6 0 1.1.19 1.54.58a1.89 1.89 0 0 1 .37 2.39 1.8 1.8 0 0 1-.74.62l-.08.03v.23l.1.03c.37.12.67.34.9.65.24.3.36.65.36 1.05 0 .63-.23 1.13-.68 1.54-.46.4-.99.6-1.62.61h-3.04v.27h3.04c.7 0 1.3-.23 1.8-.69.5-.45.77-1.04.76-1.73 0-.45-.13-.87-.4-1.22-.27-.34-.62-.6-1.04-.73l-.04.12h.13v-.04h-.13l.05.12c.35-.16.64-.4.85-.7a2.15 2.15 0 0 0-.41-2.74 2.48 2.48 0 0 0-1.72-.66h-3.03v8.27h.14v-.14Zm11.53-7.01h-3.65v2.53h3.29v.96h-3.29v2.54h3.65v.98h-4.68v-8h4.68v.99Z" fill="#fff"/>
  <path d="M101.14 10.32v-.14h-3.78v2.8h3.28v.7h-3.28v2.8H101v.72h-4.4V9.47h4.4v.85h.27V9.2h-4.94v8.27h4.94v-1.25h-3.64v-2.27h3.28v-1.23h-3.28v-2.27h3.64v-.13h-.13Zm1.61 7.01v-8h1.02v8h-1.02Z" fill="#fff"/>
  <path d="M102.75 17.33h.13V9.47h.76v7.73h-.9v.27h1.17V9.2h-1.3v8.27h.14v-.14Z" fill="#fff"/>
</svg>
