<svg width="270" height="80" fill="none" xmlns="http://www.w3.org/2000/svg">
  <g clip-path="url(#a)">
    <mask id="b" style="mask-type:luminance" maskUnits="userSpaceOnUse" x="-21" y="-20" width="311" height="121">
      <path d="M-20-20h310v120H-20V-20Z" fill="#fff"/>
    </mask>
    <g mask="url(#b)">
      <path d="M260 80H10A10 10 0 0 1 0 70V10A10 10 0 0 1 10 0h250a10 10 0 0 1 10 10v60a10 10 0 0 1-10 10Z" fill="#000"/>
    </g>
    <mask id="c" style="mask-type:luminance" maskUnits="userSpaceOnUse" x="-21" y="-20" width="311" height="121">
      <path d="M-20-20h310v120H-20V-20Z" fill="#fff"/>
    </mask>
    <g mask="url(#c)">
      <path d="M213.9 60h3.7V35h-3.7v25Zm33.6-16-4.3 10.8h-.1L238.6 44h-4l6.7 15.2-3.8 8.4h3.9L251.6 44h-4.1Zm-21.2 13.2c-1.2 0-3-.6-3-2.2 0-1.9 2.2-2.6 4-2.6 1.7 0 2.5.3 3.5.8-.3 2.3-2.3 4-4.5 4Zm.5-13.7c-2.7 0-5.5 1.1-6.7 3.8l3.3 1.4c.7-1.4 2-1.9 3.4-1.9 2 0 4 1.2 4 3.3v.2c-.7-.4-2.2-1-4-1-3.5 0-7.1 2-7.1 5.7 0 3.3 2.9 5.5 6.2 5.5 2.5 0 3.9-1.2 4.7-2.5h.2v2h3.6v-9.6c0-4.5-3.3-7-7.6-7Zm-23 3.5h-5.4v-8.5h5.3c2.8 0 4.4 2.3 4.4 4.3 0 1.9-1.6 4.2-4.4 4.2Zm-.2-12h-9v25h3.8v-9.5h5.2c4.1 0 8.2-3 8.2-7.7 0-4.8-4-7.8-8.2-7.8Zm-48.8 22.2c-2.5 0-4.7-2.2-4.7-5.2s2.2-5.1 4.8-5.1c2.5 0 4.5 2.1 4.5 5.1 0 3-2 5.2-4.6 5.2Zm4.3-11.8c-1-1-2.5-1.9-4.6-1.9a8.5 8.5 0 0 0-8.1 8.5c0 4.8 3.9 8.5 8.1 8.5 2 0 3.7-.9 4.5-2h.1v1.3c0 3.3-1.7 5-4.5 5a4.7 4.7 0 0 1-4.3-3l-3.2 1.3a8 8 0 0 0 7.5 5c4.4 0 8-2.5 8-8.8V44h-3.5v1.4Zm6.2 14.6h3.7V35h-3.7v25Zm9.2-8.2c0-3.3 2.6-5 4.4-5 1.5 0 2.8.7 3.2 1.8l-7.6 3.2Zm11.6-2.9c-.7-1.9-2.9-5.4-7.3-5.4s-8 3.5-8 8.5c0 4.8 3.6 8.5 8.4 8.5 4 0 6.2-2.4 7.1-3.8l-2.9-1.9a4.9 4.9 0 0 1-4.2 2.4c-1.9 0-3.2-1-4-2.6l11.3-4.7-.4-1Zm-90.6-2.8v3.6h8.6c-.2 2-1 3.5-2 4.6a8.8 8.8 0 0 1-6.6 2.6 9.5 9.5 0 0 1-9.5-9.6 9.5 9.5 0 0 1 16-7l2.5-2.6A13.4 13.4 0 0 0 82 47.3c0 7.3 6.1 13.2 13.4 13.2 4 0 6.9-1.3 9.2-3.7a12 12 0 0 0 3.1-8.4c0-.9 0-1.6-.2-2.3h-12Zm22.1 11c-2.5 0-4.8-2-4.8-5 0-3.2 2.3-5.2 4.8-5.2 2.6 0 4.8 2 4.8 5.1 0 3-2.2 5.2-4.8 5.2Zm0-13.6a8.4 8.4 0 0 0-8.5 8.5c0 5 3.8 8.5 8.5 8.5 4.8 0 8.6-3.6 8.6-8.5 0-5-3.9-8.5-8.6-8.5Zm18.7 13.7c-2.6 0-4.8-2.2-4.8-5.2s2.2-5.1 4.8-5.1c2.5 0 4.8 2 4.8 5.1 0 3-2.3 5.2-4.8 5.2Zm0-13.7a8.4 8.4 0 0 0-8.6 8.5c0 5 3.9 8.5 8.6 8.5 4.7 0 8.5-3.6 8.5-8.5 0-5-3.8-8.5-8.5-8.5Z" fill="#fff"/>
    </g>
    <mask id="d" style="mask-type:luminance" maskUnits="userSpaceOnUse" x="-21" y="-20" width="311" height="121">
      <path d="M-20-20h310v120H-20V-20Z" fill="#fff"/>
    </mask>
    <g mask="url(#d)">
      <path d="M41.4 38.8 20.1 61.4a5.7 5.7 0 0 0 8.5 3.5l24-13.8-11.2-12.3Z" fill="#EA4335"/>
    </g>
    <mask id="e" style="mask-type:luminance" maskUnits="userSpaceOnUse" x="-21" y="-20" width="311" height="121">
      <path d="M-20-20h310v120H-20V-20Z" fill="#fff"/>
    </mask>
    <g mask="url(#e)">
      <path d="m63 35-10.4-6L41 39.4 52.7 51l10.2-6a5.8 5.8 0 0 0 .1-10Z" fill="#FBBC04"/>
    </g>
    <mask id="f" style="mask-type:luminance" maskUnits="userSpaceOnUse" x="-21" y="-20" width="311" height="121">
      <path d="M-20-20h310v120H-20V-20Z" fill="#fff"/>
    </mask>
    <g mask="url(#f)">
      <path d="M20.1 18.6 20 20v40l.2 1.4 22-22-22-20.8Z" fill="#4285F4"/>
    </g>
    <mask id="g" style="mask-type:luminance" maskUnits="userSpaceOnUse" x="-21" y="-20" width="311" height="121">
      <path d="M-20-20h310v120H-20V-20Z" fill="#fff"/>
    </mask>
    <g mask="url(#g)">
      <path d="m41.6 40 11-11-24-13.9a5.8 5.8 0 0 0-8.5 3.4L41.6 40Z" fill="#34A853"/>
    </g>
    <mask id="h" style="mask-type:luminance" maskUnits="userSpaceOnUse" x="-21" y="-20" width="311" height="121">
      <path d="M-20-20h310v120H-20V-20Z" fill="#fff"/>
    </mask>
    <g mask="url(#h)">
      <path d="M84.8 23.4c.9 1 2 1.4 3.2 1.4a4.7 4.7 0 0 0 4.6-4.8c0-1.4-.4-2.5-1.3-3.4-.9-1-2-1.4-3.3-1.4a4.7 4.7 0 0 0-4.6 4.8c0 1.4.5 2.5 1.4 3.4Zm7.6 1a5.9 5.9 0 0 1-4.4 1.9c-1.7 0-3.2-.6-4.4-1.9A6.1 6.1 0 0 1 82 20a6.1 6.1 0 0 1 6.1-6.3c1.8 0 3.2.6 4.4 1.9a6.1 6.1 0 0 1 1.8 4.4c0 1.8-.6 3.2-1.8 4.4Z" fill="#fff"/>
    </g>
    <mask id="i" style="mask-type:luminance" maskUnits="userSpaceOnUse" x="-21" y="-20" width="311" height="121">
      <path d="M-20-20h310v120H-20V-20Z" fill="#fff"/>
    </mask>
    <g mask="url(#i)">
      <path d="M84.8 23.4c.9 1 2 1.4 3.2 1.4a4.7 4.7 0 0 0 4.6-4.8c0-1.4-.4-2.5-1.3-3.4-.9-1-2-1.4-3.3-1.4a4.7 4.7 0 0 0-4.6 4.8c0 1.4.5 2.5 1.4 3.4Zm7.6 1a5.9 5.9 0 0 1-4.4 1.9c-1.7 0-3.2-.6-4.4-1.9A6.1 6.1 0 0 1 82 20a6.1 6.1 0 0 1 6.1-6.3c1.8 0 3.2.6 4.4 1.9a6.1 6.1 0 0 1 1.8 4.4c0 1.8-.6 3.2-1.8 4.4Z" stroke="#fff" stroke-width=".3" stroke-miterlimit="10"/>
    </g>
    <mask id="j" style="mask-type:luminance" maskUnits="userSpaceOnUse" x="-21" y="-20" width="311" height="121">
      <path d="M-20-20h310v120H-20V-20Z" fill="#fff"/>
    </mask>
    <g mask="url(#j)">
      <path d="M96.4 26V14h1.8l5.9 9.3V14h1.5v12H104l-6-9.8h-.2l.1 2.3V26h-1.5Z" fill="#fff" stroke="#fff" stroke-width=".3" stroke-miterlimit="10"/>
    </g>
    <mask id="k" style="mask-type:luminance" maskUnits="userSpaceOnUse" x="-21" y="-20" width="311" height="121">
      <path d="M-20-20h310v120H-20V-20Z" fill="#fff"/>
    </mask>
    <g mask="url(#k)">
      <path d="M112.5 26h-1.6V15.5h-3.3V14h8.2v1.5h-3.3V26Z" fill="#fff" stroke="#fff" stroke-width=".3" stroke-miterlimit="10"/>
    </g>
    <mask id="l" style="mask-type:luminance" maskUnits="userSpaceOnUse" x="-21" y="-20" width="311" height="121">
      <path d="M-20-20h310v120H-20V-20Z" fill="#fff"/>
    </mask>
    <g mask="url(#l)">
      <path d="M119.3 24.5h2.1c1.4 0 2.5-.4 3.3-1.2.8-.8 1.2-1.9 1.2-3.3s-.4-2.5-1.2-3.3a4.5 4.5 0 0 0-3.3-1.2h-2.1v9Zm-1.5 1.5V14h3.6a6 6 0 0 1 4.4 1.7 5.9 5.9 0 0 1 1.7 4.3c0 1.8-.5 3.2-1.7 4.3a6 6 0 0 1-4.4 1.7h-3.6Z" fill="#fff" stroke="#fff" stroke-width=".3" stroke-miterlimit="10"/>
    </g>
    <mask id="m" style="mask-type:luminance" maskUnits="userSpaceOnUse" x="-21" y="-20" width="311" height="121">
      <path d="M-20-20h310v120H-20V-20Z" fill="#fff"/>
    </mask>
    <g mask="url(#m)">
      <path d="M136.7 15.5h-5.5v3.8h5v1.4h-5v3.8h5.5V26h-7V14h7v1.5Z" fill="#fff" stroke="#fff" stroke-width=".3" stroke-miterlimit="10"/>
    </g>
    <mask id="n" style="mask-type:luminance" maskUnits="userSpaceOnUse" x="-21" y="-20" width="311" height="121">
      <path d="M-20-20h310v120H-20V-20Z" fill="#fff"/>
    </mask>
    <g mask="url(#n)">
      <path d="m148 14-4.5 5.2 4.8 6.7v.1h-2l-3.8-5.6-1.9 2.1V26h-1.5V14h1.5v6.2h.1L146 14h2Z" fill="#fff" stroke="#fff" stroke-width=".3" stroke-miterlimit="10"/>
    </g>
    <mask id="o" style="mask-type:luminance" maskUnits="userSpaceOnUse" x="-21" y="-20" width="311" height="121">
      <path d="M-20-20h310v120H-20V-20Z" fill="#fff"/>
    </mask>
    <g mask="url(#o)">
      <path d="M153.9 26V14h1.5v5.1h6V14h1.6v12h-1.6v-5.4h-6V26H154Z" fill="#fff" stroke="#fff" stroke-width=".3" stroke-miterlimit="10"/>
    </g>
    <mask id="p" style="mask-type:luminance" maskUnits="userSpaceOnUse" x="-21" y="-20" width="311" height="121">
      <path d="M-20-20h310v120H-20V-20Z" fill="#fff"/>
    </mask>
    <g mask="url(#p)">
      <path d="M172.7 15.5h-5.5v3.8h5v1.4h-5v3.8h5.5V26h-7V14h7v1.5Z" fill="#fff" stroke="#fff" stroke-width=".3" stroke-miterlimit="10"/>
    </g>
    <mask id="q" style="mask-type:luminance" maskUnits="userSpaceOnUse" x="-21" y="-20" width="311" height="121">
      <path d="M-20-20h310v120H-20V-20Z" fill="#fff"/>
    </mask>
    <g mask="url(#q)">
      <path d="M179.2 26h-1.5V15.5h-3.4V14h8.3v1.5h-3.4V26Z" fill="#fff" stroke="#fff" stroke-width=".3" stroke-miterlimit="10"/>
    </g>
    <mask id="r" style="mask-type:luminance" maskUnits="userSpaceOnUse" x="-21" y="-20" width="311" height="121">
      <path d="M-20-20h310v120H-20V-20Z" fill="#fff"/>
    </mask>
    <g mask="url(#r)">
      <path d="M190.5 23.4c.9 1 2 1.4 3.3 1.4 1.3 0 2.3-.5 3.2-1.4 1-.9 1.4-2 1.4-3.4s-.5-2.5-1.4-3.4c-.9-1-2-1.4-3.2-1.4a4.7 4.7 0 0 0-4.6 4.8c0 1.4.4 2.5 1.3 3.4Zm7.7 1a5.9 5.9 0 0 1-4.4 1.9c-1.8 0-3.2-.6-4.4-1.9a6.1 6.1 0 0 1-1.8-4.4 6.1 6.1 0 0 1 6.2-6.3c1.7 0 3.2.6 4.4 1.9a6.1 6.1 0 0 1 1.7 4.4c0 1.8-.5 3.2-1.7 4.4Z" fill="#fff"/>
    </g>
    <mask id="s" style="mask-type:luminance" maskUnits="userSpaceOnUse" x="-21" y="-20" width="311" height="121">
      <path d="M-20-20h310v120H-20V-20Z" fill="#fff"/>
    </mask>
    <g mask="url(#s)">
      <path d="M190.5 23.4c.9 1 2 1.4 3.3 1.4 1.3 0 2.3-.5 3.2-1.4 1-.9 1.4-2 1.4-3.4s-.5-2.5-1.4-3.4c-.9-1-2-1.4-3.2-1.4a4.7 4.7 0 0 0-4.6 4.8c0 1.4.4 2.5 1.3 3.4Zm7.7 1a5.9 5.9 0 0 1-4.4 1.9c-1.8 0-3.2-.6-4.4-1.9a6.1 6.1 0 0 1-1.8-4.4 6.1 6.1 0 0 1 6.2-6.3c1.7 0 3.2.6 4.4 1.9a6.1 6.1 0 0 1 1.7 4.4c0 1.8-.5 3.2-1.7 4.4Z" stroke="#fff" stroke-width=".3" stroke-miterlimit="10"/>
    </g>
    <mask id="t" style="mask-type:luminance" maskUnits="userSpaceOnUse" x="-21" y="-20" width="311" height="121">
      <path d="M-20-20h310v120H-20V-20Z" fill="#fff"/>
    </mask>
    <g mask="url(#t)">
      <path d="M203.6 19.7h2.6a2 2 0 0 0 1.6-.7c.4-.4.6-.9.6-1.4 0-.6-.2-1-.6-1.5a2 2 0 0 0-1.6-.6h-2.6v4.2Zm0 6.3h-1.5V14h4.1c1 0 1.9.3 2.6 1 .8.7 1.1 1.5 1.1 2.6 0 1-.3 1.9-1 2.5a4 4 0 0 1-2.7 1h-2.6V26Z" fill="#fff" stroke="#fff" stroke-width=".3" stroke-miterlimit="10"/>
    </g>
  </g>
  <defs>
    <clipPath id="a">
      <path fill="#fff" transform="matrix(1 0 0 -1 0 80)" d="M0 0h270v80H0z"/>
    </clipPath>
  </defs>
</svg>
