<svg width="180" height="54" fill="none" xmlns="http://www.w3.org/2000/svg">
  <path d="M173.3 54H6.7A6.7 6.7 0 0 1 0 47.2V6.8C0 3 3 0 6.7 0h166.6a6.7 6.7 0 0 1 6.7 6.8v40.5c0 3.7-3 6.7-6.7 6.7Z" fill="#000"/>
  <path d="M27.6 26.2 13.4 41.5a3.8 3.8 0 0 0 5.7 2.3l16-9.3-7.5-8.3Z" fill="#EA4335"/>
  <path d="m42 23.6-7-4-7.7 7 7.8 7.9 6.9-4a3.9 3.9 0 0 0 2-3.5 4 4 0 0 0-2-3.4Z" fill="#FBBC04"/>
  <path d="M13.4 12.5a3.7 3.7 0 0 0-.1 1v27l.1 1 14.7-14.9-14.7-14Z" fill="#4285F4"/>
  <path d="m27.7 27 7.4-7.4-16-9.4a3.9 3.9 0 0 0-5.7 2.3L27.7 27Z" fill="#34A853"/>
  <path d="M142.6 40h2.5V23.3h-2.5V40ZM165 29.3l-2.9 7.3-3-7.3h-2.7l4.5 10.1-2.6 5.7h2.6l6.9-15.8H165Zm-14.1 8.8c-.8 0-2-.4-2-1.4 0-1.3 1.4-1.8 2.7-1.8 1 0 1.6.2 2.2.6a3 3 0 0 1-3 2.6Zm.3-9.1c-1.8 0-3.7.8-4.4 2.5l2.2 1c.4-1 1.3-1.3 2.2-1.3 1.3 0 2.6.8 2.7 2.2v.1a5.5 5.5 0 0 0-2.6-.6c-2.4 0-4.8 1.3-4.8 3.8 0 2.2 1.9 3.6 4 3.6a3.5 3.5 0 0 0 3.3-1.6V40h2.5v-6.4c0-3-2.2-4.6-5.1-4.6Zm-15.4 2.4h-3.5v-5.8h3.5a2.9 2.9 0 0 1 3 3 2.9 2.9 0 0 1-3 2.8Zm0-8h-6V40h2.5v-6.3h3.5c2.7 0 5.4-2 5.4-5.2s-2.7-5.2-5.4-5.2ZM103.3 38c-1.8 0-3.2-1.4-3.2-3.4s1.4-3.5 3.1-3.5c1.7 0 3 1.5 3 3.5s-1.3 3.4-3 3.4Zm2.8-7.8h-.1a4 4 0 0 0-3-1.3 5.6 5.6 0 0 0-5.4 5.7c0 3.2 2.6 5.6 5.4 5.6a4 4 0 0 0 3-1.2v.8c0 2.1-1 3.3-3 3.3a3.1 3.1 0 0 1-2.8-2L98 42a5.4 5.4 0 0 0 5 3.3c3 0 5.5-1.7 5.5-5.9v-10H106v.9Zm4 9.7h2.6V23.3h-2.5V40Zm6.3-5.5a3.1 3.1 0 0 1 3-3.3c.9 0 1.7.5 2 1.2l-5 2.1Zm7.7-1.9c-.5-1.3-2-3.6-4.9-3.6-2.9 0-5.3 2.3-5.3 5.7 0 3.1 2.4 5.6 5.6 5.6 2.6 0 4.1-1.5 4.7-2.5l-1.9-1.3a3.2 3.2 0 0 1-2.8 1.6 2.9 2.9 0 0 1-2.7-1.7l7.5-3.1-.2-.7Zm-60.4-1.9V33h5.7a5 5 0 0 1-1.3 3 5.9 5.9 0 0 1-4.4 1.8 6.3 6.3 0 0 1-6.3-6.4A6.3 6.3 0 0 1 68 27l1.7-1.7a8.4 8.4 0 0 0-6-2.5 9 9 0 0 0-9 8.8 9 9 0 0 0 9 8.8 8 8 0 0 0 6.1-2.4c1.6-1.6 2-3.8 2-5.6a7.8 7.8 0 0 0 0-1.5h-8.1ZM78.4 38c-1.7 0-3.2-1.4-3.2-3.4s1.5-3.5 3.2-3.5c1.8 0 3.2 1.4 3.2 3.5 0 2-1.4 3.4-3.2 3.4Zm0-9a5.6 5.6 0 0 0-5.7 5.6 5.6 5.6 0 0 0 5.7 5.6 5.6 5.6 0 0 0 5.7-5.6 5.6 5.6 0 0 0-5.7-5.7ZM91 38c-1.8 0-3.2-1.4-3.2-3.4s1.4-3.5 3.2-3.5c1.7 0 3.2 1.4 3.2 3.5 0 2-1.5 3.4-3.2 3.4Zm0-9a5.6 5.6 0 0 0-5.7 5.6 5.6 5.6 0 0 0 5.7 5.6 5.6 5.6 0 0 0 5.7-5.6 5.6 5.6 0 0 0-5.7-5.7ZM57 14.1h2.7l-1.3-3.6-1.4 3.6Zm-2 3.2 3-8h1l3 8h-1l-.9-2.1h-3.3l-.8 2.1h-1.1Z" fill="#fff"/>
  <path d="M57.1 14.2v.1H60l-1.4-3.8h-.3L57 14.3h.2v-.1h.2l1.3-3.5-.2-.1v.1-.1l1.2 3.5H57v.1ZM55 17.3l3-7.8h1l3 7.7h-1l-.8-2.2h-3.5l-.8 2.2h-1v.3H56l.8-2.2H60l.8 2.2h1.4l-3-8.3h-1.4l-3.1 8.3h.2v-.2Zm8.3 0v-8H69v8h-1v-7h-3.8v7h-1Z" fill="#fff"/>
  <path d="M63.2 17.3h.1V9.5H69v7.7h-1v-7h-4v7h-.9v.3h1.2v-7h3.4v7H69V9.2h-6v8.3h.1v-.2Zm9-1.7a3 3 0 0 0 2.2 1 3 3 0 0 0 2.2-1 3 3 0 0 0 .9-2.3c0-.9-.3-1.7-.9-2.3a3 3 0 0 0-2.2-.9 3 3 0 0 0-2.1 1c-.6.5-1 1.3-1 2.2a3 3 0 0 0 1 2.3Zm5.2.7a4 4 0 0 1-3 1.2 4.1 4.1 0 0 1-4-4.2 4 4 0 0 1 4-4.1 4.1 4.1 0 0 1 4.1 4.1 4.1 4.1 0 0 1-1.1 3Z" fill="#fff"/>
  <path d="m72.3 15.6-.1.1a3.1 3.1 0 0 0 2.2 1 3 3 0 0 0 2.3-1c.6-.6 1-1.4 1-2.4s-.4-1.7-1-2.4a3 3 0 0 0-2.3-.9 3.1 3.1 0 0 0-2.2 1 3.3 3.3 0 0 0-1 2.3 3 3 0 0 0 1 2.4l.2-.2a3 3 0 0 1-.9-2.2 3 3 0 0 1 .9-2.2 2.8 2.8 0 0 1 2-.8 3 3 0 0 1 2.1.8 3 3 0 0 1 .9 2.2 3 3 0 0 1-.9 2.2 2.8 2.8 0 0 1-2 .9 2.8 2.8 0 0 1-2.1-.9l-.1.1Zm5 .7v-.1a3.8 3.8 0 0 1-2.9 1.2 4 4 0 0 1-4-4 4 4 0 0 1 4-4.1 4 4 0 0 1 4 4 4 4 0 0 1-1.1 3l.2.1a4.2 4.2 0 0 0 1.2-3A4.2 4.2 0 0 0 74.4 9a4.2 4.2 0 0 0-4.2 4.3 4.2 4.2 0 0 0 4.2 4.3 4 4 0 0 0 3-1.2v-.1Zm8.5-7-3.5 4.1 3.7 3.9h-1.4L81 13.6v3.7h-1v-8h1v4l3.5-4h1.3Z" fill="#fff"/>
  <path d="M85.8 9.3h-.1.1L82 13.4l3.8 4 .1-.1h.2v-.1h-1.4l-3.5-3.8H81v3.8h-1V9.5h.8v4h.2l3.4-4h1.3v-.3h-1.4l-3.4 4v.1-.1.1h.2V9.2h-1.3v8.3h1.3v-4H81v.2-.1l3.5 3.9h1.6v-.3l-3.6-3.8 3.5-4v-.2h-.2v.1Zm4 8h-1v-7h-2.3v-1H92v1h-2.2v7Z" fill="#fff"/>
  <path d="M89.8 17.3v-.1h-1v-7h-2.2v-.7H92v.7h-2.3v7.1h.3v-6.9h2V9.3h-5.7v1.3h2.2v7h1.3v-.2h-.1Zm3.5 0v-8h1v3.5h4V9.3h1v8h-1v-3.6h-4v3.6h-1Z" fill="#fff"/>
  <path d="M93.3 17.3h.1V9.5h.8v3.4h4.2V9.5h.8v7.7h-.7v-3.6h-4.3v3.6h-.9v.3h1.2v-3.6h3.7v3.6h1.3V9.2h-1.3v3.4h-3.7V9.2h-1.3v8.3h.1v-.2Zm12.4-7h-3.8l2.5 3-2.5 3h3.8v1h-4.9v-1l2.4-3-2.4-2.9v-1h4.9v1Z" fill="#fff"/>
  <path d="M105.7 10.3v-.1h-4l2.6 3-2.6 3.3h3.8v.7H101v-.9l2.4-3-2.4-3v-.8h4.5v.8h.3V9.2h-5.1v1.3l2.3 2.7-2.3 3v1.3h5.1v-1.3h-3.6l2.4-3-2.4-2.7h3.6v-.2h-.1Zm4 7h-1v-7h-2.2v-1h5.5v1h-2.3v7Z" fill="#fff"/>
  <path d="M109.7 17.3v-.1h-.9v-7h-2.2v-.7h5.2v.7h-2.2v7.1h.3v-6.9h2.2V9.3h-5.8v1.3h2.3v7h1.3v-.2h-.2Zm8.2-7h-3.6v2.5h3.3v1h-3.3v2.5h3.6v1h-4.6v-8h4.6v1Z" fill="#fff"/>
  <path d="M118 10.3v-.1h-3.8V13h3.2v.7h-3.2v2.8h3.6v.7h-4.4V9.5h4.4v.8h.3V9.2h-5v8.3h5v-1.3h-3.7V14h3.3v-1.2h-3.3v-2.3h3.7-.2Zm6.5 7h-1v-7h-2.3v-1h5.5v1h-2.2v7Z" fill="#fff"/>
  <path d="M124.5 17.3v-.1h-.9v-7h-2.2v-.7h5.2v.7h-2.2v7.1h.2v-6.9h2.3V9.3H121v1.3h2.2v7h1.3v-.2Zm4.8-1.7a3 3 0 0 0 2.1 1 3 3 0 0 0 2.2-1 3 3 0 0 0 .9-2.3c0-.9-.3-1.7-.9-2.3a3 3 0 0 0-2.2-.9 3 3 0 0 0-2.1 1c-.6.5-1 1.3-1 2.2a3 3 0 0 0 1 2.3Zm5 .7a4 4 0 0 1-2.9 1.2 4 4 0 0 1-4-4.2 4 4 0 0 1 4-4.1 4.1 4.1 0 0 1 4.1 4.1 4.1 4.1 0 0 1-1.1 3Z" fill="#fff"/>
  <path d="m129.3 15.6-.1.1a3.1 3.1 0 0 0 2.2 1 3 3 0 0 0 2.3-1c.6-.6 1-1.4 1-2.4s-.4-1.7-1-2.4a3 3 0 0 0-2.3-.9 3 3 0 0 0-2.2 1 3.3 3.3 0 0 0-1 2.3 3 3 0 0 0 1 2.4l.2-.2a3 3 0 0 1-.9-2.2 3 3 0 0 1 .8-2.2 2.8 2.8 0 0 1 2.1-.8c.8 0 1.5.3 2.1.8a3 3 0 0 1 .9 2.2 3 3 0 0 1-.9 2.2 2.8 2.8 0 0 1-2 .9 2.8 2.8 0 0 1-2.2-.9v.1Zm5 .7v-.1a3.8 3.8 0 0 1-2.9 1.2 4 4 0 0 1-4-4 4 4 0 0 1 4-4.1 4 4 0 0 1 2.9 1.2 4 4 0 0 1 1.1 2.8 4 4 0 0 1-1.1 3l.2.1a4.2 4.2 0 0 0 1.2-3 4.2 4.2 0 0 0-4.3-4.4 4.2 4.2 0 0 0-4.2 4.3 4.2 4.2 0 0 0 4.2 4.3 4 4 0 0 0 3-1.2v-.1Zm9.9-6h-3.8l2.5 3-2.5 3h3.8v1h-4.9v-1l2.4-3-2.4-2.9v-1h4.8v1Z" fill="#fff"/>
  <path d="M144.2 10.3v-.1h-4l2.6 3-2.6 3.3h3.8v.7h-4.6v-.9l2.5-3-2.5-3v-.8h4.6v.8h.3V9.2h-5.1v1.3l2.3 2.7-2.3 3v1.3h5v-1.3h-3.5l2.4-3-2.4-2.7h3.6v-.2h-.1Zm4 7h-1v-7H145v-1h5.5v1h-2.3v7Z" fill="#fff"/>
  <path d="M148.2 17.3v-.1h-.9v-7h-2.2v-.7h5.2v.7h-2.2v7.1h.3v-6.9h2.2V9.3h-5.8v1.3h2.3v7h1.3v-.2h-.2Zm4.8-1.7a3 3 0 0 0 2.1 1 3 3 0 0 0 2.2-1 3 3 0 0 0 .9-2.3c0-.9-.3-1.7-.9-2.3a3 3 0 0 0-2.2-.9 3 3 0 0 0-2.1 1c-.6.5-1 1.3-1 2.2a3 3 0 0 0 1 2.3Zm5 .7a4 4 0 0 1-2.9 1.2 4.1 4.1 0 0 1-4-4.2 4.1 4.1 0 0 1 4-4.1 4.1 4.1 0 0 1 4.1 4.1 4.1 4.1 0 0 1-1.1 3Z" fill="#fff"/>
  <path d="m153 15.6-.1.1a3 3 0 0 0 2.2 1 3 3 0 0 0 2.3-1c.6-.6 1-1.4 1-2.4s-.4-1.7-1-2.4a3 3 0 0 0-2.3-.9 3 3 0 0 0-2.2 1 3.3 3.3 0 0 0-1 2.3 3 3 0 0 0 1 2.4l.2-.2a3 3 0 0 1-.9-2.2 3 3 0 0 1 .9-2.2 2.8 2.8 0 0 1 2-.8 3 3 0 0 1 2.1.8 3 3 0 0 1 .9 2.2 3 3 0 0 1-.9 2.2 2.8 2.8 0 0 1-2 .9 2.8 2.8 0 0 1-2.1-.9l-.1.1Zm5 .7v-.1a3.8 3.8 0 0 1-2.9 1.2 4 4 0 0 1-4-4 4 4 0 0 1 4-4.1c1.2 0 2.1.4 2.9 1.2a4 4 0 0 1 1.1 2.8 4 4 0 0 1-1.1 3l.2.1a4.2 4.2 0 0 0 1.2-3A4.2 4.2 0 0 0 155 9a4.2 4.2 0 0 0-4.2 4.3 4.2 4.2 0 0 0 4.2 4.3 4 4 0 0 0 3-1.2v-.1Z" fill="#fff"/>
</svg>
