<svg width="180" height="54" fill="none" xmlns="http://www.w3.org/2000/svg">
  <path d="M173.33 54H6.67A6.73 6.73 0 0 1 0 47.25V6.75C0 3.04 3 0 6.67 0h166.66A6.73 6.73 0 0 1 180 6.75v40.5c0 3.71-3 6.75-6.67 6.75Z" fill="#000"/>
  <path d="m27.63 26.22-14.2 15.26a3.84 3.84 0 0 0 5.65 2.35l.05-.03 15.97-9.33-7.48-8.25Z" fill="#EA4335"/>
  <path d="m41.98 23.63-.01-.02-6.9-4.05-7.77 7 7.8 7.9 6.86-4a3.89 3.89 0 0 0 2.02-3.43c0-1.47-.8-2.75-2-3.4Z" fill="#FBBC04"/>
  <path d="M13.43 12.52a3.7 3.7 0 0 0-.13 1v26.96c0 .35.04.68.13 1L28.1 26.62l-14.68-14.1Z" fill="#4285F4"/>
  <path d="m27.73 27 7.34-7.44-15.96-9.37a3.85 3.85 0 0 0-5.69 2.33L27.73 27Z" fill="#34A853"/>
  <path d="M142.58 40h2.49V23.33h-2.49V40ZM165 29.34l-2.85 7.22h-.09l-2.96-7.22h-2.68l4.44 10.1-2.53 5.61h2.6l6.84-15.71H165Zm-14.1 8.77c-.82 0-1.96-.41-1.96-1.42 0-1.29 1.41-1.78 2.64-1.78 1.1 0 1.6.24 2.27.56a3.02 3.02 0 0 1-2.96 2.64Zm.3-9.14c-1.81 0-3.68.8-4.45 2.55l2.21.93c.47-.93 1.35-1.23 2.27-1.23 1.3 0 2.6.78 2.62 2.15v.17a5.5 5.5 0 0 0-2.6-.64c-2.38 0-4.8 1.3-4.8 3.75 0 2.23 1.95 3.67 4.14 3.67a3.5 3.5 0 0 0 3.17-1.63h.09v1.28h2.4v-6.39c0-2.96-2.2-4.6-5.06-4.6Zm-15.38 2.4h-3.54v-5.72h3.53a2.89 2.89 0 0 1 2.92 2.86 2.9 2.9 0 0 1-2.91 2.86Zm-.07-8.04h-5.96V40h2.49v-6.32h3.47c2.76 0 5.47-2 5.47-5.17 0-3.18-2.71-5.18-5.47-5.18Zm-32.5 14.78c-1.72 0-3.16-1.44-3.16-3.42 0-2 1.44-3.45 3.15-3.45 1.7 0 3.03 1.46 3.03 3.45 0 1.98-1.33 3.42-3.03 3.42Zm2.85-7.84h-.1a3.93 3.93 0 0 0-2.98-1.27 5.64 5.64 0 0 0-5.44 5.7c0 3.17 2.6 5.64 5.44 5.64 1.35 0 2.43-.6 2.98-1.28h.09v.81c0 2.17-1.16 3.33-3.03 3.33a3.14 3.14 0 0 1-2.86-2.02l-2.17.9a5.4 5.4 0 0 0 5.03 3.35c2.92 0 5.4-1.71 5.4-5.9V29.35h-2.37v.92Zm4.08 9.73h2.5V23.33h-2.5V40Zm6.17-5.5a3.11 3.11 0 0 1 2.96-3.3c.99 0 1.83.49 2.1 1.2l-5.06 2.1Zm7.73-1.89c-.47-1.27-1.91-3.6-4.85-3.6-2.93 0-5.35 2.29-5.35 5.66 0 3.18 2.4 5.67 5.62 5.67 2.6 0 4.1-1.59 4.73-2.5l-1.93-1.3a3.24 3.24 0 0 1-2.8 1.57 2.89 2.89 0 0 1-2.75-1.72l7.59-3.13-.26-.65Zm-60.41-1.87v2.4h5.76a5.02 5.02 0 0 1-1.32 3.04 5.9 5.9 0 0 1-4.44 1.76 6.32 6.32 0 0 1-6.32-6.4A6.32 6.32 0 0 1 68 26.85l1.7-1.7a8.4 8.4 0 0 0-6.04-2.42 8.93 8.93 0 0 0-8.94 8.8 8.93 8.93 0 0 0 8.94 8.81c2.62 0 4.6-.86 6.14-2.47 1.6-1.59 2.09-3.82 2.09-5.62a7.8 7.8 0 0 0-.13-1.5h-8.1Zm14.77 7.37c-1.72 0-3.2-1.42-3.2-3.44 0-2.04 1.48-3.43 3.2-3.43 1.72 0 3.2 1.4 3.2 3.43 0 2.02-1.48 3.44-3.2 3.44Zm0-9.1a5.59 5.59 0 0 0-5.7 5.66 5.6 5.6 0 0 0 5.7 5.67 5.6 5.6 0 0 0 5.7-5.67 5.59 5.59 0 0 0-5.7-5.67Zm12.42 9.1c-1.72 0-3.2-1.42-3.2-3.44 0-2.04 1.48-3.43 3.2-3.43 1.72 0 3.2 1.4 3.2 3.43 0 2.02-1.48 3.44-3.2 3.44Zm0-9.1a5.59 5.59 0 0 0-5.7 5.66 5.6 5.6 0 0 0 5.7 5.67 5.6 5.6 0 0 0 5.69-5.67 5.59 5.59 0 0 0-5.7-5.67ZM57.12 14.2h2.66l-1.3-3.6h-.05l-1.3 3.6Zm-2.26 3.13 3.01-8h1.16l3.02 8h-1.14l-.77-2.16h-3.36L56 17.33h-1.14Z" fill="#fff"/>
  <path d="M57.12 14.2v.14h2.85l-1.4-3.88h-.23l-1.4 3.88h.18v-.14l.13.05 1.3-3.6-.12-.05v.13h.05v-.13l-.13.04 1.24 3.43h-2.47v.13Zm-2.26 3.13.12.05 2.99-7.91h.97l2.92 7.73H61l-.77-2.17h-3.56l-.78 2.17h-1.04v.27h1.23l.78-2.17h3.18l.77 2.17h1.42l-3.1-8.27h-1.35l-3.12 8.27h.2v-.14Zm8.35 0v-8h5.8v8h-1.04v-7.01h-3.73v7.01h-1.03Z" fill="#fff"/>
  <path d="M63.21 17.33h.14V9.47h5.52v7.73h-.76v-7.02h-4v7.02h-.9v.27h1.17v-7.02h3.46v7.02h1.3V9.2h-6.06v8.27h.13v-.14Zm9.06-1.7c.6.6 1.32.9 2.17.9.86 0 1.58-.3 2.18-.9.59-.6.88-1.37.88-2.3 0-.93-.3-1.7-.88-2.3-.6-.6-1.32-.9-2.18-.9-.85 0-1.58.3-2.17.9-.6.6-.89 1.37-.89 2.3 0 .93.3 1.7.89 2.3Zm5.1.67a3.92 3.92 0 0 1-2.93 1.21 4.1 4.1 0 0 1-4.11-4.18 4.09 4.09 0 0 1 4.11-4.18 4.1 4.1 0 0 1 4.11 4.18 4.1 4.1 0 0 1-1.17 2.97Z" fill="#fff"/>
  <path d="m72.27 15.63-.1.1a3.1 3.1 0 0 0 2.27.93c.89 0 1.66-.31 2.27-.94.62-.62.93-1.43.93-2.39 0-.96-.31-1.76-.93-2.39a3.07 3.07 0 0 0-2.27-.94 3.1 3.1 0 0 0-2.27.94 3.27 3.27 0 0 0-.92 2.4c0 .95.3 1.76.92 2.38l.1-.09.1-.1a3 3 0 0 1-.86-2.2 3 3 0 0 1 .85-2.2 2.8 2.8 0 0 1 2.08-.86c.83 0 1.51.29 2.08.86a3 3 0 0 1 .85 2.2 3 3 0 0 1-.85 2.2 2.8 2.8 0 0 1-2.08.87 2.8 2.8 0 0 1-2.08-.86l-.1.09Zm5.1.67-.09-.1a3.8 3.8 0 0 1-2.84 1.18 3.96 3.96 0 0 1-3.98-4.05 3.96 3.96 0 0 1 3.98-4.04 3.96 3.96 0 0 1 3.98 4.05c0 1.13-.38 2.08-1.14 2.87l.1.09.1.1a4.23 4.23 0 0 0 1.2-3.07 4.22 4.22 0 0 0-4.24-4.3 4.23 4.23 0 0 0-4.24 4.31 4.23 4.23 0 0 0 4.24 4.3c1.2 0 2.22-.41 3.03-1.25l-.1-.1Zm8.46-6.97v.05l-3.55 4.04L86 17.3v.04h-1.43l-3.51-3.75h-.05v3.75H80v-8h1.02v3.98h.05l3.42-3.98h1.34Z" fill="#fff"/>
  <path d="M85.83 9.33h-.13v.05h.13l-.1-.09-3.64 4.14 3.82 3.95.1-.1h-.14v.05h.14v-.13h-1.37l-3.51-3.75h-.24v3.75h-.76V9.47h.76v3.97h.24l3.42-3.97h1.28V9.2h-1.4l-3.46 4.02.1.1v-.14h-.05v.13h.14V9.2h-1.3v8.27h1.3v-3.89h-.14v.13h.05v-.13l-.1.09 3.55 3.8h1.62v-.23l-3.68-3.82 3.5-4V9.2h-.13v.13Zm3.93 8h-1.03v-7.01H86.5v-.99H92v.99h-2.24v7.01Z" fill="#fff"/>
  <path d="M89.76 17.33v-.13h-.9v-7.02h-2.23v-.71h5.23v.71h-2.23v7.15h.26v-6.88h2.24V9.2h-5.77v1.25h2.24v7.02h1.3v-.14h-.14Zm3.54 0v-8h1.02v3.43h4V9.33h1.03v8h-1.03v-3.6h-4v3.6h-1.03Z" fill="#fff"/>
  <path d="M93.3 17.33h.13V9.47h.76v3.43h4.26V9.47h.76v7.73h-.76v-3.6H94.2v3.6h-.9v.27h1.16v-3.61h3.74v3.6h1.3V9.2h-1.3v3.43h-3.74V9.2h-1.3v8.27h.14v-.14Zm12.37-7.01h-3.72l2.5 2.92-2.5 3.11h3.72v.98h-4.85v-1.07l2.4-3.02-2.4-2.83V9.33h4.85v.99Z" fill="#fff"/>
  <path d="M105.67 10.32v-.14h-4l2.61 3.07-2.6 3.23h3.86v.72h-4.58v-.9l2.43-3.06-2.43-2.88v-.9h4.58v.86h.27V9.2h-5.12v1.25l2.35 2.8-2.35 2.96v1.26h5.12v-1.25h-3.58l2.4-2.98-2.39-2.79h3.57v-.13h-.14Zm4.07 7.01h-1.03v-7.01h-2.23v-.99h5.5v.99h-2.24v7.01Z" fill="#fff"/>
  <path d="M109.74 17.33v-.13h-.9v-7.02h-2.23v-.71h5.23v.71h-2.23v7.15h.26v-6.88h2.24V9.2h-5.77v1.25h2.24v7.02h1.3v-.14h-.14Zm8.2-7.01h-3.64v2.53h3.28v.96h-3.28v2.54h3.64v.98h-4.67v-8h4.67v.99Z" fill="#fff"/>
  <path d="M117.94 10.32v-.14h-3.77v2.8h3.28v.7h-3.28v2.8h3.64v.72h-4.4V9.47h4.4v.85h.27V9.2h-4.94v8.27h4.94v-1.25h-3.65v-2.27h3.29v-1.23h-3.29v-2.27h3.64v-.13h-.13Zm6.57 7.01h-1.03v-7.01h-2.23v-.99h5.5v.99h-2.24v7.01Z" fill="#fff"/>
  <path d="M124.51 17.33v-.13h-.9v-7.02h-2.23v-.71h5.23v.71h-2.23v7.15h.26v-6.88h2.24V9.2h-5.76v1.25h2.23v7.02h1.3v-.14h-.14Zm4.74-1.7c.6.6 1.32.9 2.18.9.85 0 1.58-.3 2.17-.9.6-.6.9-1.37.9-2.3 0-.93-.3-1.7-.9-2.3-.59-.6-1.31-.9-2.17-.9-.86 0-1.58.3-2.18.9-.59.6-.88 1.37-.88 2.3 0 .93.3 1.7.88 2.3Zm5.11.67a3.92 3.92 0 0 1-2.93 1.21 4.09 4.09 0 0 1-4.11-4.18 4.09 4.09 0 0 1 4.1-4.18 4.1 4.1 0 0 1 4.11 4.18 4.1 4.1 0 0 1-1.17 2.97Z" fill="#fff"/>
  <path d="m129.25 15.63-.09.1a3.1 3.1 0 0 0 2.27.93c.89 0 1.65-.31 2.27-.94.62-.62.93-1.43.92-2.39 0-.96-.3-1.76-.92-2.39a3.07 3.07 0 0 0-2.27-.94c-.89 0-1.66.32-2.27.94a3.27 3.27 0 0 0-.93 2.4c0 .95.31 1.76.93 2.38l.1-.09.1-.1a3 3 0 0 1-.86-2.2 3 3 0 0 1 .85-2.2 2.8 2.8 0 0 1 2.08-.86c.82 0 1.5.29 2.08.86a3 3 0 0 1 .85 2.2 3 3 0 0 1-.85 2.2 2.8 2.8 0 0 1-2.08.87 2.8 2.8 0 0 1-2.08-.86l-.1.09Zm5.11.67-.1-.1a3.8 3.8 0 0 1-2.83 1.18 3.96 3.96 0 0 1-3.98-4.05 3.96 3.96 0 0 1 3.98-4.04c1.13 0 2.06.39 2.83 1.18a3.96 3.96 0 0 1 1.15 2.86c0 1.14-.38 2.1-1.14 2.88l.1.09.09.1a4.22 4.22 0 0 0 1.21-3.07 4.22 4.22 0 0 0-4.24-4.3 4.23 4.23 0 0 0-4.24 4.31 4.23 4.23 0 0 0 4.24 4.3c1.2 0 2.22-.41 3.03-1.25l-.1-.1Zm9.8-5.98h-3.72l2.5 2.92-2.5 3.11h3.72v.98h-4.85v-1.07l2.39-3.02-2.4-2.83V9.33h4.85v.99Z" fill="#fff"/>
  <path d="M144.16 10.32v-.14h-4.01l2.61 3.07-2.6 3.23h3.86v.72h-4.58v-.9l2.43-3.06-2.43-2.88v-.9h4.58v.86h.27V9.2h-5.12v1.25l2.36 2.8-2.36 2.96v1.26h5.12v-1.25h-3.58l2.4-2.98-2.39-2.79h3.57v-.13h-.13Zm4.06 7.01h-1.03v-7.01h-2.23v-.99h5.5v.99h-2.24v7.01Z" fill="#fff"/>
  <path d="M148.22 17.33v-.13h-.9v-7.02h-2.22v-.71h5.22v.71h-2.23v7.15h.27v-6.88h2.23V9.2h-5.76v1.25h2.23v7.02h1.3v-.14h-.14Zm4.75-1.7c.59.6 1.31.9 2.17.9.86 0 1.58-.3 2.17-.9.6-.6.89-1.37.89-2.3 0-.93-.3-1.7-.89-2.3-.59-.6-1.31-.9-2.17-.9-.86 0-1.58.3-2.17.9-.6.6-.9 1.37-.9 2.3 0 .93.3 1.7.9 2.3Zm5.1.67a3.93 3.93 0 0 1-2.93 1.21 4.1 4.1 0 0 1-4.11-4.18 4.1 4.1 0 0 1 4.1-4.18 4.1 4.1 0 0 1 4.11 4.18 4.1 4.1 0 0 1-1.17 2.97Z" fill="#fff"/>
  <path d="m152.97 15.63-.1.1c.61.62 1.38.93 2.27.93.89 0 1.65-.31 2.27-.94.61-.62.93-1.43.92-2.39 0-.96-.3-1.76-.92-2.39a3.07 3.07 0 0 0-2.27-.94c-.89 0-1.66.32-2.27.94a3.27 3.27 0 0 0-.93 2.4c0 .95.31 1.76.93 2.38l.1-.09.09-.1a3 3 0 0 1-.85-2.2 3 3 0 0 1 .85-2.2 2.8 2.8 0 0 1 2.08-.86c.82 0 1.5.29 2.08.86a3 3 0 0 1 .85 2.2 3 3 0 0 1-.85 2.2 2.8 2.8 0 0 1-2.08.87 2.8 2.8 0 0 1-2.08-.86l-.1.09Zm5.1.67-.1-.1a3.8 3.8 0 0 1-2.83 1.18 3.96 3.96 0 0 1-3.98-4.05 3.95 3.95 0 0 1 3.98-4.04c1.13 0 2.06.39 2.83 1.18a3.95 3.95 0 0 1 1.15 2.86c0 1.14-.38 2.1-1.14 2.88l.1.09.09.1a4.23 4.23 0 0 0 1.21-3.07 4.23 4.23 0 0 0-4.24-4.3 4.22 4.22 0 0 0-4.24 4.31 4.22 4.22 0 0 0 4.24 4.3c1.2 0 2.22-.41 3.03-1.25l-.1-.1Z" fill="#fff"/>
</svg>
