<svg width="180" height="54" fill="none" xmlns="http://www.w3.org/2000/svg">
  <path d="M173.3 54H6.7A6.7 6.7 0 0 1 0 47.2V6.8C0 3 3 0 6.7 0h166.6a6.7 6.7 0 0 1 6.7 6.8v40.5c0 3.7-3 6.7-6.7 6.7Z" fill="#000"/>
  <path d="M27.6 26.2 13.4 41.5a3.8 3.8 0 0 0 5.7 2.3l16-9.3-7.5-8.3Z" fill="#EA4335"/>
  <path d="m42 23.6-7-4-7.7 7 7.8 7.9 6.9-4a3.9 3.9 0 0 0 2-3.5 4 4 0 0 0-2-3.4Z" fill="#FBBC04"/>
  <path d="M13.4 12.5a3.7 3.7 0 0 0-.1 1v27l.1 1 14.7-14.9-14.7-14Z" fill="#4285F4"/>
  <path d="m27.7 27 7.4-7.4-16-9.4a3.9 3.9 0 0 0-5.7 2.3L27.7 27Z" fill="#34A853"/>
  <path d="M63.2 13h-4v1h3c0 .8-.4 1.4-1 1.8a3 3 0 0 1-2 .7 3 3 0 0 1-2.1-.9 3.2 3.2 0 0 1-1-2.3c0-.9.4-1.6 1-2.3a3 3 0 0 1 2.2-.9c.4 0 .9.1 1.2.3.4.2.8.4 1 .7l.7-.8a4 4 0 0 0-3-1.1 4 4 0 0 0-2.9 1.2 4 4 0 0 0-1.2 3 4 4 0 0 0 1.2 3 4 4 0 0 0 3 1.1 4 4 0 0 0 3-1.2 3.6 3.6 0 0 0 .9-3.2Zm1.5-3.7v8h4.7v-1h-3.7v-2.5H69v-1h-3.3v-2.5h3.7v-1h-4.7Zm11.3 1v-1h-5.5v1h2.2v7h1v-7H76Zm5-1h-1v8h1v-8Zm6.8 1v-1h-5.5v1h2.2v7h1v-7h2.3Zm10.4 0a4 4 0 0 0-3-1.1 4 4 0 0 0-2.9 1.2 4 4 0 0 0-1.2 3 4 4 0 0 0 1.2 3 4 4 0 0 0 3 1.1 4 4 0 0 0 4-4.2 4 4 0 0 0-1.1-3ZM93 11a2.9 2.9 0 0 1 2.2-.9 3 3 0 0 1 2.2 1c.6.5.9 1.3.9 2.2a3 3 0 0 1-.9 2.3 3 3 0 0 1-2.2 1 3 3 0 0 1-2.2-1 3.1 3.1 0 0 1-.8-2.3c0-.9.3-1.7.8-2.3Zm8.8 1.4v-1.6l4 6.5h1.1v-8h-1v6.3L102 9.3h-1.2v8h1v-5ZM142.6 40h2.5V23.3h-2.5V40ZM165 29.3l-2.9 7.3-3-7.3h-2.7l4.5 10.1-2.6 5.7h2.6l6.9-15.8H165Zm-14.1 8.8c-.8 0-2-.4-2-1.4 0-1.3 1.4-1.8 2.7-1.8 1 0 1.6.3 2.2.6a3 3 0 0 1-3 2.6Zm.3-9.1c-1.8 0-3.7.8-4.4 2.5l2.2 1c.4-1 1.3-1.3 2.2-1.3 1.3 0 2.6.8 2.7 2.2v.1a5.5 5.5 0 0 0-2.6-.6c-2.4 0-4.8 1.3-4.8 3.8 0 2.2 2 3.6 4 3.6a3.5 3.5 0 0 0 3.3-1.6V40h2.4v-6.4c0-3-2.1-4.6-5-4.6Zm-15.4 2.4h-3.5v-5.8h3.5a2.9 2.9 0 0 1 3 3 2.9 2.9 0 0 1-3 2.8Zm0-8h-6V40h2.5v-6.3h3.4c2.8 0 5.5-2 5.5-5.2s-2.7-5.2-5.4-5.2ZM103.2 38c-1.7 0-3.1-1.4-3.1-3.4s1.4-3.5 3.1-3.5c1.7 0 3 1.5 3 3.5s-1.3 3.4-3 3.4Zm2.9-7.8h-.1a4 4 0 0 0-3-1.3 5.6 5.6 0 0 0-5.4 5.7c0 3.2 2.6 5.6 5.4 5.6 1.4 0 2.4-.6 3-1.2v.8c0 2.1-1 3.3-3 3.3a3.1 3.1 0 0 1-2.8-2L98 42a5.4 5.4 0 0 0 5 3.3c3 0 5.5-1.7 5.5-5.9V29.3H106v1Zm4 9.7h2.6V23.3h-2.5V40Zm6.2-5.5a3.1 3.1 0 0 1 3-3.3c1 0 1.8.5 2.1 1.2l-5 2.1Zm7.8-1.9c-.5-1.3-2-3.6-4.9-3.6-2.9 0-5.3 2.3-5.3 5.7 0 3.1 2.4 5.6 5.6 5.6a5.6 5.6 0 0 0 4.7-2.5l-1.9-1.3a3.2 3.2 0 0 1-2.8 1.6 2.9 2.9 0 0 1-2.7-1.7l7.5-3.1-.2-.7Zm-60.4-1.9V33h5.7a5 5 0 0 1-1.3 3 5.9 5.9 0 0 1-4.4 1.8 6.3 6.3 0 0 1-6.3-6.4A6.3 6.3 0 0 1 68 27l1.7-1.7a8.4 8.4 0 0 0-6-2.5 9 9 0 0 0-9 8.8 9 9 0 0 0 9 8.8 8 8 0 0 0 6.1-2.4 8 8 0 0 0 2.1-5.7l-.1-1.5h-8.1ZM78.4 38c-1.7 0-3.2-1.4-3.2-3.4s1.5-3.5 3.2-3.5c1.8 0 3.2 1.4 3.2 3.5 0 2-1.4 3.4-3.2 3.4Zm0-9.1a5.6 5.6 0 0 0-5.7 5.7 5.6 5.6 0 0 0 5.7 5.6 5.6 5.6 0 0 0 5.7-5.6 5.6 5.6 0 0 0-5.7-5.7ZM91 38.1c-1.8 0-3.2-1.4-3.2-3.4s1.4-3.5 3.2-3.5c1.7 0 3.2 1.4 3.2 3.5 0 2-1.5 3.4-3.2 3.4Zm0-9.1a5.6 5.6 0 0 0-5.7 5.7 5.6 5.6 0 0 0 5.7 5.6 5.6 5.6 0 0 0 5.7-5.6A5.6 5.6 0 0 0 91 29Z" fill="#fff"/>
</svg>
