<svg width="180" height="54" fill="none" xmlns="http://www.w3.org/2000/svg">
  <path d="M173.33 54H6.67A6.73 6.73 0 0 1 0 47.25V6.75C0 3.04 3 0 6.67 0h166.66A6.73 6.73 0 0 1 180 6.75v40.5c0 3.71-3 6.75-6.67 6.75Z" fill="#000"/>
  <path d="m27.63 26.22-14.2 15.26a3.84 3.84 0 0 0 5.65 2.35l.05-.03 15.97-9.33-7.48-8.25Z" fill="#EA4335"/>
  <path d="m41.98 23.63-.01-.02-6.9-4.05-7.77 7 7.8 7.9 6.86-4a3.89 3.89 0 0 0 2.02-3.43c0-1.47-.8-2.75-2-3.4Z" fill="#FBBC04"/>
  <path d="M13.43 12.52a3.7 3.7 0 0 0-.13 1v26.96c0 .35.04.68.13 1L28.1 26.62l-14.68-14.1Z" fill="#4285F4"/>
  <path d="m27.73 27 7.34-7.44-15.96-9.37a3.85 3.85 0 0 0-5.69 2.33L27.73 27Z" fill="#34A853"/>
  <path d="M63.16 13.06h-3.88v.96h2.92c-.08.77-.4 1.4-.92 1.83-.54.46-1.2.67-2 .67-.87 0-1.6-.3-2.2-.9a3.2 3.2 0 0 1-.9-2.29c0-.91.31-1.66.9-2.29.6-.6 1.33-.9 2.2-.9.46 0 .88.09 1.27.26.4.16.71.4.94.68l.75-.73a4.03 4.03 0 0 0-2.96-1.19c-1.16 0-2.14.4-2.93 1.21-.82.8-1.21 1.8-1.21 2.96 0 1.17.4 2.17 1.2 2.98a4 4 0 0 0 2.94 1.21c1.23 0 2.2-.4 2.94-1.19a3.61 3.61 0 0 0 .94-3.27Zm1.54-3.73v8h4.67v-.98h-3.64v-2.54H69v-.96h-3.27v-2.54h3.64v-.98h-4.66Zm11.25.98v-.98h-5.5v.98h2.23v7.02h1.02v-7.02h2.25Zm5-.98h-1.02v8h1.02v-8Zm6.8.98v-.98h-5.5v.98h2.23v7.02h1.02v-7.02h2.25Zm10.4.06a3.96 3.96 0 0 0-2.94-1.2c-1.16 0-2.12.4-2.91 1.2a4 4 0 0 0-1.2 2.96 4 4 0 0 0 1.2 2.98c.79.8 1.75 1.21 2.91 1.21a4.08 4.08 0 0 0 4.1-4.19c0-1.16-.37-2.16-1.16-2.96Zm-5.13.67a2.9 2.9 0 0 1 2.2-.9c.87 0 1.6.3 2.18.9.58.6.88 1.38.88 2.3 0 .93-.3 1.7-.88 2.28-.58.6-1.31.9-2.19.9-.87 0-1.6-.3-2.18-.9a3.14 3.14 0 0 1-.88-2.29c0-.91.3-1.68.88-2.29Zm8.78 1.31-.04-1.54h.04l4.06 6.52h1.06v-8h-1.02v4.7l.05 1.53h-.05l-3.87-6.23h-1.25v8h1.02v-4.98ZM142.58 40h2.49V23.33h-2.49V40ZM165 29.34l-2.85 7.22h-.09l-2.96-7.22h-2.68l4.44 10.1-2.53 5.61h2.6l6.84-15.71H165Zm-14.11 8.76c-.81 0-1.95-.4-1.95-1.4 0-1.3 1.41-1.79 2.64-1.79 1.1 0 1.6.24 2.27.56a3.01 3.01 0 0 1-2.96 2.63Zm.3-9.13c-1.8 0-3.66.8-4.44 2.56l2.21.92c.47-.92 1.35-1.23 2.27-1.23 1.29 0 2.6.77 2.62 2.15v.17a5.53 5.53 0 0 0-2.6-.64c-2.38 0-4.8 1.3-4.8 3.75 0 2.23 1.96 3.67 4.14 3.67a3.5 3.5 0 0 0 3.17-1.63h.09v1.28h2.4v-6.39c0-2.95-2.2-4.6-5.06-4.6Zm-15.37 2.4h-3.54v-5.72h3.54a2.89 2.89 0 0 1 2.9 2.86 2.9 2.9 0 0 1-2.9 2.85Zm-.07-8.04h-5.96V40h2.49v-6.31h3.47c2.76 0 5.47-2 5.47-5.18 0-3.18-2.71-5.18-5.47-5.18Zm-32.5 14.78c-1.72 0-3.16-1.44-3.16-3.42 0-2 1.44-3.46 3.15-3.46 1.7 0 3.03 1.47 3.03 3.46 0 1.98-1.33 3.42-3.03 3.42Zm2.85-7.84h-.1a3.93 3.93 0 0 0-2.98-1.27 5.64 5.64 0 0 0-5.44 5.7c0 3.17 2.6 5.64 5.44 5.64 1.35 0 2.43-.6 2.98-1.28h.09v.81c0 2.17-1.16 3.33-3.03 3.33a3.14 3.14 0 0 1-2.86-2.02l-2.16.9a5.4 5.4 0 0 0 5.02 3.35c2.92 0 5.4-1.72 5.4-5.9V29.34h-2.37v.93Zm4.08 9.73h2.5V23.33h-2.5V40Zm6.17-5.5a3.1 3.1 0 0 1 2.96-3.3c1 0 1.83.49 2.1 1.2l-5.06 2.1Zm7.73-1.9c-.48-1.26-1.91-3.6-4.86-3.6-2.92 0-5.34 2.3-5.34 5.67 0 3.18 2.4 5.67 5.63 5.67a5.6 5.6 0 0 0 4.72-2.51l-1.93-1.29a3.24 3.24 0 0 1-2.8 1.57 2.88 2.88 0 0 1-2.74-1.72l7.58-3.13-.26-.65Zm-60.41-1.86v2.4h5.76a5.03 5.03 0 0 1-1.32 3.04 5.89 5.89 0 0 1-4.44 1.76 6.31 6.31 0 0 1-6.32-6.4A6.32 6.32 0 0 1 68 26.85l1.7-1.7a8.38 8.38 0 0 0-6.03-2.42 8.93 8.93 0 0 0-8.94 8.8 8.93 8.93 0 0 0 8.94 8.81c2.62 0 4.6-.86 6.14-2.47 1.6-1.58 2.09-3.82 2.09-5.63 0-.55-.05-1.07-.13-1.5h-8.1Zm14.77 7.37c-1.72 0-3.2-1.42-3.2-3.44 0-2.04 1.48-3.44 3.2-3.44 1.72 0 3.2 1.4 3.2 3.44 0 2.02-1.48 3.44-3.2 3.44Zm0-9.11a5.59 5.59 0 0 0-5.69 5.67 5.6 5.6 0 0 0 5.7 5.67 5.6 5.6 0 0 0 5.69-5.67 5.6 5.6 0 0 0-5.7-5.67Zm12.42 9.1c-1.72 0-3.2-1.4-3.2-3.43 0-2.04 1.48-3.44 3.2-3.44 1.72 0 3.2 1.4 3.2 3.44 0 2.02-1.48 3.44-3.2 3.44Zm0-9.1a5.6 5.6 0 0 0-5.7 5.67 5.6 5.6 0 0 0 5.7 5.67 5.6 5.6 0 0 0 5.7-5.67 5.6 5.6 0 0 0-5.7-5.67Z" fill="#fff"/>
</svg>
