<svg id="artwork" xmlns="http://www.w3.org/2000/svg" version="1.1" viewBox="0 0 239 70.9">
  <defs>
    <style>
      .st1{isolation:isolate}.st5{fill:#fff}
    </style>
  </defs>
  <rect width="239" height="70.8" rx="8.8" ry="8.8"/>
  <path class="st5" d="M120.6 38.5c-4.1 0-7.5 3.2-7.5 7.5s3.4 7.5 7.5 7.5a7.5 7.5 0 1 0 0-15Zm0 12c-2.3 0-4.2-1.8-4.2-4.5s2-4.5 4.2-4.5 4.3 1.8 4.3 4.5-2 4.6-4.3 4.6Zm-16.5-12c-4.1 0-7.5 3.2-7.5 7.5s3.4 7.5 7.5 7.5a7.5 7.5 0 1 0 0-15Zm0 12c-2.3 0-4.2-1.8-4.2-4.5s2-4.5 4.2-4.5 4.3 1.8 4.3 4.5-2 4.6-4.3 4.6Zm-19.6-9.7V44h7.7a6.7 6.7 0 0 1-1.8 4 7.8 7.8 0 0 1-5.9 2.4 8.4 8.4 0 0 1-8.4-8.5 8.4 8.4 0 0 1 14.2-6.2l2.2-2.3a11.8 11.8 0 0 0-19.8 8.5c0 6.5 5.3 11.7 11.8 11.7 3.5 0 6.1-1.1 8.2-3.3 2-2.1 2.7-5 2.7-7.5l-.1-2H84.5Zm80.2 2.5c-.6-1.7-2.5-4.8-6.4-4.8s-7.1 3-7.1 7.5c0 4.2 3.2 7.5 7.4 7.5 3.5 0 5.5-2 6.3-3.3l-2.6-1.7c-.8 1.2-2 2-3.7 2s-2.8-.7-3.6-2.2l10-4.2-.3-.8Zm-10.3 2.5c0-2.9 2.3-4.4 4-4.4 1.3 0 2.4.7 2.8 1.6l-6.8 2.8Zm-8.1 7.3h3.3V31h-3.3v22Zm-5.5-13a5.2 5.2 0 0 0-4-1.6c-3.8 0-7.2 3.3-7.2 7.6s3.4 7.5 7.2 7.5a5 5 0 0 0 4-1.8V53c0 3-1.5 4.5-4 4.5-2 0-3.2-1.5-3.8-2.7l-2.9 1.2c.9 2 3 4.4 6.7 4.4 3.9 0 7.2-2.2 7.2-7.8V39h-3.2v1.2ZM137 50.7c-2.2 0-4.2-2-4.2-4.5s2-4.6 4.2-4.6 4 2 4 4.6-1.7 4.5-4 4.5ZM180.2 31h-7.9v22h3.3v-8.4h4.6c3.7 0 7.3-2.6 7.3-6.9s-3.6-6.8-7.3-6.8Zm0 10.6h-4.6V34h4.7a3.8 3.8 0 1 1 0 7.6Zm20.5-3.1c-2.4 0-4.9 1-5.9 3.3l3 1.3c.6-1.3 1.8-1.7 3-1.7 1.7 0 3.4 1 3.4 2.9v.2c-.6-.3-1.8-.8-3.4-.8-3.2 0-6.4 1.7-6.4 5 0 2.9 2.6 4.8 5.5 4.8 2.2 0 3.5-1 4.2-2.2h.1v1.8h3.2v-8.5c0-4-3-6.1-6.7-6.1Zm-.4 12c-1 0-2.6-.5-2.6-1.8 0-1.7 1.9-2.3 3.5-2.3 1.5 0 2.2.3 3 .7a4 4 0 0 1-3.9 3.5ZM219 39l-3.8 9.6-4-9.6h-3.6l6 13.5-3.4 7.4h3.4l9.1-20.9H219Zm-29.7 14.2h3.3V31h-3.3v22Z"/>
  <path d="m36.7 34.4-18.9 20a5 5 0 0 0 7.5 3l21.3-12.2-10-10.9Z" style="fill:#ea4335"/>
  <path d="m55.7 31-9.1-5.3-10.4 9.1 10.4 10.4 9.1-5.3c1.6-.8 2.7-2.5 2.7-4.4s-1-3.7-2.7-4.5Z" style="fill:#fbbc04"/>
  <path d="m17.8 16.4-.2 1.3v35.4c0 .5 0 .9.2 1.3l19.5-19.5-19.5-18.5Z" style="fill:#4285f4"/>
  <path d="m36.8 35.4 9.8-9.8-21.2-12.2a5.1 5.1 0 0 0-7.6 3l19 19Z" style="fill:#34a853"/>
  <g class="st1">
    <path class="st5" d="M74 12h3.5c1.2 0 2.2.2 3.1.7a5 5 0 0 1 2 2c.5.9.7 1.8.7 3a5.4 5.4 0 0 1-2.7 4.9c-.9.4-1.9.7-3 .7h-3.7V12Zm3.5 9.6c1.3 0 2.3-.4 3-1s1-1.7 1-3-.3-2.2-1-2.9a4 4 0 0 0-3-1h-1.8v7.9h1.8ZM85 12h7v1.7h-5.1v3.1h4.5v1.7h-4.5v3.1h5v1.7H85V12Zm9.5 10.7a4.1 4.1 0 0 1-1.6-2.3l1.7-.7c.2.7.5 1.2.9 1.6s1 .5 1.5.5c.6 0 1-.1 1.5-.4.4-.3.5-.7.5-1.2 0-.4-.1-.8-.5-1.1a6 6 0 0 0-1.8-1L96 18c-.7-.2-1.4-.6-1.9-1.1-.5-.5-.7-1.2-.7-2 0-.5.1-1 .4-1.5.3-.5.7-.8 1.3-1.1s1.1-.4 1.8-.4c1 0 1.8.2 2.4.7.6.5 1 1 1.1 1.6l-1.5.7a2 2 0 0 0-2-1.4c-.5 0-1 .1-1.3.4s-.5.6-.5 1 .2.7.5 1c.3.2.8.5 1.5.7l.7.2c1 .4 1.7.8 2.2 1.3s.8 1.3.8 2.2a3 3 0 0 1-.6 1.9c-.3.5-.8.8-1.4 1a4 4 0 0 1-1.8.4c-1 0-1.8-.2-2.5-.8Zm10.3.1a5.9 5.9 0 0 1-2.9-5.1c0-1.2.3-2.2.8-3a5 5 0 0 1 2.1-2.2 6 6 0 0 1 5.3-.3c.7.3 1.4.8 1.9 1.4l-1.3 1.2a3 3 0 0 0-1.3-1 4.2 4.2 0 0 0-3.6.2c-.7.3-1.2.8-1.5 1.4s-.6 1.4-.6 2.2.2 1.6.6 2.2c.3.7.8 1.2 1.5 1.5a4.2 4.2 0 0 0 5.2-1l1.3 1.2a5.8 5.8 0 0 1-4.5 2c-1 0-2-.2-3-.8ZM117.2 12h2l4.2 11.3h-2l-1-2.9H116l-1 2.9h-2l4.3-11.3Zm2.7 6.8-1.2-3.4-.5-1.3-.5 1.3-1.2 3.4h3.4Zm4.7-6.8h4c.7 0 1.3.1 1.8.4s1 .7 1.4 1.3.4 1 .4 1.8a3 3 0 0 1-.7 2c-.5.6-1 1-1.8 1.1v.1l3 4.5h-2l-3-4.3h-1.3v4.4h-1.8V12Zm4 5.2c.5 0 1-.1 1.3-.5.4-.3.5-.7.5-1.3 0-.2 0-.5-.2-.8l-.6-.7c-.3-.2-.6-.2-1-.2h-2.2v3.5h2.2Z"/>
  </g>
  <g class="st1">
    <path class="st5" d="M135.7 22.8a5.8 5.8 0 0 1-3-5.2c0-1 .3-2 .8-3a5.8 5.8 0 0 1 5.1-2.8 6 6 0 0 1 2.4.4 5 5 0 0 1 1.8 1.3l-1.2 1.2a4 4 0 0 0-3-1.3 4.1 4.1 0 0 0-3.5 2c-.4.7-.6 1.4-.6 2.3a4 4 0 0 0 4.1 4.2 4 4 0 0 0 2.9-1.1c.3-.3.5-.6.6-1 .2-.3.3-.6.3-1h-3.8v-1.6h5.5v.9c0 .7 0 1.4-.2 2-.3.7-.6 1.3-1 1.8a5.5 5.5 0 0 1-4.3 1.7c-1 0-2-.3-3-.8Z"/>
  </g>
  <g class="st1">
    <path class="st5" d="M148.8 12h2l4.3 11.3h-2l-1-2.9h-4.5l-1 2.9h-2l4.2-11.3Zm2.7 6.8-1.2-3.4-.4-1.3h-.1l-.5 1.3-1.2 3.4h3.4Zm4.6-6.8h4c.7 0 1.3.1 1.8.4s1 .7 1.4 1.3.4 1 .4 1.8a3 3 0 0 1-.7 2c-.5.6-1 1-1.8 1.1v.1l3 4.5h-2l-3-4.3H158v4.4h-2V12Zm4 5.2c.5 0 1-.1 1.3-.5.4-.3.6-.7.6-1.3l-.3-.8-.6-.7c-.3-.2-.6-.2-1-.2H158v3.5h2.2Zm8.4-5.2h6.9v1.7h-5.1v3.1h4.6v1.7h-4.6v3.1h5v1.7h-6.8V12Zm8.5 0h2.2l5 8.2h.1V12h1.7v11.3h-2l-5.3-8.6v8.6H177V12Z"/>
  </g>
</svg>
