<svg id="artwork" xmlns="http://www.w3.org/2000/svg" version="1.1" viewBox="0 0 239 70.9">
  <defs>
    <style>
      .st5{fill:#fff}
    </style>
  </defs>
  <rect width="239" height="70.8" rx="8.8" ry="8.8"/>
  <path class="st5" d="M120.6 38.5c-4.1 0-7.5 3.2-7.5 7.6s3.4 7.5 7.5 7.5 7.6-3.2 7.6-7.6-3.4-7.5-7.6-7.5Zm0 12.1c-2.3 0-4.2-1.9-4.2-4.6s2-4.5 4.2-4.5 4.3 1.8 4.3 4.5-2 4.6-4.3 4.6Zm-16.5-12c-4.1 0-7.5 3.1-7.5 7.4s3.4 7.6 7.5 7.6 7.6-3.2 7.6-7.6-3.4-7.5-7.6-7.5Zm0 12c-2.3 0-4.2-1.9-4.2-4.6s2-4.5 4.2-4.5 4.3 1.8 4.3 4.5-2 4.6-4.3 4.6Zm-19.6-9.8V44h7.7a6.7 6.7 0 0 1-1.8 4 7.8 7.8 0 0 1-5.9 2.4 8.4 8.4 0 0 1-8.4-8.5 8.4 8.4 0 0 1 14.2-6.2l2.2-2.3A11.8 11.8 0 0 0 72.6 42a12 12 0 0 0 12 11.7c3.4 0 6-1.2 8-3.3 2.2-2.1 2.8-5 2.8-7.5l-.1-2H84.5Zm80.2 2.5c-.6-1.6-2.5-4.8-6.4-4.8s-7.1 3-7.1 7.6c0 4.2 3.2 7.5 7.4 7.5 3.5 0 5.5-2.1 6.3-3.4l-2.6-1.7c-.8 1.3-2 2-3.7 2s-2.8-.7-3.6-2.2l10-4.2-.3-.8Zm-10.3 2.5c0-2.9 2.3-4.3 4-4.3 1.3 0 2.4.6 2.8 1.5l-6.8 2.8Zm-8.1 7.3h3.3V31h-3.3v22.1Zm-5.5-12.9a5.2 5.2 0 0 0-4-1.7c-3.8 0-7.2 3.3-7.2 7.6s3.4 7.5 7.2 7.5c1.8 0 3.2-.8 4-1.7v1c0 3-1.5 4.5-4 4.5-2 0-3.2-1.5-3.8-2.7l-2.9 1.2c.9 2 3 4.5 6.7 4.5 3.9 0 7.2-2.3 7.2-7.9V39h-3.2v1.2Zm-3.7 10.4c-2.3 0-4.2-1.9-4.2-4.5s1.9-4.6 4.2-4.6 4 2 4 4.6-1.8 4.5-4 4.5ZM180.2 31h-7.9v22.1h3.3v-8.4h4.6c3.7 0 7.3-2.6 7.3-6.8s-3.6-6.9-7.3-6.9Zm0 10.7h-4.6V34h4.7c2.4 0 3.9 2 3.9 3.8s-1.4 3.8-4 3.8Zm20.5-3.2c-2.4 0-4.9 1-5.9 3.4l3 1.2c.6-1.2 1.8-1.6 3-1.6 1.7 0 3.4 1 3.5 2.8v.3a7 7 0 0 0-3.5-.9c-3.2 0-6.4 1.7-6.4 5 0 3 2.6 4.9 5.5 4.9 2.2 0 3.5-1 4.2-2.2h.2v1.7h3.1v-8.5c0-3.9-2.9-6-6.7-6v-.1Zm-.4 12.1c-1 0-2.6-.5-2.6-1.9 0-1.7 1.9-2.3 3.5-2.3a6 6 0 0 1 3 .7 4 4 0 0 1-3.9 3.5ZM219 39l-3.8 9.6-4-9.6h-3.6l6 13.4-3.4 7.4h3.4l9.1-20.8H219Zm-29.7 14h3.3V31h-3.3v22.1Z"/>
  <path d="m36.7 34.4-18.9 20a5 5 0 0 0 7.5 3l21.3-12.2-10-10.8Z" style="fill:#ea4335"/>
  <path d="m55.7 31-9.1-5.3-10.4 9.2 10.4 10.3 9.1-5.2c1.6-1 2.7-2.6 2.7-4.5s-1-3.6-2.7-4.5Z" style="fill:#fbbc04"/>
  <path d="m17.8 16.5-.2 1.3V53c0 .5 0 1 .2 1.3L37.3 35 17.8 16.5Z" style="fill:#4285f4"/>
  <path d="m36.8 35.4 9.8-9.7-21.2-12.3a5.1 5.1 0 0 0-7.6 3l19 19Z" style="fill:#34a853"/>
  <path class="st5" d="M74 12.5h1.6V17h5v-4.5h1.7v10.8h-1.7v-4.7h-5v4.7H74V12.5Zm13.5 0h1.9l4 10.8h-1.8l-1-2.8h-4.3l-1 2.8h-1.9l4-10.8ZM90 19l-1-3.2-.4-1.3h-.1l-.5 1.3-1.1 3.1H90Zm4.5-6.5h2l4.9 7.8v-7.8h1.6v10.8h-1.7L96.2 15v8.3h-1.7V12.5Zm10.7 0h1.6v5.1h.1l4.4-5h2l-3.9 4.5 4.3 6.1h-2l-3.4-4.7-1.5 1.6v3.2h-1.6V12.5Zm9.5 0h1.7v10.8h-1.7V12.5Zm5.9 10.3a5.6 5.6 0 0 1-2.8-5c0-1 .3-2 .8-2.8s1.2-1.5 2-2c.9-.5 1.8-.7 2.8-.7.8 0 1.6.1 2.3.4s1.3.7 1.8 1.2l-1.2 1.2-1.3-1a3 3 0 0 0-1.6-.2 4 4 0 0 0-4 4 4 4 0 0 0 2 3.5 4 4 0 0 0 2 .5 4 4 0 0 0 1.6-.2c.5-.2.8-.5 1.2-.8a3.1 3.1 0 0 0 .9-2h-3.7v-1.4h5.3v.8c0 .7 0 1.4-.3 2-.2.6-.5 1.2-1 1.6a5 5 0 0 1-4 1.6c-1 0-2-.2-2.8-.7Zm9.7-10.3h6.6v1.6H132v3h4.4v1.6H132v3h4.9v1.6h-6.5V12.5Zm13.1 1.6h-3v-1.6h7.7v1.6h-3v9.2h-1.7V14Zm6-1.6h6.5v1.6h-4.8v3h4.3v1.6h-4.3v3h4.8v1.6h-6.5V12.5Zm8.3 0h6.5v1.6h-4.9v3h4.4v1.6h-4.4v3h5v1.6h-6.6V12.5Zm8.3 0h2l4.7 7.8h.1v-7.8h1.6v10.8h-1.7l-5.1-8.3v8.3h-1.7V12.5ZM178.3 23c-.6-.4-1-.9-1.4-1.6a5 5 0 0 1-.5-2.3v-6.6h1.6v6.7c0 .8.2 1.4.7 2s1 .7 1.8.7 1.3-.3 1.7-.8.6-1 .6-1.9v-6.7h1.7V19c0 .9-.1 1.6-.5 2.3s-.8 1.2-1.4 1.5c-.6.4-1.3.6-2.2.6s-1.5-.2-2-.6Zm8.9-.3a4 4 0 0 1-1.5-2.2l1.6-.6c.1.6.4 1 .8 1.4s1 .6 1.5.6 1-.1 1.3-.4c.4-.3.6-.6.6-1.1 0-.5-.2-.8-.5-1.1a6 6 0 0 0-1.7-.9l-.7-.2a5 5 0 0 1-1.8-1.1c-.5-.5-.7-1.1-.7-1.9 0-.5.1-1 .4-1.5s.7-.8 1.2-1 1.1-.4 1.8-.4c.9 0 1.7.2 2.2.7s1 1 1.2 1.5l-1.6.7a2 2 0 0 0-1.8-1.3 2 2 0 0 0-1.2.3c-.4.3-.5.6-.5 1s0 .7.4 1l1.4.6.7.2c.9.4 1.6.8 2.1 1.3s.8 1.2.8 2-.2 1.4-.6 1.8c-.3.5-.8.9-1.4 1.1s-1 .3-1.7.3a4 4 0 0 1-2.4-.7Zm7.6-10.2h6.5v1.6h-4.8v3h4.3v1.6h-4.3v3h4.8v1.6h-6.5V12.5Zm9 10.2a4 4 0 0 1-1.5-2.2l1.6-.6c.2.6.4 1 .8 1.4s1 .6 1.5.6 1-.1 1.4-.4c.3-.3.5-.6.5-1.1 0-.5-.1-.8-.5-1.1a6 6 0 0 0-1.7-.9l-.7-.2a5 5 0 0 1-1.8-1.1c-.5-.5-.7-1.1-.7-1.9 0-.5.1-1 .4-1.5s.7-.8 1.2-1 1.1-.4 1.8-.4c1 0 1.7.2 2.2.7s1 1 1.2 1.5l-1.5.7a2 2 0 0 0-1.9-1.3 2 2 0 0 0-1.2.3c-.4.3-.5.6-.5 1s.1.7.4 1 .8.4 1.4.6l.7.2c1 .4 1.6.8 2.1 1.3s.8 1.2.8 2-.2 1.4-.6 1.8c-.3.5-.8.9-1.3 1.1s-1.2.3-1.8.3a4 4 0 0 1-2.4-.7Zm9.6-8.6h-3v-1.6h7.7v1.6h-3v9.2h-1.7V14Z" style="isolation:isolate"/>
</svg>
