<svg width="180" height="54" fill="none" xmlns="http://www.w3.org/2000/svg">
  <path d="M173.33 54H6.67A6.73 6.73 0 0 1 0 47.25V6.75C0 3.04 3 0 6.67 0h166.66A6.73 6.73 0 0 1 180 6.75v40.5c0 3.71-3 6.75-6.67 6.75Z" fill="#000"/>
  <path d="m27.63 26.22-14.2 15.26a3.84 3.84 0 0 0 5.65 2.35l.05-.03 15.97-9.33-7.48-8.25Z" fill="#EA4335"/>
  <path d="m41.98 23.63-.01-.02-6.9-4.05-7.77 7 7.8 7.9 6.86-4a3.89 3.89 0 0 0 2.02-3.43c0-1.47-.8-2.75-2-3.4Z" fill="#FBBC04"/>
  <path d="M13.43 12.52a3.7 3.7 0 0 0-.13 1v26.96c0 .35.04.68.13 1L28.1 26.62l-14.68-14.1Z" fill="#4285F4"/>
  <path d="m27.73 27 7.34-7.44-15.96-9.37a3.85 3.85 0 0 0-5.69 2.33L27.73 27Z" fill="#34A853"/>
  <path d="M142.58 40h2.49V23.33h-2.49V40ZM165 29.34l-2.85 7.22h-.09l-2.96-7.22h-2.68l4.44 10.1-2.53 5.61h2.6l6.84-15.71H165Zm-14.1 8.77c-.82 0-1.96-.41-1.96-1.42 0-1.29 1.41-1.78 2.64-1.78 1.1 0 1.6.24 2.27.56a3.02 3.02 0 0 1-2.96 2.64Zm.3-9.14c-1.81 0-3.68.8-4.45 2.55l2.21.93c.47-.93 1.35-1.23 2.27-1.23 1.3 0 2.6.78 2.62 2.15v.17a5.5 5.5 0 0 0-2.6-.64c-2.38 0-4.8 1.3-4.8 3.75 0 2.23 1.95 3.67 4.14 3.67a3.5 3.5 0 0 0 3.17-1.63h.09v1.28h2.4v-6.39c0-2.96-2.2-4.6-5.06-4.6Zm-15.38 2.4h-3.54v-5.72h3.53a2.89 2.89 0 0 1 2.92 2.86 2.9 2.9 0 0 1-2.91 2.86Zm-.07-8.04h-5.96V40h2.49v-6.32h3.47c2.76 0 5.47-2 5.47-5.17 0-3.18-2.71-5.18-5.47-5.18Zm-32.5 14.78c-1.72 0-3.16-1.44-3.16-3.42 0-2 1.44-3.45 3.15-3.45 1.7 0 3.03 1.46 3.03 3.45 0 1.98-1.33 3.42-3.03 3.42Zm2.85-7.84h-.1a3.93 3.93 0 0 0-2.98-1.27 5.64 5.64 0 0 0-5.44 5.7c0 3.17 2.6 5.64 5.44 5.64 1.35 0 2.43-.6 2.98-1.28h.09v.81c0 2.17-1.16 3.33-3.03 3.33a3.14 3.14 0 0 1-2.86-2.02l-2.17.9a5.4 5.4 0 0 0 5.03 3.35c2.92 0 5.4-1.71 5.4-5.9V29.35h-2.37v.92Zm4.08 9.73h2.5V23.33h-2.5V40Zm6.17-5.5a3.11 3.11 0 0 1 2.96-3.3c.99 0 1.83.49 2.1 1.2l-5.06 2.1Zm7.73-1.89c-.47-1.27-1.91-3.6-4.85-3.6-2.93 0-5.35 2.29-5.35 5.66 0 3.18 2.4 5.67 5.62 5.67 2.6 0 4.1-1.59 4.73-2.5l-1.93-1.3a3.24 3.24 0 0 1-2.8 1.57 2.89 2.89 0 0 1-2.75-1.72l7.59-3.13-.26-.65Zm-60.41-1.87v2.4h5.76a5.02 5.02 0 0 1-1.32 3.04 5.9 5.9 0 0 1-4.44 1.76 6.32 6.32 0 0 1-6.32-6.4A6.32 6.32 0 0 1 68 26.85l1.7-1.7a8.4 8.4 0 0 0-6.04-2.42 8.93 8.93 0 0 0-8.94 8.8 8.93 8.93 0 0 0 8.94 8.81c2.62 0 4.6-.86 6.14-2.47 1.6-1.59 2.09-3.82 2.09-5.62a7.8 7.8 0 0 0-.13-1.5h-8.1Zm14.77 7.37c-1.72 0-3.2-1.42-3.2-3.44 0-2.04 1.48-3.43 3.2-3.43 1.72 0 3.2 1.4 3.2 3.43 0 2.02-1.48 3.44-3.2 3.44Zm0-9.1a5.59 5.59 0 0 0-5.7 5.66 5.6 5.6 0 0 0 5.7 5.67 5.6 5.6 0 0 0 5.7-5.67 5.59 5.59 0 0 0-5.7-5.67Zm12.42 9.1c-1.72 0-3.2-1.42-3.2-3.44 0-2.04 1.48-3.43 3.2-3.43 1.72 0 3.2 1.4 3.2 3.43 0 2.02-1.48 3.44-3.2 3.44Zm0-9.1a5.59 5.59 0 0 0-5.7 5.66 5.6 5.6 0 0 0 5.7 5.67 5.6 5.6 0 0 0 5.69-5.67 5.59 5.59 0 0 0-5.7-5.67ZM55.12 17.33v-8h1.03v3.43h4V9.33h1.03v8h-1.03v-3.6h-4v3.6h-1.03Z" fill="#fff"/>
  <path d="M55.12 17.33h.13V9.47h.77v3.43h4.26V9.47h.76v7.73h-.76v-3.6h-4.26v3.6h-.9v.27h1.16v-3.61h3.74v3.6h1.29V9.2h-1.3v3.43h-3.73V9.2h-1.3v8.27h.14v-.14Zm9.48-3.13h2.67l-1.31-3.6h-.04l-1.31 3.6Zm-2.26 3.13 3.02-8h1.16l3.02 8H68.4l-.77-2.16h-3.37l-.78 2.16h-1.14Z" fill="#fff"/>
  <path d="M64.6 14.2v.14h2.86l-1.4-3.88h-.24l-1.4 3.88h.19v-.14l.12.05 1.31-3.6-.12-.05v.13h.04v-.13l-.13.04 1.25 3.43H64.6v.13Zm-2.26 3.13.12.05 2.99-7.91h.98l2.91 7.73h-.85l-.77-2.17h-3.55l-.78 2.17h-1.05v.27h1.23l.79-2.17h3.17l.77 2.17h1.43L66.6 9.2h-1.35l-3.11 8.27h.19v-.14Zm8.36 0v-8h1.25l3.89 6.23h.04l-.04-1.54V9.33h1.02v8H75.8l-4.07-6.52h-.04l.04 1.54v4.98H70.7Z" fill="#fff"/>
  <path d="M70.7 17.33h.13V9.47h1.04l3.9 6.22h.25l-.05-1.68V9.47h.76v7.73h-.86l-4.07-6.53h-.26l.05 1.68v4.85h-.9v.27h1.17v-5.12l-.05-1.55h-.13v.14h.04v-.13l-.1.07 4.1 6.59H77V9.2h-1.3v4.82l.05 1.54h.13v-.14h-.04v.14l.1-.07-3.92-6.29h-1.46v8.27h.14v-.14Zm13.92-8v.05l-2.97 3.43 3.17 4.48v.04h-1.26l-2.6-3.73-1.24 1.42v2.31H78.7v-8h1.02v4.13h.05l3.52-4.13h1.33Z" fill="#fff"/>
  <path d="M84.62 9.33h-.13v.05h.13l-.1-.09-3.04 3.51 3.2 4.53h.14v-.13h-1.2l-2.66-3.82-1.37 1.6v2.22h-.76V9.47h.76v4.12h.24l3.52-4.12h1.27V9.2h-1.4l-3.55 4.17.1.09v-.14h-.05v.14h.14V9.2h-1.3v8.27h1.3v-2.4l1.08-1.25 2.55 3.65h1.46v-.22l-3.13-4.43 2.93-3.4V9.2h-.13v.13Zm1.25 8v-8h1.03v8h-1.03Z" fill="#fff"/>
  <path d="M85.87 17.33H86V9.47h.76v7.73h-.9v.27h1.17V9.2h-1.3v8.27h.14v-.14Zm10.45-3.67c0 1.11-.34 2-1 2.67a3.88 3.88 0 0 1-2.94 1.18c-1.15 0-2.13-.4-2.94-1.2-.81-.8-1.21-1.8-1.21-2.98s.4-2.17 1.2-2.97c.82-.8 1.8-1.2 2.95-1.2.58 0 1.12.1 1.65.33.52.22.93.52 1.25.9l-.7.7a2.7 2.7 0 0 0-2.2-.95c-.84 0-1.57.3-2.18.89a3.03 3.03 0 0 0-.92 2.3c0 .95.3 1.72.92 2.31a3 3 0 0 0 2.18.89c.9 0 1.64-.3 2.24-.9.38-.38.6-.92.67-1.61h-2.9v-.97h3.87c.04.21.06.41.06.6Z" fill="#fff"/>
  <path d="M96.32 13.66h-.14c0 1.09-.32 1.94-.95 2.57a3.74 3.74 0 0 1-2.85 1.15 3.9 3.9 0 0 1-2.85-1.16 3.89 3.89 0 0 1-1.17-2.89c0-1.15.39-2.1 1.17-2.88a3.89 3.89 0 0 1 2.85-1.16 4 4 0 0 1 1.6.32c.5.22.9.5 1.2.86l.1-.09-.1-.1-.7.71.1.1.1-.09c-.56-.66-1.34-1-2.3-1-.87 0-1.64.32-2.27.93a3.2 3.2 0 0 0-.97 2.4c0 .98.32 1.79.97 2.4.63.62 1.4.93 2.27.93.93 0 1.71-.3 2.33-.93.42-.41.65-.99.71-1.7l.01-.15h-2.91v-.7h3.74v-.13l-.13.03c.03.2.05.4.05.58h.27c0-.2-.02-.41-.06-.63l-.02-.1h-4.12v1.22h3.04v-.13l-.14-.02a2.38 2.38 0 0 1-.63 1.54 2.9 2.9 0 0 1-2.14.86 2.9 2.9 0 0 1-2.09-.86 2.93 2.93 0 0 1-.88-2.2c0-.92.3-1.65.88-2.22a2.9 2.9 0 0 1 2.1-.85c.9 0 1.57.3 2.08.9l.1.11.8-.8.09-.09-.08-.1c-.33-.38-.77-.7-1.3-.92a4.26 4.26 0 0 0-1.7-.35c-1.18 0-2.2.42-3.04 1.24a4.16 4.16 0 0 0-1.25 3.07 4.2 4.2 0 0 0 1.25 3.08 4.16 4.16 0 0 0 3.04 1.24c1.24 0 2.26-.41 3.04-1.23l-.1-.1.1.1a3.74 3.74 0 0 0 1.03-2.76h-.13Zm6.14-3.34h-3.64v2.53h3.28v.96h-3.28v2.54h3.64v.98H97.8v-8h4.67v.99Z" fill="#fff"/>
  <path d="M102.46 10.32v-.14h-3.78v2.8h3.29v.7h-3.29v2.8h3.65v.72h-4.4V9.47h4.4v.85h.26V9.2h-4.93v8.27h4.93v-1.25h-3.64v-2.27h3.29v-1.23h-3.29v-2.27h3.64v-.13h-.13Zm6.21 7.19c-.58 0-1.14-.19-1.7-.57a2.64 2.64 0 0 1-1.09-1.6l.94-.38c.11.44.34.81.69 1.12a1.87 1.87 0 0 0 2.31.1c.31-.24.47-.56.47-.96 0-.45-.16-.79-.47-1.03a4.9 4.9 0 0 0-1.5-.68 4.01 4.01 0 0 1-1.61-.86 1.8 1.8 0 0 1-.55-1.36 2 2 0 0 1 .68-1.5 2.5 2.5 0 0 1 1.78-.64 2.54 2.54 0 0 1 2.48 1.62l-.94.4a1.4 1.4 0 0 0-.5-.7c-.26-.22-.6-.33-1.02-.33-.4 0-.73.1-1.01.33a1 1 0 0 0-.42.82c0 .3.13.55.39.75.25.2.63.4 1.13.56.4.12.72.25.99.36.26.12.53.28.8.48.27.2.48.44.62.74s.2.63.2 1.02-.08.73-.24 1.04c-.16.3-.37.55-.63.72a3.15 3.15 0 0 1-1.8.55Z" fill="#fff"/>
  <path d="M108.67 17.51v-.13c-.55 0-1.09-.18-1.63-.55a2.5 2.5 0 0 1-1.03-1.52l-.13.03.05.13.94-.38-.05-.13-.13.04c.12.46.36.86.73 1.18.36.32.79.48 1.25.48a2 2 0 0 0 1.23-.38c.35-.25.53-.62.53-1.06 0-.48-.18-.87-.53-1.14a5.04 5.04 0 0 0-1.55-.7c-.69-.21-1.2-.5-1.55-.83-.34-.33-.5-.74-.5-1.26 0-.54.2-1 .63-1.4.43-.4.98-.6 1.69-.6.65 0 1.17.16 1.57.48.4.32.66.67.78 1.04l.13-.04-.05-.12-.94.4.05.12.13-.04a1.52 1.52 0 0 0-.54-.77 1.7 1.7 0 0 0-1.11-.36c-.42 0-.8.12-1.1.36-.3.24-.47.56-.46.93 0 .34.15.63.43.86.28.22.67.4 1.18.57.39.13.72.25.97.37.26.11.52.26.78.46.26.18.45.4.58.68a2.43 2.43 0 0 1-.03 1.95c-.16.28-.35.5-.6.67a3.01 3.01 0 0 1-1.72.53v.27a3.35 3.35 0 0 0 1.87-.57 2.24 2.24 0 0 0 .94-1.88c0-.4-.08-.76-.22-1.08a2.03 2.03 0 0 0-.66-.79c-.28-.2-.55-.36-.83-.49a9.6 9.6 0 0 0-1-.37 3.58 3.58 0 0 1-1.1-.53.8.8 0 0 1-.33-.65c0-.29.12-.52.37-.72.26-.2.56-.3.93-.3.4 0 .7.1.94.3.25.2.4.41.45.63l.04.15 1.2-.5-.05-.12a2.49 2.49 0 0 0-.87-1.17 2.7 2.7 0 0 0-1.73-.54c-.76 0-1.39.22-1.87.67a2.1 2.1 0 0 0-.72 1.6c0 .58.2 1.07.58 1.45.39.38.95.67 1.67.9.67.2 1.16.43 1.46.65.28.22.42.52.42.93 0 .37-.13.64-.42.85-.3.22-.64.32-1.07.33-.4 0-.75-.14-1.08-.42a2 2 0 0 1-.64-1.05l-.04-.15-1.08.44-.1.04.02.12c.18.71.56 1.28 1.14 1.67.58.4 1.17.6 1.78.6v-.14Zm8.82-7.19h-3.64v2.53h3.28v.96h-3.28v2.54h3.64v.98h-4.67v-8h4.67v.99Z" fill="#fff"/>
  <path d="M117.49 10.32v-.14h-3.78v2.8H117v.7h-3.29v2.8h3.65v.72h-4.4V9.47h4.4v.85h.26V9.2h-4.93v8.27h4.93v-1.25h-3.64v-2.27h3.28v-1.23h-3.28v-2.27h3.64v-.13h-.13Zm6.28 0h-3.64v2.53h3.28v.96h-3.28v2.54h3.64v.98h-4.67v-8h4.67v.99Z" fill="#fff"/>
  <path d="M123.77 10.32v-.14h-3.78v2.8h3.29v.7h-3.29v2.8h3.65v.72h-4.4V9.47h4.4v.85h.26V9.2h-4.94v8.27h4.94v-1.25h-3.64v-2.27h3.28v-1.23h-3.28v-2.27h3.64v-.13h-.13Z" fill="#fff"/>
</svg>
