<svg width="180" height="54" fill="none" xmlns="http://www.w3.org/2000/svg">
  <path d="M173.3 54H6.7A6.7 6.7 0 0 1 0 47.2V6.8C0 3 3 0 6.7 0h166.6a6.7 6.7 0 0 1 6.7 6.8v40.5c0 3.7-3 6.7-6.7 6.7Z" fill="#000"/>
  <path d="M27.6 26.2 13.4 41.5a3.8 3.8 0 0 0 5.7 2.3l16-9.3-7.5-8.3Z" fill="#EA4335"/>
  <path d="m42 23.6-7-4-7.7 7 7.8 7.9 6.9-4a3.9 3.9 0 0 0 2-3.5 4 4 0 0 0-2-3.4Z" fill="#FBBC04"/>
  <path d="M13.4 12.5a3.7 3.7 0 0 0-.1 1v27l.1 1 14.7-14.9-14.7-14Z" fill="#4285F4"/>
  <path d="m27.7 27 7.4-7.4-16-9.4a3.9 3.9 0 0 0-5.7 2.3L27.7 27Z" fill="#34A853"/>
  <path d="M131.5 32h2.2V17.4h-2.2V32Zm19.6-9.3-2.5 6.3-2.7-6.3h-2.3l3.9 8.8-2.2 5h2.2l6-13.8h-2.4Zm-12.3 7.7c-.7 0-1.7-.4-1.7-1.3 0-1.1 1.2-1.5 2.3-1.5 1 0 1.4.2 2 .4a2.6 2.6 0 0 1-2.6 2.3Zm.2-8c-1.5 0-3.2.7-3.8 2.2l1.9.8c.4-.8 1.2-1 2-1 1.1 0 2.2.6 2.3 1.8v.2a4.8 4.8 0 0 0-2.3-.6c-2 0-4.2 1.1-4.2 3.3 0 2 1.7 3.2 3.6 3.2a3 3 0 0 0 2.8-1.4v1h2.2v-5.5c0-2.6-2-4-4.5-4Zm-13.4 2h-3.1v-5h3.1a2.5 2.5 0 0 1 2.6 2.6c0 1-1 2.5-2.6 2.5Zm0-7h-5.3V32h2.2v-5.5h3c2.5 0 4.8-1.8 4.8-4.5 0-2.8-2.3-4.6-4.8-4.6ZM97 30.4c-1.5 0-2.7-1.3-2.7-3 0-1.8 1.2-3 2.7-3 1.5 0 2.7 1.2 2.7 3 0 1.7-1.2 3-2.7 3Zm2.5-7a3.4 3.4 0 0 0-2.7-1 5 5 0 0 0-4.7 5 4.9 4.9 0 0 0 4.7 4.9c1.2 0 2.2-.5 2.6-1.1h.1v.7c0 1.9-1 2.9-2.6 2.9a2.7 2.7 0 0 1-2.5-1.8l-2 .8a4.7 4.7 0 0 0 4.5 3c2.5 0 4.7-1.5 4.7-5.2v-9h-2v.9Zm3.6 8.6h2.2V17.4h-2.2V32Zm5.4-4.8a2.7 2.7 0 0 1 2.6-2.9c.8 0 1.6.4 1.8 1l-4.4 1.9Zm6.7-1.7c-.4-1-1.6-3.1-4.2-3.1s-4.7 2-4.7 5c0 2.7 2.1 4.9 5 4.9a5 5 0 0 0 4-2.2l-1.6-1.1a2.8 2.8 0 0 1-2.5 1.3c-1 0-1.9-.5-2.4-1.5l6.7-2.7-.3-.6ZM62.5 24v2h5a4.4 4.4 0 0 1-1 2.6 5.2 5.2 0 0 1-4 1.6 5.5 5.5 0 0 1-5.5-5.6 5.5 5.5 0 0 1 9.3-4.1l1.5-1.5a7.3 7.3 0 0 0-5.3-2.1 7.8 7.8 0 0 0-7.8 7.7 7.8 7.8 0 0 0 7.8 7.7A7 7 0 0 0 68 30a7 7 0 0 0 1.8-4.9V24h-7.2Zm13 6.5a3 3 0 0 1-2.9-3c0-1.8 1.3-3 2.8-3 1.5 0 2.8 1.2 2.8 3 0 1.7-1.3 3-2.8 3Zm0-8a4.9 4.9 0 0 0-5 5 4.9 4.9 0 0 0 5 4.9 4.9 4.9 0 0 0 5-5 4.9 4.9 0 0 0-5-5Zm10.8 8c-1.5 0-2.8-1.3-2.8-3 0-1.8 1.3-3 2.8-3 1.5 0 2.8 1.2 2.8 3 0 1.7-1.3 3-2.8 3Zm0-8a4.9 4.9 0 0 0-5 5 4.9 4.9 0 0 0 5 4.9 4.9 4.9 0 0 0 5-5 4.9 4.9 0 0 0-5-5ZM55.6 45.9h1.2a2.5 2.5 0 0 0 1.9-.7c.4-.4.6-1 .6-1.9 0-.7-.2-1.4-.6-1.8a2.5 2.5 0 0 0-1.9-.7h-1.2v5Zm-.8.8V40h2c1 0 1.9.3 2.5 1 .6.5.9 1.3.9 2.3a3 3 0 0 1-1 2.4c-.5.7-1.4 1-2.4 1h-2Z" fill="#fff"/>
  <path d="M55.6 45.9h1.2c.8 0 1.5-.1 2-.6a2.6 2.6 0 0 0 .7-2 3 3 0 0 0-.8-2 2.6 2.6 0 0 0-1.9-.6h-1.3V46h.1v-.2h.2V41h1c.8 0 1.3.3 1.8.7.4.4.6 1 .6 1.7 0 .8-.2 1.4-.7 1.8-.4.4-1 .6-1.7.6h-1.2v.1Zm-.8.8h.1V40h2c1 0 1.7.3 2.3 1 .6.5.9 1.3.9 2.2a3 3 0 0 1-1 2.4c-.5.5-1.3.8-2.3.8h-2v.3h2c1 0 2-.3 2.6-1a3.4 3.4 0 0 0 1-2.5 3.4 3.4 0 0 0-1-2.5 3.5 3.5 0 0 0-2.6-1h-2.1v7-.1Zm10.8-5.9h-3V43h2.7v.8h-2.8v2.1h3v.9h-3.8V40h3.9v.8Z" fill="#fff"/>
  <path d="M65.6 40.8v-.1h-3.2V43h2.7v.5h-2.7V46h3v.5h-3.6v-6.4h3.6v.7h.3v-1h-4.2v7h4.2v-1h-3v-2h2.7v-1h-2.7v-1.9h3-.1Zm1.6 5.9V40h1l3.3 5.2V40h.8v6.7h-.9L68 41.2v5.5h-.8Z" fill="#fff"/>
  <path d="M67.2 46.7h.1V40h.9l3.2 5.2h.2v-5.1h.6v6.4h-.7l-3.4-5.4H68v5.4h-.7v.3h1v-5.6H68v.2-.2.1l3.4 5.5h1v-7h-1v5.5h.1V45l-3.1-5H67v6.9h.2v-.1Zm7.8-.9h1.2a2.5 2.5 0 0 0 1.8-.6c.5-.4.7-1 .7-1.9 0-.7-.3-1.4-.7-1.8a2.5 2.5 0 0 0-1.8-.7H75v5Zm-.9.9V40h2c1 0 2 .3 2.5 1a3 3 0 0 1 1 2.3 3.3 3.3 0 0 1-3.4 3.3h-2Z" fill="#fff"/>
  <path d="M75 45.9h1.2c.8 0 1.4-.1 1.9-.6a2.6 2.6 0 0 0 .7-2c0-.8-.2-1.4-.7-2a2.6 2.6 0 0 0-2-.6H75V46h.1v-.2h.1V41h1c.8 0 1.4.3 1.8.7.4.4.6 1 .6 1.7 0 .8-.2 1.4-.6 1.8-.4.4-1 .6-1.7.6H75v.1Zm-.9.8h.2V40h1.9c1 0 1.7.3 2.3 1 .6.5 1 1.3 1 2.2 0 1-.4 1.8-1 2.4-.6.5-1.3.8-2.3.8h-2v.3h2c1 0 1.9-.3 2.5-1a3.4 3.4 0 0 0 1-2.5 3.4 3.4 0 0 0-1-2.5 3.5 3.5 0 0 0-2.5-1H74v7h.1v-.1Zm8-2.6h2.2l-1-3h-.1L82 44Zm-2 2.6 2.6-6.7h1l2.5 6.7h-1l-.6-1.8h-2.8l-.7 1.8h-1Z" fill="#fff"/>
  <path d="M82 44v.2h2.5l-1.2-3.3h-.2l-1.2 3.3h.2v-.1h.1l1.1-3h-.1v.1-.1h-.1l1 2.8h-2v.2Zm-1.8 2.7h.1l2.5-6.6h.8l2.4 6.4h-.7l-.6-1.8h-3l-.7 1.8h-.8v.3h1L82 45h2.6l.6 1.8h1.3l-2.6-7h-1.2l-2.6 7h.2v-.1Zm7.2 0V40h1l3.3 5.2V40h.9v6.7h-1l-3.3-5.5v5.5h-.9Z" fill="#fff"/>
  <path d="M87.4 46.7h.2V40h.8l3.2 5.2h.3v-5.1h.5v6.4h-.7l-3.3-5.4H88v5.4h-.7v.3h1v-5.6h-.2v.2-.2.1l3.4 5.5h1.1v-7h-1.1v5.5h.2V45l-3.2-5h-1.2v6.9h.1v-.1ZM54.8 13.3V6.7h.8v5.8h3v.8h-3.8Z" fill="#fff"/>
  <path d="M54.8 13.3h.1V6.8h.6v5.8h2.9v.6h-3.6v.3h3.9v-1.1h-3V6.5h-1v7-.2ZM61 12c.5.5 1.1.8 1.8.8s1.4-.3 1.8-.8c.5-.5.8-1.1.8-1.9a2.6 2.6 0 0 0-.8-2c-.4-.4-1-.7-1.8-.7s-1.3.3-1.8.8a2.6 2.6 0 0 0-.7 1.9c0 .8.2 1.4.7 2Zm4.3.6c-.7.7-1.5 1-2.5 1s-1.7-.3-2.4-1a3.4 3.4 0 0 1-1-2.5 3.4 3.4 0 0 1 3.4-3.5c1 0 1.8.4 2.5 1 .6.7 1 1.5 1 2.5s-.4 1.8-1 2.5Z" fill="#fff"/>
  <path d="M61 12c.4.5 1.1.8 1.8.8s1.4-.3 2-.8c.5-.5.7-1.2.7-2s-.2-1.5-.8-2a2.6 2.6 0 0 0-1.9-.8 2.7 2.7 0 0 0-2.7 2.8c0 .8.3 1.5.8 2h.1l.1-.2a2.5 2.5 0 0 1-.7-1.8c0-.8.3-1.3.7-1.8a2.3 2.3 0 0 1 1.7-.7c.7 0 1.3.2 1.8.7a2.7 2.7 0 0 1 0 3.6 2.3 2.3 0 0 1-1.8.7 2.3 2.3 0 0 1-1.7-.7v.1Zm4.3.5-.1-.1c-.6.6-1.4 1-2.4 1s-1.7-.4-2.3-1a3.3 3.3 0 0 1-1-2.4 3.3 3.3 0 0 1 3.3-3.4c1 0 1.7.4 2.4 1 .6.7 1 1.5 1 2.4 0 1-.4 1.7-1 2.4l.2.2a3.5 3.5 0 0 0 1-2.6 3.5 3.5 0 0 0-3.6-3.6 3.5 3.5 0 0 0-3.5 3.6 3.5 3.5 0 0 0 3.5 3.6c1 0 1.9-.3 2.6-1l-.1-.1Zm3.3-2.7H70c.3 0 .6 0 .9-.3.2-.2.3-.5.3-.8 0-.3 0-.6-.3-.8a1.1 1.1 0 0 0-.9-.4h-1.4v2.3Zm-.9 3.5V6.7H70c.6 0 1 .2 1.5.5.4.4.6.9.6 1.5a2 2 0 0 1-1.6 1.9l1.9 2.7h-1l-1.9-2.7h-.9v2.7h-.9Z" fill="#fff"/>
  <path d="M68.6 9.8v.2H70c.3 0 .7-.2 1-.4.2-.2.4-.6.3-1 0-.3 0-.6-.3-.8a1.2 1.2 0 0 0-1-.4h-1.5V10h.1v-.2h.1V7.6H70a1 1 0 0 1 1 1 1 1 0 0 1-.2.8c-.3.2-.5.3-.8.3h-1.4v.1Zm-.9 3.5h.2V6.8H70c.5 0 1 .2 1.4.5.4.4.6.8.6 1.4 0 .4-.2.8-.5 1.1-.2.3-.6.5-1 .6l-.1.1 1.8 2.9.2-.1h-.2.2v-.1h-1l-1.8-2.7h-1.1v2.7h-.8v.3h1v-2.7h.8l1.8 2.7h1.2v-.2l-1.9-2.8h-.1l.1.2v-.1a2.1 2.1 0 0 0 1.6-2 2 2 0 0 0-.6-1.5c-.5-.4-1-.6-1.6-.6h-2.4v7h.1v-.2Zm8.2 0H75V7.5h-1.9v-.8h4.6v.8H76v5.8Z" fill="#fff"/>
  <path d="M75.9 13.3v-.1H75V7.4h-1.8v-.6h4.3v.6h-1.9v6h.3V7.5h1.9v-1H73v1h2v5.9h1v-.2Zm5.5.2c-.7 0-1.3-.3-1.8-.7a2.7 2.7 0 0 1-.7-2v-4h.9V11c0 .5.1 1 .4 1.3.3.3.7.5 1.2.5s1-.2 1.2-.5c.3-.3.4-.8.4-1.3V6.7h.9v4.2a2.7 2.7 0 0 1-.7 1.9c-.4.4-1 .7-1.8.7Z" fill="#fff"/>
  <path d="M81.4 13.5v-.1a2.2 2.2 0 0 1-1.7-.7 2.5 2.5 0 0 1-.6-1.8V6.8h.6v4.1c0 .5.1 1 .4 1.4.3.3.8.5 1.3.5s1-.2 1.3-.5c.3-.4.4-.9.4-1.4V6.8h.6v4c0 .8-.2 1.4-.6 1.9a2.2 2.2 0 0 1-1.7.7v.2c.8 0 1.4-.2 1.9-.8.5-.5.7-1.1.7-2V6.5h-1.1V11c0 .5-.2.9-.4 1.2-.3.3-.6.4-1.1.4-.5 0-.8-.1-1.1-.4-.2-.3-.4-.7-.4-1.2V6.5h-1.1V11c0 .8.2 1.4.7 2a3 3 0 0 0 1.9.7v-.1Z" fill="#fff"/>
</svg>
