<svg width="180" height="54" fill="none" xmlns="http://www.w3.org/2000/svg">
  <path d="M173.33 54H6.67A6.73 6.73 0 0 1 0 47.25V6.75C0 3.04 3 0 6.67 0h166.66A6.73 6.73 0 0 1 180 6.75v40.5c0 3.71-3 6.75-6.67 6.75Z" fill="#000"/>
  <path d="m27.63 26.22-14.2 15.26a3.84 3.84 0 0 0 5.65 2.35l.05-.03 15.97-9.33-7.48-8.25Z" fill="#EA4335"/>
  <path d="m41.98 23.63-.01-.02-6.9-4.05-7.77 7 7.8 7.9 6.86-4a3.89 3.89 0 0 0 2.02-3.43c0-1.47-.8-2.75-2-3.4Z" fill="#FBBC04"/>
  <path d="M13.43 12.52a3.7 3.7 0 0 0-.13 1v26.96c0 .35.04.68.13 1L28.1 26.62l-14.68-14.1Z" fill="#4285F4"/>
  <path d="m27.73 27 7.34-7.44-15.96-9.37a3.85 3.85 0 0 0-5.69 2.33L27.73 27Z" fill="#34A853"/>
  <path d="M131.52 32h2.17V17.43h-2.17V32Zm19.59-9.32L148.6 29h-.07l-2.59-6.32h-2.34l3.88 8.83-2.21 4.9h2.27l5.97-13.73h-2.41Zm-12.34 7.67c-.7 0-1.7-.36-1.7-1.24 0-1.13 1.24-1.56 2.3-1.56.96 0 1.41.2 1.99.49a2.64 2.64 0 0 1-2.59 2.3Zm.27-7.99c-1.58 0-3.2.7-3.88 2.23l1.93.8c.4-.8 1.18-1.06 1.98-1.06 1.13 0 2.27.67 2.29 1.87v.15a4.8 4.8 0 0 0-2.27-.56c-2.08 0-4.2 1.14-4.2 3.28 0 1.95 1.71 3.2 3.62 3.2 1.46 0 2.27-.65 2.78-1.42h.07v1.13h2.1v-5.59c0-2.59-1.93-4.03-4.42-4.03Zm-13.44 2.1h-3.1v-5h3.1a2.52 2.52 0 0 1 2.55 2.5c0 1.12-.93 2.5-2.55 2.5Zm-.06-7.03h-5.21V32h2.17v-5.52h3.04c2.41 0 4.78-1.75 4.78-4.52 0-2.78-2.37-4.53-4.78-4.53ZM97.13 30.35c-1.5 0-2.76-1.26-2.76-2.99 0-1.74 1.25-3.02 2.76-3.02 1.48 0 2.64 1.28 2.64 3.02 0 1.73-1.16 2.99-2.64 2.99Zm2.5-6.86h-.08a3.43 3.43 0 0 0-2.61-1.1 4.93 4.93 0 0 0-4.75 4.97 4.9 4.9 0 0 0 4.75 4.94c1.18 0 2.12-.52 2.6-1.13h.08v.72c0 1.9-1.01 2.9-2.64 2.9a2.74 2.74 0 0 1-2.5-1.76l-1.9.8a4.72 4.72 0 0 0 4.4 2.92c2.55 0 4.7-1.5 4.7-5.16v-8.9h-2.06v.8Zm3.56 8.51h2.18V17.43h-2.18V32Zm5.39-4.8a2.72 2.72 0 0 1 2.59-2.9c.86 0 1.6.43 1.84 1.05l-4.43 1.84Zm6.76-1.66c-.42-1.1-1.67-3.15-4.25-3.15-2.55 0-4.67 2-4.67 4.95 0 2.78 2.1 4.96 4.92 4.96a4.93 4.93 0 0 0 4.13-2.2l-1.69-1.12a2.83 2.83 0 0 1-2.44 1.37c-1.1 0-1.9-.5-2.4-1.5l6.62-2.75-.22-.56Zm-52.8-1.63V26h5.03a4.39 4.39 0 0 1-1.15 2.65 5.15 5.15 0 0 1-3.89 1.54c-3.1 0-5.52-2.5-5.52-5.6a5.52 5.52 0 0 1 9.32-4.1l1.48-1.47a7.34 7.34 0 0 0-5.28-2.13 7.8 7.8 0 0 0-7.8 7.7 7.8 7.8 0 0 0 7.8 7.7c2.3 0 4.02-.75 5.37-2.16a6.95 6.95 0 0 0 1.82-4.92c0-.49-.03-.94-.1-1.31h-7.09Zm12.9 6.44c-1.5 0-2.8-1.24-2.8-3 0-1.79 1.3-3.01 2.8-3.01 1.5 0 2.8 1.22 2.8 3 0 1.77-1.3 3-2.8 3Zm0-7.96a4.89 4.89 0 0 0-4.97 4.95 4.9 4.9 0 0 0 4.98 4.96 4.9 4.9 0 0 0 4.97-4.96 4.89 4.89 0 0 0-4.97-4.95Zm10.86 7.96c-1.5 0-2.8-1.24-2.8-3 0-1.79 1.3-3.01 2.8-3.01 1.5 0 2.8 1.22 2.8 3 0 1.77-1.3 3-2.8 3Zm0-7.96a4.89 4.89 0 0 0-4.98 4.95 4.9 4.9 0 0 0 4.98 4.96 4.9 4.9 0 0 0 4.98-4.96 4.89 4.89 0 0 0-4.98-4.95ZM55.64 45.85h1.18a2.5 2.5 0 0 0 1.83-.66c.45-.44.67-1.06.67-1.86 0-.78-.22-1.4-.67-1.84a2.5 2.5 0 0 0-1.83-.67h-1.18v5.03Zm-.86.82V40h2.04c1.02 0 1.84.31 2.46.93.61.62.92 1.42.92 2.4 0 1-.3 1.8-.92 2.41-.62.62-1.44.93-2.46.93h-2.04Z" fill="#fff"/>
  <path d="M55.64 45.85v.13h1.18c.8 0 1.44-.23 1.92-.7a2.6 2.6 0 0 0 .72-1.95c0-.8-.24-1.47-.72-1.94a2.62 2.62 0 0 0-1.92-.7H55.5v5.3h.14v-.14h.13v-4.9h1.05c.74 0 1.31.22 1.73.63.42.42.64 1 .64 1.75 0 .78-.22 1.35-.64 1.76-.42.41-.99.62-1.73.62h-1.18v.14Zm-.86.82h.13v-6.53h1.9c1 0 1.78.3 2.37.88.59.6.88 1.36.88 2.31 0 .96-.3 1.72-.88 2.32-.59.59-1.36.88-2.36.88h-2.04v.27h2.04c1.05 0 1.91-.32 2.55-.97a3.4 3.4 0 0 0 .96-2.5 3.4 3.4 0 0 0-.96-2.5 3.45 3.45 0 0 0-2.55-.96h-2.17v6.93h.13v-.13Zm10.79-5.85h-3.04v2.12h2.74v.8h-2.74v2.1h3.04v.83h-3.9V40h3.9v.82Z" fill="#fff"/>
  <path d="M65.57 40.82v-.13H62.4v2.38h2.74v.53H62.4v2.38h3.03v.55h-3.62v-6.4h3.62v.7h.27v-.96h-4.16v6.93h4.16v-1.09h-3.03v-1.84h2.73V42.8h-2.73v-1.85h3.03v-.13h-.13Zm1.62 5.85V40h1.04l3.24 5.19h.04l-.04-1.29V40h.85v6.67h-.89l-3.39-5.44h-.03l.03 1.29v4.15h-.85Z" fill="#fff"/>
  <path d="M67.19 46.67h.13v-6.53h.84l3.23 5.18h.25l-.04-1.42v-3.76h.6v6.4h-.7l-3.38-5.44h-.25l.04 1.42v4.01h-.72v.27h.99v-4.29l-.04-1.28h-.13v.14h.03v-.14l-.11.07 3.43 5.5h1.1v-6.93h-1.13v4.03l.04 1.3.14-.01v-.14h-.04v.14l.11-.07-3.28-5.25h-1.25v6.93h.14v-.13Zm7.8-.82h1.18a2.5 2.5 0 0 0 1.83-.66c.45-.44.67-1.06.67-1.86 0-.78-.22-1.4-.67-1.84a2.5 2.5 0 0 0-1.83-.67h-1.18v5.03Zm-.86.82V40h2.04c1.02 0 1.84.31 2.46.93.61.62.92 1.42.92 2.4 0 1-.31 1.8-.92 2.41-.62.62-1.44.93-2.46.93h-2.04Z" fill="#fff"/>
  <path d="M74.99 45.85v.13h1.18c.8 0 1.44-.23 1.92-.7a2.6 2.6 0 0 0 .72-1.95c0-.8-.24-1.47-.72-1.94a2.62 2.62 0 0 0-1.92-.7h-1.32v5.3H75v-.14h.13v-4.9h1.05c.74 0 1.31.22 1.73.63.42.42.64 1 .64 1.75 0 .78-.22 1.35-.64 1.76-.42.41-.99.62-1.73.62H75v.14Zm-.86.82h.13v-6.53h1.9c1 0 1.78.3 2.37.88.59.6.88 1.36.88 2.31 0 .96-.3 1.72-.88 2.32-.59.59-1.36.88-2.36.88h-2.04v.27h2.04c1.05 0 1.9-.32 2.55-.97a3.4 3.4 0 0 0 .96-2.5 3.4 3.4 0 0 0-.96-2.5 3.45 3.45 0 0 0-2.55-.96H74v6.93h.13v-.13Zm7.95-2.61h2.21l-1.08-3h-.04l-1.09 3Zm-1.89 2.6L82.7 40h.97l2.51 6.67h-.95l-.64-1.8h-2.8l-.65 1.8h-.95Z" fill="#fff"/>
  <path d="M82.08 44.06v.13h2.4l-1.18-3.27h-.23L81.9 44.2h.19v-.13l.12.05 1.1-3.01-.13-.05v.14h.04v-.14l-.13.05 1.02 2.83h-2.02v.13Zm-1.89 2.6.12.05 2.49-6.57h.78l2.41 6.4h-.66l-.64-1.81h-3l-.64 1.8h-.86v.27h1.04l.65-1.8h2.62l.64 1.8h1.24l-2.62-6.93h-1.15L80 46.8h.19v-.13Zm7.24.01V40h1.04l3.24 5.19h.04l-.04-1.29V40h.86v6.67h-.9l-3.38-5.44h-.04l.04 1.29v4.15h-.86Z" fill="#fff"/>
  <path d="M87.43 46.67h.13v-6.53h.84l3.24 5.18h.25l-.05-1.42v-3.76h.6v6.4h-.7l-3.38-5.44h-.25l.04 1.42v4.01h-.72v.27h.99v-4.29l-.04-1.28h-.13v.14h.04v-.14l-.12.07 3.43 5.5h1.1v-6.93h-1.12v4.03l.04 1.3.13-.01v-.14h-.04v.14l.11-.07-3.27-5.25H87.3v6.93h.13v-.13ZM54.78 13.33V6.67h.86v5.84h2.88v.82h-3.74Z" fill="#fff"/>
  <path d="M54.78 13.33h.13V6.8h.6v5.85h2.88v.55h-3.6v.27h3.87v-1.09h-2.89V6.54h-1.12v6.93h.13v-.14Zm6.25-1.42c.5.5 1.1.75 1.81.75s1.32-.25 1.8-.75c.5-.5.75-1.13.75-1.9a2.6 2.6 0 0 0-.74-1.92c-.5-.5-1.1-.75-1.81-.75s-1.32.25-1.81.75a2.6 2.6 0 0 0-.74 1.91c0 .78.25 1.41.74 1.91Zm4.25.56c-.65.68-1.47 1.01-2.44 1.01s-1.79-.33-2.44-1a3.41 3.41 0 0 1-1-2.48 3.4 3.4 0 0 1 3.43-3.48c.97 0 1.78.34 2.44 1.02.66.67.98 1.5.98 2.46 0 .97-.32 1.8-.98 2.47Z" fill="#fff"/>
  <path d="m61.03 11.91-.1.1c.52.52 1.17.79 1.91.79s1.39-.27 1.9-.8c.52-.52.78-1.2.78-2s-.26-1.48-.78-2a2.58 2.58 0 0 0-1.9-.8c-.74 0-1.4.27-1.9.8-.52.52-.79 1.2-.78 2 0 .8.26 1.48.78 2l.09-.09.1-.09a2.47 2.47 0 0 1-.7-1.82c0-.75.23-1.34.7-1.82a2.3 2.3 0 0 1 1.71-.7c.68 0 1.24.23 1.71.7.47.48.7 1.07.7 1.82s-.23 1.34-.7 1.82a2.3 2.3 0 0 1-1.71.71 2.3 2.3 0 0 1-1.71-.71l-.1.1Zm4.25.56-.1-.09c-.63.65-1.4.97-2.34.97s-1.72-.32-2.35-.97a3.28 3.28 0 0 1-.94-2.38 3.27 3.27 0 0 1 3.29-3.35c.94 0 1.7.33 2.34.98.64.65.95 1.43.95 2.37 0 .95-.31 1.73-.94 2.38l.1.1.09.09A3.54 3.54 0 0 0 66.4 10a3.54 3.54 0 0 0-3.56-3.61A3.54 3.54 0 0 0 59.28 10a3.55 3.55 0 0 0 3.56 3.62c1 0 1.86-.36 2.54-1.05l-.1-.1Zm3.32-2.64h1.38c.34 0 .63-.1.88-.33.24-.22.37-.5.37-.85 0-.29-.11-.56-.33-.8a1.1 1.1 0 0 0-.87-.36H68.6v2.34Zm-.86 3.5V6.67h2.28c.56 0 1.05.19 1.46.56.41.38.62.85.62 1.42a1.97 1.97 0 0 1-1.59 1.91l-.02.03 1.87 2.7v.04h-1.01l-1.8-2.7h-.95v2.7h-.86Z" fill="#fff"/>
  <path d="M68.6 9.83v.14h1.38c.37 0 .7-.13.97-.37.27-.25.41-.58.4-.95 0-.32-.12-.63-.35-.89a1.24 1.24 0 0 0-.97-.4h-1.56v2.6h.13v-.13h.13v-2.2h1.3c.33 0 .58.1.77.31.2.22.3.45.3.71a.99.99 0 0 1-.33.75c-.23.2-.48.3-.8.3H68.6v.13Zm-.86 3.5h.14V6.8h2.14c.53 0 .98.18 1.37.53.39.36.58.78.58 1.32 0 .44-.14.81-.43 1.15-.28.33-.63.54-1.06.63l-.05.01-.05.08-.05.07 1.92 2.78.11-.07h-.13v.03h.13v-.13h-.94l-1.8-2.7h-1.15v2.7h-.73v.27h1v-2.7h.74l1.8 2.7h1.21v-.21L70.6 10.5l-.11.08.11.07.02-.03-.11-.07.02.13a2.12 2.12 0 0 0 1.7-2.04c0-.6-.22-1.12-.66-1.52-.43-.4-.96-.6-1.55-.6h-2.4v6.94h.12v-.14Zm8.12 0H75V7.5h-1.86v-.82h4.58v.82h-1.86v5.84Z" fill="#fff"/>
  <path d="M75.86 13.33v-.13h-.72V7.35h-1.86V6.8h4.3v.55h-1.85v5.98h.26v-5.7h1.86v-1.1h-4.84v1.1h1.86v5.84h1.12v-.14h-.13Zm5.54.15c-.73 0-1.33-.24-1.78-.72a2.66 2.66 0 0 1-.69-1.9v-4.2h.86v4.23c0 .53.14.96.41 1.28.28.33.68.5 1.2.5.52 0 .92-.17 1.2-.5.27-.32.4-.75.4-1.28V6.67h.86v4.19a2.7 2.7 0 0 1-.66 1.9c-.44.48-1.05.72-1.8.72Z" fill="#fff"/>
  <path d="M81.4 13.48v-.13a2.2 2.2 0 0 1-1.69-.68 2.52 2.52 0 0 1-.65-1.81V6.8h.6v4.1c0 .54.14 1 .44 1.36.3.36.75.54 1.3.54s1-.18 1.3-.54c.3-.35.44-.82.44-1.37V6.8h.59v4.06c0 .76-.21 1.36-.63 1.81a2.2 2.2 0 0 1-1.7.68v.27c.78 0 1.43-.26 1.9-.77.47-.5.7-1.18.7-2v-4.3h-1.13v4.35c0 .5-.13.9-.38 1.2-.25.29-.6.44-1.1.44-.49 0-.84-.15-1.09-.44-.25-.3-.38-.7-.38-1.2V6.54H78.8v4.32c0 .8.24 1.48.72 1.99.48.5 1.12.77 1.88.77v-.14Z" fill="#fff"/>
</svg>
