<svg id="artwork" xmlns="http://www.w3.org/2000/svg" version="1.1" viewBox="0 0 239 70.9">
  <defs>
    <style>
      .st5{fill:#fff}
    </style>
  </defs>
  <rect width="239" height="70.8" rx="8.8" ry="8.8"/>
  <path d="m36.7 34.4-18.9 20a5 5 0 0 0 7.5 3l21.3-12.2-10-10.8Z" style="fill:#ea4335"/>
  <path d="m55.7 31-9.1-5.3-10.3 9.2 10.3 10.3 9.1-5.2c1.6-1 2.7-2.6 2.7-4.5s-1-3.6-2.6-4.5Z" style="fill:#fbbc04"/>
  <path d="m17.8 16.5-.2 1.3V53c0 .5 0 1 .2 1.3L37.3 35 17.8 16.5Z" style="fill:#4285f4"/>
  <path d="m36.8 35.4 9.8-9.7-21.2-12.3a5.1 5.1 0 0 0-7.6 3l19 19Z" style="fill:#34a853"/>
  <path class="st5" d="M79.5 42.2V45h6.9c-.1.7-.3 1.4-.6 2-.3.7-.7 1.2-1 1.6-.7.6-1.4 1.1-2.3 1.4-.8.4-1.8.6-3 .6-1.3 0-2.5-.3-3.7-1-1.1-.6-2-1.5-2.7-2.6s-1-2.5-1-4 .3-2.8 1-4a7 7 0 0 1 2.7-2.6 7.7 7.7 0 0 1 6.7-.3 7 7 0 0 1 2.4 1.7l2.2-2.2a9 9 0 0 0-3.3-2.3 11 11 0 0 0-13.5 4.4A9.5 9.5 0 0 0 69 43a10.4 10.4 0 0 0 5.3 9.2c1.6.9 3.4 1.4 5.3 1.4 3.1 0 5.6-1 7.5-3 .9-1 1.5-2 1.9-3.1a11.4 11.4 0 0 0 .5-5.4h-10Zm22.6-2.9c-1.1-.7-2.4-1-3.9-1s-2.7.3-3.9 1a7 7 0 0 0-2.7 2.7 8.4 8.4 0 0 0 0 7.9 7 7 0 0 0 2.7 2.7c1.2.7 2.5 1 4 1a7.4 7.4 0 0 0 6.5-3.7c.7-1.2 1-2.5 1-4s-.3-2.7-1-3.8a7.2 7.2 0 0 0-2.7-2.8Zm0 9.2a4.3 4.3 0 0 1-3.9 2.3 4.4 4.4 0 0 1-3.8-2.3c-.4-.7-.6-1.6-.6-2.6s.2-1.8.6-2.5a4.3 4.3 0 0 1 3.8-2.2 4.4 4.4 0 0 1 3.9 2.2c.4.7.6 1.6.6 2.5s-.2 1.9-.6 2.6Zm16.4-9.2c-1.2-.7-2.5-1-4-1s-2.7.3-3.8 1A7 7 0 0 0 108 42c-.7 1.2-1 2.5-1 4s.3 2.7 1 3.9a7 7 0 0 0 2.7 2.7 7 7 0 0 0 3.9 1 7.4 7.4 0 0 0 6.6-3.7c.6-1.2 1-2.5 1-4s-.4-2.7-1-3.8a7.2 7.2 0 0 0-2.7-2.8Zm0 9.2a4.3 4.3 0 0 1-4 2.3 4.4 4.4 0 0 1-3.8-2.3c-.4-.7-.6-1.6-.6-2.6s.2-1.8.6-2.5a4.3 4.3 0 0 1 3.9-2.2 4.4 4.4 0 0 1 3.8 2.2c.4.7.6 1.6.6 2.5s-.2 1.9-.6 2.6Zm16.4-8h-.2a4.8 4.8 0 0 0-1.9-1.6 6.4 6.4 0 0 0-6 .3c-1.1.6-2 1.5-2.5 2.6-.6 1.2-1 2.5-1 4s.4 2.7 1 3.8a6.6 6.6 0 0 0 8.5 3 6 6 0 0 0 1.9-1.6h.2v1.3c0 1.5-.4 2.6-1.2 3.4a4 4 0 0 1-3 1.2 4 4 0 0 1-2.4-.7 4 4 0 0 1-1.5-1.8l-2.9 1.2c.4 1.1 1.2 2.1 2.3 3s2.7 1.1 4.4 1.1a8 8 0 0 0 3.8-.8 6 6 0 0 0 2.5-2.5c.6-1.1 1-2.5 1-4V38.7h-3v1.8Zm-.6 7.7a4 4 0 0 1-1.5 1.6c-.7.4-1.4.5-2.1.5s-1.5-.1-2.1-.5a4 4 0 0 1-1.6-1.6 6.2 6.2 0 0 1 0-4.9 4 4 0 0 1 3.7-2.2 4 4 0 0 1 3 1.2c.8.9 1.2 2 1.2 3.4a5 5 0 0 1-.6 2.5Zm5.8-15.3h3.1v20.3h-3.1zm14.7 6.3c-1-.6-2.3-1-3.8-1s-2.6.4-3.7 1.1a7.9 7.9 0 0 0-3.5 6.7 8 8 0 0 0 1 4 7 7 0 0 0 2.6 2.6 7 7 0 0 0 3.8 1 7 7 0 0 0 6.6-3.8l-2.6-1.2a4.4 4.4 0 0 1-3.9 2.2c-1.1 0-2.1-.3-3-1a4.4 4.4 0 0 1-1.4-3.2h11l.2-1c0-1.4-.3-2.6-.9-3.7-.5-1.1-1.3-2-2.4-2.7Zm-7.8 5c.3-1 .8-1.8 1.5-2.3a3.7 3.7 0 0 1 4.6-.4 3.5 3.5 0 0 1 1.8 2.8H147Zm26.3-10.5a7 7 0 0 0-3.3-.8h-7v20.3h3.2v-7.9h3.8a7 7 0 0 0 3.3-.8 6 6 0 0 0 3.3-5.4 5.9 5.9 0 0 0-3.3-5.4Zm-.2 7c-.3.4-.7.8-1.2 1.1s-1.1.5-1.8.5h-4v-6.4h4c.7 0 1.3.2 1.8.5s1 .7 1.2 1.2c.2.5.4 1 .4 1.5s-.2 1-.4 1.5Zm4.4-7.8h3.1v20.3h-3.1zm10.1 5.4a7.1 7.1 0 0 0-5.9 2.7l2.1 1.8c.4-.6 1-1 1.6-1.4s1.3-.5 2-.5c1.1 0 2 .3 2.6.9.7.5 1 1.3 1 2.1v.8a10 10 0 0 0-3.9-.8 7 7 0 0 0-4.2 1.3c-1.1.9-1.7 2-1.7 3.6 0 .9.2 1.8.7 2.5a4 4 0 0 0 1.9 1.7 6 6 0 0 0 2.7.6c1 0 1.9-.2 2.7-.6s1.3-1 1.7-1.5h.2v1.7h3v-9c0-1.9-.6-3.4-1.7-4.4s-2.7-1.5-4.8-1.5Zm3 10.8c-.4.6-.9 1-1.5 1.4s-1.3.5-2 .5c-.8 0-1.5-.2-2-.6s-.8-1-.8-1.6c0-.8.3-1.4.8-1.8.6-.5 1.5-.7 2.6-.7a7.2 7.2 0 0 1 3.3.8c0 .7-.1 1.4-.5 2Zm10.7-.5h-.1l-4.1-9.9h-3.5l6 13.7-3.1 6.9h3.2l9-20.6h-3.5l-3.9 9.9zm7.4-5.5h9.3v2.7h-9.3zm22.5-3.3c-.9-1-2.2-1.5-4-1.5a5.4 5.4 0 0 0-4.5 2.3h-.1v-1.9h-3v14.5h3.1v-7.8c0-.8.2-1.5.5-2.1s.7-1.2 1.3-1.5c.5-.4 1.1-.6 1.8-.6 1 0 1.8.2 2.3.8.6.5.9 1.3.9 2.5v8.7h3V44c0-1.7-.4-3.2-1.3-4.2Z"/>
  <g style="isolation:isolate">
    <path class="st5" d="M69.5 12.2h6.8v1.7h-5v3h4.4v1.7h-4.5v3h5v1.7h-6.7V12.2Zm9.2 10.5a4.1 4.1 0 0 1-1.5-2.3l1.6-.6c.2.6.5 1 .9 1.5.4.3.9.5 1.5.5.5 0 1-.1 1.4-.4s.6-.7.6-1.2c0-.4-.2-.8-.5-1l-1.8-1-.7-.2-1.9-1.1c-.5-.5-.7-1.2-.7-2 0-.5.1-1 .4-1.5.3-.4.7-.8 1.3-1a4 4 0 0 1 1.8-.5 3.5 3.5 0 0 1 3.5 2.3L83 15c-.1-.4-.3-.7-.7-1-.3-.2-.7-.4-1.2-.4s-1 .2-1.3.4c-.3.3-.5.6-.5 1s.2.7.5 1 .8.4 1.4.7l.7.2c1 .3 1.7.8 2.2 1.3.5.5.8 1.2.8 2.1 0 .7-.2 1.3-.6 1.8s-.8.9-1.4 1.1a4 4 0 0 1-1.8.4 4 4 0 0 1-2.4-.8Zm7.7-10.5h1.7v5.3h.1l4.5-5.3H95L91 17l4.4 6.2H93l-3.4-4.9-1.5 1.7v3.3h-1.8V12.2ZM98 23c-.7-.4-1.2-1-1.6-1.6S96 19.9 96 19v-6.8h1.7V19c0 .8.3 1.5.7 2s1 .7 1.8.7 1.4-.2 1.8-.7.7-1.2.7-2v-7h1.7v7c0 .9-.2 1.7-.5 2.3s-.8 1.2-1.4 1.6-1.4.6-2.3.6-1.5-.2-2.2-.6Zm8.2-10.8h4c.6 0 1.2.1 1.7.4a3.2 3.2 0 0 1 1.8 3 3 3 0 0 1-.7 2c-.5.5-1.1 1-1.8 1.1v.1l3 4.4h-2l-3-4.3H108v4.4h-1.7V12.2Zm3.9 5.1c.5 0 1-.1 1.3-.5s.5-.7.5-1.2c0-.3 0-.6-.2-.9l-.6-.6c-.3-.2-.6-.3-1-.3H108v3.5h2Z"/>
    <path class="st5" d="M118.3 12.2h2l4.2 11h-2l-1-2.8h-4.4l-1 2.9h-2l4.3-11.1Zm2.7 6.6-1.2-3.3-.4-1.3h-.1l-.4 1.3-1.2 3.3h3.3Zm5.8-5h-3.1v-1.6h7.9v1.6h-3.1v9.5h-1.7v-9.5Zm7.8 9.2c-.6-.4-1.1-1-1.5-1.6a5 5 0 0 1-.5-2.4v-6.8h1.7V19c0 .8.2 1.5.7 2s1 .7 1.8.7 1.4-.2 1.8-.7.7-1.2.7-2v-7h1.7v7c0 .9-.2 1.7-.5 2.3s-.8 1.2-1.5 1.6c-.6.4-1.3.6-2.2.6s-1.6-.2-2.2-.6ZM146 12.2h1.8v4.6h5.1v-4.6h1.8v11h-1.8v-4.8h-5.1v4.9H146V12.2Zm10.7 0h6.8v1.7h-5v3h4.5v1.7h-4.5v3h5v1.7h-6.8V12.2Zm8.5 0h2.3l3.2 8.4 3.3-8.4h2.3v11h-1.7v-8.1l-3.2 8.2H170l-3-8.3h-.1v8.2h-1.7v-11Zm13.2 0h6.7v1.7h-5v3h4.6v1.7H180v3h5v1.7h-6.7V12.2Zm8.4 0h2l5 8h.1v-8h1.7v11h-1.8l-5.2-8.4h-.1v8.5h-1.7V12.2Zm10.8 5.1c-.2-.3-.4-.5-.4-.9s.2-.6.4-.8.5-.4.8-.4.7.1.9.4c.2.2.3.5.3.8s0 .6-.3.9-.5.3-.9.3-.6-.1-.8-.3Zm0 5.6c-.2-.2-.4-.5-.4-.8s.2-.6.4-.9.5-.3.8-.3.7.1.9.3l.3.9c0 .3 0 .6-.3.8s-.5.4-.9.4-.6-.1-.8-.4Z"/>
  </g>
</svg>
