<svg width="180" height="54" fill="none" xmlns="http://www.w3.org/2000/svg">
  <path d="M173.3 54H6.7A6.7 6.7 0 0 1 0 47.2V6.8C0 3 3 0 6.7 0h166.6a6.7 6.7 0 0 1 6.7 6.8v40.5c0 3.7-3 6.7-6.7 6.7Z" fill="#000"/>
  <path d="M27.6 26.2 13.4 41.5a3.8 3.8 0 0 0 5.7 2.3l16-9.3-7.5-8.3Z" fill="#EA4335"/>
  <path d="m42 23.6-7-4-7.7 7 7.8 7.9 6.9-4a3.9 3.9 0 0 0 2-3.5 4 4 0 0 0-2-3.4Z" fill="#FBBC04"/>
  <path d="M13.4 12.5a3.7 3.7 0 0 0-.1 1v27l.1 1 14.7-14.9-14.7-14Z" fill="#4285F4"/>
  <path d="m27.7 27 7.4-7.4-16-9.4a3.9 3.9 0 0 0-5.7 2.3L27.7 27Z" fill="#34A853"/>
  <path d="M131.5 32h2.2V17.4h-2.2V32Zm19.6-9.3-2.5 6.3-2.7-6.3h-2.3l3.9 8.8-2.2 5h2.2l6-13.8h-2.4Zm-12.3 7.7c-.7 0-1.7-.4-1.7-1.3 0-1.1 1.2-1.5 2.3-1.5 1 0 1.4.2 2 .4a2.6 2.6 0 0 1-2.6 2.3Zm.2-8c-1.5 0-3.2.7-3.8 2.2l1.9.8c.4-.8 1.2-1 2-1 1.1 0 2.2.6 2.3 1.8v.2a4.8 4.8 0 0 0-2.3-.6c-2 0-4.2 1.1-4.2 3.3 0 2 1.7 3.2 3.6 3.2a3 3 0 0 0 2.8-1.4v1h2.2v-5.5c0-2.6-2-4-4.5-4Zm-13.4 2h-3.1v-5h3.1a2.5 2.5 0 0 1 2.6 2.6c0 1-1 2.5-2.6 2.5Zm0-7h-5.3V32h2.2v-5.5h3c2.5 0 4.8-1.8 4.8-4.5 0-2.8-2.3-4.6-4.8-4.6ZM97 30.4c-1.5 0-2.7-1.3-2.7-3 0-1.8 1.2-3 2.7-3 1.5 0 2.7 1.2 2.7 3 0 1.7-1.2 3-2.7 3Zm2.5-7a3.4 3.4 0 0 0-2.7-1 5 5 0 0 0-4.7 5 4.9 4.9 0 0 0 4.7 4.9c1.2 0 2.2-.5 2.6-1.1h.1v.7c0 1.9-1 2.9-2.6 2.9a2.7 2.7 0 0 1-2.5-1.8l-2 .8a4.7 4.7 0 0 0 4.5 3c2.5 0 4.7-1.5 4.7-5.2v-9h-2v.9Zm3.6 8.6h2.2V17.4h-2.2V32Zm5.4-4.8a2.7 2.7 0 0 1 2.6-2.9c.8 0 1.6.4 1.8 1l-4.4 1.9Zm6.7-1.7c-.4-1-1.6-3.1-4.2-3.1s-4.7 2-4.7 5c0 2.7 2.1 4.9 5 4.9a5 5 0 0 0 4-2.2l-1.6-1.1a2.8 2.8 0 0 1-2.5 1.3c-1 0-1.9-.5-2.4-1.5l6.7-2.7-.3-.6ZM62.5 24v2h5a4.4 4.4 0 0 1-1 2.6 5.2 5.2 0 0 1-4 1.6 5.5 5.5 0 0 1-5.5-5.6 5.5 5.5 0 0 1 9.3-4.1l1.5-1.5a7.3 7.3 0 0 0-5.3-2.1 7.8 7.8 0 0 0-7.8 7.7 7.8 7.8 0 0 0 7.8 7.7A7 7 0 0 0 68 30a7 7 0 0 0 1.8-4.9V24h-7.2Zm13 6.5a3 3 0 0 1-2.9-3c0-1.8 1.3-3 2.8-3 1.5 0 2.8 1.2 2.8 3 0 1.7-1.3 3-2.8 3Zm0-8a4.9 4.9 0 0 0-5 5 4.9 4.9 0 0 0 5 4.9 4.9 4.9 0 0 0 5-5 4.9 4.9 0 0 0-5-5Zm10.8 8c-1.5 0-2.8-1.3-2.8-3 0-1.8 1.3-3 2.8-3 1.5 0 2.8 1.2 2.8 3 0 1.7-1.3 3-2.8 3Zm0-8a4.9 4.9 0 0 0-5 5 4.9 4.9 0 0 0 5 4.9 4.9 4.9 0 0 0 5-5 4.9 4.9 0 0 0-5-5Zm19.4 24.4a2 2 0 0 1-1.6-.6 5.1 5.1 0 0 1-2.5.6c-.5 0-.8 0-1.1-.2-.2-.2-.4-.3-.4-.6s.1-.5.3-.6c.2.1.4.3.7.3l1 .1a6.4 6.4 0 0 0 1.6-.2l-.8-1.7a4.2 4.2 0 0 1-.3-1.2c0-.4.2-.7.7-.8l.4 1.5a10.2 10.2 0 0 0 .8 1.8l.5.5.7.1v.9Z" fill="#fff"/>
  <path d="M105.7 46.8v-.1a1.9 1.9 0 0 1-1.5-.6V46h-.1a4.9 4.9 0 0 1-2.5.7l-1-.2c-.2-.2-.3-.3-.3-.5s0-.4.2-.6h-.2l.7.5h1c.6 0 1.1 0 1.8-.2h.1v-.2a11.1 11.1 0 0 1-.8-1.6 4.1 4.1 0 0 1-.3-1.2c0-.4.1-.6.5-.7v-.1h-.2a36 36 0 0 0 .9 2.6l.4.8.6.5.6.2v-.2 1h.2v-1.1h-.1l-.6-.1-.5-.5-.4-.7c0-.3-.2-.6-.4-1l-.4-1.6h-.2c-.5.1-.7.4-.7.9l.3 1.2.8 1.7h.1v-.1l-1.7.2a3 3 0 0 1-1-.1 1.9 1.9 0 0 1-.6-.4h-.2l-.2.8c0 .3.2.6.4.7.3.2.7.2 1.2.2a5.1 5.1 0 0 0 2.6-.6v-.1h-.2a2.2 2.2 0 0 0 1.7.7v-.1Z" fill="#fff"/>
  <path d="m109.8 48.2-.8.8a6 6 0 0 1-.8-.7l.8-.9.8.8Zm-1.9.1c-.1.3-.4.6-.7.9l-.9-.8.9-.8.7.8ZM109 44h.3a24 24 0 0 1-.6 1.4l.8.4h.8v1c-.8 0-1.4-.1-2-.6l-.2.2-.9.3a7.5 7.5 0 0 1-1.5.2v-1l1.3-.1.8-.2.6-1 .2-.4.4-.2Z" fill="#fff"/>
  <path d="m109.8 48.2-.1-.1-.8.8.1.1h.1a6 6 0 0 1-.8-.8v.2l.8-.9h-.2l.8.8v-.1l.2-.1a25.1 25.1 0 0 1-.8-.8h-.2l-.8.9v.1l.8.8h.2l.8-.8V48h-.1Zm-1.9.1h-.1l-.7.8v.1l.2-.1a5.6 5.6 0 0 1-.8-.7h-.1v.1l.8-.8v-.1l-.1.1.7.8.1-.1.1-.1-.7-.8h-.2l-.8.8-.1.1v.1l.9.8h.2c.3-.3.6-.6.7-.9v-.1h-.1ZM109 44v.1l.3.1v-.1h-.1l-.4.8-.1.3v.1l-.2.1.1.1.8.4h.9-.1v1-.1a2.7 2.7 0 0 1-1.8-.7l-.1-.1-.3.4h.1l-1 .2-1.4.2h.1V46l-.1-.1h1.3l.8-.2.7-1v-.1l.2-.4h.3v-.3c-.2 0-.4 0-.5.2l-.2.4-.6 1-.7.2h-1.3l-.2.2v.8l.1.2h.1l1.5-.1c.6-.1.8-.2 1-.4l.2-.2V46h-.2a3 3 0 0 0 2 .8h.1l.2-.1v-.9l-.2-.2h-.8a3 3 0 0 1-.7-.4v.2l.1-.2a14.3 14.3 0 0 0 .5-1.2l-.4-.1Z" fill="#fff"/>
  <path d="m113 42.4-.8.9a7.6 7.6 0 0 1-.8-.8l.8-1 .8.9Zm-2.6 4.4v-.9a3 3 0 0 0 .8-.1c.2 0 .4-.2.5-.3l.6-1 .2-.3c0-.2.2-.2.4-.2h.3l-.6 1.4a2.7 2.7 0 0 0 1.5.4l.1.1v.8a2.8 2.8 0 0 1-2-.6l-.2.2-.6.3a3 3 0 0 1-1 .2Z" fill="#fff"/>
  <path d="M113 42.4v-.1l-.9.9h.2a7.5 7.5 0 0 1-.9-.8v.2l1-1h-.2l.7.9.1-.1.1-.1a8.4 8.4 0 0 1-.8-.8v-.1h-.2c-.1.3-.4.6-.8 1h-.1v.2l1 .8h.1l.8-1h.1v-.1h-.2Zm-2.6 4.4.1-.1v-1 .2l.7-.1.6-.3.6-1h-.1l.3-.4h.3V44v.1l.2.1v-.1l-.6 1.2-.1.1.1.1.8.4h.8v1-.1c-.7 0-1.3-.3-1.8-.7l-.1-.1-.3.4-.6.2-.9.2v.2l1-.1.7-.4.2-.3h-.2a3 3 0 0 0 2 .8l.3-.2V46l-.2-.1a2.6 2.6 0 0 1-1.6-.5v.1l.7-1.3V44l-.4-.1a.5.5 0 0 0-.5.2l-.3.4-.5 1-.4.1-.8.1-.2.2v.8l.1.2h.1v-.1Z" fill="#fff"/>
  <path d="m114.2 46.8-.1-.1v-.8a11.2 11.2 0 0 0 2.7-.4c.3 0 .7-.2 1-.4a3.1 3.1 0 0 0-.8-1.3 7 7 0 0 0-1.8-1h-.3a.7.7 0 0 1-.5-.3.8.8 0 0 1-.2-.6l.1-.7.2-.4a45.7 45.7 0 0 1 4.4-2l.2.4v.1c0 .3-.2.5-.5.6l-4 1.7a6.3 6.3 0 0 1 3.2 2c.3.4.5.8.5 1.2 0 .6-.3 1.1-1 1.5a7.1 7.1 0 0 1-3.1.5Z" fill="#fff"/>
  <path d="M114.2 46.8v-1 .2a11.3 11.3 0 0 0 2.6-.3l1-.5h.2v-.1a3.3 3.3 0 0 0-1-1.4 6.9 6.9 0 0 0-1.7-1.1h-.4v.1a.6.6 0 0 1-.4-.3.7.7 0 0 1-.2-.5 3.6 3.6 0 0 1 .2-1v-.1a44.6 44.6 0 0 1 4.4-2h-.1l.1.4h.2-.2l.2.1h-.2c0 .2-.1.4-.4.5l-4 1.7-.3.1.4.1a6.2 6.2 0 0 1 3.1 2c.3.3.5.7.5 1 0 .7-.3 1.1-1 1.4a7 7 0 0 1-3 .5v.3a8 8 0 0 0 3.1-.5c.8-.4 1.2-1 1.1-1.6 0-.5-.1-.9-.5-1.3a6.4 6.4 0 0 0-3.2-2v.2l4-1.7a.9.9 0 0 0 .5-.7v-.1a.7.7 0 0 0-.2-.6h-.2a44 44 0 0 0-4.4 2l-.1.2a4.2 4.2 0 0 0-.3 1.1c0 .3.1.5.3.7l.6.3h.4v-.2l-.1.1c.7.4 1.3.7 1.7 1.1.4.4.6.8.8 1.3h.1V45a5.4 5.4 0 0 1-2.1.6l-1.5.1-.2.2v1h.1v-.1Zm14.5-4.8-.8.9a5.9 5.9 0 0 1-.8-.8l.8-.8.8.7Zm-1.9.2-.7.8-.8-.7.8-.8.7.7Zm5.4 4.6c-.8 0-1.5-.3-2-.9l-2 .7-2.3.2a4 4 0 0 1-2.2-.5 1.8 1.8 0 0 1-.8-1.6l.1-1.4h.5v.3a4.5 4.5 0 0 0 0 .3c0 .5 0 .9.2 1.1.2.3.5.5.9.6.4.2.9.2 1.6.2.6 0 1.4 0 2.1-.2a4.6 4.6 0 0 0 1.5-.4l.3-.3.2-.3.1-.3.4-.2.3.1-.5 1.1.8.4.8.1.1.1v.8Z" fill="#fff"/>
  <path d="M128.7 42h-.1l-.8.8h.2a5.6 5.6 0 0 1-.8-.8v.2l.8-.8-.1-.1h-.1l.8.8.2-.2-.8-.7-.1-.1h-.1l-.8.9v.2l.8.8h.2l.8-1h-.1Zm-1.9.2h-.1l-.7.7v.1h.2a5.6 5.6 0 0 1-.8-.8h-.1v.2l.9-.9h-.2l.7.8.1-.1.1-.1-.7-.7-.1-.1h-.1l-.8.9h-.1v.2l.9.7v.1h.2l.7-1V42h-.1Zm5.4 4.6v-.1c-.8 0-1.4-.3-2-.9h-.2a7 7 0 0 1-1.8.6c-.7.2-1.5.3-2.3.3-1 0-1.7-.2-2.2-.5-.5-.4-.7-.8-.7-1.5 0-.5 0-1 .2-1.3h-.2.5l-.2-.1v.6c0 .5.1 1 .3 1.2.2.3.5.5 1 .7l1.6.2a11 11 0 0 0 3.7-.7l.3-.2.2-.4.1-.3.3-.1V44v.2h.3l-.1-.1-.5 1v.2a2.8 2.8 0 0 0 1.7.6v-.1 1.1h.2v-1h-.1a2.6 2.6 0 0 1-1.6-.6l-.1.1.1.1.5-1.1V44l-.3-.1c-.3 0-.5 0-.6.3l-.2.3h.2-.2l-.2.3h.1l-.3.2h.1l-1.5.4-2.2.2a4.8 4.8 0 0 1-1.5-.2 1.5 1.5 0 0 1-.8-.5 1.8 1.8 0 0 1-.2-1v-.8h-.7v.1l-.2 1.4c0 .7.3 1.3.9 1.7.5.3 1.3.5 2.3.5.8 0 1.6 0 2.4-.2a7.1 7.1 0 0 0 1.9-.7h-.2a3 3 0 0 0 2.2 1l.1-.1v-.1Z" fill="#fff"/>
  <path d="m135.5 39.4-.8 1a7.7 7.7 0 0 1-.9-.9 17 17 0 0 0 .9-.9l.8.8Zm-1 2.7a.8.8 0 0 0-.7.4 1 1 0 0 0-.3.7c0 .3.1.5.3.6l.8.2a3 3 0 0 0 1.3-.4 3 3 0 0 0-.6-1c-.3-.4-.6-.5-.9-.5Zm1.7 3-.1-.9a2.9 2.9 0 0 1-1.8.7 1.1 1.1 0 0 1-.9-.4 1.6 1.6 0 0 1-.3-1c0-.7.1-1.2.4-1.7.3-.5.7-.7 1.1-.7.4 0 .8.1 1.1.4.4.3.6.8.8 1.3.2.6.3 1.2.3 1.9l-.4 1.2a6 6 0 0 1-1.7.7l-2.4.2-.1-.1v-.9l2.3-.1a7 7 0 0 0 1.7-.5Z" fill="#fff"/>
  <path d="M135.5 39.4h-.1a6.4 6.4 0 0 1-.8.8v.1h.2a7.6 7.6 0 0 1-.9-.8h-.1l.1.2.9-1h-.2l.8.8.2-.2-.8-.8h-.2l-.9 1v.1c.2.3.5.6.9.8l.1.1.9-1v-.2l-.1.1Zm-1 2.7V42a.9.9 0 0 0-.8.4 1.4 1.4 0 0 0-.3.8c0 .3.1.5.3.7l.9.2 1.4-.3v-.2c-.1-.5-.3-.9-.6-1.2-.3-.3-.6-.4-1-.4v.3c.3 0 .5 0 .8.3l.6 1.1h.1v-.2l-1.3.3-.7-.1c-.2-.1-.2-.2-.2-.5 0-.2 0-.5.2-.7.2-.2.3-.2.5-.2V42Zm1.7 3h.2l-.2-1V44l-.2.1a2.8 2.8 0 0 1-1.7.7 1 1 0 0 1-.8-.4c-.2-.2-.3-.6-.3-1 0-.5.2-1 .5-1.5s.6-.7 1-.7c.3 0 .6.1 1 .4.3.3.5.7.7 1.3.2.5.3 1.1.3 1.7 0 .3-.1.7-.4 1.2v.1-.1l-1.6.7-2.4.1v.2-1 .2c.9 0 1.6 0 2.3-.2.6 0 1.2-.3 1.7-.5v-.1l-.1-.1c-.5.2-1 .4-1.7.5l-2.2.1-.2.2v1h.1c1 0 1.9 0 2.5-.2.7-.1 1.2-.4 1.8-.7.3-.6.5-1 .5-1.4l-.3-1.8a3.2 3.2 0 0 0-.9-1.4c-.3-.3-.7-.5-1.2-.5s-.9.3-1.2.8c-.3.5-.4 1.1-.4 1.8 0 .4 0 .8.3 1 .3.4.6.5 1 .5a3 3 0 0 0 1.9-.7h-.3l.2.9h.1Zm4 .8v.8h-.2c-.5 0-.9 0-1.2-.2a1 1 0 0 1-.5-.8 92.5 92.5 0 0 1-.4-4.9l-.2-1.6.9-.7.1 5.3v1.7c.4.2.9.4 1.3.4h.1Z" fill="#fff"/>
  <path d="M140.1 46h-.1v.8-.1a2 2 0 0 1-1.1-.3.9.9 0 0 1-.5-.7 94 94 0 0 1-.4-4.9l-.1-1.6h-.2l.1.1.8-.7h-.2l.2 5.2v1.8c.5.3 1 .4 1.4.4v-.1.2l.1-.1.1-.1v-.1h-.1c-.5 0-1-.2-1.3-.4v.1-1.7l-.1-5.3v-.2l-.2.1-.9.7.1 1.7.5 5c0 .3.2.6.6.8.3.2.7.3 1.2.3l.2-.1v-.9Z" fill="#fff"/>
  <path d="m144 48.2-.8.8a6 6 0 0 1-.8-.7l.8-.9.8.8Zm-1.9.1c-.1.3-.4.6-.7.9-.4-.3-.7-.5-.8-.8l.8-.8.7.8Zm-2-1.5-.1-.1v-.8c.7 0 1.3 0 1.8-.2.6 0 1-.2 1.3-.3l-.4-1.4-.3-.8.2-.5.6-.5.2.7a40.7 40.7 0 0 1 .2 1.4v.6c0 .2 0 .7-.3 1.2-.4.2-.8.4-1.4.5a9 9 0 0 1-1.8.2Z" fill="#fff"/>
  <path d="m144 48.2-.1-.1-.8.8.1.1h.1a6 6 0 0 1-.8-.8v.2l.8-.9h-.2l.8.8v-.1l.2-.1-.8-.8h-.2l-.8.9v.1l.9.8h.1l.8-.8V48h-.1Zm-1.9.1a5 5 0 0 1-.8.8l.1.1v-.1a5.6 5.6 0 0 1-.7-.7h-.1v.1l.9-.8-.1-.1-.1.1.7.8.1-.1.1-.1-.7-.8h-.2l-.8.8-.1.1v.1l1 .8c.4-.3.7-.6.8-.9v-.1Zm-2-1.5v-1 .2l1.7-.1c.6-.1 1-.2 1.3-.4h.2v-.1l-.5-1.4a3.4 3.4 0 0 1-.3-.8l.3-.5.5-.4v-.1h-.2l.1.7a32.3 32.3 0 0 1 .3 1.4v.6a3 3 0 0 1-.3 1.2V46l-1.4.5-1.7.2v.2c.6 0 1.2 0 1.8-.2.6 0 1-.3 1.4-.5.4-.6.5-1 .5-1.3v-.7a13 13 0 0 0-.3-1.3 9.9 9.9 0 0 1-.1-.7V42h-.2l-.7.6a1 1 0 0 0-.2.6c0 .2 0 .5.2.9l.5 1.3h.1v-.1l-1.3.3-1.7.1-.2.2v1h.1v-.1Z" fill="#fff"/>
  <path d="m145.5 49.3-.8-.2a4.3 4.3 0 0 1-.8-.5l.2-.4 1.1.1a2.4 2.4 0 0 0 1.6-.5c.4-.4.8-1 1-1.6 0-.3-.2-.5-.4-.8l-.6-1.2a2 2 0 0 1-.2-.8c0-.2 0-.3.2-.5l.5-.3.3.7.3.9.3.8v.8a4.4 4.4 0 0 1-.3 1.8 3 3 0 0 1-1 1.3c-.4.3-.9.4-1.4.4Z" fill="#fff"/>
  <path d="M145.5 49.3v-.1a2 2 0 0 1-.7-.2 4 4 0 0 1-.8-.5l-.1.1h.1l.2-.3h-.1l1.1.2c.7 0 1.2-.2 1.7-.6.5-.4.8-1 1-1.7a7.1 7.1 0 0 0-.3-.9 12 12 0 0 1-.7-1.1l-.1-.7.1-.5.5-.3v-.1h-.2c0 .3.2.5.3.8l.3.8.2.9.1.7c0 .6 0 1.2-.3 1.7a3 3 0 0 1-1 1.3c-.4.2-.8.4-1.3.4v.2a2.5 2.5 0 0 0 1.5-.4c.4-.4.8-.8 1-1.4a4.5 4.5 0 0 0 .4-1.8l-.1-.8a10.2 10.2 0 0 0-.3-.9l-.3-.8a7.6 7.6 0 0 1-.2-.7v-.2h-.2a2.2 2.2 0 0 0-.6.5.8.8 0 0 0-.2.6c0 .2 0 .5.2.8l.6 1.2h.1l.3.7h.1-.1c-.2.6-.6 1.2-1 1.5-.4.3-.9.5-1.5.5l-1.1-.1h-.1l-.2.5v.1l.8.5c.4.2.7.2 1 .2Zm4.9-2.5c-.5 0-1 0-1.2-.2-.2-.2-.4-.3-.4-.6s.1-.5.3-.6c.2.1.4.3.7.3l1 .1c.5 0 1 0 1.6-.2a7 7 0 0 0-.5-1.1l-.4-.8a5 5 0 0 1-.3-.6v-.4c0-.4.2-.7.6-.8l.4 1 .4.8.3.7.1.7a4.4 4.4 0 0 1-.4 1.2 5 5 0 0 1-2.2.5Z" fill="#fff"/>
  <path d="M150.3 46.8v-.1l-1-.2c-.2-.2-.3-.3-.3-.5s0-.4.2-.6h-.2l.7.5h1a6 6 0 0 0 1.8-.2v-.1a7.3 7.3 0 0 0-.5-1.2l-.4-.8-.3-.5a1.3 1.3 0 0 1 0-.4c0-.4.1-.6.5-.7v-.1h-.1l.4 1 .4.8.3.8v1a6.6 6.6 0 0 1-.3.7v.1-.1c-.6.3-1.3.5-2.1.5v.2c.9 0 1.6-.1 2.2-.5l.4-.8.1-.5v-.7a10 10 0 0 0-.4-.8l-.4-.8-.4-1h-.1c-.5.1-.8.4-.8.9v.5c.2.1.2.3.4.6v-.1l.4.8.5 1.1h.1v-.1l-1.7.2a3 3 0 0 1-.9-.1 1.8 1.8 0 0 1-.7-.4h-.1c-.2.3-.3.5-.3.8 0 .3.2.6.5.7.2.2.6.2 1.2.2v-.1Zm-.6-39a7 7 0 0 1-.9.9 8 8 0 0 1-1-.9l1-1 .9 1Zm-2 9a4.5 4.5 0 0 1-1.8-.8l.2-.5 1.3.2c.6 0 1.2-.2 1.7-.6.4-.4.8-1 1-1.7a7.4 7.4 0 0 0-.3-.9c-.4-.5-.6-1-.7-1.3-.2-.3-.2-.6-.2-.8 0-.2 0-.4.2-.5l.5-.4.3.8.3.9c.2.3.2.6.3 1l.2.7c0 .7-.2 1.4-.4 2a3.3 3.3 0 0 1-1.1 1.3c-.5.4-1 .5-1.5.5Z" fill="#fff"/>
  <path d="M149.7 7.7h-.1l-.9.9h.1l-.9-.9V8l1-1h-.2l.9 1v-.2h.1a10 10 0 0 1-.8-1h-.2l-1 1V8l1 .9h.1l1-1v-.1h-.1Zm-2 9v-.1a4.3 4.3 0 0 1-1.7-.7v.1l.2-.4h-.1c.5.2.9.2 1.3.2.7 0 1.3-.2 1.8-.6.5-.4.8-1 1-1.8h.1a9.4 9.4 0 0 0-.4-1l-.7-1.2-.2-.8c0-.2 0-.3.2-.5a2 2 0 0 1 .5-.3v-.1h-.2l.3.8.3 1 .3.8.1.8c0 .7-.1 1.3-.4 2-.2.5-.6 1-1 1.2-.4.3-1 .5-1.4.5v.3c.6 0 1-.2 1.6-.5a3.4 3.4 0 0 0 1-1.5c.4-.6.5-1.2.5-2l-.1-.8a9.1 9.1 0 0 0-.3-1l-.4-.9a8.3 8.3 0 0 1-.2-.8v-.1h-.2a2.3 2.3 0 0 0-.6.5.9.9 0 0 0-.3.6l.3.9.6 1.3h.2-.2l.4.8h.2-.2a3.6 3.6 0 0 1-1 1.6c-.5.4-1 .6-1.6.6a6.9 6.9 0 0 1-1.3-.2l-.3.5v.2l1 .5.9.3v-.2Zm5.4-7.1v.8L153 14l-.6.1c0-3.1-.2-5.7-.4-7.7V6a1 1 0 0 1 .2-.7c.1-.2.4-.3.7-.3v.1l.4 1.4-.3.3v2.7Z" fill="#fff"/>
  <path d="M153 9.6v.8l-.2 3.5h.2v-.1h-.7v.2h.2c0-3.1-.2-5.7-.4-7.8h-.1.1v-.1h-.1.1c0-.3 0-.5.2-.6l.6-.3v-.1h-.2v.2l.5 1.4h.1v-.2l-.5.4V7h.2-.1v2.6h.3V7h-.2l.4-.2.1-.1-.5-1.5V5h-.2a1 1 0 0 0-.7.3c-.2.2-.2.5-.2.8v.2c.2 2 .3 4.6.3 7.7v.2l.8-.2h.1l.1-3.6v-.8h-.1Z" fill="#fff"/>
</svg>
