<svg width="180" height="54" fill="none" xmlns="http://www.w3.org/2000/svg">
  <path d="M173.33 54H6.67A6.73 6.73 0 0 1 0 47.25V6.75C0 3.04 3 0 6.67 0h166.66A6.73 6.73 0 0 1 180 6.75v40.5c0 3.71-3 6.75-6.67 6.75Z" fill="#000"/>
  <path d="m27.63 26.22-14.2 15.26a3.84 3.84 0 0 0 5.65 2.35l.05-.03 15.97-9.33-7.48-8.25Z" fill="#EA4335"/>
  <path d="m41.98 23.63-.01-.02-6.9-4.05-7.77 7 7.8 7.9 6.86-4a3.89 3.89 0 0 0 2.02-3.43c0-1.47-.8-2.75-2-3.4Z" fill="#FBBC04"/>
  <path d="M13.43 12.52a3.7 3.7 0 0 0-.13 1v26.96c0 .35.04.68.13 1L28.1 26.62l-14.68-14.1Z" fill="#4285F4"/>
  <path d="m27.73 27 7.34-7.44-15.96-9.37a3.85 3.85 0 0 0-5.69 2.33L27.73 27Z" fill="#34A853"/>
  <path d="M131.52 32h2.17V17.43h-2.17V32Zm19.59-9.32L148.6 29h-.07l-2.59-6.32h-2.34l3.88 8.83-2.21 4.9h2.27l5.97-13.73h-2.41Zm-12.34 7.67c-.7 0-1.7-.36-1.7-1.24 0-1.13 1.24-1.56 2.3-1.56.96 0 1.41.2 1.99.49a2.64 2.64 0 0 1-2.59 2.3Zm.27-7.99c-1.58 0-3.2.7-3.88 2.23l1.93.8c.4-.8 1.18-1.06 1.98-1.06 1.13 0 2.27.67 2.29 1.87v.15a4.8 4.8 0 0 0-2.27-.56c-2.08 0-4.2 1.14-4.2 3.28 0 1.95 1.71 3.2 3.62 3.2 1.46 0 2.27-.65 2.78-1.42h.07v1.13h2.1v-5.59c0-2.59-1.93-4.03-4.42-4.03Zm-13.44 2.1h-3.1v-5h3.1a2.52 2.52 0 0 1 2.55 2.5c0 1.12-.93 2.5-2.55 2.5Zm-.06-7.03h-5.21V32h2.17v-5.52h3.04c2.41 0 4.78-1.75 4.78-4.52 0-2.78-2.37-4.53-4.78-4.53ZM97.13 30.35c-1.5 0-2.76-1.26-2.76-2.99 0-1.74 1.25-3.02 2.76-3.02 1.48 0 2.64 1.28 2.64 3.02 0 1.73-1.16 2.99-2.64 2.99Zm2.5-6.86h-.08a3.43 3.43 0 0 0-2.61-1.1 4.93 4.93 0 0 0-4.75 4.97 4.9 4.9 0 0 0 4.75 4.94c1.18 0 2.12-.52 2.6-1.13h.08v.72c0 1.9-1.01 2.9-2.64 2.9a2.74 2.74 0 0 1-2.5-1.76l-1.9.8a4.72 4.72 0 0 0 4.4 2.92c2.55 0 4.7-1.5 4.7-5.16v-8.9h-2.06v.8Zm3.56 8.51h2.18V17.43h-2.18V32Zm5.39-4.8a2.72 2.72 0 0 1 2.59-2.9c.86 0 1.6.43 1.84 1.05l-4.43 1.84Zm6.76-1.66c-.42-1.1-1.67-3.15-4.25-3.15-2.55 0-4.67 2-4.67 4.95 0 2.78 2.1 4.96 4.92 4.96a4.93 4.93 0 0 0 4.13-2.2l-1.69-1.12a2.83 2.83 0 0 1-2.44 1.37c-1.1 0-1.9-.5-2.4-1.5l6.62-2.75-.22-.56Zm-52.8-1.63V26h5.03a4.39 4.39 0 0 1-1.15 2.65 5.15 5.15 0 0 1-3.89 1.54c-3.1 0-5.52-2.5-5.52-5.6a5.52 5.52 0 0 1 9.32-4.1l1.48-1.47a7.34 7.34 0 0 0-5.28-2.13 7.8 7.8 0 0 0-7.8 7.7 7.8 7.8 0 0 0 7.8 7.7c2.3 0 4.02-.75 5.37-2.16a6.95 6.95 0 0 0 1.82-4.92c0-.49-.03-.94-.1-1.31h-7.09Zm12.9 6.44c-1.5 0-2.8-1.24-2.8-3 0-1.79 1.3-3.01 2.8-3.01 1.5 0 2.8 1.22 2.8 3 0 1.77-1.3 3-2.8 3Zm0-7.96a4.89 4.89 0 0 0-4.97 4.95 4.9 4.9 0 0 0 4.98 4.96 4.9 4.9 0 0 0 4.97-4.96 4.89 4.89 0 0 0-4.97-4.95Zm10.86 7.96c-1.5 0-2.8-1.24-2.8-3 0-1.79 1.3-3.01 2.8-3.01 1.5 0 2.8 1.22 2.8 3 0 1.77-1.3 3-2.8 3Zm0-7.96a4.89 4.89 0 0 0-4.98 4.95 4.9 4.9 0 0 0 4.98 4.96 4.9 4.9 0 0 0 4.98-4.96 4.89 4.89 0 0 0-4.98-4.95Zm19.35 24.41a2.04 2.04 0 0 1-1.52-.64 5.1 5.1 0 0 1-2.5.63c-.5 0-.88-.07-1.13-.2-.25-.14-.37-.33-.37-.58 0-.27.07-.48.22-.65.2.17.43.3.7.37.26.08.59.12.98.12a6.4 6.4 0 0 0 1.7-.26c-.31-.54-.58-1.1-.8-1.68a4.21 4.21 0 0 1-.31-1.21c0-.4.21-.68.65-.82l.45 1.56c.14.42.27.76.39 1.02.11.27.26.52.43.76.17.24.34.4.5.5.18.08.38.13.61.13l.1.1v.74l-.1.1Z" fill="#fff"/>
  <path d="M105.65 46.8v-.14a1.9 1.9 0 0 1-1.43-.6l-.07-.08-.09.06a4.9 4.9 0 0 1-2.42.62c-.5 0-.85-.07-1.07-.2-.22-.12-.3-.25-.3-.45 0-.24.06-.42.18-.56l-.1-.1-.09.11c.22.18.47.31.75.4.28.08.62.12 1.02.12.52 0 1.1-.08 1.74-.26l.16-.05-.08-.14a11.1 11.1 0 0 1-.79-1.67 4.13 4.13 0 0 1-.31-1.16c0-.35.16-.56.56-.7l-.04-.12-.13.03c.17.62.32 1.14.46 1.57.14.42.26.77.39 1.04.12.27.27.53.44.77.17.25.36.43.55.54.2.1.42.15.67.15v-.13l-.09.1.07.06v.62l-.07.07.1.1.08.09.11-.1.04-.04v-.85l-.15-.15-.04-.03h-.05c-.21 0-.39-.04-.54-.12-.14-.08-.3-.23-.47-.46-.16-.23-.3-.48-.41-.73-.12-.26-.24-.6-.38-1.01-.13-.42-.29-.94-.46-1.56l-.03-.13-.14.04c-.47.15-.75.5-.74.95 0 .26.12.67.33 1.25.22.59.49 1.16.8 1.7l.12-.06-.04-.13c-.6.17-1.17.26-1.66.26-.38 0-.7-.04-.94-.12a1.9 1.9 0 0 1-.66-.35l-.1-.08-.09.1c-.16.2-.25.45-.24.74 0 .3.16.55.44.7.29.15.68.21 1.2.21a5.1 5.1 0 0 0 2.55-.65l-.06-.12-.1.1a2.16 2.16 0 0 0 1.62.67h.05l.04-.03-.09-.1Z" fill="#fff"/>
  <path d="M109.76 48.18c-.15.23-.4.5-.74.83a5.97 5.97 0 0 1-.81-.75c.18-.17.45-.44.8-.83l.75.75Zm-1.86.17c-.15.24-.39.52-.73.84-.37-.3-.64-.54-.82-.75.22-.2.49-.48.8-.83l.75.74Zm1.1-4.37.3.1a24.08 24.08 0 0 1-.6 1.3c.29.18.54.3.78.37s.5.1.78.1l.1.1v.74l-.1.1c-.76 0-1.4-.24-1.95-.72l-.2.27c-.08.1-.38.19-.9.3a7.5 7.5 0 0 1-1.5.15l-.1-.1v-.74l.1-.1c.51 0 .94-.02 1.3-.06.35-.05.6-.12.75-.23.15-.1.36-.43.65-.98l.21-.4c.08-.13.2-.2.38-.2Z" fill="#fff"/>
  <path d="m109.76 48.18-.1-.08c-.15.22-.39.5-.73.82l.1.1.08-.11a6.03 6.03 0 0 1-.8-.74l-.1.09.09.1c.19-.18.46-.45.8-.84l-.1-.09-.1.09.77.75.1-.1.09-.09a25.1 25.1 0 0 1-.76-.74l-.1-.11-.1.11c-.34.38-.6.66-.78.82l-.1.09.09.1c.2.22.47.48.83.77l.09.07.08-.08c.35-.33.6-.61.77-.86l.05-.1-.07-.07-.1.1Zm-1.86.17-.11-.07c-.14.22-.38.5-.7.82l.08.1.09-.11a5.6 5.6 0 0 1-.8-.74l-.1.1.08.09c.23-.2.5-.49.8-.84l-.1-.1-.09.1.76.75.1-.1.09-.1-.75-.73-.1-.1-.1.1c-.31.35-.58.63-.79.82l-.1.1.1.09c.18.21.46.47.83.77l.1.07.08-.08c.34-.33.59-.62.75-.87l.05-.09-.07-.07-.1.1Zm1.1-4.37-.04.13.3.1.05-.13-.13-.05-.39.9-.13.27-.04.07-.01.02v.01l-.1.1.13.1c.28.18.55.3.8.38.26.07.53.1.82.1v-.13l-.1.1.07.06v.62l-.06.07.1.1v-.14a2.7 2.7 0 0 1-1.87-.69l-.1-.1-.3.39.11.08-.1-.09c-.01.03-.32.16-.82.25-.5.1-1 .16-1.48.16v.13l.1-.1-.07-.06v-.62l.06-.06-.1-.1v.13c.52 0 .96-.02 1.33-.06.36-.05.63-.12.8-.25.2-.14.4-.47.7-1.03l-.12-.06.12.06.21-.4c.05-.08.11-.12.26-.12v-.27c-.2 0-.4.1-.5.27l-.2.4h-.01c-.28.54-.5.87-.6.93-.12.09-.35.16-.7.2-.35.05-.77.07-1.28.07h-.05l-.15.14-.04.04v.84l.14.15.04.03h.06c.5 0 1.02-.05 1.54-.16.52-.1.8-.18.96-.33l.2-.28-.1-.08-.09.1c.57.5 1.26.76 2.04.75h.06l.14-.14.04-.04v-.84l-.18-.18h-.06c-.27 0-.52-.03-.74-.1a2.93 2.93 0 0 1-.74-.35l-.07.11.1.1.09-.16a14.33 14.33 0 0 0 .53-1.19l.05-.13-.44-.14H109v.12Z" fill="#fff"/>
  <path d="M113.03 42.36c-.2.28-.46.58-.8.9a7.63 7.63 0 0 1-.88-.8c.42-.42.71-.72.86-.9.26.28.54.55.82.8Zm-2.62 4.43-.1-.1v-.74l.1-.1a3 3 0 0 0 .78-.09c.22-.05.39-.14.5-.25.13-.1.32-.42.58-.93l.22-.4c.07-.13.2-.2.38-.2l.3.1c-.18.43-.38.87-.6 1.3a2.66 2.66 0 0 0 1.55.47l.1.1v.74l-.1.1a2.8 2.8 0 0 1-1.94-.72l-.2.27c-.1.1-.29.2-.6.3-.3.1-.63.15-.97.15Z" fill="#fff"/>
  <path d="m113.03 42.36-.1-.08c-.2.27-.45.57-.79.89l.1.1.08-.11a7.5 7.5 0 0 1-.87-.79l-.1.1.1.09c.42-.43.7-.73.86-.92l-.1-.08-.1.09c.27.29.55.56.83.8l.1-.1.08-.1a8.4 8.4 0 0 1-.8-.78l-.11-.11-.1.11c-.15.18-.43.48-.85.9l-.1.09.1.1c.22.24.52.51.9.8l.08.08.09-.08c.34-.33.61-.64.81-.92l.07-.1-.1-.08-.08.1Zm-2.62 4.43.1-.1-.07-.06v-.62l.06-.06-.09-.1v.13c.31 0 .58-.02.81-.09.23-.06.42-.15.56-.28.16-.14.34-.45.61-.97l-.12-.06.12.06.22-.4c.05-.08.1-.12.26-.12v-.14l-.04.13.3.1.04-.13-.12-.05c-.18.43-.38.86-.6 1.3l-.05.1.1.07c.3.18.56.3.8.38.26.07.53.1.82.1v-.13l-.1.1.07.06v.62l-.06.07.1.1v-.14c-.74 0-1.35-.23-1.86-.7l-.11-.09-.3.39.11.08-.1-.08c-.05.06-.23.16-.53.26-.3.1-.6.14-.93.14v.26c.35 0 .69-.05 1.01-.15.32-.1.53-.2.66-.35l.2-.27-.1-.08-.1.1c.56.5 1.25.76 2.04.75h.06l.18-.18v-.84l-.14-.14-.04-.04h-.06a2.6 2.6 0 0 1-1.48-.45l-.07.12.12.06c.23-.44.43-.88.6-1.32l.06-.13-.44-.14h-.04a.52.52 0 0 0-.5.26l-.22.4c-.26.5-.46.81-.55.9-.1.08-.24.16-.45.22-.2.05-.45.08-.74.08h-.05l-.14.14-.05.04v.84l.15.15.04.03h.05v-.13Z" fill="#fff"/>
  <path d="m114.18 46.8-.1-.11v-.74l.1-.1a11.15 11.15 0 0 0 2.63-.31c.32-.1.66-.23 1-.41a3.13 3.13 0 0 0-.84-1.29 7 7 0 0 0-1.73-1.13l-.3.04a.72.72 0 0 1-.55-.23.8.8 0 0 1-.2-.57c0-.18.03-.42.12-.7.09-.3.15-.46.2-.48a45.66 45.66 0 0 1 4.38-2.05c.12.11.19.27.19.47v.11c-.05.29-.22.49-.53.61-1.68.7-2.99 1.27-3.92 1.7a6.27 6.27 0 0 1 3.17 1.93c.34.44.51.85.51 1.23 0 .66-.34 1.16-1.02 1.5a7.1 7.1 0 0 1-3.1.52Z" fill="#fff"/>
  <path d="m114.18 46.8.1-.1-.07-.07v-.62l.07-.06-.1-.1v.13a11.28 11.28 0 0 0 2.66-.31c.34-.1.68-.24 1.04-.42l.1-.05-.03-.11a3.27 3.27 0 0 0-.89-1.34 6.9 6.9 0 0 0-1.76-1.16l-.04-.02-.34.05.01.13v-.13a.58.58 0 0 1-.44-.19.67.67 0 0 1-.18-.48 3.57 3.57 0 0 1 .23-1l.04-.07.01-.01-.05-.04.03.05.02-.01-.05-.04.03.05-.06-.11.06.12a44.57 44.57 0 0 1 4.37-2.04l-.05-.13-.09.1c.1.08.14.2.14.37h.14-.14v.1l.13.01-.13-.02c-.04.24-.16.4-.44.51-1.68.7-2.99 1.27-3.92 1.7l-.35.16.37.1a6.15 6.15 0 0 1 3.1 1.87c.33.43.48.8.48 1.15 0 .6-.3 1.05-.96 1.38-.65.33-1.66.5-3.04.5v.27c1.4 0 2.45-.17 3.16-.53.72-.35 1.11-.91 1.1-1.62 0-.43-.18-.86-.53-1.31a6.43 6.43 0 0 0-3.24-1.98l-.04.13.06.12c.93-.43 2.23-1 3.92-1.7a.9.9 0 0 0 .6-.71v-.12a.73.73 0 0 0-.23-.58l-.06-.05-.08.03a43.97 43.97 0 0 0-4.4 2.05l-.14.2a4.23 4.23 0 0 0-.25 1.1c0 .26.08.5.25.67.16.17.39.27.63.26h.01l.32-.04-.02-.13-.06.12c.73.35 1.3.72 1.7 1.11.4.39.67.8.81 1.23l.13-.04-.06-.12a5.4 5.4 0 0 1-2.1.62c-.42.06-.92.09-1.48.09h-.05l-.14.14-.05.04v.84l.15.15.04.03h.05v-.13Zm14.48-4.78c-.15.24-.4.52-.74.84a5.86 5.86 0 0 1-.8-.76l.78-.83.76.75Zm-1.86.17c-.14.24-.39.52-.72.84-.38-.3-.65-.55-.83-.75.22-.2.49-.48.8-.83l.75.74Zm5.42 4.6c-.84 0-1.54-.29-2.11-.87-.5.27-1.12.48-1.85.64-.72.15-1.52.23-2.37.23-.97 0-1.71-.17-2.23-.52a1.77 1.77 0 0 1-.78-1.58c0-.51.05-.96.17-1.36h.43l-.02.26a4.5 4.5 0 0 0-.02.35c0 .48.1.85.27 1.11.19.26.47.46.87.6.4.13.92.2 1.57.2.69 0 1.42-.07 2.2-.23a4.6 4.6 0 0 0 1.47-.45l.24-.22c.06-.07.12-.18.2-.31l.18-.32c.07-.13.2-.2.38-.2l.3.1c-.23.54-.4.92-.52 1.12.28.18.54.31.78.4.25.07.53.11.84.11l.1.1v.74l-.1.1Z" fill="#fff"/>
  <path d="m128.66 42.02-.1-.07c-.15.22-.4.5-.73.81l.1.1.08-.1a5.58 5.58 0 0 1-.8-.75l-.1.09.09.1.8-.84-.1-.1-.1.1.77.75.1-.1.09-.1-.76-.73-.1-.1-.1.1c-.43.47-.7.75-.78.82l-.1.09.09.1c.2.23.48.5.83.77l.09.08.08-.08c.35-.33.6-.61.77-.87l.06-.1-.08-.07-.1.1Zm-1.86.17-.1-.07c-.15.22-.39.5-.72.82l.1.1.08-.11a5.6 5.6 0 0 1-.8-.74l-.1.1.08.09c.23-.2.5-.49.81-.84l-.1-.1-.1.1.76.75.1-.1.09-.1-.75-.73-.1-.1-.1.1c-.31.35-.57.63-.79.82l-.1.1.1.09c.18.21.46.47.83.77l.1.07.08-.08c.34-.33.59-.62.75-.87l.05-.1-.07-.07-.1.1Zm5.42 4.6v-.13c-.8 0-1.46-.28-2.02-.84l-.06-.07-.1.05c-.48.26-1.08.47-1.8.63-.72.15-1.5.23-2.35.23-.95 0-1.67-.17-2.16-.5-.48-.33-.72-.8-.72-1.47 0-.5.05-.94.16-1.32l-.13-.04v.14h.44v-.14l-.13-.03-.02.28c-.02.14-.02.26-.02.36 0 .5.1.9.3 1.19.2.29.51.5.92.64.42.15.96.21 1.62.21.7 0 1.44-.07 2.22-.23.78-.15 1.28-.3 1.53-.47l.25-.23.01-.02c.07-.08.14-.19.22-.33l.17-.32-.12-.06.12.06c.05-.08.12-.12.27-.12v-.14l-.04.13.3.1.03-.14-.12-.05c-.22.55-.4.92-.5 1.11l-.07.11.1.07a2.83 2.83 0 0 0 1.69.53v-.13l-.09.1.06.06v.62l-.06.07.1.1.1.09.1-.1.03-.05v-.84l-.14-.14-.04-.04h-.05a2.58 2.58 0 0 1-1.54-.5l-.08.12.12.07c.12-.22.3-.6.52-1.15l.05-.13-.43-.13-.02-.01h-.02c-.21 0-.4.08-.5.26l-.18.32.12.07-.12-.07c-.07.13-.14.23-.19.3l.1.08-.08-.1-.24.22.09.1-.08-.1c-.16.12-.65.27-1.42.42-.77.15-1.5.23-2.17.23a4.8 4.8 0 0 1-1.53-.2 1.54 1.54 0 0 1-.8-.55 1.81 1.81 0 0 1-.24-1.03l.01-.34.02-.23.04-.17h-.7l-.03.1c-.12.4-.18.87-.18 1.39 0 .73.29 1.32.84 1.69.56.37 1.33.54 2.3.54.87 0 1.67-.07 2.41-.23a7.14 7.14 0 0 0 1.88-.65l-.06-.12-.1.1a3 3 0 0 0 2.2.9h.06l.04-.03-.1-.1Z" fill="#fff"/>
  <path d="M135.48 39.44c-.2.28-.46.58-.8.9a7.74 7.74 0 0 1-.88-.8 17 17 0 0 0 .86-.9c.26.29.53.56.82.8Zm-1.06 2.68a.75.75 0 0 0-.62.34c-.16.22-.25.48-.25.76 0 .26.09.45.25.57.17.12.44.18.8.18.4 0 .84-.1 1.3-.32-.16-.5-.37-.87-.62-1.14-.25-.26-.53-.4-.86-.4Zm1.8 3.07c-.03-.34-.1-.66-.16-.97a2.9 2.9 0 0 1-1.75.68 1.1 1.1 0 0 1-.89-.4 1.56 1.56 0 0 1-.34-1.04c0-.63.15-1.19.46-1.67.3-.48.66-.72 1.07-.72.43 0 .8.15 1.13.46.33.3.6.74.79 1.3.19.56.28 1.17.28 1.82 0 .28-.14.7-.43 1.25-.5.3-1.05.53-1.67.68-.62.14-1.43.21-2.44.21l-.11-.11v-.71l.12-.12c.88 0 1.63-.05 2.25-.16a7 7 0 0 0 1.7-.5Z" fill="#fff"/>
  <path d="m135.48 39.44-.11-.07a6.4 6.4 0 0 1-.78.88l.1.1.08-.1a7.6 7.6 0 0 1-.87-.8l-.1.1.1.1c.42-.43.7-.73.86-.92l-.1-.09-.1.1c.26.28.54.55.83.8l.09-.1.09-.1c-.28-.24-.55-.5-.81-.79l-.1-.1-.1.1c-.15.18-.44.48-.86.9l-.09.1.09.09c.23.25.53.52.9.81l.1.07.08-.08c.34-.33.6-.63.8-.92l.08-.1-.1-.08-.08.1Zm-1.06 2.68v-.14a.88.88 0 0 0-.72.4 1.4 1.4 0 0 0-.28.84c0 .28.1.53.3.67.21.15.5.2.88.2.42 0 .88-.1 1.36-.31l.1-.05-.03-.12c-.17-.5-.38-.9-.65-1.19-.27-.28-.6-.44-.96-.44v.27c.29 0 .53.11.77.35.23.25.43.61.59 1.1l.12-.05-.05-.12c-.46.2-.87.3-1.25.3-.35 0-.6-.06-.72-.15-.13-.1-.2-.23-.2-.46 0-.25.08-.48.23-.68.15-.2.3-.29.51-.29v-.13Zm1.8 3.07.14-.02c-.04-.34-.1-.67-.17-.98l-.05-.22-.17.15a2.75 2.75 0 0 1-1.66.65.96.96 0 0 1-.79-.36c-.2-.25-.3-.56-.3-.95 0-.6.14-1.14.43-1.6.3-.46.6-.66.96-.66.4 0 .73.14 1.04.42.31.3.56.7.75 1.25.19.55.28 1.14.28 1.78 0 .23-.13.64-.42 1.19l.12.06-.07-.11c-.48.3-1.03.52-1.63.66-.6.14-1.4.2-2.4.2v.14l.09-.1-.08-.07v-.6l.08-.07-.1-.1v.13c.9 0 1.66-.05 2.28-.16.63-.1 1.2-.28 1.73-.51l.09-.04-.01-.1-.14.02-.05-.12c-.5.22-1.06.39-1.67.5-.6.1-1.34.15-2.22.15h-.06l-.16.15-.03.04v.82l.15.16.04.03h.06c1 0 1.82-.07 2.46-.21.63-.15 1.2-.38 1.71-.7l.03-.02.02-.03c.3-.56.45-.99.45-1.31 0-.67-.1-1.29-.3-1.87a3.24 3.24 0 0 0-.81-1.35c-.36-.33-.77-.5-1.23-.5-.47 0-.87.29-1.19.8-.31.5-.47 1.08-.47 1.73 0 .44.12.82.37 1.12.25.3.59.45.99.45a3.01 3.01 0 0 0 1.84-.71l-.1-.1-.12.03c.07.3.12.62.16.95l.13-.01Zm3.91.76v.74l-.1.1c-.49 0-.9-.1-1.21-.28-.32-.2-.5-.46-.54-.8a92.51 92.51 0 0 1-.42-4.86l-.12-1.65c.23-.23.5-.46.83-.68.06 1.25.1 3.02.13 5.31l.05 1.7c.38.21.8.32 1.28.32l.1.1Z" fill="#fff"/>
  <path d="M140.13 45.95H140v.68l-.07.07.1.1v-.14c-.47 0-.85-.1-1.14-.27a.9.9 0 0 1-.48-.69 93.94 93.94 0 0 1-.42-4.86l-.12-1.65-.13.01.1.1c.22-.23.49-.45.8-.67l-.07-.11h-.13c.05 1.25.1 3.02.13 5.32l.04 1.7v.07l.07.04c.4.22.86.33 1.35.33v-.13l-.1.1.1.1.1-.1.1-.1-.1-.1-.05-.03h-.05c-.45 0-.85-.1-1.22-.3l-.06.11h.13l-.04-1.7c-.04-2.3-.08-4.06-.14-5.32v-.24l-.2.14c-.34.23-.62.46-.86.7l-.04.04.13 1.7c.15 2.2.29 3.83.42 4.89.04.37.25.68.6.88.35.2.77.3 1.28.3h.05l.14-.14.04-.04v-.84l-.04-.04-.09.1Z" fill="#fff"/>
  <path d="M143.98 48.18c-.15.23-.4.5-.74.83a6.09 6.09 0 0 1-.81-.75c.18-.17.45-.44.8-.83.06.08.32.33.75.75Zm-1.86.17c-.15.24-.4.52-.73.84-.37-.3-.64-.54-.82-.75.22-.2.49-.48.8-.83l.75.74Zm-2.04-1.56-.1-.1v-.74l.1-.1c.61 0 1.2-.04 1.75-.12.56-.08.98-.2 1.27-.33-.08-.33-.23-.78-.44-1.36-.16-.42-.24-.7-.24-.82 0-.18.08-.37.22-.55.15-.2.34-.35.59-.5.03.25.08.49.13.72a40.67 40.67 0 0 1 .28 1.37c.04.2.05.4.05.6 0 .28-.14.7-.43 1.25-.33.2-.8.37-1.4.5-.6.12-1.19.18-1.78.18Z" fill="#fff"/>
  <path d="m143.98 48.18-.11-.08c-.14.22-.38.5-.72.82l.1.1.07-.11a6.03 6.03 0 0 1-.8-.74l-.1.09.1.1c.19-.18.45-.45.8-.84l-.1-.09-.1.09.77.75.09-.1.1-.09-.76-.74-.1-.11-.1.11c-.34.38-.6.66-.78.82l-.1.09.08.1c.2.22.48.48.84.77l.09.07.08-.08c.35-.33.6-.61.76-.86l.06-.1-.08-.07-.09.1Zm-1.86.17-.11-.07c-.14.22-.38.5-.71.82l.1.1.08-.11a5.6 5.6 0 0 1-.8-.74l-.1.1.08.09c.22-.2.5-.49.8-.84l-.1-.1-.09.1.76.75.09-.1.1-.1-.76-.73-.1-.1-.1.1c-.3.35-.57.63-.78.82l-.1.1.1.09c.18.21.46.47.83.77l.09.07.08-.08c.35-.33.6-.62.75-.87l.06-.09-.08-.07-.09.1Zm-2.04-1.56.1-.1-.06-.06v-.62l.06-.06-.1-.1v.13c.62 0 1.2-.04 1.77-.12.57-.08 1-.2 1.3-.34l.1-.05-.02-.1c-.09-.34-.23-.8-.45-1.37a3.4 3.4 0 0 1-.23-.78c0-.14.06-.3.2-.47.13-.18.31-.33.54-.46l-.06-.11-.13.02c.03.24.08.48.13.72a32.3 32.3 0 0 1 .28 1.36c.03.2.05.4.05.58a3 3 0 0 1-.41 1.19l.11.06-.06-.11c-.32.19-.78.35-1.36.47-.6.13-1.18.19-1.76.19v.26c.6 0 1.2-.06 1.81-.19.6-.12 1.09-.29 1.44-.5l.03-.02.02-.04c.3-.56.44-.98.44-1.31 0-.2-.01-.4-.05-.63a13.05 13.05 0 0 0-.28-1.37 9.9 9.9 0 0 1-.13-.7l-.03-.2-.17.1c-.25.15-.47.32-.63.52-.15.2-.24.42-.24.64 0 .17.09.44.24.87.21.57.36 1.02.44 1.34l.13-.03-.06-.12c-.26.13-.68.24-1.23.32-.55.08-1.13.12-1.73.12h-.05l-.14.14-.04.04v.84l.14.15.04.03h.05v-.13Z" fill="#fff"/>
  <path d="M145.52 49.3c-.2 0-.47-.07-.81-.22a4.26 4.26 0 0 1-.8-.46l.16-.41c.45.09.84.14 1.16.14a2.4 2.4 0 0 0 1.59-.56c.43-.36.77-.9 1-1.6-.1-.27-.23-.53-.37-.78-.3-.5-.5-.9-.63-1.2-.13-.3-.2-.56-.2-.76 0-.21.07-.38.2-.5.12-.13.3-.25.52-.36.06.22.14.47.25.75l.31.84c.1.29.2.57.27.85.08.28.12.54.12.77a4.4 4.4 0 0 1-.37 1.78c-.24.54-.57.97-1 1.27-.42.3-.9.46-1.4.46Z" fill="#fff"/>
  <path d="M145.52 49.3v-.13c-.17 0-.43-.06-.76-.21-.33-.16-.6-.3-.78-.45l-.08.1.12.06.17-.41-.12-.05-.03.13c.46.09.86.14 1.2.14.64 0 1.2-.2 1.66-.58.46-.4.8-.95 1.05-1.67l.01-.05-.02-.04a7.13 7.13 0 0 0-.38-.8c-.28-.49-.5-.89-.62-1.18-.13-.3-.18-.53-.18-.71 0-.18.05-.3.15-.41l-.1-.1.1.1c.11-.11.27-.22.49-.33l-.06-.12-.13.03c.06.23.15.49.25.76l.31.84c.1.29.2.57.27.84.08.27.11.52.11.74 0 .62-.12 1.2-.35 1.72-.24.53-.56.94-.96 1.23-.4.28-.84.42-1.32.42v.27a2.5 2.5 0 0 0 1.48-.48c.44-.32.8-.76 1.04-1.33a4.5 4.5 0 0 0 .38-1.83c0-.25-.04-.52-.12-.8a10.2 10.2 0 0 0-.28-.87l-.3-.84a7.6 7.6 0 0 1-.25-.74l-.04-.16-.15.08a2.2 2.2 0 0 0-.56.38.81.81 0 0 0-.23.6c0 .23.07.5.2.81.14.31.35.72.64 1.22l.12-.07-.12.07c.14.24.26.5.37.76l.12-.05-.13-.04c-.22.68-.55 1.2-.96 1.54-.41.35-.9.52-1.5.52-.31 0-.69-.04-1.13-.13l-.11-.03-.21.52-.04.09.08.06c.2.16.49.32.83.48.35.16.63.24.87.24v-.13Zm4.83-2.5c-.5 0-.88-.08-1.13-.21-.25-.14-.38-.33-.38-.58 0-.27.08-.48.22-.65.2.17.44.3.7.37.27.08.6.12.98.12.55 0 1.1-.08 1.68-.25-.13-.37-.3-.74-.52-1.13l-.42-.77c-.12-.22-.2-.4-.26-.55-.05-.15-.08-.3-.08-.45 0-.4.22-.68.66-.82.12.33.25.65.4.96l.38.85c.12.26.22.51.3.74.09.23.13.44.13.63a4.4 4.4 0 0 1-.44 1.25c-.6.32-1.34.48-2.22.48Z" fill="#fff"/>
  <path d="M150.35 46.8v-.14c-.49 0-.85-.07-1.06-.2-.23-.12-.3-.25-.31-.45 0-.24.06-.42.18-.56l-.1-.1-.08.11c.22.18.47.31.74.4.28.08.62.12 1.02.12.56 0 1.13-.08 1.71-.25l.14-.04-.05-.13a7.3 7.3 0 0 0-.52-1.16l-.42-.77c-.12-.21-.2-.39-.25-.52l-.13.04.13-.04a1.29 1.29 0 0 1-.07-.41c0-.35.16-.56.56-.7l-.04-.12-.13.04c.13.34.26.67.4.97l.4.86.29.72c.08.22.11.42.11.59 0 .09-.03.26-.1.48a6.6 6.6 0 0 1-.31.7l.11.07-.06-.12c-.57.3-1.3.47-2.16.47v.26c.9 0 1.66-.16 2.29-.5l.03-.01.02-.04c.14-.27.25-.51.33-.75.08-.23.12-.41.12-.56 0-.21-.04-.44-.13-.67a9.95 9.95 0 0 0-.3-.76l-.4-.85c-.13-.3-.27-.62-.39-.95l-.04-.12-.13.04c-.47.15-.75.5-.74.95 0 .16.03.33.08.49.06.16.15.35.28.57l.11-.06-.11.06.42.77c.2.38.37.75.5 1.11l.13-.04-.04-.13c-.56.17-1.1.25-1.64.25-.38 0-.7-.04-.94-.12a1.83 1.83 0 0 1-.66-.35l-.1-.08-.08.1c-.17.2-.25.45-.25.74 0 .3.17.55.45.7.28.15.68.21 1.2.21v-.13Zm-.69-39.09c-.21.3-.5.63-.86.98-.4-.31-.72-.6-.96-.86.46-.46.76-.79.93-.98.28.3.58.6.89.86Zm-2 9.03a4.46 4.46 0 0 1-1.74-.75l.18-.44c.49.1.9.15 1.26.15.67 0 1.24-.2 1.71-.6.47-.4.84-.98 1.09-1.74a7.42 7.42 0 0 0-.4-.83c-.32-.54-.54-.98-.69-1.3-.14-.33-.2-.6-.2-.83 0-.22.06-.4.2-.54.13-.14.32-.27.57-.39.06.24.15.52.26.81l.34.91c.12.31.21.62.3.92.08.3.12.58.12.83 0 .7-.13 1.33-.4 1.93a3.3 3.3 0 0 1-1.07 1.38c-.46.32-.97.49-1.53.49Z" fill="#fff"/>
  <path d="m149.66 7.71-.11-.07c-.2.29-.49.6-.85.95l.1.1.08-.1c-.4-.31-.7-.6-.94-.85l-.1.09.1.09c.45-.46.76-.78.93-.99l-.1-.08-.1.09c.29.3.59.6.9.87l.09-.1.08-.1c-.3-.26-.6-.55-.87-.85l-.1-.11-.1.11c-.16.2-.47.52-.92.97l-.1.1.1.09c.24.27.57.56.97.87l.09.08.08-.08c.37-.36.66-.7.88-1l.06-.1-.09-.08-.08.1Zm-2 9.03v-.14a4.28 4.28 0 0 1-1.66-.72l-.08.11.12.05.19-.44-.13-.05-.03.13c.5.1.93.15 1.29.15.7 0 1.3-.21 1.8-.63.5-.41.87-1.02 1.12-1.8l.02-.04-.02-.05a9.37 9.37 0 0 0-.4-.85h-.01c-.31-.54-.54-.97-.68-1.29-.13-.31-.2-.57-.2-.77 0-.2.06-.34.17-.45a2 2 0 0 1 .54-.36l-.06-.12-.13.04c.06.24.15.52.27.82l.34.91.29.9c.08.3.12.56.12.8 0 .68-.13 1.3-.39 1.87-.25.58-.6 1.01-1.03 1.33-.44.31-.92.46-1.45.46v.27c.59 0 1.12-.17 1.6-.52a3.4 3.4 0 0 0 1.13-1.43c.27-.61.4-1.27.4-1.98 0-.26-.04-.55-.13-.86a9.1 9.1 0 0 0-.3-.93c-.1-.31-.22-.62-.33-.92a8.3 8.3 0 0 1-.27-.8l-.04-.15-.14.07a2.3 2.3 0 0 0-.6.42.87.87 0 0 0-.25.63c0 .25.08.54.22.88.15.34.37.77.69 1.31l.11-.06-.11.06c.15.27.28.54.4.83l.12-.06-.13-.04a3.6 3.6 0 0 1-1.05 1.68c-.44.37-.98.56-1.62.56a6.9 6.9 0 0 1-1.23-.14l-.11-.03-.22.55-.04.1.08.06c.22.17.52.34.9.5.38.18.68.27.92.27v-.13Zm5.41-7.16v.83c0 .86-.03 2.02-.1 3.5l-.6.1c-.06-3.11-.18-5.7-.37-7.75v-.17a1 1 0 0 1 .2-.68c.15-.16.37-.28.67-.34l.04.16.44 1.42-.36.3v.07c.05.96.08 1.81.08 2.56Z" fill="#fff"/>
  <path d="M153.07 9.58h-.13v.83c0 .86-.04 2.02-.1 3.49h.14l-.03-.13-.6.11.01.14h.14c-.06-3.12-.18-5.71-.37-7.78l-.13.02.13-.01v-.17h-.14.14c0-.25.06-.44.18-.58.11-.14.3-.24.59-.3l-.03-.13-.13.03.04.16.44 1.43.13-.04-.09-.1-.41.35.01.14.14-.02-.14.01c.05.95.07 1.8.07 2.55h.27c0-.75-.02-1.6-.07-2.56v-.07h-.14l.09.11.35-.3.07-.06-.03-.09-.43-1.42-.13.04.13-.04-.04-.15-.03-.13-.12.03c-.33.06-.58.19-.75.39-.16.2-.24.45-.24.76v.17c.2 2.06.31 4.64.37 7.76v.15l.77-.13.1-.02v-.1c.07-1.48.1-2.65.1-3.51v-.83h-.13Z" fill="#fff"/>
</svg>
