<svg id="artwork" xmlns="http://www.w3.org/2000/svg" version="1.1" viewBox="0 0 239 70.9">
  <defs>
    <style>
      .st5{fill:#fff}
    </style>
  </defs>
  <rect x="-.1" width="239.1" height="70.8" rx="8.8" ry="8.8"/>
  <path class="st5" d="M120.6 38.5c-4.2 0-7.6 3.2-7.6 7.6s3.4 7.5 7.6 7.5 7.5-3.2 7.5-7.5-3.4-7.6-7.5-7.6Zm0 12.1c-2.3 0-4.3-1.9-4.3-4.6s2-4.5 4.3-4.5 4.2 1.8 4.2 4.5-2 4.6-4.2 4.6Zm-16.5-12c-4.2 0-7.6 3-7.6 7.5s3.4 7.5 7.6 7.5 7.5-3.2 7.5-7.5-3.4-7.6-7.5-7.6Zm0 12c-2.3 0-4.3-1.9-4.3-4.6s2-4.5 4.3-4.5 4.2 1.8 4.2 4.5-2 4.6-4.2 4.6Zm-19.7-9.8V44h7.7a6.7 6.7 0 0 1-1.8 4 7.8 7.8 0 0 1-5.9 2.4 8.3 8.3 0 0 1-8.3-8.5 8.4 8.4 0 0 1 14.1-6.2l2.3-2.3A11.8 11.8 0 0 0 72.6 42c0 6.5 5.4 11.7 11.8 11.7 3.5 0 6.1-1.1 8.2-3.3 2.1-2 2.8-5 2.8-7.4l-.2-2H84.4Zm80.3 2.5c-.7-1.7-2.6-4.8-6.5-4.8s-7 3-7 7.6c0 4.2 3.1 7.5 7.4 7.5 3.4 0 5.4-2.1 6.3-3.3l-2.6-1.8c-.9 1.3-2 2.1-3.7 2.1s-2.9-.8-3.7-2.3l10.1-4.1-.3-.9Zm-10.3 2.5c0-2.9 2.3-4.4 4-4.4 1.2 0 2.4.7 2.7 1.6l-6.7 2.8Zm-8.2 7.3h3.3V31h-3.3v22Zm-5.4-12.9h-.1a5.2 5.2 0 0 0-4-1.7c-3.7 0-7.2 3.3-7.2 7.6s3.4 7.5 7.2 7.5c1.8 0 3.2-.8 4-1.7h.1v1c0 3-1.5 4.5-4 4.5-2 0-3.3-1.5-3.8-2.7l-3 1.3c.8 2 3 4.5 6.7 4.5 3.9 0 7.1-2.3 7.1-7.9V39h-3.1v1.2ZM137 50.6c-2.3 0-4.2-1.9-4.2-4.5s2-4.6 4.2-4.6 4 2 4 4.6-1.7 4.5-4 4.5ZM180.2 31h-8v22h3.4v-8.4h4.6c3.7 0 7.3-2.6 7.3-6.8s-3.6-6.9-7.3-6.9Zm0 10.6h-4.6v-7.5h4.7a3.8 3.8 0 1 1 0 7.6Zm20.5-3.1c-2.4 0-4.9 1-6 3.4l3 1.2a3.3 3.3 0 0 1 3-1.7c1.8 0 3.5 1 3.5 2.9v.2c-.6-.3-1.8-.8-3.4-.8-3.2 0-6.4 1.7-6.4 5 0 3 2.6 4.8 5.5 4.8 2.2 0 3.4-1 4.2-2.1h.1V53h3.2v-8.5c0-4-3-6.1-6.7-6.1Zm-.4 12.1c-1.1 0-2.6-.5-2.6-1.9 0-1.7 1.9-2.3 3.5-2.3a6 6 0 0 1 3 .7 4 4 0 0 1-3.9 3.5ZM219 39l-3.8 9.6-4-9.6h-3.6l6 13.4-3.4 7.4h3.4l9.1-20.8H219Zm-29.7 14h3.3V31h-3.3v22Z"/>
  <path d="m36.6 34.4-18.9 20a5 5 0 0 0 7.5 3l21.3-12.2-10-10.8Z" style="fill:#ea4335"/>
  <path d="m55.7 31-9.2-5.3-10.3 9.1 10.3 10.4 9.2-5.3a5 5 0 0 0 0-9Z" style="fill:#fbbc04"/>
  <path d="m17.7 16.4-.1 1.3v35.4l.1 1.3L37.2 35 17.7 16.4Z" style="fill:#4285f4"/>
  <path d="m36.7 35.4 9.8-9.7-21.2-12.3a5.1 5.1 0 0 0-7.6 3l19 19Z" style="fill:#34a853"/>
  <path class="st5" d="M72.8 12.2H74v10.1h5v1.3h-6.3V12.2Zm11.4 0h1.5l4.4 11.4h-1.5l-1.2-3.2h-4.9l-1.1 3.2h-1.5l4.3-11.4Zm2.8 7L85.5 15l-.5-1.3-.5 1.2-1.5 4.2h4Zm6-5.7h-3.2v-1.3h7.7v1.3h-3.2v10H93v-10Zm8.5-1.3h1.6l4.3 11.4h-1.5l-1.1-3.2h-5l-1.1 3.2h-1.5l4.3-11.4Zm2.8 7-1.5-4.1-.5-1.3-.5 1.2-1.5 4.2h4Zm8-7h1.5l4.3 11.4h-1.5l-1.1-3.2h-5l-1 3.2h-1.6l4.3-11.4Zm2.7 7-1.5-4.1-.4-1.3h-.1l-.4 1.2-1.5 4.2h4Zm8.7 3.8a4 4 0 0 1-1.5-2.3l1.3-.5c.2.7.5 1.2 1 1.7s1 .6 1.7.6 1.2-.2 1.7-.5.7-.9.7-1.5c0-.5-.2-1-.6-1.3l-2-1-.7-.2c-.8-.3-1.4-.6-2-1.1s-.7-1.1-.7-2c0-.5.1-1 .4-1.5s.7-.8 1.3-1c.5-.3 1.1-.5 1.8-.5s1.2.1 1.7.4c.5.2.9.5 1.2.9l.6 1-1.3.6c-.1-.4-.4-.8-.7-1s-.9-.6-1.5-.6-1.1.2-1.5.5c-.4.4-.7.8-.7 1.3 0 .4.2.8.6 1 .3.4.9.6 1.6.9l.7.2c1 .4 1.7.8 2.3 1.3.5.6.8 1.3.8 2.2 0 .7-.2 1.3-.6 1.8s-.8.9-1.4 1.1-1.2.4-1.8.4a4 4 0 0 1-2.4-.8Zm8.3-10.8h6.6v1.3h-5.2v3.7h4.7v1.3h-4.7v3.8h5.2v1.3H132V12.2Z" style="isolation:isolate"/>
</svg>
