<svg id="artwork" xmlns="http://www.w3.org/2000/svg" version="1.1" viewBox="0 0 239 70.9">
  <defs>
    <style>
      .st5{fill:#fff}
    </style>
  </defs>
  <rect width="239" height="70.8" rx="8.8" ry="8.8"/>
  <path class="st5" d="M120.6 38.5c-4.1 0-7.5 3.2-7.5 7.6s3.4 7.5 7.5 7.5 7.6-3.2 7.6-7.6-3.4-7.5-7.6-7.5Zm0 12.1c-2.3 0-4.2-1.9-4.2-4.6s2-4.5 4.2-4.5 4.3 1.8 4.3 4.5-2 4.6-4.3 4.6Zm-16.5-12c-4.1 0-7.5 3.1-7.5 7.4s3.4 7.6 7.5 7.6 7.6-3.2 7.6-7.6-3.4-7.5-7.6-7.5Zm0 12c-2.3 0-4.2-1.9-4.2-4.6s2-4.5 4.2-4.5 4.3 1.8 4.3 4.5-2 4.6-4.3 4.6Zm-19.6-9.8V44h7.7a6.7 6.7 0 0 1-1.8 4 7.8 7.8 0 0 1-5.9 2.4 8.4 8.4 0 0 1-8.4-8.5 8.4 8.4 0 0 1 14.2-6.2l2.2-2.3A11.8 11.8 0 0 0 72.6 42a12 12 0 0 0 12 11.7c3.4 0 6-1.2 8-3.3 2.2-2.1 2.8-5 2.8-7.5l-.1-2H84.5Zm80.2 2.5c-.6-1.6-2.5-4.8-6.4-4.8s-7.1 3-7.1 7.6c0 4.2 3.2 7.5 7.4 7.5 3.5 0 5.5-2.1 6.3-3.4l-2.6-1.7c-.8 1.3-2 2-3.7 2s-2.8-.7-3.6-2.2l10-4.2-.3-.8Zm-10.3 2.5c0-2.9 2.3-4.3 4-4.3 1.3 0 2.4.6 2.8 1.5l-6.8 2.8Zm-8.1 7.3h3.3V31h-3.3v22.1Zm-5.5-12.9a5.2 5.2 0 0 0-4-1.7c-3.8 0-7.2 3.3-7.2 7.6s3.4 7.5 7.2 7.5c1.8 0 3.2-.8 4-1.7v1c0 3-1.5 4.5-4 4.5-2 0-3.2-1.5-3.8-2.7l-2.9 1.2c.9 2 3 4.5 6.7 4.5 3.9 0 7.2-2.3 7.2-7.9V39h-3.2v1.2Zm-3.7 10.4c-2.3 0-4.2-1.9-4.2-4.5s1.9-4.6 4.2-4.6 4 2 4 4.6-1.8 4.5-4 4.5ZM180.2 31h-7.9v22.1h3.3v-8.4h4.6c3.7 0 7.3-2.6 7.3-6.8s-3.6-6.9-7.3-6.9Zm0 10.7h-4.6V34h4.7c2.4 0 3.9 2 3.9 3.8s-1.4 3.8-4 3.8Zm20.5-3.2c-2.4 0-4.9 1-5.9 3.4l3 1.2c.6-1.2 1.8-1.6 3-1.6 1.7 0 3.4 1 3.5 2.8v.3a7 7 0 0 0-3.5-.9c-3.2 0-6.4 1.7-6.4 5 0 3 2.6 4.9 5.5 4.9 2.2 0 3.5-1 4.2-2.2h.2v1.7h3.1v-8.5c0-3.9-2.9-6-6.7-6v-.1Zm-.4 12.1c-1 0-2.6-.5-2.6-1.9 0-1.7 1.9-2.3 3.5-2.3a6 6 0 0 1 3 .7 4 4 0 0 1-3.9 3.5ZM219 39l-3.8 9.6-4-9.6h-3.6l6 13.4-3.4 7.4h3.4l9.1-20.8H219Zm-29.7 14h3.3V31h-3.3v22.1Z"/>
  <path d="m36.7 34.4-18.9 20a5 5 0 0 0 7.5 3l21.3-12.2-10-10.8Z" style="fill:#ea4335"/>
  <path d="m55.7 31-9.1-5.3-10.4 9.2 10.4 10.3 9.1-5.2c1.6-1 2.7-2.6 2.7-4.5s-1-3.6-2.7-4.5Z" style="fill:#fbbc04"/>
  <path d="m17.8 16.5-.2 1.3V53c0 .5 0 1 .2 1.3L37.3 35 17.8 16.5Z" style="fill:#4285f4"/>
  <path d="m36.8 35.4 9.8-9.7-21.2-12.3a5.1 5.1 0 0 0-7.6 3l19 19Z" style="fill:#34a853"/>
  <path class="st5" d="M74 12.2h1.7v5.3l4.5-5.3h2.1v.1l-4 4.7 4.4 6.2h-2.1L77 18.4 75.6 20v3.3H74v-11ZM85.9 23c-.7-.4-1.2-1-1.5-1.6s-.5-1.5-.5-2.4v-6.8h1.7v7c0 .7.2 1.4.6 1.9s1 .8 1.9.8 1.4-.3 1.8-.8.6-1.2.6-2v-6.9h1.7V19c0 1-.2 1.7-.5 2.4s-.8 1.2-1.4 1.5c-.7.4-1.4.6-2.2.6s-1.6-.2-2.2-.5Zm8.6-10.8h2.1l5 8v-8h1.7v11h-1.9l-5.1-8.4h-.1v8.5h-1.6v-11Zm11.3 0h1.7v11h-1.7v-11Zm4.2 0h2l5 8h.1v-8h1.6v11H117l-5.2-8.4v8.5H110v-11Zm14.8 0h1.8v11h-1.8v-11Zm6.5 1.7h-3v-1.7h7.8V14h-3v9.4h-1.8V14Zm8.3 8.9a5.5 5.5 0 0 1-2-2.1c-.6-1-.8-1.9-.8-3s.2-2 .7-2.9 1.2-1.5 2-2c1-.6 2-.8 3-.8s2 .2 3 .8 1.5 1.1 2 2c.5 1 .7 1.9.7 3a5.7 5.7 0 0 1-2.8 5c-.8.5-1.8.7-2.9.7s-2-.2-2.9-.7Zm4.9-1.4a4 4 0 0 0 2-3.6c0-.8-.2-1.5-.6-2.2s-.8-1-1.4-1.4c-.6-.4-1.3-.6-2-.6a4 4 0 0 0-3.4 2c-.4.6-.6 1.4-.6 2.2s.2 1.5.6 2.1c.3.6.8 1.1 1.4 1.5s1.3.5 2 .5 1.4-.2 2-.5Zm9.5 1.3a4 4 0 0 1-1.5-2.2l1.7-.7c.1.6.4 1.1.8 1.5.5.4 1 .6 1.6.6.5 0 1-.2 1.3-.5s.6-.6.6-1.1c0-.5-.2-.9-.5-1.2s-1-.5-1.8-.8l-.6-.3a4 4 0 0 1-1.9-1.1c-.5-.5-.8-1.1-.8-2 0-.5.2-1 .5-1.4s.7-.9 1.2-1.1a4 4 0 0 1 1.8-.4c1 0 1.7.2 2.3.7.6.4 1 1 1.2 1.5l-1.6.7a2 2 0 0 0-1.9-1.3 2 2 0 0 0-1.3.4c-.3.2-.5.5-.5 1 0 .3.2.6.5.9l1.4.7.7.2c1 .4 1.7.8 2.2 1.3s.8 1.3.8 2.2c0 .7-.2 1.3-.5 1.8s-.9.8-1.5 1c-.5.3-1.1.4-1.7.4a4 4 0 0 1-2.5-.8Zm11.2-10.5h2l4.1 11h-1.9l-1-2.8H164l-1 2.9h-2l4.2-11Zm2.6 6.7-1.2-3.3-.4-1.3-.5 1.3-1.2 3.3h3.3Z" style="isolation:isolate"/>
</svg>
