<svg width="180" height="54" fill="none" xmlns="http://www.w3.org/2000/svg">
  <path d="M173.33 54H6.67A6.73 6.73 0 0 1 0 47.25V6.75C0 3.04 3 0 6.67 0h166.66A6.73 6.73 0 0 1 180 6.75v40.5c0 3.71-3 6.75-6.67 6.75Z" fill="#000"/>
  <path d="m27.63 26.22-14.2 15.26a3.84 3.84 0 0 0 5.65 2.35l.05-.03 15.97-9.33-7.48-8.25Z" fill="#EA4335"/>
  <path d="m41.98 23.63-.01-.02-6.9-4.05-7.77 7 7.8 7.9 6.86-4a3.89 3.89 0 0 0 2.02-3.43c0-1.47-.8-2.75-2-3.4Z" fill="#FBBC04"/>
  <path d="M13.43 12.52a3.7 3.7 0 0 0-.13 1v26.96c0 .35.04.68.13 1L28.1 26.62l-14.68-14.1Z" fill="#4285F4"/>
  <path d="m27.73 27 7.34-7.44-15.96-9.37a3.85 3.85 0 0 0-5.69 2.33L27.73 27Z" fill="#34A853"/>
  <path d="M141.25 38.67h2.49V22h-2.5v16.67ZM163.65 28l-2.84 7.23h-.09L157.76 28h-2.68l4.44 10.1-2.53 5.62h2.6L166.41 28h-2.76Zm-14.1 8.77c-.82 0-1.95-.4-1.95-1.41 0-1.29 1.41-1.78 2.63-1.78 1.1 0 1.61.23 2.28.56a3.02 3.02 0 0 1-2.96 2.63Zm.3-9.13c-1.8 0-3.67.8-4.44 2.55l2.2.92c.48-.92 1.36-1.22 2.28-1.22 1.29 0 2.6.77 2.62 2.14v.18a5.5 5.5 0 0 0-2.6-.65c-2.38 0-4.8 1.31-4.8 3.76 0 2.23 1.95 3.66 4.14 3.66a3.5 3.5 0 0 0 3.17-1.63h.09v1.29h2.4v-6.4c0-2.95-2.21-4.6-5.06-4.6Zm-15.38 2.4h-3.54v-5.72h3.54a2.89 2.89 0 0 1 2.92 2.86 2.9 2.9 0 0 1-2.92 2.85Zm-.06-8.04h-5.96v16.67h2.48v-6.32h3.48c2.75 0 5.47-2 5.47-5.18 0-3.18-2.72-5.17-5.47-5.17ZM101.9 36.78c-1.72 0-3.16-1.44-3.16-3.42 0-2 1.44-3.46 3.16-3.46 1.7 0 3.03 1.46 3.03 3.46 0 1.98-1.33 3.42-3.03 3.42Zm2.86-7.84h-.09a3.93 3.93 0 0 0-2.98-1.27 5.64 5.64 0 0 0-5.44 5.7c0 3.17 2.6 5.64 5.44 5.64 1.35 0 2.42-.6 2.98-1.29h.09v.82c0 2.17-1.16 3.33-3.03 3.33a3.14 3.14 0 0 1-2.86-2.02l-2.17.9a5.4 5.4 0 0 0 5.03 3.35c2.92 0 5.39-1.72 5.39-5.9V28h-2.36v.93Zm4.08 9.73h2.49V22h-2.5v16.67Zm6.16-5.5a3.11 3.11 0 0 1 2.97-3.31c.99 0 1.82.5 2.1 1.2l-5.07 2.1Zm7.74-1.9c-.48-1.26-1.92-3.6-4.86-3.6-2.92 0-5.35 2.3-5.35 5.67 0 3.18 2.4 5.67 5.63 5.67 2.6 0 4.1-1.59 4.73-2.51l-1.94-1.3a3.24 3.24 0 0 1-2.79 1.58 2.88 2.88 0 0 1-2.75-1.72l7.58-3.14-.25-.64Zm-60.41-1.86v2.4h5.75a5.02 5.02 0 0 1-1.3 3.03 5.9 5.9 0 0 1-4.45 1.76A6.32 6.32 0 0 1 56 30.2a6.32 6.32 0 0 1 10.65-4.68l1.7-1.7a8.39 8.39 0 0 0-6.03-2.42 8.93 8.93 0 0 0-8.94 8.8 8.93 8.93 0 0 0 8.94 8.81c2.62 0 4.6-.86 6.14-2.47 1.59-1.59 2.08-3.82 2.08-5.63a7.8 7.8 0 0 0-.13-1.5h-8.1Zm14.77 7.37c-1.72 0-3.2-1.42-3.2-3.44 0-2.04 1.48-3.44 3.2-3.44 1.72 0 3.2 1.4 3.2 3.44 0 2.02-1.48 3.44-3.2 3.44Zm0-9.11a5.59 5.59 0 0 0-5.7 5.67 5.6 5.6 0 0 0 5.7 5.67 5.6 5.6 0 0 0 5.69-5.67 5.59 5.59 0 0 0-5.7-5.67Zm12.41 9.1c-1.71 0-3.2-1.41-3.2-3.43 0-2.04 1.49-3.44 3.2-3.44 1.72 0 3.2 1.4 3.2 3.44 0 2.02-1.48 3.44-3.2 3.44Zm0-9.1a5.59 5.59 0 0 0-5.69 5.67 5.6 5.6 0 0 0 5.7 5.67 5.6 5.6 0 0 0 5.69-5.67 5.59 5.59 0 0 0-5.7-5.67ZM60.12 8v.04l-2.98 3.44 3.18 4.48V16h-1.27l-2.6-3.73-1.23 1.42V16H54.2V8h1.03v4.12h.05L58.79 8h1.33Z" fill="#fff"/>
  <path d="M60.12 8h-.14v.04h.14l-.1-.08-3.05 3.5L60.18 16h.14v-.13h-1.2l-2.66-3.82-1.37 1.59v2.23h-.76V8.13h.76v4.13h.24l3.52-4.13h1.27v-.26h-1.4l-3.55 4.17.1.08V12h-.05v.13h.13V7.87h-1.29v8.26h1.3v-2.4l1.08-1.25 2.54 3.65h1.47v-.22l-3.14-4.43 2.94-3.39v-.22h-.13V8Zm4.03 8.18c-.88 0-1.6-.3-2.14-.87a3.19 3.19 0 0 1-.82-2.28V8h1.03v5.07c0 .64.16 1.15.5 1.54.32.39.8.59 1.43.59.62 0 1.1-.2 1.43-.6.34-.38.5-.9.5-1.53V8h1.03v5.03c0 .94-.27 1.7-.8 2.28a2.8 2.8 0 0 1-2.16.87Z" fill="#fff"/>
  <path d="M64.15 16.18v-.13c-.85 0-1.52-.28-2.04-.83a3.06 3.06 0 0 1-.79-2.2V8.14h.76v4.94c0 .66.18 1.2.53 1.63.36.42.89.63 1.54.63s1.18-.21 1.54-.63c.35-.42.53-.97.52-1.63V8.13h.77v4.9a3.1 3.1 0 0 1-.77 2.2 2.7 2.7 0 0 1-2.06.82v.26c.93 0 1.7-.3 2.26-.9.56-.61.83-1.41.83-2.38V7.87h-1.3v5.2c0 .61-.15 1.09-.46 1.45-.3.36-.73.54-1.33.54-.6 0-1.03-.18-1.34-.54a2.2 2.2 0 0 1-.46-1.45v-5.2h-1.3v5.16c0 .96.29 1.76.86 2.37.57.6 1.33.91 2.24.91v-.13Zm4.61-.18V8h1.25l3.9 6.22h.04l-.05-1.54V8h1.03v8h-1.07l-4.07-6.52h-.04l.04 1.54V16h-1.03Z" fill="#fff"/>
  <path d="M68.76 16h.14V8.13h1.04l3.89 6.23h.25l-.05-1.68V8.13h.77v7.74h-.87l-4.07-6.53h-.25l.05 1.68v4.85h-.9v.26h1.16v-5.11l-.04-1.55h-.13v.14h.04v-.13l-.11.07 4.1 6.58h1.28V7.87h-1.3v4.81l.05 1.55h.14v-.14h-.05v.13l.11-.07-3.92-6.28h-1.46v8.26h.13V16Zm8 0V8h1.03v8h-1.03Z" fill="#fff"/>
  <path d="M76.76 16h.14V8.13h.76v7.74h-.9v.26h1.16V7.87h-1.3v8.26h.14V16Zm2.86 0V8h1.25l3.9 6.22h.04l-.05-1.54V8h1.03v8h-1.07l-4.07-6.52h-.05l.05 1.54V16h-1.03Z" fill="#fff"/>
  <path d="M79.62 16h.14V8.13h1.04l3.89 6.23h.25l-.05-1.68V8.13h.77v7.74h-.87l-4.07-6.53h-.25l.05 1.68v4.85h-.9v.26h1.16v-5.11l-.04-1.55h-.14v.14h.05v-.13l-.11.07 4.1 6.58h1.28V7.87h-1.3v4.81l.05 1.55h.14v-.14h-.05v.13l.11-.07-3.92-6.28h-1.46v8.26h.13V16Zm10.68 0V8h1.03v8H90.3Z" fill="#fff"/>
  <path d="M90.3 16h.14V8.13h.76v7.74h-.9v.26h1.16V7.87h-1.29v8.26h.13V16Zm5.59 0h-1.03V8.98h-2.23V8h5.5v.98h-2.24V16Z" fill="#fff"/>
  <path d="M95.89 16v-.13h-.9V8.85h-2.23v-.72h5.23v.72h-2.23V16h.26V9.12h2.24V7.87h-5.77v1.25h2.24v7.01h1.3V16h-.14Zm4.74-1.7c.6.6 1.32.9 2.18.9.85 0 1.58-.3 2.17-.9.6-.6.89-1.37.89-2.3 0-.93-.3-1.7-.9-2.3-.58-.6-1.3-.9-2.16-.9-.86 0-1.59.3-2.18.9-.59.6-.89 1.37-.89 2.3 0 .93.3 1.7.9 2.3Zm5.11.67a3.93 3.93 0 0 1-2.93 1.2A4.09 4.09 0 0 1 98.7 12a4.09 4.09 0 0 1 4.1-4.17c1.17 0 2.14.4 2.93 1.22.8.81 1.19 1.8 1.19 2.96a4.1 4.1 0 0 1-1.18 2.97Z" fill="#fff"/>
  <path d="m100.63 14.3-.1.09c.62.62 1.39.94 2.28.94.88 0 1.65-.32 2.26-.94.62-.62.93-1.43.93-2.39 0-.96-.3-1.77-.93-2.39a3.07 3.07 0 0 0-2.26-.94c-.9 0-1.66.32-2.27.94A3.27 3.27 0 0 0 99.6 12c0 .96.31 1.77.93 2.39l.1-.1.09-.09a3 3 0 0 1-.85-2.2 3 3 0 0 1 .85-2.2 2.8 2.8 0 0 1 2.08-.86c.82 0 1.5.28 2.07.86a3 3 0 0 1 .86 2.2 3 3 0 0 1-.86 2.2 2.8 2.8 0 0 1-2.07.86 2.8 2.8 0 0 1-2.08-.86l-.1.1Zm5.11.67-.1-.1a3.8 3.8 0 0 1-2.83 1.18A3.96 3.96 0 0 1 98.83 12a3.96 3.96 0 0 1 3.98-4.05 3.96 3.96 0 0 1 3.98 4.05c0 1.14-.38 2.09-1.15 2.87l.1.1.1.09a4.23 4.23 0 0 0 1.21-3.06 4.23 4.23 0 0 0-4.24-4.31A4.22 4.22 0 0 0 98.57 12a4.23 4.23 0 0 0 4.24 4.31c1.2 0 2.22-.42 3.03-1.25l-.1-.1Zm7.22 1.21c-.58 0-1.15-.2-1.7-.57a2.64 2.64 0 0 1-1.1-1.6l.95-.38c.11.44.34.81.68 1.11a1.87 1.87 0 0 0 2.31.1c.33-.23.48-.55.48-.95 0-.45-.16-.8-.47-1.04a4.9 4.9 0 0 0-1.5-.67 4 4 0 0 1-1.61-.87 1.99 1.99 0 0 1 .13-2.85 2.5 2.5 0 0 1 1.78-.64c.67 0 1.23.17 1.65.51.42.34.7.7.83 1.11l-.94.4a1.4 1.4 0 0 0-.5-.71c-.26-.22-.6-.33-1.02-.33-.4 0-.73.11-1.01.33a1 1 0 0 0-.42.83c0 .3.13.54.38.75.26.2.64.39 1.14.55.4.13.72.25.99.37.26.12.53.28.8.48.27.2.48.44.62.73a2.56 2.56 0 0 1-.04 2.06 1.9 1.9 0 0 1-.64.73 3.15 3.15 0 0 1-1.79.55Z" fill="#fff"/>
  <path d="M112.96 16.18v-.13c-.55 0-1.09-.18-1.63-.55a2.51 2.51 0 0 1-1.03-1.52l-.13.03.05.13.94-.38-.05-.13-.13.03c.12.47.36.87.73 1.18a2.01 2.01 0 0 0 2.48.1c.35-.24.53-.62.53-1.05 0-.48-.18-.88-.53-1.14a5.02 5.02 0 0 0-1.55-.7 4 4 0 0 1-1.55-.83c-.34-.33-.5-.74-.5-1.26 0-.54.2-1 .63-1.4.43-.4.98-.6 1.69-.6a2.33 2.33 0 0 1 2.35 1.52l.13-.04-.05-.12-.94.39.05.12.13-.03a1.52 1.52 0 0 0-.54-.77 1.7 1.7 0 0 0-1.11-.36c-.42 0-.8.12-1.1.36-.3.24-.47.56-.47.93 0 .33.16.63.44.85.28.22.67.41 1.18.58.39.12.71.25.97.36.26.12.52.27.78.46s.45.42.58.7c.12.26.19.58.19.96 0 .37-.08.69-.22.97-.16.3-.35.51-.6.68a3 3 0 0 1-1.72.53v.26a3.35 3.35 0 0 0 1.87-.57c.28-.19.51-.45.68-.77a2.63 2.63 0 0 0 .04-2.18 2.02 2.02 0 0 0-.66-.8c-.28-.2-.55-.36-.83-.48a9.7 9.7 0 0 0-1-.37 3.58 3.58 0 0 1-1.1-.53.8.8 0 0 1-.33-.65c0-.3.12-.52.37-.72.25-.2.56-.3.93-.3.4 0 .7.1.94.3.25.2.4.4.45.63l.04.14 1.2-.5-.05-.1a2.49 2.49 0 0 0-.87-1.18 2.7 2.7 0 0 0-1.73-.54c-.76 0-1.39.22-1.87.67a2.12 2.12 0 0 0-.14 3.05c.39.37.94.67 1.67.9.67.2 1.16.42 1.46.65.28.22.42.51.42.93a1 1 0 0 1-.42.85c-.3.21-.64.32-1.07.32-.4 0-.75-.13-1.08-.42a2 2 0 0 1-.64-1.04l-.04-.15-1.08.44-.1.04.02.11a3.1 3.1 0 0 0 2.92 2.28v-.14Zm5.64-3.31h2.65l-1.3-3.6h-.05l-1.3 3.6ZM116.32 16l3.01-8h1.16l3.02 8h-1.14l-.77-2.17h-3.36l-.78 2.17h-1.14Z" fill="#fff"/>
  <path d="M118.6 12.87V13h2.84l-1.4-3.87h-.23L118.4 13h.18v-.13l.13.05 1.3-3.61-.12-.05v.14h.04v-.14l-.12.05 1.24 3.43h-2.47v.13ZM116.32 16l.12.05 2.98-7.92h.98l2.92 7.74h-.85l-.78-2.17h-3.55l-.78 2.17h-1.04v.26h1.23l.78-2.16h3.18l.77 2.16h1.42l-3.11-8.26h-1.35l-3.12 8.26h.2V16Z" fill="#fff"/>
</svg>
