<svg id="artwork" xmlns="http://www.w3.org/2000/svg" version="1.1" viewBox="0 0 239 70.9">
  <defs>
    <style>
      .st5{fill:#fff}
    </style>
  </defs>
  <rect width="239" height="70.8" rx="8.8" ry="8.8"/>
  <path class="st5" d="M120.6 38.5c-4.1 0-7.5 3.2-7.5 7.5s3.4 7.5 7.5 7.5a7.5 7.5 0 1 0 0-15Zm0 12c-2.3 0-4.2-1.8-4.2-4.5s2-4.5 4.2-4.5 4.3 1.8 4.3 4.5-2 4.6-4.3 4.6Zm-16.5-12c-4.1 0-7.5 3.2-7.5 7.5s3.4 7.5 7.5 7.5a7.5 7.5 0 1 0 0-15Zm0 12c-2.3 0-4.2-1.8-4.2-4.5s2-4.5 4.2-4.5 4.3 1.8 4.3 4.5-2 4.6-4.3 4.6Zm-19.6-9.7V44h7.7a6.7 6.7 0 0 1-1.8 4 7.8 7.8 0 0 1-5.9 2.4 8.4 8.4 0 0 1-8.4-8.5 8.4 8.4 0 0 1 14.2-6.2l2.2-2.3a11.8 11.8 0 0 0-19.9 8.5c0 6.4 5.5 11.6 12 11.6a10.3 10.3 0 0 0 10.8-10.7l-.1-2H84.5Zm80.2 2.5c-.6-1.7-2.5-4.8-6.4-4.8s-7.1 3-7.1 7.5c0 4.2 3.2 7.5 7.4 7.5 3.5 0 5.5-2 6.3-3.3l-2.6-1.7c-.8 1.2-2 2-3.7 2s-2.8-.7-3.6-2.2l10-4.2-.3-.8Zm-10.3 2.5c0-2.9 2.3-4.4 4-4.4 1.3 0 2.4.7 2.8 1.6l-6.8 2.8Zm-8.1 7.3h3.3V31h-3.3v22Zm-5.5-13a5.2 5.2 0 0 0-4-1.6c-3.8 0-7.2 3.3-7.2 7.6s3.4 7.5 7.2 7.5a5 5 0 0 0 4-1.8V53c0 3-1.5 4.5-4 4.5-2 0-3.2-1.5-3.8-2.7l-2.9 1.2c.9 2 3 4.4 6.7 4.4 3.9 0 7.2-2.2 7.2-7.8V39h-3.2v1.2Zm-3.7 10.5c-2.3 0-4.2-2-4.2-4.5s1.9-4.6 4.2-4.6 4 2 4 4.6-1.8 4.5-4 4.5ZM180.2 31h-7.9v22h3.3v-8.4h4.6c3.7 0 7.3-2.6 7.3-6.9s-3.6-6.8-7.3-6.8Zm0 10.6h-4.6v-7.5h4.7c2.4 0 3.9 2 3.9 3.7s-1.4 3.8-4 3.8Zm20.5-3.1c-2.4 0-4.9 1-5.9 3.3l3 1.3c.6-1.3 1.8-1.7 3-1.7 1.7 0 3.4 1 3.5 2.9v.2c-.6-.3-2-.8-3.5-.8-3.2 0-6.4 1.7-6.4 5 0 3 2.6 4.8 5.5 4.8 2.2 0 3.5-1 4.2-2.1h.2V53h3.1v-8.5c0-4-2.9-6.1-6.7-6.1Zm-.4 12c-1 0-2.6-.5-2.6-1.8 0-1.7 1.9-2.4 3.5-2.4a6 6 0 0 1 3 .8 4 4 0 0 1-3.9 3.5ZM219 39l-3.8 9.6-4-9.6h-3.6l6 13.4-3.4 7.5h3.4l9.1-20.9H219Zm-29.7 14.2h3.3V31h-3.3v22Z"/>
  <path d="m36.7 34.4-18.9 20a5 5 0 0 0 7.5 3L46.7 45l-10-10.8Z" style="fill:#ea4335"/>
  <path d="m55.7 31-9.1-5.3-10.4 9.1 10.4 10.4 9.1-5.3c1.6-.8 2.7-2.5 2.7-4.4s-1-3.7-2.7-4.5Z" style="fill:#fbbc04"/>
  <path d="m17.8 16.4-.2 1.3v35.4c0 .5 0 .9.2 1.3l19.5-19.5-19.5-18.5Z" style="fill:#4285f4"/>
  <path d="m36.8 35.4 9.8-9.8-21.2-12.2a5.1 5.1 0 0 0-7.6 3l19 19Z" style="fill:#34a853"/>
  <path class="st5" d="M74 12.2h1.7v9.4h4.7v1.7h-6.5v-11Zm7.7 0h1.5v3.5h-1.5v-3.5Zm5.9 10.6a5.6 5.6 0 0 1-2.8-5c0-1.1.2-2 .7-3s1.2-1.5 2-2 1.9-.8 3-.8a5.6 5.6 0 0 1 5 2.8c.4 1 .7 1.9.7 3a5.7 5.7 0 0 1-2.8 5c-.9.5-1.8.7-3 .7s-2-.2-2.8-.7Zm4.9-1.4a4 4 0 0 0 2-3.6c0-.8-.3-1.5-.6-2.2s-.8-1-1.4-1.4-1.3-.6-2-.6a4 4 0 0 0-3.5 2c-.3.6-.5 1.4-.5 2.2s.2 1.5.5 2.1c.4.6.8 1.1 1.5 1.5s1.2.5 2 .5 1.4-.2 2-.5Zm5.7-9.2h4.1a3.4 3.4 0 0 1 2.8 1.5c.3.4.5 1 .5 1.5s-.2 1-.4 1.4c-.3.4-.7.7-1.1.9.5.3 1 .6 1.3 1s.5 1 .5 1.6-.1 1.2-.4 1.6c-.4.5-.8.9-1.3 1.1s-1 .4-1.7.4H98v-11Zm4 4.7c.5 0 1-.2 1.2-.5s.5-.7.5-1-.2-.8-.5-1.1c-.3-.3-.6-.5-1.1-.5h-2.4v3h2.3Zm.3 4.8c.5 0 1-.2 1.2-.5s.5-.7.5-1.2-.1-.8-.4-1.1c-.4-.3-.8-.5-1.3-.5h-2.6v3.3h2.6Zm7.5-7.8h-3.2v-1.7h8V14h-3.2v9.4H110V14Zm6.4-1.7h6.7V14h-5v3h4.5v1.7H118v3h5v1.6h-6.7v-11Zm8.8 0h2.1l5 8v-8h1.6v11h-1.8l-5.1-8.4h-.1v8.5h-1.7v-11Zm11.2 0h1.8v11h-1.8v-11Zm4.3 0h3.9c.6 0 1.2.2 1.8.5s1 .6 1.3 1.2.4 1 .4 1.7-.2 1.4-.7 2c-.5.5-1 1-1.8 1.1l3 4.4v.1h-2l-2.9-4.3h-1.3v4.3h-1.7v-11Zm3.8 5.1c.5 0 1-.1 1.3-.5s.6-.7.6-1.2a1.8 1.8 0 0 0-.9-1.5c-.2-.2-.5-.3-1-.3h-2.1v3.5h2.1Zm9.5 5.4a4 4 0 0 1-1.5-2.2l1.6-.7c.2.6.5 1.1.9 1.5.4.4.9.6 1.5.6.5 0 1-.2 1.4-.5s.5-.6.5-1.1c0-.5-.1-.9-.5-1.2l-1.7-.8-.7-.3c-.7-.2-1.4-.6-1.9-1.1-.5-.5-.7-1.1-.7-2 0-.5.1-1 .4-1.4s.7-.9 1.3-1.1 1-.4 1.8-.4a3.4 3.4 0 0 1 3.4 2.2l-1.6.7a2 2 0 0 0-1.9-1.3 2 2 0 0 0-1.2.4c-.4.2-.5.5-.5 1 0 .3.1.6.4.9.3.2.8.5 1.5.7l.7.2c.9.4 1.6.8 2.2 1.3s.7 1.3.7 2.2c0 .7-.1 1.3-.5 1.8s-.9.8-1.4 1a4 4 0 0 1-1.8.4 4 4 0 0 1-2.5-.8Zm10 .3c-.7-.4-1.2-1-1.5-1.6s-.5-1.5-.5-2.4v-6.8h1.7v7c0 .7.2 1.4.6 1.9s1 .8 1.8.8 1.4-.3 1.9-.8a3 3 0 0 0 .6-2v-6.9h1.7V19c0 1-.2 1.7-.5 2.4s-.8 1.2-1.4 1.5c-.7.4-1.4.6-2.2.6s-1.6-.2-2.2-.5Zm8.7-10.8h3.8a3.8 3.8 0 0 1 3.1 1.6c.3.6.5 1.2.5 1.8a3 3 0 0 1-.7 2c-.5.5-1.1 1-1.8 1.1l3 4.4v.1h-2l-3-4.3h-1.2v4.3h-1.7v-11Zm3.8 5.1c.5 0 1-.1 1.3-.5s.5-.7.5-1.2a1.8 1.8 0 0 0-.8-1.5c-.3-.2-.6-.3-1-.3h-2.2v3.5h2.2Z" style="isolation:isolate"/>
</svg>
