<svg width="180" height="54" fill="none" xmlns="http://www.w3.org/2000/svg">
  <path d="M173.3 54H6.7A6.7 6.7 0 0 1 0 47.2V6.8C0 3 3 0 6.7 0h166.6a6.7 6.7 0 0 1 6.7 6.8v40.5c0 3.7-3 6.7-6.7 6.7Z" fill="#000"/>
  <path d="M27.6 26.2 13.4 41.5a3.8 3.8 0 0 0 5.7 2.3l16-9.3-7.5-8.3Z" fill="#EA4335"/>
  <path d="m42 23.6-7-4-7.7 7 7.8 7.9 6.9-4a3.9 3.9 0 0 0 2-3.5 4 4 0 0 0-2-3.4Z" fill="#FBBC04"/>
  <path d="M13.4 12.5a3.7 3.7 0 0 0-.1 1v27l.1 1 14.7-14.9-14.7-14Z" fill="#4285F4"/>
  <path d="m27.7 27 7.4-7.4-16-9.4a3.9 3.9 0 0 0-5.7 2.3L27.7 27Z" fill="#34A853"/>
  <path d="M142.6 40h2.5V23.3h-2.5V40ZM165 29.3l-2.9 7.3-3-7.3h-2.7l4.5 10.1-2.6 5.7h2.6l6.9-15.8H165Zm-14.1 8.8c-.8 0-2-.4-2-1.4 0-1.3 1.4-1.8 2.7-1.8 1 0 1.6.2 2.2.6a3 3 0 0 1-3 2.6Zm.3-9.1c-1.8 0-3.7.8-4.4 2.5l2.2 1c.4-1 1.3-1.3 2.2-1.3 1.3 0 2.6.8 2.7 2.2v.1a5.5 5.5 0 0 0-2.6-.6c-2.4 0-4.8 1.3-4.8 3.8 0 2.2 1.9 3.6 4 3.6a3.5 3.5 0 0 0 3.3-1.6V40h2.5v-6.4c0-3-2.2-4.6-5.1-4.6Zm-15.4 2.4h-3.5v-5.8h3.5a2.9 2.9 0 0 1 3 3 2.9 2.9 0 0 1-3 2.8Zm0-8h-6V40h2.5v-6.3h3.5c2.7 0 5.4-2 5.4-5.2s-2.7-5.2-5.4-5.2ZM103.3 38c-1.8 0-3.2-1.4-3.2-3.4s1.4-3.5 3.1-3.5c1.7 0 3 1.5 3 3.5s-1.3 3.4-3 3.4Zm2.8-7.8h-.1a4 4 0 0 0-3-1.3 5.6 5.6 0 0 0-5.4 5.7c0 3.2 2.6 5.6 5.4 5.6a4 4 0 0 0 3-1.2v.8c0 2.1-1 3.3-3 3.3a3.1 3.1 0 0 1-2.8-2L98 42a5.4 5.4 0 0 0 5 3.3c3 0 5.5-1.7 5.5-5.9v-10H106v.9Zm4 9.7h2.6V23.3h-2.5V40Zm6.3-5.5a3.1 3.1 0 0 1 3-3.3c.9 0 1.7.5 2 1.2l-5 2.1Zm7.7-1.9c-.5-1.3-2-3.6-4.9-3.6-2.9 0-5.3 2.3-5.3 5.7 0 3.1 2.4 5.6 5.6 5.6 2.6 0 4.1-1.5 4.7-2.5l-1.9-1.3a3.2 3.2 0 0 1-2.8 1.6 2.9 2.9 0 0 1-2.7-1.7l7.5-3.1-.2-.7Zm-60.4-1.9V33h5.7a5 5 0 0 1-1.3 3 5.9 5.9 0 0 1-4.4 1.8 6.3 6.3 0 0 1-6.3-6.4A6.3 6.3 0 0 1 68 27l1.7-1.7a8.4 8.4 0 0 0-6-2.5 9 9 0 0 0-9 8.8 9 9 0 0 0 9 8.8 8 8 0 0 0 6.1-2.4c1.6-1.6 2-3.8 2-5.6a7.8 7.8 0 0 0 0-1.5h-8.1ZM78.4 38c-1.7 0-3.2-1.4-3.2-3.4s1.5-3.5 3.2-3.5c1.8 0 3.2 1.4 3.2 3.5 0 2-1.4 3.4-3.2 3.4Zm0-9a5.6 5.6 0 0 0-5.7 5.6 5.6 5.6 0 0 0 5.7 5.6 5.6 5.6 0 0 0 5.7-5.6 5.6 5.6 0 0 0-5.7-5.7ZM91 38c-1.8 0-3.2-1.4-3.2-3.4s1.4-3.5 3.2-3.5c1.7 0 3.2 1.4 3.2 3.5 0 2-1.5 3.4-3.2 3.4Zm0-9a5.6 5.6 0 0 0-5.7 5.6 5.6 5.6 0 0 0 5.7 5.6 5.6 5.6 0 0 0 5.7-5.6 5.6 5.6 0 0 0-5.7-5.7ZM56 16.2h1.4a3 3 0 0 0 2.2-.7c.5-.6.8-1.3.8-2.3a3 3 0 0 0-.8-2.2 3 3 0 0 0-2.2-.8H56v6Zm-1 1v-8h2.4a4 4 0 0 1 3 1.2 3.9 3.9 0 0 1 1 2.8 4 4 0 0 1-1 3 4 4 0 0 1-3 1H55Z" fill="#fff"/>
  <path d="M56 16.4h1.5c1 0 1.7-.2 2.3-.7a3.1 3.1 0 0 0 .8-2.4 3.1 3.1 0 0 0-.8-2.3 3.1 3.1 0 0 0-2.3-.8h-1.6v6.3h.2v-.1h.1v-6h1.3c.9 0 1.6.3 2 .8.6.5.9 1.2.9 2.1a3 3 0 0 1-.8 2.2c-.5.5-1.2.7-2.1.7H56v.2Zm-1 1h.2v-8h2.3c1.2 0 2.1.4 2.8 1.1a3.8 3.8 0 0 1 1.1 2.8 3.8 3.8 0 0 1-1 2.8 3.8 3.8 0 0 1-3 1.1H55v.3h2.5a4 4 0 0 0 3-1.2 4 4 0 0 0 1.2-3 4 4 0 0 0-1.2-3 4.1 4.1 0 0 0-3-1.1h-2.6v8.3h.1v-.2Zm8 0v-8h1v8h-1Z" fill="#fff"/>
  <path d="M63 17.3h.1V9.5h.8v7.7h-1v.3h1.2V9.2h-1.3v8.3h.2v-.2Zm5.1.2a3 3 0 0 1-1.7-.6 2.6 2.6 0 0 1-1.1-1.6l1-.3c0 .4.3.8.6 1a1.9 1.9 0 0 0 2.3.2c.4-.3.5-.6.5-1s-.1-.8-.5-1a4.9 4.9 0 0 0-1.5-.7 4 4 0 0 1-1.6-.9 1.8 1.8 0 0 1-.5-1.3c0-.6.2-1 .7-1.5a2.5 2.5 0 0 1 1.7-.6c.7 0 1.3.1 1.7.5.4.3.7.7.8 1l-1 .5a1.4 1.4 0 0 0-.4-.7c-.3-.2-.6-.4-1-.4s-.8.1-1 .4a1 1 0 0 0-.5.8c0 .3.2.5.4.7l1.1.6 1 .4c.3 0 .6.2.8.4l.7.8c.2.3.2.6.2 1l-.3 1c-.1.3-.3.6-.6.8a3.1 3.1 0 0 1-1.8.5Z" fill="#fff"/>
  <path d="M68.1 17.5v-.1c-.6 0-1.1-.2-1.6-.6a2.5 2.5 0 0 1-1-1.5h-.2v.2l1-.4V15H66c.1.5.4.9.7 1.2.4.3.8.5 1.3.5a2 2 0 0 0 1.2-.4c.4-.3.6-.6.6-1 0-.6-.2-1-.6-1.2a5 5 0 0 0-1.5-.7c-.7-.2-1.2-.5-1.6-.8a1.7 1.7 0 0 1-.5-1.3c0-.5.2-1 .7-1.4.4-.4 1-.6 1.6-.6a2.4 2.4 0 0 1 2.4 1.5h.1v-.1l-1 .4h.2a1.5 1.5 0 0 0-.5-.7A1.7 1.7 0 0 0 68 10c-.4 0-.8.1-1.1.4a1 1 0 0 0-.5.9c0 .3.2.6.4.9l1.2.5 1 .4.8.5.5.6c.2.3.2.6.2 1l-.2 1c-.1.3-.3.5-.6.7a3 3 0 0 1-1.7.5v.3a3.3 3.3 0 0 0 2-.7l.7-.8.2-1.1c0-.4 0-.8-.2-1a2 2 0 0 0-.7-.9 5.6 5.6 0 0 0-1.8-.8 3.6 3.6 0 0 1-1.1-.6.8.8 0 0 1-.3-.6c0-.3 0-.5.3-.7.3-.2.6-.3 1-.3s.7 0 .9.3c.3.2.4.4.5.6v.2l1.2-.5v-.2a2.5 2.5 0 0 0-1-1.1A2.7 2.7 0 0 0 68 9c-.7 0-1.3.2-1.8.7a2.1 2.1 0 0 0-.2 3c.4.4 1 .7 1.7 1 .7.1 1.2.4 1.5.6.3.2.4.5.4 1a1 1 0 0 1-.4.8 2 2 0 0 1-1.1.3c-.4 0-.7-.1-1-.4a2 2 0 0 1-.7-1v-.2l-1.1.4h-.1v.2c.2.7.5 1.3 1.1 1.7a3 3 0 0 0 1.8.6v-.2Zm5.2-4.4H75c.4 0 .8-.1 1-.4s.4-.6.4-1c0-.3-.1-.7-.4-1-.2-.2-.6-.4-1-.4h-1.7v2.8Zm0 4.2h-1v-8H75c.6 0 1.2.3 1.7.7.5.5.8 1 .8 1.7a2.2 2.2 0 0 1-.8 1.7 2.5 2.5 0 0 1-1.7.7h-1.7v3.2Z" fill="#fff"/>
  <path d="M73.3 13.1v.1H75c.5 0 .9-.1 1.1-.4.3-.3.5-.7.5-1 0-.5-.2-.8-.5-1.1a1.5 1.5 0 0 0-1.1-.5h-1.9v3h.4v-2.8H75c.4 0 .7.2 1 .4.2.3.3.6.3 1 0 .2-.1.5-.4.8a1.2 1.2 0 0 1-.9.4h-1.7v.1Zm0 4.2v-.1h-1V9.5H75c.6 0 1.2.2 1.6.6.5.4.7 1 .7 1.6a2 2 0 0 1-.7 1.6 2.4 2.4 0 0 1-1.6.7h-2v3.3h.3v-3H75c.7 0 1.3-.3 1.8-.8s.8-1 .8-1.8c0-.7-.3-1.3-.8-1.8a2.7 2.7 0 0 0-1.8-.7h-3v8.3h1.3v-.2h-.1Zm6.9-1.7a3 3 0 0 0 2.2 1 3 3 0 0 0 2.1-1 3 3 0 0 0 1-2.3c0-.9-.4-1.7-1-2.3a3 3 0 0 0-2.1-.9 3 3 0 0 0-2.2 1c-.6.5-.9 1.3-.9 2.2 0 1 .3 1.7.9 2.3Zm5.1.7a4 4 0 0 1-3 1.2 4 4 0 0 1-4-4.2 4 4 0 0 1 4-4.1 4.1 4.1 0 0 1 4.2 4.1 4.1 4.1 0 0 1-1.2 3Z" fill="#fff"/>
  <path d="m80.2 15.6-.1.1c.6.7 1.4 1 2.3 1a3 3 0 0 0 2.3-1c.6-.6.9-1.4.9-2.4s-.3-1.7-1-2.4a3 3 0 0 0-2.2-.9 3 3 0 0 0-2.3 1 3.3 3.3 0 0 0-1 2.3c0 1 .4 1.8 1 2.4h.1l.1-.2a3 3 0 0 1-.8-2.2 3 3 0 0 1 .8-2.2 2.8 2.8 0 0 1 2-.8c.9 0 1.6.3 2.2.8a3 3 0 0 1 .8 2.2 3 3 0 0 1-.8 2.2 2.8 2.8 0 0 1-2.1.9 2.8 2.8 0 0 1-2.1-.9l-.1.1Zm5.1.7v-.1a3.8 3.8 0 0 1-3 1.2 4 4 0 0 1-3.9-4 4 4 0 0 1 4-4.1c1.1 0 2 .4 2.8 1.2a4 4 0 0 1 1.2 2.8 4 4 0 0 1-1.2 3h.1l.1.1a4.2 4.2 0 0 0 1.2-3A4.2 4.2 0 0 0 82.4 9a4.2 4.2 0 0 0-4.3 4.3 4.2 4.2 0 0 0 4.3 4.3 4 4 0 0 0 3-1.2v-.1Zm2.6 1v-8h1.3l3.9 6.3V9.3h1v8h-1L89 10.8v6.5h-1Z" fill="#fff"/>
  <path d="M88 17.3V9.5h1.1l3.9 6.2h.3l-.1-1.7V9.5h.8v7.7h-1l-4-6.5h-.3v6.5H88v.3h1.2v-6.7H89v.1l4 6.6h1.3V9.2H93v6.4h.2v-.2.2-.1l-3.8-6.3h-1.5v8.3h.1v-.2Zm8 0v-8h1v8h-1Z" fill="#fff"/>
  <path d="M96 17.3V9.5h.8v7.7H96v.3h1.2V9.2h-1.3v8.3h.1v-.2Zm3.8-1h2c.5 0 .8 0 1-.4.3-.2.4-.5.4-.9 0-.3-.1-.6-.4-.9a1.3 1.3 0 0 0-1-.4h-2v2.6Zm0-3.5h1.9c.4 0 .7-.2 1-.4l.3-.9a1 1 0 0 0-.4-.8 1.1 1.1 0 0 0-.9-.4h-1.9v2.5Zm-1 4.5v-8h2.9c.6 0 1.2.2 1.6.6.5.5.7 1 .7 1.6a1.8 1.8 0 0 1-1 1.7l.9.7c.2.3.4.7.4 1.1a2 2 0 0 1-.7 1.7c-.5.4-1.1.6-1.7.6h-3.1Z" fill="#fff"/>
  <path d="M99.8 16.4h2c.5 0 .9 0 1.1-.4.3-.3.4-.6.4-1s0-.7-.4-1c-.2-.3-.6-.4-1-.4h-2.2v2.9h.1v-.2h.2v-2.5h1.9c.3 0 .6.2.8.4.3.3.4.5.4.8 0 .3-.1.6-.3.8a1 1 0 0 1-.9.4h-2v.1Zm0-3.6v.1h1.9a1.4 1.4 0 0 0 1.4-1.4c0-.3-.1-.6-.4-.9-.2-.3-.6-.4-1-.4h-2v2.7h.1v-.1h.2v-2.3h1.7a1 1 0 0 1 .8.3c.2.2.3.5.3.7s0 .6-.3.8a1 1 0 0 1-.8.3h-1.9v.2Zm-1 4.5h.1V9.5h2.8c.6 0 1 .2 1.5.6.4.4.7.8.7 1.4 0 .4-.1.7-.3 1a1.7 1.7 0 0 1-.7.6h-.1v.2l1 .7a2 2 0 0 1-.3 2.6c-.5.4-1 .6-1.7.6h-3v.3h3c.7 0 1.3-.3 1.8-.7a2.3 2.3 0 0 0 .4-3c-.3-.3-.6-.6-1-.7v.2l.8-.7c.2-.3.3-.7.3-1 0-.8-.2-1.3-.7-1.8a2.5 2.5 0 0 0-1.7-.6h-3v8.3h.1v-.2Zm6.8 0v-8h1v7h3.5v1h-4.5Z" fill="#fff"/>
  <path d="M105.7 17.3V9.5h.9v7h3.4v.7h-4.4v.3h4.7v-1.3h-3.5v-7h-1.3v8.3h.1v-.2Zm10.4-7h-3.6v2.5h3.3v1h-3.3v2.5h3.6v1h-4.7v-8h4.7v1Z" fill="#fff"/>
  <path d="M116.1 10.3v-.1h-3.8V13h3.3v.7h-3.3v2.8h3.7v.7h-4.4V9.5h4.4v.8h.2V9.2h-4.9v8.3h5v-1.3h-3.7V14h3.3v-1.2h-3.3v-2.3h3.6Zm6.2 7.2a3 3 0 0 1-1.7-.6 2.6 2.6 0 0 1-1-1.6l.9-.3c0 .4.3.8.7 1a1.9 1.9 0 0 0 2.3.2c.3-.3.4-.6.4-1s-.1-.8-.4-1a5 5 0 0 0-1.5-.7 4 4 0 0 1-1.6-.8 2 2 0 0 1 0-2.9 2.5 2.5 0 0 1 1.9-.6c.6 0 1.2.1 1.6.5.4.3.7.7.8 1l-.9.5a1.4 1.4 0 0 0-.5-.7c-.3-.2-.6-.4-1-.4s-.7.1-1 .4a1 1 0 0 0-.4.8c0 .3 0 .5.3.7l1.2.6 1 .4.8.4.6.8.2 1a2.1 2.1 0 0 1-.9 1.8 3.1 3.1 0 0 1-1.8.5Z" fill="#fff"/>
  <path d="M122.3 17.5v-.1c-.5 0-1-.2-1.6-.6a2.5 2.5 0 0 1-1-1.5h-.2v.2l1-.4V15h-.2c.2.5.4.9.8 1.2a2 2 0 0 0 2.5 0c.3-.2.5-.5.5-1s-.2-.8-.5-1.1a5 5 0 0 0-1.6-.7c-.7-.2-1.2-.5-1.5-.8-.4-.4-.5-.8-.5-1.3s.2-1 .6-1.4c.4-.4 1-.6 1.7-.6.6 0 1.1.2 1.5.5.4.3.7.6.8 1h.2l-.1-.1-1 .4h.2a1.5 1.5 0 0 0-.5-.7 1.7 1.7 0 0 0-1.1-.4c-.4 0-.8.1-1.1.4a1 1 0 0 0-.5.9c0 .3.2.6.5.9.2.2.6.4 1.1.5l1 .4.8.5c.3.1.4.4.6.6l.2 1c0 .4-.1.7-.3 1a2 2 0 0 1-.6.7 3 3 0 0 1-1.7.5v.3a3.3 3.3 0 0 0 1.9-.6 2.2 2.2 0 0 0 1-1.9c0-.4-.1-.8-.3-1a2 2 0 0 0-.6-.9 5.1 5.1 0 0 0-1.9-.8 3.6 3.6 0 0 1-1-.6.8.8 0 0 1-.4-.6c0-.3.1-.5.4-.7.2-.2.5-.3.9-.3s.7 0 1 .3l.4.6v.2l1.1-.5h.1v-.2a2.5 2.5 0 0 0-.9-1.1 2.7 2.7 0 0 0-1.7-.6c-.8 0-1.4.2-1.9.7a2 2 0 0 0-.7 1.6c0 .6.2 1 .6 1.4.4.4 1 .7 1.6 1a5 5 0 0 1 1.5.6c.3.2.4.5.4 1a1 1 0 0 1-.4.8c-.3.2-.6.3-1 .3-.5 0-.8-.1-1.2-.4a2 2 0 0 1-.6-1v-.2l-1.1.4h-.1v.2c.2.7.6 1.3 1.1 1.7a3 3 0 0 0 1.8.6v-.2Zm7 0a2.8 2.8 0 0 1-2.2-.9 3.2 3.2 0 0 1-.8-2.2v-5h1v5c0 .6.2 1.1.5 1.5.3.4.8.6 1.5.6.6 0 1-.2 1.4-.6.3-.3.5-.9.5-1.5v-5h1v5a3 3 0 0 1-.8 2.2 2.8 2.8 0 0 1-2.2 1Z" fill="#fff"/>
  <path d="M129.3 17.5v-.1c-.9 0-1.6-.3-2-.8a3 3 0 0 1-.9-2.2v-5h.8v5c0 .7.2 1.2.5 1.6.4.5.9.7 1.5.7s1.2-.2 1.6-.7c.3-.4.5-1 .5-1.6v-5h.8v5a3.1 3.1 0 0 1-.8 2.2c-.5.5-1.2.8-2 .8v.3a3 3 0 0 0 2.2-1c.6-.6.8-1.4.8-2.3V9.2H131v5.2c0 .6-.1 1.1-.4 1.5a2 2 0 0 1-1.4.5c-.6 0-1-.2-1.3-.5a2.2 2.2 0 0 1-.5-1.5V9.2h-1.3v5.2c0 1 .3 1.7 1 2.3a3 3 0 0 0 2.1 1v-.2Zm5.6-4.4h1.6c.5 0 .8-.1 1.1-.4.3-.2.4-.6.4-1 0-.3 0-.7-.4-1-.2-.2-.5-.4-1-.4H135v2.8Zm-1 4.2v-8h2.7c.7 0 1.3.3 1.8.7.4.5.7 1 .7 1.7a2.2 2.2 0 0 1-.6 1.5c-.3.4-.8.7-1.3.8l2.2 3.3h-1.2l-2.2-3.2h-1v3.2h-1Z" fill="#fff"/>
  <path d="M134.9 13.1v.2h1.6c.5 0 .9-.2 1.2-.5.3-.3.5-.6.5-1 0-.5-.2-.8-.4-1.1a1.5 1.5 0 0 0-1.2-.5h-1.8v3h.2v-2.8h1.6c.4 0 .7.2 1 .4.2.3.3.6.3 1 0 .3-.1.6-.4.8-.3.3-.6.4-1 .4H135v.1Zm-1 4.2h.1V9.5h2.6c.6 0 1.2.2 1.7.6.4.4.7 1 .7 1.6 0 .5-.2 1-.6 1.4a2 2 0 0 1-1.2.8h-.1l-.1.1 2.3 3.3h.1v-.1h-1.1L136 14h-1.3v3.2h-1v.3h1.2v-3.3h1l2.1 3.3h1.4v-.3l-2.2-3.2h-.1v.1-.1.1a2.5 2.5 0 0 0 2-2.4c0-.7-.2-1.3-.8-1.8a2.7 2.7 0 0 0-1.8-.7h-2.9v8.3h.2v-.2Z" fill="#fff"/>
</svg>
