<svg width="270" height="80" fill="none" xmlns="http://www.w3.org/2000/svg">
  <g clip-path="url(#a)">
    <mask id="b" style="mask-type:luminance" maskUnits="userSpaceOnUse" x="0" y="0" width="270" height="81">
      <path d="M0 0h270v80H0V0Z" fill="#fff"/>
    </mask>
    <g mask="url(#b)">
      <path d="M260 80H10A10 10 0 0 1 0 70V10A10 10 0 0 1 10 0h250a10 10 0 0 1 10 10v60a10 10 0 0 1-10 10Z" fill="#000"/>
    </g>
    <mask id="c" style="mask-type:luminance" maskUnits="userSpaceOnUse" x="0" y="0" width="270" height="81">
      <path d="M0 0h270v80H0V0Z" fill="#fff"/>
    </mask>
    <g mask="url(#c)">
      <path d="M213.9 60h3.7V35h-3.7v25Zm33.6-16-4.3 10.8h-.1L238.6 44h-4l6.7 15.2-3.8 8.4h3.9L251.6 44h-4.1Zm-21.2 13.2c-1.2 0-3-.7-3-2.2 0-1.9 2.2-2.6 4-2.6 1.7 0 2.5.3 3.5.8-.3 2.3-2.3 4-4.5 4Zm.5-13.7c-2.7 0-5.5 1.1-6.7 3.8l3.3 1.4c.7-1.4 2-1.9 3.4-1.9 2 0 4 1.2 4 3.3v.2c-.7-.4-2.2-1-4-1-3.5 0-7.1 2-7.1 5.7 0 3.3 2.9 5.5 6.2 5.5 2.5 0 3.9-1.2 4.7-2.5h.2v2h3.6v-9.6c0-4.5-3.3-7-7.6-7Zm-23 3.5h-5.4v-8.5h5.3c2.8 0 4.4 2.3 4.4 4.3 0 1.9-1.6 4.2-4.4 4.2Zm-.2-12h-9v25h3.8v-9.5h5.2c4.1 0 8.2-3 8.2-7.7 0-4.8-4-7.8-8.2-7.8Zm-48.8 22.2c-2.5 0-4.7-2.2-4.7-5.2s2.2-5.1 4.8-5.1c2.5 0 4.5 2.1 4.5 5.1 0 3-2 5.2-4.6 5.2Zm4.3-11.8c-1-1-2.5-1.9-4.6-1.9a8.5 8.5 0 0 0-8.1 8.5c0 4.8 3.9 8.5 8.1 8.5 2 0 3.7-.9 4.5-2h.1v1.3c0 3.3-1.7 5-4.5 5a4.7 4.7 0 0 1-4.3-3l-3.2 1.3a8 8 0 0 0 7.5 5c4.4 0 8-2.5 8-8.8V44h-3.5v1.4Zm6.2 14.6h3.7V35h-3.7v25Zm9.2-8.2c0-3.3 2.6-5 4.4-5 1.5 0 2.8.7 3.2 1.8l-7.6 3.2Zm11.6-2.9c-.7-1.9-2.9-5.4-7.3-5.4s-8 3.5-8 8.5c0 4.8 3.6 8.5 8.4 8.5 4 0 6.2-2.4 7.1-3.8l-2.9-1.9a4.9 4.9 0 0 1-4.2 2.4c-1.9 0-3.2-.9-4-2.6l11.3-4.7-.4-1Zm-90.6-2.8v3.6h8.6c-.2 2-1 3.5-2 4.6a8.8 8.8 0 0 1-6.6 2.6 9.5 9.5 0 0 1-9.5-9.6 9.5 9.5 0 0 1 16-7l2.5-2.6c-2.1-2-5-3.6-9-3.6-7.3 0-13.4 6-13.4 13.2 0 7.3 6.1 13.2 13.4 13.2 4 0 6.9-1.3 9.2-3.7a12 12 0 0 0 3.1-8.4c0-.9 0-1.6-.2-2.3H95.5Zm22.1 11c-2.5 0-4.8-2-4.8-5 0-3.2 2.3-5.2 4.8-5.2 2.6 0 4.8 2 4.8 5.1 0 3-2.2 5.2-4.8 5.2Zm0-13.6a8.4 8.4 0 0 0-8.5 8.5c0 5 3.8 8.5 8.5 8.5s8.6-3.6 8.6-8.5c0-5-3.9-8.5-8.6-8.5Zm18.7 13.7c-2.6 0-4.8-2.2-4.8-5.2s2.2-5.1 4.8-5.1c2.5 0 4.8 2 4.8 5.1 0 3-2.3 5.2-4.8 5.2Zm0-13.7a8.4 8.4 0 0 0-8.6 8.5c0 5 3.9 8.5 8.6 8.5 4.7 0 8.5-3.6 8.5-8.5 0-5-3.8-8.5-8.5-8.5Z" fill="#fff"/>
    </g>
    <mask id="d" style="mask-type:luminance" maskUnits="userSpaceOnUse" x="0" y="0" width="270" height="81">
      <path d="M0 0h270v80H0V0Z" fill="#fff"/>
    </mask>
    <g mask="url(#d)">
      <path d="M41.4 38.8 20.1 61.4a5.7 5.7 0 0 0 8.5 3.5l24-13.8-11.2-12.3Z" fill="#EA4335"/>
    </g>
    <mask id="e" style="mask-type:luminance" maskUnits="userSpaceOnUse" x="0" y="0" width="270" height="81">
      <path d="M0 0h270v80H0V0Z" fill="#fff"/>
    </mask>
    <g mask="url(#e)">
      <path d="m63 35-10.4-6L41 39.4 52.7 51l10.2-6a5.8 5.8 0 0 0 .1-10Z" fill="#FBBC04"/>
    </g>
    <mask id="f" style="mask-type:luminance" maskUnits="userSpaceOnUse" x="0" y="0" width="270" height="81">
      <path d="M0 0h270v80H0V0Z" fill="#fff"/>
    </mask>
    <g mask="url(#f)">
      <path d="M20.1 18.6 20 20v40l.2 1.4 22-22-22-20.8Z" fill="#4285F4"/>
    </g>
    <mask id="g" style="mask-type:luminance" maskUnits="userSpaceOnUse" x="0" y="0" width="270" height="81">
      <path d="M0 0h270v80H0V0Z" fill="#fff"/>
    </mask>
    <g mask="url(#g)">
      <path d="m41.6 40 11-11-24-13.9a5.8 5.8 0 0 0-8.5 3.4L41.6 40Z" fill="#34A853"/>
    </g>
    <path d="M83.6 13.8h2v10.6h5.3v1.9h-7.3V13.8Zm7.3 0h1.7v4H91v-4ZM101 26.5a6.3 6.3 0 0 1-5.6-3.2 7 7 0 0 1-.8-3.3 6.5 6.5 0 0 1 3.2-5.6 6.3 6.3 0 0 1 8.9 2.4 6.9 6.9 0 0 1 0 6.5 6.3 6.3 0 0 1-5.7 3.2Zm0-1.8c.9 0 1.6-.2 2.3-.6.7-.4 1.2-1 1.6-1.7a5 5 0 0 0 .6-2.4c0-.9-.2-1.7-.6-2.4a4.4 4.4 0 0 0-3.9-2.3c-.8 0-1.5.3-2.2.7-.7.4-1.2 1-1.7 1.6a6 6 0 0 0 0 4.8 4.4 4.4 0 0 0 3.9 2.2Zm9-10.9h4.7a4 4 0 0 1 1.8.5c.6.2 1 .6 1.4 1.2.3.5.5 1 .5 1.6a2.8 2.8 0 0 1-1.7 2.7 3.1 3.1 0 0 1 1.6 4.8c-.4.5-.8 1-1.4 1.2-.6.3-1.3.5-2 .5H110V13.8Zm4.6 5.2c.6 0 1-.1 1.4-.5a1.7 1.7 0 0 0 0-2.4c-.3-.3-.8-.5-1.3-.5H112V19h2.6Zm.3 5.5c.6 0 1-.2 1.4-.6a1.8 1.8 0 0 0 0-2.6 2 2 0 0 0-1.5-.5H112v3.7h3Zm8.7-8.8h-3.5v-1.9h9v1.9h-3.5v10.6h-2V15.7Zm7.5-1.9h7.5v1.9H133V19h5v2h-5v3.4h5.6v1.9h-7.5V13.8Zm10.2 0h2.3l5.6 9h.1l-.1-2.3v-6.7h2v12.5h-2l-6-9.6v9.6h-1.9V13.8Zm13 0h2v12.5h-2V13.8Zm5.2 0h4.4c.7 0 1.4.2 2 .5.6.3 1 .8 1.4 1.4a3.7 3.7 0 0 1-2.3 5.5l3.4 5h-2.2l-3.3-4.8h-1.5v4.9h-2V13.8Zm4.3 5.8c.6 0 1-.2 1.5-.6.4-.3.6-.8.6-1.4l-.3-1-.7-.7a2 2 0 0 0-1-.2h-2.5v3.9h2.4Zm14 7c-1 0-2-.3-2.8-1a4.7 4.7 0 0 1-1.7-2.5l1.8-.7c.2.6.6 1.2 1 1.6.5.5 1 .7 1.7.7a3 3 0 0 0 1.6-.5c.4-.3.6-.7.6-1.3 0-.5-.2-1-.5-1.3l-2-1-.8-.2c-.8-.3-1.5-.8-2.1-1.3-.6-.5-.9-1.3-.9-2.2 0-.6.2-1.1.5-1.6.4-.6.8-1 1.4-1.3a5 5 0 0 1 2-.5 4 4 0 0 1 4 2.6l-1.8.8c0-.4-.3-.8-.7-1-.4-.4-.8-.5-1.4-.5-.6 0-1 .1-1.4.4-.4.3-.6.7-.6 1.1 0 .4.2.8.5 1 .4.4 1 .6 1.6.9l.8.2a6 6 0 0 1 2.5 1.5c.6.6.9 1.4.9 2.4 0 .8-.2 1.5-.6 2-.5.6-1 1-1.6 1.3a7 7 0 0 1-2 .3Zm11.2 0c-1 0-1.8-.3-2.5-.7-.7-.4-1.2-1-1.6-1.7a6 6 0 0 1-.6-2.7v-7.7h2v7.8c0 1 .2 1.7.6 2.2.5.6 1.2.9 2 .9 1 0 1.7-.3 2.1-.9.5-.5.7-1.3.7-2.2v-7.8h2v7.7c0 1-.2 1.9-.6 2.6-.4.8-1 1.4-1.6 1.8-.7.4-1.6.6-2.5.6Zm7.8-12.8h4.3a4 4 0 0 1 2 .5 3 3 0 0 1 1.5 1.4 3.7 3.7 0 0 1-2.3 5.5l3.4 5h-2.2l-3.3-4.8h-1.5v4.9h-2V13.8Zm4.3 5.8c.6 0 1-.2 1.5-.6.4-.3.6-.8.6-1.4l-.3-1-.7-.7a2 2 0 0 0-1-.2h-2.5v3.9h2.4Z" fill="#fff"/>
  </g>
  <defs>
    <clipPath id="a">
      <path fill="#fff" d="M0 0h270v80H0z"/>
    </clipPath>
  </defs>
</svg>
