<svg id="artwork" xmlns="http://www.w3.org/2000/svg" version="1.1" viewBox="0 0 239 70.9">
  <defs>
    <style>
      .st1{isolation:isolate}.st5{fill:#fff}
    </style>
  </defs>
  <rect width="239" height="70.8" rx="8.8" ry="8.8"/>
  <path class="st5" d="M120.6 38.5c-4.1 0-7.5 3.2-7.5 7.6s3.4 7.5 7.5 7.5 7.6-3.2 7.6-7.6-3.4-7.5-7.6-7.5Zm0 12.1c-2.3 0-4.2-1.9-4.2-4.6s2-4.5 4.2-4.5 4.3 1.8 4.3 4.5-2 4.6-4.3 4.6Zm-16.5-12c-4.1 0-7.5 3.1-7.5 7.4s3.4 7.6 7.5 7.6 7.6-3.2 7.6-7.6-3.4-7.5-7.6-7.5Zm0 12c-2.3 0-4.2-1.9-4.2-4.6s2-4.5 4.2-4.5 4.3 1.8 4.3 4.5-2 4.6-4.3 4.6Zm-19.6-9.8V44h7.7a6.7 6.7 0 0 1-1.8 4 7.8 7.8 0 0 1-5.9 2.4 8.4 8.4 0 0 1-8.4-8.5 8.4 8.4 0 0 1 14.2-6.2l2.2-2.3a11.1 11.1 0 0 0-8-3.2c-6.4 0-11.8 5.3-11.8 11.7S78 53.6 84.5 53.6c3.5 0 6.1-1.1 8.2-3.3 2-2 2.7-5 2.7-7.4l-.1-2H84.5Zm80.2 2.5c-.6-1.6-2.5-4.8-6.4-4.8s-7.1 3-7.1 7.6c0 4.2 3.2 7.5 7.4 7.5 3.5 0 5.5-2.1 6.3-3.4l-2.6-1.7c-.8 1.3-2 2.1-3.7 2.1s-2.8-.8-3.6-2.3l10-4.1-.3-.9Zm-10.3 2.5c0-2.9 2.3-4.3 4-4.3 1.3 0 2.4.6 2.8 1.5l-6.8 2.8Zm-8.1 7.3h3.3V31h-3.3v22.1Zm-5.5-12.9a5.2 5.2 0 0 0-4-1.7c-3.8 0-7.2 3.3-7.2 7.6s3.4 7.5 7.2 7.5a5 5 0 0 0 4-1.7v1c0 3-1.5 4.5-4 4.5-2 0-3.2-1.5-3.8-2.7l-2.9 1.2c.9 2 3 4.5 6.7 4.5 3.9 0 7.2-2.3 7.2-7.9V39h-3.2v1.2ZM137 50.6c-2.2 0-4.2-1.9-4.2-4.5s2-4.6 4.2-4.6 4 2 4 4.6-1.7 4.5-4 4.5ZM180.2 31h-7.9v22.1h3.3v-8.4h4.6c3.7 0 7.3-2.6 7.3-6.8s-3.6-6.9-7.3-6.9Zm0 10.7h-4.6V34h4.7a3.8 3.8 0 1 1 0 7.6Zm20.5-3.2c-2.4 0-4.9 1-5.9 3.4l3 1.2c.6-1.2 1.8-1.6 3-1.6 1.7 0 3.4 1 3.4 2.8v.3c-.6-.4-1.8-.9-3.4-.9-3.2 0-6.4 1.7-6.4 5 0 3 2.6 4.8 5.5 4.8 2.2 0 3.5-1 4.2-2.1h.1V53h3.2v-8.5c0-4-3-6.1-6.7-6.1Zm-.4 12.1c-1 0-2.6-.5-2.6-1.9 0-1.7 1.9-2.3 3.5-2.3 1.5 0 2.2.3 3 .7a4 4 0 0 1-3.9 3.5ZM219 39l-3.8 9.6-4-9.6h-3.6l6 13.4-3.4 7.4h3.4l9.1-20.8H219Zm-29.7 14h3.3V31h-3.3v22.1Z"/>
  <path d="m36.7 34.4-18.9 20a5 5 0 0 0 7.5 3l21.3-12.2-10-10.8Z" style="fill:#ea4335"/>
  <path d="m55.7 31-9.1-5.3-10.3 9.2 10.3 10.3 9.1-5.2c1.6-1 2.7-2.6 2.7-4.5s-1-3.6-2.6-4.5Z" style="fill:#fbbc04"/>
  <path d="m17.8 16.5-.2 1.3V53c0 .5 0 1 .2 1.3L37.3 35 17.8 16.5Z" style="fill:#4285f4"/>
  <path d="m36.8 35.4 9.8-9.7-21.2-12.3a5.1 5.1 0 0 0-7.6 3l19 19Z" style="fill:#34a853"/>
  <g class="st1">
    <path class="st5" d="M73 12.2h3.6a6 6 0 0 1 3 .7c.8.4 1.5 1.1 2 2 .4.8.6 1.7.6 2.8s-.2 2-.6 3a6 6 0 0 1-2 1.9c-.9.4-1.9.7-3 .7H73V12.2Zm3.5 9.4c1.3 0 2.2-.3 3-1s1-1.7 1-2.9-.4-2.1-1-2.8a4 4 0 0 0-3-1h-1.8v7.7h1.8Zm7.2-9.4h1.8v11h-1.8v-11Zm4.6 10.5a4.1 4.1 0 0 1-1.6-2.3l1.7-.6c.2.6.5 1 .9 1.5.4.3.9.5 1.5.5.5 0 1-.1 1.4-.4s.5-.7.5-1.2c0-.4-.1-.8-.5-1l-1.7-1-.7-.2-1.9-1.1c-.5-.5-.7-1.2-.7-2 0-.5.1-1 .4-1.5a3 3 0 0 1 1.2-1 4 4 0 0 1 1.9-.5 3.5 3.5 0 0 1 3.4 2.3l-1.5.7c-.1-.4-.4-.7-.7-1-.3-.2-.7-.4-1.2-.4s-1 .2-1.3.4c-.3.3-.5.6-.5 1s.2.7.5 1 .8.4 1.4.7l.7.2c1 .3 1.7.8 2.2 1.3.5.5.8 1.2.8 2.1 0 .7-.2 1.3-.6 1.8s-.8.9-1.4 1.1a4 4 0 0 1-1.8.4 4 4 0 0 1-2.4-.8Z"/>
  </g>
  <g class="st1">
    <path class="st5" d="M96 12.2h3.9a3.7 3.7 0 0 1 3 1.6 3.1 3.1 0 0 1 .1 3.5c-.3.5-.8 1-1.3 1.2s-1.2.5-1.8.5h-2.2v4.3H96V12.2Zm3.9 5.1c.4 0 .7 0 1-.2.2-.2.5-.4.6-.7l.2-.8a1.7 1.7 0 0 0-.8-1.5 2 2 0 0 0-1-.2h-2.2v3.5h2.2Z"/>
  </g>
  <g class="st1">
    <path class="st5" d="M107 22.8a5.3 5.3 0 0 1-2.2-2.1 6.6 6.6 0 0 1 0-5.9c.4-.9 1.2-1.6 2.1-2.1a5.8 5.8 0 0 1 8.7 5c0 1-.3 2-.8 3s-1.1 1.5-2 2-1.9.8-3 .8-2-.2-2.9-.7Zm4.8-1.5a4 4 0 0 0 1.5-1.4c.3-.6.5-1.4.5-2.2s-.2-1.5-.5-2.1a3.9 3.9 0 0 0-3.5-2 4 4 0 0 0-3.4 2 4.3 4.3 0 0 0 0 4.3c.3.6.8 1 1.4 1.4s1.3.6 2 .6 1.4-.2 2-.6Zm5.2-9.1h2.1l5 8v-8h1.7v11H124l-5.2-8.4v8.5h-1.7V12.2Zm4.9-1-.7-.4-.2-.1-.3-.1c-.3 0-.5.2-.5.5H119c0-.6.2-1 .6-1.4.3-.3.7-.5 1.2-.5l.6.1.7.4h.2l.3.2c.3 0 .5-.2.5-.5h1.3c0 .6-.2 1-.6 1.4s-.7.5-1.2.5l-.6-.1Zm6.1 1h1.6v11H128v-11Zm3.7 0h4.2a3.4 3.4 0 0 1 2.8 1.4c.3.5.4 1 .4 1.5s-.1 1-.4 1.5c-.3.4-.6.7-1 .9.5.3 1 .6 1.3 1s.5 1 .5 1.6-.2 1.2-.5 1.7-.7.8-1.3 1-1 .5-1.7.5h-4.3V12.2Zm4 4.6c.6 0 1-.1 1.3-.4s.4-.7.4-1-.1-.9-.4-1.2-.7-.4-1.1-.4h-2.5v3h2.4Zm.4 4.9c.5 0 1-.2 1.2-.5.3-.4.5-.7.5-1.2s-.2-.8-.5-1.1c-.3-.4-.8-.5-1.3-.5h-2.6v3.2h2.6Zm4.9-9.5h1.7v9.4h4.8v1.7H141V12.2Zm7.7 0h6.8v1.7h-5v3h4.5v1.7h-4.5v3h5v1.7h-6.8V12.2Zm11.6 0h6.8v1.7h-5v3h4.5v1.7H162v3h5v1.7h-6.8V12.2Zm8.4 0h2l5 8h.1v-8h1.7v11h-1.8l-5.2-8.4h-.1v8.5h-1.7V12.2Z"/>
  </g>
</svg>
