<svg id="artwork" xmlns="http://www.w3.org/2000/svg" version="1.1" viewBox="0 0 239 70.9">
  <defs>
    <style>
      .st5{fill:#fff}
    </style>
  </defs>
  <rect x="-.1" width="239.2" height="70.9" rx="8.9" ry="8.9"/>
  <path class="st5" d="M120.6 38.5c-4.1 0-7.5 3.2-7.5 7.6s3.4 7.5 7.5 7.5 7.6-3.2 7.6-7.5-3.4-7.6-7.6-7.6Zm0 12.1c-2.3 0-4.2-1.8-4.2-4.5s2-4.6 4.2-4.6 4.3 1.9 4.3 4.6-2 4.5-4.3 4.5Zm-16.5-12c-4.2 0-7.6 3.1-7.6 7.5s3.4 7.5 7.6 7.5 7.6-3.2 7.6-7.5-3.4-7.6-7.6-7.6Zm0 12c-2.3 0-4.3-1.8-4.3-4.5s2-4.6 4.3-4.6 4.3 1.9 4.3 4.6-2 4.5-4.3 4.5Zm-19.6-9.8V44H92a6.6 6.6 0 0 1-1.7 4 7.8 7.8 0 0 1-6 2.4 8.4 8.4 0 0 1-8.3-8.5 8.4 8.4 0 0 1 14.1-6.2l2.3-2.3c-2-1.8-4.5-3.2-8-3.2-6.5 0-12 5.3-12 11.7s5.5 11.7 12 11.7c3.5 0 6-1 8.1-3.2 2.1-2.1 2.8-5.1 2.8-7.5 0-.8 0-1.5-.2-2H84.5Zm80.3 2.5c-.7-1.6-2.6-4.8-6.5-4.8s-7.1 3-7.1 7.6c0 4.2 3.2 7.5 7.5 7.5 3.4 0 5.4-2.1 6.3-3.3l-2.6-1.8c-.9 1.3-2 2.1-3.7 2.1s-3-.7-3.7-2.3l10.1-4.1-.3-.9ZM154.4 46a4 4 0 0 1 3.9-4.4c1.3 0 2.4.6 2.8 1.6l-6.7 2.8Zm-8.2 7.3h3.3V31h-3.3v22.1Zm-5.4-13h-.1a5.2 5.2 0 0 0-4-1.7c-3.8 0-7.3 3.3-7.3 7.6s3.5 7.5 7.3 7.5c1.8 0 3.2-.8 4-1.7v1c0 3-1.5 4.5-4 4.5-2 0-3.2-1.4-3.8-2.7l-2.8 1.2c.8 2 3 4.5 6.6 4.5 4 0 7.2-2.3 7.2-7.9V39h-3.1v1.2ZM137 50.6c-2.3 0-4.2-1.9-4.2-4.5s1.9-4.6 4.2-4.6 4 2 4 4.6-1.8 4.5-4 4.5ZM180.3 31h-8v22.1h3.4v-8.4h4.6c3.7 0 7.2-2.6 7.2-6.8S184 31 180.3 31Zm0 10.7h-4.7V34h4.7c2.5 0 4 2 4 3.8s-1.5 3.8-4 3.8Zm20.5-3.2c-2.4 0-4.9 1-6 3.4l3 1.2c.6-1.2 1.8-1.6 3-1.6 1.7 0 3.5 1 3.5 2.8v.3c-.6-.4-1.9-.9-3.5-.9-3.1 0-6.3 1.7-6.3 5 0 3 2.6 4.8 5.5 4.8 2.2 0 3.4-1 4.2-2.1V53h3.3v-8.5c0-4-3-6.1-6.7-6.1Zm-.4 12.1c-1.1 0-2.6-.5-2.6-1.8 0-1.7 1.9-2.4 3.5-2.4 1.4 0 2.1.3 3 .7a4 4 0 0 1-4 3.5ZM219 39l-3.8 9.6-4-9.6h-3.6l6 13.4-3.4 7.5h3.4l9.1-21H219Zm-29.7 14h3.4V31h-3.3v22.1Z"/>
  <path d="m36.6 34.4-18.9 20a5 5 0 0 0 7.6 3l21.2-12.2-10-10.8h.1Z" style="fill:#ea4335"/>
  <path d="m55.7 31-9.2-5.3-10.3 9.2 10.3 10.3 9.2-5.2c1.6-1 2.6-2.6 2.6-4.5s-1-3.6-2.6-4.5Z" style="fill:#fbbc04"/>
  <path d="m17.7 16.4-.1 1.4V53l.1 1.3L37.2 35 17.7 16.4Z" style="fill:#4285f4"/>
  <path d="m36.7 35.4 9.8-9.7-21.2-12.3a5.1 5.1 0 0 0-7.6 3l19 19Z" style="fill:#34a853"/>
  <path class="st5" d="m75.5 23-1.3-1a5 5 0 0 1-1-1.3 3 3 0 0 1 0-2.5c0-.3.3-.5.5-.8l1.2-.6 2.1-.2h1.8v1.2h-2.9l-.8.2-.4.2c-.2.1-.3.3-.3.5l-.2.6c0 .3.1.7.3 1l.7 1 1.1 1-.8.9Zm5.2.3a4 4 0 0 1-1-.2c-.4 0-.6-.2-.8-.4l-.4-.7v-8l1.1.1v6.8l.1.6.1.4.5.2h.7l-.1 1.2h-.2Zm-2.2-10-.6-1.6-.7-1-1-.2H76l-.5.1-.3-1 .6-.2h.6c.4 0 .7 0 1 .2.3 0 .6.3.9.5.3.3.5.7.7 1.2l.6 2h-1Zm4.8 6.7-.6-.2a2 2 0 0 1-.6-.6l-.4-.6-.2-.7c0-.2 0-.5.2-.6l.7-.2h5v1h-3.3v1c0 .3 0 .5-.2.6-.2.2-.4.2-.6.2Zm5.9 3.3a4 4 0 0 1-1-.2c-.3 0-.6-.2-.8-.4L87 22l-.1-1v-7h1.2v7.5l.2.3c.1.2.3.3.5.3h.7l-.1 1.2h-.2Zm-2.2-10c-.3-.7-.4-1.2-.7-1.6l-.6-1-1-.2h-.4l-.4.1-.4-1 .7-.2h.6c.3 0 .7 0 1 .2.3 0 .6.3.9.5l.7 1.2.6 2h-1Zm12 8.4-1.4-.2-1.2-.7-1-1.3.4-1c.5 0 1-.2 1.4-.6s.6-.8.6-1.3-.1-.9-.4-1.1c-.3-.3-.7-.4-1.4-.4a4.5 4.5 0 0 0-1.5.3l-.4-1a5.5 5.5 0 0 1 2-.5c.6 0 1.2.1 1.6.3s.8.6 1 1 .4.9.4 1.4-.2 1.1-.5 1.6-.8.8-1.4 1-1.1.4-1.8.4l-.7-.1-.4-.4-.1-.5c0-.2 0-.3.2-.5l.7-.2c.3 0 .6 0 .8.2l.6.6.3.6c.1.4.4.7.8 1l1.3.2 1-.1.6-.5c.3-.3.5-.6.5-1l.2-1.4v-1.2l1.2.2v1.3c0 .9-.1 1.6-.4 2.1-.3.6-.7 1-1.3 1.3s-1 .5-1.7.5Zm4.3-2-.7-.1-.7-.5-.6-1 1-.3c0 .3.2.5.4.6.1.2.4.2.6.2.4 0 .7 0 1-.3l.7-.8.3 1.3-.8.7a2 2 0 0 1-1.2.3Zm3.6 3.6a4 4 0 0 1-1.1-.2c-.3 0-.5-.2-.7-.4l-.4-.7-.1-1v-7l1.2.1v7.4l.2.4.5.2h.7l-.2 1.2h-.1Zm4.1 0a4 4 0 0 1-1.1-.2c-.3 0-.5-.2-.7-.4l-.4-.7-.1-1v-7l1.2.1v7.4l.2.4.5.2h.7l-.1 1.2h-.2Zm2.6-3.3-.6-.2-.6-.6-.4-.6-.2-.7c0-.2 0-.5.2-.6l.7-.2h5v1h-3.3v1c0 .3 0 .5-.2.6-.2.2-.4.2-.6.2Zm5.9 3.3a4 4 0 0 1-1-.2c-.4 0-.6-.2-.8-.4l-.4-.7-.1-1v-7h1.2v7.5l.2.3c.1.2.3.3.5.3h.7l-.1 1.2h-.2Zm4.1 0c-.4 0-.8 0-1.1-.2l-.7-.4-.4-.7-.1-1v-7h1.2v7.5l.3.4.4.2h.7l-.1 1.2h-.2Zm8.5-2.5a2.8 2.8 0 0 1-1.9-.7l-.5-.9c-.2-.3-.2-.8-.2-1.4v-2l-.2-.3-.5-.2h-.7l.1-1.2h.2l1.1.1.7.5.4.6v2.4l.2 1 .3.6.5.3h.6c.4 0 .8 0 1.2-.3l.9-.7V20l-1 .6-1.2.1Zm4.3 2.5c-.4 0-.8 0-1-.2l-.8-.4-.4-.7v-8l1.2.1v7.4l.1.4.6.2h.6l-.1 1.2h-.2Zm6.8 0c-.5 0-1-.1-1.5-.4l-1.3-.8-1-1.1-.8-1.2.2-.6c.4 0 .9-.2 1.3-.4l1.1-.7c.3-.4.5-.8.5-1.3 0-.6-.2-1-.5-1.3a2 2 0 0 0-1.4-.5l-1.1.1-1 .4-.4-1a7.2 7.2 0 0 1 2.5-.6c.6 0 1.2.1 1.6.3.5.2.9.6 1.2 1 .2.4.4 1 .4 1.6 0 .5-.2 1-.4 1.5-.3.4-.6.8-1 1l-1.4.8a4 4 0 0 1-1.5.2c-.5 0-.8 0-1-.2s-.4-.4-.4-.7c0-.3 0-.5.2-.6l.7-.2c.2 0 .6 0 .8.2.3 0 .6.3 1 .6h-.3l1.3 1.7c.3.4.8.6 1.2.8s.7.2 1.2.2h.2l-.1 1.1h-.3Zm6.6-4.7v-2.8l-.2-.3-.5-.2h-.7l.2-1.2h.1l1.2.1c.4.1.5.3.7.5l.2.4.2.5v3h-1.2Zm.5 2.3c-.2 0-.4 0-.6-.2-.2 0-.4-.2-.6-.4l-.4-.7-.2-.6.2-.4c.2-.2.4-.2.7-.2h5v1.1H151v.4c0 .4 0 .6-.2.8l-.5.2Zm6.3 2.4a4 4 0 0 1-1.2-.2c-.3 0-.5-.2-.7-.4l-.3-.7-.2-1v-7l1.3.1v7.4l.2.4c0 .1.2.2.5.2h.6l-.1 1.2h-.2Zm-2.3-10-.6-1.6c-.2-.5-.4-.8-.7-1s-.5-.2-.9-.2h-.4l-.4.1-.4-1 .7-.2h.6c.3 0 .7 0 1 .2l.8.5.8 1.2c.3.5.4 1.2.6 2h-1.1Zm13.9 10c-.5 0-.8 0-1.1-.2l-.7-.4-.4-.7-.1-1v-4l-.1-1a1 1 0 0 0-.3-.5 1 1 0 0 0-.8-.3h-.4a1 1 0 0 0-.3.3c-.1.1-.3.3-.3.5v1.4l-.2 1.7a2.3 2.3 0 0 1-1.5 1.8l-1.3.2c-.6 0-1.1-.1-1.6-.4s-.8-.7-1-1.1a3.7 3.7 0 0 1 0-3.5c.2-.5.5-1 1-1.3s1.1-.7 1.9-.9l.3 1.1c-.9.3-1.5.7-1.9 1.2s-.5 1-.5 1.6c0 .5 0 1 .2 1.3l.7.6c.3.2.6.2.9.2l.8-.1.5-.4.3-.6v-2l.2-1.1c0-.4.2-.8.6-1.1l.7-.4 1-.2c.3 0 .5 0 .8.2.3 0 .5.2.7.4.3.2.5.5.6.8l.2 1.3v4.8l.1.3.5.3h.7l-.1 1.1h-.2Zm4.2-2.5c-.6 0-1.2-.1-1.6-.4a2.6 2.6 0 0 1-1.5-2.5c0-.6.1-1.2.4-1.6s.7-.8 1.2-1a4.7 4.7 0 0 1 2.5-.3h.7l-.1 1.2-.6-.1h-.7c-.6 0-1.2 0-1.6.4s-.5.8-.5 1.4.1 1 .5 1.3.8.4 1.3.4c.6 0 1 0 1.4-.3.4-.1.8-.4 1.2-.8V20l-1 .5c-.5.2-1 .2-1.6.2Zm4.7 2.5c-.4 0-.8 0-1-.2-.4 0-.6-.2-.8-.4l-.4-.7v-8l1.2.1v7.4c0 .1 0 .3.2.4 0 .1.2.2.5.2h.6l-.1 1.2h-.2Zm1.9-10-.6-1.6c-.2-.5-.4-.8-.7-1s-.5-.2-.9-.2h-.4l-.4.1-.4-1 .7-.2h.6c.3 0 .7 0 1 .2l.8.5.8 1.2.6 2H179Zm2.2 10c-.4 0-.8 0-1-.2l-.8-.4a1 1 0 0 1-.3-.7l-.2-1v-7h1.3v7.5l.2.4.5.2h.6v1.2h-.3Z" style="isolation:isolate"/>
</svg>
