<svg width="180" height="54" fill="none" xmlns="http://www.w3.org/2000/svg">
  <path d="M173.33 54H6.67A6.73 6.73 0 0 1 0 47.25V6.75C0 3.04 3 0 6.67 0h166.66A6.73 6.73 0 0 1 180 6.75v40.5c0 3.71-3 6.75-6.67 6.75Z" fill="#000"/>
  <path d="m27.63 26.22-14.2 15.26a3.84 3.84 0 0 0 5.65 2.35l.05-.03 15.97-9.33-7.48-8.25Z" fill="#EA4335"/>
  <path d="m41.98 23.63-.01-.02-6.9-4.05-7.77 7 7.8 7.9 6.86-4a3.89 3.89 0 0 0 2.02-3.43c0-1.47-.8-2.75-2-3.4Z" fill="#FBBC04"/>
  <path d="M13.43 12.52a3.7 3.7 0 0 0-.13 1v26.96c0 .35.04.68.13 1L28.1 26.62l-14.68-14.1Z" fill="#4285F4"/>
  <path d="m27.73 27 7.34-7.44-15.96-9.37a3.85 3.85 0 0 0-5.69 2.33L27.73 27Z" fill="#34A853"/>
  <path d="M131.52 26.67h2.17V12.1h-2.17v14.57Zm19.59-9.32-2.5 6.31h-.07l-2.59-6.31h-2.34l3.88 8.82-2.21 4.91h2.26l5.99-13.73h-2.42ZM138.77 25c-.7 0-1.7-.35-1.7-1.24 0-1.12 1.24-1.55 2.3-1.55.96 0 1.4.2 1.99.49a2.64 2.64 0 0 1-2.59 2.3Zm.27-7.98c-1.58 0-3.2.69-3.88 2.23l1.93.8c.4-.8 1.18-1.07 1.98-1.07 1.13 0 2.27.68 2.29 1.88v.15a4.8 4.8 0 0 0-2.27-.56c-2.08 0-4.2 1.14-4.2 3.28 0 1.95 1.7 3.2 3.62 3.2 1.46 0 2.27-.65 2.78-1.42h.07v1.12h2.1v-5.58c0-2.59-1.93-4.03-4.42-4.03Zm-13.44 2.09h-3.1v-5h3.1a2.52 2.52 0 0 1 2.55 2.5c0 1.13-.93 2.5-2.55 2.5Zm-.06-7.02h-5.21v14.57h2.17v-5.52h3.04c2.41 0 4.78-1.75 4.78-4.53 0-2.78-2.37-4.52-4.78-4.52ZM97.13 25c-1.5 0-2.76-1.25-2.76-2.98 0-1.75 1.25-3.02 2.76-3.02 1.48 0 2.64 1.27 2.64 3.02 0 1.73-1.16 2.98-2.64 2.98Zm2.5-6.85h-.08a3.43 3.43 0 0 0-2.61-1.1 4.93 4.93 0 0 0-4.75 4.97 4.9 4.9 0 0 0 4.75 4.94c1.18 0 2.12-.53 2.6-1.13h.08v.71c0 1.9-1.01 2.91-2.64 2.91a2.74 2.74 0 0 1-2.5-1.76l-1.9.79c.55 1.31 2 2.93 4.4 2.93 2.55 0 4.7-1.5 4.7-5.17v-8.9h-2.06v.81Zm3.56 8.5h2.18V12.1h-2.18v14.57Zm5.39-4.8a2.72 2.72 0 0 1 2.59-2.9c.86 0 1.6.44 1.84 1.06l-4.43 1.84Zm6.76-1.65c-.42-1.11-1.67-3.16-4.25-3.16-2.55 0-4.67 2.01-4.67 4.96 0 2.78 2.1 4.96 4.92 4.96a4.93 4.93 0 0 0 4.13-2.2l-1.69-1.13a2.83 2.83 0 0 1-2.44 1.37c-1.1 0-1.9-.5-2.4-1.5l6.62-2.74-.22-.56Zm-52.8-1.64v2.1h5.03a4.39 4.39 0 0 1-1.15 2.65 5.15 5.15 0 0 1-3.89 1.54c-3.1 0-5.52-2.5-5.52-5.6a5.52 5.52 0 0 1 9.32-4.08l1.48-1.49a7.34 7.34 0 0 0-5.28-2.12 7.8 7.8 0 0 0-7.8 7.7 7.8 7.8 0 0 0 7.8 7.7c2.3 0 4.02-.75 5.37-2.16a6.95 6.95 0 0 0 1.82-4.92c0-.49-.03-.94-.1-1.32h-7.09ZM75.44 25c-1.5 0-2.8-1.23-2.8-3 0-1.78 1.3-3 2.8-3 1.5 0 2.8 1.22 2.8 3 0 1.77-1.3 3-2.8 3Zm0-7.96A4.89 4.89 0 0 0 70.47 22a4.9 4.9 0 0 0 4.98 4.96A4.9 4.9 0 0 0 80.42 22a4.89 4.89 0 0 0-4.97-4.96ZM86.3 25c-1.5 0-2.8-1.23-2.8-3 0-1.78 1.3-3 2.8-3 1.5 0 2.8 1.22 2.8 3 0 1.77-1.3 3-2.8 3Zm0-7.96A4.89 4.89 0 0 0 81.32 22a4.9 4.9 0 0 0 4.98 4.96A4.9 4.9 0 0 0 91.28 22a4.89 4.89 0 0 0-4.98-4.96Zm-26.34 26.2c-.51.34-1.09.5-1.72.5a2.5 2.5 0 0 1-1.17-.26 2 2 0 0 1-.8-.77 3 3 0 0 1-.31-1.49v-1.2c0-.34-.04-.58-.1-.7a.55.55 0 0 0-.33-.28 2.49 2.49 0 0 0-.72-.07l.1-.97h.14c.38 0 .7.04.95.13.25.08.44.2.6.34.14.14.25.32.32.54.07.22.1.54.1.97v1.14c0 .63.1 1.07.31 1.3.2.24.54.36 1.03.36.27 0 .54-.06.82-.18.28-.12.54-.3.78-.52v-4.23l1.07.15v5.86c0 .28.02.48.06.6l.17.28c.08.07.19.11.33.14.14.03.34.04.6.04l-.11.97h-.14c-.5 0-.89-.08-1.19-.23-.3-.15-.5-.35-.62-.62a2.98 2.98 0 0 1-.17-1.13v-.67Z" fill="#fff"/>
  <path d="m59.96 43.24-.07-.11c-.5.32-1.04.48-1.65.48-.42 0-.8-.08-1.1-.25-.32-.16-.57-.4-.76-.72a2.86 2.86 0 0 1-.29-1.42v-1.2c0-.35-.03-.6-.12-.77a.69.69 0 0 0-.4-.33 2.57 2.57 0 0 0-.76-.08v.13l.13.01.1-.85c.39 0 .69.04.92.12.23.08.4.19.54.31.13.13.23.3.3.5l.12-.05-.13.04c.07.2.1.51.1.93v1.14c0 .65.1 1.1.34 1.39.24.28.62.4 1.13.4a2.54 2.54 0 0 0 1.69-.73l.05-.04V38l.8.1v5.75c0 .29.01.5.06.64v.02l.19.29v.02l.02.01c.1.09.24.14.4.17.15.03.36.04.61.04v-.13l-.13-.01-.1.84c-.49 0-.87-.07-1.14-.2a1.1 1.1 0 0 1-.55-.56c-.1-.24-.16-.6-.16-1.08v-.92l-.2.14.06.11h-.13v.67c0 .5.06.89.18 1.18.13.3.36.53.68.7.33.16.74.23 1.25.23h.26l.12-1.09.01-.14h-.15a3.6 3.6 0 0 1-.56-.04.55.55 0 0 1-.27-.11l-.1.1.12-.07-.17-.28-.11.07.12-.04c-.03-.1-.05-.28-.05-.56v-5.98l-1.33-.18v4.38h.13l-.09-.1c-.23.22-.48.38-.74.5-.27.11-.53.17-.77.17-.47 0-.76-.11-.93-.31-.16-.2-.27-.6-.27-1.22v-1.14c0-.44-.03-.77-.11-1.01s-.2-.44-.37-.6a1.68 1.68 0 0 0-.64-.37 3.1 3.1 0 0 0-1-.14h-.25l-.13 1.24h.15c.33 0 .56.03.68.07l.25.2c.05.1.09.32.09.65v1.2c0 .66.1 1.18.32 1.55.21.37.5.64.86.83.36.19.77.28 1.23.28a3.2 3.2 0 0 0 1.8-.53l-.08-.11Zm7.4 2.65c-.66 0-1.27-.2-1.82-.57a6.7 6.7 0 0 1-1.7-2l-.35.01c-.41 0-.72-.06-.92-.19-.2-.12-.3-.33-.3-.62 0-.2.07-.37.22-.49a.89.89 0 0 1 .58-.18c.22 0 .41.03.58.1.17.06.33.16.5.27.6-.13 1.06-.36 1.4-.68.33-.33.5-.72.5-1.17 0-.5-.15-.87-.44-1.14-.3-.27-.7-.4-1.22-.4a4.12 4.12 0 0 0-1.79.41l-.34-.92a5.47 5.47 0 0 1 2.16-.47c.85 0 1.52.23 2 .67.48.44.72 1.06.72 1.86 0 .63-.2 1.18-.6 1.66-.41.48-.97.84-1.68 1.07.34.49.64.85.9 1.1.26.25.51.42.76.52.25.1.55.16.9.16h.26l-.11 1h-.21Z" fill="#fff"/>
  <path d="M67.36 45.89v-.14c-.64 0-1.21-.17-1.74-.54a6.54 6.54 0 0 1-1.66-1.96l-.04-.07h-.08l-.35.02c-.4 0-.68-.07-.85-.17-.16-.1-.24-.25-.24-.5 0-.18.05-.3.17-.4.12-.1.28-.15.5-.15.2 0 .38.03.53.09.16.06.31.15.46.26l.05.04.06-.02a2.99 2.99 0 0 0 1.47-.72c.36-.34.54-.77.54-1.26 0-.52-.16-.94-.48-1.24-.32-.3-.77-.43-1.3-.43a4.19 4.19 0 0 0-1.86.42l.06.12.13-.04-.34-.92-.13.04.05.13a5.28 5.28 0 0 1 2.1-.46c.84 0 1.47.21 1.92.63.45.41.68.99.68 1.76 0 .6-.19 1.12-.58 1.58-.38.46-.92.8-1.61 1.03l-.17.05.1.15c.35.49.65.86.92 1.11.27.26.53.45.8.56.27.1.59.16.95.16h.11l-.08.73h-.1v.27h.34l.13-1.12.01-.15h-.41c-.34 0-.62-.05-.85-.14-.23-.1-.47-.26-.72-.5-.24-.24-.54-.6-.88-1.07l-.11.07.04.13a3.72 3.72 0 0 0 1.74-1.11c.42-.5.64-1.1.64-1.75 0-.82-.25-1.49-.77-1.96a2.99 2.99 0 0 0-2.1-.7 5.6 5.6 0 0 0-2.2.48l-.12.05.44 1.17.13-.06a3.97 3.97 0 0 1 1.73-.4c.5 0 .87.13 1.13.37.26.24.39.57.4 1.04-.01.42-.16.77-.47 1.07-.3.3-.75.52-1.34.65l.03.13.08-.1a2.44 2.44 0 0 0-.52-.3c-.18-.07-.4-.1-.63-.1-.26 0-.5.06-.67.2a.75.75 0 0 0-.27.6c0 .32.12.59.37.73.24.15.56.21.99.21h.36v-.14l-.12.07a6.8 6.8 0 0 0 1.74 2.04c.56.4 1.2.6 1.89.6v-.14Zm10.04-3.26h-2.8v.51c0 .26-.05.47-.17.61a.57.57 0 0 1-.47.22c-.2 0-.44-.09-.7-.28a2.47 2.47 0 0 1-.64-.7 1.44 1.44 0 0 1-.25-.73.5.5 0 0 1 .2-.44c.14-.1.35-.15.61-.15h.36v-1.65c0-.35-.04-.58-.1-.71a.55.55 0 0 0-.33-.27 2.48 2.48 0 0 0-.72-.08l.1-.97h.14c.38 0 .7.04.95.13.24.08.44.2.59.34.15.14.26.33.33.54.07.22.1.55.1.97v1.7h2.8v-3.82l1.06.15v5.86c0 .28.02.48.05.6l.18.28c.08.07.19.11.33.14.14.03.34.04.6.04l-.11.97h-.14c-.5 0-.9-.08-1.19-.23-.3-.15-.5-.35-.62-.62a2.98 2.98 0 0 1-.17-1.13v-1.28Z" fill="#fff"/>
  <path d="M77.4 42.63v-.13h-2.93v.64c0 .24-.05.41-.14.53-.1.12-.2.17-.37.17-.17 0-.37-.08-.62-.26-.24-.17-.44-.4-.6-.66a1.32 1.32 0 0 1-.24-.66c0-.16.05-.25.15-.33a.9.9 0 0 1 .53-.13h.5v-1.78a1.9 1.9 0 0 0-.13-.78.7.7 0 0 0-.4-.33 2.57 2.57 0 0 0-.76-.08v.13l.13.02.09-.85h.02c.37 0 .68.04.9.11a1.24 1.24 0 0 1 .85.81l.12-.05-.13.04c.07.2.1.51.1.93v1.83h3.06V38l.8.11v5.75c0 .29.01.5.06.64v.02l.18.29.01.02.02.01c.1.09.24.14.4.17.15.03.36.04.61.04v-.13l-.13-.01-.1.84c-.49 0-.87-.07-1.14-.2a1.1 1.1 0 0 1-.56-.56c-.1-.24-.15-.6-.15-1.08V42.5h-.14v.13h-.13v1.28c0 .5.05.89.18 1.18.12.3.36.53.68.7.33.16.74.23 1.25.23h.26l.11-1.09.02-.14h-.15c-.24 0-.44-.02-.57-.04a.55.55 0 0 1-.26-.11l-.1.1.12-.07-.17-.28-.12.07.13-.04c-.03-.1-.05-.28-.05-.56v-5.98l-1.33-.18v3.84h-2.52v-1.57c0-.43-.04-.76-.11-1-.08-.24-.2-.45-.37-.6a1.7 1.7 0 0 0-.64-.38 3.2 3.2 0 0 0-1-.13h-.25l-.13 1.23h.15c.33 0 .56.03.68.07l.25.21c.05.09.09.31.08.65v1.52h-.22c-.28 0-.51.05-.68.18a.64.64 0 0 0-.27.54c0 .25.1.52.28.8.18.3.4.54.68.74.27.2.52.3.77.3a.7.7 0 0 0 .57-.26c.15-.18.2-.42.2-.7v-.37h2.66v-.14Zm0-5.29a5.88 5.88 0 0 0-.76-1.83 1.3 1.3 0 0 0-1.11-.59c-.24 0-.47.05-.69.13l-.31-.95c.35-.11.71-.16 1.07-.16.55 0 1 .13 1.33.39.33.26.6.65.83 1.16.22.51.42 1.13.59 1.85h-.95Z" fill="#fff"/>
  <path d="m77.4 37.34.13-.03a6 6 0 0 0-.78-1.88c-.3-.42-.72-.64-1.22-.64-.26 0-.5.05-.74.13l.05.13.13-.04-.32-.95-.12.04.04.13c.34-.1.68-.16 1.03-.16.53 0 .94.12 1.24.36.31.25.58.62.8 1.12.22.5.41 1.1.58 1.82l.13-.03v-.13h-.95v.26h1.12l-.04-.16c-.17-.73-.37-1.35-.6-1.87a3.05 3.05 0 0 0-.87-1.21 2.2 2.2 0 0 0-1.4-.43c-.38 0-.75.06-1.12.17l-.13.04.4 1.21.13-.05c.2-.07.41-.11.64-.11.42 0 .74.17 1 .53.27.37.52.97.74 1.79l.03.1h.1v-.14Zm9.43 3.26c0-.39-.02-.69-.06-.91a.91.91 0 0 0-.3-.55.88.88 0 0 0-.6-.2.89.89 0 0 0-.6.2.93.93 0 0 0-.3.52c-.04.22-.06.53-.06.93v.3c0 .53-.04.96-.1 1.32-.07.35-.2.66-.4.93-.19.27-.45.48-.78.64-.34.15-.75.23-1.24.23a2.5 2.5 0 0 1-1.91-.77 2.87 2.87 0 0 1-.73-2.07c0-.77.24-1.44.72-2.01.48-.57 1.2-1 2.15-1.3l.3.97a3.5 3.5 0 0 0-1.54.92c-.36.39-.54.88-.54 1.47 0 .6.14 1.04.41 1.36.27.31.65.47 1.13.47.27 0 .5-.04.67-.11a1.17 1.17 0 0 0 .7-.85c.06-.21.09-.53.09-.95v-.7c0-.63.07-1.1.22-1.41.14-.31.37-.56.68-.75.3-.19.68-.28 1.14-.28.43 0 .8.09 1.1.27.3.17.53.41.68.71.16.3.24.73.24 1.28v3.6c0 .28.02.48.06.6l.17.28c.08.07.19.11.33.14.14.03.34.04.6.04l-.11.97h-.14c-.5 0-.89-.08-1.19-.23-.3-.15-.5-.35-.62-.62a2.99 2.99 0 0 1-.17-1.13V40.6Z" fill="#fff"/>
  <path d="M86.83 40.6h.14c0-.4-.03-.7-.07-.94a1.05 1.05 0 0 0-.35-.62 1.02 1.02 0 0 0-.67-.23c-.27 0-.5.07-.69.23-.18.16-.3.36-.35.6a5.6 5.6 0 0 0-.07.95v.3c0 .52-.03.95-.1 1.3a1.92 1.92 0 0 1-1.1 1.47c-.31.14-.7.21-1.18.21-.76 0-1.35-.24-1.81-.72a2.75 2.75 0 0 1-.7-1.98c0-.74.23-1.38.7-1.92a4.44 4.44 0 0 1 2.08-1.27l-.04-.13-.13.04.31.98.13-.04-.04-.13c-.7.22-1.24.54-1.61.96-.38.41-.57.94-.57 1.56 0 .61.14 1.1.44 1.45.3.34.72.52 1.23.51.28 0 .52-.04.73-.12a1.3 1.3 0 0 0 .78-.94c.06-.23.08-.55.08-.98v-.7c0-.62.08-1.08.2-1.36.14-.28.35-.5.64-.69a2 2 0 0 1 1.07-.26c.41 0 .75.09 1.03.25.28.17.49.39.64.67.14.27.22.67.22 1.2v3.61c0 .29.01.5.06.64v.02l.19.29v.02l.02.01c.1.09.24.14.4.17.15.03.36.04.61.04v-.13l-.13-.01-.09.84h-.02c-.48 0-.86-.07-1.13-.2a1.1 1.1 0 0 1-.55-.56c-.1-.24-.16-.6-.16-1.08V40.6h-.27v3.3c0 .5.06.9.18 1.2.13.29.36.52.68.68.33.17.74.24 1.25.24h.26l.12-1.09.01-.14h-.15c-.24 0-.44-.02-.57-.04a.55.55 0 0 1-.26-.11l-.1.1.12-.07-.17-.28-.11.07.12-.04c-.03-.1-.05-.28-.05-.56v-3.6a3 3 0 0 0-.25-1.34 1.93 1.93 0 0 0-.74-.77c-.32-.2-.71-.29-1.16-.29-.47 0-.88.1-1.21.3-.33.2-.58.48-.73.8a3.6 3.6 0 0 0-.23 1.48v.7c0 .42-.03.73-.08.92a1.03 1.03 0 0 1-.63.76c-.16.06-.36.1-.62.1a1.3 1.3 0 0 1-1.03-.43c-.24-.28-.37-.7-.37-1.27 0-.56.16-1.02.5-1.38a3.3 3.3 0 0 1 1.49-.89l.12-.04-.34-1.1-.04-.12-.13.04a4.7 4.7 0 0 0-2.2 1.34c-.51.6-.76 1.3-.76 2.1a3 3 0 0 0 .76 2.16c.51.54 1.2.81 2.01.81.5 0 .94-.08 1.3-.24.34-.16.63-.4.83-.68.2-.29.35-.62.42-.99.07-.36.1-.8.1-1.33v-.31c0-.4.02-.7.06-.9l-.13-.03.13.03a.8.8 0 0 1 .26-.45c.13-.1.3-.16.52-.16.2 0 .37.05.5.17.13.11.22.26.26.46a5 5 0 0 1 .06.89h.13Zm7.05 2.54a3.49 3.49 0 0 1-2.12.6c-.78 0-1.42-.22-1.92-.68a2.29 2.29 0 0 1-.75-1.77c0-.8.27-1.42.8-1.9a3.1 3.1 0 0 1 2.12-.7 5.81 5.81 0 0 1 1.29.15l-.18.95a5.41 5.41 0 0 0-1.07-.12c-.6 0-1.06.14-1.39.42-.33.28-.5.68-.5 1.18 0 .48.15.85.43 1.11.28.27.67.4 1.15.4.42 0 .79-.06 1.11-.19a3.3 3.3 0 0 0 1.03-.7v-4.04l1.06.15v5.86c0 .28.02.48.06.6l.17.28c.08.07.19.11.33.14.15.03.35.04.6.04l-.1.97h-.14c-.5 0-.9-.08-1.2-.23-.3-.15-.5-.35-.61-.62a2.98 2.98 0 0 1-.17-1.13v-.77Z" fill="#fff"/>
  <path d="m93.88 43.14-.08-.12a3.35 3.35 0 0 1-2.04.6 2.6 2.6 0 0 1-1.83-.66c-.47-.43-.7-.97-.7-1.67 0-.76.25-1.35.75-1.8.5-.43 1.18-.66 2.03-.66a5.69 5.69 0 0 1 1.25.14l.04-.13-.13-.02-.18.94.13.03.03-.13a5.6 5.6 0 0 0-1.1-.12c-.61 0-1.12.14-1.48.45-.36.3-.54.75-.54 1.28 0 .5.15.92.47 1.21.3.3.73.44 1.24.44.43 0 .82-.07 1.16-.2.35-.14.7-.38 1.07-.72l.04-.04V38l.8.1v5.75c0 .29.02.5.06.64v.02l.19.29v.02l.02.01c.1.09.24.14.4.17.16.03.36.04.62.04v-.13l-.14-.01-.09.84h-.01c-.49 0-.86-.07-1.14-.2a1.1 1.1 0 0 1-.55-.56c-.1-.24-.16-.6-.16-1.08v-1.02l-.2.13.07.12h-.14v.77c0 .5.06.89.18 1.18.13.3.36.53.68.7.33.16.75.23 1.26.23h.25l.12-1.09.01-.14h-.14c-.25 0-.44-.02-.57-.04a.55.55 0 0 1-.27-.11l-.09.1.12-.07-.18-.28-.11.07.13-.04c-.03-.1-.05-.28-.05-.56v-5.98l-1.34-.18v4.2h.14l-.1-.1a3.2 3.2 0 0 1-.97.67c-.31.12-.67.18-1.07.18-.46 0-.8-.12-1.06-.36a1.33 1.33 0 0 1-.38-1.02c0-.48.15-.82.45-1.08.3-.25.72-.38 1.3-.38.32 0 .67.03 1.04.11l.14.03.22-1.2-.12-.04a5.01 5.01 0 0 0-1.32-.15c-.9 0-1.64.24-2.2.74-.57.5-.85 1.17-.85 2 0 .75.26 1.38.79 1.86.52.48 1.2.72 2.01.72a3.6 3.6 0 0 0 2.19-.63l-.07-.11Zm3.06-5.29L98 38v5.86c0 .28.02.48.05.6l.17.28c.08.07.2.11.34.14.14.03.34.04.59.04l-.1.97h-.14c-.5 0-.9-.08-1.2-.23-.3-.15-.5-.35-.61-.62a2.98 2.98 0 0 1-.17-1.13v-6.06Zm0-.5a5.95 5.95 0 0 0-.75-1.84 1.3 1.3 0 0 0-1.11-.59c-.25 0-.48.05-.7.13l-.3-.95c.35-.11.7-.16 1.07-.16.55 0 1 .13 1.32.39.33.26.61.65.84 1.16.22.51.42 1.13.59 1.85h-.95Z" fill="#fff"/>
  <path d="m96.94 37.85-.02.14.95.12v5.75c0 .29.02.5.07.64v.02l.18.29.01.02.02.01c.1.09.23.14.4.17.15.03.35.04.6.04v-.13l-.12-.01-.1.84h-.01c-.48 0-.86-.07-1.13-.2a1.1 1.1 0 0 1-.56-.56c-.1-.24-.16-.6-.16-1.08v-6.06h-.26v6.06c0 .5.05.89.18 1.18.12.3.36.53.68.7.32.16.74.23 1.25.23h.25l.12-1.09.02-.14h-.15c-.25 0-.44-.02-.57-.04a.55.55 0 0 1-.27-.11l-.09.1.12-.07-.17-.28-.12.07.13-.04a2.1 2.1 0 0 1-.05-.56v-5.98l-1.33-.18v.15h.13Zm0-.5.13-.04a6.05 6.05 0 0 0-.77-1.88c-.3-.42-.72-.64-1.22-.64-.26 0-.5.05-.74.13l.05.13.12-.04-.3-.95-.14.04.04.13c.35-.1.7-.16 1.04-.16.53 0 .94.12 1.24.36.31.25.58.62.8 1.12.21.5.4 1.1.58 1.82l.13-.03v-.13h-.95v.26h1.11l-.03-.16a11.1 11.1 0 0 0-.6-1.87 3.1 3.1 0 0 0-.87-1.21 2.2 2.2 0 0 0-1.41-.43c-.38 0-.75.06-1.12.17l-.12.04.4 1.21.12-.05c.2-.07.42-.11.65-.11.42 0 .74.17 1 .53.26.37.51.97.74 1.79l.02.1h.1v-.14Z" fill="#fff"/>
</svg>
