<svg width="180" height="54" fill="none" xmlns="http://www.w3.org/2000/svg">
  <path d="M173.3 54H6.7A6.7 6.7 0 0 1 0 47.2V6.8C0 3 3 0 6.7 0h166.6a6.7 6.7 0 0 1 6.7 6.8v40.5c0 3.7-3 6.7-6.7 6.7Z" fill="#000"/>
  <path d="M27.6 26.2 13.4 41.5a3.8 3.8 0 0 0 5.7 2.3l16-9.3-7.5-8.3Z" fill="#EA4335"/>
  <path d="m42 23.6-7-4-7.7 7 7.8 7.9 6.9-4a3.9 3.9 0 0 0 2-3.5 4 4 0 0 0-2-3.4Z" fill="#FBBC04"/>
  <path d="M13.4 12.5a3.7 3.7 0 0 0-.1 1v27l.1 1 14.7-14.9-14.7-14Z" fill="#4285F4"/>
  <path d="m27.7 27 7.4-7.4-16-9.4a3.9 3.9 0 0 0-5.7 2.3L27.7 27Z" fill="#34A853"/>
  <path d="M131.5 26.7h2.2V12h-2.2v14.6Zm19.6-9.3-2.5 6.3-2.6-6.3h-2.4l3.9 8.8-2.2 4.9h2.2l6-13.8h-2.4ZM138.8 25c-.7 0-1.7-.3-1.7-1.2 0-1.2 1.2-1.6 2.3-1.6 1 0 1.4.2 2 .5a2.6 2.6 0 0 1-2.6 2.3Zm.2-8c-1.5 0-3.2.7-3.8 2.2l1.9.9c.4-.9 1.2-1.1 2-1.1 1.1 0 2.2.7 2.3 1.9v.1a4.8 4.8 0 0 0-2.3-.6c-2 0-4.2 1.2-4.2 3.3 0 2 1.7 3.2 3.6 3.2a3 3 0 0 0 2.8-1.4v1.1h2.2V21c0-2.5-2-4-4.5-4Zm-13.4 2.1h-3.1v-5h3.1a2.5 2.5 0 0 1 2.6 2.5c0 1.1-1 2.5-2.6 2.5Zm0-7h-5.3v14.6h2.2V21h3c2.5 0 4.8-1.7 4.8-4.5S128 12 125.5 12ZM97 25c-1.5 0-2.7-1.3-2.7-3s1.2-3 2.7-3c1.5 0 2.7 1.3 2.7 3s-1.2 3-2.7 3Zm2.5-6.8a3.4 3.4 0 0 0-2.7-1.2 5 5 0 0 0-4.7 5 4.9 4.9 0 0 0 4.7 5c1.2 0 2.2-.6 2.6-1.2h.1v.7c0 2-1 3-2.6 3a2.7 2.7 0 0 1-2.5-1.8l-2 .8c.6 1.3 2 3 4.5 3s4.7-1.6 4.7-5.3v-8.9h-2v.8Zm3.6 8.4h2.2V12.1h-2.2v14.6Zm5.4-4.8a2.7 2.7 0 0 1 2.6-2.9c.8 0 1.6.5 1.8 1.1l-4.4 1.8Zm6.7-1.6c-.4-1.1-1.6-3.2-4.2-3.2s-4.7 2-4.7 5c0 2.8 2.1 5 5 5a5 5 0 0 0 4-2.2l-1.6-1.2a2.8 2.8 0 0 1-2.5 1.4c-1 0-1.9-.5-2.4-1.5l6.7-2.7-.3-.6Zm-52.8-1.6v2h5a4.4 4.4 0 0 1-1 2.7 5.2 5.2 0 0 1-4 1.5 5.5 5.5 0 0 1-5.5-5.6 5.5 5.5 0 0 1 9.3-4l1.5-1.5a7.3 7.3 0 0 0-5.3-2.1 7.8 7.8 0 0 0-7.8 7.7 7.8 7.8 0 0 0 7.8 7.7 7 7 0 0 0 5.4-2.2 7 7 0 0 0 1.8-5v-1.2h-7.2Zm13 6.4c-1.6 0-2.9-1.2-2.9-3s1.3-3 2.8-3c1.5 0 2.8 1.2 2.8 3s-1.3 3-2.8 3Zm0-8a4.9 4.9 0 0 0-5 5 4.9 4.9 0 0 0 5 5 4.9 4.9 0 0 0 5-5 4.9 4.9 0 0 0-5-5Zm10.8 8c-1.5 0-2.8-1.2-2.8-3s1.3-3 2.8-3c1.5 0 2.8 1.2 2.8 3s-1.3 3-2.8 3Zm0-8a4.9 4.9 0 0 0-5 5 4.9 4.9 0 0 0 5 5 4.9 4.9 0 0 0 5-5 4.9 4.9 0 0 0-5-5ZM60 43.2a3 3 0 0 1-1.8.5 2.5 2.5 0 0 1-1.1-.2 2 2 0 0 1-.8-.8 3 3 0 0 1-.3-1.5V40l-.1-.7a.6.6 0 0 0-.4-.3 2.5 2.5 0 0 0-.7 0l.1-1h.1l1 .1.6.4c.1.1.3.3.3.5l.1 1v1c0 .6.1 1 .3 1.3.2.3.6.4 1 .4.3 0 .6 0 .9-.2l.8-.5v-4.3l1 .2v6.5l.3.2.3.2h.6l-.1 1h-.2c-.5 0-.8 0-1.1-.2L60 45a3 3 0 0 1-.1-1v-.8Z" fill="#fff"/>
  <path d="M60 43.2h-.1a3 3 0 0 1-1.7.4c-.4 0-.8 0-1-.2-.4-.2-.6-.4-.8-.8a2.9 2.9 0 0 1-.3-1.4V40l-.1-.8a.7.7 0 0 0-.4-.3 2.6 2.6 0 0 0-.8 0h.1l.1-.8 1 .1.5.4.3.5h.1-.1v2c0 .7.2 1.1.4 1.4.3.3.7.4 1.2.4a2.5 2.5 0 0 0 1.7-.7V38l.8.1v6.4l.3.3.4.2h.6l-.1-.1-.1.8c-.5 0-1 0-1.2-.2a1.1 1.1 0 0 1-.5-.5 3 3 0 0 1-.2-1.1v-1l-.2.2v.9l.1 1.2c.1.3.4.5.7.7l1.2.2h.3l.1-1v-.2h-.1a3.6 3.6 0 0 1-.6 0 .6.6 0 0 1-.3-.2v.1l-.1-.3h-.1.1V38l-1.4-.2V42h.2l-.1-.1-.8.5a2 2 0 0 1-.7.1c-.5 0-.8 0-1-.3l-.2-1.2v-1c0-.5 0-.8-.2-1l-.3-.6a1.7 1.7 0 0 0-.7-.4 3.1 3.1 0 0 0-1-.1h-.2l-.1 1.2h.8l.2.3.1.6v1.2c0 .7.1 1.2.3 1.6.3.3.5.6 1 .8.3.2.7.3 1.1.3a3.2 3.2 0 0 0 1.8-.6Zm7.4 2.7c-.7 0-1.3-.2-1.9-.6a6.7 6.7 0 0 1-1.7-2h-.3c-.4 0-.7 0-1-.2l-.2-.6c0-.2 0-.3.2-.5a.9.9 0 0 1 .6-.1h.5l.5.3c.7-.1 1.1-.3 1.5-.7.3-.3.5-.7.5-1.1 0-.5-.2-.9-.5-1.2-.3-.2-.7-.4-1.2-.4a4.1 4.1 0 0 0-1.8.4l-.3-.9a5.5 5.5 0 0 1 2.1-.4 3 3 0 0 1 2 .6c.5.5.7 1 .7 1.9 0 .6-.2 1.2-.6 1.6-.4.5-1 .9-1.6 1.1.3.5.6.9.9 1.1.2.3.5.4.7.5l1 .2h.2l-.1 1h-.2Z" fill="#fff"/>
  <path d="M67.4 45.9v-.1a3 3 0 0 1-1.8-.6 6.5 6.5 0 0 1-1.6-2h-.5c-.4 0-.7 0-.9-.2-.1 0-.2-.2-.2-.5 0-.1 0-.3.2-.4l.5-.1h.5l.5.3a3 3 0 0 0 1.5-.7c.4-.3.6-.7.6-1.2s-.2-1-.5-1.3c-.3-.3-.8-.4-1.3-.4a4.2 4.2 0 0 0-1.9.4l.1.1h.1l-.3-1-.1.1v.2a5.3 5.3 0 0 1 2.1-.5c.8 0 1.5.2 2 .6.4.4.6 1 .6 1.8 0 .6-.2 1.1-.6 1.6-.3.4-.9.8-1.6 1h-.1v.2l1 1.1c.2.3.5.5.8.6l1 .1v.7h-.1v.3h.3l.1-1.1v-.1h-.4l-.8-.2c-.3 0-.5-.3-.7-.5l-1-1v.1a3.7 3.7 0 0 0 1.7-1 2.8 2.8 0 0 0-.1-3.8 3 3 0 0 0-2-.7 5.6 5.6 0 0 0-2.3.5h-.1l.4 1.2h.2a4 4 0 0 1 1.7-.4c.5 0 .9 0 1.1.3.3.3.4.6.4 1 0 .5-.1.8-.4 1.1-.3.3-.8.6-1.4.7v.1h.1a2.4 2.4 0 0 0-.5-.4h-.6a1 1 0 0 0-.7.1.8.8 0 0 0-.3.6c0 .3.2.6.4.7.2.2.6.3 1 .3h.4v-.2h-.2a6.8 6.8 0 0 0 1.8 2.1 3 3 0 0 0 1.9.6Zm10-3.3h-2.8v.5c0 .3 0 .5-.2.6a.6.6 0 0 1-.4.3 1 1 0 0 1-.7-.3 2.5 2.5 0 0 1-.7-.7 1.4 1.4 0 0 1-.2-.7.5.5 0 0 1 .2-.5l.6-.1h.3v-2.4a.6.6 0 0 0-.4-.3 2.5 2.5 0 0 0-.7 0v-1h.2l1 .1.6.4.3.5.1 1v1.7h2.8v-3.8l1 .1v5.9l.1.6.2.2.3.2h.6v1h-.2c-.5 0-1 0-1.2-.2-.3-.2-.5-.4-.6-.7a3 3 0 0 1-.2-1v-1.4Z" fill="#fff"/>
  <path d="M77.4 42.6v-.1h-3v1.2l-.4.1c-.2 0-.4 0-.7-.2l-.6-.7a1.3 1.3 0 0 1-.2-.6l.1-.4a.9.9 0 0 1 .6-.1h.5V40a1.9 1.9 0 0 0-.1-.8.7.7 0 0 0-.4-.3 2.6 2.6 0 0 0-.8 0h.1l.1-.8 1 .1a1.2 1.2 0 0 1 .8.9l.1-.1h-.1v2.8h3.1V38l.8.1v6.4l.3.3.4.2h.6-.1l-.1.8-1.2-.2a1.1 1.1 0 0 1-.5-.6 3 3 0 0 1-.2-1v-1.5h-.1v.1h-.1V44l.1 1.2.7.7c.4.2.8.2 1.3.2h.2l.1-1v-.2H79a.6.6 0 0 1-.2-.2l-.1.1h.1l-.2-.3V38l-1.3-.2v3.8h-2.6V39l-.4-.6a1.7 1.7 0 0 0-.7-.4 3.2 3.2 0 0 0-1-.1h-.2l-.2 1.2h.9l.2.3.1.6v1.5h-.2a1 1 0 0 0-.7.2.6.6 0 0 0-.3.6l.3.8.7.7c.3.2.5.3.8.3a.7.7 0 0 0 .5-.3c.2-.1.2-.4.2-.7v-.3h2.7v-.2Zm0-5.3a5.9 5.9 0 0 0-.8-1.8 1.3 1.3 0 0 0-1-.6 2 2 0 0 0-.8.2l-.3-1 1.1-.2c.6 0 1 .2 1.3.4.4.3.6.7.9 1.2l.5 1.8h-.9Z" fill="#fff"/>
  <path d="M77.4 37.3h.1a6 6 0 0 0-.7-1.9c-.3-.4-.8-.6-1.3-.6l-.7.1v.2h.2l-.4-1v.1l1-.1c.5 0 1 0 1.2.3.4.3.6.7.8 1.2.3.5.5 1 .6 1.8h.1v-.2h-.9v.3h1.1v-.2l-.6-1.9a3 3 0 0 0-.9-1.2 2.2 2.2 0 0 0-1.4-.4c-.4 0-.7 0-1.1.2h-.1l.4 1.2.7-.1c.4 0 .8.1 1 .5.3.4.5 1 .8 1.8h.1Zm9.4 3.3v-1a1 1 0 0 0-.3-.5.9.9 0 0 0-.6-.2.9.9 0 0 0-.6.2 1 1 0 0 0-.3.6v1.2l-.2 1.3c0 .4-.2.7-.4 1a2 2 0 0 1-.8.6 3 3 0 0 1-1.2.2 2.5 2.5 0 0 1-2-.8 2.9 2.9 0 0 1-.6-2c0-.8.2-1.5.7-2 .5-.6 1.2-1 2.1-1.3l.3 1a3.5 3.5 0 0 0-1.5.9 2 2 0 0 0-.6 1.4c0 .6.2 1 .5 1.4.2.3.6.5 1 .5s.6 0 .8-.2a1.2 1.2 0 0 0 .7-.8v-1.7c0-.6.1-1 .3-1.4.1-.3.3-.5.6-.7A2 2 0 0 1 86 38c.4 0 .8 0 1 .3.4.1.6.4.8.7l.2 1.3v4.2l.2.2.4.2h.6l-.1 1h-.2c-.5 0-.9 0-1.2-.2-.3-.2-.5-.4-.6-.7a3 3 0 0 1-.2-1v-3.4Z" fill="#fff"/>
  <path d="M86.8 40.6h.2l-.1-1a1 1 0 0 0-.3-.6 1 1 0 0 0-.7-.2 1 1 0 0 0-.7.2 1 1 0 0 0-.4.6 5.6 5.6 0 0 0 0 1v.3l-.1 1.3a2 2 0 0 1-1.1 1.5l-1.2.2c-.8 0-1.4-.3-1.8-.7a2.8 2.8 0 0 1-.7-2c0-.8.2-1.4.7-2a4.4 4.4 0 0 1 2-1.2v-.1h-.1l.3 1h.1v-.2a3 3 0 0 0-1.6 1c-.4.4-.6.9-.6 1.5s.2 1.1.5 1.5c.3.3.7.5 1.2.5l.7-.1a1.3 1.3 0 0 0 .8-1v-1.7c0-.6.2-1 .3-1.3.1-.3.3-.5.6-.7a2 2 0 0 1 1-.3c.5 0 .8.1 1.1.3l.7.7.2 1.2v4.2l.2.3.4.2h.7-.2v.8l-1.2-.2a1.1 1.1 0 0 1-.6-.6 3 3 0 0 1-.1-1v-3.4h-.3v3.3c0 .5 0 .9.2 1.2.1.3.3.5.7.7.3.2.7.2 1.2.2h.3v-1l.1-.2h-.7a.6.6 0 0 1-.3-.2v.1l-.1-.3H88v-4.1a3 3 0 0 0-.2-1.4 2 2 0 0 0-.8-.8c-.3-.2-.7-.2-1.1-.2-.5 0-.9 0-1.2.3-.4.2-.6.4-.8.8a3.6 3.6 0 0 0-.2 1.4v1.7a1 1 0 0 1-.7.7l-.6.1a1.3 1.3 0 0 1-1-.4c-.3-.3-.4-.7-.4-1.3 0-.5.1-1 .5-1.4A3.3 3.3 0 0 1 83 39l-.2-1v-.2h-.2a4.7 4.7 0 0 0-2.2 1.4c-.5.6-.8 1.3-.8 2a3 3 0 0 0 .8 2.2c.5.6 1.2.8 2 .8.5 0 1 0 1.3-.2l.8-.7c.2-.3.4-.6.4-1L85 41v-.3l.1-1H85h.1a.8.8 0 0 1 .3-.4l.5-.1.5.1.2.5a5 5 0 0 1 .1.9h.1Zm7 2.5a3.5 3.5 0 0 1-2 .6c-.8 0-1.5-.2-2-.6a2.3 2.3 0 0 1-.7-1.8c0-.8.3-1.4.8-2a3.1 3.1 0 0 1 2.1-.6 5.8 5.8 0 0 1 1.3.1l-.2 1a5.4 5.4 0 0 0-1-.1 2 2 0 0 0-1.4.4c-.4.3-.5.7-.5 1.2s.1.8.4 1c.3.4.7.5 1.1.5.5 0 .8 0 1.2-.2a3.3 3.3 0 0 0 1-.7v-4l1 .1v5.9l.1.6.2.2.3.2h.6l-.1 1h-.1c-.5 0-1 0-1.2-.2-.3-.2-.5-.4-.6-.7a3 3 0 0 1-.2-1v-1Z" fill="#fff"/>
  <path d="M93.9 43.1h-.1a3.4 3.4 0 0 1-2 .5 2.6 2.6 0 0 1-1.9-.6c-.4-.5-.7-1-.7-1.7 0-.8.3-1.4.8-1.8a3 3 0 0 1 2-.7 5.7 5.7 0 0 1 1.3.2v-.2h-.1l-.2 1h.1v-.1a5.6 5.6 0 0 0-1-.2c-.7 0-1.2.2-1.5.5-.4.3-.6.7-.6 1.3 0 .5.2.9.5 1.2.3.3.7.4 1.2.4s.9 0 1.2-.2l1-.7h.1v-4l.8.1v6.4l.3.3.4.2h.6l-.1-.1-.1.8c-.5 0-.9 0-1.2-.2a1.1 1.1 0 0 1-.5-.5 3 3 0 0 1-.2-1.1v-1l-.2.1v.9l.1 1.2c.1.3.4.5.7.7l1.3.2h.2l.1-1v-.2h-.7a.6.6 0 0 1-.2-.2l-.1.1v-.3H95h.1V38l-1.4-.2V42h.2l-.1-.1a3.2 3.2 0 0 1-1 .7 3 3 0 0 1-1 .1c-.5 0-.9 0-1.1-.3a1.3 1.3 0 0 1-.4-1c0-.5.2-.9.5-1.1.3-.3.7-.4 1.3-.4l1 .1h.1l.3-1.2h-.2a5 5 0 0 0-1.3-.1c-.9 0-1.6.2-2.2.7-.6.5-.8 1.2-.8 2 0 .7.2 1.4.8 1.9.5.4 1.2.7 2 .7a3.6 3.6 0 0 0 2.2-.7h-.1Zm3-5.3 1.1.2v6.5l.2.2.4.2h.6l-.1 1h-.2c-.5 0-.9 0-1.2-.2-.3-.2-.5-.4-.6-.7a3 3 0 0 1-.2-1v-6.1Zm0-.4a6 6 0 0 0-.7-1.9A1.3 1.3 0 0 0 95 35a2 2 0 0 0-.7.1l-.3-.9 1-.2c.6 0 1 .2 1.4.4.3.3.6.7.8 1.2l.6 1.8h-1Z" fill="#fff"/>
  <path d="m97 37.9.9.2v6.4l.2.3.5.2h.6-.2v.8l-1.2-.2a1.1 1.1 0 0 1-.6-.6 3 3 0 0 1-.1-1v-6.1h-.3v6c0 .5 0 .9.2 1.2.1.3.4.5.7.7.3.2.7.2 1.2.2h.3v-1l.1-.2h-.7a.6.6 0 0 1-.3-.2v.1l-.1-.3H98a2.1 2.1 0 0 1 0-.5v-6l-1.3-.2v.1h.1Zm0-.5a6 6 0 0 0-.7-2c-.3-.4-.7-.6-1.2-.6l-.8.1v.2h.2l-.3-1h-.1v.1l1-.1c.6 0 1 0 1.3.3.3.3.6.7.8 1.2l.6 1.8h.1v-.2h-1v.3h1.2v-.2a11.1 11.1 0 0 0-.7-1.9 3.1 3.1 0 0 0-.8-1.2 2.2 2.2 0 0 0-1.4-.4c-.4 0-.8 0-1.2.2l.3 1.2h.1l.7-.1c.4 0 .7.1 1 .5.2.4.5 1 .7 1.8h.1Z" fill="#fff"/>
</svg>
