<svg width="270" height="80" fill="none" xmlns="http://www.w3.org/2000/svg">
  <g clip-path="url(#a)">
    <mask id="b" style="mask-type:luminance" maskUnits="userSpaceOnUse" x="-21" y="-20" width="311" height="121">
      <path d="M-20-20h310v120H-20V-20Z" fill="#fff"/>
    </mask>
    <g mask="url(#b)">
      <path d="M260 80H10A10 10 0 0 1 0 70V10A10 10 0 0 1 10 0h250a10 10 0 0 1 10 10v60a10 10 0 0 1-10 10Z" fill="#000"/>
    </g>
    <mask id="c" style="mask-type:luminance" maskUnits="userSpaceOnUse" x="-21" y="-20" width="311" height="121">
      <path d="M-20-20h310v120H-20V-20Z" fill="#fff"/>
    </mask>
    <g mask="url(#c)">
      <path d="M213.9 60h3.7V35h-3.7v25Zm33.6-16-4.3 10.8h-.1L238.6 44h-4l6.7 15.2-3.8 8.4h3.9L251.6 44h-4.1Zm-21.2 13.2c-1.2 0-3-.6-3-2.2 0-1.9 2.2-2.6 4-2.6 1.7 0 2.5.3 3.5.8-.3 2.3-2.3 4-4.5 4Zm.5-13.7c-2.7 0-5.5 1.1-6.7 3.8l3.3 1.4c.7-1.4 2-1.9 3.4-1.9 2 0 4 1.2 4 3.3v.2c-.7-.4-2.2-1-4-1-3.5 0-7.1 2-7.1 5.7 0 3.3 2.9 5.5 6.2 5.5 2.5 0 3.9-1.2 4.7-2.5h.2v2h3.6v-9.6c0-4.5-3.3-7-7.6-7Zm-23 3.5h-5.4v-8.5h5.3c2.8 0 4.4 2.3 4.4 4.3 0 1.9-1.6 4.2-4.4 4.2Zm-.2-12h-9v25h3.8v-9.5h5.2c4.1 0 8.2-3 8.2-7.7 0-4.8-4-7.8-8.2-7.8Zm-48.8 22.2c-2.5 0-4.7-2.2-4.7-5.2s2.2-5.1 4.8-5.1c2.5 0 4.5 2.1 4.5 5.1 0 3-2 5.2-4.6 5.2Zm4.3-11.8c-1-1-2.5-1.9-4.6-1.9a8.5 8.5 0 0 0-8.1 8.5c0 4.8 3.9 8.5 8.1 8.5 2 0 3.7-.9 4.5-2h.1v1.3c0 3.3-1.7 5-4.5 5a4.7 4.7 0 0 1-4.3-3l-3.2 1.3a8 8 0 0 0 7.5 5c4.4 0 8-2.5 8-8.8V44h-3.5v1.4Zm6.2 14.6h3.7V35h-3.7v25Zm9.2-8.2c0-3.3 2.6-5 4.4-5 1.5 0 2.8.7 3.2 1.8l-7.6 3.2Zm11.6-2.9c-.7-1.9-2.9-5.4-7.3-5.4s-8 3.5-8 8.5c0 4.8 3.6 8.5 8.4 8.5 4 0 6.2-2.4 7.1-3.8l-2.9-1.9a4.9 4.9 0 0 1-4.2 2.4c-1.9 0-3.2-.9-4-2.6l11.3-4.7-.4-1Zm-90.6-2.8v3.6h8.6c-.2 2-1 3.5-2 4.6a8.8 8.8 0 0 1-6.6 2.6 9.5 9.5 0 0 1-9.5-9.6 9.5 9.5 0 0 1 16-7l2.5-2.6c-2.1-2-5-3.6-9-3.6-7.3 0-13.4 6-13.4 13.2 0 7.3 6.1 13.2 13.4 13.2 4 0 6.9-1.3 9.2-3.7a12 12 0 0 0 3.1-8.4c0-.9 0-1.6-.2-2.3H95.5Zm22.1 11c-2.5 0-4.8-2-4.8-5 0-3.2 2.3-5.2 4.8-5.2 2.6 0 4.8 2 4.8 5.1 0 3-2.2 5.2-4.8 5.2Zm0-13.6a8.4 8.4 0 0 0-8.5 8.5c0 5 3.8 8.5 8.5 8.5 4.8 0 8.6-3.6 8.6-8.5 0-5-3.9-8.5-8.6-8.5Zm18.7 13.7c-2.6 0-4.8-2.2-4.8-5.2s2.2-5.1 4.8-5.1c2.5 0 4.8 2 4.8 5.1 0 3-2.3 5.2-4.8 5.2Zm0-13.7a8.4 8.4 0 0 0-8.6 8.5c0 5 3.9 8.5 8.6 8.5 4.7 0 8.5-3.6 8.5-8.5 0-5-3.8-8.5-8.5-8.5Z" fill="#fff"/>
    </g>
    <mask id="d" style="mask-type:luminance" maskUnits="userSpaceOnUse" x="-21" y="-20" width="311" height="121">
      <path d="M-20-20h310v120H-20V-20Z" fill="#fff"/>
    </mask>
    <g mask="url(#d)">
      <path d="M41.4 38.8 20.1 61.4a5.7 5.7 0 0 0 8.5 3.5l24-13.8-11.2-12.3Z" fill="#EA4335"/>
    </g>
    <mask id="e" style="mask-type:luminance" maskUnits="userSpaceOnUse" x="-21" y="-20" width="311" height="121">
      <path d="M-20-20h310v120H-20V-20Z" fill="#fff"/>
    </mask>
    <g mask="url(#e)">
      <path d="m63 35-10.4-6L41 39.4 52.7 51l10.2-6a5.8 5.8 0 0 0 .1-10Z" fill="#FBBC04"/>
    </g>
    <mask id="f" style="mask-type:luminance" maskUnits="userSpaceOnUse" x="-21" y="-20" width="311" height="121">
      <path d="M-20-20h310v120H-20V-20Z" fill="#fff"/>
    </mask>
    <g mask="url(#f)">
      <path d="M20.1 18.6 20 20v40l.2 1.4 22-22-22-20.8Z" fill="#4285F4"/>
    </g>
    <mask id="g" style="mask-type:luminance" maskUnits="userSpaceOnUse" x="-21" y="-20" width="311" height="121">
      <path d="M-20-20h310v120H-20V-20Z" fill="#fff"/>
    </mask>
    <g mask="url(#g)">
      <path d="m41.6 40 11-11-24-13.9a5.8 5.8 0 0 0-8.5 3.4L41.6 40Z" fill="#34A853"/>
    </g>
    <path d="m85.3 26-1.5-1.3-1-1.4a3.5 3.5 0 0 1-.2-2.9l.7-.9c.4-.3.8-.5 1.3-.6a9 9 0 0 1 2.3-.3h2.2v1.5h-3.3l-.7.2-.5.3-.4.5v.6c0 .4 0 .8.2 1.1.2.3.4.7.8 1l1.2 1.1-1.1 1.2Zm6.1.3c-.5 0-1 0-1.3-.2-.4-.1-.7-.3-.9-.6a2 2 0 0 1-.4-.7l-.1-1.3v-7.8l1.7.2v8.2l.2.4.5.2h.7l-.1 1.6h-.3ZM88.7 15l-.5-1.7c-.3-.4-.5-.8-.8-1-.3-.2-.6-.3-1-.3h-.5l-.5.2-.4-1.4a4.9 4.9 0 0 1 2.6 0c.4 0 .7.3 1 .6l1 1.4.6 2.2h-1.5Zm12.1 11.3c-.5 0-.9 0-1.3-.2-.3 0-.6-.3-.9-.6l-.4-.8-.1-1.2v-7.8l1.7.2v8.2l.2.4.5.2h.7l-.1 1.6h-.3Zm-6.7-3.6c-.3 0-.5 0-.8-.2a3.3 3.3 0 0 1-1.2-1.4 2 2 0 0 1-.2-.9c0-.3 0-.5.2-.7.2-.2.5-.3 1-.3h5.7v1.5H95v.9c0 .4-.1.7-.3.9a1 1 0 0 1-.7.2Zm4-7.7c-.1-.7-.3-1.3-.5-1.7-.2-.4-.5-.8-.8-1-.3-.2-.6-.3-1-.3h-.5l-.5.2-.4-1.4a4.9 4.9 0 0 1 2.7 0c.3 0 .6.3 1 .6.3.3.5.8.8 1.4.3.5.5 1.3.8 2.2H98Zm13.6 9.5c-.6 0-1 0-1.5-.2s-1-.4-1.4-.8c-.4-.4-.8-.9-1.1-1.5l.3-1.2c.7 0 1.2-.3 1.7-.6.4-.4.6-.9.6-1.4 0-.5-.1-1-.5-1.2-.3-.3-.7-.4-1.4-.4h-.8l-1 .4-.4-1.4a7.4 7.4 0 0 1 2.3-.5c.8 0 1.4.1 1.9.4.5.2.9.6 1.2 1a3.3 3.3 0 0 1-.2 3.5c-.4.5-1 .9-1.5 1.2-.7.3-1.4.4-2.1.4l-.9-.1-.5-.4a1 1 0 0 1-.2-.7c0-.2.1-.5.3-.6.2-.2.5-.3.9-.3.3 0 .6 0 .9.2l.8.7.2.7c.2.4.6.8 1 1 .4.2.8.3 1.3.3.4 0 .8 0 1.1-.2.3 0 .6-.2.8-.5.3-.3.4-.7.5-1.1l.2-1.6v-1.2l1.6.2v1.5c0 1-.1 1.8-.5 2.4a3 3 0 0 1-1.4 1.5 5 5 0 0 1-2.2.5Zm5-2.1c-.2 0-.5 0-.8-.2-.3 0-.6-.3-.8-.6-.3-.3-.5-.7-.6-1.3l1.1-.4.4.8.8.2c.3 0 .6 0 1-.3l.8-.9.3 1.7a4 4 0 0 1-.9.7c-.3.2-.7.3-1.2.3Zm4.2 3.9c-.6 0-1 0-1.4-.2-.4-.1-.6-.3-.8-.6a2 2 0 0 1-.4-.7l-.2-1.3v-7.8l1.7.2v8.2l.2.4.5.2h.8l-.2 1.6h-.2Zm4.8 0c-.6 0-1 0-1.4-.2-.4-.1-.6-.3-.8-.6-.3-.2-.4-.5-.5-.8v-9l1.6.2v8.2l.2.4.5.2h.8l-.2 1.6h-.2Zm9.4 0c-.5 0-1 0-1.3-.2-.4 0-.7-.3-1-.6l-.4-.8v-9l1.6.2v8.2l.2.4.6.2h.7l-.2 1.6h-.2Zm-6.8-3.6c-.2 0-.5 0-.7-.2a3.3 3.3 0 0 1-1.2-1.4 2 2 0 0 1-.3-.9c0-.3 0-.5.2-.7.2-.2.5-.3 1-.3h5.7v1.5h-3.7v.9c0 .4-.1.7-.3.9a1 1 0 0 1-.7.2Zm11 3.6c-.5 0-1 0-1.3-.2-.3-.1-.6-.3-.8-.6l-.5-.7v-9.1l1.6.2V24c0 .2.2.3.3.4l.5.3h.7l-.2 1.5h-.2Zm9.5-2.8-1.3-.2-.9-.6a3 3 0 0 1-.7-1 5 5 0 0 1-.1-1.6v-2l-.3-.4a.7.7 0 0 0-.5-.3h-.7l.1-1.5h.3c.6 0 1 0 1.4.2l.8.5.4.8.1 1.2V20c0 .6 0 1 .2 1.2l.3.6.5.2a2.7 2.7 0 0 0 2-.3c.3-.2.7-.4.9-.7v1.8l-1.1.6-1.4.2Zm5 2.8c-.6 0-1 0-1.4-.2-.3-.1-.6-.3-.8-.6a2 2 0 0 1-.4-.7l-.1-1.3v-7.8l1.6.2v8.2l.3.4c0 .1.2.2.5.2h.7l-.1 1.6h-.3Zm7.5 0A4.7 4.7 0 0 1 158 25a9.4 9.4 0 0 1-2.2-2.7l.2-.9 1.5-.3c.5-.2.9-.5 1.2-.8.3-.4.4-.8.4-1.4 0-.6-.2-1-.6-1.4-.3-.3-.8-.4-1.4-.4l-1.2.1-1.1.4-.5-1.4a7.4 7.4 0 0 1 2.9-.6c.7 0 1.3.1 2 .4.5.2 1 .6 1.2 1.1.3.5.5 1 .5 1.8 0 .6-.1 1.2-.4 1.7a4 4 0 0 1-1.1 1.3l-1.6.8c-.6.2-1.2.3-1.9.3-.5 0-1-.1-1.2-.3-.3-.2-.4-.5-.4-1 0-.2 0-.5.3-.7l.9-.2c.3 0 .6 0 .9.2.3.1.6.4 1 .8h-.2c.6.8 1 1.4 1.5 1.8.4.4.8.7 1.3.8.4.2.8.2 1.3.2h.3l-.1 1.6h-.3Zm14.9 0c-.6 0-1 0-1.4-.2-.4-.1-.7-.3-.8-.6a2 2 0 0 1-.4-.7l-.2-1.3v-7.8l1.7.2v8.2l.2.4.5.2h.8l-.2 1.6h-.2Zm-7.1-2.5c-.3 0-.5 0-.8-.2a3 3 0 0 1-1.2-1.3l-.2-.8.3-.6.8-.2h5.6v1.5H170v.4c0 .5 0 .8-.3 1l-.6.2Zm-.8-2.8v-3l-.2-.4a.8.8 0 0 0-.5-.3h-.8l.2-1.5h.3c.5 0 1 0 1.4.2l.8.5a1.7 1.7 0 0 1 .4 1.1l.1 1V21h-1.7Zm5.1-6c-.1-.7-.3-1.3-.5-1.7-.3-.4-.5-.8-.8-1-.3-.2-.6-.3-1-.3h-.5l-.5.2-.4-1.4a4.9 4.9 0 0 1 2.7 0c.3 0 .6.3 1 .6.3.3.5.8.8 1.4.3.5.5 1.3.8 2.2h-1.6Zm15.7 11.3c-.6 0-1 0-1.4-.2-.4-.1-.6-.3-.8-.6a2 2 0 0 1-.5-.7v-5.4l-.2-1.1a1 1 0 0 0-.3-.7 1 1 0 0 0-.8-.3 1 1 0 0 0-.4.1l-.3.2-.3.6-.1 1.1v.4c0 .7 0 1.4-.2 2-.1.5-.4 1-.8 1.4l-1 .5c-.4.2-1 .3-1.5.3a4 4 0 0 1-1.8-.5c-.6-.3-1-.7-1.3-1.3a4 4 0 0 1-.5-2 4 4 0 0 1 1.8-3.4l2-1 .5 1.5c-.9.3-1.5.7-2 1.2-.4.5-.6 1-.6 1.7 0 .6.1 1 .3 1.4l.7.7 1 .2c.2 0 .5 0 .7-.2l.6-.3.3-.7.1-1.2v-.8c0-.6 0-1 .2-1.5 0-.4.3-.8.7-1.2l.8-.5a3.7 3.7 0 0 1 2.3 0l.8.5.7 1 .2 1.6v5l.2.4.5.2h.8l-.2 1.6h-.2Zm4.3-2.8c-.7 0-1.3-.2-1.9-.4a3 3 0 0 1-1.2-1.1c-.3-.5-.5-1.1-.5-1.8s.2-1.4.5-1.9.8-.8 1.4-1.1c.6-.3 1.2-.4 2-.4a9.7 9.7 0 0 1 1.7.2l-.2 1.4h-.6l-.8-.1c-.7 0-1.3.2-1.7.5-.4.3-.6.8-.6 1.4 0 .6.2 1 .5 1.4.4.3.9.4 1.4.4.6 0 1.2-.1 1.6-.3l1.3-1v2l-1.3.5c-.4.2-1 .3-1.6.3Zm5.5 2.8c-.6 0-1 0-1.4-.2-.3-.1-.6-.3-.8-.6a2 2 0 0 1-.4-.7l-.2-1.3v-7.8l1.7.2v8.2l.2.4.6.2h.7l-.1 1.6h-.3Zm4.3 0c-.6 0-1 0-1.4-.2-.3-.1-.6-.3-.8-.6l-.5-.7v-9.1l1.6.2V24c0 .2.2.3.3.4l.5.3h.7l-.1 1.5h-.3ZM200.5 15l-.6-1.7-.7-1a2 2 0 0 0-1-.3h-.5l-.5.2-.5-1.4a4.9 4.9 0 0 1 2.7 0c.3 0 .7.3 1 .6A11.3 11.3 0 0 1 202 15h-1.5Z" fill="#fff"/>
  </g>
  <defs>
    <clipPath id="a">
      <path fill="#fff" transform="matrix(1 0 0 -1 0 80)" d="M0 0h270v80H0z"/>
    </clipPath>
  </defs>
</svg>
