<svg id="artwork" xmlns="http://www.w3.org/2000/svg" version="1.1" viewBox="0 0 239 70.9">
  <defs>
    <style>
      .st1{isolation:isolate}.st5{fill:#fff}
    </style>
  </defs>
  <rect x="-.1" width="239.2" height="70.9" rx="8.9" ry="8.9"/>
  <g class="st1">
    <g class="st1">
      <path class="st5" d="M72.5 51a6.8 6.8 0 0 1-3.5-6 7 7 0 0 1 3.5-6.1c1-.6 2.2-1 3.4-1a6.6 6.6 0 0 1 4.9 2.1l-1.1 1c-.4-.5-1-1-1.6-1.2-.7-.3-1.4-.4-2.2-.4a5.3 5.3 0 0 0-4.5 2.6 5.5 5.5 0 0 0 0 5.7 5.2 5.2 0 0 0 4.5 2.6c1 0 1.7-.1 2.3-.4s1.1-.7 1.5-1.1c.4-.4.6-.8.8-1.3L81 46h-5v-1.5h6.5v1c0 .8 0 1.6-.3 2.4-.3.8-.7 1.4-1.3 2a6.3 6.3 0 0 1-4.9 2c-1.2 0-2.4-.3-3.4-.9Zm13.8.2a4 4 0 0 1-1.8-1.8 5.8 5.8 0 0 1 0-5.1 4.7 4.7 0 0 1 4.3-2.5 4.7 4.7 0 0 1 4.2 2.5c.4.8.6 1.6.6 2.6s-.2 1.8-.6 2.5a4.7 4.7 0 0 1-4.2 2.5 4 4 0 0 1-2.5-.7Zm4-1.2a3 3 0 0 0 1.3-1.2c.3-.6.5-1.2.5-2s-.2-1.3-.5-1.8a3.3 3.3 0 0 0-2.8-1.8 3.3 3.3 0 0 0-2.9 1.7c-.3.6-.5 1.2-.5 2s.2 1.3.5 1.9c.3.5.7 1 1.2 1.2a3.3 3.3 0 0 0 3.3 0Zm7 1.2c-.7-.4-1.3-1-1.7-1.8a5.8 5.8 0 0 1 0-5.1 4.7 4.7 0 0 1 4.3-2.5 4.7 4.7 0 0 1 4.2 2.5c.4.8.6 1.6.6 2.6s-.2 1.8-.6 2.5a4.7 4.7 0 0 1-4.2 2.5c-1 0-1.8-.2-2.6-.7Zm4.2-1.2c.5-.3.9-.7 1.2-1.2.3-.6.4-1.2.4-2s-.1-1.3-.4-1.8a3.3 3.3 0 0 0-2.8-1.8 3.3 3.3 0 0 0-3 1.7c-.2.6-.4 1.2-.4 2s.2 1.3.5 1.9c.3.5.7 1 1.2 1.2a3.3 3.3 0 0 0 3.3 0Zm6.5 5.1a3.8 3.8 0 0 1-1.5-1.8l1.4-.6c.3.5.6 1 1 1.3a4 4 0 0 0 1.8.5c1 0 1.8-.3 2.3-.8.6-.6.8-1.4.8-2.4v-1c-.4.4-.8.8-1.4 1.1a4 4 0 0 1-1.9.5 4 4 0 0 1-2.2-.6c-.7-.5-1.2-1-1.6-1.8a5.8 5.8 0 0 1 0-5.2 4 4 0 0 1 1.6-1.8 4 4 0 0 1 2.2-.7 4 4 0 0 1 2 .5c.5.3 1 .7 1.3 1.2V42h1.5v9.1c0 1.6-.4 2.7-1.2 3.5s-2 1.2-3.4 1.2c-1 0-2-.2-2.7-.7Zm4.3-5a3.8 3.8 0 0 0 1.5-3.2c0-.8-.1-1.4-.4-2s-.6-1-1.1-1.2A3 3 0 0 0 108 45c-.3.5-.5 1.1-.5 1.8s.2 1.4.5 2c.2.5.6 1 1 1.2.6.3 1 .5 1.6.5s1.1-.2 1.6-.5Zm5.4-11.8h1.5v13.3h-1.5V38.3Zm17.2 0h4.4c.8 0 1.5.2 2.1.5a3.9 3.9 0 0 1 0 6.9c-.6.3-1.3.5-2 .5h-3v5.4H135V38.3Zm4.5 6.4a2.5 2.5 0 0 0 2.5-2.5 2 2 0 0 0-.3-1.1c-.2-.4-.5-.7-1-1-.3-.2-.7-.3-1.2-.3h-3v4.9h3Zm5.9-6.4h1.6v13.3h-1.5V38.3Zm5.1 13.2a3 3 0 0 1-1.7-2.8c0-1 .3-1.8 1-2.3.8-.6 1.8-.9 3-.9a6.2 6.2 0 0 1 2.7.7v-.6c0-.7-.3-1.3-.8-1.7s-1.1-.7-1.9-.7c-.5 0-1 .2-1.4.4-.5.2-.8.5-1.1 1l-1.2-1c.4-.5.9-1 1.5-1.3a5 5 0 0 1 5.2.5c.8.7 1.2 1.6 1.2 2.8v6h-1.5v-1.4h-.1c-.3.5-.7.9-1.2 1.2a4.1 4.1 0 0 1-3.7 0Zm3.4-1.4a3 3 0 0 0 1.6-2.6l-1.1-.5-1.4-.2c-.9 0-1.5.2-2 .6s-.6.8-.6 1.4c0 .5.2.9.5 1.2.4.3 1 .5 1.6.5.5 0 1-.1 1.4-.4Zm8 .9-4-8.9h1.8l3 7 2.8-7h1.7l-5.8 13.5h-1.7l2.2-4.6Z"/>
    </g>
    <g class="st1">
      <path class="st5" d="M180.2 41.3v10.3h-1.5V47l.4.5-1.2.8a4 4 0 0 1-1.7.3c-.7 0-1.3-.2-1.8-.4s-1-.7-1.2-1.3a4 4 0 0 1-.4-2v-3.6h-1.5V40H182v1.3h-1.9Zm-1.5 0h-4.4V45c0 .6 0 1 .2 1.3.1.4.4.6.7.8.3.2.6.3 1 .3.6 0 1-.2 1.6-.5l1.2-1-.3.9v-5.4Zm8.5 0 .6-.2.2.9.1 1c0 .7-.1 1.3-.4 1.8-.3.5-.7.9-1.2 1.3l-1.7.9v-.2l1.2 1.3 1.4 1.3 1.5 1.4-1 1a51 51 0 0 1-4.4-4.6l-.6-1.1-.2-1c0-.3 0-.4.2-.6.2-.2.5-.3.8-.3.3 0 .6.1 1 .4.2.2.6.5.9 1l-1-.3c.8-.2 1.3-.6 1.6-1s.5-.9.5-1.5c0-.3 0-.7-.2-1l-.3-.8.8.3h-5V40h7.9v1.3h-2.6Z"/>
    </g>
    <g class="st1">
      <path class="st5" d="M202.7 41.3v10.3h-1.5V47l.4.5-1.2.8a4 4 0 0 1-1.7.3c-.7 0-1.3-.2-1.8-.4s-1-.7-1.2-1.3a4 4 0 0 1-.4-2v-3.6h-1.5V40h10.8v1.3h-1.9Zm-1.5 0h-4.4V45c0 .6 0 1 .2 1.3.1.4.4.6.7.8s.6.3 1 .3c.6 0 1-.2 1.6-.5l1.2-1-.3.9v-5.4Z"/>
      <path class="st5" d="M207.5 41.3v10.3H206V41.3h-1.6V40h5v1.3h-1.9Z"/>
      <path class="st5" d="M219.8 41.3H218v3c0 .7 0 1.2-.2 1.7s-.5.7-.8 1-.8.4-1.4.6l-.7-1.3a3 3 0 0 0 1-.4l.5-.7.1-1v-2.9h-4.3v4.9c0 .3.2.6.3.8l.6.6 1 .6 1.5.7a9 9 0 0 1 1.5 1l.7.7a2.3 2.3 0 0 1 0 1.9c0 .3-.2.6-.4.9l-1.5-.7.4-.5.1-.6V51l-.5-.5-1-.5-1.6-.8-1.7-1.1c-.4-.3-.6-.7-.8-1.1s-.2-1-.2-1.7v-4h-1.4V40h10.5v1.4Zm-3.8-4.1c0-.3.1-.5.3-.7a1 1 0 0 1 1.5 0c.2.2.3.4.3.7s-.1.6-.3.8-.5.3-.8.3-.5-.1-.7-.3a1 1 0 0 1-.3-.8Z"/>
    </g>
  </g>
  <g class="st1">
    <path class="st5" d="M125.8 51.7c-.8-.2-1.5-.7-2-1.3a5.7 5.7 0 0 1-1.4-5c.1-.8.5-1.5 1-2.1.6-.7 1.3-1 2.2-1.3.9-.3 1.7-.3 2.5 0a4.7 4.7 0 0 1 3.2 4l-7.2 2a3 3 0 0 0 1 1.5c.4.4.9.7 1.4.8h1.5a3 3 0 0 0 2.3-2.4l1.5.3a4.7 4.7 0 0 1-3.4 3.5c-1 .2-1.8.2-2.6 0Zm3.6-6.6c-.1-.3-.3-.7-.6-1-.3-.4-.7-.6-1.2-.8a3 3 0 0 0-1.7 0 4 4 0 0 0-1.6 1.2c-.4.6-.5 1.3-.5 2.1l5.6-1.5Z"/>
  </g>
  <path d="m36 34.4-18.9 20a5 5 0 0 0 7.5 3h.1l21.2-12.2-10-10.8h.1Z" style="fill:#ea4335"/>
  <path d="m55.1 31-9.2-5.3-10.3 9.2L46 45.2l9-5.2c1.7-1 2.8-2.6 2.8-4.5S56.6 31.9 55 31Z" style="fill:#fbbc04"/>
  <path d="m17.1 16.4-.1 1.4V53l.1 1.3L36.8 35 17 16.4Z" style="fill:#4285f4"/>
  <path d="m36.1 35.4 9.8-9.7-21.2-12.3a5.1 5.1 0 0 0-7.6 3l19 19Z" style="fill:#34a853"/>
  <path class="st5" d="M74 23.4a4.8 4.8 0 0 0-1.7.3l-.7-.5-.6-.8c-.2-.3-.2-.5-.2-.8 0-.5.2-1 .5-1.2.4-.3.9-.4 1.6-.4h1.8v-1.2H70v-1h7.1v1h-1.4V21H73c-.4 0-.7 0-.8.2-.2 0-.3.3-.3.5s0 .4.2.5l.5.5.7-.2.8-.1c.5 0 1 0 1.3.3.3.1.6.3.8.6s.2.7.2 1c0 .8-.2 1.4-.8 1.7a4 4 0 0 1-2.3.6h-.6c-.6 0-1.1-.2-1.5-.3a1 1 0 0 1-.5-.9c0-.2 0-.3.2-.5l.6-.2.7.3.7 1 1 1 1.2 1.2-1 .7-1.1-1.4-1-1.3-.4-.6h2.6c.3 0 .6-.3.8-.4.2-.2.3-.5.3-.8a1 1 0 0 0-.3-.7c-.2-.2-.6-.2-1-.2Z"/>
  <path class="st5" d="M81.1 26.8a23.3 23.3 0 0 1-3-3.8l-.4-.7v-.5l.1-.6.6-.2c.2 0 .5 0 .7.3l.7.7h-.7c.5-.2.7-.5.9-.8s.2-.7.2-1.1a3.4 3.4 0 0 0-.3-1.5l.6.2H77v-1h6v1h-2.4l.5-.2.2.7v1.9c0 .3-.4.6-.6.9v.1a3.3 3.3 0 0 1-1.6 1V23l.8 1 1 1c.2.4.6.7 1 1l-.8.8Zm1.6-3.7a5.5 5.5 0 0 1-2.5-.6l.4-.8 1 .3 1.1.1a5.7 5.7 0 0 0 2.2-.5v1.1l-1 .3-1.2.1Zm1.5 3.5v-7.8h-1.5v-1h4.1v1h-1.4v7.8h-1.2Z"/>
  <path class="st5" d="M84.2 17.9a22 22 0 0 0-1-2.4c0-.3-.2-.4-.4-.5h-1.2l-.6.1-.3-1 .7-.1.7-.1c.4 0 .8 0 1 .2.4 0 .6.3.9.6s.4.7.6 1.2l.7 2h-1.1Z"/>
</svg>
