<svg width="180" height="54" fill="none" xmlns="http://www.w3.org/2000/svg">
  <path d="M173.33 54H6.67A6.73 6.73 0 0 1 0 47.25V6.75C0 3.04 3 0 6.67 0h166.66A6.73 6.73 0 0 1 180 6.75v40.5c0 3.71-3 6.75-6.67 6.75Z" fill="#000"/>
  <path d="m27.63 26.22-14.2 15.26a3.84 3.84 0 0 0 5.65 2.35l.05-.03 15.97-9.33-7.48-8.25Z" fill="#EA4335"/>
  <path d="m41.98 23.63-.01-.02-6.9-4.05-7.77 7 7.8 7.9 6.86-4a3.89 3.89 0 0 0 2.02-3.43c0-1.47-.8-2.75-2-3.4Z" fill="#FBBC04"/>
  <path d="M13.43 12.52a3.7 3.7 0 0 0-.13 1v26.96c0 .35.04.68.13 1L28.1 26.62l-14.68-14.1Z" fill="#4285F4"/>
  <path d="m27.73 27 7.34-7.44-15.96-9.37a3.85 3.85 0 0 0-5.69 2.33L27.73 27Z" fill="#34A853"/>
  <path d="M131.52 26.67h2.17V12.1h-2.17v14.57Zm19.59-9.32-2.5 6.31h-.07l-2.59-6.31h-2.34l3.88 8.82-2.21 4.91h2.26l5.99-13.73h-2.42ZM138.77 25c-.7 0-1.7-.35-1.7-1.24 0-1.12 1.24-1.55 2.3-1.55.96 0 1.4.2 1.99.49a2.64 2.64 0 0 1-2.59 2.3Zm.27-7.98c-1.58 0-3.2.69-3.88 2.23l1.93.8c.4-.8 1.18-1.07 1.98-1.07 1.13 0 2.27.68 2.29 1.88v.15a4.8 4.8 0 0 0-2.27-.56c-2.08 0-4.2 1.14-4.2 3.28 0 1.95 1.7 3.2 3.62 3.2 1.46 0 2.27-.65 2.78-1.42h.07v1.12h2.1v-5.58c0-2.59-1.93-4.03-4.42-4.03Zm-13.44 2.09h-3.1v-5h3.1a2.52 2.52 0 0 1 2.55 2.5c0 1.13-.93 2.5-2.55 2.5Zm-.06-7.02h-5.21v14.57h2.17v-5.52h3.04c2.41 0 4.78-1.75 4.78-4.53 0-2.78-2.37-4.52-4.78-4.52ZM97.13 25c-1.5 0-2.76-1.25-2.76-2.98 0-1.75 1.25-3.02 2.76-3.02 1.48 0 2.64 1.27 2.64 3.02 0 1.73-1.16 2.98-2.64 2.98Zm2.5-6.85h-.08a3.43 3.43 0 0 0-2.61-1.1 4.93 4.93 0 0 0-4.75 4.97 4.9 4.9 0 0 0 4.75 4.94c1.18 0 2.12-.53 2.6-1.13h.08v.71c0 1.9-1.01 2.91-2.64 2.91a2.74 2.74 0 0 1-2.5-1.76l-1.9.79c.55 1.31 2 2.93 4.4 2.93 2.55 0 4.7-1.5 4.7-5.17v-8.9h-2.06v.81Zm3.56 8.5h2.18V12.1h-2.18v14.57Zm5.39-4.8a2.72 2.72 0 0 1 2.59-2.9c.86 0 1.6.44 1.84 1.06l-4.43 1.84Zm6.76-1.65c-.42-1.11-1.67-3.16-4.25-3.16-2.55 0-4.67 2.01-4.67 4.96 0 2.78 2.1 4.96 4.92 4.96a4.93 4.93 0 0 0 4.13-2.2l-1.69-1.13a2.83 2.83 0 0 1-2.44 1.37c-1.1 0-1.9-.5-2.4-1.5l6.62-2.74-.22-.56Zm-52.8-1.64v2.1h5.03a4.39 4.39 0 0 1-1.15 2.65 5.15 5.15 0 0 1-3.89 1.54c-3.1 0-5.52-2.5-5.52-5.6a5.52 5.52 0 0 1 9.32-4.08l1.48-1.49a7.34 7.34 0 0 0-5.28-2.12 7.8 7.8 0 0 0-7.8 7.7 7.8 7.8 0 0 0 7.8 7.7c2.3 0 4.02-.75 5.37-2.16a6.95 6.95 0 0 0 1.82-4.92c0-.49-.03-.94-.1-1.32h-7.09ZM75.44 25c-1.5 0-2.8-1.23-2.8-3 0-1.78 1.3-3 2.8-3 1.5 0 2.8 1.22 2.8 3 0 1.77-1.3 3-2.8 3Zm0-7.96A4.89 4.89 0 0 0 70.47 22a4.9 4.9 0 0 0 4.98 4.96A4.9 4.9 0 0 0 80.42 22a4.89 4.89 0 0 0-4.97-4.96ZM86.3 25c-1.5 0-2.8-1.23-2.8-3 0-1.78 1.3-3 2.8-3 1.5 0 2.8 1.22 2.8 3 0 1.77-1.3 3-2.8 3Zm0-7.96A4.89 4.89 0 0 0 81.32 22a4.9 4.9 0 0 0 4.98 4.96A4.9 4.9 0 0 0 91.28 22a4.89 4.89 0 0 0-4.98-4.96ZM61.73 38.06h-3.9v3.37c0 1.33.65 1.83 1.74 1.83 1.4 0 2.16-1 2.16-2.43v-2.77Zm-.07 5.02c-.32.55-.97 1.06-2.19 1.06-1.39 0-2.56-.82-2.56-2.55v-3.53h-1.76v-.83h9.5v.83h-2v9.3h-.92v-4.28h-.07Z" fill="#fff"/>
  <path d="M61.73 38.06v-.13H57.7v3.5c0 .69.16 1.18.5 1.5.32.33.8.46 1.36.46.73 0 1.32-.26 1.7-.72.4-.46.59-1.1.59-1.84v-2.9h-.13v.13h-.14v2.77c-.01 1.4-.69 2.28-2.02 2.3-.53 0-.92-.13-1.18-.38-.26-.26-.42-.67-.42-1.32V38.2h3.76v-.13Zm-.07 5.02-.11-.07c-.3.5-.9.99-2.08 1-1.34-.02-2.42-.76-2.42-2.42v-3.66h-1.76v-.57h9.23v.57h-2v9.3h-.66v-4.28h-.27l-.04.06.11.07v.13h.07v-.13h-.14v4.42h1.2v-9.3h2v-1.1h-9.77v1.1h1.76v3.4c0 .89.3 1.57.8 2.01.5.45 1.17.66 1.9.66 1.24 0 1.96-.54 2.3-1.12l-.12-.07Zm6.14-.14c.35.41.67.78 1.05 1.3l1.97 2.6-.75.51L66.06 42l.7-.56a2 2 0 0 0 1.52.7c.78 0 1.17-.34 1.17-1.13v-2.94h-4.07v-.83h6.91v.83h-1.92v3.07c0 1.26-.9 1.84-1.9 1.84-.14 0-.46-.02-.64-.08l-.03.05Z" fill="#fff"/>
  <path d="m67.8 42.94-.1.08c.35.42.67.79 1.05 1.3l1.88 2.49-.53.36-3.86-5.15.6-.48-.08-.1-.1.08c.23.25.75.74 1.62.73.4 0 .74-.08.97-.3.23-.21.33-.54.33-.95v-3.07h-4.06v-.57h6.64v.57h-1.92v3.2c0 1.19-.8 1.7-1.77 1.7-.13 0-.45-.01-.6-.07l-.1-.03-.14.22.07.07.1-.08.11.07.03-.05-.1-.07-.05.12c.2.08.53.1.68.1.53 0 1.04-.16 1.42-.49.38-.32.62-.83.62-1.49v-2.94h1.92v-1.1h-7.18v1.1h4.06V41c0 .38-.09.61-.24.76-.16.15-.42.23-.8.23-.75 0-1.2-.42-1.41-.65l-.09-.09-.9.72 4.17 5.56.86-.58.11-.08-2.05-2.72c-.39-.51-.7-.88-1.06-1.3l-.1.09Zm15.07-4.88h-3.89v3.37c0 1.33.64 1.83 1.73 1.83 1.4 0 2.16-1 2.16-2.43v-2.77Zm-.06 5.02c-.33.55-.98 1.06-2.2 1.06-1.39 0-2.55-.82-2.55-2.55v-3.53H76.3v-.83h9.5v.83h-2v9.3h-.93v-4.28h-.06Z" fill="#fff"/>
  <path d="M82.87 38.06v-.13h-4.02v3.5c0 .69.17 1.18.5 1.5.33.33.8.46 1.36.46.73 0 1.32-.26 1.7-.72.4-.46.6-1.1.6-1.84v-2.9h-.14v.13h-.13v2.77c-.02 1.4-.7 2.28-2.03 2.3-.53 0-.92-.13-1.18-.38-.26-.26-.41-.67-.41-1.32V38.2h3.75v-.13Zm-.06 5.02-.12-.07c-.3.5-.9.99-2.08 1-1.34-.02-2.41-.76-2.42-2.42v-3.66h-1.76v-.57h9.23v.57h-2v9.3H83v-4.28h-.27l-.04.06.12.07v.13h.06v-.13h-.13v4.42h1.19v-9.3h2v-1.1h-9.77v1.1h1.76v3.4c0 .89.3 1.57.8 2.01.5.45 1.17.66 1.9.66 1.25 0 1.96-.54 2.3-1.12l-.11-.07Zm6.65-5.02v9.3h-.93v-9.3h-2v-.83h4.92v.83h-2Z" fill="#fff"/>
  <path d="M89.46 38.06h-.14v9.17h-.66v-9.3h-2v-.57h4.66v.57h-2v.13h.14v.13h2.13v-1.1h-5.2v1.1h2v9.31h1.2v-9.44h-.13Zm10.11 9.59c0 .48-.22.95-.48 1.27h-1.05v-.07c.3-.33.57-.72.57-1.2 0-.41-.24-.73-.62-1.07l-4.06-3.5v-5.02h-1.76v-.83h9.27v.83H99.6v2.81c0 1.1-.5 1.76-1.34 2.18l-.72-.62c.67-.28 1.14-.66 1.14-1.55v-2.82h-3.83v4.62l3.52 3.04c.74.67 1.2 1.17 1.2 1.93Z" fill="#fff"/>
  <path d="M99.57 47.65h-.13c0 .44-.21.88-.45 1.19l.1.08v-.14h-1.05v.14h.13v-.07h-.13l.1.1c.3-.35.6-.76.6-1.3 0-.47-.27-.83-.66-1.17l-4.02-3.46v-5.1H92.3v-.56h9v.57h-1.83v2.95c0 1.06-.45 1.64-1.27 2.05l.06.12.09-.1-.72-.63-.09.1.05.13c.7-.27 1.23-.73 1.22-1.67v-2.95h-4.09v4.81l3.57 3.08.08-.1-.09.1c.74.67 1.16 1.13 1.16 1.83h.26c0-.83-.5-1.36-1.24-2.03l-3.47-3v-4.43h3.55v2.69c0 .84-.4 1.15-1.05 1.42l-.2.08.88.77.07.06.08-.04a2.35 2.35 0 0 0 1.42-2.3V38.2h1.84v-1.1h-9.55v1.1h1.76v4.95l4.11 3.54c.38.33.58.62.58.97 0 .43-.24.79-.54 1.11l-.04.04v.25h1.26l.04-.05c.27-.34.5-.82.5-1.35h-.13Zm-2.71-13.89c.44 0 .76.33.76.8 0 .41-.32.73-.76.73a.74.74 0 0 1-.77-.73c0-.47.33-.8.77-.8Z" fill="#fff"/>
  <path d="M96.86 33.76v.13c.37 0 .62.27.63.67 0 .34-.25.6-.63.6-.37 0-.64-.26-.64-.6 0-.4.28-.67.64-.67v-.27c-.5 0-.9.4-.9.94 0 .49.4.87.9.87.25 0 .48-.1.64-.25a.86.86 0 0 0 .26-.62c0-.27-.1-.5-.26-.67a.88.88 0 0 0-.64-.27v.14Z" fill="#fff"/>
</svg>
