<svg width="180" height="54" fill="none" xmlns="http://www.w3.org/2000/svg">
  <path d="M173.3 54H6.7A6.7 6.7 0 0 1 0 47.2V6.8C0 3 3 0 6.7 0h166.6a6.7 6.7 0 0 1 6.7 6.8v40.5c0 3.7-3 6.7-6.7 6.7Z" fill="#000"/>
  <path d="M27.6 26.2 13.4 41.5a3.8 3.8 0 0 0 5.7 2.3l16-9.3-7.5-8.3Z" fill="#EA4335"/>
  <path d="m42 23.6-7-4-7.7 7 7.8 7.9 6.9-4a3.9 3.9 0 0 0 2-3.5 4 4 0 0 0-2-3.4Z" fill="#FBBC04"/>
  <path d="M13.4 12.5a3.7 3.7 0 0 0-.1 1v27l.1 1 14.7-14.9-14.7-14Z" fill="#4285F4"/>
  <path d="m27.7 27 7.4-7.4-16-9.4a3.9 3.9 0 0 0-5.7 2.3L27.7 27Z" fill="#34A853"/>
  <path d="M131.5 26.7h2.2V12h-2.2v14.6Zm19.6-9.3-2.5 6.3-2.6-6.3h-2.4l3.9 8.8-2.2 4.9h2.2l6-13.8h-2.4ZM138.8 25c-.7 0-1.7-.3-1.7-1.2 0-1.2 1.2-1.6 2.3-1.6 1 0 1.4.2 2 .5a2.6 2.6 0 0 1-2.6 2.3Zm.2-8c-1.5 0-3.2.7-3.8 2.2l1.9.9c.4-.9 1.2-1.1 2-1.1 1.1 0 2.2.7 2.3 1.9v.1a4.8 4.8 0 0 0-2.3-.6c-2 0-4.2 1.2-4.2 3.3 0 2 1.7 3.2 3.6 3.2a3 3 0 0 0 2.8-1.4v1.1h2.2V21c0-2.5-2-4-4.5-4Zm-13.4 2.1h-3.1v-5h3.1a2.5 2.5 0 0 1 2.6 2.5c0 1.1-1 2.5-2.6 2.5Zm0-7h-5.3v14.6h2.2V21h3c2.5 0 4.8-1.7 4.8-4.5S128 12 125.5 12ZM97 25c-1.5 0-2.7-1.3-2.7-3s1.2-3 2.7-3c1.5 0 2.7 1.3 2.7 3s-1.2 3-2.7 3Zm2.5-6.8a3.4 3.4 0 0 0-2.7-1.2 5 5 0 0 0-4.7 5 4.9 4.9 0 0 0 4.7 5c1.2 0 2.2-.6 2.6-1.2h.1v.7c0 2-1 3-2.6 3a2.7 2.7 0 0 1-2.5-1.8l-2 .8c.6 1.3 2 3 4.5 3s4.7-1.6 4.7-5.3v-8.9h-2v.8Zm3.6 8.4h2.2V12.1h-2.2v14.6Zm5.4-4.8a2.7 2.7 0 0 1 2.6-2.9c.8 0 1.6.5 1.8 1.1l-4.4 1.8Zm6.7-1.6c-.4-1.1-1.6-3.2-4.2-3.2s-4.7 2-4.7 5c0 2.8 2.1 5 5 5a5 5 0 0 0 4-2.2l-1.6-1.2a2.8 2.8 0 0 1-2.5 1.4c-1 0-1.9-.5-2.4-1.5l6.7-2.7-.3-.6Zm-52.8-1.6v2h5a4.4 4.4 0 0 1-1 2.7 5.2 5.2 0 0 1-4 1.5 5.5 5.5 0 0 1-5.5-5.6 5.5 5.5 0 0 1 9.3-4l1.5-1.5a7.3 7.3 0 0 0-5.3-2.1 7.8 7.8 0 0 0-7.8 7.7 7.8 7.8 0 0 0 7.8 7.7 7 7 0 0 0 5.4-2.2 7 7 0 0 0 1.8-5v-1.2h-7.2Zm13 6.4c-1.6 0-2.9-1.2-2.9-3s1.3-3 2.8-3c1.5 0 2.8 1.2 2.8 3s-1.3 3-2.8 3Zm0-8a4.9 4.9 0 0 0-5 5 4.9 4.9 0 0 0 5 5 4.9 4.9 0 0 0 5-5 4.9 4.9 0 0 0-5-5Zm10.8 8c-1.5 0-2.8-1.2-2.8-3s1.3-3 2.8-3c1.5 0 2.8 1.2 2.8 3s-1.3 3-2.8 3Zm0-8a4.9 4.9 0 0 0-5 5 4.9 4.9 0 0 0 5 5 4.9 4.9 0 0 0 5-5 4.9 4.9 0 0 0-5-5ZM61.7 38h-3.9v3.4c0 1.4.7 1.9 1.8 1.9 1.4 0 2.1-1 2.1-2.5v-2.7Zm0 5c-.4.6-1 1.1-2.2 1.1-1.4 0-2.6-.8-2.6-2.5V38h-1.8v-.9h9.5v.9h-2v9.3h-.9V43Z" fill="#fff"/>
  <path d="M61.7 38h-4v3.4c0 .7.2 1.2.5 1.5.3.4.8.5 1.4.5.7 0 1.3-.3 1.7-.7.4-.5.6-1.1.6-1.9V38h-.2v.2h-.1v2.7c0 1.4-.7 2.3-2 2.3-.6 0-1-.1-1.2-.3-.3-.3-.4-.7-.4-1.4v-3.2h3.7v-.1Zm0 5h-.2c-.3.5-.9 1-2 1-1.4 0-2.5-.8-2.5-2.4v-3.7h-1.7v-.5h9.2v.5h-2v9.3H62V43h-.3v.2h.1v-.1h-.1v4.4h1.2v-9.3h2v-1.1H55v1.1h1.8v3.4c0 .9.3 1.6.8 2 .5.5 1.1.7 1.9.7 1.2 0 2-.6 2.3-1.2h-.1Zm6.1 0 1 1.2 2 2.6-.7.5-4-5.3.7-.6a2 2 0 0 0 1.5.7c.8 0 1.2-.3 1.2-1v-3h-4.1v-.9h6.9v.9h-2v3c0 1.3-.8 1.9-1.8 1.9l-.7-.1Z" fill="#fff"/>
  <path d="M67.8 43h-.1l1 1.3 2 2.5-.6.4-3.9-5.2.6-.5h-.1c.2.3.7.8 1.6.7.4 0 .7 0 1-.3.2-.2.3-.5.3-.9v-3h-4v-.6h6.6v.5h-2v3.2c0 1.2-.8 1.7-1.7 1.7h-.7l-.2.1.1.1h.2v-.1l-.1.1.7.1c.5 0 1-.2 1.4-.5.4-.3.6-.8.6-1.5v-3h2v-1h-7.2v1h4V41c0 .4 0 .6-.2.8l-.8.2c-.8 0-1.2-.4-1.4-.7h-.1l-1 .7 4.2 5.5.9-.6h.1L69 44l-1.1-1.3-.1.1Zm15-5H79v3.4c0 1.4.6 1.9 1.7 1.9 1.4 0 2.2-1 2.2-2.5v-2.7Zm0 5c-.3.6-1 1.1-2.2 1.1-1.4 0-2.5-.8-2.5-2.5V38h-1.8v-.9h9.5v.9h-2v9.3h-1V43Z" fill="#fff"/>
  <path d="M82.9 38h-4v3.4c0 .7.1 1.2.5 1.5.3.4.8.5 1.3.5.7 0 1.3-.3 1.7-.7.4-.5.6-1.1.6-1.9V38v.2h-.2v2.7c0 1.4-.7 2.3-2 2.3-.5 0-1-.1-1.2-.3-.2-.3-.4-.7-.4-1.4v-3.2H83v-.1Zm0 5h-.2c-.3.5-1 1-2 1-1.4 0-2.5-.8-2.5-2.4v-3.7h-1.8v-.5h9.3v.5h-2v9.3H83V43h-.3v.1h.1v.2-.1 4.4h1.1v-9.3h2v-1.1h-9.7v1.1h1.7v3.4c0 .9.3 1.6.8 2 .5.5 1.2.7 2 .7 1.2 0 1.9-.6 2.2-1.2Zm6.6-5v9.4h-1V38h-2v-.9h5v.9h-2Z" fill="#fff"/>
  <path d="M89.5 38h-.2v9.2h-.6V38h-2v-.5h4.6v.5h-2v.2h2.2v-1h-5.1v1h2v9.4h1.2v-9.4h-.1Zm10 9.7c0 .4-.2.9-.4 1.2h-1c.2-.4.5-.8.5-1.2 0-.5-.2-.8-.6-1.1L94 43v-5h-1.8v-.9h9.2v.9h-1.8v2.8c0 1-.5 1.7-1.3 2.2l-.8-.7c.7-.2 1.2-.6 1.2-1.5V38h-3.9v4.6l3.6 3c.7.7 1.2 1.2 1.2 2Z" fill="#fff"/>
  <path d="M99.6 47.6h-.2c0 .5-.2 1-.4 1.2v.1-.1h-1v.1h.2-.2.1c.3-.3.6-.7.6-1.3 0-.4-.2-.8-.6-1.1L94 43v-5h-1.8v-.6h9v.5h-1.8v3c0 1-.5 1.6-1.3 2v.1h.2l-.8-.7v.2c.7-.2 1.2-.7 1.2-1.6v-3h-4v4.8l3.5 3.1c.7.7 1.1 1.1 1.1 1.8h.3c0-.8-.5-1.3-1.2-2l-3.5-3v-4.4h3.5v2.7c0 .8-.4 1.1-1 1.4h-.2l.9.8v.1h.1a2.4 2.4 0 0 0 1.4-2.3v-2.7h1.9v-1.1H92v1.1h1.8v5l4.1 3.5c.4.3.6.6.6 1s-.3.8-.6 1v.4h1.3c.3-.4.5-1 .5-1.4h-.1Zm-2.7-13.8c.4 0 .7.3.7.8 0 .4-.3.7-.7.7a.7.7 0 0 1-.8-.7c0-.5.3-.8.8-.8Z" fill="#fff"/>
  <path d="M96.9 33.8c.3 0 .6.4.6.8 0 .3-.3.6-.6.6-.4 0-.7-.3-.7-.6 0-.4.3-.7.7-.7v-.3a1 1 0 0 0-1 1c0 .4.5.8 1 .8.2 0 .4 0 .6-.2a.9.9 0 0 0 .3-.6 1 1 0 0 0-.3-.7.9.9 0 0 0-.6-.3v.2Z" fill="#fff"/>
</svg>
