<svg width="270" height="80" fill="none" xmlns="http://www.w3.org/2000/svg">
  <g clip-path="url(#a)">
    <mask id="b" style="mask-type:luminance" maskUnits="userSpaceOnUse" x="0" y="0" width="270" height="81">
      <path d="M0 0h270v80H0V0Z" fill="#fff"/>
    </mask>
    <g mask="url(#b)">
      <path d="M260 80H10A10 10 0 0 1 0 70V10A10 10 0 0 1 10 0h250a10 10 0 0 1 10 10v60a10 10 0 0 1-10 10Z" fill="#000"/>
    </g>
    <path d="M83.6 26.4a4 4 0 0 0-1 .2l-.8.2c-.5-.3-1-.6-1.3-1a2.1 2.1 0 0 1-.3-2.2l.4-.5.9-.4 1.3-.2h1.5v-1.3h-5V20h8v1.2h-1.7v2.5h-3.7l-.3.2c-.2.1-.3.3-.3.5 0 .3 0 .5.2.7l.5.5c.5-.2 1-.3 1.6-.3a3 3 0 0 1 2 .6c.5.4.8 1 .8 1.6 0 .7-.2 1.3-.7 1.7-.4.4-1 .6-1.8.7a20.5 20.5 0 0 0 2 .7l-.5 1.2A27.4 27.4 0 0 1 82 30c-.6 0-1-.1-1.5-.3-.3-.2-.5-.4-.5-.7 0-.3 0-.5.2-.6.2-.2.4-.3.7-.3l.6.2.9.6h.4c.7 0 1.3 0 1.7-.3.4-.2.6-.6.6-1a1 1 0 0 0-.4-.9c-.3-.2-.6-.3-1.1-.3Zm12.9-5.2V30h-1.3v-4.3a7 7 0 0 1-3.4.2l-1.3-.3-.7.3a17.5 17.5 0 0 0 3.4 3.4l-.9.9a24.7 24.7 0 0 1-4.5-5v-.6c0-.2 0-.4.2-.6.1-.2.4-.3.8-.3.2 0 .5 0 .6.2l.6.5c.2-.2.4-.5.4-.8a4 4 0 0 0 0-1.8l-.1-.6h-3.2V20h11v1.2h-1.6ZM93 24.8h1.1l1.1-.2v-3.4h-3.6l.2.6v2l-.5.9 1.7.1Zm2.2-4.6a14 14 0 0 0-.7-2c-.2-.5-.4-.9-.7-1-.3-.3-.6-.4-1-.4l-.5.1-.6.1-.3-1.1c.4-.2.9-.2 1.4-.2.6 0 1.1.1 1.5.4.4.2.8.7 1.2 1.4l1 2.7h-1.3ZM86 58.6a8 8 0 0 1-6.9-3.8c-.7-1.3-1-2.6-1-4a7.7 7.7 0 0 1 3.9-6.9 8.5 8.5 0 0 1 7.1-.4c1 .4 1.8 1 2.5 1.7L89.9 47a5 5 0 0 0-1.7-1.3 5.5 5.5 0 0 0-7 2.2c-.5.9-.8 1.8-.8 3a5.5 5.5 0 0 0 2.8 5 8 8 0 0 0 2.7.5c1 0 1.7 0 2.3-.4.6-.2 1.1-.6 1.6-1a5 5 0 0 0 1.2-2.7h-5v-2h7.3v1.1c0 1 0 1.9-.4 2.8-.3.9-.7 1.6-1.4 2.2a7.3 7.3 0 0 1-5.6 2.3Zm14.6 0c-1 0-2-.3-3-.7a5.4 5.4 0 0 1-1.9-2 6 6 0 0 1-.7-3c0-1 .2-2 .7-2.9.5-.9 1.1-1.5 2-2 .8-.5 1.8-.8 2.9-.8 1 0 2 .3 2.9.8.9.5 1.5 1.2 2 2 .5.9.7 1.9.7 3 0 1-.2 2-.7 2.8-.5.9-1.1 1.6-2 2-.9.5-1.8.8-3 .8Zm0-2.1c.6 0 1.1-.2 1.6-.4.5-.3 1-.7 1.3-1.3a4 4 0 0 0 .4-1.9c0-.7-.2-1.3-.4-1.9a3 3 0 0 0-1.3-1.2 3.2 3.2 0 0 0-3.2 0 3 3 0 0 0-1.2 1.2c-.3.6-.5 1.2-.5 2 0 .6.2 1.3.5 1.8a3.2 3.2 0 0 0 2.8 1.7Zm12.7 2c-1 0-2-.2-2.9-.6a5.4 5.4 0 0 1-2-2 6 6 0 0 1-.7-3c0-1 .3-2 .7-2.9.5-.9 1.2-1.5 2-2 .9-.5 1.9-.8 3-.8 1 0 2 .3 2.8.8.9.5 1.6 1.2 2 2 .5.9.8 1.9.8 3 0 1-.3 2-.8 2.8-.4.9-1.1 1.6-2 2-.8.5-1.8.8-2.9.8Zm0-2c.6 0 1.2-.2 1.7-.4a3 3 0 0 0 1.2-1.3 4 4 0 0 0 .4-1.9 4 4 0 0 0-.4-1.9 3 3 0 0 0-1.2-1.2 3.2 3.2 0 0 0-3.3 0 3 3 0 0 0-1.2 1.2c-.3.6-.4 1.2-.4 2 0 .6.1 1.3.4 1.8a3.2 3.2 0 0 0 2.8 1.7ZM126 63c-1.3 0-2.4-.3-3.3-.9A4.4 4.4 0 0 1 121 60l2.2-1c.2.6.6 1 1 1.4.5.4 1.1.6 1.8.6a3 3 0 0 0 2.3-1c.6-.5.8-1.3.8-2.3v-1c-.4.5-1 .9-1.5 1.1-.6.3-1.2.5-2 .5-.9 0-1.7-.3-2.5-.7a5 5 0 0 1-1.8-2 6 6 0 0 1-.7-2.9c0-1 .2-2 .7-2.9a5 5 0 0 1 1.8-2 4.8 4.8 0 0 1 4.5-.2c.6.3 1 .7 1.4 1.2h.1v-1.3h2.2v10a6 6 0 0 1-.6 3c-.5.9-1.1 1.5-2 2-.7.3-1.6.5-2.7.5Zm0-6.8c.6 0 1.1-.2 1.6-.4a3 3 0 0 0 1.1-1.2 4 4 0 0 0 .4-1.9c0-1-.3-2-.8-2.5a3 3 0 0 0-2.3-1 3 3 0 0 0-2.7 1.6 4 4 0 0 0-.4 2c0 .6.1 1.3.4 1.8a3.2 3.2 0 0 0 2.7 1.6Zm8-13h2.4v15H134v-15Zm20.2 0h5.2a5 5 0 0 1 4.2 2.2c.5.7.7 1.4.7 2.3a4.4 4.4 0 0 1-2.5 4c-.7.4-1.5.6-2.4.6h-2.9v5.9h-2.3v-15Zm5.2 6.9c.6 0 1-.1 1.4-.3.4-.3.6-.6.8-1 .2-.3.3-.7.3-1 0-.4 0-.8-.3-1.2-.2-.4-.4-.7-.8-.9-.4-.2-.8-.3-1.4-.3h-2.9v4.7h3Zm7-7h2.3v15h-2.3v-15Zm8.3 15.4a4 4 0 0 1-2-.5 3.3 3.3 0 0 1-2-3.1c0-1.1.4-2 1.3-2.6.8-.7 1.9-1 3.1-1a7.1 7.1 0 0 1 3 .6v-.6a2 2 0 0 0-.8-1.6 3 3 0 0 0-2-.6l-1.5.3-1.1 1-1.6-1.2c.5-.7 1-1.2 1.8-1.5.8-.4 1.6-.6 2.5-.6 1.6 0 2.8.4 3.6 1.2.9.7 1.3 1.8 1.3 3.2v6.7H178V57a3.7 3.7 0 0 1-3.3 1.6Zm.4-1.9c.6 0 1-.1 1.5-.4a2.8 2.8 0 0 0 1.4-2.5 5 5 0 0 0-1.1-.5l-1.3-.1c-.9 0-1.5.1-2 .5-.3.3-.5.8-.5 1.3s.1.9.5 1.2c.4.3.9.5 1.5.5Zm10.8 1-4.5-10.1h2.6l3 7.2h.1l3-7.2h2.5L186 62.7h-2.4l2.3-5.1ZM208 47v11.3h-2v-3.8l-1.4.6c-.5.2-1 .2-1.7.2a3.9 3.9 0 0 1-2.7-1c-.4-.4-.6-.8-.8-1.3l-.2-2.2V47h-1.6v-1.7H210V47h-2Zm-2 0h-4.8v3.6l.1 1.7.5.8c.3.3.8.5 1.4.5.6 0 1-.1 1.6-.4l1.2-.9V47Zm12.2 10.2-1.3 1.3a46.1 46.1 0 0 1-5.6-5.5l-.6-1-.1-.8c0-.3 0-.6.3-.8.2-.3.6-.5 1.1-.5.3 0 .7.1 1 .3l.7.6c1-.5 1.4-1.3 1.4-2.3v-.8l-.3-.8h-5v-1.7h9V47h-2a6.8 6.8 0 0 1 .3 1.9c0 1-.3 2-1 2.6-.6.6-1.4 1.2-2.5 1.6a28 28 0 0 0 4.6 4.2ZM233.9 47v11.3h-2v-3.8l-1.4.6c-.5.2-1 .2-1.7.2a3.9 3.9 0 0 1-2.7-1c-.4-.4-.6-.8-.8-1.3-.2-.5-.2-1.3-.2-2.2V47h-1.6v-1.7H236V47h-2.1Zm-2 0H227v3.6l.1 1.7.5.8c.3.3.8.5 1.4.5.5 0 1-.1 1.5-.4.5-.3 1-.6 1.2-.9V47Zm7.6 0v11.3h-2V46.9h-1.8v-1.7h6V47h-2.2Zm14 0h-1.8v3.3c0 .7 0 1.3-.2 1.7-.1.4-.3.8-.6 1-.5.7-1.4 1-2.6 1.2l-.4-1.8c.3 0 .6 0 .8-.2.2 0 .4-.1.5-.3.2-.1.3-.3.4-.6V47H245v4l.1 1.5c0 .4.1.7.3 1l.6.6 1.1.8 2.5 1.4c1 .5 1.5 1 1.9 1.5.3.4.5 1 .5 1.7 0 .6-.1 1-.4 1.6l-.6 1.2-1.8-1 .5-.8c.2-.3.2-.6.2-.9l-.1-.7a2 2 0 0 0-.7-.7l-1.4-.9-2-1.1a9 9 0 0 1-1.5-1 3.5 3.5 0 0 1-1.1-2.2v-6h-1.7v-1.7h12.3V47Zm-4-5c0-.3 0-.6.3-.9a1.2 1.2 0 0 1 1.8 0c.3.3.4.6.4 1 0 .3-.1.6-.4 1-.2.2-.5.3-.9.3-.3 0-.6-.1-.9-.4-.2-.3-.4-.6-.4-1ZM145.1 58.3c-1 .3-2 .3-2.9 0a5 5 0 0 1-2.4-1.4 6 6 0 0 1-1.4-2.6 6 6 0 0 1 1.2-5.4 4 4 0 0 1 2.5-1.5c1-.3 2-.3 2.9 0 .8.2 1.6.6 2.2 1.3a6 6 0 0 1 1.4 3.3l-7.9 2.1c.4 1 .9 1.6 1.7 2a3 3 0 0 0 2.3.2c.6-.2 1.1-.5 1.5-.9.4-.4.7-1 .8-1.5l2.1.4c-.2 1-.7 1.8-1.3 2.5a6 6 0 0 1-2.7 1.5Zm.9-7.4a2.5 2.5 0 0 0-1.8-1.7 3 3 0 0 0-1.6 0c-.7.3-1.3.7-1.7 1.2-.4.6-.5 1.2-.5 2L146 51Z" fill="#fff"/>
    <mask id="c" style="mask-type:luminance" maskUnits="userSpaceOnUse" x="0" y="0" width="270" height="81">
      <path d="M0 0h270v80H0V0Z" fill="#fff"/>
    </mask>
    <g mask="url(#c)">
      <path d="M40.8 38.8 19.5 61.4A5.7 5.7 0 0 0 28 65l24-14-11.2-12.2Z" fill="#EA4335"/>
    </g>
    <mask id="d" style="mask-type:luminance" maskUnits="userSpaceOnUse" x="0" y="0" width="270" height="81">
      <path d="M0 0h270v80H0V0Z" fill="#fff"/>
    </mask>
    <g mask="url(#d)">
      <path d="m62.3 35-10.4-6-11.6 10.4L52 51l10.3-6a5.8 5.8 0 0 0 0-10.1Z" fill="#FBBC04"/>
    </g>
    <mask id="e" style="mask-type:luminance" maskUnits="userSpaceOnUse" x="0" y="0" width="270" height="81">
      <path d="M0 0h270v80H0V0Z" fill="#fff"/>
    </mask>
    <g mask="url(#e)">
      <path d="M19.5 18.6c-.2.4-.2 1-.2 1.4v40c0 .5 0 1 .2 1.4l22-22-22-20.8Z" fill="#4285F4"/>
    </g>
    <mask id="f" style="mask-type:luminance" maskUnits="userSpaceOnUse" x="0" y="0" width="270" height="81">
      <path d="M0 0h270v80H0V0Z" fill="#fff"/>
    </mask>
    <g mask="url(#f)">
      <path d="m41 40 11-11-24-14a5.8 5.8 0 0 0-8.5 3.4L40.9 40Z" fill="#34A853"/>
    </g>
  </g>
  <defs>
    <clipPath id="a">
      <path fill="#fff" d="M0 0h270v80H0z"/>
    </clipPath>
  </defs>
</svg>
