<svg width="180" height="54" fill="none" xmlns="http://www.w3.org/2000/svg">
  <path d="M173.3 54H6.7A6.7 6.7 0 0 1 0 47.2V6.8C0 3 3 0 6.7 0h166.6a6.7 6.7 0 0 1 6.7 6.8v40.5c0 3.7-3 6.7-6.7 6.7Z" fill="#000"/>
  <path d="M27.6 26.2 13.4 41.5a3.8 3.8 0 0 0 5.7 2.3l16-9.3-7.5-8.3Z" fill="#EA4335"/>
  <path d="m42 23.6-7-4-7.7 7 7.8 7.9 6.9-4a3.9 3.9 0 0 0 2-3.5 4 4 0 0 0-2-3.4Z" fill="#FBBC04"/>
  <path d="M13.4 12.5a3.7 3.7 0 0 0-.1 1v27l.1 1 14.7-14.9-14.7-14Z" fill="#4285F4"/>
  <path d="m27.7 27 7.4-7.4-16-9.4a3.9 3.9 0 0 0-5.7 2.3L27.7 27Z" fill="#34A853"/>
  <path d="M142.6 40h2.5V23.3h-2.5V40ZM165 29.3l-2.9 7.3-3-7.3h-2.7l4.5 10.1-2.6 5.7h2.6l6.9-15.8H165Zm-14.1 8.8c-.8 0-2-.4-2-1.4 0-1.3 1.4-1.8 2.7-1.8 1 0 1.6.2 2.2.6a3 3 0 0 1-3 2.6Zm.3-9.1c-1.8 0-3.7.8-4.4 2.5l2.2 1c.4-1 1.3-1.3 2.2-1.3 1.3 0 2.6.8 2.7 2.2v.1a5.5 5.5 0 0 0-2.6-.6c-2.4 0-4.8 1.3-4.8 3.8 0 2.2 1.9 3.6 4 3.6a3.5 3.5 0 0 0 3.3-1.6V40h2.5v-6.4c0-3-2.2-4.6-5.1-4.6Zm-15.4 2.4h-3.5v-5.8h3.5a2.9 2.9 0 0 1 3 3 2.9 2.9 0 0 1-3 2.8Zm0-8h-6V40h2.5v-6.3h3.5c2.7 0 5.4-2 5.4-5.2s-2.7-5.2-5.4-5.2ZM103.3 38c-1.8 0-3.2-1.4-3.2-3.4s1.4-3.5 3.1-3.5c1.7 0 3 1.5 3 3.5s-1.3 3.4-3 3.4Zm2.8-7.8h-.1a4 4 0 0 0-3-1.3 5.6 5.6 0 0 0-5.4 5.7c0 3.2 2.6 5.6 5.4 5.6a4 4 0 0 0 3-1.2v.8c0 2.1-1 3.3-3 3.3a3.1 3.1 0 0 1-2.8-2L98 42a5.4 5.4 0 0 0 5 3.3c3 0 5.5-1.7 5.5-5.9v-10H106v.9Zm4 9.7h2.6V23.3h-2.5V40Zm6.3-5.5a3.1 3.1 0 0 1 3-3.3c.9 0 1.7.5 2 1.2l-5 2.1Zm7.7-1.9c-.5-1.3-2-3.6-4.9-3.6-2.9 0-5.3 2.3-5.3 5.7 0 3.1 2.4 5.6 5.6 5.6 2.6 0 4.1-1.5 4.7-2.5l-1.9-1.3a3.2 3.2 0 0 1-2.8 1.6 2.9 2.9 0 0 1-2.7-1.7l7.5-3.1-.2-.7Zm-60.4-1.9V33h5.7a5 5 0 0 1-1.3 3 5.9 5.9 0 0 1-4.4 1.8 6.3 6.3 0 0 1-6.3-6.4A6.3 6.3 0 0 1 68 27l1.7-1.7a8.4 8.4 0 0 0-6-2.5 9 9 0 0 0-9 8.8 9 9 0 0 0 9 8.8 8 8 0 0 0 6.1-2.4c1.6-1.6 2-3.8 2-5.6a7.8 7.8 0 0 0 0-1.5h-8.1ZM78.4 38c-1.7 0-3.2-1.4-3.2-3.4s1.5-3.5 3.2-3.5c1.8 0 3.2 1.4 3.2 3.5 0 2-1.4 3.4-3.2 3.4Zm0-9a5.6 5.6 0 0 0-5.7 5.6 5.6 5.6 0 0 0 5.7 5.6 5.6 5.6 0 0 0 5.7-5.6 5.6 5.6 0 0 0-5.7-5.7ZM91 38c-1.8 0-3.2-1.4-3.2-3.4s1.4-3.5 3.2-3.5c1.7 0 3.2 1.4 3.2 3.5 0 2-1.5 3.4-3.2 3.4Zm0-9a5.6 5.6 0 0 0-5.7 5.6 5.6 5.6 0 0 0 5.7 5.6 5.6 5.6 0 0 0 5.7-5.6 5.6 5.6 0 0 0-5.7-5.7ZM56 16.3h1.4c.8 0 1.5-.3 2-.8.6-.5.8-1.2.8-2 0-1-.2-1.7-.7-2.2a2.9 2.9 0 0 0-2.1-.8H56v5.8Zm-1 1V9.6h2.4a3.8 3.8 0 0 1 2.8 1 4 4 0 0 1 1 2.8 4 4 0 0 1-1 2.8 3.8 3.8 0 0 1-2.8 1H55Z" fill="#fff"/>
  <path d="M56.1 16.4v.1h1.4a3 3 0 0 0 2.2-.8 3 3 0 0 0 .8-2.2 3 3 0 0 0-.8-2.2 3 3 0 0 0-2.2-.8H56v6h.1v-.1h.1v-5.6h1.3c.8 0 1.5.2 2 .7.5.5.7 1.1.7 2 0 1-.3 1.6-.7 2-.5.5-1.2.8-2 .8H56Zm-1 1h.2V9.7h2.2a4 4 0 0 1 2.7 1 3.6 3.6 0 0 1 1 2.7 3.6 3.6 0 0 1-1 2.7 3.7 3.7 0 0 1-2.7 1H55v.3h2.4a4 4 0 0 0 2.9-1.1 3.9 3.9 0 0 0 1-2.9 3.9 3.9 0 0 0-1-2.8 4 4 0 0 0-3-1.1H55v7.9h.1v-.2Zm9-1.7a2.8 2.8 0 0 0 2.2.9c.8 0 1.5-.3 2-.9a3 3 0 0 0 .9-2.2 3 3 0 0 0-.9-2.2 2.8 2.8 0 0 0-2-.8 3 3 0 0 0-2.1.8 3 3 0 0 0-.9 2.2 3 3 0 0 0 .9 2.2Zm5 .7a3.7 3.7 0 0 1-2.8 1.1 3.9 3.9 0 0 1-4-4 4 4 0 0 1 4-4 3.9 3.9 0 0 1 3.9 4 3.9 3.9 0 0 1-1.1 2.8Z" fill="#fff"/>
  <path d="m64.2 15.7-.1.1a3 3 0 0 0 2.2.9 3 3 0 0 0 3-3.2c0-.9-.3-1.7-.9-2.3a3 3 0 0 0-2.1-.9 3 3 0 0 0-2.2 1c-.6.5-.9 1.3-.9 2.2 0 1 .3 1.7.9 2.3l.2-.2a2.9 2.9 0 0 1-.8-2c0-1 .2-1.6.8-2.2.5-.5 1.2-.8 2-.8.7 0 1.4.3 2 .8.5.6.7 1.2.7 2.1a2.9 2.9 0 0 1-.8 2.1 2.7 2.7 0 0 1-2 .8c-.7 0-1.4-.2-2-.8v.1Zm4.9.7-.1-.2a3.6 3.6 0 0 1-2.7 1.2 3.8 3.8 0 0 1-3.8-3.9 3.8 3.8 0 0 1 3.8-3.8 3.6 3.6 0 0 1 2.7 1 4 4 0 0 1 1 2.8c0 1.1-.3 2-1 2.7v.2h.2a4 4 0 0 0 1.1-2.9 4 4 0 0 0-4-4.1 4 4 0 0 0-4.1 4.1 4 4 0 0 0 4 4.1 4 4 0 0 0 3-1.2H69Zm4.6 1.1c-.5 0-1-.2-1.6-.5a2.5 2.5 0 0 1-1-1.6l.8-.3c.1.4.4.7.7 1 .3.3.7.5 1.1.5.4 0 .8-.2 1.1-.4.3-.2.5-.5.5-.9s-.2-.7-.5-1a4.5 4.5 0 0 0-1.4-.6 3.8 3.8 0 0 1-1.6-.8 1.7 1.7 0 0 1-.5-1.3c0-.6.2-1 .7-1.5.4-.4 1-.6 1.7-.6A2.4 2.4 0 0 1 76 11l-1 .5a1.3 1.3 0 0 0-.4-.7 1.5 1.5 0 0 0-1-.3c-.4 0-.7 0-1 .3a1 1 0 0 0-.4.8c0 .3.1.5.4.7l1 .5a5.4 5.4 0 0 1 1.8.8l.6.7.2 1a2 2 0 0 1-.9 1.7 3 3 0 0 1-1.7.5Z" fill="#fff"/>
  <path d="M73.7 17.5v-.1a3 3 0 0 1-1.5-.5c-.5-.4-.9-.9-1-1.5H71v.2l1-.4v-.1h-.2c.1.5.4.8.7 1.1a2 2 0 0 0 2.4.1c.3-.2.5-.6.5-1s-.2-.8-.5-1a4.8 4.8 0 0 0-1.5-.7 3.7 3.7 0 0 1-1.5-.8 1.6 1.6 0 0 1-.5-1.2c0-.5.2-1 .7-1.4.4-.3.9-.5 1.6-.5.6 0 1 .1 1.5.4.4.3.6.7.7 1h.1V11l-1 .3.1.2h.2a1.5 1.5 0 0 0-.6-.8 1.6 1.6 0 0 0-1-.4c-.4 0-.8.1-1 .4a1 1 0 0 0-.5.9c0 .3.1.6.4.8.3.2.6.4 1.1.5l1 .4.7.4.5.7a2.1 2.1 0 0 1 0 1.8l-.5.7a2.9 2.9 0 0 1-1.7.5v.2a3.2 3.2 0 0 0 1.8-.5 2 2 0 0 0 .7-.7 2.6 2.6 0 0 0 0-2.1 2 2 0 0 0-.6-.8 4.1 4.1 0 0 0-.8-.5 9.4 9.4 0 0 0-1-.3 3.4 3.4 0 0 1-1-.5.8.8 0 0 1-.3-.6c0-.3 0-.5.3-.7.2-.2.5-.3.9-.3s.6.1.9.3c.2.2.4.4.4.6v.1l1.2-.4V11a2.4 2.4 0 0 0-.9-1c-.4-.4-1-.6-1.6-.6-.8 0-1.4.2-1.8.6a2 2 0 0 0-.2 3l1.6.8 1.4.6c.3.2.4.5.4 1a1 1 0 0 1-.4.7c-.2.2-.6.3-1 .3s-.7-.1-1-.4a2 2 0 0 1-.6-1l-1.1.4h-.1v.2A2.6 2.6 0 0 0 72 17a3 3 0 0 0 1.7.5v-.1Zm6.5-.2h-1v-6.7H77v-.9h5.3v1h-2.1v6.6Z" fill="#fff"/>
  <path d="M80.2 17.3v-.1h-.9v-6.7h-2.1v-.7h5v.7H80v6.8h.3v-6.5h2.1V9.6H77v1.2h2v6.7h1.3v-.2h-.1Zm6 .2c-.9 0-1.5-.3-2-.8a3 3 0 0 1-.8-2.2V9.7h1v4.8c0 .6.1 1.1.4 1.5.3.4.8.6 1.4.6.6 0 1-.2 1.4-.6.3-.4.4-.9.4-1.5V9.7h1v4.8a3 3 0 0 1-.7 2.2c-.5.5-1.2.8-2.1.8Z" fill="#fff"/>
  <path d="M86.2 17.5v-.1c-.8 0-1.5-.3-2-.8a2.9 2.9 0 0 1-.7-2.1V9.8h.7v4.7c0 .7.2 1.2.5 1.6.4.4.9.6 1.5.6s1.1-.2 1.5-.6c.3-.4.5-1 .5-1.6V9.8h.7v4.7a3 3 0 0 1-.7 2c-.5.6-1.2.9-2 .9v.2c.9 0 1.6-.3 2.1-.8.6-.6.8-1.4.8-2.3v-5H88v5c0 .6-.1 1-.4 1.4-.3.4-.7.5-1.3.5-.6 0-1-.1-1.3-.5a2 2 0 0 1-.4-1.4v-5h-1.3v5c0 1 .3 1.7.9 2.3a2.8 2.8 0 0 0 2 .8v-.1Zm5.4-4.2h1.6a1.4 1.4 0 0 0 1.4-1.3c0-.4-.1-.7-.4-1a1.3 1.3 0 0 0-1-.4h-1.6v2.7Zm0 4h-1V9.7h2.6c.6 0 1.2.2 1.7.6.4.5.7 1 .7 1.7a2 2 0 0 1-.7 1.6c-.5.4-1 .6-1.7.6h-1.6v3.1Z" fill="#fff"/>
  <path d="M91.6 13.3v.1h1.6c.5 0 .8-.1 1.1-.4a1.4 1.4 0 0 0 0-2 1.4 1.4 0 0 0-1-.5h-1.9v3h.2v-.2h.1v-2.5h1.5c.4 0 .7 0 1 .3l.3.9c0 .3-.1.5-.4.8-.2.2-.5.4-.9.4h-1.6v.1Zm0 4v-.1h-.9V9.8h2.5c.6 0 1.1.2 1.6.6.4.4.7 1 .7 1.6a2 2 0 0 1-.7 1.5c-.5.4-1 .6-1.6.6h-1.8v3.2h.3v-3h1.5c.7 0 1.3-.2 1.8-.6.5-.5.7-1 .7-1.7s-.2-1.3-.7-1.8c-.5-.4-1.1-.6-1.8-.6h-2.7v7.9h1.2v-.2h-.1Zm5.2 0V9.7H98l3.7 6v-6h1v7.6h-1l-3.9-6.2v6.2h-1Z" fill="#fff"/>
  <path d="M96.8 17.3h.2V9.8h1l3.7 6h.2v-6h.7v7.4h-.8l-4-6.2h-.2v6.2h-.8v.3H98V11h-.1v.1-.1h-.1l4 6.4h1.2v-8h-1.3v6.1h.2v-.1.1l-3.7-6h-1.4v7.9h.1v-.2Zm9-1.6a2.8 2.8 0 0 0 2.1.9c.8 0 1.5-.3 2-.9a3 3 0 0 0 1-2.2 3 3 0 0 0-1-2.2 2.8 2.8 0 0 0-2-.8 2.8 2.8 0 0 0-2 .8 3 3 0 0 0-1 2.2 3 3 0 0 0 1 2.2Zm5 .7a3.7 3.7 0 0 1-2.9 1.1 3.9 3.9 0 0 1-4-4 4 4 0 0 1 4-4 3.9 3.9 0 0 1 4 4 3.9 3.9 0 0 1-1.2 2.8Z" fill="#fff"/>
  <path d="M105.8 15.7v.1a3 3 0 0 0 2.1.9 3 3 0 0 0 2.2-.9c.6-.6.9-1.4.9-2.3 0-.9-.3-1.7-1-2.3a3 3 0 0 0-2-.9 3 3 0 0 0-3.1 3.2c0 1 .3 1.7.8 2.3h.1l.1-.2a2.9 2.9 0 0 1-.8-2c0-1 .3-1.6.8-2.2.6-.5 1.2-.8 2-.8s1.4.3 2 .8c.5.6.8 1.2.8 2.1 0 .9-.3 1.6-.8 2.1a2.7 2.7 0 0 1-2 .8c-.8 0-1.4-.2-2-.8v.1Zm5 .7-.2-.2a3.6 3.6 0 0 1-2.7 1.2 3.8 3.8 0 0 1-3.8-3.9 3.8 3.8 0 0 1 6.5-2.7 3.8 3.8 0 0 1 1.1 2.7 4 4 0 0 1-1 2.7v.2h.1a4 4 0 0 0 1.2-2.9 4 4 0 0 0-4-4.1 4 4 0 0 0-4.2 4.1 4 4 0 0 0 4.1 4.1 3.9 3.9 0 0 0 3-1.2h-.2Zm5 1V9.6h1.2l3.7 6v-6h1v7.6h-1l-4-6.2v6.2h-1Z" fill="#fff"/>
  <path d="M115.8 17.3h.1V9.8h1l3.7 6h.3v-6h.6v7.4h-.8l-3.9-6.2h-.2v6.2h-.8v.3h1V11v.1-.1h-.2l4 6.4h1.2v-8h-1.3v6.1h.2v-.1.1l-3.7-6h-1.4v7.9h.2v-.2Zm9.1-3h2.6l-1.3-3.4-1.3 3.4Zm-2.1 3 2.8-7.6h1.1l3 7.6h-1.2l-.7-2h-3.2l-.8 2h-1Z" fill="#fff"/>
  <path d="M125 14.3v.2h2.7l-1.4-3.7h-.2l-1.4 3.7h.2v-.1h.2l1.2-3.5h-.1v.1-.1h-.1l1.2 3.3h-2.4v.1Zm-2.2 3 3-7.5h.9l2.7 7.4h-.8l-.7-2h-3.4l-.7 2h-1v.3h1.1l.8-2.1h3l.7 2h1.4l-3-7.8h-1.3l-3 7.9h.3v-.2Zm13 .2c-.9 0-1.6-.3-2.1-.8a3 3 0 0 1-.8-2.2V9.7h1v4.8c0 .6.2 1.1.5 1.5.3.4.7.6 1.3.6.6 0 1.1-.2 1.4-.6.3-.4.5-.9.5-1.5V9.7h1v4.8a3 3 0 0 1-.8 2.2c-.5.5-1.2.8-2 .8Z" fill="#fff"/>
  <path d="M135.8 17.5v-.1c-.9 0-1.5-.3-2-.8a2.9 2.9 0 0 1-.8-2.1V9.8h.8v4.7c0 .7.1 1.2.5 1.6.3.4.8.6 1.4.6.7 0 1.2-.2 1.5-.6.4-.4.5-1 .5-1.6V9.8h.7v4.7a3 3 0 0 1-.7 2c-.5.6-1.1.9-2 .9v.2a3 3 0 0 0 2.2-.8c.5-.6.8-1.4.8-2.3v-5h-1.2v5c0 .6-.2 1-.5 1.4-.3.4-.7.5-1.2.5-.6 0-1-.1-1.3-.5a2 2 0 0 1-.5-1.4v-5h-1.2v5c0 1 .3 1.7.8 2.3a2.8 2.8 0 0 0 2.2.8v-.1Zm6.5 0a3 3 0 0 1-1.6-.5 2.5 2.5 0 0 1-1-1.6l.8-.3c.1.4.4.8.7 1 .3.3.7.5 1.1.5.4 0 .8-.1 1.1-.4.3-.2.5-.5.5-.9s-.2-.7-.5-1l-1.4-.6a3.9 3.9 0 0 1-1.6-.8 1.9 1.9 0 0 1 .2-2.8c.4-.4 1-.6 1.7-.6a2.4 2.4 0 0 1 2.4 1.5l-1 .5a1.3 1.3 0 0 0-.4-.7 1.5 1.5 0 0 0-1-.3c-.4 0-.7 0-1 .3a1 1 0 0 0-.4.8c0 .3.1.5.4.7l1 .5 1 .4c.3 0 .5.2.8.4l.6.7.2 1c0 .4-.1.7-.3 1a2 2 0 0 1-.6.7 3 3 0 0 1-1.7.5Z" fill="#fff"/>
  <path d="M142.3 17.5v-.1c-.5 0-1-.2-1.6-.5a4 4 0 0 1-1-1.5v.2l.9-.4v-.1h-.2c.1.5.4.8.7 1.1a2 2 0 0 0 2.4.1c.3-.2.5-.6.5-1s-.2-.8-.5-1a4.8 4.8 0 0 0-1.5-.7 3.7 3.7 0 0 1-1.5-.8c-.3-.3-.5-.7-.5-1.2s.2-1 .6-1.4c.5-.3 1-.5 1.7-.5.6 0 1 .1 1.5.4l.7 1h.1V11l-1 .3.1.2h.2a1.5 1.5 0 0 0-.6-.8 1.6 1.6 0 0 0-1-.4c-.4 0-.8.1-1 .4a1 1 0 0 0-.5.9c0 .3.1.6.4.8.3.2.6.4 1.1.5a4.5 4.5 0 0 1 1.7.8l.5.7c.2.2.2.5.2.9s0 .7-.2 1l-.6.6a2.9 2.9 0 0 1-1.6.5v.2a3.2 3.2 0 0 0 1.8-.5 2 2 0 0 0 .6-.7 2.5 2.5 0 0 0 0-2.1 1.9 1.9 0 0 0-.5-.8l-.8-.5a9.4 9.4 0 0 0-1-.3 3.4 3.4 0 0 1-1-.5.8.8 0 0 1-.4-.6c0-.3.2-.5.4-.7.2-.2.5-.3.9-.3s.6.1.9.3l.4.6v.1l1-.4h.2V11a2.4 2.4 0 0 0-.9-1 2.6 2.6 0 0 0-1.6-.6c-.8 0-1.4.2-1.8.6a2 2 0 0 0-.2 3l1.6.8 1.4.6c.3.2.4.5.4 1 0 .3-.1.5-.4.7a1.7 1.7 0 0 1-2 0 2 2 0 0 1-.6-1v-.2l-1.1.4h-.1v.2a3 3 0 0 0 2.8 2.2v-.2Zm4-.2V9.7h1v6.7h3.3v1h-4.3Z" fill="#fff"/>
  <path d="M146.3 17.3h.1V9.8h.7v6.7h3.3v.7h-4.1v.3h4.4v-1.2h-3.3V9.6H146v7.9h.2v-.2Zm8 .2c-.8 0-1.5-.3-2-.8a3 3 0 0 1-.8-2.2V9.7h1v4.8c0 .6.2 1.1.5 1.5.3.4.7.6 1.3.6.6 0 1-.2 1.4-.6.3-.4.5-.9.5-1.5V9.7h1v4.8a3 3 0 0 1-.8 2.2c-.5.5-1.2.8-2 .8Z" fill="#fff"/>
  <path d="M154.3 17.5v-.1a3 3 0 0 1-2-.8 3 3 0 0 1-.6-2.1V9.8h.7v4.7c0 .7.1 1.2.5 1.6.3.4.8.6 1.4.6.7 0 1.2-.2 1.5-.6.3-.4.5-1 .5-1.6V9.8h.7v4.7a3 3 0 0 1-.7 2c-.5.6-1.1.9-2 .9v.2a3 3 0 0 0 2.2-.8c.5-.6.8-1.4.8-2.3v-5H156v5c0 .6-.1 1-.4 1.4-.3.4-.7.5-1.3.5-.5 0-1-.1-1.2-.5a2 2 0 0 1-.5-1.4v-5h-1.2v5c0 1 .2 1.7.8 2.3a2.8 2.8 0 0 0 2.1.8v-.1Zm4-.2v-1l4-5.7h-3.8v-.9h5v1l-4 5.7h4v1h-5.2Z" fill="#fff"/>
  <path d="M158.3 17.3h.1v-1l4.2-5.8h-4v-.7h4.8v.9l-4.2 5.8h4.2v.7h-5v.3h5.3v-1.2h-4l4-5.5V9.6h-5.3v1.2h3.7l-4 5.5v1.2h.2v-.2Zm6.7 0V9.7h1v7.6h-1Z" fill="#fff"/>
  <path d="M165 17.3h.1V9.8h.7v7.4h-.8v.3h1v-8h-1.2v8h.2v-.2Z" fill="#fff"/>
</svg>
