<svg width="180" height="54" fill="none" xmlns="http://www.w3.org/2000/svg">
  <path d="M173.33 54H6.67A6.73 6.73 0 0 1 0 47.25V6.75C0 3.04 3 0 6.67 0h166.66A6.73 6.73 0 0 1 180 6.75v40.5c0 3.71-3 6.75-6.67 6.75Z" fill="#000"/>
  <path d="m27.63 26.22-14.2 15.26a3.84 3.84 0 0 0 5.65 2.35l.05-.03 15.97-9.33-7.48-8.25Z" fill="#EA4335"/>
  <path d="m41.98 23.63-.01-.02-6.9-4.05-7.77 7 7.8 7.9 6.86-4a3.89 3.89 0 0 0 2.02-3.43c0-1.47-.8-2.75-2-3.4Z" fill="#FBBC04"/>
  <path d="M13.43 12.52a3.7 3.7 0 0 0-.13 1v26.96c0 .35.04.68.13 1L28.1 26.62l-14.68-14.1Z" fill="#4285F4"/>
  <path d="m27.73 27 7.34-7.44-15.96-9.37a3.85 3.85 0 0 0-5.69 2.33L27.73 27Z" fill="#34A853"/>
  <path d="M142.58 40h2.49V23.33h-2.49V40ZM165 29.34l-2.85 7.22h-.09l-2.96-7.22h-2.68l4.44 10.1-2.53 5.61h2.6l6.84-15.71H165Zm-14.1 8.77c-.82 0-1.96-.41-1.96-1.42 0-1.29 1.41-1.78 2.64-1.78 1.1 0 1.6.24 2.27.56a3.02 3.02 0 0 1-2.96 2.64Zm.3-9.14c-1.81 0-3.68.8-4.45 2.55l2.21.93c.47-.93 1.35-1.23 2.27-1.23 1.3 0 2.6.78 2.62 2.15v.17a5.5 5.5 0 0 0-2.6-.64c-2.38 0-4.8 1.3-4.8 3.75 0 2.23 1.95 3.67 4.14 3.67a3.5 3.5 0 0 0 3.17-1.63h.09v1.28h2.4v-6.39c0-2.96-2.2-4.6-5.06-4.6Zm-15.38 2.4h-3.54v-5.72h3.53a2.89 2.89 0 0 1 2.92 2.86 2.9 2.9 0 0 1-2.91 2.86Zm-.07-8.04h-5.96V40h2.49v-6.31h3.47c2.76 0 5.47-2 5.47-5.18 0-3.18-2.71-5.18-5.47-5.18Zm-32.5 14.78c-1.72 0-3.16-1.44-3.16-3.42 0-2 1.44-3.45 3.15-3.45 1.7 0 3.03 1.46 3.03 3.45 0 1.98-1.33 3.42-3.03 3.42Zm2.85-7.84h-.1a3.93 3.93 0 0 0-2.98-1.27 5.64 5.64 0 0 0-5.44 5.7c0 3.17 2.6 5.64 5.44 5.64 1.35 0 2.43-.6 2.98-1.28h.09v.81c0 2.17-1.16 3.33-3.03 3.33a3.14 3.14 0 0 1-2.86-2.02l-2.17.9a5.4 5.4 0 0 0 5.03 3.36c2.92 0 5.4-1.72 5.4-5.91V29.35h-2.37v.92Zm4.08 9.73h2.5V23.33h-2.5V40Zm6.17-5.5a3.11 3.11 0 0 1 2.96-3.3c.99 0 1.83.49 2.1 1.2l-5.06 2.1Zm7.73-1.89c-.47-1.27-1.91-3.6-4.85-3.6-2.93 0-5.35 2.3-5.35 5.66 0 3.18 2.4 5.67 5.62 5.67 2.6 0 4.1-1.59 4.73-2.5l-1.93-1.3a3.24 3.24 0 0 1-2.8 1.57 2.89 2.89 0 0 1-2.75-1.72l7.59-3.13-.26-.65Zm-60.41-1.87v2.4h5.76a5.02 5.02 0 0 1-1.32 3.04 5.9 5.9 0 0 1-4.44 1.76 6.32 6.32 0 0 1-6.32-6.4A6.32 6.32 0 0 1 68 26.85l1.7-1.7a8.4 8.4 0 0 0-6.04-2.42 8.93 8.93 0 0 0-8.94 8.8 8.93 8.93 0 0 0 8.94 8.81c2.62 0 4.6-.86 6.14-2.47 1.6-1.59 2.09-3.82 2.09-5.62a7.8 7.8 0 0 0-.13-1.5h-8.1Zm14.77 7.37c-1.72 0-3.2-1.42-3.2-3.44 0-2.04 1.48-3.43 3.2-3.43 1.72 0 3.2 1.4 3.2 3.43 0 2.02-1.48 3.44-3.2 3.44Zm0-9.1a5.59 5.59 0 0 0-5.7 5.66 5.6 5.6 0 0 0 5.7 5.67 5.6 5.6 0 0 0 5.7-5.67 5.59 5.59 0 0 0-5.7-5.67Zm12.42 9.1c-1.72 0-3.2-1.42-3.2-3.44 0-2.04 1.48-3.43 3.2-3.43 1.72 0 3.2 1.4 3.2 3.43 0 2.02-1.48 3.44-3.2 3.44Zm0-9.1a5.59 5.59 0 0 0-5.7 5.66 5.6 5.6 0 0 0 5.7 5.67 5.6 5.6 0 0 0 5.69-5.67 5.59 5.59 0 0 0-5.7-5.67ZM56.1 16.4h1.35c.89 0 1.59-.26 2.1-.76.52-.5.77-1.21.77-2.13 0-.9-.25-1.6-.77-2.11a2.86 2.86 0 0 0-2.1-.77H56.1v5.76Zm-.98.93V9.7h2.33a3.8 3.8 0 0 1 2.82 1.06c.7.7 1.06 1.62 1.06 2.75 0 1.14-.36 2.05-1.06 2.76a3.8 3.8 0 0 1-2.82 1.06h-2.33Z" fill="#fff"/>
  <path d="M56.1 16.4v.13h1.35a3 3 0 0 0 2.2-.8c.54-.53.8-1.28.8-2.22 0-.92-.26-1.67-.8-2.2a3 3 0 0 0-2.2-.8h-1.48v6.02h.13v-.14h.13v-5.62h1.22c.86 0 1.52.24 2 .72.5.48.74 1.15.74 2.02 0 .9-.25 1.56-.73 2.03-.49.48-1.15.72-2 .72H56.1v.13Zm-.98.93h.13v-7.5h2.2c1.15 0 2.05.34 2.73 1.02a3.6 3.6 0 0 1 1.01 2.66 3.6 3.6 0 0 1-1.01 2.67 3.66 3.66 0 0 1-2.73 1.02h-2.33v.27h2.33a4 4 0 0 0 2.92-1.1 3.9 3.9 0 0 0 1.09-2.86 3.9 3.9 0 0 0-1.1-2.85 3.93 3.93 0 0 0-2.9-1.1h-2.47v7.9h.13v-.13Zm9.06-1.63a2.8 2.8 0 0 0 2.08.87c.81 0 1.5-.3 2.07-.86a3 3 0 0 0 .85-2.2c0-.88-.29-1.61-.85-2.19a2.8 2.8 0 0 0-2.07-.86c-.82 0-1.51.29-2.08.86-.57.58-.85 1.3-.85 2.2a3 3 0 0 0 .85 2.19Zm4.87.65a3.74 3.74 0 0 1-2.8 1.15 3.9 3.9 0 0 1-3.93-3.99 3.91 3.91 0 0 1 3.94-3.98 3.9 3.9 0 0 1 3.92 3.99 3.9 3.9 0 0 1-1.13 2.83Z" fill="#fff"/>
  <path d="m64.18 15.7-.1.1c.6.6 1.33.9 2.18.9a3.07 3.07 0 0 0 3.05-3.19c0-.91-.3-1.68-.89-2.28-.58-.6-1.32-.9-2.16-.9-.85 0-1.59.3-2.18.9-.59.6-.88 1.37-.88 2.28 0 .92.3 1.7.88 2.3l.1-.1.1-.1a2.86 2.86 0 0 1-.81-2.1c0-.86.26-1.55.8-2.1.55-.54 1.2-.81 1.99-.81.78 0 1.43.27 1.97.82.54.54.81 1.23.81 2.1a2.9 2.9 0 0 1-.8 2.1 2.7 2.7 0 0 1-1.98.81c-.8 0-1.44-.27-1.99-.82l-.09.1Zm4.87.65-.1-.1a3.6 3.6 0 0 1-2.7 1.12 3.77 3.77 0 0 1-3.8-3.86 3.78 3.78 0 0 1 3.8-3.85 3.6 3.6 0 0 1 2.7 1.12c.73.75 1.1 1.66 1.1 2.73 0 1.1-.36 2-1.1 2.74l.1.1.1.09a4.05 4.05 0 0 0 1.16-2.93 4.04 4.04 0 0 0-4.05-4.12 4.04 4.04 0 0 0-4.06 4.12 4.04 4.04 0 0 0 4.06 4.13c1.14 0 2.12-.4 2.89-1.2l-.1-.1Zm4.66 1.15c-.55 0-1.1-.18-1.63-.54a2.51 2.51 0 0 1-1.04-1.53l.9-.36c.1.42.33.78.66 1.06.33.3.7.44 1.11.44.43 0 .8-.12 1.1-.34.3-.22.45-.53.45-.91 0-.43-.15-.76-.46-.99a4.5 4.5 0 0 0-1.43-.64 3.83 3.83 0 0 1-1.54-.83 1.73 1.73 0 0 1-.52-1.3c0-.54.22-1.02.65-1.43.43-.4 1-.6 1.7-.6.64 0 1.17.16 1.58.48.4.33.66.68.79 1.06l-.9.38a1.33 1.33 0 0 0-.48-.68 1.5 1.5 0 0 0-.97-.3c-.38 0-.7.1-.97.3-.26.22-.4.48-.4.8 0 .28.13.52.37.71.25.2.6.37 1.08.53a5.38 5.38 0 0 1 1.72.81c.26.18.45.42.58.7.13.28.2.6.2.98a2.05 2.05 0 0 1-.83 1.69 3 3 0 0 1-1.72.51Z" fill="#fff"/>
  <path d="M73.71 17.5v-.13c-.52 0-1.04-.17-1.55-.52-.5-.35-.83-.82-.99-1.45l-.13.04.05.12.9-.36-.05-.13-.13.03c.11.45.35.83.7 1.13a1.92 1.92 0 0 0 2.37.1c.34-.24.51-.6.51-1.01 0-.46-.17-.84-.5-1.1a4.79 4.79 0 0 0-1.48-.66l-.04.13.04-.13a3.72 3.72 0 0 1-1.48-.8 1.6 1.6 0 0 1-.49-1.2c0-.5.2-.94.61-1.33.4-.38.93-.57 1.6-.57.63 0 1.13.15 1.5.45.4.32.64.65.75 1l.13-.04-.06-.12-.9.37.06.13.13-.04a1.46 1.46 0 0 0-.52-.74 1.63 1.63 0 0 0-1.06-.34c-.4 0-.76.11-1.05.34-.3.23-.45.54-.45.9 0 .32.15.6.42.82.26.2.64.39 1.12.55.38.12.69.23.93.34.25.11.5.26.75.44.24.18.42.4.54.66a2.15 2.15 0 0 1-.03 1.85c-.14.27-.33.48-.56.64a2.88 2.88 0 0 1-1.64.5v.27a3.19 3.19 0 0 0 1.79-.55 2 2 0 0 0 .65-.74 2.64 2.64 0 0 0 .04-2.09 2 2 0 0 0-.64-.75 4.1 4.1 0 0 0-.79-.47 9.4 9.4 0 0 0-.95-.36 3.4 3.4 0 0 1-1.05-.5.76.76 0 0 1-.31-.62c0-.27.1-.48.35-.68.24-.19.53-.28.88-.28.37 0 .66.1.89.28.24.2.38.4.43.6l.04.15 1.15-.48-.04-.12a2.4 2.4 0 0 0-.83-1.12c-.43-.35-1-.52-1.66-.52-.73 0-1.33.21-1.79.65a2.02 2.02 0 0 0-.13 2.92c.37.35.9.63 1.59.85.65.2 1.11.41 1.4.63.26.2.4.48.4.88a.97.97 0 0 1-.4.8c-.28.2-.62.31-1.02.31-.38 0-.72-.13-1.03-.4-.3-.27-.51-.6-.61-1l-.04-.14-1.04.42-.1.04.03.12a2.6 2.6 0 0 0 1.09 1.6c.55.38 1.12.57 1.7.57v-.14Zm6.45-.17h-.98v-6.7h-2.13V9.7h5.25v.94h-2.14v6.7Z" fill="#fff"/>
  <path d="M80.16 17.33v-.13h-.84v-6.7h-2.14v-.67h4.98v.67h-2.13v6.83h.27v-6.56h2.13v-1.2h-5.51v1.2h2.13v6.7h1.25v-.14h-.14Zm6.03.17c-.84 0-1.52-.27-2.04-.83a3.04 3.04 0 0 1-.79-2.17V9.7h.98v4.84c0 .6.16 1.1.48 1.47.32.37.77.56 1.37.56.6 0 1.05-.2 1.37-.56.32-.38.48-.87.48-1.47V9.7h.98v4.8c0 .9-.26 1.63-.77 2.18-.5.55-1.2.82-2.06.82Z" fill="#fff"/>
  <path d="M86.19 17.5v-.13c-.81 0-1.45-.26-1.95-.79a2.9 2.9 0 0 1-.74-2.08V9.83h.71v4.7c0 .64.17 1.16.5 1.56.35.4.86.61 1.48.6.62.01 1.13-.2 1.47-.6.34-.4.5-.92.5-1.55V9.83h.72v4.67c0 .88-.24 1.56-.72 2.09-.49.52-1.13.78-1.97.78v.27c.9 0 1.63-.3 2.16-.87.54-.58.8-1.35.8-2.27V9.56H87.9v4.98c0 .58-.15 1.03-.44 1.38-.3.34-.7.51-1.27.51-.57 0-.98-.17-1.27-.51-.3-.35-.44-.8-.44-1.38V9.56h-1.25v4.94c0 .92.27 1.68.82 2.26a2.8 2.8 0 0 0 2.14.88v-.14Zm5.39-4.2h1.64a1.35 1.35 0 0 0 1.37-1.33c0-.34-.13-.64-.38-.92a1.27 1.27 0 0 0-1-.42h-1.63v2.67Zm0 4.03h-.98V9.7h2.6c.65 0 1.2.21 1.68.64.47.43.7.97.7 1.63 0 .65-.23 1.2-.7 1.63-.48.43-1.03.64-1.68.64h-1.62v3.1Z" fill="#fff"/>
  <path d="M91.58 13.3v.13h1.64c.44 0 .82-.15 1.09-.46a1.45 1.45 0 0 0 0-2 1.4 1.4 0 0 0-1.1-.47h-1.77v2.94h.14v-.14h.13v-2.53h1.5c.4 0 .68.12.9.37.23.26.34.53.34.83 0 .3-.1.57-.34.83-.22.24-.5.37-.9.37h-1.63v.13Zm0 4.03v-.13h-.85V9.83h2.47c.62 0 1.14.2 1.59.61.44.41.66.9.66 1.53a2 2 0 0 1-.66 1.53c-.45.4-.97.6-1.6.6h-1.75v3.23h.27v-2.96h1.49c.67 0 1.27-.23 1.77-.68.5-.45.75-1.04.75-1.72 0-.69-.25-1.27-.75-1.73-.5-.45-1.1-.68-1.77-.68h-2.74v7.9h1.25v-.13h-.13Zm5.24 0V9.7h1.2l3.71 5.94h.04l-.04-1.47V9.7h.98v7.63h-1.02L97.8 11.1h-.04l.04 1.48v4.75h-.98Z" fill="#fff"/>
  <path d="M96.82 17.33h.14v-7.5h.98l3.72 5.94h.25l-.05-1.6V9.82h.72v7.37h-.82l-3.88-6.23h-.25l.04 1.6v4.63h-.85v.27h1.12v-4.9l-.04-1.47h-.14v.14h.04v-.14l-.1.07 3.91 6.3h1.24v-7.9h-1.25v4.6l.04 1.47h.13v-.14h-.04v.14l.11-.07-3.75-6h-1.4v7.9h.13v-.14Zm9.01-1.63a2.8 2.8 0 0 0 2.08.87c.81 0 1.5-.3 2.07-.86a3 3 0 0 0 .85-2.2 3 3 0 0 0-.85-2.19 2.8 2.8 0 0 0-2.07-.86 2.8 2.8 0 0 0-2.08.86c-.56.58-.85 1.3-.85 2.2a3 3 0 0 0 .85 2.19Zm4.88.65a3.74 3.74 0 0 1-2.8 1.15 3.9 3.9 0 0 1-3.93-3.99 3.91 3.91 0 0 1 3.93-3.98 3.9 3.9 0 0 1 3.92 3.99 3.9 3.9 0 0 1-1.12 2.83Z" fill="#fff"/>
  <path d="m105.83 15.7-.1.1c.6.6 1.33.9 2.18.9.85 0 1.58-.3 2.17-.9.59-.6.88-1.37.88-2.29 0-.91-.3-1.68-.88-2.28-.59-.6-1.32-.9-2.17-.9a3.06 3.06 0 0 0-3.06 3.18c0 .92.3 1.7.89 2.3l.1-.1.09-.1a2.85 2.85 0 0 1-.81-2.1c0-.86.27-1.55.8-2.1.55-.54 1.2-.81 1.99-.81.78 0 1.43.27 1.98.82.54.54.8 1.23.8 2.1 0 .86-.26 1.54-.8 2.1a2.7 2.7 0 0 1-1.98.81c-.79 0-1.44-.27-1.98-.82l-.1.1Zm4.88.65-.1-.1a3.6 3.6 0 0 1-2.7 1.12 3.77 3.77 0 0 1-3.8-3.86 3.78 3.78 0 0 1 6.5-2.73 3.76 3.76 0 0 1 1.09 2.73c0 1.1-.36 2-1.09 2.74l.1.1.1.09a4.04 4.04 0 0 0 1.16-2.93 4.03 4.03 0 0 0-4.06-4.12 4.04 4.04 0 0 0-4.06 4.12 4.04 4.04 0 0 0 4.06 4.13 3.9 3.9 0 0 0 2.9-1.2l-.1-.1Zm5.06.98V9.7h1.2l3.7 5.94h.05l-.05-1.47V9.7h.99v7.63h-1.03l-3.88-6.23h-.04l.04 1.48v4.75h-.98Z" fill="#fff"/>
  <path d="M115.77 17.33h.13v-7.5h.99l3.71 5.94h.26l-.05-1.6V9.82h.71v7.37h-.81l-3.89-6.23h-.25l.05 1.6v4.63h-.85v.27h1.11v-4.9l-.04-1.47h-.13v.14h.04v-.14l-.11.07 3.92 6.3h1.23v-7.9h-1.25v4.6l.04 1.47h.14v-.14h-.05v.14l.12-.07-3.75-6h-1.4v7.9h.13v-.14Zm9.16-2.98h2.54l-1.25-3.45h-.04l-1.25 3.45Zm-2.17 2.98 2.88-7.63h1.11l2.88 7.63h-1.09l-.73-2.07h-3.21l-.75 2.07h-1.09Z" fill="#fff"/>
  <path d="M124.93 14.35v.13h2.73l-1.34-3.71h-.23l-1.35 3.71h.19v-.13l.13.04 1.24-3.44-.12-.05v.13h.04v-.13l-.12.05 1.18 3.26h-2.35v.14Zm-2.17 2.98.13.05 2.85-7.55h.92l2.78 7.37h-.8l-.74-2.07h-3.4l-.74 2.07h-1v.27h1.19l.74-2.07h3.03l.73 2.07h1.38l-2.98-7.9h-1.3l-2.98 7.9h.2v-.14Zm12.99.17c-.84 0-1.53-.27-2.05-.83a3.04 3.04 0 0 1-.78-2.17V9.7h.98v4.84c0 .6.16 1.1.47 1.47.32.37.78.56 1.38.56.6 0 1.05-.2 1.37-.56.31-.38.47-.87.47-1.47V9.7h.98v4.8c0 .9-.25 1.63-.76 2.18-.5.55-1.2.82-2.06.82Z" fill="#fff"/>
  <path d="M135.75 17.5v-.13c-.81 0-1.45-.26-1.95-.79a2.9 2.9 0 0 1-.75-2.08V9.83h.72v4.7c0 .64.16 1.16.5 1.56.35.4.85.61 1.48.6.62.01 1.13-.2 1.47-.6.34-.4.5-.92.5-1.55V9.83h.72v4.67c0 .88-.25 1.56-.73 2.09-.48.52-1.13.78-1.96.78v.27c.89 0 1.62-.3 2.16-.87.53-.58.8-1.35.8-2.27V9.56h-1.25v4.98c0 .58-.15 1.03-.45 1.38-.28.34-.7.51-1.26.51-.57 0-.98-.17-1.27-.51-.3-.35-.45-.8-.45-1.38V9.56h-1.25v4.94c0 .92.28 1.68.83 2.26a2.8 2.8 0 0 0 2.14.88v-.14Zm6.55 0c-.55 0-1.1-.18-1.62-.54a2.52 2.52 0 0 1-1.04-1.53l.9-.36c.1.42.32.78.65 1.06.33.3.7.44 1.12.44.42 0 .79-.12 1.09-.34.3-.22.45-.53.45-.91 0-.43-.15-.76-.45-.99-.3-.23-.78-.45-1.44-.64a3.85 3.85 0 0 1-1.53-.83 1.9 1.9 0 0 1 .13-2.73c.43-.4 1-.6 1.7-.6.64 0 1.17.16 1.57.48.4.33.67.68.8 1.06l-.9.38a1.32 1.32 0 0 0-.48-.68 1.5 1.5 0 0 0-.97-.3c-.38 0-.7.1-.97.3a.98.98 0 0 0-.4.8c0 .28.12.52.37.71.24.2.6.37 1.08.53.38.12.7.24.94.35.26.12.51.27.77.46.26.18.46.42.59.7.13.28.2.6.2.98 0 .37-.08.7-.23.99-.16.29-.36.52-.61.7a3 3 0 0 1-1.71.51Z" fill="#fff"/>
  <path d="M142.3 17.5v-.13c-.52 0-1.03-.17-1.55-.52-.5-.35-.82-.82-.98-1.45l-.13.04.05.12.9-.36-.05-.13-.13.03c.11.45.34.83.7 1.13a1.92 1.92 0 0 0 2.37.1c.33-.24.5-.6.5-1.01 0-.46-.16-.84-.5-1.1a4.8 4.8 0 0 0-1.48-.66l-.03.13.03-.13a3.7 3.7 0 0 1-1.48-.8c-.32-.31-.48-.7-.48-1.2s.2-.94.6-1.33c.42-.38.94-.57 1.61-.57.63 0 1.12.15 1.5.45.39.32.63.65.74 1l.13-.04-.05-.12-.9.37.06.13.13-.04a1.46 1.46 0 0 0-.52-.74 1.63 1.63 0 0 0-1.06-.34c-.4 0-.76.11-1.05.34-.3.23-.46.54-.45.9 0 .32.14.6.41.82.27.2.64.39 1.13.55a4.5 4.5 0 0 1 1.67.78c.25.18.43.4.55.66.12.26.18.56.18.92 0 .35-.07.65-.21.93-.14.27-.33.48-.57.64a2.89 2.89 0 0 1-1.63.5v.27a3.18 3.18 0 0 0 1.78-.55 2 2 0 0 0 .65-.74 2.48 2.48 0 0 0 .04-2.09 1.9 1.9 0 0 0-.63-.75c-.27-.2-.53-.35-.79-.47a9.37 9.37 0 0 0-.96-.36 3.4 3.4 0 0 1-1.04-.5.75.75 0 0 1-.32-.62c0-.27.11-.48.35-.68.25-.19.53-.28.89-.28.37 0 .66.1.89.28.23.2.37.4.43.6l.04.15 1.03-.44.12-.04-.04-.12a2.4 2.4 0 0 0-.83-1.12 2.6 2.6 0 0 0-1.67-.52c-.72 0-1.32.21-1.78.65a2.02 2.02 0 0 0-.13 2.92c.37.35.9.63 1.59.85.64.2 1.1.41 1.39.63.27.2.4.48.4.88 0 .35-.13.6-.4.8a1.66 1.66 0 0 1-2.04-.09c-.31-.27-.51-.6-.62-1l-.03-.14-1.04.42-.1.04.02.12c.17.68.54 1.22 1.1 1.6.54.38 1.11.57 1.7.57v-.14Zm3.96-.17V9.7h.99v6.7h3.3v.93h-4.29Z" fill="#fff"/>
  <path d="M146.26 17.33h.14v-7.5h.71v6.7h3.3v.67h-4.15v.27h4.43v-1.2h-3.31v-6.7h-1.25v7.9h.13v-.14Zm8.08.17c-.84 0-1.52-.27-2.04-.83a3.04 3.04 0 0 1-.79-2.17V9.7h.98v4.84c0 .6.16 1.1.48 1.47.31.37.77.56 1.37.56.6 0 1.05-.2 1.37-.56.31-.38.47-.87.47-1.47V9.7h.98v4.8c0 .9-.25 1.63-.76 2.18-.5.55-1.2.82-2.06.82Z" fill="#fff"/>
  <path d="M154.34 17.5v-.13c-.81 0-1.45-.26-1.95-.79a2.91 2.91 0 0 1-.74-2.08V9.83h.7v4.7c0 .64.18 1.16.52 1.56.34.4.84.61 1.47.6.62.01 1.13-.2 1.47-.6.34-.4.5-.92.5-1.55V9.83h.72v4.67c0 .88-.24 1.56-.73 2.09-.48.52-1.12.78-1.96.78v.27c.9 0 1.63-.3 2.16-.87.53-.58.8-1.35.8-2.27V9.56h-1.25v4.98c0 .58-.15 1.03-.44 1.38-.3.34-.7.51-1.27.51-.57 0-.98-.17-1.27-.51-.3-.35-.44-.8-.44-1.38V9.56h-1.25v4.94c0 .92.27 1.68.82 2.26a2.8 2.8 0 0 0 2.14.88v-.14Zm3.97-.17v-1.02l4.07-5.67h-3.9V9.7h5.04v1.02l-4.06 5.67h4.1v.94h-5.25Z" fill="#fff"/>
  <path d="M158.31 17.33h.14v-.98l4.19-5.85h-4.02v-.67h4.77v.85l-4.2 5.85h4.24v.67h-5.12v.27h5.39v-1.2h-3.98l3.94-5.5v-1.2h-5.3v1.2h3.76l-3.94 5.5v1.2h.13v-.14Zm6.66 0V9.7h.98v7.63h-.98Z" fill="#fff"/>
  <path d="M164.97 17.33h.13v-7.5h.72v7.37h-.85v.27h1.12v-7.9h-1.25v7.9h.13v-.14Z" fill="#fff"/>
</svg>
