<svg width="180" height="54" fill="none" xmlns="http://www.w3.org/2000/svg">
  <path d="M173.33 54H6.67A6.73 6.73 0 0 1 0 47.25V6.75C0 3.04 3 0 6.67 0h166.66A6.73 6.73 0 0 1 180 6.75v40.5c0 3.71-3 6.75-6.67 6.75Z" fill="#000"/>
  <path d="m27.63 26.22-14.2 15.26a3.84 3.84 0 0 0 5.65 2.35l.05-.03 15.97-9.33-7.48-8.25Z" fill="#EA4335"/>
  <path d="m41.98 23.63-.01-.02-6.9-4.05-7.77 7 7.8 7.9 6.86-4a3.89 3.89 0 0 0 2.02-3.43c0-1.47-.8-2.75-2-3.4Z" fill="#FBBC04"/>
  <path d="M13.43 12.52a3.7 3.7 0 0 0-.13 1v26.96c0 .35.04.68.13 1L28.1 26.62l-14.68-14.1Z" fill="#4285F4"/>
  <path d="m27.73 27 7.34-7.44-15.96-9.37a3.85 3.85 0 0 0-5.69 2.33L27.73 27Z" fill="#34A853"/>
  <path d="M142.58 40h2.49V23.33h-2.49V40ZM165 29.34l-2.85 7.22h-.09l-2.96-7.22h-2.68l4.44 10.1-2.53 5.61h2.6l6.84-15.71H165Zm-14.1 8.77c-.82 0-1.96-.41-1.96-1.42 0-1.29 1.41-1.78 2.64-1.78 1.1 0 1.6.24 2.27.56a3.02 3.02 0 0 1-2.96 2.64Zm.3-9.14c-1.81 0-3.68.8-4.45 2.55l2.21.93c.47-.93 1.35-1.23 2.27-1.23 1.3 0 2.6.78 2.62 2.15v.17a5.5 5.5 0 0 0-2.6-.64c-2.38 0-4.8 1.3-4.8 3.75 0 2.23 1.95 3.67 4.14 3.67a3.5 3.5 0 0 0 3.17-1.63h.09v1.28h2.4v-6.39c0-2.96-2.2-4.6-5.06-4.6Zm-15.38 2.4h-3.54v-5.72h3.53a2.89 2.89 0 0 1 2.92 2.86 2.9 2.9 0 0 1-2.91 2.86Zm-.07-8.04h-5.96V40h2.49v-6.32h3.47c2.76 0 5.47-2 5.47-5.17 0-3.18-2.71-5.18-5.47-5.18Zm-32.5 14.78c-1.72 0-3.16-1.44-3.16-3.42 0-2 1.44-3.45 3.15-3.45 1.7 0 3.03 1.46 3.03 3.45 0 1.98-1.33 3.42-3.03 3.42Zm2.85-7.84h-.1a3.93 3.93 0 0 0-2.98-1.27 5.64 5.64 0 0 0-5.44 5.7c0 3.17 2.6 5.64 5.44 5.64 1.35 0 2.43-.6 2.98-1.28h.09v.81c0 2.17-1.16 3.33-3.03 3.33a3.14 3.14 0 0 1-2.86-2.02l-2.17.9a5.4 5.4 0 0 0 5.03 3.35c2.92 0 5.4-1.71 5.4-5.9V29.35h-2.37v.92Zm4.08 9.73h2.5V23.33h-2.5V40Zm6.17-5.5a3.11 3.11 0 0 1 2.96-3.3c.99 0 1.83.49 2.1 1.2l-5.06 2.1Zm7.73-1.89c-.47-1.27-1.91-3.6-4.85-3.6-2.93 0-5.35 2.29-5.35 5.66 0 3.18 2.4 5.67 5.62 5.67 2.6 0 4.1-1.59 4.73-2.5l-1.93-1.3a3.24 3.24 0 0 1-2.8 1.57 2.89 2.89 0 0 1-2.75-1.72l7.59-3.13-.26-.65Zm-60.41-1.87v2.4h5.76a5.02 5.02 0 0 1-1.32 3.04 5.9 5.9 0 0 1-4.44 1.76 6.32 6.32 0 0 1-6.32-6.4A6.32 6.32 0 0 1 68 26.85l1.7-1.7a8.4 8.4 0 0 0-6.04-2.42 8.93 8.93 0 0 0-8.94 8.8 8.93 8.93 0 0 0 8.94 8.81c2.62 0 4.6-.86 6.14-2.47 1.6-1.59 2.09-3.82 2.09-5.62a7.8 7.8 0 0 0-.13-1.5h-8.1Zm14.77 7.37c-1.72 0-3.2-1.42-3.2-3.44 0-2.04 1.48-3.43 3.2-3.43 1.72 0 3.2 1.4 3.2 3.43 0 2.02-1.48 3.44-3.2 3.44Zm0-9.1a5.59 5.59 0 0 0-5.7 5.66 5.6 5.6 0 0 0 5.7 5.67 5.6 5.6 0 0 0 5.7-5.67 5.59 5.59 0 0 0-5.7-5.67Zm12.42 9.1c-1.72 0-3.2-1.42-3.2-3.44 0-2.04 1.48-3.43 3.2-3.43 1.72 0 3.2 1.4 3.2 3.43 0 2.02-1.48 3.44-3.2 3.44Zm0-9.1a5.59 5.59 0 0 0-5.7 5.66 5.6 5.6 0 0 0 5.7 5.67 5.6 5.6 0 0 0 5.69-5.67 5.59 5.59 0 0 0-5.7-5.67Zm-33.08-11.5c-.58 0-1.15-.19-1.7-.57a2.63 2.63 0 0 1-1.09-1.6l.94-.38c.11.44.34.81.69 1.12a1.87 1.87 0 0 0 2.31.1c.32-.24.47-.56.47-.96 0-.45-.15-.79-.47-1.03a4.92 4.92 0 0 0-1.5-.68 4.01 4.01 0 0 1-1.61-.86 1.8 1.8 0 0 1-.55-1.36 2 2 0 0 1 .68-1.5 2.5 2.5 0 0 1 1.78-.64 2.54 2.54 0 0 1 2.48 1.62l-.94.4a1.4 1.4 0 0 0-.5-.7c-.26-.22-.6-.33-1.02-.33-.4 0-.73.1-1.01.33a1 1 0 0 0-.42.82c0 .3.13.55.39.75.25.2.63.4 1.13.56.4.12.72.25.99.36.26.12.53.28.8.48.27.2.48.44.62.74a2.5 2.5 0 0 1-.04 2.06c-.16.3-.37.55-.63.72a3.15 3.15 0 0 1-1.8.55Z" fill="#fff"/>
  <path d="M57.78 17.51v-.13a2.8 2.8 0 0 1-1.62-.55 2.5 2.5 0 0 1-1.04-1.52l-.13.03.05.13.94-.38-.05-.13-.13.04c.12.46.36.86.73 1.18a2.01 2.01 0 0 0 2.48.1c.35-.25.53-.62.53-1.06 0-.48-.18-.87-.53-1.14a5.03 5.03 0 0 0-1.54-.7 3.8 3.8 0 0 1-1.56-.83c-.34-.33-.5-.74-.5-1.26 0-.54.2-1 .63-1.4.43-.4.98-.6 1.69-.6.65 0 1.17.16 1.57.48.4.32.66.67.78 1.04l.13-.04-.05-.12-.94.4.05.12.13-.04a1.52 1.52 0 0 0-.54-.77 1.7 1.7 0 0 0-1.11-.36c-.42 0-.8.12-1.1.36-.3.24-.47.56-.46.93 0 .34.15.63.43.86.28.22.67.4 1.18.57.39.13.72.25.97.37.26.11.52.26.78.46.26.18.45.4.58.68a2.43 2.43 0 0 1-.03 1.95c-.16.28-.35.5-.6.67a3.02 3.02 0 0 1-1.72.53v.27a3.34 3.34 0 0 0 1.87-.57 2.24 2.24 0 0 0 .94-1.88c0-.4-.07-.76-.22-1.08a2.03 2.03 0 0 0-.66-.79 5.14 5.14 0 0 0-1.83-.86 3.57 3.57 0 0 1-1.1-.53.8.8 0 0 1-.33-.65c0-.29.12-.52.37-.72.26-.2.56-.3.93-.3.4 0 .7.1.94.3.25.2.4.41.45.63l.04.15 1.2-.5-.05-.12a2.49 2.49 0 0 0-.87-1.17 2.7 2.7 0 0 0-1.73-.54c-.76 0-1.39.22-1.87.67a2.1 2.1 0 0 0-.72 1.6c0 .58.2 1.07.58 1.45.39.38.95.67 1.67.9.67.2 1.16.43 1.46.65.28.22.42.52.42.93a1 1 0 0 1-.42.85c-.3.22-.64.32-1.07.33-.4 0-.75-.14-1.08-.42a2 2 0 0 1-.64-1.05l-.04-.15-1.08.44-.1.04.02.12c.18.71.56 1.28 1.14 1.67.58.4 1.17.6 1.78.6v-.14Zm3.7-.18v-1.07l4.26-5.94h-4.08v-.99h5.27v1.08l-4.25 5.94h4.3v.98h-5.5Z" fill="#fff"/>
  <path d="M61.48 17.33h.14V16.3L66 10.18h-4.2v-.71h5v.9l-4.38 6.11h4.43v.72h-5.37v.27h5.63v-1.25h-4.17l4.13-5.77V9.2h-5.54v1.25h3.95l-4.13 5.77v1.25h.13v-.14Zm11.64-7.01h-3.64v2.53h3.29v.96h-3.29v2.54h3.64v.98h-4.67v-8h4.67v.99Z" fill="#fff"/>
  <path d="M73.12 10.32v-.14h-3.77v2.8h3.28v.7h-3.28v2.8h3.64v.72h-4.4V9.47h4.4v.85h.27V9.2h-4.94v8.27h4.94v-1.25H69.6v-2.27h3.29v-1.23H69.6v-2.27h3.65v-.13h-.14Zm2.64 2.81h1.65c.42 0 .77-.13 1.06-.4.3-.27.44-.6.44-1.02 0-.35-.13-.67-.39-.96-.26-.29-.6-.43-1.04-.43h-1.72v2.81Zm-1.03 4.2v-8h2.73c.68 0 1.26.23 1.76.68.5.45.74 1.02.74 1.7 0 .56-.18 1.06-.55 1.48-.36.43-.81.7-1.36.81l-.02.04 2.25 3.25v.04h-1.22L76.9 14.1h-1.14v3.24h-1.03Z" fill="#fff"/>
  <path d="M75.76 13.13v.14h1.65c.44 0 .83-.15 1.15-.44.32-.3.49-.68.49-1.12 0-.38-.15-.74-.43-1.05a1.46 1.46 0 0 0-1.14-.48h-1.85v3.09h.13v-.14h.13v-2.68h1.6c.4 0 .7.13.93.4.24.26.36.55.36.86 0 .38-.13.68-.4.92-.27.25-.58.37-.97.37h-1.65v.13Zm-1.03 4.2h.14V9.47h2.59c.65 0 1.2.2 1.67.64.47.43.7.95.7 1.6 0 .53-.17.99-.52 1.4-.34.4-.77.66-1.29.76l-.05.01-.05.08-.05.08 2.27 3.3h.14v-.14h-1.15l-2.16-3.24h-1.34v3.24h-.9v.27h1.16v-3.24h.94l2.16 3.24h1.42v-.22l-2.27-3.29-.11.08.11.07.02-.03-.1-.08.02.13a2.5 2.5 0 0 0 2.02-2.42c0-.71-.27-1.33-.8-1.8a2.66 2.66 0 0 0-1.84-.71H74.6v8.27h.13v-.14Zm11.36-7.01h-3.65v2.53h3.29v.96h-3.29v2.54h3.65v.98H81.4v-8h4.68v.99Z" fill="#fff"/>
  <path d="M86.09 10.32v-.14H82.3v2.8h3.28v.7H82.3v2.8h3.64v.72h-4.4V9.47h4.4v.85h.27V9.2h-4.94v8.27h4.94v-1.25h-3.64v-2.27h3.28v-1.23h-3.28v-2.27h3.64v-.13h-.13Zm1.16 7.01v-1.07l4.25-5.94h-4.07v-.99h5.27v1.08l-4.26 5.94h4.3v.98h-5.5Z" fill="#fff"/>
  <path d="M87.25 17.33h.13V16.3l4.38-6.12h-4.2v-.71h5v.9l-4.38 6.11h4.43v.72h-5.36v.27h5.63v-1.25H88.7l4.13-5.77V9.2H87.3v1.25h3.95l-4.13 5.77v1.25h.14v-.14Zm8-.98h1.42a3 3 0 0 0 2.2-.8c.53-.52.8-1.26.8-2.22a3 3 0 0 0-.8-2.21 3 3 0 0 0-2.2-.8h-1.42v6.03Zm-1.03.98v-8h2.45c1.23 0 2.2.37 2.95 1.12.73.74 1.1 1.7 1.1 2.88 0 1.19-.37 2.15-1.1 2.9a3.98 3.98 0 0 1-2.95 1.1h-2.45Z" fill="#fff"/>
  <path d="M95.25 16.35v.13h1.42c.94 0 1.72-.27 2.29-.83a3.1 3.1 0 0 0 .85-2.32 3.1 3.1 0 0 0-.85-2.31 3.13 3.13 0 0 0-2.3-.84h-1.55v6.3h.14v-.13h.13v-5.9h1.29c.9 0 1.59.26 2.1.76.5.5.77 1.2.77 2.12 0 .93-.26 1.63-.77 2.13s-1.2.76-2.1.76h-1.42v.13Zm-1.03.98h.13V9.47h2.32c1.2 0 2.14.36 2.85 1.07a3.79 3.79 0 0 1 1.07 2.8 3.8 3.8 0 0 1-1.07 2.79 3.84 3.84 0 0 1-2.85 1.07h-2.45v.27h2.45c1.25 0 2.28-.39 3.04-1.15a4.06 4.06 0 0 0 1.15-2.99 4.1 4.1 0 0 0-1.15-2.98 4.11 4.11 0 0 0-3.04-1.15h-2.58v8.27h.13v-.14Zm10.62 0v-8h1.03l2.78 4.87h.05l2.78-4.87h1.03v8h-1.03v-4.75l.05-1.34h-.05l-2.5 4.4h-.6l-2.5-4.4h-.05l.04 1.34v4.75h-1.03Z" fill="#fff"/>
  <path d="M104.84 17.33h.14V9.47h.81l2.79 4.87h.2l2.78-4.87h.81v7.73h-.76v-4.61l.05-1.48h-.26l-2.5 4.4h-.45l-2.5-4.4h-.26l.05 1.48v4.61h-.9v.27h1.17v-4.89l-.05-1.34h-.13v.14h.04v-.14l-.11.07 2.54 4.46h.76l2.54-4.46-.12-.07v.14h.05v-.14h-.14l-.04 1.34v4.89h1.3V9.2h-1.25l-2.82 4.94.12.06v-.13h-.05v.13l.12-.06-2.82-4.94h-1.24v8.27h.14v-.14Zm14.17-7.01h-3.64v2.53h3.28v.96h-3.28v2.54h3.64v.98h-4.67v-8h4.67v.99Z" fill="#fff"/>
  <path d="M119.01 10.32v-.14h-3.77v2.8h3.28v.7h-3.28v2.8h3.64v.72h-4.4V9.47h4.4v.85h.27V9.2h-4.94v8.27h4.94v-1.25h-3.65v-2.27h3.29v-1.23h-3.29v-2.27h3.65v-.13H119Zm9.09 3.34c0 1.11-.34 2-1 2.67a3.88 3.88 0 0 1-2.94 1.18c-1.15 0-2.13-.4-2.94-1.2-.8-.8-1.21-1.8-1.21-2.98s.4-2.17 1.2-2.97c.82-.8 1.8-1.2 2.95-1.2.58 0 1.12.1 1.65.33.52.22.93.52 1.25.9l-.7.7a2.7 2.7 0 0 0-2.2-.95c-.84 0-1.57.3-2.18.89a3.03 3.03 0 0 0-.92 2.3c0 .95.3 1.72.92 2.31a3 3 0 0 0 2.18.89c.9 0 1.64-.3 2.24-.9.38-.38.6-.92.67-1.61h-2.9v-.97h3.87c.04.21.06.41.06.6Z" fill="#fff"/>
  <path d="M128.1 13.66h-.14c0 1.09-.32 1.94-.95 2.57a3.74 3.74 0 0 1-2.85 1.15 3.9 3.9 0 0 1-2.85-1.16 3.89 3.89 0 0 1-1.17-2.89c0-1.15.39-2.1 1.17-2.88a3.9 3.9 0 0 1 2.85-1.16c.56 0 1.09.1 1.6.32.5.22.9.5 1.2.86l.1-.09-.1-.1-.7.71.1.1.1-.09c-.56-.66-1.34-1-2.3-1-.87 0-1.64.32-2.27.93a3.2 3.2 0 0 0-.97 2.4c0 .98.32 1.79.97 2.4.63.62 1.4.93 2.27.93.92 0 1.71-.3 2.33-.93.42-.41.65-.99.71-1.7l.01-.15h-2.91v-.7h3.74v-.13l-.13.03c.03.2.05.4.05.58h.27c0-.2-.02-.41-.06-.63l-.02-.1h-4.12v1.22h3.04v-.13l-.13-.02a2.39 2.39 0 0 1-.64 1.54 2.9 2.9 0 0 1-2.14.86 2.9 2.9 0 0 1-2.09-.86 2.93 2.93 0 0 1-.88-2.2c0-.92.3-1.65.88-2.22a2.9 2.9 0 0 1 2.1-.85c.9 0 1.58.3 2.08.9l.1.11.8-.8.09-.09-.08-.1c-.33-.38-.77-.7-1.3-.92a4.25 4.25 0 0 0-1.7-.35c-1.18 0-2.2.42-3.03 1.24a4.16 4.16 0 0 0-1.26 3.07 4.2 4.2 0 0 0 1.25 3.08 4.16 4.16 0 0 0 3.04 1.24c1.24 0 2.26-.41 3.04-1.23l-.1-.1.1.1a3.74 3.74 0 0 0 1.03-2.76h-.13Zm2.5 3.52a.73.73 0 0 1-.54.22.73.73 0 0 1-.53-.22.73.73 0 0 1-.23-.54c0-.2.08-.39.23-.54a.73.73 0 0 1 .53-.22c.21 0 .39.08.54.22.15.15.22.33.22.54 0 .2-.07.39-.22.54Zm0-4.1a.72.72 0 0 1-.54.23.72.72 0 0 1-.53-.22.72.72 0 0 1-.23-.54c0-.2.08-.39.23-.53a.72.72 0 0 1 .53-.23c.21 0 .39.08.54.23a.7.7 0 0 1 .22.53c0 .21-.07.39-.22.54Z" fill="#fff"/>
  <path d="m130.6 17.18-.1-.1a.6.6 0 0 1-.44.19.6.6 0 0 1-.44-.19.6.6 0 0 1-.18-.44.6.6 0 0 1 .18-.44.6.6 0 0 1 .44-.19.6.6 0 0 1 .44.19.6.6 0 0 1 .19.44.6.6 0 0 1-.19.44l.1.1.1.1c.17-.18.26-.4.26-.64a.87.87 0 0 0-.27-.63.87.87 0 0 0-.63-.26.88.88 0 0 0-.63.26.87.87 0 0 0-.26.63.9.9 0 0 0 1.52.63l-.1-.1Zm0-4.1-.1-.09a.59.59 0 0 1-.44.19.59.59 0 0 1-.44-.19.59.59 0 0 1-.18-.44.6.6 0 0 1 .18-.44.6.6 0 0 1 .44-.18.6.6 0 0 1 .44.18.6.6 0 0 1 .19.44c0 .18-.06.32-.19.44l.1.1.1.1a.86.86 0 0 0 .26-.64c0-.24-.1-.46-.27-.63a.86.86 0 0 0-.63-.26.86.86 0 0 0-.63.26.86.86 0 0 0-.26.63c0 .24.09.46.26.63.17.17.4.27.63.26.24 0 .46-.09.63-.26l-.1-.1Z" fill="#fff"/>
</svg>
