<svg id="artwork" xmlns="http://www.w3.org/2000/svg" version="1.1" viewBox="0 0 239 70.9">
  <defs>
    <style>
      .st4{fill:#fff}
    </style>
  </defs>
  <path d="M230.1 70.8H8.8C4 70.8 0 66.8 0 62V9c0-5 4-9 8.8-9h221.3a9 9 0 0 1 8.9 9v53c0 4.8-4 8.8-8.9 8.8Z"/>
  <path class="st4" d="M112.2 38.5c-4.1 0-7.5 3.2-7.5 7.5s3.4 7.5 7.5 7.5 7.6-3.1 7.6-7.5-3.4-7.5-7.6-7.5Zm0 12.1c-2.3 0-4.2-1.9-4.2-4.6s2-4.5 4.2-4.5 4.3 1.8 4.3 4.5-2 4.6-4.3 4.6Zm-16.5-12c-4.1 0-7.5 3-7.5 7.4s3.4 7.5 7.5 7.5 7.6-3.1 7.6-7.5-3.4-7.5-7.6-7.5Zm0 12c-2.2 0-4.2-1.9-4.2-4.6s2-4.5 4.2-4.5 4.3 1.8 4.3 4.5-2 4.6-4.3 4.6Zm-19.5-9.8V44h7.6a6.7 6.7 0 0 1-1.7 4 7.8 7.8 0 0 1-5.9 2.4 8.4 8.4 0 0 1-8.4-8.5A8.4 8.4 0 0 1 82 35.7l2.3-2.3a11.8 11.8 0 0 0-20 8.6c0 6.4 5.4 11.7 11.9 11.7a10.4 10.4 0 0 0 10.9-10.8c0-.7 0-1.4-.2-2H76.2Zm80 2.5c-.6-1.7-2.5-4.8-6.4-4.8s-7 3-7 7.5c0 4.2 3.1 7.5 7.4 7.5 3.4 0 5.4-2 6.3-3.3l-2.6-1.7c-.9 1.3-2 2.1-3.7 2.1s-2.9-.8-3.6-2.3l10-4.1-.3-.9ZM146 45.8a4 4 0 0 1 4-4.3c1.2 0 2.3.6 2.7 1.5l-6.7 2.8Zm-8.2 7.3h3.3v-22h-3.3v22Zm-5.4-12.9a5.2 5.2 0 0 0-4-1.7c-3.8 0-7.3 3.3-7.3 7.6s3.5 7.5 7.2 7.5c1.8 0 3.3-.8 4-1.7h.1v1c0 3-1.5 4.5-4 4.5-2 0-3.3-1.5-3.8-2.7l-2.8 1.2a7 7 0 0 0 6.6 4.4c3.9 0 7.1-2.2 7.1-7.8V39h-3v1.2Zm-3.8 10.4c-2.2 0-4.2-2-4.2-4.5s2-4.6 4.2-4.6 4 2 4 4.6-1.7 4.5-4 4.5ZM171.7 31h-7.9v22.1h3.3v-8.4h4.7c3.6 0 7.2-2.6 7.2-6.8s-3.6-6.9-7.2-6.9Zm.1 10.7h-4.7V34h4.7a3.8 3.8 0 1 1 0 7.6Zm20.4-3.2c-2.4 0-4.8 1-5.9 3.4l3 1.2c.6-1.2 1.7-1.6 3-1.6 1.7 0 3.4 1 3.4 2.8v.2c-.6-.3-1.8-.8-3.4-.8-3.2 0-6.4 1.7-6.4 5 0 3 2.6 4.8 5.5 4.8 2.2 0 3.4-1 4.2-2.1h.1V53h3.2v-8.5c0-4-3-6.1-6.7-6.1Zm-.4 12.1c-1 0-2.6-.6-2.6-1.9 0-1.7 1.9-2.3 3.5-2.3 1.5 0 2.2.3 3 .7a4 4 0 0 1-3.9 3.5ZM210.5 39l-3.8 9.5-4-9.5H199l6 13.4-3.4 7.4h3.4l9-20.8h-3.6Zm-29.7 14h3.3V31h-3.3v22Z"/>
  <path d="m30.5 34.4-18.9 20a5 5 0 0 0 7.5 3l21.3-12.2-10-10.8Z" style="fill:#ea4335"/>
  <path d="m49.5 31-9.1-5.3L30 34.9l10.3 10.3 9-5.3c1.7-.8 2.8-2.5 2.8-4.4S51 31.9 49.5 31Z" style="fill:#fbbc04"/>
  <path d="m11.6 16.5-.1 1.3V53l.1 1.3 19.5-19.5-19.5-18.4Z" style="fill:#4285f4"/>
  <path d="m30.6 35.4 9.7-9.7-21.1-12.3a5.1 5.1 0 0 0-7.5 3l19 19Z" style="fill:#34a853"/>
  <path class="st4" d="M68.9 22.4c-1.2 0-2-.3-2.7-1-.6-.6-1-1.5-1-2.6a9.9 9.9 0 0 1 1.4-4.6c-.5 0-.9-.2-1.2-.6-.2-.3-.4-.8-.4-1.5v-.6h1.5v.6c0 .5 0 .8.3 1s.4.2.8.2h.9l.1.2-.9 1.5a9.9 9.9 0 0 0-1 3.8c0 .7.3 1.3.6 1.7.4.5.9.7 1.6.7s1.2-.2 1.6-.6c.3-.4.5-1 .5-1.7v-2.5h1.4V19c0 1-.3 1.9-1 2.5s-1.4.8-2.5.8Zm5.6-10.2H76V14h6.2v1H76v3.5c0 1.7.7 2.6 2.3 2.6.8 0 1.4-.2 1.8-.7.4-.4.6-1.1.6-2H82c0 1.3-.3 2.2-.9 3-.6.6-1.6 1-2.8 1s-2.3-.4-3-1a4 4 0 0 1-1-2.7v-6.6Zm9.8 10.1v-6.5c0-1.1.3-2 .9-2.7.6-.7 1.6-1 2.8-1s2.2.3 2.8 1c.6.7.9 1.7.9 3h-1.5c0-1-.2-1.7-.5-2.1-.4-.4-1-.7-1.7-.7s-1.4.2-1.7.7-.6 1-.6 2v6.3h-1.5Zm9.3 0v-6.5c0-1.1.4-2 1-2.7.7-.7 1.6-1 2.9-1s2.2.3 2.8 1c.7.7 1 1.7 1 3h-1.5c0-1-.2-1.7-.6-2.1s-1-.7-1.8-.7c-1.5 0-2.3.9-2.3 2.7v1.5h6.2v1.2h-6.2v3.6h-1.5Zm9.8-10.1h1.5V14h6.2v1H105v3.5c0 1.7.8 2.6 2.3 2.6.8 0 1.4-.2 1.8-.7.4-.4.6-1.1.6-2h1.5c0 1.3-.3 2.2-1 3-.6.6-1.5 1-2.8 1s-2.3-.4-3-1a4 4 0 0 1-.9-2.7v-6.6Zm9.8 10.1v-6.5c0-1.1.3-2 1-2.7.6-.7 1.6-1 2.8-1s2.2.3 2.9 1 1 1.5 1 2.7v1.6h2v1.3h-2v3.6h-1.6V16c0-1-.2-1.6-.6-2-.4-.5-1-.7-1.7-.7s-1.4.2-1.8.6-.6 1.1-.6 2v6.4h-1.4Zm14.6.1c-1.2 0-2-.3-2.7-1s-1-1.5-1-2.6a9.9 9.9 0 0 1 1.4-4.6c-.5 0-.9-.2-1.2-.6-.3-.3-.4-.8-.4-1.5v-.6h1.5v.6c0 .5 0 .8.3 1l.8.2h.9l.1.2-.9 1.5a9.9 9.9 0 0 0-1 3.8c0 .7.2 1.3.6 1.7.3.5.9.7 1.6.7s1.2-.2 1.5-.6c.4-.4.5-1 .5-1.7v-2.5h1.5V19c0 1-.3 1.9-1 2.5s-1.4.8-2.5.8Zm5.6-10.2h1.4V14h6.3v1h-6.3v3.5c0 1.7.8 2.6 2.4 2.6.8 0 1.4-.2 1.8-.7.3-.4.5-1.1.5-2h1.5c0 1.3-.3 2.2-1 3-.5.6-1.5 1-2.8 1s-2.2-.4-2.9-1a4 4 0 0 1-1-2.7v-6.6Zm9.9 10.1v-2.2H142V19h1.3v-2.6c0-1.4.3-2.5 1-3.2s1.4-1 2.4-1 1.8.2 2.4.7c.5.6.8 1.3.8 2.1 0 1-.3 1.6-.9 2.1-.6.5-1.5.7-2.7.7h-1.5V19h5.2v1.2h-5.2v2.2h-1.5Zm1.5-5.8h1.4c.7 0 1.3-.1 1.6-.4s.6-.6.6-1.2c0-.5-.1-.8-.4-1.1-.3-.3-.7-.5-1.2-.5-.7 0-1.2.2-1.5.7a5 5 0 0 0-.5 2.5Zm6.6-5.7h1.2a15.9 15.9 0 0 0 .8 3.2h-1.1a22.8 22.8 0 0 1-1-3l.1-.2Zm10.9 11.6c-1.2 0-2.1-.3-2.8-1s-1-1.5-1-2.7v-6.5h1.5v6.3c0 1 .2 1.6.6 2 .4.5 1 .7 1.8.7s1.4-.2 1.8-.6.6-1.1.6-2v-6.4h1.5v7h.3c.7 0 1.3.1 1.6.5.4.4.6 1 .6 2v.6h-1.3v-.6c0-.6 0-1-.3-1.1s-.4-.4-.8-.4h-.4c-.2.7-.7 1.3-1.3 1.6-.6.4-1.4.6-2.3.6Zm10.9 0c-1.1 0-2-.3-2.7-1s-1-1.5-1-2.6a9.9 9.9 0 0 1 1.4-4.6c-.4 0-.9-.2-1.2-.6-.2-.3-.4-.8-.4-1.5v-.6h1.5v.6c0 .5.1.8.3 1l.8.2h1v.2c-.3.4-.6.9-.8 1.5l-.7 1.8c-.1.6-.3 1.3-.3 2s.2 1.3.5 1.7c.4.5.9.7 1.6.7s1.2-.2 1.6-.6c.3-.4.5-1 .5-1.7v-2.5h1.4V19c0 1-.3 1.9-.9 2.5s-1.5.8-2.6.8Zm12.8-3c0 1-.3 1.7-1 2.3s-1.8.8-3.1.8a8.2 8.2 0 0 1-3.2-.7v-1.3l1.6.5 1.6.2c.9 0 1.6-.1 2-.4.5-.4.7-.8.7-1.4s-.2-1-.8-1.3-1.1-.5-2-.6l-3 .7-.3-1 1.5-.4a3 3 0 0 1-1.3-1 2.2 2.2 0 0 1 .1-2.6l1.3-.8c.5-.2 1.2-.3 1.9-.3 1.1 0 2 .2 2.6.6.7.5 1 1 1 1.8 0 .6-.2 1-.6 1.4-.3.4-.8.7-1.4.9.8.2 1.4.5 1.9 1s.6 1 .6 1.6Zm-6.2-4.8c0 .4.2.7.5 1l1.6.7.4-.1a3 3 0 0 0 1.3-.6c.3-.3.5-.6.5-1s-.2-.8-.6-1-1-.3-1.5-.3-1.2 0-1.6.3c-.4.2-.6.6-.6 1Zm11.5 7.8c-1.1 0-2-.3-2.6-1s-1-1.5-1-2.6c0-.9.2-1.7.4-2.5l1-2.1c-.5 0-1-.2-1.2-.6-.3-.3-.4-.8-.4-1.5v-.6h1.5v.6c0 .5 0 .8.2 1l.9.2h.9v.2l-.8 1.5a9.9 9.9 0 0 0-1 3.8c0 .7.2 1.3.6 1.7.3.5.8.7 1.6.7s1.2-.2 1.5-.6c.3-.4.5-1 .5-1.7v-2.5h1.5V19c0 1-.3 1.9-1 2.5s-1.4.8-2.5.8Zm5.7-10.2h1.4V14h6.2v1h-6.2v3.5c0 1.7.8 2.6 2.4 2.6.8 0 1.4-.2 1.7-.7.4-.4.6-1.1.6-2h1.5c0 1.3-.3 2.2-1 3-.6.6-1.5 1-2.8 1s-2.2-.4-2.9-1a4 4 0 0 1-1-2.7v-6.6Zm9.8 10.1v-10h1.5V21h2.8v1.2h-4.3Zm5.7 0v-6.5c0-1.1.4-2 1-2.7.7-.7 1.7-1 3-1s2.1.3 2.8 1 1 1.5 1 2.7v6.5h-1.5V16c0-1-.2-1.6-.6-2-.4-.5-1-.7-1.8-.7s-1.4.2-1.8.7-.6 1-.6 2v6.3h-1.5Zm19.7-1.3v1.3h-3.7v-3.7a3 3 0 0 1-1.2 1.1c-.5.3-1.1.4-1.8.4-1 0-1.8-.3-2.4-.8s-.8-1.5-.8-2.7v-1h1.5v.7c0 .9.1 1.5.5 2 .3.4.9.6 1.6.6 1 0 1.6-.3 2-.8s.5-1.3.5-2.4v-3.5h1.5v8.9h2.3Z"/>
</svg>
