<svg width="180" height="54" fill="none" xmlns="http://www.w3.org/2000/svg">
  <path d="M173.33 54H6.67A6.73 6.73 0 0 1 0 47.25V6.75C0 3.04 3 0 6.67 0h166.66A6.73 6.73 0 0 1 180 6.75v40.5c0 3.71-3 6.75-6.67 6.75Z" fill="#000"/>
  <path d="m27.63 26.22-14.2 15.26a3.84 3.84 0 0 0 5.65 2.35l.05-.03 15.97-9.33-7.48-8.25Z" fill="#EA4335"/>
  <path d="m41.98 23.63-.01-.02-6.9-4.05-7.77 7 7.8 7.9 6.86-4a3.89 3.89 0 0 0 2.02-3.43c0-1.47-.8-2.75-2-3.4Z" fill="#FBBC04"/>
  <path d="M13.43 12.52a3.7 3.7 0 0 0-.13 1v26.96c0 .35.04.68.13 1L28.1 26.62l-14.68-14.1Z" fill="#4285F4"/>
  <path d="m27.73 27 7.34-7.44-15.96-9.37a3.85 3.85 0 0 0-5.69 2.33L27.73 27Z" fill="#34A853"/>
  <path d="M60.2 13.5v-1.33a2.2 2.2 0 0 0-.49-1.52c-.32-.36-.78-.53-1.39-.53-.55 0-.99.16-1.33.5-.34.32-.5.75-.5 1.27 0 .53.16.94.5 1.21.34.27.82.4 1.46.4h1.74Zm0 .88h-1.75c-.95 0-1.69-.22-2.21-.65a2.25 2.25 0 0 1-.8-1.84c0-.76.29-1.39.86-1.89.56-.5 1.24-.75 2.02-.75.9 0 1.6.26 2.1.78.51.52.77 1.24.77 2.17v1.3h1.9v.88h-1.9v2.95h-1v-2.95Z" fill="#fff"/>
  <path d="M60.2 13.5h.13v-1.33c0-.68-.17-1.22-.52-1.61a1.91 1.91 0 0 0-1.49-.58c-.57 0-1.06.18-1.42.54-.37.35-.55.82-.55 1.37 0 .56.18 1.01.55 1.31.37.3.9.44 1.55.44h1.88v-.13h-.14v-.13h-1.74a2.2 2.2 0 0 1-1.38-.38c-.3-.25-.45-.6-.45-1.1 0-.5.15-.89.47-1.2.3-.3.71-.45 1.23-.45.59 0 1 .17 1.3.49.29.32.44.8.44 1.43v1.34h.13Zm0 .88v-.13h-1.75c-.93 0-1.64-.21-2.13-.62-.5-.41-.74-.97-.74-1.74 0-.72.26-1.3.8-1.79a2.81 2.81 0 0 1 1.94-.72c.87 0 1.53.25 2 .74.49.5.73 1.18.73 2.08v1.44h1.9v.6h-1.9v2.96h-.72v-2.95h-.14v.13h-.13v3.09h1.26V14.5h1.9v-1.13h-1.9V12.2a3.1 3.1 0 0 0-.8-2.27 2.94 2.94 0 0 0-2.2-.82c-.81 0-1.52.27-2.11.8-.6.51-.9 1.2-.9 1.98 0 .82.28 1.48.84 1.94.56.46 1.33.69 2.3.68h1.74v-.13Zm5.27 2.95a5.1 5.1 0 0 1-1.1-.36V16a5.1 5.1 0 0 0 2.36.58c.56 0 1-.12 1.32-.36.33-.24.5-.55.5-.93 0-.4-.16-.72-.47-.96-.3-.25-.84-.52-1.6-.83-.76-.3-1.3-.62-1.63-.96a1.75 1.75 0 0 1-.48-1.26c0-.6.25-1.1.77-1.48a3 3 0 0 1 1.82-.57 4.97 4.97 0 0 1 2.26.45l-.3.83a4.79 4.79 0 0 0-1.97-.4c-.45-.01-.82.1-1.1.33a1 1 0 0 0-.45.83c0 .3.12.55.36.75.24.2.67.43 1.28.67.62.25 1.1.48 1.46.7.35.21.62.47.8.76.19.29.28.63.28 1.03 0 .67-.27 1.22-.8 1.63a3.2 3.2 0 0 1-2.02.62c-.5 0-.93-.03-1.29-.1Z" fill="#fff"/>
  <path d="m65.47 17.33.03-.13c-.35-.07-.7-.19-1.07-.35l-.06.12h.14V16h-.14l-.06.12a5.24 5.24 0 0 0 2.42.6 2.3 2.3 0 0 0 1.4-.4c.36-.25.55-.61.54-1.03 0-.43-.17-.8-.5-1.07a7.16 7.16 0 0 0-1.64-.84 4.6 4.6 0 0 1-1.58-.94 1.6 1.6 0 0 1-.45-1.16c0-.57.23-1.01.72-1.37a2.86 2.86 0 0 1 1.74-.54 4.83 4.83 0 0 1 2.2.44l.06-.13-.12-.05-.31.83.12.05.05-.12a4.92 4.92 0 0 0-2.02-.42c-.46 0-.86.11-1.18.36a1.13 1.13 0 0 0-.09 1.79c.27.22.7.45 1.32.7a9.7 9.7 0 0 1 1.44.68c.34.2.59.45.76.72.17.27.25.58.25.96a1.8 1.8 0 0 1-.75 1.52 3 3 0 0 1-1.93.6c-.5 0-.92-.04-1.26-.1l-.03.12-.02.13c.37.08.8.12 1.31.12.83 0 1.53-.22 2.1-.65a2.1 2.1 0 0 0 .85-1.74 2 2 0 0 0-.3-1.1c-.2-.31-.48-.58-.84-.8a9.82 9.82 0 0 0-1.48-.7 4.79 4.79 0 0 1-1.24-.66.81.81 0 0 1-.31-.65c0-.3.12-.52.38-.73.27-.2.6-.3 1.02-.3a4.65 4.65 0 0 1 1.92.4l.13.05.36-.96.04-.12-.11-.05a5.13 5.13 0 0 0-2.32-.46c-.72 0-1.37.2-1.9.6-.54.39-.83.93-.83 1.58 0 .53.18.98.53 1.35.35.36.9.69 1.67 1 .75.3 1.28.57 1.57.8.28.22.4.5.4.86 0 .34-.13.6-.43.82-.3.22-.7.33-1.23.33a4.96 4.96 0 0 1-2.3-.56l-.2-.1v1.26l.08.04c.38.17.76.3 1.13.37l.02-.13Zm6.08-7.97h1v1.6h5.01v.86h-5.02v2.39c0 .8.16 1.4.48 1.79.32.39.8.58 1.43.58.61 0 1.08-.16 1.41-.48.33-.31.5-.77.5-1.38v-.33h.99v.24c0 .89-.26 1.58-.76 2.07-.5.5-1.22.74-2.14.74a2.8 2.8 0 0 1-2.14-.8 3.28 3.28 0 0 1-.76-2.32V9.36Z" fill="#fff"/>
  <path d="M71.55 9.36v.13h.86v1.6h5.02v.6H72.4v2.52c0 .82.16 1.44.5 1.87.35.43.88.64 1.54.63.63 0 1.14-.16 1.5-.51.36-.35.54-.85.54-1.47v-.2h.72v.1c0 .87-.24 1.51-.71 1.98-.48.46-1.15.7-2.05.7-.9 0-1.57-.26-2.05-.77-.47-.5-.72-1.24-.72-2.22V9.36h-.27v4.96c0 1.02.26 1.83.8 2.4.53.58 1.3.86 2.24.86.94 0 1.7-.26 2.23-.78.54-.52.8-1.26.8-2.17v-.37h-1.26v.46c0 .58-.16 1-.45 1.29-.3.29-.73.44-1.32.44-.61 0-1.04-.18-1.33-.54-.29-.35-.45-.92-.45-1.7v-2.25h5.02v-1.14h-5.02v-1.6H71.4v.14h.14Zm10.52 3.44c.74 0 1.27-.1 1.6-.32.32-.22.48-.57.48-1.07 0-.4-.13-.72-.38-.96-.25-.23-.6-.35-1.04-.35-.54 0-.96.17-1.24.52-.3.34-.44.85-.44 1.53v.65h1.02Zm-2.01 2.58h-1.08v-.87h1.08v-2.28c0-.95.23-1.69.7-2.2a2.51 2.51 0 0 1 1.97-.79c.74 0 1.34.2 1.78.59a2 2 0 0 1 .66 1.58c0 .72-.26 1.28-.78 1.66a3.9 3.9 0 0 1-2.32.58h-1.02v.86h4.11v.87h-4.11v1.95h-1v-1.95Z" fill="#fff"/>
  <path d="M82.07 12.8v.13c.75 0 1.3-.1 1.67-.34.37-.24.55-.66.54-1.18 0-.43-.14-.8-.42-1.05a1.6 1.6 0 0 0-1.13-.4c-.57 0-1.03.2-1.35.57-.32.38-.46.93-.46 1.62v.78h1.15v-.26h-.89v-.52c0-.66.15-1.14.4-1.45.27-.3.63-.47 1.15-.47.42 0 .73.11.95.32.22.21.33.49.34.86 0 .47-.15.77-.43.96-.28.19-.8.3-1.52.3v.13Zm-2.01 2.58v-.13h-.94v-.6h1.07v-2.42c0-.93.23-1.63.67-2.12a2.38 2.38 0 0 1 1.87-.73c.72 0 1.28.18 1.7.55.4.36.6.84.6 1.48a1.8 1.8 0 0 1-.72 1.55c-.49.36-1.23.55-2.24.55h-1.15v1.13h4.11v.6h-4.11v1.96h-.73v-1.95h-.13v.13h-.14v2.09h1.26V15.5h4.12v-1.14h-4.12v-.6h.9c1.03 0 1.83-.18 2.39-.6.55-.4.84-1 .83-1.76 0-.7-.23-1.27-.7-1.68a2.73 2.73 0 0 0-1.87-.62c-.87 0-1.57.27-2.07.82-.5.55-.74 1.33-.74 2.3v2.14h-1.07v1.14h1.2v-.13Zm16.09.16c-.18.62-.5 1.1-.98 1.42-.46.32-1.05.48-1.76.48a2.8 2.8 0 0 1-2.14-.8 3.32 3.32 0 0 1-.76-2.32V9.36h1v4.85c0 .8.15 1.4.47 1.79.32.39.8.58 1.43.58.63 0 1.1-.2 1.43-.58.32-.4.48-1 .48-1.8V9.36h1v4.96l-.02.4.16-.02.18-.01c.56 0 .98.14 1.25.42.28.28.41.7.41 1.26v.96h-.96v-.7c0-.74-.31-1.1-.95-1.1h-.24Z" fill="#fff"/>
  <path d="m96.15 15.54-.13-.04a2.4 2.4 0 0 1-.92 1.35c-.44.3-1 .46-1.69.46-.9 0-1.57-.26-2.04-.77-.48-.5-.73-1.24-.73-2.22V9.49h.73v4.72c0 .82.16 1.44.5 1.87.35.43.88.64 1.54.63.66 0 1.18-.2 1.53-.63.35-.42.52-1.05.52-1.88V9.5h.72v4.83l-.01.38-.02.17.32-.04h.17v-.14.13c.54 0 .92.14 1.16.38.24.25.37.63.37 1.17v.83h-.7v-.57c0-.39-.08-.7-.26-.92-.2-.22-.48-.32-.82-.32h-.12l-.13.02h-.1l-.02.1.13.03.02.13.12-.01h.1c.3 0 .48.08.61.23.13.15.2.39.2.74v.84h1.23v-1.1c0-.58-.14-1.04-.44-1.35-.3-.32-.77-.47-1.35-.47l-.19.01-.17.02.02.13.13.02.02-.41v-5.1h-1.26v4.98c0 .8-.16 1.36-.45 1.71-.3.36-.72.54-1.33.54-.6 0-1.04-.18-1.33-.54-.29-.35-.44-.92-.44-1.7v-5h-1.26v5.1c0 1.02.26 1.83.8 2.4.53.58 1.28.86 2.23.86.73 0 1.35-.17 1.84-.51.5-.34.84-.84 1.03-1.5l-.13-.03Zm7.45-2.4v.05c.6.08 1.05.29 1.39.63.33.35.5.77.5 1.28 0 .73-.3 1.3-.9 1.72-.6.41-1.36.62-2.26.62-.45 0-.89-.03-1.3-.1a3.67 3.67 0 0 1-1.06-.33v-.96a5.55 5.55 0 0 0 2.36.53c.68 0 1.2-.13 1.57-.4.37-.27.55-.63.55-1.08 0-.49-.2-.84-.58-1.08a3.38 3.38 0 0 0-1.7-.34h-2.64v-.88h2.58c.67 0 1.18-.13 1.55-.4.37-.26.56-.63.56-1.1 0-.34-.15-.62-.44-.85a1.7 1.7 0 0 0-1.1-.35c-.35 0-.69.06-1.01.18-.32.12-.66.29-1 .5l-.5-.72a4.31 4.31 0 0 1 2.53-.82c.72 0 1.33.2 1.82.57.49.38.73.88.73 1.49 0 .45-.15.84-.44 1.17-.3.33-.7.56-1.2.67Z" fill="#fff"/>
  <path d="M103.6 13.14h-.12v.16l.11.02c.56.08 1 .28 1.3.6.3.32.46.7.46 1.18 0 .7-.27 1.21-.84 1.6-.58.4-1.3.6-2.18.6-.44 0-.87-.03-1.28-.1a3.53 3.53 0 0 1-1.02-.3l-.06.11h.13v-.96h-.13l-.06.12a5.7 5.7 0 0 0 2.42.54c.7 0 1.25-.13 1.65-.42.4-.29.6-.7.6-1.2 0-.51-.22-.93-.64-1.18a3.5 3.5 0 0 0-1.78-.36h-2.5v-.61h2.45c.68 0 1.23-.14 1.63-.42.4-.29.61-.71.6-1.22.01-.38-.16-.7-.47-.96a1.84 1.84 0 0 0-1.18-.37c-.37 0-.73.06-1.07.19-.33.12-.67.29-1.02.5l.07.12.1-.08-.5-.72-.1.08.08.1c.34-.24.73-.44 1.17-.57.44-.14.86-.21 1.27-.21.71 0 1.29.18 1.75.54.46.36.68.8.68 1.38 0 .42-.14.77-.41 1.08-.27.31-.65.52-1.13.63l-.1.03v.1h.13l.03.13c.53-.12.95-.36 1.27-.71a1.95 1.95 0 0 0-.31-2.86 3 3 0 0 0-1.9-.6 4.46 4.46 0 0 0-2.61.85l-.1.08.57.82.07.1.1-.06c.35-.2.67-.37.98-.48.31-.12.64-.17.98-.17.42 0 .75.1 1.01.31s.38.45.38.75c0 .44-.16.75-.5 1-.33.24-.82.37-1.47.37h-2.7v1.14h2.75c.74 0 1.28.12 1.64.33.35.21.51.5.52.96 0 .42-.16.72-.5.97a2.5 2.5 0 0 1-1.49.38 5.41 5.41 0 0 1-2.3-.52l-.2-.1v1.26l.08.04c.3.15.66.26 1.1.34.42.07.86.1 1.32.1a4 4 0 0 0 2.33-.64c.63-.44.96-1.06.96-1.83 0-.54-.18-1-.54-1.37-.35-.37-.85-.6-1.45-.68l-.02.14h.13v-.05h-.13Zm3.93-3.78h1v4.85c0 .8.15 1.4.47 1.79.32.39.8.58 1.43.58.63 0 1.1-.2 1.43-.58.32-.4.48-1 .48-1.8V9.36h1v4.96c0 1-.26 1.77-.76 2.31a2.8 2.8 0 0 1-2.15.81 2.8 2.8 0 0 1-2.14-.8 3.32 3.32 0 0 1-.76-2.32V9.36Z" fill="#fff"/>
  <path d="M107.53 9.36v.13h.86v4.72c0 .82.16 1.44.5 1.87.36.43.88.64 1.54.63.66 0 1.18-.2 1.53-.63.35-.42.52-1.05.52-1.88V9.5h.72v4.83c0 .98-.24 1.71-.72 2.22-.48.51-1.15.77-2.05.77-.9 0-1.57-.26-2.04-.77-.48-.5-.72-1.24-.72-2.22V9.36h-.27v4.96c0 1.02.26 1.83.8 2.4.53.58 1.28.86 2.23.86s1.71-.28 2.25-.86a3.4 3.4 0 0 0 .79-2.4v-5.1h-1.26v4.98c0 .8-.16 1.36-.45 1.71-.3.36-.72.54-1.33.54-.6 0-1.04-.18-1.33-.54-.28-.35-.44-.92-.44-1.7V9.22h-1.26v.14h.13Zm8.98 7.97a5.1 5.1 0 0 1-1.1-.36V16a5.11 5.11 0 0 0 2.36.58c.56 0 1-.12 1.33-.36.32-.24.48-.55.48-.93 0-.4-.15-.72-.46-.96-.3-.25-.84-.52-1.6-.83-.75-.3-1.3-.62-1.62-.96a1.75 1.75 0 0 1-.5-1.26c0-.6.27-1.1.78-1.48a3 3 0 0 1 1.83-.57 4.93 4.93 0 0 1 2.26.45l-.32.83a4.8 4.8 0 0 0-1.97-.4c-.44-.01-.8.1-1.1.33a1 1 0 0 0-.43.83c0 .3.11.55.35.75.24.2.67.43 1.29.67.61.25 1.1.48 1.45.7.35.21.62.47.8.76.19.29.28.63.28 1.03 0 .67-.27 1.22-.8 1.63-.54.41-1.21.62-2.01.62-.5 0-.94-.03-1.3-.1Z" fill="#fff"/>
  <path d="m116.51 17.33.03-.13c-.35-.07-.7-.19-1.07-.35l-.05.12h.13V16h-.13l-.06.12a5.23 5.23 0 0 0 2.42.6 2.34 2.34 0 0 0 1.4-.4c.35-.25.54-.61.54-1.03 0-.43-.18-.8-.52-1.07a7.16 7.16 0 0 0-1.63-.84 4.61 4.61 0 0 1-1.58-.94 1.6 1.6 0 0 1-.45-1.16c0-.57.23-1.01.72-1.37a2.87 2.87 0 0 1 1.75-.54 4.83 4.83 0 0 1 2.2.44l.05-.13-.12-.05-.31.83.12.05.05-.12a4.91 4.91 0 0 0-2.02-.42c-.46 0-.86.11-1.18.36-.32.24-.49.57-.49.94 0 .33.14.63.4.85.27.22.7.45 1.33.7.6.24 1.09.47 1.43.68.34.2.59.45.76.72.17.27.26.58.26.96a1.8 1.8 0 0 1-.76 1.52c-.5.4-1.14.6-1.92.6-.5 0-.92-.04-1.27-.1l-.03.12-.02.13c.37.08.8.12 1.32.12.82 0 1.52-.22 2.09-.65a2.1 2.1 0 0 0 .85-1.74 2 2 0 0 0-.3-1.1 2.4 2.4 0 0 0-.84-.8 9.87 9.87 0 0 0-1.47-.7 4.8 4.8 0 0 1-1.25-.66.81.81 0 0 1-.31-.65c0-.3.12-.52.38-.73.27-.2.6-.3 1.03-.3a4.64 4.64 0 0 1 1.91.4l.13.05.36-.96.05-.12-.12-.05a5.12 5.12 0 0 0-2.31-.46c-.73 0-1.37.2-1.91.6-.54.39-.83.93-.82 1.58 0 .53.17.98.52 1.35.35.36.9.69 1.67 1 .76.3 1.28.57 1.57.8.28.22.4.5.41.86 0 .34-.14.6-.43.82-.3.22-.7.33-1.24.33a4.96 4.96 0 0 1-2.3-.56l-.2-.1v1.26l.08.04c.38.17.76.3 1.13.37l.02-.13Zm6.08-7.97h1v1.6h5.01v.86h-5.02v2.39c0 .8.16 1.4.48 1.79.32.39.8.58 1.43.58.61 0 1.08-.16 1.41-.48.33-.31.5-.77.5-1.38v-.33h.99v.24c0 .89-.25 1.58-.76 2.07-.5.5-1.22.74-2.14.74a2.8 2.8 0 0 1-2.14-.8 3.32 3.32 0 0 1-.76-2.32V9.36Z" fill="#fff"/>
  <path d="M122.59 9.36v.13h.86v1.6h5.02v.6h-5.02v2.52c0 .82.16 1.44.5 1.87.35.43.88.64 1.54.63.63 0 1.14-.16 1.5-.51.37-.35.54-.85.54-1.47v-.2h.72v.1c0 .87-.24 1.51-.71 1.98-.48.46-1.15.7-2.05.7-.9 0-1.57-.26-2.05-.77-.47-.5-.72-1.24-.72-2.22V9.36h-.27v4.96c0 1.02.27 1.83.8 2.4.53.58 1.3.86 2.24.86.94 0 1.7-.26 2.23-.78.54-.52.8-1.26.8-2.17v-.37h-1.26v.46c0 .58-.16 1-.45 1.29-.3.29-.73.44-1.32.44-.61 0-1.04-.18-1.33-.54-.29-.35-.44-.92-.44-1.7v-2.25h5.01v-1.14h-5.01v-1.6h-1.27v.14h.14Zm15.05 7.1v.87h-2.89v-5.25c0-.63-.16-1.12-.48-1.46a1.7 1.7 0 0 0-1.3-.51c-.54 0-.97.17-1.29.5-.31.33-.47.77-.47 1.33v.36h-1v-.27c0-.86.25-1.54.75-2.04a2.7 2.7 0 0 1 2-.74c.86 0 1.54.24 2.03.72.5.49.75 1.15.75 2v4.49h1.9Z" fill="#fff"/>
  <path d="M137.64 16.46h-.13v.74h-2.63v-5.12c0-.65-.16-1.18-.51-1.55a1.84 1.84 0 0 0-1.4-.55c-.57 0-1.04.17-1.38.53-.35.36-.52.85-.52 1.43v.22h-.72v-.13c0-.84.24-1.47.7-1.94.46-.47 1.1-.7 1.91-.7.84 0 1.47.22 1.94.68.47.45.7 1.08.7 1.9v4.62h2.04v-.26h-1.76v-4.35a2.8 2.8 0 0 0-.8-2.1 2.92 2.92 0 0 0-2.12-.77c-.87 0-1.58.26-2.1.79a2.9 2.9 0 0 0-.78 2.13v.4h1.26v-.5c0-.52.15-.93.44-1.23.3-.3.67-.46 1.19-.46.52 0 .9.16 1.2.47.3.31.45.76.45 1.37v5.39h3.15v-1.14h-.13v.13Zm1.99-5.86-.45-1.17c-.13-.35-.24-.7-.33-1.03l.1-.17h1.02a8 8 0 0 0 .22 1.23l.24 1.14h-.8Z" fill="#fff"/>
  <path d="m139.63 10.6.12-.05-.44-1.17c-.13-.34-.24-.68-.34-1.02l-.12.04.11.07.06-.1h.94v-.14l-.13.02a8.2 8.2 0 0 0 .23 1.23l.2.98h-.63v.27h.96l-.27-1.3a20.55 20.55 0 0 1-.22-1.21l-.02-.12h-1.21l-.14.23-.03.05.02.05c.1.34.2.7.34 1.05l.44 1.16.04.09h.09v-.13Zm2.95 29.4h2.49V23.33h-2.49V40ZM165 29.34l-2.85 7.22h-.09l-2.96-7.22h-2.68l4.44 10.1-2.53 5.61h2.6l6.84-15.71H165Zm-14.1 8.77c-.82 0-1.96-.41-1.96-1.42 0-1.29 1.41-1.78 2.64-1.78 1.1 0 1.6.24 2.27.56a3.02 3.02 0 0 1-2.96 2.64Zm.3-9.14c-1.81 0-3.68.8-4.45 2.55l2.21.93c.47-.93 1.35-1.23 2.27-1.23 1.3 0 2.6.78 2.62 2.15v.17a5.5 5.5 0 0 0-2.6-.64c-2.38 0-4.8 1.3-4.8 3.75 0 2.23 1.95 3.67 4.14 3.67a3.5 3.5 0 0 0 3.17-1.63h.09v1.28h2.4v-6.39c0-2.96-2.2-4.6-5.06-4.6Zm-15.38 2.4h-3.54v-5.72h3.53a2.89 2.89 0 0 1 2.92 2.86 2.9 2.9 0 0 1-2.91 2.86Zm-.07-8.04h-5.96V40h2.49v-6.32h3.47c2.76 0 5.47-2 5.47-5.17 0-3.18-2.71-5.18-5.47-5.18Zm-32.5 14.78c-1.72 0-3.16-1.44-3.16-3.42 0-2 1.44-3.45 3.15-3.45 1.7 0 3.03 1.46 3.03 3.45 0 1.98-1.33 3.42-3.03 3.42Zm2.85-7.84h-.1a3.93 3.93 0 0 0-2.98-1.27 5.64 5.64 0 0 0-5.44 5.7c0 3.17 2.6 5.64 5.44 5.64 1.35 0 2.43-.6 2.98-1.28h.09v.81c0 2.17-1.16 3.33-3.03 3.33a3.14 3.14 0 0 1-2.86-2.02l-2.16.9a5.4 5.4 0 0 0 5.02 3.35c2.92 0 5.4-1.71 5.4-5.9V29.35h-2.37v.92Zm4.08 9.73h2.5V23.33h-2.5V40Zm6.17-5.5a3.1 3.1 0 0 1 2.96-3.3c.99 0 1.83.49 2.1 1.2l-5.06 2.1Zm7.73-1.89c-.47-1.27-1.91-3.6-4.85-3.6-2.93 0-5.35 2.29-5.35 5.66 0 3.18 2.4 5.67 5.62 5.67 2.6 0 4.1-1.59 4.73-2.5l-1.93-1.3a3.24 3.24 0 0 1-2.8 1.57 2.89 2.89 0 0 1-2.75-1.72l7.59-3.13-.26-.65Zm-60.41-1.87v2.4h5.76a5.02 5.02 0 0 1-1.32 3.04 5.9 5.9 0 0 1-4.44 1.76 6.32 6.32 0 0 1-6.32-6.4A6.32 6.32 0 0 1 68 26.85l1.7-1.7a8.4 8.4 0 0 0-6.04-2.42 8.93 8.93 0 0 0-8.94 8.8 8.93 8.93 0 0 0 8.94 8.81c2.62 0 4.6-.86 6.14-2.47 1.6-1.59 2.09-3.82 2.09-5.62a7.8 7.8 0 0 0-.13-1.5h-8.1Zm14.77 7.37c-1.72 0-3.2-1.42-3.2-3.44 0-2.04 1.48-3.43 3.2-3.43 1.72 0 3.2 1.4 3.2 3.43 0 2.02-1.48 3.44-3.2 3.44Zm0-9.1a5.59 5.59 0 0 0-5.7 5.66 5.6 5.6 0 0 0 5.7 5.67 5.6 5.6 0 0 0 5.7-5.67 5.59 5.59 0 0 0-5.7-5.67Zm12.42 9.1c-1.72 0-3.2-1.42-3.2-3.44 0-2.04 1.48-3.43 3.2-3.43 1.72 0 3.2 1.4 3.2 3.43 0 2.02-1.48 3.44-3.2 3.44Zm0-9.1a5.59 5.59 0 0 0-5.7 5.66 5.6 5.6 0 0 0 5.7 5.67 5.6 5.6 0 0 0 5.69-5.67 5.59 5.59 0 0 0-5.7-5.67Z" fill="#fff"/>
</svg>
