<svg width="180" height="54" fill="none" xmlns="http://www.w3.org/2000/svg">
  <path d="M173.33 54H6.67A6.73 6.73 0 0 1 0 47.25V6.75C0 3.04 3 0 6.67 0h166.66A6.73 6.73 0 0 1 180 6.75v40.5c0 3.71-3 6.75-6.67 6.75Z" fill="#000"/>
  <path d="m27.63 26.22-14.2 15.26a3.84 3.84 0 0 0 5.65 2.35l.05-.03 15.97-9.33-7.48-8.25Z" fill="#EA4335"/>
  <path d="m41.98 23.63-.01-.02-6.9-4.05-7.77 7 7.8 7.9 6.86-4a3.89 3.89 0 0 0 2.02-3.43c0-1.47-.8-2.75-2-3.4Z" fill="#FBBC04"/>
  <path d="M13.43 12.52a3.7 3.7 0 0 0-.13 1v26.96c0 .35.04.68.13 1L28.1 26.62l-14.68-14.1Z" fill="#4285F4"/>
  <path d="m27.73 27 7.34-7.44-15.96-9.37a3.85 3.85 0 0 0-5.69 2.33L27.73 27Z" fill="#34A853"/>
  <path d="M141.25 38.67h2.49V22h-2.5v16.67ZM163.65 28l-2.84 7.23h-.09L157.76 28h-2.68l4.44 10.1-2.53 5.62h2.6L166.41 28h-2.76Zm-14.1 8.77c-.82 0-1.95-.4-1.95-1.41 0-1.29 1.41-1.78 2.63-1.78 1.1 0 1.61.23 2.28.56a3.02 3.02 0 0 1-2.96 2.63Zm.3-9.13c-1.8 0-3.67.8-4.44 2.55l2.2.92c.48-.92 1.36-1.22 2.28-1.22 1.29 0 2.6.77 2.62 2.14v.18a5.5 5.5 0 0 0-2.6-.65c-2.38 0-4.8 1.31-4.8 3.76 0 2.23 1.95 3.66 4.14 3.66a3.5 3.5 0 0 0 3.17-1.63h.09v1.29h2.4v-6.4c0-2.95-2.21-4.6-5.06-4.6Zm-15.38 2.4h-3.54v-5.72h3.54a2.89 2.89 0 0 1 2.92 2.86 2.9 2.9 0 0 1-2.92 2.85Zm-.06-8.04h-5.96v16.67h2.48v-6.32h3.48c2.75 0 5.47-2 5.47-5.18 0-3.18-2.72-5.17-5.47-5.17ZM101.9 36.78c-1.72 0-3.16-1.44-3.16-3.42 0-2 1.44-3.46 3.16-3.46 1.7 0 3.03 1.46 3.03 3.46 0 1.98-1.33 3.42-3.03 3.42Zm2.86-7.84h-.09a3.93 3.93 0 0 0-2.98-1.27 5.64 5.64 0 0 0-5.44 5.7c0 3.17 2.6 5.64 5.44 5.64 1.35 0 2.42-.6 2.98-1.29h.09v.82c0 2.17-1.16 3.33-3.03 3.33a3.14 3.14 0 0 1-2.86-2.02l-2.17.9a5.4 5.4 0 0 0 5.03 3.35c2.92 0 5.39-1.72 5.39-5.9V28h-2.36v.93Zm4.08 9.73h2.49V22h-2.5v16.67Zm6.16-5.5a3.11 3.11 0 0 1 2.97-3.31c.99 0 1.82.5 2.1 1.2l-5.07 2.1Zm7.74-1.9c-.48-1.26-1.92-3.6-4.86-3.6-2.92 0-5.35 2.3-5.35 5.67 0 3.18 2.4 5.67 5.63 5.67 2.6 0 4.1-1.59 4.73-2.51l-1.94-1.3a3.24 3.24 0 0 1-2.79 1.58 2.88 2.88 0 0 1-2.75-1.72l7.58-3.14-.25-.64Zm-60.41-1.86v2.4h5.75a5.02 5.02 0 0 1-1.3 3.03 5.9 5.9 0 0 1-4.45 1.76A6.32 6.32 0 0 1 56 30.2a6.32 6.32 0 0 1 10.65-4.68l1.7-1.7a8.39 8.39 0 0 0-6.03-2.42 8.93 8.93 0 0 0-8.94 8.8 8.93 8.93 0 0 0 8.94 8.81c2.62 0 4.6-.86 6.14-2.47 1.59-1.59 2.08-3.82 2.08-5.63a7.8 7.8 0 0 0-.13-1.5h-8.1Zm14.77 7.37c-1.72 0-3.2-1.42-3.2-3.44 0-2.04 1.48-3.44 3.2-3.44 1.72 0 3.2 1.4 3.2 3.44 0 2.02-1.48 3.44-3.2 3.44Zm0-9.11a5.59 5.59 0 0 0-5.7 5.67 5.6 5.6 0 0 0 5.7 5.67 5.6 5.6 0 0 0 5.69-5.67 5.59 5.59 0 0 0-5.7-5.67Zm12.41 9.1c-1.71 0-3.2-1.41-3.2-3.43 0-2.04 1.49-3.44 3.2-3.44 1.72 0 3.2 1.4 3.2 3.44 0 2.02-1.48 3.44-3.2 3.44Zm0-9.1a5.59 5.59 0 0 0-5.69 5.67 5.6 5.6 0 0 0 5.7 5.67 5.6 5.6 0 0 0 5.69-5.67 5.59 5.59 0 0 0-5.7-5.67ZM56.42 16.18c-.57 0-1.14-.2-1.69-.57a2.6 2.6 0 0 1-1.08-1.58l.93-.38c.11.44.34.8.69 1.1a1.85 1.85 0 0 0 2.29.1c.3-.23.47-.54.47-.94 0-.44-.16-.79-.47-1.03a4.88 4.88 0 0 0-1.5-.67c-.7-.22-1.23-.5-1.59-.85a1.8 1.8 0 0 1-.54-1.35c0-.56.23-1.06.68-1.48a2.47 2.47 0 0 1 1.76-.63c.67 0 1.21.17 1.63.5.42.34.7.7.82 1.1l-.93.4a1.38 1.38 0 0 0-.49-.7c-.26-.22-.6-.33-1.01-.33-.4 0-.73.11-1 .33a1 1 0 0 0-.42.81c0 .3.13.55.38.75.26.2.63.39 1.13.55a5.71 5.71 0 0 1 1.78.83 2.01 2.01 0 0 1 .8 1.75c0 .38-.07.72-.23 1.03-.16.3-.37.54-.63.71a3.14 3.14 0 0 1-1.78.55Z" fill="#fff"/>
  <path d="M56.42 16.18v-.14c-.54 0-1.08-.17-1.61-.54a2.47 2.47 0 0 1-1.03-1.5l-.13.03.05.12.93-.37-.05-.13-.13.04c.12.46.36.85.73 1.17a1.98 1.98 0 0 0 2.46.1c.34-.25.52-.62.52-1.05 0-.47-.18-.87-.52-1.13a4.98 4.98 0 0 0-1.53-.7 3.7 3.7 0 0 1-1.54-.82c-.34-.32-.5-.73-.5-1.25 0-.53.2-.98.63-1.38.42-.4.97-.6 1.67-.6.65 0 1.16.16 1.55.48.4.32.66.67.78 1.03l.12-.04-.05-.12-.93.39.05.12.13-.03a1.5 1.5 0 0 0-.54-.77 1.69 1.69 0 0 0-1.1-.35c-.4 0-.78.12-1.08.35-.3.24-.46.56-.46.92 0 .34.15.63.43.85.27.22.66.4 1.16.57a4.88 4.88 0 0 1 1.74.82c.26.18.44.4.57.68.13.27.2.59.2.96a2 2 0 0 1-.23.96c-.15.29-.34.51-.59.67a3.01 3.01 0 0 1-1.7.52v.27a3.33 3.33 0 0 0 1.85-.56c.28-.2.5-.45.68-.77.17-.33.25-.7.25-1.1 0-.4-.07-.75-.22-1.06a2 2 0 0 0-.65-.78 4.8 4.8 0 0 0-.82-.49 9.6 9.6 0 0 0-1-.37 3.53 3.53 0 0 1-1.07-.52.79.79 0 0 1-.34-.65c0-.28.12-.5.37-.7.25-.2.55-.3.92-.3.39 0 .7.1.93.29.24.2.39.4.44.63l.04.14 1.2-.49-.04-.12a2.47 2.47 0 0 0-.86-1.16 2.68 2.68 0 0 0-1.72-.53 2.6 2.6 0 0 0-1.85.66 2.1 2.1 0 0 0-.72 1.58c0 .58.2 1.07.58 1.44.38.37.93.67 1.65.9.67.2 1.15.42 1.44.64.28.22.42.5.42.92 0 .36-.13.63-.41.84-.3.21-.64.32-1.06.32-.4 0-.74-.14-1.07-.42a2 2 0 0 1-.64-1.03l-.03-.15-1.08.44-.1.04.03.11c.17.7.55 1.27 1.13 1.66a3.1 3.1 0 0 0 1.76.6v-.14Zm8.44-7.13-2.28 3.85h2.33V9.05h-.05ZM60.74 16h-1.21l4.78-7.92h5.22v.97h-3.6v2.51h3.25v.95h-3.26v2.52h3.61V16h-4.62v-2.15H62L60.75 16Z" fill="#fff"/>
  <path d="m64.86 9.05-.11-.07-2.4 4.05h2.69V8.92h-.25l-.04.06.11.07v.13h.05v-.13h-.14v3.72h-1.95l2.16-3.65-.12-.07ZM60.74 16v-.13h-.98l4.62-7.66h5.02v.7h-3.6v2.79h3.24v.68H65.8v2.78h3.6v.7h-4.35v-2.14h-3.1l-1.31 2.21.11.07.12.07 1.23-2.08h2.68v2.14h4.9V14.9h-3.61v-2.24h3.25v-1.22h-3.25V9.18h3.6V7.94h-5.43l-4.94 8.2h1.53l.04-.07-.12-.07Zm16.13-7.92v.04l-2.95 3.4 3.14 4.44V16h-1.25l-2.58-3.7-1.21 1.4V16H71V8.08h1.02v4.08h.04l3.49-4.08h1.32Z" fill="#fff"/>
  <path d="M76.87 8.08h-.14v.04h.14l-.1-.09-3.02 3.48L76.93 16h.13v-.13h-1.18l-2.63-3.78-1.37 1.57v2.2h-.75V8.22h.75v4.08h.24l3.49-4.08h1.26v-.27h-1.38l-3.53 4.13.1.09v-.13h-.04v.13h.13V7.94h-1.28v8.2h1.28v-2.38l1.07-1.24 2.52 3.61h1.46v-.22l-3.1-4.38L77 8.17v-.23h-.13v.14Zm2.87 8.1a2.3 2.3 0 0 1-1.47-.48c-.4-.32-.7-.78-.86-1.36l.93-.39c.23.84.72 1.25 1.45 1.25.47 0 .83-.15 1.09-.46.25-.3.38-.72.38-1.24V8.08h1.02v5.4c0 .86-.24 1.53-.72 2a2.5 2.5 0 0 1-1.82.7Z" fill="#fff"/>
  <path d="M79.74 16.18v-.14c-.55 0-1-.15-1.39-.45a2.4 2.4 0 0 1-.81-1.29l-.13.04.05.12.93-.38-.05-.13-.13.04c.24.87.79 1.35 1.58 1.35.5 0 .91-.17 1.19-.51.28-.34.41-.79.41-1.33V8.2h.75v5.28c0 .84-.22 1.46-.67 1.9-.45.44-1.02.66-1.73.66v.27c.77 0 1.42-.25 1.92-.74.5-.5.75-1.2.75-2.1V7.95h-1.28v5.56c0 .5-.13.88-.36 1.16-.22.27-.54.4-.98.41-.68 0-1.09-.35-1.32-1.15l-.04-.15-1.07.45-.11.04.03.12c.18.6.48 1.08.9 1.42.44.34.96.51 1.56.51v-.13Zm5.52-3.28h2.64l-1.3-3.57h-.04l-1.3 3.57ZM83.02 16 86 8.08h1.15L90.14 16h-1.12l-.77-2.15h-3.33L84.15 16h-1.13Z" fill="#fff"/>
  <path d="M85.26 12.9v.13h2.83l-1.4-3.84h-.22l-1.4 3.84h.2v-.13l.12.05 1.3-3.58-.13-.04v.13h.04v-.13l-.12.04 1.23 3.4h-2.45v.13ZM83.02 16l.12.05L86.1 8.2h.96l2.9 7.66h-.85l-.76-2.15h-3.52l-.78 2.15h-1.03v.26h1.22l.77-2.14h3.15l.76 2.14h1.42l-3.1-8.19h-1.33l-3.08 8.2h.19V16Zm11.51 0H93.5V8.08h4.62v.97h-3.6v2.6h3.25v.95h-3.25V16Z" fill="#fff"/>
  <path d="M94.53 16v-.13h-.89V8.2H98v.7h-3.6v2.87h3.25v.69h-3.26V16h.27v-3.26h3.25v-1.22h-3.25V9.18h3.6V7.94h-4.89v8.2h1.29V16h-.13Zm5.78-4.16h1.64c.4 0 .75-.13 1.05-.4.29-.27.43-.6.43-1 0-.35-.13-.67-.38-.96a1.3 1.3 0 0 0-1.03-.43h-1.7v2.79ZM99.3 16V8.08h2.7c.68 0 1.26.22 1.75.67.49.44.73 1 .73 1.68a2.35 2.35 0 0 1-1.9 2.27l-.01.04 2.22 3.22V16h-1.2l-2.14-3.2h-1.13V16H99.3Z" fill="#fff"/>
  <path d="M100.31 11.84v.13h1.64c.43 0 .82-.14 1.14-.43.31-.29.48-.67.48-1.1 0-.39-.15-.74-.42-1.05a1.45 1.45 0 0 0-1.13-.47h-1.84v3.05h.13v-.13h.14V9.18h1.57c.4 0 .7.13.93.4.24.26.35.54.35.85 0 .38-.13.67-.4.91-.26.25-.57.36-.95.37h-1.64v.13ZM99.3 16h.14V8.2H102c.65.01 1.19.22 1.66.64a2.13 2.13 0 0 1 .18 2.97c-.35.4-.76.66-1.28.76l-.05.01-.1.16 2.25 3.26h.13v-.13h-1.13l-2.14-3.21h-1.33v3.2h-.89v.27h1.16v-3.2h.92l2.13 3.2h1.42v-.22l-2.25-3.25-.11.08.11.07.02-.04-.1-.07.02.13a2.48 2.48 0 0 0 2-2.4c0-.7-.27-1.31-.78-1.78a2.64 2.64 0 0 0-1.83-.7h-2.84v8.18h.13V16Zm10.2-8.54h-.9l.58-1.42h1.1l-.79 1.42Zm-1.8 5.44h2.64l-1.3-3.57H109l-1.3 3.57Zm-2.24 3.1 3-7.92h1.14l3 7.92h-1.13l-.76-2.15h-3.33L106.6 16h-1.13Z" fill="#fff"/>
  <path d="M109.5 7.46v-.14h-.7l.47-1.15h.79l-.69 1.22.12.07.12.06.9-1.61h-1.42l-.68 1.68h1.16l.04-.07-.12-.06Zm-1.8 5.44v.13h2.83l-1.39-3.84h-.23l-1.4 3.84h.2v-.13l.12.05 1.3-3.58-.13-.04v.13h.05v-.13l-.13.04 1.23 3.4h-2.44v.13Zm-2.24 3.1.13.05 2.95-7.84h.97l2.89 7.66h-.84l-.77-2.15h-3.52l-.77 2.15h-1.04v.26h1.23l.77-2.14h3.14l.77 2.14h1.41l-3.09-8.19h-1.33l-3.1 8.2h.2V16Z" fill="#fff"/>
</svg>
