<svg width="180" height="54" fill="none" xmlns="http://www.w3.org/2000/svg">
  <path d="M173.3 54H6.7A6.7 6.7 0 0 1 0 47.2V6.8C0 3 3 0 6.7 0h166.6a6.7 6.7 0 0 1 6.7 6.8v40.5c0 3.7-3 6.7-6.7 6.7Z" fill="#000"/>
  <path d="M27.6 26.2 13.4 41.5a3.8 3.8 0 0 0 5.7 2.3l16-9.3-7.5-8.3Z" fill="#EA4335"/>
  <path d="m42 23.6-7-4-7.7 7 7.8 7.9 6.9-4a3.9 3.9 0 0 0 2-3.5 4 4 0 0 0-2-3.4Z" fill="#FBBC04"/>
  <path d="M13.4 12.5a3.7 3.7 0 0 0-.1 1v27l.1 1 14.7-14.9-14.7-14Z" fill="#4285F4"/>
  <path d="m27.7 27 7.4-7.4-16-9.4a3.9 3.9 0 0 0-5.7 2.3L27.7 27Z" fill="#34A853"/>
  <path d="M141.3 38.7h2.4V22h-2.5v16.7ZM163.6 28l-2.8 7.2-3-7.2H155l4.4 10.1-2.5 5.6h2.6l6.8-15.7h-2.8Zm-14 8.8c-.9 0-2-.4-2-1.4 0-1.3 1.4-1.8 2.6-1.8 1.1 0 1.6.2 2.3.5a3 3 0 0 1-3 2.7Zm.3-9.2c-1.8 0-3.7.8-4.5 2.6l2.2 1c.5-1 1.4-1.3 2.3-1.3 1.3 0 2.6.8 2.6 2.1v.2a5.5 5.5 0 0 0-2.6-.6c-2.4 0-4.8 1.3-4.8 3.7 0 2.2 2 3.7 4.2 3.7a3.5 3.5 0 0 0 3.1-1.7h.1v1.3h2.4v-6.4c0-3-2.2-4.6-5-4.6ZM134.5 30h-3.6v-5.7h3.6a2.9 2.9 0 0 1 2.9 2.9 2.9 2.9 0 0 1-3 2.8Zm0-8h-6v16.7h2.4v-6.4h3.5c2.8 0 5.5-2 5.5-5.1 0-3.2-2.7-5.2-5.5-5.2Zm-32.6 14.8c-1.7 0-3.2-1.5-3.2-3.4 0-2 1.5-3.5 3.2-3.5 1.7 0 3 1.5 3 3.5s-1.3 3.4-3 3.4Zm2.9-7.9h-.1a4 4 0 0 0-3-1.2 5.6 5.6 0 0 0-5.5 5.7c0 3.1 2.6 5.6 5.5 5.6a4 4 0 0 0 3-1.3v.8c0 2.2-1.1 3.4-3 3.4a3.1 3.1 0 0 1-2.8-2l-2.2.9a5.4 5.4 0 0 0 5 3.3c3 0 5.4-1.7 5.4-5.9V28h-2.3v1Zm4 9.8h2.5V22h-2.5v16.7Zm6.2-5.5a3.1 3.1 0 0 1 3-3.3c1 0 1.8.5 2 1.2l-5 2Zm7.7-2a5.2 5.2 0 0 0-4.8-3.5c-3 0-5.4 2.3-5.4 5.6 0 3.2 2.4 5.7 5.7 5.7 2.6 0 4-1.6 4.7-2.5l-2-1.3a3.2 3.2 0 0 1-2.7 1.6 2.9 2.9 0 0 1-2.8-1.7l7.6-3.2-.3-.6Zm-60.4-1.8v2.4h5.8a5 5 0 0 1-1.3 3 5.9 5.9 0 0 1-4.5 1.8 6.3 6.3 0 0 1-6.3-6.4 6.3 6.3 0 0 1 10.7-4.7l1.7-1.7a8.4 8.4 0 0 0-6-2.4 9 9 0 0 0-9 8.8 9 9 0 0 0 9 8.8 8 8 0 0 0 6-2.5 8 8 0 0 0 2.1-5.6 7.8 7.8 0 0 0 0-1.5h-8.2Zm14.8 7.4c-1.7 0-3.2-1.4-3.2-3.5 0-2 1.5-3.4 3.2-3.4 1.7 0 3.2 1.4 3.2 3.4s-1.5 3.5-3.2 3.5Zm0-9.1a5.6 5.6 0 0 0-5.7 5.6 5.6 5.6 0 0 0 5.7 5.7 5.6 5.6 0 0 0 5.7-5.7 5.6 5.6 0 0 0-5.7-5.6Zm12.4 9c-1.7 0-3.2-1.3-3.2-3.4 0-2 1.5-3.4 3.2-3.4 1.7 0 3.2 1.4 3.2 3.4s-1.5 3.5-3.2 3.5Zm0-9a5.6 5.6 0 0 0-5.7 5.6 5.6 5.6 0 0 0 5.7 5.7 5.6 5.6 0 0 0 5.7-5.7 5.6 5.6 0 0 0-5.7-5.6Zm-33-11.5a3 3 0 0 1-1.8-.6 2.6 2.6 0 0 1-1-1.6l.9-.4c0 .5.3.8.7 1.1a1.9 1.9 0 0 0 2.3.1c.3-.2.4-.5.4-.9s-.1-.8-.4-1a4.9 4.9 0 0 0-1.5-.7 4 4 0 0 1-1.6-.8 1.8 1.8 0 0 1-.6-1.4c0-.6.3-1 .7-1.5a2.5 2.5 0 0 1 1.8-.6c.6 0 1.2.2 1.6.5.4.3.7.7.8 1.1l-1 .4a1.4 1.4 0 0 0-.4-.7c-.3-.2-.6-.3-1-.3s-.7 0-1 .3a1 1 0 0 0-.4.8c0 .3.1.6.3.8l1.2.5a5.7 5.7 0 0 1 1.8.8A2 2 0 0 1 59 14c0 .4-.1.7-.3 1-.1.3-.3.6-.6.7a3.1 3.1 0 0 1-1.8.6Z" fill="#fff"/>
  <path d="M56.4 16.2V16c-.5 0-1-.1-1.6-.5a2.5 2.5 0 0 1-1-1.5h-.1v.1l1-.3-.1-.2h-.2c.2.5.4 1 .8 1.3a2 2 0 0 0 2.4 0c.4-.2.6-.6.6-1 0-.5-.2-.9-.6-1.1a5 5 0 0 0-1.5-.7 3.7 3.7 0 0 1-1.5-.8c-.4-.4-.5-.8-.5-1.3s.2-1 .6-1.4c.4-.4 1-.6 1.7-.6.6 0 1.1.2 1.5.5.4.3.7.7.8 1h.1v-.1l-1 .4h.2a1.5 1.5 0 0 0-.5-.7 1.7 1.7 0 0 0-1.1-.4c-.4 0-.8.2-1.1.4-.3.2-.5.6-.5 1 0 .3.2.5.5.8.2.2.6.4 1.1.5a4.9 4.9 0 0 1 1.8.9l.5.6c.2.3.2.6.2 1a2 2 0 0 1-.2 1c-.1.2-.3.5-.6.6a3 3 0 0 1-1.7.5v.3a3.3 3.3 0 0 0 1.9-.5c.2-.2.5-.5.6-.8.2-.3.3-.7.3-1.1 0-.4 0-.8-.2-1a2 2 0 0 0-.7-.9 4.8 4.8 0 0 0-.8-.4 9.6 9.6 0 0 0-1-.4 3.5 3.5 0 0 1-1-.5.8.8 0 0 1-.4-.7c0-.3.1-.5.4-.7.2-.2.5-.3.9-.3s.7.1 1 .3l.4.6v.2l1.2-.5v-.1a2.5 2.5 0 0 0-.9-1.2 2.7 2.7 0 0 0-1.7-.5 2.6 2.6 0 0 0-1.9.6 2.1 2.1 0 0 0-.7 1.6c0 .6.2 1 .6 1.5l1.6.9 1.5.6c.3.2.4.5.4 1 0 .3-.1.5-.4.8a2 2 0 0 1-1 .3c-.5 0-.8-.2-1.1-.4a2 2 0 0 1-.7-1v-.2l-1 .4h-.2v.2c.2.7.6 1.2 1.2 1.6a3.1 3.1 0 0 0 1.7.6v-.1ZM65 9l-2.3 3.8H65V9.1Zm-4.3 7h-1.2l4.8-8h5.2v1H66v2.6h3.3v1H66V15h3.6v1H65v-2.1h-3L60.7 16Z" fill="#fff"/>
  <path d="M64.9 9h-.2l-2.4 4H65V9h-.2v.2h.1V9h-.1v3.7h-2L65 9h-.1Zm-4.2 7v-.1h-1l4.7-7.7h5V9h-3.6v2.8H69v.7h-3.2v2.8h3.6v.7H65v-2.2h-3L60.5 16l.1.1h.2l1.2-2h2.7V16h4.9v-1H66v-2.2h3.2v-1.3H66V9.2h3.6V7.9h-5.5l-4.9 8.2h1.5V16ZM77 8v.1l-3 3.4 3.2 4.5h-1.3l-2.6-3.7-1.2 1.4V16h-1V8h1v4.2L75.7 8H77Z" fill="#fff"/>
  <path d="M76.9 8h-.2v.1h.2-.1l-3 3.4 3.1 4.5h.2v-.1h-1.2L73.2 12 72 13.7v2.2h-1V8.2h.8v4.1h.2l3.5-4H77v-.4h-1.4L72 12.2h.1V8H71v8.2h1v-2.3l1.1-1.3 2.5 3.6h1.5V16L74 11.6l3-3.4v-.3h-.1v.2Zm2.8 8.2a2.3 2.3 0 0 1-1.4-.5c-.4-.3-.7-.8-.9-1.4l1-.4c.2.9.7 1.3 1.4 1.3.5 0 .8-.1 1-.5.3-.3.5-.7.5-1.2V8.1h1v5.4c0 .8-.3 1.5-.7 2a2.5 2.5 0 0 1-1.9.7Z" fill="#fff"/>
  <path d="M79.7 16.2V16c-.5 0-1-.1-1.4-.4a2.4 2.4 0 0 1-.8-1.3v.2l.9-.4v-.2h-.2c.3 1 .8 1.4 1.6 1.4.5 0 .9-.1 1.2-.5.3-.3.4-.8.4-1.3V8.2h.7v5.3c0 .8-.2 1.4-.6 1.9-.5.4-1 .6-1.8.6v.3c.8 0 1.5-.2 2-.7.5-.5.7-1.2.7-2.1V8h-1.3v5.5c0 .5-.1.9-.3 1.2-.3.2-.6.4-1 .4-.7 0-1.1-.4-1.3-1.2v-.1l-1.1.4h-.2v.2c.3.6.6 1 1 1.4.4.3 1 .5 1.5.5v-.1Zm5.6-3.3h2.6l-1.3-3.6-1.3 3.6ZM83 16l3-8h1.1l3 8h-1l-.8-2.1h-3.4l-.8 2.1h-1Z" fill="#fff"/>
  <path d="M85.3 12.9v.1H88l-1.4-3.8h-.2L85 13h.2l1.4-3.5h-.2l1.2 3.4h-2.4v.1ZM83 16h.1l3-7.8h1l2.9 7.7h-1l-.7-2.2h-3.6l-.7 2.2h-1v.2h1.1L85 14h3.2l.7 2.1h1.4l-3-8.2h-1.4l-3 8.2h.1V16Zm11.5 0h-1V8h4.6v1h-3.6v2.7h3.3v.9h-3.3V16Z" fill="#fff"/>
  <path d="M94.5 16v-.1h-.9V8.2H98v.7h-3.6v2.9h3.3v.7h-3.3V16h.3v-3.3h3.2v-1.2h-3.2V9.2h3.6V7.9h-5v8.2h1.4V16h-.2Zm5.8-4.2h1.7c.4 0 .7 0 1-.4.3-.2.4-.6.4-1l-.3-1a1.3 1.3 0 0 0-1-.3h-1.8v2.7Zm-1 4.2V8h2.7c.7 0 1.3.3 1.8.8.4.4.7 1 .7 1.6a2.4 2.4 0 0 1-2 2.3l2.3 3.3h-1.2l-2.2-3.2h-1V16h-1.1Z" fill="#fff"/>
  <path d="M100.3 11.8v.2h1.7c.4 0 .8-.2 1-.5.4-.2.6-.6.6-1s-.2-.8-.4-1.1a1.4 1.4 0 0 0-1.2-.5h-1.8v3h.3V9.1h1.5c.4 0 .7.1 1 .4.2.2.3.5.3.8 0 .4-.1.7-.4 1-.3.2-.6.3-1 .3h-1.6v.1Zm-1 4.2h.1V8.2h2.6c.7 0 1.2.2 1.7.6a2.1 2.1 0 0 1 .1 3 2 2 0 0 1-1.2.8l-.2.1 2.3 3.3v-.1h-1l-2.2-3.2h-1.3v3.2h-.9v.2h1.2V13h.9l2.1 3.2h1.4V16l-2.2-3.2h-.1v.1h.1l-.1-.1v.1a2.5 2.5 0 0 0 2-2.4c0-.7-.2-1.3-.8-1.8A2.6 2.6 0 0 0 102 8h-2.8v8h.1Zm10.2-8.5h-.9l.6-1.5h1l-.7 1.5Zm-1.8 5.4h2.6L109 9.3l-1.3 3.6Zm-2.2 3.1 3-8h1.1l3 8h-1.1l-.8-2.1h-3.3l-.8 2.1h-1.1Z" fill="#fff"/>
  <path d="M109.5 7.5v-.2h-.7l.5-1.1h.8l-.7 1.2.2.1 1-1.6H109l-.7 1.7h1.2l-.1-.1Zm-1.8 5.4v.1h2.8l-1.4-3.8h-.2l-1.4 3.8h.3l1.3-3.5h-.1l1.2 3.4h-2.5v.1Zm-2.2 3.1 3-7.8h1l2.9 7.7h-.8l-.8-2.2h-3.5l-.8 2.2h-1v.2h1.2l.8-2.1h3.1l.8 2.1h1.4L109.7 8h-1.3l-3.1 8.2h.2V16Z" fill="#fff"/>
</svg>
