<svg id="artwork" xmlns="http://www.w3.org/2000/svg" version="1.1" viewBox="0 0 239 70.9">
  <defs>
    <style>
      .st1{isolation:isolate}.st5{fill:#fff}
    </style>
  </defs>
  <rect x="-.1" width="239.2" height="70.9" rx="8.9" ry="8.9"/>
  <path d="m36.6 34.4-18.9 20a5 5 0 0 0 7.6 3l21.2-12.2-10-10.8h.1Z" style="fill:#ea4335"/>
  <path d="m55.7 31-9.2-5.3-10.3 9.2 10.3 10.3 9.2-5.2c1.6-1 2.6-2.6 2.6-4.5s-1-3.6-2.6-4.5Z" style="fill:#fbbc04"/>
  <path d="m17.7 16.4-.1 1.4V53l.1 1.3L37.2 35 17.7 16.4Z" style="fill:#4285f4"/>
  <path d="m36.7 35.4 9.8-9.7-21.2-12.3a5.1 5.1 0 0 0-7.6 3l19 19Z" style="fill:#34a853"/>
  <path class="st5" d="m77.5 16.8-.7-.2-1.4-.7c-.3-.2-.5-.6-.5-1s.2-.7.5-1c.4-.2.8-.4 1.3-.4s1 .2 1.2.5.6.5.7.9l1.6-.7c-.2-.6-.6-1-1.2-1.6s-1.4-.7-2.3-.7c-.7 0-1.3.2-1.8.4s-1 .7-1.3 1.1a3 3 0 0 0-.4 1.6c0 .8.2 1.4.7 1.9s1.2.8 2 1l.6.3c.8.3 1.4.6 1.8 1s.5.6.5 1c0 .5-.2 1-.6 1.2-.4.3-.9.4-1.4.4-.6 0-1.1-.1-1.5-.5a3 3 0 0 1-.9-1.5l-1.6.6c.2 1 .7 1.8 1.5 2.3.7.5 1.5.8 2.5.8.6 0 1.2 0 1.7-.3.6-.3 1-.6 1.5-1.1s.5-1.1.5-1.8a3 3 0 0 0-.8-2.2c-.5-.5-1.2-1-2.2-1.3Zm3.2 6.5h2l1.7-2.9h4v2.9H95v-1.7h-5v-3h4.5v-1.7H90v-3h5v-1.7h-7.8l-6.5 11Zm7.5-9.5h.1v5h-3l2.4-4 .5-1Zm17-1.5v-.1h-2.1l-4.5 5.2h-.1v-5.2h-1.7v11.1h1.7V20l1.5-1.7 3.5 5h2.1v-.1l-4.4-6.3 4-4.6z"/>
  <path class="st5" d="M110.6 19.9c0 .6-.1 1-.4 1.4s-.8.6-1.3.6c-1 0-1.6-.6-2-1.7l-1.6.7a4 4 0 0 0 1.4 2c.6.4 1.3.6 2.2.6a4 4 0 0 0 1.8-.4c.5-.3.9-.7 1.2-1.3s.4-1.2.4-2v-7.6h-1.7v7.7Zm6.8-7.7-4.2 11h2l1-2.8h4.4l1 2.9h2l-4.2-11.1h-2Zm-.7 6.6 1.2-3.3.4-1.3h.1l.5 1.3 1.2 3.3h-3.4Zm15.8-6.6h-2l-4.2 11h2l1-2.8h4.4l1 2.9h2l-4.2-11.1Zm-2.7 6.6 1.2-3.3.4-1.3h.1l.5 1.3 1.2 3.3h-3.4Zm3.6-9.5h-1.9l-.7 2h1.4l1.2-2z"/>
  <g class="st1">
    <path class="st5" d="M78.8 52.2A11.3 11.3 0 0 1 73 42a11.4 11.4 0 0 1 5.8-10 12.1 12.1 0 0 1 10.5-.6 10 10 0 0 1 3.6 2.4l-2.4 2.4a7.3 7.3 0 0 0-2.6-1.8 8.2 8.2 0 0 0-7.3.4c-1.3.6-2.3 1.6-3 2.8s-1.1 2.8-1.1 4.4.3 3 1 4.3a7.8 7.8 0 0 0 3 3c1.3.6 2.6 1 4 1s2.5-.2 3.4-.6c.9-.4 1.7-1 2.4-1.6.5-.5.8-1 1.2-1.7a8 8 0 0 0 .6-2.2h-7.5v-3.1h10.8l.1 1.8c0 1.4-.2 2.7-.6 4a8.5 8.5 0 0 1-2 3.4c-2.2 2.2-5 3.3-8.3 3.3-2.1 0-4-.5-5.8-1.5Z"/>
  </g>
  <g class="st1">
    <path class="st5" d="M101.5 52.6a7.8 7.8 0 0 1-3-3c-.7-1.3-1-2.8-1-4.3s.3-3 1-4.3a7.6 7.6 0 0 1 3-3 7.7 7.7 0 0 1 4.3-1.1A8.2 8.2 0 0 1 113 41c.7 1.3 1 2.7 1 4.3s-.3 3-1 4.3a7.6 7.6 0 0 1-3 3c-1.2.7-2.6 1-4.2 1s-3-.3-4.3-1Zm6.7-2.7c.7-.4 1.3-1 1.8-1.8.4-.8.6-1.8.6-2.8s-.2-2-.6-2.8a4.8 4.8 0 0 0-4.2-2.4 4.7 4.7 0 0 0-4.2 2.4c-.5.8-.7 1.7-.7 2.8s.2 2 .7 2.8 1 1.4 1.7 1.8a4.8 4.8 0 0 0 4.9 0Zm11.3 2.7a7.8 7.8 0 0 1-3-3c-.6-1.3-1-2.8-1-4.3s.4-3 1-4.3a7.6 7.6 0 0 1 3-3 7.9 7.9 0 0 1 4.3-1.1A8.2 8.2 0 0 1 131 41c.7 1.3 1.1 2.7 1.1 4.3s-.3 3-1 4.3a7.7 7.7 0 0 1-3 3c-1.3.7-2.7 1-4.3 1s-3-.3-4.3-1Zm6.7-2.7a4 4 0 0 0 1.8-1.8c.4-.8.7-1.8.7-2.8s-.2-2-.7-2.8a4 4 0 0 0-1.8-1.8 4.8 4.8 0 0 0-6.6 1.8c-.4.8-.7 1.7-.7 2.8s.3 2 .7 2.8 1 1.4 1.8 1.8a4.8 4.8 0 0 0 4.8 0Zm10.6 9.1a6.3 6.3 0 0 1-2.6-3.1l3.2-1.4c.3.9.8 1.5 1.6 2s1.6.8 2.6.8c1.4 0 2.6-.4 3.4-1.3.8-1 1.2-2.2 1.2-3.8v-1.4h-.2c-.5.7-1.2 1.3-2 1.7s-1.9.7-3 .7a7.2 7.2 0 0 1-6.4-4c-.7-1.2-1-2.6-1-4.2s.3-3 1-4.2 1.6-2.2 2.7-2.9a7 7 0 0 1 6.6-.4c.9.4 1.6 1 2.1 1.8h.2v-2h3.2v15a9 9 0 0 1-1 4.4 6.6 6.6 0 0 1-2.7 2.7 8 8 0 0 1-4.1 1c-2 0-3.6-.5-4.8-1.4Zm7.1-9.5c.7-.4 1.3-1 1.7-1.7s.6-1.7.6-2.7a5 5 0 0 0-1.3-3.8c-.9-.9-2-1.3-3.3-1.3a4.6 4.6 0 0 0-4 2.3c-.4.8-.6 1.7-.6 2.8s.2 2 .6 2.7a4.6 4.6 0 0 0 6.3 1.7Z"/>
  </g>
  <g class="st1">
    <path class="st5" d="M151.8 31h3.4v22.2h-3.4V31Z"/>
  </g>
  <g class="st1">
    <path class="st5" d="M159.8 52.6a7.6 7.6 0 0 1-2.8-3c-.7-1.3-1-2.7-1-4.3 0-1.5.3-2.9 1-4.2a7.9 7.9 0 0 1 2.7-3 8.1 8.1 0 0 1 8.2-.1c1.2.6 2.1 1.6 2.7 2.8a9 9 0 0 1 .9 5.2h-12.2c.2 1.5.7 2.6 1.6 3.4 1 .8 2 1.2 3.2 1.2a4.7 4.7 0 0 0 4.3-2.5l2.8 1.4a8.3 8.3 0 0 1-7.2 4.2c-1.5 0-3-.4-4.2-1Zm8.3-9.2a4 4 0 0 0-.6-1.6c-.3-.6-.7-1-1.4-1.4-.6-.4-1.4-.6-2.3-.6-1 0-2 .4-2.8 1s-1.2 1.5-1.5 2.6h8.6Z"/>
  </g>
  <g class="st1">
    <path class="st5" d="M178 31h7.7c1.3 0 2.5.3 3.6.9a6.4 6.4 0 0 1 3.6 6 6.7 6.7 0 0 1-3.6 5.8c-1 .6-2.3.9-3.6.9h-4.2v8.6H178V31Zm7.8 10.3c.7 0 1.4-.2 2-.5.5-.4 1-.8 1.2-1.3a3.5 3.5 0 0 0 0-3.4c-.3-.5-.7-1-1.2-1.3-.6-.3-1.3-.5-2-.5h-4.3v7h4.3Z"/>
  </g>
  <g class="st1">
    <path class="st5" d="M193.9 31h3.4v22.2h-3.4V31Z"/>
  </g>
  <g class="st1">
    <path class="st5" d="M200.7 53a5 5 0 0 1-2-1.9c-.5-.8-.8-1.7-.8-2.8 0-1.6.6-2.9 1.9-3.8 1.2-1 2.7-1.5 4.6-1.5a11.3 11.3 0 0 1 4.3.9V43a3 3 0 0 0-1-2.3 5 5 0 0 0-6.8 1l-2.5-1.8a8.4 8.4 0 0 1 6.4-3c2.4 0 4.2.5 5.4 1.6s1.9 2.8 1.9 4.8v9.9h-3.4v-2h-.1a5.8 5.8 0 0 1-4.8 2.4 7 7 0 0 1-3-.6Zm5.9-2.7c.7-.4 1.2-1 1.6-1.6.3-.7.5-1.4.5-2.1a7.2 7.2 0 0 0-3.6-1c-1.3 0-2.2.3-2.8.8-.6.5-1 1.2-1 2 0 .7.3 1.3.9 1.8.6.4 1.3.7 2.2.7.8 0 1.5-.2 2.2-.6Z"/>
  </g>
  <g class="st1">
    <path class="st5" d="m218.1 52.3-6.6-15h3.9l4.4 10.8h.1l4.4-10.7h3.7l-9.7 22.5h-3.6l3.4-7.6Z"/>
  </g>
</svg>
