<svg id="artwork" xmlns="http://www.w3.org/2000/svg" version="1.1" viewBox="0 0 239 70.9">
  <defs>
    <style>
      .st4{fill:#fff}
    </style>
  </defs>
  <rect x="-.1" width="239.2" height="70.9" rx="8.9" ry="8.9"/>
  <path class="st4" d="M120.6 38.5c-4.1 0-7.5 3.2-7.5 7.6s3.4 7.5 7.5 7.5 7.6-3.2 7.6-7.5-3.4-7.6-7.6-7.6Zm0 12.1c-2.3 0-4.2-1.8-4.2-4.5s2-4.6 4.2-4.6 4.3 1.9 4.3 4.6-2 4.5-4.3 4.5Zm-16.5-12c-4.2 0-7.6 3.1-7.6 7.5s3.4 7.5 7.6 7.5 7.6-3.2 7.6-7.5-3.4-7.6-7.6-7.6Zm0 12c-2.3 0-4.3-1.8-4.3-4.5s2-4.6 4.3-4.6 4.3 1.9 4.3 4.6-2 4.5-4.3 4.5Zm-19.6-9.8V44H92a6.6 6.6 0 0 1-1.7 4 7.8 7.8 0 0 1-6 2.4 8.4 8.4 0 0 1-8.3-8.5 8.4 8.4 0 0 1 14.1-6.2l2.3-2.3c-2-1.8-4.5-3.2-8-3.2-6.5 0-12 5.3-12 11.7s5.5 11.7 12 11.7c3.5 0 6-1 8.1-3.2 2.1-2.1 2.8-5.1 2.8-7.5 0-.8 0-1.5-.2-2H84.5Zm80.3 2.5c-.7-1.6-2.6-4.8-6.5-4.8s-7.1 3-7.1 7.6c0 4.2 3.2 7.5 7.5 7.5 3.4 0 5.4-2.1 6.3-3.3l-2.6-1.8c-.9 1.3-2 2.1-3.7 2.1s-3-.7-3.7-2.3l10.1-4.1-.3-.9ZM154.4 46a4 4 0 0 1 3.9-4.4c1.3 0 2.4.6 2.8 1.6l-6.7 2.8Zm-8.2 7.3h3.3V31h-3.3v22.1Zm-5.4-13h-.1a5.2 5.2 0 0 0-4-1.7c-3.8 0-7.3 3.3-7.3 7.6s3.5 7.5 7.3 7.5c1.8 0 3.2-.8 4-1.7v1c0 3-1.5 4.5-4 4.5-2 0-3.2-1.4-3.8-2.7l-2.8 1.2c.8 2 3 4.5 6.6 4.5 4 0 7.2-2.3 7.2-7.9V39h-3.1v1.2ZM137 50.6c-2.3 0-4.2-1.9-4.2-4.5s1.9-4.6 4.2-4.6 4 2 4 4.6-1.8 4.5-4 4.5ZM180.3 31h-8v22.1h3.4v-8.4h4.6c3.7 0 7.2-2.6 7.2-6.8S184 31 180.3 31Zm0 10.7h-4.7V34h4.7c2.5 0 4 2 4 3.8s-1.5 3.8-4 3.8Zm20.5-3.2c-2.4 0-4.9 1-6 3.4l3 1.2c.6-1.2 1.8-1.6 3-1.6 1.7 0 3.5 1 3.5 2.8v.3c-.6-.4-1.9-.9-3.5-.9-3.1 0-6.3 1.7-6.3 5 0 3 2.6 4.8 5.5 4.8 2.2 0 3.4-1 4.2-2.1V53h3.3v-8.5c0-4-3-6.1-6.7-6.1Zm-.4 12.1c-1.1 0-2.6-.5-2.6-1.8 0-1.7 1.9-2.4 3.5-2.4 1.4 0 2.1.3 3 .7a4 4 0 0 1-4 3.5ZM219 39l-3.8 9.6-4-9.6h-3.6l6 13.4-3.4 7.5h3.4l9.1-21H219Zm-29.7 14h3.4V31h-3.3v22.1Z"/>
  <path d="m36.6 34.4-18.9 20a5 5 0 0 0 7.6 3l21.2-12.2-10-10.8h.1Z" style="fill:#ea4335"/>
  <path d="m55.7 31-9.2-5.3-10.3 9.2 10.3 10.3 9.2-5.2c1.5-1 2.6-2.6 2.6-4.5s-1-3.6-2.6-4.5Z" style="fill:#fbbc04"/>
  <path d="m17.7 16.4-.1 1.4V53l.1 1.3L37.2 35 17.7 16.4Z" style="fill:#4285f4"/>
  <path d="m36.7 35.4 9.8-9.7-21.2-12.3a5.1 5.1 0 0 0-7.6 3l19 19Z" style="fill:#34a853"/>
  <path class="st4" d="M74 12h3.5c1 0 2.1.2 3 .7s1.5 1 2 2c.4.7.6 1.7.6 2.8s-.2 2-.7 2.9-1.1 1.5-2 2-1.8.6-3 .6H74V12Zm3.4 9.4c1.3 0 2.2-.4 3-1s1-1.7 1-3-.4-2-1-2.7a4 4 0 0 0-3-1h-1.7v7.7h1.7Zm7.8-9.4H87v11h-1.8V12Zm5.1 10.5a4 4 0 0 1-1.5-2.3l1.7-.6c.1.5.4 1 .8 1.4.4.4 1 .6 1.5.6.6 0 1-.1 1.4-.4s.6-.7.6-1.2c0-.4-.2-.8-.5-1.1a6 6 0 0 0-1.8-.9l-.6-.2a5 5 0 0 1-1.9-1.2c-.5-.4-.8-1-.8-1.9 0-.5.2-1 .5-1.5s.7-.8 1.2-1 1.1-.5 1.8-.5c1 0 1.7.2 2.3.7.6.5 1 1 1.2 1.6l-1.6.7a2 2 0 0 0-1.9-1.4c-.5 0-.9.1-1.3.4s-.5.6-.5 1 .2.7.5 1l1.4.7.7.2c1 .3 1.7.7 2.2 1.3s.8 1.2.8 2.1c0 .7-.2 1.3-.5 1.8-.4.5-.9.9-1.5 1.1-.5.2-1.1.3-1.7.3a4 4 0 0 1-2.5-.8ZM98.7 12h3.8c.7 0 1.3.1 1.8.4.6.3 1 .7 1.3 1.2a3.4 3.4 0 0 1 0 3.5c-.3.5-.7 1-1.3 1.2s-1.1.4-1.8.4h-2V23h-1.8V12Zm3.8 5.1c.4 0 .7 0 1-.3.3-.1.5-.3.7-.6s.2-.6.2-.8l-.2-.9c-.1-.3-.4-.4-.7-.6a2 2 0 0 0-1-.3h-2.1v3.5h2.1Zm7.6 5.4c-.8-.5-1.5-1.2-2-2s-.8-2-.8-3 .3-2 .8-3 1.2-1.5 2-2 1.9-.8 3-.8 2 .3 2.8.8a5 5 0 0 1 2.1 2 6 6 0 0 1 0 5.8 5.6 5.6 0 0 1-5 3c-1 0-2-.3-2.8-.8Zm5-1.4a4 4 0 0 0 1.9-3.6c0-.8-.2-1.5-.5-2.1-.4-.7-.8-1.1-1.5-1.5s-1.2-.5-2-.5-1.4.2-2 .5-1 .8-1.4 1.5-.5 1.3-.5 2 .2 1.6.5 2.2.8 1.1 1.5 1.5 1.2.5 2 .5 1.4-.2 2-.5Zm5.8-9.1h2l5 8v-8h1.7v11h-1.8l-5.2-8.4V23H121V12Zm11.4 0h1.7v11h-1.8V12Zm4.4 0h4.1a3.4 3.4 0 0 1 2.8 1.4 2.7 2.7 0 0 1 0 3c-.2.4-.6.7-1 .8v.1c.5.2 1 .5 1.3 1 .4.4.5 1 .5 1.6a3 3 0 0 1-1.7 2.7 3 3 0 0 1-1.7.4h-4.4V12Zm4 4.6c.5 0 1-.2 1.2-.5s.5-.6.5-1-.2-.8-.5-1c-.3-.4-.6-.5-1.1-.5h-2.4v3h2.3Zm.3 4.8c.5 0 1-.1 1.3-.5s.4-.7.4-1.1-.1-.8-.4-1.2-.8-.4-1.4-.4h-2.5v3.2h2.6Zm5.5-9.4h1.7v11h-1.7V12Zm4.4 0h1.7v9.4h4.7V23H151V12Zm8.3 0h6.7v1.6h-5v3h4.5v1.7H161v3h5V23h-6.8V12Zm13.1 10.5a4 4 0 0 1-1.6-2.3l1.7-.6c.1.5.4 1 .8 1.4.5.4 1 .6 1.6.6.5 0 1-.1 1.3-.4s.6-.7.6-1.2c0-.4-.2-.8-.5-1.1-.3-.3-1-.6-1.7-.9l-.7-.2a5 5 0 0 1-1.9-1.2c-.5-.4-.8-1-.8-1.9 0-.5.2-1 .5-1.5s.7-.8 1.2-1 1.2-.5 1.8-.5c1 0 1.8.2 2.3.7.6.5 1 1 1.2 1.6l-1.6.7a2 2 0 0 0-1.9-1.4c-.5 0-.9.1-1.3.4s-.5.6-.5 1 .2.7.5 1 .8.4 1.4.7l.7.2c1 .3 1.7.7 2.2 1.3s.8 1.2.8 2.1c0 .7-.2 1.3-.5 1.8s-.9.9-1.5 1.1c-.5.2-1.1.3-1.7.3a4 4 0 0 1-2.5-.8Zm10.1.2c-.7-.4-1.2-.9-1.5-1.6a5 5 0 0 1-.5-2.3V12h1.7v6.9c0 .8.2 1.4.6 2s1 .7 1.9.7 1.3-.2 1.8-.8a3 3 0 0 0 .6-2V12h1.7v6.8c0 .9-.2 1.6-.5 2.3s-.8 1.2-1.4 1.6c-.7.4-1.4.6-2.2.6s-1.6-.2-2.2-.6Z"/>
</svg>
