<svg width="180" height="54" fill="none" xmlns="http://www.w3.org/2000/svg">
  <path d="M173.33 54H6.67A6.73 6.73 0 0 1 0 47.25V6.75C0 3.04 3 0 6.67 0h166.66A6.73 6.73 0 0 1 180 6.75v40.5c0 3.71-3 6.75-6.67 6.75Z" fill="#000"/>
  <path d="m27.63 26.22-14.2 15.26a3.84 3.84 0 0 0 5.65 2.35l.05-.03 15.97-9.33-7.48-8.25Z" fill="#EA4335"/>
  <path d="m41.98 23.63-.01-.02-6.9-4.05-7.77 7 7.8 7.9 6.86-4a3.89 3.89 0 0 0 2.02-3.43c0-1.47-.8-2.75-2-3.4Z" fill="#FBBC04"/>
  <path d="M13.43 12.52a3.7 3.7 0 0 0-.13 1v26.96c0 .35.04.68.13 1L28.1 26.62l-14.68-14.1Z" fill="#4285F4"/>
  <path d="m27.73 27 7.34-7.44-15.96-9.37a3.85 3.85 0 0 0-5.69 2.33L27.73 27Z" fill="#34A853"/>
  <path d="M142.58 40h2.49V23.33h-2.49V40ZM165 29.34l-2.85 7.22h-.09l-2.96-7.22h-2.68l4.44 10.1-2.53 5.61h2.6l6.84-15.71H165Zm-14.1 8.77c-.82 0-1.96-.41-1.96-1.42 0-1.29 1.41-1.78 2.64-1.78 1.1 0 1.6.24 2.27.56a3.02 3.02 0 0 1-2.96 2.64Zm.3-9.14c-1.81 0-3.68.8-4.45 2.55l2.21.93c.47-.93 1.35-1.23 2.27-1.23 1.3 0 2.6.78 2.62 2.15v.17a5.5 5.5 0 0 0-2.6-.64c-2.38 0-4.8 1.3-4.8 3.75 0 2.23 1.95 3.67 4.14 3.67a3.5 3.5 0 0 0 3.17-1.63h.09v1.28h2.4v-6.39c0-2.96-2.2-4.6-5.06-4.6Zm-15.38 2.4h-3.54v-5.72h3.53a2.89 2.89 0 0 1 2.92 2.86 2.9 2.9 0 0 1-2.91 2.86Zm-.07-8.04h-5.96V40h2.49v-6.32h3.47c2.76 0 5.47-2 5.47-5.17 0-3.18-2.71-5.18-5.47-5.18Zm-32.5 14.78c-1.72 0-3.16-1.44-3.16-3.42 0-2 1.44-3.45 3.15-3.45 1.7 0 3.03 1.46 3.03 3.45 0 1.98-1.33 3.42-3.03 3.42Zm2.85-7.84h-.1a3.93 3.93 0 0 0-2.98-1.27 5.64 5.64 0 0 0-5.44 5.7c0 3.17 2.6 5.64 5.44 5.64 1.35 0 2.43-.6 2.98-1.28h.09v.81c0 2.17-1.16 3.33-3.03 3.33a3.14 3.14 0 0 1-2.86-2.02l-2.17.9a5.4 5.4 0 0 0 5.03 3.35c2.92 0 5.4-1.71 5.4-5.9V29.35h-2.37v.92Zm4.08 9.73h2.5V23.33h-2.5V40Zm6.17-5.5a3.11 3.11 0 0 1 2.96-3.3c.99 0 1.83.49 2.1 1.2l-5.06 2.1Zm7.73-1.89c-.47-1.27-1.91-3.6-4.85-3.6-2.93 0-5.35 2.29-5.35 5.66 0 3.18 2.4 5.67 5.62 5.67 2.6 0 4.1-1.59 4.73-2.5l-1.93-1.3a3.24 3.24 0 0 1-2.8 1.57 2.89 2.89 0 0 1-2.75-1.72l7.59-3.13-.26-.65Zm-60.41-1.87v2.4h5.76a5.02 5.02 0 0 1-1.32 3.04 5.9 5.9 0 0 1-4.44 1.76 6.32 6.32 0 0 1-6.32-6.4A6.32 6.32 0 0 1 68 26.85l1.7-1.7a8.4 8.4 0 0 0-6.04-2.42 8.93 8.93 0 0 0-8.94 8.8 8.93 8.93 0 0 0 8.94 8.81c2.62 0 4.6-.86 6.14-2.47 1.6-1.59 2.09-3.82 2.09-5.62a7.8 7.8 0 0 0-.13-1.5h-8.1Zm14.77 7.37c-1.72 0-3.2-1.42-3.2-3.44 0-2.04 1.48-3.43 3.2-3.43 1.72 0 3.2 1.4 3.2 3.43 0 2.02-1.48 3.44-3.2 3.44Zm0-9.1a5.59 5.59 0 0 0-5.7 5.66 5.6 5.6 0 0 0 5.7 5.67 5.6 5.6 0 0 0 5.7-5.67 5.59 5.59 0 0 0-5.7-5.67Zm12.42 9.1c-1.72 0-3.2-1.42-3.2-3.44 0-2.04 1.48-3.43 3.2-3.43 1.72 0 3.2 1.4 3.2 3.43 0 2.02-1.48 3.44-3.2 3.44Zm0-9.1a5.59 5.59 0 0 0-5.7 5.66 5.6 5.6 0 0 0 5.7 5.67 5.6 5.6 0 0 0 5.69-5.67 5.59 5.59 0 0 0-5.7-5.67ZM56.05 16.35h1.42a3 3 0 0 0 2.2-.8c.53-.52.8-1.26.8-2.22a3 3 0 0 0-.8-2.21 3 3 0 0 0-2.2-.8h-1.42v6.03Zm-1.03.98v-8h2.45c1.23 0 2.21.37 2.95 1.12.74.74 1.1 1.7 1.1 2.88 0 1.19-.36 2.15-1.1 2.9a3.98 3.98 0 0 1-2.95 1.1h-2.45Z" fill="#fff"/>
  <path d="M56.05 16.35v.13h1.42c.95 0 1.72-.27 2.29-.83a3.1 3.1 0 0 0 .85-2.32 3.1 3.1 0 0 0-.85-2.31 3.13 3.13 0 0 0-2.3-.84h-1.54v6.3h.13v-.13h.13v-5.9h1.29c.9 0 1.59.26 2.1.76s.77 1.2.77 2.12c0 .93-.26 1.63-.77 2.13s-1.2.76-2.1.76h-1.42v.13Zm-1.03.98h.14V9.47h2.3c1.21 0 2.15.36 2.87 1.07a3.78 3.78 0 0 1 1.06 2.8c0 1.15-.35 2.07-1.06 2.79a3.84 3.84 0 0 1-2.86 1.07h-2.45v.27h2.45c1.25 0 2.28-.39 3.04-1.15a4.06 4.06 0 0 0 1.15-2.99c0-1.2-.38-2.21-1.15-2.98a4.11 4.11 0 0 0-3.04-1.15h-2.58v8.27h.13v-.14Zm7.95 0v-8h1.02v8h-1.02Z" fill="#fff"/>
  <path d="M62.97 17.33h.13V9.47h.76v7.73h-.9v.27h1.17V9.2h-1.3v8.27h.14v-.14Zm5.11.18c-.58 0-1.15-.19-1.7-.57a2.63 2.63 0 0 1-1.09-1.6l.94-.38c.11.44.34.81.69 1.12a1.87 1.87 0 0 0 2.31.1c.32-.24.47-.56.47-.96 0-.45-.15-.79-.47-1.03a4.9 4.9 0 0 0-1.5-.68 4.01 4.01 0 0 1-1.61-.86 1.8 1.8 0 0 1-.55-1.36 2 2 0 0 1 .68-1.5 2.5 2.5 0 0 1 1.78-.64 2.54 2.54 0 0 1 2.48 1.62l-.94.4a1.4 1.4 0 0 0-.5-.7c-.26-.22-.6-.33-1.02-.33-.4 0-.73.1-1.01.33a1 1 0 0 0-.42.82c0 .3.13.55.39.75.25.2.63.4 1.13.56.4.12.72.25.99.36.26.12.53.28.8.48.27.2.48.44.62.74a2.5 2.5 0 0 1-.04 2.06c-.16.3-.37.55-.63.72a3.15 3.15 0 0 1-1.8.55Z" fill="#fff"/>
  <path d="M68.08 17.51v-.13a2.8 2.8 0 0 1-1.62-.55 2.5 2.5 0 0 1-1.04-1.52l-.13.03.05.13.94-.38-.05-.13-.13.04c.12.46.36.86.73 1.18a2 2 0 0 0 2.48.1c.35-.25.53-.62.53-1.06 0-.48-.18-.87-.53-1.14a5.04 5.04 0 0 0-1.54-.7 3.8 3.8 0 0 1-1.56-.83c-.34-.33-.5-.74-.5-1.26 0-.54.2-1 .63-1.4.43-.4.98-.6 1.69-.6.65 0 1.17.16 1.57.48.4.32.66.67.78 1.04l.13-.04-.05-.12-.94.4.05.12.13-.04a1.52 1.52 0 0 0-.54-.77 1.7 1.7 0 0 0-1.11-.36c-.42 0-.8.12-1.1.36-.3.24-.47.56-.46.93 0 .34.15.63.43.86.28.22.67.4 1.18.57.39.13.72.25.97.37.26.11.52.26.78.46.26.18.45.4.58.68.12.28.19.6.19.97s-.07.7-.22.98-.35.5-.6.67a3.02 3.02 0 0 1-1.72.53v.27a3.34 3.34 0 0 0 1.87-.57 2.24 2.24 0 0 0 .94-1.88c0-.4-.07-.76-.22-1.08a2.03 2.03 0 0 0-.66-.79 4.6 4.6 0 0 0-.83-.49c-.27-.12-.6-.24-1-.37a3.58 3.58 0 0 1-1.1-.53.8.8 0 0 1-.33-.65c0-.29.12-.52.37-.72.26-.2.56-.3.93-.3.4 0 .7.1.94.3.25.2.4.41.45.63l.04.15 1.2-.5-.05-.12a2.49 2.49 0 0 0-.87-1.17 2.7 2.7 0 0 0-1.73-.54c-.76 0-1.39.22-1.87.67a2.12 2.12 0 0 0-.14 3.05c.39.38.95.67 1.67.9.67.2 1.16.43 1.46.65.28.22.42.52.42.93a1 1 0 0 1-.42.85c-.3.22-.64.32-1.07.33-.4 0-.75-.14-1.08-.42a2 2 0 0 1-.64-1.05l-.04-.15-1.08.44-.1.04.02.12c.18.71.56 1.28 1.14 1.67.58.4 1.17.6 1.78.6v-.14Zm5.18-4.41h1.72a1.41 1.41 0 0 0 1.43-1.4c0-.34-.13-.66-.4-.95a1.3 1.3 0 0 0-1.03-.43h-1.72v2.79Zm0 4.23h-1.03v-8h2.73c.67 0 1.26.23 1.75.68.5.45.75 1.02.75 1.7a2.2 2.2 0 0 1-.75 1.7c-.49.46-1.08.68-1.75.68h-1.7v3.24Z" fill="#fff"/>
  <path d="M73.26 13.1v.14h1.72a1.55 1.55 0 0 0 1.56-1.53c0-.38-.15-.74-.42-1.05a1.46 1.46 0 0 0-1.14-.48h-1.86v3.06h.14v-.13h.13v-2.66h1.59c.4 0 .7.13.94.4.24.26.35.55.35.86 0 .32-.11.6-.35.88a1.2 1.2 0 0 1-.94.39h-1.72v.13Zm0 4.23v-.13h-.9V9.47h2.6c.64 0 1.2.2 1.67.64.46.43.7.95.7 1.6 0 .66-.24 1.18-.7 1.6a2.4 2.4 0 0 1-1.67.65h-1.84v3.37h.27v-3.1h1.57c.7 0 1.33-.24 1.84-.71.53-.48.8-1.09.8-1.8 0-.72-.27-1.34-.8-1.81a2.66 2.66 0 0 0-1.84-.71H72.1v8.27h1.29v-.14h-.13Zm6.93-1.7c.6.6 1.32.9 2.17.9.86 0 1.58-.3 2.18-.9.59-.6.88-1.37.88-2.3 0-.93-.3-1.7-.88-2.3-.6-.6-1.32-.9-2.18-.9-.85 0-1.58.3-2.17.9-.6.6-.89 1.37-.89 2.3 0 .93.3 1.7.89 2.3Zm5.1.67a3.93 3.93 0 0 1-2.93 1.21 4.09 4.09 0 0 1-4.11-4.18 4.09 4.09 0 0 1 4.11-4.18 4.1 4.1 0 0 1 4.11 4.18 4.1 4.1 0 0 1-1.17 2.97Z" fill="#fff"/>
  <path d="m80.19 15.63-.1.1a3.1 3.1 0 0 0 2.27.93c.89 0 1.66-.31 2.27-.94.62-.62.93-1.43.93-2.39 0-.96-.31-1.76-.93-2.39a3.07 3.07 0 0 0-2.27-.94 3.1 3.1 0 0 0-2.27.94 3.27 3.27 0 0 0-.92 2.4c0 .95.3 1.76.92 2.38l.1-.09.1-.1a3 3 0 0 1-.86-2.2 3 3 0 0 1 .85-2.2 2.8 2.8 0 0 1 2.08-.86c.83 0 1.51.29 2.08.86a3 3 0 0 1 .85 2.2 3 3 0 0 1-.85 2.2 2.8 2.8 0 0 1-2.08.87 2.8 2.8 0 0 1-2.08-.86l-.1.09Zm5.1.67-.09-.1a3.8 3.8 0 0 1-2.84 1.18 3.96 3.96 0 0 1-3.98-4.05 3.96 3.96 0 0 1 3.98-4.04c1.13 0 2.07.39 2.83 1.18a3.96 3.96 0 0 1 1.15 2.86c0 1.14-.38 2.1-1.14 2.88l.1.09.1.1a4.23 4.23 0 0 0 1.2-3.07 4.22 4.22 0 0 0-4.24-4.3 4.22 4.22 0 0 0-4.24 4.31 4.22 4.22 0 0 0 4.24 4.3c1.2 0 2.22-.41 3.03-1.25l-.1-.1Zm2.63 1.03v-8h1.25l3.89 6.23h.04l-.04-1.54V9.33h1.02v8h-1.07l-4.07-6.52h-.04l.04 1.54v4.98h-1.02Z" fill="#fff"/>
  <path d="M87.92 17.33h.13V9.47h1.04l3.9 6.22h.25l-.05-1.68V9.47h.76v7.73h-.86l-4.07-6.53h-.26l.05 1.68v4.85h-.9v.27h1.17v-5.12l-.05-1.55h-.13v.14h.04v-.13l-.1.07 4.1 6.59h1.28V9.2h-1.3v4.82l.05 1.54h.13v-.14h-.04v.14l.1-.07-3.92-6.29h-1.46v8.27h.14v-.14Zm8 0v-8h1.02v8h-1.02Z" fill="#fff"/>
  <path d="M95.92 17.33h.13V9.47h.76v7.73h-.9v.27h1.17V9.2h-1.3v8.27h.14v-.14Zm3.88-.98h2.07c.4 0 .72-.14.96-.41a1.27 1.27 0 0 0-.01-1.8 1.3 1.3 0 0 0-1-.42H99.8v2.63Zm0-3.59h1.87c.39 0 .7-.12.93-.38.24-.26.35-.54.35-.85 0-.3-.1-.58-.34-.83a1.15 1.15 0 0 0-.9-.38h-1.9v2.44Zm-1.02 4.57v-8h2.89c.63 0 1.17.21 1.63.62.45.42.68.94.68 1.56 0 .38-.1.72-.3 1-.19.3-.45.52-.78.67v.04c.4.14.72.37.97.7.25.32.38.7.38 1.13 0 .66-.24 1.2-.72 1.63-.48.44-1.05.65-1.7.65h-3.05Z" fill="#fff"/>
  <path d="M99.8 16.35v.13h2.07c.43 0 .8-.15 1.06-.46.27-.29.4-.63.4-.99s-.14-.7-.41-.99c-.28-.3-.66-.45-1.1-.45h-2.15v2.9h.13v-.14h.14v-2.5h1.89c.38 0 .66.13.9.37.23.26.34.52.34.81 0 .3-.11.56-.34.82-.22.25-.5.37-.86.37H99.8v.13Zm0-3.59v.14h1.87a1.4 1.4 0 0 0 1.42-1.37c0-.33-.13-.65-.38-.92-.25-.29-.6-.43-1-.43h-2.04v2.72h.13v-.14h.14v-2.31h1.78a1 1 0 0 1 .8.34c.2.23.3.47.3.74s-.1.52-.32.76c-.2.23-.47.34-.83.34H99.8v.13Zm-1.02 4.57h.13V9.47h2.76c.6 0 1.1.19 1.54.58a1.89 1.89 0 0 1 .37 2.39 1.8 1.8 0 0 1-.74.62l-.08.03v.23l.1.03c.37.12.67.34.9.65.24.3.36.65.36 1.05 0 .63-.23 1.13-.68 1.54-.46.4-.99.6-1.61.61h-3.05v.27h3.05c.68 0 1.29-.23 1.79-.69.5-.45.77-1.04.77-1.73 0-.45-.14-.87-.41-1.22-.27-.34-.62-.6-1.04-.73l-.04.12h.13v-.04h-.13l.05.12a2 2 0 0 0 .85-.7 2.15 2.15 0 0 0-.41-2.74 2.48 2.48 0 0 0-1.72-.66h-3.03v8.27h.14v-.14Zm6.86 0v-8h1.02v8h-1.02Z" fill="#fff"/>
  <path d="M105.64 17.33h.13V9.47h.76v7.73h-.9v.27h1.17V9.2h-1.3v8.27h.14v-.14Zm2.86 0v-8h1.03v7.02h3.46v.98h-4.5Z" fill="#fff"/>
  <path d="M108.5 17.33h.13V9.47h.76v7.01h3.47v.72h-4.36v.27h4.62v-1.25h-3.46V9.2h-1.3v8.27h.14v-.14Zm10.45-7.01h-3.64v2.53h3.29v.96h-3.29v2.54h3.64v.98h-4.67v-8h4.67v.99Z" fill="#fff"/>
  <path d="M118.95 10.32v-.14h-3.77v2.8h3.28v.7h-3.28v2.8h3.64v.72h-4.4V9.47h4.4v.85h.27V9.2h-4.94v8.27h4.94v-1.25h-3.65v-2.27h3.29v-1.23h-3.29v-2.27h3.65v-.13h-.14Zm6.22 7.19c-.59 0-1.15-.19-1.7-.57a2.64 2.64 0 0 1-1.1-1.6l.94-.38c.11.44.34.81.69 1.12a1.88 1.88 0 0 0 2.31.1c.32-.24.48-.56.48-.96 0-.45-.16-.79-.48-1.03a4.9 4.9 0 0 0-1.5-.68 4.02 4.02 0 0 1-1.61-.86 1.98 1.98 0 0 1 .13-2.85 2.5 2.5 0 0 1 1.78-.65 2.54 2.54 0 0 1 2.48 1.62l-.94.4a1.4 1.4 0 0 0-.5-.7c-.26-.22-.6-.33-1.02-.33-.4 0-.73.1-1 .33a1 1 0 0 0-.43.82c0 .3.13.55.39.75.26.2.63.4 1.13.56.4.12.73.25 1 .36.26.12.53.28.8.48.27.2.47.44.61.74s.2.63.2 1.02-.07.73-.23 1.04c-.16.3-.38.55-.64.72a3.16 3.16 0 0 1-1.8.55Z" fill="#fff"/>
  <path d="M125.17 17.51v-.13c-.55 0-1.1-.18-1.63-.55a2.5 2.5 0 0 1-1.04-1.52l-.13.03.05.13.94-.38-.05-.13-.13.04c.12.46.36.86.73 1.18a2.01 2.01 0 0 0 2.48.1c.35-.25.53-.62.53-1.06 0-.48-.18-.87-.53-1.14a5.04 5.04 0 0 0-1.54-.7c-.7-.21-1.21-.5-1.56-.83-.34-.33-.5-.74-.5-1.26 0-.54.2-1 .63-1.4.43-.4.99-.6 1.7-.6a2.4 2.4 0 0 1 2.34 1.52l.13-.04-.05-.12-.94.4.05.12.13-.04a1.53 1.53 0 0 0-.54-.77 1.7 1.7 0 0 0-1.1-.36c-.42 0-.8.12-1.1.36-.3.24-.47.56-.47.93 0 .34.15.63.44.86.27.22.66.4 1.17.57.4.13.72.25.98.37.25.11.51.26.78.46.25.18.44.4.57.68.13.28.2.6.2.97s-.08.7-.23.98c-.15.28-.35.5-.6.67a3.02 3.02 0 0 1-1.71.53v.27a3.34 3.34 0 0 0 1.86-.57 2.17 2.17 0 0 0 .94-1.88c0-.4-.07-.76-.22-1.08a2.02 2.02 0 0 0-.66-.79 5.07 5.07 0 0 0-1.82-.86 3.58 3.58 0 0 1-1.1-.53.8.8 0 0 1-.33-.65c0-.29.11-.52.36-.72.26-.2.56-.3.93-.3.4 0 .7.1.94.3.25.2.4.41.46.63l.03.15 1.08-.45.11-.05-.03-.12a2.49 2.49 0 0 0-.87-1.17 2.7 2.7 0 0 0-1.74-.54c-.75 0-1.39.22-1.87.67a2.12 2.12 0 0 0-.13 3.05c.38.38.94.67 1.66.9.68.2 1.17.43 1.46.65.28.22.42.52.42.93 0 .37-.13.64-.42.85-.29.22-.64.32-1.06.33-.4 0-.75-.14-1.08-.42a2 2 0 0 1-.65-1.05l-.04-.15-1.08.44-.1.04.02.12c.18.71.57 1.28 1.15 1.67.57.4 1.17.6 1.78.6v-.14Zm6.93 0a2.8 2.8 0 0 1-2.14-.87 3.19 3.19 0 0 1-.83-2.28V9.33h1.03v5.08c0 .63.17 1.14.5 1.53.33.4.8.59 1.44.59.62 0 1.1-.2 1.43-.59.33-.39.5-.9.5-1.53V9.33h1.03v5.03c0 .95-.27 1.7-.8 2.29a2.8 2.8 0 0 1-2.16.86Z" fill="#fff"/>
  <path d="M132.1 17.51v-.13c-.86 0-1.52-.28-2.05-.83a3.05 3.05 0 0 1-.78-2.19v-4.9h.76v4.95c0 .65.17 1.2.53 1.62.35.42.88.63 1.53.63.66 0 1.18-.2 1.54-.63.36-.42.53-.97.53-1.62V9.47h.76v4.9a3.1 3.1 0 0 1-.76 2.19c-.5.54-1.18.82-2.06.82v.27c.93 0 1.7-.3 2.25-.91.56-.6.84-1.4.84-2.38V9.2h-1.3v5.2c0 .62-.15 1.1-.46 1.46-.3.35-.74.53-1.34.54-.6 0-1.03-.19-1.33-.54-.3-.37-.46-.84-.47-1.45V9.2H129v5.16c0 .96.28 1.76.86 2.37.57.61 1.33.92 2.23.92v-.14Z" fill="#fff"/>
</svg>
