<svg width="180" height="54" fill="none" xmlns="http://www.w3.org/2000/svg">
  <path d="M173.33 54H6.67A6.73 6.73 0 0 1 0 47.25V6.75C0 3.04 3 0 6.67 0h166.66A6.73 6.73 0 0 1 180 6.75v40.5c0 3.71-3 6.75-6.67 6.75Z" fill="#000"/>
  <path d="m27.63 26.22-14.2 15.26a3.84 3.84 0 0 0 5.65 2.35l.05-.03 15.97-9.33-7.48-8.25Z" fill="#EA4335"/>
  <path d="m41.98 23.63-.01-.02-6.9-4.05-7.77 7 7.8 7.9 6.86-4a3.89 3.89 0 0 0 2.02-3.43c0-1.47-.8-2.75-2-3.4Z" fill="#FBBC04"/>
  <path d="M13.43 12.52a3.7 3.7 0 0 0-.13 1v26.96c0 .35.04.68.13 1L28.1 26.62l-14.68-14.1Z" fill="#4285F4"/>
  <path d="m27.73 27 7.34-7.44-15.96-9.37a3.85 3.85 0 0 0-5.69 2.33L27.73 27Z" fill="#34A853"/>
  <path d="M142.58 40h2.49V23.33h-2.49V40ZM165 29.34l-2.85 7.22h-.09l-2.96-7.22h-2.68l4.44 10.1-2.53 5.61h2.6l6.84-15.71H165Zm-14.1 8.77c-.82 0-1.96-.41-1.96-1.42 0-1.29 1.41-1.78 2.64-1.78 1.1 0 1.6.24 2.27.56a3.02 3.02 0 0 1-2.96 2.64Zm.3-9.14c-1.81 0-3.68.8-4.45 2.55l2.21.93c.47-.93 1.35-1.23 2.27-1.23 1.3 0 2.6.78 2.62 2.15v.17a5.5 5.5 0 0 0-2.6-.64c-2.38 0-4.8 1.3-4.8 3.75 0 2.23 1.95 3.67 4.14 3.67a3.5 3.5 0 0 0 3.17-1.63h.09v1.28h2.4v-6.39c0-2.96-2.2-4.6-5.06-4.6Zm-15.38 2.4h-3.54v-5.72h3.53a2.89 2.89 0 0 1 2.92 2.86 2.9 2.9 0 0 1-2.91 2.86Zm-.07-8.04h-5.96V40h2.49v-6.32h3.47c2.76 0 5.47-2 5.47-5.17 0-3.18-2.71-5.18-5.47-5.18Zm-32.5 14.78c-1.72 0-3.16-1.44-3.16-3.42 0-2 1.44-3.45 3.15-3.45 1.7 0 3.03 1.46 3.03 3.45 0 1.98-1.33 3.42-3.03 3.42Zm2.85-7.84h-.1a3.93 3.93 0 0 0-2.98-1.27 5.64 5.64 0 0 0-5.44 5.7c0 3.17 2.6 5.64 5.44 5.64 1.35 0 2.43-.6 2.98-1.28h.09v.81c0 2.17-1.16 3.33-3.03 3.33a3.14 3.14 0 0 1-2.86-2.02l-2.17.9a5.4 5.4 0 0 0 5.03 3.35c2.92 0 5.4-1.71 5.4-5.9V29.35h-2.37v.92Zm4.08 9.73h2.5V23.33h-2.5V40Zm6.17-5.5a3.11 3.11 0 0 1 2.96-3.3c.99 0 1.83.49 2.1 1.2l-5.06 2.1Zm7.73-1.89c-.47-1.27-1.91-3.6-4.85-3.6-2.93 0-5.35 2.29-5.35 5.66 0 3.18 2.4 5.67 5.62 5.67 2.6 0 4.1-1.59 4.73-2.5l-1.93-1.3a3.24 3.24 0 0 1-2.8 1.57 2.89 2.89 0 0 1-2.75-1.72l7.59-3.13-.26-.65Zm-60.41-1.87v2.4h5.76a5.02 5.02 0 0 1-1.32 3.04 5.9 5.9 0 0 1-4.44 1.76 6.32 6.32 0 0 1-6.32-6.4A6.32 6.32 0 0 1 68 26.85l1.7-1.7a8.4 8.4 0 0 0-6.04-2.42 8.93 8.93 0 0 0-8.94 8.8 8.93 8.93 0 0 0 8.94 8.81c2.62 0 4.6-.86 6.14-2.47 1.6-1.59 2.09-3.82 2.09-5.62a7.8 7.8 0 0 0-.13-1.5h-8.1Zm14.77 7.37c-1.72 0-3.2-1.42-3.2-3.44 0-2.04 1.48-3.43 3.2-3.43 1.72 0 3.2 1.4 3.2 3.43 0 2.02-1.48 3.44-3.2 3.44Zm0-9.1a5.59 5.59 0 0 0-5.7 5.66 5.6 5.6 0 0 0 5.7 5.67 5.6 5.6 0 0 0 5.7-5.67 5.59 5.59 0 0 0-5.7-5.67Zm12.42 9.1c-1.72 0-3.2-1.42-3.2-3.44 0-2.04 1.48-3.43 3.2-3.43 1.72 0 3.2 1.4 3.2 3.43 0 2.02-1.48 3.44-3.2 3.44Zm0-9.1a5.59 5.59 0 0 0-5.7 5.66 5.6 5.6 0 0 0 5.7 5.67 5.6 5.6 0 0 0 5.69-5.67 5.59 5.59 0 0 0-5.7-5.67Zm43.6-18.58V9.29h2.51c1.23 0 2.11.27 2.64.8.53.52.8 1.38.8 2.6v3.66h.88v1.13h-7.15v-1.13h5.04v-3.68c0-.82-.17-1.4-.5-1.73-.33-.34-.9-.51-1.72-.51h-2.5Z" fill="#fff"/>
  <path d="M134.46 10.43h.13v-1h2.38c1.22 0 2.06.26 2.55.75.49.48.75 1.31.75 2.5v3.8h.89v.87h-6.88v-.87h5.03v-3.81c0-.83-.17-1.45-.54-1.83-.37-.38-.98-.54-1.8-.54h-2.51v.26h2.5c.8 0 1.33.17 1.62.47.3.3.46.84.46 1.64v3.54h-5.03v1.4h7.42v-1.4h-.9v-3.53c0-1.22-.26-2.13-.83-2.7-.56-.56-1.48-.82-2.73-.82h-2.65v1.4h.14v-.13Zm12.86 0h-1.27V9.29h4.42c1.23 0 2.11.27 2.65.79.53.52.8 1.39.8 2.6v4.8h-1.23v-4.81c0-.82-.17-1.4-.5-1.73-.33-.34-.9-.51-1.73-.51h-1.92v3.88c0 .82-.07 1.45-.22 1.9a1.7 1.7 0 0 1-.72.97c-.32.2-.84.3-1.55.3h-.07v-1.13h.1c.32 0 .56-.06.74-.17a1 1 0 0 0 .38-.53c.08-.24.12-.6.12-1.1v-4.12Z" fill="#fff"/>
  <path d="M147.32 10.43v-.13h-1.14v-.87h4.3c1.2 0 2.05.26 2.54.74.5.49.76 1.32.76 2.51v4.67h-.96v-4.68c0-.83-.16-1.45-.53-1.83-.38-.38-.99-.54-1.83-.54h-2.05v4.01c0 .81-.07 1.43-.22 1.86-.14.43-.36.72-.65.9-.3.18-.8.28-1.5.28h-.06v.13h.13v-1.13h-.13v.13h.1c.34 0 .6-.06.82-.19.2-.13.35-.34.43-.6.08-.27.12-.64.12-1.13V10.3h-.13v.13h-.14v4.13c0 .48-.03.83-.1 1.05a.8.8 0 0 1-.33.45c-.15.1-.37.15-.66.15h-.25v1.4h.2c.73 0 1.27-.1 1.63-.31.36-.22.62-.57.78-1.04a6.7 6.7 0 0 0 .23-1.95v-3.75h1.78c.8 0 1.35.17 1.64.47.3.3.46.84.46 1.64v4.95h1.49v-4.94c0-1.23-.27-2.14-.84-2.7s-1.5-.82-2.74-.82h-4.55v1.4h1.4v-.13Zm7.38 5.97a9.8 9.8 0 0 0 2.9-.34l-2.48-6.77h1.35l2.19 6.25a3.68 3.68 0 0 0 1.34-2.07c.27-.93.4-2.32.4-4.18h1.3c0 2.06-.22 3.67-.66 4.83a4.82 4.82 0 0 1-2.14 2.6c-1 .56-2.4.89-4.2.98v-1.3Z" fill="#fff"/>
  <path d="M154.7 16.4v.13c1.23 0 2.2-.11 2.93-.34l.13-.05-2.45-6.71h1.07l2.21 6.32.15-.1a3.82 3.82 0 0 0 1.39-2.14c.28-.95.41-2.35.41-4.22h-.13v.14h1.29v-.14h-.14c0 2.05-.22 3.65-.65 4.79a4.7 4.7 0 0 1-2.08 2.52 9.4 9.4 0 0 1-4.14.97v.13h.14v-1.3h-.27v1.44h.14a9.7 9.7 0 0 0 4.26-1.01 4.96 4.96 0 0 0 2.2-2.66c.45-1.18.67-2.8.67-4.88v-.13h-1.55v.13c0 1.85-.14 3.24-.4 4.15-.27.9-.7 1.57-1.3 2l.08.1.13-.04-2.22-6.34h-1.64l2.54 6.95.12-.05-.04-.13a9.6 9.6 0 0 1-2.85.34h-.14v.13h.14Zm13.53-2.9c0 2.66-1.26 3.98-3.77 3.98h-2.13v-1.13h2.16c.85 0 1.48-.24 1.88-.71.4-.47.6-1.18.6-2.12v-.26c0-.95-.2-1.66-.6-2.13-.4-.47-1.03-.7-1.88-.7h-2.16V9.29h2.13c2.51 0 3.77 1.33 3.77 3.98v.23Z" fill="#fff"/>
  <path d="M168.23 13.5h-.14c0 1.31-.3 2.27-.9 2.9-.6.62-1.5.95-2.73.95h-2v-.87h2.03c.87 0 1.55-.24 1.98-.75.44-.51.64-1.25.64-2.21v-.26c0-.97-.2-1.71-.64-2.22-.44-.5-1.11-.75-1.98-.74h-2.02v-.87h2c1.23 0 2.12.32 2.72.95.6.63.9 1.58.9 2.9v.22h.27v-.23c0-1.34-.32-2.38-.98-3.07-.66-.7-1.64-1.04-2.92-1.04h-2.26v1.4h2.29c.82 0 1.4.23 1.78.66.38.43.57 1.1.57 2.04v.26c0 .92-.2 1.6-.57 2.03-.37.44-.95.66-1.78.66h-2.29v1.4h2.26c1.28 0 2.26-.33 2.92-1.03.66-.7.98-1.73.98-3.08h-.13Zm-40.65-.54v-.85h3.57v.85h-3.57Z" fill="#fff"/>
  <path d="M127.58 12.96h.13v-.71h3.31v.58h-3.44v.26h3.7v-1.11h-3.84v1.11h.14v-.13Z" fill="#fff"/>
</svg>
