<svg width="180" height="54" fill="none" xmlns="http://www.w3.org/2000/svg">
  <path d="M173.3 54H6.7A6.7 6.7 0 0 1 0 47.2V6.8C0 3 3 0 6.7 0h166.6a6.7 6.7 0 0 1 6.7 6.8v40.5c0 3.7-3 6.7-6.7 6.7Z" fill="#000"/>
  <path d="M27.6 26.2 13.4 41.5a3.8 3.8 0 0 0 5.7 2.3l16-9.3-7.5-8.3Z" fill="#EA4335"/>
  <path d="m42 23.6-7-4-7.7 7 7.8 7.9 6.9-4a3.9 3.9 0 0 0 2-3.5 4 4 0 0 0-2-3.4Z" fill="#FBBC04"/>
  <path d="M13.4 12.5a3.7 3.7 0 0 0-.1 1v27l.1 1 14.7-14.9-14.7-14Z" fill="#4285F4"/>
  <path d="m27.7 27 7.4-7.4-16-9.4a3.9 3.9 0 0 0-5.7 2.3L27.7 27Z" fill="#34A853"/>
  <path d="M142.6 40h2.5V23.3h-2.5V40ZM165 29.3l-2.9 7.3-3-7.3h-2.7l4.5 10.1-2.6 5.7h2.6l6.9-15.8H165Zm-14.1 8.8c-.8 0-2-.4-2-1.4 0-1.3 1.4-1.8 2.7-1.8 1 0 1.6.2 2.2.6a3 3 0 0 1-3 2.6Zm.3-9.1c-1.8 0-3.7.8-4.4 2.5l2.2 1c.4-1 1.3-1.3 2.2-1.3 1.3 0 2.6.8 2.7 2.2v.1a5.5 5.5 0 0 0-2.6-.6c-2.4 0-4.8 1.3-4.8 3.8 0 2.2 1.9 3.6 4 3.6a3.5 3.5 0 0 0 3.3-1.6V40h2.5v-6.4c0-3-2.2-4.6-5.1-4.6Zm-15.4 2.4h-3.5v-5.8h3.5a2.9 2.9 0 0 1 3 3 2.9 2.9 0 0 1-3 2.8Zm0-8h-6V40h2.5v-6.3h3.5c2.7 0 5.4-2 5.4-5.2s-2.7-5.2-5.4-5.2ZM103.3 38c-1.8 0-3.2-1.4-3.2-3.4s1.4-3.5 3.1-3.5c1.7 0 3 1.5 3 3.5s-1.3 3.4-3 3.4Zm2.8-7.8h-.1a4 4 0 0 0-3-1.3 5.6 5.6 0 0 0-5.4 5.7c0 3.2 2.6 5.6 5.4 5.6a4 4 0 0 0 3-1.2v.8c0 2.1-1 3.3-3 3.3a3.1 3.1 0 0 1-2.8-2L98 42a5.4 5.4 0 0 0 5 3.3c3 0 5.5-1.7 5.5-5.9v-10H106v.9Zm4 9.7h2.6V23.3h-2.5V40Zm6.3-5.5a3.1 3.1 0 0 1 3-3.3c.9 0 1.7.5 2 1.2l-5 2.1Zm7.7-1.9c-.5-1.3-2-3.6-4.9-3.6-2.9 0-5.3 2.3-5.3 5.7 0 3.1 2.4 5.6 5.6 5.6 2.6 0 4.1-1.5 4.7-2.5l-1.9-1.3a3.2 3.2 0 0 1-2.8 1.6 2.9 2.9 0 0 1-2.7-1.7l7.5-3.1-.2-.7Zm-60.4-1.9V33h5.7a5 5 0 0 1-1.3 3 5.9 5.9 0 0 1-4.4 1.8 6.3 6.3 0 0 1-6.3-6.4A6.3 6.3 0 0 1 68 27l1.7-1.7a8.4 8.4 0 0 0-6-2.5 9 9 0 0 0-9 8.8 9 9 0 0 0 9 8.8 8 8 0 0 0 6.1-2.4c1.6-1.6 2-3.8 2-5.6a7.8 7.8 0 0 0 0-1.5h-8.1ZM78.4 38c-1.7 0-3.2-1.4-3.2-3.4s1.5-3.5 3.2-3.5c1.8 0 3.2 1.4 3.2 3.5 0 2-1.4 3.4-3.2 3.4Zm0-9a5.6 5.6 0 0 0-5.7 5.6 5.6 5.6 0 0 0 5.7 5.6 5.6 5.6 0 0 0 5.7-5.6 5.6 5.6 0 0 0-5.7-5.7ZM91 38c-1.8 0-3.2-1.4-3.2-3.4s1.4-3.5 3.2-3.5c1.7 0 3.2 1.4 3.2 3.5 0 2-1.5 3.4-3.2 3.4Zm0-9a5.6 5.6 0 0 0-5.7 5.6 5.6 5.6 0 0 0 5.7 5.6 5.6 5.6 0 0 0 5.7-5.6 5.6 5.6 0 0 0-5.7-5.7Zm43.6-18.7v-1h2.5c1.2 0 2 .3 2.6.8.5.5.8 1.4.8 2.6v3.7h.9v1H134v-1h5v-3.7c0-.8 0-1.4-.4-1.8-.3-.3-1-.5-1.7-.5h-2.5Z" fill="#fff"/>
  <path d="M134.5 10.4v-1h2.5c1.2 0 2 .3 2.5.8s.8 1.3.8 2.5v3.8h.9v.9h-7v-1h5.1v-3.7a3 3 0 0 0-.5-1.9 3 3 0 0 0-1.8-.5h-2.5v.3h2.5c.8 0 1.3.1 1.6.4.3.3.4.9.4 1.7v3.5h-5v1.4h7.4v-1.4h-.9v-3.5c0-1.2-.2-2.1-.8-2.7-.6-.6-1.5-.8-2.7-.8h-2.7v1.4h.2v-.2Zm12.8 0H146V9.3h4.5c1.2 0 2 .3 2.6.8.5.5.8 1.4.8 2.6v4.8h-1.2v-4.8c0-.9-.2-1.4-.5-1.8-.3-.3-1-.5-1.7-.5h-2v4c0 .7 0 1.4-.2 1.8a1.7 1.7 0 0 1-.7 1 3 3 0 0 1-1.5.3h-.1v-1.2l.8-.1a1 1 0 0 0 .4-.6l.1-1v-4.2Z" fill="#fff"/>
  <path d="M147.3 10.4v-.1h-1.1v-.9h4.3c1.2 0 2 .3 2.5.8s.8 1.3.8 2.5v4.7h-1v-4.7c0-.9-.1-1.5-.5-1.9a3 3 0 0 0-1.8-.5h-2v4a6 6 0 0 1-.3 1.9c-.2.4-.4.7-.7.9a3 3 0 0 1-1.5.2v.2h.1v-1.1h-.1l.9-.1c.2-.1.3-.4.4-.6l.1-1.1v-4.3.1h-.2v4.2l-.1 1a.8.8 0 0 1-.4.5l-.6.1h-.3v1.4h.2c.8 0 1.3 0 1.7-.3.3-.2.6-.6.7-1a6.7 6.7 0 0 0 .3-2v-3.7h1.8c.8 0 1.3.1 1.6.4.3.3.5.9.5 1.7v5h1.4v-5c0-1.2-.2-2.2-.8-2.7s-1.5-.8-2.7-.8h-4.6v1.4h1.4v-.2Zm7.4 6a9.8 9.8 0 0 0 2.9-.3l-2.5-6.8h1.4l2.2 6.2a3.7 3.7 0 0 0 1.3-2c.3-1 .4-2.4.4-4.2h1.3c0 2-.2 3.7-.7 4.8a4.8 4.8 0 0 1-2.1 2.6c-1 .6-2.4 1-4.2 1v-1.3Z" fill="#fff"/>
  <path d="M154.7 16.4v.1a10 10 0 0 0 3-.3l-2.4-6.8h1l2.3 6.3h.1a3.8 3.8 0 0 0 1.4-2.2c.3-1 .4-2.3.4-4.2v.1h1.2v-.1h-.1c0 2-.3 3.6-.7 4.8a4.7 4.7 0 0 1-2 2.5 9.4 9.4 0 0 1-4.2 1v.1h.1v-1.3h-.2v1.4h.1a9.7 9.7 0 0 0 4.3-1 5 5 0 0 0 2.2-2.6c.4-1.2.6-2.8.6-5h-1.5c0 2-.2 3.3-.4 4.2-.3 1-.7 1.6-1.3 2v.1h.2l-2.2-6.3h-1.7l2.6 7v-.4a9.6 9.6 0 0 1-2.8.4h-.1v.1h.1Zm13.5-2.9c0 2.7-1.2 4-3.7 4h-2.2v-1.2h2.2c.8 0 1.5-.2 1.9-.7.4-.4.6-1.1.6-2v-.3c0-1-.2-1.7-.6-2.2-.4-.4-1-.7-2-.7h-2V9.3h2c2.6 0 3.8 1.3 3.8 4v.2Z" fill="#fff"/>
  <path d="M168.2 13.5h-.1c0 1.3-.3 2.3-1 2.9-.5.6-1.4 1-2.6 1h-2v-1h2c.9 0 1.5-.2 2-.7.4-.5.6-1.2.6-2.2v-.2c0-1-.2-1.8-.6-2.3-.5-.5-1.1-.7-2-.7h-2v-.9h2c1.2 0 2 .3 2.7 1 .6.6.9 1.6.9 2.9v.2h.3v-.2c0-1.4-.4-2.4-1-3.1-.7-.7-1.7-1-3-1h-2.2v1.4h2.3c.8 0 1.4.2 1.8.6.4.4.5 1.1.5 2v.3c0 1-.2 1.6-.5 2-.4.5-1 .7-1.8.7h-2.3v1.4h2.3c1.2 0 2.2-.3 2.9-1 .6-.7 1-1.8 1-3.1h-.2Zm-40.6-.5v-1h3.5v.9h-3.5Z" fill="#fff"/>
  <path d="M127.6 13h.1v-.7h3.3v.5h-3.4v.3h3.7V12h-3.9v1h.2Z" fill="#fff"/>
</svg>
