<svg id="artwork" xmlns="http://www.w3.org/2000/svg" version="1.1" viewBox="0 0 239 70.9">
  <defs>
    <style>
      .st4{fill:#fff}
    </style>
  </defs>
  <rect x="-.1" width="239.2" height="70.9" rx="8.9" ry="8.9"/>
  <path class="st4" d="M120.6 19c-4.2 0-7.5 3.2-7.5 7.6s3.4 7.5 7.5 7.5 7.6-3.2 7.6-7.5-3.4-7.6-7.6-7.6Zm0 12.1c-2.3 0-4.2-1.8-4.2-4.5s2-4.6 4.2-4.6 4.3 1.9 4.3 4.6-2 4.5-4.3 4.5Zm-16.5-12c-4.2 0-7.5 3.1-7.5 7.5S100 34 104 34s7.6-3.2 7.6-7.5-3.4-7.6-7.6-7.6Zm0 12c-2.3 0-4.2-1.8-4.2-4.5s2-4.6 4.2-4.6 4.3 1.9 4.3 4.6-2 4.5-4.3 4.5Zm-19.6-9.7v3.2H92a6.7 6.7 0 0 1-1.7 4 7.8 7.8 0 0 1-6 2.3 8.4 8.4 0 0 1-8.3-8.5 8.4 8.4 0 0 1 14.1-6.2l2.3-2.3c-2-1.8-4.4-3.2-8-3.2-6.5 0-11.9 5.3-11.9 11.7s5.5 11.7 12 11.7c3.5 0 6-1.1 8.1-3.3 2.2-2 2.8-5 2.8-7.5 0-.7 0-1.4-.2-2H84.5Zm80.3 2.4c-.7-1.6-2.6-4.8-6.5-4.8s-7.1 3-7.1 7.6c0 4.2 3.2 7.5 7.5 7.5 3.4 0 5.4-2.1 6.2-3.3l-2.5-1.7c-.9 1.2-2 2-3.7 2s-3-.7-3.7-2.2l10.1-4.2-.3-.9Zm-10.3 2.6a4 4 0 0 1 4-4.4c1.2 0 2.3.6 2.7 1.6l-6.7 2.8Zm-8.2 7.3h3.3V11.5h-3.3v22.2Zm-5.4-13h-.1a5.2 5.2 0 0 0-4-1.6c-3.8 0-7.2 3.3-7.2 7.5s3.4 7.5 7.2 7.5c1.8 0 3.2-.8 4-1.7v1c0 3-1.5 4.5-4 4.5-2 0-3.2-1.5-3.8-2.7l-2.8 1.2c.8 2 3 4.5 6.6 4.5 4 0 7.2-2.3 7.2-7.9V19.5h-3.1v1.2ZM137 31.1c-2.3 0-4.2-1.9-4.2-4.5s1.9-4.6 4.2-4.6 4 2 4 4.6-1.8 4.5-4 4.5Zm43.2-19.6h-8v22.2h3.3v-8.4h4.7c3.6 0 7.2-2.7 7.2-7s-3.6-6.8-7.2-6.8Zm0 10.7h-4.7v-7.6h4.7c2.5 0 4 2 4 3.8s-1.5 3.8-4 3.8Zm20.5-3.2c-2.4 0-4.9 1-6 3.4l3 1.2c.6-1.2 1.8-1.6 3-1.6 1.7 0 3.5 1 3.5 2.9v.2c-.6-.3-1.9-.9-3.4-.9-3.2 0-6.4 1.8-6.4 5 0 3 2.6 4.9 5.5 4.9 2.2 0 3.4-1 4.2-2.2h.1v1.7h3.2v-8.5c0-3.9-3-6-6.7-6Zm-.4 12.1c-1.1 0-2.6-.5-2.6-1.8 0-1.7 1.9-2.4 3.5-2.4 1.4 0 2.1.3 3 .7a4 4 0 0 1-4 3.5ZM219 19.5l-3.8 9.6-4-9.6h-3.6l6 13.4-3.4 7.5h3.4l9.1-21H219Zm-29.8 14.2h3.4V11.5h-3.3v22.2Z"/>
  <path d="m36.6 34.4-18.9 20a5 5 0 0 0 7.5 3.1h.1l21.2-12.3-10-10.8Z" style="fill:#ea4335"/>
  <path d="m55.7 31-9.2-5.3-10.3 9.2 10.3 10.3 9.1-5.2a5 5 0 0 0 0-9Z" style="fill:#fbbc04"/>
  <path d="m17.7 16.4-.1 1.4V53l.1 1.3L37.2 35 17.7 16.4Z" style="fill:#4285f4"/>
  <path d="m36.7 35.4 9.8-9.7-21.2-12.3a5.1 5.1 0 0 0-7.6 3s19 19 19 19Z" style="fill:#34a853"/>
  <path class="st4" d="M74 49h.8l.5-.1 1-.1 1.6-.2 2-.2 2.2-.2 1.6-.1L85 48h1v.4h-1a13.2 13.2 0 0 0-2 .3 5.9 5.9 0 0 0-2.9 2.4l-.7 1.6c-.2.6-.2 1-.2 1.4 0 .7.1 1.3.3 1.9.3.5.6.9 1 1.2.4.4.8.7 1.3.9l1.5.4 1.6.2-.2.4a8 8 0 0 1-3.2-.7c-.5-.2-1-.5-1.4-.9a4.1 4.1 0 0 1-1.3-3.2c0-.9.1-1.7.5-2.4s.7-1.4 1.3-2 1-1 1.6-1.3l-1.4.2-1.8.1-1.9.2a71 71 0 0 0-3 .4V49Zm9.8 1.7.4.6.5.8.4.8-.4.2a11.8 11.8 0 0 0-1.3-2.2l.4-.2Zm1.7-.6a129.7 129.7 0 0 1 1.4 2.2l-.5.2a17.9 17.9 0 0 0-1.3-2.2l.4-.2Zm3 3.9h13.7v.4H88.5v-.5Zm1-3.7h11.8v.5H89.5v-.5ZM100 46l.4.3-2.2.6-2.7.4-3 .3-2.9.2v-.2l-.1-.2 2.9-.2c1 0 2-.2 2.9-.3a38.3 38.3 0 0 0 4.7-1Zm-5 1h.4v11.8l-.1.6a1 1 0 0 1-.5.2h-3l-.1-.2-.1-.2H95V47Zm11.4.3-.1.2v.3l-.1.2-.2 1.2a23.2 23.2 0 0 0-.6 3.8 16.8 16.8 0 0 0 0 2.8l.2 1.7.4-1 .3-1 .4-1 .3.3c0 .3-.2.7-.4 1l-.4 1.3a9.6 9.6 0 0 0-.3 1.2v.3a13.9 13.9 0 0 1 0 .4h-.4a16.1 16.1 0 0 1-.5-4.8v-1.7l.3-1.7.2-1.6.2-1.2.1-.4v-.3h.6Zm3.4 7.4a8.5 8.5 0 0 0-.2 1.5v.5l.5.6c.2.2.5.3 1 .4l1.5.1a18 18 0 0 0 3.8-.4v.6l-1.7.2-2 .1c-1.3 0-2.2-.2-2.7-.6-.6-.3-.9-.8-.9-1.5l.1-.7.2-1 .4.1Zm0-6 1.4.1a22.5 22.5 0 0 0 4.7-.1v.5a24.2 24.2 0 0 1-4.7 0H110v-.5Zm15.2.9h.4a18.5 18.5 0 0 1-3.6 7.7c-.8 1-2 1.8-3.1 2.5l-.1-.2h-.2l-.1-.2c1.8-1 3.2-2.3 4.3-4 1-1.5 1.8-3.5 2.3-5.8Zm-4-2.7h4.4v.5H121v-.5Zm4.1 0h.5v1.6l.3 2a13 13 0 0 0 6.4 8.9h-.1l-.1.2-.2.1a14.4 14.4 0 0 1-4.6-4.5 13.8 13.8 0 0 1-2.1-6.7V47Zm12.2 2.9h-.5l-1 .2-1 .1-1 .1v-.5h1.2l.9-.2a21.4 21.4 0 0 0 1.7-.3l.2.3-.3.4-.3.6-.2.5v1.3l-.8 1-.8 1.3a105.2 105.2 0 0 1-1.8 2.5l-.4-.4.7-.9.9-1.2.9-1.2.7-1.2.5-.7v-1.2l.2-.5Zm-.2-2.2v-.9h.7l-.2 1a51 51 0 0 0-.4 7.3v4h-.5v-5l.1-1.4.1-1.6.1-1.5.1-1.2v-.7Zm10.2 9.6-1.4 1c-.5.3-1 .4-1.4.4-.4 0-.7-.2-1-.4s-.5-.7-.5-1.2l.1-1.4a58 58 0 0 1 .6-4.7c0-.5-.2-.9-.4-1.1-.3-.2-.6-.3-1-.3s-.8 0-1.3.2l-1.4.8A12.6 12.6 0 0 0 137 53v-.7a10.5 10.5 0 0 1 1.8-1.6l1.2-.8a7 7 0 0 1 1.2-.6c.4-.2.8-.2 1.2-.2.4 0 .7 0 1 .2l.6.6c.2.3.2.6.2 1v1.4c0 .6-.2 1-.3 1.6l-.2 1.7-.1 1.4c0 .3 0 .6.2.8s.5.4.8.4c.5 0 1-.2 1.4-.4a6 6 0 0 0 1.3-1l.1.4Zm8.2-10.3v9l.1 1.3-.1.8-.5.6-.7.4-1 .2c-.7 0-1.3-.1-1.8-.3-.5-.1-1-.3-1.2-.6s-.4-.7-.4-1.2c0-.4.1-.7.3-1 .3-.4.7-.7 1.2-.9.5-.2 1.2-.3 2-.3l2.1.3a11.1 11.1 0 0 1 5 2.6l-.3.5a9.3 9.3 0 0 0-3-2 9.9 9.9 0 0 0-3.8-1c-1 0-1.7.3-2.3.6s-.8.7-.8 1.2.3.9.8 1.2 1.2.4 2 .4c.7 0 1.2-.1 1.6-.4s.5-.7.5-1.3v-1.2l-.1-1.5v-6.2l-.1-.4v-.9h.5Zm-.4 3.2h2.4a33.9 33.9 0 0 0 2.8-.3v.5a88.2 88.2 0 0 1-5.2.3V50Zm17.7 3.4c0-.5-.2-1-.4-1.4s-.7-.7-1.1-.9c-.5-.2-1-.3-1.6-.3a10.4 10.4 0 0 0-3.2.5l-1.2.3a7 7 0 0 0-.6.2l-.5.2-.2-.7h.6l.6-.2a31.9 31.9 0 0 0 2.8-.6 10 10 0 0 1 1.7-.2c.7 0 1.3.2 1.8.4s1 .6 1.3 1c.3.5.4 1 .4 1.7a4.7 4.7 0 0 1-2 3.9 11 11 0 0 1-4.6 1.8l-.3-.4c.9-.1 1.7-.3 2.5-.6l2.1-1c.6-.5 1-1 1.4-1.7s.5-1.2.5-2Zm-7-6.5a24.1 24.1 0 0 0 5 .7h1.3l-.1.5-1.4-.1-1.7-.2-1.7-.2-1.4-.2V47Z"/>
</svg>
