<svg width="180" height="54" fill="none" xmlns="http://www.w3.org/2000/svg">
  <path d="M173.3 54H6.7A6.7 6.7 0 0 1 0 47.2V6.8C0 3 3 0 6.7 0h166.6a6.7 6.7 0 0 1 6.7 6.8v40.5c0 3.7-3 6.7-6.7 6.7Z" fill="#000"/>
  <path d="M27.6 26.2 13.4 41.5a3.8 3.8 0 0 0 5.7 2.3l16-9.3-7.5-8.3Z" fill="#EA4335"/>
  <path d="m42 23.6-7-4-7.7 7 7.8 7.9 6.9-4a3.9 3.9 0 0 0 2-3.5 4 4 0 0 0-2-3.4Z" fill="#FBBC04"/>
  <path d="M13.4 12.5a3.7 3.7 0 0 0-.1 1v27l.1 1 14.7-14.9-14.7-14Z" fill="#4285F4"/>
  <path d="m27.7 27 7.4-7.4-16-9.4a3.9 3.9 0 0 0-5.7 2.3L27.7 27Z" fill="#34A853"/>
  <path d="M131.5 26.7h2.2V12h-2.2v14.6Zm19.6-9.3-2.5 6.3-2.6-6.3h-2.4l3.9 8.8-2.2 4.9h2.2l6-13.8h-2.4ZM138.8 25c-.7 0-1.7-.3-1.7-1.2 0-1.2 1.2-1.6 2.3-1.6 1 0 1.4.2 2 .5a2.6 2.6 0 0 1-2.6 2.3Zm.2-8c-1.5 0-3.2.7-3.8 2.2l1.9.9c.4-.9 1.2-1.1 2-1.1 1.1 0 2.2.7 2.3 1.9v.1a4.8 4.8 0 0 0-2.3-.6c-2 0-4.2 1.2-4.2 3.3 0 2 1.7 3.2 3.6 3.2a3 3 0 0 0 2.8-1.4v1.1h2.2V21c0-2.5-2-4-4.5-4Zm-13.4 2.1h-3.1v-5h3.1a2.5 2.5 0 0 1 2.6 2.5c0 1.1-1 2.5-2.6 2.5Zm0-7h-5.3v14.6h2.2V21h3c2.5 0 4.8-1.7 4.8-4.5S128 12 125.5 12ZM97 25c-1.5 0-2.7-1.3-2.7-3s1.2-3 2.7-3c1.5 0 2.7 1.3 2.7 3s-1.2 3-2.7 3Zm2.5-6.8a3.4 3.4 0 0 0-2.7-1.2 5 5 0 0 0-4.7 5 4.9 4.9 0 0 0 4.7 5c1.2 0 2.2-.6 2.6-1.2h.1v.7c0 2-1 3-2.6 3a2.7 2.7 0 0 1-2.5-1.8l-2 .8c.6 1.3 2 3 4.5 3s4.7-1.6 4.7-5.3v-8.9h-2v.8Zm3.6 8.4h2.2V12.1h-2.2v14.6Zm5.4-4.8a2.7 2.7 0 0 1 2.6-2.9c.8 0 1.6.5 1.8 1.1l-4.4 1.8Zm6.7-1.6c-.4-1.1-1.6-3.2-4.2-3.2s-4.7 2-4.7 5c0 2.8 2.1 5 5 5a5 5 0 0 0 4-2.2l-1.6-1.2a2.8 2.8 0 0 1-2.5 1.4c-1 0-1.9-.5-2.4-1.5l6.7-2.7-.3-.6Zm-52.8-1.6v2h5a4.4 4.4 0 0 1-1 2.7 5.2 5.2 0 0 1-4 1.5 5.5 5.5 0 0 1-5.5-5.6 5.5 5.5 0 0 1 9.3-4l1.5-1.5a7.3 7.3 0 0 0-5.3-2.1 7.8 7.8 0 0 0-7.8 7.7 7.8 7.8 0 0 0 7.8 7.7 7 7 0 0 0 5.4-2.2 7 7 0 0 0 1.8-5v-1.2h-7.2Zm13 6.4c-1.6 0-2.9-1.2-2.9-3s1.3-3 2.8-3c1.5 0 2.8 1.2 2.8 3s-1.3 3-2.8 3Zm0-8a4.9 4.9 0 0 0-5 5 4.9 4.9 0 0 0 5 5 4.9 4.9 0 0 0 5-5 4.9 4.9 0 0 0-5-5Zm10.8 8c-1.5 0-2.8-1.2-2.8-3s1.3-3 2.8-3c1.5 0 2.8 1.2 2.8 3s-1.3 3-2.8 3Zm0-8a4.9 4.9 0 0 0-5 5 4.9 4.9 0 0 0 5 5 4.9 4.9 0 0 0 5-5 4.9 4.9 0 0 0-5-5ZM64.8 39l-.6.2-1-1.7.6-.2 1 1.6Zm-1.4.4-.6.3a11.2 11.2 0 0 0-1-1.7l.7-.2 1 1.6ZM55.7 36l5.2-.4 3.2-.2v1l-2.3.1a4.2 4.2 0 0 0-2.7 3.8c0 2.3 2.2 3 4.1 3l-.3 1c-2.2 0-4.7-1.2-4.7-3.8a4.8 4.8 0 0 1 2.1-4c-1 0-4.2.4-5.5.7l-.1-1.1h1Z" fill="#fff"/>
  <path d="M64.8 39v-.2l-.7.3.1.1h.1a11.7 11.7 0 0 0-1-1.8l-.1.1v.2l.6-.3v-.1h-.1l1 1.7h.1l.1-.1-1-1.7V37l-1 .4.2.1 1 1.7.8-.3h.1v-.1h-.2Zm-1.4.4-.6.2v.1h.2l-1-1.8-.1.1v.2l.6-.3v-.1h-.1l1 1.7.2-.1-1-1.7v-.1l-1 .4.1.1 1 1.7v.1l.8-.3.1-.1v-.1h-.2ZM55.7 36v.2l5.2-.5 3.3-.2v-.1H64v1h.2v-.2c-.7 0-1.8 0-2.4.2a4.3 4.3 0 0 0-2.8 3.9c0 1.2.6 2 1.4 2.5a6 6 0 0 0 2.8.7v-.1h-.1l-.4 1h.2v-.1a6 6 0 0 1-3.1-1 3.3 3.3 0 0 1-1.5-2.8c0-1.8 1-3.3 2.1-4l.6-.2h-.7l-5.5.7v.2h.1V36h-.2v.1h1V36h-1.2l.2 1.2v.1h.1c1.3-.3 4.5-.6 5.6-.7v-.1l-.1-.2a5 5 0 0 0-2.3 4.2 3.6 3.6 0 0 0 1.6 3 6.2 6.2 0 0 0 3.2 1h.1l.4-1v-.2h-.1a5.7 5.7 0 0 1-2.7-.7 2.5 2.5 0 0 1-1.3-2.3 4 4 0 0 1 2.7-3.7 9.7 9.7 0 0 1 2.2-.2h.2v-1.2H64l-3.2.2-5.2.5v.1Zm21 5h-4.9v2.7c0 .6-.2.9-.6 1-.5.2-1.2.2-2.5.2a4.5 4.5 0 0 0-.4-1l2.3.1c.2 0 .3 0 .3-.3V41h-5v-.9h5v-1.9h-4.1v-.8h4.1v-1.9a69.8 69.8 0 0 1-3.9.3 4 4 0 0 0-.2-.8 40 40 0 0 0 8-1l.8.7a22.6 22.6 0 0 1-3.8.7v2h4.3v.8h-4.3v2h5v.8Z" fill="#fff"/>
  <path d="M76.7 41v-.1h-5v2.8c0 .3 0 .5-.2.6l-.4.3-1.9.1h-.5v.2h.1a4.6 4.6 0 0 0-.4-1v.2a38.3 38.3 0 0 0 2.1 0V44v.1h.4l.1-.4v-2.8h-4.9v-.6h5V38h-4.2v-.6H71v-2.2l-3.9.3v.2h.1l-.2-.9h-.1v.2c2.8-.1 6.3-.4 8.1-1h-.1l.7.8v-.3c-1 .4-2.3.6-3.7.7h-.1v2.3H76v.5h-4.2v2.3h5v.7h.2v-1h-5v-1.7h4.3v-1.1H72v-1.8h-.2v.1a23.1 23.1 0 0 0 3.8-.7h.2l-.9-1c-1.8.6-5.3 1-8.1 1h-.2v.2l.3.8v.1h.1a65.7 65.7 0 0 0 4-.3v-.1h-.2v1.7h-4.1v1.1h4.1V40h-5v1.1h5v2.7h-.2a24 24 0 0 1-2.2 0H68l.1.2.4 1h.6c1 0 1.6 0 2-.2.3 0 .5-.2.6-.4l.2-.7V41h4.9-.1Zm6-5.1c1.2.2 3.6.2 4.8 0v1a33 33 0 0 1-4.8 0v-1Zm.4 4.9-.1 1c0 .6.3 1.1 2 1.1 1 0 2 0 2.9-.3v1c-.7.2-1.7.2-3 .2-2 0-2.8-.6-2.8-1.7l.1-1.4h1ZM80.4 35l-.2.8a27.4 27.4 0 0 0-.6 4.5l.1 1.7.6-1.7.6.4a26.6 26.6 0 0 0-1 3.1l.1.5h-.9c-.2-.8-.4-2.2-.4-3.8 0-1.7.4-3.8.5-4.8l.1-.8h1.1Z" fill="#fff"/>
  <path d="M82.7 35.9v.1a20.4 20.4 0 0 0 4.9 0h-.2v.9h.1v-.1a27.3 27.3 0 0 1-4.8 0V36h-.2v1h.1a25.2 25.2 0 0 0 5 0v-1.3a20.3 20.3 0 0 1-5 0v.2Zm.4 4.9H83l-.2 1c0 .4.1.7.5.9.3.2.8.3 1.7.3 1 0 2 0 3-.3l-.1-.1h-.1v1h.1v-.1l-3 .2a4 4 0 0 1-2-.4 1.3 1.3 0 0 1-.7-1.2c0-.4 0-.9.2-1.4h-.1v.1h.8v-.2h-1a7 7 0 0 0-.2 1.5c0 .6.3 1 .8 1.4.5.3 1.2.5 2.2.5 1.3 0 2.3-.1 3-.3h.1v-1.3c-1 .3-1.9.4-3 .4-.7 0-1.2-.2-1.5-.3a.7.7 0 0 1-.3-.7l.1-1v-.2.2ZM80.4 35h-.1l-.3.8a27.2 27.2 0 0 0-.4 6.2v.5l.2-.5.7-1.7h-.2l.5.5v-.1c-.4.8-.8 2-.9 2.6h.1-.1v.8l-.8.1v.1h.2a12 12 0 0 1-.5-3.8c0-1.7.4-3.8.6-4.7v-.9.1l1 .1V35l-1-.1h-.2v.1l-.1.8h.1-.1c-.1 1-.5 3-.5 4.8 0 1.6.2 3 .4 3.9h1.1v-.6H80h.1v-.5l.9-2.6-.6-.5-.1-.1v.1l-.7 1.7h.2v-1.6c0-1.3.3-3.4.5-4.5h-.1.1l.2-.8V35Zm15.2-.3c0 2.1.2 6.6 5 9.4l-.8.8a10.3 10.3 0 0 1-4.7-6.7c-1 3-2.4 5.3-4.8 6.7a5.8 5.8 0 0 0-.8-.7c2.6-1.4 4-3.8 4.8-7.2l.6.1-.2-1.5h-3v-1h3.9Z" fill="#fff"/>
  <path d="M95.6 34.7h-.2c0 2.1.3 6.7 5 9.5h.1V44l-.8.8h.1a10.2 10.2 0 0 1-4.6-6.6l-.1-.5-.2.5a11 11 0 0 1-4.7 6.6h.2a5.8 5.8 0 0 0-.9-.7v.2c2.7-1.4 4.2-3.9 5-7.2h-.2l.5.1h.2v-.1a19.5 19.5 0 0 1-.2-1.5v-.2h-3v-.6h3.8v-.2h-4v1.1h3.1v-.1h-.1l.1 1.5h.1V37l-.5-.1h-.1c-.7 3.4-2.2 5.8-4.8 7.2h-.2l.2.2.8.7h.1c2.4-1.4 4-3.6 4.9-6.8H95a10.5 10.5 0 0 0 4.7 6.8h.2l.7-.8h.2l-.2-.2c-4.6-2.8-5-7.2-5-9.3v-.2.2Zm16.6 8.3a3 3 0 0 1-2.2 1c-.7 0-1.3-.5-1.3-1.5 0-1.3.5-3.3.5-4.4 0-.7-.4-1-1-1-1 0-2.4 1.1-3.5 2.3v1.4a54.8 54.8 0 0 0 .1 3.6h-1v-4.2A67.9 67.9 0 0 1 102 43l-.6-.8 2.6-3.7.1-1-2.3.2-.1-1h.8l1.7-.2v-2h1.1l-.2 1.8.4.4-.5.8-.1.7c1-.8 2.5-2 3.6-2 1.2 0 1.7.6 1.7 1.6 0 1.2-.4 3.3-.4 4.5 0 .4.2.7.6.7.6 0 1.2-.4 1.8-1l.1 1Z" fill="#fff"/>
  <path d="M112.2 43a2.9 2.9 0 0 1-2.2.9c-.7 0-1.1-.4-1.1-1.4 0-1.3.4-3.2.4-4.4 0-.4-.1-.7-.3-.9l-.8-.2c-1 0-2.5 1.1-3.6 2.3v5.2h.2v-.1h-1v.1l.1-.7h-.1.1v-4l-.2.4-1.9 2.8h.2l-.6-.8v.1l2.7-3.6v-1.3h-.1l-2.3.3v.1h.1v-1h-.2v.1h.8v-.1.1a18 18 0 0 0 1.7-.2l.2-1.2v-1h-.2v.1h1.1-.1l-.3 1.7v.2h.2l.3.3v-.2l-.6.9v1.1l.2-.3c.9-.8 2.4-2 3.5-2s1.6.6 1.6 1.5c0 1.2-.5 3.2-.5 4.5 0 .2 0 .4.2.6a.7.7 0 0 0 .6.2c.6 0 1.3-.4 1.9-1l-.1-.1h-.2l.2 1h.3l-.2-1.3-.2.2c-.6.6-1.2 1-1.7 1-.4 0-.5-.3-.5-.6 0-1.2.5-3.3.5-4.5 0-.5-.2-1-.5-1.2a2 2 0 0 0-1.4-.5c-1.2 0-2.8 1.2-3.7 2l.1.1h.1v-.6l.6-.8-.4-.6h-.2v.1h.2c0-.8.2-1.5.3-1.7v-.2h-1.5v2l.2.1v-.1l-1.7.2h-1l.2 1.1v.2h.1l2.3-.4-.1-.1-.1 1.1h.1l-2.7 3.6.7 1.1.1-.1 2-2.9h-.3v.4h.1-.1v3.9h1.2v-.1a8.7 8.7 0 0 1 0-.7h-.2.2v-4.3h-.2l.1.1c1.1-1.2 2.6-2.3 3.4-2.3l.6.2c.2.2.2.4.2.7 0 1.1-.4 3-.4 4.4 0 .5.1 1 .4 1.2.3.3.6.5 1 .5a3.2 3.2 0 0 0 2.3-1V43Zm5.9-1.4a5.4 5.4 0 0 0-1.2-.1c-1.2 0-1.9.4-1.9 1 0 .7.7 1 1.8 1 .9 0 1.3-.3 1.3-1.1v-.8Zm.8-3.6.1 3a9.4 9.4 0 0 1 3.7 2l-.5.8a8.3 8.3 0 0 0-3.1-2v.9c0 1-.6 1.8-2.2 1.8s-2.8-.5-2.8-1.9c0-1 1-2 3-2l1 .1-.1-2.7v-2.2a8.9 8.9 0 0 0-.1-1.2h1.1V37c.9 0 2.4 0 3.4-.2v.9l-3.5.2Z" fill="#fff"/>
  <path d="M118.1 41.6v-.1a5.5 5.5 0 0 0-1.2-.1 3 3 0 0 0-1.4.3 1 1 0 0 0-.6.9c0 .3.2.7.5.8.4.2.8.3 1.4.3.5 0 .8 0 1-.3.3-.3.5-.6.5-1v-.8l-.2-.1v.1h-.1v.8c0 .4-.1.6-.3.8-.2.2-.5.2-.9.3-.5 0-1-.1-1.2-.3-.3-.2-.4-.4-.4-.6s0-.5.4-.7c.3-.2.7-.3 1.3-.3l1.2.1Zm.8-3.6h-.1l.1 3h.1a11 11 0 0 1 3.6 2h.1v-.1l-.7.9h.2a8.4 8.4 0 0 0-3-2l-.3-.1v1c0 .9-.5 1.6-2 1.6-.8 0-1.5 0-2-.3-.4-.3-.7-.7-.7-1.4 0-1 .8-1.8 2.9-1.8h1.1a63 63 0 0 1 0-2.8l-.1-2.2a9 9 0 0 0-.1-1.2h-.1v.1h1.1l-.1-.1a10 10 0 0 0-.1 1.5v1h.1c1 0 2.5 0 3.6-.2v-.1h-.2v.9h.2v-.1l-3.6.2h-.1v.2h.3v-.1h-.2v.1c1 0 2.5 0 3.6-.2h.1v-1.2h-.2c-1 .2-2.5.2-3.5.3v.1h.2v-.9a12.6 12.6 0 0 1 0-1.5v-.1h-1.4v.1l.1 1.2V38l.1 2.7h.2v-.1a7.2 7.2 0 0 0-1 0 4 4 0 0 0-2.4.5 1.8 1.8 0 0 0-.8 1.5c0 .7.4 1.3 1 1.6.5.3 1.2.4 2 .4s1.4-.2 1.8-.6c.4-.3.5-.8.5-1.3v-.8h-.1v.1a8.2 8.2 0 0 1 3 2l.8-1v-.1a9.6 9.6 0 0 0-3.8-2.1v.1a57.5 57.5 0 0 1 0-3h-.2Zm13-2.8v.9a56.8 56.8 0 0 1-5.1-.6l.1-.9c1.3.3 4 .6 5 .6Zm-2 3c-1.4 0-2.6.5-3.3.7l-1 .3-.3-1 1.1-.3c.9-.2 2.2-.5 3.6-.5 1.7 0 3 1 3 2.6 0 2.6-2.4 4-5.5 4.5l-.5-.9c2.9-.4 5-1.5 5-3.6 0-1-.9-1.7-2.1-1.7Z" fill="#fff"/>
  <path d="M132 35.2h-.2v.9-.1a56.6 56.6 0 0 1-5-.6v.1h.1l.2-.9h-.2v.1c1.3.3 3.9.6 5 .6V35a31.7 31.7 0 0 1-5-.5l-.3 1v.1h.1c1.4.3 3.8.6 5.1.6h.1l.2-1V35h-.1v.2Zm-2.1 3a12 12 0 0 0-3.3.5v.2-.1c-.4 0-.7.2-1 .3v.1h.2l-.3-1.1h-.2v.2l1.2-.2c.8-.2 2.1-.6 3.5-.6 1.6 0 2.8.9 2.8 2.5 0 1.3-.6 2.2-1.5 3a8.1 8.1 0 0 1-3.8 1.4v.1h.2l-.6-1-.1.1v.1a8.3 8.3 0 0 0 3.6-1.1A3 3 0 0 0 132 40c0-.6-.2-1-.6-1.4a2.4 2.4 0 0 0-1.5-.5v.3c1.2 0 1.9.7 1.9 1.6 0 1-.5 1.8-1.3 2.3-.9.6-2.1 1-3.5 1.2h-.2l.6 1v.2h.2a8.4 8.4 0 0 0 3.9-1.5A3.9 3.9 0 0 0 133 40a2.6 2.6 0 0 0-1-2 3.4 3.4 0 0 0-2.1-.8c-1.4 0-2.8.4-3.6.6v.2-.2l-1 .2h-.2l.3 1.3v.1h.2l1-.4c.7-.2 1.8-.6 3.2-.6v-.1Z" fill="#fff"/>
</svg>
