<svg width="180" height="54" fill="none" xmlns="http://www.w3.org/2000/svg">
  <path d="M173.33 54H6.67A6.73 6.73 0 0 1 0 47.25V6.75C0 3.04 3 0 6.67 0h166.66A6.73 6.73 0 0 1 180 6.75v40.5c0 3.71-3 6.75-6.67 6.75Z" fill="#000"/>
  <path d="m27.63 26.22-14.2 15.26a3.84 3.84 0 0 0 5.65 2.35l.05-.03 15.97-9.33-7.48-8.25Z" fill="#EA4335"/>
  <path d="m41.98 23.63-.01-.02-6.9-4.05-7.77 7 7.8 7.9 6.86-4a3.89 3.89 0 0 0 2.02-3.43c0-1.47-.8-2.75-2-3.4Z" fill="#FBBC04"/>
  <path d="M13.43 12.52a3.7 3.7 0 0 0-.13 1v26.96c0 .35.04.68.13 1L28.1 26.62l-14.68-14.1Z" fill="#4285F4"/>
  <path d="m27.73 27 7.34-7.44-15.96-9.37a3.85 3.85 0 0 0-5.69 2.33L27.73 27Z" fill="#34A853"/>
  <path d="M131.52 26.67h2.17V12.1h-2.17v14.57Zm19.59-9.32-2.5 6.31h-.07l-2.59-6.31h-2.34l3.88 8.82-2.21 4.91h2.26l5.99-13.73h-2.42ZM138.77 25c-.7 0-1.7-.35-1.7-1.24 0-1.12 1.24-1.55 2.3-1.55.96 0 1.4.2 1.99.49a2.64 2.64 0 0 1-2.59 2.3Zm.27-7.98c-1.58 0-3.2.69-3.88 2.23l1.93.8c.4-.8 1.18-1.07 1.98-1.07 1.13 0 2.27.68 2.29 1.88v.15a4.8 4.8 0 0 0-2.27-.56c-2.08 0-4.2 1.14-4.2 3.28 0 1.95 1.7 3.2 3.62 3.2 1.46 0 2.27-.65 2.78-1.42h.07v1.12h2.1v-5.58c0-2.59-1.93-4.03-4.42-4.03Zm-13.44 2.09h-3.1v-5h3.1a2.52 2.52 0 0 1 2.55 2.5c0 1.13-.93 2.5-2.55 2.5Zm-.06-7.02h-5.21v14.57h2.17v-5.52h3.04c2.41 0 4.78-1.75 4.78-4.53 0-2.78-2.37-4.52-4.78-4.52ZM97.13 25c-1.5 0-2.76-1.25-2.76-2.98 0-1.75 1.25-3.02 2.76-3.02 1.48 0 2.64 1.27 2.64 3.02 0 1.73-1.16 2.98-2.64 2.98Zm2.5-6.85h-.08a3.43 3.43 0 0 0-2.61-1.1 4.93 4.93 0 0 0-4.75 4.97 4.9 4.9 0 0 0 4.75 4.94c1.18 0 2.12-.53 2.6-1.13h.08v.71c0 1.9-1.01 2.91-2.64 2.91a2.74 2.74 0 0 1-2.5-1.76l-1.9.79c.55 1.31 2 2.93 4.4 2.93 2.55 0 4.7-1.5 4.7-5.17v-8.9h-2.06v.81Zm3.56 8.5h2.18V12.1h-2.18v14.57Zm5.39-4.8a2.72 2.72 0 0 1 2.59-2.9c.86 0 1.6.44 1.84 1.06l-4.43 1.84Zm6.76-1.65c-.42-1.11-1.67-3.16-4.25-3.16-2.55 0-4.67 2.01-4.67 4.96 0 2.78 2.1 4.96 4.92 4.96a4.93 4.93 0 0 0 4.13-2.2l-1.69-1.13a2.83 2.83 0 0 1-2.44 1.37c-1.1 0-1.9-.5-2.4-1.5l6.62-2.74-.22-.56Zm-52.8-1.64v2.1h5.03a4.39 4.39 0 0 1-1.15 2.65 5.15 5.15 0 0 1-3.89 1.54c-3.1 0-5.52-2.5-5.52-5.6a5.52 5.52 0 0 1 9.32-4.08l1.48-1.49a7.34 7.34 0 0 0-5.28-2.12 7.8 7.8 0 0 0-7.8 7.7 7.8 7.8 0 0 0 7.8 7.7c2.3 0 4.02-.75 5.37-2.16a6.95 6.95 0 0 0 1.82-4.92c0-.49-.03-.94-.1-1.32h-7.09ZM75.44 25c-1.5 0-2.8-1.23-2.8-3 0-1.78 1.3-3 2.8-3 1.5 0 2.8 1.22 2.8 3 0 1.77-1.3 3-2.8 3Zm0-7.96A4.89 4.89 0 0 0 70.47 22a4.9 4.9 0 0 0 4.98 4.96A4.9 4.9 0 0 0 80.42 22a4.89 4.89 0 0 0-4.97-4.96ZM86.3 25c-1.5 0-2.8-1.23-2.8-3 0-1.78 1.3-3 2.8-3 1.5 0 2.8 1.22 2.8 3 0 1.77-1.3 3-2.8 3Zm0-7.96A4.89 4.89 0 0 0 81.32 22a4.9 4.9 0 0 0 4.98 4.96A4.9 4.9 0 0 0 91.28 22a4.89 4.89 0 0 0-4.98-4.96ZM64.82 38.92l-.62.29c-.3-.58-.64-1.17-1.02-1.67l.6-.28c.28.4.75 1.13 1.04 1.66Zm-1.37.52-.6.28a11.2 11.2 0 0 0-1-1.69l.62-.26c.27.4.73 1.14.98 1.66Zm-7.72-3.4c.78-.07 3.03-.29 5.21-.48 1.3-.1 2.42-.17 3.2-.2v.95c-.68 0-1.7.02-2.32.2a4.16 4.16 0 0 0-2.71 3.75c0 2.32 2.16 3.05 4.09 3.12l-.35 1.01c-2.2-.1-4.7-1.27-4.7-3.92a4.8 4.8 0 0 1 2.2-4.01c-1.04.12-4.28.43-5.56.7l-.11-1.06c.45-.01.83-.04 1.05-.06Z" fill="#fff"/>
  <path d="m64.82 38.92-.05-.12-.63.29.06.12.12-.06a11.7 11.7 0 0 0-1.04-1.7l-.1.09.05.12.6-.28-.05-.12-.11.08c.28.39.75 1.12 1.03 1.64l.12-.06.12-.06c-.3-.54-.76-1.27-1.06-1.67l-.06-.1-.85.4.1.13c.38.5.72 1.08 1 1.65l.06.11.75-.34.13-.06-.07-.12-.12.06Zm-1.37.52-.05-.13-.62.3.06.11.12-.05c-.28-.59-.63-1.22-1-1.72l-.1.08.05.12.61-.26-.05-.12-.11.07c.27.4.73 1.14.97 1.65l.12-.05.12-.06c-.25-.54-.71-1.29-1-1.69l-.05-.09-.87.38.1.13c.35.48.7 1.1.97 1.67l.06.12.73-.34.12-.06-.06-.12-.12.05Zm-7.72-3.4.02.13c.78-.07 3.02-.29 5.2-.48 1.3-.1 2.41-.17 3.2-.2v-.14h-.13v.96h.13v-.13c-.69 0-1.72.01-2.37.2a4.29 4.29 0 0 0-2.8 3.88c0 1.2.57 2.02 1.38 2.52.81.5 1.85.7 2.84.74v-.14l-.13-.04-.34 1 .12.05v-.13a5.93 5.93 0 0 1-3.1-.98 3.3 3.3 0 0 1-1.47-2.81c0-1.8 1.1-3.27 2.14-3.9l.54-.32-.62.08c-1.04.12-4.28.43-5.58.7l.03.12h.13l-.11-1.07-.13.02v.13c.46-.01.83-.03 1.07-.06l-.02-.13-.01-.13c-.22.02-.6.04-1.05.05h-.14l.12 1.2.02.16.14-.03c1.27-.27 4.52-.58 5.56-.7l-.01-.13-.07-.12A4.94 4.94 0 0 0 58 40.47a3.6 3.6 0 0 0 1.59 3.03 6.2 6.2 0 0 0 3.25 1.02l.1.01.38-1.1.06-.17h-.18a5.68 5.68 0 0 1-2.71-.7 2.53 2.53 0 0 1-1.26-2.3c0-1.34 1-3.11 2.62-3.63l-.04-.12.04.12a9.72 9.72 0 0 1 2.29-.18h.13V35.2l-.14.01c-.8.04-1.9.1-3.2.2l-5.22.48.01.14ZM76.74 41h-4.92v2.67c0 .64-.2.9-.64 1.05-.44.14-1.21.16-2.47.15a4.46 4.46 0 0 0-.38-.89c1 .04 1.94.03 2.22.02.26 0 .37-.09.37-.34v-2.65h-4.94v-.88h4.94V38.2h-4.13v-.85h4.13V35.5a69.8 69.8 0 0 1-3.91.28 4.02 4.02 0 0 0-.23-.79c2.83-.13 6.31-.44 8.11-1l.67.7a22.6 22.6 0 0 1-3.74.71v1.95h4.25v.85h-4.25v1.94h4.92v.88Z" fill="#fff"/>
  <path d="M76.74 41v-.13h-5.05v2.8c0 .3-.05.5-.14.64-.08.13-.2.21-.4.28-.36.11-.97.15-1.93.15h-.5l-.01.13.13-.03a4.6 4.6 0 0 0-.4-.92l-.11.06v.14a38.31 38.31 0 0 0 2.22 0V44v.13c.14 0 .27-.02.37-.1.1-.1.13-.23.13-.37v-2.79h-4.93v-.6h4.93v-2.22h-4.13v-.58h4.13v-2.13l-.15.01c-1.31.15-2.67.23-3.9.29v.13l.14-.02c-.04-.25-.15-.6-.24-.82l-.12.05v.14c2.84-.14 6.32-.45 8.15-1.02l-.04-.13-.1.1.68.7.1-.09-.04-.13c-1.01.31-2.32.54-3.73.7l-.11.02v2.2h4.24v.58H71.7v2.21h4.92v.75h.26V40h-4.92v-1.68h4.25V37.2h-4.25v-1.8h-.13l.01.13a23.1 23.1 0 0 0 3.77-.71l.2-.06-.87-.93-.08.03c-1.77.55-5.25.87-8.08 1h-.19l.07.18c.08.2.2.54.22.76l.02.12h.12a65.7 65.7 0 0 0 3.92-.3l-.01-.12h-.13v1.71h-4.13v1.12h4.13V40h-4.94v1.14h4.94v2.52l-.05.16c-.01.02-.07.04-.2.04a23.96 23.96 0 0 1-2.2 0l-.25-.02.12.21c.14.23.3.62.37.86l.03.1h.6c.98 0 1.6-.03 2.01-.17.24-.07.44-.2.56-.39.12-.2.17-.45.17-.78v-2.53h4.92v-.13h-.13Zm5.91-5.1c1.3.22 3.7.17 4.88 0v1c-1.27.12-3.58.12-4.87 0l-.01-1Zm.46 4.86c-.1.43-.15.76-.15 1.09 0 .54.36 1.07 1.99 1.07 1.07 0 1.98-.1 2.94-.32l.01 1.01c-.73.15-1.73.24-2.96.24-2 0-2.88-.66-2.88-1.77 0-.44.08-.9.19-1.4l.86.08Zm-2.7-5.77c-.08.2-.19.6-.24.8a27.4 27.4 0 0 0-.57 4.56c0 .57.02 1.05.1 1.63.2-.54.46-1.24.65-1.7l.52.38c-.3.84-.73 2.1-.84 2.66-.04.17-.06.4-.06.53l.03.42-.86.06c-.24-.84-.43-2.2-.43-3.81 0-1.76.38-3.8.53-4.77.03-.28.08-.59.08-.84l1.08.08Z" fill="#fff"/>
  <path d="m82.65 35.9-.03.14a20.38 20.38 0 0 0 4.93 0l-.02-.13h-.13v.98h.13l-.01-.13a27.33 27.33 0 0 1-4.85 0l-.01.13h.13l-.01-.99h-.27l.01 1v.1l.12.01c.66.07 1.56.1 2.46.1.9 0 1.8-.03 2.44-.1h.12v-1.27l-.15.02a20.3 20.3 0 0 1-4.84 0l-.16-.02v.16h.14Zm.46 4.86-.13-.04c-.1.44-.16.79-.16 1.13 0 .3.11.62.45.85.33.22.85.35 1.68.35 1.08 0 2-.1 2.97-.32l-.03-.13h-.13l.01 1.01h.13l-.02-.13c-.72.14-1.71.24-2.94.24-.98 0-1.68-.17-2.12-.45a1.33 1.33 0 0 1-.63-1.2c0-.41.08-.87.19-1.37l-.13-.03-.01.13.86.09.01-.13.02-.14-.99-.1-.02.12a7 7 0 0 0-.2 1.44c0 .59.25 1.1.76 1.42.5.32 1.25.49 2.26.49 1.24 0 2.24-.1 2.99-.25l.1-.02v-1.28l-.17.03c-.95.22-1.85.31-2.91.31-.8 0-1.28-.13-1.53-.3a.7.7 0 0 1-.33-.63c0-.31.05-.64.15-1.06l.04-.15-.15-.02-.02.14Zm-2.7-5.77-.13-.04c-.08.21-.19.6-.24.82-.23 1.1-.58 3.22-.58 4.58 0 .58.03 1.06.1 1.65l.07.53.19-.5c.2-.54.47-1.24.66-1.7l-.13-.05-.08.1.52.39.08-.11-.13-.05c-.3.85-.73 2.1-.84 2.69l.13.02-.13-.02c-.04.18-.06.4-.06.55l.02.3-.73.05.01.13.13-.03c-.24-.83-.43-2.19-.43-3.78 0-1.74.38-3.77.53-4.75.03-.28.08-.6.08-.86h-.13l-.01.13 1.08.09.01-.14.01-.13-1.08-.08-.14-.01v.14c0 .24-.05.55-.09.82l.14.02-.14-.02c-.14.97-.52 3.02-.52 4.79 0 1.61.19 3 .43 3.85l.03.1 1.1-.07-.04-.56-.13.01h.13c0-.12.03-.34.06-.5.1-.54.54-1.8.83-2.65l.04-.09-.6-.44-.14-.1-.06.15c-.2.48-.46 1.17-.66 1.71l.12.05.14-.02c-.08-.57-.1-1.04-.1-1.61 0-1.32.35-3.44.57-4.52l-.13-.03.13.03c.05-.21.16-.6.23-.8l.05-.16-.17-.01v.13Zm15.15-.31c0 2.13.27 6.65 4.98 9.45-.2.14-.57.53-.72.74a10.35 10.35 0 0 1-4.77-6.68c-.89 3.1-2.4 5.3-4.79 6.7a5.8 5.8 0 0 0-.8-.71c2.65-1.38 4.13-3.8 4.86-7.16l.53.09c-.09-.56-.14-1.08-.16-1.54h-2.95v-.89h3.82Z" fill="#fff"/>
  <path d="M95.56 34.68h-.14c0 2.13.28 6.73 5.05 9.56l.07-.11-.08-.11c-.23.16-.58.54-.75.77l.1.08.08-.11a10.22 10.22 0 0 1-4.7-6.6l-.13-.5-.14.49c-.88 3.09-2.37 5.23-4.73 6.62l.07.11.1-.09a5.85 5.85 0 0 0-.83-.72l-.07.1.06.13c2.7-1.4 4.2-3.87 4.93-7.25l-.13-.03-.02.13.53.09.18.03-.03-.18a19.5 19.5 0 0 1-.16-1.53v-.12h-2.95v-.62h3.69v-.27H91.6v1.15h3.1v-.13h-.14c.02.47.07 1 .16 1.56l.13-.02.02-.13-.53-.09-.12-.02-.03.12c-.73 3.34-2.18 5.7-4.8 7.07l-.2.1.2.13c.21.14.62.51.77.69l.08.07.09-.05c2.42-1.42 3.96-3.65 4.85-6.78l-.13-.03-.13.03a10.5 10.5 0 0 0 4.83 6.77l.1.06.07-.1c.15-.2.51-.59.7-.71l.16-.12-.17-.1c-4.65-2.77-4.92-7.22-4.92-9.34v-.13h-.13v.13Zm16.67 8.36c-.63.63-1.37 1-2.19 1-.78 0-1.32-.54-1.32-1.52 0-1.32.45-3.28.45-4.43 0-.68-.35-.97-.95-.97-.96 0-2.4 1.11-3.5 2.3l-.03 1.38a54.76 54.76 0 0 0 .11 3.59h-1.05c.01-.17.04-.51.04-.7 0-1.15 0-1.73.03-3.05l.02-.46a67.9 67.9 0 0 1-1.94 2.8l-.6-.82c.66-.83 2.03-2.68 2.63-3.61l.07-1.14c-.54.06-1.57.2-2.31.3l-.1-1c.27.01.5.01.78-.01.38-.03 1.08-.1 1.7-.2l.05-1.11c0-.28.02-.59-.05-.89l1.15.04c-.06.29-.16.96-.24 1.79l.06-.03.34.42-.52.83c-.03.22-.04.44-.06.67.92-.85 2.45-1.99 3.63-1.99 1.12 0 1.68.62 1.68 1.6 0 1.18-.44 3.24-.44 4.44 0 .4.2.72.61.72.6 0 1.24-.39 1.79-.99l.16 1.04Z" fill="#fff"/>
  <path d="m112.23 43.04-.1-.1a2.9 2.9 0 0 1-2.09.96c-.71-.01-1.17-.44-1.19-1.38 0-1.3.45-3.25.45-4.43 0-.36-.1-.65-.3-.84-.19-.19-.46-.27-.78-.26-1.06 0-2.48 1.14-3.6 2.33l-.03.04v.05l-.03 1.4c0 1.07 0 1.8.04 2.87l.07.73.13-.02v-.13h-1.05v.13l.14.01.03-.71h-.13.13c.01-1.15.01-1.73.04-3.05v-.91l-.23.38c-.58.87-1.36 2.01-1.93 2.8l.1.08.11-.08-.6-.83-.1.08.1.08c.66-.83 2.03-2.68 2.64-3.62l.01-.03v-.04l.08-1.14v-.15l-.15.01c-.55.06-1.58.2-2.32.3l.02.14.13-.02-.1-1-.13.02v.13l.32.01c.15 0 .3 0 .47-.02v-.13.13a18 18 0 0 0 1.7-.2h.11v-.11l.07-1.13v-.26c0-.2 0-.43-.05-.66l-.13.03v.13l1.13.04v-.13l-.13-.03c-.06.3-.15.97-.24 1.8l-.02.22.18-.07.28.35.1-.09-.1-.07-.54.83-.01.03v.03l-.07.67-.03.35.26-.24c.9-.84 2.44-1.97 3.54-1.96 1.07.02 1.53.55 1.55 1.47 0 1.16-.44 3.21-.44 4.44 0 .22.05.43.17.6a.7.7 0 0 0 .57.25c.66 0 1.32-.41 1.89-1.03l-.1-.09-.13.02.16 1.04.13-.02.13-.02-.2-1.31-.19.2c-.53.59-1.15.95-1.69.94-.34 0-.46-.2-.48-.58 0-1.18.45-3.23.45-4.44 0-.51-.15-.95-.46-1.26-.32-.3-.78-.47-1.36-.47-1.27 0-2.79 1.17-3.72 2.02l.09.1.13.02c.02-.24.03-.46.06-.67l-.13-.02.11.07c.18-.29.38-.61.53-.82l.05-.09-.41-.5-.06-.07-.15.06.05.13h.13c.08-.82.18-1.49.24-1.76l.03-.16-1.3-.04h-.17l.03.16c.05.2.05.4.05.6v.26l-.06 1.1.13.02-.02-.13c-.6.09-1.3.16-1.68.18-.16.02-.3.02-.45.02h-.31l-.16-.01.12 1.15v.14l.14-.02 2.32-.3-.02-.13-.13-.01-.07 1.14h.13l-.11-.06c-.6.92-1.96 2.77-2.62 3.6l-.06.08.76 1.06.11-.15c.58-.8 1.36-1.94 1.94-2.82l-.11-.07h-.14v.46h.13-.14l-.04 3.04-.03.7-.01.14h1.34l-.02-.14a8.73 8.73 0 0 1-.06-.72l-.13.01h.13c-.05-1.07-.05-1.79-.05-2.87 0-.41.01-.88.04-1.38h-.14l.1.08c1.08-1.17 2.53-2.26 3.4-2.25.28 0 .47.07.6.2.13.12.21.32.21.64 0 1.13-.44 3.09-.44 4.43 0 .52.14.93.4 1.21.26.3.63.44 1.05.44a3.2 3.2 0 0 0 2.28-1.04l.05-.05-.01-.06-.13.02Zm5.87-1.42a5.38 5.38 0 0 0-1.16-.12c-1.22 0-1.92.42-1.92 1.07 0 .66.66 1.02 1.8 1.02.88 0 1.3-.41 1.3-1.23l-.01-.74Zm.82-3.66c0 .78.06 1.93.12 2.96a9.43 9.43 0 0 1 3.7 2.03l-.58.89a8.3 8.3 0 0 0-3.08-1.96l.02.8c0 .97-.6 1.8-2.18 1.8-1.63 0-2.85-.52-2.85-1.88 0-1.06.94-1.95 3-1.95.33 0 .66.02 1 .07-.05-.96-.1-2.05-.1-2.76v-2.17a8.89 8.89 0 0 0-.1-1.18h1.15c-.05.25-.08.82-.1 1.18v1.2c.95-.02 2.45-.08 3.52-.22l.04.91c-1.06.1-2.58.17-3.56.2v.08Z" fill="#fff"/>
  <path d="m118.1 41.62.04-.13a5.5 5.5 0 0 0-1.2-.12c-.63 0-1.13.1-1.48.3-.36.2-.57.52-.57.9 0 .37.2.69.54.87.34.2.8.28 1.4.28.45 0 .81-.1 1.06-.34.25-.24.36-.59.36-1.02l-.01-.74v-.1l-.1-.03-.03.13h-.14l.02.74c0 .4-.1.65-.28.83-.18.17-.47.26-.89.27-.55 0-.98-.1-1.26-.25-.28-.16-.4-.36-.4-.64s.13-.5.43-.66c.3-.17.75-.28 1.35-.28.4 0 .77.04 1.14.12l.03-.13Zm.82-3.66h-.13c0 .78.06 1.94.12 2.97v.1l.1.02c1.5.42 2.8 1.23 3.64 2l.09-.1-.11-.07-.58.89.11.07.1-.1a8.45 8.45 0 0 0-3.14-1.98l-.18-.07v.2l.03.79c-.02.9-.52 1.66-2.05 1.67-.8 0-1.5-.13-1.97-.4-.47-.3-.74-.7-.74-1.35 0-.97.83-1.8 2.85-1.82.33 0 .66.02 1 .07l.15.02v-.16a63 63 0 0 1-.1-2.75c0-.69 0-1.67-.02-2.18a8.98 8.98 0 0 0-.1-1.2l-.12.03v.13h1.15v-.13l-.13-.03a10.07 10.07 0 0 0-.1 1.56v1h.14c.95-.03 2.45-.1 3.53-.24l-.02-.13h-.13l.03.92h.14l-.02-.14c-1.05.1-2.57.17-3.54.2h-.13v.2h.27v-.08h-.14v.14c.98-.03 2.5-.1 3.57-.2h.13l-.05-1.04v-.15l-.15.02c-1.06.14-2.56.2-3.5.23V37h.14v-.86a12.55 12.55 0 0 1 .1-1.5l.02-.16h-1.48l.04.16c.04.2.08.72.09 1.15l.01 2.17c0 .71.05 1.8.1 2.77l.13-.01.02-.13a7.18 7.18 0 0 0-1.03-.08c-1.04 0-1.82.23-2.34.6a1.8 1.8 0 0 0-.78 1.5c0 .71.33 1.24.88 1.56.54.32 1.27.45 2.1.45.81 0 1.4-.22 1.78-.58.38-.36.54-.85.54-1.36l-.03-.8h-.13l-.05.13a8.18 8.18 0 0 1 3.04 1.92l.12.12.66-1.03.06-.1-.08-.07a9.55 9.55 0 0 0-3.75-2.06l-.04.13h.14a57.5 57.5 0 0 1-.12-2.96h-.14Zm13.06-2.79-.14.93a56.77 56.77 0 0 1-5.07-.57l.16-.9c1.3.3 3.89.53 5.05.54Zm-2.1 3.1c-1.37 0-2.53.4-3.24.61-.36.1-.7.24-1 .35l-.3-1.1c.33-.04.74-.11 1.08-.18.84-.2 2.2-.58 3.56-.58 1.69 0 2.95.95 2.95 2.64 0 2.58-2.3 4.05-5.38 4.5l-.56-.9c2.88-.37 4.92-1.5 4.92-3.63 0-1-.8-1.7-2.03-1.7Z" fill="#fff"/>
  <path d="m131.98 35.17-.13-.02-.14.93.13.02v-.14a56.61 56.61 0 0 1-5.04-.56l-.03.13.13.03.16-.92-.13-.02-.03.13c1.33.3 3.9.54 5.08.56v-.27a31.68 31.68 0 0 1-5.02-.55l-.14-.03-.18 1.05-.02.13.13.03c1.35.24 3.75.48 5.08.56h.12l.16-1.04.03-.15h-.16v.13Zm-2.1 3.1v-.13c-1.4 0-2.57.41-3.28.61l.04.13-.03-.13c-.38.1-.73.25-1.01.36l.04.12.13-.03-.3-1.1-.13.03.02.13c.33-.04.74-.11 1.1-.18.84-.2 2.19-.58 3.52-.58 1.64.02 2.8.9 2.82 2.51 0 1.25-.55 2.22-1.48 2.94a8.13 8.13 0 0 1-3.79 1.43l.02.13.12-.07-.57-.91-.11.07.02.13a8.29 8.29 0 0 0 3.6-1.17 3 3 0 0 0 1.43-2.59c0-.53-.22-1-.6-1.32a2.37 2.37 0 0 0-1.56-.51v.26c1.18.01 1.9.66 1.9 1.58 0 1.02-.48 1.79-1.32 2.36-.85.58-2.06.95-3.49 1.13l-.2.02.67 1.1.05.07.08-.02a8.4 8.4 0 0 0 3.91-1.48 3.86 3.86 0 0 0 1.58-3.15 2.6 2.6 0 0 0-.88-2.05 3.35 3.35 0 0 0-2.2-.72c-1.38 0-2.75.39-3.58.58l.02.13-.02-.13c-.35.07-.75.14-1.07.17l-.16.02.35 1.26.04.14.13-.05c.3-.11.64-.26.98-.35.72-.2 1.87-.6 3.21-.6v-.14Z" fill="#fff"/>
</svg>
