<svg id="artwork" xmlns="http://www.w3.org/2000/svg" version="1.1" viewBox="0 0 239 70.9">
  <defs>
    <style>
      .st5{fill:#fff}
    </style>
  </defs>
  <rect x="-.1" width="239.2" height="70.9" rx="8.9" ry="8.9"/>
  <path class="st5" d="M120.6 38.5c-4.1 0-7.5 3.2-7.5 7.6s3.4 7.5 7.5 7.5 7.6-3.2 7.6-7.5-3.4-7.6-7.6-7.6Zm0 12.1c-2.3 0-4.2-1.8-4.2-4.5s2-4.6 4.2-4.6 4.3 1.9 4.3 4.6-2 4.5-4.3 4.5Zm-16.5-12c-4.2 0-7.6 3.1-7.6 7.5s3.4 7.5 7.6 7.5 7.6-3.2 7.6-7.5-3.4-7.6-7.6-7.6Zm0 12c-2.3 0-4.3-1.8-4.3-4.5s2-4.6 4.3-4.6 4.3 1.9 4.3 4.6-2 4.5-4.3 4.5Zm-19.6-9.8V44H92a6.6 6.6 0 0 1-1.7 4 7.8 7.8 0 0 1-6 2.4 8.4 8.4 0 0 1-8.3-8.5 8.4 8.4 0 0 1 14.1-6.2l2.3-2.3c-2-1.8-4.5-3.2-8-3.2-6.5 0-12 5.3-12 11.7s5.5 11.7 12 11.7c3.5 0 6-1 8.1-3.2 2.1-2.1 2.8-5.1 2.8-7.5 0-.8 0-1.5-.2-2H84.5Zm80.3 2.5c-.7-1.6-2.6-4.8-6.5-4.8s-7.1 3-7.1 7.6c0 4.2 3.2 7.5 7.5 7.5 3.4 0 5.4-2.1 6.3-3.3l-2.6-1.8c-.9 1.3-2 2.1-3.7 2.1s-3-.7-3.7-2.3l10.1-4.1-.3-.9ZM154.4 46a4 4 0 0 1 3.9-4.4c1.3 0 2.4.6 2.8 1.6l-6.7 2.8Zm-8.2 7.3h3.3V31h-3.3v22.1Zm-5.4-13h-.1a5.2 5.2 0 0 0-4-1.7c-3.8 0-7.3 3.3-7.3 7.6s3.5 7.5 7.3 7.5c1.8 0 3.2-.8 4-1.7v1c0 3-1.5 4.5-4 4.5-2 0-3.2-1.4-3.8-2.7l-2.8 1.2c.8 2 3 4.5 6.6 4.5 4 0 7.2-2.3 7.2-7.9V39h-3.1v1.2ZM137 50.6c-2.3 0-4.2-1.9-4.2-4.5s1.9-4.6 4.2-4.6 4 2 4 4.6-1.8 4.5-4 4.5ZM180.3 31h-8v22.1h3.4v-8.4h4.6c3.7 0 7.2-2.6 7.2-6.8S184 31 180.3 31Zm0 10.7h-4.7V34h4.7c2.5 0 4 2 4 3.8s-1.5 3.8-4 3.8Zm20.5-3.2c-2.4 0-4.9 1-6 3.4l3 1.2c.6-1.2 1.8-1.6 3-1.6 1.7 0 3.5 1 3.5 2.8v.3c-.6-.4-1.9-.9-3.5-.9-3.1 0-6.3 1.7-6.3 5 0 3 2.6 4.8 5.5 4.8 2.2 0 3.4-1 4.2-2.1V53h3.3v-8.5c0-4-3-6.1-6.7-6.1Zm-.4 12.1c-1.1 0-2.6-.5-2.6-1.8 0-1.7 1.9-2.4 3.5-2.4 1.4 0 2.1.3 3 .7a4 4 0 0 1-4 3.5ZM219 39l-3.8 9.6-4-9.6h-3.6l6 13.4-3.4 7.5h3.4l9.1-21H219Zm-29.7 14h3.4V31h-3.3v22.1Z"/>
  <path d="m36.6 34.4-18.9 20a5 5 0 0 0 7.6 3l21.2-12.2-10-10.8h.1Z" style="fill:#ea4335"/>
  <path d="m55.7 31-9.2-5.3-10.3 9.2 10.3 10.3 9.2-5.2c1.6-1 2.6-2.6 2.6-4.5s-1-3.6-2.6-4.5Z" style="fill:#fbbc04"/>
  <path d="m17.7 16.4-.1 1.4V53l.1 1.3L37.2 35 17.7 16.4Z" style="fill:#4285f4"/>
  <path d="m36.7 35.4 9.8-9.7-21.2-12.3a5.1 5.1 0 0 0-7.6 3l19 19Z" style="fill:#34a853"/>
  <path class="st5" d="M76.7 23.4c-.7 0-1.4-.1-2-.5-.5-.3-1-.8-1.2-1.4-.3-.6-.5-1.4-.5-2.4 0-1.3.3-2.4 1-3a3.7 3.7 0 0 1 3.6-1l.8.5.6.6v-1.8c0-.4 0-.7-.2-1-.2-.3-.4-.6-.7-.7s-.7-.3-1.3-.3c-.3 0-.7 0-1 .2l-.7.5a1 1 0 0 0-.3.7v.4h-1.2l-.1-.3v-.3c0-.4.1-.8.4-1.2s.7-.6 1.2-.8a4.9 4.9 0 0 1 3.6.1c.5.3 1 .7 1.2 1.1.3.5.4 1 .4 1.7v4.6c0 1.4-.3 2.5-.9 3.2-.6.8-1.5 1.1-2.7 1.1Zm0-1.1c.8 0 1.4-.3 1.8-.8a4 4 0 0 0 .5-2.1V19c0-1-.2-1.7-.5-2.2s-1-.8-1.9-.8c-.7 0-1.3.3-1.6.8a4 4 0 0 0-.6 2.3c0 1 .2 1.7.5 2.3.4.5 1 .8 1.8.8Zm6.6 1a14.6 14.6 0 0 1-.8-2.8l-.1-1.5c0-.8.1-1.6.3-2.2.3-.6.6-1.1 1-1.5s1.1-.5 1.8-.5a2.1 2.1 0 0 1 2.2 1.5c.2-.5.5-.8.9-1.1.4-.3.8-.4 1.4-.4.6 0 1.2.2 1.7.5.5.4.8.9 1 1.5.3.6.4 1.4.4 2.2a10.2 10.2 0 0 1-1 4.3h-1.4l.8-2.1c.2-.6.2-1.4.2-2.2 0-.7 0-1.3-.2-1.7a2 2 0 0 0-.6-1c-.3-.3-.6-.4-1-.4-.5 0-.9.2-1.1.6-.3.3-.4.8-.4 1.5v2.4h-1.3V18c0-.6-.1-1.1-.3-1.5s-.7-.6-1.2-.6-1 .3-1.3.8-.5 1.3-.5 2.3a10.2 10.2 0 0 0 1 4.2h-1.5Zm12.5 0a14.6 14.6 0 0 1-.9-2.8V19c0-.9 0-1.6.3-2.2a3.3 3.3 0 0 1 3.3-2c.8 0 1.4.2 2 .5.4.4.9.9 1.1 1.5a7 7 0 0 1 .3 3.7 12.2 12.2 0 0 1-.8 2.8h-1.4l.7-2.1.2-2.2c0-.7 0-1.3-.2-1.7s-.5-.8-.8-1-.7-.4-1.2-.4-.8.1-1.1.4-.6.5-.8 1-.3 1-.3 1.7a10.2 10.2 0 0 0 1 4.2h-1.4Zm11.7.1a3.5 3.5 0 0 1-3.3-1.9c-.3-.6-.4-1.4-.4-2.4 0-1.4.3-2.5 1-3.2s1.4-1 2.4-1h1.1c.3 0 .6.3.8.5l.6.6h.1v-4.5h1.3v7.6c0 1.5-.3 2.5-1 3.3-.6.7-1.5 1-2.7 1Zm0-1.1c.8 0 1.4-.3 1.7-.8.4-.5.6-1.2.6-2.1V19c0-1-.2-1.8-.5-2.3s-1-.9-2-.9c-.7 0-1.2.3-1.6.9-.4.6-.5 1.4-.5 2.4s.1 1.7.5 2.3 1 .8 1.7.8Zm6.5 1a14.6 14.6 0 0 1-.8-2.8V19c0-.9 0-1.6.3-2.2.3-.6.7-1.1 1.3-1.5s1.1-.5 2-.5 1.4.2 1.9.5c.5.4 1 .9 1.2 1.5a7 7 0 0 1 .3 3.7 12.2 12.2 0 0 1-.8 2.8H118l.7-2.1a7.5 7.5 0 0 0 0-4l-.8-1c-.3-.2-.7-.3-1.2-.3s-.8.1-1.2.4-.5.5-.7 1-.3 1-.3 1.7a10.2 10.2 0 0 0 1 4.2H114Zm11.5 3.8c-.5 0-1 0-1.4-.2l-1.1-.7-.8-1.2a4.6 4.6 0 0 1 0-3h1.4l-.2.6a4 4 0 0 0 .2 2.1l.7 1c.4.2.8.3 1.3.3s1-.1 1.3-.3l.7-1 .2-1.6v-4.7c0-.8-.1-1.4-.5-1.8s-.8-.7-1.5-.7c-.4 0-.7.1-1 .3-.3.1-.6.3-.7.6-.2.3-.3.7-.3 1.2v.6l.2.5h-1.3l-.2-.5V18c0-.7.1-1.3.4-1.8s.7-.8 1.3-1a4.1 4.1 0 0 1 3.4 0c.5.3 1 .7 1.2 1.2.3.6.4 1.2.4 2v4.8c0 .8-.1 1.6-.4 2.1-.3.6-.7 1-1.3 1.4s-1.1.5-1.9.5Zm9.2-3.7c-.5 0-1 0-1.4-.3s-.8-.4-1.1-.8-.6-.8-.8-1.4a5.7 5.7 0 0 1 .2-4.2c.3-.7.7-1 1.2-1.4.6-.3 1.2-.5 1.9-.5a3 3 0 0 1 1.6.4c.5.3.9.8 1.1 1.4h.1l.5-1c.3-.3.5-.5.9-.6l1.2-.2c.6 0 1.2.2 1.6.5.5.4.8.8 1 1.4s.4 1.3.4 2.1a11.8 11.8 0 0 1-.4 3l-.5 1.5h-1.4l.7-2.1.2-2.2c0-.7 0-1.3-.2-1.7s-.3-.8-.6-1a1.6 1.6 0 0 0-2.2.2 3 3 0 0 0-.5 1.8v.8c0 .7 0 1.3-.2 1.8-.2.6-.5 1-.8 1.4-.3.4-.6.7-1 .8l-1.5.3Zm0-1.1c.5 0 .9-.1 1.2-.4l.7-1.1.2-1.7c0-1-.2-1.8-.5-2.3-.3-.6-.9-.9-1.6-.9s-1.3.3-1.6.9-.5 1.3-.5 2.3c0 .6 0 1.2.2 1.7.1.5.4.8.7 1.1s.7.4 1.2.4Zm17.5 1.1c-.6 0-1.2-.1-1.7-.3-.6-.3-1-.6-1.3-1s-.4-1.1-.4-1.8v-.7l.1-.5h1.4l-.2.5v.7c0 .4.1.8.3 1 .1.4.4.6.7.7.3.2.7.3 1 .3l1.2-.3c.3-.1.5-.3.7-.6s.2-.7.2-1.2-.1-1-.3-1.3l-.8-1-.8-.7c-.3-.2-.4-.6-.6-1s-.2-.8-.2-1.2h1.3c0 .4.1.8.4 1.1l.8 1 .8.8c.3.3.4.6.6 1l.2 1.3c0 .6-.2 1.2-.5 1.7s-.7.9-1.2 1.1-1 .4-1.7.4Zm8.6 3.7c-.5 0-1 0-1.4-.2l-1.1-.7-.8-1.2a4.6 4.6 0 0 1 0-3h1.4l-.2.6a4 4 0 0 0 .2 2.1c.2.4.4.7.8 1 .3.2.7.3 1.2.3s1-.1 1.3-.3c.3-.3.6-.6.7-1l.2-1.6v-4c0-1-.1-1.8-.5-2.3s-.8-.9-1.6-.9c-.4 0-.7.1-1 .3-.2.1-.5.3-.6.6L159 18v.6l.2.5H158l-.2-.5V18c0-.7.1-1.3.4-1.8.3-.4.7-.8 1.1-1 .5-.3 1-.4 1.5-.4.3 0 .7 0 1 .2l.7.4.6.6h.1v-4.5h1.3v11.7c0 .8-.1 1.6-.4 2.1-.3.6-.7 1-1.3 1.4s-1.1.5-2 .5Zm5.9-11.3c0-.4.1-.7.3-.8.2-.2.4-.3.7-.3l.7.3.2.8c0 .4 0 .6-.2.8-.2.2-.5.2-.7.2l-.7-.2c-.2-.2-.3-.4-.3-.8Zm0 6.6c0-.4.1-.6.3-.8l.7-.2c.3 0 .5 0 .7.2l.2.8c0 .4 0 .7-.2.8a1 1 0 0 1-.7.3l-.7-.3c-.2-.1-.3-.4-.3-.8Z" style="isolation:isolate"/>
</svg>
