<svg width="180" height="54" fill="none" xmlns="http://www.w3.org/2000/svg">
  <path d="M173.3 54H6.7A6.7 6.7 0 0 1 0 47.2V6.8C0 3 3 0 6.7 0h166.6a6.7 6.7 0 0 1 6.7 6.8v40.5c0 3.7-3 6.7-6.7 6.7Z" fill="#000"/>
  <path d="M27.6 26.2 13.4 41.5a3.8 3.8 0 0 0 5.7 2.3l16-9.3-7.5-8.3Z" fill="#EA4335"/>
  <path d="m42 23.6-7-4-7.7 7 7.8 7.9 6.9-4a3.9 3.9 0 0 0 2-3.5 4 4 0 0 0-2-3.4Z" fill="#FBBC04"/>
  <path d="M13.4 12.5a3.7 3.7 0 0 0-.1 1v27l.1 1 14.7-14.9-14.7-14Z" fill="#4285F4"/>
  <path d="m27.7 27 7.4-7.4-16-9.4a3.9 3.9 0 0 0-5.7 2.3L27.7 27Z" fill="#34A853"/>
  <path d="M131.5 32h2.2V17.4h-2.2V32Zm19.6-9.3-2.5 6.3-2.7-6.3h-2.3l3.9 8.8-2.2 5h2.2l6-13.8h-2.4Zm-12.3 7.7c-.7 0-1.7-.4-1.7-1.3 0-1.1 1.2-1.5 2.3-1.5 1 0 1.4.2 2 .4a2.6 2.6 0 0 1-2.6 2.3Zm.2-8c-1.5 0-3.2.7-3.8 2.2l1.9.8c.4-.8 1.2-1 2-1 1.1 0 2.2.6 2.3 1.8v.2a4.8 4.8 0 0 0-2.3-.6c-2 0-4.2 1.1-4.2 3.3 0 2 1.7 3.2 3.6 3.2a3 3 0 0 0 2.8-1.4v1h2.2v-5.5c0-2.6-2-4-4.5-4Zm-13.4 2h-3.1v-5h3.1a2.5 2.5 0 0 1 2.6 2.6c0 1-1 2.5-2.6 2.5Zm0-7h-5.3V32h2.2v-5.5h3c2.5 0 4.8-1.8 4.8-4.5 0-2.8-2.3-4.6-4.8-4.6ZM97 30.4c-1.5 0-2.7-1.3-2.7-3 0-1.8 1.2-3 2.7-3 1.5 0 2.7 1.2 2.7 3 0 1.7-1.2 3-2.7 3Zm2.5-7a3.4 3.4 0 0 0-2.7-1 5 5 0 0 0-4.7 5 4.9 4.9 0 0 0 4.7 4.9c1.2 0 2.2-.5 2.6-1.1h.1v.7c0 1.9-1 2.9-2.6 2.9a2.7 2.7 0 0 1-2.5-1.8l-2 .8a4.7 4.7 0 0 0 4.5 3c2.5 0 4.7-1.5 4.7-5.2v-9h-2v.9Zm3.6 8.6h2.2V17.4h-2.2V32Zm5.4-4.8a2.7 2.7 0 0 1 2.6-2.9c.8 0 1.6.4 1.8 1l-4.4 1.9Zm6.7-1.7c-.4-1-1.6-3.1-4.2-3.1s-4.7 2-4.7 5c0 2.7 2.1 4.9 5 4.9a5 5 0 0 0 4-2.2l-1.6-1.1a2.8 2.8 0 0 1-2.5 1.3c-1 0-1.9-.5-2.4-1.5l6.7-2.7-.3-.6ZM62.5 24v2h5a4.4 4.4 0 0 1-1 2.6 5.2 5.2 0 0 1-4 1.6 5.5 5.5 0 0 1-5.5-5.6 5.5 5.5 0 0 1 9.3-4.1l1.5-1.5a7.3 7.3 0 0 0-5.3-2.1 7.8 7.8 0 0 0-7.8 7.7 7.8 7.8 0 0 0 7.8 7.7A7 7 0 0 0 68 30a7 7 0 0 0 1.8-4.9V24h-7.2Zm13 6.5a3 3 0 0 1-2.9-3c0-1.8 1.3-3 2.8-3 1.5 0 2.8 1.2 2.8 3 0 1.7-1.3 3-2.8 3Zm0-8a4.9 4.9 0 0 0-5 5 4.9 4.9 0 0 0 5 4.9 4.9 4.9 0 0 0 5-5 4.9 4.9 0 0 0-5-5Zm10.8 8c-1.5 0-2.8-1.3-2.8-3 0-1.8 1.3-3 2.8-3 1.5 0 2.8 1.2 2.8 3 0 1.7-1.3 3-2.8 3Zm0-8a4.9 4.9 0 0 0-5 5 4.9 4.9 0 0 0 5 4.9 4.9 4.9 0 0 0 5-5 4.9 4.9 0 0 0-5-5ZM56.5 5c-.2 0-.4 0-.6.3l-.1 1 1-.1c.3-.1.4-.4.4-.7a.6.6 0 0 0-.2-.4.7.7 0 0 0-.4-.1Zm-1.7 1.5c0-.8.1-1.4.4-1.8.3-.4.7-.6 1.3-.6.5 0 .9.2 1.2.4.3.3.4.6.4 1 0 .6-.2 1-.6 1.2-.3.3-1 .4-1.7.4v1.4l.7-.7 1.2-.2c.8 0 1.4.2 1.8.7.5.4.7 1 .7 2a4.4 4.4 0 0 1-.9 2.5h-1c.5-.7.8-1.5.8-2.5 0-1.2-.5-1.9-1.6-1.9-.6 0-1 .2-1.3.5-.3.3-.4.8-.4 1.6v2.3h-1V6.6Zm9.3.2V7a1 1 0 0 0 .3.6c0 .2.3.4.7.7l.8.7a2.2 2.2 0 0 1 .5 1.4c0 .8-.2 1.4-.7 1.8-.5.5-1.2.7-2 .7a3 3 0 0 1-2-.6 2.2 2.2 0 0 1-.8-1.8v-.9H62v1c0 .4 0 .8.3 1 .3.4.8.5 1.3.5.6 0 1-.2 1.3-.4a1.6 1.6 0 0 0 .2-2 3.4 3.4 0 0 0-.8-.8 3.7 3.7 0 0 1-1-1 2 2 0 0 1-.2-1v-.2h1Zm5.8 5.4c.6 0 1-.2 1.3-.6.3-.5.4-1 .4-1.8 0-1.5-.5-2.2-1.7-2.2-.6 0-1 .2-1.3.5-.3.4-.4 1-.4 1.8 0 .7.1 1.3.4 1.7.3.4.7.6 1.3.6Zm0-7.1c-.4 0-.7 0-.9.2a.9.9 0 0 0-.3.8v.2h-1A1.5 1.5 0 0 1 68 5c.2-.3.4-.5.8-.6a2 2 0 0 1 1.1-.3c1 0 1.6.4 2.1 1.2.5.8.7 1.9.7 3.3s-.2 2.5-.7 3.3c-.4.7-1.2 1-2.2 1-.8 0-1.4-.2-2-.8a3.5 3.5 0 0 1-.6-2.3c0-1 .2-1.8.7-2.3a2.3 2.3 0 0 1 1.8-.9c.9 0 1.5.3 1.9.9-.2-1.7-.7-2.5-1.7-2.5Zm10 1.6a2 2 0 0 1 1.6.8c.5.6.7 1.3.7 2.3a6.9 6.9 0 0 1-.8 3.1h-1a6.7 6.7 0 0 0 .8-3.1 3 3 0 0 0-.4-1.7 1.2 1.2 0 0 0-1-.6c-.5 0-.8.2-1 .5a1.8 1.8 0 0 0-.4 1.1v.8h-1V9c0-.5 0-.9-.3-1.1-.2-.3-.5-.5-1-.5-.4 0-.7.2-1 .6a3 3 0 0 0-.3 1.7 6.7 6.7 0 0 0 .7 3.1h-1a7.1 7.1 0 0 1-.7-3.1c0-1 .2-1.7.6-2.3s1-.8 1.7-.8c.5 0 .9.1 1.2.3.3.2.5.5.6.9h.1c.2-.4.4-.7.7-.9a2 2 0 0 1 1.1-.3Zm6.4 3.5V7.6c-.7.1-1.2.5-1.6 1.1a4.7 4.7 0 0 0-.6 2.5c0 1.2.3 2 .7 2.7.5.6 1.2.9 2 .9.9 0 1.6-.3 2-1 .5-.6.7-1.5.7-2.6 0-1-.2-1.9-.5-2.5a2.2 2.2 0 0 0-1.7-1.1v2.6h-1Zm4.3 1a6 6 0 0 1-.5 2.4 3.4 3.4 0 0 1-3.3 2c-1.2 0-2-.4-2.7-1.1a5 5 0 0 1-1-3.3c0-.9.1-1.6.4-2.2a3.3 3.3 0 0 1 2.8-2.2V4.3h1v2.5c1 0 1.8.5 2.4 1.3.6.7.8 1.8.8 3Zm3 3.6c.6 0 1-.2 1.4-.5.3-.3.4-.8.4-1.4 0-1.2-.7-1.7-2.1-1.7h-.8v-.9h.8c.6 0 1-.1 1.3-.3.4-.3.5-.6.5-1 0-.5-.1-.9-.3-1-.3-.3-.6-.4-1.1-.4-1 0-1.4.4-1.4 1.2V9h-1a2.6 2.6 0 0 1 0-.3c0-.6.2-1 .6-1.4.5-.4 1-.6 1.8-.6s1.4.2 1.8.6c.4.3.6.8.6 1.5 0 .5-.1.9-.3 1.2l-1.1.7c.5.1 1 .4 1.3.8.3.4.4.9.4 1.4 0 .8-.2 1.5-.7 2-.5.5-1.2.7-2 .7-1 0-1.6-.2-2-.6-.5-.4-.7-1-.7-1.7l.1-.7h1a1.9 1.9 0 0 0-.1.7c0 .5.1.9.4 1.1.3.3.7.4 1.3.4Zm3.6-5c0-1 .3-1.7.8-2.2.5-.6 1.2-.9 2-.9.9 0 1.6.3 2 .9.6.5.8 1.3.8 2.3a6.5 6.5 0 0 1-.2 1.7c-.1.5-.3 1-.6 1.3h-1a5.2 5.2 0 0 0 .8-3c0-.8-.1-1.4-.4-1.7-.3-.4-.8-.6-1.4-.6-.6 0-1 .2-1.3.6-.3.3-.4 1-.4 1.7 0 1.1.3 2.2.8 3h-1a4.4 4.4 0 0 1-.6-1.3 6.1 6.1 0 0 1-.3-1.7Zm8.4-3a2 2 0 0 1 .6 0c1 0 1.5.3 1.8 1l.8-.8a2 2 0 0 1 1.1-.3 2 2 0 0 1 1.7.8c.4.6.6 1.3.6 2.3a6.9 6.9 0 0 1-.7 3.1h-1a6.7 6.7 0 0 0 .7-3.1c0-.7 0-1.3-.3-1.7a1.1 1.1 0 0 0-1-.6c-.5 0-.8.2-1 .5a1.8 1.8 0 0 0-.4 1.1v.8h-1V9c0-.5 0-.9-.3-1.1-.2-.3-.5-.5-1-.5-.4 0-.7.2-1 .6a4 4 0 0 0-.3 1.7 6.7 6.7 0 0 0 .7 3.1h-1a6.7 6.7 0 0 1-.7-3c0-1 0-1.8.3-2.4a4 4 0 0 1 1.2-1.7c.5-.4 1-.8 1.9-1 .7-.3 1.7-.5 2.8-.6V5a9.6 9.6 0 0 0-2.6.5c-.8.3-1.4.7-1.9 1.2Zm11.3 3c0-.8 0-1.4-.3-1.7-.2-.4-.5-.5-1-.5-.4 0-.8.2-1 .6-.2.3-.3.9-.3 1.6 0 .8 0 1.4.3 1.8.2.4.6.6 1 .6a1 1 0 0 0 1-.6c.2-.4.3-1 .3-1.8Zm1 0a4.1 4.1 0 0 1-.6 2.4c-.4.6-1 .8-1.7.8a2 2 0 0 1-1.8-.8 4 4 0 0 1-.5-2.4c0-1 .2-1.7.6-2.3a2 2 0 0 1 1.7-.8c.4 0 .8.1 1.1.3.3.2.5.5.7.9.2-.4.5-.7.8-.9a2 2 0 0 1 1-.3 2 2 0 0 1 1.8.8c.4.6.6 1.3.6 2.3a6.8 6.8 0 0 1-.7 3.1h-1a6.7 6.7 0 0 0 .7-3.1 4 4 0 0 0-.3-1.7c-.3-.4-.6-.5-1-.5-.5 0-.8.1-1 .4-.3.3-.4.8-.4 1.4v.4Zm7.2 5.8c-1 0-1.6-.2-2.1-.6-.5-.5-.7-1.1-.7-2l.1-1h1a3.3 3.3 0 0 0-.1 1c0 .6.1 1 .4 1.4.3.3.8.4 1.4.4.6 0 1-.2 1.3-.6.3-.4.5-1.1.5-2v-2c0-1-.2-1.6-.5-2-.2-.4-.7-.6-1.3-.6-.5 0-.9.1-1.1.4a1.7 1.7 0 0 0-.4 1.2v.4h-1a2.5 2.5 0 0 1 .3-1.7c.2-.4.5-.7.9-.9.4-.2.8-.3 1.3-.3 1.8 0 2.8 1.2 2.8 3.5v2c0 1.1-.3 2-.7 2.6-.5.6-1.2.8-2.1.8Zm7.6-5.8c0-.8 0-1.4-.3-1.7-.2-.4-.5-.5-1-.5-.4 0-.8.2-1 .6-.2.3-.4.9-.4 1.6 0 .8.2 1.4.4 1.8.2.4.5.6 1 .6s.8-.2 1-.6c.2-.4.3-1 .3-1.8Zm1 0a4.1 4.1 0 0 1-.6 2.4c-.4.6-1 .8-1.7.8-.8 0-1.4-.2-1.8-.8a4 4 0 0 1-.6-2.4c0-1 .3-1.7.7-2.3a2 2 0 0 1 1.7-.8c.4 0 .8.1 1.1.3.3.2.5.5.7.9.2-.4.5-.7.8-.9.3-.2.6-.3 1-.3a2 2 0 0 1 1.8.8c.4.6.6 1.3.6 2.3a6.8 6.8 0 0 1-.7 3.1h-1a6.7 6.7 0 0 0 .7-3.1 4 4 0 0 0-.3-1.7c-.3-.4-.6-.5-1-.5-.5 0-.8.1-1 .4-.3.3-.4.8-.4 1.4v.4ZM55 43.8v-1h2.9v1h-3Zm9.7-.5c0 .8 0 1.5.3 1.9.2.4.6.6 1 .6.5 0 1-.2 1.1-.6a3.9 3.9 0 0 0 .4-2c0-.7-.1-1.3-.4-1.7-.2-.4-.5-.6-1-.6s-.9.2-1.1.5c-.2.4-.3 1-.3 1.9Zm-5 0a4 4 0 0 1 .7-2.4A2.1 2.1 0 0 1 62 40c1 0 1.6.4 1.9 1.3.3-.5.5-.8.8-1 .3-.2.7-.3 1.2-.3a2 2 0 0 1 1.8.9c.5.6.7 1.4.7 2.4 0 1.1-.2 2-.7 2.5-.4.6-1 .9-1.8.9s-1.4-.3-1.9-.9a4.3 4.3 0 0 1-.6-2.5v-.5c0-.6-.1-1-.3-1.4-.2-.3-.6-.5-1-.5-.5 0-.9.2-1.1.6a3.4 3.4 0 0 0-.4 1.8c0 .7 0 1.3.2 1.8l.8 1.2c.4.3.9.5 1.5.7l1.3.5.8.6.7.9-.9.5a2.5 2.5 0 0 0-1-1.1 3 3 0 0 0-1.6-.4 3.9 3.9 0 0 0-2 .5l-.4-.8a6 6 0 0 1 1.5-.5 3.7 3.7 0 0 1-1.5-1.6 5 5 0 0 1-.5-2.3Zm13-3.2v.3c0 .3.2.5.3.7l.8.7.9.7A2.3 2.3 0 0 1 75 44c0 .8-.3 1.5-.8 2a3 3 0 0 1-2.1.7A3.2 3.2 0 0 1 70 46a2.3 2.3 0 0 1-.7-1.8v-1h1.2l-.2 1c0 .5.2.9.5 1.2.3.3.8.4 1.4.4.5 0 1-.2 1.3-.5a1.6 1.6 0 0 0 .3-2 3.6 3.6 0 0 0-.9-.9 3.8 3.8 0 0 1-1-1 2 2 0 0 1-.3-1V40h1Zm6.4.8c-.6 0-1.1.2-1.4.6-.4.4-.5 1-.5 1.7 0 .9.1 1.5.5 2 .3.4.7.6 1.4.6.6 0 1-.2 1.4-.6.3-.4.4-1 .4-1.9 0-.8-.1-1.4-.4-1.8-.3-.4-.8-.6-1.4-.6Zm.3-2.6a2 2 0 0 0-1.5.6c-.3.5-.6 1.1-.7 2l.9-.6a2 2 0 0 1 1.1-.3c1 0 1.6.3 2 .9.6.6.8 1.4.8 2.4 0 1.1-.2 2-.7 2.5a3 3 0 0 1-2.3.9 2.9 2.9 0 0 1-1.7-.5c-.4-.3-.7-.7-1-1.4a8.1 8.1 0 0 1-.2-2.4 7 7 0 0 1 .8-3.7 2.6 2.6 0 0 1 2.4-1.3h2v1h-1.9Z" fill="#fff"/>
</svg>
