<svg width="180" height="54" fill="none" xmlns="http://www.w3.org/2000/svg">
  <path d="M173.33 54H6.67A6.73 6.73 0 0 1 0 47.25V6.75C0 3.04 3 0 6.67 0h166.66A6.73 6.73 0 0 1 180 6.75v40.5c0 3.71-3 6.75-6.67 6.75Z" fill="#000"/>
  <path d="m27.63 26.22-14.2 15.26a3.84 3.84 0 0 0 5.65 2.35l.05-.03 15.97-9.33-7.48-8.25Z" fill="#EA4335"/>
  <path d="m41.98 23.63-.01-.02-6.9-4.05-7.77 7 7.8 7.9 6.86-4a3.89 3.89 0 0 0 2.02-3.43c0-1.47-.8-2.75-2-3.4Z" fill="#FBBC04"/>
  <path d="M13.43 12.52a3.7 3.7 0 0 0-.13 1v26.96c0 .35.04.68.13 1L28.1 26.62l-14.68-14.1Z" fill="#4285F4"/>
  <path d="m27.73 27 7.34-7.44-15.96-9.37a3.85 3.85 0 0 0-5.69 2.33L27.73 27Z" fill="#34A853"/>
  <path d="M131.52 32h2.17V17.43h-2.17V32Zm19.59-9.32L148.6 29h-.07l-2.59-6.32h-2.34l3.88 8.83-2.21 4.9h2.27l5.97-13.73h-2.41Zm-12.34 7.67c-.7 0-1.7-.36-1.7-1.24 0-1.13 1.24-1.56 2.3-1.56.96 0 1.41.2 1.99.49a2.64 2.64 0 0 1-2.59 2.3Zm.27-7.99c-1.58 0-3.2.7-3.88 2.23l1.93.8c.4-.8 1.18-1.06 1.98-1.06 1.13 0 2.27.67 2.29 1.87v.15a4.8 4.8 0 0 0-2.27-.56c-2.08 0-4.2 1.14-4.2 3.28 0 1.95 1.71 3.2 3.62 3.2 1.46 0 2.27-.65 2.78-1.42h.07v1.13h2.1v-5.59c0-2.59-1.93-4.03-4.42-4.03Zm-13.44 2.1h-3.1v-5h3.1a2.52 2.52 0 0 1 2.55 2.5c0 1.12-.93 2.5-2.55 2.5Zm-.06-7.03h-5.21V32h2.17v-5.52h3.04c2.41 0 4.78-1.75 4.78-4.52 0-2.78-2.37-4.53-4.78-4.53ZM97.13 30.35c-1.5 0-2.76-1.26-2.76-2.99 0-1.74 1.25-3.02 2.76-3.02 1.48 0 2.64 1.28 2.64 3.02 0 1.73-1.16 2.99-2.64 2.99Zm2.5-6.86h-.08a3.43 3.43 0 0 0-2.61-1.1 4.93 4.93 0 0 0-4.75 4.97 4.9 4.9 0 0 0 4.75 4.94c1.18 0 2.12-.52 2.6-1.13h.08v.72c0 1.9-1.01 2.9-2.64 2.9a2.74 2.74 0 0 1-2.5-1.76l-1.9.8a4.72 4.72 0 0 0 4.4 2.92c2.55 0 4.7-1.5 4.7-5.16v-8.9h-2.06v.8Zm3.56 8.51h2.18V17.43h-2.18V32Zm5.39-4.8a2.72 2.72 0 0 1 2.59-2.9c.86 0 1.6.43 1.84 1.05l-4.43 1.84Zm6.76-1.66c-.42-1.1-1.67-3.15-4.25-3.15-2.55 0-4.67 2-4.67 4.95 0 2.78 2.1 4.96 4.92 4.96a4.93 4.93 0 0 0 4.13-2.2l-1.69-1.12a2.83 2.83 0 0 1-2.44 1.37c-1.1 0-1.9-.5-2.4-1.5l6.62-2.75-.22-.56Zm-52.8-1.63V26h5.03a4.39 4.39 0 0 1-1.15 2.65 5.15 5.15 0 0 1-3.89 1.54c-3.1 0-5.52-2.5-5.52-5.6a5.52 5.52 0 0 1 9.32-4.1l1.48-1.47a7.34 7.34 0 0 0-5.28-2.13 7.8 7.8 0 0 0-7.8 7.7 7.8 7.8 0 0 0 7.8 7.7c2.3 0 4.02-.75 5.37-2.16a6.95 6.95 0 0 0 1.82-4.92c0-.49-.03-.94-.1-1.31h-7.09Zm12.9 6.44c-1.5 0-2.8-1.24-2.8-3 0-1.79 1.3-3.01 2.8-3.01 1.5 0 2.8 1.22 2.8 3 0 1.77-1.3 3-2.8 3Zm0-7.96a4.89 4.89 0 0 0-4.97 4.95 4.9 4.9 0 0 0 4.98 4.96 4.9 4.9 0 0 0 4.97-4.96 4.89 4.89 0 0 0-4.97-4.95Zm10.86 7.96c-1.5 0-2.8-1.24-2.8-3 0-1.79 1.3-3.01 2.8-3.01 1.5 0 2.8 1.22 2.8 3 0 1.77-1.3 3-2.8 3Zm0-7.96a4.89 4.89 0 0 0-4.98 4.95 4.9 4.9 0 0 0 4.98 4.96 4.9 4.9 0 0 0 4.98-4.96 4.89 4.89 0 0 0-4.98-4.95ZM56.55 5.06c-.28 0-.48.1-.6.32-.11.2-.18.58-.18 1.1.49 0 .85-.06 1.08-.2.23-.12.34-.34.34-.63a.56.56 0 0 0-.16-.43.71.71 0 0 0-.48-.16Zm-1.78 1.55c0-.77.14-1.36.43-1.76.28-.4.73-.6 1.34-.6.48 0 .86.12 1.15.38.29.26.43.6.43 1.02 0 .53-.19.93-.57 1.2-.38.27-.97.4-1.78.4v.54c0 .33-.02.61-.06.85h.07c.18-.3.43-.52.77-.7.33-.16.7-.24 1.12-.24.82 0 1.44.23 1.87.69.42.45.63 1.1.63 1.95a4.4 4.4 0 0 1-.84 2.57h-1.07c.59-.7.88-1.53.88-2.5 0-1.25-.53-1.89-1.6-1.89-.62 0-1.07.16-1.35.49-.28.32-.42.84-.42 1.57v2.33h-1v-6.3Zm9.36.23v.28a1 1 0 0 0 .22.63c.14.18.39.4.74.65.37.27.64.5.8.69a2.16 2.16 0 0 1 .52 1.42c0 .77-.25 1.38-.75 1.83-.5.46-1.18.68-2.03.68-.85 0-1.53-.2-2.01-.63a2.2 2.2 0 0 1-.73-1.76c0-.28.03-.58.1-.89h1.05c-.08.27-.12.57-.12.9 0 .5.14.88.43 1.15.28.27.72.4 1.3.4.54 0 .96-.14 1.27-.42a1.57 1.57 0 0 0 .22-1.96 3.4 3.4 0 0 0-.8-.8 3.66 3.66 0 0 1-.95-.92 1.92 1.92 0 0 1-.26-1.01v-.24h1Zm5.79 5.36c.54 0 .96-.21 1.27-.63.3-.42.46-1 .46-1.73 0-1.52-.58-2.28-1.75-2.28-.55 0-.97.2-1.25.59-.3.39-.44.96-.44 1.71 0 .76.14 1.34.43 1.74.28.4.7.6 1.28.6Zm-.02-7.12c-.38 0-.68.1-.9.27a.88.88 0 0 0-.33.73l.02.2-.99.01a1.52 1.52 0 0 1 .26-1.18c.19-.27.46-.48.8-.64.34-.15.73-.23 1.17-.23.89 0 1.58.39 2.07 1.16.5.78.74 1.88.74 3.32s-.23 2.52-.71 3.23c-.48.72-1.21 1.07-2.2 1.07-.83 0-1.48-.27-1.94-.82a3.48 3.48 0 0 1-.7-2.33c0-.99.22-1.76.67-2.3a2.29 2.29 0 0 1 1.87-.83c.87 0 1.49.28 1.87.86h.06c-.23-1.68-.81-2.52-1.76-2.52Zm9.93 1.65a2 2 0 0 1 1.7.81c.42.54.62 1.3.62 2.25a6.87 6.87 0 0 1-.72 3.12H80.4a6.67 6.67 0 0 0 .75-3.14c0-.72-.13-1.28-.38-1.65a1.17 1.17 0 0 0-1.02-.57c-.42 0-.74.14-.97.42a1.8 1.8 0 0 0-.35 1.18v.75h-.95v-.75c0-.51-.11-.9-.34-1.18-.23-.28-.56-.42-1-.42-.43 0-.77.19-1 .57-.25.37-.36.93-.36 1.66a6.7 6.7 0 0 0 .74 3.13H74.5a7.13 7.13 0 0 1-.72-3.13c0-.96.2-1.71.62-2.25s.99-.8 1.71-.8c.47 0 .85.1 1.15.28.3.2.52.49.67.88H78c.16-.4.4-.7.7-.88a2 2 0 0 1 1.12-.28Zm6.5 3.47V7.62c-.72.12-1.26.48-1.64 1.1a4.71 4.71 0 0 0-.56 2.46c0 1.17.23 2.06.7 2.69.46.62 1.13.93 2 .93.87 0 1.53-.3 2-.93.46-.62.7-1.52.7-2.69 0-1.04-.2-1.87-.57-2.48a2.24 2.24 0 0 0-1.63-1.1v2.62h-1Zm4.22.97c0 .92-.15 1.72-.45 2.39a3.4 3.4 0 0 1-3.28 2.08c-1.2 0-2.11-.4-2.75-1.17a5.06 5.06 0 0 1-.97-3.31c0-.82.13-1.55.38-2.18a3.32 3.32 0 0 1 2.85-2.22V4.3h1v2.45c1.01.1 1.8.54 2.37 1.32.57.77.85 1.8.85 3.1Zm3.11 3.63c.56 0 1-.17 1.3-.5.3-.33.46-.79.46-1.38 0-1.18-.72-1.77-2.15-1.77h-.77v-.84h.77c.6 0 1.06-.12 1.38-.36.31-.24.48-.59.48-1.04 0-.43-.13-.77-.37-1-.24-.24-.6-.36-1.06-.36-.93 0-1.4.4-1.4 1.2l.02.24-.97.01a2.65 2.65 0 0 1-.03-.32c0-.6.21-1.07.63-1.42.43-.36 1.01-.53 1.76-.53s1.35.18 1.77.54c.43.37.64.87.64 1.5 0 .5-.12.9-.36 1.22-.23.31-.6.54-1.1.7.56.14 1 .4 1.32.8.32.39.47.86.47 1.41 0 .84-.25 1.5-.77 2-.51.5-1.2.74-2.06.74-.85 0-1.5-.2-1.95-.61-.44-.4-.67-.99-.67-1.75 0-.26.04-.49.11-.7h1.02a1.85 1.85 0 0 0-.13.68c0 .51.14.9.42 1.15.29.26.7.38 1.24.38Zm3.56-4.93c0-.98.25-1.76.75-2.31.5-.56 1.19-.83 2.07-.83.86 0 1.54.28 2.04.84.5.56.76 1.33.76 2.3a6.5 6.5 0 0 1-.23 1.69c-.16.55-.36 1-.61 1.35h-1.07a5.2 5.2 0 0 0 .88-3.04c0-.76-.16-1.33-.46-1.72-.3-.4-.75-.59-1.34-.59-.58 0-1.02.2-1.31.59-.3.39-.45.96-.45 1.72 0 1.17.3 2.19.87 3.04h-1.07a4.38 4.38 0 0 1-.6-1.32 6.1 6.1 0 0 1-.23-1.72Zm8.4-3.07a2 2 0 0 1 .58-.07c.92 0 1.52.39 1.82 1.16h.06c.17-.4.4-.7.7-.89.3-.18.67-.27 1.13-.27a2 2 0 0 1 1.7.81c.41.54.62 1.3.62 2.25a6.9 6.9 0 0 1-.73 3.12h-1.01a6.65 6.65 0 0 0 .75-3.14c0-.7-.13-1.25-.37-1.64a1.15 1.15 0 0 0-1.03-.58c-.42 0-.74.14-.97.42a1.8 1.8 0 0 0-.35 1.18v.75h-.95v-.75c0-.51-.11-.9-.34-1.18-.23-.28-.56-.42-1-.42-.42 0-.75.19-1 .55-.24.37-.37.93-.37 1.68a6.71 6.71 0 0 0 .75 3.13h-1.02a6.67 6.67 0 0 1-.72-3.04c0-.96.12-1.76.37-2.41.25-.65.62-1.2 1.11-1.63.5-.44 1.13-.8 1.9-1.07.78-.27 1.7-.46 2.8-.57l.1.86a9.55 9.55 0 0 0-2.68.55c-.78.3-1.4.68-1.85 1.16v.04Zm11.31 3c0-.8-.1-1.37-.29-1.72-.2-.35-.53-.53-1.02-.53-.44 0-.78.2-1.02.6-.23.38-.35.94-.35 1.67 0 .77.1 1.36.34 1.76.22.4.56.6 1 .6.46 0 .8-.19 1.02-.59.21-.4.32-.99.32-1.78Zm1 0a4.1 4.1 0 0 1-.59 2.4c-.4.55-.98.82-1.77.82-.76 0-1.34-.27-1.73-.8a4.05 4.05 0 0 1-.59-2.39c0-.97.2-1.72.6-2.28.4-.55.99-.82 1.73-.82.46 0 .83.09 1.13.27.3.18.53.48.7.9h.06c.16-.41.4-.7.7-.9.29-.18.66-.27 1.12-.27.73 0 1.3.27 1.71.81.4.54.61 1.3.61 2.25a6.84 6.84 0 0 1-.72 3.12h-1.02a6.65 6.65 0 0 0 .75-3.14c0-.69-.13-1.23-.37-1.63-.24-.4-.59-.59-1.03-.59-.44 0-.77.15-.98.45-.2.3-.3.75-.3 1.36v.44Zm7.12 5.84c-.91 0-1.6-.23-2.06-.67-.46-.45-.7-1.1-.7-1.96 0-.37.05-.68.14-.94h1.02a3.27 3.27 0 0 0-.16.93c0 .6.15 1.05.44 1.35.29.3.73.44 1.33.44.64 0 1.1-.2 1.38-.62.28-.42.42-1.08.42-2v-2.01c0-.92-.14-1.58-.42-1.99-.28-.4-.74-.6-1.39-.6-.46 0-.82.14-1.08.42a1.7 1.7 0 0 0-.39 1.18c0 .19.02.33.03.43h-.97a2.54 2.54 0 0 1 .28-1.71c.2-.37.5-.66.88-.86.38-.2.8-.3 1.3-.3 1.84 0 2.76 1.14 2.76 3.43v2c0 1.16-.23 2.03-.7 2.61-.46.58-1.17.87-2.1.87Zm7.68-5.84c0-.8-.1-1.37-.3-1.72-.19-.35-.53-.53-1.01-.53-.44 0-.78.2-1.02.6-.24.38-.36.94-.36 1.67 0 .77.12 1.36.34 1.76.23.4.57.6 1.02.6.45 0 .8-.19 1-.59.22-.4.33-.99.33-1.78Zm1 0a4.1 4.1 0 0 1-.6 2.4c-.39.55-.97.82-1.76.82-.77 0-1.34-.27-1.73-.8a4.05 4.05 0 0 1-.6-2.39c0-.97.21-1.72.62-2.28a2 2 0 0 1 1.72-.82c.46 0 .83.09 1.13.27.3.18.53.48.7.9h.05c.17-.41.4-.7.7-.9.3-.18.67-.27 1.13-.27.73 0 1.3.27 1.71.81.4.54.61 1.3.61 2.25a6.84 6.84 0 0 1-.72 3.12h-1.02a6.65 6.65 0 0 0 .75-3.14c0-.69-.13-1.23-.37-1.63-.25-.4-.59-.59-1.03-.59-.44 0-.77.15-.98.45-.2.3-.3.75-.3 1.36v.44ZM54.87 43.82v-.93h2.9v.93h-2.9Zm9.7-.54c0 .85.11 1.48.34 1.9.23.42.59.62 1.07.62.47 0 .83-.21 1.07-.64a3.9 3.9 0 0 0 .36-1.87c0-.77-.12-1.37-.37-1.78-.25-.41-.58-.62-1.01-.62-.53 0-.9.18-1.13.55-.22.36-.33.97-.33 1.84Zm-4.96.03a4 4 0 0 1 .64-2.42 2.13 2.13 0 0 1 1.82-.87c.98 0 1.62.41 1.93 1.24h.06c.19-.43.44-.75.74-.94.31-.2.7-.3 1.2-.3.77 0 1.38.29 1.81.87.44.58.65 1.39.65 2.42 0 1.1-.2 1.93-.62 2.51-.42.58-1.03.87-1.84.87-.83 0-1.45-.29-1.87-.87a4.31 4.31 0 0 1-.62-2.55v-.47c0-.61-.11-1.08-.32-1.41-.22-.33-.56-.5-1.05-.5-.47 0-.83.21-1.09.63a3.42 3.42 0 0 0-.38 1.79c0 .72.08 1.31.26 1.77.17.45.44.84.8 1.17.37.33.85.59 1.45.78.52.17.95.34 1.3.51.34.18.62.37.84.58.22.2.43.5.64.86l-.84.47a2.55 2.55 0 0 0-1.05-1.08c-.47-.27-.99-.4-1.56-.4a3.88 3.88 0 0 0-2.04.55l-.37-.86a5.93 5.93 0 0 1 1.51-.5 3.74 3.74 0 0 1-1.5-1.53c-.33-.63-.5-1.4-.5-2.32Zm13.07-3.17v.3c0 .25.08.47.23.66.15.2.42.43.8.7.39.27.67.51.85.72a2.29 2.29 0 0 1 .54 1.5c0 .82-.26 1.47-.8 1.95-.53.48-1.25.72-2.15.72a3.2 3.2 0 0 1-2.13-.67 2.34 2.34 0 0 1-.77-1.86c0-.3.03-.62.1-.95h1.12c-.09.29-.13.6-.13.96 0 .53.15.93.46 1.21.3.28.76.42 1.38.42.56 0 1.01-.15 1.34-.45a1.62 1.62 0 0 0 .24-2.07 3.58 3.58 0 0 0-.86-.84 3.8 3.8 0 0 1-1-.98c-.18-.3-.27-.65-.27-1.07v-.25h1.05Zm6.28.76c-.61 0-1.08.2-1.4.6-.33.4-.5.97-.5 1.74 0 .84.17 1.48.49 1.92.32.44.78.66 1.4.66.62 0 1.09-.21 1.4-.63.33-.41.48-1.03.48-1.85 0-.8-.15-1.4-.47-1.82-.31-.41-.78-.62-1.4-.62Zm.33-2.56c-.64 0-1.14.2-1.5.61-.34.41-.58 1.1-.71 2.04h.06c.24-.33.52-.58.84-.73.31-.15.7-.23 1.14-.23.89 0 1.58.3 2.07.87.5.59.74 1.4.74 2.45 0 1.08-.26 1.9-.78 2.48-.52.57-1.26.86-2.22.86a2.9 2.9 0 0 1-1.72-.46c-.42-.3-.73-.77-.93-1.4a8.1 8.1 0 0 1-.3-2.39c0-1.65.26-2.89.8-3.73a2.63 2.63 0 0 1 2.37-1.26h2.08v.89H79.3Z" fill="#fff"/>
</svg>
