<svg width="270" height="80" fill="none" xmlns="http://www.w3.org/2000/svg">
  <g clip-path="url(#a)">
    <mask id="b" style="mask-type:luminance" maskUnits="userSpaceOnUse" x="-21" y="-20" width="311" height="121">
      <path d="M-20-20h310v120H-20V-20Z" fill="#fff"/>
    </mask>
    <g mask="url(#b)">
      <path d="M260 80H10A10 10 0 0 1 0 70V10A10 10 0 0 1 10 0h250a10 10 0 0 1 10 10v60a10 10 0 0 1-10 10Z" fill="#000"/>
    </g>
    <mask id="c" style="mask-type:luminance" maskUnits="userSpaceOnUse" x="-21" y="-20" width="311" height="121">
      <path d="M-20-20h310v120H-20V-20Z" fill="#fff"/>
    </mask>
    <g mask="url(#c)">
      <path d="M213.9 60h3.7V35h-3.7v25Zm33.6-16-4.3 10.8h-.1L238.6 44h-4l6.7 15.2-3.8 8.4h3.9L251.6 44h-4.1Zm-21.2 13.2c-1.2 0-3-.6-3-2.2 0-1.9 2.2-2.6 4-2.6 1.7 0 2.5.3 3.5.8-.3 2.3-2.3 4-4.5 4Zm.5-13.7c-2.7 0-5.5 1.1-6.7 3.8l3.3 1.4c.7-1.4 2-1.9 3.4-1.9 2 0 4 1.2 4 3.3v.2c-.7-.4-2.2-1-4-1-3.5 0-7.1 2-7.1 5.7 0 3.3 2.9 5.5 6.2 5.5 2.5 0 3.9-1.2 4.7-2.5h.2v2h3.6v-9.6c0-4.5-3.3-7-7.6-7Zm-23 3.5h-5.4v-8.5h5.3c2.8 0 4.4 2.3 4.4 4.3 0 1.9-1.6 4.2-4.4 4.2Zm-.2-12h-9v25h3.8v-9.5h5.2c4.1 0 8.2-3 8.2-7.7 0-4.8-4-7.8-8.2-7.8Zm-48.8 22.2c-2.5 0-4.7-2.2-4.7-5.2s2.2-5.1 4.8-5.1c2.5 0 4.5 2.1 4.5 5.1 0 3-2 5.2-4.6 5.2Zm4.3-11.8c-1-1-2.5-1.9-4.6-1.9a8.5 8.5 0 0 0-8.1 8.5c0 4.8 3.9 8.5 8.1 8.5 2 0 3.7-.9 4.5-2h.1v1.3c0 3.3-1.7 5-4.5 5a4.7 4.7 0 0 1-4.3-3l-3.2 1.3a8 8 0 0 0 7.5 5c4.4 0 8-2.5 8-8.8V44h-3.5v1.4Zm6.2 14.6h3.7V35h-3.7v25Zm9.2-8.2c0-3.3 2.6-5 4.4-5 1.5 0 2.8.7 3.2 1.8l-7.6 3.2Zm11.6-2.9c-.7-1.9-2.9-5.4-7.3-5.4s-8 3.5-8 8.5c0 4.8 3.6 8.5 8.4 8.5 4 0 6.2-2.4 7.1-3.8l-2.9-1.9a4.9 4.9 0 0 1-4.2 2.4c-1.9 0-3.2-.9-4-2.6l11.3-4.7-.4-1Zm-90.6-2.8v3.6h8.6c-.2 2-1 3.5-2 4.6a8.8 8.8 0 0 1-6.6 2.6 9.5 9.5 0 0 1-9.5-9.6 9.5 9.5 0 0 1 16-7l2.5-2.6c-2.1-2-5-3.6-9-3.6-7.3 0-13.4 6-13.4 13.2 0 7.3 6.1 13.2 13.4 13.2 4 0 6.9-1.3 9.2-3.7a12 12 0 0 0 3.1-8.4c0-.9 0-1.6-.2-2.3H95.5Zm22.1 11c-2.5 0-4.8-2-4.8-5 0-3.2 2.3-5.2 4.8-5.2 2.6 0 4.8 2 4.8 5.1 0 3-2.2 5.2-4.8 5.2Zm0-13.6a8.4 8.4 0 0 0-8.5 8.5c0 5 3.8 8.5 8.5 8.5 4.8 0 8.6-3.6 8.6-8.5 0-5-3.9-8.5-8.6-8.5Zm18.7 13.7c-2.6 0-4.8-2.2-4.8-5.2s2.2-5.1 4.8-5.1c2.5 0 4.8 2 4.8 5.1 0 3-2.3 5.2-4.8 5.2Zm0-13.7a8.4 8.4 0 0 0-8.6 8.5c0 5 3.9 8.5 8.6 8.5 4.7 0 8.5-3.6 8.5-8.5 0-5-3.8-8.5-8.5-8.5Z" fill="#fff"/>
    </g>
    <mask id="d" style="mask-type:luminance" maskUnits="userSpaceOnUse" x="-21" y="-20" width="311" height="121">
      <path d="M-20-20h310v120H-20V-20Z" fill="#fff"/>
    </mask>
    <g mask="url(#d)">
      <path d="M41.4 38.8 20.1 61.4a5.7 5.7 0 0 0 8.5 3.5l24-13.8-11.2-12.3Z" fill="#EA4335"/>
    </g>
    <mask id="e" style="mask-type:luminance" maskUnits="userSpaceOnUse" x="-21" y="-20" width="311" height="121">
      <path d="M-20-20h310v120H-20V-20Z" fill="#fff"/>
    </mask>
    <g mask="url(#e)">
      <path d="m63 35-10.4-6L41 39.4 52.7 51l10.2-6a5.8 5.8 0 0 0 .1-10Z" fill="#FBBC04"/>
    </g>
    <mask id="f" style="mask-type:luminance" maskUnits="userSpaceOnUse" x="-21" y="-20" width="311" height="121">
      <path d="M-20-20h310v120H-20V-20Z" fill="#fff"/>
    </mask>
    <g mask="url(#f)">
      <path d="M20.1 18.6 20 20v40l.2 1.5 22-22-22-21Z" fill="#4285F4"/>
    </g>
    <mask id="g" style="mask-type:luminance" maskUnits="userSpaceOnUse" x="-21" y="-20" width="311" height="121">
      <path d="M-20-20h310v120H-20V-20Z" fill="#fff"/>
    </mask>
    <g mask="url(#g)">
      <path d="m41.6 40 11-11-24-13.9a5.8 5.8 0 0 0-8.5 3.4L41.6 40Z" fill="#34A853"/>
    </g>
    <path d="M86.3 25.8c-1.1 0-2-.2-2.6-.6-.6-.5-.9-1.2-.9-2.1v-1.3h2V23c0 .5 0 .8.3 1 .3.3.7.4 1.2.4.6 0 1 0 1.2-.3.3-.3.5-.6.5-1.1v-1.3l-3.2-.7a5 5 0 0 1-1.8-1.1 2.6 2.6 0 0 1-.2-3c.3-.5.7-.8 1.3-1a5 5 0 0 1 2.3-.4c1 0 1.7 0 2.3.3.6.2 1 .6 1.3 1 .2.3.4.8.4 1.3v.4h-1.9v-.4c0-.4-.2-.7-.5-1-.3-.2-.9-.3-1.6-.3-.8 0-1.3.1-1.6.4-.3.2-.5.6-.5 1s.1.8.4 1c.3.3.7.5 1.2.7l2.1.5c.1-.3.3-.5.5-.6l.7-.2c.2 0 .4 0 .6.2.2 0 .3.2.4.4l.2.5c0 .3 0 .5-.2.7a1 1 0 0 1-.4.4V23c0 .9-.2 1.6-.8 2-.6.5-1.5.7-2.7.7Zm7.5 0V18c0-.4-.1-.7-.3-.9l-1-.2h-2.3v-1.3h3.2c.6 0 1 0 1.4.2.3.2.6.5.7.8l.2 1.2v8h-2Zm15.2 4.3a4.8 4.8 0 0 1-2.3-.5l-1-.6-1-.4-1.3-.2h-4.8v-1.2h3.5a14.3 14.3 0 0 1 3.2.4l1.2.5a10 10 0 0 0 1.7.7l.8.2c.4 0 .8-.2 1-.4.2-.2.3-.5.3-.9h-1.1v-1h2.9v.3a3 3 0 0 1-.4 1.7c-.2.4-.6.8-1 1a3 3 0 0 1-1.7.4Zm-3-13.6 1-.7c.5-.2 1-.3 1.7-.3a4 4 0 0 1 2 .4c.5.2.9.6 1 1 .3.4.4.9.4 1.4v7.5h-1.9v-7.5c0-.4-.1-.8-.5-1-.2-.3-.7-.5-1.3-.5-.5 0-.9.1-1.2.3a4 4 0 0 0-.8.5l-.4-1Zm-7.4 5.2v-3.8c0-.4 0-.8.2-1.1.1-.4.3-.7.6-.9.3-.2.7-.3 1.3-.3.3 0 .6 0 1 .3l.9.8c.3-.4.6-.7 1-.8.3-.2.6-.3 1-.3.5 0 .9 0 1.2.3l.6.9.1 1.1v8h-1.8v-8c0-.3 0-.5-.2-.7l-.4-.2c-.2 0-.3 0-.4.2a2 2 0 0 0-.4.3l-.4.4-.3.2c-.2 0-.3 0-.4-.2-.2 0-.3-.2-.4-.4l-.4-.3a.6.6 0 0 0-.4-.2c-.2 0-.3 0-.4.2l-.1.7v3.8h-2Zm0-.2h1.9v.4l1 .2.6.6c.2.3.3.7.3 1.1a2 2 0 0 1-.6 1.5 2 2 0 0 1-1.4.5h-.6c-.4 0-.6 0-.9-.2-.2-.2-.3-.5-.3-.8v-3.3Zm1.9 3.1h.3l.3-.3v-.9a.7.7 0 0 0-.6-.2v1.4Zm28-5.4v3.9c0 .8-.3 1.5-1 2-.5.5-1.5.7-2.8.7-.6 0-1.1 0-1.6-.2a3 3 0 0 1-1-.6h-.1l-.8.5-1 .2-1.2.1c-1 0-1.8 0-2.4-.3-.6-.2-1-.6-1.3-1-.3-.4-.4-.9-.4-1.4v-6.6c0-.6.4-1 1.3-1h1.7V17l-.8.1c-.2 0-.3.2-.3.3V23c0 .5.1.9.5 1.2.3.2.8.3 1.6.3l1.2-.1c.3-.1.6-.3.7-.5.2-.3.2-.5.2-.9v-3.8h1.9V23c0 .5.2.9.5 1.2.3.2.8.3 1.3.3.7 0 1.1-.1 1.4-.3.3-.3.5-.7.5-1.2v-3.8h1.9Zm-2 .3v-.7a17 17 0 0 0-1-1.3V17l.4-.5.7-1h2.3V17h-2l1.6 1.8v.8h-2Zm-5.5 0v-.7a27.2 27.2 0 0 0-1-1.3l-.1-.3V17l.4-.5.7-1h2.3V17h-2l1.6 1.8v.8H121Zm10.4-2.6v-1.3h8v1.3h-8Zm0 9v-5.1c0-1 .3-1.6 1-2.1s1.7-.7 3-.7 2.3.2 3 .7c.6.5 1 1.2 1 2.1v5h-2v-5c0-.5-.1-.9-.4-1.1-.4-.3-1-.4-1.6-.4-.7 0-1.2.1-1.6.4-.3.2-.5.6-.5 1.1v5h-2Zm12.2-10.3h1.3v1.3h-1.3v-1.3Zm-.6 4V19a101.9 101.9 0 0 1-1.6-1.7l.1-.3a19 19 0 0 1 1-1.3h.8l.5-.1.1-.4v-1h2v1.2c0 .4-.2.6-.3.9-.1.2-.4.4-.7.5l-1.1.2h-.8l2 1.8v1h-2Zm2-.3v5.2c0 .5-.2.8-.4 1-.2.2-.5.3-1 .3h-.5l-1-.1-.7-.6a2 2 0 0 1-.3-1.2c0-.4 0-.8.3-1 .2-.3.5-.6.8-.7l.8-.2v-2.7h2Zm-2 5.3v-1.4a1 1 0 0 0-.4.2c-.2 0-.3.3-.3.5 0 .3 0 .5.2.6l.5.1Zm5.1 1.2V18c0-.4 0-.7-.2-.9l-1-.2h-2.4v-1.3h3.2c.6 0 1.1 0 1.4.2.4.2.6.5.7.8.2.3.2.7.2 1.2v8h-1.9Zm6.7-6.5v5.1l.5.1h.7v1.3h-1.9c-.4 0-.7 0-1-.2a.7.7 0 0 1-.2-.6v-5.7h1.9Zm-2 .2v-.7a17 17 0 0 0-1-1.3V17l.4-.5.7-1h2.2V17h-2l1.7 1.8v.8h-2Zm4.8 6.3v-4.3h1.9V23a3 3 0 0 1 1.6.5l.6.4.6.5.6.2.4-.1.4-.5.2-.7a1.5 1.5 0 0 0-.7-1.3c-.3-.2-.6-.3-1-.3l-2-.5-1.4-.7a3 3 0 0 1-.9-1c-.2-.3-.3-.6-.3-1 0-.6.1-1.1.4-1.5.3-.4.7-.8 1.3-1 .6-.2 1.3-.3 2.3-.3 1 0 1.7 0 2.3.3.6.2 1 .5 1.2.8.3.3.4.7.4 1.1 0 .4 0 .7-.2 1l-.7.6a3 3 0 0 1-1.5.3h-.2v-1.1l.4-.1.3-.3v-.4l-.1-.4-.7-.4-1.1-.1c-.8 0-1.4.1-1.7.4-.4.2-.5.6-.5 1s0 .7.3 1l1 .6 1.6.4c.8.1 1.4.4 2 .6.4.3.8.6 1 1 .2.4.4.8.4 1.3 0 .6-.2 1-.4 1.4l-1 1-1.3.2a2 2 0 0 1-1.1-.2 7 7 0 0 1-.9-.6 10 10 0 0 0-1-.7l-.6-.1v1.6h-1.9Zm12.8-10.6h-1.9v-2.9l-.6-.1h-1v-1.3h1.9c.4 0 .8 0 1 .2.2.1.4.3.5.6l.1 1v2.5Zm-1.6 10.6V18c0-.4 0-.7-.3-.9l-1-.2H165v-1.3h3.3c.6 0 1 0 1.4.2.3.2.6.5.7.8l.2 1.2v8h-1.9Zm6.6-6.5v4.6l.1.5.4.1h.8v1.3h-1.9c-.4 0-.7 0-1-.2a.7.7 0 0 1-.3-.6v-5.7h2Zm-1.9.2v-.7a17 17 0 0 0-1-1.3l-.1-.3V17l.4-.5.7-1h2.3V17h-2l1.6 1.8v.8h-1.9Zm17.8-.3v3.9c0 .9-.3 1.6-.9 2-.6.5-1.5.7-2.8.7-2.5 0-3.7-.9-3.7-2.7v-4.7c0-.5-.2-.9-.5-1.1-.3-.3-.8-.4-1.4-.4-.6 0-1 .1-1.4.4-.3.2-.5.6-.5 1v3.4h-1.9v-3.4c0-1.8 1.3-2.7 3.8-2.7s3.8.9 3.8 2.7V23c0 .5.1.9.5 1.1.3.3.7.4 1.3.4.6 0 1.1-.1 1.4-.4.3-.2.4-.6.4-1.1v-3.8h2Zm-13 2.3h1.8v.4l1 .2.7.6c.2.3.3.7.3 1.1a2 2 0 0 1-.6 1.5 2 2 0 0 1-1.4.5h-.6c-.4 0-.7 0-1-.2-.1-.2-.3-.5-.3-.8v-3.3Zm1.8 3.1h.4l.3-.3v-.5l-.1-.4a.7.7 0 0 0-.6-.2v1.4Zm9.3-5v-.8a27.2 27.2 0 0 0-1-1.3V17l.3-.5.7-1h2.3V17h-2l1.6 1.8v.8h-1.9Zm1.4-5.2h-1.3v-3.9h1.3v3.9Zm-6.4 0c-.3 0-.6-.1-.7-.3-.2-.2-.3-.6-.3-1s.2-.8.4-1.1a2 2 0 0 1 .9-.8c.4-.2.9-.3 1.5-.3a6.8 6.8 0 0 1 3.7 1.4l1 .8v1.3h-6.5Zm.5-1.2h4a5.4 5.4 0 0 0-2.8-1.1c-.3 0-.7.1-.9.3-.2.1-.3.4-.3.8Z" fill="#fff"/>
  </g>
  <defs>
    <clipPath id="a">
      <path fill="#fff" transform="matrix(1 0 0 -1 0 80)" d="M0 0h270v80H0z"/>
    </clipPath>
  </defs>
</svg>
