<svg width="180" height="54" fill="none" xmlns="http://www.w3.org/2000/svg">
  <path d="M173.3 54H6.7A6.7 6.7 0 0 1 0 47.2V6.8C0 3 3 0 6.7 0h166.6a6.7 6.7 0 0 1 6.7 6.8v40.5c0 3.7-3 6.7-6.7 6.7Z" fill="#000"/>
  <path d="M27.6 26.2 13.4 41.5a3.8 3.8 0 0 0 5.7 2.3l16-9.3-7.5-8.3Z" fill="#EA4335"/>
  <path d="m42 23.6-7-4-7.7 7 7.8 7.9 6.9-4a3.9 3.9 0 0 0 2-3.5 4 4 0 0 0-2-3.4Z" fill="#FBBC04"/>
  <path d="M13.4 12.5a3.7 3.7 0 0 0-.1 1v27l.1 1 14.7-14.9-14.7-14Z" fill="#4285F4"/>
  <path d="m27.7 27 7.4-7.4-16-9.4a3.9 3.9 0 0 0-5.7 2.3L27.7 27Z" fill="#34A853"/>
  <path d="M131.5 26.7h2.2V12h-2.2v14.6Zm19.6-9.3-2.5 6.3-2.6-6.3h-2.4l3.9 8.8-2.2 4.9h2.2l6-13.8h-2.4ZM138.8 25c-.7 0-1.7-.3-1.7-1.2 0-1.2 1.2-1.6 2.3-1.6 1 0 1.4.2 2 .5a2.6 2.6 0 0 1-2.6 2.3Zm.2-8c-1.5 0-3.2.7-3.8 2.2l1.9.9c.4-.9 1.2-1.1 2-1.1 1.1 0 2.2.7 2.3 1.9v.1a4.8 4.8 0 0 0-2.3-.6c-2 0-4.2 1.2-4.2 3.3 0 2 1.7 3.2 3.6 3.2a3 3 0 0 0 2.8-1.4v1.1h2.2V21c0-2.5-2-4-4.5-4Zm-13.4 2.1h-3.1v-5h3.1a2.5 2.5 0 0 1 2.6 2.5c0 1.1-1 2.5-2.6 2.5Zm0-7h-5.3v14.6h2.2V21h3c2.5 0 4.8-1.7 4.8-4.5S128 12 125.5 12ZM97 25c-1.5 0-2.7-1.3-2.7-3s1.2-3 2.7-3c1.5 0 2.7 1.3 2.7 3s-1.2 3-2.7 3Zm2.5-6.8a3.4 3.4 0 0 0-2.7-1.2 5 5 0 0 0-4.7 5 4.9 4.9 0 0 0 4.7 5c1.2 0 2.2-.6 2.6-1.2h.1v.7c0 2-1 3-2.6 3a2.7 2.7 0 0 1-2.5-1.8l-2 .8c.6 1.3 2 3 4.5 3s4.7-1.6 4.7-5.3v-8.9h-2v.8Zm3.6 8.4h2.2V12.1h-2.2v14.6Zm5.4-4.8a2.7 2.7 0 0 1 2.6-2.9c.8 0 1.6.5 1.8 1.1l-4.4 1.8Zm6.7-1.6c-.4-1.1-1.6-3.2-4.2-3.2s-4.7 2-4.7 5c0 2.8 2.1 5 5 5a5 5 0 0 0 4-2.2l-1.6-1.2a2.8 2.8 0 0 1-2.5 1.4c-1 0-1.9-.5-2.4-1.5l6.7-2.7-.3-.6Zm-52.8-1.6v2h5a4.4 4.4 0 0 1-1 2.7 5.2 5.2 0 0 1-4 1.5 5.5 5.5 0 0 1-5.5-5.6 5.5 5.5 0 0 1 9.3-4l1.5-1.5a7.3 7.3 0 0 0-5.3-2.1 7.8 7.8 0 0 0-7.8 7.7 7.8 7.8 0 0 0 7.8 7.7 7 7 0 0 0 5.4-2.2 7 7 0 0 0 1.8-5v-1.2h-7.2Zm13 6.4c-1.6 0-2.9-1.2-2.9-3s1.3-3 2.8-3c1.5 0 2.8 1.2 2.8 3s-1.3 3-2.8 3Zm0-8a4.9 4.9 0 0 0-5 5 4.9 4.9 0 0 0 5 5 4.9 4.9 0 0 0 5-5 4.9 4.9 0 0 0-5-5Zm10.8 8c-1.5 0-2.8-1.2-2.8-3s1.3-3 2.8-3c1.5 0 2.8 1.2 2.8 3s-1.3 3-2.8 3Zm0-8a4.9 4.9 0 0 0-5 5 4.9 4.9 0 0 0 5 5 4.9 4.9 0 0 0 5-5 4.9 4.9 0 0 0-5-5ZM59.7 40.7l-.9-2.4-.3-1.2-.4 1.2-.9 2.4h2.5ZM61 44l-1-2.4h-3L56 44h-1l3-7.9h1l3 7.9h-1Z" fill="#fff"/>
  <path d="M59.7 40.7h.1l-.8-2.4-.6-1.6v.4l-.4 1.2h.1l-1 2.5h2.8v-.1h-.2v-.1h-2.3l.9-2.2.3-1.2h-.3l.4 1.1.9 2.4h.1ZM61 44l-.9-2.6h-3.3l-1 2.5h-.6l3-7.7h.6l3 7.7H61v.2h1.2L59 36h-1l-3.2 8H56l.9-2.4h3l.9 2.4Zm3.4-3.9h.8a3 3 0 0 0 1.7-.4c.3-.2.5-.6.5-1.2 0-.5-.2-.9-.5-1.1-.3-.3-.8-.4-1.5-.4h-1v3Zm4-1.6c0 .8-.2 1.4-.8 1.8a3.7 3.7 0 0 1-2.3.6h-1V44h-.9v-7.8h2c2 0 3 .7 3 2.2Z" fill="#fff"/>
  <path d="M64.4 40.1v.1h.8c.8 0 1.4-.1 1.8-.4.4-.3.5-.7.5-1.3 0-.5-.1-1-.5-1.2-.4-.3-1-.4-1.6-.4h-1.2v3.3h.2v-.1h.1v-3h.9c.7 0 1.1.2 1.4.4.3.2.5.5.5 1s-.2.9-.5 1.1c-.3.2-.9.4-1.6.4h-.8v.1Zm4-1.6h-.1c0 .7-.3 1.3-.8 1.7-.5.4-1.2.6-2.2.6h-1v3h-.8v-7.5h2c1 0 1.7.2 2.1.5.5.4.7 1 .7 1.7h.3c0-.8-.3-1.5-.8-1.9a4 4 0 0 0-2.3-.6h-2.2v8.1h1.2v-3h.8c1 0 1.8-.2 2.4-.7.6-.5.9-1.1.9-2h-.2Zm6.9 4.6h1v3h-1V44h-.6L72 40.2l-.8.7V44h-1v-7.8h1V40l.7-.7 2.8-3.2h1.1a615.8 615.8 0 0 1-3 3.5l2.6 3.5Z" fill="#fff"/>
  <path d="M75.3 43.1v.1h.8V46h-.7v-2h-.6l-2.9-4-.9.8v3h-.7v-7.6h.7v4l.9-1 2.8-3h1V36l-3.2 3.4 2.7 3.8V43h.1l-2.6-3.6v.2a591.7 591.7 0 0 0 3.1-3.5l.2-.2h-1.5l-2.8 3.2-.5.5V36H70v8.1h1.3V41l.6-.6 2.8 3.7h.5v2h1.2V43h-1.1v.1Zm9.7.9h-1v-7.8h1V44Zm-6.3-.8H80c.6 0 1-.2 1.4-.4.3-.2.4-.6.4-1.1 0-.5-.1-.8-.5-1-.3-.3-.8-.4-1.5-.4h-1v2.9Zm4.1-1.5c0 .7-.2 1.3-.7 1.7-.4.4-1.1.6-2 .6h-2.4v-7.8h1v3.3H80c1 0 1.7.1 2.2.5.5.4.7 1 .7 1.7Z" fill="#fff"/>
  <path d="M85 44v-.1h-.8v-7.6h.7V44h.3v-8h-1.3v8.1h1.3V44H85Zm-6.3-.8H80c.6 0 1.1 0 1.4-.3.4-.3.5-.7.5-1.2s-.1-.9-.5-1.2c-.3-.2-.8-.3-1.6-.3h-1.2v3.1h.1v-.1h.2v-2.7h1c.6 0 1.1 0 1.4.3.2.2.4.4.4.9s-.1.8-.4 1c-.3.2-.7.3-1.3.3h-1.3v.2Zm4.1-1.5c0 .7-.3 1.2-.7 1.6a3 3 0 0 1-2 .6h-2.2v-7.6h.7v3.3h1.3c1 0 1.7.2 2.1.5.5.4.7.9.7 1.6h.3a2.1 2.1 0 0 0-.8-1.8 3.7 3.7 0 0 0-2.3-.6h-1V36h-1.3v8.1h2.5c.9 0 1.6-.2 2.1-.6.5-.4.8-1 .8-1.8h-.2ZM93.2 44h-1v-7h-2.5l-.2 1.3a49 49 0 0 1-.6 3.8 3.6 3.6 0 0 1-.6 1.6c-.3.3-.7.4-1.1.4l-.8-.1v-.8l.6.1c.3 0 .6-.2.7-.5a145.6 145.6 0 0 0 1.1-6.6h4.4V44Z" fill="#fff"/>
  <path d="M93.2 44v-.1h-.9v-7h-2.7l-.2 1.4a49 49 0 0 1-.6 3.8 3.5 3.5 0 0 1-.6 1.5c-.3.3-.6.4-1 .4l-.7-.1v-.7h-.1c.2.2.4.2.7.2.3 0 .6-.2.8-.6l.5-2.4.6-4.2h-.1H93V44h.3v-8h-4.6v.1l-.6 4.2a11.6 11.6 0 0 1-.5 2.4c-.2.3-.3.5-.5.5s-.4 0-.6-.2h-.2v1l.1.1.8.2c.5 0 .9-.2 1.2-.5.3-.4.5-1 .7-1.7l.5-3.8.2-1.1H92v7h1.3V44h-.1Zm9.5 0h-1v-7.8h1V44Zm-6.3-.8h1.2c.6 0 1.1-.2 1.4-.4.3-.2.5-.6.5-1.1 0-.5-.2-.8-.5-1-.3-.3-.8-.4-1.5-.4h-1.1v2.9Zm4-1.5c0 .7-.2 1.3-.6 1.7-.5.4-1.2.6-2.1.6h-2.3v-7.8h1v3.3h1.2c1 0 1.6.1 2.1.5s.8 1 .8 1.7Z" fill="#fff"/>
  <path d="M102.7 44v-.1h-.9v-7.6h.7V44h.3v-8h-1.2v8.1h1.2V44h-.1Zm-6.3-.8h1.2c.7 0 1.1 0 1.5-.3.3-.3.5-.7.5-1.2s-.2-.9-.5-1.2c-.4-.2-1-.3-1.6-.3h-1.3v3.1h.2v-2.8h1c.8 0 1.2 0 1.5.3s.4.4.4.9-.1.8-.4 1c-.2.2-.7.3-1.3.3h-1.2v.2Zm4-1.5c0 .7-.3 1.2-.7 1.6-.4.4-1.1.6-2 .6h-2.2v-7.6h.7v3.3h1.4c.9 0 1.6.2 2 .5.5.4.7.9.8 1.6h.2c0-.8-.3-1.4-.8-1.8a3.7 3.7 0 0 0-2.2-.6h-1.1V36h-1.3v8.1h2.5c1 0 1.7-.2 2.2-.6.5-.4.7-1 .7-1.8h-.1Zm9.4-1.7-3-3.9h1l3 3.8v-3.8h1V40l3-3.8h1l-3 3.8 3.2 4h-1.2l-3-4v4h-1v-4l-3 4h-1.2l3.2-4Z" fill="#fff"/>
  <path d="M109.8 40v-.1l-2.8-3.6h.7l3.2 4v-4h.7v4l3.2-4h.8l-3 3.7 3.1 3.9h-.8l-3.3-4.3V44h-.7v-4.3l-3.2 4.3h-.8l3-4h-.2l-3.4 4.2h1.5l2.9-3.7v3.7h1.2v-3.7l2.9 3.7h1.4L113 40l3.2-4h-1.5l-2.8 3.6V36h-1.2v3.6l-2.8-3.6h-1.4l3.2 4Zm10 0 2.1-3.9h1.1l-2.6 4.8V44h-1v-3l-2.6-4.8h1l2 3.8Z" fill="#fff"/>
  <path d="m119.9 40 2.1-3.7h.8l-2.6 4.6v3h-.7v-3l-2.5-4.6h.8l2 4 .2-.2h-.1V40l-2-4h-1.4l2.7 5v3.1h1.3V41l2.7-5h-1.4l-2 4Zm10.2 4H129l-3.5-4v4h-1v-7.8h1v3.7l3.4-3.8h1.2l-3.5 3.9 3.6 4Z" fill="#fff"/>
  <path d="M130.1 44v-.1H129l-3.8-4.2v4.2h-.7v-7.6h.7v4l3.7-4h.8l-3.3 3.7 3.6 4h.2l-3.5-4 3.6-4h-1.5l-3.3 3.6V36h-1.3v8.1h1.3v-3.7l3.4 3.7h1.5l-.2-.2Zm4.3 0h-1v-7h-2.5v-.9h6v1h-2.5V44Z" fill="#fff"/>
  <path d="M134.4 44v-.1h-.9v-7h-2.4v-.6h5.6v.6h-2.5V44h.3v-6.8h2.4V36h-6.1v1.1h2.4v7h1.3V44h-.1Zm8.3 0h-4.4v-7.8h4.4v.8h-3.4v2.5h3.2v.8h-3.2v2.8h3.4v.9Z" fill="#fff"/>
  <path d="M142.7 44v-.1h-4.3v-7.6h4.1v.6h-3.4v2.7h3.2v.6h-3.2v3h3.4v.8h.3v-1h-3.4v-2.5h3.2v-1.2h-3.2v-2.1h3.4V36h-4.7v8.1h4.7V44h-.1Zm7.7-.9h1v3h-1V44h-1v-3.7h-4V44h-1v-7.8h1v3.3h4V36h1v7Z" fill="#fff"/>
  <path d="M150.4 43.1v.1h.8V46h-.6v-2h-1v-3.7h-4.3V44h-.8v-7.6h.8v3.3h4.3v-3.3h.7v7h.1V43h.1v-7h-1.2v3.2h-3.8V36h-1.2v8.1h1.2v-3.6h3.8V44h1v2.1h1.2V43h-1v.1Zm5 .9h-2.8v-.6l1-.2V37l-1-.2v-.6h2.8v.6l-.9.2v6.3l1 .2v.6Z" fill="#fff"/>
  <path d="M155.4 44v-.1h-2.7v-.4l.8-.2h.1v-6.5l-.9-.2v-.3h2.6v.3l-.8.2h-.1v6.5l.9.2v.5h.2v-.7l-.9-.2v-6l.9-.3V36h-3v.8l.9.2v6.1l-.9.2v.8h3V44Zm6.6-6c0 .5-.2 1-.5 1.2a2.4 2.4 0 0 1-1.4.7 2 2 0 0 1 1.5.6c.4.3.6.8.6 1.3a2 2 0 0 1-.9 1.7c-.5.4-1.3.6-2.3.6a5 5 0 0 1-2.3-.4v-1a5.2 5.2 0 0 0 2.3.6c.7 0 1.2-.1 1.6-.4.3-.3.5-.6.5-1.1 0-.5-.2-.8-.6-1a3.7 3.7 0 0 0-1.8-.4h-1.1v-.9h1c.8 0 1.4-.1 1.8-.4.4-.2.6-.6.6-1a1 1 0 0 0-.5-1 1.8 1.8 0 0 0-1.1-.2 3.8 3.8 0 0 0-2.2.6l-.5-.6a4.4 4.4 0 0 1 2.7-.9 3 3 0 0 1 1.9.6c.5.3.7.8.7 1.4Z" fill="#fff"/>
  <path d="M162 38h-.1c0 .5-.2.8-.5 1.1-.3.3-.7.5-1.3.6v.3a2.6 2.6 0 0 1 1.5.6c.3.3.4.7.4 1.2 0 .7-.2 1.2-.7 1.6a4 4 0 0 1-2.3.6c-1 0-1.7-.2-2.2-.4v-.8l-.2.1a5.5 5.5 0 0 0 2.4.5c.7 0 1.3-.1 1.7-.4.4-.3.6-.7.6-1.2s-.3-1-.7-1.2a3.7 3.7 0 0 0-1.9-.4h-1v-.6h1c.8 0 1.4 0 1.8-.4.4-.2.6-.6.6-1.1 0-.4-.2-.8-.5-1a2 2 0 0 0-1.2-.4 4 4 0 0 0-1.2.2c-.3 0-.7.2-1 .5v.1h.1l-.4-.7h-.2l.1.2a4 4 0 0 1 2.6-.8 3 3 0 0 1 1.8.5c.5.3.7.7.7 1.3h.2c0-.7-.2-1.2-.7-1.6a3.2 3.2 0 0 0-2-.5c-1 0-2 .3-2.7.8l-.1.1.5.8v.1h.2a3.8 3.8 0 0 1 2-.7c.6 0 1 0 1.2.3.2.2.3.4.3.8s-.1.7-.5 1a3 3 0 0 1-1.7.3h-1.1v1h1.2a3.3 3.3 0 0 1 1.8.4c.3.3.5.6.5 1s-.2.8-.5 1a2.6 2.6 0 0 1-1.5.4 5.2 5.2 0 0 1-2.2-.5l-.2-.1v1.2a6 6 0 0 0 2.4.4 4 4 0 0 0 2.4-.6c.6-.4 1-1 .9-1.8a1.8 1.8 0 0 0-.6-1.4 3 3 0 0 0-1.5-.6v.1c.6 0 1-.2 1.4-.6.4-.3.5-.8.5-1.3h-.1Z" fill="#fff"/>
</svg>
