<svg id="artwork" xmlns="http://www.w3.org/2000/svg" version="1.1" viewBox="0 0 239 70.9">
  <defs>
    <style>
      .st4{fill:#fff}
    </style>
  </defs>
  <rect width="239" height="70.8" rx="8.8" ry="8.8"/>
  <path class="st4" d="M120.6 38.5c-4.1 0-7.5 3.2-7.5 7.6s3.4 7.5 7.5 7.5 7.6-3.2 7.6-7.6-3.4-7.5-7.6-7.5Zm0 12.1c-2.3 0-4.2-1.9-4.2-4.6s2-4.5 4.2-4.5 4.3 1.8 4.3 4.5-2 4.6-4.3 4.6Zm-16.5-12c-4.1 0-7.5 3.1-7.5 7.4s3.4 7.6 7.5 7.6 7.6-3.2 7.6-7.6-3.4-7.5-7.6-7.5Zm0 12c-2.3 0-4.2-1.9-4.2-4.6s2-4.5 4.2-4.5 4.3 1.8 4.3 4.5-2 4.6-4.3 4.6Zm-19.6-9.8V44h7.7a6.7 6.7 0 0 1-1.8 4 7.8 7.8 0 0 1-5.9 2.4 8.4 8.4 0 0 1-8.4-8.5 8.4 8.4 0 0 1 14.2-6.2l2.2-2.3a11.1 11.1 0 0 0-8-3.2c-6.4 0-11.8 5.3-11.8 11.7S78 53.6 84.5 53.6c3.5 0 6.1-1.1 8.2-3.3 2-2 2.7-5 2.7-7.4l-.1-2H84.5Zm80.2 2.5c-.6-1.6-2.5-4.8-6.4-4.8s-7.1 3-7.1 7.6c0 4.2 3.2 7.5 7.4 7.5 3.5 0 5.5-2.1 6.3-3.4l-2.6-1.7c-.8 1.3-2 2.1-3.7 2.1s-2.8-.8-3.6-2.3l10-4.1-.3-.9Zm-10.3 2.5c0-2.9 2.3-4.3 4-4.3 1.3 0 2.4.6 2.8 1.5l-6.8 2.8Zm-8.1 7.3h3.3V31h-3.3v22.1Zm-5.5-12.9a5.2 5.2 0 0 0-4-1.7c-3.8 0-7.2 3.3-7.2 7.6s3.4 7.5 7.2 7.5a5 5 0 0 0 4-1.7v1c0 3-1.5 4.5-4 4.5-2 0-3.2-1.5-3.8-2.7l-2.9 1.2c.9 2 3 4.5 6.7 4.5 3.9 0 7.2-2.3 7.2-7.9V39h-3.2v1.2ZM137 50.6c-2.2 0-4.2-1.9-4.2-4.5s2-4.6 4.2-4.6 4 2 4 4.6-1.7 4.5-4 4.5ZM180.2 31h-7.9v22.1h3.3v-8.4h4.6c3.7 0 7.3-2.6 7.3-6.8s-3.6-6.9-7.3-6.9Zm0 10.7h-4.6V34h4.7a3.8 3.8 0 1 1 0 7.6Zm20.5-3.2c-2.4 0-4.9 1-5.9 3.4l3 1.2c.6-1.2 1.8-1.6 3-1.6 1.7 0 3.4 1 3.4 2.8v.3c-.6-.4-1.8-.9-3.4-.9-3.2 0-6.4 1.7-6.4 5 0 3 2.6 4.8 5.5 4.8 2.2 0 3.5-1 4.2-2.1h.1V53h3.2v-8.5c0-4-3-6.1-6.7-6.1Zm-.4 12.1c-1 0-2.6-.5-2.6-1.9 0-1.7 1.9-2.3 3.5-2.3 1.5 0 2.2.3 3 .7a4 4 0 0 1-3.9 3.5ZM219 39l-3.8 9.6-4-9.6h-3.6l6 13.4-3.4 7.4h3.4l9.1-20.8H219Zm-29.7 14h3.3V31h-3.3v22.1Z"/>
  <path d="m36.7 34.4-18.9 20a5 5 0 0 0 7.5 3l21.3-12.2-10-10.8Z" style="fill:#ea4335"/>
  <path d="m55.7 31-9.1-5.3-10.3 9.2 10.3 10.3 9.1-5.2c1.6-1 2.7-2.6 2.7-4.5s-1-3.6-2.6-4.5Z" style="fill:#fbbc04"/>
  <path d="m17.8 16.5-.2 1.3V53c0 .5 0 1 .2 1.3L37.3 35 17.8 16.5Z" style="fill:#4285f4"/>
  <path d="m36.8 35.4 9.8-9.7-21.2-12.3a5.1 5.1 0 0 0-7.6 3l19 19Z" style="fill:#34a853"/>
  <path class="st4" d="M86.6 12.3h-1.7l-3 4.7h-1.1v-4.7h-1.5V17H78l-2.9-4.7h-1.7l3.4 5.2-3.7 5.8h1.8l3.1-5h1.3v5h1.5v-5h1.1l3.2 5h1.8l-3.7-5.8 3.4-5.2zm4.5 5.5-2.8-5.5h-1.7l3.8 6.9v4.1h1.5v-4.1l3.8-6.9H94l-2.9 5.5zm13.8-5.5h-1.8l-3.8 4.8h-1.2v-4.8h-1.4v11h1.4v-5h1.4l4 5h1.8l-4.6-5.7 4.2-5.3zm.3 1.2h3.5v9.8h1.5v-9.8h3.5v-1.2h-8.5v1.2zm11.1 4.7h4.8V17h-4.8v-3.5h5.5v-1.2h-6.9v11h7v-1.2h-5.6v-3.9zm7 5.1h1.4v-9.8h5.5v9.8h1.4v-11h-8.3v11zm18.4-11-4.2 11h1.5l1-3h4.6l1 3h1.6l-4.2-11h-1.3Zm-1.2 6.9 1.8-5.2 2 5.2h-3.8Zm9.4-1.6c0 1.2-.2 2.1-.3 2.7-.1.6-.3 1-.6 1.3s-.6.4-1 .5h-.4v1.2h.5c.7 0 1.3-.2 1.7-.5s.8-1 1-1.7.4-1.8.5-3.3l.2-4.3h4v9.8h1.4v-11H150l-.3 5.3Zm18.4-5.3h1.4v11h-1.4zm-5 4.5h-2.7v-4.5H159v11h4.2c1.2 0 2-.3 2.7-1 .6-.5 1-1.3 1-2.3s-.4-1.8-1-2.4a4 4 0 0 0-2.7-.9Zm1.6 4.7c-.4.4-1 .6-1.7.6h-2.6v-4.2h2.7c.7 0 1.2.2 1.6.6.4.3.6.8.6 1.5s-.2 1.1-.6 1.5Zm15.5-9.2H179V17h-5.6v-4.7H172v11h1.4v-5.1h5.6v5.1h1.3V26h1.4v-3.9h-1.3v-9.8zm11.9 0h1.4v11h-1.4zm-4.9 4.5h-2.8v-4.5h-1.4v11h4.2c1.1 0 2-.3 2.7-1 .6-.5 1-1.3 1-2.3s-.4-1.8-1-2.4a4 4 0 0 0-2.7-.9Zm1.6 4.7c-.4.4-1 .6-1.7.6h-2.7v-4.2h2.7c.7 0 1.3.2 1.7.6.4.3.6.8.6 1.5s-.2 1.1-.6 1.5Zm12.4-3.9c.5-.2 1-.5 1.3-1s.4-.9.4-1.4c0-1-.3-1.7-1-2.3-.7-.5-1.6-.8-2.9-.8a4 4 0 0 0-1.9.4c-.5.3-1 .6-1.3 1s-.5 1-.5 1.7h1.4c0-.6.3-1 .7-1.4s1-.5 1.6-.5a3 3 0 0 1 1.8.5c.4.4.7.8.7 1.4s-.2 1-.6 1.4-1 .4-1.7.5h-1.3v1.2h1.3c1.6 0 2.4.6 2.4 2 0 .5-.2 1-.7 1.4a3 3 0 0 1-1.9.5c-.7 0-1.3-.2-1.7-.5a2 2 0 0 1-.7-1.5h-1.5c0 .7.2 1.2.5 1.7.4.5.8.9 1.4 1.1.6.3 1.3.4 2 .4 1.3 0 2.2-.2 3-.8s1-1.4 1-2.4c0-1.3-.6-2.1-1.9-2.6Zm4-.9c.2 0 .5-.1.6-.3.2-.1.2-.3.2-.5l-.2-.6c-.1-.2-.4-.3-.6-.3l-.7.3-.2.6c0 .3 0 .4.2.5s.4.3.7.3Zm0 5c-.3 0-.5 0-.7.3l-.2.5c0 .3 0 .5.2.6s.4.3.7.3.5-.1.6-.3c.2-.1.2-.3.2-.6s0-.4-.2-.5c-.1-.2-.4-.3-.6-.3Z"/>
</svg>
