<svg width="180" height="54" fill="none" xmlns="http://www.w3.org/2000/svg">
  <path d="M173.33 54H6.67A6.73 6.73 0 0 1 0 47.25V6.75C0 3.04 3 0 6.67 0h166.66A6.73 6.73 0 0 1 180 6.75v40.5c0 3.71-3 6.75-6.67 6.75Z" fill="#000"/>
  <path d="m27.63 26.22-14.2 15.26a3.84 3.84 0 0 0 5.65 2.35l.05-.03 15.97-9.33-7.48-8.25Z" fill="#EA4335"/>
  <path d="m41.98 23.63-.01-.02-6.9-4.05-7.77 7 7.8 7.9 6.86-4a3.89 3.89 0 0 0 2.02-3.43c0-1.47-.8-2.75-2-3.4Z" fill="#FBBC04"/>
  <path d="M13.43 12.52a3.7 3.7 0 0 0-.13 1v26.96c0 .35.04.68.13 1L28.1 26.62l-14.68-14.1Z" fill="#4285F4"/>
  <path d="m27.73 27 7.34-7.44-15.96-9.37a3.85 3.85 0 0 0-5.69 2.33L27.73 27Z" fill="#34A853"/>
  <path d="M131.52 26.67h2.17V12.1h-2.17v14.57Zm19.59-9.32-2.5 6.31h-.07l-2.59-6.31h-2.34l3.88 8.82-2.21 4.91h2.26l5.99-13.73h-2.42ZM138.77 25c-.7 0-1.7-.35-1.7-1.24 0-1.12 1.24-1.55 2.3-1.55.96 0 1.4.2 1.99.49a2.64 2.64 0 0 1-2.59 2.3Zm.27-7.98c-1.58 0-3.2.69-3.88 2.23l1.93.8c.4-.8 1.18-1.07 1.98-1.07 1.13 0 2.27.68 2.29 1.88v.15a4.8 4.8 0 0 0-2.27-.56c-2.08 0-4.2 1.14-4.2 3.28 0 1.95 1.7 3.2 3.62 3.2 1.46 0 2.27-.65 2.78-1.42h.07v1.12h2.1v-5.58c0-2.59-1.93-4.03-4.42-4.03Zm-13.44 2.09h-3.1v-5h3.1a2.52 2.52 0 0 1 2.55 2.5c0 1.13-.93 2.5-2.55 2.5Zm-.06-7.02h-5.21v14.57h2.17v-5.52h3.04c2.41 0 4.78-1.75 4.78-4.53 0-2.78-2.37-4.52-4.78-4.52ZM97.13 25c-1.5 0-2.76-1.25-2.76-2.98 0-1.75 1.25-3.02 2.76-3.02 1.48 0 2.64 1.27 2.64 3.02 0 1.73-1.16 2.98-2.64 2.98Zm2.5-6.85h-.08a3.43 3.43 0 0 0-2.61-1.1 4.93 4.93 0 0 0-4.75 4.97 4.9 4.9 0 0 0 4.75 4.94c1.18 0 2.12-.53 2.6-1.13h.08v.71c0 1.9-1.01 2.91-2.64 2.91a2.74 2.74 0 0 1-2.5-1.76l-1.9.79c.55 1.31 2 2.93 4.4 2.93 2.55 0 4.7-1.5 4.7-5.17v-8.9h-2.06v.81Zm3.56 8.5h2.18V12.1h-2.18v14.57Zm5.39-4.8a2.72 2.72 0 0 1 2.59-2.9c.86 0 1.6.44 1.84 1.06l-4.43 1.84Zm6.76-1.65c-.42-1.11-1.67-3.16-4.25-3.16-2.55 0-4.67 2.01-4.67 4.96 0 2.78 2.1 4.96 4.92 4.96a4.93 4.93 0 0 0 4.13-2.2l-1.69-1.13a2.83 2.83 0 0 1-2.44 1.37c-1.1 0-1.9-.5-2.4-1.5l6.62-2.74-.22-.56Zm-52.8-1.64v2.1h5.03a4.39 4.39 0 0 1-1.15 2.65 5.15 5.15 0 0 1-3.89 1.54c-3.1 0-5.52-2.5-5.52-5.6a5.52 5.52 0 0 1 9.32-4.08l1.48-1.49a7.34 7.34 0 0 0-5.28-2.12 7.8 7.8 0 0 0-7.8 7.7 7.8 7.8 0 0 0 7.8 7.7c2.3 0 4.02-.75 5.37-2.16a6.95 6.95 0 0 0 1.82-4.92c0-.49-.03-.94-.1-1.32h-7.09ZM75.44 25c-1.5 0-2.8-1.23-2.8-3 0-1.78 1.3-3 2.8-3 1.5 0 2.8 1.22 2.8 3 0 1.77-1.3 3-2.8 3Zm0-7.96A4.89 4.89 0 0 0 70.47 22a4.9 4.9 0 0 0 4.98 4.96A4.9 4.9 0 0 0 80.42 22a4.89 4.89 0 0 0-4.97-4.96ZM86.3 25c-1.5 0-2.8-1.23-2.8-3 0-1.78 1.3-3 2.8-3 1.5 0 2.8 1.22 2.8 3 0 1.77-1.3 3-2.8 3Zm0-7.96A4.89 4.89 0 0 0 81.32 22a4.9 4.9 0 0 0 4.98 4.96A4.9 4.9 0 0 0 91.28 22a4.89 4.89 0 0 0-4.98-4.96ZM59.73 40.7l-.88-2.39-.38-1.17c-.1.43-.22.82-.34 1.17l-.89 2.38h2.49Zm1.24 3.3-.95-2.43h-3.11L55.97 44h-1l3.07-7.89h.9L61.98 44h-1.02Z" fill="#fff"/>
  <path d="m59.73 40.7.12-.05-.88-2.38-.52-1.62-.1.45-.34 1.17.12.04-.12-.04-.96 2.55h2.87l-.07-.17-.12.04v-.13h-2.3l.83-2.2c.12-.36.23-.76.34-1.2l-.13-.02-.13.04.38 1.17.88 2.39.13-.05Zm1.24 3.3.12-.05-.98-2.52h-3.3l-.93 2.44h-.71l2.96-7.62h.71l2.96 7.62h-.83v.26h1.22l-3.17-8.15h-1.07l-3.17 8.15h1.28L57 41.7h2.93l.95 2.43h.09V44Zm3.42-3.9h.79a3 3 0 0 0 1.7-.38c.35-.26.52-.66.52-1.22 0-.5-.16-.88-.49-1.13-.32-.25-.83-.38-1.52-.38h-1v3.1Zm4.04-1.64c0 .8-.28 1.41-.82 1.84a3.7 3.7 0 0 1-2.32.64h-.9V44h-.99v-7.85h2.08c1.96 0 2.95.77 2.95 2.3Z" fill="#fff"/>
  <path d="M64.39 40.1v.13h.79c.8 0 1.38-.13 1.77-.4.4-.29.59-.75.58-1.33 0-.53-.17-.96-.54-1.24-.36-.28-.9-.4-1.6-.4h-1.14v3.37h.14v-.13h.13v-2.98h.87c.67 0 1.15.13 1.44.35.29.23.44.55.44 1.03 0 .53-.16.88-.47 1.1-.31.23-.86.36-1.62.36h-.8v.14Zm4.04-1.64h-.14c0 .77-.25 1.33-.77 1.74-.51.4-1.25.61-2.23.61h-1.04v3.06h-.72v-7.59h1.95c.96 0 1.67.2 2.13.55.45.36.68.88.68 1.63h.27c0-.8-.26-1.43-.79-1.84-.53-.41-1.3-.6-2.3-.6h-2.2v8.11h1.25v-3.05h.77c1.01 0 1.82-.22 2.4-.67.58-.46.87-1.12.87-1.95h-.13Zm6.82 4.66h1v2.95h-.94V44h-.6l-2.8-3.75-.8.7V44h-.99v-7.85h.99v3.87l.68-.75 2.8-3.12h1.15a615.8 615.8 0 0 1-3.11 3.42l2.62 3.55Z" fill="#fff"/>
  <path d="M75.25 43.12v.13h.87v2.68h-.68v-2.06h-.66l-2.85-3.81-.9.8-.05.03v2.98h-.72v-7.59h.72v4.09l.9-1 2.77-3.09h1.1v-.13l-.1-.1-3.12 3.43-.07.08 2.72 3.7h.07v-.14l.1-.08-2.61-3.55-.11.08.1.09a591.7 591.7 0 0 0 3.11-3.42l.2-.23h-1.51l-2.84 3.17-.45.5V36H70v8.12h1.25V41l.65-.56 2.75 3.68h.54v2.07h1.21V43h-1.14v.13Zm9.79.88h-.99v-7.85h1V44Zm-6.31-.84h1.24c.64 0 1.1-.12 1.4-.36.3-.24.45-.6.45-1.1 0-.48-.16-.83-.47-1.04-.3-.22-.81-.32-1.52-.32h-1.1v2.82Zm4.11-1.46c0 .74-.23 1.31-.7 1.7-.47.4-1.17.6-2.08.6h-2.32v-7.85h.99v3.32h1.2c.96 0 1.68.18 2.17.56.5.38.74.93.74 1.67Z" fill="#fff"/>
  <path d="M85.04 44v-.13h-.86v-7.59h.73V44h.27v-7.99h-1.26v8.12h1.26V44h-.14Zm-6.31-.84v.13h1.24c.65 0 1.15-.12 1.48-.39.34-.27.5-.68.5-1.2 0-.5-.17-.9-.52-1.15-.35-.24-.88-.34-1.6-.35h-1.24v3.1h.14v-.14h.13v-2.69h.97c.7 0 1.18.11 1.45.3.26.19.4.48.4.93 0 .47-.13.78-.4 1-.25.2-.69.33-1.31.33h-1.24v.13Zm4.11-1.46h-.13c0 .72-.22 1.23-.66 1.6-.44.37-1.1.57-1.99.57h-2.19v-7.59h.72v3.32h1.35c.93 0 1.62.19 2.08.54.46.35.69.85.69 1.56h.27a2.1 2.1 0 0 0-.8-1.78 3.66 3.66 0 0 0-2.24-.59h-1.08v-3.32h-1.25v8.12h2.45c.93 0 1.66-.2 2.16-.62.5-.42.76-1.04.76-1.8h-.14ZM93.16 44h-.99v-6.98h-2.48l-.17 1.28a48.92 48.92 0 0 1-.6 3.78 3.6 3.6 0 0 1-.65 1.6c-.27.3-.64.44-1.1.44-.27 0-.5-.04-.72-.13v-.83c.19.1.39.14.6.14.3 0 .52-.18.68-.54.17-.35.35-1.16.55-2.42.19-1.25.39-2.65.58-4.2h4.3V44Z" fill="#fff"/>
  <path d="M93.16 44v-.13h-.86v-6.98h-2.73l-.18 1.39a48.96 48.96 0 0 1-.6 3.77 3.49 3.49 0 0 1-.62 1.54c-.24.26-.57.4-1 .4-.25 0-.48-.04-.67-.12l-.05.12h.13v-.83h-.13l-.06.12c.2.1.43.15.67.15.34 0 .62-.23.8-.61.17-.39.35-1.2.55-2.46.2-1.26.39-2.65.58-4.2l-.13-.01v.13h4.17V44h.26v-7.99h-4.55l-.01.12c-.2 1.54-.4 2.94-.59 4.2a11.57 11.57 0 0 1-.53 2.38c-.16.33-.33.45-.55.45-.2 0-.38-.04-.55-.12l-.2-.1v1.14l.09.03c.23.1.48.15.77.15.49 0 .9-.17 1.2-.5.3-.33.52-.88.69-1.65.17-.77.36-2.03.59-3.8l.15-1.16h2.24v6.98h1.25V44h-.13Zm9.51 0h-.99v-7.85h1V44Zm-6.31-.84h1.24c.64 0 1.1-.12 1.4-.36.3-.24.45-.6.45-1.1 0-.48-.16-.83-.46-1.04-.31-.22-.82-.32-1.53-.32h-1.1v2.82Zm4.11-1.46c0 .74-.23 1.31-.7 1.7-.47.4-1.17.6-2.08.6h-2.32v-7.85h.99v3.32h1.2c.96 0 1.68.18 2.17.56.5.38.74.93.74 1.67Z" fill="#fff"/>
  <path d="M102.67 44v-.13h-.85v-7.59h.72V44h.27v-7.99h-1.26v8.12h1.26V44h-.14Zm-6.31-.84v.13h1.24c.65 0 1.15-.12 1.49-.39.33-.27.5-.68.5-1.2 0-.5-.18-.9-.53-1.15-.35-.24-.88-.34-1.6-.35h-1.23v3.1h.13v-.14h.13v-2.69h.97c.7 0 1.18.11 1.45.3s.4.48.4.93c0 .47-.13.78-.4 1-.25.2-.69.33-1.3.33h-1.25v.13Zm4.11-1.46h-.13c0 .72-.22 1.23-.66 1.6-.43.37-1.1.57-1.99.57H95.5v-7.59h.73v3.32h1.34c.93 0 1.62.19 2.08.54.46.35.69.85.7 1.56h.26c0-.76-.27-1.37-.8-1.78a3.66 3.66 0 0 0-2.24-.59h-1.08v-3.32h-1.25v8.12h2.45c.93 0 1.66-.2 2.16-.62.5-.42.76-1.04.76-1.8h-.14Zm9.3-1.74-3.05-3.81h1.1l3 3.8v-3.8h.95v3.8l3-3.8h1.1l-3.05 3.8 3.15 4.05h-1.13l-3.07-3.98V44h-.95v-3.98L107.74 44h-1.13l3.16-4.04Z" fill="#fff"/>
  <path d="m109.77 39.96.1-.08-2.87-3.6h.75l3.2 4.05v-4.05h.69v4.05l3.2-4.05h.75l-2.94 3.67 3.05 3.92h-.8l-3.26-4.24v4.24h-.69v-4.24l-3.27 4.24h-.8l3.06-3.91-.07-.08-.1.08-.1-.08-3.34 4.25h1.48l2.88-3.72v3.72h1.21v-3.72l2.87 3.72h1.47L113 39.95l3.16-3.94h-1.44l-2.8 3.56V36h-1.22v3.56L107.9 36h-1.45l3.22 4.03.1-.08Zm10.11.04 2.04-3.85H123l-2.62 4.8V44h-1v-3l-2.6-4.85h1.07l2.04 3.86Z" fill="#fff"/>
  <path d="m119.88 40 .11.07 2.01-3.79h.76l-2.52 4.64v2.95h-.73v-2.9l-2.53-4.69h.78l2.12 4.01.11-.22-.11-.06.11-.06-2.07-3.94h-1.38l2.7 5.02v3.1h1.26V41l2.71-4.98h-1.37l-2.08 3.94.12.06Zm10.23 4h-1.2l-3.54-3.98V44h-.99v-7.85h.99v3.8l3.46-3.8h1.13l-3.42 3.81 3.57 4.04Z" fill="#fff"/>
  <path d="M130.11 44v-.13h-1.13l-3.74-4.2v4.2h-.72v-7.59h.72v4.01l3.65-4h.77l-3.3 3.67 3.65 4.13.1-.09.1-.09-3.49-3.95 3.53-3.95h-1.47l-3.28 3.6V36h-1.25v8.12h1.25v-3.76l3.36 3.76h1.55l-.2-.22-.1.09Zm4.27 0h-1v-6.98h-2.45v-.87h5.89v.87h-2.44V44Z" fill="#fff"/>
  <path d="M134.38 44v-.13h-.86v-6.98h-2.46v-.6h5.62v.6h-2.44V44h.27v-6.85h2.44v-1.14h-6.15v1.14h2.45v6.98h1.26V44h-.13Zm8.28 0h-4.38v-7.85h4.38v.87h-3.4v2.45h3.2v.86h-3.2v2.8h3.4V44Z" fill="#fff"/>
  <path d="M142.66 44v-.13h-4.25v-7.59h4.12v.6h-3.4v2.72h3.2v.6h-3.2v3.06h3.4V44h.27v-1h-3.4v-2.54h3.2v-1.13h-3.2v-2.18h3.4v-1.14h-4.66v8.12h4.66V44h-.14Zm7.76-.88h.95v2.95h-.95V44h-.98v-3.66h-4.04V44h-.98v-7.85h.98v3.32h4.04v-3.32h.98v6.97Z" fill="#fff"/>
  <path d="M150.42 43.12v.13h.81v2.68h-.68v-2.06h-.97V40.2h-4.3v3.67h-.73v-7.59h.72v3.32h4.3v-3.32h.72v6.97h.13v-.13h.13v-7.1h-1.24v3.31h-3.77v-3.32h-1.26v8.12h1.26v-3.66h3.77v3.66h.98v2.07h1.2V43h-1.07v.13Zm5 .88h-2.84v-.57l.93-.2v-6.3l-.93-.21v-.57h2.84v.57l-.92.22v6.28l.92.21V44Z" fill="#fff"/>
  <path d="M155.42 44v-.13h-2.7v-.33l.82-.19.1-.02v-6.5l-.92-.22v-.33h2.56v.33l-.82.2-.1.02v6.5l.92.2V44h.27v-.68l-.92-.2v-6.08l.82-.2.1-.02v-.8h-3.1v.8l.92.22v6.08l-.82.18-.1.02v.81h3.1V44h-.13Zm6.58-6.02c0 .51-.16.93-.49 1.25a2.4 2.4 0 0 1-1.37.62v.05c.67.09 1.17.3 1.51.61.34.33.51.75.51 1.27a2 2 0 0 1-.83 1.71c-.55.41-1.33.62-2.33.62-.94 0-1.7-.14-2.3-.43v-.9a5.24 5.24 0 0 0 2.29.52c.7 0 1.24-.13 1.6-.4.36-.26.54-.63.54-1.12 0-.47-.2-.83-.6-1.07a3.68 3.68 0 0 0-1.82-.36h-1.12v-.83h1.06c.78 0 1.36-.13 1.75-.39.38-.26.57-.6.57-1.05 0-.38-.14-.68-.43-.9a1.84 1.84 0 0 0-1.15-.33 3.8 3.8 0 0 0-2.18.67l-.47-.67a4.44 4.44 0 0 1 2.66-.82c.8 0 1.44.18 1.9.53.47.35.7.83.7 1.42Z" fill="#fff"/>
  <path d="M162 37.98h-.13c0 .48-.15.86-.45 1.16-.3.3-.73.5-1.3.58l-.11.02v.27l.11.02a2.6 2.6 0 0 1 1.44.58c.31.3.47.68.47 1.17 0 .7-.25 1.22-.78 1.6-.52.4-1.27.6-2.25.6-.93 0-1.68-.15-2.23-.42l-.06.12h.13v-.9h-.13l-.06.12a5.5 5.5 0 0 0 2.33.53c.73 0 1.3-.13 1.69-.42.4-.28.6-.71.6-1.23 0-.51-.24-.93-.68-1.18a3.7 3.7 0 0 0-1.88-.39h-.99v-.56h.93c.8 0 1.4-.13 1.82-.4.41-.28.64-.69.63-1.17 0-.41-.16-.76-.47-1a1.97 1.97 0 0 0-1.24-.36c-.41 0-.8.05-1.14.15-.34.1-.71.28-1.1.54l.06.11.11-.07-.47-.68-.11.08.08.11c.73-.53 1.59-.8 2.58-.8.8 0 1.4.18 1.82.5.44.34.64.76.65 1.32h.26c0-.63-.25-1.15-.74-1.53a3.22 3.22 0 0 0-1.99-.55c-1.04 0-1.96.28-2.74.84l-.1.08.54.78.08.1.1-.07a3.76 3.76 0 0 1 2.1-.65c.48 0 .83.11 1.08.3.26.2.38.45.38.8 0 .4-.16.7-.52.94-.35.24-.9.37-1.67.37h-1.2v1.1h1.26a3.3 3.3 0 0 1 1.74.34c.37.22.54.52.55.95 0 .45-.16.78-.49 1.02a2.6 2.6 0 0 1-1.52.36 5.23 5.23 0 0 1-2.23-.5l-.19-.09v1.2l.08.03c.6.3 1.4.44 2.35.44a4 4 0 0 0 2.41-.64c.59-.43.9-1.06.89-1.82a1.8 1.8 0 0 0-.56-1.36c-.37-.35-.9-.56-1.58-.66l-.02.14h.13v-.05h-.13l.02.14c.6-.1 1.1-.31 1.44-.66.36-.35.53-.81.53-1.35H162Z" fill="#fff"/>
</svg>
