<svg width="180" height="54" fill="none" xmlns="http://www.w3.org/2000/svg">
  <path d="M173.33 54H6.67A6.73 6.73 0 0 1 0 47.25V6.75C0 3.04 3 0 6.67 0h166.66A6.73 6.73 0 0 1 180 6.75v40.5c0 3.71-3 6.75-6.67 6.75Z" fill="#000"/>
  <path d="m27.63 26.22-14.2 15.26a3.84 3.84 0 0 0 5.65 2.35l.05-.03 15.97-9.33-7.48-8.25Z" fill="#EA4335"/>
  <path d="m41.98 23.63-.01-.02-6.9-4.05-7.77 7 7.8 7.9 6.86-4a3.89 3.89 0 0 0 2.02-3.43c0-1.47-.8-2.75-2-3.4Z" fill="#FBBC04"/>
  <path d="M13.43 12.52a3.7 3.7 0 0 0-.13 1v26.96c0 .35.04.68.13 1L28.1 26.62l-14.68-14.1Z" fill="#4285F4"/>
  <path d="m27.73 27 7.34-7.44-15.96-9.37a3.85 3.85 0 0 0-5.69 2.33L27.73 27Z" fill="#34A853"/>
  <path d="M142.58 40h2.49V23.33h-2.49V40ZM165 29.34l-2.85 7.22h-.09l-2.96-7.22h-2.68l4.44 10.1-2.53 5.61h2.6l6.84-15.71H165Zm-14.1 8.77c-.82 0-1.96-.41-1.96-1.42 0-1.29 1.41-1.78 2.64-1.78 1.1 0 1.6.24 2.27.56a3.02 3.02 0 0 1-2.96 2.64Zm.3-9.14c-1.81 0-3.68.8-4.45 2.55l2.21.93c.47-.93 1.35-1.23 2.27-1.23 1.3 0 2.6.78 2.62 2.15v.17a5.5 5.5 0 0 0-2.6-.64c-2.38 0-4.8 1.3-4.8 3.75 0 2.23 1.95 3.67 4.14 3.67a3.5 3.5 0 0 0 3.17-1.63h.09v1.28h2.4v-6.39c0-2.96-2.2-4.6-5.06-4.6Zm-15.38 2.4h-3.54v-5.72h3.53a2.89 2.89 0 0 1 2.92 2.86 2.9 2.9 0 0 1-2.91 2.86Zm-.07-8.04h-5.96V40h2.49v-6.31h3.47c2.76 0 5.47-2 5.47-5.18 0-3.18-2.71-5.18-5.47-5.18Zm-32.5 14.78c-1.72 0-3.16-1.44-3.16-3.42 0-2 1.44-3.45 3.15-3.45 1.7 0 3.03 1.46 3.03 3.45 0 1.98-1.33 3.42-3.03 3.42Zm2.85-7.84h-.1a3.93 3.93 0 0 0-2.98-1.27 5.64 5.64 0 0 0-5.44 5.7c0 3.17 2.6 5.64 5.44 5.64 1.35 0 2.43-.6 2.98-1.28h.09v.81c0 2.17-1.16 3.33-3.03 3.33a3.14 3.14 0 0 1-2.86-2.02l-2.17.9a5.4 5.4 0 0 0 5.03 3.36c2.92 0 5.4-1.72 5.4-5.91V29.35h-2.37v.92Zm4.08 9.73h2.5V23.33h-2.5V40Zm6.17-5.5a3.11 3.11 0 0 1 2.96-3.3c.99 0 1.83.49 2.1 1.2l-5.06 2.1Zm7.73-1.89c-.47-1.27-1.91-3.6-4.85-3.6-2.93 0-5.35 2.3-5.35 5.66 0 3.18 2.4 5.67 5.62 5.67 2.6 0 4.1-1.59 4.73-2.5l-1.93-1.3a3.24 3.24 0 0 1-2.8 1.57 2.89 2.89 0 0 1-2.75-1.72l7.59-3.13-.26-.65Zm-60.41-1.87v2.4h5.76a5.02 5.02 0 0 1-1.32 3.04 5.9 5.9 0 0 1-4.44 1.76 6.32 6.32 0 0 1-6.32-6.4A6.32 6.32 0 0 1 68 26.85l1.7-1.7a8.4 8.4 0 0 0-6.04-2.42 8.93 8.93 0 0 0-8.94 8.8 8.93 8.93 0 0 0 8.94 8.81c2.62 0 4.6-.86 6.14-2.47 1.6-1.59 2.09-3.82 2.09-5.62a7.8 7.8 0 0 0-.13-1.5h-8.1Zm14.77 7.37c-1.72 0-3.2-1.42-3.2-3.44 0-2.04 1.48-3.43 3.2-3.43 1.72 0 3.2 1.4 3.2 3.43 0 2.02-1.48 3.44-3.2 3.44Zm0-9.1a5.59 5.59 0 0 0-5.7 5.66 5.6 5.6 0 0 0 5.7 5.67 5.6 5.6 0 0 0 5.7-5.67 5.59 5.59 0 0 0-5.7-5.67Zm12.42 9.1c-1.72 0-3.2-1.42-3.2-3.44 0-2.04 1.48-3.43 3.2-3.43 1.72 0 3.2 1.4 3.2 3.43 0 2.02-1.48 3.44-3.2 3.44Zm0-9.1a5.59 5.59 0 0 0-5.7 5.66 5.6 5.6 0 0 0 5.7 5.67 5.6 5.6 0 0 0 5.69-5.67 5.59 5.59 0 0 0-5.7-5.67ZM60.4 14.3v.93c0 1.4-.86 2.1-2.57 2.1-1.7 0-2.56-.7-2.56-2.1v-1.02h1.22v1.02c0 .8.45 1.2 1.34 1.2.9 0 1.34-.4 1.34-1.2V14.2l-.75-.11c-2.32-.33-3.48-1.15-3.48-2.47 0-.6.22-1.1.65-1.5.44-.4 1.2-.6 2.28-.6 1.09 0 1.85.2 2.28.6.43.4.65.86.65 1.37v.33h-1.22v-.33a.95.95 0 0 0-.39-.77c-.25-.2-.7-.3-1.32-.3-.63 0-1.07.1-1.33.3-.25.2-.38.5-.38.9 0 .83.78 1.35 2.32 1.57l.74.1.2-.28a.78.78 0 0 1 .57-.23c.22 0 .41.08.57.23.16.16.24.35.24.58 0 .23-.08.42-.23.57l-.17.13Z" fill="#fff"/>
  <path d="M60.4 14.3h-.14v.93c0 .68-.2 1.15-.59 1.47-.4.33-1 .5-1.84.5-.84 0-1.45-.17-1.84-.5-.39-.32-.59-.8-.59-1.47v-.89h.96v.9c0 .41.12.76.38 1 .25.22.63.33 1.1.33.46 0 .83-.1 1.09-.34.25-.23.38-.58.38-1v-1.15l-.87-.13c-1.15-.16-2-.45-2.55-.84a1.76 1.76 0 0 1-.82-1.49c0-.56.2-1.02.61-1.4.4-.37 1.12-.57 2.19-.57 1.07 0 1.8.2 2.19.57.41.38.6.8.6 1.27v.2h-.95v-.2c0-.35-.15-.65-.43-.88-.3-.23-.77-.32-1.41-.32-.64 0-1.1.1-1.41.32-.29.24-.43.59-.43 1.01 0 .46.23.85.64 1.12.41.28 1 .47 1.8.58l.74.1.08.02.24-.36-.12-.07.1.1a.6.6 0 0 1 .48-.2c.19 0 .34.06.48.2.13.13.2.29.2.48 0 .2-.07.34-.2.48l.1.1-.09-.11-.16.13-.06.04v.06h.14l.08.1.17-.12.01-.01a.91.91 0 0 0 .27-.67c0-.26-.1-.49-.27-.67a.92.92 0 0 0-.67-.28c-.26 0-.5.1-.67.28h-.01l-.15.23-.66-.09a4.1 4.1 0 0 1-1.68-.54c-.36-.24-.52-.53-.52-.9s.11-.62.33-.8l-.09-.1.08.1c.22-.16.63-.27 1.25-.27s1.03.1 1.24.27c.23.19.33.4.33.67v.46h1.5v-.46a2 2 0 0 0-.7-1.47c-.48-.44-1.27-.63-2.37-.63s-1.9.2-2.37.63c-.46.43-.7.97-.7 1.6 0 .7.33 1.28.93 1.71.61.43 1.5.72 2.67.89l.64.09v.92c0 .38-.1.64-.3.8-.18.17-.48.27-.9.27-.44 0-.74-.1-.93-.27-.18-.16-.29-.42-.29-.8v-1.16h-1.49v1.16c0 .73.23 1.3.7 1.68.46.38 1.13.56 2 .56.87 0 1.55-.18 2.01-.56.46-.38.7-.95.69-1.68v-.94h-.13Z" fill="#fff"/>
  <path d="M62.46 9.52c.73 0 1.26.14 1.58.43.33.29.5.71.5 1.28v6.1h-1.22v-6.1c0-.31-.07-.52-.19-.64-.12-.11-.35-.17-.67-.17H60.7v-.9h1.75Z" fill="#fff"/>
  <path d="M62.46 9.52v.13c.7 0 1.2.15 1.5.4.3.26.45.64.45 1.18v5.97h-.96v-5.97c0-.32-.06-.57-.23-.74-.17-.15-.42-.2-.76-.2h-1.62v-.64h1.62V9.4h-1.88v1.16h1.88c.3 0 .5.06.58.14l.1-.1-.1.1c.08.07.14.25.14.54v6.24h1.5v-6.24c0-.59-.18-1.06-.55-1.38-.37-.32-.93-.46-1.67-.46v.13Zm5.29 5.8v1.11c.4 0 .6-.24.6-.72 0-.26-.2-.4-.6-.4Zm6.6 2.66h2.27v1.05c0 1.04-.71 1.56-2.14 1.56a4.8 4.8 0 0 1-2.58-.65 5.2 5.2 0 0 0-2.77-.65h-2.6v-.78h2.6c1.5 0 2.62.21 3.35.65a4 4 0 0 0 2 .65c.61 0 .92-.26.92-.78v-.26h-1.06v-.79Zm-7.82-6.66c0-.49.16-.91.49-1.27.32-.35.69-.53 1.1-.53.41 0 .86.27 1.34.8.48-.53.93-.8 1.35-.8.4 0 .76.18 1.09.53.44-.35 1.1-.53 2-.53.94 0 1.63.2 2.07.6.43.4.65.9.65 1.5v5.71H75.4v-5.7c0-.4-.13-.7-.38-.9-.26-.2-.63-.31-1.13-.31-.5 0-.87.1-1.12.3-.25.2-.38.5-.38.9v5.71h-1.23v-6c0-.56-.15-.83-.47-.83-.2 0-.5.2-.85.6-.12.14-.24.21-.38.21s-.27-.07-.39-.2c-.35-.4-.63-.61-.84-.61-.32 0-.48.27-.48.82v3.1c.91 0 1.37.43 1.37 1.3 0 1.07-.46 1.61-1.37 1.61-.81 0-1.22-.26-1.22-.8v-5.2Z" fill="#fff"/>
  <path d="M67.75 15.32h-.13v1.25h.13c.23 0 .43-.07.55-.23a.96.96 0 0 0 .18-.63.47.47 0 0 0-.2-.4.94.94 0 0 0-.53-.13h-.13v.14h.13v.13a.7.7 0 0 1 .38.08l.09.18c0 .23-.05.37-.12.46-.07.08-.17.13-.35.13v.13h.14v-1.11h-.14Zm6.6 2.66v.14h2.14v.9c0 .5-.16.83-.48 1.07-.32.24-.83.37-1.53.37a4.66 4.66 0 0 1-2.51-.64 5.33 5.33 0 0 0-2.84-.67h-2.47v-.51h2.47c1.5 0 2.59.22 3.28.63a4.1 4.1 0 0 0 2.07.67c.33 0 .59-.07.77-.23.2-.16.28-.4.28-.68v-.4h-1.06v-.65h-.26v.92h1.05v.13c0 .23-.06.38-.18.48-.12.1-.31.16-.6.16-.58 0-1.22-.2-1.93-.63-.76-.45-1.9-.67-3.42-.67H66.4v1.05h2.74c1.13 0 2.03.21 2.7.63.72.45 1.6.67 2.65.67.73 0 1.3-.13 1.68-.41.4-.29.6-.73.6-1.28v-1.18H74.2v.13h.13Zm-7.82-6.66h.13c0-.46.15-.84.45-1.18a1.4 1.4 0 0 1 1.01-.49c.35 0 .77.24 1.24.77l.1.1.1-.1c.47-.53.9-.77 1.25-.77.36 0 .68.16 1 .49l.08.09.1-.08c.4-.32 1.03-.5 1.9-.5.94 0 1.6.2 1.99.57.4.38.6.84.6 1.4v5.58h-.95v-5.58c0-.42-.14-.77-.43-1a1.9 1.9 0 0 0-1.2-.33c-.52 0-.93.1-1.21.33l.08.1-.08-.1c-.3.23-.44.58-.44 1v5.58h-.95v-5.88c0-.28-.04-.51-.14-.68a.52.52 0 0 0-.47-.28c-.3.01-.58.25-.95.66l-.28.16-.29-.16c-.36-.41-.64-.65-.94-.66-.2 0-.38.1-.47.28-.1.17-.14.4-.14.68v3.23h.13c.44 0 .74.1.94.29.19.18.3.46.3.87 0 .53-.12.9-.31 1.13-.2.24-.5.36-.93.36-.4 0-.67-.07-.84-.18-.17-.1-.25-.25-.25-.48v-5.22h-.27v5.22c0 .3.13.55.37.7.24.16.57.23 1 .23.47 0 .86-.15 1.12-.46.26-.3.37-.74.37-1.3 0-.45-.12-.82-.38-1.07-.26-.24-.64-.36-1.12-.36v.14h.14v-3.1c0-.26.04-.45.1-.55l.24-.14c.12 0 .4.16.74.57.14.15.3.25.49.24.18 0 .35-.09.48-.24.35-.4.63-.58.75-.57l.24.14c.06.1.1.3.1.55v6.15h1.5v-5.85c0-.37.1-.62.32-.79.22-.18.56-.28 1.04-.28s.82.1 1.04.28c.22.17.33.42.33.8v5.84h1.5v-5.85a2.1 2.1 0 0 0-.7-1.6c-.47-.43-1.2-.63-2.17-.63-.9 0-1.6.17-2.07.55l.08.1.1-.08a1.6 1.6 0 0 0-1.2-.57c-.47 0-.94.3-1.44.85l.1.09.1-.1c-.5-.54-.97-.84-1.44-.84-.45 0-.86.2-1.2.57-.35.38-.53.84-.53 1.36h.14Zm12.05-1.13c0-.45.33-.67.98-.67h1.16v.9c-.6 0-.91.1-.91.3v4.51c0 .4.12.7.38.9.25.2.7.3 1.32.3.63 0 1.07-.1 1.33-.3.25-.2.38-.5.38-.9V12.1l-.52-.65-.26-.32-.14-.33.12-.31.24-.32.5-.64h1.6v.9h-1.6l1.28 1.44v3.37c0 .4.13.7.39.9.25.2.62.3 1.12.3.5 0 .87-.1 1.12-.3.25-.2.38-.5.38-.9V12.1l-.68-.65-.34-.32c-.14-.13-.2-.25-.2-.38l.1-.26.24-.32.49-.64h1.61v.9h-1.61l1.61 1.44v3.37c0 .6-.21 1.1-.65 1.5-.43.4-1.12.6-2.07.6-.95 0-1.65-.2-2.08-.6l-.04-.03-.04.03c-.43.4-1.2.6-2.28.6-1.08 0-1.84-.2-2.28-.6-.43-.4-.65-.9-.65-1.5V10.2Z" fill="#fff"/>
  <path d="M78.58 10.19h.14c0-.2.06-.3.18-.4.13-.08.35-.14.66-.14h1.03v.77h.13v-.13c-.3 0-.55.02-.73.08-.17.05-.32.17-.32.36v4.5c0 .43.15.78.43 1 .3.24.77.34 1.41.34.64 0 1.11-.1 1.41-.33.29-.23.43-.58.43-1v-3.2l-.55-.68-.25-.31-.1-.26.1-.25.22-.3.45-.59h1.41v.64h-1.77l1.45 1.63v3.31c0 .43.14.78.43 1l.09-.1-.09.1c.29.23.7.34 1.2.34.52 0 .92-.1 1.22-.34.28-.22.42-.57.42-1v-3.2l-.72-.69-.34-.32c-.12-.11-.16-.2-.16-.28h-.13l.12.05.1-.25.23-.3.45-.59h1.41v.64h-1.83l1.83 1.63v3.31c0 .57-.2 1.02-.6 1.4-.4.37-1.06.57-2 .57-.93 0-1.58-.2-1.98-.57l-.04-.04-.09-.07-.12.1-.01.01c-.39.37-1.12.57-2.19.57-1.07 0-1.8-.2-2.19-.57-.4-.38-.6-.83-.6-1.4V10.2h-.27v5.04c0 .63.23 1.18.7 1.6.47.44 1.26.64 2.36.64 1.1 0 1.9-.2 2.37-.64l-.09-.1.09.1.04-.03-.09-.1-.09.1.04.03.09-.1-.1.1c.48.43 1.2.64 2.18.64.96 0 1.7-.2 2.16-.64.46-.42.7-.97.7-1.6V11.8l-1.4-1.25h1.4V9.4h-1.82l-.52.69-.25.32v.01l-.12.29v.04c0 .18.09.33.24.47l.09-.1-.1.1.34.33.65.6v3.1c0 .36-.12.61-.33.78-.22.18-.57.28-1.04.28-.48 0-.82-.1-1.04-.27-.22-.18-.33-.43-.33-.8v-3.42l-1.13-1.26h1.45V9.4h-1.8l-.53.69-.24.32-.01.01-.13.33-.02.05.15.38.01.02.27.33.5.61v3.1c0 .37-.12.62-.34.8-.2.17-.62.27-1.24.27-.61 0-1.03-.1-1.24-.27-.22-.18-.33-.43-.33-.8v-4.5c0-.03 0-.06.14-.1.13-.05.35-.08.64-.08h.14V9.4h-1.3c-.34 0-.61.05-.8.19a.7.7 0 0 0-.31.6h.13Zm13.26 3.24v3.9H90.6v-3.9c0-1.4.98-2.1 2.93-2.1 1.96 0 2.93.7 2.93 2.1v3.9h-1.22v-3.9c0-.8-.57-1.2-1.7-1.2-1.14 0-1.71.4-1.71 1.2Zm4.63-3.9v.89h-5.86v-.9h5.86Z" fill="#fff"/>
  <path d="M91.84 13.43h-.14v3.77h-.95v-3.77c0-.67.22-1.15.67-1.47.46-.33 1.16-.5 2.12-.5.96 0 1.67.17 2.12.5.45.32.68.8.68 1.47v3.77h-.96v-3.77c0-.43-.16-.8-.48-1.02a2.35 2.35 0 0 0-1.36-.32c-.58 0-1.03.1-1.35.32a1.2 1.2 0 0 0-.49 1.02h.27c0-.37.12-.62.37-.8a2.1 2.1 0 0 1 1.2-.27c.56 0 .96.1 1.2.27.25.18.37.43.38.8v4.04h1.49v-4.04c0-.73-.27-1.31-.8-1.69a3.9 3.9 0 0 0-2.27-.55 3.9 3.9 0 0 0-2.27.55c-.53.38-.8.96-.79 1.69v4.04h1.49v-4.04h-.13Zm4.63-3.9h-.13v.76h-5.6v-.64h5.73V9.4h-5.99v1.16h6.13V9.4h-.14v.13Zm2.32 5.79c-.18 0-.28.13-.28.4 0 .47.1.71.28.71v-1.11Zm0-3.23-.69-.65-.33-.32c-.14-.13-.2-.25-.2-.38l.1-.26.24-.32.49-.64h.65c.31 0 .47-.1.47-.32v-.98h1.22v.98c0 .81-.56 1.22-1.7 1.22h-.64l1.61 1.44v4.68c0 .53-.2.8-.61.8h-.61c-.7 0-1.04-.55-1.04-1.63 0-.86.34-1.3 1.04-1.3V12.1Z" fill="#fff"/>
  <path d="M98.79 15.32v-.14a.37.37 0 0 0-.32.16.64.64 0 0 0-.09.37c0 .25.02.44.08.6.05.14.17.26.33.26h.13v-1.39h-.13v.14h-.14v1.11h.14v-.13l-.08-.1a1.38 1.38 0 0 1-.06-.49l.04-.22.1-.04v-.13Zm0-3.23.09-.1-.68-.65-.34-.32c-.12-.11-.16-.2-.16-.28h-.14l.13.05.1-.25.23-.3.44-.59h.59c.17 0 .31-.02.43-.1a.41.41 0 0 0 .17-.35v-.85h.96v.85c0 .37-.13.63-.37.8-.25.19-.64.29-1.2.29h-1l1.84 1.63v4.62c0 .25-.05.42-.13.51-.07.1-.17.15-.35.15h-.61c-.32 0-.52-.11-.67-.34a2.15 2.15 0 0 1-.24-1.15c0-.41.08-.7.23-.89.15-.18.36-.27.68-.27h.13v-2.52l-.04-.04-.1.1h-.13v2.33h.14v-.14c-.38 0-.69.12-.89.38-.2.25-.29.6-.29 1.05 0 .56.09.98.28 1.29.2.3.52.47.9.47h.6c.24 0 .45-.08.57-.25.13-.17.19-.4.19-.68V11.8l-1.4-1.25h.3c.58 0 1.03-.1 1.35-.33.31-.23.48-.59.47-1.02V8.09h-1.49v1.1l-.06.14c-.04.03-.13.06-.27.06h-.72l-.53.69-.24.32-.01.01-.11.29-.01.02v.02c0 .18.1.33.24.47l.1-.1-.1.1.34.33.69.64.09-.1Z" fill="#fff"/>
  <path d="M102.1 9.52c.74 0 1.27.14 1.6.43.33.29.5.71.5 1.28v6.1h-1.23v-6.1c0-.31-.06-.52-.19-.64-.12-.11-.34-.17-.67-.17h-1.75v-.9h1.75Z" fill="#fff"/>
  <path d="M102.1 9.52v.13c.72 0 1.22.15 1.51.4.3.26.45.64.45 1.18v5.97h-.96v-5.97c0-.32-.06-.57-.22-.74-.18-.15-.43-.2-.77-.2h-1.61v-.64h1.6V9.4h-1.87v1.16h1.88c.31 0 .5.06.58.14l.1-.1-.1.1c.08.07.15.25.14.54v6.24h1.5v-6.24c0-.59-.18-1.06-.55-1.38-.36-.32-.92-.46-1.67-.46v.13Zm5.43 6.61c0 .2.16.3.48.3h.56v.9h-1.3c-.64 0-.97-.22-.97-.66v-4.58l-.52-.65-.26-.32-.14-.33.13-.31.24-.32.49-.64h1.61v.9h-1.61l1.29 1.44v4.27Z" fill="#fff"/>
  <path d="M107.53 16.13h-.14c0 .14.07.27.19.34.11.07.26.1.43.1h.42v.63h-1.15a1.2 1.2 0 0 1-.66-.14c-.13-.1-.18-.2-.19-.4v-4.62l-.55-.68-.24-.31-.11-.26.1-.25.22-.3.45-.59h1.42v.64h-1.78l1.45 1.63v4.2h.27v-4.3l-1.13-1.27h1.45V9.4h-1.81l-.53.69-.24.32-.01.01-.13.33-.02.05.16.4.28.33.49.61v4.54c0 .25.1.47.3.6.2.14.47.2.8.2h1.43V16.3h-.69a.59.59 0 0 1-.3-.05l-.05-.12h-.13Zm5.57-2.04c-2.31-.33-3.47-1.15-3.47-2.47 0-.6.22-1.1.65-1.5.43-.4 1.2-.6 2.28-.6 1.08 0 1.84.2 2.28.6.43.4.65.86.65 1.37v.22c0 .63-.3.94-.9.94h-.98v-.94c.44 0 .65-.07.65-.22a.95.95 0 0 0-.38-.77c-.25-.2-.7-.3-1.32-.3-.63 0-1.07.1-1.33.3-.25.2-.38.5-.38.9 0 .83.78 1.35 2.32 1.57 1.55.22 2.32.81 2.32 1.78v.52c0 .56-.16 1-.49 1.34-.33.34-.77.5-1.33.5-.57 0-1.01-.2-1.34-.6a2.3 2.3 0 0 0-.68-.62 1.8 1.8 0 0 0-.8-.16v1.38h-1.22v-3.28h1.22v1c.78 0 1.34.13 1.69.4.35.25.6.48.74.68.15.2.28.3.39.3.1 0 .23-.06.38-.2.14-.14.21-.36.21-.67v-.59c0-.48-.38-.77-1.15-.88Z" fill="#fff"/>
  <path d="m113.1 14.09.03-.14c-1.15-.16-2-.45-2.55-.84a1.74 1.74 0 0 1-.82-1.49c0-.56.2-1.02.61-1.4.39-.37 1.12-.57 2.19-.57 1.07 0 1.8.2 2.19.57.4.38.6.8.6 1.27v.22c0 .3-.06.5-.18.62s-.3.19-.58.19h-.84v-.8h-.14v.13c.23 0 .4-.02.53-.06.13-.04.26-.14.26-.3 0-.35-.15-.65-.44-.88-.3-.23-.76-.32-1.4-.32-.64 0-1.11.1-1.41.32-.3.24-.43.59-.43 1.01 0 .46.22.85.64 1.12.41.28 1 .47 1.8.58a3.6 3.6 0 0 1 1.67.59c.36.27.52.61.53 1.06v.52c0 .53-.16.94-.46 1.25-.3.3-.7.46-1.23.46-.54 0-.93-.18-1.24-.56a2.45 2.45 0 0 0-.72-.65 1.87 1.87 0 0 0-.86-.17h-.13v1.38h-.96v-3.01h.96v1h.13c.76 0 1.3.13 1.61.36.35.25.59.48.72.66.15.21.29.35.48.36.17 0 .32-.1.48-.24.18-.18.26-.44.26-.77v-.59a.83.83 0 0 0-.34-.69 2.02 2.02 0 0 0-.94-.33l-.01.14-.02.13c.37.05.64.15.8.28.17.13.24.27.24.47v.59c0 .29-.07.47-.18.57-.13.13-.23.17-.28.17-.03.01-.14-.05-.28-.25a3.59 3.59 0 0 0-.77-.71c-.4-.29-.98-.42-1.77-.42v.13h.14v-1.12l-1.36-.01h-.13v3.55h1.49v-1.52h-.14v.14c.32 0 .57.05.74.14.18.09.4.28.64.58.34.44.84.66 1.44.66a1.9 1.9 0 0 0 1.43-.55c.35-.36.52-.85.52-1.43v-.52c0-.52-.21-.96-.63-1.28a3.84 3.84 0 0 0-1.8-.63 4.1 4.1 0 0 1-1.68-.54c-.36-.24-.52-.53-.52-.9s.1-.62.33-.8l-.09-.1.08.1c.22-.16.63-.27 1.25-.27.61 0 1.03.1 1.24.27.23.19.33.4.33.67-.02.04-.2.1-.52.1h-.13v1.2h1.11c.32 0 .59-.09.77-.28.18-.19.26-.46.26-.8v-.22c0-.55-.24-1.05-.7-1.47-.47-.44-1.26-.63-2.36-.63-1.1 0-1.9.2-2.37.63-.46.43-.7.97-.7 1.6 0 .7.32 1.28.93 1.71.6.43 1.5.72 2.67.89l.02-.13Zm4.9-6.76c0-.19-.03-.31-.08-.38-.06-.08-.19-.11-.39-.11h-.83v-.9h.83c.7 0 1.14.12 1.37.36.22.25.33.59.33 1.03v1.95L118 9.27V7.33Zm-.86 2.2c.73 0 1.26.13 1.6.42.32.29.49.71.49 1.28v6.1H118v-6.1c0-.31-.06-.52-.18-.64-.13-.11-.35-.17-.67-.17h-1.75v-.9h1.74Z" fill="#fff"/>
  <path d="M118 7.33h.14c0-.2-.03-.35-.12-.47l-.1.09.1-.09c-.11-.13-.28-.15-.48-.15h-.7v-.64h.7c.67 0 1.09.13 1.26.32.2.22.3.52.3.94v1.82l-.96-.02v-1.8h-.27V9.4l1.36.01h.13V7.33c0-.46-.12-.84-.36-1.11-.28-.3-.77-.41-1.47-.41h-.96v1.16h.97c.18 0 .27.05.27.06.03.03.06.13.06.3h.13Zm-.86 2.2v.12c.72 0 1.22.15 1.5.4.3.26.45.64.45 1.18v5.97h-.95v-5.97c0-.32-.06-.57-.23-.74-.17-.15-.43-.2-.77-.2h-1.6v-.64h1.6V9.4h-1.87v1.16h1.88c.3 0 .5.06.58.14l.09-.1-.1.1c.09.07.15.25.15.54v6.24h1.5v-6.24c0-.59-.19-1.06-.55-1.38-.37-.32-.93-.46-1.67-.46v.13Zm5.42 6.6c0 .2.16.3.49.3h.55v.9h-1.29c-.65 0-.97-.22-.97-.66v-4.58l-.52-.65-.26-.32-.14-.33.12-.31.24-.32.5-.64h1.6v.9h-1.6l1.28 1.44v4.27Z" fill="#fff"/>
  <path d="M122.56 16.13h-.13c0 .14.06.27.18.34s.26.1.44.1h.42v.63h-1.16a1.2 1.2 0 0 1-.65-.14c-.13-.1-.19-.2-.19-.4v-4.62l-.55-.68-.25-.31-.1-.26.09-.25.23-.3.45-.59h1.41v.64h-1.78l1.46 1.63v4.2h.26v-4.3l-1.12-1.27h1.45V9.4h-1.81l-.53.69-.24.32-.02.01-.14.38.15.38.01.02.27.33.5.61v4.54c0 .25.1.47.3.6.2.14.46.2.8.2h1.43V16.3h-.7a.58.58 0 0 1-.29-.05l-.06-.12h-.13Zm3.3-.81v1.11c.4 0 .6-.24.6-.72 0-.26-.2-.4-.6-.4Zm7.32-3.23-.69-.65-.34-.32c-.13-.13-.2-.25-.2-.38l.1-.26.25-.32.48-.64h1.62v.9h-1.62l1.62 1.44v3.37c0 1.4-.91 2.1-2.73 2.1-1.82 0-2.73-.7-2.73-2.1v-3.6c0-.81-.51-1.21-1.54-1.21s-1.54.4-1.54 1.2v2.8c.9 0 1.36.43 1.36 1.3 0 1.07-.45 1.61-1.36 1.61-.82 0-1.23-.26-1.23-.8v-4.9c0-1.4.93-2.1 2.77-2.1 1.84 0 2.77.7 2.77 2.1v3.6c0 .8.5 1.2 1.5 1.2s1.5-.4 1.5-1.2V12.1Z" fill="#fff"/>
  <path d="M125.86 15.32h-.14v1.25h.14c.22 0 .42-.07.55-.23a.96.96 0 0 0 .18-.63.47.47 0 0 0-.21-.4.94.94 0 0 0-.52-.13h-.14v.14h.14v.13a.7.7 0 0 1 .37.08l.1.18c0 .23-.05.37-.13.46-.07.08-.17.13-.34.13v.13h.13v-1.11h-.13Zm7.32-3.23.08-.1-.68-.65-.34-.32c-.12-.11-.16-.2-.16-.28h-.13l.13.05.1-.25.22-.3.45-.59h1.41v.64h-1.82l1.82 1.63v3.31c0 .67-.2 1.15-.63 1.47-.41.33-1.07.5-1.96.5-.9 0-1.54-.17-1.96-.5-.42-.32-.63-.8-.63-1.47v-3.6c0-.43-.15-.79-.44-1.01-.3-.23-.7-.33-1.24-.33-.53 0-.95.1-1.24.33-.3.22-.44.58-.44 1v2.93h.14c.43 0 .74.1.93.29.2.18.3.46.3.87 0 .53-.11.9-.31 1.13-.2.24-.5.36-.92.36-.4 0-.68-.07-.85-.18-.17-.1-.24-.25-.24-.48v-4.92c0-.67.21-1.14.64-1.47.42-.32 1.08-.5 1.99-.5.9 0 1.57.18 2 .5.42.33.63.8.63 1.47v3.61c0 .43.14.78.43 1 .28.24.7.34 1.21.34.52 0 .93-.1 1.21-.33.29-.23.43-.58.43-1v-3.21l-.05-.04-.08.1h-.14v3.14c0 .38-.11.63-.32.8-.22.17-.56.27-1.05.27-.48 0-.83-.1-1.04-.27-.22-.17-.33-.42-.33-.8v-3.6c0-.74-.25-1.31-.74-1.69a3.53 3.53 0 0 0-2.16-.55c-.94 0-1.66.17-2.16.55-.5.38-.74.95-.74 1.68v4.92c0 .3.13.55.37.7.23.16.56.23.99.23.48 0 .87-.15 1.12-.46.26-.3.38-.74.38-1.3 0-.45-.12-.82-.39-1.07a1.6 1.6 0 0 0-1.11-.36v.14h.13v-2.8c0-.37.11-.62.33-.8a1.8 1.8 0 0 1 1.08-.27c.5 0 .85.1 1.07.28.22.17.34.42.34.8v3.6c0 .73.24 1.3.73 1.68.5.38 1.2.56 2.13.56.93 0 1.64-.18 2.13-.56.49-.37.73-.95.73-1.68V11.8l-1.4-1.25h1.4V9.4h-1.81l-.53.69-.24.32-.01.01-.11.29-.01.02v.02c0 .18.1.33.24.47l.1-.1-.1.1.34.33.68.64.1-.1Zm-1.08-5.43c-.15.13-.23.36-.23.71h3.31a5.24 5.24 0 0 0-1.3-.71 3.1 3.1 0 0 0-.96-.2c-.4 0-.67.07-.82.2Zm4.33 1.56h-4.88c-.44 0-.65-.33-.65-.98 0-.43.17-.81.52-1.14.34-.32.84-.49 1.5-.49.64 0 1.27.17 1.88.5.26.13.5.27.73.43V5.29h.9v2.93Z" fill="#fff"/>
  <path d="m132.1 6.66-.09-.1c-.2.17-.27.45-.27.81v.14h3.86l-.34-.25c-.5-.35-.94-.6-1.34-.73a3.2 3.2 0 0 0-1-.2c-.4 0-.7.06-.9.22l.08.1.09.1c.1-.09.35-.16.73-.16.23 0 .54.07.92.2.36.12.78.35 1.26.7l.08-.12v-.13h-3.3v.13h.13c0-.33.07-.52.18-.61l-.09-.1Zm4.33 1.56v-.13h-4.88c-.19 0-.3-.06-.38-.19a1.2 1.2 0 0 1-.14-.66c0-.4.15-.73.48-1.04.31-.3.78-.45 1.4-.45.63 0 1.24.15 1.83.47.25.13.5.28.72.43l.2.14V5.42h.64v2.8h.26V5.16h-1.16v1.38h.13l.08-.11c-.24-.16-.48-.3-.75-.45a4.1 4.1 0 0 0-1.94-.5c-.68 0-1.21.17-1.6.53-.36.34-.56.76-.56 1.23 0 .34.06.61.19.8.13.2.35.32.6.31h5.01v-.13h-.13Z" fill="#fff"/>
</svg>
