<svg id="artwork" xmlns="http://www.w3.org/2000/svg" version="1.1" viewBox="0 0 239 70.9">
  <defs>
    <style>
      .st5{fill:#fff}
    </style>
  </defs>
  <rect width="239" height="70.8" rx="8.8" ry="8.8"/>
  <path class="st5" d="M120.6 38.5c-4.1 0-7.5 3.2-7.5 7.6s3.4 7.5 7.5 7.5 7.6-3.2 7.6-7.6-3.4-7.5-7.6-7.5Zm0 12.1c-2.3 0-4.2-1.9-4.2-4.6s2-4.5 4.2-4.5 4.3 1.8 4.3 4.5-2 4.6-4.3 4.6Zm-16.5-12c-4.1 0-7.5 3.1-7.5 7.4s3.4 7.6 7.5 7.6 7.6-3.2 7.6-7.6-3.4-7.5-7.6-7.5Zm0 12c-2.3 0-4.2-1.9-4.2-4.6s2-4.5 4.2-4.5 4.3 1.8 4.3 4.5-2 4.6-4.3 4.6Zm-19.6-9.8V44h7.7a6.7 6.7 0 0 1-1.8 4 7.8 7.8 0 0 1-5.9 2.4 8.4 8.4 0 0 1-8.4-8.5 8.4 8.4 0 0 1 14.2-6.2l2.2-2.3a11.1 11.1 0 0 0-8-3.2c-6.4 0-11.8 5.3-11.8 11.7S78 53.6 84.5 53.6c3.5 0 6.1-1.1 8.2-3.3 2-2 2.7-5 2.7-7.4l-.1-2H84.5Zm80.2 2.5c-.6-1.6-2.5-4.8-6.4-4.8s-7.1 3-7.1 7.6c0 4.2 3.2 7.5 7.4 7.5 3.5 0 5.5-2.1 6.3-3.4l-2.6-1.7c-.8 1.3-2 2.1-3.7 2.1s-2.8-.8-3.6-2.3l10-4.1-.3-.9Zm-10.3 2.5c0-2.9 2.3-4.3 4-4.3 1.3 0 2.4.6 2.8 1.5l-6.8 2.8Zm-8.1 7.3h3.3V31h-3.3v22.1Zm-5.5-12.9a5.2 5.2 0 0 0-4-1.7c-3.8 0-7.2 3.3-7.2 7.6s3.4 7.5 7.2 7.5a5 5 0 0 0 4-1.7v1c0 3-1.5 4.5-4 4.5-2 0-3.2-1.5-3.8-2.7l-2.9 1.2c.9 2 3 4.5 6.7 4.5 3.9 0 7.2-2.3 7.2-7.9V39h-3.2v1.2ZM137 50.6c-2.2 0-4.2-1.9-4.2-4.5s2-4.6 4.2-4.6 4 2 4 4.6-1.7 4.5-4 4.5ZM180.2 31h-7.9v22.1h3.3v-8.4h4.6c3.7 0 7.3-2.6 7.3-6.8s-3.6-6.9-7.3-6.9Zm0 10.7h-4.6V34h4.7a3.8 3.8 0 1 1 0 7.6Zm20.5-3.2c-2.4 0-4.9 1-5.9 3.4l3 1.2c.6-1.2 1.8-1.6 3-1.6 1.7 0 3.4 1 3.4 2.8v.3c-.6-.4-1.8-.9-3.4-.9-3.2 0-6.4 1.7-6.4 5 0 3 2.6 4.8 5.5 4.8 2.2 0 3.5-1 4.2-2.1h.1V53h3.2v-8.5c0-4-3-6.1-6.7-6.1Zm-.4 12.1c-1 0-2.6-.5-2.6-1.9 0-1.7 1.9-2.3 3.5-2.3 1.5 0 2.2.3 3 .7a4 4 0 0 1-3.9 3.5ZM219 39l-3.8 9.6-4-9.6h-3.6l6 13.4-3.4 7.4h3.4l9.1-20.8H219Zm-29.7 14h3.3V31h-3.3v22.1Z"/>
  <path d="m36.7 34.4-18.9 20a5 5 0 0 0 7.5 3l21.3-12.2-10-10.8Z" style="fill:#ea4335"/>
  <path d="m55.7 31-9.1-5.3-10.3 9.2 10.3 10.3 9.1-5.2c1.6-1 2.7-2.6 2.7-4.5s-1-3.6-2.6-4.5Z" style="fill:#fbbc04"/>
  <path d="m17.8 16.5-.2 1.3V53c0 .5 0 1 .2 1.3L37.3 35 17.8 16.5Z" style="fill:#4285f4"/>
  <path d="m36.8 35.4 9.8-9.7-21.2-12.3a5.1 5.1 0 0 0-7.6 3l19 19Z" style="fill:#34a853"/>
  <g style="isolation:isolate">
    <path class="st5" d="M76.3 22.9c-1 0-1.7-.2-2.2-.6s-.7-1-.7-1.9v-1.2h1.4v1.2c0 .5.1.8.4 1.1.3.2.6.3 1.1.3s1 0 1.2-.3c.3-.2.4-.6.4-1v-1.3a9 9 0 0 1-2.8-.6c-.7-.2-1.3-.5-1.6-1a2 2 0 0 1-.5-1.3c0-.5.1-1 .3-1.3l1-.9c.6-.2 1.2-.3 2-.3s1.6.1 2 .3 1 .5 1.2.9.3.7.3 1.1v.4h-1.5V16c0-.4 0-.6-.4-.9-.3-.2-.8-.3-1.5-.3s-1.3 0-1.6.3c-.3.2-.4.6-.4 1s.1.7.4 1l1.1.6 2 .4.4-.5.5-.1h.5l.3.4.2.4c0 .3 0 .5-.2.6a1 1 0 0 1-.3.3v1.1c0 .8-.2 1.5-.7 1.9s-1.3.6-2.3.6Zm6.8 0v-7.1c0-.4-.1-.6-.3-.7l-1-.2h-2.1v-1h2.8c.6 0 1 0 1.2.2.3.1.5.3.6.6l.2 1.1V23H83Zm4.4-3.6v-3.4c0-.4 0-.7.2-1 .1-.3.3-.6.6-.8s.6-.3 1-.3c.3 0 .6.1.8.3.3.1.6.4.8.7.4-.3.6-.6 1-.7.2-.2.5-.3 1-.3s.6.1.8.3l.5.8.2 1v7h-1.5v-7.7c0-.1-.3-.3-.5-.3s-.3 0-.4.2l-.4.3-.3.4h-.7l-.3-.4c-.1-.2-.2-.2-.4-.3a.6.6 0 0 0-.4-.2l-.4.3v4.1h-1.5Zm0-.2H89v.4c.4 0 .6 0 .9.2l.6.5.2 1c0 .5-.2 1-.5 1.2-.3.4-.7.5-1.1.5h-.5c-.2 0-.5 0-.7-.2a.9.9 0 0 1-.3-.7v-3Zm9 7.6-1-.1a7 7 0 0 1-1.7-.9l-1-.3-1-.2h-4.2v-1h3a14.3 14.3 0 0 1 2.7.4l1 .4.8.4.8.3.7.1c.5 0 .8-.1 1-.3.2-.2.3-.5.3-1h-1.1v-.8h2.4v.3c0 .6 0 1-.3 1.4-.2.4-.5.7-.9 1a3 3 0 0 1-1.4.3ZM89 21.9l.4-.1.2-.3.1-.3c0-.2 0-.4-.2-.5l-.5-.1v1.3Zm4.9-7.2 1-.7c.3-.2.8-.2 1.4-.2a4 4 0 0 1 1.9.3c.4.2.7.5.9 1l.2 1.2v6.6h-1.4v-6.6c0-.5-.2-.8-.5-1.1-.2-.3-.7-.4-1.2-.4s-.9 0-1.1.2l-.8.5-.4-.9ZM114 17v3.4c0 .7-.3 1.3-.8 1.8-.5.4-1.3.7-2.4.7-.6 0-1 0-1.4-.2-.5-.2-.8-.3-1-.6l-.7.5a3 3 0 0 1-.9.2h-1.1c-.9 0-1.6 0-2-.2s-1-.6-1.2-1c-.2-.3-.3-.7-.3-1.2v-5.8c0-.5.4-.8 1.2-.8h1.3v1a3 3 0 0 0-.8.1c-.2 0-.3.2-.3.3v5.2c0 .5.2.8.5 1 .3.3.8.4 1.5.4l1.2-.1c.3-.1.5-.3.6-.5l.2-.8V17h1.4v3.4c0 .5.2.8.5 1 .3.3.7.4 1.3.4s1 0 1.3-.3c.3-.3.4-.6.4-1V17h1.5Zm-6.4.3v-.5l-.7-.9-.3-.4v-.4l.3-.5c0-.2.3-.4.6-.8h1.9v1h-1.9l1.5 1.7v.8h-1.4Zm5 0v-.5l-.7-.9-.3-.4-.1-.2V15l.3-.5.7-.8h1.8v1h-1.8l1.5 1.7v.8h-1.5Zm4.4-2.4v-1h6.8v1H117Zm0 8v-4.5c0-.8.3-1.5.9-1.9s1.4-.6 2.5-.6 2 .2 2.6.6.8 1 .8 1.9v4.5h-1.4v-4.5c0-.5-.1-.8-.5-1-.3-.3-.8-.4-1.5-.4s-1.1 0-1.5.3c-.3.2-.5.6-.5 1V23H117Zm11.9-5.9v4.8c0 .4 0 .7-.3.8-.2.2-.4.3-.8.3h-.3l-.8-.1-.7-.5c-.2-.3-.3-.6-.3-1 0-.5.1-.8.3-1l.7-.6.8-.2v-2.4h1.4Zm-1.4.4v-.6l-1-1-.4-.4V15l.3-.4.6-.8h1.1l.2-.4v-1h1.4v1c0 .4 0 .6-.2.8l-.7.5a3 3 0 0 1-1 .2h-.8l1.8 1.6v1h-1.4Zm0 4.5v-1.3a1 1 0 0 0-.5 0l-.3.6c0 .2.1.4.3.5l.5.2Zm.3-8h1.1v1h-1.1v-1Zm4.1 9v-7.1c0-.4 0-.6-.2-.7l-1-.2h-2.1v-1h2.8c.5 0 1 0 1.2.2.3.1.5.3.6.6l.1 1.1V23H132Zm4.5-5.6v-.5l-.7-.9-.3-.4-.1-.2V15l.3-.5.7-.8h1.8v1h-1.8l1.5 1.7v.8h-1.5Zm1.4-.2v4.2l.1.4.4.2h.7v1h-1.5c-.4 0-.6 0-.8-.2s-.3-.3-.3-.6v-5h1.4Zm3 5.8v-3.8h1.5v1.2l1 .1.6.3.5.4.5.5.6.3.4-.1c.1-.1.3-.3.3-.5l.2-.7c0-.3 0-.5-.2-.7 0-.2-.2-.3-.5-.5l-.8-.3c-.7 0-1.3-.2-1.8-.4l-1.2-.6c-.4-.2-.6-.5-.8-.8a2 2 0 0 1-.2-1c0-.5 0-1 .3-1.3l1-.9c.5-.2 1.2-.3 2-.3s1.6.1 2 .3c.6.2 1 .4 1.1.7a1.7 1.7 0 0 1 .2 1.8c-.2.3-.4.5-.7.6-.3.2-.7.3-1.2.3h-.1v-1h.4l.2-.3.1-.4c0-.2 0-.3-.2-.5l-.6-.3-1-.1c-.8 0-1.4 0-1.7.3-.3.2-.4.6-.4 1s0 .6.3.9l.9.6c.4.2.9.3 1.5.3.6.2 1.2.3 1.6.6l1 .8.2 1.2a2.2 2.2 0 0 1-2.3 2.3l-1-.3-.7-.6-.5-.4-.4-.3h-.6v1.6h-1.5Z"/>
    <path class="st5" d="M150.7 22.9v-7.1c0-.4 0-.6-.3-.7-.1-.2-.4-.2-1-.2h-2v-1h2.8c.5 0 .9 0 1.2.2.2.1.4.3.5.6l.2 1.1V23h-1.4Zm1.2-9.4h-1.4v-2.7H149V9.6h1.6c.4 0 .7 0 .9.2l.4.5v3.3Zm3.2 3.8v-.5l-.7-.9-.3-.4v-.4l.3-.5.6-.8h2v1h-2l1.5 1.7v.8h-1.4Zm1.5-.2v4.6l.5.2h.7v1h-1.5c-.4 0-.7 0-.9-.2s-.3-.3-.3-.6v-5h1.5ZM171 17v3.4c0 .8-.3 1.5-.9 1.9s-1.3.6-2.4.6c-2 0-3.1-.8-3.1-2.4v-2.1c0-.5-.2-.8-.5-1-.3-.3-.7-.4-1.3-.4s-1 .1-1.4.3-.4.6-.4 1v1h-1.4v-1c0-.5 0-1 .3-1.4l1-.8 1.9-.2c.8 0 1.3 0 1.8.3.4.1.8.4 1 .8.3.3.4.8.4 1.3v2.1c0 .5.1.8.4 1 .3.3.8.4 1.3.4s1 0 1.3-.3c.3-.2.5-.6.5-1V17h1.4Zm-11.4 2h1.4v.5c.4 0 .6 0 .9.2l.6.5.2 1c0 .5-.2 1-.5 1.2-.3.4-.7.5-1.1.5h-.5c-.2 0-.5 0-.7-.2a.9.9 0 0 1-.3-.7v-3Zm1.1-2.6-.5-.6-.2-.3V15l.3-.5.7-.8h4.3v1H161l1 1.2-1.3.4Zm.3 5.5.4-.1.2-.3v-.8l-.6-.1v1.3Zm8.5-4.6v-.5l-.7-.9-.3-.4v-.4l.3-.5.6-.8h1.9v1h-1.9l1.5 1.7v.8h-1.4Zm-4-5c-.3 0-.5 0-.6-.3l-.2-.8c0-.4.1-.7.3-1l.8-.7c.4-.2.8-.2 1.3-.2l1.1.1 1 .5a7.7 7.7 0 0 1 2 1.3v1h-5.7Zm.4-1h3.8a7 7 0 0 0-1.5-.8 3 3 0 0 0-1.1-.2c-.4 0-.7 0-1 .2s-.2.4-.2.8Zm2.5-1.6h1c.3 0 .6 0 .8-.2l.4-.4v-.6h1.4c0 .5-.1.8-.4 1.2s-.5.5-1 .7l-1.2.3h-.3l-.7-1Z"/>
  </g>
</svg>
