<svg width="180" height="54" fill="none" xmlns="http://www.w3.org/2000/svg">
  <path d="M173.3 54H6.7A6.7 6.7 0 0 1 0 47.2V6.8C0 3 3 0 6.7 0h166.6a6.7 6.7 0 0 1 6.7 6.8v40.5c0 3.7-3 6.7-6.7 6.7Z" fill="#000"/>
  <path d="M27.6 26.2 13.4 41.5a3.8 3.8 0 0 0 5.7 2.3l16-9.3-7.5-8.3Z" fill="#EA4335"/>
  <path d="m42 23.6-7-4-7.7 7 7.8 7.9 6.9-4a3.9 3.9 0 0 0 2-3.5 4 4 0 0 0-2-3.4Z" fill="#FBBC04"/>
  <path d="M13.4 12.5a3.7 3.7 0 0 0-.1 1v27l.1 1 14.7-14.9-14.7-14Z" fill="#4285F4"/>
  <path d="m27.7 27 7.4-7.4-16-9.4a3.9 3.9 0 0 0-5.7 2.3L27.7 27Z" fill="#34A853"/>
  <path d="M142.6 40h2.5V23.3h-2.5V40ZM165 29.3l-2.9 7.3-3-7.3h-2.7l4.5 10.1-2.6 5.7h2.6l6.9-15.8H165Zm-14.1 8.8c-.8 0-2-.4-2-1.4 0-1.3 1.4-1.8 2.7-1.8 1 0 1.6.2 2.2.6a3 3 0 0 1-3 2.6Zm.3-9.1c-1.8 0-3.7.8-4.4 2.5l2.2 1c.4-1 1.3-1.3 2.2-1.3 1.3 0 2.6.8 2.7 2.2v.1a5.5 5.5 0 0 0-2.6-.6c-2.4 0-4.8 1.3-4.8 3.8 0 2.2 1.9 3.6 4 3.6a3.5 3.5 0 0 0 3.3-1.6V40h2.5v-6.4c0-3-2.2-4.6-5.1-4.6Zm-15.4 2.4h-3.5v-5.8h3.5a2.9 2.9 0 0 1 3 3 2.9 2.9 0 0 1-3 2.8Zm0-8h-6V40h2.5v-6.3h3.5c2.7 0 5.4-2 5.4-5.2s-2.7-5.2-5.4-5.2ZM103.3 38c-1.8 0-3.2-1.4-3.2-3.4s1.4-3.5 3.1-3.5c1.7 0 3 1.5 3 3.5s-1.3 3.4-3 3.4Zm2.8-7.8h-.1a4 4 0 0 0-3-1.3 5.6 5.6 0 0 0-5.4 5.7c0 3.2 2.6 5.6 5.4 5.6a4 4 0 0 0 3-1.2v.8c0 2.1-1 3.3-3 3.3a3.1 3.1 0 0 1-2.8-2L98 42a5.4 5.4 0 0 0 5 3.3c3 0 5.5-1.7 5.5-5.9v-10H106v.9Zm4 9.7h2.6V23.3h-2.5V40Zm6.3-5.5a3.1 3.1 0 0 1 3-3.3c.9 0 1.7.5 2 1.2l-5 2.1Zm7.7-1.9c-.5-1.3-2-3.6-4.9-3.6-2.9 0-5.3 2.3-5.3 5.7 0 3.1 2.4 5.6 5.6 5.6 2.6 0 4.1-1.5 4.7-2.5l-1.9-1.3a3.2 3.2 0 0 1-2.8 1.6 2.9 2.9 0 0 1-2.7-1.7l7.5-3.1-.2-.7Zm-60.4-1.9V33h5.7a5 5 0 0 1-1.3 3 5.9 5.9 0 0 1-4.4 1.8 6.3 6.3 0 0 1-6.3-6.4A6.3 6.3 0 0 1 68 27l1.7-1.7a8.4 8.4 0 0 0-6-2.5 9 9 0 0 0-9 8.8 9 9 0 0 0 9 8.8 8 8 0 0 0 6.1-2.4c1.6-1.6 2-3.8 2-5.6a7.8 7.8 0 0 0 0-1.5h-8.1ZM78.4 38c-1.7 0-3.2-1.4-3.2-3.4s1.5-3.5 3.2-3.5c1.8 0 3.2 1.4 3.2 3.5 0 2-1.4 3.4-3.2 3.4Zm0-9a5.6 5.6 0 0 0-5.7 5.6 5.6 5.6 0 0 0 5.7 5.6 5.6 5.6 0 0 0 5.7-5.6 5.6 5.6 0 0 0-5.7-5.7ZM91 38c-1.8 0-3.2-1.4-3.2-3.4s1.4-3.5 3.2-3.5c1.7 0 3.2 1.4 3.2 3.5 0 2-1.5 3.4-3.2 3.4Zm0-9a5.6 5.6 0 0 0-5.7 5.6 5.6 5.6 0 0 0 5.7 5.6 5.6 5.6 0 0 0 5.7-5.6 5.6 5.6 0 0 0-5.7-5.7ZM60.4 14.2v1c0 1.3-.9 2-2.6 2-1.7 0-2.5-.7-2.5-2v-1h1.2v1c0 .7.4 1.1 1.3 1.1 1 0 1.4-.4 1.4-1.2v-1l-.8-.1c-2.3-.3-3.5-1.2-3.5-2.5 0-.6.3-1 .7-1.5.4-.4 1.2-.6 2.3-.6 1 0 1.8.2 2.3.6.4.4.6.9.6 1.4v.3h-1.2v-.3a1 1 0 0 0-.4-.8c-.3-.2-.7-.3-1.3-.3-.7 0-1.1.1-1.4.3-.2.2-.3.5-.3 1 0 .7.7 1.3 2.3 1.5h.7l.2-.2a.8.8 0 0 1 .6-.2c.2 0 .4 0 .6.2l.2.6c0 .2 0 .4-.2.6h-.2Z" fill="#fff"/>
  <path d="M60.4 14.3h-.1v1c0 .6-.2 1-.6 1.4a3 3 0 0 1-1.9.5 3 3 0 0 1-1.8-.5c-.4-.3-.6-.8-.6-1.5v-.9h1v1c0 .3 0 .7.3 1 .3.2.7.3 1.1.3.5 0 .9-.1 1.1-.4.3-.2.4-.6.4-1v-1.1l-.9-.2c-1.1-.1-2-.4-2.5-.8a1.8 1.8 0 0 1-.8-1.5c0-.5.2-1 .6-1.4.4-.4 1.1-.6 2.2-.6 1 0 1.8.2 2.2.6.4.4.6.8.6 1.3v.2h-1v-.2c0-.4-.1-.7-.4-.9-.3-.2-.8-.3-1.4-.3-.7 0-1.1 0-1.4.3a1.2 1.2 0 0 0 .2 2.1c.4.3 1 .5 1.8.6l.7.1.3-.3a.6.6 0 0 1 .5-.2c.2 0 .3 0 .5.2l.2.5-.2.5h-.2v.1h.1v.2l.2-.1a1 1 0 0 0 .3-.7 1 1 0 0 0-.2-.7 1 1 0 0 0-.7-.3 1 1 0 0 0-.7.3l-.1.2h-.7a4.1 4.1 0 0 1-1.7-.6c-.3-.2-.5-.5-.5-.9s.1-.6.3-.8c.2-.1.6-.3 1.3-.3s1 .1 1.2.3c.2.2.3.4.3.7v.4H61v-.4a2 2 0 0 0-.7-1.5c-.4-.4-1.2-.6-2.3-.6s-2 .2-2.4.6a2 2 0 0 0-.7 1.6 2 2 0 0 0 1 1.7c.5.5 1.4.7 2.6 1h.6v1c0 .3 0 .6-.3.7-.1.2-.4.3-.9.3-.4 0-.7-.1-.9-.3-.2-.1-.3-.4-.3-.8v-1.1h-1.5v1.1c0 .8.3 1.3.7 1.7.5.4 1.2.6 2 .6.9 0 1.6-.2 2-.6.5-.4.7-1 .7-1.7v-1h-.1Z" fill="#fff"/>
  <path d="M62.5 9.5c.7 0 1.2.2 1.5.4.4.3.5.8.5 1.3v6.1h-1.2v-6c0-.4 0-.6-.2-.7l-.6-.2h-1.8v-.9h1.8Z" fill="#fff"/>
  <path d="M62.5 9.5v.1c.7 0 1.2.2 1.5.5.3.2.4.6.4 1.1v6h-1v-6c0-.3 0-.5-.2-.7-.2-.2-.4-.2-.7-.2h-1.7v-.6h1.7v-.3h-2v1.2h2l.5.1.1-.1v6.9h1.6v-6.3c0-.5-.2-1-.6-1.3-.3-.4-.9-.5-1.6-.5v.1Zm5.3 5.8v1.1c.4 0 .6-.2.6-.7 0-.3-.3-.4-.7-.4Zm6.6 2.7h2.2v1c0 1-.7 1.6-2.1 1.6a4.8 4.8 0 0 1-2.6-.7 5.2 5.2 0 0 0-2.8-.6h-2.6v-.8h2.6c1.5 0 2.7.2 3.4.7a4 4 0 0 0 2 .6c.6 0 .9-.3.9-.8v-.2h-1V18Zm-7.9-6.7c0-.5.2-.9.5-1.3.3-.3.7-.5 1.1-.5.4 0 .9.3 1.4.8.4-.5.9-.8 1.3-.8s.8.2 1.1.6c.4-.4 1.1-.6 2-.6 1 0 1.6.2 2 .6.5.4.7 1 .7 1.5v5.7h-1.2v-5.7c0-.4-.1-.7-.4-.9-.2-.2-.6-.3-1.1-.3-.5 0-.9.1-1.1.3-.3.2-.4.5-.4 1v5.6h-1.2v-6c0-.5-.2-.8-.5-.8-.2 0-.5.2-.9.6l-.3.2c-.1 0-.3 0-.4-.2-.4-.4-.7-.6-.9-.6-.3 0-.4.3-.4.8v3.1c.9 0 1.3.5 1.3 1.3 0 1-.4 1.6-1.3 1.6s-1.3-.2-1.3-.8v-5.2Z" fill="#fff"/>
  <path d="M67.8 15.3h-.2v1.3h.2c.2 0 .4-.1.5-.3a1 1 0 0 0 .2-.6.5.5 0 0 0-.2-.4 1 1 0 0 0-.5-.1h-.2v.1h.2v.1a.7.7 0 0 1 .3.1l.1.2-.1.5-.3.1v.1-1Zm6.6 2.7v.1h2v1c0 .4 0 .7-.4 1-.3.2-.8.4-1.5.4a4.7 4.7 0 0 1-2.5-.7 5.3 5.3 0 0 0-2.9-.7h-2.4v-.5H69c1.5 0 2.6.3 3.3.7a4.1 4.1 0 0 0 2 .6c.4 0 .7 0 .8-.2.2-.2.3-.4.3-.7v-.4h-1V18h-.3v.9h1v.1l-.1.5-.6.2c-.6 0-1.2-.2-2-.7-.7-.4-1.9-.6-3.4-.6h-2.7v1H69a5 5 0 0 1 2.7.7c.8.4 1.6.6 2.7.6.7 0 1.3-.1 1.7-.4.4-.3.6-.7.6-1.3v-1h-2.6.1Zm-7.9-6.7h.2c0-.4.1-.8.4-1.2a1.4 1.4 0 0 1 1-.4c.4 0 .8.2 1.3.7v.1h.2c.4-.6.9-.9 1.2-.9.4 0 .7.2 1 .5v.1h.2c.4-.4 1-.5 1.9-.5 1 0 1.6.2 2 .5.4.4.6.9.6 1.4v5.6h-1v-5.6c0-.4-.1-.7-.4-1a1.9 1.9 0 0 0-1.2-.3c-.5 0-1 0-1.2.3v.1c-.3.2-.5.5-.5 1v5.5h-.9v-5.9l-.1-.7a.5.5 0 0 0-.5-.2c-.3 0-.6.2-1 .6l-.2.2-.3-.2c-.4-.4-.7-.6-1-.6-.2 0-.4 0-.4.2l-.2.7v3.3h.1c.5 0 .8 0 1 .2.2.2.3.5.3 1 0 .4-.1.8-.3 1-.2.3-.5.4-1 .4-.4 0-.6 0-.8-.2-.2 0-.2-.2-.2-.5v-5.2h-.3v5.2c0 .3.1.6.4.7.2.2.5.3 1 .3.4 0 .8-.2 1-.5.3-.3.4-.7.4-1.3 0-.4 0-.8-.3-1-.3-.3-.7-.4-1.2-.4v.1h.2v-3.6l.3-.2.8.6c.1.2.3.3.5.2.1 0 .3 0 .4-.2l.8-.6.2.2.1.5v6.2h1.5v-5.9c0-.3.1-.6.3-.8l1-.2c.5 0 1 0 1.1.2.2.2.4.5.4.8v5.9h1.5v-5.9A2.1 2.1 0 0 0 76 10c-.5-.4-1.2-.6-2.2-.6-1 0-1.6.2-2 .5v.1h.1a1.6 1.6 0 0 0-1.2-.6c-.5 0-1 .3-1.4.8v.1h.2c-.5-.6-1-1-1.5-1-.4 0-.8.3-1.2.7a2 2 0 0 0-.5 1.3h.1Zm12-1.1c0-.5.4-.7 1-.7h1.2v1c-.6 0-.9 0-.9.2v4.5c0 .4.1.7.4 1l1.3.2c.6 0 1 0 1.3-.3.3-.2.4-.5.4-.9v-3.1l-.5-.7-.3-.3-.1-.3.1-.3.3-.3.5-.7h1.6v1h-1.6l1.2 1.4v3.3c0 .4.2.7.4 1l1.1.2c.5 0 1 0 1.2-.3.2-.2.3-.5.3-.9v-3.1l-.6-.7-.4-.3-.2-.4.1-.2.3-.3.5-.7h1.6v1H87l1.6 1.4v3.3a2 2 0 0 1-.7 1.5c-.4.4-1.1.6-2 .6-1 0-1.7-.2-2.1-.6h-.1c-.4.4-1.2.6-2.3.6-1 0-1.8-.2-2.3-.6a2 2 0 0 1-.6-1.5v-5Z" fill="#fff"/>
  <path d="M78.6 10.2h.1c0-.2 0-.3.2-.4.1 0 .3-.2.7-.2h1v.8h.1v-.1H80c-.2.1-.3.2-.3.4v4.5c0 .5.1.8.4 1 .3.3.8.4 1.4.4.7 0 1.1-.1 1.4-.4.3-.2.4-.5.4-1V12l-.5-.6-.2-.4-.1-.2v-.3l.3-.3.4-.6h1.4v.7H83l1.4 1.6v3.3c0 .5.2.8.4 1h.1c.2.3.6.4 1.1.4.6 0 1-.1 1.3-.4.2-.2.4-.5.4-1V12l-.7-.7-.4-.3-.1-.3h-.2.2v-.2l.3-.3.4-.6h1.4v.7h-1.8l1.8 1.6v3.3c0 .6-.2 1-.6 1.4-.4.4-1 .6-2 .6a3 3 0 0 1-2-.6h-.2c-.4.4-1.1.6-2.2.6-1 0-1.8-.2-2.2-.6-.4-.3-.6-.8-.6-1.4v-5h-.2v5c0 .7.2 1.2.7 1.6.4.5 1.2.7 2.3.7 1.1 0 2-.2 2.4-.7h-.1.1-.2.2-.1c.5.5 1.2.7 2.2.7 1 0 1.7-.2 2.1-.7.5-.4.7-1 .7-1.6v-3.4l-1.4-1.3h1.4v-1H87l-.5.7-.3.3-.1.3c0 .2 0 .4.2.5h.1l.3.3.6.6v3.1c0 .4-.1.7-.3.8-.2.2-.6.3-1 .3-.5 0-.9 0-1-.3-.3-.1-.4-.4-.4-.8v-3.4l-1.1-1.2h1.4V9.4h-1.8l-.5.7-.3.3-.1.3v.1l.1.4.3.3.5.6v3.1c0 .4-.1.7-.3.8-.2.2-.7.3-1.3.3-.6 0-1 0-1.2-.3-.2-.1-.3-.4-.3-.8v-4.5l.7-.1h.2V9.4h-1.3c-.4 0-.6 0-.8.2a.7.7 0 0 0-.3.6Zm13.2 3.2v4h-1.2v-4c0-1.4 1-2 3-2 1.9 0 2.9.6 2.9 2v4h-1.3v-4c0-.8-.5-1.2-1.7-1.2-1.1 0-1.7.4-1.7 1.2Zm4.7-3.9v1h-5.9v-1h5.9Z" fill="#fff"/>
  <path d="M91.8 13.4h-.1v3.8h-1v-3.8c0-.6.3-1.1.7-1.4.5-.4 1.2-.5 2.1-.5 1 0 1.7.1 2.2.5.4.3.6.8.6 1.4v3.8h-1v-3.8c0-.4 0-.8-.4-1a2.4 2.4 0 0 0-1.4-.3c-.5 0-1 0-1.3.3a1.2 1.2 0 0 0-.5 1h.3c0-.3 0-.6.3-.8a2.1 2.1 0 0 1 1.2-.2c.6 0 1 0 1.2.2.3.2.4.5.4.8v4h1.5v-4a2 2 0 0 0-.8-1.7 3.9 3.9 0 0 0-2.3-.5 3.9 3.9 0 0 0-2.2.5 2 2 0 0 0-.8 1.7v4H92v-4h-.2Zm4.7-3.9h-.2v.8h-5.6v-.7h5.8v-.2h-6v1.2h6.1V9.4h-.1v.1Zm2.3 5.8c-.2 0-.3.1-.3.4 0 .5.1.7.3.7v-1Zm0-3.2-.7-.7-.3-.3c-.2-.1-.2-.2-.2-.4v-.2l.3-.3.5-.7h.6c.4 0 .5 0 .5-.3v-1h1.2v1c0 .8-.5 1.2-1.7 1.2h-.6L100 12v4.6c0 .6-.2.8-.6.8h-.6c-.7 0-1-.5-1-1.6 0-.8.3-1.3 1-1.3v-2.3Z" fill="#fff"/>
  <path d="M98.8 15.3v-.1a.4.4 0 0 0-.3.1.6.6 0 0 0-.1.4v.6c.1.1.2.3.4.3h.1v-1.4h-.1v.1h-.1v1.1-.2a1.4 1.4 0 0 1 0-.5v-.4Zm0-3.2V12l-.6-.7-.3-.3c-.2 0-.2-.2-.2-.3h-.1l.2-.2.2-.3.5-.5h.5l.5-.1a.4.4 0 0 0 .2-.4v-.8h1v.8c0 .4-.2.6-.5.8-.2.2-.6.3-1.2.3h-1l1.9 1.6v4.6c0 .3 0 .5-.2.6l-.3.1h-.6a1 1 0 0 1-.7-.3 2.1 2.1 0 0 1-.2-1.2c0-.4 0-.7.2-.9.2-.2.4-.2.7-.2h.1V12h-.2v2.4-.1a1 1 0 0 0-.8.4c-.2.2-.3.6-.3 1 0 .6.1 1 .3 1.3.2.3.5.5.9.5h.6l.6-.3.2-.7v-4.7l-1.4-1.3h.3c.5 0 1 0 1.3-.3.3-.2.5-.6.5-1V8.1h-1.5v1.2h-1.1l-.5.8-.2.3-.2.3c0 .2.1.4.3.5l.3.3.7.7V12Z" fill="#fff"/>
  <path d="M102.1 9.5c.7 0 1.3.2 1.6.4.3.3.5.8.5 1.3v6.1H103v-6c0-.4 0-.6-.2-.7l-.7-.2h-1.7v-.9h1.7Z" fill="#fff"/>
  <path d="M102.1 9.5v.1c.7 0 1.2.2 1.5.5.3.2.5.6.5 1.1v6h-1v-6c0-.3 0-.5-.2-.7-.2-.2-.4-.2-.8-.2h-1.6v-.6h1.6v-.3h-1.9v1.2h2l.5.1v-.1.1l.1.5v6.3h1.5v-6.3c0-.5-.1-1-.5-1.3-.4-.4-1-.5-1.7-.5v.1Zm5.4 6.6c0 .2.2.3.5.3h.6v1h-1.3c-.7 0-1-.3-1-.7V12l-.5-.7-.3-.3-.1-.3.1-.3.3-.3.4-.7h1.6v1h-1.6l1.3 1.4V16Z" fill="#fff"/>
  <path d="M107.5 16.1h-.1c0 .2 0 .3.2.4h.8v.7h-1.1a1.2 1.2 0 0 1-.7-.1l-.2-.4V12l-.5-.6-.3-.4v-.5l.3-.3.4-.6h1.4v.7H106l1.5 1.6v4.2h.3v-4.3l-1.2-1.3h1.5V9.4h-1.8l-.6.7-.2.3-.1.3v.1l.1.4.3.3.5.6v4.6c0 .2 0 .5.3.6l.8.2h1.4v-1.2h-.7a.6.6 0 0 1-.3 0V16h-.2Zm5.6-2c-2.3-.3-3.5-1.2-3.5-2.5 0-.6.3-1 .7-1.5.4-.4 1.2-.6 2.3-.6 1 0 1.8.2 2.2.6.5.4.7.9.7 1.4v.2c0 .6-.3 1-1 1h-.9v-1c.5 0 .7 0 .7-.2a1 1 0 0 0-.4-.8c-.3-.2-.7-.3-1.3-.3-.7 0-1.1.1-1.4.3-.2.2-.3.5-.3 1 0 .7.7 1.3 2.3 1.5 1.5.2 2.3.8 2.3 1.8v.5c0 .5-.2 1-.5 1.3-.3.4-.8.5-1.3.5-.6 0-1-.2-1.4-.6a2.3 2.3 0 0 0-.6-.6 1.8 1.8 0 0 0-.8-.2v1.4h-1.3V14h1.3v1c.7 0 1.3.2 1.6.4l.8.7c.1.2.3.3.4.3 0 0 .2 0 .3-.2.2-.1.3-.3.3-.6V15c0-.5-.4-.8-1.2-1Z" fill="#fff"/>
  <path d="M113.1 14a6 6 0 0 1-2.5-.9 1.7 1.7 0 0 1-.8-1.5c0-.5.2-1 .6-1.4.4-.4 1-.6 2.2-.6 1 0 1.8.2 2.2.6.4.4.6.8.6 1.3v.2l-.2.6-.6.2h-.9v-.8.1h.4c.2 0 .3-.2.3-.3a1 1 0 0 0-.4-.9c-.3-.2-.8-.3-1.4-.3-.7 0-1.2 0-1.5.3-.3.2-.4.6-.4 1 0 .5.2.9.7 1.1.4.3 1 .5 1.8.6a3.6 3.6 0 0 1 1.6.6c.4.3.5.6.6 1v.6c0 .5-.2 1-.5 1.2-.3.3-.7.5-1.2.5-.6 0-1-.2-1.3-.6a2.5 2.5 0 0 0-.7-.6 1.9 1.9 0 0 0-.9-.2v1.4h-1v-3h1v1c.8 0 1.3.1 1.7.3l.7.7c.1.2.3.4.5.4l.4-.3c.2-.2.3-.4.3-.7V15a.8.8 0 0 0-.3-.7 2 2 0 0 0-1-.4v.3c.4 0 .6.2.8.3.2.1.2.3.2.5v.6l-.1.5-.3.2s-.2 0-.3-.3a3.6 3.6 0 0 0-.8-.7c-.4-.3-1-.4-1.8-.4v.1h.2v-1h-1.5v3.5h1.5v-1.6h-.2v.2l.8.1.6.6c.4.4.9.7 1.5.7a1.9 1.9 0 0 0 1.4-.6c.3-.3.5-.8.5-1.4V15c0-.6-.2-1-.6-1.3a3.8 3.8 0 0 0-1.8-.6 4.1 4.1 0 0 1-1.7-.6c-.4-.2-.5-.5-.5-.9s0-.6.3-.8c.2-.1.6-.3 1.3-.3.6 0 1 .1 1.2.3.2.2.3.4.3.7h-.6v1.3h1c.4 0 .7-.1.9-.3l.2-.8v-.2c0-.6-.2-1-.7-1.5-.5-.4-1.2-.6-2.3-.6-1.1 0-2 .2-2.4.6a2 2 0 0 0-.7 1.6 2 2 0 0 0 1 1.7c.5.5 1.4.7 2.6 1V14Zm4.9-6.7V7l-.5-.2h-.8V6h.8c.7 0 1.2.2 1.4.4.2.3.3.6.3 1v2H118v-2Zm-.9 2.2c.8 0 1.3.2 1.6.5.4.2.5.7.5 1.2v6.1H118v-6c0-.4 0-.6-.2-.7-.1-.1-.3-.2-.7-.2h-1.7v-.9h1.7Z" fill="#fff"/>
  <path d="M118 7.3h.1V7h-.2.1c0-.2-.3-.2-.5-.2h-.7v-.6h.7c.7 0 1.1.1 1.3.3.2.2.3.5.3 1V9h-1V7.3h-.2v2.1h1.5v-2c0-.5-.2-1-.4-1.2-.3-.3-.8-.4-1.5-.4h-1V7h1.3v.3h.2Zm-.9 2.2v.2c.8 0 1.3.1 1.5.4.3.2.5.6.5 1.1v6h-1v-6c0-.3 0-.5-.2-.7-.2-.2-.4-.2-.8-.2h-1.6v-.6h1.6v-.3h-1.8v1.2h1.8l.6.1.1-.1v6.9h1.6v-6.3c0-.5-.2-1-.6-1.3-.3-.4-1-.5-1.6-.5v.1Zm5.5 6.6c0 .2.1.3.5.3h.5v1h-1.3c-.6 0-1-.3-1-.7V12l-.5-.7-.2-.3-.2-.3.1-.3.3-.3.5-.7h1.6v1h-1.6l1.3 1.4V16Z" fill="#fff"/>
  <path d="M122.6 16.1h-.2c0 .2 0 .3.2.4h.9v.7h-1.2a1.2 1.2 0 0 1-.6-.1c-.2-.1-.2-.2-.2-.4V12l-.6-.6-.2-.4-.1-.2v-.3l.3-.3.4-.6h1.5v.7H121l1.4 1.6v4.2h.3v-4.3l-1.1-1.3h1.4V9.4h-1.8l-.5.7-.3.3-.1.4.1.4.3.3.5.6v4.6c0 .2.1.5.3.6l.8.2h1.4v-1.2h-.7a.6.6 0 0 1-.2 0l-.1-.2h-.1Zm3.3-.8v1.1c.4 0 .6-.2.6-.7 0-.3-.2-.4-.6-.4Zm7.3-3.2-.7-.7-.3-.3c-.2-.1-.2-.2-.2-.4v-.2l.3-.3.5-.7h1.6v1h-1.6l1.6 1.4v3.3c0 1.4-1 2.1-2.7 2.1-1.8 0-2.8-.7-2.8-2v-3.7c0-.8-.5-1.2-1.5-1.2s-1.5.4-1.5 1.2v2.8c.9 0 1.3.4 1.3 1.3 0 1-.4 1.6-1.3 1.6s-1.3-.2-1.3-.8v-4.9c0-1.4 1-2 2.8-2 1.8 0 2.8.6 2.8 2v3.6c0 .8.5 1.2 1.5 1.2s1.5-.4 1.5-1.2v-3.1Z" fill="#fff"/>
  <path d="M125.9 15.3h-.2v1.3h.2c.2 0 .4-.1.5-.3a1 1 0 0 0 .2-.6.5.5 0 0 0-.2-.4 1 1 0 0 0-.5-.1h-.2v.1h.2v.1a.7.7 0 0 1 .3.1l.1.2-.1.5-.3.1v.1-1Zm7.3-3.2V12l-.6-.7-.4-.3-.1-.3h-.1l.2-.2.2-.3.5-.5h1.4v.6h-1.9l1.9 1.6v3.3c0 .7-.2 1.2-.7 1.5-.4.3-1 .5-2 .5-.8 0-1.5-.2-1.9-.5-.4-.3-.6-.8-.6-1.5v-3.6c0-.4-.2-.8-.5-1-.3-.2-.7-.3-1.2-.3s-1 0-1.2.3c-.3.2-.5.6-.5 1v3h.2c.4 0 .7 0 .9.2.2.2.3.5.3 1 0 .4-.1.8-.3 1-.2.3-.5.4-1 .4-.3 0-.6 0-.8-.2-.2 0-.2-.2-.2-.5v-4.9c0-.7.2-1.1.6-1.5.4-.3 1-.5 2-.5.9 0 1.6.2 2 .5.4.4.6.8.6 1.5v3.6c0 .5.2.8.5 1 .2.3.7.4 1.2.4s.9-.1 1.2-.4c.3-.2.4-.5.4-1V12h-.3v3.2c0 .4 0 .7-.3.8-.2.2-.5.3-1 .3s-.9-.1-1-.3c-.3-.1-.4-.4-.4-.8v-3.6c0-.7-.3-1.3-.7-1.7a3.5 3.5 0 0 0-2.2-.5c-1 0-1.7.2-2.2.5-.5.4-.7 1-.7 1.7v5c0 .2.1.5.4.6.2.2.5.3 1 .3.4 0 .8-.2 1-.5.3-.3.5-.7.5-1.3 0-.4-.2-.8-.4-1a1.6 1.6 0 0 0-1.1-.4v.1-2.8c0-.4.2-.6.4-.8a1.8 1.8 0 0 1 1.1-.3c.5 0 .8.1 1 .3.3.2.4.4.4.8v3.6c0 .8.2 1.3.7 1.7.5.4 1.2.6 2.2.6.9 0 1.6-.2 2.1-.6.5-.4.7-1 .7-1.7v-3.4l-1.4-1.3h1.4v-1h-1.8l-.5.7-.3.3v.3c0 .2 0 .4.2.5l.3.3.7.7V12ZM132 6.7c-.1 0-.2.3-.2.7h3.3a5.2 5.2 0 0 0-1.3-.7 3.1 3.1 0 0 0-1-.2c-.4 0-.7 0-.8.2Zm4.3 1.5h-4.8c-.5 0-.7-.3-.7-1 0-.4.2-.8.5-1.1.4-.3.9-.5 1.5-.5a4 4 0 0 1 1.9.5l.7.4V5.3h1v3Z" fill="#fff"/>
  <path d="M132.1 6.7v-.1c-.3.1-.4.4-.4.8v.1h3.9l-.3-.2-1.4-.8a3.2 3.2 0 0 0-1-.2c-.4 0-.7 0-.9.3h.1v.2l.8-.2c.2 0 .6 0 1 .2l1.2.7v-.3H132v.2h.1c0-.4 0-.6.2-.6l-.1-.1Zm4.3 1.5v-.1h-4.8c-.2 0-.3 0-.4-.2a1.2 1.2 0 0 1-.2-.7c0-.4.2-.7.5-1a2 2 0 0 1 1.4-.5c.6 0 1.3.2 1.8.5l.8.4.2.2V5.4h.6v2.8h.3v-3h-1.2v1.3h.2L135 6a4.1 4.1 0 0 0-2-.5c-.7 0-1.2.1-1.6.5-.3.3-.5.8-.5 1.2 0 .4 0 .7.2.8 0 .2.3.4.6.4h5v-.2h-.2Z" fill="#fff"/>
</svg>
