<svg width="180" height="54" fill="none" xmlns="http://www.w3.org/2000/svg">
  <path d="M173.3 54H6.7A6.7 6.7 0 0 1 0 47.2V6.8C0 3 3 0 6.7 0h166.6a6.7 6.7 0 0 1 6.7 6.8v40.5c0 3.7-3 6.7-6.7 6.7Z" fill="#000"/>
  <path d="M27.6 26.2 13.4 41.5a3.8 3.8 0 0 0 5.7 2.3l16-9.3-7.5-8.3Z" fill="#EA4335"/>
  <path d="m42 23.6-7-4-7.7 7 7.8 7.9 6.9-4a3.9 3.9 0 0 0 2-3.5 4 4 0 0 0-2-3.4Z" fill="#FBBC04"/>
  <path d="M13.4 12.5a3.7 3.7 0 0 0-.1 1v27l.1 1 14.7-14.9-14.7-14Z" fill="#4285F4"/>
  <path d="m27.7 27 7.4-7.4-16-9.4a3.9 3.9 0 0 0-5.7 2.3L27.7 27Z" fill="#34A853"/>
  <path d="M131.5 32h2.2V17.4h-2.2V32Zm19.6-9.3-2.5 6.3-2.7-6.3h-2.3l3.9 8.8-2.2 5h2.2l6-13.8h-2.4Zm-12.3 7.7c-.7 0-1.7-.4-1.7-1.3 0-1.1 1.2-1.5 2.3-1.5 1 0 1.4.2 2 .4a2.6 2.6 0 0 1-2.6 2.3Zm.2-8c-1.5 0-3.2.7-3.8 2.2l1.9.8c.4-.8 1.2-1 2-1 1.1 0 2.2.6 2.3 1.8v.2a4.8 4.8 0 0 0-2.3-.6c-2 0-4.2 1.1-4.2 3.3 0 2 1.7 3.2 3.6 3.2a3 3 0 0 0 2.8-1.4v1h2.2v-5.5c0-2.6-2-4-4.5-4Zm-13.4 2h-3.1v-5h3.1a2.5 2.5 0 0 1 2.6 2.6c0 1-1 2.5-2.6 2.5Zm0-7h-5.3V32h2.2v-5.5h3c2.5 0 4.8-1.8 4.8-4.5 0-2.8-2.3-4.6-4.8-4.6ZM97 30.4c-1.5 0-2.7-1.3-2.7-3 0-1.8 1.2-3 2.7-3 1.5 0 2.7 1.2 2.7 3 0 1.7-1.2 3-2.7 3Zm2.5-7a3.4 3.4 0 0 0-2.7-1 5 5 0 0 0-4.7 5 4.9 4.9 0 0 0 4.7 4.9c1.2 0 2.2-.5 2.6-1.1h.1v.7c0 1.9-1 2.9-2.6 2.9a2.7 2.7 0 0 1-2.5-1.8l-2 .8a4.7 4.7 0 0 0 4.5 3c2.5 0 4.7-1.5 4.7-5.2v-9h-2v.9Zm3.6 8.6h2.2V17.4h-2.2V32Zm5.4-4.8a2.7 2.7 0 0 1 2.6-2.9c.8 0 1.6.4 1.8 1l-4.4 1.9Zm6.7-1.7c-.4-1-1.6-3.1-4.2-3.1s-4.7 2-4.7 5c0 2.7 2.1 4.9 5 4.9a5 5 0 0 0 4-2.2l-1.6-1.1a2.8 2.8 0 0 1-2.5 1.3c-1 0-1.9-.5-2.4-1.5l6.7-2.7-.3-.6ZM62.5 24v2h5a4.4 4.4 0 0 1-1 2.6 5.2 5.2 0 0 1-4 1.6 5.5 5.5 0 0 1-5.5-5.6 5.5 5.5 0 0 1 9.3-4.1l1.5-1.5a7.3 7.3 0 0 0-5.3-2.1 7.8 7.8 0 0 0-7.8 7.7 7.8 7.8 0 0 0 7.8 7.7A7 7 0 0 0 68 30a7 7 0 0 0 1.8-4.9V24h-7.2Zm13 6.5a3 3 0 0 1-2.9-3c0-1.8 1.3-3 2.8-3 1.5 0 2.8 1.2 2.8 3 0 1.7-1.3 3-2.8 3Zm0-8a4.9 4.9 0 0 0-5 5 4.9 4.9 0 0 0 5 4.9 4.9 4.9 0 0 0 5-5 4.9 4.9 0 0 0-5-5Zm10.8 8c-1.5 0-2.8-1.3-2.8-3 0-1.8 1.3-3 2.8-3 1.5 0 2.8 1.2 2.8 3 0 1.7-1.3 3-2.8 3Zm0-8a4.9 4.9 0 0 0-5 5 4.9 4.9 0 0 0 5 4.9 4.9 4.9 0 0 0 5-5 4.9 4.9 0 0 0-5-5Zm-30 24-.9.4a3 3 0 0 1-.6-1.8c0-.5.2-1 .5-1.3a1.6 1.6 0 0 1 1.2-.5c.4 0 .7 0 1 .3.3.1.6.5 1 1 .1.5.3.7.4.9l.5.4.6.1c.4 0 .6-.1.8-.4.2-.2.3-.6.3-1a3.3 3.3 0 0 0-2.5-3.2h-3.8v-.9h5.8l.4-.3.1-.5c0-.4-.2-1-.7-1.4l.7-.5.7 1c.2.3.2.7.2 1 0 .4-.1.8-.4 1-.3.4-.7.5-1.3.6a4 4 0 0 1 1.3 1.4c.3.5.4 1 .4 1.7a2.5 2.5 0 0 1-.5 1.8 2 2 0 0 1-1.6.6 2 2 0 0 1-1.5-.6l-.6-1-.5-.7a1.3 1.3 0 0 0-.4-.3.8.8 0 0 0-.4-.1.7.7 0 0 0-.6.2 1 1 0 0 0-.2.7c0 .5.2 1 .6 1.5Z" fill="#fff"/>
  <path d="M56.3 46.5v-.2l-1 .4.1.1h.1a3 3 0 0 1-.6-1.8c0-.5.2-.9.5-1.2.3-.3.6-.5 1-.5.5 0 .8.1 1 .3.3.1.6.5.9 1l.6.9a1.4 1.4 0 0 0 1.1.5c.4 0 .7-.1 1-.4l.2-1a3.4 3.4 0 0 0-2.6-3.4H55v-.6h4.6l1-.1a.9.9 0 0 0 .5-.3.8.8 0 0 0 .2-.6c0-.5-.3-1-.8-1.5l-.1.1v.1l.8-.5H61l.7 1 .2 1c0 .3-.1.6-.4.9-.2.2-.6.4-1.2.4H60l.4.3a3.7 3.7 0 0 1 1.6 3 2.4 2.4 0 0 1-.5 1.7c-.4.4-.8.6-1.5.6a1.8 1.8 0 0 1-1.4-.6l-.6-1a7.3 7.3 0 0 0-.5-.7l-.4-.3a1 1 0 0 0-.5-.2 1 1 0 0 0-.7.3 1 1 0 0 0-.2.8c0 .5.2 1 .6 1.6v-.1l.2-.1a2.5 2.5 0 0 1-.6-1.4l.2-.6a.6.6 0 0 1 .5-.2h.4c0 .2.2.3.3.4l.5.7.6 1a2 2 0 0 0 1.6.6 2.1 2.1 0 0 0 1.7-.6c.4-.5.6-1.1.6-1.9a4 4 0 0 0-.5-1.8 4.1 4.1 0 0 0-1.3-1.4v.2c.5 0 1-.2 1.3-.5.3-.3.5-.7.5-1.2 0-.4-.1-.7-.3-1a5 5 0 0 0-.7-1v-.2l-.9.6h-.1v.2c.6.5.8 1 .8 1.4a.6.6 0 0 1-.1.3v.1a.6.6 0 0 1-.4.1h-5.9v1.2h4v-.1.1a3.2 3.2 0 0 1 2.4 3.1c0 .4-.1.7-.3 1a1 1 0 0 1-.7.3l-.5-.1a1.3 1.3 0 0 1-.4-.4 7 7 0 0 1-.6-.8 3.2 3.2 0 0 0-1-1.2 2.1 2.1 0 0 0-1-.2c-.5 0-1 .2-1.3.5a2 2 0 0 0-.5 1.4 3.2 3.2 0 0 0 .6 1.9l1-.3h.2l-.1-.2h-.1ZM68.5 39c-.3-.2-.6-.3-1-.3a.9.9 0 0 0-.5.2.5.5 0 0 0-.2.4c0 .2 0 .3.2.4l.5.2c.3 0 .5 0 .7-.2.2-.2.3-.4.3-.7Zm-4.9 3.3c.3.2.6.3 1 .3.3 0 .6 0 .8-.2.2-.2.3-.4.3-.7a.8.8 0 0 0-.2-.5.7.7 0 0 0-.6-.2c-.3 0-.6.1-.8.3a2 2 0 0 0-.5 1Zm0 .8c0 .8.2 1.5.7 2 .5.4 1.3.7 2.2.7a3.2 3.2 0 0 0 2.4-1c.6-.5 1-1.4 1-2.4l-.3-1.5a4.2 4.2 0 0 0-.5-1.2 1.7 1.7 0 0 1-.6.7c-.3.2-.6.3-1 .3-.5 0-.9-.1-1.2-.4a1.3 1.3 0 0 1-.4-1c0-.4.2-.7.5-1 .3-.3.7-.4 1.2-.4.6 0 1.2.2 1.6.6.5.3.9.9 1.2 1.6.2.7.4 1.4.4 2.3 0 1.3-.4 2.4-1.2 3.1-.7.8-1.8 1.2-3.2 1.2-.7 0-1.4-.2-2-.5a3.1 3.1 0 0 1-1.3-1.2 3.9 3.9 0 0 1-.5-2c0-.5.1-1 .3-1.4.2-.5.5-.8.9-1a2.1 2.1 0 0 1 1.2-.4c.5 0 .8.1 1.1.4.3.3.5.6.5 1.1 0 .5-.2 1-.5 1.2a2 2 0 0 1-1.5.5c-.4 0-.8 0-1-.3Z" fill="#fff"/>
  <path d="M68.5 39.1h.1a1.8 1.8 0 0 0-1-.4 1 1 0 0 0-.7.2.7.7 0 0 0-.2.5c0 .2 0 .4.2.5.1.2.3.2.6.2s.6 0 .8-.2l.4-.8h-.3a1 1 0 0 1-.3.6.9.9 0 0 1-.6.2c-.2 0-.3 0-.4-.2l-.1.1v-.4a.4.4 0 0 1 0-.3V39h.6c.3 0 .6 0 .9.2Zm-4.9 3.3v.1c.2.2.6.3 1 .3s.7 0 .9-.2a.9.9 0 0 0 .3-.8.9.9 0 0 0-.2-.6.9.9 0 0 0-.6-.3c-.4 0-.7.2-1 .4a2 2 0 0 0-.5 1v.2h.2c.1-.5.3-.8.5-1 .2-.2.4-.3.7-.3.2 0 .4 0 .5.2l.2.4c0 .3-.1.4-.3.6l-.8.2c-.3 0-.6-.1-.8-.3l-.1.1Zm0 .8h-.2c0 .9.3 1.5.8 2 .6.6 1.3.8 2.3.8 1 0 2-.3 2.5-1 .6-.6 1-1.4 1-2.5l-.2-1.5a4.4 4.4 0 0 0-.5-1.3l-.2-.2v.2l-.7.7c-.2.2-.5.2-.9.2-.5 0-.8 0-1-.3-.3-.2-.4-.5-.4-.9s0-.7.4-.9c.2-.2.6-.3 1-.3.7 0 1.2.1 1.7.5.4.3.8.8 1 1.5.3.7.4 1.4.4 2.3 0 1.3-.3 2.3-1 3-.8.8-1.8 1.2-3.2 1.2-.7 0-1.4-.2-2-.5a3 3 0 0 1-1.2-1.2 3.8 3.8 0 0 1-.4-1.8c0-.6 0-1 .2-1.5l.8-1a2 2 0 0 1 1.2-.3c.4 0 .8.1 1 .4.3.2.5.6.5 1 0 .5-.2.8-.5 1.1a2 2 0 0 1-1.4.5 2 2 0 0 1-1-.3l-.2-.1v.2h.1v.1c.3.2.7.3 1.1.3a2.2 2.2 0 0 0 1.6-.5c.3-.3.5-.8.5-1.3s-.1-.9-.5-1.2a1.8 1.8 0 0 0-1.2-.5c-.5 0-1 .2-1.3.4l-1 1.1-.2 1.6a3.7 3.7 0 0 0 1.8 3.3c.6.3 1.3.4 2.1.4 1.5 0 2.6-.4 3.3-1.2a4.5 4.5 0 0 0 1.2-3.2 6 6 0 0 0-.4-2.4 3.7 3.7 0 0 0-1.2-1.6 2.8 2.8 0 0 0-1.7-.6 2 2 0 0 0-1.3.4c-.3.3-.5.7-.5 1.1 0 .5.1.8.5 1.1.3.3.7.4 1.2.4a2 2 0 0 0 1-.3c.4-.1.6-.4.8-.7H69l.4 1.2.2 1.4c0 1-.3 1.8-.9 2.4a3 3 0 0 1-2.3.8c-1 0-1.6-.2-2.1-.7a2.4 2.4 0 0 1-.7-1.8h-.2Zm8.4 5 .6-.6.7-.2c.4 0 .8.2 1 .4.3.3.4.6.4 1s0 .7-.2 1l-.8 1-.6-.7.6-.6c.2-.2.2-.4.2-.6l-.1-.5a.6.6 0 0 0-.5-.2.7.7 0 0 0-.6.3c-.2.1-.3.4-.3.7h-.8a1.3 1.3 0 0 0-.2-.7.7.7 0 0 0-.6-.3c-.2 0-.4 0-.5.2a.8.8 0 0 0-.2.5l.2.6.6.6-.5.6a3.3 3.3 0 0 1-.8-.9 2 2 0 0 1-.3-1 1.4 1.4 0 0 1 1.5-1.4c.2 0 .5 0 .7.2l.5.6Z" fill="#fff"/>
  <path d="M72 48.2h.1l.6-.5.6-.1c.4 0 .7 0 1 .3.2.3.3.6.3 1 0 .3 0 .6-.2.9a3 3 0 0 1-.8.8v.1h.2l-.6-.6v.1l.6-.6c.2-.2.3-.5.3-.7a.9.9 0 0 0-.2-.6.7.7 0 0 0-.6-.2c-.3 0-.5 0-.7.3-.2.2-.3.5-.3.8h.1V49h-.8v.2h.2c0-.4-.2-.6-.3-.8a.9.9 0 0 0-.7-.3.8.8 0 0 0-.6.2.9.9 0 0 0-.2.6c0 .2 0 .5.2.7a3 3 0 0 0 .7.6V50l-.6.6.1.1a3 3 0 0 1-.7-1 1.8 1.8 0 0 1-.2-.9 1.3 1.3 0 0 1 1.3-1.3l.6.2.5.5.1.2.1-.2V48a2 2 0 0 0-.6-.6c-.2-.2-.5-.2-.7-.2-.5 0-.9.1-1.2.4-.3.3-.4.7-.4 1.1 0 .4.1.8.3 1 .1.4.4.7.8 1l.1.1.6-.7h.1V50a2.8 2.8 0 0 1-.7-.6 1 1 0 0 1-.1-.5l.1-.4.4-.2.5.2.2.7v.1h1v-.1a1 1 0 0 1 .3-.6.6.6 0 0 1 .5-.3l.3.2.2.4c0 .2 0 .4-.2.5 0 .2-.3.4-.6.6v.1l.6.8h.1l.9-1c.2-.3.3-.7.3-1 0-.5-.2-.9-.5-1.2a1.5 1.5 0 0 0-1.1-.4c-.3 0-.5 0-.7.2a2.1 2.1 0 0 0-.7.6h.1Zm7.8-6.2c.1 0 .3 0 .4.2.2 0 .2.2.2.4s0 .4-.2.5a.7.7 0 0 1-.4.2.6.6 0 0 1-.5-.2.7.7 0 0 1-.2-.5c0-.1 0-.3.2-.4a.6.6 0 0 1 .5-.2Zm2.9-.3a3.9 3.9 0 0 1 1 2.7c0 .8-.1 1.4-.5 1.8a2 2 0 0 1-1.4.6c-.5 0-.8 0-1.1-.2a2.1 2.1 0 0 1-.8-.8c-.3.3-.5.6-.8.7-.3.2-.8.3-1.3.3-.7 0-1.2-.2-1.6-.6a1.9 1.9 0 0 1-.6-1.4c0-.5.1-1 .4-1.3.4-.3.8-.5 1.3-.5.4 0 .7 0 1 .3.2.2.3.4.3.8l-.1.6h-.8a1 1 0 0 0 0-.4v-.4a.5.5 0 0 0-.5-.1.8.8 0 0 0-.6.3 1 1 0 0 0-.2.6c0 .4.1.7.4.9.2.2.6.3 1 .3 1 0 1.5-.5 1.6-1.4h.9c0 .4.2.8.4 1 .2.3.6.4 1 .4.3 0 .6-.1.8-.4.2-.2.3-.5.3-1 0-.4 0-.8-.2-1.1l-.7-1.1.8-.6Zm-7.1-.4v-.9h6.7l.4-.3a.7.7 0 0 0 .1-.5c0-.4-.2-1-.7-1.4l.7-.5.7 1c.2.3.2.7.2 1 0 .3 0 .6-.2.8l-.6.6-1.3.2h-6Z" fill="#fff"/>
  <path d="M79.8 42v.1a.5.5 0 0 1 .3.2l.2.3a.5.5 0 0 1-.2.4.5.5 0 0 1-.3.2.5.5 0 0 1-.4-.2.5.5 0 0 1-.2-.4c0-.1 0-.2.2-.3l.4-.2v-.3a.8.8 0 0 0-.6.3.8.8 0 0 0-.2.5c0 .3 0 .4.2.6a.8.8 0 0 0 1.1 0 .8.8 0 0 0 .3-.6.8.8 0 0 0-.8-.8v.2Zm2.9-.3-.1.1c.7.8 1 1.7 1 2.6 0 .7-.2 1.3-.5 1.7-.4.4-.8.6-1.3.6l-1-.2a2 2 0 0 1-.8-.8l-.1-.2-.1.2a2.1 2.1 0 0 1-.8.7c-.3.2-.7.3-1.2.3-.7 0-1.1-.2-1.5-.6a1.7 1.7 0 0 1-.6-1.3c0-.5.1-1 .4-1.2.3-.3.7-.5 1.2-.5.4 0 .7.1.9.3a.8.8 0 0 1 .3.6l-.1.6v.1-.1h-.7.1l.1-.3a.6.6 0 0 0-.2-.5.7.7 0 0 0-.4-.1c-.3 0-.6 0-.7.3a1 1 0 0 0-.3.7c0 .4.1.8.4 1 .3.2.7.3 1.2.3s.9 0 1.2-.4c.3-.2.4-.6.5-1.1h-.2.9-.1c0 .5.1.8.4 1.1.3.3.6.4 1 .4.5 0 .8-.1 1-.4.2-.2.3-.6.3-1.1 0-.4 0-.8-.2-1.2a4.4 4.4 0 0 0-.7-1.1h-.1v.2l.8-.5v-.1l-.1-.2-.8.6h-.1v.2c.4.3.6.7.8 1l.2 1.1c0 .4-.1.8-.3 1a1 1 0 0 1-.7.3c-.4 0-.7-.1-.9-.4a1.5 1.5 0 0 1-.4-1h-1.1c0 .5-.2.8-.4 1-.3.3-.6.4-1 .4-.5 0-.8-.1-1-.3a1 1 0 0 1-.3-.8c0-.2 0-.4.2-.6 0-.1.2-.2.5-.2l.2.1.1.3v.3l-.1.2h1c.2-.2.3-.5.3-.7 0-.4-.2-.7-.5-1a1.7 1.7 0 0 0-1-.2c-.6 0-1 .1-1.4.5a2 2 0 0 0-.5 1.4c0 .6.3 1.1.7 1.5.4.4 1 .6 1.7.6.5 0 1 0 1.3-.2.4-.2.6-.5.9-.8l-.1-.1h-.1c.2.5.5.8.8 1l1.2.1a2 2 0 0 0 1.5-.6c.4-.5.6-1.1.6-1.9a4 4 0 0 0-1.1-2.7l-.1-.1h-.1v.1Zm-7.1-.4v-.7h5.7l1-.1c.2 0 .4-.2.5-.3a.8.8 0 0 0 .2-.6c0-.5-.3-1-.8-1.5l-.1.1v.1l.8-.5h-.2l.7 1 .2 1c0 .2 0 .4-.2.6l-.6.6a3 3 0 0 1-1.2.2h-6v.2h6c.6 0 1 0 1.4-.2a1.6 1.6 0 0 0 .9-1.5c0-.4-.1-.7-.3-1a4.9 4.9 0 0 0-.7-1v-.2l-1 .7v.1c.6.5.8 1 .8 1.4l-.1.3a.6.6 0 0 1-.4.2 4.7 4.7 0 0 1-.9 0h-5.9v1.2h.2v-.1ZM91 43.2a1 1 0 0 0-.9-.4l-.4.1a.4.4 0 0 0-.1.3c0 .4.2.5.6.5h.5a.8.8 0 0 0 .3-.5Zm-3 1.4h.9c0 .4.2.7.4 1 .3.2.6.3 1 .3l.9-.3c.2-.3.3-.6.3-1V44c-.4.3-.8.5-1.3.5-.4 0-.7-.1-1-.4a1.1 1.1 0 0 1-.3-.9c0-.3 0-.6.3-.8.3-.2.6-.3 1-.3a2 2 0 0 1 .8.2 1.7 1.7 0 0 0-.8-.7c-.4-.2-1-.3-1.5-.3h-.4c-.8 0-1.5.3-2 .8a2.9 2.9 0 0 0-.8 2c0 .7 0 1 .3 1.4.2.3.5.4.9.4.3 0 .6-.1.8-.3l.5-1Zm4.3-5.2c0 .5 0 .9-.3 1.2-.2.3-.6.5-1 .6a1.8 1.8 0 0 1 1 1.6v.3a3 3 0 0 1 .4 1.5c0 .6-.2 1.2-.6 1.6a1.9 1.9 0 0 1-1.5.6c-.4 0-.8 0-1.1-.2a2.2 2.2 0 0 1-.8-.8l-.7.7c-.3.2-.7.3-1.2.3-.6 0-1-.2-1.4-.7a3.1 3.1 0 0 1-.5-2c0-.6 0-1.1.4-1.7.2-.4.6-.8 1-1.1h-1.4v-.9h6.2a1 1 0 0 0 .5-.4l.1-.7a1 1 0 0 0-.3-.7 1 1 0 0 0-.7-.3l-.6.1a1 1 0 0 0-.4.4l.4.1c.2.1.2.2.2.4a.5.5 0 0 1-.2.4.7.7 0 0 1-.4.1.7.7 0 0 1-.6-.2 1 1 0 0 1-.2-.6c0-.4.2-.8.5-1a2 2 0 0 1 1.3-.5c.6 0 1 .2 1.4.5.4.4.5.8.5 1.4Z" fill="#fff"/>
  <path d="M91 43.2h.2c-.3-.4-.6-.5-1-.5a.8.8 0 0 0-.4.1c-.2.1-.2.3-.2.5s0 .3.2.4a.8.8 0 0 0 .5.2 1 1 0 0 0 .5-.2c.2 0 .3-.3.4-.5h-.3a.6.6 0 0 1-.2.3.8.8 0 0 1-.4.1h-.4V43a.5.5 0 0 1 .3 0 .9.9 0 0 1 .8.3Zm-3 1.4v.1h.8v-.1c0 .5.1.8.4 1s.6.4 1 .4.8 0 1-.3c.3-.3.4-.7.4-1.1a3 3 0 0 0 0-.7l-.1-.2-.2.2c-.3.3-.6.4-1 .4-.5 0-.8 0-1-.3-.2-.1-.3-.4-.3-.7 0-.4 0-.6.3-.8.2-.2.5-.3.8-.3l.8.2.4.2-.2-.4a1.8 1.8 0 0 0-.9-.8 3.6 3.6 0 0 0-1.5-.2h-.4a2.9 2.9 0 0 0-2.2.8 3 3 0 0 0-.8 2.2c0 .6.1 1 .3 1.4.3.3.6.4 1 .4s.7 0 1-.3c.3-.3.4-.6.5-1l-.1-.1h-.2c0 .4-.2.7-.4.9a1 1 0 0 1-.8.3c-.3 0-.6-.1-.7-.4a2.2 2.2 0 0 1-.3-1.2c0-.9.3-1.5.7-2 .5-.5 1.2-.8 2-.8h.4c.6 0 1 .1 1.4.3.4.2.6.4.8.7l.1-.1v-.1c-.2-.2-.5-.2-.9-.2s-.7 0-1 .3c-.2.2-.4.6-.4 1s.1.7.4 1c.3.2.7.3 1.1.3.5 0 1-.2 1.3-.5V44h-.2v.6c0 .4 0 .7-.2.9-.2.2-.5.3-.9.3-.3 0-.6-.1-.8-.3a1.5 1.5 0 0 1-.4-1h-1.1Zm4.3-5.2c0 .5-.2.8-.4 1-.2.4-.5.6-1 .7h-.3l.3.2a1.6 1.6 0 0 1 .9 1.5h.1-.1v.3l.3.7.1.8c0 .6-.2 1.1-.5 1.5-.4.4-.8.6-1.4.6-.4 0-.8-.1-1-.3a2.1 2.1 0 0 1-.8-.7l-.1-.2-.1.2a2 2 0 0 1-.7.7 2.1 2.1 0 0 1-1 .3 1.6 1.6 0 0 1-1.4-.7 3 3 0 0 1-.5-1.8c0-.6.1-1.2.4-1.7a2 2 0 0 1 1-1l.5-.3h-2v-.6h5c.5 0 1 0 1.2-.2.2 0 .4-.2.6-.4l.2-.7a1 1 0 0 0-.4-.8 1.2 1.2 0 0 0-.8-.3l-.7.1a1 1 0 0 0-.4.5l-.1.2h.6v.6l-.4.1c-.2 0-.4 0-.5-.2a.9.9 0 0 1-.1-.5c0-.4 0-.7.4-1s.7-.4 1.2-.4a1.7 1.7 0 0 1 1.8 1.8h.3a2 2 0 0 0-.6-1.5 2 2 0 0 0-1.5-.5 2 2 0 0 0-1.4.4c-.3.3-.5.7-.5 1.2 0 .2 0 .5.2.7.2.2.4.3.7.3a.8.8 0 0 0 .5-.2c.2-.1.2-.3.2-.5a.6.6 0 0 0-.2-.5.8.8 0 0 0-.5-.1v.1h.1a.8.8 0 0 1 .4-.3h.5l.6.1a.8.8 0 0 1 .3.7c0 .3 0 .5-.2.6a.8.8 0 0 1-.4.3h-6.3v1.2h1.7v-.1l-.1-.1a3 3 0 0 0-1.2 1.2 3.8 3.8 0 0 0-.4 1.8c0 .8.2 1.5.6 2 .3.5.9.7 1.5.7.5 0 1 0 1.3-.3.3-.2.5-.4.7-.8h-.2c.2.4.5.7.8.9l1.2.2a2 2 0 0 0 1.6-.6c.4-.5.6-1 .6-1.7A2.7 2.7 0 0 0 92 43v-.2c0-.3 0-.7-.2-1a1.9 1.9 0 0 0-.8-.7v.2c.5 0 .8-.3 1-.6.4-.4.5-.8.5-1.3h-.2Zm4.3 5h.8c0 .5.2.9.5 1.1.2.3.5.4.9.4.8 0 1.1-.6 1.1-1.7a3.3 3.3 0 0 0-.3-1.5c-.2-.4-.6-.8-1-1a3 3 0 0 0-1.5-.4H97a3 3 0 0 0-1.5.4 2 2 0 0 0-1 1c-.2.4-.3 1-.3 1.5 0 .6 0 1 .2 1.3.2.3.5.4 1 .4.3 0 .6-.1.8-.4.3-.2.4-.6.5-1Zm-2-3.1h-1.5v-.9h6.2a.8.8 0 0 0 .5-.3.7.7 0 0 0 .1-.4c0-.5-.2-1-.7-1.5l.7-.5.7 1c.2.3.3.7.3 1 0 .4-.2.8-.4 1a1.8 1.8 0 0 1-1.1.6c.4.3.8.7 1 1.2.3.5.5 1 .5 1.7a3 3 0 0 1-.6 2c-.3.4-.8.6-1.5.6a2.2 2.2 0 0 1-1-.2 2.3 2.3 0 0 1-.8-.8 2 2 0 0 1-.7.7c-.3.2-.7.3-1.2.3-.6 0-1-.2-1.4-.7a3.1 3.1 0 0 1-.6-2c0-.6.2-1.1.4-1.6.3-.5.7-1 1.2-1.2Z" fill="#fff"/>
  <path d="M96.6 44.5h.8-.1c0 .4.2.8.5 1.1.2.3.6.4 1 .4s.7-.1 1-.4c.2-.4.3-.8.3-1.4a3.5 3.5 0 0 0-.4-1.6 2.6 2.6 0 0 0-1-1A3 3 0 0 0 97 41a3.2 3.2 0 0 0-1.6.4c-.4.3-.8.6-1 1.1-.2.5-.4 1-.4 1.6 0 .6.1 1 .3 1.3.3.4.6.5 1 .5s.8-.1 1-.4c.3-.3.5-.7.5-1.1h-.4c0 .4-.1.7-.3 1a1 1 0 0 1-.9.3c-.3 0-.6-.1-.7-.4a2.2 2.2 0 0 1-.3-1.2c0-.6.1-1 .3-1.5l1-1a3 3 0 0 1 1.4-.3h.2c.6 0 1 .2 1.4.4.4.2.8.5 1 1 .2.4.3.9.3 1.4 0 .6 0 1-.3 1.2-.1.3-.4.4-.7.4a1.1 1.1 0 0 1-.9-.4 1.5 1.5 0 0 1-.3-1h-1.2.2Zm-2-3.2v-.1h-1.3v-.7h6a1 1 0 0 0 .6-.3.8.8 0 0 0 .2-.6c0-.5-.3-1-.8-1.5l-.1.1v.1l.8-.5h-.1c.3.3.5.7.6 1 .2.3.2.6.2 1 0 .3 0 .6-.3.8-.2.3-.6.5-1 .5H99l.3.3c.4.2.8.6 1 1.1.3.5.4 1 .4 1.7 0 .8-.1 1.4-.5 1.8-.3.5-.8.7-1.4.7-.4 0-.7-.1-1-.3-.2-.1-.5-.3-.7-.7l-.1-.2-.1.2a2 2 0 0 1-.7.7c-.3.2-.6.3-1 .3a1.6 1.6 0 0 1-1.4-.7 3 3 0 0 1-.5-1.8c0-.7.1-1.2.3-1.7.3-.5.6-.8 1.1-1l.5-.3h-.6a3 3 0 0 0-1.2 1.2c-.3.5-.4 1.1-.4 1.8 0 .8.2 1.5.6 2 .3.5.9.7 1.5.7.5 0 1 0 1.3-.3.3-.2.5-.4.7-.8H97c.2.4.5.7.8.9l1.1.2a2 2 0 0 0 1.6-.7 3.2 3.2 0 0 0 .6-2c0-.7-.1-1.3-.4-1.8a3 3 0 0 0-1.2-1.3v.2c.5 0 1-.2 1.2-.5.3-.3.4-.7.4-1 0-.5 0-.8-.2-1.2l-.8-1-1 .6.1.1c.5.5.7 1 .7 1.3a.6.6 0 0 1-.1.4v.1a.7.7 0 0 1-.4.1H93v1.2h1.6v-.1Z" fill="#fff"/>
  <path d="m100 45.3.6-.6 1 1 1 .2c.5 0 .9-.1 1.1-.4.3-.3.4-.7.4-1.2 0-.7-.2-1.4-.5-1.9a4 4 0 0 0-1.7-1.3l.5-.8a5 5 0 0 1 2 1.6c.4.7.6 1.5.6 2.3 0 .8-.2 1.5-.6 2-.4.4-1 .6-1.8.6-.5 0-1-.1-1.3-.4a4.5 4.5 0 0 1-1.3-1.1Z" fill="#fff"/>
  <path d="m100 45.3.7-.5-.1-.1h-.1c.3.5.7.8 1 1l1.2.3c.5 0 .9-.1 1.1-.4.3-.4.5-.8.5-1.3 0-.8-.2-1.4-.6-2a4 4 0 0 0-1.8-1.3v.1l.1.1.5-.9h-.1a4.8 4.8 0 0 1 1.9 1.7c.4.7.6 1.4.6 2.2 0 .8-.2 1.4-.6 1.8-.4.4-1 .7-1.6.7-.5 0-1-.2-1.4-.4a4 4 0 0 1-1.2-1.1h-.1l-.1.2 1.3 1.2 1.5.3a2.4 2.4 0 0 0 1.8-.7 2.8 2.8 0 0 0 .7-2c0-.8-.3-1.6-.7-2.3a5.1 5.1 0 0 0-2-1.8h-.2l-.5 1-.1.1h.1a3.8 3.8 0 0 1 1.7 1.3 3 3 0 0 1 .5 1.8c0 .5-.1.8-.4 1-.2.3-.5.5-1 .5a2 2 0 0 1-1-.3 3.7 3.7 0 0 1-1-1l-.8.8h.2Zm8.6-2.1a2 2 0 0 0-1.3.4 1.3 1.3 0 0 0-.4 1c0 .4.1.7.4 1 .3.2.7.3 1.3.3s1-.1 1.2-.3c.3-.3.5-.6.5-1s-.2-.8-.5-1a1.9 1.9 0 0 0-1.2-.4Zm.5-1.9a1 1 0 0 1 0 1.1h2.4v.8h-1.1a1.7 1.7 0 0 1 .8 1.5c0 .6-.2 1.2-.7 1.5a3 3 0 0 1-2 .6c-.7 0-1.4-.2-1.8-.6a1.9 1.9 0 0 1-.7-1.5c0-.6.3-1.1.8-1.5h-1v-.8h2.3c.2-.1.3-.3.3-.5s0-.4-.2-.6h-2.5v-.9h4.2l.5-.4.2-.7a1 1 0 0 0-.3-.7 1 1 0 0 0-.8-.3l-.6.1a1 1 0 0 0-.4.4l.5.1.2.4a.5.5 0 0 1-.2.4.7.7 0 0 1-.5.1.7.7 0 0 1-.5-.2 1 1 0 0 1-.2-.7c0-.3.1-.7.5-1a2 2 0 0 1 1.3-.4c.6 0 1 .2 1.4.5.3.4.5.8.5 1.4 0 .6-.2 1-.6 1.4-.3.3-1 .5-1.8.5Z" fill="#fff"/>
  <path d="M108.6 43.2v-.1a2 2 0 0 0-1.3.4 1.4 1.4 0 0 0-.5 1c0 .5.1 1 .4 1.2.4.2.8.3 1.4.3.6 0 1 0 1.3-.3.3-.3.5-.7.5-1.1 0-.5-.2-.9-.5-1.1a2 2 0 0 0-1.3-.4v.2c.5 0 .9.2 1.2.4.2.2.3.5.3.9s0 .7-.3.9c-.3.2-.7.3-1.2.3s-1-.1-1.2-.3a1 1 0 0 1-.4-1c0-.3.2-.6.4-.8.3-.3.7-.4 1.2-.4v-.1Zm.5-1.9h-.1a1 1 0 0 1 .2.6c0 .2 0 .3-.2.4l-.1.2h2.4v.6H110l.4.2a1.6 1.6 0 0 1 .8 1.4c0 .6-.3 1-.7 1.4a2.9 2.9 0 0 1-1.9.6c-.7 0-1.3-.2-1.7-.6a1.7 1.7 0 0 1-.7-1.4c0-.6.3-1 .8-1.4l.3-.2H106v-.6h2.2a.8.8 0 0 0 .4-.6c0-.3 0-.5-.2-.7H106v-.6h2.8c.6 0 1 0 1.2-.2.3 0 .5-.2.6-.4l.2-.7a1 1 0 0 0-.3-.8 1.2 1.2 0 0 0-.9-.3l-.6.1a1 1 0 0 0-.5.5v.2h.5l.1.3-.1.3-.4.1c-.2 0-.3 0-.4-.2a.9.9 0 0 1-.2-.5c0-.4.1-.7.4-1s.7-.4 1.3-.4c.5 0 1 .2 1.3.5.3.4.4.8.4 1.3s-.1 1-.5 1.3c-.3.3-.9.4-1.7.5h-.2v.2l.2-.1v.1c.9 0 1.5-.2 2-.5.3-.4.5-.9.5-1.5a2 2 0 0 0-.5-1.5 2 2 0 0 0-1.5-.5 2.1 2.1 0 0 0-1.4.4c-.4.3-.6.7-.6 1.2 0 .2 0 .5.3.7.1.2.4.3.6.3a.8.8 0 0 0 .6-.2l.2-.5a.6.6 0 0 0-.2-.5.8.8 0 0 0-.5-.1v.1a.8.8 0 0 1 .4-.3h.5c.3 0 .5 0 .7.2a.8.8 0 0 1 .2.6l-.1.6a.8.8 0 0 1-.5.3h-4.1v1.2h2.5v-.1h-.1a.9.9 0 0 1 .2.6l-.3.4.1.1v-.1h-2.5v1h1.2v-.2a1.9 1.9 0 0 0-1 1.6 2 2 0 0 0 .8 1.6 3 3 0 0 0 2 .6c.8 0 1.5-.2 2-.6.5-.4.7-1 .7-1.6a1.9 1.9 0 0 0-.9-1.6v.2h1.2v-1h-2.4v.1c.2 0 .2-.3.2-.5s0-.5-.2-.7Z" fill="#fff"/>
  <path d="m110.5 45.4.6-.6.8.8c.3.2.6.3 1 .3.3 0 .5 0 .7-.2.2-.2.2-.5.2-.8v-1a8.9 8.9 0 0 1 0-1c0-.4 0-1 .3-1.3.2-.4.6-.8 1-1 .4-.2 1-.3 1.5-.3a3 3 0 0 1 2.9 1.7c.2.6.4 1.3.4 2a3.1 3.1 0 0 1-.7 2 2.2 2.2 0 0 1-1.7.8 2 2 0 0 1-1.4-.5 1.7 1.7 0 0 1-.6-1.3c0-.5.2-.8.4-1.1.2-.3.5-.4.9-.4.3 0 .5 0 .6.2a.7.7 0 0 1 .3.6c0 .2 0 .3-.2.5a.6.6 0 0 1-.4.2.7.7 0 0 1-.5-.2.5.5 0 0 1-.2-.3v.4c0 .3 0 .6.2.8.2.2.5.3.9.3s.8-.2 1-.6c.3-.3.4-.8.4-1.4a3 3 0 0 0-.6-2 2 2 0 0 0-1.7-.8 2 2 0 0 0-1.4.5c-.4.3-.5.8-.5 1.4v1.8c0 .6-.1 1-.5 1.4-.3.3-.8.5-1.3.5s-.9-.1-1.2-.3a4.8 4.8 0 0 1-1.2-1Z" fill="#fff"/>
  <path d="M110.5 45.4v.1l.7-.6-.1-.1h-.1l.9 1 1 .2c.3 0 .6 0 .8-.3.2-.2.3-.5.3-.8v-1a8.7 8.7 0 0 1-.1-1c0-.4 0-.9.3-1.3.2-.4.5-.7 1-.9.4-.2.8-.3 1.4-.3.6 0 1.2.2 1.7.5.5.2.8.7 1 1.2.3.5.4 1.2.4 1.9a3 3 0 0 1-.6 2 2 2 0 0 1-1.6.7c-.6 0-1-.2-1.3-.5a1.6 1.6 0 0 1-.5-1.2c0-.4 0-.8.3-1 .2-.2.5-.4.8-.4.2 0 .4 0 .6.2l.2.5a.6.6 0 0 1-.2.4.5.5 0 0 1-.3.2.6.6 0 0 1-.4-.1.4.4 0 0 1-.2-.3v-.6l-.2.6a1.4 1.4 0 0 0 0 .4c0 .4 0 .7.2.9.3.2.6.3 1 .3.5 0 .9-.2 1.2-.6.2-.3.4-.9.4-1.5 0-.9-.2-1.6-.7-2.1a2.2 2.2 0 0 0-1.8-.9 2 2 0 0 0-1.5.6 2 2 0 0 0-.6 1.5v1l.1.8c0 .6-.1 1-.5 1.3-.3.3-.7.5-1.2.5l-1.2-.3-1.1-1h-.1l-.1.1c.4.5.8.9 1.2 1.1.4.2.8.3 1.3.3a2 2 0 0 0 1.4-.5c.4-.4.6-.9.6-1.5V44l-.1-.9c0-.6.2-1 .5-1.3.3-.3.7-.5 1.3-.5.7 0 1.2.2 1.6.7.4.5.6 1.2.6 2 0 .6-.1 1-.4 1.4-.2.3-.5.4-1 .4a1 1 0 0 1-.7-.2 1 1 0 0 1-.2-.7v-.4h-.2c0 .2 0 .4.2.5l.6.1c.2 0 .4 0 .5-.2a.9.9 0 0 0 .2-.6.9.9 0 0 0-.3-.7 1.1 1.1 0 0 0-.7-.2c-.4 0-.8.1-1 .4-.3.3-.4.7-.4 1.2 0 .6.2 1 .6 1.4.3.4.9.5 1.5.5.8 0 1.4-.2 1.8-.8.5-.5.7-1.2.7-2.1 0-.8-.1-1.4-.4-2a3 3 0 0 0-1.2-1.4 3.5 3.5 0 0 0-1.8-.4 3.4 3.4 0 0 0-1.6.3 2.5 2.5 0 0 0-1 1 3 3 0 0 0-.4 1.5v.9l.1 1c0 .3 0 .5-.2.7l-.6.2-.9-.3a3.6 3.6 0 0 1-.8-.8l-.1-.1-.7.7-.1.1v.1h.2Zm15.2-6.3c-.3-.2-.6-.3-1-.3a.8.8 0 0 0-.5.2c-.2 0-.2.2-.2.4l.1.4.5.2c.3 0 .6 0 .7-.2l.4-.7Zm-1.6 5.6h-.4a.7.7 0 0 0-.4.3.6.6 0 0 0-.1.4c0 .2 0 .3.2.4l.7.2c.3 0 .5 0 .7-.2a.5.5 0 0 0 .2-.4.6.6 0 0 0-.3-.5 1 1 0 0 0-.6-.2Zm-3-2.5.8.2c.3 0 .6 0 .8-.2a.6.6 0 0 0 .3-.5.5.5 0 0 0-.2-.5.8.8 0 0 0-.6-.1 1 1 0 0 0-.8.3c-.2.2-.3.5-.3.8Zm5.2-2.4c-.1.3-.3.6-.6.7a1.9 1.9 0 0 1-1 .3c-.5 0-1-.1-1.2-.4a1.3 1.3 0 0 1-.4-1c0-.4.1-.7.4-1 .3-.3.7-.4 1.2-.4a3 3 0 0 1 1.6.5c.4.3.8.8 1 1.4.3.6.4 1.2.4 1.8a3.3 3.3 0 0 1-.5 2c-.4.5-1 .8-1.6 1l.2.8c0 .4-.1.7-.4 1-.3.2-.8.3-1.3.3-.6 0-1-.1-1.3-.3a1.1 1.1 0 0 1-.5-1c0-.3.1-.6.4-.8a3.2 3.2 0 0 1-1.8-.9 2.1 2.1 0 0 1-.6-1.5c0-.6.2-1 .5-1.5a2 2 0 0 1 1.5-.5c.5 0 .8.1 1.1.3.3.3.5.6.5 1 0 .5-.2.9-.5 1.1-.3.3-.8.4-1.4.4a2 2 0 0 1-.6 0c.1.2.4.4.7.5.3.2.6.3 1 .3a5 5 0 0 0 2.3 0c.4-.2.8-.4 1-.7.3-.4.4-.9.4-1.5a4.2 4.2 0 0 0-.5-1.9Z" fill="#fff"/>
  <path d="M125.7 39.1c-.2-.3-.6-.4-1-.4a1 1 0 0 0-.6.2.7.7 0 0 0-.2.5c0 .2 0 .4.2.5.1.2.3.2.6.2s.5 0 .7-.2c.2-.2.4-.4.4-.8V39l-.1.1h-.1a1 1 0 0 1-.3.6 1 1 0 0 1-.6.2c-.2 0-.4 0-.5-.2v.1-.4a.4.4 0 0 1 0-.3V39a.7.7 0 0 1 .5 0c.4 0 .7 0 1 .2Zm-1.6 5.6v-.1h-.4a.9.9 0 0 0-.5.3.7.7 0 0 0-.1.5c0 .2 0 .4.2.6l.8.1.7-.1a.6.6 0 0 0 .3-.6.7.7 0 0 0-.3-.6 1.2 1.2 0 0 0-.7-.2v.2l.5.2c.2.1.2.2.2.4l-.1.3a1 1 0 0 1-.6.2 1 1 0 0 1-.6-.2.4.4 0 0 1-.2-.3.4.4 0 0 1 .1-.3.6.6 0 0 1 .3-.2h.4v-.2Zm-3-2.5v.2l.8.1c.4 0 .6 0 .9-.2a.7.7 0 0 0 .3-.6.7.7 0 0 0-.2-.6 1 1 0 0 0-.7-.2c-.3 0-.6.2-.9.4-.2.2-.3.5-.3.9v.1h.4v-.1a1 1 0 0 1 .2-.7c.2-.2.4-.3.7-.3l.5.1.1.4c0 .2 0 .3-.2.4l-.7.1a2 2 0 0 1-.7 0Zm5.2-2.4h-.1c-.1.2-.3.5-.6.6-.3.2-.6.3-1 .3s-.7-.2-1-.4c-.2-.2-.4-.5-.4-.9s.2-.6.4-.9c.3-.2.7-.3 1.2-.3s1 .1 1.4.4c.4.3.8.8 1 1.3.3.6.4 1.2.4 1.8a4 4 0 0 1-.5 2c-.3.4-.9.7-1.6.9h-.2l.2.2.2.7c0 .4-.1.6-.4.8a2 2 0 0 1-1.2.4 2 2 0 0 1-1.2-.4 1 1 0 0 1-.4-.8c0-.3 0-.5.3-.7l.1-.2h-.2a3 3 0 0 1-1.7-.8 2 2 0 0 1-.6-1.5c0-.6.2-1 .5-1.4.4-.3.8-.5 1.4-.5.4 0 .8.1 1 .4.3.2.4.5.4.9s-.1.7-.4 1c-.3.2-.7.3-1.3.3h-.6l-.3-.2.2.3c.1.3.4.5.7.6l1.1.4a5.1 5.1 0 0 0 2.3-.1 2 2 0 0 0 1.1-.8c.3-.3.4-.9.4-1.5a4.3 4.3 0 0 0-.5-2v-.2l-.2.3h.1a4 4 0 0 1 .4 2c0 .5-.1 1-.4 1.3-.2.3-.5.5-1 .6a4.8 4.8 0 0 1-2.1.1c-.4 0-.8-.1-1-.3-.4-.1-.6-.3-.7-.5h-.1v.2h.6a2.4 2.4 0 0 0 1.5-.3c.3-.3.5-.7.5-1.2s-.2-.9-.5-1.1c-.3-.3-.7-.4-1.2-.4a2 2 0 0 0-1.5.6c-.4.4-.6.9-.6 1.5s.2 1.2.6 1.6a3.3 3.3 0 0 0 1.8 1v-.2a1 1 0 0 0-.4.8c0 .4.2.8.5 1 .4.3.8.4 1.4.4.6 0 1 0 1.4-.3.3-.3.5-.7.5-1.1 0-.4-.1-.7-.3-.9l-.1.1v.1a2.9 2.9 0 0 0 1.7-1c.4-.6.6-1.2.6-2 0-.7-.2-1.4-.4-2a3.4 3.4 0 0 0-1.1-1.4 2.7 2.7 0 0 0-1.6-.5 2 2 0 0 0-1.3.4c-.4.3-.5.7-.5 1.1 0 .5.1.8.4 1.1.3.3.8.4 1.3.4a2 2 0 0 0 1-.3c.3-.1.6-.4.7-.7v-.1Zm.2 10.1a.8.8 0 0 0-.4.1l-.1.3.1.2h.4c.4 0 .5 0 .5-.2l-.1-.3a.8.8 0 0 0-.4 0Zm-1.9-1.4h.6c.4 0 .6 0 .6-.3 0-.2-.2-.4-.5-.4a.7.7 0 0 0-.5.2.5.5 0 0 0-.2.4Zm3 1.4c.2.1.2.3.2.5l-.3.6-1 .2-1-.2a.7.7 0 0 1-.3-.6c0-.2 0-.4.2-.5-.5 0-.8-.3-1.1-.5-.3-.3-.4-.6-.4-1 0-.3.1-.6.4-.9.2-.2.6-.3 1-.3s.7 0 .9.2c.2.2.3.5.3.7 0 .7-.4 1-1.2 1h-.3l1.5.2h.7c.3 0 .5-.3.7-.4a1 1 0 0 0 .2-.8c0-.6-.2-1.2-.7-1.8l.8-.4.6 1.2.2 1c0 .5-.1.8-.3 1.1a2 2 0 0 1-1 .7Z" fill="#fff"/>
  <path d="M126.5 50v-.2a.9.9 0 0 0-.4 0v.1l-.3.4.2.2.5.2.5-.1.2-.3-.2-.4a1 1 0 0 0-.5-.1v.3h.3l.1.2h.1-.2a.7.7 0 0 1-.3.1.7.7 0 0 1-.3 0V50h.3v-.2Zm-1.9-1.6v.2h1.1a.5.5 0 0 0 .2-.4.4.4 0 0 0-.2-.4.8.8 0 0 0-.4 0 .8.8 0 0 0-.6 0l.1.2v-.1a.7.7 0 0 0-.3.5v.1h.4V48l.5-.1h.3v.4a.7.7 0 0 1-.4.1 1 1 0 0 1-.5 0Zm3 1.5v.5c0 .2 0 .3-.2.5a1.7 1.7 0 0 1-.9.1c-.4 0-.7 0-.9-.2-.2 0-.2-.2-.2-.4l.1-.4.2-.2h-.3a2 2 0 0 1-1-.5c-.2-.3-.4-.5-.4-.8 0-.4.2-.7.4-.9.2-.2.5-.3 1-.3.3 0 .5 0 .7.2l.3.6c0 .3-.1.5-.3.7l-.8.2h-.3l-.8-.2.7.4c.3.2.9.2 1.6.2h.7l.8-.5c.2-.2.3-.4.3-.8 0-.6-.3-1.3-.7-2l-.1.2.8-.3v-.1h-.2l.6 1.2a3 3 0 0 1 .2 1c0 .4-.1.8-.3 1-.3.4-.6.6-1 .7h-.2l.1.2.1-.1v.1a2 2 0 0 0 1.2-.7 2 2 0 0 0 .3-1.2L129 47a5.8 5.8 0 0 0-.7-1.2v-.1l-.9.4-.1.1v.1c.5.7.7 1.3.7 1.8 0 .3 0 .5-.2.7a1.2 1.2 0 0 1-.6.3h-.7L125 49v.2h.3c.4 0 .8 0 1-.2a1 1 0 0 0 .4-.9 1 1 0 0 0-.4-.8c-.3-.2-.6-.3-1-.3s-.8.2-1.1.4a1.3 1.3 0 0 0-.4 1c0 .4.1.8.4 1 .3.3.7.5 1.2.7v-.2a.8.8 0 0 0-.3.5c0 .3.1.5.4.7l1 .2a2 2 0 0 0 1-.2.8.8 0 0 0 .4-.7.8.8 0 0 0-.2-.6v.1ZM55.8 9.1c.3.2.6.3 1 .3s.6 0 .8-.2c.2-.2.3-.4.3-.7a.8.8 0 0 0-.2-.5.7.7 0 0 0-.5-.2c-.4 0-.7 0-.9.3-.2.2-.4.5-.5 1Zm6.3.7v.8h-3.4v-.9h2a1.7 1.7 0 0 1-.7-1.3c0-.4.2-.8.5-1a1.6 1.6 0 0 1 1.1-.4 2 2 0 0 1 1.6.7c.4.5.6 1.1.6 1.9 0 1.3-.4 2.3-1.1 2.9-.8.6-2 1-3.5 1a4.8 4.8 0 0 1-3.2-1 3.3 3.3 0 0 1-1-2.7c0-.9.2-1.6.6-2a2.1 2.1 0 0 1 1.7-.8c.5 0 .9 0 1.2.4.3.2.4.6.4 1 0 .6-.2 1-.5 1.3a2.1 2.1 0 0 1-1.4.5 2 2 0 0 1-1.1-.3c0 .8.3 1.5 1 2s1.4.6 2.4.6c1.3 0 2.2-.2 2.8-.7.6-.4.9-1.2.9-2.2 0-.5-.1-1-.3-1.3a1 1 0 0 0-1-.5.7.7 0 0 0-.5.2.8.8 0 0 0-.2.6c0 .2.1.5.3.7l1 .5Z" fill="#fff"/>
  <path d="M55.8 9v.2c.3.2.6.3 1 .3s.7 0 1-.2a.9.9 0 0 0 .3-.8.9.9 0 0 0-.3-.7.9.9 0 0 0-.6-.2c-.4 0-.7.1-1 .4s-.4.6-.5 1v.1h.3c0-.4.2-.7.4-1l.8-.2.4.1.2.5c0 .2 0 .4-.3.5-.1.2-.4.3-.7.3-.3 0-.6-.2-.9-.4V9Zm6.3.8v.7h-3.3v-.6h2.3l-.3-.3a1.6 1.6 0 0 1-.6-1.2c0-.4.1-.7.4-1a1.5 1.5 0 0 1 1-.3c.7 0 1.1.2 1.5.7.4.4.6 1 .6 1.8 0 1.3-.4 2.2-1.1 2.8-.8.6-1.9 1-3.4 1a4.7 4.7 0 0 1-3.1-1A3.2 3.2 0 0 1 55 9.8c0-.8.2-1.5.6-2a2 2 0 0 1 1.6-.7c.5 0 .8.1 1 .4.3.2.5.5.5 1s-.2.8-.5 1.1a2 2 0 0 1-1.3.5c-.4 0-.7-.1-1-.3l-.3-.1v.2c0 .9.4 1.6 1 2a4 4 0 0 0 2.6.8c1.3 0 2.2-.3 2.9-.8a3 3 0 0 0 .6-3.7 1.1 1.1 0 0 0-1-.5.8.8 0 0 0-.7.2 1 1 0 0 0-.2.7c0 .3.1.6.3.8l1 .5v-.2a2 2 0 0 1-.8-.5.8.8 0 0 1-.3-.6l.2-.5a.6.6 0 0 1 .4-.2c.4 0 .6.2.8.5.2.3.3.7.3 1.2 0 1-.2 1.7-.8 2.1-.6.5-1.5.7-2.7.7a3.8 3.8 0 0 1-2.4-.7A2.3 2.3 0 0 1 56 10h-.1l-.1.1c.3.2.7.3 1.1.3.7 0 1.2-.2 1.6-.5.3-.3.5-.8.5-1.3s-.1-1-.4-1.2a1.8 1.8 0 0 0-1.3-.5c-.7 0-1.3.3-1.8.8a3.3 3.3 0 0 0-.7 2.2c0 1.2.4 2.1 1.2 2.8a4.9 4.9 0 0 0 3.3 1c1.6 0 2.7-.3 3.5-1 .8-.7 1.2-1.7 1.2-3a3 3 0 0 0-.6-2 2.1 2.1 0 0 0-1.7-.8c-.5 0-1 .2-1.2.5-.3.3-.5.6-.5 1 0 .7.2 1.2.7 1.5h.1v-.2h-2.2v1.1h3.8v-1h-.1v.1Zm5.9 1.3h.9c0 .5.1.8.4 1 .2.3.5.5.9.5.8 0 1.2-.6 1.2-1.7a3.3 3.3 0 0 0-.4-1.5 2.5 2.5 0 0 0-1-1 3 3 0 0 0-1.5-.4h-.2c-.5 0-1 0-1.5.3l-1 1c-.2.5-.3 1-.3 1.6 0 .5 0 1 .3 1.3.2.2.5.4.9.4.3 0 .6-.2.9-.4l.4-1ZM66 8h-1.4V7h6.1a.8.8 0 0 0 .5-.2l.2-.5c0-.5-.3-1-.8-1.4l.8-.5.7 1 .2 1c0 .4-.1.7-.4 1a1.8 1.8 0 0 1-1.1.5 3 3 0 0 1 1.1 1.2c.3.5.4 1.1.4 1.8 0 .8-.2 1.4-.5 1.9a1.8 1.8 0 0 1-1.5.7c-.5 0-.8-.1-1.1-.3a2.3 2.3 0 0 1-.8-.7 2.2 2.2 0 0 1-.7.7c-.3.2-.7.3-1.2.3-.6 0-1-.3-1.4-.7a3.1 3.1 0 0 1-.5-2A3.3 3.3 0 0 1 66 8Z" fill="#fff"/>
  <path d="M68 11.1v.2h.9V11h-.2c0 .5.2.9.5 1.2.3.3.6.4 1 .4s.8-.2 1-.5c.2-.3.3-.7.3-1.3a3 3 0 0 0-.4-1.6 2.6 2.6 0 0 0-1-1 3 3 0 0 0-1.6-.5h-.1c-.6 0-1.2.2-1.6.4a2 2 0 0 0-1 1 3 3 0 0 0-.4 1.7c0 .6 0 1 .3 1.3.2.3.5.5 1 .5.4 0 .7-.1 1-.4.2-.3.4-.7.4-1.2H68c0 .5-.2.8-.4 1a1 1 0 0 1-.8.3c-.4 0-.6 0-.8-.3a2.2 2.2 0 0 1-.3-1.2c0-.6.1-1 .4-1.5.2-.4.5-.7.9-1a3 3 0 0 1 1.4-.3h.3c.5 0 1 .1 1.4.4.4.2.7.5 1 1l.2 1.4c0 .5 0 1-.2 1.2-.2.2-.4.3-.8.3a1.1 1.1 0 0 1-.8-.3 1.5 1.5 0 0 1-.4-1H68v.1ZM66 8v-.2h-1.3v-.6h6.1c.2 0 .4-.2.5-.3l.2-.6c0-.5-.3-1-.8-1.5V5l.7-.5v-.1h-.1l.6 1c.2.3.3.6.3 1 0 .3-.2.6-.4.9-.2.2-.5.4-1 .5h-.4l.3.2c.5.3.8.7 1 1.2.3.5.5 1 .5 1.6a3 3 0 0 1-.5 1.9c-.4.4-.8.6-1.4.6a2 2 0 0 1-1-.2c-.3-.1-.5-.4-.8-.7v-.2l-.2.2a2 2 0 0 1-.7.7l-1 .2a1.6 1.6 0 0 1-1.4-.6 3 3 0 0 1-.5-1.9c0-.6.1-1.2.4-1.6s.6-.9 1-1.1l.5-.3h-.5V8a3 3 0 0 0-1.4 1c-.2.6-.4 1.2-.4 1.8 0 .9.2 1.6.6 2 .4.5.9.8 1.5.8.5 0 1-.1 1.3-.3l.7-.8h-.2c.2.4.5.7.8.8.3.2.7.3 1.2.3a2 2 0 0 0 1.6-.7 4 4 0 0 0 .5-2c0-.7-.1-1.3-.4-1.8a3 3 0 0 0-1.2-1.3V8c.5 0 1-.2 1.2-.5.3-.3.4-.7.4-1.1 0-.4 0-.8-.2-1.1l-.7-1-.1-.1-.8.5-.2.1.1.1c.5.5.7 1 .7 1.4a.6.6 0 0 1 0 .4.7.7 0 0 1-.5.2h-6.3v1.2H66v-.2Zm8.5 5.1-1 .4a3 3 0 0 1-.5-1.8c0-.5.1-1 .5-1.3a1.6 1.6 0 0 1 1.2-.5 2 2 0 0 1 1 .2c.3.2.6.6.9 1.1a7 7 0 0 0 .6.9c0 .1.2.3.4.3l.6.2c.4 0 .6-.2.8-.4.2-.2.3-.6.3-1A3.3 3.3 0 0 0 76.8 8H73V7h5.8l.4-.2.1-.5c0-.5-.3-1-.7-1.4l.7-.5.7 1 .2 1c0 .4-.1.8-.4 1-.3.3-.7.5-1.3.5a4 4 0 0 1 1.3 1.4c.3.6.4 1.1.4 1.8s-.2 1.3-.5 1.7a2 2 0 0 1-1.6.7 2 2 0 0 1-1.5-.7 5 5 0 0 1-.6-.9 5.8 5.8 0 0 0-.5-.7 1.3 1.3 0 0 0-.4-.4.8.8 0 0 0-.4 0 .7.7 0 0 0-.6.2 1 1 0 0 0-.2.7c0 .4.2 1 .6 1.4Z" fill="#fff"/>
  <path d="m74.5 13.1-1 .3h.2a3 3 0 0 1-.6-1.7c0-.5.2-.9.5-1.2.3-.3.6-.5 1-.5.5 0 .8 0 1 .3.3 0 .6.4.9 1l.5.9a1.4 1.4 0 0 0 1.2.5c.4 0 .7-.1 1-.4l.2-1.1a3.4 3.4 0 0 0-2.6-3.4h-3.7v-.6h5.7a.9.9 0 0 0 .5-.3.8.8 0 0 0 .1-.6c0-.5-.2-1-.7-1.5h-.1V5l.8-.5v-.1h-.2l.7 1 .2 1c0 .4-.1.7-.4 1-.2.2-.6.3-1.2.4h-.4l.3.2a3.6 3.6 0 0 1 1.7 3 2.4 2.4 0 0 1-.5 1.7c-.4.4-.8.6-1.5.6a2 2 0 0 1-.8-.1 1.8 1.8 0 0 1-.6-.5l-.6-.9-.5-.7a1.4 1.4 0 0 0-.4-.4v.1a1 1 0 0 0-.5-.2 1 1 0 0 0-.7.3c-.2.2-.2.4-.2.7 0 .5.2 1 .6 1.6l.2-.2a2.5 2.5 0 0 1-.6-1.4l.2-.5c.1-.2.3-.2.5-.2h.4l.3.3a7 7 0 0 1 .5.8l.6.9a2 2 0 0 0 1.6.7 2.1 2.1 0 0 0 1.7-.7c.4-.4.6-1 .6-1.8 0-.7-.2-1.3-.5-1.8a4.1 4.1 0 0 0-1.3-1.5v.3c.5 0 1-.3 1.3-.6.3-.3.5-.7.5-1.1a2 2 0 0 0-.3-1.1l-.7-1v-.1l-.9.6h-.1V5c.6.4.8.9.8 1.3l-.1.4a.6.6 0 0 1-.4.2h-5.9v1.2h4V8a3.2 3.2 0 0 1 2.4 3.2c0 .4-.1.7-.3 1l-.7.2h-.5a1.3 1.3 0 0 1-.4-.4 5.8 5.8 0 0 1-.6-.9 3.2 3.2 0 0 0-1-1 2 2 0 0 0-1-.4c-.5 0-1 .2-1.3.6a2 2 0 0 0-.5 1.4 3.2 3.2 0 0 0 .6 1.9l1-.3.2-.1-.1-.1h-.1Z" fill="#fff"/>
  <path d="m79.3 12 .6-.7 1 1c.4.2.7.3 1.1.3.5 0 .8-.2 1.1-.5.2-.3.4-.6.4-1.1 0-.8-.2-1.4-.6-2a4 4 0 0 0-1.7-1.2l.5-.9a5 5 0 0 1 2 1.7c.5.7.7 1.5.7 2.3 0 .8-.2 1.4-.6 1.9-.5.4-1 .7-1.8.7-.5 0-1-.1-1.4-.4a4.5 4.5 0 0 1-1.3-1.2Z" fill="#fff"/>
  <path d="M79.3 12h.1l.6-.6h-.2a4 4 0 0 0 1 1l1.2.3c.5 0 1-.2 1.2-.5.3-.3.4-.7.4-1.2 0-.8-.2-1.4-.6-2a4 4 0 0 0-1.7-1.3v.1L82 7h-.2c.8.5 1.5 1 2 1.7.3.6.6 1.4.6 2.2 0 .8-.2 1.4-.6 1.8-.4.4-1 .6-1.7.6-.5 0-.9 0-1.3-.3a4 4 0 0 1-1.2-1.1h-.1l-.1.1c.4.6.8 1 1.3 1.2.4.3.9.4 1.4.4a2.4 2.4 0 0 0 1.9-.7 2.8 2.8 0 0 0 .6-2 4 4 0 0 0-.7-2.4 5.1 5.1 0 0 0-2-1.7h-.1l-.6 1 .1.1c.7.4 1.3.8 1.6 1.3.4.5.5 1 .5 1.8 0 .4 0 .8-.3 1-.2.3-.5.4-1 .4a2 2 0 0 1-1-.2 3.7 3.7 0 0 1-1-1l-.7.7h-.1v.1h.1Zm4.8 4a3.2 3.2 0 0 0-.7-1 1.1 1.1 0 0 0-.7-.2c-.2 0-.4 0-.5.2a.6.6 0 0 0-.2.4c0 .3 0 .5.2.6l.8.2c.4 0 .8 0 1.1-.2Zm.6-.4a1.7 1.7 0 0 0 .5-1.3c0-.5-.1-1-.4-1.4l.8-.4a3.1 3.1 0 0 1 .4 1.7 2.5 2.5 0 0 1-.9 2l.4.4.5.1h.4l.1.7h-.2l-.3.1c-.4 0-.7 0-.9-.2a2 2 0 0 1-.6-.7c-.5.2-1 .3-1.6.3a2 2 0 0 1-1.3-.4 1.4 1.4 0 0 1-.5-1c0-.5.2-.8.5-1 .2-.3.6-.4 1-.4.5 0 .9 0 1.2.3.3.2.6.6 1 1.2Z" fill="#fff"/>
  <path d="M84.1 16h.1a3.4 3.4 0 0 0-.7-1c-.2-.2-.5-.3-.8-.3a.9.9 0 0 0-.6.2.7.7 0 0 0-.2.5c0 .3 0 .6.3.7.2.2.5.2.8.2.4 0 .8 0 1.2-.2h.1v-.2H84l-1 .2-.8-.2c-.1-.1-.2-.2-.2-.5 0-.1 0-.2.2-.3l.4-.1c.2 0 .4 0 .6.2l.7.9.1-.1Zm.6-.4h.1a1.9 1.9 0 0 0 .5-1.3c0-.5-.1-1-.4-1.4v.1l.7-.3v-.1h-.1a3.2 3.2 0 0 1 .4 1.6 2.4 2.4 0 0 1-.9 2v.1l.4.4.6.2h.2l.2.4H86v.2-.1c-.4 0-.6 0-.8-.2a2 2 0 0 1-.6-.6v-.1h-.2c-.4.2-1 .3-1.5.3s-1-.1-1.2-.4a1.2 1.2 0 0 1-.4-1c0-.3 0-.6.3-.8.3-.3.6-.4 1-.4.5 0 .8.1 1 .3.3.2.7.6 1 1.1l.1.2.1-.2v-.1a3.9 3.9 0 0 0-1-1.2 2 2 0 0 0-1.1-.3c-.5 0-1 0-1.2.4-.3.2-.5.6-.5 1 0 .5.2 1 .5 1.2.4.3.8.5 1.4.5a3 3 0 0 0 1.6-.4h-.2a2 2 0 0 0 .7.7c.3.2.6.2 1 .2h.6l.1-.1-.2-.9v-.1H86v.2-.1a.9.9 0 0 1-.5-.1 1 1 0 0 1-.3-.3v.1a2.6 2.6 0 0 0 1-2.1 3.3 3.3 0 0 0-.5-1.7v-.1l-1 .5a2.6 2.6 0 0 1 .2 2 1.6 1.6 0 0 1-.3.6h.1Z" fill="#fff"/>
</svg>
