<svg width="180" height="54" fill="none" xmlns="http://www.w3.org/2000/svg">
  <path d="M173.33 54H6.67A6.73 6.73 0 0 1 0 47.25V6.75C0 3.04 3 0 6.67 0h166.66A6.73 6.73 0 0 1 180 6.75v40.5c0 3.71-3 6.75-6.67 6.75Z" fill="#000"/>
  <path d="m27.63 26.22-14.2 15.26a3.84 3.84 0 0 0 5.65 2.35l.05-.03 15.97-9.33-7.48-8.25Z" fill="#EA4335"/>
  <path d="m41.98 23.63-.01-.02-6.9-4.05-7.77 7 7.8 7.9 6.86-4a3.89 3.89 0 0 0 2.02-3.43c0-1.47-.8-2.75-2-3.4Z" fill="#FBBC04"/>
  <path d="M13.43 12.52a3.7 3.7 0 0 0-.13 1v26.96c0 .35.04.68.13 1L28.1 26.62l-14.68-14.1Z" fill="#4285F4"/>
  <path d="m27.73 27 7.34-7.44-15.96-9.37a3.85 3.85 0 0 0-5.69 2.33L27.73 27Z" fill="#34A853"/>
  <path d="M131.52 32h2.17V17.43h-2.17V32Zm19.59-9.32L148.6 29h-.07l-2.59-6.32h-2.34l3.88 8.83-2.21 4.9h2.27l5.97-13.73h-2.41Zm-12.34 7.67c-.7 0-1.7-.36-1.7-1.24 0-1.13 1.24-1.56 2.3-1.56.96 0 1.41.2 1.99.49a2.64 2.64 0 0 1-2.59 2.3Zm.27-7.99c-1.58 0-3.2.7-3.88 2.23l1.93.8c.4-.8 1.18-1.06 1.98-1.06 1.13 0 2.27.67 2.29 1.87v.15a4.8 4.8 0 0 0-2.27-.56c-2.08 0-4.2 1.14-4.2 3.28 0 1.95 1.71 3.2 3.62 3.2 1.46 0 2.27-.65 2.78-1.42h.07v1.13h2.1v-5.59c0-2.59-1.93-4.03-4.42-4.03Zm-13.44 2.1h-3.1v-5h3.1a2.52 2.52 0 0 1 2.55 2.5c0 1.12-.93 2.5-2.55 2.5Zm-.06-7.03h-5.21V32h2.17v-5.52h3.04c2.41 0 4.78-1.75 4.78-4.52 0-2.78-2.37-4.53-4.78-4.53ZM97.13 30.35c-1.5 0-2.76-1.26-2.76-2.99 0-1.74 1.25-3.02 2.76-3.02 1.48 0 2.64 1.28 2.64 3.02 0 1.73-1.16 2.99-2.64 2.99Zm2.5-6.86h-.08a3.43 3.43 0 0 0-2.61-1.1 4.93 4.93 0 0 0-4.75 4.97 4.9 4.9 0 0 0 4.75 4.94c1.18 0 2.12-.53 2.6-1.13h.08v.72c0 1.9-1.01 2.9-2.64 2.9a2.74 2.74 0 0 1-2.5-1.76l-1.9.8a4.72 4.72 0 0 0 4.4 2.92c2.55 0 4.7-1.5 4.7-5.16v-8.9h-2.06v.8Zm3.56 8.51h2.18V17.43h-2.18V32Zm5.39-4.8a2.72 2.72 0 0 1 2.59-2.9c.86 0 1.6.43 1.84 1.05l-4.43 1.84Zm6.76-1.66c-.42-1.1-1.67-3.15-4.25-3.15-2.55 0-4.67 2-4.67 4.95 0 2.78 2.1 4.96 4.92 4.96a4.93 4.93 0 0 0 4.13-2.2l-1.69-1.12a2.83 2.83 0 0 1-2.44 1.37c-1.1 0-1.9-.5-2.4-1.5l6.62-2.75-.22-.56Zm-52.8-1.63V26h5.03a4.39 4.39 0 0 1-1.15 2.65 5.15 5.15 0 0 1-3.89 1.54c-3.1 0-5.52-2.5-5.52-5.6a5.52 5.52 0 0 1 9.32-4.1l1.48-1.47a7.34 7.34 0 0 0-5.28-2.13 7.8 7.8 0 0 0-7.8 7.7 7.8 7.8 0 0 0 7.8 7.7c2.3 0 4.02-.75 5.37-2.16a6.95 6.95 0 0 0 1.82-4.92c0-.49-.03-.94-.1-1.31h-7.09Zm12.9 6.44c-1.5 0-2.8-1.24-2.8-3 0-1.79 1.3-3.01 2.8-3.01 1.5 0 2.8 1.22 2.8 3 0 1.77-1.3 3-2.8 3Zm0-7.96a4.89 4.89 0 0 0-4.97 4.95 4.9 4.9 0 0 0 4.98 4.96 4.9 4.9 0 0 0 4.97-4.96 4.89 4.89 0 0 0-4.97-4.95Zm10.86 7.96c-1.5 0-2.8-1.24-2.8-3 0-1.79 1.3-3.01 2.8-3.01 1.5 0 2.8 1.22 2.8 3 0 1.77-1.3 3-2.8 3Zm0-7.96a4.89 4.89 0 0 0-4.98 4.95 4.9 4.9 0 0 0 4.98 4.96 4.9 4.9 0 0 0 4.98-4.96 4.89 4.89 0 0 0-4.98-4.95ZM56.28 46.47l-.88.35a3.06 3.06 0 0 1-.6-1.8c0-.51.16-.94.48-1.3a1.6 1.6 0 0 1 1.21-.51c.4 0 .74.08 1.02.26.28.17.57.53.9 1.08.22.4.4.68.54.85.14.17.29.29.46.38.17.08.37.12.6.12.36 0 .63-.12.81-.36.19-.25.28-.6.28-1.03a3.29 3.29 0 0 0-2.5-3.22h-3.78v-.88h4.81c.4 0 .7-.02.9-.06.2-.04.34-.12.44-.24.1-.12.14-.27.14-.46 0-.48-.24-.97-.73-1.44l.73-.5c.31.35.54.68.7 1 .15.3.22.65.22 1.02 0 .41-.14.76-.41 1.05-.28.28-.71.45-1.3.5a4 4 0 0 1 1.27 1.37c.3.54.44 1.13.44 1.78a2.5 2.5 0 0 1-.56 1.74c-.37.42-.89.63-1.55.63a1.93 1.93 0 0 1-1.52-.65c-.19-.21-.4-.5-.62-.9-.2-.32-.36-.57-.48-.73a1.27 1.27 0 0 0-.37-.34.84.84 0 0 0-.43-.1.73.73 0 0 0-.58.24.98.98 0 0 0-.21.67c0 .46.19.96.57 1.48Z" fill="#fff"/>
  <path d="m56.28 46.47-.05-.12-.88.35.05.12.1-.08a2.93 2.93 0 0 1-.57-1.72c0-.49.15-.88.45-1.2.3-.32.66-.48 1.11-.48.38 0 .7.08.95.24.24.15.53.5.85 1.03.23.4.41.7.56.87a1.44 1.44 0 0 0 1.17.56c.38 0 .7-.14.9-.42.22-.28.31-.65.31-1.11a3.42 3.42 0 0 0-2.6-3.35h-3.68v-.61h4.68c.4 0 .7-.02.92-.07a.9.9 0 0 0 .52-.28.84.84 0 0 0 .18-.55c0-.53-.27-1.05-.78-1.54l-.1.1.08.1.74-.49-.08-.1-.1.08c.3.34.53.66.67.96.15.3.22.62.22.97 0 .38-.13.69-.38.95-.24.26-.64.42-1.2.46l-.38.03.31.22a3.68 3.68 0 0 1 1.65 3.03 2.4 2.4 0 0 1-.53 1.66c-.34.39-.81.58-1.45.59a1.8 1.8 0 0 1-1.42-.6c-.18-.2-.38-.5-.61-.89a7.3 7.3 0 0 0-.49-.74c-.13-.17-.27-.3-.41-.38l-.06.12.06-.12a.98.98 0 0 0-.49-.12c-.27 0-.51.1-.68.3-.17.18-.25.44-.25.75 0 .5.2 1.02.6 1.56l.1-.08.11-.08a2.45 2.45 0 0 1-.54-1.4c0-.26.06-.45.18-.58a.6.6 0 0 1 .48-.2c.15 0 .26.03.36.08.1.06.21.16.33.31.12.16.28.4.47.72.23.4.44.7.64.92a2.07 2.07 0 0 0 1.62.7 2.1 2.1 0 0 0 1.65-.68c.4-.45.6-1.07.6-1.83 0-.67-.16-1.28-.46-1.84a4.13 4.13 0 0 0-1.3-1.42l-.08.1v.14c.6-.05 1.07-.22 1.38-.54.3-.31.46-.7.45-1.14 0-.39-.07-.75-.24-1.09-.15-.32-.4-.66-.7-1.02l-.09-.08-.83.55-.13.1.11.11c.48.47.7.91.7 1.35a.6.6 0 0 1-.11.38l.1.08-.1-.08a.62.62 0 0 1-.37.19c-.18.04-.48.06-.87.06h-4.95v1.15h3.92v-.14l-.03.13a3.16 3.16 0 0 1 2.4 3.09c0 .42-.1.73-.25.94-.17.22-.38.32-.7.32-.22 0-.4-.04-.55-.11a1.28 1.28 0 0 1-.41-.34 7.02 7.02 0 0 1-.54-.84 3.16 3.16 0 0 0-.94-1.13 2.1 2.1 0 0 0-1.09-.28c-.51 0-.96.2-1.3.57-.35.37-.53.84-.53 1.38a3.2 3.2 0 0 0 .63 1.88l.06.08.98-.38.15-.07-.1-.14-.1.08Zm12.25-7.35c-.3-.2-.63-.3-.98-.3a.87.87 0 0 0-.54.15.54.54 0 0 0-.2.44c0 .18.06.32.17.43.12.1.28.15.5.15.3 0 .53-.07.7-.22.18-.16.29-.37.35-.65Zm-4.93 3.3c.27.2.59.3.95.3.37 0 .65-.08.85-.23.2-.16.3-.37.3-.65a.76.76 0 0 0-.2-.56.74.74 0 0 0-.55-.2c-.33 0-.62.12-.86.35-.24.23-.4.56-.49.99Zm-.08.8c0 .8.27 1.45.79 1.94.52.48 1.26.72 2.21.72a3.2 3.2 0 0 0 2.42-.9c.59-.6.88-1.43.88-2.51 0-.5-.06-.97-.17-1.43a4.19 4.19 0 0 0-.5-1.23 1.7 1.7 0 0 1-.65.72c-.28.17-.6.25-.98.25-.5 0-.9-.12-1.18-.36a1.28 1.28 0 0 1-.42-1.02c0-.4.15-.73.46-.99.3-.26.7-.39 1.2-.39.63 0 1.18.19 1.67.56.48.37.85.9 1.12 1.59.27.69.4 1.45.4 2.3 0 1.36-.37 2.42-1.12 3.18-.75.77-1.82 1.15-3.21 1.15-.78 0-1.46-.15-2.04-.45a3.12 3.12 0 0 1-1.32-1.29 3.88 3.88 0 0 1-.46-1.9c0-.55.1-1.05.3-1.49.2-.44.47-.78.84-1.02a2.1 2.1 0 0 1 1.2-.37c.5 0 .89.14 1.18.42.3.27.44.64.44 1.1 0 .52-.17.93-.52 1.24-.35.32-.83.47-1.43.47-.42 0-.78-.1-1.1-.29Z" fill="#fff"/>
  <path d="m68.53 39.12.07-.1a1.82 1.82 0 0 0-1.05-.34.97.97 0 0 0-.63.19.67.67 0 0 0-.24.54c0 .2.07.4.21.52.15.14.35.2.6.2.3 0 .57-.09.78-.26.2-.18.33-.42.39-.72l.01-.09-.07-.05-.07.11-.13-.02a.97.97 0 0 1-.3.56.9.9 0 0 1-.62.2c-.2 0-.33-.05-.4-.12l-.1.1.1-.1c-.1-.08-.13-.18-.14-.33a.4.4 0 0 1 .15-.33l-.08-.1.08.1c.1-.08.25-.13.46-.13.33 0 .62.1.9.28l.08-.1Zm-4.93 3.3-.08.1c.3.22.64.33 1.03.33s.7-.08.93-.26a.9.9 0 0 0 .35-.75.9.9 0 0 0-.24-.66.87.87 0 0 0-.64-.24c-.37 0-.7.14-.95.4-.26.25-.44.6-.53 1.05l-.02.08.07.05.08-.1.13.02c.09-.4.24-.7.45-.92.22-.2.47-.3.77-.3.2 0 .35.05.45.15.1.11.16.26.16.47 0 .25-.08.41-.24.54-.16.13-.42.2-.77.2-.34 0-.62-.09-.87-.27l-.08.1Zm-.08.8h-.13c0 .84.28 1.53.83 2.03.55.52 1.33.76 2.3.76 1.06 0 1.91-.3 2.52-.93.61-.63.9-1.51.9-2.61 0-.5-.05-.99-.16-1.46a4.4 4.4 0 0 0-.52-1.27l-.12-.2-.1.21c-.15.3-.35.5-.6.67-.26.15-.57.23-.92.23-.48 0-.84-.11-1.1-.33-.24-.22-.37-.5-.37-.92 0-.37.14-.65.42-.89.27-.23.64-.35 1.11-.35.6 0 1.12.17 1.59.52.46.36.82.86 1.08 1.54.26.67.39 1.42.39 2.25 0 1.34-.36 2.36-1.08 3.09-.72.73-1.75 1.1-3.12 1.1-.76 0-1.42-.14-1.98-.43-.55-.29-.97-.7-1.27-1.23a3.75 3.75 0 0 1-.44-1.84c0-.53.1-1.01.29-1.43.19-.42.45-.74.8-.97.33-.23.7-.34 1.12-.35.47 0 .82.13 1.09.38.27.25.4.58.4 1.01 0 .49-.16.85-.48 1.14-.32.29-.76.44-1.34.44-.4 0-.74-.1-1.04-.27l-.2-.12v.23h.13l-.07.12c.35.2.74.3 1.18.3a2.2 2.2 0 0 0 1.52-.5c.38-.34.57-.8.57-1.34 0-.49-.16-.9-.49-1.2a1.8 1.8 0 0 0-1.27-.45c-.47 0-.9.13-1.28.39-.38.25-.68.62-.89 1.08-.2.46-.3.97-.3 1.54 0 .73.15 1.39.47 1.97.32.58.78 1.03 1.38 1.34.6.3 1.3.46 2.1.46 1.42 0 2.53-.39 3.3-1.18a4.5 4.5 0 0 0 1.17-3.28c0-.86-.14-1.65-.41-2.35a3.72 3.72 0 0 0-1.17-1.65 2.8 2.8 0 0 0-1.75-.58c-.52 0-.95.14-1.29.42-.33.28-.5.66-.5 1.09 0 .47.15.85.47 1.12.3.27.74.4 1.26.4a2 2 0 0 0 1.05-.28c.3-.18.54-.44.7-.77l-.12-.06-.11.07c.2.34.37.73.48 1.19.1.45.16.92.16 1.4 0 1.05-.28 1.85-.83 2.42-.55.57-1.32.86-2.33.86-.93 0-1.63-.24-2.12-.7a2.37 2.37 0 0 1-.74-1.83h-.14Zm8.51 4.95c.21-.3.41-.5.6-.6.2-.1.42-.15.67-.15.42 0 .77.14 1.03.42.26.27.4.61.4 1.02 0 .34-.09.66-.25.96-.16.3-.44.6-.83.91l-.53-.58c.28-.22.49-.43.61-.62.13-.2.2-.4.2-.62 0-.2-.06-.37-.18-.5a.6.6 0 0 0-.48-.2.74.74 0 0 0-.6.26c-.14.17-.23.41-.24.71h-.8a1.28 1.28 0 0 0-.27-.72.72.72 0 0 0-.56-.25c-.21 0-.38.06-.49.19a.76.76 0 0 0-.17.52c0 .2.06.4.18.59.11.18.32.4.62.63l-.53.6a3.33 3.33 0 0 1-.82-.92c-.17-.3-.25-.63-.25-.98a1.4 1.4 0 0 1 1.42-1.42c.28 0 .5.05.69.15.18.1.37.3.58.6Z" fill="#fff"/>
  <path d="m72.03 48.17.1.08c.21-.29.4-.47.57-.56.17-.09.37-.13.6-.13.4 0 .7.12.94.37.23.25.35.55.35.93 0 .32-.07.61-.23.9-.15.27-.41.57-.8.87l.1.1.1-.09-.54-.58-.1.09.08.1c.3-.22.5-.43.64-.65.14-.21.22-.45.22-.7a.87.87 0 0 0-.2-.58.74.74 0 0 0-.6-.24c-.27 0-.5.1-.68.3-.18.2-.27.48-.28.8h.13v-.13h-.8v.13l.14-.01c-.04-.33-.14-.6-.31-.8a.86.86 0 0 0-.66-.3.77.77 0 0 0-.59.24.88.88 0 0 0-.2.61c0 .23.06.45.2.66a3 3 0 0 0 .65.67l.08-.1-.1-.1-.53.6.1.08.08-.1c-.37-.3-.63-.6-.78-.88a1.84 1.84 0 0 1-.24-.9 1.26 1.26 0 0 1 1.29-1.3c.26 0 .47.05.62.14.15.08.34.27.54.55l.1.16.11-.15-.1-.08.1-.08c-.2-.3-.41-.51-.62-.63-.2-.12-.46-.17-.75-.17-.45 0-.83.15-1.12.45-.29.3-.44.68-.44 1.1 0 .37.1.72.27 1.04.18.32.47.64.86.96l.1.08.61-.69.1-.1-.12-.1a2.8 2.8 0 0 1-.6-.6.94.94 0 0 1-.15-.5c0-.21.05-.35.14-.44.08-.1.2-.14.39-.15.19 0 .33.07.46.21.12.15.2.36.24.65l.01.12h1.05v-.13a1 1 0 0 1 .22-.63.6.6 0 0 1 .49-.22c.18 0 .3.06.38.16.1.1.14.23.14.4 0 .2-.05.38-.17.55-.11.18-.3.38-.58.6l-.11.08.7.79.1-.08c.4-.32.7-.64.87-.96.17-.32.26-.66.26-1.02 0-.43-.15-.82-.43-1.11a1.5 1.5 0 0 0-1.13-.46c-.27 0-.51.06-.73.17a2.1 2.1 0 0 0-.65.63l.1.08Zm7.73-6.2c.18 0 .34.06.47.2.13.12.2.28.2.47 0 .18-.07.34-.2.47a.65.65 0 0 1-.47.2.62.62 0 0 1-.46-.2.65.65 0 0 1-.2-.47c0-.18.07-.34.2-.47a.6.6 0 0 1 .46-.2Zm2.9-.23a3.9 3.9 0 0 1 1.08 2.68c0 .75-.19 1.33-.56 1.75-.37.42-.85.63-1.43.63-.44 0-.8-.07-1.08-.21a2.12 2.12 0 0 1-.81-.8c-.22.33-.49.58-.8.75-.3.17-.74.26-1.3.26-.64 0-1.17-.19-1.58-.56a1.88 1.88 0 0 1-.62-1.46c0-.52.16-.95.48-1.29.31-.33.73-.5 1.24-.5.4 0 .73.1.97.29.24.2.36.45.36.77 0 .28-.04.5-.15.67l-.77-.07a1 1 0 0 0 .07-.37c0-.16-.04-.28-.14-.37a.54.54 0 0 0-.37-.12.75.75 0 0 0-.6.26 1 1 0 0 0-.23.69c0 .36.13.64.38.85.25.2.6.31 1.07.31.95 0 1.47-.48 1.55-1.44h.87c.03.46.17.82.42 1.07.24.25.56.37.96.37.37 0 .65-.12.85-.36.2-.24.29-.59.29-1.04 0-.4-.08-.78-.24-1.13-.16-.36-.4-.73-.71-1.1l.8-.53Zm-7.1-.45v-.88h5.78c.4 0 .69-.02.89-.06.2-.04.35-.12.44-.23a.7.7 0 0 0 .15-.47c0-.48-.25-.97-.74-1.44l.74-.5c.31.35.54.68.7 1 .14.3.22.65.22 1.02 0 .27-.07.53-.2.77-.14.24-.35.43-.65.58-.3.14-.74.21-1.34.21h-5.99Z" fill="#fff"/>
  <path d="M79.76 41.97v.13a.5.5 0 0 1 .38.16c.1.1.15.22.15.38a.5.5 0 0 1-.16.37.5.5 0 0 1-.37.16.48.48 0 0 1-.37-.16.51.51 0 0 1-.15-.37c0-.15.05-.27.15-.38.1-.1.21-.16.37-.16v-.26a.75.75 0 0 0-.57.24.8.8 0 0 0-.22.56c0 .21.08.4.23.56a.78.78 0 0 0 1.12 0 .77.77 0 0 0 .24-.56.79.79 0 0 0-.8-.8v.13Zm2.9-.23-.1.1c.7.77 1.04 1.62 1.04 2.58 0 .72-.17 1.27-.52 1.66-.35.4-.78.58-1.33.59-.42 0-.76-.07-1.02-.2a1.95 1.95 0 0 1-.76-.76l-.1-.17-.12.17a2.1 2.1 0 0 1-.75.72c-.28.15-.69.24-1.23.24-.63 0-1.12-.18-1.5-.53a1.72 1.72 0 0 1-.58-1.36c0-.5.15-.89.44-1.2.3-.3.67-.45 1.15-.45.38 0 .67.09.89.25a.8.8 0 0 1 .31.67c0 .26-.05.46-.13.6l.11.07.02-.13-.78-.08-.01.14.13.04c.05-.14.08-.28.08-.4a.6.6 0 0 0-.19-.47.67.67 0 0 0-.46-.16c-.29 0-.54.1-.7.3-.18.2-.26.47-.26.78 0 .39.14.72.42.95.28.24.67.35 1.16.35.5 0 .9-.13 1.2-.4.28-.27.44-.67.48-1.17l-.13-.01v.13h.87v-.13h-.13c.03.49.18.88.45 1.16.27.28.63.42 1.06.42.4 0 .73-.14.95-.42.22-.27.32-.65.32-1.12 0-.42-.08-.81-.25-1.19a4.43 4.43 0 0 0-.73-1.12l-.1.09.07.1.8-.53-.08-.1-.07-.12-.8.54-.12.08.1.12c.3.35.54.7.69 1.05.15.34.23.7.23 1.08 0 .43-.1.75-.27.96-.17.2-.4.3-.74.31-.37 0-.65-.11-.87-.34a1.51 1.51 0 0 1-.38-.98v-.13H79.3l-.01.13c-.04.46-.18.78-.41 1-.23.2-.56.32-1.01.32-.45 0-.77-.1-.99-.28a.92.92 0 0 1-.32-.75c0-.27.06-.46.19-.6.12-.15.27-.22.5-.22.13 0 .22.04.28.1.06.05.1.12.1.26l-.06.32-.07.16 1.04.1.04-.07c.12-.2.17-.45.17-.74 0-.36-.15-.66-.42-.88a1.66 1.66 0 0 0-1.05-.31c-.54 0-1 .18-1.34.54-.34.36-.51.83-.51 1.38 0 .63.22 1.16.66 1.56.44.4 1 .6 1.68.6.57 0 1.02-.1 1.36-.28.33-.18.61-.45.84-.8l-.11-.08-.11.07c.26.41.54.7.86.86.3.15.69.22 1.14.22.62 0 1.14-.23 1.53-.67.4-.45.6-1.07.6-1.84a4 4 0 0 0-1.13-2.77l-.08-.08-.1.06.08.11Zm-7.1-.45h.13v-.74h5.65c.4 0 .7-.02.91-.07.22-.04.4-.13.53-.28a.83.83 0 0 0 .17-.55c0-.53-.27-1.05-.77-1.54l-.1.1.08.1.73-.49-.07-.1-.1.08c.3.34.53.66.67.96.14.3.21.62.21.97 0 .25-.06.48-.18.7-.12.21-.31.39-.59.53-.26.13-.7.2-1.28.2h-5.99v.27h5.99c.6 0 1.07-.08 1.4-.23a1.58 1.58 0 0 0 .92-1.47c0-.39-.08-.75-.24-1.08a4.9 4.9 0 0 0-.71-1.03l-.08-.08-.97.65.12.11c.48.47.7.91.7 1.35 0 .17-.05.3-.12.38a.62.62 0 0 1-.37.2 4.7 4.7 0 0 1-.86.05h-5.91v1.15h.13v-.14Zm15.51 1.91c-.22-.27-.5-.4-.83-.4-.16 0-.3.04-.4.12a.4.4 0 0 0-.15.33c0 .33.2.5.6.5.17 0 .33-.05.48-.14a.8.8 0 0 0 .3-.4Zm-3.1 1.39h.88c.06.42.21.74.45.97.25.23.55.34.92.34.4 0 .7-.11.93-.34.23-.23.34-.56.34-.98 0-.2-.02-.4-.07-.6-.3.32-.7.48-1.2.48-.41 0-.74-.1-1-.31a1.1 1.1 0 0 1-.37-.9c0-.35.11-.63.36-.84.24-.2.55-.3.93-.3a2 2 0 0 1 .86.18 1.67 1.67 0 0 0-.85-.73c-.4-.18-.87-.27-1.42-.27h-.39c-.89 0-1.59.27-2.1.8a2.9 2.9 0 0 0-.76 2.1c0 .58.1 1 .28 1.29.2.28.49.42.89.42.34 0 .63-.11.86-.34.23-.23.39-.55.47-.97Zm4.37-5.18c0 .47-.11.86-.35 1.16-.24.3-.59.51-1.05.61a1.8 1.8 0 0 1 .98 1.66v.22a2.95 2.95 0 0 1 .43 1.52c0 .66-.2 1.2-.58 1.6a1.9 1.9 0 0 1-1.45.62c-.46 0-.83-.08-1.12-.23a2.23 2.23 0 0 1-.8-.79c-.17.32-.4.57-.7.75-.3.18-.68.27-1.17.27-.62 0-1.1-.23-1.45-.68a3.11 3.11 0 0 1-.53-1.94c0-.65.13-1.22.4-1.73.26-.5.63-.89 1.12-1.16h-1.52v-.88h5c.57 0 .96-.03 1.2-.1a.93.93 0 0 0 .5-.35c.12-.16.17-.39.17-.68 0-.3-.1-.54-.29-.72a1.01 1.01 0 0 0-.75-.28c-.22 0-.4.05-.58.14-.17.1-.3.22-.39.39.18 0 .33.04.43.13.11.09.17.2.17.36a.5.5 0 0 1-.17.4.67.67 0 0 1-.46.14.69.69 0 0 1-.57-.25 1 1 0 0 1-.2-.64c0-.39.17-.73.5-1.02.34-.28.78-.43 1.32-.43.58 0 1.04.18 1.39.53.35.35.52.81.52 1.38Z" fill="#fff"/>
  <path d="m91.07 43.2.1-.08c-.24-.3-.56-.46-.93-.46a.75.75 0 0 0-.48.16c-.13.1-.2.26-.2.43 0 .2.06.37.2.48a.8.8 0 0 0 .52.15 1 1 0 0 0 .56-.16c.17-.1.3-.27.36-.47l.02-.07-.05-.06-.1.09-.13-.04a.59.59 0 0 1-.24.33.75.75 0 0 1-.42.12c-.18 0-.3-.04-.35-.1-.07-.05-.1-.13-.1-.27l.1-.23a.52.52 0 0 1 .31-.09.9.9 0 0 1 .73.36l.1-.08Zm-3.1 1.39v.13h.88v-.13l-.14.02c.07.44.23.8.5 1.05s.62.38 1.01.38c.42 0 .77-.13 1.02-.39.26-.26.39-.63.38-1.07a3 3 0 0 0-.07-.64l-.05-.24-.17.18c-.3.3-.65.45-1.1.45-.4 0-.7-.1-.92-.29-.22-.18-.33-.43-.33-.78 0-.33.1-.56.31-.74.21-.19.49-.28.85-.28.3 0 .56.06.8.17l.36.18-.18-.36a1.8 1.8 0 0 0-.91-.79 3.58 3.58 0 0 0-1.48-.28h-.39a2.9 2.9 0 0 0-2.2.83c-.53.56-.8 1.3-.8 2.2 0 .6.1 1.05.31 1.36.21.33.57.49 1 .49.37 0 .7-.13.96-.39.25-.25.42-.6.5-1.04l-.13-.02-.13-.03c-.08.4-.22.7-.43.9-.2.21-.45.3-.77.31-.37 0-.61-.12-.78-.36a2.23 2.23 0 0 1-.26-1.22c0-.85.25-1.5.73-2.01.48-.5 1.14-.75 2-.75h.4c.52 0 .97.08 1.36.25.38.17.63.4.78.68l.12-.07.06-.12c-.28-.13-.59-.2-.92-.2-.4 0-.75.11-1.02.34-.27.23-.41.56-.4.95-.01.4.13.75.42.99.28.23.65.35 1.08.35.52 0 .96-.18 1.3-.54l-.1-.09-.13.03c.05.2.07.39.07.58 0 .4-.1.69-.3.89-.2.2-.47.3-.84.3-.34 0-.6-.1-.82-.3a1.5 1.5 0 0 1-.42-.9l-.02-.12h-1.1l-.01.11.13.03Zm4.37-5.18h-.13c0 .45-.11.8-.33 1.08-.21.28-.53.46-.97.56l-.35.08.32.17a1.64 1.64 0 0 1 .9 1.54h.14-.14v.26l.02.04c.14.2.24.43.3.67.08.24.1.5.1.78 0 .62-.17 1.12-.52 1.5-.36.39-.8.57-1.36.58-.45 0-.8-.08-1.06-.22a2.1 2.1 0 0 1-.74-.74l-.12-.19-.1.2c-.18.3-.4.53-.67.7a2.1 2.1 0 0 1-1.1.25 1.6 1.6 0 0 1-1.35-.64 2.99 2.99 0 0 1-.5-1.85c0-.63.13-1.18.38-1.67.25-.48.6-.84 1.07-1.1l.45-.25h-1.9v-.61h4.87c.58 0 .98-.04 1.23-.11.25-.08.45-.21.58-.4.14-.2.2-.45.2-.76 0-.33-.11-.61-.33-.82a1.2 1.2 0 0 0-.85-.31c-.24 0-.45.05-.64.15-.2.1-.35.26-.45.45l-.1.2h.22c.16 0 .27.03.35.1l.11.25c0 .14-.04.23-.12.3-.08.07-.2.11-.37.11-.22 0-.35-.07-.46-.2a.87.87 0 0 1-.17-.56c0-.35.14-.64.45-.91s.71-.4 1.23-.4c.55 0 .97.16 1.3.48.32.33.48.75.48 1.3h.27c0-.6-.19-1.11-.56-1.49a2 2 0 0 0-1.5-.56c-.55 0-1.03.15-1.39.46-.36.3-.55.69-.55 1.12 0 .28.07.53.23.73.16.2.4.3.67.3a.8.8 0 0 0 .55-.18c.14-.12.21-.3.21-.5a.57.57 0 0 0-.21-.46.8.8 0 0 0-.52-.17v.14l.12.06a.8.8 0 0 1 .33-.33c.15-.08.32-.12.52-.12.28 0 .5.08.66.23a.8.8 0 0 1 .25.63c0 .28-.05.48-.15.6a.82.82 0 0 1-.44.3c-.2.06-.59.1-1.15.1h-5.13v1.15h1.65v-.14l-.07-.11c-.5.28-.9.69-1.17 1.21a3.76 3.76 0 0 0-.41 1.8c0 .84.18 1.52.55 2 .37.5.91.75 1.56.74.5 0 .92-.1 1.24-.29.31-.2.56-.46.75-.8l-.11-.06-.11.07c.24.38.52.67.83.83.32.17.71.25 1.19.25.62 0 1.15-.22 1.55-.66.4-.43.6-1 .6-1.68a2.66 2.66 0 0 0-.45-1.6l-.1.07h.12l.01-.21c0-.39-.09-.74-.27-1.05a1.9 1.9 0 0 0-.78-.74l-.06.12.03.13c.48-.1.87-.32 1.12-.65.26-.33.39-.75.39-1.25h-.14Zm4.22 5.05h.87c.03.45.17.8.42 1.06.25.25.55.38.9.38.8 0 1.19-.56 1.19-1.69a3.3 3.3 0 0 0-.34-1.5c-.23-.45-.56-.8-.98-1.05a2.95 2.95 0 0 0-1.5-.37h-.2c-.57 0-1.08.12-1.51.36-.43.23-.77.57-1 1.02-.23.44-.34.95-.34 1.52 0 .58.1 1 .28 1.29.19.28.48.42.89.42.36 0 .66-.12.9-.38.24-.25.38-.6.42-1.06Zm-1.9-3.17h-1.52v-.88h5.33c.37 0 .66-.02.86-.05a.8.8 0 0 0 .46-.23.7.7 0 0 0 .16-.48c0-.48-.25-.97-.74-1.44l.74-.5c.3.35.54.68.69 1 .15.3.22.65.22 1.02 0 .4-.12.73-.37 1a1.8 1.8 0 0 1-1.13.53c.48.29.85.69 1.11 1.2.26.51.4 1.09.4 1.72 0 .84-.18 1.49-.54 1.94-.35.45-.85.68-1.49.68a2.2 2.2 0 0 1-1.06-.23 2.27 2.27 0 0 1-.78-.79c-.18.32-.42.57-.71.75-.3.18-.68.27-1.17.27-.62 0-1.1-.23-1.46-.68a3.11 3.11 0 0 1-.52-1.94c0-.65.13-1.22.4-1.73.25-.5.63-.89 1.11-1.16Z" fill="#fff"/>
  <path d="M96.56 44.46v.13h.87v-.13h-.13c.03.48.18.87.45 1.15.27.28.62.43 1 .43.43 0 .78-.16 1-.48.22-.32.32-.77.32-1.35a3.5 3.5 0 0 0-.35-1.56 2.6 2.6 0 0 0-1.04-1.1 3.08 3.08 0 0 0-1.56-.4h-.2a3.2 3.2 0 0 0-1.57.38c-.46.25-.81.61-1.05 1.08-.25.46-.37 1-.37 1.58 0 .6.1 1.05.31 1.36.21.33.56.49 1 .49.4 0 .74-.15 1-.43.27-.28.41-.67.46-1.14l-.14-.01-.13-.01c-.04.43-.17.75-.38.98-.22.23-.48.34-.81.34-.38 0-.61-.12-.78-.36a2.23 2.23 0 0 1-.26-1.22c0-.55.11-1.04.33-1.46.22-.42.53-.74.94-.97a3 3 0 0 1 1.46-.33h.19c.55 0 1.02.12 1.43.35.4.23.71.56.93.99.22.43.33.91.33 1.44 0 .55-.1.95-.28 1.2-.17.24-.41.36-.77.36a1.1 1.1 0 0 1-.82-.34 1.5 1.5 0 0 1-.37-.98l-.01-.13h-1.12v.13h.12Zm-1.9-3.17v-.13h-1.39v-.61h5.2c.37 0 .67-.02.88-.06a1 1 0 0 0 .54-.27.82.82 0 0 0 .19-.57c0-.53-.27-1.05-.78-1.54l-.1.1.08.1.74-.49-.07-.1-.1.08c.3.34.52.66.67.96.14.3.21.62.21.97 0 .36-.11.66-.34.91-.22.25-.57.42-1.05.48l-.37.05.32.2c.46.28.81.66 1.06 1.15.25.5.38 1.05.38 1.66 0 .83-.17 1.44-.5 1.86-.33.42-.78.62-1.39.63-.4 0-.74-.08-1-.22-.26-.15-.5-.39-.73-.74l-.12-.19-.11.2c-.17.3-.4.53-.66.7-.27.16-.63.25-1.1.25a1.6 1.6 0 0 1-1.35-.64 2.99 2.99 0 0 1-.5-1.85c0-.63.13-1.18.38-1.67.25-.48.6-.84 1.07-1.1l.45-.25h-.52v.13l-.06-.11c-.5.28-.9.69-1.18 1.21-.27.53-.4 1.12-.4 1.8 0 .84.17 1.52.55 2 .37.5.9.75 1.56.74.5 0 .92-.1 1.24-.29.3-.2.56-.46.75-.8l-.11-.06-.12.07c.25.38.52.66.83.83.31.17.69.25 1.13.25.67 0 1.22-.24 1.6-.73a3.2 3.2 0 0 0 .56-2.02c0-.65-.14-1.25-.41-1.78a3.07 3.07 0 0 0-1.16-1.26l-.07.12.02.13c.52-.08.93-.26 1.2-.57.28-.3.42-.67.42-1.1 0-.38-.08-.74-.24-1.07-.16-.33-.4-.67-.72-1.03l-.07-.08-.97.65.12.11c.47.47.7.91.7 1.35a.6.6 0 0 1-.13.4l.1.08-.1-.09a.68.68 0 0 1-.39.19c-.18.03-.47.05-.83.05H93v1.15h1.65v-.14Z" fill="#fff"/>
  <path d="m99.98 45.28.58-.62c.35.44.7.75 1.02.95.34.2.7.3 1.1.3.45 0 .8-.15 1.05-.44.26-.3.38-.69.38-1.19 0-.72-.18-1.34-.55-1.86a3.92 3.92 0 0 0-1.67-1.28l.48-.88c.87.43 1.53.99 1.99 1.67.45.68.68 1.45.68 2.3 0 .8-.2 1.42-.63 1.88-.42.46-1.01.69-1.76.69-.5 0-.96-.12-1.39-.36a4.5 4.5 0 0 1-1.28-1.16Z" fill="#fff"/>
  <path d="m99.98 45.28.1.09.58-.62-.1-.1-.1.1c.36.44.7.77 1.06.97.35.21.74.32 1.17.32.47 0 .87-.16 1.14-.49.28-.32.42-.75.42-1.27 0-.74-.2-1.4-.58-1.94a4.06 4.06 0 0 0-1.73-1.32l-.05.12.11.06.5-.88-.13-.06-.05.12a4.8 4.8 0 0 1 1.93 1.62c.44.66.66 1.4.66 2.23 0 .77-.2 1.36-.6 1.79-.4.43-.94.64-1.66.65-.47 0-.9-.12-1.32-.35-.41-.23-.83-.6-1.24-1.13l-.1.09-.11.08c.43.54.87.94 1.32 1.2.45.25.93.37 1.45.37a2.4 2.4 0 0 0 1.86-.73 2.8 2.8 0 0 0 .67-1.97c0-.87-.24-1.67-.71-2.37a5.13 5.13 0 0 0-2.04-1.72l-.11-.06-.55 1-.07.12.13.06a3.8 3.8 0 0 1 1.62 1.23 3 3 0 0 1 .53 1.8c0 .47-.12.83-.35 1.09-.22.26-.53.39-.94.39a2 2 0 0 1-1.04-.28 3.72 3.72 0 0 1-.98-.92l-.1-.12-.76.82.07.09.1-.08Zm8.6-2.08c-.54 0-.95.13-1.25.37a1.3 1.3 0 0 0-.43 1.02c0 .41.14.74.43.97.29.24.7.35 1.25.35s.97-.11 1.26-.35c.29-.23.43-.56.43-.97 0-.44-.14-.78-.44-1.02a1.9 1.9 0 0 0-1.25-.37Zm.53-1.9a1.03 1.03 0 0 1 .04 1.11h2.3v.8l-1.1-.02a1.7 1.7 0 0 1 .83 1.5c0 .66-.23 1.18-.69 1.55-.46.37-1.1.56-1.95.56-.79 0-1.4-.19-1.87-.57a1.87 1.87 0 0 1-.68-1.52c0-.64.27-1.15.8-1.52l-1.05.01v-.79h2.36c.2-.14.3-.32.3-.55 0-.19-.07-.38-.2-.57h-2.46v-.88h2.95c.57 0 .96-.03 1.19-.1.23-.07.4-.19.51-.35.12-.16.17-.39.17-.68 0-.3-.1-.54-.29-.72a1.01 1.01 0 0 0-.75-.28c-.21 0-.4.05-.58.14-.17.1-.3.22-.39.39.18 0 .33.04.43.13.11.09.17.2.17.36a.5.5 0 0 1-.17.4.67.67 0 0 1-.46.14.69.69 0 0 1-.57-.25 1 1 0 0 1-.2-.64c0-.39.17-.73.5-1.02.34-.28.78-.43 1.32-.43.58 0 1.04.18 1.39.53.35.35.52.81.52 1.38 0 .59-.18 1.05-.55 1.37-.37.33-.98.5-1.82.51Z" fill="#fff"/>
  <path d="M108.58 43.2v-.13a2 2 0 0 0-1.33.4 1.4 1.4 0 0 0-.48 1.12c0 .44.16.82.48 1.08.32.26.77.38 1.33.38.57 0 1.02-.12 1.34-.38.32-.26.49-.64.48-1.08 0-.47-.16-.86-.48-1.12a2 2 0 0 0-1.34-.4v.27c.53 0 .9.11 1.17.33.26.22.39.51.39.92 0 .38-.13.66-.39.87-.25.2-.64.32-1.17.32-.53 0-.91-.11-1.16-.32a1.05 1.05 0 0 1-.39-.87c0-.4.13-.7.4-.92.25-.22.63-.33 1.15-.33v-.14Zm.53-1.9-.12.06a1 1 0 0 1 .17.51c0 .19-.04.34-.13.47l-.13.2h2.41v.53l-1.46-.02.42.25a1.56 1.56 0 0 1 .78 1.4c0 .62-.21 1.09-.64 1.44a2.9 2.9 0 0 1-1.87.53c-.76 0-1.35-.19-1.78-.54a1.74 1.74 0 0 1-.64-1.42c0-.6.24-1.05.75-1.4l.36-.26-1.36.02v-.53h2.27l.04-.02a.8.8 0 0 0 .35-.66c0-.22-.08-.44-.21-.64l-.04-.06h-2.4v-.61h2.81c.58 0 .98-.04 1.23-.11.25-.08.45-.21.58-.4.14-.2.2-.45.2-.76 0-.33-.11-.61-.34-.82a1.2 1.2 0 0 0-.84-.31c-.23 0-.45.05-.64.15-.2.1-.35.26-.45.45l-.1.2h.22c.16 0 .27.03.35.1l.11.25c0 .14-.04.23-.12.3-.08.07-.2.11-.37.11-.22 0-.36-.07-.46-.2a.87.87 0 0 1-.17-.56c0-.35.14-.64.45-.91s.71-.4 1.23-.4c.55 0 .97.16 1.3.48.32.33.48.75.48 1.3s-.17.96-.5 1.26c-.34.3-.91.47-1.74.48h-.24l.12.2.12-.07v.14c.86-.01 1.5-.19 1.9-.55.4-.35.6-.85.6-1.47a2 2 0 0 0-.56-1.48 2 2 0 0 0-1.48-.56 2.1 2.1 0 0 0-1.4.46c-.36.3-.55.69-.55 1.12 0 .28.07.53.23.73.16.2.4.3.67.3a.8.8 0 0 0 .55-.18c.14-.12.21-.3.21-.5a.57.57 0 0 0-.21-.46.8.8 0 0 0-.52-.17v.14l.12.06a.8.8 0 0 1 .33-.33c.16-.08.32-.12.52-.12.28 0 .5.08.66.23a.8.8 0 0 1 .25.63c0 .28-.05.48-.15.6a.8.8 0 0 1-.44.3c-.2.06-.59.1-1.15.1h-3.08v1.15h2.6v-.14l-.11.08a.9.9 0 0 1 .16.5c0 .17-.07.3-.24.43l.08.11v-.13h-2.5v1.06l1.2-.02v-.13l-.08-.1a1.9 1.9 0 0 0-.86 1.62 2 2 0 0 0 .73 1.62c.49.4 1.14.6 1.95.6.86 0 1.54-.19 2.04-.59.49-.4.74-.96.74-1.65a1.88 1.88 0 0 0-.9-1.62l-.08.12v.13l1.24.02v-1.06h-2.43v.13l.1.07c.12-.17.17-.38.17-.6 0-.22-.07-.44-.2-.66l-.11.07Z" fill="#fff"/>
  <path d="m110.45 45.42.62-.66c.3.38.58.67.86.86.28.19.6.28.93.28.32 0 .56-.08.73-.25.16-.17.24-.42.24-.75 0-.35-.02-.7-.05-1.03a8.88 8.88 0 0 1-.05-.88c0-.54.12-1.02.35-1.43.24-.41.58-.73 1.01-.95.44-.22.93-.33 1.48-.33.68 0 1.27.15 1.77.45.5.3.88.74 1.14 1.3.26.57.4 1.22.4 1.94a3.1 3.1 0 0 1-.65 2.07 2.2 2.2 0 0 1-1.76.76c-.6 0-1.07-.17-1.42-.5a1.73 1.73 0 0 1-.52-1.31c0-.46.12-.82.35-1.09.24-.27.54-.4.9-.4.28 0 .5.06.66.2a.7.7 0 0 1 .24.57c0 .2-.07.38-.19.51a.58.58 0 0 1-.44.2.73.73 0 0 1-.44-.13.5.5 0 0 1-.2-.35c-.04.1-.06.24-.06.4 0 .33.1.58.29.78.2.2.47.29.83.29.46 0 .82-.17 1.08-.52.26-.35.39-.83.39-1.46 0-.84-.21-1.52-.63-2.04a2.07 2.07 0 0 0-1.71-.78c-.62 0-1.1.17-1.44.5-.34.34-.5.82-.5 1.43 0 .26 0 .56.04.9.03.35.04.65.04.9 0 .6-.17 1.07-.52 1.4-.34.33-.8.5-1.36.5-.42 0-.82-.1-1.2-.32a4.85 4.85 0 0 1-1.2-1.06Z" fill="#fff"/>
  <path d="m110.45 45.42.1.09.62-.66-.1-.1-.1.09c.3.4.59.7.89.9.3.2.64.3 1 .3.34 0 .63-.1.82-.3.2-.2.28-.5.28-.84 0-.35-.01-.7-.05-1.04a8.65 8.65 0 0 1-.05-.87c0-.52.12-.97.34-1.37.22-.39.54-.68.95-.9.42-.2.89-.3 1.42-.3.66 0 1.23.14 1.7.43.48.29.84.7 1.09 1.24.25.55.38 1.17.38 1.88a3 3 0 0 1-.61 1.99c-.4.47-.94.7-1.66.7-.57 0-1-.15-1.32-.46a1.6 1.6 0 0 1-.49-1.21c0-.44.11-.76.32-1 .22-.24.47-.36.8-.36.26 0 .44.06.57.17.13.11.2.25.2.47a.6.6 0 0 1-.15.42.5.5 0 0 1-.35.16.6.6 0 0 1-.36-.1.37.37 0 0 1-.16-.27l-.07-.54-.18.51a1.4 1.4 0 0 0-.07.46c0 .34.11.64.33.86.23.23.55.33.93.33.5 0 .9-.2 1.18-.57.29-.38.42-.9.42-1.54 0-.86-.21-1.57-.65-2.12a2.2 2.2 0 0 0-1.82-.84c-.64 0-1.16.18-1.53.55-.37.37-.55.89-.55 1.52 0 .26.02.57.05.92.03.34.04.64.04.89 0 .57-.16 1-.48 1.3-.32.3-.73.46-1.27.46-.4 0-.77-.1-1.13-.31-.36-.2-.76-.55-1.18-1.03l-.1.09-.1.08c.43.5.85.87 1.25 1.1.4.22.82.33 1.26.33a2 2 0 0 0 1.45-.53c.38-.36.57-.87.57-1.5 0-.25-.02-.56-.05-.9-.03-.35-.04-.65-.04-.9 0-.59.16-1.02.47-1.33.3-.31.74-.47 1.34-.47.7 0 1.22.24 1.6.73.4.5.6 1.14.6 1.96 0 .6-.12 1.06-.36 1.38-.24.31-.54.46-.97.47-.34 0-.58-.1-.74-.25a.91.91 0 0 1-.25-.68c0-.16.02-.29.05-.37l-.13-.04-.13.02c.03.18.11.34.26.44.14.1.32.15.52.15s.4-.08.54-.24a.87.87 0 0 0 .22-.6.9.9 0 0 0-.28-.67 1.1 1.1 0 0 0-.75-.24c-.4 0-.74.16-1 .45-.26.3-.39.7-.39 1.18 0 .56.2 1.04.57 1.4.38.36.9.54 1.51.54.78 0 1.41-.27 1.86-.8.45-.54.68-1.26.67-2.16 0-.74-.13-1.4-.4-1.99a3.04 3.04 0 0 0-1.2-1.36 3.48 3.48 0 0 0-1.83-.47 3.4 3.4 0 0 0-1.54.34 2.5 2.5 0 0 0-1.06 1c-.25.44-.37.94-.37 1.5 0 .26.01.56.05.9.03.33.05.66.05 1 0 .32-.08.53-.21.67-.13.13-.33.21-.63.21-.31 0-.6-.09-.86-.26a3.63 3.63 0 0 1-.82-.83l-.1-.13-.72.78-.09.08.08.1.1-.1Zm15.25-6.31c-.3-.2-.62-.3-.98-.3a.81.81 0 0 0-.54.17c-.13.1-.2.25-.2.43s.06.32.17.43c.12.1.28.15.5.15.28 0 .51-.07.7-.22.17-.14.3-.36.35-.66Zm-1.62 5.6c-.1 0-.23.02-.38.07a.74.74 0 0 0-.37.22.56.56 0 0 0-.14.4c0 .18.08.33.23.44.16.1.38.16.66.16.3 0 .52-.05.67-.15a.5.5 0 0 0 .23-.45.58.58 0 0 0-.27-.5 1.09 1.09 0 0 0-.63-.19Zm-2.94-2.48c.22.1.47.14.74.14.36 0 .64-.06.82-.18a.57.57 0 0 0 .28-.5.53.53 0 0 0-.2-.45.85.85 0 0 0-.55-.16c-.33 0-.6.1-.8.3-.2.21-.3.48-.3.82v.03Zm5.18-2.43c-.15.32-.36.56-.64.73a1.9 1.9 0 0 1-1 .25c-.5 0-.89-.12-1.17-.36a1.28 1.28 0 0 1-.42-1.02c0-.4.15-.73.46-.99.3-.26.7-.39 1.2-.39.58 0 1.1.17 1.55.5.45.32.8.78 1.06 1.37.25.58.37 1.2.37 1.83a3.3 3.3 0 0 1-.54 1.98c-.36.5-.9.83-1.61 1.01.17.2.27.46.27.76 0 .41-.16.73-.47.97-.31.24-.75.36-1.32.36-.51 0-.93-.12-1.25-.34a1.11 1.11 0 0 1-.49-.97c0-.3.11-.56.34-.78a3.2 3.2 0 0 1-1.72-.87 2.14 2.14 0 0 1-.63-1.53c0-.61.17-1.1.53-1.47.36-.37.84-.56 1.45-.56.47 0 .85.12 1.14.37.29.24.43.58.43 1 0 .47-.16.83-.48 1.1-.32.26-.78.4-1.4.4-.18 0-.39-.03-.61-.1.16.25.4.44.7.58.3.15.67.25 1.07.3a4.96 4.96 0 0 0 2.25-.09c.44-.1.79-.34 1.04-.68.26-.34.38-.82.38-1.44a4.15 4.15 0 0 0-.49-1.92Z" fill="#fff"/>
  <path d="m125.7 39.11.07-.1c-.3-.22-.66-.33-1.05-.33a.96.96 0 0 0-.63.2.67.67 0 0 0-.24.53c0 .2.07.4.21.52.15.14.35.2.6.2.3 0 .56-.08.77-.25.2-.17.34-.43.4-.74l.01-.09-.07-.05-.07.11-.14-.02a.92.92 0 0 1-.3.58.94.94 0 0 1-.6.19c-.2 0-.34-.05-.42-.12l-.09.1.1-.1c-.1-.08-.13-.18-.14-.33a.4.4 0 0 1 .15-.33l-.08-.1.08.1a.7.7 0 0 1 .46-.13c.34 0 .64.09.9.27l.08-.1Zm-1.62 5.6v-.13c-.13 0-.26.02-.42.07a.87.87 0 0 0-.43.27.72.72 0 0 0-.17.48c0 .22.1.42.29.55.19.13.44.19.73.19.32 0 .56-.06.75-.18a.64.64 0 0 0 .28-.56.71.71 0 0 0-.33-.61 1.2 1.2 0 0 0-.7-.21v.27c.22 0 .4.05.55.16.15.1.21.21.21.39 0 .16-.05.26-.16.34-.12.08-.31.13-.6.13-.26 0-.45-.05-.58-.14a.37.37 0 0 1-.18-.33.4.4 0 0 1 .11-.3.6.6 0 0 1 .3-.2c.14-.04.26-.05.35-.05v-.14Zm-2.94-2.48-.06.13c.25.1.51.15.8.15.38 0 .67-.06.9-.2a.7.7 0 0 0 .33-.63.66.66 0 0 0-.25-.54.98.98 0 0 0-.63-.2c-.36 0-.67.12-.89.36-.23.23-.34.54-.34.9v.12l.08.04.06-.13h.13v-.03a1 1 0 0 1 .26-.72c.17-.18.4-.27.7-.27.2 0 .35.05.46.14.1.08.15.18.16.33 0 .19-.07.3-.22.4-.15.1-.4.16-.75.16-.26 0-.49-.05-.7-.13l-.04.12Zm5.18-2.43-.12-.05c-.14.29-.34.5-.6.67-.25.15-.55.23-.91.23-.49 0-.84-.11-1.1-.33-.24-.22-.37-.5-.37-.92 0-.37.14-.65.42-.89.27-.23.64-.35 1.12-.35.55 0 1.03.15 1.46.46.43.32.77.75 1.01 1.32.25.57.37 1.16.37 1.78 0 .8-.18 1.43-.52 1.9-.33.47-.84.79-1.54.96l-.21.06.14.16c.16.18.24.4.24.67 0 .38-.13.65-.41.87a2 2 0 0 1-1.24.33 2 2 0 0 1-1.18-.32.98.98 0 0 1-.42-.86c0-.27.09-.48.3-.68l.17-.18-.25-.05a3.08 3.08 0 0 1-1.65-.83 2 2 0 0 1-.6-1.44c.01-.59.18-1.04.51-1.38.33-.34.77-.51 1.35-.52.45 0 .8.12 1.05.34.26.22.39.5.4.9-.01.44-.15.75-.44 1-.29.23-.72.36-1.32.36-.17 0-.36-.02-.58-.08l-.34-.09.2.3c.18.26.43.46.75.61.32.16.7.26 1.11.32a5.1 5.1 0 0 0 2.3-.1c.47-.12.85-.36 1.12-.73.28-.38.4-.89.4-1.52a4.3 4.3 0 0 0-.5-1.98l-.13-.22-.1.23.11.05-.11.07a4.02 4.02 0 0 1 .47 1.85c0 .6-.12 1.05-.36 1.36-.23.32-.55.53-.96.64a4.84 4.84 0 0 1-2.2.09c-.4-.06-.74-.16-1.03-.3-.29-.13-.5-.3-.65-.53l-.11.08-.04.13c.24.06.45.09.65.1a2.38 2.38 0 0 0 1.49-.44c.35-.29.53-.7.53-1.2 0-.45-.16-.83-.48-1.1-.32-.27-.74-.4-1.23-.4-.63 0-1.16.2-1.54.6-.39.4-.58.92-.58 1.56 0 .62.23 1.17.67 1.62a3.3 3.3 0 0 0 1.8.91l.02-.13-.1-.1c-.24.25-.37.55-.37.88 0 .45.18.83.54 1.07.35.25.8.37 1.33.37.59 0 1.05-.12 1.4-.38.34-.26.52-.64.52-1.08 0-.33-.1-.62-.3-.85l-.1.1.03.12a2.87 2.87 0 0 0 1.7-1.07c.37-.52.56-1.21.56-2.05 0-.65-.13-1.29-.4-1.89a3.36 3.36 0 0 0-1.1-1.42 2.68 2.68 0 0 0-1.61-.52c-.52 0-.96.14-1.3.42-.33.28-.5.66-.5 1.09 0 .47.15.85.46 1.12.32.27.74.4 1.27.4a2 2 0 0 0 1.05-.28c.3-.18.54-.44.7-.78l-.12-.06Zm.18 10.13a.77.77 0 0 0-.36.08l-.16.24.13.2c.09.06.22.09.4.09.35 0 .53-.1.53-.29l-.17-.24a.82.82 0 0 0-.37-.08Zm-1.87-1.48c.15.06.33.1.54.1.4 0 .6-.13.6-.38 0-.22-.16-.34-.48-.34a.72.72 0 0 0-.49.16.54.54 0 0 0-.17.43v.03Zm3.01 1.45c.11.13.16.28.16.46 0 .26-.1.46-.33.6-.22.14-.54.21-.98.21-.4 0-.7-.07-.93-.2a.67.67 0 0 1-.34-.6c0-.18.06-.33.2-.45-.5-.11-.86-.3-1.12-.55-.26-.26-.4-.57-.4-.92 0-.38.13-.7.39-.93.25-.24.6-.36 1.02-.36.37 0 .66.09.88.27.22.18.33.42.33.7 0 .66-.4.98-1.2.98-.1 0-.22-.01-.35-.04.28.16.79.23 1.54.23.17 0 .4-.03.68-.09s.51-.18.7-.35a1 1 0 0 0 .26-.74c0-.6-.23-1.21-.7-1.86l.76-.38c.3.45.5.84.62 1.17.12.34.18.68.18 1.05 0 .46-.12.85-.35 1.15-.23.3-.57.52-1.02.65Z" fill="#fff"/>
  <path d="M126.5 49.93v-.14a.9.9 0 0 0-.42.1l-.03.02-.23.34.18.28.02.02.02.02c.13.07.28.1.47.1.2 0 .34-.02.46-.09.12-.06.2-.19.2-.33v-.04l-.19-.28-.02-.02-.03-.02a.95.95 0 0 0-.43-.1v.27l.31.07.06-.12-.1.08.16.24.11-.08h-.13l-.06.1a.74.74 0 0 1-.33.05.67.67 0 0 1-.34-.06l-.07.11.11-.07-.08-.13.11-.17-.1-.07.05.12.3-.07v-.13Zm-1.87-1.48-.05.12c.17.07.37.1.59.1.21 0 .39-.03.52-.1a.45.45 0 0 0 .21-.4.42.42 0 0 0-.18-.36.76.76 0 0 0-.43-.1.82.82 0 0 0-.58.18l.1.1-.1-.1a.67.67 0 0 0-.21.53v.12l.08.03.05-.12h.14v-.03c0-.16.04-.26.12-.33.08-.08.2-.12.4-.12.14 0 .24.03.28.06l.06.14-.08.17a.74.74 0 0 1-.38.07c-.2 0-.36-.03-.48-.09l-.06.13Zm3.01 1.45-.1.1c.09.09.13.2.13.36 0 .22-.08.36-.27.49a1.7 1.7 0 0 1-.9.19c-.39 0-.67-.07-.87-.2-.2-.12-.27-.26-.28-.48 0-.13.05-.24.16-.35l.17-.17-.24-.05c-.47-.1-.81-.28-1.05-.52-.23-.23-.35-.5-.35-.82 0-.35.11-.62.34-.83.23-.22.53-.33.93-.33.35 0 .61.09.8.24.19.16.27.35.28.6 0 .3-.1.5-.25.63-.17.14-.44.22-.82.22-.09 0-.2-.01-.33-.04l-.83-.15.74.4c.32.17.85.24 1.6.24.2 0 .43-.03.72-.09.3-.06.56-.2.76-.4.2-.2.3-.48.3-.82 0-.63-.24-1.28-.72-1.94l-.1.08.06.12.75-.38-.06-.12-.1.07c.28.44.48.83.6 1.15a3 3 0 0 1 .17 1c0 .44-.11.8-.32 1.07-.22.28-.53.48-.95.6l-.2.06.13.16.1-.09.04.13a2 2 0 0 0 1.09-.7 2 2 0 0 0 .37-1.23c0-.38-.06-.74-.18-1.1a5.77 5.77 0 0 0-.64-1.2l-.06-.1-.86.44-.14.07.09.12c.45.64.66 1.23.66 1.8 0 .28-.07.48-.22.63a1.2 1.2 0 0 1-.63.32c-.27.06-.5.09-.65.09-.74 0-1.25-.08-1.48-.21l-.06.11-.03.14c.14.02.27.04.38.04.42 0 .75-.09.98-.28a1 1 0 0 0 .35-.84 1 1 0 0 0-.37-.8c-.25-.2-.58-.3-.97-.3-.45 0-.83.12-1.11.4a1.3 1.3 0 0 0-.42 1.02c0 .38.14.73.42 1.01.29.28.68.47 1.18.59l.03-.13-.1-.1a.75.75 0 0 0-.23.54c0 .3.15.56.4.71.27.16.6.23 1.01.24a2 2 0 0 0 1.06-.24.83.83 0 0 0 .39-.71.8.8 0 0 0-.2-.54l-.1.08ZM55.83 9.06c.28.21.6.32.95.32.37 0 .66-.07.85-.23.2-.15.3-.37.3-.64a.76.76 0 0 0-.2-.56.73.73 0 0 0-.55-.2c-.35 0-.64.1-.88.33-.23.23-.4.56-.47.98Zm6.31.74v.8h-3.47v-.86h2.03a1.7 1.7 0 0 1-.67-1.37c0-.4.15-.74.44-1.01a1.6 1.6 0 0 1 1.16-.41c.66 0 1.2.24 1.59.73.39.48.59 1.12.59 1.91 0 1.29-.38 2.26-1.15 2.9-.76.65-1.9.98-3.42.98a4.83 4.83 0 0 1-3.23-.99 3.33 3.33 0 0 1-1.15-2.67c0-.87.22-1.57.65-2.09a2.1 2.1 0 0 1 1.68-.77c.5 0 .89.14 1.18.41.3.28.44.65.44 1.1 0 .53-.17.94-.52 1.25a2.1 2.1 0 0 1-1.44.47c-.4 0-.75-.1-1.08-.28.03.82.35 1.47.95 1.94s1.44.7 2.5.7c1.25 0 2.17-.23 2.77-.7.6-.48.89-1.22.89-2.22 0-.55-.11-1-.33-1.33-.22-.33-.52-.5-.9-.5a.72.72 0 0 0-.53.21.78.78 0 0 0-.2.58c0 .26.1.5.32.71.21.22.51.39.9.5Z" fill="#fff"/>
  <path d="m55.83 9.06-.08.1c.3.24.65.36 1.03.36.39 0 .7-.08.93-.26a.9.9 0 0 0 .35-.75.9.9 0 0 0-.24-.66.86.86 0 0 0-.64-.24c-.38 0-.71.13-.97.38s-.43.6-.51 1.04l-.02.08.07.05.08-.1.13.02c.08-.4.22-.7.43-.9.21-.2.47-.3.8-.3.2 0 .33.05.44.16.1.1.16.25.16.47 0 .24-.08.4-.24.54-.16.13-.41.2-.77.2-.32 0-.6-.1-.87-.3l-.08.1Zm6.31.74h-.13v.67h-3.2v-.6h2.26l-.29-.23a1.57 1.57 0 0 1-.61-1.27c0-.37.13-.66.39-.92a1.5 1.5 0 0 1 1.07-.37c.63 0 1.1.22 1.48.68.37.46.56 1.06.56 1.83 0 1.27-.37 2.18-1.1 2.8-.72.62-1.83.94-3.33.94a4.7 4.7 0 0 1-3.14-.95A3.2 3.2 0 0 1 55 9.81c0-.85.2-1.52.6-2 .42-.5.93-.73 1.59-.73.47 0 .82.13 1.09.38.26.25.4.57.4 1 0 .5-.16.87-.48 1.15-.32.29-.77.44-1.35.44-.37 0-.7-.1-1.02-.26l-.2-.12v.24c.04.85.38 1.54 1.01 2.03.64.5 1.5.74 2.58.74 1.27 0 2.22-.24 2.85-.74.63-.5.94-1.3.94-2.32 0-.57-.11-1.04-.35-1.4a1.15 1.15 0 0 0-1.02-.56.84.84 0 0 0-.6.25.91.91 0 0 0-.26.67c0 .3.13.58.36.8.24.24.56.42.96.54l.04-.12.04-.13a2.07 2.07 0 0 1-.85-.47.85.85 0 0 1-.28-.62c0-.22.06-.37.17-.48a.58.58 0 0 1 .42-.17c.35 0 .6.14.8.43.2.3.3.72.3 1.26 0 .98-.28 1.67-.84 2.11-.55.45-1.45.68-2.68.68a3.8 3.8 0 0 1-2.41-.68 2.34 2.34 0 0 1-.9-1.83h-.14l-.07.12c.35.2.74.3 1.15.3.63 0 1.14-.17 1.52-.5.38-.34.58-.8.57-1.35 0-.49-.16-.9-.48-1.2a1.8 1.8 0 0 0-1.27-.46c-.72 0-1.33.28-1.79.83a3.3 3.3 0 0 0-.67 2.17c0 1.15.4 2.1 1.2 2.77a4.9 4.9 0 0 0 3.31 1.02c1.54 0 2.71-.33 3.5-1 .8-.68 1.2-1.7 1.2-3 0-.82-.2-1.5-.62-2a2.1 2.1 0 0 0-1.69-.79c-.5 0-.94.15-1.25.45-.32.3-.48.68-.48 1.11 0 .59.24 1.09.71 1.47l.09-.1v-.13h-2.16v1.13h3.74V9.7l-.1-.03-.04.13Zm5.85 1.33h.87c.03.45.17.8.41 1.05.25.26.55.39.91.39.8 0 1.19-.56 1.19-1.69a3.3 3.3 0 0 0-.34-1.5 2.5 2.5 0 0 0-.99-1.05 2.95 2.95 0 0 0-1.5-.37h-.19c-.57 0-1.08.12-1.51.35-.44.24-.77.58-1 1.03-.23.44-.35.95-.35 1.52 0 .57.1 1 .29 1.29.18.28.48.42.88.42.37 0 .67-.13.91-.38.24-.26.38-.61.42-1.06Zm-1.9-3.17h-1.53v-.88h5.33c.38 0 .66-.02.86-.06a.8.8 0 0 0 .46-.22c.1-.12.16-.28.16-.48 0-.49-.24-.97-.73-1.45l.73-.49c.31.35.54.68.7.99.14.31.22.65.22 1.02 0 .4-.13.73-.38 1.01a1.8 1.8 0 0 1-1.13.52 3 3 0 0 1 1.12 1.2c.26.52.39 1.1.39 1.73 0 .84-.18 1.49-.53 1.94a1.8 1.8 0 0 1-1.49.68c-.43 0-.78-.08-1.07-.24a2.28 2.28 0 0 1-.78-.78 2.2 2.2 0 0 1-.7.75c-.3.17-.69.27-1.17.27-.62 0-1.1-.23-1.46-.69a3.11 3.11 0 0 1-.53-1.93c0-.65.14-1.23.4-1.73s.63-.9 1.12-1.16Z" fill="#fff"/>
  <path d="M67.99 11.13v.13h.87v-.13h-.13c.03.48.17.86.45 1.15.27.28.61.43 1 .42.43 0 .78-.16 1-.48.22-.31.32-.76.32-1.34 0-.57-.12-1.1-.36-1.56a2.6 2.6 0 0 0-1.03-1.1 3.08 3.08 0 0 0-1.57-.4h-.19c-.6 0-1.12.13-1.58.38-.45.24-.8.6-1.05 1.07-.24.47-.36 1-.36 1.59 0 .59.1 1.04.3 1.36.22.32.57.49 1 .48.4 0 .74-.14 1-.42.27-.28.42-.67.46-1.14l-.13-.02h-.13c-.04.43-.17.75-.39.98-.21.22-.47.34-.8.34-.38 0-.62-.13-.78-.37a2.23 2.23 0 0 1-.26-1.21c0-.55.11-1.04.33-1.46.22-.43.53-.75.94-.97a3 3 0 0 1 1.45-.34h.2c.55 0 1.02.12 1.43.36.4.23.71.56.93.99.21.43.32.9.32 1.44 0 .55-.1.95-.27 1.2-.17.24-.41.35-.78.36a1.1 1.1 0 0 1-.81-.35 1.5 1.5 0 0 1-.38-.97v-.13h-1.12l-.01.12.13.02Zm-1.9-3.17v-.13h-1.4V7.2h5.2c.38 0 .67-.02.89-.05.22-.04.4-.13.53-.27.13-.15.2-.34.2-.57 0-.53-.28-1.05-.78-1.54l-.1.1.08.1.74-.49-.08-.11-.1.09c.3.34.53.66.67.96.14.3.22.61.22.96 0 .37-.12.67-.35.92-.22.25-.56.41-1.04.48l-.38.05.33.2c.46.27.8.66 1.06 1.15.25.5.38 1.04.38 1.66 0 .82-.18 1.44-.5 1.86-.34.41-.78.62-1.39.62-.41 0-.74-.07-1-.21-.26-.15-.5-.4-.74-.74l-.11-.19-.11.2c-.17.3-.4.52-.67.7-.26.15-.62.24-1.1.24a1.6 1.6 0 0 1-1.34-.63 2.99 2.99 0 0 1-.5-1.85c0-.63.13-1.19.38-1.67s.6-.85 1.07-1.1l.45-.25h-.52v.13l-.06-.12c-.51.28-.9.7-1.18 1.22-.27.52-.4 1.12-.4 1.79 0 .85.17 1.53.55 2.01.37.5.9.74 1.56.74.5 0 .91-.1 1.23-.3.31-.18.57-.45.76-.79l-.12-.06-.1.07c.23.38.5.66.82.83.3.17.69.25 1.13.25.67 0 1.22-.25 1.6-.73.37-.48.55-1.16.55-2.02 0-.65-.13-1.25-.4-1.78a3.07 3.07 0 0 0-1.17-1.26l-.07.11.02.13c.53-.07.94-.25 1.21-.56.28-.3.41-.67.41-1.1 0-.38-.08-.75-.24-1.08-.15-.33-.4-.67-.7-1.02l-.09-.09-.83.56-.13.1.11.1c.48.47.7.92.7 1.36a.6.6 0 0 1-.12.39l.1.09-.1-.1a.67.67 0 0 1-.39.2c-.19.03-.47.05-.84.05h-5.46v1.14h1.65v-.13Zm8.38 5.18-.88.35a3.05 3.05 0 0 1-.6-1.8c0-.52.16-.95.49-1.3a1.6 1.6 0 0 1 1.2-.52 2 2 0 0 1 1.02.26c.28.17.58.53.9 1.08a7 7 0 0 0 .55.86c.13.16.29.29.45.37.18.09.38.13.61.13.35 0 .62-.12.8-.37.2-.24.29-.59.29-1.03a3.3 3.3 0 0 0-2.5-3.21H73v-.88h4.82c.4 0 .7-.02.9-.06.2-.05.34-.13.44-.24.1-.12.14-.27.14-.46 0-.49-.25-.97-.74-1.45l.74-.49c.3.35.54.68.7.99.14.31.22.65.22 1.02 0 .42-.14.77-.42 1.05-.27.29-.7.46-1.29.5a4 4 0 0 1 1.27 1.38c.3.54.44 1.13.44 1.77 0 .75-.19 1.33-.56 1.75-.37.42-.89.63-1.55.63a1.94 1.94 0 0 1-1.52-.65c-.2-.21-.4-.51-.63-.9a5.76 5.76 0 0 0-.48-.73 1.28 1.28 0 0 0-.37-.35.84.84 0 0 0-.42-.1.73.73 0 0 0-.58.25.98.98 0 0 0-.22.67c0 .46.2.95.57 1.48Z" fill="#fff"/>
  <path d="m74.47 13.14-.05-.12-.88.34.05.13.11-.08a2.95 2.95 0 0 1-.58-1.72c0-.49.15-.88.46-1.2.3-.33.66-.48 1.1-.48.39 0 .7.08.95.24.25.14.54.49.85 1.03.24.4.42.7.57.87a1.4 1.4 0 0 0 1.16.55c.38 0 .7-.14.92-.42.2-.28.3-.65.3-1.1a3.43 3.43 0 0 0-2.6-3.35h-3.68V7.2h4.68c.4 0 .7-.02.92-.06a.9.9 0 0 0 .52-.29.85.85 0 0 0 .17-.54c0-.53-.27-1.05-.77-1.54l-.1.1.08.1.73-.49-.07-.11-.1.09c.3.34.53.66.67.96.14.3.22.61.22.96 0 .39-.13.7-.38.96-.25.25-.64.41-1.2.46l-.38.03.3.21a3.6 3.6 0 0 1 1.66 3.04 2.4 2.4 0 0 1-.53 1.66c-.35.39-.82.58-1.45.58-.31 0-.58-.05-.81-.15a1.8 1.8 0 0 1-.61-.45c-.18-.2-.39-.5-.61-.88-.2-.33-.36-.58-.5-.75a1.4 1.4 0 0 0-.4-.37l-.07.11.07-.11a.98.98 0 0 0-.49-.12c-.28 0-.52.1-.68.29-.17.2-.25.45-.25.76 0 .5.2 1.02.6 1.56l.1-.08.11-.08a2.45 2.45 0 0 1-.54-1.4c0-.27.06-.45.18-.59.11-.13.26-.2.48-.2.15 0 .26.04.36.09.1.05.2.15.33.3a7 7 0 0 1 .47.72c.23.4.44.7.64.92a2.06 2.06 0 0 0 1.62.7 2.1 2.1 0 0 0 1.65-.67c.4-.45.6-1.07.6-1.84 0-.66-.16-1.27-.46-1.83a4.13 4.13 0 0 0-1.31-1.43l-.08.11.02.14c.6-.05 1.06-.23 1.37-.54.3-.31.45-.7.45-1.15 0-.38-.08-.75-.24-1.08-.16-.33-.4-.67-.71-1.02l-.08-.09-.83.56-.14.1.12.1c.48.47.7.92.7 1.36 0 .17-.05.29-.12.37l.1.09-.1-.09a.62.62 0 0 1-.36.2c-.19.03-.48.06-.87.06h-4.95v1.14h3.92v-.13l-.03.13a3.22 3.22 0 0 1 2.4 3.08c0 .43-.1.74-.26.95-.16.21-.38.31-.7.32-.22 0-.4-.04-.55-.12a1.27 1.27 0 0 1-.4-.34 5.81 5.81 0 0 1-.55-.83 3.16 3.16 0 0 0-.94-1.13c-.3-.19-.66-.28-1.08-.28-.51 0-.96.2-1.3.56-.36.37-.53.85-.53 1.39a3.2 3.2 0 0 0 .63 1.88l.06.08.97-.39.16-.06-.1-.14-.1.08Z" fill="#fff"/>
  <path d="m79.35 11.94.58-.62c.35.44.69.76 1.02.96.33.2.7.29 1.1.29.45 0 .8-.15 1.05-.44.25-.29.38-.68.38-1.18 0-.72-.19-1.34-.56-1.87a3.92 3.92 0 0 0-1.67-1.28l.49-.88a5 5 0 0 1 1.98 1.68c.46.68.69 1.45.69 2.3 0 .8-.22 1.42-.64 1.88-.42.46-1 .69-1.76.69-.5 0-.95-.12-1.38-.37a4.49 4.49 0 0 1-1.28-1.16Z" fill="#fff"/>
  <path d="m79.35 11.94.1.1.58-.62-.1-.1-.1.09a4 4 0 0 0 1.05.98c.35.2.74.31 1.17.31.47 0 .87-.16 1.15-.48.28-.32.41-.75.41-1.27 0-.74-.2-1.4-.58-1.94a4.06 4.06 0 0 0-1.72-1.33l-.06.12.12.07.49-.88-.12-.07-.06.12c.85.43 1.5.97 1.93 1.63.44.66.66 1.4.66 2.23 0 .77-.2 1.36-.6 1.79-.4.43-.93.64-1.66.64-.47 0-.9-.11-1.32-.34-.41-.23-.82-.6-1.24-1.13l-.1.08-.1.09c.42.54.86.94 1.31 1.19.45.25.94.38 1.45.38a2.4 2.4 0 0 0 1.86-.73 2.8 2.8 0 0 0 .67-1.97c0-.88-.24-1.67-.7-2.38a5.13 5.13 0 0 0-2.04-1.71l-.12-.06-.54.99-.08.13.14.06c.72.32 1.26.73 1.61 1.23.35.5.53 1.1.53 1.79 0 .48-.12.83-.34 1.1-.23.26-.53.39-.95.39a2 2 0 0 1-1.04-.28 3.74 3.74 0 0 1-.98-.92l-.1-.12-.68.73-.08.09.07.09.1-.09Zm4.76 4.04a3.24 3.24 0 0 0-.69-.9 1.1 1.1 0 0 0-.7-.26c-.23 0-.4.05-.54.17a.57.57 0 0 0-.2.45c0 .24.1.43.27.56.17.13.42.2.76.2.41 0 .78-.08 1.1-.22Zm.6-.43a1.73 1.73 0 0 0 .46-1.24c0-.53-.11-1-.33-1.39l.74-.37a3.11 3.11 0 0 1 .46 1.64 2.5 2.5 0 0 1-.93 2.04c.1.17.23.3.36.37.13.08.3.11.52.11l.23-.02.18-.05.14.77-.26.07-.3.03c-.34 0-.64-.07-.87-.2a1.95 1.95 0 0 1-.64-.7c-.47.22-.98.32-1.53.32-.57 0-1.02-.14-1.33-.4a1.35 1.35 0 0 1-.48-1.09c0-.4.14-.74.43-.99.28-.24.65-.37 1.1-.37.45 0 .81.1 1.1.3.3.2.61.6.96 1.17Z" fill="#fff"/>
  <path d="m84.11 15.98.12-.06a3.36 3.36 0 0 0-.72-.94c-.24-.2-.5-.3-.8-.3a.9.9 0 0 0-.61.21.7.7 0 0 0-.25.55c0 .27.1.51.32.66.2.16.49.23.84.23.43 0 .81-.07 1.16-.22l.13-.06-.07-.13-.12.06-.05-.12c-.3.13-.65.2-1.05.2-.32 0-.55-.06-.68-.17-.14-.1-.2-.24-.2-.45 0-.15.04-.26.14-.35.1-.09.24-.14.44-.14.23 0 .43.07.63.23s.42.45.66.87l.11-.07Zm.6-.43.1.1a1.87 1.87 0 0 0 .5-1.34c0-.55-.12-1.03-.36-1.45l-.11.06.06.12.74-.37-.06-.12-.11.07a3.18 3.18 0 0 1 .44 1.57 2.37 2.37 0 0 1-.88 1.93l-.1.08.07.1c.12.19.25.33.4.42.16.09.36.13.59.13l.24-.02h.01l.05-.02.1.5-.14.04-.27.02v.14-.14c-.33 0-.6-.06-.8-.18a1.97 1.97 0 0 1-.6-.64l-.06-.1-.1.04c-.45.2-.94.3-1.48.3-.55 0-.96-.12-1.25-.37a1.22 1.22 0 0 1-.43-.98c0-.38.13-.66.39-.89.26-.22.59-.34 1.02-.34.42 0 .75.1 1.02.28.26.19.57.56.91 1.13l.1.16.12-.14-.1-.09.11-.07a3.9 3.9 0 0 0-.99-1.2 2 2 0 0 0-1.17-.33c-.48 0-.89.13-1.2.4-.31.28-.48.65-.47 1.1 0 .47.17.88.52 1.17.35.3.83.44 1.42.44.57 0 1.1-.1 1.58-.32l-.05-.13-.12.07a2 2 0 0 0 .7.74c.25.15.57.22.94.22l.3-.03h.01l.28-.08.12-.03-.17-.88-.03-.14-.3.08-.22.02v.13-.13a.9.9 0 0 1-.44-.1.99.99 0 0 1-.32-.32l-.11.07.08.1a2.63 2.63 0 0 0 .98-2.14 3.26 3.26 0 0 0-.48-1.72l-.07-.1-.97.5.07.12a2.65 2.65 0 0 1 .21 1.95 1.6 1.6 0 0 1-.31.52l.1.1Z" fill="#fff"/>
</svg>
