<svg id="artwork" xmlns="http://www.w3.org/2000/svg" version="1.1" viewBox="0 0 239 70.9">
  <defs>
    <style>
      .st5{fill:#fff}
    </style>
  </defs>
  <rect width="239" height="70.8" rx="8.8" ry="8.8"/>
  <path class="st5" d="M120.6 38.5c-4.1 0-7.5 3.2-7.5 7.5s3.4 7.5 7.5 7.5a7.5 7.5 0 1 0 0-15Zm0 12c-2.3 0-4.2-1.8-4.2-4.5s2-4.5 4.2-4.5 4.3 1.8 4.3 4.5-2 4.6-4.3 4.6Zm-16.5-12c-4.1 0-7.5 3.2-7.5 7.5s3.4 7.5 7.5 7.5a7.5 7.5 0 1 0 0-15Zm0 12c-2.3 0-4.2-1.8-4.2-4.5s2-4.5 4.2-4.5 4.3 1.8 4.3 4.5-2 4.6-4.3 4.6Zm-19.6-9.7V44h7.7a6.7 6.7 0 0 1-1.8 4 7.8 7.8 0 0 1-5.9 2.4 8.4 8.4 0 0 1-8.4-8.5 8.4 8.4 0 0 1 14.2-6.2l2.2-2.3a11.8 11.8 0 0 0-19.8 8.5c0 6.5 5.3 11.7 11.8 11.7 3.5 0 6.1-1.1 8.2-3.3 2-2.1 2.7-5 2.7-7.5l-.1-2H84.5Zm80.2 2.5c-.6-1.7-2.5-4.8-6.4-4.8s-7.1 3-7.1 7.5c0 4.2 3.2 7.5 7.4 7.5 3.5 0 5.5-2 6.3-3.3l-2.6-1.7c-.8 1.2-2 2-3.7 2s-2.8-.7-3.6-2.2l10-4.2-.3-.8Zm-10.3 2.5c0-2.9 2.3-4.4 4-4.4 1.3 0 2.4.7 2.8 1.6l-6.8 2.8Zm-8.1 7.3h3.3V31h-3.3v22Zm-5.5-13a5.2 5.2 0 0 0-4-1.6c-3.8 0-7.2 3.3-7.2 7.6s3.4 7.5 7.2 7.5a5 5 0 0 0 4-1.8V53c0 3-1.5 4.5-4 4.5-2 0-3.2-1.5-3.8-2.7l-2.9 1.2c.9 2 3 4.4 6.7 4.4 3.9 0 7.2-2.2 7.2-7.8V39h-3.2v1.2ZM137 50.7c-2.2 0-4.2-2-4.2-4.5s2-4.6 4.2-4.6 4 2 4 4.6-1.7 4.5-4 4.5ZM180.2 31h-7.9v22h3.3v-8.4h4.6c3.7 0 7.3-2.6 7.3-6.9s-3.6-6.8-7.3-6.8Zm0 10.6h-4.6V34h4.7a3.8 3.8 0 1 1 0 7.6Zm20.5-3.1c-2.4 0-4.9 1-5.9 3.3l3 1.3c.6-1.3 1.8-1.7 3-1.7 1.7 0 3.4 1 3.4 2.9v.2c-.6-.3-1.8-.8-3.4-.8-3.2 0-6.4 1.7-6.4 5 0 2.9 2.6 4.8 5.5 4.8 2.2 0 3.5-1 4.2-2.2h.1v1.8h3.2v-8.5c0-4-3-6.1-6.7-6.1Zm-.4 12c-1 0-2.6-.5-2.6-1.8 0-1.7 1.9-2.3 3.5-2.3 1.5 0 2.2.3 3 .7a4 4 0 0 1-3.9 3.5ZM219 39l-3.8 9.6-4-9.6h-3.6l6 13.5-3.4 7.4h3.4l9.1-20.9H219Zm-29.7 14.2h3.3V31h-3.3v22Z"/>
  <path d="m36.7 34.4-18.9 20a5 5 0 0 0 7.5 3l21.3-12.2-10-10.9Z" style="fill:#ea4335"/>
  <path d="m55.7 31-9.1-5.3-10.3 9.1 10.3 10.4 9.1-5.3c1.6-.8 2.7-2.5 2.7-4.4s-1-3.7-2.6-4.5Z" style="fill:#fbbc04"/>
  <path d="m17.8 16.4-.2 1.3v35.4c0 .5 0 .9.2 1.3l19.5-19.5-19.5-18.5Z" style="fill:#4285f4"/>
  <path d="m36.8 35.4 9.8-9.8-21.2-12.2a5.1 5.1 0 0 0-7.6 3l19 19Z" style="fill:#34a853"/>
  <g style="isolation:isolate">
    <path class="st5" d="M80 23.4c-.6 0-1 0-1.4-.3l-1-.7a12.3 12.3 0 0 1-1.4-2l-.4-.4h-.5c-.3 0-.6 0-.7.2s-.3.5-.3.8l.2 1 .6 1-1.5.5a4.6 4.6 0 0 1-.9-2.5c0-.7.3-1.3.7-1.8.5-.4 1.1-.7 1.8-.7a3 3 0 0 1 1.5.4l1.2 1.4 1 1.3c.3.3.6.4 1.1.4s.9-.1 1-.5.4-.7.4-1.2a4.2 4.2 0 0 0-1.5-3.3c-.5-.4-1-.7-1.7-.8h-5.4v-1.5h7.8l.5-.2c.2-.1.2-.2.3-.4v-.4c0-.6-.3-1.2-.9-1.9l1.2-.7c.5.5.8 1 1 1.5l.3 1.3-.1.8-.5.8c-.4.3-1 .5-1.6.6.7.5 1.2 1 1.6 1.8s.6 1.4.6 2.3c0 1-.3 1.8-.8 2.4-.5.6-1.3.8-2.2.8Zm9.6 0c-1.2 0-2.2-.2-3-.6s-1.4-1-1.8-1.8a5.5 5.5 0 0 1-.3-4.6 3.1 3.1 0 0 1 3-1.9c.7 0 1.3.2 1.7.6s.6 1 .6 1.6-.2 1.3-.7 1.7c-.4.5-1 .7-2 .7a3 3 0 0 1-1.5-.4 3.4 3.4 0 0 0 1.9 2.8 5.1 5.1 0 0 0 5-.3c.7-.6 1-1.3 1-2.3 0-.7-.2-1.3-.6-1.8a4 4 0 0 0-1.6-1.2l.9-1.4c.9.5 1.6 1 2 1.8.6.7.9 1.6.9 2.6 0 .8-.2 1.6-.6 2.3s-1 1.2-1.7 1.6-2 .6-3.2.6Zm-2.2-7.6c-.4 0-.7 0-1 .3s-.6.7-.7 1.3l.5.3.7.1c.5 0 .9 0 1.1-.3.3-.2.4-.5.4-.8a1 1 0 0 0-.3-.7 1 1 0 0 0-.7-.3Z"/>
    <path class="st5" d="M98.1 18.9c-.8 0-1.4-.3-1.8-.7s-.7-1.2-.7-2H93v-1.5h2.7c.2-.8.6-1.3 1.2-1.7s1.2-.6 2-.6a4.3 4.3 0 0 1 2 .5l-.8 1-1.3-.3a2 2 0 0 0-1 .3c-.3.1-.5.4-.6.8h.2l1.4.1 1 .5c.4.4.6 1 .6 1.6s-.2 1.2-.7 1.5-1 .5-1.6.5ZM97 16.2c0 .5 0 .8.2 1.1.2.3.5.4 1 .4.1 0 .3 0 .5-.2s.2-.3.2-.5 0-.5-.3-.6l-.4-.2H97Zm9.7 7.2c-1.2 0-2.2-.2-3-.6s-1.4-1-1.8-1.8a5.5 5.5 0 0 1-.3-4.6 3.2 3.2 0 0 1 3-1.9c.7 0 1.3.2 1.7.6s.6 1 .6 1.6-.2 1.3-.7 1.7c-.4.5-1 .7-2 .7a3 3 0 0 1-1.5-.4 3.4 3.4 0 0 0 1.9 2.8 5.1 5.1 0 0 0 5-.3c.7-.6 1-1.3 1-2.3 0-.7-.2-1.3-.6-1.8a4 4 0 0 0-1.6-1.2l.9-1.4c.9.5 1.6 1 2 1.8.6.7.9 1.6.9 2.6 0 .8-.2 1.6-.6 2.3s-1 1.2-1.7 1.6-2 .6-3.2.6Zm-2.2-7.6c-.3 0-.7 0-1 .3-.3.3-.6.7-.7 1.3l.5.3.7.1c.5 0 .9 0 1.1-.3s.4-.5.4-.8c0-.3-.1-.5-.3-.7s-.4-.3-.7-.3Z"/>
    <path class="st5" d="M114.6 18.5c-.6 0-1.2 0-1.6-.3-.5-.2-.9-.4-1.2-.8l-.9-1 .8-.8 1.4 1.3c.4.3.9.3 1.4.3.5 0 1 0 1.3-.3s.4-.7.4-1.4v-.3l-.7.5-1 .2c-.7 0-1.2-.2-1.6-.5s-.7-.7-.7-1.3c0-.6.2-1 .7-1.4s1-.6 1.7-.6c.6 0 1.1.2 1.6.4s.8.7 1 1.2.4 1 .4 1.7c0 1.1-.3 1.9-.8 2.4s-1.3.7-2.2.7Zm-1-4.5c0 .3.2.5.4.6l.5.1.8-.1.7-.4-.6-.7c-.2-.2-.5-.2-.8-.2-.3 0-.5 0-.7.2l-.2.5Zm9.4 2.1v-1.4h9.1c.2 0 .4-.2.5-.3l.3-.3v-.4c0-.3 0-.7-.2-1l-.8-1 1.2-.7c.5.6.9 1 1 1.5l.3 1.4-.1.7-.5.8a2 2 0 0 1-1 .5 6 6 0 0 1-1.6.2H123Zm3 7.3c-.6 0-1.1 0-1.6-.3s-.8-.6-1.1-1c-.3-.4-.4-.9-.4-1.5 0-.7.2-1.2.7-1.7s1-.7 1.8-.7c.6 0 1 .1 1.4.4.3.3.5.6.5 1.1v.5l-.2.4h-1.2V20c0-.5-.1-.7-.6-.7-.2 0-.5.1-.7.3s-.3.5-.3.9.2.7.5 1c.3.3.8.4 1.4.4.7 0 1.2-.2 1.5-.5s.5-.8.6-1.4h1.4c0 .7.2 1.2.6 1.4.3.3.7.5 1.2.5s.9-.2 1-.5c.3-.4.4-.8.4-1.2l-.3-1.4c-.1-.4-.4-1-.9-1.5l1.4-.7c.5.5.8 1 1 1.6s.4 1.3.4 2-.2 1.3-.4 1.7c-.3.5-.6.9-1 1a3.2 3.2 0 0 1-3 0 2 2 0 0 1-1-1c-.5.6-1 1-1.4 1.1s-1 .3-1.7.3Zm2.9-4.6c-.3 0-.6 0-.7-.3l-.3-.7c0-.3 0-.5.3-.7.2-.2.4-.2.7-.2s.5 0 .7.2.3.5.3.7-.1.5-.3.7-.4.3-.8.3Zm9.5 4.6c-.8 0-1.5-.3-2-.8s-.7-1.5-.7-2.7c0-.8.1-1.6.4-2.2.4-.7.8-1.2 1.4-1.6h-1.8v-1.4h8.6l.5-.2c.2-.1.3-.2.3-.4v-.4c0-.3 0-.6-.2-1l-.7-.9 1.2-.8 1 1.5a3.1 3.1 0 0 1 .1 2.2 1.9 1.9 0 0 1-1 1c-.1.2-.3.2-.6.3.4.2.7.5 1 1 .2.3.3.7.3 1.2v.3c.3.6.5 1.2.5 2 0 .5-.1 1-.4 1.5s-.6.8-1 1a3 3 0 0 1-1.5.4c-.7 0-1.2 0-1.6-.3-.4-.2-.8-.5-1.1-1-.4.5-.8.9-1.2 1l-1.5.3Zm.3-1.4c.5 0 .8-.2 1.1-.5.3-.3.5-.8.6-1.3h1.4c0 .6.3 1 .6 1.3.3.3.7.5 1.2.5l.8-.2c.3-.1.4-.3.6-.5s.2-.6.2-1v-.5l-.7.4-.8.1c-.6 0-1-.1-1.4-.4s-.6-.7-.6-1.2.2-1 .6-1.3.8-.4 1.3-.4h.5l.5.2c-.3-.3-.6-.6-1.1-.8a6 6 0 0 0-2-.3h-.5c-.8 0-1.5.1-2 .5s-1 .7-1.4 1.3a4 4 0 0 0-.4 2c0 .7.1 1.3.4 1.6s.6.5 1 .5Zm4.3-3.4c0 .4.3.7.8.7.1 0 .3 0 .5-.2l.4-.5-.4-.4-.6-.1-.5.1-.2.4Z"/>
    <path class="st5" d="M139.4 16.1v-1.4h3.4l1.5-.1c.3-.1.5-.2.6-.4.2-.1.2-.3.3-.4v-.6c0-.4 0-.7-.3-1-.3-.2-.6-.3-1-.3-.3 0-.5 0-.7.2l-.5.4c.2 0 .4 0 .6.2l.2.5c0 .3-.1.5-.3.6l-.7.2c-.4 0-.6-.1-.8-.4-.2-.2-.3-.5-.3-.8l.3-1c.2-.3.5-.6.9-.8.4-.2.8-.3 1.4-.3.9 0 1.5.3 2 .8s.8 1.1.8 2-.3 1.4-.8 1.9l-1.1.5-1.8.2h-3.8Zm12.7 7.3c-.8 0-1.4-.1-2-.4s-1-.6-1.3-1l-.8-1.5c-.2-.5-.2-1-.2-1.6 0-.8.2-1.6.5-2.2a4 4 0 0 1 3.8-2.2c.8 0 1.4.2 2 .4s1 .7 1.3 1.1.6 1 .7 1.5l.2 1.5a5 5 0 0 1-.3 1.7c.4.5.8.8 1.1 1 .4.2.8.3 1.3.3.6 0 1.1-.2 1.4-.6.4-.3.5-.9.5-1.5 0-.9-.2-1.7-.7-2.3a4.6 4.6 0 0 0-2-1.5h-1v-1.4h2.9l.5-.2.2-.4.1-.4c0-.3 0-.6-.2-1l-.8-.9 1.2-.7c.5.5.8 1 1 1.5l.3 1.3-.1.8-.6.8-.5.3-.7.2c.6.5 1 1 1.4 1.6s.6 1.4.6 2.3l-.1 1 1 .8c.4.2.8.3 1.3.3.6 0 1.1-.2 1.4-.6s.5-.9.5-1.5c0-1-.2-1.8-.8-2.5a5.6 5.6 0 0 0-2-1.5l.7-1.4c.8.3 1.4.7 2 1.3a5.6 5.6 0 0 1 1.7 4c0 .7-.1 1.4-.4 1.9-.2.5-.6 1-1 1.3s-1.2.4-2 .4c-.6 0-1.1-.1-1.6-.3-.5-.3-1-.6-1.3-1a3 3 0 0 1-1 1c-.5.2-1 .3-1.7.3s-1.3-.1-1.8-.4c-.5-.2-1-.6-1.4-1a4.5 4.5 0 0 1-3.3 1.4Zm0-1.4c.8 0 1.4-.3 2-.8s.7-1.3.7-2.2c0-1-.3-1.6-.7-2.2-.5-.6-1.1-.9-2-.9-.8 0-1.4.3-2 .8s-.7 1.2-.7 2.2.3 1.7.7 2.2c.5.6 1.2.8 2 .8Z"/>
    <path class="st5" d="M170 18.5c-.6 0-1.1 0-1.6-.3-.4-.2-.8-.4-1.2-.8l-.8-1 .8-.8c.4.6.9 1 1.3 1.3l1.4.3c.6 0 1 0 1.3-.3s.5-.7.5-1.4v-.3l-.8.5-1 .2c-.6 0-1.1-.2-1.6-.5s-.6-.7-.6-1.3c0-.6.2-1 .6-1.4s1-.6 1.8-.6c.6 0 1 .2 1.6.4s.8.7 1 1.2.4 1 .4 1.7c0 1.1-.3 1.9-.8 2.4a4 4 0 0 1-2.3.7Zm-.9-4.5c0 .3.1.5.3.6l.6.1.8-.1.6-.4-.5-.7c-.2-.2-.5-.2-.8-.2-.3 0-.5 0-.7.2l-.3.5Zm9.5 9.4c-1 0-1.7-.1-2.4-.4s-1.2-.8-1.6-1.4-.5-1.4-.5-2.2c0-.8 0-1.4.4-2s.6-1 1.1-1.3h-1.5v-1.4h6.6l.6-.2.2-.4.1-.4c0-.3 0-.6-.3-1l-.7-.9 1.2-.8 1 1.5a3.1 3.1 0 0 1 .2 2.1l-.5.8-.5.3-.5.3c.5.3 1 .8 1.2 1.3.3.6.4 1.2.4 2s-.2 1.5-.5 2.2c-.4.6-1 1-1.6 1.4a6 6 0 0 1-2.4.5Zm0-1.4c.7 0 1.2-.2 1.6-.4s.8-.7 1-1c.2-.5.3-1 .3-1.6 0-.9-.2-1.6-.8-2.1a3 3 0 0 0-2.1-.8c-1 0-1.7.3-2.2.8s-.8 1.2-.8 2.1c0 1 .3 1.7.8 2.2a3 3 0 0 0 2.2.7Z"/>
    <path class="st5" d="M185.6 18.5c-.6 0-1.1 0-1.6-.3-.5-.2-.8-.4-1.2-.8l-.9-1 .8-.8 1.4 1.3 1.4.3c.6 0 1 0 1.3-.3s.5-.7.5-1.4v-.3l-.8.5-1 .2c-.6 0-1.1-.2-1.6-.5s-.6-.7-.6-1.3c0-.6.2-1 .6-1.4s1-.6 1.7-.6c.6 0 1.2.2 1.6.4s.8.7 1 1.2.5 1 .5 1.7c0 1.1-.3 1.9-.9 2.4-.5.4-1.3.7-2.2.7Zm-1-4.5c0 .3.2.5.4.6l.6.1.8-.1.6-.4c-.1-.3-.3-.5-.6-.7s-.5-.2-.7-.2c-.3 0-.6 0-.7.2l-.3.5Z"/>
  </g>
</svg>
