<svg id="artwork" xmlns="http://www.w3.org/2000/svg" version="1.1" viewBox="0 0 239 70.9">
  <defs>
    <style>
      .st4{fill:#fff}
    </style>
  </defs>
  <rect width="239" height="70.8" rx="8.8" ry="8.8"/>
  <path d="m36.7 34.4-18.9 20a5 5 0 0 0 7.5 3l21.3-12.2-10-10.9Z" style="fill:#ea4335"/>
  <path d="m55.7 31-9.1-5.3-10.4 9.1 10.4 10.4 9.1-5.3c1.6-.8 2.7-2.5 2.7-4.4s-1-3.7-2.7-4.5Z" style="fill:#fbbc04"/>
  <path d="m17.8 16.4-.2 1.3v35.4c0 .5 0 .9.2 1.3l19.5-19.5-19.5-18.5Z" style="fill:#4285f4"/>
  <path d="m36.8 35.4 9.8-9.8-21.2-12.2a5.1 5.1 0 0 0-7.6 3l19 19Z" style="fill:#34a853"/>
  <path class="st4" d="M79.8 22.6v1.6h5.4c0 .6-.2 1.2-.4 1.8s-.5 1-.9 1.3c-.5.5-1 1-1.7 1.2-.6.3-1.5.5-2.5.5s-2-.2-2.8-.7c-1-.5-1.6-1.2-2.2-2.1s-.8-2-.8-3.1.3-2.3.8-3.2 1.3-1.6 2.2-2c.9-.6 1.8-.8 2.9-.8.8 0 1.6.2 2.3.5s1.3.7 1.8 1.3l1.2-1.3c-.6-.7-1.4-1.2-2.3-1.6s-2-.5-3-.5a7.4 7.4 0 0 0-7.5 7.6 7.2 7.2 0 0 0 3.8 6.6 7 7 0 0 0 3.6 1 7 7 0 0 0 5.4-2.2c.6-.7 1-1.4 1.3-2.3a8 8 0 0 0 .3-3.6h-7Zm16.7-2.2a5.3 5.3 0 0 0-5.5 0c-.8.5-1.5 1.1-2 2s-.6 1.7-.6 2.8A5.6 5.6 0 0 0 91 30c.8.5 1.7.7 2.7.7s2-.3 2.8-.7a6 6 0 0 0 1.9-2 6.7 6.7 0 0 0 0-5.6 4.8 4.8 0 0 0-2-2Zm.3 6.8c-.3.6-.8 1-1.3 1.4-.6.3-1.2.5-1.8.5s-1.3-.2-1.8-.5-1-.8-1.3-1.4c-.4-.6-.5-1.3-.5-2s.1-1.6.5-2.2c.3-.6.7-1 1.3-1.3.5-.4 1.1-.5 1.8-.5s1.2.1 1.8.5c.5.3 1 .7 1.3 1.3s.5 1.3.5 2.1-.1 1.5-.5 2.1Zm11.8-6.8a5.1 5.1 0 0 0-5.5 0c-.8.5-1.4 1.1-2 2s-.6 1.7-.6 2.8a5.6 5.6 0 0 0 2.6 4.8c.8.5 1.7.7 2.7.7s2-.3 2.8-.7a6 6 0 0 0 1.9-2c.4-.9.7-1.8.7-2.8s-.3-2-.7-2.8-1.1-1.5-2-2Zm.3 6.8a3.5 3.5 0 0 1-3.1 1.9c-.7 0-1.2-.2-1.8-.5s-1-.8-1.3-1.4c-.4-.6-.5-1.3-.5-2s.1-1.6.5-2.2c.3-.6.8-1 1.3-1.3.6-.4 1.2-.5 1.8-.5s1.3.1 1.8.5c.6.3 1 .7 1.3 1.3s.5 1.3.5 2.1-.1 1.5-.5 2.1Zm12.2-5.8c-.4-.5-.9-1-1.5-1.3s-1.3-.5-2.1-.5a4.5 4.5 0 0 0-4.2 2.7 6.3 6.3 0 0 0 0 5.7c.4.8 1 1.5 1.7 2 .8.4 1.6.7 2.5.7.8 0 1.5-.2 2.1-.5.6-.4 1.1-.8 1.4-1.3h.1V30c0 1.2-.3 2-.9 2.6s-1.4.9-2.5.9c-.7 0-1.3-.2-1.9-.6s-.9-.8-1.1-1.4l-1.6.7c.3.8.8 1.4 1.6 2a5 5 0 0 0 3 .8c1.5 0 2.7-.4 3.7-1.3s1.3-2.1 1.3-3.8V20h-1.6v1.5Zm-.4 5.8a3.5 3.5 0 0 1-3 1.9 3.2 3.2 0 0 1-3-1.8c-.2-.6-.4-1.4-.4-2.2s.2-1.5.5-2 .7-1.1 1.2-1.4c.5-.4 1.1-.5 1.8-.5s1.1.1 1.7.4.9.8 1.2 1.4c.3.6.4 1.3.4 2.1s-.1 1.5-.4 2.1Zm4.8-11.4h1.7v14.6h-1.7zm11.5 4.5a5 5 0 0 0-2.7-.7 4.7 4.7 0 0 0-4.4 2.8 6.7 6.7 0 0 0 0 5.6 5 5 0 0 0 4.5 2.7 5.1 5.1 0 0 0 4.6-2.8l-1.5-.7c-.7 1.3-1.7 1.9-3 1.9-.6 0-1.2-.2-1.7-.4s-1-.7-1.3-1.2a4 4 0 0 1-.5-2h8.2v-.6a5.2 5.2 0 0 0-2.3-4.6Zm-6 3.7c.2-.8.6-1.5 1.1-2s1.3-.8 2.1-.8c.7 0 1.3.1 1.8.4.4.3.8.7 1 1.1l.4 1.3H131Zm22.5-7.7c-.7-.4-1.4-.6-2.2-.6h-5v14.6h1.8v-6h3.2c.8 0 1.5-.1 2.2-.5s1.3-.9 1.7-1.5c.4-.7.6-1.4.6-2.2a4.2 4.2 0 0 0-2.3-3.8Zm.2 5c-.2.5-.6.8-1 1s-.9.4-1.4.4h-3.2v-5.3h3.2c.5 0 1 .1 1.4.4s.8.6 1 1l.3 1.2c0 .4 0 1-.3 1.3Zm3.9-5.5h1.7v14.6h-1.7zm8.2 3.8c-.8 0-1.6.2-2.3.5s-1.3.9-1.7 1.5l1.3 1c.3-.5.7-.8 1.2-1a3 3 0 0 1 1.6-.4c.8 0 1.5.2 2 .7s.8 1 .8 1.8v.7c-.2-.2-.6-.4-1.2-.5l-1.7-.2a5 5 0 0 0-3.2 1 3 3 0 0 0-1.2 2.5c0 .7.2 1.3.5 1.8s.8 1 1.4 1.2 1.2.5 2 .5 1.4-.2 2-.6a4 4 0 0 0 1.4-1.2v1.5h1.7v-6.6c0-1.3-.4-2.3-1.2-3s-1.9-1.2-3.3-1.2Zm2.5 7.9c-.3.5-.7.9-1.2 1.2a3 3 0 0 1-1.6.4c-.7 0-1.3-.2-1.7-.5-.4-.4-.7-.8-.7-1.4 0-.6.3-1.1.8-1.5.5-.4 1.2-.6 2.1-.6.5 0 1 0 1.5.2.5.1 1 .3 1.2.5 0 .6-.1 1.2-.4 1.7Zm11.2-7.6-3.1 7.8-3.3-7.8h-1.9l4.3 9.8-2.3 5h1.8l6.4-14.8h-1.9zM78 51.6a39.8 39.8 0 0 1-4.4.2h-.3V44h5.6v-.5h-6.3v8.8H76l2-.2c.7 0 1.4-.2 2-.3v-.6l-2 .3Zm4.3-9.4h-.7v13.7h.7v-7.4h2.4v-.6h-2.4v-5.7zm6.2 9.4h-.6v3.9h9.3v-.6h-8.7v-3.3z"/>
  <path class="st4" d="M86.2 50h6v3.1h.6V50h5.8v-.6H86.2v.6zm3.7-2.4a8.4 8.4 0 0 0 5 0c.7-.2 1.2-.5 1.6-.9.4-.4.6-.9.6-1.4s-.2-1-.6-1.5-1-.7-1.6-.9-1.6-.3-2.5-.3-1.8.1-2.5.3-1.2.5-1.6 1c-.4.3-.6.8-.6 1.4s.2 1 .6 1.4.9.7 1.6 1Zm-1-3.4c.3-.3.8-.6 1.4-.7s1.3-.3 2-.3 1.6 0 2.2.3l1.4.7c.3.3.5.7.5 1.1s-.2.8-.5 1.1-.8.6-1.4.7l-2.1.3c-.8 0-1.5-.1-2.1-.3l-1.4-.7c-.4-.3-.5-.7-.5-1.1s.1-.8.5-1.1Zm17.5 6.3h4.6v-.6h-8.8v-2.8h8.4v-3.8h-9.1v.6h8.5v2.7h-8.5v3.9h4.2v2.9h-5.8v.6h12.4v-.6h-5.9v-2.9zm18.8-1.6h-8.5v-4.7h8.3v-.6h-9v5.9h9.2v-.6zm-10.9 4.4h12.4v.6h-12.4zM193.7 21h-3c0-1-.2-2-.4-2.8-.4-.9-.8-1.6-1.4-2-.5-.6-1.2-.8-2-.8s-1.4.2-2 .7c-.5.5-1 1.2-1.3 2.1s-.4 2-.4 3.2.1 2.3.4 3.2a5 5 0 0 0 1.4 2.1c.5.5 1.2.8 2 .8s1.4-.3 2-.8 1-1.2 1.3-2c.2-.9.4-1.9.4-3h3v9h.9V14.1h-.9v7-.1Zm-4.2 3.1c-.2.8-.5 1.5-1 2s-1 .6-1.6.6-1-.2-1.5-.7-.8-1-1-1.9c-.3-.8-.4-1.7-.4-2.7s0-2 .3-2.7.6-1.4 1-1.9 1-.7 1.6-.7 1.1.3 1.6.7.8 1 1 1.9.4 1.7.4 2.7-.1 2-.4 2.7Zm7.7-10.4h.9v18.1h-.9zm11.4 9.9a9 9 0 0 1-1.2-2.1c-.3-.8-.5-1.6-.5-2.4v-3.7h-.9V19c0 .8-.1 1.6-.4 2.4a12.3 12.3 0 0 1-2.7 4.3c-.6.5-1.1 1-1.7 1.3l.6.7a9 9 0 0 0 1.7-1.5 12.2 12.2 0 0 0 2.8-4.5l.2-.7c0 .2 0 .4.2.6a10.5 10.5 0 0 0 2.8 4.4c.6.6 1.2 1 1.9 1.4l.5-.8a10.4 10.4 0 0 1-3.3-3Zm6.2-9.9v6.5H210v.7h4.8v10.8h.8v-18h-.8z"/>
</svg>
