<svg width="180" height="54" fill="none" xmlns="http://www.w3.org/2000/svg">
  <path d="M173.3 54H6.7A6.7 6.7 0 0 1 0 47.2V6.8C0 3 3 0 6.7 0h166.6a6.7 6.7 0 0 1 6.7 6.8v40.5c0 3.7-3 6.7-6.7 6.7Z" fill="#000"/>
  <path d="M27.6 26.2 13.4 41.5a3.8 3.8 0 0 0 5.7 2.3l16-9.3-7.5-8.3Z" fill="#EA4335"/>
  <path d="m42 23.6-7-4-7.7 7 7.8 7.9 6.9-4a3.9 3.9 0 0 0 2-3.5 4 4 0 0 0-2-3.4Z" fill="#FBBC04"/>
  <path d="M13.4 12.5a3.7 3.7 0 0 0-.1 1v27l.1 1 14.7-14.9-14.7-14Z" fill="#4285F4"/>
  <path d="m27.7 27 7.4-7.4-16-9.4a3.9 3.9 0 0 0-5.7 2.3L27.7 27Z" fill="#34A853"/>
  <path d="M142.6 40h2.5V23.3h-2.5V40ZM165 29.3l-2.9 7.3-3-7.3h-2.7l4.5 10.1-2.6 5.7h2.6l6.9-15.8H165Zm-14.1 8.8c-.8 0-2-.4-2-1.4 0-1.3 1.4-1.8 2.7-1.8 1 0 1.6.2 2.2.6a3 3 0 0 1-3 2.6Zm.3-9.1c-1.8 0-3.7.8-4.4 2.5l2.2 1c.4-1 1.3-1.3 2.2-1.3 1.3 0 2.6.8 2.7 2.2v.1a5.5 5.5 0 0 0-2.6-.6c-2.4 0-4.8 1.3-4.8 3.8 0 2.2 1.9 3.6 4 3.6a3.5 3.5 0 0 0 3.3-1.6V40h2.5v-6.4c0-3-2.2-4.6-5.1-4.6Zm-15.4 2.4h-3.5v-5.8h3.5a2.9 2.9 0 0 1 3 3 2.9 2.9 0 0 1-3 2.8Zm0-8h-6V40h2.5v-6.3h3.5c2.7 0 5.4-2 5.4-5.2s-2.7-5.2-5.4-5.2ZM103.3 38c-1.8 0-3.2-1.4-3.2-3.4s1.4-3.5 3.1-3.5c1.7 0 3 1.5 3 3.5s-1.3 3.4-3 3.4Zm2.8-7.8h-.1a4 4 0 0 0-3-1.3 5.6 5.6 0 0 0-5.4 5.7c0 3.2 2.6 5.6 5.4 5.6a4 4 0 0 0 3-1.2v.8c0 2.1-1 3.3-3 3.3a3.1 3.1 0 0 1-2.8-2L98 42a5.4 5.4 0 0 0 5 3.3c3 0 5.5-1.7 5.5-5.9v-10H106v.9Zm4 9.7h2.6V23.3h-2.5V40Zm6.3-5.5a3.1 3.1 0 0 1 3-3.3c.9 0 1.7.5 2 1.2l-5 2.1Zm7.7-1.9c-.5-1.3-2-3.6-4.9-3.6-2.9 0-5.3 2.3-5.3 5.7 0 3.1 2.4 5.6 5.6 5.6 2.6 0 4.1-1.5 4.7-2.5l-1.9-1.3a3.2 3.2 0 0 1-2.8 1.6 2.9 2.9 0 0 1-2.7-1.7l7.5-3.1-.2-.7Zm-60.4-1.9V33h5.7a5 5 0 0 1-1.3 3 5.9 5.9 0 0 1-4.4 1.8 6.3 6.3 0 0 1-6.3-6.4A6.3 6.3 0 0 1 68 27l1.7-1.7a8.4 8.4 0 0 0-6-2.5 9 9 0 0 0-9 8.8 9 9 0 0 0 9 8.8 8 8 0 0 0 6.1-2.4c1.6-1.6 2-3.8 2-5.6a7.8 7.8 0 0 0 0-1.5h-8.1ZM78.4 38c-1.7 0-3.2-1.4-3.2-3.4s1.5-3.5 3.2-3.5c1.8 0 3.2 1.4 3.2 3.5 0 2-1.4 3.4-3.2 3.4Zm0-9a5.6 5.6 0 0 0-5.7 5.6 5.6 5.6 0 0 0 5.7 5.6 5.6 5.6 0 0 0 5.7-5.6 5.6 5.6 0 0 0-5.7-5.7ZM91 38c-1.8 0-3.2-1.4-3.2-3.4s1.4-3.5 3.2-3.5c1.7 0 3.2 1.4 3.2 3.5 0 2-1.5 3.4-3.2 3.4Zm0-9a5.6 5.6 0 0 0-5.7 5.6 5.6 5.6 0 0 0 5.7 5.6 5.6 5.6 0 0 0 5.7-5.6 5.6 5.6 0 0 0-5.7-5.7ZM65.6 12.7h-2V19h-1V7h1v5h2v.9Zm-9.5 2.4c2 0 3.6 0 5.3-.4l.2 1a28 28 0 0 1-5.7.3h-1V8.3h5.6v.9h-4.4v6Z" fill="#fff"/>
  <path d="M65.6 12.8v-.2h-2V19h-.9V7.3h.8V12h2v.8h.3v-1h-2V7h-1.4v12.3h1.4v-6.4h2v-.1h-.2Zm-9.5 2.4v.1c2 0 3.6 0 5.4-.4h-.2l.1.8h.2v-.1a28.2 28.2 0 0 1-5.7.4h-.8V8.4h5.3v.7h-4.5v6.2h.3v-6h4.5V8.2h-5.9v8H56c2.3 0 3.8 0 5.7-.4h.1l-.1-1v-.1h-.2c-1.7.3-3.2.4-5.3.4v.1Zm13.2-5.4c0 1 1.2 1.5 3 1.5 2 0 3.1-.5 3.1-1.5 0-.9-1.2-1.5-3-1.5-1.9 0-3 .6-3 1.5Zm.1 8.1h7.2v1h-8.3v-3.6h1.1V18Zm-1.2-8c0-1.5 1.6-2.5 4.2-2.5 2.5 0 4.2 1 4.2 2.4s-1.7 2.4-4.2 2.4c-2.6 0-4.2-.9-4.2-2.3Zm9.6 3.3v.9H73v2.4h-1v-2.4h-5v-.9h10.8Z" fill="#fff"/>
  <path d="M69.3 9.8h-.1c0 .6.4 1 1 1.3.5.2 1.2.4 2.2.4 1 0 1.7-.2 2.2-.4.6-.3 1-.7 1-1.2 0-.6-.4-1-1-1.3a5.3 5.3 0 0 0-2.2-.4 5 5 0 0 0-2.3.4c-.5.3-.9.7-.9 1.2h.3c0-.4.2-.7.7-1 .5-.2 1.3-.3 2.2-.3.9 0 1.6.1 2.1.4.5.2.8.5.8 1 0 .3-.3.7-.8 1s-1.2.3-2.1.3a5 5 0 0 1-2.2-.4 1 1 0 0 1-.7-1h-.2Zm.1 8.1v.2h7v.6h-8v-3.2h1V18v-.2h.2v-2.7h-1.4V19h8.5v-1.2h-7.3v.1Zm-1.2-8h.1c0-.7.4-1.3 1.1-1.7.7-.4 1.7-.6 3-.6 1.2 0 2.3.2 3 .6.7.4 1 1 1 1.6 0 .7-.3 1.3-1 1.7a6 6 0 0 1-3 .6 6.1 6.1 0 0 1-3-.6c-.7-.4-1-1-1-1.6H68a2 2 0 0 0 1.2 1.8c.7.4 1.8.7 3 .7 1.4 0 2.4-.3 3.2-.7.7-.4 1.2-1 1.2-1.9 0-.8-.5-1.4-1.2-1.8a6.4 6.4 0 0 0-3.1-.7c-1.3 0-2.4.2-3.1.7-.8.4-1.2 1-1.2 1.8h.1Zm9.6 3.3h-.1v.8h-4.8v2.4h-.8V14h-5v-.7h10.7v-.2h-11v1.1h5v2.4h1.4v-2.4h4.7v-1.1h-.1v.1Zm11.8 3.5v1H78.8v-1h4.8v-2.2h-3.5v-3.7h7.1V8.9h-7.1V8h8.2v3.7h-7.1v1.9h7.4v.9h-3.9v2.2h5Z" fill="#fff"/>
  <path d="M89.6 16.7h-.1v.8H78.9v-.6h4.9v-2.6h-3.5V11h7V8.8h-7v-.6h7.9v3.3H81v2.2h7.3v.6h-3.8V17h5v-.3H85v-2h3.8v-1.1h-7.4v-1.7h7.1v-4H80v1.2h7v1.6h-7v4h3.5v1.9h-4.9v1.2h11.2v-1.2h-.2v.1Zm11.2-3h-8.2V8.3h8.1v1h-7V13h7.1v.9Zm1.3 2.9v.9H91.2v-1h10.9Z" fill="#fff"/>
  <path d="M100.8 13.8v-.2h-8V8.4h7.8V9h-7v4h7.1v.8h.3v-1h-7.2V9.2h7V8h-8.3v5.8h8.5v-.1h-.2Zm1.3 2.8h-.1v.7H91.4v-.6H102v-.2H91v1.1h11.1v-1.2h-.1v.2Zm12.2-3.6h-2v6h-1.1V7h1v5h2v.9Zm-5.8.7a1.8 1.8 0 0 0-2-1.9 1.8 1.8 0 0 0-1.8 1.9 1.8 1.8 0 0 0 1.9 1.8 1.8 1.8 0 0 0 1.9-1.8Zm1 0c0 1.6-1.2 2.7-3 2.7-1.6 0-2.8-1-2.8-2.7s1.2-2.8 2.9-2.8 2.9 1.2 2.9 2.8ZM107.1 9h3v.8h-7V9h3V7.3h1v1.8Z" fill="#fff"/>
  <path d="M114.3 13v-.1h-2.1v6h-.9V7.4h.9v4.9h2v.8h.2v-1h-2V7h-1.3v12.2h1.3v-6h2V13h-.1Zm-5.8.7h.1c0-.6-.2-1-.6-1.4a2 2 0 0 0-1.4-.6 2 2 0 0 0-1.4.6 2 2 0 0 0-.6 1.4c0 .6.2 1 .6 1.4a2 2 0 0 0 1.4.6 2 2 0 0 0 1.4-.6c.4-.3.6-.8.6-1.4h-.3c0 1-.7 1.7-1.7 1.7s-1.7-.7-1.7-1.7.7-1.7 1.7-1.7 1.7.7 1.7 1.7h.2Zm1 0h-.1c0 1.5-1.2 2.6-2.8 2.6-1.6 0-2.8-1-2.8-2.6 0-1.5 1.2-2.6 2.8-2.6 1.6 0 2.8 1 2.8 2.6h.2c0-.8-.3-1.6-.8-2a3.1 3.1 0 0 0-2.2-.9c-.9 0-1.6.3-2.2.8a2.8 2.8 0 0 0-.8 2c0 1 .3 1.7.8 2.2.6.5 1.3.8 2.2.8.9 0 1.6-.3 2.2-.8a3 3 0 0 0 .8-2.1h-.1ZM107.1 9v.1h2.8v.6h-6.7v-.6h3V7.4h.8v1.8h.1v-.1h.2V7h-1.4v2h-3v1.2h7.3V8.9h-3v.2Zm17.4-2v12h-1.1V7h1ZM121 8.4c0 3.5-1.6 6.5-5.6 8.5l-.6-1c3.3-1.5 4.8-3.8 5-6.6h-4.4v-.9h5.6Z" fill="#fff"/>
  <path d="M124.5 7.1h-.1V19h-.9V7.3h1V7h-1.2v12.2h1.3V7h-.1v.1ZM121 8.4h-.2c0 3.4-1.5 6.4-5.4 8.3v.2l.1-.1-.6-.9v.2c3.2-1.5 4.9-3.9 5.1-6.8v-.1h-4.5v-.6h5.5v-.3h-5.7v1.1h4.6-.2c-.2 2.7-1.7 5-5 6.5l.7 1.1c4-2 5.7-5 5.7-8.6v-.1h-.1v.1Z" fill="#fff"/>
</svg>
