<svg width="180" height="54" fill="none" xmlns="http://www.w3.org/2000/svg">
  <path d="M173.33 54H6.67A6.73 6.73 0 0 1 0 47.25V6.75C0 3.04 3 0 6.67 0h166.66A6.73 6.73 0 0 1 180 6.75v40.5c0 3.71-3 6.75-6.67 6.75Z" fill="#000"/>
  <path d="m27.63 26.22-14.2 15.26a3.84 3.84 0 0 0 5.65 2.35l.05-.03 15.97-9.33-7.48-8.25Z" fill="#EA4335"/>
  <path d="m41.98 23.63-.01-.02-6.9-4.05-7.77 7 7.8 7.9 6.86-4a3.89 3.89 0 0 0 2.02-3.43c0-1.47-.8-2.75-2-3.4Z" fill="#FBBC04"/>
  <path d="M13.43 12.52a3.7 3.7 0 0 0-.13 1v26.96c0 .35.04.68.13 1L28.1 26.62l-14.68-14.1Z" fill="#4285F4"/>
  <path d="m27.73 27 7.34-7.44-15.96-9.37a3.85 3.85 0 0 0-5.69 2.33L27.73 27Z" fill="#34A853"/>
  <path d="M142.58 40h2.49V23.33h-2.49V40ZM165 29.34l-2.85 7.22h-.09l-2.96-7.22h-2.68l4.44 10.1-2.53 5.61h2.6l6.84-15.71H165Zm-14.1 8.77c-.82 0-1.96-.41-1.96-1.42 0-1.29 1.41-1.78 2.64-1.78 1.1 0 1.6.24 2.27.56a3.02 3.02 0 0 1-2.96 2.64Zm.3-9.14c-1.81 0-3.68.8-4.45 2.55l2.21.93c.47-.93 1.35-1.23 2.27-1.23 1.3 0 2.6.78 2.62 2.15v.17a5.5 5.5 0 0 0-2.6-.64c-2.38 0-4.8 1.3-4.8 3.75 0 2.23 1.95 3.67 4.14 3.67a3.5 3.5 0 0 0 3.17-1.63h.09v1.28h2.4v-6.39c0-2.96-2.2-4.6-5.06-4.6Zm-15.38 2.4h-3.54v-5.72h3.53a2.89 2.89 0 0 1 2.92 2.86 2.9 2.9 0 0 1-2.91 2.86Zm-.07-8.04h-5.96V40h2.49v-6.32h3.47c2.76 0 5.47-2 5.47-5.17 0-3.18-2.71-5.18-5.47-5.18Zm-32.5 14.78c-1.72 0-3.16-1.44-3.16-3.42 0-2 1.44-3.45 3.15-3.45 1.7 0 3.03 1.46 3.03 3.45 0 1.98-1.33 3.42-3.03 3.42Zm2.85-7.84h-.1a3.93 3.93 0 0 0-2.98-1.27 5.64 5.64 0 0 0-5.44 5.7c0 3.17 2.6 5.64 5.44 5.64 1.35 0 2.43-.6 2.98-1.28h.09v.81c0 2.17-1.16 3.33-3.03 3.33a3.14 3.14 0 0 1-2.86-2.02l-2.16.9a5.4 5.4 0 0 0 5.02 3.35c2.92 0 5.4-1.71 5.4-5.9V29.35h-2.37v.92Zm4.08 9.73h2.5V23.33h-2.5V40Zm6.17-5.5a3.1 3.1 0 0 1 2.96-3.3c.99 0 1.83.49 2.1 1.2l-5.06 2.1Zm7.73-1.89c-.47-1.27-1.91-3.6-4.85-3.6-2.93 0-5.35 2.29-5.35 5.66 0 3.18 2.4 5.67 5.62 5.67 2.6 0 4.1-1.59 4.73-2.5l-1.93-1.3a3.24 3.24 0 0 1-2.8 1.57 2.89 2.89 0 0 1-2.75-1.72l7.59-3.13-.26-.65Zm-60.41-1.87v2.4h5.76a5.02 5.02 0 0 1-1.32 3.04 5.9 5.9 0 0 1-4.44 1.76 6.32 6.32 0 0 1-6.32-6.4A6.32 6.32 0 0 1 68 26.85l1.7-1.7a8.4 8.4 0 0 0-6.04-2.42 8.93 8.93 0 0 0-8.94 8.8 8.93 8.93 0 0 0 8.94 8.81c2.62 0 4.6-.86 6.14-2.47 1.6-1.59 2.09-3.82 2.09-5.62a7.8 7.8 0 0 0-.13-1.5h-8.1Zm14.77 7.37c-1.72 0-3.2-1.42-3.2-3.44 0-2.04 1.48-3.43 3.2-3.43 1.72 0 3.2 1.4 3.2 3.43 0 2.02-1.48 3.44-3.2 3.44Zm0-9.1a5.59 5.59 0 0 0-5.7 5.66 5.6 5.6 0 0 0 5.7 5.67 5.6 5.6 0 0 0 5.7-5.67 5.59 5.59 0 0 0-5.7-5.67Zm12.42 9.1c-1.72 0-3.2-1.42-3.2-3.44 0-2.04 1.48-3.43 3.2-3.43 1.72 0 3.2 1.4 3.2 3.43 0 2.02-1.48 3.44-3.2 3.44Zm0-9.1a5.59 5.59 0 0 0-5.7 5.66 5.6 5.6 0 0 0 5.7 5.67 5.6 5.6 0 0 0 5.69-5.67 5.59 5.59 0 0 0-5.7-5.67ZM65.63 12.77h-1.97v6.35h-1.1V7.14h1.1v4.72h1.97v.9Zm-9.57 2.44c2.12 0 3.65-.1 5.38-.4l.12.9c-1.82.35-3.4.43-5.65.43h-.94V8.29h5.56v.9h-4.47v6.02Z" fill="#fff"/>
  <path d="M65.63 12.77v-.14h-2.1V19h-.83V7.28h.82v4.71h1.98v.78h.26v-1.04H63.8V7h-1.36v12.25h1.36V12.9h1.97v-.13h-.13Zm-9.57 2.44v.13c2.12 0 3.67-.1 5.4-.4l-.02-.13-.13.01.12.91.13-.02-.02-.13a28.2 28.2 0 0 1-5.63.43h-.8V8.42h5.28v.64h-4.46v6.28h.13v-.13h.14V9.33h4.46V8.16h-5.82v8.11h1.07c2.26 0 3.84-.08 5.68-.43l.12-.02-.13-1.03-.02-.14-.14.03c-1.72.3-3.24.4-5.36.4v.13Zm13.28-5.36c0 .93 1.2 1.5 3.03 1.5 1.84 0 3.04-.57 3.04-1.5 0-.95-1.2-1.52-3.04-1.52-1.82 0-3.03.57-3.03 1.52Zm.1 8.07h7.17v.91h-8.26v-3.49h1.1v2.58ZM68.2 9.85c0-1.48 1.65-2.4 4.18-2.4 2.54 0 4.19.92 4.19 2.4s-1.65 2.4-4.19 2.4c-2.53 0-4.18-.92-4.18-2.4Zm9.6 3.36v.89h-4.76v2.41h-1.1V14.1h-4.97v-.9H77.8Z" fill="#fff"/>
  <path d="M69.34 9.85h-.14c0 .53.36.95.91 1.22.56.27 1.34.42 2.26.42.94 0 1.72-.15 2.27-.42.56-.27.9-.7.9-1.22 0-.54-.34-.96-.9-1.23a5.26 5.26 0 0 0-2.27-.42c-.92 0-1.7.14-2.26.42-.55.27-.9.7-.9 1.23h.26c0-.41.25-.74.76-1 .5-.24 1.25-.39 2.14-.39.91 0 1.65.15 2.16.4.5.25.75.58.75.99 0 .4-.25.73-.75.98s-1.25.4-2.16.4c-.9 0-1.64-.15-2.14-.4-.5-.25-.76-.58-.76-.98h-.13Zm.1 8.07v.14h7.04v.64h-8v-3.23h.83v2.59h.13v-.14h.14v-2.71h-1.36v3.75h8.53V17.8h-7.3v.13ZM68.2 9.85h.13c0-.69.38-1.24 1.08-1.64.7-.4 1.73-.63 2.97-.63 1.25 0 2.28.23 2.98.63.7.4 1.07.95 1.08 1.64 0 .69-.38 1.24-1.08 1.64-.7.4-1.73.63-2.98.62a6.14 6.14 0 0 1-2.97-.62c-.7-.4-1.07-.95-1.08-1.64h-.26c0 .8.45 1.44 1.2 1.87.77.43 1.83.66 3.11.66 1.29 0 2.35-.23 3.11-.66.76-.43 1.21-1.08 1.21-1.87 0-.8-.45-1.44-1.2-1.87a6.39 6.39 0 0 0-3.12-.66c-1.28 0-2.34.23-3.1.66-.76.43-1.21 1.08-1.21 1.87h.13Zm9.6 3.36h-.12v.76H72.9v2.4h-.84v-2.4H67.1v-.63h10.7v-.27H66.83v1.16h4.96v2.42h1.37v-2.42h4.77v-1.16h-.13v.14Zm11.83 3.51v.9H78.77v-.9h4.86v-2.25h-3.5v-3.69h7.08V8.92H80.1v-.9h8.18v3.64H81.2v1.93h7.36v.88h-3.82v2.25h4.89Z" fill="#fff"/>
  <path d="M89.63 16.72h-.14v.77H78.9v-.63h4.87v-2.52h-3.5v-3.42h7.09V8.78h-7.12v-.62h7.92v3.37h-7.08v2.2h7.36v.61H84.6v2.52h5.03v-.27h-4.76v-1.98h3.82v-1.15h-7.35v-1.67h7.07V7.9h-8.44v1.16h7.11v1.6H80v3.96h3.5v1.98h-4.86v1.16h11.13V16.6h-.13v.13Zm11.21-2.95h-8.21V8.24h8.09v.9H93.7v3.73h7.13v.9Zm1.25 2.8v.91H91.24v-.9h10.85Z" fill="#fff"/>
  <path d="M100.84 13.77v-.14h-8.08V8.37h7.83v.64h-7.01v4h7.13v.76h.26v-1.03h-7.13V9.28h7.01V8.1H92.5v5.8h8.47v-.13h-.13Zm1.25 2.8h-.13v.78H91.38v-.64h10.71v-.26H91.11v1.17h11.11v-1.17h-.13v.13Zm12.16-3.59h-1.96v6.12h-1.1V7.16h1.1v4.9h1.96v.92Zm-5.78.7a1.8 1.8 0 0 0-1.88-1.85 1.8 1.8 0 0 0-1.87 1.86 1.8 1.8 0 0 0 1.87 1.84 1.8 1.8 0 0 0 1.88-1.84Zm1.03 0c0 1.63-1.2 2.75-2.91 2.75-1.68 0-2.9-1.12-2.9-2.74s1.22-2.76 2.9-2.76c1.7 0 2.91 1.14 2.91 2.76Zm-2.38-4.62h2.94v.88h-7.04v-.88h3V7.3h1.1v1.77Z" fill="#fff"/>
  <path d="M114.25 12.98v-.13h-2.1v6.11h-.82V7.3h.83v4.9h1.96v.8h.26v-1.06h-1.96v-4.9h-1.36v12.2h1.36v-6.12h1.96v-.13h-.13Zm-5.78.7h.13c0-.56-.21-1.06-.57-1.42a2.02 2.02 0 0 0-1.44-.56 2 2 0 0 0-1.43.56 2 2 0 0 0-.57 1.43c0 .56.2 1.06.57 1.41a2 2 0 0 0 1.43.56 2 2 0 0 0 1.44-.56c.36-.35.57-.85.57-1.41h-.27c0 1-.72 1.7-1.74 1.7s-1.73-.7-1.73-1.7c0-1.01.71-1.72 1.73-1.72s1.74.7 1.74 1.72h.14Zm1.03 0h-.13c0 1.56-1.14 2.61-2.78 2.62-1.62 0-2.76-1.06-2.76-2.61 0-1.54 1.14-2.62 2.76-2.63 1.64 0 2.78 1.09 2.78 2.63h.27c0-.84-.32-1.57-.86-2.08a3.14 3.14 0 0 0-2.2-.81c-.86 0-1.62.3-2.16.8a2.82 2.82 0 0 0-.86 2.09c0 .84.32 1.57.86 2.08.54.5 1.3.8 2.17.8.88 0 1.64-.3 2.19-.8.54-.51.86-1.24.86-2.08h-.14Zm-2.38-4.62v.14h2.81v.6h-6.78v-.6h3V7.42h.84V9.2h.13v-.14h.13v-1.9h-1.36v1.77h-3v1.15h7.3V8.93h-3.07v.13Zm17.36-1.92V19.1h-1.09V7.14h1.1Zm-3.5 1.3c0 3.45-1.59 6.49-5.56 8.43l-.58-.9c3.21-1.52 4.8-3.82 5.03-6.65h-4.49v-.88h5.6Z" fill="#fff"/>
  <path d="M124.48 7.14h-.13v11.82h-.82V7.28h.95V7h-1.22v12.22h1.36V7.01h-.14v.13Zm-3.5 1.3h-.14c0 3.4-1.55 6.38-5.47 8.31l.05.12.12-.07-.6-.9-.1.08.05.12c3.25-1.54 4.9-3.89 5.12-6.77l.01-.15h-4.5v-.61h5.46V8.3h-5.73v1.15h4.63v-.13l-.14-.01c-.22 2.79-1.78 5.03-4.96 6.55l-.14.06.74 1.12.1-.05c4.01-1.96 5.64-5.06 5.63-8.55V8.3h-.13v.14Z" fill="#fff"/>
</svg>
