<svg width="270" height="80" fill="none" xmlns="http://www.w3.org/2000/svg">
  <g clip-path="url(#a)">
    <mask id="b" style="mask-type:luminance" maskUnits="userSpaceOnUse" x="0" y="0" width="270" height="81">
      <path d="M0 0h270v80H0V0Z" fill="#fff"/>
    </mask>
    <g mask="url(#b)">
      <path d="M260 80H10A10 10 0 0 1 0 70V10A10 10 0 0 1 10 0h250a10 10 0 0 1 10 10v60a10 10 0 0 1-10 10Z" fill="#000"/>
    </g>
    <mask id="c" style="mask-type:luminance" maskUnits="userSpaceOnUse" x="0" y="0" width="270" height="81">
      <path d="M0 0h270v80H0V0Z" fill="#fff"/>
    </mask>
    <g mask="url(#c)">
      <path d="M41.4 38.8 20.1 61.4a5.7 5.7 0 0 0 8.5 3.5l24-13.8-11.2-12.3Z" fill="#EA4335"/>
    </g>
    <mask id="d" style="mask-type:luminance" maskUnits="userSpaceOnUse" x="0" y="0" width="270" height="81">
      <path d="M0 0h270v80H0V0Z" fill="#fff"/>
    </mask>
    <g mask="url(#d)">
      <path d="m63 35-10.4-6L41 39.4 52.7 51l10.2-6a5.8 5.8 0 0 0 .1-10Z" fill="#FBBC04"/>
    </g>
    <mask id="e" style="mask-type:luminance" maskUnits="userSpaceOnUse" x="0" y="0" width="270" height="81">
      <path d="M0 0h270v80H0V0Z" fill="#fff"/>
    </mask>
    <g mask="url(#e)">
      <path d="M20.1 18.6 20 20v40l.2 1.4 22-22-22-20.8Z" fill="#4285F4"/>
    </g>
    <mask id="f" style="mask-type:luminance" maskUnits="userSpaceOnUse" x="0" y="0" width="270" height="81">
      <path d="M0 0h270v80H0V0Z" fill="#fff"/>
    </mask>
    <g mask="url(#f)">
      <path d="m41.6 40 11-11-24-13.9a5.8 5.8 0 0 0-8.5 3.4L41.6 40Z" fill="#34A853"/>
    </g>
    <path d="M90.2 34.6a8.7 8.7 0 0 1-7.5-4.2 8.5 8.5 0 0 1-1.1-4.4 8.5 8.5 0 0 1 8.6-8.6 9 9 0 0 1 3.5.7c1 .5 2 1 2.6 1.9l-1.8 1.8c-.5-.6-1.1-1-1.9-1.4a6 6 0 0 0-2.4-.5 6 6 0 0 0-6 6.1c0 1.2.2 2.3.8 3.3a6 6 0 0 0 2.2 2.1c.9.5 1.9.8 3 .8a6 6 0 0 0 4.2-1.6c.4-.4.6-.8.9-1.3.2-.5.4-1 .4-1.7h-5.5v-2.3h8v1.4c0 1 0 2-.4 3-.3 1-.8 1.8-1.5 2.5a8 8 0 0 1-6.1 2.4Zm16.2 0c-1.1 0-2.2-.2-3.1-.8-1-.5-1.7-1.3-2.2-2.2-.6-1-.8-2-.8-3.2 0-1.2.2-2.2.8-3.2.5-1 1.2-1.7 2.2-2.2.9-.6 2-.8 3.1-.8a6 6 0 0 1 5.4 3 6.9 6.9 0 0 1 0 6.4c-.5 1-1.3 1.7-2.2 2.2-1 .6-2 .8-3.2.8Zm0-2.3a3.5 3.5 0 0 0 3.1-1.8c.4-.6.5-1.3.5-2 0-.9-.1-1.6-.5-2.2a3.6 3.6 0 0 0-3.1-1.8 4 4 0 0 0-1.8.5 4 4 0 0 0-1.3 1.3c-.3.6-.5 1.3-.5 2.1s.2 1.5.5 2c.3.7.8 1.1 1.3 1.5a4 4 0 0 0 1.8.4Zm14 2.3c-1.1 0-2.2-.2-3.1-.8-1-.5-1.7-1.3-2.2-2.2a6.9 6.9 0 0 1 0-6.4c.5-1 1.2-1.7 2.2-2.2 1-.6 2-.8 3.1-.8a6 6 0 0 1 5.4 3 6.9 6.9 0 0 1 0 6.4c-.5 1-1.3 1.7-2.2 2.2-1 .6-2 .8-3.2.8Zm0-2.3a3.5 3.5 0 0 0 3.2-1.8c.3-.6.4-1.3.4-2 0-.9-.1-1.6-.4-2.2-.4-.5-.8-1-1.4-1.3a3.5 3.5 0 0 0-3.6 0 4 4 0 0 0-1.3 1.3c-.3.6-.5 1.3-.5 2.1s.2 1.5.5 2c.3.7.8 1.1 1.3 1.5a4 4 0 0 0 1.8.4Zm13.8 7.3a6 6 0 0 1-3.5-1 5 5 0 0 1-2-2.3l2.4-1c.3.6.7 1 1.2 1.5a4 4 0 0 0 2 .5c1 0 1.8-.3 2.5-1 .6-.6.9-1.5.9-2.6v-1.1h-.2c-.4.6-.9 1-1.5 1.3a5.2 5.2 0 0 1-7-2.4c-.5-1-.7-2-.7-3.2 0-1.2.2-2.3.7-3.2a6 6 0 0 1 2-2.2 5.2 5.2 0 0 1 5-.2 4 4 0 0 1 1.5 1.3h.2v-1.5h2.4v11.1c0 1.3-.3 2.4-.8 3.3-.5.9-1.1 1.6-2 2-1 .5-2 .7-3 .7Zm0-7.5c.7 0 1.2-.2 1.8-.5a3 3 0 0 0 1.2-1.3 4 4 0 0 0 .5-2c0-1.2-.4-2.1-1-2.8-.7-.7-1.5-1-2.4-1-.7 0-1.3.1-1.8.4-.5.3-1 .8-1.2 1.4-.3.5-.5 1.2-.5 2s.2 1.5.5 2a3.3 3.3 0 0 0 3 1.8Zm9-14.3h2.4v16.5h-2.5V17.8ZM154 34.6a6 6 0 0 1-6-6c0-1.2.3-2.3.8-3.2.5-1 1.2-1.6 2.1-2.1.9-.5 1.8-.8 2.9-.8 1.4 0 2.5.4 3.4 1.2a7 7 0 0 1 1.8 2.7l.2.6-8 3.4a3 3 0 0 0 2.9 1.9c1.2 0 2.2-.6 3-1.7l2 1.3c-.4.7-1 1.4-2 2-.8.5-1.8.7-3 .7Zm2.1-8.5c-.1-.4-.4-.7-.8-.9-.4-.2-1-.4-1.4-.4a3 3 0 0 0-1.5.5 2 2 0 0 0-1.2 1.2c-.4.5-.5 1.2-.5 1.9L156 26Zm10.4-8.3h5.7c1 0 1.9.2 2.7.7a4.8 4.8 0 0 1 2.7 4.3c0 1-.3 1.9-.8 2.6-.4.8-1 1.4-1.9 1.8a5 5 0 0 1-2.7.7h-3.1v6.4h-2.6V17.8Zm5.8 7.6c.5 0 1 0 1.4-.3.5-.3.8-.6 1-1 .2-.4.3-.8.3-1.3l-.3-1.2c-.2-.4-.5-.7-1-1-.4-.2-.9-.3-1.4-.3H169v5.1h3.2Zm7.4-7.6h2.5v16.5h-2.5V17.8Zm9.2 16.8a4 4 0 0 1-2.2-.5 3.7 3.7 0 0 1-2.1-3.4c0-1.2.4-2.2 1.3-2.9 1-.7 2.1-1 3.5-1a7.5 7.5 0 0 1 3.2.6v-.6c0-.7-.3-1.3-.8-1.8a3 3 0 0 0-2-.7c-.7 0-1.2.2-1.8.4-.5.3-1 .7-1.2 1.1l-1.8-1.4c.5-.7 1.2-1.2 2-1.6a6 6 0 0 1 2.8-.6c1.7 0 3 .4 4 1.2a5 5 0 0 1 1.3 3.6v7.3h-2.5v-1.4h-.1a4 4 0 0 1-3.6 1.7Zm.5-2c.6 0 1.1-.2 1.6-.5s.9-.7 1.2-1.2c.3-.5.4-1 .4-1.6a5.7 5.7 0 0 0-2.7-.7c-1 0-1.7.3-2.1.7-.4.3-.7.8-.7 1.4 0 .5.2 1 .7 1.3.4.4 1 .5 1.6.5Zm11.6 1-4.9-11h2.9l3.3 8 3.3-8h2.8L201 39.1h-2.7l2.6-5.6Z" fill="#fff"/>
    <mask id="g" style="mask-type:luminance" maskUnits="userSpaceOnUse" x="0" y="0" width="270" height="81">
      <path d="M0 0h270v80H0V0Z" fill="#fff"/>
    </mask>
    <g mask="url(#g)">
      <path d="M214.5 29.4c-1.4 0-2.3-1.9-2.3-5.2 0-3.2 1-5 2.3-5 1.5 0 2.3 1.8 2.3 5 0 3.3-.8 5.2-2.3 5.2Zm6.7-6.3H219c-.3-3.9-2-6.2-4.5-6.2-2.6 0-4.4 2.8-4.4 7.3 0 4.6 1.8 7.4 4.4 7.4 2.6 0 4.3-2.5 4.5-6.5h2.2v10h2.2V15.6h-2.2V23Zm4.2-7.8V36h2.2V15.3h-2.2Zm12.9 1.6h-2.4v3.5c0 3.9-2 7.9-5.3 9.5l1.5 1.8c2.4-1.2 4.1-3.6 5-6.5 1 2.7 2.6 5 5 6.2l1.3-2c-3.1-1.4-5.1-5.2-5.1-9v-3.5Zm7.3-1.7v6.9h-4.4V24h4.4v12h2.4V15.3h-2.4Z" fill="#fff"/>
    </g>
    <mask id="h" style="mask-type:luminance" maskUnits="userSpaceOnUse" x="0" y="0" width="270" height="81">
      <path d="M0 0h270v80H0V0Z" fill="#fff"/>
    </mask>
    <g mask="url(#h)">
      <path d="M83.6 50.5h5.5V49h-7.3v10.4h1.3c2.8 0 5 0 7.3-.5l-.2-1.5c-2.1.4-4 .5-6.6.5v-7.4Zm12.2 3h-2.4v-6h-1.9v15.8h1.9V55h2.4v-1.5Zm9-4.2c2.2 0 3.6.7 3.6 1.8s-1.4 1.7-3.6 1.7-3.7-.6-3.7-1.7 1.5-1.8 3.7-1.8Zm0 5c3.3 0 5.5-1.2 5.5-3.2s-2.2-3.2-5.5-3.2c-3.4 0-5.6 1.2-5.6 3.2s2.2 3.2 5.6 3.2Zm-3.6 4h-1.8V63h11v-1.5h-9.2v-3.2Zm-3.5-3v1.5h6.3v3h1.8v-3h6.1v-1.5H97.7Zm23.6 4.6v-2.7h5v-1.4h-9.5v-2.2h9v-5H115v1.5h9v2h-9v5.1h4.5V60h-6.2v1.5h14.3V60h-6.3Zm21-5h-9v-4.5h9v-1.5h-10.8v7.5h10.9V55Zm-12.6 4.9v1.4H144v-1.4h-14.3Z" fill="#fff"/>
    </g>
  </g>
  <defs>
    <clipPath id="a">
      <path fill="#fff" d="M0 0h270v80H0z"/>
    </clipPath>
  </defs>
</svg>
