<svg width="180" height="54" fill="none" xmlns="http://www.w3.org/2000/svg">
  <path d="M173.3 54H6.7A6.7 6.7 0 0 1 0 47.2V6.8C0 3 3 0 6.7 0h166.6a6.7 6.7 0 0 1 6.7 6.8v40.5c0 3.7-3 6.7-6.7 6.7Z" fill="#000"/>
  <path d="M27.6 26.2 13.4 41.5a3.8 3.8 0 0 0 5.7 2.3l16-9.3-7.5-8.3Z" fill="#EA4335"/>
  <path d="m42 23.6-7-4-7.7 7 7.8 7.9 6.9-4a3.9 3.9 0 0 0 2-3.5 4 4 0 0 0-2-3.4Z" fill="#FBBC04"/>
  <path d="M13.4 12.5a3.7 3.7 0 0 0-.1 1v27l.1 1 14.7-14.9-14.7-14Z" fill="#4285F4"/>
  <path d="m27.7 27 7.4-7.4-16-9.4a3.9 3.9 0 0 0-5.7 2.3L27.7 27Z" fill="#34A853"/>
  <path d="M131.5 26.7h2.2V12h-2.2v14.6Zm19.6-9.3-2.5 6.3-2.6-6.3h-2.4l3.9 8.8-2.2 4.9h2.2l6-13.8h-2.4ZM138.8 25c-.7 0-1.7-.3-1.7-1.2 0-1.2 1.2-1.6 2.3-1.6 1 0 1.4.2 2 .5a2.6 2.6 0 0 1-2.6 2.3Zm.2-8c-1.5 0-3.2.7-3.8 2.2l1.9.9c.4-.9 1.2-1.1 2-1.1 1.1 0 2.2.7 2.3 1.9v.1a4.8 4.8 0 0 0-2.3-.6c-2 0-4.2 1.2-4.2 3.3 0 2 1.7 3.2 3.6 3.2a3 3 0 0 0 2.8-1.4v1.1h2.2V21c0-2.5-2-4-4.5-4Zm-13.4 2.1h-3.1v-5h3.1a2.5 2.5 0 0 1 2.6 2.5c0 1.1-1 2.5-2.6 2.5Zm0-7h-5.3v14.6h2.2V21h3c2.5 0 4.8-1.7 4.8-4.5S128 12 125.5 12ZM97 25c-1.5 0-2.7-1.3-2.7-3s1.2-3 2.7-3c1.5 0 2.7 1.3 2.7 3s-1.2 3-2.7 3Zm2.5-6.8a3.4 3.4 0 0 0-2.7-1.2 5 5 0 0 0-4.7 5 4.9 4.9 0 0 0 4.7 5c1.2 0 2.2-.6 2.6-1.2h.1v.7c0 2-1 3-2.6 3a2.7 2.7 0 0 1-2.5-1.8l-2 .8c.6 1.3 2 3 4.5 3s4.7-1.6 4.7-5.3v-8.9h-2v.8Zm3.6 8.4h2.2V12.1h-2.2v14.6Zm5.4-4.8a2.7 2.7 0 0 1 2.6-2.9c.8 0 1.6.5 1.8 1.1l-4.4 1.8Zm6.7-1.6c-.4-1.1-1.6-3.2-4.2-3.2s-4.7 2-4.7 5c0 2.8 2.1 5 5 5a5 5 0 0 0 4-2.2l-1.6-1.2a2.8 2.8 0 0 1-2.5 1.4c-1 0-1.9-.5-2.4-1.5l6.7-2.7-.3-.6Zm-52.8-1.6v2h5a4.4 4.4 0 0 1-1 2.7 5.2 5.2 0 0 1-4 1.5 5.5 5.5 0 0 1-5.5-5.6 5.5 5.5 0 0 1 9.3-4l1.5-1.5a7.3 7.3 0 0 0-5.3-2.1 7.8 7.8 0 0 0-7.8 7.7 7.8 7.8 0 0 0 7.8 7.7 7 7 0 0 0 5.4-2.2 7 7 0 0 0 1.8-5v-1.2h-7.2Zm13 6.4c-1.6 0-2.9-1.2-2.9-3s1.3-3 2.8-3c1.5 0 2.8 1.2 2.8 3s-1.3 3-2.8 3Zm0-8a4.9 4.9 0 0 0-5 5 4.9 4.9 0 0 0 5 5 4.9 4.9 0 0 0 5-5 4.9 4.9 0 0 0-5-5Zm10.8 8c-1.5 0-2.8-1.2-2.8-3s1.3-3 2.8-3c1.5 0 2.8 1.2 2.8 3s-1.3 3-2.8 3Zm0-8a4.9 4.9 0 0 0-5 5 4.9 4.9 0 0 0 5 5 4.9 4.9 0 0 0 5-5 4.9 4.9 0 0 0-5-5ZM56.1 36l-.3 3h-.6l-.2-3h1Z" fill="#fff"/>
  <path d="m56 35.9-.3 2.8h-.4l-.2-2.7h1v-.2h-1.3l.3 3.2h.9l.2-3.2h-.1v.1Zm5.8 7.2v-6.3H60c0 1-.3 2-.7 3.2a11 11 0 0 1-1.2 3h3.7Zm2 3H63V44h-5.6v2.1h-1v-3h.7c.5-1 1-2 1.4-3.4.4-1.3.6-2.6.7-3.8H63v7.2h1v3Z" fill="#fff"/>
  <path d="M61.8 43.1h.2v-6.4h-2.1v.1c-.1 1-.3 2-.7 3.2L58 43l-.2.2H62v-.1h-.2V43h-3.7v.2c.6-.9 1-1.9 1.4-3.1s.6-2.3.6-3.3H60v.2h1.7v6h.1Zm2 3V46H63v-2.1h-5.8V46h-.7v-2.8h.6c.6-1 1-2.1 1.4-3.5.4-1.3.7-2.6.7-3.8v.1h3.5v7.2h1v3h.3V43h-1v-7.2h-4v.1a16.7 16.7 0 0 1-2.1 7.1h-.7v3.3h1.3V44h5.3v2.2H64V46ZM70 44h-4.6v-8.1H70v.9h-3.5v2.5h3.3v1h-3.3V43H70v.9Z" fill="#fff"/>
  <path d="M70 44v-.1h-4.4V36h4.2v.7h-3.5v2.8h3.3v.6h-3.3v3.1h3.5v.8h.3v-1h-3.5v-2.7h3.3v-1.1h-3.3v-2.3H70v-1.1h-4.8V44H70Zm8 0h-1v-3.8h-4.2V44h-1v-8.1h1v3.4h4.1V36h1v8Z" fill="#fff"/>
  <path d="M78 44v-.1h-1V40h-4.4v3.8H72V36h.7v3.5h4.5V36h.7v8h.3v-8.2h-1.3v3.4H73v-3.4h-1.3V44H73v-3.7h3.9V44H78h-.2Zm8.9-3.4-1-2.5-.3-1.2-.4 1.2-.9 2.5H87Zm1.3 3.4-1-2.5H84L83 44h-1l3.2-8.1h.9l3.1 8.1h-1Z" fill="#fff"/>
  <path d="M86.9 40.6h.1l-.9-2.5-.5-1.7-.1.5L85 38h.1l-1 2.6H87v-.2h-2.6l.9-2.3.3-1.2h-.2l.3 1.2 1 2.4Zm1.3 3.4-1-2.6H84l-1 2.5h-.7l3-7.9h.8l3 7.9h-.8v.2h1.2l-3.2-8.4H85l-3.3 8.4H83l1-2.5h3l1 2.5V44Zm8.8 0h-1v-7.2h-2.6l-.2 1.3a50 50 0 0 1-.6 4 3.7 3.7 0 0 1-.7 1.6c-.2.3-.6.4-1 .4a1.9 1.9 0 0 1-.8-.1v-1l.6.2c.3 0 .5-.2.7-.6a158.6 158.6 0 0 0 1.1-6.8H97V44Z" fill="#fff"/>
  <path d="M97 44v-.1h-.9v-7.2h-2.8l-.2 1.4a50 50 0 0 1-.6 3.9 3.6 3.6 0 0 1-.6 1.6c-.3.2-.6.4-1 .4l-.8-.1h.1v-.8h-.1v.2l.6.1c.4 0 .6-.2.8-.6a164.2 164.2 0 0 0 1.2-6.9h-.1v.1h4.3v8h.2v-8.2h-4.7a153.2 153.2 0 0 1-1.1 6.9c-.2.3-.4.4-.6.4h-.6l-.2-.2v1.2h.1l.8.2c.5 0 1-.2 1.3-.5.3-.4.5-1 .7-1.7l.6-4 .1-1.2h2.3v7.2h1.3V44H97Zm9.8 0h-1v-8.1h1V44Zm-6.5-.9h1.3c.6 0 1 0 1.4-.3.3-.3.5-.7.5-1.2s-.2-.8-.5-1c-.3-.3-.9-.4-1.6-.4h-1.1v3Zm4.2-1.5c0 .8-.2 1.4-.7 1.8-.5.4-1.2.6-2.1.6h-2.4v-8.1h1v3.4h1.2c1 0 1.7.2 2.2.6.6.4.8 1 .8 1.7Z" fill="#fff"/>
  <path d="M106.8 44v-.1h-1V36h.9v8h.2v-8.2h-1.3V44h1.3-.1Zm-6.5-.9v.2h1.3c.6 0 1.1-.1 1.5-.4.3-.3.5-.7.5-1.3 0-.5-.2-.9-.5-1.1-.4-.3-1-.4-1.7-.4h-1.3v3.2h.2V43h.1v-2.7h1c.7 0 1.2 0 1.5.3.3.2.4.5.4 1 0 .4-.1.7-.4 1-.3.2-.7.3-1.3.3h-1.3v.1Zm4.2-1.5h-.1a2 2 0 0 1-.7 1.7 3 3 0 0 1-2 .6h-2.3V36h.7v3.5h1.4c1 0 1.7.2 2.2.5.4.4.7.9.7 1.6h.2c0-.8-.2-1.4-.8-1.8a3.8 3.8 0 0 0-2.3-.6h-1v-3.4H99V44h2.5a4 4 0 0 0 2.3-.6 2.3 2.3 0 0 0 .7-1.9Zm10.7 1.5h1v3h-1V44h-1v-3.8h-4.1V44h-1v-8.1h1v3.4h4.1V36h1v7.2Z" fill="#fff"/>
  <path d="M115.2 43.1v.1h.9V46h-.7v-2.1h-1V40h-4.5v3.8h-.7V36h.7v3.5h4.5V36h.7v7.2h.1v-.1h.2v-7.3H114v3.4h-4v-3.4h-1V44h1.3v-3.7h3.9V44h1v2.2h1.2V43h-1Zm10.1.9h-1v-8.1h1V44Zm-6.5-.9h1.3c.6 0 1.1 0 1.4-.3.3-.3.5-.7.5-1.2s-.2-.8-.5-1c-.3-.3-.8-.4-1.6-.4h-1v3Zm4.2-1.5c0 .8-.2 1.4-.7 1.8-.5.4-1.2.6-2.1.6h-2.4v-8.1h1v3.4h1.3c1 0 1.7.2 2.2.6.5.4.7 1 .7 1.7Z" fill="#fff"/>
  <path d="M125.3 44v-.1h-.9V36h.8v8h.3v-8.2h-1.3V44h1.3-.2Zm-6.5-.9v.2h1.3c.7 0 1.2-.1 1.5-.4.4-.3.5-.7.5-1.3 0-.5-.1-.9-.5-1.1-.4-.3-1-.4-1.7-.4h-1.2v3.2h.1V43h.1v-2.7h1c.8 0 1.3 0 1.5.3.3.2.4.5.5 1 0 .4-.2.7-.5 1-.2.2-.7.3-1.3.3h-1.3v.1Zm4.2-1.5a2 2 0 0 1-.8 1.7c-.4.4-1.1.6-2 .6h-2.3V36h.8v3.5h1.3c1 0 1.7.2 2.2.5.5.4.7.9.7 1.6h.3c0-.8-.3-1.4-.8-1.8a3.8 3.8 0 0 0-2.3-.6h-1.2v-3.4h-1.3V44h2.6c1 0 1.7-.2 2.2-.6a2.3 2.3 0 0 0 .8-1.9h-.2Zm9.4-3.8c0 .5-.1 1-.5 1.3a2.5 2.5 0 0 1-1.4.6c.7.2 1.2.4 1.6.7.3.3.5.8.5 1.3a2.1 2.1 0 0 1-.9 1.8 4 4 0 0 1-2.4.6 5 5 0 0 1-2.3-.4v-1a5.3 5.3 0 0 0 2.3.6 2.8 2.8 0 0 0 1.7-.4c.3-.3.5-.7.5-1.2s-.2-.8-.6-1a3.7 3.7 0 0 0-1.9-.5h-1v-.8h1c.9 0 1.5-.1 1.9-.4.4-.3.6-.6.6-1.1 0-.4-.2-.7-.5-1a2 2 0 0 0-1.2-.3 4 4 0 0 0-1.1.2 4 4 0 0 0-1.1.5l-.5-.7a5 5 0 0 1 2.7-.8c.9 0 1.5.2 2 .5.5.4.7.9.7 1.5Z" fill="#fff"/>
  <path d="M132.4 37.8h-.1c0 .5-.2.9-.5 1.2-.3.3-.7.5-1.3.6h-.1v.3c.7.1 1.2.3 1.6.6.3.3.4.7.5 1.2a2 2 0 0 1-.8 1.7 4 4 0 0 1-2.4.6c-1 0-1.7-.2-2.3-.4h.1v-.9h-.1v.2a5.5 5.5 0 0 0 2.3.5 3 3 0 0 0 1.7-.4c.4-.3.7-.8.6-1.3 0-.5-.2-1-.6-1.2a3.8 3.8 0 0 0-2-.4h-1v-.6h1c.8 0 1.4-.1 1.8-.4.5-.3.7-.7.7-1.2 0-.4-.2-.8-.5-1a2 2 0 0 0-1.3-.4 3.9 3.9 0 0 0-2.3.7v.1h.2l-.5-.7h-.1v.1a4.4 4.4 0 0 1 2.7-.8 3 3 0 0 1 2 .5c.4.4.6.8.6 1.4h.2c0-.7-.2-1.2-.7-1.6a3.3 3.3 0 0 0-2-.5 4.7 4.7 0 0 0-2.9.8v.1l.5.8v.1h.1l1.1-.6 1.1-.1c.5 0 .9 0 1.1.3.3.2.4.4.4.8s-.1.7-.5 1a3 3 0 0 1-1.7.3h-1.3v1.2h1.3c.8 0 1.4.1 1.8.3.4.3.6.6.6 1 0 .5-.2.8-.5 1-.3.3-.9.4-1.6.4a5.5 5.5 0 0 1-2.3-.5h-.2v1.2h.1c.6.3 1.4.4 2.4.4a4.1 4.1 0 0 0 2.5-.6c.6-.5 1-1.1 1-1.9 0-.6-.3-1-.7-1.4a2.9 2.9 0 0 0-1.6-.7v.2h.1-.1a2.6 2.6 0 0 0 1.5-.6c.4-.4.6-.9.6-1.4h-.2Z" fill="#fff"/>
</svg>
