<svg width="180" height="54" fill="none" xmlns="http://www.w3.org/2000/svg">
  <path d="M173.33 54H6.67A6.73 6.73 0 0 1 0 47.25V6.75C0 3.04 3 0 6.67 0h166.66A6.73 6.73 0 0 1 180 6.75v40.5c0 3.71-3 6.75-6.67 6.75Z" fill="#000"/>
  <path d="m27.63 26.22-14.2 15.26a3.84 3.84 0 0 0 5.65 2.35l.05-.03 15.97-9.33-7.48-8.25Z" fill="#EA4335"/>
  <path d="m41.98 23.63-.01-.02-6.9-4.05-7.77 7 7.8 7.9 6.86-4a3.89 3.89 0 0 0 2.02-3.43c0-1.47-.8-2.75-2-3.4Z" fill="#FBBC04"/>
  <path d="M13.43 12.52a3.7 3.7 0 0 0-.13 1v26.96c0 .35.04.68.13 1L28.1 26.62l-14.68-14.1Z" fill="#4285F4"/>
  <path d="m27.73 27 7.34-7.44-15.96-9.37a3.85 3.85 0 0 0-5.69 2.33L27.73 27Z" fill="#34A853"/>
  <path d="M131.52 26.67h2.17V12.1h-2.17v14.57Zm19.59-9.32-2.5 6.31h-.07l-2.59-6.31h-2.34l3.88 8.82-2.21 4.91h2.26l5.99-13.73h-2.42ZM138.77 25c-.7 0-1.7-.35-1.7-1.24 0-1.12 1.24-1.55 2.3-1.55.96 0 1.4.2 1.99.49a2.64 2.64 0 0 1-2.59 2.3Zm.27-7.98c-1.58 0-3.2.69-3.88 2.23l1.93.8c.4-.8 1.18-1.07 1.98-1.07 1.13 0 2.27.68 2.29 1.88v.15a4.8 4.8 0 0 0-2.27-.56c-2.08 0-4.2 1.14-4.2 3.28 0 1.95 1.7 3.2 3.62 3.2 1.46 0 2.27-.65 2.78-1.42h.07v1.12h2.1v-5.58c0-2.59-1.93-4.03-4.42-4.03Zm-13.44 2.09h-3.1v-5h3.1a2.52 2.52 0 0 1 2.55 2.5c0 1.13-.93 2.5-2.55 2.5Zm-.06-7.02h-5.21v14.57h2.17v-5.52h3.04c2.41 0 4.78-1.75 4.78-4.53 0-2.78-2.37-4.52-4.78-4.52ZM97.13 25c-1.5 0-2.76-1.25-2.76-2.98 0-1.75 1.25-3.02 2.76-3.02 1.48 0 2.64 1.27 2.64 3.02 0 1.73-1.16 2.98-2.64 2.98Zm2.5-6.85h-.08a3.43 3.43 0 0 0-2.61-1.1 4.93 4.93 0 0 0-4.75 4.97 4.9 4.9 0 0 0 4.75 4.94c1.18 0 2.12-.53 2.6-1.13h.08v.71c0 1.9-1.01 2.91-2.64 2.91a2.74 2.74 0 0 1-2.5-1.76l-1.9.79c.55 1.31 2 2.93 4.4 2.93 2.55 0 4.7-1.5 4.7-5.17v-8.9h-2.06v.81Zm3.56 8.5h2.18V12.1h-2.18v14.57Zm5.39-4.8a2.72 2.72 0 0 1 2.59-2.9c.86 0 1.6.44 1.84 1.06l-4.43 1.84Zm6.76-1.65c-.42-1.11-1.67-3.16-4.25-3.16-2.55 0-4.67 2.01-4.67 4.96 0 2.78 2.1 4.96 4.92 4.96a4.93 4.93 0 0 0 4.13-2.2l-1.69-1.13a2.83 2.83 0 0 1-2.44 1.37c-1.1 0-1.9-.5-2.4-1.5l6.62-2.74-.22-.56Zm-52.8-1.64v2.1h5.03a4.39 4.39 0 0 1-1.15 2.65 5.15 5.15 0 0 1-3.89 1.54c-3.1 0-5.52-2.5-5.52-5.6a5.52 5.52 0 0 1 9.32-4.08l1.48-1.49a7.34 7.34 0 0 0-5.28-2.12 7.8 7.8 0 0 0-7.8 7.7 7.8 7.8 0 0 0 7.8 7.7c2.3 0 4.02-.75 5.37-2.16a6.95 6.95 0 0 0 1.82-4.92c0-.49-.03-.94-.1-1.32h-7.09ZM75.44 25c-1.5 0-2.8-1.23-2.8-3 0-1.78 1.3-3 2.8-3 1.5 0 2.8 1.22 2.8 3 0 1.77-1.3 3-2.8 3Zm0-7.96A4.89 4.89 0 0 0 70.47 22a4.9 4.9 0 0 0 4.98 4.96A4.9 4.9 0 0 0 80.42 22a4.89 4.89 0 0 0-4.97-4.96ZM86.3 25c-1.5 0-2.8-1.23-2.8-3 0-1.78 1.3-3 2.8-3 1.5 0 2.8 1.22 2.8 3 0 1.77-1.3 3-2.8 3Zm0-7.96A4.89 4.89 0 0 0 81.32 22a4.9 4.9 0 0 0 4.98 4.96A4.9 4.9 0 0 0 91.28 22a4.89 4.89 0 0 0-4.98-4.96ZM56.06 35.9l-.23 2.93h-.62l-.23-2.92h1.08Z" fill="#fff"/>
  <path d="M56.06 35.9h-.13l-.22 2.8h-.38l-.2-2.66h.93v-.26h-1.22l.25 3.18h.87l.24-3.18h-.14v.13Zm5.78 7.2v-6.27H60c-.07.92-.29 1.99-.67 3.21-.38 1.23-.8 2.24-1.27 3.05h3.78Zm2.04 3.03h-.98V44h-5.56v2.13h-.98v-3.04H57c.54-.93 1.02-2.05 1.41-3.38.4-1.32.64-2.59.7-3.8h3.75v7.18h1.03v3.04Z" fill="#fff"/>
  <path d="M61.84 43.1h.13v-6.4h-2.09v.12c-.08.9-.3 1.96-.68 3.18-.37 1.22-.8 2.23-1.25 3.03l-.12.2h4.14v-.14h-.13v-.13h-3.78v.13l.12.07c.47-.82.9-1.85 1.28-3.08s.6-2.3.68-3.24l-.14-.01v.13h1.7v6.13h.14Zm2.04 3.03V46h-.84v-2.13H57.2V46h-.7v-2.77h.56l.04-.07c.56-.94 1.03-2.08 1.43-3.41.4-1.33.64-2.61.71-3.83l-.13-.01v.13h3.6v7.19h1.03v2.9h.27v-3.17h-1.03v-7.18h-4v.12c-.08 1.2-.3 2.46-.7 3.77-.4 1.32-.87 2.44-1.4 3.35l.1.07v-.13h-.75v3.3h1.24v-2.13h5.3v2.13h1.24v-.13h-.13ZM69.96 44h-4.53v-8.1h4.53v.9h-3.5v2.53h3.3v.88h-3.3v2.9h3.5V44Z" fill="#fff"/>
  <path d="M69.96 44v-.13h-4.4v-7.83h4.26v.63h-3.5v2.8h3.3v.61h-3.3v3.16h3.5V44h.27v-1.03h-3.5v-2.62h3.3V39.2h-3.3v-2.26h3.5v-1.16H65.3v8.35h4.79V44h-.13Zm7.97 0h-1.02v-3.77h-4.15V44h-1.02v-8.1h1.02v3.43h4.15v-3.42h1.02V44Z" fill="#fff"/>
  <path d="M77.93 44v-.13h-.88v-3.78h-4.42v3.78h-.75v-7.83h.75v3.42h4.42v-3.42h.75V44h.26v-8.22h-1.28v3.42H72.9v-3.42h-1.3v8.35h1.29v-3.77h3.88v3.77h1.28V44h-.13Zm8.96-3.4-.91-2.46-.39-1.21c-.11.44-.23.84-.35 1.21l-.92 2.45h2.57Zm1.27 3.4-.97-2.5h-3.21l-.96 2.5h-1.03l3.16-8.12h.92L89.22 44h-1.06Z" fill="#fff"/>
  <path d="m86.89 40.6.12-.06-.9-2.44-.53-1.66-.12.45c-.1.44-.22.85-.34 1.2l.12.05-.12-.05-.99 2.63h2.95l-.07-.18-.12.05v-.13h-2.37l.85-2.28c.12-.37.24-.77.35-1.22l-.13-.03-.13.04.39 1.21.91 2.46.13-.05Zm1.27 3.4.13-.05-1-2.59h-3.4l-.97 2.5h-.74l3.06-7.85h.73l3.06 7.86h-.87v.26h1.26l-3.26-8.39h-1.1l-3.27 8.4h1.32l.96-2.51h3.03l.97 2.5h.1V44ZM97 44h-1.02v-7.2H93.4l-.17 1.32a49.97 49.97 0 0 1-.6 3.9 3.7 3.7 0 0 1-.69 1.65c-.27.3-.65.46-1.13.46a1.9 1.9 0 0 1-.74-.14v-.85c.2.09.4.13.63.13.29 0 .52-.18.7-.55.16-.36.35-1.2.55-2.49.2-1.3.4-2.73.6-4.32H97V44Z" fill="#fff"/>
  <path d="M97 44v-.13h-.9v-7.2h-2.8l-.2 1.44a49.91 49.91 0 0 1-.6 3.89 3.6 3.6 0 0 1-.64 1.58c-.26.27-.6.41-1.04.41-.26 0-.49-.04-.69-.12l-.05.12h.13v-.85h-.13l-.06.12c.21.1.44.15.69.15.35 0 .63-.24.81-.63.19-.4.37-1.23.57-2.53.2-1.3.4-2.74.6-4.32l-.12-.02v.13h4.29V44h.27v-8.22h-4.68l-.02.11c-.2 1.59-.4 3.03-.6 4.32-.2 1.29-.4 2.12-.55 2.46-.17.34-.34.47-.57.47-.21 0-.4-.04-.57-.12l-.2-.1v1.16l.09.03c.24.1.5.15.79.15.5 0 .93-.17 1.23-.5.3-.35.54-.91.71-1.7.18-.8.38-2.1.61-3.92l.16-1.2h2.31v7.2h1.29V44h-.14Zm9.78 0h-1.02v-8.1h1.02V44Zm-6.5-.86h1.28c.65 0 1.13-.13 1.44-.38.3-.25.46-.62.46-1.13 0-.5-.16-.85-.48-1.07-.32-.22-.84-.33-1.57-.33h-1.13v2.9Zm4.23-1.5c0 .76-.24 1.34-.72 1.75-.49.4-1.2.61-2.14.61h-2.4v-8.1h1.03v3.43h1.24c.98 0 1.72.2 2.23.58.51.39.76.96.76 1.72Z" fill="#fff"/>
  <path d="M106.78 44v-.13h-.89v-7.83h.76V44h.27v-8.22h-1.3v8.35h1.3V44h-.14Zm-6.5-.86v.13h1.28c.67 0 1.18-.12 1.52-.4.35-.28.51-.7.51-1.24 0-.52-.17-.93-.53-1.18-.36-.25-.9-.36-1.65-.36h-1.27v3.18h.14v-.13h.13v-2.78h1c.72 0 1.22.11 1.5.3.27.2.41.5.42.97 0 .48-.15.81-.41 1.03-.27.22-.73.34-1.36.34h-1.28v.14Zm4.23-1.5h-.13c0 .73-.23 1.26-.68 1.65-.45.38-1.13.58-2.05.58h-2.26v-7.83h.75v3.42h1.38c.96 0 1.68.2 2.15.56.47.36.7.88.71 1.61h.27c0-.79-.27-1.41-.82-1.83a3.77 3.77 0 0 0-2.3-.6h-1.12v-3.42h-1.29v8.35h2.53c.96 0 1.7-.2 2.22-.64a2.3 2.3 0 0 0 .78-1.86h-.14Zm10.72 1.46h.97v3.03h-.97V44h-1v-3.77h-4.17V44h-1.02v-8.1h1.02v3.43h4.16v-3.42h1v7.18Z" fill="#fff"/>
  <path d="M115.23 43.1v.13h.84V46h-.7v-2.13h-1.01v-3.78h-4.43v3.78h-.75v-7.83h.75v3.42h4.43v-3.42h.74v7.19h.13v-.14h.13v-7.31h-1.27v3.42h-3.9v-3.42h-1.28v8.35h1.28v-3.77h3.9v3.77h1v2.13h1.25v-3.3h-1.11v.13Zm10.08.9h-1.02v-8.1h1.02V44Zm-6.5-.86h1.27c.66 0 1.14-.13 1.45-.38.3-.25.46-.62.46-1.13 0-.5-.16-.85-.48-1.07-.32-.22-.84-.33-1.57-.33h-1.13v2.9Zm4.23-1.5c0 .76-.24 1.34-.72 1.75-.49.4-1.2.61-2.14.61h-2.4v-8.1h1.03v3.43h1.24c.98 0 1.72.2 2.23.58.51.39.76.96.76 1.72Z" fill="#fff"/>
  <path d="M125.31 44v-.13h-.89v-7.83h.76V44h.27v-8.22h-1.3v8.35h1.3V44h-.14Zm-6.5-.86v.13h1.27c.68 0 1.19-.12 1.53-.4.35-.28.51-.7.51-1.24 0-.52-.17-.93-.53-1.18-.36-.25-.9-.36-1.65-.36h-1.27v3.18h.14v-.13h.13v-2.78h1c.72 0 1.22.11 1.5.3.27.2.41.5.42.97 0 .48-.15.81-.42 1.03-.26.22-.72.34-1.36.34h-1.27v.14Zm4.23-1.5h-.13c0 .73-.23 1.26-.68 1.65-.45.38-1.13.58-2.05.58h-2.26v-7.83h.75v3.42h1.38c.96 0 1.67.2 2.15.56.47.36.7.88.71 1.61h.27c0-.79-.27-1.41-.82-1.83a3.76 3.76 0 0 0-2.3-.6h-1.12v-3.42h-1.29v8.35h2.53c.96 0 1.7-.2 2.22-.64a2.3 2.3 0 0 0 .78-1.86h-.14Zm9.38-3.84c0 .53-.17.96-.5 1.29a2.5 2.5 0 0 1-1.42.64v.04c.69.1 1.2.3 1.56.64.35.33.53.76.53 1.3a2.1 2.1 0 0 1-.86 1.77c-.57.42-1.37.63-2.4.63-.98 0-1.76-.15-2.36-.44v-.93a5.33 5.33 0 0 0 2.34.53 2.8 2.8 0 0 0 1.65-.4c.38-.27.56-.66.56-1.16 0-.48-.2-.85-.63-1.1a3.72 3.72 0 0 0-1.86-.37h-1.16v-.85h1.1c.8 0 1.4-.14 1.8-.4.4-.27.59-.63.59-1.09 0-.39-.15-.7-.44-.93-.3-.22-.69-.34-1.19-.34-.42 0-.8.05-1.13.15-.34.1-.71.28-1.11.55l-.5-.7c.79-.56 1.7-.84 2.75-.84.83 0 1.49.18 1.96.55.48.36.72.85.72 1.46Z" fill="#fff"/>
  <path d="M132.42 37.8h-.14c0 .5-.15.89-.46 1.2-.31.3-.75.5-1.34.6l-.11.01v.28l.11.01c.67.1 1.16.3 1.49.6.32.31.48.7.49 1.2 0 .73-.27 1.27-.8 1.67-.55.4-1.32.6-2.34.6-.95 0-1.72-.14-2.3-.42l-.05.12h.13v-.93h-.13l-.06.12a5.5 5.5 0 0 0 2.4.55c.75 0 1.33-.14 1.73-.43.4-.3.62-.73.61-1.27 0-.52-.24-.95-.69-1.21a3.8 3.8 0 0 0-1.93-.4H128v-.58h.97c.81 0 1.44-.14 1.87-.43.43-.28.66-.7.65-1.19 0-.42-.17-.78-.49-1.03a2.02 2.02 0 0 0-1.27-.37 3.9 3.9 0 0 0-2.32.71l.08.12.1-.08-.48-.7-.11.08.08.11a4.44 4.44 0 0 1 2.66-.81c.81 0 1.44.17 1.88.51.45.34.66.78.66 1.36h.27c0-.65-.26-1.19-.77-1.57a3.3 3.3 0 0 0-2.04-.57 4.7 4.7 0 0 0-2.82.87l-.1.07.56.8.07.1.1-.06c.4-.26.76-.43 1.08-.53.33-.1.7-.14 1.1-.14.48 0 .84.1 1.1.31.27.2.4.46.4.82 0 .42-.17.72-.54.97-.36.25-.94.38-1.72.38h-1.23v1.12h1.29c.81 0 1.41.13 1.8.36.38.23.55.53.56.98 0 .47-.17.8-.5 1.05-.34.25-.86.38-1.58.38a5.45 5.45 0 0 1-2.29-.52l-.19-.09v1.23l.08.03c.62.3 1.43.45 2.41.45a4.1 4.1 0 0 0 2.49-.66c.6-.44.91-1.08.91-1.87 0-.56-.19-1.04-.57-1.4a2.88 2.88 0 0 0-1.63-.67l-.02.13h.13v-.04h-.13l.02.13a2.6 2.6 0 0 0 1.49-.68c.36-.35.54-.83.54-1.38h-.13Z" fill="#fff"/>
</svg>
