<svg width="180" height="54" fill="none" xmlns="http://www.w3.org/2000/svg">
  <path d="M173.33 54H6.67A6.73 6.73 0 0 1 0 47.25V6.75C0 3.04 3 0 6.67 0h166.66A6.73 6.73 0 0 1 180 6.75v40.5c0 3.71-3 6.75-6.67 6.75Z" fill="#000"/>
  <path d="m27.63 26.22-14.2 15.26a3.84 3.84 0 0 0 5.65 2.35l.05-.03 15.97-9.33-7.48-8.25Z" fill="#EA4335"/>
  <path d="m41.98 23.63-.01-.02-6.9-4.05-7.77 7 7.8 7.9 6.86-4a3.89 3.89 0 0 0 2.02-3.43c0-1.47-.8-2.75-2-3.4Z" fill="#FBBC04"/>
  <path d="M13.43 12.52a3.7 3.7 0 0 0-.13 1v26.96c0 .35.04.68.13 1L28.1 26.62l-14.68-14.1Z" fill="#4285F4"/>
  <path d="m27.73 27 7.34-7.44-15.96-9.37a3.85 3.85 0 0 0-5.69 2.33L27.73 27Z" fill="#34A853"/>
  <path d="M141.25 38.67h2.49V22h-2.5v16.67ZM163.65 28l-2.84 7.23h-.09L157.76 28h-2.68l4.44 10.1-2.53 5.62h2.6L166.41 28h-2.76Zm-14.1 8.77c-.82 0-1.95-.4-1.95-1.41 0-1.29 1.41-1.78 2.63-1.78 1.1 0 1.61.23 2.28.56a3.02 3.02 0 0 1-2.96 2.63Zm.3-9.13c-1.8 0-3.67.8-4.44 2.55l2.2.92c.48-.92 1.36-1.22 2.28-1.22 1.29 0 2.6.77 2.62 2.14v.18a5.5 5.5 0 0 0-2.6-.65c-2.38 0-4.8 1.31-4.8 3.76 0 2.23 1.95 3.66 4.14 3.66a3.5 3.5 0 0 0 3.17-1.63h.09v1.29h2.4v-6.4c0-2.95-2.21-4.6-5.06-4.6Zm-15.38 2.4h-3.54v-5.72h3.54a2.89 2.89 0 0 1 2.92 2.86 2.9 2.9 0 0 1-2.92 2.85Zm-.06-8.04h-5.96v16.67h2.48v-6.32h3.48c2.75 0 5.47-2 5.47-5.18 0-3.18-2.72-5.17-5.47-5.17ZM101.9 36.78c-1.72 0-3.16-1.44-3.16-3.42 0-2 1.44-3.46 3.16-3.46 1.7 0 3.03 1.46 3.03 3.46 0 1.98-1.33 3.42-3.03 3.42Zm2.86-7.84h-.09a3.93 3.93 0 0 0-2.98-1.27 5.64 5.64 0 0 0-5.44 5.7c0 3.17 2.6 5.64 5.44 5.64 1.35 0 2.42-.6 2.98-1.29h.09v.82c0 2.17-1.16 3.33-3.03 3.33a3.14 3.14 0 0 1-2.86-2.02l-2.17.9a5.4 5.4 0 0 0 5.03 3.35c2.92 0 5.39-1.72 5.39-5.9V28h-2.36v.93Zm4.08 9.73h2.49V22h-2.5v16.67Zm6.16-5.5a3.11 3.11 0 0 1 2.97-3.31c.99 0 1.82.5 2.1 1.2l-5.07 2.1Zm7.74-1.9c-.48-1.26-1.92-3.6-4.86-3.6-2.92 0-5.35 2.3-5.35 5.67 0 3.18 2.4 5.67 5.63 5.67 2.6 0 4.1-1.59 4.73-2.51l-1.94-1.3a3.24 3.24 0 0 1-2.79 1.58 2.88 2.88 0 0 1-2.75-1.72l7.58-3.14-.25-.64Zm-60.41-1.86v2.4h5.75a5.02 5.02 0 0 1-1.3 3.03 5.9 5.9 0 0 1-4.45 1.76A6.32 6.32 0 0 1 56 30.2a6.32 6.32 0 0 1 10.65-4.68l1.7-1.7a8.39 8.39 0 0 0-6.03-2.42 8.93 8.93 0 0 0-8.94 8.8 8.93 8.93 0 0 0 8.94 8.81c2.62 0 4.6-.86 6.14-2.47 1.59-1.59 2.08-3.82 2.08-5.63a7.8 7.8 0 0 0-.13-1.5h-8.1Zm14.77 7.37c-1.72 0-3.2-1.42-3.2-3.44 0-2.04 1.48-3.44 3.2-3.44 1.72 0 3.2 1.4 3.2 3.44 0 2.02-1.48 3.44-3.2 3.44Zm0-9.11a5.59 5.59 0 0 0-5.7 5.67 5.6 5.6 0 0 0 5.7 5.67 5.6 5.6 0 0 0 5.69-5.67 5.59 5.59 0 0 0-5.7-5.67Zm12.41 9.1c-1.71 0-3.2-1.41-3.2-3.43 0-2.04 1.49-3.44 3.2-3.44 1.72 0 3.2 1.4 3.2 3.44 0 2.02-1.48 3.44-3.2 3.44Zm0-9.1a5.59 5.59 0 0 0-5.69 5.67 5.6 5.6 0 0 0 5.7 5.67 5.6 5.6 0 0 0 5.69-5.67 5.59 5.59 0 0 0-5.7-5.67ZM55.2 14.46c-.33 0-.5.15-.5.46 0 .31.17.46.5.46.32 0 .48-.15.48-.46 0-.3-.16-.46-.49-.46Zm-1.66-3.49c0-1.84 1.15-2.76 3.46-2.76 2.3 0 3.44.92 3.44 2.76v4.8c0 .15-.15.23-.46.23-.3 0-.46-.08-.46-.22v-4.8c0-1.28-.84-1.93-2.52-1.93-1.68 0-2.53.65-2.53 1.92v3.24l.06-.09c.2-.2.46-.29.8-.29.71 0 1.06.32 1.06.95l.02.21c0 .67-.4 1-1.22 1.01-1.1-.03-1.65-.7-1.65-2.02v-3Z" fill="#fff"/>
  <path d="M55.2 14.46v-.13a.64.64 0 0 0-.46.15.58.58 0 0 0-.17.44c0 .18.05.33.17.44.11.11.27.16.45.16s.34-.05.46-.16a.6.6 0 0 0 .16-.44.58.58 0 0 0-.16-.44.64.64 0 0 0-.46-.15v.27c.14 0 .23.03.27.07.05.05.08.12.08.25s-.03.2-.08.25c-.04.05-.13.08-.27.08s-.22-.03-.27-.08c-.05-.04-.08-.12-.08-.25s.03-.2.08-.25c.05-.04.13-.07.27-.07v-.14Zm-1.66-3.49h.13c0-.9.28-1.53.82-1.97.54-.43 1.37-.66 2.51-.66 1.13 0 1.96.23 2.5.66.53.44.8 1.08.8 1.97v4.8l-.03.05a.7.7 0 0 1-.29.05.72.72 0 0 1-.29-.05l-.04-.04v-4.8c0-.67-.22-1.2-.68-1.55a3.21 3.21 0 0 0-1.97-.5c-.86 0-1.52.15-1.97.5-.46.34-.7.88-.69 1.54v3.67l.3-.44-.1-.08.09.1c.16-.17.38-.25.7-.25.34 0 .57.07.7.2.15.13.23.32.23.61l.02.22h.13-.13c0 .3-.1.5-.26.64-.17.14-.44.22-.83.23V16v-.13c-.52-.02-.89-.18-1.14-.48-.24-.3-.38-.77-.38-1.4v-3.02h-.27v3.01c0 .68.14 1.2.45 1.58.3.37.76.56 1.34.57.42 0 .76-.09 1-.29.24-.2.35-.49.35-.85l-.01-.22-.14.01h.14c0-.34-.1-.62-.31-.8-.22-.2-.52-.28-.9-.28-.35 0-.66.1-.88.33l-.08.1.11.08h.14v-3.24c0-.6.2-1.03.58-1.33.38-.3.99-.45 1.81-.45.83 0 1.43.16 1.8.45.4.3.58.72.59 1.33v4.8c0 .13.08.25.19.3.1.05.24.06.4.06.17 0 .3-.01.4-.07.11-.04.2-.16.2-.28v-4.8c0-.95-.3-1.7-.91-2.18-.61-.5-1.5-.73-2.67-.73s-2.07.24-2.68.73c-.61.48-.92 1.23-.92 2.17h.14Zm9.62-1.14c0-.31-.16-.47-.47-.47-.31 0-.47.16-.47.47 0 .32.16.48.47.48.31 0 .47-.16.47-.48ZM64.68 16c-.28 0-.42-.08-.42-.23v-5.43c0-.7-.25-1.09-.75-1.15.2.19.29.4.29.64 0 .8-.32 1.19-.97 1.19l-.2.01c-.69 0-1.03-.42-1.04-1.26.03-1.04.55-1.56 1.58-1.56 1.29 0 1.93.71 1.93 2.15v5.4c0 .16-.14.24-.42.24Z" fill="#fff"/>
  <path d="M63.16 9.83h.14a.62.62 0 0 0-.16-.45.6.6 0 0 0-.45-.16.6.6 0 0 0-.45.16.62.62 0 0 0-.15.45c0 .18.04.34.15.46a.6.6 0 0 0 .45.16.6.6 0 0 0 .45-.16.62.62 0 0 0 .16-.46h-.27c0 .14-.03.22-.08.27-.05.05-.12.08-.26.08s-.21-.03-.26-.08c-.04-.05-.08-.13-.08-.27s.04-.21.08-.26c.05-.05.12-.08.26-.08s.21.03.26.08c.05.05.08.12.08.26h.13ZM64.68 16v-.13a.56.56 0 0 1-.25-.04l-.04-.06v-5.43c0-.37-.06-.67-.2-.89a.87.87 0 0 0-.66-.4l-.4-.04.29.28c.17.17.24.34.25.54 0 .38-.08.64-.22.8-.13.17-.32.25-.62.25l-.22.02.01.13v-.13c-.31 0-.52-.1-.66-.27-.15-.18-.23-.46-.24-.87h-.13.13c.02-.49.15-.84.38-1.07.23-.23.58-.35 1.07-.35.62 0 1.06.17 1.35.5.29.32.44.82.44 1.52v5.4l-.03.07a.53.53 0 0 1-.25.04v.26c.15 0 .27-.02.38-.07l.17-.3v-5.4c0-.74-.16-1.31-.52-1.7-.35-.4-.87-.59-1.54-.59-.53 0-.96.14-1.26.43-.3.3-.44.72-.45 1.26 0 .45.1.8.3 1.04.2.24.5.37.86.36l.22-.01v-.13.13c.34 0 .63-.11.82-.34.19-.24.27-.56.27-.98a.98.98 0 0 0-.33-.73l-.09.1-.01.12a.6.6 0 0 1 .46.28c.1.15.16.4.16.74v5.43l.18.29c.1.05.23.07.38.07V16Zm3.78-2.73a.47.47 0 0 0-.34-.13.51.51 0 0 0-.37.14c-.1.09-.15.2-.15.33 0 .14.05.25.15.34.1.08.22.12.37.12a.5.5 0 0 0 .35-.12c.1-.09.14-.2.14-.34l-.02-.02a.43.43 0 0 0-.13-.32Zm.62 1.77a4.18 4.18 0 0 0 1.79.01c.33-.05.63-.14.9-.27a1.6 1.6 0 0 0 .91-1.51v-2.15a1.74 1.74 0 0 0-.88-1.57 2.89 2.89 0 0 0-.87-.34 4.46 4.46 0 0 0-2.45.15c-.24.1-.45.24-.62.4a1 1 0 0 0-.3.46c-.02.12-.17.19-.46.2h-.02c-.27 0-.4-.1-.4-.3 0-.21.11-.46.33-.74.22-.3.49-.52.81-.69a4 4 0 0 1 1.08-.37 5.79 5.79 0 0 1 2.43.04c.43.1.8.28 1.14.5a2.61 2.61 0 0 1 1.11 2.2v2.28a2.34 2.34 0 0 1-1.14 2.09c-.34.2-.73.35-1.16.44-.44.09-.87.13-1.3.13a4.9 4.9 0 0 1-2.25-.64c-.3-.17-.55-.4-.75-.67-.2-.27-.3-.6-.3-1 0-.37.1-.68.32-.92s.52-.4.9-.45c.29 0 .53.05.72.14.18.09.33.2.45.33.1.14.19.28.23.43a1.38 1.38 0 0 1-.16 1.18c-.15.21-.4.35-.74.4.16.1.39.18.68.24Z" fill="#fff"/>
  <path d="m68.46 13.27.1-.1a.6.6 0 0 0-.44-.16.65.65 0 0 0-.47.17.57.57 0 0 0-.18.43c0 .17.06.33.19.44a.71.71 0 0 0 .9 0 .59.59 0 0 0 .18-.44v-.06l-.05-.05-.1.1h.14a.56.56 0 0 0-.18-.42l-.09.1-.1.09.1.22v.06l.05.05.1-.1h-.14l-.1.25-.25.09a.4.4 0 0 1-.29-.1l-.1-.23.1-.23a.4.4 0 0 1 .29-.1l.25.09.09-.1Zm.62 1.77-.03.13a4.56 4.56 0 0 0 2.78-.28c.28-.14.52-.34.7-.6.19-.27.28-.62.28-1.02v-2.15a1.88 1.88 0 0 0-.94-1.68 3.03 3.03 0 0 0-.91-.36 4.58 4.58 0 0 0-2.52.16c-.27.1-.49.25-.67.44-.18.18-.3.34-.33.5l-.06.06a.78.78 0 0 1-.28.04v.14-.14h-.02l-.22-.05-.05-.12c0-.15.1-.38.3-.65.21-.28.47-.49.77-.65.31-.16.66-.28 1.04-.36a5.63 5.63 0 0 1 2.37.04c.42.1.79.27 1.1.49a2.4 2.4 0 0 1 1.07 2.08v2.28a2.2 2.2 0 0 1-1.1 1.98c-.32.2-.69.34-1.1.42-.44.08-.86.13-1.29.13a4.78 4.78 0 0 1-2.18-.62 2.2 2.2 0 0 1-.7-.64 1.51 1.51 0 0 1-.28-.91c0-.35.1-.62.3-.84.19-.22.45-.35.8-.4l-.01-.14v.14c.27 0 .5.04.66.12.17.08.3.18.4.3.1.12.17.24.2.38.05.14.07.28.07.4h.13-.13c-.01.26-.08.47-.2.67-.12.17-.32.29-.65.34l-.36.05.3.19c.19.12.43.2.73.26l.03-.13.03-.13c-.29-.05-.5-.13-.64-.23l-.07.12.02.13c.37-.05.66-.2.82-.46.16-.23.24-.5.25-.8 0-.16-.02-.32-.06-.48a1.24 1.24 0 0 0-.26-.49c-.13-.15-.3-.27-.5-.36a1.9 1.9 0 0 0-.77-.15h-.02c-.4.06-.74.22-.98.5-.23.26-.35.6-.35 1 0 .42.1.78.32 1.08.21.29.48.53.79.7l.07-.11-.07.11a5.05 5.05 0 0 0 2.31.66c.45 0 .89-.04 1.33-.13a3.6 3.6 0 0 0 1.2-.46c.36-.21.65-.5.88-.86.23-.37.34-.82.34-1.34v-2.28a2.65 2.65 0 0 0-1.17-2.3 3.53 3.53 0 0 0-1.2-.53 5.68 5.68 0 0 0-2.48-.04c-.4.08-.77.2-1.11.38-.34.18-.63.42-.86.73-.23.3-.35.56-.35.81 0 .13.05.26.15.34.1.07.23.1.38.1h.03c.15 0 .27-.02.37-.07l.22-.24a.9.9 0 0 1 .26-.38c.15-.15.34-.28.58-.37.23-.1.48-.17.74-.2a4.36 4.36 0 0 1 1.62.05c.3.07.58.18.83.33.25.15.44.34.6.58.14.23.21.52.21.87v2.15c0 .36-.08.65-.23.87-.15.22-.35.4-.6.52s-.54.21-.86.26c-.33.05-.64.08-.93.08-.26 0-.53-.03-.81-.09l-.03.13Zm8.76-.31c0-.24-.1-.36-.32-.36s-.33.12-.33.36.1.36.33.36c.22 0 .32-.12.32-.36Zm-3.1-9.82-.06.18c0 .12.08.25.25.4l1.92 1.9.87.76v.02c-.53.14-.86.32-.99.55-.12.23-.2.47-.2.72v4.43c0 .48.05.72.13.74.05-.54.36-.8.93-.8.57 0 .86.28.87.84-.03.9-.42 1.35-1.17 1.35-1.06 0-1.61-.71-1.67-2.13V9.46c.01-.3.08-.59.2-.86.12-.28.24-.46.34-.56L74.2 6.06c-.29-.3-.43-.62-.43-.98.01-.36.13-.65.33-.88a1.4 1.4 0 0 1 1.98.02l.71.72c.66.7 1.17 1.05 1.53 1.05l.13-.02v.77c-.16.04-.3.07-.43.07a.97.97 0 0 1-.39-.08c-.23-.09-.72-.5-1.45-1.23l-.56-.55c-.14-.19-.3-.28-.44-.28s-.29.08-.43.24Z" fill="#fff"/>
  <path d="M77.84 14.73h.14a.53.53 0 0 0-.12-.36.45.45 0 0 0-.34-.14.45.45 0 0 0-.35.14.52.52 0 0 0-.12.36c0 .14.04.26.12.36.09.1.21.14.35.13.13 0 .26-.03.34-.13a.5.5 0 0 0 .12-.36h-.27l-.05.18-.14.05-.15-.05-.05-.18.05-.18.15-.05.14.05.05.18h.13Zm-3.1-9.82-.12-.05-.07.18v.05c0 .18.11.34.28.5l.1-.1-.1.1 1.93 1.9.87.76.1-.1h-.14v.02h.13l-.03-.13c-.55.14-.91.33-1.07.62-.14.24-.21.5-.23.77v4.44c0 .24.02.43.05.57l.05.17.14.13.15.04.01-.16c.03-.24.1-.4.23-.51.12-.1.3-.17.57-.17.27 0 .44.06.55.17.11.11.18.28.19.54h.13-.13c-.02.43-.12.73-.28.92-.17.2-.4.3-.76.3-.5 0-.85-.16-1.1-.48-.26-.33-.4-.83-.43-1.53h-.14.14v-4.4h-.14.14c0-.28.07-.55.18-.8.12-.27.23-.45.32-.53l.1-.1-2.06-2.06-.1.09.1-.1c-.27-.27-.4-.56-.4-.88h-.13.13c.02-.32.12-.58.3-.79l-.1-.09.1.1a1.26 1.26 0 0 1 1.79.02l.09-.1-.1.1.72.71.1-.09-.1.1c.67.7 1.17 1.07 1.62 1.08l.14-.02-.01-.13h-.14v.77h.14l-.04-.13c-.15.04-.28.06-.4.06a.85.85 0 0 1-.33-.06 6.97 6.97 0 0 1-1.41-1.2l-.55-.55-.1.1.1-.09c-.15-.2-.33-.34-.54-.34-.2 0-.37.12-.53.3l-.02.01v.02l.12.05.1.1c.13-.16.24-.21.33-.21.09 0 .2.06.34.23v.01l.56.55a6.79 6.79 0 0 0 1.5 1.26l.05-.12-.05.12c.14.06.28.09.44.09.14 0 .3-.03.46-.07l.1-.03V5.82l-.28.03.02.14v-.14c-.27.01-.78-.31-1.43-1l-.71-.72a1.53 1.53 0 0 0-2.16-.02H74c-.24.26-.36.59-.37.96 0 .4.16.77.47 1.08l1.96 1.98.1-.1-.1-.09c-.13.12-.24.32-.37.6-.13.3-.2.6-.21.91v4.42c.03.73.18 1.29.49 1.68.3.39.75.59 1.31.58.4 0 .73-.12.96-.38.22-.26.33-.63.34-1.1 0-.3-.08-.56-.26-.73a1.04 1.04 0 0 0-.74-.25c-.3 0-.56.07-.75.24a1 1 0 0 0-.31.7h.13l.03-.13-.01.08.05-.06-.04-.02-.01.08.05-.06a2.13 2.13 0 0 1-.07-.64h-.13.13V9.45h-.13.13c.01-.22.07-.44.2-.65.08-.17.38-.36.9-.5l.1-.02V8.1l-.92-.8-1.92-1.9c-.16-.13-.21-.25-.2-.3h-.14l.12.05.07-.18-.12-.05Zm8.39 3.95c-.2.01-.3.11-.32.3 0 .2.12.3.36.3h.02l.24-.02c-.02-.39-.12-.58-.3-.58ZM80.56 9.9c.25 0 .37-.17.37-.51 0-.33-.12-.5-.37-.5s-.37.17-.37.5c0 .34.12.5.37.5Zm3.79 3.69c0 1.6-.81 2.41-2.43 2.41-1.57 0-2.35-.78-2.35-2.35 0-.9.23-1.7.68-2.4.15-.24.28-.47.38-.68-.7-.01-1.06-.4-1.06-1.18 0-.78.36-1.17 1.08-1.18.73 0 1.09.4 1.09 1.18 0 .67-.21 1.37-.63 2.1a4.34 4.34 0 0 0-.62 2.16c0 .96.48 1.44 1.44 1.44 1.01 0 1.52-.5 1.52-1.49v-3.45l-.26.02c-.62 0-.93-.33-.93-.99 0-.65.29-.97.87-.97.53 0 .9.23 1.07.69a2.96 2.96 0 0 1 1.7-.7c1.24.02 1.87.65 1.87 1.91v5.59c0 .2-.15.3-.45.3-.3 0-.46-.1-.46-.32v-5.59c0-.64-.33-.97-.98-.97a2.2 2.2 0 0 0-1.47.53l-.06.16v3.78Z" fill="#fff"/>
  <path d="m83.13 8.86-.02-.14a.44.44 0 0 0-.43.43c0 .13.04.26.14.34.1.07.22.1.35.1h.02l.38-.02v-.13c-.01-.2-.04-.37-.1-.5a.37.37 0 0 0-.34-.22h-.01V9l.1.08c.04.06.07.2.08.38h.13V9.3l-.25.01-.2-.04-.04-.12h-.13.13c.03-.12.04-.14.2-.17l-.01-.13ZM80.56 9.9v.13c.15 0 .3-.06.38-.18a.76.76 0 0 0 .12-.46.75.75 0 0 0-.12-.45.46.46 0 0 0-.38-.18c-.16 0-.3.06-.39.18a.76.76 0 0 0-.12.45c0 .18.03.34.12.46s.23.18.39.18v-.27l-.17-.07c-.04-.05-.07-.15-.07-.3s.03-.25.07-.3l.17-.07.17.08c.04.04.07.14.07.29 0 .15-.03.25-.07.3l-.17.07v.14Zm3.79 3.69h-.13c0 .78-.2 1.34-.57 1.71-.37.37-.94.57-1.73.57-.76 0-1.3-.2-1.67-.55-.36-.36-.55-.9-.55-1.67 0-.88.23-1.65.67-2.34.15-.24.28-.47.38-.69l.09-.19h-.2c-.34 0-.56-.1-.7-.25-.15-.17-.24-.42-.24-.79 0-.37.09-.63.24-.79.15-.16.37-.25.71-.26v-.13.13c.34 0 .57.1.72.26.15.16.23.42.23.79 0 .64-.2 1.32-.6 2.04a4.45 4.45 0 0 0-.65 2.22c0 .5.13.9.4 1.17.28.27.68.4 1.18.4.53 0 .94-.13 1.23-.4.29-.29.42-.7.42-1.22v-3.59l-.4.03v.13-.13a.85.85 0 0 1-.6-.2c-.12-.14-.19-.35-.19-.66 0-.3.07-.51.18-.64.12-.13.29-.2.56-.2.5 0 .78.2.94.6l.07.17.14-.1a2.83 2.83 0 0 1 1.61-.67c.6 0 1.03.16 1.31.44.28.29.44.72.44 1.34v5.58l-.05.11c-.04.03-.13.06-.27.06a.54.54 0 0 1-.27-.06l-.06-.13h-.13.13v-5.59c0-.34-.09-.62-.29-.82-.2-.2-.48-.28-.82-.28-.6 0-1.12.19-1.56.56l-.02.02-.07.19-.01.02v3.8h.26V9.84l.05-.13-.12-.05.09.1c.39-.33.84-.5 1.38-.5.3 0 .5.08.64.21.13.13.2.33.2.63v5.6c0 .13.07.26.18.34.11.08.26.1.42.1.17 0 .3-.02.42-.1.1-.07.17-.2.17-.33V10.1c0-.65-.17-1.16-.52-1.51-.34-.35-.85-.52-1.5-.53a3.1 3.1 0 0 0-1.77.72l.08.1.12-.04c-.18-.5-.62-.78-1.2-.78-.3 0-.57.1-.75.3-.17.19-.25.47-.25.81 0 .35.09.64.27.83.19.2.47.3.8.3l.12-.01v3.3c0 .48-.12.8-.34 1.02-.22.22-.56.34-1.04.34-.46 0-.78-.12-.98-.33-.21-.2-.33-.52-.33-.98 0-.68.2-1.37.6-2.09a4.4 4.4 0 0 0 .65-2.17c0-.4-.1-.74-.3-.97a1.26 1.26 0 0 0-.92-.35c-.38 0-.7.12-.9.35-.22.23-.31.56-.31.97 0 .4.09.73.3.96.2.23.51.34.89.35v-.13l-.12-.06c-.1.2-.22.43-.37.66-.47.73-.7 1.56-.7 2.48 0 .8.2 1.43.62 1.86.43.42 1.06.62 1.86.62.83 0 1.48-.2 1.92-.64.43-.43.64-1.08.64-1.9h-.13Zm6.83 1.83c.33 0 .5-.16.5-.47 0-.32-.17-.47-.5-.47-.35 0-.52.15-.52.47 0 .31.17.47.52.47Zm3.6.58c-.26 0-.54-.09-.82-.27-.28-.18-.5-.5-.7-.93a2.38 2.38 0 0 0-.69-1 1.65 1.65 0 0 0-.9-.36l-.18-.01c-.62 0-.97.22-1.04.65.2-.2.42-.29.67-.29.84.1 1.26.41 1.26.97l.01.21c0 .68-.44 1.02-1.34 1.03-1.1-.03-1.65-.62-1.65-1.78.1-1.12.8-1.69 2.12-1.69h.1c.54.07 1.02.22 1.43.46.4.24.74.64.98 1.2.25.57.5.85.76.85.4 0 .6-.14.6-.4v-4.1c0-.94-.79-1.41-2.37-1.41h-.19c-1.67 0-2.51.4-2.51 1.19 0 .14-.16.21-.46.21-.3 0-.46-.07-.46-.21 0-1.4 1.15-2.11 3.45-2.11 2.3 0 3.45.77 3.45 2.33v4.1c0 .9-.5 1.36-1.51 1.36Z" fill="#fff"/>
  <path d="M91.18 15.42v.13c.19 0 .35-.04.47-.15a.6.6 0 0 0 .17-.45.6.6 0 0 0-.17-.45.67.67 0 0 0-.47-.16.68.68 0 0 0-.48.16.59.59 0 0 0-.17.45c0 .18.05.34.17.45.12.1.29.15.48.15v-.26c-.15 0-.25-.04-.3-.09-.05-.04-.08-.12-.08-.25 0-.14.03-.21.08-.26.05-.05.15-.08.3-.08s.24.03.29.08c.04.05.08.12.08.26 0 .13-.04.2-.08.25-.05.05-.14.09-.3.09v.13Zm3.6.58v-.13c-.23 0-.48-.08-.75-.25a1.81 1.81 0 0 1-.64-.87 2.48 2.48 0 0 0-.74-1.05c-.3-.24-.63-.37-.98-.4h-.17c-.65-.01-1.1.25-1.19.76l-.07.4.3-.29a.8.8 0 0 1 .58-.24v-.14l-.01.13c.4.05.7.15.88.29.17.14.25.3.26.55l.01.22h.13-.13c0 .3-.1.5-.28.65-.2.15-.5.23-.93.24V16v-.13c-.52-.02-.9-.16-1.14-.43-.24-.26-.38-.66-.38-1.22h-.13.13c.05-.53.24-.9.56-1.16.32-.26.79-.4 1.43-.4h.1v-.13l-.02.14c.53.06.99.2 1.38.44.38.22.7.6.93 1.14.26.57.51.9.88.92.21 0 .39-.03.53-.12a.47.47 0 0 0 .2-.42v-4.1c.01-.5-.22-.91-.65-1.16A3.71 3.71 0 0 0 93.02 9h-.19c-.85 0-1.49.1-1.94.3-.45.21-.71.57-.7 1.02l-.05.04a.73.73 0 0 1-.28.04.75.75 0 0 1-.29-.04l-.04-.04c0-.67.26-1.14.8-1.47a4.86 4.86 0 0 1 2.52-.5 4.44 4.44 0 0 1 2.52.55c.53.37.8.9.8 1.64v4.1c0 .43-.12.72-.34.92-.21.2-.56.3-1.04.3v.27c.52 0 .94-.11 1.22-.37.3-.26.43-.65.43-1.13v-4.1c0-.8-.31-1.44-.92-1.85-.62-.41-1.5-.6-2.67-.6a5.2 5.2 0 0 0-2.66.54c-.6.37-.93.96-.92 1.7 0 .12.08.24.19.28.1.05.23.06.4.06.16 0 .29-.01.4-.06.1-.04.2-.16.19-.28 0-.35.17-.58.55-.77.4-.19 1-.29 1.83-.29h.19c.78 0 1.35.12 1.71.34a1 1 0 0 1 .53.93v4.1l-.1.2a.71.71 0 0 1-.37.07c-.15.02-.4-.2-.63-.76-.26-.58-.6-1-1.04-1.26a3.76 3.76 0 0 0-1.49-.48h-.11a2.5 2.5 0 0 0-1.6.45c-.39.3-.6.77-.65 1.35v.01c0 .6.14 1.08.45 1.41.3.33.76.5 1.33.51.47 0 .83-.09 1.09-.29.26-.2.39-.5.39-.87l-.02-.22h-.13.13c0-.3-.12-.57-.36-.75a2.02 2.02 0 0 0-1.01-.34h-.01c-.3 0-.56.11-.78.32l.1.1.13.02c.07-.35.31-.53.91-.54v-.13.13h.17v-.12.13c.29.02.56.13.83.34.26.2.48.51.65.94.2.46.44.8.75 1 .3.18.6.28.9.28V16Zm4.98-1.54c-.33 0-.49.15-.49.46 0 .31.16.46.49.46.32 0 .48-.15.48-.46 0-.3-.16-.46-.48-.46Zm-1.66-3.49c0-1.84 1.16-2.76 3.47-2.76 2.29 0 3.44.92 3.44 2.76v4.8c0 .15-.16.23-.46.23-.31 0-.47-.08-.47-.22v-4.8c0-1.28-.83-1.93-2.51-1.93-1.69 0-2.53.65-2.53 1.92v3.24l.06-.09c.2-.2.46-.29.8-.29.7 0 1.06.32 1.06.95l.01.21c0 .67-.4 1-1.21 1.01-1.1-.03-1.66-.7-1.66-2.02v-3Z" fill="#fff"/>
  <path d="M99.76 14.46v-.13a.64.64 0 0 0-.46.15.58.58 0 0 0-.16.44c0 .18.05.33.16.44.12.11.28.16.46.16s.34-.05.45-.16a.6.6 0 0 0 .17-.44.59.59 0 0 0-.17-.44.64.64 0 0 0-.45-.15v.27c.14 0 .22.03.27.07.05.05.08.12.08.25s-.03.2-.08.25c-.05.05-.13.08-.27.08-.15 0-.23-.03-.27-.08-.05-.04-.08-.12-.08-.25s.03-.2.08-.25c.04-.04.12-.07.27-.07v-.14Zm-1.66-3.49h.14c0-.9.27-1.53.81-1.97.54-.43 1.38-.66 2.52-.66 1.13 0 1.96.23 2.5.66.53.44.8 1.08.8 1.97v4.8l-.04.05a.69.69 0 0 1-.28.05.72.72 0 0 1-.3-.05l-.03-.04v-4.8c0-.67-.23-1.2-.68-1.55a3.2 3.2 0 0 0-1.97-.5c-.86 0-1.52.15-1.98.5-.46.34-.69.88-.68 1.54v3.67l.3-.44-.1-.08.08.1c.17-.17.39-.25.7-.25.34 0 .57.07.72.2.14.13.22.32.22.61l.01.22h.13-.13c0 .3-.09.5-.26.64-.16.14-.44.22-.82.23V16v-.13c-.53-.02-.9-.18-1.14-.48-.25-.3-.38-.77-.38-1.4v-3.02h-.27v3.01c0 .68.14 1.2.44 1.58.3.37.77.56 1.34.57.43 0 .77-.09 1-.29.24-.2.36-.49.36-.85l-.02-.22-.13.01h.13c0-.34-.1-.62-.3-.8-.22-.2-.52-.28-.9-.28-.36 0-.66.1-.88.33H99l-.07.1.1.08h.14v-3.24c0-.6.2-1.03.58-1.33.39-.3 1-.45 1.82-.45.82 0 1.42.16 1.8.45.39.3.58.72.58 1.33v4.8c0 .13.08.25.2.3.1.05.23.06.4.06a.8.8 0 0 0 .4-.07c.11-.04.2-.16.19-.28v-4.8c0-.95-.3-1.7-.9-2.18-.62-.5-1.5-.73-2.67-.73s-2.07.24-2.68.73c-.62.48-.92 1.23-.92 2.17h.13Zm10.55 3.73c0 .24.1.36.33.36.22 0 .33-.12.33-.37 0-.24-.11-.36-.33-.36-.22 0-.33.12-.33.36Zm-1.59-4.62c0-.22.04-.4.11-.55.07-.14.15-.26.23-.36l.3-.27.44-.32.55-.33.28-.2.1-.2-.08-.15-.16-.03c-.1 0-.29.06-.56.18-.28.12-.48.19-.62.19a.8.8 0 0 1-.65-.28c-.16-.2-.3-.5-.4-.95a6.46 6.46 0 0 0-.5-1.47 4.06 4.06 0 0 0-.85-.9l.67-.68a3.5 3.5 0 0 1 1.1 1.4l.16.43a6.58 6.58 0 0 1 .33 1.22l.1.22.18.1c.1 0 .26-.06.48-.19.23-.12.45-.18.69-.18.23 0 .46.08.7.24.22.17.34.4.34.71 0 .22-.05.4-.14.54-.1.15-.21.28-.35.4-.13.11-.28.22-.45.33a13.94 13.94 0 0 0-.87.6.56.56 0 0 0-.22.4v3.89c0 .48.04.72.12.74.05-.54.35-.8.93-.8.57 0 .86.28.87.84-.03.9-.42 1.35-1.17 1.35-1.06 0-1.61-.71-1.66-2.13v-3.79Z" fill="#fff"/>
  <path d="M108.65 14.7h-.13c0 .13.03.26.11.36.09.1.22.13.35.13.13 0 .26-.04.34-.13.09-.1.12-.23.12-.37a.52.52 0 0 0-.12-.36.45.45 0 0 0-.34-.13.45.45 0 0 0-.35.13.52.52 0 0 0-.11.36h.26l.05-.18.15-.04.14.04.05.18-.05.19-.14.04-.15-.04-.05-.19h-.13Zm-1.59-4.62h.14c0-.21.03-.37.09-.49.07-.13.14-.24.21-.33l-.1-.09.1.1.3-.27-.1-.1.08.1c.12-.08.26-.19.44-.3l-.08-.12.07.12.24-.15.31-.18.29-.2.02-.03.12-.23.03-.06-.14-.26-.23-.06h-.02c-.15 0-.34.08-.62.2-.26.12-.46.17-.56.17a.67.67 0 0 1-.55-.23 2.25 2.25 0 0 1-.37-.9 6.49 6.49 0 0 0-.52-1.5 4.12 4.12 0 0 0-.87-.94l-.09.1.1.1.66-.67-.1-.1-.07.11a3.4 3.4 0 0 1 1.06 1.33l.15.43c.03.05.06.18.11.37.05.16.1.32.13.48l.09.37.11.24.02.04.22.11.03.02h.03c.15 0 .32-.08.55-.2.2-.11.4-.17.62-.17.2 0 .4.07.61.22.2.14.3.33.3.6 0 .2-.05.35-.13.47-.08.13-.19.25-.31.36-.13.12-.28.22-.44.32a16.12 16.12 0 0 0-.88.62.7.7 0 0 0-.27.5v3.89c0 .24.01.43.03.56l.05.18.14.13.15.04.01-.16c.02-.24.1-.4.22-.51.13-.1.31-.17.58-.17.26 0 .44.06.55.17.11.11.18.28.19.54h.13-.14c0 .43-.11.73-.28.92-.16.2-.4.3-.75.3-.5 0-.85-.16-1.1-.48-.25-.33-.4-.83-.42-1.53h-.14.14v-3.78h-.27v3.79c.02.73.17 1.29.48 1.68.3.39.75.59 1.3.58.4 0 .74-.12.97-.38.22-.26.33-.63.34-1.1 0-.3-.09-.56-.26-.73-.18-.17-.44-.25-.74-.25s-.56.07-.75.24a1 1 0 0 0-.31.7h.13l.03-.13-.02.08.06-.05-.04-.03-.02.08.06-.05a2.17 2.17 0 0 1-.05-.64v-3.9h-.14l.14.01.17-.3a4.38 4.38 0 0 1 .85-.59c.18-.1.33-.22.47-.35.15-.12.27-.26.37-.42.11-.17.16-.37.16-.6a.95.95 0 0 0-.4-.82 1.3 1.3 0 0 0-.77-.28c-.26 0-.51.07-.75.2-.21.13-.37.18-.42.17v.14l.06-.12-.14-.08-.08-.18-.12.06.13-.04-.1-.35a6.92 6.92 0 0 0-.12-.5l-.13.04.13-.03a4.3 4.3 0 0 0-.12-.4l-.12.06.13-.05-.16-.43A3.7 3.7 0 0 0 106 3.65l-.09-.06-.74.75-.1.1.1.1c.42.35.7.64.83.86.13.22.3.71.48 1.44.11.45.25.79.43 1 .18.22.45.33.75.33.17 0 .39-.07.67-.2.27-.12.46-.17.52-.17v-.13l-.04.13.1.02.02.03-.06.11-.24.18-.3.19-.24.14h-.01l-.45.32-.3.29h-.01c-.1.12-.18.24-.26.4-.08.16-.12.36-.12.6h.13Zm5.85 4.38c-.32 0-.48.15-.48.46 0 .31.16.46.48.46.32 0 .49-.15.49-.46 0-.3-.17-.46-.49-.46Zm-1.65-3.49c0-1.84 1.15-2.76 3.46-2.76 2.3 0 3.44.92 3.44 2.76v4.8c0 .15-.15.23-.46.23-.3 0-.46-.08-.46-.22v-4.8c0-1.28-.84-1.93-2.52-1.93-1.68 0-2.53.65-2.53 1.92v3.24l.06-.09c.2-.2.46-.29.8-.29.7 0 1.06.32 1.06.95l.02.21c0 .67-.4 1-1.22 1.01-1.1-.03-1.65-.7-1.65-2.02v-3Z" fill="#fff"/>
  <path d="M112.91 14.46v-.13a.64.64 0 0 0-.45.15.59.59 0 0 0-.17.44c0 .18.05.33.16.44.12.11.28.16.46.16s.34-.05.46-.16c.11-.1.16-.26.16-.44a.58.58 0 0 0-.16-.44.64.64 0 0 0-.46-.15v.27c.14 0 .23.03.27.07.05.05.08.12.08.25s-.03.2-.08.25c-.04.05-.13.08-.27.08s-.22-.03-.27-.08c-.05-.04-.08-.12-.08-.25s.03-.2.08-.25c.05-.04.13-.07.27-.07v-.14Zm-1.65-3.49h.13c0-.9.28-1.53.82-1.97.54-.43 1.37-.66 2.51-.66 1.13 0 1.96.23 2.5.66.53.44.8 1.08.8 1.97v4.8l-.03.05a.7.7 0 0 1-.29.05.71.71 0 0 1-.29-.05l-.04-.04v-4.8c0-.67-.22-1.2-.68-1.55a3.2 3.2 0 0 0-1.97-.5c-.86 0-1.52.15-1.97.5-.46.34-.7.88-.7 1.54v3.67l.31-.44-.1-.08.09.1c.16-.17.38-.25.7-.25.34 0 .57.07.7.2.15.13.23.32.23.61l.02.22h.13-.14c0 .3-.08.5-.25.64-.17.14-.44.22-.83.23V16v-.13c-.52-.02-.89-.18-1.14-.48-.24-.3-.38-.77-.38-1.4v-3.02h-.27v3.01c0 .68.14 1.2.45 1.58.3.37.76.56 1.34.57.42 0 .76-.09 1-.29.24-.2.35-.49.35-.85l-.01-.22-.14.01h.14c0-.34-.1-.62-.31-.8-.22-.2-.52-.28-.9-.28-.35 0-.66.1-.88.33l-.08.1.11.08h.14v-3.24c0-.6.2-1.03.58-1.33.38-.3.98-.45 1.81-.45.83 0 1.42.16 1.8.45.4.3.58.72.59 1.33v4.8c0 .13.08.25.19.3.1.05.24.06.4.06.17 0 .3-.01.4-.07.11-.04.2-.16.2-.28v-4.8c0-.95-.3-1.7-.92-2.18-.6-.5-1.5-.73-2.66-.73-1.17 0-2.07.24-2.68.73-.61.48-.92 1.23-.92 2.17h.14Zm6.33-5.59-.02-.1-.23-.18h-.07c-.13.03-.2.11-.2.25v.03c0 .12.05.19.17.2l.2.03h.1l.05-.23Zm-.9.49a.65.65 0 0 1-.22-.51v-.08a.78.78 0 0 1 .32-.59.98.98 0 0 1 .57-.17h.14c.28.04.47.15.57.34.1.18.14.4.14.65v.07c0 .29-.21.63-.6 1.03a2.54 2.54 0 0 0 1.54-.56 3 3 0 0 0 .82-1.28l.83.42a4.3 4.3 0 0 1-.8 1.22 3 3 0 0 1-1.01.59 4.7 4.7 0 0 1-1.58.22h-1.46v-.5c.62-.13 1.05-.34 1.3-.62a1.07 1.07 0 0 1-.56-.23Z" fill="#fff"/>
  <path d="m117.59 5.38.13-.02-.02-.11-.01-.05-.27-.2-.05-.04-.11.01h-.01a.37.37 0 0 0-.32.37l.14.01-.13-.03v.03l-.01.01v.02c-.02.16.12.33.29.34l.2.02h.02l.2-.01.08-.32v-.05l-.13.02-.13-.02-.03.12v.13l.02-.13-.2-.02-.01.13.02-.13-.07-.08h-.13l.13.03v-.03l.01-.01v-.02l.1-.12-.03-.13.02.14.16.11v.06l.14-.03Zm-.9.49.08-.1a.52.52 0 0 1-.17-.41v-.08h-.13l.13.01c.02-.21.1-.36.27-.49l-.08-.1.08.1c.14-.1.3-.14.5-.14v-.14l-.02.14h.15v-.13l-.01.13c.25.03.39.12.47.27.07.15.12.34.12.58v.07h.13-.13c0 .22-.19.55-.57.93l-.26.26.36-.03a2.7 2.7 0 0 0 1.63-.59c.38-.34.67-.79.86-1.34l-.13-.04-.06.12.82.41.06-.11-.12-.06c-.27.56-.53.96-.77 1.18-.24.23-.56.42-.96.56-.39.14-.9.22-1.53.22h-1.33v-.37h-.13l.03.13a2.42 2.42 0 0 0 1.37-.67l.16-.18-.25-.04a.93.93 0 0 1-.49-.2l-.08.1-.1.11c.17.14.38.22.64.26l.02-.13-.1-.1c-.22.26-.63.46-1.23.6l-.1.02v.74h1.59a4.8 4.8 0 0 0 1.63-.24 3 3 0 0 0 1.05-.61c.27-.27.54-.68.83-1.27l.05-.11-1.07-.55-.05.14c-.18.52-.44.93-.78 1.23-.34.3-.82.48-1.48.52l.01.14.1.1c.4-.42.63-.78.64-1.12V5.5c0-.27-.05-.5-.15-.7-.12-.24-.36-.38-.67-.41l-.15-.01c-.25 0-.47.06-.65.2a.9.9 0 0 0-.39.68v.09c0 .24.1.46.27.6v.01l.09-.1Zm7.43 6.16v.03c0 .3.17.45.5.45h.02c.35 0 .53-.17.53-.49 0-.31-.17-.47-.51-.47-.35 0-.53.16-.54.48Zm-.03-2.93c-1.64 0-2.46.37-2.46 1.1 0 .21-.17.31-.53.31-.35 0-.53-.1-.53-.3 0-1.34 1.18-2 3.55-2 2.24 0 3.35.69 3.35 2.07v4.32c0 .92-.5 1.4-1.51 1.4-.7-.02-1.14-.27-1.34-.73-.1-.22-.15-.42-.15-.63 0-.25.07-.49.2-.72.24-.43.36-.66.36-.68-.1.09-.3.13-.6.13h-.05c-.77-.11-1.17-.56-1.2-1.32v-.07c0-.72.44-1.16 1.3-1.3h.01c.91 0 1.43.33 1.56 1 .04.23.06.44.06.64 0 .4-.08.75-.25 1.05-.25.45-.4.84-.4 1.16l-.02.06c0 .3.17.47.52.53h.07c.3 0 .48-.18.51-.55v-4.05c0-.95-.81-1.42-2.45-1.42Z" fill="#fff"/>
  <path d="M124.12 12.03h-.14v.03c0 .17.06.33.18.44.12.1.28.14.46.14h.02c.2 0 .36-.05.49-.16a.6.6 0 0 0 .17-.46.6.6 0 0 0-.17-.45.68.68 0 0 0-.47-.15.7.7 0 0 0-.48.15.62.62 0 0 0-.2.45h.14l.13.02c0-.14.05-.22.1-.27.06-.05.15-.09.3-.09.16 0 .25.04.3.09.05.04.09.12.09.25 0 .14-.04.21-.1.26-.05.05-.14.1-.3.1v.13-.14h-.02c-.15 0-.24-.03-.29-.07-.05-.05-.08-.11-.08-.24v-.03h-.13Zm-.03-2.93v-.14c-.83 0-1.46.1-1.9.3-.44.19-.7.52-.7.95l-.06.1a.7.7 0 0 1-.33.07.72.72 0 0 1-.33-.06l-.07-.11c0-.63.27-1.07.82-1.39a5.42 5.42 0 0 1 2.6-.48c1.1 0 1.92.17 2.44.5.53.33.78.78.78 1.44h.13-.13v4.32c0 .44-.12.74-.34.94-.22.2-.56.32-1.04.33V16v-.13c-.67-.03-1.04-.25-1.22-.65a1.3 1.3 0 0 1 .05-1.23l.27-.5.06-.14.02-.04.02-.07v-.3l-.22.2c-.05.05-.23.1-.52.1h-.04v.13l.02-.13c-.73-.12-1.05-.48-1.08-1.2h-.13.13v-.06c.01-.66.35-1.02 1.18-1.17l-.03-.14v.14h.02c.89 0 1.3.3 1.43.9l.13-.03-.13.02c.04.23.06.43.06.62 0 .38-.08.7-.24.98-.26.46-.4.87-.42 1.22l.13.01-.13-.02v.08c-.02.35.24.6.62.66h.09c.17 0 .34-.05.45-.18a.8.8 0 0 0 .2-.48v-4.07c0-.52-.24-.93-.68-1.18a3.87 3.87 0 0 0-1.9-.38v.27c.8 0 1.39.12 1.76.34a1 1 0 0 1 .55.95v4.05h.13l-.13-.01c-.02.16-.06.27-.12.33s-.14.1-.27.1h-.06v.13l.02-.13c-.3-.07-.4-.17-.4-.4h-.14l.14.01v-.06c.02-.3.15-.67.4-1.1.18-.33.27-.7.27-1.12 0-.2-.02-.43-.07-.66-.14-.75-.75-1.13-1.69-1.12h-.03c-.9.14-1.42.65-1.4 1.44v.07c0 .82.48 1.34 1.3 1.46h.06c.32 0 .54-.04.7-.17l-.1-.1h-.13.11l-.1-.03v.03h.1l-.1-.03-.34.65.11.06-.11-.06a1.57 1.57 0 0 0-.06 1.46l.12-.05-.13.05c.23.52.75.8 1.46.81.53 0 .94-.13 1.23-.39.29-.26.42-.66.42-1.14v-4.32c.01-.73-.3-1.3-.9-1.67a5 5 0 0 0-2.58-.54c-1.2 0-2.1.17-2.73.52-.63.35-.96.91-.95 1.62 0 .14.07.28.2.34.12.07.27.1.46.1.2 0 .34-.03.46-.1.13-.06.2-.2.2-.34 0-.32.16-.54.54-.71.38-.18.98-.27 1.8-.27V9.1Zm6.14.73c0-.31-.16-.47-.47-.47-.31 0-.47.16-.47.47 0 .32.16.48.47.48.31 0 .47-.16.47-.48Zm1.52 6.17c-.28 0-.43-.08-.43-.23v-5.43c0-.7-.24-1.09-.74-1.15.2.19.29.4.29.64 0 .8-.33 1.19-.97 1.19l-.2.01c-.69 0-1.03-.42-1.04-1.26.03-1.04.55-1.56 1.58-1.56 1.28 0 1.92.71 1.92 2.15v5.4c0 .16-.13.24-.41.24Z" fill="#fff"/>
  <path d="M130.23 9.83h.13a.63.63 0 0 0-.15-.45.61.61 0 0 0-.45-.16.6.6 0 0 0-.45.16.63.63 0 0 0-.16.45c0 .18.05.34.16.46a.6.6 0 0 0 .45.16.6.6 0 0 0 .45-.16.63.63 0 0 0 .15-.46h-.26c0 .14-.04.22-.08.27-.05.05-.13.08-.26.08-.14 0-.21-.03-.26-.08-.04-.05-.08-.13-.08-.27s.04-.21.08-.26c.05-.05.12-.08.26-.08s.21.03.26.08c.04.05.08.12.08.26h.13Zm1.52 6.17v-.13a.56.56 0 0 1-.25-.04l-.04-.06v-5.43c0-.37-.06-.67-.21-.89a.86.86 0 0 0-.66-.4l-.38-.04.28.28c.17.17.24.34.24.54 0 .38-.07.64-.2.8-.14.17-.33.25-.63.25l-.22.02.01.13v-.13c-.31 0-.52-.1-.66-.27-.15-.18-.23-.46-.24-.87h-.13.13c.02-.49.15-.84.38-1.07.23-.23.58-.35 1.07-.35.62 0 1.05.17 1.34.5.3.32.45.82.45 1.52v5.4l-.03.07a.53.53 0 0 1-.25.04v.26c.15 0 .27-.02.38-.07l.17-.3v-5.4c0-.74-.17-1.31-.52-1.7-.35-.4-.88-.59-1.54-.59-.54 0-.96.14-1.26.43-.3.3-.44.72-.45 1.26 0 .45.1.8.29 1.04.2.24.5.37.87.36l.22-.01v-.13.13c.34 0 .63-.11.82-.34.19-.24.27-.56.27-.98a1 1 0 0 0-.33-.73l-.09.1-.02.12a.6.6 0 0 1 .47.28c.1.15.16.4.16.74v5.43l.18.29c.1.05.23.07.38.07V16Zm3.53-1.06c0-.27-.15-.41-.44-.41-.3 0-.44.14-.44.41 0 .28.15.42.44.42.3 0 .44-.14.44-.42Zm-.47-6.08c-.28 0-.41.1-.41.3 0 .2.09.32.28.35h.1a.9.9 0 0 0 .5-.17c-.04-.29-.2-.45-.47-.48Zm1.39 5.97c-.03.72-.47 1.11-1.31 1.17-.75-.01-1.15-.38-1.2-1.1.08-.6.37-.95.89-1.07l.26-.02a.8.8 0 0 1 .44.11v-3.68l-.43.05c-.77-.06-1.15-.42-1.15-1.08 0-.64.35-.98 1.06-1 .64 0 1.12.24 1.44.74.75-.47 1.5-.72 2.24-.74 1.64.04 2.53.66 2.65 1.86v5.69c0 .16-.15.24-.45.24-.31 0-.47-.1-.47-.29V10.1c0-.6-.58-.95-1.73-1.03a4.7 4.7 0 0 0-1.63.43c-.32.18-.52.32-.61.41v4.93Z" fill="#fff"/>
  <path d="M135.28 14.94h.13c0-.16-.04-.3-.15-.4a.59.59 0 0 0-.42-.14.6.6 0 0 0-.42.14c-.1.1-.15.24-.15.4 0 .16.04.3.15.41.1.1.25.14.42.14.16 0 .31-.04.42-.14.1-.1.15-.25.15-.41h-.27l-.06.22a.41.41 0 0 1-.24.06c-.13 0-.2-.03-.24-.06l-.06-.22.06-.21c.04-.04.11-.07.24-.07s.2.03.24.07l.06.21h.14Zm-.47-6.08v-.13a.65.65 0 0 0-.39.1.4.4 0 0 0-.16.33c-.01.24.16.46.4.48h.11a1 1 0 0 0 .58-.19l.07-.04-.01-.09a.62.62 0 0 0-.6-.59v.13l-.02.14c.23.03.31.1.35.36l.14-.02-.08-.11a.8.8 0 0 1-.42.15v.13-.13h-.1v.13l.01-.14c-.13-.03-.15-.05-.16-.21l.04-.11c.04-.03.11-.05.24-.05v-.14Zm1.39 5.97h-.13c-.02.33-.12.57-.31.73a1.4 1.4 0 0 1-.88.3V16v-.13c-.35-.01-.6-.1-.76-.25-.17-.16-.27-.39-.29-.73h-.13l.13.03c.08-.56.31-.84.78-.96l-.03-.13.01.14.26-.02-.01-.14v.14c.17 0 .29.03.36.08l.2.15v-4.1l-.14.02-.42.06.01.13.01-.13a1.28 1.28 0 0 1-.78-.28.87.87 0 0 1-.25-.67c0-.3.08-.5.23-.64.14-.13.37-.22.7-.23v-.13.13c.6 0 1.03.22 1.33.68l.07.1.11-.06c.73-.46 1.45-.7 2.17-.72v-.13.13c1.62.05 2.4.62 2.52 1.75l.13-.02h-.13v5.69l-.04.06a.64.64 0 0 1-.28.05.56.56 0 0 1-.28-.05l-.06-.1v-5.63a.94.94 0 0 0-.5-.83 2.9 2.9 0 0 0-1.35-.33h-.03c-.78.1-1.34.24-1.68.44-.32.19-.52.32-.64.44l-.03.04v4.98h.26V9.9h-.13l.1.1c.06-.08.26-.22.57-.4.28-.16.82-.3 1.59-.4l-.02-.14v.13c.56.04.97.15 1.23.3.26.16.36.34.37.6v5.62c0 .13.06.26.18.33.1.07.25.1.42.1a.9.9 0 0 0 .4-.08c.11-.05.2-.17.19-.3v-5.7c-.13-1.28-1.12-1.96-2.78-1.99h-.01c-.78.03-1.55.28-2.31.76l.07.12.11-.08c-.34-.53-.88-.8-1.55-.8-.38.02-.68.11-.89.3-.2.2-.3.5-.3.84 0 .36.1.65.33.86.22.21.54.32.94.35h.03l.42-.05-.01-.13h-.14v3.68h.14l.07-.1a.88.88 0 0 0-.51-.14l-.27.02h-.02c-.57.13-.92.56-.99 1.18v.02c.03.39.15.7.38.91.22.21.55.32.94.32h.01c.45-.03.8-.15 1.05-.37s.38-.54.4-.92h-.14Z" fill="#fff"/>
</svg>
