<svg id="artwork" xmlns="http://www.w3.org/2000/svg" version="1.1" viewBox="0 0 239 70.9">
  <defs>
    <style>
      .st4{fill:#fff}
    </style>
  </defs>
  <rect width="239.1" height="70.8" rx="8.8" ry="8.8"/>
  <path class="st4" d="M120.7 38.5c-4.2 0-7.6 3.2-7.6 7.6s3.4 7.5 7.6 7.5 7.5-3.2 7.5-7.5-3.4-7.6-7.5-7.6Zm0 12.1c-2.3 0-4.3-1.9-4.3-4.6s2-4.5 4.3-4.5 4.2 1.8 4.2 4.5-2 4.6-4.2 4.6Zm-16.5-12c-4.2 0-7.6 3-7.6 7.5s3.4 7.5 7.6 7.5 7.5-3.2 7.5-7.5-3.4-7.6-7.5-7.6Zm0 12c-2.3 0-4.3-1.9-4.3-4.6s2-4.5 4.3-4.5 4.2 1.8 4.2 4.5-2 4.6-4.2 4.6Zm-19.7-9.8V44h7.7a6.6 6.6 0 0 1-1.7 4 7.8 7.8 0 0 1-6 2.4 8.3 8.3 0 0 1-8.3-8.5 8.4 8.4 0 0 1 14.1-6.2l2.3-2.3A11.8 11.8 0 0 0 72.7 42c0 6.5 5.4 11.7 11.8 11.7a10.5 10.5 0 0 0 11-10.7c0-.8 0-1.5-.2-2H84.5Zm80.3 2.5c-.6-1.7-2.6-4.8-6.5-4.8s-7 3-7 7.6c0 4.2 3.1 7.5 7.4 7.5 3.5 0 5.5-2.1 6.3-3.3l-2.6-1.8c-.8 1.3-2 2.1-3.7 2.1s-2.9-.8-3.6-2.3l10-4.1-.3-.9Zm-10.3 2.5c0-2.9 2.3-4.4 4-4.4 1.2 0 2.4.7 2.7 1.6l-6.7 2.8Zm-8.2 7.3h3.3V31h-3.3v22ZM141 40.2h-.1a5.2 5.2 0 0 0-4-1.7c-3.7 0-7.2 3.3-7.2 7.6s3.5 7.5 7.2 7.5c1.8 0 3.2-.8 4-1.7h.1v1c0 3-1.5 4.5-4 4.5-2 0-3.3-1.5-3.8-2.7l-2.9 1.2c.8 2 3 4.5 6.7 4.5 3.9 0 7.1-2.3 7.1-7.9V39h-3v1.2Zm-3.8 10.4c-2.3 0-4.2-1.9-4.2-4.5s2-4.6 4.2-4.6 4 2 4 4.6-1.7 4.5-4 4.5ZM180.3 31h-8v22h3.4v-8.4h4.6c3.7 0 7.3-2.6 7.3-6.8S184 31 180.3 31Zm0 10.6h-4.6V34h4.7c2.4 0 3.8 2.1 3.8 3.8s-1.4 3.8-3.8 3.8Zm20.5-3.1c-2.4 0-4.9 1-5.9 3.4l3 1.2c.6-1.2 1.7-1.7 3-1.7 1.6 0 3.4 1 3.4 2.9v.2a8 8 0 0 0-3.4-.8c-3.2 0-6.4 1.7-6.4 5 0 3 2.6 4.8 5.5 4.8 2.2 0 3.4-1 4.2-2.1h.1V53h3.2v-8.5c0-4-3-6.1-6.7-6.1Zm-.4 12.1c-1 0-2.6-.5-2.6-1.9 0-1.7 1.9-2.3 3.5-2.3 1.5 0 2.1.3 3 .7a4 4 0 0 1-4 3.5ZM219 39l-3.8 9.6-4-9.6h-3.6l6 13.4-3.4 7.4h3.4l9.1-20.8H219Zm-29.6 14h3.3V31h-3.3v22Z"/>
  <path d="m36.7 34.4-18.9 20a5 5 0 0 0 7.5 3l21.3-12.2-10-10.8Z" style="fill:#ea4335"/>
  <path d="m55.8 31-9.2-5.3-10.3 9.1 10.3 10.4 9.2-5.3a5 5 0 0 0 0-9Z" style="fill:#fbbc04"/>
  <path d="m17.8 16.4-.2 1.3v35.4l.2 1.3L37.3 35 17.8 16.4Z" style="fill:#4285f4"/>
  <path d="m36.8 35.4 9.8-9.7-21.2-12.3a5.1 5.1 0 0 0-7.6 3l19 19Z" style="fill:#34a853"/>
  <path class="st4" d="M77 14.6c-.7 0-1.4.2-2 .5s-1.1.8-1.4 1.5a5 5 0 0 0-.5 2.6c0 .8 0 1.6.3 2.2s.6 1.1 1 1.5a3 3 0 0 0 2 .5h.5l.6-.2-.2-1h-.4l-.4.1c-.5 0-.9-.1-1.2-.4a2 2 0 0 1-.7-1l-.2-1.7c0-.8.1-1.4.3-2s.4-.8.8-1.1 1-.4 1.6-.4c.7 0 1.3.2 1.7.6.4.4.5.9.5 1.6v5.4h1.4v-5.4a3 3 0 0 0-1-2.4 4 4 0 0 0-2.7-.9Zm6.3 0-1 .1a5 5 0 0 0-.7.3l.2 1 .5-.2.6-.1c.4 0 .6 0 .8.2s.2.4.2.8v6.6h1.4v-6.8c0-.7-.2-1.1-.6-1.4-.4-.3-.9-.5-1.5-.5Zm9.7.9-1.4-.7a7.2 7.2 0 0 0-4.6.4v1.2a6.3 6.3 0 0 1 2.9-.7c.6 0 1 .1 1.5.3.4.2.7.5 1 1 .2.5.3 1.1.3 2 0 1.2-.2 2.1-.7 2.6s-1 .7-1.9.7c-.6 0-1.2-.2-1.5-.4s-.6-.6-.6-1v-.4l.1-.2L87 20l-.2.3v.5c0 .6.1 1 .4 1.4.3.4.8.7 1.3 1a5.3 5.3 0 0 0 3.8-.2c.6-.3 1-.7 1.4-1.4s.5-1.5.5-2.6c0-.9-.1-1.6-.4-2.2l-.8-1.3Zm5.3 6.8H98c-.3 0-.4 0-.6-.2s-.1-.3-.1-.5v-6.5c0-.3 0-.7-.2-1l-.4-.6-.6-.6-.4-.4a.7.7 0 0 1-.2-.5v-.2l.3-.4h3v-1.1h-2.4c-.8 0-1.3.1-1.7.4s-.5.8-.5 1.2c0 .3 0 .6.2.8l.4.6c.1.2.4.3.6.4l.4.6.2.7v6.7c0 .7.2 1.1.5 1.4s.8.3 1.2.3h.5l.6-.2-.2-1h-.3Zm9.4-7.4a2 2 0 0 0-1-.3l-1.2.3c-.4.1-.6.3-.8.6l-.4-.5-.5-.4-1 .7.6.6.1.8v4.2c0 1-.4 1.4-1.2 1.4-.4 0-.7-.1-.9-.4s-.3-.6-.3-1v-6.1h-1.3v6c0 .8.2 1.4.6 1.9s1 .7 2 .7 1.5-.2 1.9-.7a3 3 0 0 0 .5-1.9v-3.7c0-.2 0-.5.2-.7 0-.2.2-.3.4-.5s.4-.2.7-.2c.4 0 .6.1.8.4.2.2.3.5.3 1v6.2h1.3v-6.5c0-.4 0-.8-.2-1.2s-.4-.5-.7-.7Zm6.7 10.1h-.8c-.3 0-.6-.3-.9-.4l-1-.1a2 2 0 0 0-1.1.3c-.3.2-.5.5-.5 1l.1.3.2.4h1.2v-.3l-.1-.2c0-.3.1-.5.4-.5.3 0 .5 0 .8.2l.8.3.9.1c.5 0 1-.1 1.3-.4v-1l-.6.3a3 3 0 0 1-.7 0Zm-.5-10.4c-.9 0-1.6.2-2.2.5s-1 .8-1.4 1.5c-.3.7-.5 1.5-.5 2.6 0 .8.1 1.6.4 2.2s.5 1.1 1 1.5a3 3 0 0 0 1.9.5h.6l.6-.2-.2-1h-.4l-.4.1c-.5 0-1-.1-1.2-.4a2 2 0 0 1-.7-1l-.2-1.7c0-.8 0-1.4.3-2s.4-.8.8-1.1 1-.4 1.5-.4c.8 0 1.4.2 1.8.6s.5.9.5 1.6v5.4h1.4v-5.4a3 3 0 0 0-1-2.4 4 4 0 0 0-2.7-.9Zm11.3 5.5c0 .7-.2 1.2-.5 1.6-.3.4-.8.6-1.4.6-.3 0-.6 0-1-.2l-.7-.6c-.1-.3-.3-.7-.3-1.2v-5.5H120v6.9c0 .2 0 .4-.2.5l-.4.1h-.6l-.2.9a3.9 3.9 0 0 0 1.2.2c.4 0 .8 0 1-.3.2-.1.3-.3.3-.6h.1l1 .7 1.3.2c.7 0 1.2 0 1.7-.3.4-.3.8-.6 1-1 .3-.6.4-1.1.4-1.8v-5.5h-1.4v5.4Zm4.6-6.7h4.4v-1h-4c-.3 0-.5-.1-.6-.3a.6.6 0 0 1-.2-.4v-.3l.1-.3h-1.1a2 2 0 0 0-.3 1c0 .5.1.8.4 1 .3.2.7.3 1.2.3Zm4 6.7c0 .7-.2 1.2-.5 1.6-.4.4-.8.6-1.5.6-.4 0-.7-.1-1-.3-.3-.1-.5-.4-.7-.7s-.2-.6-.2-1v-4c0-.5-.1-1-.4-1.2s-.6-.5-1.1-.5a3.9 3.9 0 0 0-1.2.2l.2 1 .3-.1h.3l.4.1.2.5v4.1a3 3 0 0 1-.9 2.2l1 .8.4-.6.4-.7c.4.4.8.8 1.2 1s.9.3 1.4.3c.7 0 1.2-.1 1.7-.4s.8-.7 1-1.1c.3-.5.4-1.1.4-1.8v-5.4h-1.4v5.4Zm9.1.4c0 .4 0 .7-.3 1s-.4.5-.7.6l-1.3.2c-.5 0-1 0-1.3-.2-.3-.2-.6-.3-.7-.6l-.3-.9c0-.5.2-.8.5-1 .3-.3.8-.4 1.4-.4h.7v-1h-.7l-.9-.1-.7-.4c-.2-.2-.3-.5-.3-.8s.1-.7.4-.9c.2-.2.5-.3 1-.3a3.4 3.4 0 0 1 1 .2l.2-1a3.4 3.4 0 0 0-1.4-.3c-.6 0-1 .1-1.5.3s-.6.5-.8.8-.2.7-.2 1c0 .4 0 .8.2 1l.6.6.6.4-.6.3-.6.6-.2 1.1c0 .9.3 1.6 1 2 .5.5 1.4.7 2.6.7.8 0 1.5 0 2-.3s1-.5 1.2-1 .5-1 .5-1.7v-8.2h-1.4v8.3Zm6.4 4.1V26c0 .2 0 .3-.2.5l-.6.2-.7-.2a.8.8 0 0 1-.2-.5v-.6c0-.3 0-.5-.2-.6-.2-.2-.5-.3-.8-.3h-.4l-.4.1.1 1 .1-.1c.1-.1.1 0 .2 0h.2v.6c0 .5.2.9.5 1.1.4.3.9.4 1.5.4.7 0 1.2-.1 1.6-.4.3-.3.5-.7.5-1.2v-1.5h-1.2Zm-3.9-13.9h1.4v2.7h-1.4z"/>
</svg>
