<svg width="180" height="54" fill="none" xmlns="http://www.w3.org/2000/svg">
  <path d="M173.3 54H6.7A6.7 6.7 0 0 1 0 47.2V6.8C0 3 3 0 6.7 0h166.6a6.7 6.7 0 0 1 6.7 6.8v40.5c0 3.7-3 6.7-6.7 6.7Z" fill="#000"/>
  <path d="M27.6 26.2 13.4 41.5a3.8 3.8 0 0 0 5.7 2.3l16-9.3-7.5-8.3Z" fill="#EA4335"/>
  <path d="m42 23.6-7-4-7.7 7 7.8 7.9 6.9-4a3.9 3.9 0 0 0 2-3.5 4 4 0 0 0-2-3.4Z" fill="#FBBC04"/>
  <path d="M13.4 12.5a3.7 3.7 0 0 0-.1 1v27l.1 1 14.7-14.9-14.7-14Z" fill="#4285F4"/>
  <path d="m27.7 27 7.4-7.4-16-9.4a3.9 3.9 0 0 0-5.7 2.3L27.7 27Z" fill="#34A853"/>
  <path d="M141.3 38.7h2.4V22h-2.5v16.7ZM163.6 28l-2.8 7.2-3-7.2H155l4.4 10.1-2.5 5.6h2.6l6.8-15.7h-2.8Zm-14 8.8c-.9 0-2-.4-2-1.4 0-1.3 1.4-1.8 2.6-1.8 1.1 0 1.6.2 2.3.5a3 3 0 0 1-3 2.7Zm.3-9.2c-1.8 0-3.7.8-4.5 2.6l2.2 1c.5-1 1.4-1.3 2.3-1.3 1.3 0 2.6.8 2.6 2.1v.2a5.5 5.5 0 0 0-2.6-.6c-2.4 0-4.8 1.3-4.8 3.7 0 2.2 2 3.7 4.2 3.7a3.5 3.5 0 0 0 3.1-1.7h.1v1.3h2.4v-6.4c0-3-2.2-4.6-5-4.6ZM134.5 30h-3.6v-5.7h3.6a2.9 2.9 0 0 1 2.9 2.9 2.9 2.9 0 0 1-3 2.8Zm0-8h-6v16.7h2.4v-6.4h3.5c2.8 0 5.5-2 5.5-5.1 0-3.2-2.7-5.2-5.5-5.2Zm-32.6 14.8c-1.7 0-3.2-1.5-3.2-3.4 0-2 1.5-3.5 3.2-3.5 1.7 0 3 1.5 3 3.5s-1.3 3.4-3 3.4Zm2.9-7.9h-.1a4 4 0 0 0-3-1.2 5.6 5.6 0 0 0-5.5 5.7c0 3.1 2.6 5.6 5.5 5.6a4 4 0 0 0 3-1.3v.8c0 2.2-1.1 3.4-3 3.4a3.1 3.1 0 0 1-2.8-2l-2.2.9a5.4 5.4 0 0 0 5 3.3c3 0 5.4-1.7 5.4-5.9V28h-2.3v1Zm4 9.8h2.5V22h-2.5v16.7Zm6.2-5.5a3.1 3.1 0 0 1 3-3.3c1 0 1.8.5 2 1.2l-5 2Zm7.7-2a5.2 5.2 0 0 0-4.8-3.5c-3 0-5.4 2.3-5.4 5.6 0 3.2 2.4 5.7 5.7 5.7 2.6 0 4-1.6 4.7-2.5l-2-1.3a3.2 3.2 0 0 1-2.7 1.6 2.9 2.9 0 0 1-2.8-1.7l7.6-3.2-.3-.6Zm-60.4-1.8v2.4h5.8a5 5 0 0 1-1.3 3 5.9 5.9 0 0 1-4.5 1.8 6.3 6.3 0 0 1-6.3-6.4 6.3 6.3 0 0 1 10.7-4.7l1.7-1.7a8.4 8.4 0 0 0-6-2.4 9 9 0 0 0-9 8.8 9 9 0 0 0 9 8.8 8 8 0 0 0 6-2.5 8 8 0 0 0 2.1-5.6 7.8 7.8 0 0 0 0-1.5h-8.2Zm14.8 7.4c-1.7 0-3.2-1.4-3.2-3.5 0-2 1.5-3.4 3.2-3.4 1.7 0 3.2 1.4 3.2 3.4s-1.5 3.5-3.2 3.5Zm0-9.1a5.6 5.6 0 0 0-5.7 5.6 5.6 5.6 0 0 0 5.7 5.7 5.6 5.6 0 0 0 5.7-5.7 5.6 5.6 0 0 0-5.7-5.6Zm12.4 9c-1.7 0-3.2-1.3-3.2-3.4 0-2 1.5-3.4 3.2-3.4 1.7 0 3.2 1.4 3.2 3.4s-1.5 3.5-3.2 3.5Zm0-9a5.6 5.6 0 0 0-5.7 5.6 5.6 5.6 0 0 0 5.7 5.7 5.6 5.6 0 0 0 5.7-5.7 5.6 5.6 0 0 0-5.7-5.6ZM55.2 14.5c-.3 0-.5.1-.5.4 0 .3.2.5.5.5s.5-.2.5-.5-.2-.4-.5-.4ZM53.5 11c0-1.9 1.2-2.8 3.5-2.8s3.4 1 3.4 2.8v4.8c0 .1-.1.2-.4.2-.3 0-.5 0-.5-.2V11c0-1.3-.8-2-2.5-2s-2.5.7-2.5 2v3.2c.2-.3.5-.4.8-.4.7 0 1 .4 1 1l.1.2c0 .7-.4 1-1.2 1-1.1 0-1.7-.7-1.7-2v-3Z" fill="#fff"/>
  <path d="M55.2 14.5v-.2a.6.6 0 0 0-.5.2.6.6 0 0 0-.1.4l.1.5.5.1.5-.1a.6.6 0 0 0 .1-.5.6.6 0 0 0-.1-.4.6.6 0 0 0-.5-.2v.3h.3v.6h-.6v-.5l.3-.1v-.1ZM53.5 11h.2c0-1 .3-1.6.8-2 .5-.4 1.4-.7 2.5-.7s2 .3 2.5.7c.5.4.8 1 .8 2v4.8a.7.7 0 0 1-.3 0 .7.7 0 0 1-.3 0V11c0-.7-.3-1.2-.7-1.6a3.2 3.2 0 0 0-2-.5c-.9 0-1.5.2-2 .5-.4.4-.7 1-.7 1.6v3.6l.3-.4c.2-.2.4-.2.7-.2.4 0 .6 0 .7.2.2.1.3.3.3.6v.2h.1-.1c0 .3-.1.5-.3.6-.1.2-.4.3-.8.3v.1-.1c-.5 0-.9-.2-1.1-.5-.3-.3-.4-.8-.4-1.4v-3h-.3v3c0 .7.1 1.2.5 1.6.3.3.7.5 1.3.5.4 0 .8 0 1-.3.2-.2.3-.5.3-.8v-.2h-.1.1c0-.4 0-.6-.3-.8-.2-.2-.5-.3-.9-.3l-.9.3v.2h.2V11c0-.6.2-1 .6-1.4.4-.3 1-.4 1.8-.4s1.4.2 1.8.4c.4.3.6.8.6 1.4v4.8c0 .1 0 .2.2.3h.8l.2-.3V11c0-1-.3-1.7-1-2.2-.5-.5-1.4-.7-2.6-.7s-2 .2-2.7.7c-.6.5-.9 1.2-.9 2.2h.1Zm9.7-1.2c0-.3-.2-.4-.5-.4s-.5.1-.5.4c0 .3.2.5.5.5s.5-.2.5-.5Zm1.5 6.2c-.3 0-.4 0-.4-.2v-5.5c0-.7-.3-1-.8-1.1l.3.6c0 .8-.3 1.2-1 1.2h-.2c-.7 0-1-.4-1-1.2 0-1 .5-1.6 1.6-1.6 1.3 0 1.9.7 1.9 2.2v5.4c0 .1-.1.2-.4.2Z" fill="#fff"/>
  <path d="M63.2 9.8h.1a.6.6 0 0 0-.2-.4.6.6 0 0 0-.4-.2.6.6 0 0 0-.5.2.6.6 0 0 0-.1.4l.1.5a.6.6 0 0 0 .5.2.6.6 0 0 0 .4-.2.6.6 0 0 0 .2-.5H63v.3h-.6v-.5l.3-.1h.2l.1.3h.2Zm1.5 6.2v-.1a.6.6 0 0 1-.3 0v-5.6c0-.3 0-.6-.2-.9a.9.9 0 0 0-.7-.4h-.4l.3.3c.2.2.3.3.3.5 0 .4-.1.7-.3.8 0 .2-.3.3-.6.3h-.2v.1-.1c-.3 0-.5-.1-.6-.3-.2-.2-.3-.4-.3-.8h-.1.1c0-.5.2-.9.4-1.1.2-.2.6-.4 1-.4.7 0 1.1.2 1.4.5.3.4.5.9.5 1.6v5.4a.5.5 0 0 1-.3 0v.3h.4l.1-.3v-5.4c0-.8-.1-1.4-.5-1.7-.3-.4-.9-.6-1.5-.6s-1 .1-1.3.4c-.3.3-.4.7-.4 1.3 0 .4 0 .8.3 1 .2.2.5.4.8.4h.2V11v.1c.4 0 .7 0 .9-.3.2-.2.2-.6.2-1a1 1 0 0 0-.3-.7v.1l-.1.1a.6.6 0 0 1 .5.3l.1.7v5.5l.2.3h.4V16Zm3.8-2.7a.5.5 0 0 0-.4-.2.5.5 0 0 0-.3.2l-.2.3.1.3.4.2a.5.5 0 0 0 .4-.2l.1-.3a.4.4 0 0 0-.1-.3ZM69 15a4.2 4.2 0 0 0 1.8 0c.3 0 .6 0 .9-.2a1.6 1.6 0 0 0 .9-1.5V11a1.7 1.7 0 0 0-.9-1.6 2.9 2.9 0 0 0-.9-.3 4.5 4.5 0 0 0-2.4.2 2 2 0 0 0-.6.4 1 1 0 0 0-.3.4c0 .1-.2.2-.5.2s-.4 0-.4-.3c0-.2 0-.4.3-.7l.8-.7a4 4 0 0 1 1.1-.4 5.8 5.8 0 0 1 2.4 0l1.2.6a2.6 2.6 0 0 1 1 2.2v2.2a2.3 2.3 0 0 1-1 2.1l-1.2.5-1.3.1a4.9 4.9 0 0 1-2.3-.6l-.7-.7c-.2-.3-.3-.6-.3-1s0-.7.3-1 .5-.3.9-.4c.3 0 .5 0 .7.2.2 0 .4.2.5.3l.2.4a1.4 1.4 0 0 1-.2 1.2 1 1 0 0 1-.7.4l.7.2Z" fill="#fff"/>
  <path d="M68.5 13.3v-.1a.6.6 0 0 0-.4-.2.7.7 0 0 0-.5.2.6.6 0 0 0-.1.4c0 .2 0 .3.2.4a.7.7 0 0 0 .9 0 .6.6 0 0 0 .1-.4v-.1l-.1.1h.1a.6.6 0 0 0-.1-.4h-.1l-.1.2v.2l.1.1.1-.1h-.1l-.1.3H68a.4.4 0 0 1-.3 0v-.5a.4.4 0 0 1 .3-.1h.3ZM69 15v.2a4.6 4.6 0 0 0 2.7-.3c.3-.1.6-.3.7-.6.2-.3.3-.6.3-1V11a1.9 1.9 0 0 0-1-1.7 3 3 0 0 0-.8-.3 4.6 4.6 0 0 0-2.6.1l-.6.5-.4.5a.8.8 0 0 1-.3 0v.2-.1h-.2V10c0-.1 0-.4.2-.6l.8-.7 1-.4a5.6 5.6 0 0 1 2.4 0l1 .6a2.4 2.4 0 0 1 1.2 2v2.3a2.2 2.2 0 0 1-1.1 2c-.4.2-.7.4-1.1.4L70 16a4.8 4.8 0 0 1-2.2-.6 2.2 2.2 0 0 1-.7-.7 1.5 1.5 0 0 1-.3-.9c0-.3.1-.6.3-.8.2-.3.5-.4.8-.4v-.2.2h.7l.4.4.2.4v.4h.2-.2c0 .2 0 .4-.2.6 0 .2-.3.3-.6.4H68l.3.2.7.3V15h.1l-.6-.3-.1.1v.1c.4 0 .7-.2.8-.4.2-.3.3-.5.3-.8v-.5a1.2 1.2 0 0 0-.3-.5l-.5-.4a1.9 1.9 0 0 0-.8-.1c-.4 0-.8.2-1 .5-.2.2-.4.6-.4 1s.1.8.4 1c.2.4.4.6.8.8v-.1a5 5 0 0 0 2.3.7l1.3-.1a3.6 3.6 0 0 0 1.2-.5c.4-.2.6-.5.9-.8.2-.4.3-.8.3-1.4v-2.2a2.6 2.6 0 0 0-1.2-2.3 3.5 3.5 0 0 0-1.2-.6 5.7 5.7 0 0 0-2.4 0 4 4 0 0 0-1.1.4c-.4.1-.7.4-.9.7l-.4.8.2.3.4.1h.4l.2-.3a.9.9 0 0 1 .3-.3l.5-.4.8-.2a4.4 4.4 0 0 1 1.6 0l.8.4c.3.1.5.3.6.5.2.3.2.6.2 1v2c0 .4 0 .7-.2 1l-.6.5c-.3.2-.5.2-.9.2l-.9.1h-.8Zm8.7-.3c0-.2 0-.3-.3-.3s-.3 0-.3.3 0 .4.3.4c.2 0 .3-.1.3-.4Zm-3-9.8-.1.2.2.4 2 1.9.8.7-1 .6-.2.7V14c0 .4 0 .7.2.7 0-.5.3-.8.9-.8.6 0 .9.3.9.8 0 1-.5 1.4-1.2 1.4-1 0-1.6-.7-1.7-2.1V9.5l.2-.9.4-.6-2-2c-.3-.2-.4-.6-.4-1 0-.3.1-.6.3-.8a1.4 1.4 0 0 1 2 0l.7.7c.6.7 1.2 1 1.5 1h.1v.8l-.4.1a1 1 0 0 1-.4 0l-1.4-1.3-.6-.6-.4-.2c-.1 0-.3 0-.5.2Z" fill="#fff"/>
  <path d="M77.8 14.7h.2a.5.5 0 0 0-.1-.3.5.5 0 0 0-.4-.2.5.5 0 0 0-.3.2.5.5 0 0 0-.2.3c0 .2 0 .3.2.4l.3.1.4-.1a.5.5 0 0 0 0-.4h-.2v.2h-.3v-.3l.1-.1h.2v.2h.1Zm-3-9.8h-.2V5c0 .3 0 .4.2.6l.1-.1 1.9 2 .8.8.1-.2h-.1.1c-.6 0-1 .3-1 .6a1 1 0 0 0-.3.7v5.2l.2.1h.2c0-.3 0-.5.2-.6l.6-.2c.3 0 .4.1.5.2.2.1.2.3.2.5h.2-.2c0 .5 0 .8-.2 1-.2.2-.4.3-.8.3-.5 0-.9-.2-1.1-.5-.3-.3-.4-.8-.4-1.5h-.2.2V9.5h-.2.2l.1-.8.4-.6-2-2.1h-.1.1c-.3-.3-.4-.6-.4-1h-.1.1c0-.2.1-.5.3-.7l-.1-.1.1.1a1.3 1.3 0 0 1 1.8 0l.7.7h.1-.1c.7.7 1.2 1.1 1.6 1.1h.2V6h-.2v.7h.2-.5a.8.8 0 0 1-.3 0 7 7 0 0 1-1.4-1.3l-.6-.5c-.1-.2-.3-.4-.5-.4l-.6.3.2.1V5l.4-.2s.2 0 .3.2l.6.6a6.8 6.8 0 0 0 1.5 1.2l.4.1h.5v-1h-.2c-.3 0-.8-.4-1.4-1l-.7-.8a1.5 1.5 0 0 0-2.2 0c-.2.3-.4.6-.4 1s.2.7.5 1l2 2v-.2a2 2 0 0 0-.4.6l-.2 1v4.4c0 .7.2 1.3.5 1.7.3.3.7.5 1.3.5.4 0 .7 0 1-.4.2-.2.3-.6.3-1s-.1-.6-.3-.8a1 1 0 0 0-.7-.2 1 1 0 0 0-.8.2 1 1 0 0 0-.3.7h.1v-.1h.1a2.1 2.1 0 0 1 0-.6h-.2.1V9.4l.2-.6c.1-.2.4-.4 1-.5V8l-.9-.8L75 5.4c-.2-.1-.2-.3-.2-.3h-.1L75 5h-.2ZM83 9c-.2 0-.3 0-.3.3 0 .2.1.3.4.3h.2c0-.4 0-.6-.3-.6Zm-2.5 1c.2 0 .3-.2.3-.5s0-.5-.3-.5-.4.2-.4.5.1.5.4.5Zm3.8 3.7c0 1.6-.9 2.4-2.5 2.4s-2.3-.8-2.3-2.4c0-.8.2-1.6.7-2.3l.3-.7c-.7 0-1-.4-1-1.2 0-.8.3-1.2 1-1.2.8 0 1.1.4 1.1 1.2 0 .7-.2 1.4-.6 2a4.3 4.3 0 0 0-.6 2.3c0 1 .5 1.4 1.4 1.4 1 0 1.6-.5 1.6-1.5v-3.5h-.3c-.6 0-1-.3-1-1 0-.6.3-.9 1-.9.5 0 .8.2 1 .7a3 3 0 0 1 1.7-.7c1.2 0 1.9.6 1.9 2v5.5c0 .2-.2.3-.5.3s-.4-.1-.4-.3V10c0-.7-.4-1-1-1a2.2 2.2 0 0 0-1.5.5v4Z" fill="#fff"/>
  <path d="M83.1 8.9v-.2a.4.4 0 0 0-.4.4l.1.4h.8l-.1-.6a.4.4 0 0 0-.4-.2V9h.1l.1.5h.1v-.2H83v-.1h-.2.1c0-.2 0-.2.2-.2v-.1Zm-2.5 1v.1l.3-.1a.8.8 0 0 0 .2-.5.8.8 0 0 0-.2-.5.5.5 0 0 0-.3-.1l-.4.1a.8.8 0 0 0-.2.5c0 .2 0 .3.2.5l.4.1v-.2l-.2-.1V9h.3l.1.3v.3h-.2v.2Zm3.8 3.7h-.2c0 .8-.2 1.3-.5 1.7-.4.4-1 .6-1.8.6-.7 0-1.3-.2-1.6-.6-.4-.3-.6-.9-.6-1.7 0-.8.2-1.6.7-2.3l.4-.7v-.2h-.2c-.3 0-.5 0-.7-.2l-.2-.8c0-.4 0-.6.2-.8.2-.2.4-.2.8-.3.3 0 .5.1.7.3l.2.8c0 .6-.2 1.3-.6 2a4.5 4.5 0 0 0-.6 2.2c0 .6 0 1 .4 1.2.2.3.6.4 1.1.4.6 0 1-.1 1.3-.4.3-.3.4-.7.4-1.2V10h-.4v.2-.2a.8.8 0 0 1-.6-.2l-.2-.6c0-.3 0-.5.2-.7l.5-.2c.5 0 .8.2 1 .6v.2h.2a2.8 2.8 0 0 1 1.6-.8c.6 0 1 .2 1.3.5.3.3.4.7.4 1.3v5.7h-.3a.5.5 0 0 1-.2 0l-.1-.1h-.1V10c0-.4 0-.6-.2-.8-.2-.2-.5-.3-.8-.3a3 3 0 0 0-1.6.5v4.1h.2V9.7a2 2 0 0 1 1.4-.4c.3 0 .5 0 .6.2.2.1.2.3.2.6v5.6c0 .1 0 .3.2.3l.4.1h.4l.2-.4v-5.6c0-.7-.2-1.2-.5-1.5-.3-.4-.9-.5-1.5-.5a3.1 3.1 0 0 0-1.8.7h.2c-.2-.5-.6-.7-1.2-.7a1 1 0 0 0-.7.3c-.2.2-.3.4-.3.8 0 .3.1.6.3.8.2.2.5.3.8.3h.1v3.3c0 .5-.1.8-.3 1-.2.2-.6.4-1 .4-.5 0-.8-.2-1-.4-.3-.2-.4-.5-.4-1 0-.6.2-1.3.6-2a4.4 4.4 0 0 0 .7-2.2c0-.4-.1-.8-.3-1a1.3 1.3 0 0 0-1-.3c-.3 0-.6 0-.8.3-.3.2-.4.6-.4 1s.1.7.3 1c.2.2.6.3 1 .3v-.1l-.2-.1-.4.7c-.4.7-.7 1.5-.7 2.4 0 .8.2 1.5.7 1.9.4.4 1 .6 1.8.6a3 3 0 0 0 2-.6c.4-.4.6-1.1.6-2h-.1Zm6.8 1.8c.3 0 .5-.1.5-.5 0-.3-.2-.4-.5-.4-.4 0-.5.1-.5.4 0 .4.1.5.5.5Zm3.6.6c-.3 0-.6 0-.8-.3-.3-.1-.5-.5-.7-.9a2.4 2.4 0 0 0-.7-1 1.6 1.6 0 0 0-1-.4h-.1c-.6 0-1 .3-1 .7.1-.2.4-.3.6-.3.9 0 1.3.4 1.3 1v.2c0 .7-.5 1-1.4 1-1 0-1.6-.6-1.6-1.8.1-1.1.8-1.7 2.1-1.7h.1c.6.1 1 .3 1.4.5.4.2.8.6 1 1.2.3.6.5.8.8.8.4 0 .6-.1.6-.4v-4c0-1-.8-1.5-2.4-1.5h-.2c-1.6 0-2.5.4-2.5 1.2 0 .2-.1.2-.4.2-.3 0-.5 0-.5-.2 0-1.4 1.1-2 3.5-2 2.3 0 3.4.7 3.4 2.2v4.1c0 1-.5 1.4-1.5 1.4Z" fill="#fff"/>
  <path d="M91.2 15.4v.1l.5-.1a.6.6 0 0 0 .1-.5.6.6 0 0 0-.1-.4.7.7 0 0 0-.5-.2.7.7 0 0 0-.5.2.6.6 0 0 0-.2.5c0 .1 0 .3.2.4l.5.1v-.2l-.3-.1-.1-.2v-.3h.7v.5h-.3v.2Zm3.6.6v-.1l-.8-.3a1.8 1.8 0 0 1-.6-.9 2.5 2.5 0 0 0-.8-1c-.2-.2-.6-.4-1-.4h-.1c-.7 0-1.1.2-1.2.8v.4l.2-.3a.8.8 0 0 1 .6-.3v-.1.1c.4 0 .7.2.9.3.2.1.2.3.2.6v.2h.2-.1c0 .3-.1.5-.3.6-.2.2-.5.3-1 .3v.1-.1c-.5 0-.9-.2-1-.5-.3-.2-.5-.6-.5-1.2h-.1.1c0-.5.3-.9.6-1.1.3-.3.8-.4 1.4-.4h.1v-.2.2c.5 0 1 .2 1.4.4.4.2.7.6 1 1.1.2.6.4 1 .8 1 .2 0 .4 0 .5-.2a.5.5 0 0 0 .2-.4v-4c0-.6-.2-1-.6-1.2A3.7 3.7 0 0 0 93 9h-.2a5 5 0 0 0-2 .3c-.4.2-.6.6-.6 1a.7.7 0 0 1-.3.1.8.8 0 0 1-.3 0c0-.8.2-1.2.7-1.6a4.9 4.9 0 0 1 2.5-.5 4.4 4.4 0 0 1 2.6.6c.5.4.8.9.8 1.6v4.1c0 .5-.2.8-.4 1-.2.2-.5.3-1 .3v.2c.5 0 1 0 1.2-.3.3-.3.4-.7.4-1.2v-4c0-.9-.3-1.5-.9-2-.6-.3-1.5-.5-2.7-.5a5.2 5.2 0 0 0-2.6.5c-.6.4-1 1-1 1.7 0 .1.1.3.3.3h.8s.2-.2.1-.3c0-.3.2-.6.6-.7.4-.2 1-.3 1.8-.3h.2c.8 0 1.4 0 1.7.3a1 1 0 0 1 .6 1v4l-.1.2a.7.7 0 0 1-.4.1c-.2 0-.4-.2-.6-.8-.3-.5-.6-1-1-1.2a3.8 3.8 0 0 0-1.6-.5 2.5 2.5 0 0 0-1.7.5c-.4.3-.6.7-.6 1.3 0 .6.1 1 .4 1.4.3.4.8.5 1.3.5s.9 0 1.1-.3c.3-.2.4-.5.4-.8v-.2h-.1.1a1 1 0 0 0-.4-.8 2 2 0 0 0-1-.3c-.3 0-.5 0-.8.3h.1l.2.1c0-.3.3-.5.9-.5v-.2.2h.2v-.2.2l.8.3c.2.2.5.5.6 1 .2.4.5.8.8 1l.9.2V16Zm5-1.5c-.4 0-.5.1-.5.4 0 .3.1.5.5.5.3 0 .4-.2.4-.5s-.1-.4-.4-.4ZM98 11c0-1.9 1.2-2.8 3.5-2.8s3.4 1 3.4 2.8v4.8c0 .1-.1.2-.4.2-.4 0-.5 0-.5-.2V11c0-1.3-.8-2-2.5-2s-2.6.7-2.6 2v3.2h.1c.2-.3.5-.4.8-.4.7 0 1 .4 1 1v.2c0 .7-.3 1-1.1 1-1.1 0-1.7-.7-1.7-2v-3Z" fill="#fff"/>
  <path d="M99.8 14.5v-.2a.6.6 0 0 0-.5.2.6.6 0 0 0-.2.4c0 .2 0 .3.2.5l.5.1.4-.1a.6.6 0 0 0 .2-.5.6.6 0 0 0-.2-.4.6.6 0 0 0-.4-.2v.3h.2l.1.3v.3h-.6v-.5l.3-.1v-.1ZM98 11h.1c0-1 .3-1.6.9-2a4 4 0 0 1 2.5-.7c1.1 0 2 .3 2.5.7.5.4.8 1 .8 2v4.8a.7.7 0 0 1-.4 0 .7.7 0 0 1-.3 0V11c0-.7-.2-1.2-.7-1.6a3.2 3.2 0 0 0-2-.5 4 4 0 0 0-2 .5c-.4.4-.6 1-.6 1.6v3.6l.3-.4c.2-.2.4-.2.7-.2.3 0 .6 0 .7.2l.2.6v.2h.2-.2c0 .3 0 .5-.2.6-.2.2-.5.3-.8.3v.1-.1c-.6 0-1-.2-1.2-.5-.2-.3-.4-.8-.4-1.4v-3H98v3c0 .7.1 1.2.4 1.6.3.3.8.5 1.3.5s.8 0 1-.3c.3-.2.4-.5.4-.8v-.2h-.1c0-.4 0-.6-.2-.8-.2-.2-.5-.3-1-.3-.3 0-.6.1-.8.3v.2h.2V11c0-.6.2-1 .5-1.4.4-.3 1-.4 1.9-.4a4 4 0 0 1 1.8.4c.4.3.5.8.5 1.4v4.8l.2.3h.4a.8.8 0 0 0 .4 0c.2 0 .2-.2.2-.3V11c0-1-.3-1.7-.9-2.2-.6-.5-1.5-.7-2.6-.7s-2.1.2-2.7.7c-.6.5-1 1.2-1 2.2h.2Zm10.6 3.7c0 .2 0 .4.3.4.2 0 .3-.2.3-.4s-.1-.4-.3-.4c-.2 0-.3.2-.3.4Zm-1.6-4.6v-.6l.3-.3.3-.3.4-.3.6-.3.3-.2v-.4h-.2s-.3 0-.5.2l-.7.1a.8.8 0 0 1-.6-.2c-.2-.2-.3-.5-.4-1a6.5 6.5 0 0 0-.5-1.5 4 4 0 0 0-.9-.9l.7-.6a3.5 3.5 0 0 1 1.1 1.4l.2.4a6.6 6.6 0 0 1 .3 1.2l.1.2.2.1.5-.2.7-.1c.2 0 .4 0 .7.2.2.2.3.4.3.7l-.1.5-.4.5-.4.3a14 14 0 0 0-1 .6.6.6 0 0 0-.1.4v4.6c.1-.5.4-.8 1-.8s.9.3.9.8c0 1-.4 1.4-1.2 1.4-1 0-1.6-.7-1.6-2.1V10Z" fill="#fff"/>
  <path d="M108.7 14.7h-.2l.1.4h.7l.1-.4a.5.5 0 0 0 0-.4.5.5 0 0 0-.4-.1.5.5 0 0 0-.4.1.5.5 0 0 0 0 .4h.2v-.2h.3v.4h-.3v-.2h-.1Zm-1.6-4.6h.1v-.5l.3-.3-.1-.1h.1l.3-.2-.1-.1V9c.2 0 .3-.2.5-.3v-.1.1l.2-.2.4-.1.2-.2.2-.3-.1-.3h-.2l-.7.1-.6.2a.7.7 0 0 1-.5-.2 2.3 2.3 0 0 1-.4-1 6.5 6.5 0 0 0-.5-1.4 4.1 4.1 0 0 0-.9-1v.2l.7-.6v-.1h-.2a3.4 3.4 0 0 1 1.1 1.4l.1.4.2.4v.5l.2.3v.3h.1l.2.1.6-.1c.2-.2.4-.2.7-.2.2 0 .4 0 .6.2.2.1.3.3.3.6 0 .2 0 .4-.2.5l-.3.3a3 3 0 0 1-.4.4 16.1 16.1 0 0 0-.9.6.7.7 0 0 0-.3.5v4.4l.1.2.2.1h.1l.2-.6.6-.2.6.2.2.5c0 .5-.2.8-.3 1-.2.2-.4.3-.8.3-.5 0-.8-.2-1-.5-.3-.3-.5-.8-.5-1.5h-.1.1V10h-.3v3.8c0 .7.2 1.3.5 1.6.3.4.8.6 1.3.6.4 0 .8 0 1-.4.2-.2.3-.6.3-1s0-.6-.2-.8c-.2-.2-.5-.2-.8-.2s-.5 0-.7.2a1 1 0 0 0-.3.7l.1-.1a2.2 2.2 0 0 1 0-.6v-4h-.1.1l.2-.2a4.4 4.4 0 0 1 .8-.6l.5-.4c.2 0 .3-.2.4-.4l.1-.6a1 1 0 0 0-.4-.8 1.3 1.3 0 0 0-.7-.3c-.3 0-.5 0-.8.2l-.4.2V7v-.2l-.2-.2v.1-.4a7 7 0 0 0-.2-.5h-.1.1a4.3 4.3 0 0 0-.1-.4h-.1.1l-.2-.4a3.7 3.7 0 0 0-1.1-1.4v-.1l-.8.7-.1.1v.1l.9.9.5 1.4c0 .5.2.8.4 1 .2.3.5.4.8.4l.6-.2.6-.2v-.1.4l-.3.1-.3.2-.2.2-.5.3-.3.3a2 2 0 0 0-.2.4l-.2.6h.2Zm5.8 4.4c-.3 0-.5.1-.5.4 0 .3.2.5.5.5s.5-.2.5-.5-.2-.4-.5-.4Zm-1.6-3.5c0-1.9 1.1-2.8 3.4-2.8s3.5 1 3.5 2.8v4.8c0 .1-.2.2-.5.2s-.5 0-.5-.2V11c0-1.3-.8-2-2.5-2s-2.5.7-2.5 2v3.2c.2-.3.5-.4.8-.4.7 0 1.1.3 1.1 1v.2c0 .7-.4 1-1.2 1-1 0-1.6-.7-1.6-2v-3Z" fill="#fff"/>
  <path d="M113 14.5v-.2a.6.6 0 0 0-.5.2.6.6 0 0 0-.2.4l.1.5.5.1.5-.1.1-.5a.6.6 0 0 0-.1-.4.6.6 0 0 0-.5-.2v.3h.3v.6h-.6v-.5l.3-.1v-.1Zm-1.7-3.5c0-1 .4-1.6 1-2 .4-.4 1.3-.7 2.4-.7 1.1 0 2 .3 2.5.7.5.4.8 1 .8 2v4.8a.7.7 0 0 1-.3 0 .7.7 0 0 1-.3 0V11c0-.7-.3-1.2-.7-1.6a3.2 3.2 0 0 0-2-.5 4 4 0 0 0-2 .5c-.4.4-.7 1-.7 1.6v3.6l.4-.4h-.1c.2-.2.4-.2.7-.2.4 0 .6 0 .7.2.2.1.3.3.3.6v.2h.1-.1c0 .3 0 .5-.3.6-.1.2-.4.3-.8.3v.1-.1c-.5 0-.9-.2-1.1-.5-.3-.3-.4-.8-.4-1.4v-3h-.3v3c0 .7.2 1.2.5 1.6.3.3.7.5 1.3.5.4 0 .8 0 1-.3.2-.2.4-.5.4-.8v-.2h-.2.1c0-.4 0-.6-.3-.8-.2-.2-.5-.3-.9-.3-.3 0-.6.1-.8.3l-.1.1v.1h.2V11c0-.6.2-1 .6-1.4.4-.3 1-.4 1.8-.4s1.4.2 1.8.4c.4.3.6.8.6 1.4v4.8c0 .1 0 .2.2.3h.8l.2-.3V11c0-1-.3-1.7-1-2.2-.5-.5-1.4-.7-2.6-.7-1.2 0-2 .2-2.7.7-.6.5-.9 1.2-.9 2.2h.2Zm6.3-5.6v-.1l-.3-.2c-.2 0-.2.1-.2.3l.1.2h.3v-.2Zm-1 .5a.7.7 0 0 1-.1-.5v-.1a.8.8 0 0 1 .3-.6 1 1 0 0 1 .6-.2h.1c.3 0 .5.2.6.4l.1.6c0 .4-.2.7-.6 1.1a2.5 2.5 0 0 0 1.5-.5 3 3 0 0 0 .9-1.3l.8.4a4.3 4.3 0 0 1-.8 1.2 3 3 0 0 1-1 .6 4.7 4.7 0 0 1-1.6.2H116v-.5c.7-.1 1.1-.3 1.3-.6a1 1 0 0 1-.5-.2Z" fill="#fff"/>
  <path d="M117.6 5.4h.1v-.2l-.3-.2h-.1a.4.4 0 0 0-.4.3h.2-.2c0 .2.2.4.3.4h.4l.1-.3h-.2v.2-.1h-.2l-.1-.1h-.1.1l.1-.2v-.1.1l.2.1v.1Zm-1 .5.2-.1a.5.5 0 0 1-.2-.4v-.1h-.1.1c0-.2.1-.4.3-.5l-.1-.1v.1l.6-.1v-.2.2h.1v-.2.2c.2 0 .4 0 .5.2v.6h.2-.1c0 .3-.2.6-.6 1l-.2.3h.3a2.7 2.7 0 0 0 1.6-.7c.4-.3.7-.7.9-1.3h-.1l.7.5v-.1a4 4 0 0 1-.8 1.1l-1 .6-1.5.2h-1.3v-.4h-.1v.1a2.4 2.4 0 0 0 1.4-.6l.1-.2h-.2a1 1 0 0 1-.5-.2h-.1l-.1.2.6.2V6c-.3.3-.7.5-1.3.6v.8h1.5A4.8 4.8 0 0 0 119 7a3 3 0 0 0 1-.6c.4-.3.6-.7 1-1.3l-1.1-.6v.1c-.2.5-.5 1-.8 1.2a3 3 0 0 1-1.5.6v.1l.1.1c.4-.4.6-.8.6-1.1v-.1l-.1-.7a.8.8 0 0 0-.7-.4h-.1a1 1 0 0 0-.7.2.9.9 0 0 0-.4.7c0 .3.1.5.3.6Zm7.5 6.1c0 .4.2.5.5.5.4 0 .6-.2.6-.5s-.2-.5-.5-.5c-.4 0-.6.2-.6.5Zm0-2.9c-1.6 0-2.5.4-2.5 1.1 0 .2-.1.3-.5.3-.3 0-.5 0-.5-.3 0-1.3 1.2-2 3.5-2s3.4.7 3.4 2v4.4c0 1-.5 1.4-1.5 1.4-.7 0-1.2-.3-1.4-.7l-.1-.7c0-.2 0-.5.2-.7l.3-.7-.6.2c-.8-.1-1.2-.6-1.2-1.4 0-.7.4-1.2 1.3-1.3.9 0 1.4.3 1.5 1l.1.6c0 .4 0 .8-.2 1-.3.5-.4 1-.4 1.2 0 .4.1.6.5.6.3 0 .5-.2.5-.5v-4c0-1-.8-1.5-2.4-1.5Z" fill="#fff"/>
  <path d="M124.1 12h-.1c0 .2 0 .4.2.5l.4.1.5-.1a.6.6 0 0 0 .2-.5.6.6 0 0 0-.2-.4.7.7 0 0 0-.4-.2.7.7 0 0 0-.5.2.6.6 0 0 0-.2.4h.2l.1-.2.3-.1h.3l.1.3v.3h-.4v.2-.1l-.3-.1v-.2h-.2Zm0-2.9V9c-.8 0-1.5 0-2 .3-.3.1-.6.5-.6 1a.7.7 0 0 1-.4 0 .7.7 0 0 1-.3 0h-.1c0-.7.3-1.2.8-1.5a5.4 5.4 0 0 1 2.6-.5c1.1 0 2 .2 2.5.5.5.4.7.8.7 1.5h.2-.2v4.3c0 .4 0 .7-.3 1-.2.1-.6.3-1 .3v.1-.1c-.7 0-1-.3-1.3-.7a1.3 1.3 0 0 1 0-1.2l.4-.5v-.6l-.2.2-.5.1v.2-.2c-.7 0-1-.4-1-1.2h-.2.1c0-.7.4-1 1.2-1.2v-.1.1c.9 0 1.3.3 1.4 1l.1-.1v.6c0 .4-.1.7-.3 1a3 3 0 0 0-.4 1.2h.1c-.1.4.2.7.5.7h.1l.5-.1a.8.8 0 0 0 .2-.5v-4c0-.6-.3-1-.7-1.3a3.9 3.9 0 0 0-1.9-.3v.2c.8 0 1.4.1 1.8.4a1 1 0 0 1 .5 1v4h.1l-.2.3h-.3v.2-.1c-.3 0-.4-.2-.4-.4h-.2.2c0-.4.1-.7.4-1.2.2-.3.2-.7.2-1v-.7c-.2-.8-.8-1.2-1.7-1.2-1 .2-1.5.7-1.4 1.5 0 .9.4 1.4 1.3 1.5.3 0 .6 0 .7-.2h-.2.1-.1.1-.1l-.3.6a1.6 1.6 0 0 0-.1 1.4h.1-.1c.2.5.7.8 1.4.8.6 0 1-.1 1.3-.4.3-.2.4-.6.4-1.1v-4.3c0-.8-.3-1.3-.9-1.7a5 5 0 0 0-2.6-.5c-1.2 0-2 .1-2.7.5-.6.3-1 .9-1 1.6l.2.3.5.1h.5l.2-.4c0-.3.1-.5.5-.7.4-.2 1-.3 1.8-.3v-.1Zm6.1.7c0-.3-.1-.4-.4-.4-.4 0-.5.1-.5.4 0 .3.1.5.5.5.3 0 .4-.2.4-.5Zm1.6 6.2c-.3 0-.5 0-.5-.2v-5.5c0-.7-.2-1-.7-1.1l.3.6c0 .8-.4 1.2-1 1.2h-.2c-.7 0-1-.4-1-1.2 0-1 .5-1.6 1.5-1.6 1.3 0 2 .7 2 2.2v5.4l-.4.2Z" fill="#fff"/>
  <path d="M130.2 9.8h.2a.6.6 0 0 0-.2-.4.6.6 0 0 0-.4-.2.6.6 0 0 0-.5.2.6.6 0 0 0-.2.4l.2.5a.6.6 0 0 0 .5.2.6.6 0 0 0 .4-.2.6.6 0 0 0 .2-.5h-.3v.3h-.6v-.5l.3-.1h.2l.1.3h.1Zm1.6 6.2v-.1a.6.6 0 0 1-.3 0v-5.6l-.2-.9a.9.9 0 0 0-.7-.4h-.4l.3.3c.2.2.2.3.2.5 0 .4 0 .7-.2.8-.1.2-.3.3-.6.3h-.2v.1-.1a1 1 0 0 1-.7-.3l-.2-.8h-.1c.1-.5.2-.9.5-1.1.2-.2.6-.4 1-.4.7 0 1 .2 1.4.5.3.4.4.9.4 1.6v5.4a.5.5 0 0 1-.3 0v.3h.4l.2-.3v-5.4c0-.8-.2-1.4-.5-1.7-.4-.4-.9-.6-1.6-.6-.5 0-1 .1-1.2.4-.3.3-.5.7-.5 1.3 0 .4.1.8.3 1 .2.2.5.4.9.4h.2V11v.1c.3 0 .6 0 .8-.3.2-.2.3-.6.3-1a1 1 0 0 0-.3-.7l-.1.1v.1a.6.6 0 0 1 .4.3l.2.7v5.5l.2.3h.3V16Zm3.5-1c0-.3-.2-.5-.5-.5s-.4.2-.4.4c0 .3.1.5.4.5.3 0 .5-.2.5-.5Zm-.5-6.1c-.3 0-.4 0-.4.3 0 .2 0 .3.3.3a.9.9 0 0 0 .6-.2c0-.3-.2-.4-.5-.4Zm1.4 6c0 .6-.5 1-1.3 1.1-.8 0-1.2-.4-1.2-1.1 0-.6.4-1 .9-1h.2a.8.8 0 0 1 .5 0v-3.7h-.5c-.7 0-1.1-.3-1.1-1 0-.6.3-1 1-1s1.2.2 1.5.7c.7-.4 1.5-.7 2.2-.7 1.7 0 2.6.7 2.7 1.9v5.7c0 .1-.2.2-.5.2s-.4-.1-.4-.3v-5.6c0-.6-.6-1-1.8-1a4.7 4.7 0 0 0-1.6.4l-.6.4v5Z" fill="#fff"/>
  <path d="M135.3 15h.1l-.1-.5a.6.6 0 0 0-.5-.1.6.6 0 0 0-.4.1l-.1.4.1.4.4.2.5-.1.1-.5h-.3v.3a.4.4 0 0 1-.3 0h-.2v-.5h.5v.2h.2Zm-.5-6.1v-.2a.7.7 0 0 0-.4.1.4.4 0 0 0-.1.4c0 .2.1.4.4.4a1 1 0 0 0 .7-.2.6.6 0 0 0-.6-.7V9c.2 0 .3.1.3.4h.2l-.1-.2a.8.8 0 0 1-.4.2v.1-.1h-.1v.1-.1c-.1 0-.2 0-.2-.2V9l.3-.1v-.1Zm1.4 6h-.1c0 .3-.2.5-.3.7a1.4 1.4 0 0 1-1 .3v.1-.1a1 1 0 0 1-.7-.3l-.3-.7h-.1.1c.1-.5.3-.8.8-1h.3l.3.1.2.2V10h-.6v.2-.1a1.3 1.3 0 0 1-.7-.3.9.9 0 0 1-.3-.7c0-.3.1-.5.3-.6.1-.2.3-.3.7-.3.6 0 1 .3 1.3.7V9h.2c.7-.5 1.4-.7 2.1-.8 1.7 0 2.4.7 2.6 1.8v5.7a.6.6 0 0 1-.4 0 .6.6 0 0 1-.2 0h-.1V10a1 1 0 0 0-.5-.8 2.9 2.9 0 0 0-1.4-.4 5 5 0 0 0-1.7.5l-.6.4v5h.2V10h-.1l.1.1.6-.4c.2-.2.8-.3 1.6-.4v-.1c.5.1 1 .2 1.2.4.2.2.3.3.3.6v5.6l.2.3.4.1a.9.9 0 0 0 .4 0l.2-.3V10c-.1-1.3-1-2-2.7-2-.8 0-1.6.3-2.4.7l.1.2.1-.1c-.3-.6-.9-.8-1.5-.8-.4 0-.7 0-1 .3l-.2.8c0 .4 0 .7.3.9.2.2.5.3 1 .3h.4v-.2h-.2V14h.2a.9.9 0 0 0-.5-.2h-.2c-.6.1-1 .6-1 1.2 0 .4.1.7.3 1l1 .2c.4 0 .8-.1 1-.3s.4-.6.4-1h-.1Z" fill="#fff"/>
</svg>
