<svg width="180" height="54" fill="none" xmlns="http://www.w3.org/2000/svg">
  <path d="M173.33 54H6.67A6.73 6.73 0 0 1 0 47.25V6.75C0 3.04 3 0 6.67 0h166.66A6.73 6.73 0 0 1 180 6.75v40.5c0 3.71-3 6.75-6.67 6.75Z" fill="#000"/>
  <path d="m27.63 26.22-14.2 15.26a3.84 3.84 0 0 0 5.65 2.35l.05-.03 15.97-9.33-7.48-8.25Z" fill="#EA4335"/>
  <path d="m41.98 23.63-.01-.02-6.9-4.05-7.77 7 7.8 7.9 6.86-4a3.89 3.89 0 0 0 2.02-3.43c0-1.47-.8-2.75-2-3.4Z" fill="#FBBC04"/>
  <path d="M13.43 12.52a3.7 3.7 0 0 0-.13 1v26.96c0 .35.04.68.13 1L28.1 26.62l-14.68-14.1Z" fill="#4285F4"/>
  <path d="m27.73 27 7.34-7.44-15.96-9.37a3.85 3.85 0 0 0-5.69 2.33L27.73 27Z" fill="#34A853"/>
  <path d="M142.58 40h2.49V23.33h-2.49V40ZM165 29.34l-2.85 7.22h-.09l-2.96-7.22h-2.68l4.44 10.1-2.53 5.61h2.6l6.84-15.71H165Zm-14.1 8.77c-.82 0-1.96-.41-1.96-1.42 0-1.29 1.41-1.78 2.64-1.78 1.1 0 1.6.24 2.27.56a3.02 3.02 0 0 1-2.96 2.64Zm.3-9.14c-1.81 0-3.68.8-4.45 2.55l2.21.93c.47-.93 1.35-1.23 2.27-1.23 1.3 0 2.6.78 2.62 2.15v.17a5.5 5.5 0 0 0-2.6-.64c-2.38 0-4.8 1.3-4.8 3.75 0 2.23 1.95 3.67 4.14 3.67 1.67 0 2.6-.76 3.17-1.63h.09v1.28h2.4v-6.39c0-2.96-2.2-4.6-5.06-4.6Zm-15.38 2.4h-3.54v-5.72h3.53a2.89 2.89 0 0 1 2.92 2.86 2.9 2.9 0 0 1-2.91 2.85Zm-.07-8.04h-5.96V40h2.49v-6.32h3.47c2.76 0 5.47-2 5.47-5.17 0-3.18-2.71-5.18-5.47-5.18Zm-32.5 14.78c-1.72 0-3.16-1.44-3.16-3.42 0-2 1.44-3.45 3.15-3.45 1.7 0 3.03 1.46 3.03 3.45 0 1.98-1.33 3.42-3.03 3.42Zm2.85-7.84h-.1a3.93 3.93 0 0 0-2.98-1.27 5.64 5.64 0 0 0-5.44 5.7c0 3.17 2.6 5.64 5.44 5.64 1.35 0 2.43-.6 2.98-1.28h.09v.81c0 2.17-1.16 3.33-3.03 3.33a3.14 3.14 0 0 1-2.86-2.02l-2.17.9a5.4 5.4 0 0 0 5.03 3.35c2.92 0 5.4-1.71 5.4-5.9V29.35h-2.37v.92Zm4.08 9.73h2.5V23.33h-2.5V40Zm6.17-5.5a3.11 3.11 0 0 1 2.96-3.3c.99 0 1.83.49 2.1 1.2l-5.06 2.1Zm7.73-1.89c-.47-1.27-1.91-3.6-4.85-3.6-2.93 0-5.35 2.29-5.35 5.66 0 3.18 2.4 5.67 5.62 5.67 2.6 0 4.1-1.59 4.73-2.5l-1.93-1.3a3.24 3.24 0 0 1-2.8 1.57 2.89 2.89 0 0 1-2.75-1.72l7.59-3.13-.26-.65Zm-60.41-1.87v2.4h5.76a5.02 5.02 0 0 1-1.32 3.04 5.9 5.9 0 0 1-4.44 1.76 6.32 6.32 0 0 1-6.32-6.4A6.32 6.32 0 0 1 68 26.85l1.7-1.7a8.4 8.4 0 0 0-6.04-2.42 8.93 8.93 0 0 0-8.94 8.8 8.93 8.93 0 0 0 8.94 8.81c2.62 0 4.6-.86 6.14-2.47 1.6-1.59 2.09-3.82 2.09-5.62a7.8 7.8 0 0 0-.13-1.5h-8.1Zm14.77 7.37c-1.72 0-3.2-1.42-3.2-3.44 0-2.04 1.48-3.43 3.2-3.43 1.72 0 3.2 1.4 3.2 3.43 0 2.02-1.48 3.44-3.2 3.44Zm0-9.1a5.59 5.59 0 0 0-5.7 5.66 5.6 5.6 0 0 0 5.7 5.67 5.6 5.6 0 0 0 5.7-5.67 5.59 5.59 0 0 0-5.7-5.67Zm12.42 9.1c-1.72 0-3.2-1.42-3.2-3.44 0-2.04 1.48-3.43 3.2-3.43 1.72 0 3.2 1.4 3.2 3.43 0 2.02-1.48 3.44-3.2 3.44Zm0-9.1a5.59 5.59 0 0 0-5.7 5.66 5.6 5.6 0 0 0 5.7 5.67 5.6 5.6 0 0 0 5.69-5.67 5.59 5.59 0 0 0-5.7-5.67ZM63.22 13.66c0 1.11-.33 2-.99 2.67a3.88 3.88 0 0 1-2.94 1.18c-1.15 0-2.13-.4-2.94-1.2-.81-.8-1.21-1.8-1.21-2.98s.4-2.17 1.2-2.97c.82-.8 1.8-1.2 2.95-1.2.58 0 1.12.1 1.64.33.53.22.94.52 1.26.9l-.7.7a2.7 2.7 0 0 0-2.2-.95c-.84 0-1.57.3-2.18.89a3.03 3.03 0 0 0-.92 2.3c0 .95.3 1.72.92 2.31a3 3 0 0 0 2.18.89c.9 0 1.64-.3 2.24-.9.38-.38.6-.92.67-1.62h-2.9v-.96h3.87c.04.21.05.41.05.6Z" fill="#fff"/>
  <path d="M63.22 13.66h-.13c0 1.09-.32 1.94-.95 2.57a3.75 3.75 0 0 1-2.85 1.15 3.9 3.9 0 0 1-2.85-1.16 3.9 3.9 0 0 1-1.17-2.89c0-1.15.39-2.1 1.17-2.88a3.9 3.9 0 0 1 2.85-1.16 4 4 0 0 1 1.6.32c.5.22.9.5 1.2.86l.1-.09-.1-.1-.7.71.1.1.1-.09c-.56-.66-1.34-1-2.3-1-.87 0-1.64.32-2.27.93a3.2 3.2 0 0 0-.97 2.4c0 .98.32 1.79.97 2.4.63.62 1.4.93 2.27.93.93 0 1.71-.3 2.33-.93.41-.42.65-.99.71-1.7l.01-.15h-2.91v-.7h3.74v-.13l-.13.03c.03.2.05.4.05.58h.27c0-.2-.02-.41-.06-.63l-.02-.1h-4.12v1.22h3.04v-.13l-.14-.02a2.39 2.39 0 0 1-.63 1.54 2.9 2.9 0 0 1-2.14.86 2.9 2.9 0 0 1-2.09-.86 2.93 2.93 0 0 1-.88-2.2c0-.92.3-1.65.88-2.22a2.9 2.9 0 0 1 2.1-.85c.9 0 1.57.3 2.08.9l.1.11.89-.89-.08-.1c-.33-.38-.77-.7-1.3-.92a4.26 4.26 0 0 0-1.7-.35c-1.18 0-2.2.42-3.04 1.24A4.16 4.16 0 0 0 55 13.33a4.2 4.2 0 0 0 1.25 3.08 4.16 4.16 0 0 0 3.04 1.24c1.24 0 2.26-.41 3.04-1.23l-.1-.1.1.1a3.75 3.75 0 0 0 1.03-2.76h-.14Zm2.97.54h2.65l-1.3-3.6h-.05l-1.3 3.6Zm-2.27 3.13 3.01-8h1.17l3.01 8h-1.14l-.77-2.16h-3.36l-.78 2.16h-1.14Z" fill="#fff"/>
  <path d="M66.19 14.2v.14h2.84l-1.4-3.88h-.23L66 14.34h.19v-.14l.12.05 1.3-3.6-.12-.05v.13h.05v-.13l-.13.04 1.24 3.43H66.2v.13Zm-2.27 3.13.12.05 2.99-7.91H68l2.92 7.73h-.85l-.77-2.17h-3.55l-.79 2.17h-1.04v.27h1.23l.78-2.17h3.18l.77 2.17h1.43L68.19 9.2h-1.35l-3.12 8.27h.2v-.14Zm11.03.18a2.8 2.8 0 0 1-2.14-.87 3.2 3.2 0 0 1-.83-2.28V9.33h1.03v5.08c0 .63.17 1.14.5 1.53.33.4.81.59 1.44.59.62 0 1.1-.2 1.43-.59.33-.39.5-.9.5-1.53V9.33h1.03v5.03c0 .95-.27 1.7-.8 2.29a2.8 2.8 0 0 1-2.16.86Z" fill="#fff"/>
  <path d="M74.95 17.51v-.13c-.86 0-1.52-.28-2.05-.83a3.05 3.05 0 0 1-.78-2.19v-4.9h.76v4.95c0 .65.17 1.2.53 1.62.36.42.88.63 1.54.63.65 0 1.17-.2 1.53-.63.36-.42.53-.97.53-1.62V9.47h.76v4.9a3.1 3.1 0 0 1-.76 2.19c-.5.54-1.18.82-2.06.82v.27c.93 0 1.7-.3 2.26-.91.55-.6.83-1.4.83-2.38V9.2h-1.3v5.2c0 .62-.15 1.1-.46 1.46-.3.35-.74.53-1.33.54-.6 0-1.03-.19-1.34-.54a2.2 2.2 0 0 1-.46-1.45V9.2h-1.3v5.16c0 .96.29 1.76.86 2.37.57.61 1.33.92 2.24.92v-.14Zm7.34-.18h-1.03v-7.01h-2.24v-.99h5.5v.99h-2.23v7.01Z" fill="#fff"/>
  <path d="M82.29 17.33v-.13h-.9v-7.02h-2.23v-.71h5.23v.71h-2.24v7.15h.27v-6.88h2.23V9.2H78.9v1.25h2.23v7.02h1.3v-.14h-.13Zm3.53 0v-8h1.02v8h-1.02Z" fill="#fff"/>
  <path d="M85.82 17.33h.13V9.47h.76v7.73h-.9v.27h1.17V9.2h-1.3v8.27h.14v-.14Zm5.54 0v-8h1.03v8h-1.03Z" fill="#fff"/>
  <path d="M91.36 17.33h.13V9.47h.76v7.73h-.9v.27h1.17V9.2h-1.3v8.27h.14v-.14Zm3.53-10v-.05h1l.55.67h.09l.56-.67h1v.05l-1.16 1.31h-.9l-1.14-1.3Zm1.58 10.18c-.58 0-1.14-.19-1.7-.57a2.63 2.63 0 0 1-1.09-1.6l.94-.38c.11.44.34.81.69 1.12a1.87 1.87 0 0 0 2.31.1c.32-.24.47-.56.47-.96 0-.45-.15-.79-.47-1.03a4.91 4.91 0 0 0-1.5-.68 4.01 4.01 0 0 1-1.61-.86 1.8 1.8 0 0 1-.55-1.36 2 2 0 0 1 .68-1.5 2.5 2.5 0 0 1 1.78-.64 2.54 2.54 0 0 1 2.48 1.62l-.94.4a1.4 1.4 0 0 0-.5-.7c-.26-.22-.6-.33-1.02-.33-.4 0-.73.1-1.01.33a1 1 0 0 0-.42.82c0 .3.13.55.39.75.25.2.63.4 1.13.56.4.12.72.25.99.36.26.12.53.28.8.48.28.2.48.44.62.74s.2.63.2 1.02a2.1 2.1 0 0 1-.87 1.76 3.16 3.16 0 0 1-1.8.55Z" fill="#fff"/>
  <path d="M94.89 7.33h.13v-.05h-.13v.13h.93l.52.62.04.05h.21l.56-.67h.93v-.13h-.13l-1.08 1.23h-.77l-1.11-1.26-.1.08-.1.1 1.19 1.34h1.01l1.23-1.39v-.24h-1.2l-.55.67h-.03v.14l.1-.09-.56-.67-.04-.05h-1.19v.24l.04.04.1-.09Zm1.58 10.18v-.13a2.8 2.8 0 0 1-1.62-.55 2.5 2.5 0 0 1-1.04-1.52l-.13.03.05.13.94-.38-.05-.13-.13.04c.12.46.36.86.73 1.18a2 2 0 0 0 2.48.1c.35-.25.53-.62.53-1.06 0-.48-.18-.87-.53-1.14a5.04 5.04 0 0 0-1.54-.7 3.8 3.8 0 0 1-1.56-.83c-.34-.33-.5-.74-.5-1.26 0-.54.2-1 .63-1.4.43-.4.98-.6 1.69-.6.66 0 1.17.16 1.57.48.4.32.66.67.78 1.04l.13-.04-.05-.12-.94.4.05.11.13-.03a1.52 1.52 0 0 0-.54-.77 1.7 1.7 0 0 0-1.11-.36c-.42 0-.79.12-1.1.36-.3.24-.46.56-.46.93 0 .34.15.63.43.86.28.22.67.4 1.18.57.39.13.72.25.97.37.26.11.52.26.78.46.26.18.45.4.58.68.13.28.2.6.2.97s-.08.7-.23.98c-.15.28-.35.5-.6.67a3.02 3.02 0 0 1-1.72.53v.27a3.34 3.34 0 0 0 1.87-.57 2.24 2.24 0 0 0 .94-1.88c0-.4-.07-.76-.22-1.08a2.03 2.03 0 0 0-.66-.79c-.28-.2-.55-.36-.83-.49a9.7 9.7 0 0 0-1-.37 3.57 3.57 0 0 1-1.1-.53.8.8 0 0 1-.33-.65c0-.29.12-.52.37-.72.26-.2.56-.3.93-.3.4 0 .7.1.94.3.25.2.4.41.45.63l.04.15 1.08-.45.11-.05-.03-.12a2.49 2.49 0 0 0-.88-1.17 2.7 2.7 0 0 0-1.73-.54c-.76 0-1.39.22-1.87.67-.48.45-.72.99-.72 1.6 0 .58.2 1.07.59 1.45.38.38.94.67 1.66.9.67.2 1.16.43 1.46.65.28.22.42.52.42.93 0 .37-.13.64-.42.85-.3.22-.64.32-1.07.33-.4 0-.75-.14-1.08-.42a2 2 0 0 1-.64-1.05l-.04-.15-1.08.44-.1.04.02.12c.18.71.56 1.28 1.15 1.67.57.4 1.16.6 1.77.6v-.14Z" fill="#fff"/>
</svg>
