<svg xmlns="http://www.w3.org/2000/svg" viewBox="0 0 239 70.9">
  <rect width="239" height="70.8" rx="8.8" ry="8.8"/>
  <path d="m36.7 34.4-18.9 20a5 5 0 0 0 7.5 3l21.3-12.2-10-10.9Z" style="fill:#ea4335"/>
  <path d="m55.7 31-9.1-5.3-10.4 9.1 10.4 10.4 9.1-5.3c1.6-.8 2.7-2.5 2.7-4.4s-1-3.7-2.7-4.5Z" style="fill:#fbbc04"/>
  <path d="m17.8 16.4-.2 1.3v35.4c0 .5 0 .9.2 1.3l19.5-19.5-19.5-18.5Z" style="fill:#4285f4"/>
  <path d="m36.8 35.4 9.8-9.8-21.2-12.2a5.1 5.1 0 0 0-7.6 3l19 19Z" style="fill:#34a853"/>
  <path d="M79.1 20.8v1.6H83c0 .4-.2.7-.3 1l-.6 1a4 4 0 0 1-2.9 1c-.7 0-1.3-.2-2-.5s-1-.8-1.4-1.4a4.3 4.3 0 0 1 0-4.4c.3-.6.8-1 1.4-1.4s1.3-.5 2-.5c.6 0 1.2 0 1.7.3.5.2 1 .5 1.3 1l1.2-1.3c-.5-.5-1.1-1-1.8-1.2s-1.5-.5-2.3-.5a5.7 5.7 0 0 0-5.8 5.8 5.8 5.8 0 0 0 2.8 5c1 .5 1.9.8 3 .8 1.6 0 3-.6 4-1.7.5-.5.9-1 1-1.7a6.4 6.4 0 0 0 .3-2.9h-5.4Zm10.4-5-4.2 11h2l1-2.8h4.4l1 2.8h1.9l-4.2-11h-2Zm-.7 6.6L90 19l.4-1.3h.1l.4 1.3 1.2 3.3h-3.3Zm14.7.3c0 .8-.3 1.5-.7 2s-1 .7-1.8.7-1.4-.2-1.8-.8a3 3 0 0 1-.7-2v-6.8h-1.7v6.8c0 .9.2 1.6.5 2.3s.9 1.2 1.5 1.6 1.4.6 2.2.6 1.6-.2 2.2-.6 1.1-1 1.5-1.6.5-1.4.5-2.3v-6.8h-1.8v6.9Zm3.3-5.3h3v9.4h1.8v-9.4h3.1v-1.6h-7.9v1.6zm9.6-1.6h1.7v11h-1.7zm7.8 0h1.7v11h-1.7zm8.4-1 1.7-1.8v-.2h-1.7l-.7 1h-.1l-.7-1h-1.6v.2l1.6 1.8h1.5zm2.2 6.9c-.5-.5-1.2-1-2.2-1.3l-.6-.2-1.5-.7c-.3-.3-.5-.6-.5-1s.2-.7.6-1 .7-.4 1.2-.4 1 .2 1.3.4.5.6.6 1l1.6-.7a3.4 3.4 0 0 0-3.5-2.3c-.6 0-1.2.2-1.8.4s-.9.7-1.2 1.1-.4 1-.4 1.5c0 .8.2 1.5.7 2 .5.4 1.2.8 1.9 1l.7.3c.8.3 1.4.6 1.7 1s.5.6.5 1c0 .5-.2 1-.5 1.2s-.9.4-1.4.4c-.6 0-1.1-.2-1.5-.5s-.7-1-.9-1.5l-1.6.6a4.1 4.1 0 0 0 4 3c.5 0 1.1 0 1.7-.3.6-.2 1-.6 1.4-1a3 3 0 0 0 .6-1.9 3 3 0 0 0-.8-2.1ZM81.2 43.6V46H87c0 .7-.3 1.2-.5 1.8s-.6 1-.9 1.3c-.6.5-1.1.9-1.8 1.2s-1.6.5-2.6.5a6.2 6.2 0 0 1-6.3-6.4 6.3 6.3 0 0 1 3.2-5.6 6.3 6.3 0 0 1 5.6-.3c.8.3 1.5.8 2 1.4l2-1.9c-.8-.8-1.8-1.4-2.9-1.9s-2.3-.7-3.6-.7a9 9 0 0 0-7.8 4.4 9 9 0 0 0-1.2 4.6 8.8 8.8 0 0 0 9 8.9c2.6 0 4.7-.9 6.3-2.6.8-.7 1.3-1.6 1.6-2.6a10.8 10.8 0 0 0 .4-4.4h-8.3Zm20.1-2.4a6 6 0 0 0-3.3-.9 6.2 6.2 0 0 0-6.4 6.5c0 1.2.3 2.3.8 3.3a6.2 6.2 0 0 0 5.6 3.2c1.2 0 2.3-.3 3.3-.8s1.7-1.4 2.3-2.4c.5-1 .8-2 .8-3.3a6.5 6.5 0 0 0-3.1-5.6Zm0 7.8a3.6 3.6 0 0 1-3.3 2c-.7 0-1.3-.2-1.9-.6-.5-.3-1-.8-1.3-1.4-.4-.6-.6-1.3-.6-2.2s.2-1.5.6-2.1c.3-.6.8-1 1.3-1.4a3.8 3.8 0 0 1 3.8 0c.5.3 1 .8 1.3 1.4.4.6.5 1.3.5 2.1s-.1 1.6-.5 2.2Zm14.5-7.8a6 6 0 0 0-3.3-.9 6.2 6.2 0 0 0-6.4 6.5c0 1.2.3 2.3.8 3.3a6.2 6.2 0 0 0 5.6 3.2c1.2 0 2.3-.3 3.3-.8s1.8-1.4 2.3-2.4c.5-1 .8-2 .8-3.3a6.5 6.5 0 0 0-3-5.6Zm0 7.8a3.6 3.6 0 0 1-3.3 2c-.7 0-1.3-.2-1.9-.6-.5-.3-1-.8-1.3-1.4-.4-.6-.5-1.3-.5-2.2s.1-1.5.5-2.1c.3-.6.8-1 1.3-1.4a3.8 3.8 0 0 1 3.8 0c.5.3 1 .8 1.3 1.4.4.6.5 1.3.5 2.1s-.1 1.6-.5 2.2Zm14.5-6.8h-.2a4 4 0 0 0-1.6-1.3 5.4 5.4 0 0 0-5.1.3c-.9.5-1.6 1.2-2 2.2s-.9 2-.9 3.3.3 2.3.8 3.2 1.2 1.7 2.1 2.3 1.8.7 2.9.7c.8 0 1.6-.1 2.2-.5s1.2-.7 1.6-1.3h.2v1.1c0 1.2-.4 2.2-1 2.9-.6.7-1.5 1-2.6 1-.7 0-1.4-.2-2-.6s-1-.9-1.2-1.5l-2.5 1c.4 1 1 1.8 2 2.5s2.2 1 3.7 1c1.2 0 2.3-.2 3.2-.7.9-.5 1.6-1.2 2.1-2.1s.8-2.1.8-3.4V40.7h-2.6v1.5Zm-.5 6.5a3.4 3.4 0 0 1-3 1.9c-.7 0-1.3-.2-1.9-.5-.5-.3-1-.7-1.3-1.3s-.4-1.3-.4-2.1.1-1.6.4-2.1c.4-.6.8-1 1.3-1.4a4 4 0 0 1 1.8-.4c1 0 1.9.3 2.5 1s1 1.7 1 2.9a4 4 0 0 1-.4 2Zm5.9-12.9h2.6v17.1h-2.6zm14.5 5.4c-1-.6-2-.8-3.2-.8a6 6 0 0 0-5.3 3.2c-.5 1-.8 2-.8 3.3s.3 2.3.8 3.3 1.3 1.7 2.2 2.3c1 .5 2 .8 3.3.8a6.1 6.1 0 0 0 5.5-3.2l-2.2-1a4 4 0 0 1-1.3 1.3 3.9 3.9 0 0 1-4.5-.4 3.7 3.7 0 0 1-1.2-2.6h9.4v-.8a7 7 0 0 0-.6-3.2 5 5 0 0 0-2.1-2.2Zm-6.5 4.2a4 4 0 0 1 1.2-2c.5-.5 1.2-.8 2-.8s1.4.2 1.9.5.8.6 1 1l.5 1.3h-6.7Zm24.9-8.9a6 6 0 0 0-2.8-.7h-6V53h2.7v-6.6h3.3c1 0 2-.2 2.8-.7s1.5-1 2-1.8.7-1.7.7-2.7-.2-2-.7-2.8-1.2-1.4-2-1.8Zm-.3 5.8c-.2.5-.5.8-1 1-.4.3-.9.4-1.5.4h-3.3v-5.4h3.3c.6 0 1.1.2 1.6.4l1 1c.2.4.3.9.3 1.3s-.1 1-.4 1.3Zm5.1-6.5h2.6v17.1h-2.6zm10.3 4.6c-1 0-2 .2-2.8.6-.9.4-1.6 1-2.1 1.7l1.8 1.4c.3-.4.8-.8 1.3-1s1.2-.5 1.8-.5c.9 0 1.6.3 2.1.7s.8 1.1.8 1.9v.6a7.8 7.8 0 0 0-3.2-.7c-1.5 0-2.7.4-3.6 1.1-1 .8-1.5 1.8-1.5 3 0 .8.2 1.5.6 2.2s1 1 1.6 1.4 1.5.5 2.3.5 1.6-.1 2.2-.5c.7-.3 1.2-.8 1.5-1.3h.2v1.4h2.5v-7.6c0-1.5-.4-2.8-1.4-3.6s-2.3-1.3-4-1.3Zm2.6 9a3.2 3.2 0 0 1-3 1.7c-.7 0-1.2-.1-1.6-.5-.5-.3-.7-.8-.7-1.4 0-.6.3-1.1.7-1.5.5-.4 1.2-.6 2.2-.6a6.3 6.3 0 0 1 2.8.7c0 .6-.1 1.1-.4 1.7Zm13.8-8.6-3.4 8.2h-.1l-3.4-8.2h-3l5.1 11.5-2.6 5.8h2.7l7.6-17.3h-2.9z" style="fill:#fff"/>
</svg>
