<svg width="180" height="54" fill="none" xmlns="http://www.w3.org/2000/svg">
  <path d="M173.3 54H6.7A6.7 6.7 0 0 1 0 47.2V6.8C0 3 3 0 6.7 0h166.6a6.7 6.7 0 0 1 6.7 6.8v40.5c0 3.7-3 6.7-6.7 6.7Z" fill="#000"/>
  <path d="M27.6 26.2 13.4 41.5a3.8 3.8 0 0 0 5.7 2.3l16-9.3-7.5-8.3Z" fill="#EA4335"/>
  <path d="m42 23.6-7-4-7.7 7 7.8 7.9 6.9-4a3.9 3.9 0 0 0 2-3.5 4 4 0 0 0-2-3.4Z" fill="#FBBC04"/>
  <path d="M13.4 12.5a3.7 3.7 0 0 0-.1 1v27l.1 1 14.7-14.9-14.7-14Z" fill="#4285F4"/>
  <path d="m27.7 27 7.4-7.4-16-9.4a3.9 3.9 0 0 0-5.7 2.3L27.7 27Z" fill="#34A853"/>
  <path d="M142.6 40h2.5V23.3h-2.5V40ZM165 29.3l-2.9 7.3-3-7.3h-2.7l4.5 10.1-2.6 5.7h2.6l6.9-15.8H165Zm-14.1 8.8c-.8 0-2-.4-2-1.4 0-1.3 1.4-1.8 2.7-1.8 1 0 1.6.2 2.2.6a3 3 0 0 1-3 2.6Zm.3-9.1c-1.8 0-3.7.8-4.4 2.5l2.2 1c.4-1 1.3-1.3 2.2-1.3 1.3 0 2.6.8 2.7 2.2v.1a5.5 5.5 0 0 0-2.6-.6c-2.4 0-4.8 1.3-4.8 3.8 0 2.2 1.9 3.6 4 3.6a3.5 3.5 0 0 0 3.3-1.6V40h2.5v-6.4c0-3-2.2-4.6-5.1-4.6Zm-15.4 2.4h-3.5v-5.8h3.5a2.9 2.9 0 0 1 3 3 2.9 2.9 0 0 1-3 2.8Zm0-8h-6V40h2.5v-6.3h3.5c2.7 0 5.4-2 5.4-5.2s-2.7-5.2-5.4-5.2ZM103.3 38c-1.8 0-3.2-1.4-3.2-3.4s1.4-3.5 3.1-3.5c1.7 0 3 1.5 3 3.5s-1.3 3.4-3 3.4Zm2.8-7.8h-.1a4 4 0 0 0-3-1.3 5.6 5.6 0 0 0-5.4 5.7c0 3.2 2.6 5.6 5.4 5.6a4 4 0 0 0 3-1.2v.8c0 2.1-1 3.3-3 3.3a3.1 3.1 0 0 1-2.8-2L98 42a5.4 5.4 0 0 0 5 3.3c3 0 5.5-1.7 5.5-5.9v-10H106v.9Zm4 9.7h2.6V23.3h-2.5V40Zm6.3-5.5a3.1 3.1 0 0 1 3-3.3c.9 0 1.7.5 2 1.2l-5 2.1Zm7.7-1.9c-.5-1.3-2-3.6-4.9-3.6-2.9 0-5.3 2.3-5.3 5.7 0 3.1 2.4 5.6 5.6 5.6 2.6 0 4.1-1.5 4.7-2.5l-1.9-1.3a3.2 3.2 0 0 1-2.8 1.6 2.9 2.9 0 0 1-2.7-1.7l7.5-3.1-.2-.7Zm-60.4-1.9V33h5.7a5 5 0 0 1-1.3 3 5.9 5.9 0 0 1-4.4 1.8 6.3 6.3 0 0 1-6.3-6.4A6.3 6.3 0 0 1 68 27l1.7-1.7a8.4 8.4 0 0 0-6-2.5 9 9 0 0 0-9 8.8 9 9 0 0 0 9 8.8 8 8 0 0 0 6.1-2.4c1.6-1.6 2-3.8 2-5.6a7.8 7.8 0 0 0 0-1.5h-8.1ZM78.4 38c-1.7 0-3.2-1.4-3.2-3.4s1.5-3.5 3.2-3.5c1.8 0 3.2 1.4 3.2 3.5 0 2-1.4 3.4-3.2 3.4Zm0-9a5.6 5.6 0 0 0-5.7 5.6 5.6 5.6 0 0 0 5.7 5.6 5.6 5.6 0 0 0 5.7-5.6 5.6 5.6 0 0 0-5.7-5.7ZM91 38c-1.8 0-3.2-1.4-3.2-3.4s1.4-3.5 3.2-3.5c1.7 0 3.2 1.4 3.2 3.5 0 2-1.5 3.4-3.2 3.4Zm0-9a5.6 5.6 0 0 0-5.7 5.6 5.6 5.6 0 0 0 5.7 5.6 5.6 5.6 0 0 0 5.7-5.6 5.6 5.6 0 0 0-5.7-5.7ZM55 17.2v-8h1v8h-1Z" fill="#fff"/>
  <path d="M55 17.3h.1v-8h.8v7.9H55v.3h1.2V9h-1.3v8.4h.1v-.2Zm7.6-7H59v2.5h3.4v1H59v2.5h3.7v1H58v-8h4.7v1Z" fill="#fff"/>
  <path d="M62.6 10.2v-.1h-3.8v2.8h3.3v.7h-3.3v2.9h3.7v.7H58V9.4h4.5v.8h.3V9.1h-5v8.4h5v-1.3H59v-2.3h3.3v-1.2H59v-2.4h3.7-.2Zm1.5 7.1v-8h1v7h3.6v1H64Z" fill="#fff"/>
  <path d="M64.1 17.3h.2v-8h.7v7.2h3.5v.7h-4.4v.3h4.7v-1.3h-3.5V9.1H64v8.4h.1v-.2Zm7.7-3.1h2.7L73 10.5l-1.3 3.7Zm2.9-6h-3.2v-.8h3.2v.8Zm-5.2 9.1 3-8h1.2l3 8h-1.1l-.8-2.2h-3.4l-.8 2.2h-1.1Z" fill="#fff"/>
  <path d="M71.8 14.2h2.9l-1.5-3.8H73l-1.4 3.9h.2v-.1l1.4-3.7h-.1v.1-.1l1.2 3.5h-2.5v.2Zm2.9-6V8h-3v-.6h2.9v.7h.2v-1h-3.4v1.1h3.4v-.1h-.1Zm-5.2 9.1 3.1-8h1l3 7.9h-1L75 15h-3.6l-.8 2.2h-1v.3h1.2l.8-2.2h3.2l.8 2.2H77L73.8 9h-1.4l-3.1 8.4h.2v-.2Zm9.4-1h1.4a3 3 0 0 0 2.2-.8 3 3 0 0 0 .9-2.2 3 3 0 0 0-.9-2.3 3 3 0 0 0-2.2-.8h-1.4v6.1Zm-1 1v-8h2.4a4 4 0 0 1 3 1 4 4 0 0 1 1.1 3 4 4 0 0 1-1.1 2.9 4 4 0 0 1-3 1.1h-2.5Z" fill="#fff"/>
  <path d="M78.9 16.3v.2h1.4a3 3 0 0 0 2.3-.9c.6-.5.9-1.3.9-2.3s-.3-1.8-.9-2.4a3.2 3.2 0 0 0-2.3-.8h-1.6v6.4h.2v-6.2h1.4c1 0 1.6.3 2.1.8s.8 1.2.8 2.2c0 1-.3 1.6-.8 2.1a3 3 0 0 1-2.1.8h-1.4v.1Zm-1 1v-8h2.4a3.9 3.9 0 0 1 2.9 1.1 3.8 3.8 0 0 1 1 2.9 4 4 0 0 1-1 2.8 3.9 3.9 0 0 1-2.9 1h-2.5v.4h2.5c1.3 0 2.3-.4 3-1.2a4.1 4.1 0 0 0 1.2-3 4.1 4.1 0 0 0-1.1-3A4.2 4.2 0 0 0 80.3 9h-2.6v8.4h.1v-.2Zm11.8-9.1h-3.1v-.8h3.1v.8Zm.9 2h-3.7v2.6h3.3v1H87v2.5h3.7v1H86v-8h4.7v1Z" fill="#fff"/>
  <path d="M89.8 8.2V8h-3.1v-.6h2.9v.7h.3v-1h-3.5v1.1H90v-.1h-.2Zm.8 2v-.1h-3.8v2.8H90v.7h-3.3v2.9h3.7v.7H86V9.4h4.5v.8h.2V9.1h-5v8.4h5v-1.3H87v-2.3h3.4v-1.2H87v-2.4h3.7-.1Zm4.3 7.1h-1v-7h-2.3v-1h5.6v1h-2.3v7Z" fill="#fff"/>
  <path d="M95 17.3v-.1h-1v-7.1h-2.3v-.8H97v.8h-2.2v7.2h.2v-7h2.3V9.1h-5.8v1.3h2.2v7H95Zm5.8 0v-8h1.2l4 6.2V9.2h1v8.1h-1l-4.2-6.6v6.6h-1Z" fill="#fff"/>
  <path d="M100.8 17.3h.1v-8h1l4 6.4h.3V9.4h.7v7.8h-.9l-4.1-6.6h-.3v6.6h-.8v.3h1.1v-6.8h-.1v.2-.2h-.1l4.2 6.8h1.3V9h-1.4v6.4h.2v-.1.1L102.2 9h-1.5v8.4h.1v-.2Zm9.6-1.7a3 3 0 0 0 2.2 1 3 3 0 0 0 2.2-1c.6-.6 1-1.4 1-2.3 0-1-.4-1.7-1-2.4a3 3 0 0 0-2.2-.9 3 3 0 0 0-2.2 1c-.6.5-.9 1.3-.9 2.3 0 1 .3 1.7 1 2.3Zm5.2.7a4 4 0 0 1-3 1.2 4.2 4.2 0 0 1-4.1-4.2 4.2 4.2 0 0 1 7.1-3c.8.8 1.2 1.8 1.2 3s-.4 2.2-1.2 3Z" fill="#fff"/>
  <path d="M110.4 15.6v.1a3 3 0 0 0 4.5 0 3.3 3.3 0 0 0 1-2.4c0-1-.3-1.8-1-2.5a3.1 3.1 0 0 0-2.3-.9 3 3 0 0 0-2.3 1 3.3 3.3 0 0 0-.9 2.4 3 3 0 0 0 1 2.4v-.1h.1a3 3 0 0 1-.8-2.3c0-1 .3-1.7.8-2.3a2.9 2.9 0 0 1 2.1-.8c.9 0 1.6.3 2.2.8.5.6.8 1.4.8 2.3a3 3 0 0 1-.8 2.2 3 3 0 0 1-2.2.9c-.8 0-1.5-.3-2-.9l-.2.1Zm5.2.7v-.1a3.8 3.8 0 0 1-3 1.2 4 4 0 0 1-4-4.1 4 4 0 0 1 4-4.1c1.2 0 2.1.4 3 1.2a4 4 0 0 1 1 2.9 4 4 0 0 1-1 2.9l.1.2a4.3 4.3 0 0 0 1.2-3.1 4.3 4.3 0 0 0-4.3-4.4 4.3 4.3 0 0 0-4.3 4.4 4.3 4.3 0 0 0 4.3 4.3c1.3 0 2.3-.4 3.1-1.2v-.1Z" fill="#fff"/>
</svg>
