<svg id="artwork" xmlns="http://www.w3.org/2000/svg" version="1.1" viewBox="0 0 239 70.9">
  <defs>
    <style>
      .st4{fill:#fff}
    </style>
  </defs>
  <rect width="239" height="70.8" rx="8.8" ry="8.8"/>
  <path class="st4" d="M120.6 38.5c-4.1 0-7.5 3.2-7.5 7.5s3.4 7.5 7.5 7.5a7.5 7.5 0 1 0 0-15Zm0 12c-2.3 0-4.2-1.8-4.2-4.5s2-4.5 4.2-4.5 4.3 1.8 4.3 4.5-2 4.6-4.3 4.6Zm-16.5-12c-4.1 0-7.5 3.2-7.5 7.5s3.4 7.5 7.5 7.5a7.5 7.5 0 1 0 0-15Zm0 12c-2.3 0-4.2-1.8-4.2-4.5s2-4.5 4.2-4.5 4.3 1.8 4.3 4.5-2 4.6-4.3 4.6Zm-19.6-9.7V44h7.7a6.7 6.7 0 0 1-1.8 4 7.8 7.8 0 0 1-5.9 2.4 8.4 8.4 0 0 1-8.4-8.5 8.4 8.4 0 0 1 14.2-6.2l2.2-2.3a11.8 11.8 0 0 0-19.8 8.5c0 6.5 5.3 11.7 11.8 11.7 3.5 0 6.1-1.1 8.2-3.3 2-2.1 2.7-5 2.7-7.5l-.1-2H84.5Zm80.2 2.5c-.6-1.7-2.5-4.8-6.4-4.8s-7.1 3-7.1 7.5c0 4.2 3.2 7.5 7.4 7.5 3.5 0 5.5-2 6.3-3.3l-2.6-1.7c-.8 1.2-2 2-3.7 2s-2.8-.7-3.6-2.2l10-4.2-.3-.8Zm-10.3 2.5c0-2.9 2.3-4.4 4-4.4 1.3 0 2.4.7 2.8 1.6l-6.8 2.8Zm-8.1 7.3h3.3V31h-3.3v22Zm-5.5-13a5.2 5.2 0 0 0-4-1.6c-3.8 0-7.2 3.3-7.2 7.6s3.4 7.5 7.2 7.5a5 5 0 0 0 4-1.8V53c0 3-1.5 4.5-4 4.5-2 0-3.2-1.5-3.8-2.7l-2.9 1.2c.9 2 3 4.4 6.7 4.4 3.9 0 7.2-2.2 7.2-7.8V39h-3.2v1.2ZM137 50.7c-2.2 0-4.2-2-4.2-4.5s2-4.6 4.2-4.6 4 2 4 4.6-1.7 4.5-4 4.5ZM180.2 31h-7.9v22h3.3v-8.4h4.6c3.7 0 7.3-2.6 7.3-6.9s-3.6-6.8-7.3-6.8Zm0 10.6h-4.6V34h4.7a3.8 3.8 0 1 1 0 7.6Zm20.5-3.1c-2.4 0-4.9 1-5.9 3.3l3 1.3c.6-1.3 1.8-1.7 3-1.7 1.7 0 3.4 1 3.4 2.9v.2c-.6-.3-1.8-.8-3.4-.8-3.2 0-6.4 1.7-6.4 5 0 2.9 2.6 4.8 5.5 4.8 2.2 0 3.5-1 4.2-2.2h.1v1.8h3.2v-8.5c0-4-3-6.1-6.7-6.1Zm-.4 12c-1 0-2.6-.5-2.6-1.8 0-1.7 1.9-2.3 3.5-2.3 1.5 0 2.2.3 3 .7a4 4 0 0 1-3.9 3.5ZM219 39l-3.8 9.6-4-9.6h-3.6l6 13.5-3.4 7.4h3.4l9.1-20.9H219Zm-29.7 14.2h3.3V31h-3.3v22Z"/>
  <path d="m36.7 34.4-18.9 20a5 5 0 0 0 7.5 3l21.3-12.2-10-10.9Z" style="fill:#ea4335"/>
  <path d="m55.7 31-9.1-5.3-10.4 9.1 10.4 10.4 9.1-5.3c1.6-.8 2.7-2.5 2.7-4.4s-1-3.7-2.7-4.5Z" style="fill:#fbbc04"/>
  <path d="m17.8 16.4-.2 1.3v35.4c0 .5 0 .9.2 1.3l19.5-19.5-19.5-18.5Z" style="fill:#4285f4"/>
  <path d="m36.8 35.4 9.8-9.8-21.2-12.2a5.1 5.1 0 0 0-7.6 3l19 19Z" style="fill:#34a853"/>
  <path class="st4" d="M73.9 13.1h1.6v10.1h-1.6zm4 10.1H84v-1.5h-4.5v-2.8h4.1v-1.5h-4.1v-2.8H84v-1.5h-6.1v10.1zm12.7-5.4v1.4H94c0 .3-.1.7-.3 1l-.5.8a4 4 0 0 1-1 .7c-.5.2-1 .3-1.6.3a4 4 0 0 1-1.8-.5 3.5 3.5 0 0 1-1.9-3.3c0-.8.2-1.4.5-2 .3-.5.8-1 1.4-1.3.5-.3 1.1-.5 1.8-.5l1.5.3c.5.2.8.5 1.2.9l1-1.1c-.4-.5-1-.9-1.6-1.2a5.6 5.6 0 0 0-4.8.3 5.2 5.2 0 0 0-2.6 4.6c0 1 .2 2 .7 2.7.5.8 1.1 1.4 2 2 .7.4 1.6.6 2.6.6a5 5 0 0 0 3.7-1.5c.5-.4.8-1 1-1.5a6 6 0 0 0 .2-2.7h-5 .1Zm8.5-7.1h4.1v1.2h-4.1zm4.3 8.7c0 .8-.2 1.4-.6 1.9-.4.4-1 .7-1.7.7s-1.3-.3-1.6-.8-.6-1-.6-1.8v-6.3h-1.6v6.2c0 .8.2 1.6.5 2.2s.8 1 1.3 1.4c.6.4 1.3.6 2 .6s1.5-.2 2-.6c.6-.3 1-.8 1.4-1.4a5 5 0 0 0 .5-2.2v-6.2h-1.6v6.3Zm2.9-4.8h2.8v8.6h1.6v-8.6h2.8v-1.5h-7.2v1.5zm18 0c-.3-.5-.7-.8-1.2-1.1s-1-.4-1.7-.4H118v10.2h1.6v-4h2c.6 0 1.1-.1 1.6-.4s.9-.6 1.2-1 .4-1 .4-1.7-.1-1-.4-1.6ZM123 17l-.6.6-1 .2h-1.9v-3.2h2c.3 0 .6 0 .9.3l.5.6.2.7-.1.8Zm5.5-3.9-3.8 10.1h1.7l1-2.5h4l1 2.5h1.7l-3.8-10.1h-1.8Zm-.6 6 1-3 .5-1.1.5 1.2 1 3h-3Zm15.4-5.9v-.1h-2l-4.1 4.8h-.1v-4.8h-1.6v10.1h1.6v-2.9l1.4-1.6 3.2 4.5h1.9l-4-5.7 3.7-4.3zm4.9-.1-3.8 10.1h1.7l1-2.5h4l1 2.5h1.7L150 13.1h-2Zm-.6 6 1-3 .4-1.1h.1l.4 1.2 1.1 3h-3Zm9.2-6h-1.6v10.1h5.9v-1.5h-4.3v-8.6zm11 .4a3 3 0 0 0-1.7-.4h-3.5v10.2h1.6v-4h2c.6 0 1.1-.1 1.6-.4s1-.6 1.2-1 .4-1 .4-1.7 0-1-.4-1.5-.7-.9-1.2-1.1Zm-.1 3.5-.6.6-1 .2h-1.9v-3.2h2c.3 0 .6 0 .9.3l.6.6c.2.3.2.5.2.7l-.2.8Zm10.8-3.4c-.8-.5-1.7-.7-2.7-.7s-1.8.2-2.6.7-1.5 1.1-2 1.9-.6 1.7-.6 2.7a5.2 5.2 0 0 0 8 4.5 5.2 5.2 0 0 0 2.5-4.5 5.3 5.3 0 0 0-2.6-4.6Zm.5 6.5c-.3.6-.8 1-1.3 1.4s-1.2.5-1.8.5-1.3-.2-1.9-.5c-.5-.3-1-.8-1.3-1.4-.3-.5-.5-1.2-.5-2s.1-1.3.5-1.9c.3-.6.7-1 1.3-1.3s1.2-.5 1.9-.5 1.2.1 1.8.5 1 .7 1.3 1.3a4.2 4.2 0 0 1 0 4Zm7.8 0c0 .6-.1 1-.4 1.4s-.7.5-1.2.5c-.9 0-1.4-.5-1.7-1.5l-1.5.6a3.3 3.3 0 0 0 3.2 2.4c.6 0 1.2-.1 1.7-.4a3.4 3.4 0 0 0 1.5-3v-7h-1.6v7Zm9.9-.7c0 .8-.2 1.4-.6 1.9-.4.4-1 .7-1.6.7s-1.3-.3-1.7-.8c-.4-.4-.6-1-.6-1.8v-6.3h-1.6v6.2c0 .8.2 1.6.5 2.2s.8 1 1.4 1.4c.5.4 1.2.6 2 .6s1.4-.2 2-.6 1-.8 1.3-1.4a5 5 0 0 0 .5-2.2v-6.2h-1.6v6.3Zm9 1.4h-.1l-2.9-7.7h-2.1v10.1h1.5v-7.5l2.9 7.5h1.3l2.9-7.5h.1l-.1 1.9v5.6h1.6V13.1h-2.2l-2.9 7.7zm12.1-7.7H216l-3.8 10.1h1.7l1-2.5h4l1 2.5h1.7l-3.8-10.1Zm-2.4 6 1-3 .4-1.1h.1l.4 1.2 1.1 3h-3Zm-.6-8.4h4.1v1.2h-4.1z"/>
</svg>
