<svg width="180" height="54" fill="none" xmlns="http://www.w3.org/2000/svg">
  <path d="M173.33 54H6.67A6.73 6.73 0 0 1 0 47.25V6.75C0 3.04 3 0 6.67 0h166.66A6.73 6.73 0 0 1 180 6.75v40.5c0 3.71-3 6.75-6.67 6.75Z" fill="#000"/>
  <path d="m27.63 26.22-14.2 15.26a3.84 3.84 0 0 0 5.65 2.35l.05-.03 15.97-9.33-7.48-8.25Z" fill="#EA4335"/>
  <path d="m41.98 23.63-.01-.02-6.9-4.05-7.77 7 7.8 7.9 6.86-4a3.89 3.89 0 0 0 2.02-3.43c0-1.47-.8-2.75-2-3.4Z" fill="#FBBC04"/>
  <path d="M13.43 12.52a3.7 3.7 0 0 0-.13 1v26.96c0 .35.04.68.13 1L28.1 26.62l-14.68-14.1Z" fill="#4285F4"/>
  <path d="m27.73 27 7.34-7.44-15.96-9.37a3.85 3.85 0 0 0-5.69 2.33L27.73 27Z" fill="#34A853"/>
  <path d="M142.58 40h2.49V23.33h-2.49V40ZM165 29.34l-2.85 7.22h-.09l-2.96-7.22h-2.68l4.44 10.1-2.53 5.61h2.6l6.84-15.71H165Zm-14.1 8.77c-.82 0-1.96-.41-1.96-1.42 0-1.29 1.41-1.78 2.64-1.78 1.1 0 1.6.24 2.27.56a3.02 3.02 0 0 1-2.96 2.64Zm.3-9.14c-1.81 0-3.68.8-4.45 2.55l2.21.93c.47-.93 1.35-1.23 2.27-1.23 1.3 0 2.6.78 2.62 2.15v.17a5.5 5.5 0 0 0-2.6-.64c-2.38 0-4.8 1.3-4.8 3.75 0 2.23 1.95 3.67 4.14 3.67a3.5 3.5 0 0 0 3.17-1.63h.09v1.28h2.4v-6.39c0-2.96-2.2-4.6-5.06-4.6Zm-15.38 2.4h-3.54v-5.72h3.53a2.89 2.89 0 0 1 2.92 2.86 2.9 2.9 0 0 1-2.91 2.86Zm-.07-8.04h-5.96V40h2.49v-6.32h3.47c2.76 0 5.47-2 5.47-5.17 0-3.18-2.71-5.18-5.47-5.18Zm-32.5 14.78c-1.72 0-3.16-1.44-3.16-3.42 0-2 1.44-3.45 3.15-3.45 1.7 0 3.03 1.46 3.03 3.45 0 1.98-1.33 3.42-3.03 3.42Zm2.85-7.84h-.1a3.93 3.93 0 0 0-2.98-1.27 5.64 5.64 0 0 0-5.44 5.7c0 3.17 2.6 5.64 5.44 5.64 1.35 0 2.43-.6 2.98-1.28h.09v.81c0 2.17-1.16 3.33-3.03 3.33a3.14 3.14 0 0 1-2.86-2.02l-2.17.9a5.4 5.4 0 0 0 5.03 3.35c2.92 0 5.4-1.71 5.4-5.9V29.35h-2.37v.92Zm4.08 9.73h2.5V23.33h-2.5V40Zm6.17-5.5a3.11 3.11 0 0 1 2.96-3.3c.99 0 1.83.49 2.1 1.2l-5.06 2.1Zm7.73-1.89c-.47-1.27-1.91-3.6-4.85-3.6-2.93 0-5.35 2.29-5.35 5.66 0 3.18 2.4 5.67 5.62 5.67 2.6 0 4.1-1.59 4.73-2.5l-1.93-1.3a3.24 3.24 0 0 1-2.8 1.57 2.89 2.89 0 0 1-2.75-1.72l7.59-3.13-.26-.65Zm-60.41-1.87v2.4h5.76a5.02 5.02 0 0 1-1.32 3.04 5.9 5.9 0 0 1-4.44 1.76 6.32 6.32 0 0 1-6.32-6.4A6.32 6.32 0 0 1 68 26.85l1.7-1.7a8.4 8.4 0 0 0-6.04-2.42 8.93 8.93 0 0 0-8.94 8.8 8.93 8.93 0 0 0 8.94 8.81c2.62 0 4.6-.86 6.14-2.47 1.6-1.59 2.09-3.82 2.09-5.62a7.8 7.8 0 0 0-.13-1.5h-8.1Zm14.77 7.37c-1.72 0-3.2-1.42-3.2-3.44 0-2.04 1.48-3.43 3.2-3.43 1.72 0 3.2 1.4 3.2 3.43 0 2.02-1.48 3.44-3.2 3.44Zm0-9.1a5.59 5.59 0 0 0-5.7 5.66 5.6 5.6 0 0 0 5.7 5.67 5.6 5.6 0 0 0 5.7-5.67 5.59 5.59 0 0 0-5.7-5.67Zm12.42 9.1c-1.72 0-3.2-1.42-3.2-3.44 0-2.04 1.48-3.43 3.2-3.43 1.72 0 3.2 1.4 3.2 3.43 0 2.02-1.48 3.44-3.2 3.44Zm0-9.1a5.59 5.59 0 0 0-5.7 5.66 5.6 5.6 0 0 0 5.7 5.67 5.6 5.6 0 0 0 5.69-5.67 5.59 5.59 0 0 0-5.7-5.67ZM55 17.33V9.22h1.04v8.11H55Z" fill="#fff"/>
  <path d="M55 17.33h.13V9.35h.78v7.85H55v.27h1.17V9.09h-1.3v8.38H55v-.14Zm7.64-7.11h-3.7v2.57h3.34v.97h-3.34v2.58h3.7v1H57.9V9.21h4.74v1Z" fill="#fff"/>
  <path d="M62.64 10.22v-.14h-3.83v2.84h3.33v.71h-3.33v2.84h3.7v.73h-4.47V9.35h4.47v.87h.26V9.09h-5v8.38h5V16.2h-3.7v-2.3h3.34v-1.24h-3.33v-2.31h3.7v-.13h-.14Zm1.49 7.11V9.22h1.04v7.12h3.51v1h-4.55Z" fill="#fff"/>
  <path d="M64.13 17.33h.13V9.35h.78v7.12h3.51v.73h-4.42v.27h4.69V16.2H65.3V9.1H64v8.38h.13v-.14Zm7.63-3.17h2.7l-1.33-3.66h-.04l-1.33 3.66Zm2.93-5.97h-3.17v-.82h3.17v.82Zm-5.23 9.14 3.06-8.11h1.18l3.06 8.11H75.6l-.78-2.2H71.4l-.8 2.2h-1.15Z" fill="#fff"/>
  <path d="M71.76 14.16v.13h2.89l-1.43-3.92H73l-1.42 3.92h.19v-.13l.12.05 1.33-3.67-.12-.04v.13h.04v-.13l-.12.04 1.26 3.49h-2.51v.13Zm2.93-5.97v-.14h-3.04V7.5h2.91v.69h.27v-.95h-3.44v1.08h3.44V8.2h-.14Zm-5.23 9.14.12.05 3.03-8.03h1l2.95 7.85h-.87l-.78-2.2h-3.6l-.79 2.2h-1.06v.27h1.25l.8-2.2h3.21l.79 2.2h1.44l-3.16-8.38h-1.36l-3.16 8.38h.19v-.14Zm9.4-.99h1.44c.93 0 1.68-.27 2.22-.8.55-.55.83-1.3.83-2.26 0-.96-.28-1.71-.83-2.25a3.04 3.04 0 0 0-2.22-.81h-1.44v6.12Zm-1.04 1V9.21h2.48c1.24 0 2.24.38 2.99 1.13a3.98 3.98 0 0 1 1.12 2.93c0 1.2-.37 2.17-1.12 2.93a4.03 4.03 0 0 1-3 1.12h-2.47Z" fill="#fff"/>
  <path d="M78.86 16.34v.13h1.44c.96 0 1.74-.28 2.32-.84.58-.57.86-1.36.86-2.35s-.28-1.78-.86-2.35a3.17 3.17 0 0 0-2.32-.85h-1.58v6.39h.14v-.13h.13v-5.99h1.3c.92 0 1.62.26 2.14.77s.78 1.22.78 2.16c0 .94-.26 1.65-.78 2.16-.52.5-1.22.76-2.13.76h-1.44v.14Zm-1.04 1h.13v-8h2.35a3.9 3.9 0 0 1 2.9 1.1 3.84 3.84 0 0 1 1.08 2.83c0 1.17-.36 2.1-1.08 2.83a3.9 3.9 0 0 1-2.9 1.09h-2.48v.27h2.48c1.27 0 2.3-.39 3.08-1.17a4.11 4.11 0 0 0 1.16-3.02 4.1 4.1 0 0 0-1.16-3.03A4.17 4.17 0 0 0 80.3 9.1h-2.62v8.38h.14v-.14Zm11.93-9.15h-3.18v-.82h3.18v.82Zm.85 2.03h-3.7v2.57h3.33v.97H86.9v2.58h3.7v1h-4.74V9.21h4.74v1Z" fill="#fff"/>
  <path d="M89.75 8.19v-.14H86.7V7.5h2.9v.69h.27v-.95h-3.44v1.08h3.44V8.2h-.13Zm.85 2.03v-.14h-3.83v2.84h3.33v.71h-3.33v2.84h3.7v.73h-4.48V9.35h4.47v.87h.27V9.09h-5v8.38h5V16.2h-3.7v-2.3h3.34v-1.24h-3.34v-2.31h3.7v-.13h-.13Zm4.32 7.11h-1.05v-7.11h-2.26v-1h5.57v1h-2.26v7.11Z" fill="#fff"/>
  <path d="M94.92 17.33v-.13H94v-7.12h-2.27v-.73h5.3v.73h-2.26v7.25h.27v-6.98h2.27V9.09h-5.85v1.26h2.27v7.12h1.3v-.14h-.12Zm5.84 0V9.22h1.27l3.95 6.31h.04l-.04-1.56V9.22h1.04v8.11h-1.09l-4.12-6.62h-.05l.05 1.57v5.05h-1.05Z" fill="#fff"/>
  <path d="M100.76 17.33h.14V9.35h1.06l3.94 6.31h.26l-.05-1.7v-4.6h.78v7.84H106l-4.13-6.62h-.25l.04 1.7v4.92h-.9v.27h1.17v-5.2l-.05-1.56h-.13v.14h.05v-.14l-.12.08 4.17 6.68h1.3V9.09h-1.31v4.88l.04 1.56h.13v-.13h-.04v.13l.11-.07-3.98-6.37h-1.48v8.38h.13v-.14Zm9.67-1.73c.6.61 1.34.92 2.2.92.87 0 1.61-.3 2.21-.91.6-.61.9-1.39.9-2.33 0-.95-.3-1.72-.9-2.33a2.98 2.98 0 0 0-2.2-.92c-.87 0-1.6.3-2.2.92-.6.6-.91 1.38-.91 2.33 0 .94.3 1.72.9 2.33Zm5.18.69a3.98 3.98 0 0 1-2.97 1.22 4.16 4.16 0 0 1-4.17-4.24 4.16 4.16 0 0 1 7.14-3c.8.83 1.2 1.83 1.2 3 0 1.2-.4 2.2-1.2 3.02Z" fill="#fff"/>
  <path d="m110.43 15.6-.1.1c.63.63 1.4.95 2.3.95.9 0 1.68-.32 2.3-.95a3.3 3.3 0 0 0 .94-2.42c0-.98-.31-1.8-.94-2.43a3.12 3.12 0 0 0-2.3-.95c-.9 0-1.67.32-2.3.95a3.31 3.31 0 0 0-.93 2.43c0 .97.31 1.79.94 2.42l.1-.1.09-.09a3.04 3.04 0 0 1-.87-2.23c0-.92.3-1.66.87-2.24a2.85 2.85 0 0 1 2.1-.87c.84 0 1.54.29 2.12.87.57.58.86 1.32.86 2.24 0 .91-.29 1.65-.86 2.23-.58.59-1.28.87-2.11.87-.84 0-1.53-.28-2.11-.87l-.1.1Zm5.18.69-.1-.1a3.84 3.84 0 0 1-2.88 1.2 4.02 4.02 0 0 1-4.04-4.1 4.02 4.02 0 0 1 4.05-4.12c1.14 0 2.09.4 2.87 1.2.78.8 1.16 1.76 1.16 2.9a4 4 0 0 1-1.16 2.92l.1.1.1.09a4.29 4.29 0 0 0 1.23-3.1 4.29 4.29 0 0 0-4.3-4.38 4.29 4.29 0 0 0-4.3 4.37 4.29 4.29 0 0 0 4.3 4.38c1.21 0 2.25-.43 3.07-1.27l-.1-.1Z" fill="#fff"/>
</svg>
