<svg width="180" height="54" fill="none" xmlns="http://www.w3.org/2000/svg">
  <path d="M173.33 54H6.67A6.73 6.73 0 0 1 0 47.25V6.75C0 3.04 3 0 6.67 0h166.66A6.73 6.73 0 0 1 180 6.75v40.5c0 3.71-3 6.75-6.67 6.75Z" fill="#000"/>
  <path d="m27.63 26.22-14.2 15.26a3.84 3.84 0 0 0 5.65 2.35l.05-.03 15.97-9.33-7.48-8.25Z" fill="#EA4335"/>
  <path d="m41.98 23.63-.01-.02-6.9-4.05-7.77 7 7.8 7.9 6.86-4a3.89 3.89 0 0 0 2.02-3.43c0-1.47-.8-2.75-2-3.4Z" fill="#FBBC04"/>
  <path d="M13.43 12.52a3.7 3.7 0 0 0-.13 1v26.96c0 .35.04.68.13 1L28.1 26.62l-14.68-14.1Z" fill="#4285F4"/>
  <path d="m27.73 27 7.34-7.44-15.96-9.37a3.85 3.85 0 0 0-5.69 2.33L27.73 27Z" fill="#34A853"/>
  <path d="M131.52 32h2.17V17.43h-2.17V32Zm19.59-9.32L148.6 29h-.07l-2.59-6.32h-2.34l3.88 8.83-2.21 4.9h2.27l5.97-13.73h-2.41Zm-12.34 7.67c-.7 0-1.7-.36-1.7-1.24 0-1.13 1.24-1.56 2.3-1.56.96 0 1.41.2 1.99.49a2.64 2.64 0 0 1-2.59 2.3Zm.27-7.99c-1.58 0-3.2.7-3.88 2.23l1.93.8c.4-.8 1.18-1.06 1.98-1.06 1.13 0 2.27.67 2.29 1.87v.15a4.8 4.8 0 0 0-2.27-.56c-2.08 0-4.2 1.14-4.2 3.28 0 1.95 1.71 3.2 3.62 3.2 1.46 0 2.27-.65 2.78-1.42h.07v1.13h2.1v-5.59c0-2.59-1.93-4.03-4.42-4.03Zm-13.44 2.1h-3.1v-5h3.1a2.52 2.52 0 0 1 2.55 2.5c0 1.12-.93 2.5-2.55 2.5Zm-.06-7.03h-5.21V32h2.17v-5.52h3.04c2.41 0 4.78-1.75 4.78-4.52 0-2.78-2.37-4.53-4.78-4.53ZM97.13 30.35c-1.5 0-2.76-1.26-2.76-2.99 0-1.74 1.25-3.02 2.76-3.02 1.48 0 2.64 1.28 2.64 3.02 0 1.73-1.16 2.99-2.64 2.99Zm2.5-6.86h-.08a3.43 3.43 0 0 0-2.61-1.1 4.93 4.93 0 0 0-4.75 4.97 4.9 4.9 0 0 0 4.75 4.94c1.18 0 2.12-.52 2.6-1.13h.08v.72c0 1.9-1.01 2.9-2.64 2.9a2.74 2.74 0 0 1-2.5-1.76l-1.9.8a4.72 4.72 0 0 0 4.4 2.92c2.55 0 4.7-1.5 4.7-5.16v-8.9h-2.06v.8Zm3.56 8.51h2.18V17.43h-2.18V32Zm5.39-4.8a2.72 2.72 0 0 1 2.59-2.9c.86 0 1.6.43 1.84 1.05l-4.43 1.84Zm6.76-1.66c-.42-1.1-1.67-3.15-4.25-3.15-2.55 0-4.67 2-4.67 4.95 0 2.78 2.1 4.96 4.92 4.96a4.93 4.93 0 0 0 4.13-2.2l-1.69-1.12a2.83 2.83 0 0 1-2.44 1.37c-1.1 0-1.9-.5-2.4-1.5l6.62-2.75-.22-.56Zm-52.8-1.63V26h5.03a4.38 4.38 0 0 1-1.15 2.65 5.15 5.15 0 0 1-3.89 1.54c-3.1 0-5.52-2.5-5.52-5.6a5.52 5.52 0 0 1 9.32-4.1l1.48-1.47a7.34 7.34 0 0 0-5.28-2.13 7.8 7.8 0 0 0-7.8 7.7 7.8 7.8 0 0 0 7.8 7.7c2.3 0 4.02-.75 5.37-2.16a6.95 6.95 0 0 0 1.82-4.92c0-.49-.03-.94-.1-1.31h-7.09Zm12.9 6.44c-1.5 0-2.8-1.24-2.8-3 0-1.79 1.3-3.01 2.8-3.01 1.5 0 2.8 1.22 2.8 3 0 1.77-1.3 3-2.8 3Zm0-7.96a4.89 4.89 0 0 0-4.97 4.95 4.9 4.9 0 0 0 4.98 4.96 4.9 4.9 0 0 0 4.97-4.96 4.89 4.89 0 0 0-4.97-4.95Zm10.86 7.96c-1.5 0-2.8-1.24-2.8-3 0-1.79 1.3-3.01 2.8-3.01 1.5 0 2.8 1.22 2.8 3 0 1.77-1.3 3-2.8 3Zm0-7.96a4.89 4.89 0 0 0-4.98 4.95 4.9 4.9 0 0 0 4.98 4.96 4.9 4.9 0 0 0 4.98-4.96 4.89 4.89 0 0 0-4.98-4.95ZM54.93 44.1v-.94h2.74v.93h-2.74Z" fill="#fff"/>
  <path d="M54.93 44.1h.13v-.8h2.48v.66h-2.61v.27h2.87v-1.2h-3v1.2h.13v-.14Zm9.03 1.6c.45-.26.8-.63 1.06-1.13.25-.5.38-1.05.38-1.66 0-.6-.12-1.06-.37-1.39a1.2 1.2 0 0 0-1.01-.49c-.44 0-.79.17-1.05.5-.25.33-.38.8-.38 1.38 0 .57.12 1.12.37 1.62.24.51.58.9 1 1.17Zm-2.02-4.26c-.25-.27-.57-.4-.96-.4-.46 0-.82.16-1.08.49-.27.33-.4.79-.4 1.37 0 .57.12 1.1.35 1.59a2.68 2.68 0 0 0 2.55 1.54c.26 0 .48-.02.66-.05a3.74 3.74 0 0 1-1.46-3.14c0-.52.11-.99.34-1.4Zm.56-.68a2.41 2.41 0 0 1 1.52-.52c.73 0 1.31.24 1.74.72.43.48.64 1.13.64 1.95a3.88 3.88 0 0 1-1.49 3.07c.21.03.43.05.64.05.87 0 1.55-.26 2.05-.79.5-.53.74-1.23.74-2.11a3.82 3.82 0 0 0-.83-2.36l.78-.53a4.56 4.56 0 0 1 .58 4.82c-.3.56-.74 1-1.31 1.3a4.4 4.4 0 0 1-2 .44c-.59 0-1.11-.1-1.58-.3-.49.2-1.04.3-1.65.3-.76 0-1.43-.16-2-.48a3.29 3.29 0 0 1-1.35-1.38c-.31-.6-.47-1.3-.47-2.07 0-.8.22-1.43.67-1.91a2.33 2.33 0 0 1 1.79-.72c.6 0 1.12.17 1.53.52Z" fill="#fff"/>
  <path d="m63.96 45.7.07.11c.47-.26.84-.66 1.1-1.18.27-.52.4-1.1.4-1.72 0-.62-.12-1.11-.4-1.47a1.34 1.34 0 0 0-1.11-.54c-.47 0-.87.19-1.15.55-.28.36-.42.85-.42 1.46 0 .6.13 1.16.38 1.68.26.53.61.94 1.06 1.22l.07.04.07-.04-.07-.11.07-.12c-.4-.25-.72-.62-.95-1.1a3.55 3.55 0 0 1-.36-1.57c0-.57.12-1 .36-1.3.24-.3.53-.44.94-.44.4 0 .68.14.9.43.23.3.35.73.35 1.3 0 .6-.12 1.13-.37 1.6a2.5 2.5 0 0 1-1 1.08l.06.12Zm-2.02-4.26.1-.09a1.4 1.4 0 0 0-1.06-.45c-.49 0-.9.18-1.19.55-.29.36-.42.85-.42 1.45s.12 1.14.36 1.65a2.82 2.82 0 0 0 2.67 1.61c.27 0 .5-.01.69-.05l.29-.05-.23-.18a3.6 3.6 0 0 1-1.42-3.04c0-.5.1-.94.33-1.33l.04-.09-.06-.07-.1.1-.12-.07c-.24.43-.36.92-.36 1.46a3.87 3.87 0 0 0 1.52 3.25l.08-.1-.02-.14c-.17.03-.39.05-.64.05-.56 0-1.05-.13-1.47-.4a2.55 2.55 0 0 1-.96-1.07 3.46 3.46 0 0 1-.34-1.53 2 2 0 0 1 .37-1.3c.24-.3.56-.44.98-.44.36 0 .63.12.86.36l.1-.09Zm.56-.68.09.1a2.27 2.27 0 0 1 1.43-.49c.7 0 1.24.23 1.64.67.4.45.6 1.07.6 1.87 0 .6-.12 1.16-.37 1.68-.25.51-.6.94-1.05 1.28l-.25.18.3.06c.22.03.44.05.66.05.9 0 1.63-.27 2.15-.83.51-.55.77-1.3.77-2.2a3.95 3.95 0 0 0-.86-2.44l-.1.08.07.11.79-.53-.08-.11-.1.08a4.11 4.11 0 0 1 1 2.79 3.9 3.9 0 0 1-.44 1.88c-.29.55-.7.95-1.26 1.24-.54.29-1.19.44-1.93.44-.57 0-1.08-.1-1.53-.3l-.05-.01-.05.02c-.47.19-1 .29-1.6.29a3.9 3.9 0 0 1-1.94-.47 3.1 3.1 0 0 1-1.29-1.32 4.23 4.23 0 0 1-.46-2.01c0-.77.22-1.37.64-1.82a2.2 2.2 0 0 1 1.69-.68c.58 0 1.06.16 1.45.5l.08.06.09-.06-.09-.1.09-.11c-.44-.37-1-.56-1.62-.56-.77 0-1.41.26-1.89.76-.47.51-.7 1.19-.7 2.01 0 .8.16 1.51.49 2.13.32.63.8 1.1 1.39 1.44.6.33 1.29.5 2.07.5.63 0 1.2-.1 1.7-.32l-.05-.12-.05.12c.48.21 1.03.31 1.63.31a4.4 4.4 0 0 0 2.06-.46c.6-.31 1.05-.76 1.37-1.35a4.7 4.7 0 0 0-.6-4.97l-.07-.1-.89.61-.12.09.1.1a3.68 3.68 0 0 1 .8 2.27c0 .86-.24 1.53-.7 2.03-.48.5-1.11.75-1.96.75-.2 0-.41-.02-.6-.06l-.03.13.08.11c.48-.36.87-.82 1.13-1.38.27-.55.4-1.15.4-1.8 0-.84-.22-1.52-.67-2.03a2.35 2.35 0 0 0-1.84-.77 2.57 2.57 0 0 0-1.6.56l.08.1Z" fill="#fff"/>
  <path d="M67.65 39.57c-.05-.2-.07-.38-.07-.54 0-.59.19-1.05.56-1.4.37-.35.86-.52 1.45-.52.56 0 1 .13 1.34.39.32.26.54.58.66.97.1.4.16.98.16 1.77v6.43h-.97v-6.15c0-.72-.04-1.25-.1-1.6a1.4 1.4 0 0 0-.37-.76.97.97 0 0 0-.7-.25c-.3 0-.55.1-.75.28-.2.2-.3.46-.3.8a2 2 0 0 0 .05.41l-.96.17Z" fill="#fff"/>
  <path d="m67.65 39.57.13-.03c-.04-.2-.06-.36-.06-.51 0-.56.17-.98.51-1.3a1.9 1.9 0 0 1 1.36-.49 2 2 0 0 1 1.25.36c.31.24.51.54.62.91.1.37.16.95.16 1.73v6.3h-.71v-6.02a9.3 9.3 0 0 0-.1-1.62c-.07-.36-.2-.64-.4-.84a1.1 1.1 0 0 0-.8-.29c-.33 0-.62.11-.84.33-.23.21-.34.52-.34.89 0 .14.02.29.05.44l.13-.03-.03-.13-.95.17.02.13.02.13 1.1-.2-.03-.13a1.9 1.9 0 0 1-.04-.38c0-.32.08-.54.25-.7a.91.91 0 0 1 .66-.25c.27 0 .46.07.61.21.15.15.26.38.33.7.06.33.1.86.1 1.57v6.28h1.24v-6.56a7 7 0 0 0-.18-1.8 2 2 0 0 0-.7-1.05 2.25 2.25 0 0 0-1.42-.41c-.62 0-1.14.18-1.54.55-.4.37-.6.89-.6 1.5 0 .17.02.36.07.57l.03.13.12-.03-.02-.13Zm15.36 2.05a3.49 3.49 0 0 0-1.15 2.61c0 .59.1 1.03.32 1.33.22.3.53.44.94.44.41 0 .73-.15.94-.44.22-.3.33-.74.33-1.33 0-.58-.12-1.1-.35-1.54-.23-.44-.57-.8-1.03-1.07Zm-4.89-.03a2.73 2.73 0 0 0-1.43 2.57c0 .61.11 1.07.33 1.38.23.3.56.46.99.46.87 0 1.3-.61 1.3-1.84 0-.5-.1-.98-.3-1.43a3 3 0 0 0-.89-1.14Zm.81-.32a3.67 3.67 0 0 1 1.38 2.92c0 .82-.2 1.46-.6 1.92-.4.46-.97.69-1.7.69s-1.3-.23-1.7-.7a2.8 2.8 0 0 1-.62-1.91c0-.63.14-1.2.4-1.72.28-.52.68-.96 1.2-1.32a3.1 3.1 0 0 0-.96-.13c-.53 0-.99.1-1.39.3-.4.21-.7.51-.91.9-.22.4-.32.85-.32 1.35 0 1.1.46 1.92 1.38 2.48l-.56.72a3.5 3.5 0 0 1-1.35-1.34 3.78 3.78 0 0 1-.04-3.63c.3-.5.71-.9 1.24-1.16.53-.27 1.15-.4 1.85-.4.68 0 1.31.15 1.89.45a4.7 4.7 0 0 1 1.06-.34 7.2 7.2 0 0 1 1.36-.11c.93 0 1.7.13 2.29.39.28-.27.49-.5.6-.71.12-.21.18-.42.18-.63a.75.75 0 0 0-.23-.57.91.91 0 0 0-.65-.22c-.3 0-.58.04-.84.13l-.23-.78c.4-.1.8-.16 1.22-.16.37 0 .68.06.93.18a1.37 1.37 0 0 1 .8 1.22c0 .33-.08.64-.24.93-.15.3-.41.62-.78.97a3.58 3.58 0 0 1 1.8 3.17c0 .84-.2 1.49-.59 1.95-.4.46-.96.69-1.7.69-.71 0-1.26-.22-1.65-.67a2.85 2.85 0 0 1-.59-1.93c0-.52.11-1.03.33-1.52.23-.49.56-.96 1-1.4a5.94 5.94 0 0 0-1.66-.23c-.57 0-1.1.08-1.6.22Z" fill="#fff"/>
  <path d="m83.01 41.62-.1-.1a3.62 3.62 0 0 0-1.2 2.7c.02.61.12 1.08.36 1.42.24.33.6.5 1.05.5.44 0 .81-.17 1.05-.5.24-.34.35-.8.35-1.4 0-.6-.12-1.14-.36-1.6-.24-.47-.6-.85-1.08-1.13l-.09-.06-.07.07.09.1-.07.11c.44.27.76.6.98 1.02.22.43.33.92.33 1.48 0 .57-.1.99-.3 1.25-.19.26-.45.39-.83.39-.38 0-.64-.13-.83-.4-.2-.25-.3-.67-.3-1.24a3.54 3.54 0 0 1 1.11-2.52l-.09-.09Zm-4.89-.03-.06-.11c-1 .55-1.5 1.47-1.5 2.68 0 .63.1 1.11.36 1.46.24.34.62.52 1.09.52.46 0 .85-.18 1.09-.52.24-.34.35-.83.35-1.46 0-.52-.1-1.02-.32-1.49a3.13 3.13 0 0 0-.92-1.18l-.07-.06-.08.05.06.11-.08.1a3.28 3.28 0 0 1 1.14 2.46c0 .6-.1 1.04-.3 1.31-.2.27-.47.4-.87.4s-.68-.13-.88-.4c-.2-.27-.3-.7-.3-1.3 0-1.14.44-1.93 1.36-2.45l-.07-.12Zm.81-.32-.08.1a3.53 3.53 0 0 1 1.33 2.82c0 .8-.2 1.4-.57 1.83-.38.43-.9.64-1.6.65a2 2 0 0 1-1.6-.65 2.66 2.66 0 0 1-.58-1.83 3.39 3.39 0 0 1 1.54-2.93l.23-.16-.26-.08c-.3-.1-.63-.14-1.01-.14a3.1 3.1 0 0 0-1.45.33c-.42.22-.74.54-.97.95a2.9 2.9 0 0 0-.34 1.41c0 1.13.5 2.02 1.45 2.6l.07-.12-.11-.08-.56.71.1.09.07-.12a3.36 3.36 0 0 1-1.3-1.29 3.64 3.64 0 0 1-.03-3.5c.28-.48.67-.85 1.18-1.1a3.9 3.9 0 0 1 1.8-.39c.65 0 1.26.14 1.82.43l.05.03.06-.02c.31-.15.66-.26 1.04-.33a7.28 7.28 0 0 1 3.56.27l.08.04.07-.06c.29-.27.5-.52.63-.75.13-.22.2-.45.2-.69 0-.26-.1-.5-.27-.67a1.05 1.05 0 0 0-.75-.25c-.3 0-.6.04-.88.13l.04.13.12-.04-.22-.77-.13.03.04.13c.39-.1.78-.16 1.18-.16.35 0 .64.06.88.17.23.12.4.28.53.48.12.2.18.4.18.62 0 .3-.07.6-.22.87-.14.28-.4.6-.75.94l-.13.12.15.09a3.44 3.44 0 0 1 1.74 3.05c0 .82-.2 1.43-.56 1.86-.37.43-.89.64-1.6.65-.68 0-1.2-.21-1.55-.63-.36-.42-.55-1.02-.55-1.84 0-.5.1-1 .32-1.47.21-.47.53-.92.97-1.37l.16-.15-.22-.07a6.08 6.08 0 0 0-1.7-.22 5.9 5.9 0 0 0-1.64.22l-.24.07.2.16.08-.1.04.12a6.22 6.22 0 0 1 3.19 0l.04-.12-.1-.1c-.45.47-.8.95-1.03 1.45-.23.5-.34 1.04-.34 1.58a3 3 0 0 0 .62 2.02c.41.48 1.01.71 1.76.71.76 0 1.37-.24 1.8-.73.41-.5.62-1.18.62-2.04a3.72 3.72 0 0 0-1.87-3.28l-.07.11.1.1c.36-.36.63-.69.8-1 .16-.32.25-.65.25-1a1.48 1.48 0 0 0-.87-1.34 2.3 2.3 0 0 0-.99-.2c-.42 0-.84.06-1.25.17l-.13.04.3 1.03.13-.04c.25-.07.52-.11.8-.11.26 0 .44.06.56.18.13.12.19.26.19.47 0 .19-.05.37-.16.56-.1.2-.3.42-.58.68l.09.1.05-.12c-.62-.27-1.4-.4-2.34-.4a5.57 5.57 0 0 0-2.48.45l.06.13.06-.12a4.16 4.16 0 0 0-1.95-.47 4.1 4.1 0 0 0-1.9.42c-.56.28-1 .68-1.3 1.21a3.91 3.91 0 0 0 .04 3.77c.32.58.8 1.04 1.39 1.38l.1.06.72-.92-.13-.08a2.59 2.59 0 0 1-1.3-2.37c0-.48.1-.9.3-1.28.2-.37.48-.65.86-.85.37-.2.81-.29 1.32-.29.35 0 .66.04.93.13l.04-.13-.08-.11c-.54.37-.96.83-1.24 1.37a3.78 3.78 0 0 0-.42 1.78c0 .84.21 1.51.65 2 .43.5 1.05.74 1.8.74s1.37-.24 1.8-.73c.43-.5.64-1.17.64-2.01a3.89 3.89 0 0 0-1.43-3.03l-.09.1Zm19.69 2.34c0 .6.04 1.04.1 1.36.08.32.23.56.45.74.22.18.51.27.88.27.51 0 .92-.2 1.24-.63.31-.42.47-.98.47-1.7a3.13 3.13 0 0 0-1.35-2.7l.67-.71c.6.48 1.02.99 1.28 1.53.26.55.4 1.18.4 1.89 0 .96-.26 1.73-.76 2.3-.5.56-1.17.84-2.02.84a2.8 2.8 0 0 1-1.04-.18 1.9 1.9 0 0 1-.77-.56 2.1 2.1 0 0 1-.42-.9 6.95 6.95 0 0 1-.12-1.44v-.4c0-.64-.04-1.1-.12-1.4-.09-.28-.23-.5-.43-.65-.2-.15-.45-.22-.77-.22-.3 0-.57.08-.78.25-.2.16-.35.39-.43.67-.08.3-.12.69-.12 1.2v3.5h-.97v-3.3c0-.58-.04-1.01-.12-1.3a1.3 1.3 0 0 0-.45-.73 1.3 1.3 0 0 0-.88-.3c-.33.01-.63.1-.9.3-.27.19-.49.46-.65.82-.16.37-.24.76-.24 1.2a3.1 3.1 0 0 0 1.36 2.69l-.65.72a4.55 4.55 0 0 1-1.3-1.53 4.18 4.18 0 0 1-.05-3.5 2.62 2.62 0 0 1 2.47-1.5c.4 0 .77.08 1.07.23.3.16.59.43.83.8a2.1 2.1 0 0 1 1.94-1.03c.46 0 .85.1 1.17.3.32.2.57.5.75.88.17.38.26.99.26 1.82v.37Z" fill="#fff"/>
  <path d="M98.62 43.61h-.13c0 .6.03 1.06.1 1.4.09.33.25.6.5.8.24.2.57.3.96.3a1.6 1.6 0 0 0 1.34-.68c.34-.45.5-1.04.5-1.77a3.26 3.26 0 0 0-1.41-2.8l-.08.1.1.09.67-.72-.1-.1-.08.11c.6.47 1 .97 1.25 1.5.25.52.38 1.12.38 1.82a3.2 3.2 0 0 1-.72 2.2c-.48.54-1.1.8-1.92.8-.38 0-.7-.05-1-.17a1.73 1.73 0 0 1-.7-.51 1.98 1.98 0 0 1-.4-.85 6.3 6.3 0 0 1-.12-1.4v-.41a5.6 5.6 0 0 0-.13-1.43c-.09-.3-.24-.55-.46-.72a1.39 1.39 0 0 0-.86-.25c-.33 0-.62.09-.86.27-.23.18-.4.44-.48.75-.08.3-.12.71-.12 1.22v3.37h-.71v-3.17c0-.57-.04-1.01-.12-1.33a1.5 1.5 0 0 0-.5-.8 1.47 1.47 0 0 0-.96-.31c-.36 0-.69.1-.98.3-.3.22-.52.51-.69.89-.17.38-.25.8-.25 1.25 0 1.2.48 2.15 1.41 2.8l.08-.11-.1-.1-.65.73.1.09.08-.1c-.58-.47-1-.96-1.26-1.49a4.04 4.04 0 0 1-.05-3.37 2.48 2.48 0 0 1 2.35-1.44c.4 0 .73.07 1.01.22s.54.4.78.75l.12.18.1-.18c.4-.65 1-.97 1.83-.97a2 2 0 0 1 1.1.29c.3.19.53.46.7.82.16.34.25.94.25 1.76v.37h.26v-.37a4.7 4.7 0 0 0-.27-1.87c-.19-.4-.45-.72-.8-.94a2.26 2.26 0 0 0-1.24-.33c-.9 0-1.61.37-2.05 1.1l.11.07.12-.07a2.43 2.43 0 0 0-.89-.84 2.9 2.9 0 0 0-2.69.16c-.44.28-.8.67-1.03 1.17a4.31 4.31 0 0 0 .06 3.61c.27.57.72 1.09 1.33 1.57l.1.08.73-.81.1-.12-.13-.08a2.94 2.94 0 0 1-1.3-2.58c0-.42.08-.8.23-1.14.16-.34.35-.6.6-.77.25-.18.52-.27.83-.27.33 0 .59.1.8.26.2.17.34.39.4.66.07.27.11.7.11 1.26v3.44h1.25v-3.64c0-.5.04-.88.1-1.15a1.08 1.08 0 0 1 1.08-.83c.3 0 .54.07.7.2.18.13.3.32.38.58.07.27.12.72.12 1.36v.4c0 .62.03 1.1.12 1.47.08.37.23.69.45.95a2 2 0 0 0 .82.6c.32.13.69.2 1.1.2.87 0 1.59-.3 2.11-.9.53-.6.79-1.4.79-2.38 0-.73-.14-1.38-.4-1.94a4.6 4.6 0 0 0-1.33-1.59l-.1-.07-.86.92.13.08a3.03 3.03 0 0 1 1.29 2.6c0 .69-.15 1.22-.44 1.61-.3.4-.66.57-1.13.58-.34 0-.6-.09-.8-.24-.2-.16-.32-.38-.4-.67a7.1 7.1 0 0 1-.1-1.33h-.13Z" fill="#fff"/>
  <path d="M104.75 40.4v8.07h-3.88v-.8h2.9v-7.28h.98Z" fill="#fff"/>
  <path d="M104.75 40.4h-.13v7.94H101v-.54h2.9v-7.28h.85v-.26h-1.11v7.27h-2.9v1.07h4.14v-8.34h-.13v.13Z" fill="#fff"/>
  <path d="M105.08 37.84h-.07c-.33-.02-.6.05-.8.2a.72.72 0 0 0-.33.62c0 .22.07.38.2.5.12.13.3.2.53.2.25 0 .44-.07.57-.21.14-.14.2-.32.2-.55 0-.3-.1-.55-.3-.77Zm2.95 8.83h-.97V40.7a9.9 9.9 0 0 0-.08-1.35 2 2 0 0 0-.32-.87c-.17-.24-.38-.4-.65-.5.11.16.16.39.16.67 0 .46-.13.82-.41 1.07-.28.26-.68.38-1.2.38a1.6 1.6 0 0 1-1.11-.4c-.3-.27-.45-.62-.45-1.07 0-.45.18-.82.55-1.1.36-.28.85-.43 1.46-.43.7 0 1.28.12 1.73.35.45.23.78.57.99 1.02.2.44.3 1.13.3 2.04v6.15Z" fill="#fff"/>
  <path d="M105.08 37.84v-.14h-.07v.13-.13h-.07c-.32 0-.6.08-.81.24a.86.86 0 0 0-.38.72c0 .24.08.45.23.6l.1-.1-.1.1c.16.16.38.23.63.23a.9.9 0 0 0 .67-.25.89.89 0 0 0 .24-.64c0-.32-.12-.62-.34-.86l-.04-.04h-.06v.13l-.1.1c.19.2.27.4.27.67 0 .2-.06.34-.16.46a.68.68 0 0 1-.48.16c-.2 0-.34-.05-.44-.15a.52.52 0 0 1-.15-.4.6.6 0 0 1 .26-.52c.17-.12.39-.18.66-.18h.14v-.13Zm2.95 8.83v-.14h-.84v-5.82c0-.57-.03-1.02-.08-1.37a2.14 2.14 0 0 0-.34-.93 1.49 1.49 0 0 0-.71-.55l-.39-.14.23.34c.09.14.14.34.14.6 0 .44-.13.75-.37.98-.25.22-.6.34-1.11.34-.42 0-.75-.12-1.03-.37-.26-.24-.4-.55-.4-.97 0-.41.16-.73.5-1 .33-.25.8-.4 1.38-.4.69 0 1.24.12 1.67.34a2 2 0 0 1 .93.95c.19.42.3 1.09.3 2v6.14h.26v-6.15c0-.92-.1-1.62-.32-2.1a2.24 2.24 0 0 0-1.05-1.08 3.93 3.93 0 0 0-1.79-.36c-.63 0-1.15.15-1.55.45-.39.3-.6.72-.6 1.21 0 .48.17.88.5 1.17.32.3.73.44 1.2.44.54 0 .98-.14 1.3-.42.3-.28.45-.68.45-1.17 0-.3-.06-.55-.19-.75l-.11.07-.05.13c.24.09.44.24.59.46.15.22.25.48.3.8.05.33.07.78.07 1.34v6.09h1.25v-.13h-.14Zm4.71-3.72h3.31a2.55 2.55 0 0 0-.5-1.44 1.43 1.43 0 0 0-1.15-.48c-.5 0-.88.16-1.16.48-.27.32-.44.8-.5 1.44Zm3.33.8h-3.35a3 3 0 0 0 .45 1.69c.27.38.68.56 1.22.56.53 0 .94-.18 1.22-.56.28-.38.43-.94.46-1.7Zm-3.84 1.88a3.16 3.16 0 0 1-.34-.84 5 5 0 0 1-.15-1.04c-.67 0-1.16.1-1.46.3a.96.96 0 0 0-.47.86c0 .35.1.62.3.81.2.19.48.28.85.28.44 0 .87-.12 1.27-.37Zm.54.63a3.3 3.3 0 0 1-1.84.54c-.67 0-1.18-.16-1.55-.49a1.74 1.74 0 0 1-.54-1.36c0-.3.06-.56.17-.81.12-.25.3-.46.53-.62.23-.17.5-.3.83-.4.32-.1.78-.15 1.4-.17.08-.86.36-1.52.83-2a2.42 2.42 0 0 1 1.8-.71c.75 0 1.35.23 1.8.7.47.46.74 1.14.83 2.01 1 .02 1.72.2 2.17.55.45.35.68.83.68 1.45a1.8 1.8 0 0 1-.52 1.36c-.35.33-.83.49-1.46.49a4 4 0 0 1-1.14-.14l.22-.76c.27.07.53.1.78.1.76 0 1.14-.35 1.14-1.04a1 1 0 0 0-.45-.88c-.3-.2-.76-.3-1.4-.33-.05.99-.3 1.74-.76 2.26-.47.53-1.09.79-1.88.79a2.5 2.5 0 0 1-1.64-.54Z" fill="#fff"/>
  <path d="M112.74 42.95v.13h3.46l-.02-.14a2.68 2.68 0 0 0-.53-1.52c-.3-.35-.73-.52-1.25-.52s-.96.17-1.26.52c-.3.35-.47.86-.53 1.52l-.01.14h.14v-.13h.14c.05-.61.21-1.06.46-1.35.25-.29.6-.43 1.06-.43.46 0 .8.14 1.04.43.25.29.42.74.48 1.36l.13-.01v-.14h-3.3v.14Zm3.33.8v-.14h-3.49v.14c.03.77.18 1.36.48 1.77.3.41.76.62 1.33.62a1.6 1.6 0 0 0 1.33-.62c.3-.41.45-1 .48-1.77v-.14h-.13v.13h-.13a2.87 2.87 0 0 1-.44 1.62c-.25.34-.6.5-1.11.5-.5 0-.86-.16-1.11-.5-.25-.34-.4-.88-.42-1.62h-.14v.14h3.35v-.14Zm-3.84 1.88.11-.07a3.2 3.2 0 0 1-.33-.8 6.13 6.13 0 0 1-.14-1.02v-.12h-.13c-.68 0-1.2.1-1.54.32-.34.21-.52.55-.52.97 0 .37.11.69.34.9.23.23.55.33.94.33.47 0 .92-.14 1.34-.4l.11-.07-.07-.11-.11.07-.07-.12c-.38.24-.78.36-1.2.36-.35 0-.6-.09-.76-.25-.16-.15-.25-.38-.25-.71a.8.8 0 0 1 .4-.74c.26-.18.73-.28 1.4-.29v-.13h-.14a4.46 4.46 0 0 0 .5 1.94l.12-.06Zm.54.63-.08-.12a3.19 3.19 0 0 1-1.77.52c-.64 0-1.12-.15-1.45-.45-.33-.3-.5-.7-.5-1.26a1.58 1.58 0 0 1 .64-1.33c.22-.15.48-.28.8-.37.3-.09.76-.15 1.36-.16h.11l.02-.12c.08-.84.35-1.48.8-1.93.44-.45 1-.67 1.7-.67.72 0 1.28.22 1.71.66.43.44.7 1.08.79 1.94l.01.11h.12c.98.02 1.67.2 2.09.53.42.32.62.75.62 1.34 0 .55-.16.96-.47 1.26-.32.3-.77.46-1.37.46-.45 0-.82-.05-1.1-.14l-.04.13.13.04.22-.77-.13-.03-.03.13c.27.07.54.1.8.1.4 0 .73-.09.95-.29.23-.2.33-.51.33-.88 0-.42-.17-.77-.5-.99a2.87 2.87 0 0 0-1.48-.35h-.13v.12c-.05.97-.3 1.7-.73 2.18-.44.5-1.02.74-1.78.75-.63 0-1.15-.18-1.56-.52l-.07-.06-.09.05.08.12-.09.1c.46.38 1.05.57 1.73.57a2.5 2.5 0 0 0 1.98-.83 3.7 3.7 0 0 0 .8-2.34l-.14-.01v.13a2.7 2.7 0 0 1 1.33.31c.26.18.38.42.38.77 0 .32-.08.54-.24.68-.15.15-.4.23-.76.23-.24 0-.49-.03-.74-.1l-.13-.04-.3 1.02.13.04c.32.1.71.14 1.18.14a2.2 2.2 0 0 0 1.55-.52c.38-.36.56-.86.56-1.46 0-.65-.25-1.19-.73-1.55-.5-.38-1.24-.56-2.25-.58v.13l.13-.01c-.09-.9-.37-1.6-.85-2.1a2.54 2.54 0 0 0-1.9-.74c-.77 0-1.4.25-1.9.76-.5.5-.79 1.2-.88 2.08l.13.01v-.13c-.62.02-1.09.08-1.43.17-.34.1-.63.24-.87.42-.25.18-.44.4-.57.67a2 2 0 0 0-.19.87c0 .6.2 1.11.6 1.46.39.35.94.52 1.63.52a3.43 3.43 0 0 0 1.9-.56l-.06-.11Zm13.99-2.7a1.8 1.8 0 0 0-.6-.5 1.56 1.56 0 0 0-.72-.18c-.44 0-.78.14-1.02.4a1.7 1.7 0 0 0-.35 1.14c0 .52.1.91.32 1.18.21.27.52.4.93.4.5 0 .86-.18 1.1-.53.24-.36.36-.9.36-1.61 0-.06 0-.16-.02-.3Zm-.16-.94c-.18-.5-.5-.88-.98-1.15a3.24 3.24 0 0 0-1.67-.42c-.83 0-1.49.23-1.97.68a2.41 2.41 0 0 0-.7 1.84c0 1.1.45 1.92 1.37 2.48l-.56.72a3.5 3.5 0 0 1-1.35-1.34 3.77 3.77 0 0 1-.05-3.6c.29-.5.71-.9 1.27-1.18a4.4 4.4 0 0 1 1.98-.41c.78 0 1.44.14 2.01.43.57.3 1 .72 1.3 1.28.31.56.47 1.22.47 1.98 0 .93-.21 1.64-.64 2.13a2.2 2.2 0 0 1-1.76.74c-.67 0-1.2-.22-1.6-.66-.4-.45-.6-1.01-.6-1.7 0-.7.19-1.28.57-1.7a2 2 0 0 1 1.56-.65 2 2 0 0 1 1.35.53Z" fill="#fff"/>
  <path d="m126.76 43.56.1-.08c-.18-.23-.4-.42-.64-.54a1.7 1.7 0 0 0-.78-.2c-.47 0-.86.15-1.12.45-.26.3-.38.72-.38 1.23 0 .53.1.96.34 1.26.24.3.6.46 1.04.46.52 0 .95-.2 1.2-.6.27-.39.4-.95.4-1.68l-.03-.3v-.05l-.02-.03-.1.08-.14.01.01.29c0 .7-.12 1.21-.33 1.53-.22.32-.53.48-1 .48-.37 0-.63-.12-.82-.35-.18-.24-.28-.6-.28-1.1 0-.47.1-.81.31-1.05.2-.23.5-.35.92-.36.23 0 .45.06.66.16.2.11.4.27.56.48l.1-.09Zm-.16-.94.13-.05c-.2-.52-.55-.93-1.04-1.22a3.38 3.38 0 0 0-1.74-.43c-.86 0-1.55.23-2.06.7a2.6 2.6 0 0 0-.75 1.95c0 1.13.48 2.02 1.44 2.6l.07-.12-.1-.08-.56.71.1.09.07-.12a3.36 3.36 0 0 1-1.3-1.29 3.64 3.64 0 0 1-.05-3.46c.27-.49.67-.86 1.2-1.13a4.4 4.4 0 0 1 1.93-.4c.76 0 1.4.14 1.95.42.54.28.96.68 1.25 1.22.3.54.44 1.18.44 1.92 0 .9-.2 1.58-.6 2.04-.4.46-.94.7-1.66.7a1.9 1.9 0 0 1-1.5-.62 2.3 2.3 0 0 1-.57-1.6c0-.7.18-1.23.55-1.63.36-.4.83-.6 1.45-.6.47 0 .89.16 1.26.5l.4.35-.19-.5-.12.05.09-.1c-.42-.37-.9-.56-1.44-.56-.68 0-1.24.23-1.65.68a2.6 2.6 0 0 0-.62 1.8c0 .71.21 1.32.63 1.78.43.48 1 .71 1.7.71.8 0 1.43-.26 1.88-.78a3.3 3.3 0 0 0 .66-2.22 4.2 4.2 0 0 0-.47-2.04 3.17 3.17 0 0 0-1.37-1.34 4.5 4.5 0 0 0-2.07-.45 4.5 4.5 0 0 0-2.04.43c-.58.3-1.02.7-1.32 1.24a3.9 3.9 0 0 0 .05 3.73c.33.58.8 1.04 1.4 1.38l.1.06.63-.8.09-.12-.13-.08a2.59 2.59 0 0 1-1.31-2.37c0-.76.22-1.33.67-1.75a2.62 2.62 0 0 1 1.87-.63 3 3 0 0 1 1.6.4c.45.25.75.6.93 1.07l.12-.04Z" fill="#fff"/>
  <path d="M125.85 39.57c-.04-.2-.07-.38-.07-.54 0-.59.2-1.05.56-1.4.38-.35.86-.52 1.45-.52.56 0 1 .13 1.34.39.33.26.55.58.66.97.11.4.17.98.17 1.77v6.43h-.98v-6.15c0-.72-.04-1.25-.1-1.6a1.4 1.4 0 0 0-.37-.76.97.97 0 0 0-.7-.25c-.3 0-.55.1-.75.28-.2.2-.3.46-.3.8a2 2 0 0 0 .05.41l-.96.17Z" fill="#fff"/>
  <path d="m125.85 39.57.13-.03c-.04-.2-.06-.36-.06-.51 0-.56.17-.98.51-1.3a1.9 1.9 0 0 1 1.36-.49 2 2 0 0 1 1.25.36c.31.24.51.54.62.91.1.37.16.95.16 1.73v6.3h-.71v-6.02a9.3 9.3 0 0 0-.1-1.62c-.07-.36-.2-.64-.4-.84a1.1 1.1 0 0 0-.8-.29c-.33 0-.62.11-.84.33-.23.21-.34.52-.34.89 0 .14.02.29.05.44l.13-.03-.03-.13-.95.17.02.13.02.13.96-.17.14-.02-.03-.14a2.03 2.03 0 0 1-.04-.38c0-.32.08-.54.25-.7a.91.91 0 0 1 .66-.25c.27 0 .47.07.61.21.15.14.26.38.33.7a9 9 0 0 1 .1 1.57v6.28h1.24v-6.56c0-.8-.06-1.39-.17-1.8a2.01 2.01 0 0 0-.71-1.05 2.25 2.25 0 0 0-1.42-.41c-.62 0-1.14.18-1.54.55-.4.37-.6.89-.6 1.5 0 .17.02.36.07.57l.03.13.12-.03-.02-.13Zm14.89 4.17c-.03.19-.04.38-.04.6 0 1.14.43 1.71 1.3 1.71.32 0 .58-.09.75-.27.18-.19.27-.45.27-.8 0-.31-.07-.56-.2-.73-.13-.17-.32-.3-.57-.38a4 4 0 0 0-1.16-.13h-.35Zm-6.1-.8h3.31a2.56 2.56 0 0 0-.5-1.43 1.43 1.43 0 0 0-1.15-.48c-.5 0-.88.16-1.16.48-.28.32-.44.8-.5 1.44Zm3.33.8h-3.35a3 3 0 0 0 .45 1.7c.28.38.68.56 1.22.56.53 0 .94-.18 1.22-.56.28-.38.43-.94.46-1.7Zm-3.84 1.89a3.16 3.16 0 0 1-.34-.84 4.94 4.94 0 0 1-.15-1.04c-.67 0-1.16.1-1.47.3-.3.2-.46.48-.46.86 0 .35.1.62.3.81.2.19.48.28.85.28.45 0 .88-.12 1.27-.37Zm.53.63a3.38 3.38 0 0 1-1.84.54c-.66 0-1.18-.16-1.54-.49a1.74 1.74 0 0 1-.55-1.36 1.72 1.72 0 0 1 .72-1.45c.24-.17.52-.3.84-.39.32-.08.78-.14 1.37-.16a3.2 3.2 0 0 1 .84-2 2.42 2.42 0 0 1 1.8-.71c.75 0 1.35.23 1.8.7.47.46.74 1.13.83 2h1.01a3.52 3.52 0 0 1 3.63-2.7c1.08 0 1.92.3 2.53.88.6.59.9 1.38.9 2.36 0 1.42-.6 2.51-1.82 3.29l-.56-.72c.44-.27.78-.61 1.02-1.03.23-.42.35-.9.35-1.42 0-.78-.22-1.4-.66-1.86a2.4 2.4 0 0 0-1.8-.69 2.71 2.71 0 0 0-2.62 1.9h.35c.63 0 1.14.07 1.52.2.37.14.66.36.87.65.21.3.31.68.31 1.16 0 .57-.17 1.02-.52 1.35-.35.33-.84.49-1.46.49-.68 0-1.22-.21-1.61-.64a2.57 2.57 0 0 1-.6-1.8c0-.21.02-.42.03-.62h-.85c-.04.99-.3 1.74-.76 2.27s-1.09.79-1.88.79a2.5 2.5 0 0 1-1.65-.54Z" fill="#fff"/>
  <path d="m140.74 43.74-.14-.01c-.02.19-.04.39-.04.6 0 .6.11 1.05.36 1.37.24.33.62.49 1.08.49.35 0 .65-.1.85-.32.2-.22.3-.52.3-.89 0-.33-.07-.6-.22-.81-.15-.2-.37-.34-.64-.43a4.1 4.1 0 0 0-1.2-.13h-.47l-.02.12.14.01v.14h.35c.51 0 .89.04 1.11.11.24.08.4.2.51.34.11.14.17.35.17.65 0 .33-.08.55-.22.7-.15.16-.36.24-.66.24-.4 0-.68-.13-.87-.38-.2-.25-.3-.65-.3-1.2 0-.2.01-.4.04-.58l-.13-.02Zm-6.1-.8v.14h3.46l-.02-.14a2.68 2.68 0 0 0-.53-1.52c-.3-.35-.73-.52-1.25-.52s-.96.17-1.26.52c-.3.35-.47.86-.53 1.52l-.01.14h.14v-.13h.14c.05-.61.21-1.06.46-1.35.25-.29.6-.43 1.06-.43.46 0 .8.14 1.04.43.25.29.42.74.48 1.36l.13-.01v-.14h-3.3v.14Zm3.33.8v-.13h-3.49v.14c.03.77.18 1.36.48 1.77.3.41.76.62 1.33.62a1.6 1.6 0 0 0 1.33-.62c.3-.41.45-1 .48-1.77v-.14h-.13v.13h-.13a2.87 2.87 0 0 1-.44 1.62c-.25.34-.6.5-1.11.5-.5 0-.86-.16-1.11-.5-.26-.34-.4-.88-.43-1.62h-.13v.14h3.35v-.14Zm-3.84 1.89.11-.07a3.2 3.2 0 0 1-.33-.8 4.7 4.7 0 0 1-.13-1.02v-.12h-.14c-.69 0-1.2.1-1.54.32-.34.21-.53.55-.52.97 0 .37.1.69.33.9.23.23.56.33.95.33.47 0 .93-.14 1.34-.4l.11-.07-.07-.11-.11.07-.07-.12c-.38.24-.78.36-1.2.36-.35 0-.6-.09-.76-.25-.17-.15-.26-.38-.26-.71a.8.8 0 0 1 .4-.74 2.8 2.8 0 0 1 1.4-.29v-.13h-.13a4.46 4.46 0 0 0 .5 1.94l.12-.06Zm.53.63-.06-.12a3.22 3.22 0 0 1-1.77.52c-.66 0-1.13-.15-1.47-.45-.33-.3-.5-.7-.5-1.26 0-.28.06-.53.17-.76.12-.23.28-.42.5-.58.22-.16.49-.28.8-.37a6 6 0 0 1 1.34-.15h.12v-.12c.1-.84.36-1.48.8-1.93a2.3 2.3 0 0 1 1.71-.67c.72 0 1.28.22 1.71.66.43.44.7 1.08.78 1.93l.02.12h1.24l.02-.1a3.4 3.4 0 0 1 1.27-1.93 3.67 3.67 0 0 1 2.23-.68c1.06 0 1.86.29 2.43.85.58.56.87 1.3.87 2.26 0 1.38-.58 2.42-1.77 3.17l.08.12.1-.09-.56-.71-.1.08.06.12a2.94 2.94 0 0 0 1.45-2.57c0-.8-.23-1.47-.7-1.95a2.53 2.53 0 0 0-1.9-.73c-.63 0-1.19.18-1.68.53-.49.35-.85.84-1.07 1.45l-.06.18h.54c.62 0 1.12.07 1.47.2.36.13.62.33.81.6.2.27.29.62.29 1.08 0 .54-.17.95-.49 1.25-.32.3-.76.46-1.36.46a1.9 1.9 0 0 1-1.51-.6c-.37-.4-.56-.96-.56-1.72l.03-.6.01-.14h-1.13v.13a3.43 3.43 0 0 1-.73 2.18c-.44.5-1.01.74-1.78.75a2.4 2.4 0 0 1-1.56-.51l-.07-.07-.09.05.07.12-.08.1c.46.38 1.05.57 1.73.57.82 0 1.5-.28 1.98-.83a3.7 3.7 0 0 0 .8-2.35h-.14v.13h.86v-.14h-.14l-.02.61c0 .8.2 1.44.62 1.9.42.46 1 .68 1.71.68.64 0 1.17-.17 1.55-.53.38-.35.57-.85.57-1.44 0-.5-.11-.9-.34-1.23a1.9 1.9 0 0 0-.94-.7c-.4-.15-.92-.22-1.56-.22h-.35v.14l.12.04a2.6 2.6 0 0 1 2.5-1.8c.72 0 1.28.22 1.7.65.42.42.63 1 .63 1.76 0 .5-.12.95-.34 1.35-.23.4-.55.73-.97.99l-.13.08.65.83.07.1.1-.07a3.8 3.8 0 0 0 1.9-3.4c0-1.01-.32-1.84-.95-2.46a3.59 3.59 0 0 0-2.62-.92 3.65 3.65 0 0 0-3.76 2.81l.13.04v-.14h-1.01v.14l.13-.02a3.4 3.4 0 0 0-.86-2.09 2.55 2.55 0 0 0-1.9-.74c-.76 0-1.4.25-1.9.76-.49.5-.78 1.2-.87 2.08l.13.01v-.13a5.9 5.9 0 0 0-1.4.17c-.34.09-.63.22-.88.4a1.83 1.83 0 0 0-.79 1.56c0 .6.2 1.11.6 1.46.4.35.94.52 1.63.52a3.51 3.51 0 0 0 1.92-.56l-.08-.11Zm13.42 1.02c0 .37.1.67.3.89.21.21.48.32.82.32.33 0 .6-.1.8-.32.21-.22.31-.52.31-.9s-.1-.67-.3-.9c-.2-.2-.47-.32-.82-.32-.33 0-.6.11-.8.33-.2.21-.31.51-.31.9Zm.77-1.96c.2-.72.35-1.32.44-1.8.08-.49.12-.93.12-1.33 0-.38-.07-.67-.22-.85-.15-.2-.38-.29-.68-.29-.22 0-.45.04-.68.1l-.2-.79c.31-.08.64-.12 1-.12.58 0 1.02.16 1.33.49.3.32.45.8.45 1.4a8 8 0 0 1-.15 1.43c-.1.54-.26 1.14-.46 1.81a1.83 1.83 0 0 1 1.44 1.9 1.9 1.9 0 0 1-.56 1.43c-.38.36-.88.54-1.48.54-.62 0-1.12-.17-1.5-.54a1.9 1.9 0 0 1-.55-1.43c0-.51.15-.95.45-1.3.31-.36.73-.57 1.25-.65Z" fill="#fff"/>
  <path d="M148.08 47.28h-.13c0 .4.1.73.34.98.23.24.54.37.9.37.37 0 .68-.12.91-.37.24-.24.35-.58.35-1 0-.39-.11-.73-.34-.97a1.2 1.2 0 0 0-.92-.37c-.36 0-.68.12-.9.36a1.4 1.4 0 0 0-.34 1h.26c0-.36.1-.63.27-.81a.9.9 0 0 1 .71-.28c.32 0 .55.1.72.28.18.19.27.45.27.8 0 .36-.1.62-.27.8a.93.93 0 0 1-.71.29.96.96 0 0 1-.72-.28 1.1 1.1 0 0 1-.27-.8h-.13Zm.77-1.96.13.04c.2-.72.35-1.33.44-1.82.08-.5.13-.94.13-1.35 0-.4-.08-.72-.26-.94-.17-.22-.45-.33-.78-.33-.24 0-.47.03-.71.1l.03.12.13-.03-.2-.78-.12.03.03.13c.3-.08.61-.12.95-.12.56 0 .97.15 1.24.45.27.3.41.72.42 1.3a8 8 0 0 1-.16 1.42c-.1.53-.25 1.13-.45 1.8l-.04.13.14.03a1.7 1.7 0 0 1 1.34 1.77c0 .56-.17 1-.53 1.33-.35.34-.8.51-1.38.51a1.9 1.9 0 0 1-1.4-.5 1.77 1.77 0 0 1-.52-1.34 1.77 1.77 0 0 1 1.59-1.81l.09-.02.02-.08-.13-.04-.01-.13c-.56.08-1 .31-1.34.7-.32.37-.48.84-.48 1.38 0 .62.2 1.14.6 1.53.4.39.93.58 1.58.58.63 0 1.17-.2 1.57-.58.4-.4.61-.91.6-1.53 0-.5-.13-.94-.4-1.3-.27-.36-.66-.6-1.14-.73l-.03.13.13.04c.2-.67.35-1.28.46-1.83.1-.54.15-1.03.15-1.45 0-.63-.16-1.14-.49-1.5a1.9 1.9 0 0 0-1.43-.53c-.36 0-.7.05-1.02.13l-.12.04.22.9.03.14.13-.04c.22-.05.44-.08.65-.08.28 0 .45.08.58.23.12.15.19.4.19.77 0 .39-.04.82-.13 1.3-.08.48-.22 1.08-.43 1.8l.13.03Z" fill="#fff"/>
  <path d="M154.63 42.95h3.3a2.55 2.55 0 0 0-.5-1.44 1.42 1.42 0 0 0-1.14-.48c-.5 0-.89.16-1.16.48-.28.32-.45.8-.5 1.44Zm3.32.8h-3.34c.02.75.17 1.31.44 1.69.28.38.69.56 1.22.56s.94-.18 1.22-.56c.28-.38.44-.94.46-1.7Zm-3.84 1.88a3.2 3.2 0 0 1-.34-.84 4.88 4.88 0 0 1-.14-1.04c-.67 0-1.16.1-1.47.3-.3.2-.46.48-.46.86 0 .35.1.62.3.81.2.19.48.28.84.28.45 0 .87-.12 1.27-.37Zm.54.63a3.3 3.3 0 0 1-1.84.54c-.67 0-1.18-.16-1.55-.49a1.74 1.74 0 0 1-.54-1.36c0-.3.06-.56.18-.81s.3-.46.52-.62c.23-.17.5-.3.83-.4.32-.1.79-.15 1.4-.17.09-.86.37-1.52.84-2a2.43 2.43 0 0 1 1.8-.71c.75 0 1.35.23 1.8.7.46.46.73 1.14.83 2.01.99.02 1.71.2 2.16.55.45.35.68.83.68 1.45a1.8 1.8 0 0 1-.52 1.36c-.34.33-.83.49-1.46.49a4 4 0 0 1-1.14-.14l.23-.76c.26.07.52.1.77.1.76 0 1.14-.35 1.14-1.04a1 1 0 0 0-.44-.88c-.3-.2-.77-.3-1.4-.33-.05.99-.3 1.74-.77 2.26-.46.53-1.09.79-1.87.79-.66 0-1.21-.18-1.65-.54Z" fill="#fff"/>
  <path d="M154.63 42.95v.13h3.45l-.01-.14a2.69 2.69 0 0 0-.54-1.52c-.3-.35-.73-.52-1.24-.52-.53 0-.96.17-1.27.52-.3.35-.47.86-.53 1.52v.14h.14v-.13h.13c.05-.61.22-1.06.47-1.35.25-.29.59-.43 1.06-.43.46 0 .79.14 1.04.43s.41.74.47 1.36l.14-.01v-.14h-3.31v.14Zm3.32.8v-.14h-3.48v.14c.03.77.18 1.36.48 1.77.3.41.76.62 1.32.62.57 0 1.03-.21 1.33-.62.3-.41.46-1 .49-1.77v-.14h-.14v.13h-.13a2.86 2.86 0 0 1-.43 1.62c-.26.34-.61.5-1.12.5-.5 0-.86-.16-1.1-.5a2.8 2.8 0 0 1-.43-1.62h-.14v.14h3.35v-.14Zm-3.84 1.88.12-.07a3 3 0 0 1-.33-.8 4.57 4.57 0 0 1-.14-1.02v-.12h-.13a3 3 0 0 0-1.54.32 1.1 1.1 0 0 0-.53.97c0 .37.11.69.34.9.23.23.56.33.94.33.47 0 .92-.14 1.34-.4l.11-.07-.06-.11-.12.07-.07-.12c-.38.24-.78.36-1.2.36-.34 0-.59-.09-.75-.25-.17-.15-.26-.38-.26-.71a.8.8 0 0 1 .4-.74c.27-.18.74-.28 1.4-.29v-.13h-.14c.02.39.07.74.15 1.07.08.32.2.62.36.87l.11-.06Zm.54.63-.07-.12a3.18 3.18 0 0 1-1.77.52c-.65 0-1.12-.15-1.46-.45-.33-.3-.5-.7-.5-1.26a1.66 1.66 0 0 1 .65-1.33c.22-.15.48-.28.79-.37.3-.09.76-.15 1.36-.16h.12l.01-.12c.09-.84.36-1.48.8-1.93.45-.45 1-.67 1.7-.67.73 0 1.29.22 1.72.66.43.44.7 1.08.78 1.94l.01.11h.12c.98.02 1.68.2 2.1.53.41.32.61.75.62 1.34 0 .55-.16.96-.48 1.26-.31.3-.76.46-1.37.46-.45 0-.81-.05-1.1-.14l-.04.13.13.04.22-.77-.13-.03-.03.13c.28.07.55.1.81.1.4 0 .72-.09.95-.29.22-.2.33-.51.32-.88 0-.42-.17-.77-.5-.99a2.86 2.86 0 0 0-1.47-.35h-.13l-.01.12c-.04.97-.3 1.7-.73 2.18-.44.5-1.01.74-1.77.75-.64 0-1.15-.18-1.56-.52l-.08-.06-.08.05.07.12-.09.1a2.7 2.7 0 0 0 1.74.57 2.5 2.5 0 0 0 1.97-.83 3.7 3.7 0 0 0 .8-2.34l-.14-.01v.13c.63.02 1.07.14 1.33.31.26.18.39.42.39.77 0 .32-.09.54-.25.68-.15.15-.4.23-.76.23a2.8 2.8 0 0 1-.74-.1l-.13-.04-.25.9-.04.12.13.04c.31.1.7.14 1.17.14.65 0 1.18-.17 1.56-.52.37-.36.56-.86.55-1.46 0-.65-.24-1.19-.73-1.55-.49-.38-1.23-.56-2.24-.58v.13l.13-.01c-.1-.9-.38-1.6-.86-2.1a2.54 2.54 0 0 0-1.9-.74c-.76 0-1.4.25-1.9.76-.5.5-.78 1.2-.88 2.08l.14.01v-.13c-.62.02-1.1.08-1.44.17-.33.1-.62.24-.87.42s-.44.4-.56.67c-.13.27-.2.56-.2.87 0 .6.2 1.11.6 1.46.4.35.94.52 1.63.52a3.44 3.44 0 0 0 1.91-.56l-.07-.11ZM55.73 8.21c.02.88.37 1.32 1.05 1.32.3 0 .53-.09.7-.26.16-.18.24-.4.24-.69 0-.28-.07-.5-.23-.65-.16-.16-.38-.23-.66-.23-.4 0-.77.17-1.1.51Zm4.65-2.02c.2-.29.48-.5.81-.66.34-.15.7-.22 1.1-.22a2.37 2.37 0 0 1 2.27 1.42c.22.45.33.93.33 1.45 0 .58-.08 1.09-.24 1.51a2.63 2.63 0 0 1-1.9 1.68c-.46.12-1.08.18-1.85.18h-3.55c-.42 0-.71.02-.88.07a.7.7 0 0 0-.38.23.58.58 0 0 0-.12.37c0 .26.1.45.29.57.19.12.54.17 1.06.17h7.33v.8h-7.37c-.79 0-1.36-.13-1.72-.4a1.25 1.25 0 0 1-.54-1.06c0-.28.05-.54.17-.76.12-.22.32-.4.62-.55a3 3 0 0 1 1.28-.22h3.67c.77 0 1.36-.06 1.78-.2a1.8 1.8 0 0 0 1-.75c.26-.36.38-.91.38-1.64 0-.35-.07-.69-.2-1.02a1.75 1.75 0 0 0-.58-.77 1.52 1.52 0 0 0-.93-.29c-.33 0-.59.08-.78.23-.2.16-.34.36-.41.61-.08.25-.12.64-.12 1.16v2.1h-.95V8.16c0-.5-.06-.9-.17-1.16-.11-.28-.3-.5-.56-.66a2.14 2.14 0 0 0-1.13-.25c-1.07 0-1.8.4-2.2 1.22.35-.22.72-.33 1.1-.33.52 0 .92.15 1.21.44.3.3.44.69.44 1.17 0 .5-.17.9-.5 1.22-.32.32-.77.48-1.35.48-.58 0-1.04-.19-1.37-.57a2.3 2.3 0 0 1-.51-1.59 2.72 2.72 0 0 1 1.51-2.45 3.7 3.7 0 0 1 1.69-.36c.53 0 .98.07 1.35.21.37.14.68.37.92.67Z" fill="#fff"/>
  <path d="M55.73 8.21h-.13c.01.46.1.82.3 1.07.2.26.51.38.88.38.32 0 .6-.1.79-.3.2-.2.29-.47.29-.78 0-.3-.1-.56-.28-.74a1.02 1.02 0 0 0-.75-.28c-.44 0-.85.2-1.2.56l-.03.04v.05h.13l.1.1c.31-.33.63-.48 1-.48.26 0 .44.07.56.2.13.12.2.3.2.55 0 .26-.07.45-.21.6-.14.14-.33.21-.6.21-.31 0-.52-.1-.67-.27a1.6 1.6 0 0 1-.24-.91h-.14Zm4.65-2.02.11.08c.2-.27.44-.47.76-.62a2.5 2.5 0 0 1 1.04-.21c.5 0 .92.12 1.3.35.36.24.65.57.86 1 .2.43.3.9.3 1.39a4.2 4.2 0 0 1-.23 1.47 2.5 2.5 0 0 1-1.8 1.59 7.5 7.5 0 0 1-1.82.17h-3.55c-.42 0-.72.03-.92.08a.85.85 0 0 0-.45.28.72.72 0 0 0-.15.45c0 .3.12.54.36.68s.6.2 1.13.2h7.2v.53h-7.24c-.77 0-1.32-.14-1.64-.38a1.12 1.12 0 0 1-.49-.95c0-.27.05-.5.16-.7.1-.19.28-.35.56-.49.26-.13.67-.2 1.22-.2h3.67a6.2 6.2 0 0 0 1.82-.21 2 2 0 0 0 1.08-.8c.27-.4.4-.98.4-1.72 0-.36-.08-.72-.21-1.07a1.89 1.89 0 0 0-.63-.83 1.68 1.68 0 0 0-1.01-.31c-.35 0-.64.08-.87.26-.21.17-.37.4-.45.67a4.3 4.3 0 0 0-.13 1.2v1.98h-.68V8.15c0-.51-.05-.91-.18-1.21-.12-.3-.33-.55-.61-.72-.3-.19-.7-.27-1.2-.27-1.1 0-1.9.43-2.31 1.29l-.2.42.39-.25c.33-.2.67-.3 1.03-.3.49 0 .84.13 1.1.4.27.27.4.61.4 1.07 0 .47-.15.84-.45 1.13-.3.29-.7.43-1.26.44a1.6 1.6 0 0 1-1.27-.53 2.16 2.16 0 0 1-.48-1.5 2.58 2.58 0 0 1 1.44-2.33c.47-.23 1-.35 1.63-.35.52 0 .96.07 1.3.2.35.14.64.35.87.64l.1.13.11-.14-.1-.08.1-.08a2.3 2.3 0 0 0-.98-.71 3.88 3.88 0 0 0-1.4-.23c-.65 0-1.24.13-1.75.38a2.83 2.83 0 0 0-1.58 2.57c0 .7.17 1.27.54 1.68.36.4.86.61 1.47.61a2 2 0 0 0 1.45-.5c.35-.35.53-.8.53-1.33 0-.51-.16-.94-.47-1.26a1.74 1.74 0 0 0-1.3-.48c-.41 0-.8.12-1.17.35l.07.1.12.07c.38-.77 1.04-1.14 2.07-1.15.47 0 .82.09 1.05.23.25.16.42.35.52.6.1.24.15.62.15 1.11v2.2h1.22V8.1c0-.52.04-.9.11-1.12.07-.23.2-.4.37-.54.17-.13.4-.2.7-.2.34 0 .61.08.85.25.23.18.41.41.54.72.13.32.19.64.19.97a2.9 2.9 0 0 1-.35 1.57c-.24.34-.54.57-.94.7-.4.12-.98.2-1.74.19H57.1a3.1 3.1 0 0 0-1.34.23c-.31.15-.55.36-.68.61-.13.24-.19.52-.19.82 0 .48.2.89.6 1.17.4.3 1 .42 1.8.42h7.5v-1.06h-7.46c-.5 0-.85-.06-1-.16-.15-.1-.22-.22-.22-.45 0-.12.03-.2.1-.29a.59.59 0 0 1 .3-.18c.15-.04.44-.07.85-.07h3.55c.78 0 1.4-.06 1.88-.18a2.76 2.76 0 0 0 1.99-1.76c.17-.44.25-.97.25-1.56 0-.53-.11-1.04-.33-1.5a2.59 2.59 0 0 0-2.4-1.5c-.41 0-.8.07-1.15.23-.35.16-.65.4-.87.7l.11.08Zm10.35.35c-.4.27-.72.62-.95 1.07-.22.46-.34.96-.34 1.5 0 .6.11 1.04.33 1.34.21.3.53.45.95.45.85 0 1.27-.6 1.27-1.79 0-.51-.11-1-.34-1.47a2.85 2.85 0 0 0-.92-1.1Zm-2.85 4.41-.54.7c-.56-.32-1-.76-1.3-1.3A3.67 3.67 0 0 1 66 6.82c.29-.49.69-.86 1.2-1.12a3.9 3.9 0 0 1 1.8-.4c.63 0 1.2.13 1.73.39a4.27 4.27 0 0 1 1.87-.38c.67 0 1.25.12 1.74.39.49.25.87.63 1.13 1.1.26.49.4 1.04.4 1.66 0 1.37-.6 2.44-1.78 3.18l-.54-.69c.44-.27.78-.6 1-1 .23-.4.34-.87.34-1.38 0-.48-.1-.92-.3-1.3a2.1 2.1 0 0 0-.83-.9 2.5 2.5 0 0 0-1.27-.3c-.43 0-.77.03-1.03.11a3.58 3.58 0 0 1 1.5 2.96c0 .8-.2 1.42-.59 1.87a2.1 2.1 0 0 1-1.65.67 2.1 2.1 0 0 1-1.65-.67 2.7 2.7 0 0 1-.6-1.87 3.53 3.53 0 0 1 1.55-2.96 3.33 3.33 0 0 0-2.27.18c-.39.2-.68.5-.9.88-.2.38-.3.81-.3 1.3 0 1.06.44 1.87 1.33 2.41Z" fill="#fff"/>
  <path d="m70.73 6.54-.07-.11c-.43.28-.76.65-1 1.12-.23.47-.35 1-.35 1.56 0 .61.1 1.09.35 1.42.24.34.61.5 1.06.5.46 0 .83-.16 1.06-.5.24-.33.35-.8.35-1.42 0-.53-.12-1.04-.36-1.52a2.99 2.99 0 0 0-.96-1.16l-.08-.05-.07.05.07.11-.08.11c.37.26.66.6.88 1.05.22.45.33.92.33 1.41 0 .59-.1 1-.3 1.27-.18.26-.44.39-.84.39-.39 0-.65-.13-.84-.4-.2-.26-.3-.68-.3-1.26 0-.53.1-1 .32-1.44.22-.43.52-.77.9-1.02l-.07-.1Zm-2.85 4.41-.1-.08-.54.7.1.07.07-.11a3.22 3.22 0 0 1-1.26-1.25 3.54 3.54 0 0 1-.04-3.39c.28-.47.66-.82 1.15-1.07.5-.25 1.07-.38 1.74-.38.6 0 1.17.12 1.67.37l.06.03.06-.03c.5-.25 1.11-.37 1.81-.37.65 0 1.2.12 1.68.37.47.25.82.6 1.07 1.06.26.46.38.99.38 1.59 0 1.33-.56 2.34-1.7 3.07l.06.11.1-.08-.53-.7-.1.1.06.1c.46-.27.8-.63 1.05-1.05.23-.43.35-.9.35-1.44 0-.5-.1-.96-.3-1.36a2.3 2.3 0 0 0-.9-.95 2.64 2.64 0 0 0-1.33-.33c-.44 0-.8.04-1.07.12l-.26.08.22.16a3.44 3.44 0 0 1 1.45 2.85c0 .78-.2 1.36-.56 1.78-.36.41-.87.62-1.55.62-.67 0-1.18-.2-1.55-.62-.37-.42-.56-1-.56-1.78A3.39 3.39 0 0 1 70.1 6.3l.22-.16-.27-.08a3.45 3.45 0 0 0-2.36.2c-.41.2-.73.52-.95.92-.22.4-.33.87-.33 1.37 0 1.1.48 1.96 1.4 2.52l.07-.1.07-.12a2.51 2.51 0 0 1-1.27-2.3c0-.47.1-.88.3-1.24.2-.36.47-.63.83-.82.36-.19.79-.28 1.28-.28.34 0 .64.03.89.1l.04-.12-.08-.1a3.66 3.66 0 0 0-1.6 3.07c0 .8.2 1.47.63 1.94.43.48 1.02.72 1.75.72.74 0 1.33-.24 1.75-.71.42-.48.62-1.14.62-1.96a3.78 3.78 0 0 0-1.56-3.07l-.07.11.03.13c.25-.07.58-.11 1-.11.46 0 .86.1 1.2.3.34.19.6.47.79.83.18.36.28.78.28 1.24a2.59 2.59 0 0 1-1.28 2.27l-.13.07.64.82.07.09.1-.06A3.7 3.7 0 0 0 76 8.46c0-.64-.14-1.21-.41-1.72-.28-.5-.68-.9-1.19-1.16a3.8 3.8 0 0 0-1.8-.4 4.4 4.4 0 0 0-1.93.39l.06.12.06-.12a4.05 4.05 0 0 0-1.8-.4c-.7 0-1.31.14-1.85.4a3 3 0 0 0-1.26 1.19 3.8 3.8 0 0 0 .03 3.66 3.6 3.6 0 0 0 1.37 1.34l.1.06.7-.9-.13-.08-.07.11Zm5.32-8.4.8.15a2.1 2.1 0 0 0-.06.54c0 .35.1.61.3.79.19.18.47.27.84.27s.65-.1.84-.27c.2-.18.29-.44.29-.8 0-.19-.02-.37-.06-.53l.81-.15c.07.25.11.5.11.73 0 .54-.18.97-.53 1.29-.36.31-.84.47-1.46.47s-1.1-.16-1.46-.47a1.64 1.64 0 0 1-.54-1.3c0-.25.04-.49.11-.72Z" fill="#fff"/>
  <path d="m73.2 2.55-.03.13.81.15.03-.13-.13-.03c-.05.17-.07.36-.07.57 0 .37.1.68.33.89.23.2.55.3.94.3.39 0 .7-.1.93-.3.23-.21.33-.52.33-.9a2 2 0 0 0-.07-.56l-.12.03.02.13.82-.15-.03-.13-.13.03c.07.25.1.48.1.7 0 .51-.16.9-.48 1.19a2 2 0 0 1-1.37.44c-.6 0-1.05-.15-1.37-.44-.33-.3-.5-.68-.5-1.2 0-.24.04-.46.1-.68l-.12-.04-.13-.04c-.07.24-.1.5-.1.77-.01.57.18 1.04.57 1.39.38.34.9.5 1.55.5.64 0 1.16-.16 1.55-.5.38-.35.57-.82.57-1.4 0-.24-.04-.5-.1-.76l-.04-.11-.94.17-.14.03.04.14c.04.14.06.31.06.5 0 .33-.09.55-.25.7-.16.14-.4.22-.75.22s-.6-.08-.76-.23c-.15-.14-.24-.36-.24-.7 0-.18.02-.35.06-.5l.03-.13-.95-.18-.12-.02-.04.11.13.04Z" fill="#fff"/>
</svg>
