<svg id="artwork" xmlns="http://www.w3.org/2000/svg" version="1.1" viewBox="0 0 239 70.9">
  <defs>
    <style>
      .st5{fill:#fff}
    </style>
  </defs>
  <rect width="239" height="70.8" rx="8.8" ry="8.8"/>
  <path class="st5" d="M120.6 38.5c-4.1 0-7.5 3.2-7.5 7.5s3.4 7.5 7.5 7.5a7.5 7.5 0 1 0 0-15Zm0 12c-2.3 0-4.2-1.8-4.2-4.5s2-4.5 4.2-4.5 4.3 1.8 4.3 4.5-2 4.6-4.3 4.6Zm-16.5-12c-4.1 0-7.5 3.2-7.5 7.5s3.4 7.5 7.5 7.5a7.5 7.5 0 1 0 0-15Zm0 12c-2.3 0-4.2-1.8-4.2-4.5s2-4.5 4.2-4.5 4.3 1.8 4.3 4.5-2 4.6-4.3 4.6Zm-19.6-9.7V44h7.7a6.7 6.7 0 0 1-1.8 4 7.8 7.8 0 0 1-5.9 2.4 8.4 8.4 0 0 1-8.4-8.5 8.4 8.4 0 0 1 14.2-6.2l2.2-2.3a11.8 11.8 0 0 0-19.8 8.5c0 6.5 5.3 11.7 11.8 11.7 3.5 0 6.1-1.1 8.2-3.3 2-2.1 2.7-5 2.7-7.5l-.1-2H84.5Zm80.2 2.5c-.6-1.7-2.5-4.8-6.4-4.8s-7.1 3-7.1 7.5c0 4.2 3.2 7.5 7.4 7.5 3.5 0 5.5-2 6.3-3.3l-2.6-1.7c-.8 1.2-2 2-3.7 2s-2.8-.7-3.6-2.2l10-4.2-.3-.8Zm-10.3 2.5c0-2.9 2.3-4.4 4-4.4 1.3 0 2.4.7 2.8 1.6l-6.8 2.8Zm-8.1 7.3h3.3V31h-3.3v22Zm-5.5-13a5.2 5.2 0 0 0-4-1.6c-3.8 0-7.2 3.3-7.2 7.6s3.4 7.5 7.2 7.5a5 5 0 0 0 4-1.8V53c0 3-1.5 4.5-4 4.5-2 0-3.2-1.5-3.8-2.7l-2.9 1.2c.9 2 3 4.4 6.7 4.4 3.9 0 7.2-2.2 7.2-7.8V39h-3.2v1.2ZM137 50.7c-2.2 0-4.2-2-4.2-4.5s2-4.6 4.2-4.6 4 2 4 4.6-1.7 4.5-4 4.5ZM180.2 31h-7.9v22h3.3v-8.4h4.6c3.7 0 7.3-2.6 7.3-6.9s-3.6-6.8-7.3-6.8Zm0 10.6h-4.6V34h4.7a3.8 3.8 0 1 1 0 7.6Zm20.5-3.1c-2.4 0-4.9 1-5.9 3.3l3 1.3c.6-1.3 1.8-1.7 3-1.7 1.7 0 3.4 1 3.4 2.9v.2c-.6-.3-1.8-.8-3.4-.8-3.2 0-6.4 1.7-6.4 5 0 2.9 2.6 4.8 5.5 4.8 2.2 0 3.5-1 4.2-2.2h.1v1.8h3.2v-8.5c0-4-3-6.1-6.7-6.1Zm-.4 12c-1 0-2.6-.5-2.6-1.8 0-1.7 1.9-2.3 3.5-2.3 1.5 0 2.2.3 3 .7a4 4 0 0 1-3.9 3.5ZM219 39l-3.8 9.6-4-9.6h-3.6l6 13.5-3.4 7.4h3.4l9.1-20.9H219Zm-29.7 14.2h3.3V31h-3.3v22Z"/>
  <path d="m36.7 34.4-18.9 20a5 5 0 0 0 7.5 3l21.3-12.2-10-10.9Z" style="fill:#ea4335"/>
  <path d="m55.7 31-9.1-5.3-10.3 9.1 10.3 10.4 9.1-5.3c1.6-.8 2.7-2.5 2.7-4.4s-1-3.7-2.6-4.5Z" style="fill:#fbbc04"/>
  <path d="m17.8 16.4-.2 1.3v35.4c0 .5 0 .9.2 1.3l19.5-19.5-19.5-18.5Z" style="fill:#4285f4"/>
  <path d="m36.8 35.4 9.8-9.8-21.2-12.2a5.1 5.1 0 0 0-7.6 3l19 19Z" style="fill:#34a853"/>
  <g style="isolation:isolate">
    <path class="st5" d="M77.4 14.5c.7 0 1.2 0 1.6.2.5 0 .8.3 1.1.5l.8.8h-.3c.3-.6.7-1 1.2-1.2.4-.2 1-.3 1.5-.3.7 0 1.2 0 1.7.3.4.2.8.5 1.1 1 .3.3.5.7.7 1.2l.2 1.5c0 1-.2 1.7-.4 2.3a3.6 3.6 0 0 1-2.2 2c-.3.2-.8.3-1.2.3l-1.9.1h-6l-.4.2-.4.4v.8c0 .2.1.3.3.4l.5.2h11.3v1.2H76.3c-.6 0-1 0-1.4-.2l-1-.3a1.7 1.7 0 0 1-.8-1.6c0-.4 0-.7.2-1l.6-.7.5-.2.7-.2h6.1L83 22c.5 0 .9-.2 1.2-.3l.7-.6c.3-.4.5-.7.6-1.2l.1-1.3c0-.5 0-1-.2-1.4-.2-.5-.5-.9-.8-1.2s-.8-.4-1.3-.4l-.9.1c-.3.1-.4.3-.6.5a2 2 0 0 0-.3.9l-.2 1.5v2.8H80v-3c0-.6 0-1-.2-1.4l-.5-.8-.7-.5-1.2-.1a4 4 0 0 0-2.1.6c-.3.1-.5.4-.7.6l-.4.8v.6l-.1.3c0 .7.1 1.1.3 1.4.3.4.6.6 1.1.6s.8-.2 1-.5.4-.5.4-.9c0-.2 0-.4-.2-.6l-.4-.5-.7-.1c-.5 0-.9.1-1.2.4l-.7.8-.4-1a4 4 0 0 1 1.5-1 2 2 0 0 1 1-.3c.6 0 1 .1 1.4.4l.7.8c.2.3.2.7.2 1.1l-.2 1.2a2 2 0 0 1-.9.9c-.4.2-.9.3-1.5.3-.5 0-1-.1-1.3-.3l-1-1c-.3-.5-.3-1-.3-1.7 0-.8.2-1.4.6-2s.8-1 1.5-1.4 1.5-.6 2.4-.6Zm18 8.9a2.7 2.7 0 0 1-2.8-1.7c-.2-.5-.4-1.1-.4-1.8a5 5 0 0 1 1.3-3.4c.4-.4.8-.8 1.3-1l.3-.3c.4-.3.9-.5 1.4-.6a7.1 7.1 0 0 1 3.6.2c.5.2 1 .6 1.4 1s.7.8.9 1.4a5.5 5.5 0 0 1 0 3.6l-1 1.5c-.3.4-.8.8-1.2 1l-.8-1 1-.7.6-1c.2-.5.3-1 .3-1.6a4 4 0 0 0-.4-1.8c-.3-.5-.7-1-1.2-1.2s-1-.4-1.8-.4H97c-.3 0-.5 0-.8.2l-.5.2-1 .8a4.2 4.2 0 0 0-1.1 3c0 .6 0 1.2.2 1.5.2.4.4.7.7.8l.9.2c.3 0 .6 0 .8-.2s.5-.4.7-.8.2-.8.2-1.5a4.8 4.8 0 0 0-1-3l-1.3-1h-.3a4 4 0 0 0-1.4-.3c-.8 0-1.5.1-2 .4s-1 .7-1.2 1.3c-.3.5-.4 1-.4 1.8 0 .5 0 1 .2 1.4l.7 1.1c.2.3.6.6 1 .8l-.8 1-1.3-1c-.4-.4-.6-.9-.9-1.5a5.2 5.2 0 0 1 0-3.7 4 4 0 0 1 2.4-2.3 5.6 5.6 0 0 1 4.7.3l.5.3a5.2 5.2 0 0 1 2.5 4.4c0 .7-.1 1.4-.4 2-.2.4-.6.9-1 1.2-.5.2-1.1.4-1.8.4h.1Z"/>
    <path class="st5" d="m102.8 10.2 1 .1c.3 0 .5.2.8.4l.7.8c.2.2.2.6.3 1.1l.1 1.9v8.7h-1.3v-9.8l-.2-1-.3-.6-.4-.4-.7-.1-.7.1-.5.5c-.2.2-.2.5-.2.8v.6l-1.3.2v-.7c0-.6 0-1 .3-1.5s.6-.6 1-.8c.4-.2.9-.3 1.4-.3Zm15.3 4.3a11 11 0 0 1 2.6.3c.3 0 .7.2 1 .4l.3.2a4.8 4.8 0 0 1 2.7 4.4 4 4 0 0 1-.8 2.7 3 3 0 0 1-2.3 1c-.6 0-1.2-.2-1.6-.4s-.9-.7-1-1.3c-.3-.5-.4-1.1-.4-1.9 0-.6 0-1.1.2-1.6l.8-1.5c.3-.5.8-.9 1.2-1.3l.4-.4.8-.9c.2-.3.3-.6.3-1 0-.3 0-.5-.2-.7-.2-.2-.5-.4-1-.4h-.6l-.5.2-.3-1 .7-.2h1c.6 0 1 0 1.4.3l.7.8c.2.3.2.5.2.8 0 .5-.2 1-.4 1.4l-1.2 1.3-.3.4c-.4.4-.8.8-1 1.2a4.9 4.9 0 0 0-.8 2.7c0 .6 0 1.1.2 1.5s.4.6.6.7l.9.2c.6 0 1-.2 1.3-.6.3-.4.4-1 .4-1.8a5 5 0 0 0-.2-1.6l-.8-1.3-1.3-1h-.3c-.3-.2-.7-.3-1.2-.3l-1.4-.2c-.5 0-1 0-1.4.2-.5 0-1 .1-1.4.3l-.3.1c-.6.4-1.2.8-1.6 1.4s-.6 1.4-.6 2.3c0 .6.1 1.2.3 1.5.1.4.4.6.6.8l1 .2c.3 0 .5 0 .8-.2s.5-.4.7-.8.2-.9.2-1.5a4.8 4.8 0 0 0-1.1-3l-1.2-1-.3-.1a4 4 0 0 0-1.5-.2c-.8 0-1.4.1-2 .4s-.9.8-1.1 1.3-.5 1-.5 1.7c0 .6.1 1 .3 1.5l.6 1 1 1-.8.9-1.2-1c-.4-.4-.7-1-1-1.5a5.2 5.2 0 0 1 0-3.7 4 4 0 0 1 2.5-2.4 6.8 6.8 0 0 1 3.5-.2l1.2.5.4.4c.7.4 1.3 1 1.8 1.7s.7 1.7.7 2.7c0 .7 0 1.3-.3 1.9-.3.5-.6 1-1.1 1.2-.5.3-1 .5-1.7.5s-1.3-.2-1.8-.5a3 3 0 0 1-1-1.2 5.4 5.4 0 0 1 0-3.7c.1-.6.4-1 .8-1.5s.8-.8 1.3-1l.4-.3a5 5 0 0 1 1.7-.6l2-.2Zm16.5 0c.5 0 .9 0 1.2.2l.9.5.6.8h-.2c.3-.5.7-.9 1.2-1.1s1-.4 1.6-.4c.8 0 1.5.2 2 .6a4.2 4.2 0 0 1 1.8 3.6 5.3 5.3 0 0 1-1 3.3l-1.4 1.4-.9-1c.4-.2.7-.5 1-.9l.7-1.2.2-1.6c.2-.5 0-1.1-.3-1.6l-.8-1.1a2 2 0 0 0-1.3-.4 2 2 0 0 0-1 .2l-.7.7a2 2 0 0 0-.3.8v6h-1.4v-6c0-.4-.2-.6-.3-.8l-.7-.7-1-.2a2 2 0 0 0-1.2.4c-.4.3-.7.7-.9 1.1a5 5 0 0 0 0 3.2 4 4 0 0 0 1.6 2.1l-1 1-1.1-1.2a6 6 0 0 1-.8-1.5c-.2-.6-.3-1.2-.3-2s.1-1.6.4-2.2a3.7 3.7 0 0 1 3.4-2Zm15.4 8.9c-.7 0-1.4 0-2-.2l-1.6-.8c-.5-.3-.8-.9-1.1-1.5-.3-.5-.4-1.2-.4-2s.1-1.4.4-2c.3-.5.6-1 1.1-1.4s1-.6 1.7-.8a6.3 6.3 0 0 1 3.5 0 2 2 0 0 1 1.3 1.8c0 .5-.1.9-.3 1.2l-.8.7c-.3.2-.6.2-1 .2-.6 0-1 0-1.3-.3-.4-.2-.6-.4-.7-.7l-.2-1V16l.2-.4 1.5-.3-.5.5-.1.8c0 .3 0 .4.2.7s.4.3.8.3.6 0 .8-.3l.2-.7a1 1 0 0 0-.4-.8c-.3-.2-.6-.3-1-.3h-.8c-.7 0-1.3.3-1.8.5s-.8.7-1 1.2-.4 1-.4 1.7 0 1.3.4 1.8c.2.5.6 1 1 1.2a4.4 4.4 0 0 0 2.1.6h.4l.7-.1.5-.4c.2-.2.2-.4.2-.7l-.2-.7c-.2-.2-.4-.3-.8-.3-.3 0-.6.2-.8.4l-.2.7.1.7.5.6-1.4-.3-.2-.5-.1-.6c0-.3 0-.7.2-1l.7-.7c.3-.2.7-.3 1.3-.3.3 0 .7 0 1 .3.4 0 .6.3.8.6s.3.7.3 1.1c0 .5 0 .8-.3 1.1s-.5.6-1 .8a4 4 0 0 1-1.6.3Zm7.6-8.9a8.5 8.5 0 0 1 4.2 1l-.8 1-1.4-.6a6.5 6.5 0 0 0-3.3-.1c-.3.1-.6.3-.7.5a1 1 0 0 0-.3.7l.1.5.2.4c.2.2.5.3 1 .4h1.5c.9 0 1.5.1 2 .3s.8.4 1 .7l.4.7.1.8c0 .5-.1 1-.4 1.4s-.7.7-1.2 1c-.6.1-1.2.3-2 .3a8 8 0 0 1-4.2-1.1l.7-1 1 .4 1.1.4a6.5 6.5 0 0 0 2.7 0c.4-.2.6-.3.8-.6s.2-.4.2-.7l-.1-.6a1 1 0 0 0-.4-.4 2 2 0 0 0-.7-.3l-1.3-.1h-.2a7 7 0 0 1-1.9-.2c-.5-.2-1-.5-1.2-.8l-.4-.6a2 2 0 0 1-.1-.8c0-.6.1-1 .4-1.4s.6-.6 1.2-.9c.5-.2 1.2-.3 2-.3Zm7 12.3c-.9 0-1.6-.3-2-.8-.6-.5-.8-1.1-.8-2 0-.5.1-1 .3-1.3.3-.4.6-.8 1-1s1-.3 1.5-.3 1 .1 1.4.3.8.5 1 1c.2.3.4.8.4 1.4s-.2 1-.4 1.4c-.2.4-.6.7-1 1a3 3 0 0 1-1.4.3Zm-.8-12.3c.6 0 1.1.1 1.5.3.3.3.6.6.7 1 .2.4.3.8.3 1.3l-.3 2.2-.7 2.6-1.3-.2a28.6 28.6 0 0 0 .9-4.6c0-.4-.1-.8-.3-1-.1-.4-.5-.5-1-.5h-.5l-.4.1-.2-1 .6-.2h.7Zm.8 7.9c-.5 0-1 .1-1.3.4-.3.3-.5.7-.5 1.3s.2 1 .5 1.2.8.5 1.3.5.9-.2 1.2-.5c.4-.2.5-.7.5-1.3s-.2-1-.5-1.2a2 2 0 0 0-1.3-.4Zm0 2.4c-.6 0-1-.2-1.3-.5a2 2 0 0 1-.5-1.3l.2-.6.5-.7.6.5-.4.3v.8l.4.3h1c.2 0 .3-.2.4-.3v-.7c-.1-.2-.2-.3-.4-.3l.7-.6.4.7c.2.1.2.3.2.6s0 .5-.2.8l-.5.7c-.3.2-.6.3-1 .3h-.1Z"/>
  </g>
</svg>
