<svg width="180" height="54" fill="none" xmlns="http://www.w3.org/2000/svg">
  <path d="M173.3 54H6.7A6.7 6.7 0 0 1 0 47.2V6.8C0 3 3 0 6.7 0h166.6a6.7 6.7 0 0 1 6.7 6.8v40.5c0 3.7-3 6.7-6.7 6.7Z" fill="#000"/>
  <path d="M27.6 26.2 13.4 41.5a3.8 3.8 0 0 0 5.7 2.3l16-9.3-7.5-8.3Z" fill="#EA4335"/>
  <path d="m42 23.6-7-4-7.7 7 7.8 7.9 6.9-4a3.9 3.9 0 0 0 2-3.5 4 4 0 0 0-2-3.4Z" fill="#FBBC04"/>
  <path d="M13.4 12.5a3.7 3.7 0 0 0-.1 1v27l.1 1 14.7-14.9-14.7-14Z" fill="#4285F4"/>
  <path d="m27.7 27 7.4-7.4-16-9.4a3.9 3.9 0 0 0-5.7 2.3L27.7 27Z" fill="#34A853"/>
  <path d="M131.5 32h2.2V17.4h-2.2V32Zm19.6-9.3-2.5 6.3-2.7-6.3h-2.3l3.9 8.8-2.2 5h2.2l6-13.8h-2.4Zm-12.3 7.7c-.7 0-1.7-.4-1.7-1.3 0-1.1 1.2-1.5 2.3-1.5 1 0 1.4.2 2 .4a2.6 2.6 0 0 1-2.6 2.3Zm.2-8c-1.5 0-3.2.7-3.8 2.2l1.9.8c.4-.8 1.2-1 2-1 1.1 0 2.2.6 2.3 1.8v.2a4.8 4.8 0 0 0-2.3-.6c-2 0-4.2 1.1-4.2 3.3 0 2 1.7 3.2 3.6 3.2a3 3 0 0 0 2.8-1.4v1h2.2v-5.5c0-2.6-2-4-4.5-4Zm-13.4 2h-3.1v-5h3.1a2.5 2.5 0 0 1 2.6 2.6c0 1-1 2.5-2.6 2.5Zm0-7h-5.3V32h2.2v-5.5h3c2.5 0 4.8-1.8 4.8-4.5 0-2.8-2.3-4.6-4.8-4.6ZM97 30.4c-1.5 0-2.7-1.3-2.7-3 0-1.8 1.2-3 2.7-3 1.5 0 2.7 1.2 2.7 3 0 1.7-1.2 3-2.7 3Zm2.5-7a3.4 3.4 0 0 0-2.7-1 5 5 0 0 0-4.7 5 4.9 4.9 0 0 0 4.7 4.9c1.2 0 2.2-.5 2.6-1.1h.1v.7c0 1.9-1 2.9-2.6 2.9a2.7 2.7 0 0 1-2.5-1.8l-2 .8a4.7 4.7 0 0 0 4.5 3c2.5 0 4.7-1.5 4.7-5.2v-9h-2v.9Zm3.6 8.6h2.2V17.4h-2.2V32Zm5.4-4.8a2.7 2.7 0 0 1 2.6-2.9c.8 0 1.6.4 1.8 1l-4.4 1.9Zm6.7-1.7c-.4-1-1.6-3.1-4.2-3.1s-4.7 2-4.7 5c0 2.7 2.1 4.9 5 4.9a5 5 0 0 0 4-2.2l-1.6-1.1a2.8 2.8 0 0 1-2.5 1.3c-1 0-1.9-.5-2.4-1.5l6.7-2.7-.3-.6ZM62.5 24v2h5a4.4 4.4 0 0 1-1 2.6 5.2 5.2 0 0 1-4 1.6 5.5 5.5 0 0 1-5.5-5.6 5.5 5.5 0 0 1 9.3-4.1l1.5-1.5a7.3 7.3 0 0 0-5.3-2.1 7.8 7.8 0 0 0-7.8 7.7 7.8 7.8 0 0 0 7.8 7.7A7 7 0 0 0 68 30a7 7 0 0 0 1.8-4.9V24h-7.2Zm13 6.5a3 3 0 0 1-2.9-3c0-1.8 1.3-3 2.8-3 1.5 0 2.8 1.2 2.8 3 0 1.7-1.3 3-2.8 3Zm0-8a4.9 4.9 0 0 0-5 5 4.9 4.9 0 0 0 5 4.9 4.9 4.9 0 0 0 5-5 4.9 4.9 0 0 0-5-5Zm10.8 8c-1.5 0-2.8-1.3-2.8-3 0-1.8 1.3-3 2.8-3 1.5 0 2.8 1.2 2.8 3 0 1.7-1.3 3-2.8 3Zm0-8a4.9 4.9 0 0 0-5 5 4.9 4.9 0 0 0 5 4.9 4.9 4.9 0 0 0 5-5 4.9 4.9 0 0 0-5-5ZM54.9 44v-1h2.8v1h-2.8Z" fill="#fff"/>
  <path d="M55 44.1v-.8h2.5v.7H55v.2h2.9V43h-3v1.2h.1v-.1Zm9 1.6c.4-.3.8-.6 1-1.1.3-.5.4-1 .4-1.7 0-.6-.1-1-.4-1.4a1.2 1.2 0 0 0-1-.5c-.4 0-.8.2-1 .5-.3.4-.4.8-.4 1.4 0 .6.1 1.1.4 1.6.2.5.5 1 1 1.2Zm-2-4.3c-.3-.2-.6-.4-1-.4-.5 0-.8.2-1.1.5-.3.4-.4.8-.4 1.4 0 .6.1 1.1.3 1.6a2.7 2.7 0 0 0 2.6 1.5h.7a3.7 3.7 0 0 1-1.5-3.2c0-.5.1-1 .3-1.4Zm.5-.6a2.4 2.4 0 0 1 1.5-.6c.7 0 1.3.3 1.8.8.4.4.6 1 .6 2a3.9 3.9 0 0 1-1.5 3h.6c1 0 1.6-.2 2.1-.8a3 3 0 0 0 .7-2 3.8 3.8 0 0 0-.8-2.4l.8-.6a4.6 4.6 0 0 1 .6 4.9 4 4 0 0 1-1.3 1.3 4.4 4.4 0 0 1-2 .4 4 4 0 0 1-1.6-.3c-.5.2-1 .3-1.7.3a4 4 0 0 1-2-.5A3.3 3.3 0 0 1 59 45c-.3-.6-.5-1.3-.5-2 0-.8.2-1.5.7-2a2.3 2.3 0 0 1 1.8-.7c.6 0 1 .2 1.5.6Z" fill="#fff"/>
  <path d="M64 45.7v.1c.5-.2.9-.6 1.1-1.2.3-.5.4-1 .4-1.7 0-.6 0-1.1-.4-1.5a1.3 1.3 0 0 0-1-.5c-.5 0-1 .2-1.2.6a2 2 0 0 0-.5 1.4c0 .6.2 1.2.4 1.7.3.5.6 1 1 1.2h.2v-.2c-.4-.3-.7-.6-1-1.1a3.5 3.5 0 0 1-.3-1.6c0-.6.1-1 .4-1.3.2-.3.5-.4 1-.4.3 0 .6.1.8.4.2.3.4.7.4 1.3 0 .6-.2 1.1-.4 1.6a2.5 2.5 0 0 1-1 1v.2Zm-2-4.3a1.4 1.4 0 0 0-1-.5c-.5 0-1 .2-1.2.6-.3.3-.4.8-.4 1.4s0 1.1.3 1.6a2.8 2.8 0 0 0 2.7 1.7h.7l.3-.1-.3-.2a3.6 3.6 0 0 1-1.4-3c0-.6.1-1 .4-1.4v-.1h-.2a3 3 0 0 0-.4 1.4 3.9 3.9 0 0 0 1.5 3.3v-.2h-.6c-.6 0-1-.1-1.5-.4a2.5 2.5 0 0 1-1-1 3.5 3.5 0 0 1-.3-1.6 2 2 0 0 1 .4-1.3c.2-.3.6-.4 1-.4.3 0 .6 0 .8.3h.1Zm.5-.6a2.3 2.3 0 0 1 1.5-.4c.7 0 1.3.2 1.7.6.4.5.6 1.1.6 2 0 .5-.2 1-.4 1.6-.3.5-.6 1-1 1.3l-.3.2h.9c1 0 1.7-.2 2.2-.8.5-.5.8-1.3.8-2.2a4 4 0 0 0-.9-2.4v.2l.8-.5-.1-.2-.1.1a4.1 4.1 0 0 1 1 2.8 3.9 3.9 0 0 1-.4 1.9c-.3.5-.7 1-1.3 1.2a4 4 0 0 1-2 .5l-1.5-.3c-.5.2-1 .3-1.7.3a3.9 3.9 0 0 1-2-.5 3.1 3.1 0 0 1-1.2-1.3 4.2 4.2 0 0 1-.5-2c0-.8.3-1.4.7-1.8a2.2 2.2 0 0 1 1.7-.7c.6 0 1 .1 1.4.5h.1v-.2c-.3-.4-1-.6-1.5-.6a3 3 0 0 0-2 .8c-.4.5-.6 1.2-.6 2s.1 1.5.5 2.1c.3.6.8 1.1 1.4 1.4.6.4 1.3.5 2 .5s1.2 0 1.7-.3v-.1.1c.4.2 1 .3 1.6.3a4.4 4.4 0 0 0 2-.4c.6-.3 1-.8 1.4-1.4a4.7 4.7 0 0 0-.6-5l-1 .6v.2a3.7 3.7 0 0 1 .8 2.2c0 .9-.2 1.6-.7 2-.5.6-1.1.8-2 .8a3 3 0 0 1-.5 0v.2a3 3 0 0 0 1.1-1.4 4 4 0 0 0 .4-1.8 3 3 0 0 0-.6-2A2.4 2.4 0 0 0 64 40a2.6 2.6 0 0 0-1.6.6h.1Z" fill="#fff"/>
  <path d="m67.7 39.6-.1-.6c0-.6.2-1 .5-1.4a2 2 0 0 1 1.5-.5c.6 0 1 .1 1.3.4.4.3.6.6.7 1l.2 1.7v6.5h-1v-6.2l-.1-1.6a1.4 1.4 0 0 0-.4-.7 1 1 0 0 0-.7-.3 1 1 0 0 0-.7.3 1 1 0 0 0-.3.8 2 2 0 0 0 0 .4l-1 .2Z" fill="#fff"/>
  <path d="M67.7 39.6V39c0-.5.2-1 .5-1.3a1.9 1.9 0 0 1 1.4-.5 2 2 0 0 1 1.2.4c.4.2.6.5.7 1l.1 1.6v6.3H71v-6a9.3 9.3 0 0 0 0-1.6l-.5-.8a1.1 1.1 0 0 0-.8-.3c-.3 0-.6 0-.8.3-.3.2-.4.5-.4.9v.4h.2v-.1l-1 .1v.3l1.2-.2v-.1a1.9 1.9 0 0 1-.1-.4c0-.3 0-.6.2-.7a1 1 0 0 1 .7-.3l.6.2c.2.2.3.4.3.7l.1 1.6v6.3H72v-6.6a7 7 0 0 0-.2-1.8 2 2 0 0 0-.7-1 2.3 2.3 0 0 0-1.4-.4c-.6 0-1.2.2-1.6.5a2 2 0 0 0-.6 1.5l.1.6v.1h.2v-.1Zm15.3 2a3.5 3.5 0 0 0-1.1 2.6c0 .6 0 1 .3 1.4.2.3.5.4 1 .4.3 0 .6-.2.9-.4.2-.3.3-.8.3-1.4 0-.6-.1-1-.4-1.5-.2-.5-.5-.8-1-1Zm-4.9 0a2.7 2.7 0 0 0-1.4 2.6c0 .6.1 1 .3 1.3.2.3.6.5 1 .5.9 0 1.3-.6 1.3-1.8 0-.5 0-1-.3-1.5a3 3 0 0 0-.9-1.1Zm.8-.3a3.7 3.7 0 0 1 1.4 2.9c0 .8-.2 1.4-.6 2-.4.4-1 .6-1.7.6s-1.3-.2-1.7-.7a2.8 2.8 0 0 1-.6-2c0-.5.1-1.1.4-1.6.3-.6.7-1 1.2-1.4a3.1 3.1 0 0 0-1 0 3 3 0 0 0-1.4.2c-.4.2-.7.5-.9 1-.2.3-.3.8-.3 1.3 0 1 .5 1.9 1.4 2.4l-.6.8a3.5 3.5 0 0 1-1.3-1.4 3.8 3.8 0 0 1 0-3.6 3 3 0 0 1 1.2-1.2 4 4 0 0 1 1.8-.4 4 4 0 0 1 2 .5 4.7 4.7 0 0 1 1-.4 7.2 7.2 0 0 1 1.3 0c1 0 1.7 0 2.3.3l.6-.7c.2-.2.2-.4.2-.6a.8.8 0 0 0-.2-.6 1 1 0 0 0-.7-.2l-.8.1-.2-.8a5 5 0 0 1 1.2-.1c.3 0 .7 0 1 .2a1.4 1.4 0 0 1 .7 1.2c0 .3 0 .6-.2 1l-.8.9a3.6 3.6 0 0 1 1.8 3.2 3 3 0 0 1-.6 2c-.4.4-1 .6-1.7.6a2 2 0 0 1-1.6-.7 2.9 2.9 0 0 1-.6-1.9c0-.5 0-1 .3-1.5.2-.5.5-1 1-1.4a6 6 0 0 0-1.7-.3l-1.6.3Z" fill="#fff"/>
  <path d="M83 41.6a3.6 3.6 0 0 0-1.3 2.6c0 .6.1 1.1.4 1.4.2.4.6.5 1 .5.5 0 .8-.1 1-.5.3-.3.4-.8.4-1.4 0-.6-.1-1.1-.3-1.6-.3-.4-.6-.8-1.1-1l-.1-.2v.3l1 1 .3 1.5c0 .6-.1 1-.3 1.3-.2.2-.5.4-.9.4s-.6-.2-.8-.4c-.2-.3-.3-.7-.3-1.3a3.5 3.5 0 0 1 1.1-2.5Zm-4.9 0v-.1c-1 .5-1.5 1.4-1.5 2.7 0 .6 0 1 .3 1.4.3.4.6.5 1.1.5.5 0 .9-.1 1.1-.5.2-.3.4-.8.4-1.4 0-.6-.1-1-.4-1.5a3.1 3.1 0 0 0-.9-1.2H78v.2a3.3 3.3 0 0 1 1 2.4c0 .6 0 1-.2 1.4-.2.2-.5.4-.9.4s-.7-.2-.9-.4c-.2-.3-.3-.7-.3-1.3 0-1.2.5-2 1.4-2.5v-.1Zm.8-.3a3.5 3.5 0 0 1 1.3 2.9c0 .8-.2 1.4-.6 1.8-.4.4-.9.7-1.6.7a2 2 0 0 1-1.6-.7 2.7 2.7 0 0 1-.6-1.8 3.4 3.4 0 0 1 1.6-3l.2-.1h-.3c-.3-.2-.6-.2-1-.2a3.1 3.1 0 0 0-1.4.3 2 2 0 0 0-1 1 2.9 2.9 0 0 0-.3 1.4c0 1.1.5 2 1.4 2.6V46l-.6.7h.1a3.4 3.4 0 0 1-1.2-1.3 3.6 3.6 0 0 1 0-3.5 2 2 0 0 1 1.1-1.1 3.9 3.9 0 0 1 1.8-.4 4 4 0 0 1 1.9.4 4 4 0 0 1 1.1-.3 7.3 7.3 0 0 1 3.6.3h.1l.6-.8c.2-.2.2-.5.2-.7a1 1 0 0 0-.2-.7 1 1 0 0 0-.8-.2l-.8.1v.1h.1l-.2-.8h-.1v.2l1.2-.2c.3 0 .6 0 .9.2l.5.5.2.6-.2.9-.8.9-.1.1.1.1a3.4 3.4 0 0 1 1.8 3 3 3 0 0 1-.6 2c-.4.4-.9.6-1.6.6-.7 0-1.2-.2-1.5-.7-.4-.4-.6-1-.6-1.8l.3-1.5 1-1.3.2-.2h-.3a6 6 0 0 0-1.7-.3 5.9 5.9 0 0 0-1.6.2l-.2.1.2.2v-.1a6.2 6.2 0 0 1 3.3 0l-.1-.1-1 1.4a3 3 0 0 0-.4 1.6 3 3 0 0 0 .7 2c.4.5 1 .7 1.7.7.8 0 1.4-.2 1.8-.7.4-.5.6-1.2.6-2a3.7 3.7 0 0 0-1.8-3.3h-.1v.2c.5-.4.7-.7.9-1 .2-.3.2-.7.2-1a1.5 1.5 0 0 0-.8-1.3 2.3 2.3 0 0 0-1-.2l-1.3.1h-.1l.3 1h.9l.6.1.2.5c0 .2 0 .4-.2.6 0 .2-.3.4-.6.6l.1.1c-.5-.4-1.3-.5-2.3-.5a5.6 5.6 0 0 0-2.4.5 4.2 4.2 0 0 0-1.9-.5 4.1 4.1 0 0 0-1.9.4 3 3 0 0 0-1.3 1.2 4 4 0 0 0 0 3.8c.4.6.9 1 1.5 1.4l.8-.9h-.1a2.6 2.6 0 0 1-1.3-2.4c0-.5 0-1 .3-1.3.2-.4.4-.7.8-.9.4-.2.8-.2 1.3-.2h1V41c-.6.4-1 .9-1.3 1.4a3.8 3.8 0 0 0-.4 1.8c0 .8.2 1.5.6 2 .4.5 1 .7 1.8.7s1.4-.2 1.8-.7a3 3 0 0 0 .7-2 3.9 3.9 0 0 0-1.5-3Zm19.7 2.3.1 1.4c.1.3.2.5.5.7.2.2.5.3.8.3.6 0 1-.2 1.3-.6.3-.5.5-1 .5-1.7a3.1 3.1 0 0 0-1.4-2.8l.7-.7c.6.5 1 1 1.3 1.6.2.5.4 1.1.4 1.9 0 1-.3 1.7-.8 2.3-.5.5-1.2.8-2 .8a2.8 2.8 0 0 1-1-.2 1.9 1.9 0 0 1-.8-.5 2.1 2.1 0 0 1-.5-1 7 7 0 0 1 0-1.4v-.4l-.2-1.4c0-.3-.2-.5-.4-.6-.2-.2-.5-.2-.8-.2-.3 0-.6 0-.8.2l-.4.7-.1 1.2v3.5h-1V42a1.3 1.3 0 0 0-.5-.8 1.3 1.3 0 0 0-.8-.3c-.4 0-.7.1-1 .3a2 2 0 0 0-.6.9 3 3 0 0 0-.2 1.2A3.1 3.1 0 0 0 92 46l-.6.7a4.5 4.5 0 0 1-1.3-1.6 4.2 4.2 0 0 1 0-3.5 2.6 2.6 0 0 1 2.4-1.5c.4 0 .8.1 1 .3.4.1.7.4.9.8a2.1 2.1 0 0 1 2-1c.4 0 .8 0 1.1.2.3.2.6.5.8 1l.2 1.7v.4Z" fill="#fff"/>
  <path d="M98.6 43.6h-.1V45c.2.3.3.6.6.8.2.2.6.3 1 .3a1.6 1.6 0 0 0 1.3-.7c.3-.4.5-1 .5-1.7a3.3 3.3 0 0 0-1.4-2.8h-.1l.1.1.7-.7h-.2a4.1 4.1 0 0 1 1.6 3.3 3.2 3.2 0 0 1-.7 2.3c-.5.5-1.1.8-2 .8-.3 0-.6 0-1-.2a1.7 1.7 0 0 1-.6-.5 2 2 0 0 1-.4-.9 6.3 6.3 0 0 1-.1-1.4v-.4a5.6 5.6 0 0 0-.2-1.4c0-.3-.2-.6-.4-.7a1.4 1.4 0 0 0-.9-.3c-.3 0-.6.1-.8.3-.3.2-.4.4-.5.7l-.2 1.3v3.3h-.7V42a1.5 1.5 0 0 0-.6-.8 1.5 1.5 0 0 0-1-.3l-1 .3-.6 1a3 3 0 0 0-.3 1.2c0 1.2.5 2.1 1.5 2.8V46l-.7.7h.2c-.6-.5-1-1-1.3-1.5a4 4 0 0 1 0-3.4 2.5 2.5 0 0 1 2.3-1.4c.4 0 .7 0 1 .2l.8.7.1.2.1-.2c.4-.6 1-1 1.8-1a2 2 0 0 1 1.1.4c.3.1.6.4.7.8.2.3.3 1 .3 1.7v.4h.2v-.4a4.7 4.7 0 0 0-.2-1.8c-.2-.4-.5-.8-.8-1a2.3 2.3 0 0 0-1.3-.3c-.9 0-1.6.4-2 1.1h.2a2.4 2.4 0 0 0-.9-.8 2.9 2.9 0 0 0-2.7.1 3 3 0 0 0-1 1.2 4.3 4.3 0 0 0 0 3.6c.3.6.8 1 1.4 1.6h.1l.7-.8h.1l-.1-.2a3 3 0 0 1-1.3-2.5c0-.5 0-.8.2-1.2l.6-.8.9-.2c.3 0 .6 0 .8.2l.4.7v4.7h1.3v-3.6l.1-1.2a1 1 0 0 1 1.1-.8c.3 0 .5 0 .7.2.2.1.3.3.4.6l.1 1.3v.4l.1 1.5.5 1a2 2 0 0 0 .8.5c.3.2.7.2 1 .2 1 0 1.7-.3 2.2-.9.5-.6.8-1.4.8-2.3 0-.8-.2-1.4-.4-2a4.6 4.6 0 0 0-1.3-1.6h-.1l-.9.9h.1a3 3 0 0 1 1.3 2.7c0 .6-.1 1.2-.4 1.6-.3.4-.7.5-1.1.5-.4 0-.6 0-.8-.2-.2-.2-.4-.4-.4-.7a7.1 7.1 0 0 1-.1-1.3h-.2Z" fill="#fff"/>
  <path d="M104.8 40.4v8h-4v-.7h3v-7.3h1Z" fill="#fff"/>
  <path d="M104.8 40.4h-.2v8H101v-.6h2.9v-7.3h.8v-.2h-1v7.2h-3v1.1h4.2v-8.3h-.2Z" fill="#fff"/>
  <path d="M105 37.8c-.3 0-.6 0-.8.2a.7.7 0 0 0-.3.7c0 .2 0 .3.2.5l.5.2.6-.2.2-.6c0-.3-.1-.5-.3-.8Zm3 8.9h-1v-6a9.9 9.9 0 0 0 0-1.4 2 2 0 0 0-.3-.8c-.2-.3-.4-.4-.7-.5l.2.7c0 .4-.2.8-.4 1-.3.3-.7.4-1.2.4a1.6 1.6 0 0 1-1.1-.4c-.3-.3-.5-.6-.5-1 0-.5.2-.9.6-1.2.3-.2.8-.4 1.4-.4.7 0 1.3.1 1.7.4.5.2.8.5 1 1 .2.4.3 1.1.3 2v6.2Z" fill="#fff"/>
  <path d="M105 37.8v-.1.1-.1c-.4 0-.7 0-.9.2a.9.9 0 0 0-.3.8c0 .2 0 .4.2.6v-.1c.1.2.4.3.6.3a.9.9 0 0 0 .7-.3.9.9 0 0 0 .2-.6l-.3-.9h-.1v.1l-.1.1c.2.2.3.4.3.7l-.2.5a.7.7 0 0 1-.5.1l-.4-.1a.5.5 0 0 1-.2-.4.6.6 0 0 1 .3-.5c.2-.2.4-.2.6-.2h.2v-.2Zm3 8.9v-.2h-.8v-7.2a2.1 2.1 0 0 0-.4-.9 1.5 1.5 0 0 0-.7-.5l-.4-.2.2.4.1.6c0 .4 0 .7-.3 1-.3.2-.6.3-1.1.3-.5 0-.8-.1-1-.4-.3-.2-.5-.5-.5-1 0-.4.2-.7.5-1 .4-.2.8-.4 1.4-.4.7 0 1.2.2 1.7.4a2 2 0 0 1 1 1l.2 2v6h.3v-6c0-1-.1-1.7-.4-2.2a2.2 2.2 0 0 0-1-1 4 4 0 0 0-1.8-.4c-.6 0-1.1.1-1.5.4-.4.3-.6.8-.6 1.2 0 .5.1 1 .5 1.2.3.3.7.5 1.2.5s1-.2 1.3-.5c.3-.2.4-.6.4-1.1 0-.3 0-.6-.2-.8l-.1.2.6.5.3.8v7.4h1.3v-.1h-.2Zm4.7-3.8h3.3a2.5 2.5 0 0 0-.5-1.4 1.4 1.4 0 0 0-1.1-.5c-.5 0-.9.2-1.2.5-.2.3-.4.8-.5 1.5Zm3.4.9h-3.4a3 3 0 0 0 .5 1.6c.2.4.6.6 1.2.6.5 0 1-.2 1.2-.6.3-.3.4-.9.5-1.7Zm-3.9 1.8a3.2 3.2 0 0 1-.3-.8 5 5 0 0 1-.2-1c-.6 0-1.1 0-1.4.3a1 1 0 0 0-.5.8c0 .4.1.6.3.8.2.2.5.3.9.3s.8-.1 1.2-.4Zm.6.7a3.3 3.3 0 0 1-1.9.5c-.6 0-1.2-.2-1.5-.5a1.7 1.7 0 0 1-.6-1.3l.2-.9.5-.6.9-.4 1.4-.1c0-1 .3-1.6.8-2a2.4 2.4 0 0 1 1.8-.8c.7 0 1.3.3 1.8.7.5.5.7 1.2.8 2 1 0 1.7.3 2.2.6.4.3.7.8.7 1.4a1.8 1.8 0 0 1-.5 1.4 2 2 0 0 1-1.5.5 4 4 0 0 1-1.1-.1l.2-.8.8.1c.7 0 1.1-.3 1.1-1a1 1 0 0 0-.5-1l-1.4-.2c0 1-.3 1.7-.7 2.2-.5.5-1.1.8-1.9.8a2.5 2.5 0 0 1-1.6-.5Z" fill="#fff"/>
  <path d="M112.7 43h3.5a2.7 2.7 0 0 0-.6-1.6c-.3-.3-.7-.5-1.2-.5s-1 .2-1.3.5c-.3.4-.4.9-.5 1.5v.2h.1V43h.2c0-.7.2-1.1.4-1.4.3-.3.6-.4 1.1-.4.5 0 .8.1 1 .4.3.3.5.7.5 1.4h.1v-.2h-3.3v.2Zm3.4.8v-.2h-3.5v.1c0 .8.2 1.4.5 1.8.3.4.7.6 1.3.6a1.6 1.6 0 0 0 1.3-.6c.3-.4.5-1 .5-1.7v-.2h-.1v.1h-.2a2.9 2.9 0 0 1-.4 1.7c-.2.3-.6.5-1.1.5-.5 0-.9-.2-1.1-.5-.3-.4-.4-1-.4-1.7h-.2v.2h3.4v-.2Zm-3.9 1.8h.1a3.2 3.2 0 0 1-.3-.8 6.1 6.1 0 0 1-.1-1v-.2h-.2a3 3 0 0 0-1.5.3 1 1 0 0 0-.5 1c0 .4 0 .7.3 1l1 .2c.4 0 .9-.1 1.3-.4h.1v-.1h-.2l-1.2.3c-.4 0-.6-.1-.8-.3-.2-.1-.3-.4-.3-.7a.8.8 0 0 1 .4-.7c.3-.2.8-.3 1.5-.3v-.1h-.2a4.5 4.5 0 0 0 .5 1.9h.1Zm.6.7-.1-.2a3.2 3.2 0 0 1-1.8.6 2 2 0 0 1-1.4-.5c-.4-.3-.5-.7-.5-1.2a1.6 1.6 0 0 1 .6-1.4c.2-.1.5-.3.8-.3l1.4-.2.1-.1c0-.9.3-1.5.8-2 .4-.4 1-.6 1.7-.6s1.3.2 1.7.6c.4.5.7 1.1.8 2h.1c1 .1 1.7.3 2.1.6.4.3.6.8.6 1.4 0 .5-.1 1-.4 1.2a2 2 0 0 1-1.4.5c-.5 0-.8 0-1.1-.2v.2l.3-.8h-.1v.1l.8.1c.4 0 .7 0 .9-.3.2-.2.3-.5.3-.8 0-.5-.1-.8-.5-1a2.9 2.9 0 0 0-1.4-.4h-.2v.1c0 1-.3 1.7-.7 2.2-.5.5-1 .8-1.8.8a3 3 0 0 1-1.6-.5V46h-.1v.2c.4.4 1 .6 1.7.6a2.5 2.5 0 0 0 2-.8 3.7 3.7 0 0 0 .8-2.3h-.2a2.7 2.7 0 0 1 1.4.4c.2.2.4.4.4.8 0 .3-.1.5-.3.6-.1.2-.4.3-.7.3l-.8-.1h-.1l-.3 1h.1l1.2.1a2.2 2.2 0 0 0 1.6-.5c.3-.3.5-.8.5-1.4 0-.7-.2-1.2-.7-1.6-.5-.4-1.3-.6-2.3-.6v.2h.2c-.1-1-.4-1.7-.9-2.2a2.5 2.5 0 0 0-1.9-.7c-.8 0-1.4.3-1.9.8s-.8 1.2-.9 2h.2-1.5l-.8.5c-.3.2-.5.4-.6.7a2 2 0 0 0-.2.9c0 .6.2 1 .6 1.4.4.4 1 .5 1.6.5a3.4 3.4 0 0 0 2-.5l-.1-.1Zm14-2.7a1.8 1.8 0 0 0-.6-.5 1.6 1.6 0 0 0-.8-.2c-.4 0-.7.1-1 .4a1.7 1.7 0 0 0-.3 1.1c0 .5 0 1 .3 1.2.2.3.5.4 1 .4.4 0 .8-.2 1-.5.3-.4.4-1 .4-1.6v-.3Zm-.2-1a2 2 0 0 0-1-1.1 3.2 3.2 0 0 0-1.7-.4c-.8 0-1.4.2-2 .6a2.4 2.4 0 0 0-.6 1.9c0 1 .4 1.9 1.3 2.5l-.5.7a3.5 3.5 0 0 1-1.4-1.4 3.8 3.8 0 0 1 0-3.6 3 3 0 0 1 1.3-1.1 4.4 4.4 0 0 1 2-.5c.7 0 1.4.2 2 .5.5.3 1 .7 1.3 1.2.3.6.4 1.3.4 2 0 1-.2 1.7-.6 2.2a2.2 2.2 0 0 1-1.8.7 2 2 0 0 1-1.6-.7c-.4-.4-.6-1-.6-1.7s.2-1.2.6-1.7a2 2 0 0 1 1.5-.6 2 2 0 0 1 1.4.5Z" fill="#fff"/>
  <path d="M126.8 43.6v-.1a2 2 0 0 0-.6-.6 1.7 1.7 0 0 0-.8-.2c-.4 0-.8.2-1 .5-.3.3-.5.7-.5 1.2 0 .6.1 1 .4 1.3.2.3.6.4 1 .4.5 0 1-.2 1.2-.6.3-.4.4-1 .4-1.6v-.4h-.3v.4c0 .7 0 1.2-.3 1.5-.2.3-.5.5-1 .5-.4 0-.6-.2-.8-.4-.2-.2-.3-.6-.3-1 0-.6.1-.9.3-1.1.2-.3.5-.4 1-.4.2 0 .4 0 .6.2.2 0 .4.2.6.4Zm-.2-1h.1c-.2-.5-.5-1-1-1.2a3.4 3.4 0 0 0-1.8-.5 3 3 0 0 0-2 .7 2.6 2.6 0 0 0-.8 2c0 1.1.5 2 1.5 2.6V46l-.6.7h.2a3.4 3.4 0 0 1-1.3-1.3 3.6 3.6 0 0 1 0-3.5 2 2 0 0 1 1.1-1.1 4.4 4.4 0 0 1 2-.4 4 4 0 0 1 1.9.4c.5.3 1 .7 1.2 1.2.3.6.5 1.2.5 2s-.2 1.5-.6 2a2 2 0 0 1-1.7.7 1.9 1.9 0 0 1-1.5-.6 2.3 2.3 0 0 1-.5-1.6c0-.7.1-1.3.5-1.7.4-.4.8-.6 1.5-.6.4 0 .8.2 1.2.5l.4.4-.2-.5h-.1c-.3-.4-.8-.6-1.3-.6-.7 0-1.3.2-1.7.6a2.6 2.6 0 0 0-.6 1.8c0 .8.2 1.4.6 1.8.4.5 1 .7 1.7.7.8 0 1.4-.2 1.9-.7a3.3 3.3 0 0 0 .7-2.3 4.2 4.2 0 0 0-.5-2 3.2 3.2 0 0 0-1.4-1.3 4.5 4.5 0 0 0-2-.5 4.5 4.5 0 0 0-2.1.4 3 3 0 0 0-1.3 1.3 3.9 3.9 0 0 0 0 3.7c.4.6.8 1 1.4 1.4h.1l.7-.8v-.2a2.6 2.6 0 0 1-1.4-2.3c0-.8.2-1.4.7-1.8a2.6 2.6 0 0 1 1.9-.6 3 3 0 0 1 1.6.4c.4.2.7.6.9 1h.1Z" fill="#fff"/>
  <path d="M125.8 39.6V39c0-.6.2-1 .5-1.4a2 2 0 0 1 1.5-.5c.6 0 1 .1 1.3.4.4.3.6.6.7 1l.2 1.7v6.5h-1v-6.2l-.1-1.6a1.4 1.4 0 0 0-.4-.7 1 1 0 0 0-.7-.3 1 1 0 0 0-.7.3 1 1 0 0 0-.3.8 2 2 0 0 0 0 .4l-1 .2Z" fill="#fff"/>
  <path d="M125.8 39.6h.2V39c0-.5 0-1 .4-1.3a1.9 1.9 0 0 1 1.4-.5 2 2 0 0 1 1.2.4c.3.2.5.5.7 1l.1 1.6v6.3h-.7v-6a9.3 9.3 0 0 0 0-1.6l-.5-.8a1.1 1.1 0 0 0-.8-.3c-.3 0-.6 0-.8.3-.3.2-.4.5-.4.9v.4h.2v-.1l-1 .1v.3l1-.2h.2v-.1a2 2 0 0 1-.1-.4c0-.3 0-.6.2-.7a1 1 0 0 1 .7-.3l.6.2c.2.2.3.4.3.7a9 9 0 0 1 .1 1.6v6.3h1.3v-6.6c0-.8 0-1.4-.2-1.8a2 2 0 0 0-.7-1 2.3 2.3 0 0 0-1.4-.4c-.6 0-1.2.2-1.6.5a2 2 0 0 0-.6 1.5l.1.6v.1h.2v-.1Zm15 4.1-.1.6c0 1.2.4 1.8 1.3 1.8.3 0 .6-.1.8-.3l.2-.8c0-.3 0-.6-.2-.7l-.5-.4a4 4 0 0 0-1.2-.2h-.4Zm-6.2-.8h3.4a2.6 2.6 0 0 0-.5-1.4 1.4 1.4 0 0 0-1.2-.5c-.5 0-.9.2-1.2.5-.2.3-.4.8-.5 1.5Zm3.4.8h-3.4a3 3 0 0 0 .5 1.7c.3.4.7.6 1.2.6s1-.2 1.2-.6c.3-.3.4-.9.5-1.7Zm-3.9 2a3.2 3.2 0 0 1-.3-1 5 5 0 0 1-.2-1c-.6 0-1.1.1-1.4.3a1 1 0 0 0-.5 1c0 .3.1.5.3.7.2.2.5.3.9.3s.8-.1 1.2-.4Zm.6.6a3.4 3.4 0 0 1-1.9.5c-.6 0-1.2-.2-1.5-.5a1.7 1.7 0 0 1-.6-1.3 1.7 1.7 0 0 1 .8-1.5l.8-.4 1.4-.2a3.2 3.2 0 0 1 .8-2 2.4 2.4 0 0 1 1.8-.7c.8 0 1.4.3 1.8.7.5.5.7 1.2.8 2h1a3.5 3.5 0 0 1 3.7-2.7c1 0 1.9.3 2.5 1 .6.5.9 1.3.9 2.3 0 1.4-.6 2.5-1.8 3.3l-.6-.7a2.8 2.8 0 0 0 1.4-2.5c0-.8-.2-1.4-.7-1.9a2.4 2.4 0 0 0-1.8-.7 2.7 2.7 0 0 0-2.6 2h.4c.6 0 1.1 0 1.5.2.4 0 .6.3.9.6.2.3.3.7.3 1.2s-.2 1-.6 1.3a2 2 0 0 1-1.4.5 2 2 0 0 1-1.6-.6 2.6 2.6 0 0 1-.6-1.8v-.7h-.8c0 1-.3 1.8-.8 2.3s-1.1.8-1.9.8a2.5 2.5 0 0 1-1.6-.5Z" fill="#fff"/>
  <path d="M140.7 43.7h-.1v.6c0 .6 0 1 .3 1.4.3.3.6.5 1.1.5.4 0 .7-.1.9-.3.2-.2.3-.5.3-1a1 1 0 0 0-.3-.7 1 1 0 0 0-.6-.5 4.1 4.1 0 0 0-1.2 0h-.5.1v.2h1.5l.5.4.2.7-.2.7-.7.2c-.4 0-.7-.1-.9-.4-.2-.2-.3-.6-.3-1.2v-.5Zm-6-.8v.2h3.4v-.2a2.7 2.7 0 0 0-.5-1.5c-.3-.3-.8-.5-1.3-.5s-1 .2-1.3.5c-.3.4-.4.9-.5 1.5v.2h.1V43h.2c0-.7.2-1.1.4-1.4.3-.3.6-.4 1.1-.4.5 0 .8.1 1 .4.3.3.5.7.5 1.4h.1v-.2h-3.3v.2Zm3.3.8h-3.5c0 .8.2 1.4.5 1.8.3.4.7.6 1.3.6a1.6 1.6 0 0 0 1.3-.6c.3-.4.5-1 .5-1.7v-.2h-.1v.1h-.2a2.9 2.9 0 0 1-.4 1.7c-.2.3-.6.5-1.1.5-.5 0-.9-.2-1.1-.5-.3-.4-.4-1-.4-1.7h-.2v.2h3.4v-.2Zm-3.9 2 .1-.1a3.2 3.2 0 0 1-.3-.8 4.7 4.7 0 0 1-.1-1v-.2h-.2a3 3 0 0 0-1.5.3 1 1 0 0 0-.5 1c0 .4 0 .7.3 1l1 .2c.4 0 .9-.1 1.3-.4h.1v-.1h-.2l-1.2.3c-.4 0-.6-.1-.8-.3-.2-.1-.3-.4-.3-.7a.8.8 0 0 1 .4-.7 2.8 2.8 0 0 1 1.4-.3v-.1a4.5 4.5 0 0 0 .4 1.9h.1Zm.6.6-.1-.2a3.2 3.2 0 0 1-1.8.6 2 2 0 0 1-1.4-.5c-.4-.3-.5-.7-.5-1.2l.1-.8.5-.6.8-.4a6 6 0 0 1 1.4-.1V43c.2-.9.5-1.5.9-2a2.3 2.3 0 0 1 1.7-.6c.7 0 1.3.2 1.7.6.4.5.7 1.1.8 2h1.3a3.4 3.4 0 0 1 1.2-2 3.7 3.7 0 0 1 2.3-.6c1 0 1.8.3 2.4.8.6.6.9 1.3.9 2.3 0 1.4-.6 2.4-1.8 3.2h.2l-.6-.7v.2a3 3 0 0 0 1.4-2.6c0-.8-.2-1.5-.7-2a2.5 2.5 0 0 0-1.9-.7c-.6 0-1.2.2-1.6.6a3 3 0 0 0-1.1 1.4v.2h.5c.6 0 1 0 1.4.2.4.1.7.3.8.6.2.3.3.6.3 1 0 .6-.1 1-.5 1.3-.3.3-.7.5-1.3.5a1.9 1.9 0 0 1-1.5-.6c-.4-.4-.6-1-.6-1.7v-.8h-1v.1a3.4 3.4 0 0 1-.8 2.2c-.4.5-1 .8-1.8.8a2.4 2.4 0 0 1-1.5-.5l-.1-.1h-.1v.2c.4.4 1 .6 1.7.6.8 0 1.5-.2 2-.8a3.7 3.7 0 0 0 .8-2.3h-.1.8-.1v.6c0 .8.2 1.4.6 1.9.4.4 1 .6 1.7.6.6 0 1.2-.1 1.5-.5.4-.3.6-.8.6-1.4a2 2 0 0 0-.3-1.3 1.9 1.9 0 0 0-1-.7l-1.5-.2h-.4v.2h.1a2.6 2.6 0 0 1 2.5-1.8c.8 0 1.3.2 1.7.6.5.5.7 1 .7 1.8 0 .5-.2 1-.4 1.4-.2.4-.5.7-1 1l.6.9h.1a3.8 3.8 0 0 0 2-3.4c0-1-.4-1.9-1-2.5a3.6 3.6 0 0 0-2.6-.9 3.6 3.6 0 0 0-3.8 2.8h.1-1 .2a3.4 3.4 0 0 0-.9-2 2.5 2.5 0 0 0-1.9-.8c-.8 0-1.4.3-1.9.8s-.8 1.2-.9 2h.2a5.9 5.9 0 0 0-1.4 0l-1 .5a1.8 1.8 0 0 0-.7 1.5c0 .6.2 1.2.6 1.5.4.4 1 .5 1.6.5a3.5 3.5 0 0 0 2-.5l-.1-.1Zm13.4 1c0 .4 0 .7.3.9.2.2.5.3.8.3.3 0 .6-.1.8-.3.2-.2.3-.5.3-1s0-.6-.3-.8c-.2-.2-.5-.3-.8-.3a1 1 0 0 0-.8.3c-.2.2-.3.5-.3.9Zm.8-2a22.7 22.7 0 0 0 .5-3.1c0-.4 0-.7-.2-.9-.2-.2-.4-.2-.7-.2h-.7l-.2-.7a4 4 0 0 1 1-.2c.6 0 1 .2 1.4.5.3.4.4.8.4 1.4a8 8 0 0 1-.1 1.5l-.5 1.8a1.8 1.8 0 0 1 1.4 1.9 1.9 1.9 0 0 1-.5 1.4 2 2 0 0 1-1.5.5 2 2 0 0 1-1.5-.5 1.9 1.9 0 0 1-.5-1.4c0-.5.1-1 .4-1.3a2 2 0 0 1 1.3-.7Z" fill="#fff"/>
  <path d="M148 47.3c0 .4 0 .7.3 1 .2.2.5.3.9.3s.7 0 .9-.3c.2-.3.4-.6.4-1s-.2-.8-.4-1a1.2 1.2 0 0 0-1-.4 1 1 0 0 0-.8.4 1.4 1.4 0 0 0-.3 1h.2c0-.4.1-.6.3-.8a.9.9 0 0 1 .7-.3c.3 0 .5 0 .7.3.2.2.3.4.3.8 0 .3-.1.6-.3.8a1 1 0 0 1-.7.3 1 1 0 0 1-.7-.3 1.1 1.1 0 0 1-.3-.8h-.1Zm.9-2a21.9 21.9 0 0 0 .7-3.1c0-.4-.1-.7-.3-1-.2-.2-.5-.3-.8-.3l-.7.1v.1h.2l-.2-.8h-.2v.2l1-.1c.6 0 1 .1 1.3.4.2.3.4.7.4 1.3a8 8 0 0 1-.2 1.4c0 .6-.2 1.2-.4 1.8v.2a1.7 1.7 0 0 1 1.4 1.8c0 .5-.2 1-.5 1.3-.4.3-.8.5-1.4.5a1.9 1.9 0 0 1-1.4-.5 1.8 1.8 0 0 1-.5-1.3 1.8 1.8 0 0 1 1.6-1.8v-.4a2 2 0 0 0-1.4.7 2 2 0 0 0-.5 1.4c0 .6.2 1.1.6 1.5.4.4 1 .6 1.6.6.6 0 1.2-.2 1.6-.6.4-.4.6-1 .6-1.5s-.2-1-.4-1.3a2 2 0 0 0-1.2-.8v.2h.1a20.4 20.4 0 0 0 .6-3.3c0-.6-.1-1.1-.4-1.5a1.9 1.9 0 0 0-1.5-.5l-1 .1h-.1l.2 1v.1h.2l.6-.1c.3 0 .5 0 .6.2l.2.8-.1 1.3-.5 1.8h.2Z" fill="#fff"/>
  <path d="M154.6 43h3.3a2.5 2.5 0 0 0-.5-1.5 1.4 1.4 0 0 0-1.1-.5c-.5 0-.9.2-1.2.5-.2.3-.4.8-.5 1.5Zm3.4.8h-3.4c0 .7.2 1.3.4 1.6.3.4.7.6 1.3.6s1-.2 1.2-.6c.3-.3.4-.9.4-1.7Zm-3.9 1.8a3.2 3.2 0 0 1-.3-.8 4.9 4.9 0 0 1-.2-1c-.6 0-1.1 0-1.4.3a1 1 0 0 0-.5.8c0 .4.1.6.3.8.2.2.5.3.8.3.5 0 1-.1 1.3-.4Zm.5.7a3.3 3.3 0 0 1-1.8.5c-.7 0-1.2-.2-1.5-.5a1.7 1.7 0 0 1-.6-1.3c0-.3 0-.6.2-.9l.5-.6.8-.4 1.5-.1c0-1 .3-1.6.8-2a2.4 2.4 0 0 1 1.8-.8c.7 0 1.3.3 1.8.7.5.5.7 1.2.8 2 1 0 1.7.3 2.2.6.4.3.7.8.7 1.4a1.8 1.8 0 0 1-.6 1.4 2 2 0 0 1-1.4.5 4 4 0 0 1-1.2-.1l.3-.8.7.1c.8 0 1.2-.3 1.2-1a1 1 0 0 0-.5-1l-1.4-.2c0 1-.3 1.7-.7 2.2-.5.5-1.1.8-1.9.8-.7 0-1.2-.2-1.6-.5Z" fill="#fff"/>
  <path d="M154.6 43h3.5a2.7 2.7 0 0 0-.6-1.6c-.3-.3-.7-.5-1.2-.5s-1 .2-1.3.5c-.3.4-.5.9-.5 1.5v.2h.1V43h.2c0-.7.2-1.1.4-1.4.3-.3.6-.4 1-.4.5 0 .9.1 1.1.4s.4.7.5 1.4h.1v-.2h-3.3v.2Zm3.4.8v-.2h-3.5v.1c0 .8.1 1.4.4 1.8.3.4.8.6 1.4.6.5 0 1-.2 1.3-.6.3-.4.5-1 .5-1.7v-.2h-.1v.1h-.2a2.9 2.9 0 0 1-.4 1.7c-.3.3-.6.5-1.1.5-.5 0-.9-.2-1.1-.5a2.8 2.8 0 0 1-.5-1.7h-.1v.2h3.4v-.2Zm-3.9 1.8h.1a3 3 0 0 1-.3-.8 4.6 4.6 0 0 1-.1-1v-.2h-.2a3 3 0 0 0-1.5.3 1.1 1.1 0 0 0-.5 1c0 .4 0 .7.3 1l1 .2c.4 0 .9-.1 1.3-.4v-.1h-.2c-.3.2-.7.3-1.2.3a1 1 0 0 1-.7-.3c-.2-.1-.3-.4-.3-.7a.8.8 0 0 1 .4-.7c.3-.2.8-.3 1.4-.3v-.1h-.1l.1 1 .4.9h.1Zm.5.7V46a3.2 3.2 0 0 1-1.8.6c-.6 0-1.1-.2-1.5-.5-.3-.3-.5-.7-.5-1.2a1.7 1.7 0 0 1 .7-1.4c.2-.1.5-.3.8-.3l1.3-.2h.2c0-.9.3-1.5.8-2 .4-.4 1-.6 1.7-.6s1.3.2 1.7.6c.4.5.7 1.1.8 2h.1c1 .1 1.7.3 2.1.6.4.3.6.8.6 1.4 0 .5-.1 1-.5 1.2-.3.3-.7.5-1.3.5-.5 0-.8 0-1.1-.2v.2l.3-.8h-.1v.1l.7.1c.4 0 .8 0 1-.3.2-.2.3-.5.3-.8 0-.5-.2-.8-.5-1a2.9 2.9 0 0 0-1.5-.4l-.1.1c0 1-.3 1.7-.7 2.2-.5.5-1 .8-1.8.8-.6 0-1.2-.2-1.6-.5V46h-.1v.2a2.7 2.7 0 0 0 1.7.6 2.5 2.5 0 0 0 2-.8 3.7 3.7 0 0 0 .8-2.3h-.2c.7.1 1.1.2 1.4.4.2.2.3.4.3.8 0 .3 0 .5-.2.6-.2.2-.4.3-.8.3a2.8 2.8 0 0 1-.7-.1h-.1l-.3.8v.2h.1l1.2.1c.6 0 1.2-.1 1.5-.5.4-.3.6-.8.6-1.4 0-.7-.3-1.2-.7-1.6-.5-.4-1.3-.6-2.3-.6v.2h.1a3 3 0 0 0-.8-2.2 2.5 2.5 0 0 0-2-.7c-.7 0-1.3.3-1.8.8s-.8 1.2-.9 2h.1-1.4l-.9.5c-.3.2-.4.4-.5.7a2 2 0 0 0-.2.9c0 .6.2 1 .6 1.4.4.4 1 .5 1.6.5a3.4 3.4 0 0 0 2-.5l-.2-.1Zm-98.9-38c0 .8.4 1.2 1 1.2.4 0 .6 0 .8-.2l.2-.7c0-.3 0-.5-.2-.7l-.7-.2c-.4 0-.7.2-1 .5Zm4.7-2.1.8-.7 1-.2a2.4 2.4 0 0 1 2.4 1.4l.3 1.5c0 .6 0 1-.3 1.5a2.6 2.6 0 0 1-1.9 1.7l-1.8.2h-4.4a.7.7 0 0 0-.4.3.6.6 0 0 0-.1.3c0 .3 0 .5.3.6l1 .2h7.3v.8h-7.3c-.8 0-1.4-.2-1.7-.4a1.3 1.3 0 0 1-.6-1.1c0-.3 0-.5.2-.8.1-.2.3-.4.6-.5a3 3 0 0 1 1.3-.2h3.7a6 6 0 0 0 1.7-.2 1.8 1.8 0 0 0 1-.8c.3-.3.4-.9.4-1.6 0-.4 0-.7-.2-1a1.8 1.8 0 0 0-.6-.8 1.5 1.5 0 0 0-.9-.3c-.3 0-.6 0-.8.2L61 7v3.2h-1v-2L59.9 7c-.1-.3-.3-.5-.6-.7a2.1 2.1 0 0 0-1.1-.2c-1 0-1.8.4-2.2 1.2a2 2 0 0 1 1-.3c.6 0 1 .1 1.3.4.3.3.4.7.4 1.2s-.1.9-.5 1.2c-.3.3-.7.5-1.3.5-.6 0-1-.2-1.4-.6a2.3 2.3 0 0 1-.5-1.6 2.7 2.7 0 0 1 1.5-2.4 3.7 3.7 0 0 1 1.7-.4c.5 0 1 0 1.4.2l.9.7Z" fill="#fff"/>
  <path d="M55.7 8.2h-.1c0 .5.1.8.3 1 .2.3.5.5.9.5.3 0 .6-.1.8-.3.2-.2.3-.5.3-.8a1 1 0 0 0-.3-.8 1 1 0 0 0-.8-.2 2 2 0 0 0-1.2.5v.1h.1l.1.1c.3-.3.7-.5 1-.5l.6.2.2.6c0 .2 0 .4-.2.6l-.6.2a1 1 0 0 1-.7-.3 1.6 1.6 0 0 1-.2-.9h-.2Zm4.7-2 .8-.5a2.5 2.5 0 0 1 1-.3c.6 0 1 .2 1.4.4.3.2.6.6.8 1 .2.4.3.9.3 1.4a4.2 4.2 0 0 1-.2 1.5 2.5 2.5 0 0 1-1.8 1.5 7.5 7.5 0 0 1-1.8.2h-3.6a4 4 0 0 0-.9 0 .8.8 0 0 0-.4.4.7.7 0 0 0-.2.4c0 .3.1.6.4.7l1.1.2h7.2v.5h-7.2c-.8 0-1.3-.1-1.7-.4a1.1 1.1 0 0 1-.5-.9l.2-.7.6-.5L57 11h3.7a6.2 6.2 0 0 0 1.8-.2 2 2 0 0 0 1-.8c.3-.4.5-1 .5-1.7 0-.4-.1-.7-.3-1a1.9 1.9 0 0 0-.6-1 1.7 1.7 0 0 0-1-.2c-.3 0-.6 0-.9.2L61 7a4.3 4.3 0 0 0-.1 1.2v2H60V8c0-.5 0-.9-.2-1.2-.1-.3-.3-.5-.6-.7L58 6c-1.1 0-2 .4-2.3 1.2l-.2.5.4-.3a2 2 0 0 1 1-.3c.5 0 .8.1 1.1.4.3.3.4.6.4 1 0 .6-.2 1-.5 1.2-.3.3-.7.4-1.2.5a1.6 1.6 0 0 1-1.3-.6 2.2 2.2 0 0 1-.5-1.5 2.6 2.6 0 0 1 1.5-2.3 3.7 3.7 0 0 1 3-.1c.3 0 .5.3.8.6v.1l.2-.1-.1-.1a2.3 2.3 0 0 0-.9-.8 3.9 3.9 0 0 0-1.4-.2 4 4 0 0 0-1.7.4A2.8 2.8 0 0 0 54.8 8c0 .7.1 1.3.5 1.7.4.4.9.6 1.5.6a2 2 0 0 0 1.4-.5c.4-.3.6-.8.6-1.3s-.2-1-.5-1.3a1.7 1.7 0 0 0-1.3-.5c-.4 0-.8.2-1.2.4h.1l.1.2c.4-.8 1-1.2 2-1.2.6 0 1 .1 1.1.2l.6.6.1 1.1v2.2H61V8.1l.1-1.1.4-.6.7-.2.9.3.5.7.2 1a2.9 2.9 0 0 1-.4 1.6c-.2.3-.5.5-.9.6a6 6 0 0 1-1.7.2H57a3.1 3.1 0 0 0-1.3.3c-.3.1-.6.3-.7.6-.2.2-.2.5-.2.8 0 .5.2.9.6 1.2.4.3 1 .4 1.8.4h7.5v-1h-7.5l-1-.2-.2-.5.1-.3a.6.6 0 0 1 .3-.2H61a8 8 0 0 0 1.9-.2 2.8 2.8 0 0 0 2-1.8l.2-1.5c0-.5 0-1-.3-1.5a2.6 2.6 0 0 0-2.4-1.5c-.4 0-.8 0-1.2.2l-.8.7Zm10.3.3-1 1.1-.3 1.5c0 .6.1 1 .4 1.4.2.3.5.4 1 .4.8 0 1.2-.6 1.2-1.8 0-.5-.1-1-.4-1.5a2.9 2.9 0 0 0-.9-1ZM68 11l-.6.7c-.5-.4-1-.8-1.3-1.3a3.7 3.7 0 0 1 0-3.6c.3-.5.7-.8 1.2-1.1a3.9 3.9 0 0 1 1.8-.4c.6 0 1.2.1 1.7.4a4.3 4.3 0 0 1 1.9-.4c.7 0 1.3.1 1.7.4.5.2 1 .6 1.2 1.1.2.5.4 1 .4 1.7 0 1.3-.6 2.4-1.8 3.1l-.5-.7c.4-.2.7-.6 1-1 .2-.4.3-.8.3-1.3s-.1-1-.3-1.3a2.1 2.1 0 0 0-.8-1 2.5 2.5 0 0 0-1.3-.2h-1a3.6 3.6 0 0 1 1.5 3c0 .8-.2 1.5-.6 2a2.1 2.1 0 0 1-1.7.6 2.1 2.1 0 0 1-1.6-.7 2.7 2.7 0 0 1-.6-1.9 3.5 3.5 0 0 1 1.5-3 3.3 3.3 0 0 0-2.3.3l-.9.8a3 3 0 0 0-.3 1.3c0 1.1.5 2 1.4 2.5Z" fill="#fff"/>
  <path d="M70.7 6.5a2 2 0 0 0-1 1 3 3 0 0 0-.4 1.6c0 .6.1 1.1.4 1.4.2.4.6.5 1 .5.5 0 .9-.1 1-.5.3-.3.4-.8.4-1.4 0-.5 0-1-.3-1.5a3 3 0 0 0-1-1.2h-.1v.3a3.2 3.2 0 0 1 1.2 2.5c0 .5-.1 1-.3 1.2-.2.2-.5.4-.9.4s-.6-.2-.8-.4c-.2-.3-.3-.7-.3-1.3 0-.5 0-1 .3-1.4.2-.5.5-.8.9-1v-.1ZM68 11l-.1-.1-.6.7h.2a3.2 3.2 0 0 1-1.3-1.3 3.5 3.5 0 0 1 0-3.4c.3-.5.7-.8 1.2-1 .5-.3 1-.5 1.7-.5.6 0 1.2.2 1.7.4a4 4 0 0 1 1.9-.4c.7 0 1.2.2 1.7.4.5.3.8.6 1 1 .3.5.4 1 .4 1.7 0 1.3-.5 2.3-1.7 3v.1h.2l-.5-.7h-.1v.2a3 3 0 0 0 1-1c.3-.5.4-1 .4-1.5s0-1-.3-1.4a2.3 2.3 0 0 0-.9-1 2.6 2.6 0 0 0-1.3-.3l-1 .1-.3.1.2.2A3.4 3.4 0 0 1 72.8 9a3 3 0 0 1-.5 1.8c-.4.4-.9.6-1.6.6-.7 0-1.2-.2-1.5-.6-.4-.4-.6-1-.6-1.8a3.4 3.4 0 0 1 1.5-2.8l.2-.2H70a3.5 3.5 0 0 0-2.3.2c-.4.2-.7.5-1 .9-.2.4-.3.8-.3 1.3 0 1.2.5 2 1.4 2.6l.1-.1a2.5 2.5 0 0 1-1.2-2.3c0-.5 0-1 .3-1.3.2-.3.4-.6.8-.8a3.4 3.4 0 0 1 2.2-.2v-.2a3.7 3.7 0 0 0-1.7 3c0 .9.2 1.5.7 2 .4.5 1 .7 1.7.7.8 0 1.3-.2 1.8-.7a3 3 0 0 0 .6-2 3.8 3.8 0 0 0-1.6-3v.2h1c.5 0 .9 0 1.2.2l.8.8c.2.4.3.8.3 1.3a2.6 2.6 0 0 1-1.3 2.2l-.1.1.6.8v.1h.2A3.7 3.7 0 0 0 76 8.5c0-.7-.1-1.2-.4-1.8-.3-.5-.7-.9-1.2-1.1a3.8 3.8 0 0 0-1.8-.4 4.4 4.4 0 0 0-2 .4h.1a4 4 0 0 0-1.7-.4 4 4 0 0 0-1.9.4A3 3 0 0 0 66 6.8a3.8 3.8 0 0 0 0 3.6 3.6 3.6 0 0 0 1.4 1.4l.8-.9H68Zm5.3-8.5.8.2a2.1 2.1 0 0 0 0 .5c0 .4 0 .6.2.8.2.2.5.3.9.3s.6-.1.8-.3c.2-.2.3-.4.3-.8v-.5l.8-.2v.8c0 .5-.1 1-.5 1.3-.3.3-.8.4-1.4.4s-1.2 0-1.6-.4a1.6 1.6 0 0 1-.5-1.3v-.8Z" fill="#fff"/>
  <path d="M73.2 2.5v.2l.8.1v-.1.5c0 .4 0 .7.2 1l1 .2c.4 0 .7 0 1-.3l.2-.9a2 2 0 0 0 0-.5h-.1v.1l.8-.1v-.2h-.2l.1.8c0 .5-.1.9-.4 1.2a2 2 0 0 1-1.4.4 2 2 0 0 1-1.4-.4c-.3-.3-.5-.7-.5-1.2l.1-.7h-.2l-.1.7c0 .5.1 1 .5 1.4.4.3 1 .5 1.6.5.6 0 1.1-.2 1.5-.5.4-.4.6-.9.6-1.4l-.1-.8v-.1l-1 .2H76v.6c0 .4 0 .6-.2.7-.1.2-.4.3-.7.3l-.8-.3c-.1-.1-.2-.3-.2-.7v-.6l-.9-.2h-.1v.1Z" fill="#fff"/>
</svg>
