<svg id="artwork" xmlns="http://www.w3.org/2000/svg" version="1.1" viewBox="0 0 239 70.9">
  <defs>
    <style>
      .st1{isolation:isolate}.st5{fill:#fff}
    </style>
  </defs>
  <rect width="239" height="70.8" rx="8.8" ry="8.8"/>
  <path class="st5" d="M120.6 19.8c-4.1 0-7.5 3.2-7.5 7.5s3.4 7.6 7.5 7.6 7.6-3.2 7.6-7.6-3.4-7.5-7.6-7.5Zm0 12.1c-2.3 0-4.2-1.9-4.2-4.6s2-4.5 4.2-4.5 4.3 1.8 4.3 4.5-2 4.6-4.3 4.6Zm-16.5-12c-4.1 0-7.5 3-7.5 7.4S100 35 104 35s7.6-3.2 7.6-7.6-3.4-7.5-7.6-7.5Zm0 12c-2.3 0-4.2-1.9-4.2-4.6s2-4.5 4.2-4.5 4.3 1.8 4.3 4.5-2 4.6-4.3 4.6Zm-19.6-9.8v3.2h7.7a6.7 6.7 0 0 1-1.8 4 7.8 7.8 0 0 1-5.9 2.4 8.4 8.4 0 0 1-8.4-8.5A8.4 8.4 0 0 1 90.3 17l2.2-2.3a11.8 11.8 0 0 0-19.8 8.5c0 6.5 5.3 11.7 11.8 11.7 3.5 0 6.1-1.1 8.2-3.3 2-2 2.7-5 2.7-7.5l-.1-2H84.5Zm80.2 2.5c-.6-1.7-2.5-4.8-6.4-4.8s-7.1 3-7.1 7.5c0 4.2 3.2 7.6 7.4 7.6 3.5 0 5.5-2.1 6.3-3.4l-2.6-1.7c-.8 1.3-2 2.1-3.7 2.1s-2.8-.8-3.6-2.3l10-4.1-.3-.9Zm-10.3 2.5c0-2.9 2.3-4.4 4-4.4 1.3 0 2.4.7 2.8 1.6l-6.8 2.8Zm-8.1 7.3h3.3V12.3h-3.3v22.1Zm-5.5-12.9a5.2 5.2 0 0 0-4-1.7c-3.8 0-7.2 3.3-7.2 7.6s3.4 7.5 7.2 7.5a5 5 0 0 0 4-1.7v1c0 3-1.5 4.5-4 4.5-2 0-3.2-1.5-3.8-2.7l-2.9 1.2c.9 2 3 4.5 6.7 4.5 3.9 0 7.2-2.3 7.2-7.9V20.3h-3.2v1.2ZM137 32c-2.2 0-4.2-1.9-4.2-4.5s2-4.6 4.2-4.6 4 2 4 4.6-1.7 4.5-4 4.5Zm43.2-19.6h-7.9v22.1h3.3V26h4.6c3.7 0 7.3-2.6 7.3-6.8s-3.6-6.9-7.3-6.9Zm0 10.7h-4.6v-7.6h4.7a3.8 3.8 0 1 1 0 7.6Zm20.5-3.2c-2.4 0-4.9 1-5.9 3.4l3 1.2c.6-1.2 1.8-1.6 3-1.6 1.7 0 3.4 1 3.4 2.8v.2c-.6-.3-1.8-.8-3.4-.8-3.2 0-6.4 1.7-6.4 5 0 3 2.6 4.8 5.5 4.8 2.2 0 3.5-1 4.2-2.1h.1v1.7h3.2V26c0-4-3-6.1-6.7-6.1Zm-.4 12.1c-1 0-2.6-.5-2.6-1.9 0-1.7 1.9-2.3 3.5-2.3 1.5 0 2.2.3 3 .7a4 4 0 0 1-3.9 3.5ZM219 20.3l-3.8 9.6-4-9.6h-3.6l6 13.4-3.4 7.4h3.4l9.1-20.8H219Zm-29.7 14.1h3.3V12.3h-3.3v22.1Z"/>
  <path d="m36.7 34.4-18.9 20a5 5 0 0 0 7.5 3l21.3-12.2-10-10.9Z" style="fill:#ea4335"/>
  <path d="m55.7 31-9.1-5.3-10.3 9.1 10.3 10.4 9.1-5.3c1.6-.8 2.7-2.5 2.7-4.4s-1-3.7-2.6-4.5Z" style="fill:#fbbc04"/>
  <path d="m17.8 16.4-.2 1.3v35.4c0 .5 0 .9.2 1.3l19.5-19.5-19.5-18.5Z" style="fill:#4285f4"/>
  <path d="m36.8 35.4 9.8-9.8-21.2-12.2a5.1 5.1 0 0 0-7.6 3l19 19Z" style="fill:#34a853"/>
  <g class="st1">
    <path class="st5" d="M80 46.6c.9.5 1.6 1.2 2 2s.8 2 .8 3-.3 2-.7 3-1.2 1.6-2 2-2 .8-3 .8-1.7-.1-2.5-.5-1.4-.8-2-1.5l1.3-1.2c.4.5.9 1 1.4 1.2.6.2 1.1.4 1.8.4s1.3-.2 1.8-.4a3.8 3.8 0 0 0 2.2-3h-5V51h5c-.1-.7-.4-1.3-.8-1.8a4 4 0 0 0-3.2-1.6 3.7 3.7 0 0 0-3 1.3L73 47.6a5.4 5.4 0 0 1 4.1-1.8c1 0 2 .3 3 .8H80Z"/>
  </g>
  <g class="st1">
    <path class="st5" d="M84 49.3h1.7v3h3.8v-3h1.7v7.9h-1.7V54h-3.8v3H84v-7.8Zm8.2 6.3h1l.5-1.4.2-2v-3h6.5v6.4h1.2v4H100v-2.4h-6.2v2.3h-1.5v-3.8Zm6.5 0v-4.8h-3.1v1.4a8.6 8.6 0 0 1-.7 3.4h3.8Zm4.7 1.2a4 4 0 0 1-1.3-1.6l1.4-.6c.4.9 1.1 1.3 2.2 1.3.5 0 1-.2 1.5-.5.4-.4.7-.9.8-1.5h-3.3v-1.3h3.3c0-.7-.3-1.2-.8-1.5s-1-.6-1.5-.6-1 .1-1.3.3a2 2 0 0 0-.8 1l-1.4-.6c.3-.7.7-1.2 1.3-1.6s1.3-.6 2.1-.6a4 4 0 0 1 2.2.6c.6.3 1 .8 1.4 1.4.3.7.5 1.4.5 2.2s-.2 1.5-.5 2.2-.8 1.1-1.4 1.5-1.4.5-2.2.5c-.8 0-1.5-.2-2.1-.6Zm8.1 0a4 4 0 0 1-1.3-1.6l1.4-.6c.4.9 1.1 1.3 2.1 1.3a3 3 0 0 0 1.6-.5c.4-.4.7-.9.8-1.5h-3.4v-1.3h3.4c0-.7-.4-1.2-.8-1.5s-1-.6-1.6-.6c-.4 0-.9.1-1.2.3a2 2 0 0 0-.8 1l-1.4-.6c.3-.7.7-1.2 1.2-1.6s1.3-.6 2.2-.6a4 4 0 0 1 2.1.6c.7.3 1.1.8 1.5 1.4.3.7.5 1.4.5 2.2s-.2 1.5-.5 2.2-.8 1.1-1.5 1.5-1.3.5-2 .5a4 4 0 0 1-2.3-.6Zm8.9.1c-.6-.4-1.1-1-1.5-1.5-.3-.7-.5-1.4-.5-2.2s.2-1.5.5-2.2c.4-.6.9-1 1.5-1.4s1.3-.6 2-.6c1 0 1.7.2 2.3.6s1 .9 1.3 1.6l-1.6.6c-.3-.8-1-1.2-2-1.2-.4 0-.8 0-1.1.3-.4.2-.7.5-.9.9s-.3.9-.3 1.4.1 1 .3 1.3.5.8.9 1c.3.2.7.3 1.1.3.5 0 1-.1 1.3-.4.3-.2.6-.5.8-1l1.5.8a3.6 3.6 0 0 1-3.5 2.1 4 4 0 0 1-2.1-.5Zm10.8.1a2.5 2.5 0 0 1-1.4-2.3c0-.8.3-1.4.9-1.9.6-.5 1.4-.7 2.3-.7l1.3.1.9.3v-.4c0-.5-.2-.9-.6-1.2-.3-.3-.8-.4-1.4-.4-.4 0-.8 0-1.1.2-.4.2-.6.4-.9.8l-1.2-1c.4-.4.8-.8 1.4-1.1.5-.3 1.2-.4 1.9-.4 1.1 0 2 .3 2.6.8s1 1.4 1 2.4v5h-1.7v-1l-1 .8c-.5.2-1 .4-1.5.4s-1-.1-1.5-.4Zm2.9-1.3.8-.8c.2-.3.3-.7.3-1l-.9-.4-1-.1c-.6 0-1 .1-1.4.4-.3.2-.4.6-.4 1 0 .3.1.6.4.9.3.2.6.3 1 .3.5 0 .9-.1 1.2-.3Zm4.1-6.4h4c.4 0 .8 0 1.2.2.4.2.7.5.9.8.2.3.3.6.3 1s0 .8-.3 1c-.1.4-.4.6-.7.7v.1l1 .7c.2.3.3.7.3 1 0 .5-.1.9-.4 1.3-.2.3-.5.6-.9.8l-1.2.2h-4.2v-7.9Zm3.8 3.2c.3 0 .5-.1.7-.3l.2-.6c0-.2 0-.5-.2-.7a.9.9 0 0 0-.7-.2h-2.1v1.8h2.1Zm.2 3.2c.3 0 .6 0 .8-.3.1-.1.3-.4.3-.7s-.2-.5-.3-.7-.5-.2-.8-.2H140v2h2.3Z"/>
  </g>
  <g class="st1">
    <path class="st5" d="M147 57a2.5 2.5 0 0 1-1.4-2.3c0-.8.3-1.4.9-1.9.6-.5 1.4-.7 2.3-.7l1.3.1.9.3v-.4c0-.5-.2-.9-.6-1.2-.3-.3-.8-.4-1.4-.4-.4 0-.8 0-1.1.2-.4.2-.7.4-.9.8l-1.2-1c.4-.4.8-.8 1.4-1.1.5-.3 1.2-.4 1.8-.4 1.2 0 2 .3 2.7.8s1 1.4 1 2.4v5H151v-1h-.1c-.2.3-.6.6-1 .8s-.9.4-1.4.4-1-.1-1.5-.4Zm3-1.3.7-.8c.2-.3.3-.7.3-1l-.9-.4-1-.1c-.6 0-1 .1-1.4.4-.3.2-.4.6-.4 1 0 .3.1.6.4.9.3.2.6.3 1 .3.5 0 .9-.1 1.2-.3Z"/>
  </g>
  <g class="st1">
    <path class="st5" d="M155 57a2.5 2.5 0 0 1-1.5-2.3c0-.8.3-1.4 1-1.9.5-.5 1.3-.7 2.3-.7l1.2.1 1 .3v-.4c0-.5-.3-.9-.6-1.2-.4-.3-.9-.4-1.4-.4-.4 0-.8 0-1.2.2-.3.2-.6.4-.8.8l-1.2-1c.3-.4.8-.8 1.3-1.1a4 4 0 0 1 1.9-.4c1.1 0 2 .3 2.7.8s.9 1.4.9 2.4v5h-1.7v-1l-1 .8c-.4.2-.9.4-1.4.4s-1.1-.1-1.6-.4Zm2.9-1.3.7-.8c.2-.3.3-.7.3-1l-.8-.4-1-.1c-.6 0-1.1.1-1.4.4-.3.2-.5.6-.5 1 0 .3.2.6.5.9.2.2.6.3 1 .3.5 0 .8-.1 1.2-.3Zm4.1-6.4h1.5v1h.1a3 3 0 0 1 2.5-1.3c.7 0 1.4.2 2 .6.5.3 1 .8 1.3 1.4.3.7.5 1.4.5 2.2s-.2 1.5-.5 2.2-.8 1.1-1.4 1.5c-.5.3-1.2.5-1.9.5a3 3 0 0 1-2.5-1.3v4.4H162V49.3Zm5 6.2c.4-.2.7-.5 1-1l.2-1.3c0-.5 0-1-.3-1.4s-.5-.7-.9-.9-.7-.3-1.1-.3l-1.2.3a2.6 2.6 0 0 0-1.2 2.3c0 .5.1 1 .4 1.4l.8 1c.3.3.8.2 1.2.2s.8 0 1.1-.3Zm5 1.5a2.5 2.5 0 0 1-1.4-2.3c0-.8.3-1.4.9-1.9.6-.5 1.4-.7 2.3-.7l1.3.1.9.3v-.4c0-.5-.2-.9-.6-1.2-.3-.3-.8-.4-1.4-.4-.4 0-.8 0-1.1.2-.4.2-.6.4-.9.8l-1.2-1c.4-.4.8-.8 1.4-1.1.5-.3 1.2-.4 1.9-.4 1.1 0 2 .3 2.6.8s1 1.4 1 2.4v5H176v-1l-1 .8c-.5.2-1 .4-1.5.4s-1-.1-1.5-.4Zm2.9-1.3.8-.8c.2-.3.3-.7.3-1l-.9-.4-1-.1c-.6 0-1 .1-1.4.4-.3.2-.4.6-.4 1 0 .3.1.6.4.9.3.2.6.3 1 .3.5 0 .9-.1 1.2-.3Zm4.1-6.4h1.7v5.3l3.8-5.3h1.6v7.9h-1.7v-4l.1-1.4-3.8 5.3H179v-7.8Zm2.6-1.7a2 2 0 0 1-1-1.8h1.3c0 .2 0 .4.2.6s.3.2.5.2.5 0 .6-.2l.2-.6h1.3c0 .4-.1.7-.3 1l-.8.8c-.3.2-.6.2-1 .2s-.6 0-1-.2Zm6.3 3.6c-.2-.3-.4-.6-.4-.9s.2-.6.4-.8.5-.4.8-.4.7.1.9.4.3.5.3.8 0 .6-.3.9-.5.3-.9.3-.6-.1-.8-.3Zm0 5.6c-.2-.2-.4-.5-.4-.8s.2-.7.4-.9.5-.3.8-.3.7 0 .9.3c.2.2.3.5.3.8s0 .7-.3.9-.5.3-.9.3-.6 0-.8-.3Z"/>
  </g>
</svg>
