<svg width="180" height="54" fill="none" xmlns="http://www.w3.org/2000/svg">
  <path d="M173.3 54H6.7A6.7 6.7 0 0 1 0 47.2V6.8C0 3 3 0 6.7 0h166.6a6.7 6.7 0 0 1 6.7 6.8v40.5c0 3.7-3 6.7-6.7 6.7Z" fill="#000"/>
  <path d="M27.6 26.2 13.4 41.5a3.8 3.8 0 0 0 5.7 2.3l16-9.3-7.5-8.3Z" fill="#EA4335"/>
  <path d="m42 23.6-7-4-7.7 7 7.8 7.9 6.9-4a3.9 3.9 0 0 0 2-3.5 4 4 0 0 0-2-3.4Z" fill="#FBBC04"/>
  <path d="M13.4 12.5a3.7 3.7 0 0 0-.1 1v27l.1 1 14.7-14.9-14.7-14Z" fill="#4285F4"/>
  <path d="m27.7 27 7.4-7.4-16-9.4a3.9 3.9 0 0 0-5.7 2.3L27.7 27Z" fill="#34A853"/>
  <path d="M131.5 26.7h2.2V12h-2.2v14.6Zm19.6-9.3-2.5 6.3-2.6-6.3h-2.4l3.9 8.8-2.2 4.9h2.2l6-13.8h-2.4ZM138.8 25c-.7 0-1.7-.3-1.7-1.2 0-1.2 1.2-1.6 2.3-1.6 1 0 1.4.2 2 .5a2.6 2.6 0 0 1-2.6 2.3Zm.2-8c-1.5 0-3.2.7-3.8 2.2l1.9.9c.4-.9 1.2-1.1 2-1.1 1.1 0 2.2.7 2.3 1.9v.1a4.8 4.8 0 0 0-2.3-.6c-2 0-4.2 1.2-4.2 3.3 0 2 1.7 3.2 3.6 3.2a3 3 0 0 0 2.8-1.4v1.1h2.2V21c0-2.5-2-4-4.5-4Zm-13.4 2.1h-3.1v-5h3.1a2.5 2.5 0 0 1 2.6 2.5c0 1.1-1 2.5-2.6 2.5Zm0-7h-5.3v14.6h2.2V21h3c2.5 0 4.8-1.7 4.8-4.5S128 12 125.5 12ZM97 25c-1.5 0-2.7-1.3-2.7-3s1.2-3 2.7-3c1.5 0 2.7 1.3 2.7 3s-1.2 3-2.7 3Zm2.5-6.8a3.4 3.4 0 0 0-2.7-1.2 5 5 0 0 0-4.7 5 4.9 4.9 0 0 0 4.7 5c1.2 0 2.2-.6 2.6-1.2h.1v.7c0 2-1 3-2.6 3a2.7 2.7 0 0 1-2.5-1.8l-2 .8c.6 1.3 2 3 4.5 3s4.7-1.6 4.7-5.3v-8.9h-2v.8Zm3.6 8.4h2.2V12.1h-2.2v14.6Zm5.4-4.8a2.7 2.7 0 0 1 2.6-2.9c.8 0 1.6.5 1.8 1.1l-4.4 1.8Zm6.7-1.6c-.4-1.1-1.6-3.2-4.2-3.2s-4.7 2-4.7 5c0 2.8 2.1 5 5 5a5 5 0 0 0 4-2.2l-1.6-1.2a2.8 2.8 0 0 1-2.5 1.4c-1 0-1.9-.5-2.4-1.5l6.7-2.7-.3-.6Zm-52.8-1.6v2h5a4.4 4.4 0 0 1-1 2.7 5.2 5.2 0 0 1-4 1.5 5.5 5.5 0 0 1-5.5-5.6 5.5 5.5 0 0 1 9.3-4l1.5-1.5a7.3 7.3 0 0 0-5.3-2.1 7.8 7.8 0 0 0-7.8 7.7 7.8 7.8 0 0 0 7.8 7.7 7 7 0 0 0 5.4-2.2 7 7 0 0 0 1.8-5v-1.2h-7.2Zm13 6.4c-1.6 0-2.9-1.2-2.9-3s1.3-3 2.8-3c1.5 0 2.8 1.2 2.8 3s-1.3 3-2.8 3Zm0-8a4.9 4.9 0 0 0-5 5 4.9 4.9 0 0 0 5 5 4.9 4.9 0 0 0 5-5 4.9 4.9 0 0 0-5-5Zm10.8 8c-1.5 0-2.8-1.2-2.8-3s1.3-3 2.8-3c1.5 0 2.8 1.2 2.8 3s-1.3 3-2.8 3Zm0-8a4.9 4.9 0 0 0-5 5 4.9 4.9 0 0 0 5 5 4.9 4.9 0 0 0 5-5 4.9 4.9 0 0 0-5-5ZM54.8 40.1v-.8h3.5v.8h-3.5Z" fill="#fff"/>
  <path d="M54.8 40.1h.2v-.7h3.2v.6h-3.4v.2h3.7v-1h-3.8v1h.1Zm7 3.8a4 4 0 0 1-3.1-1.3l.7-.7a3.1 3.1 0 0 0 2.4 1 3 3 0 0 0 2-.6 2.9 2.9 0 0 0 1-2h-3.3v-1h3.4a3 3 0 0 0-3-2.6c-1 0-1.7.3-2.3 1L59 37a3.6 3.6 0 0 1 3-1.3 4 4 0 0 1 4 4.1 4 4 0 0 1-1.2 3 4 4 0 0 1-2.9 1.2Z" fill="#fff"/>
  <path d="M61.8 44v-.2a4 4 0 0 1-3-1.3h-.1l.1.1.7-.7h-.2c.7.8 1.5 1.2 2.5 1.2a3.1 3.1 0 0 0 3.2-2.8v-.1h-3.4v-.7H65v-.1a3 3 0 0 0-3.2-2.8 2.8 2.8 0 0 0-2.3 1h.2l-.7-.7v.2a3.5 3.5 0 0 1 2.8-1.2c1.2 0 2 .3 2.8 1.1a4 4 0 0 1 0 5.7 3.8 3.8 0 0 1-2.8 1.1v.3a4.1 4.1 0 0 0 3-1.2 4.1 4.1 0 0 0 1.3-3c0-1.3-.5-2.3-1.3-3a4.1 4.1 0 0 0-3-1.3 3.8 3.8 0 0 0-3 1.3v.1l.7.8h.2c.5-.7 1.2-1 2.1-1a2.8 2.8 0 0 1 3 2.6v-.2h-3.5v1.3h3.5v-.2a2.8 2.8 0 0 1-1 1.9 3 3 0 0 1-4.3-.4l-.1-.1-.8.8v.1a4.3 4.3 0 0 0 3.2 1.5V44Zm7.8 0a4 4 0 0 1-3-1.4l.6-.7a3.1 3.1 0 0 0 2.4 1 3 3 0 0 0 2-.6 2.9 2.9 0 0 0 1-2h-3.3v-1h3.4a3 3 0 0 0-1-1.9 3 3 0 0 0-2-.7c-1 0-1.7.3-2.2 1l-.7-.7a3.6 3.6 0 0 1 2.9-1.3 4 4 0 0 1 4 4.1 4 4 0 0 1-1.1 3 4 4 0 0 1-3 1.2Z" fill="#fff"/>
  <path d="M69.6 44v-.2a4 4 0 0 1-3-1.3v.1l.7-.7H67c.7.8 1.6 1.2 2.5 1.2a3.1 3.1 0 0 0 3.2-2.8v-.1h-3.4v-.7h3.4v-.1a3 3 0 0 0-3.2-2.8 2.8 2.8 0 0 0-2.3 1h.2l-.6-.7-.1.1v.1a3.5 3.5 0 0 1 2.9-1.2 3.8 3.8 0 0 1 2.8 1.1c.7.8 1.1 1.7 1.1 2.8s-.4 2.1-1.1 2.9a3.8 3.8 0 0 1-2.9 1.1v.3a4.1 4.1 0 0 0 3-1.2 4.1 4.1 0 0 0 1.3-3 4.1 4.1 0 0 0-4.3-4.3 3.8 3.8 0 0 0-3 1.3v.1l.9.9v-.1c.6-.7 1.3-1 2.1-1a2.8 2.8 0 0 1 3 2.6v-.2h-3.4v1.3h3.5v-.2h-.2a2.8 2.8 0 0 1-1 1.9 3 3 0 0 1-4.2-.4v-.1l-.9.8v.1a4.3 4.3 0 0 0 3.2 1.5V44Zm9.2 0a4 4 0 0 1-4-4.2 4 4 0 0 1 1.1-2.9 4 4 0 0 1 3-1.2c1.1 0 2 .5 2.8 1.3l-.7.7c-.5-.7-1.3-1-2.2-1a3 3 0 0 0-3 3.1c0 1 .3 1.7.8 2.3a3 3 0 0 0 2.2.9 3.1 3.1 0 0 0 2.4-1.2l.7.7a4 4 0 0 1-3 1.5Z" fill="#fff"/>
  <path d="M78.8 44v-.2a3.8 3.8 0 0 1-2.8-1.1 3.9 3.9 0 0 1-1.1-2.9c0-1.1.3-2 1.1-2.8a3.8 3.8 0 0 1 2.8-1.1 3.5 3.5 0 0 1 2.8 1.2h.1v-.2l-.8.7.1.1h.1a2.8 2.8 0 0 0-2.3-1.1 3.1 3.1 0 0 0-3.2 3.2 3.1 3.1 0 0 0 3.2 3.3 3 3 0 0 0 2.5-1.2H81l.7.7h.1v-.1a5 5 0 0 1-1.4 1 4 4 0 0 1-1.7.3v.3c.7 0 1.3-.1 1.8-.4a4 4 0 0 0 1.4-1l.1-.2-.8-.7v-.1H81a3 3 0 0 1-2.3 1.1c-.8 0-1.5-.2-2-.8a3 3 0 0 1-.9-2.2 2.9 2.9 0 0 1 3-3c.8 0 1.5.3 2 1h.1l.9-.8a3.8 3.8 0 0 0-3-1.4 4 4 0 0 0-3 1.2 4.1 4.1 0 0 0-1.3 3 4.1 4.1 0 0 0 4.2 4.3V44Zm8.3-3.3h2.6l-1.2-3.6h-.1l-1.3 3.6Zm-2.2 3 3-7.8H89l3 7.9h-1.2l-.7-2.2h-3.3l-.8 2.2h-1.1Z" fill="#fff"/>
  <path d="M87.1 40.7v.1H90L88.5 37h-.2L87 40.8h.2v-.1h.1l1.3-3.5h-.1l1.1 3.4h-2.4v.1Zm-2.2 3 .1.1 3-7.8h.9l2.9 7.6h-.9l-.7-2h-3.5l-.8 2h-1v.3H86l.8-2.1h3l.8 2.1H92l-3-8.1h-1.3l-3.1 8.1h.2v-.1Zm9.1-.9h2a1.3 1.3 0 0 0 1.3-1.3 1.2 1.2 0 0 0-.3-.9c-.3-.2-.6-.4-1-.4h-2v2.6Zm0-3.5h1.8c.4 0 .7-.1 1-.4.2-.3.3-.5.3-.8 0-.3 0-.6-.3-.9a1.1 1.1 0 0 0-.9-.3H94v2.4Zm-1 4.5v-7.9h2.9a2 2 0 0 1 1.5.6 2 2 0 0 1 .4 2.5l-.7.7a2 2 0 0 1 1 .7 2 2 0 0 1-.4 2.7 2.4 2.4 0 0 1-1.7.7h-3Z" fill="#fff"/>
  <path d="M94 42.8v.1h2c.5 0 .8-.1 1.1-.4.3-.3.4-.6.4-1s-.1-.7-.4-1a1.4 1.4 0 0 0-1-.4h-2.2v2.8h.3v-2.5H96c.4 0 .7 0 .9.3.2.3.3.5.3.8a1.2 1.2 0 0 1-1.2 1.2h-2v.1Zm0-3.5v.1h1.8c.5 0 .8-.1 1-.4.3-.3.4-.6.4-1 0-.3 0-.6-.3-.8a1.3 1.3 0 0 0-1-.5h-2v2.7h.1v-.1h.1V37H96a1 1 0 0 1 .8.3c.2.3.3.5.3.8s-.1.5-.3.7c-.2.2-.5.3-.9.4H94Zm-1 4.5h.1V36H96c.5 0 1 .2 1.5.6a1.8 1.8 0 0 1 .3 2.4 1.7 1.7 0 0 1-.7.6v.2l1 .7c.2.3.3.6.3 1a2 2 0 0 1-.7 1.5c-.5.4-1 .6-1.6.6h-3v.3h3c.7 0 1.3-.2 1.8-.7.5-.4.7-1 .7-1.7a2 2 0 0 0-.4-1.2 2.2 2.2 0 0 0-1-.7v.1h.1-.1v.1c.4-.1.6-.4.9-.7a2.1 2.1 0 0 0-.4-2.7 2.4 2.4 0 0 0-1.7-.6h-3v8.1h.1v-.1Zm8.2-3.1h2.6l-1.3-3.6-1.3 3.6Zm-2.3 3 3-7.8h1.1l3 7.9h-1l-.8-2.2h-3.3l-.8 2.2h-1Z" fill="#fff"/>
  <path d="M101.2 40.7v.1h2.8l-1.4-3.8h-.2l-1.4 3.8h.2v-.1l1.4-3.5h-.2l1.2 3.4h-2.4v.1Zm-2.3 3 .1.1 3-7.8h1l2.8 7.6h-.8l-.8-2h-3.5l-.8 2h-1v.3h1.2l.8-2.1h3.1l.8 2.1h1.4l-3-8.1h-1.4l-3 8.1h.1v-.1Zm7.8 0 2.7-4-2.5-3.8h1.2l1.9 3 2-3h1.2l-2.5 3.8 2.6 4h-1.2l-2-3.2h-.1l-2.1 3.3h-1.2Z" fill="#fff"/>
  <path d="M106.7 43.8h.1l2.7-4-2.4-3.8h1l1.8 3h.2l2-3h.8l-2.4 3.7 2.6 4h-.9l-2-3.3h-.3l-2 3.2h-1.2v.3h1.3l2.1-3.3h-.1l2 3.3h1.6l-2.8-4.2 2.6-4H112l-2 3.1.1.1v-.1.1h.1l-2-3.1h-1.5l2.6 4-2.7 4.1h.2v-.1Z" fill="#fff"/>
</svg>
