<svg width="180" height="54" fill="none" xmlns="http://www.w3.org/2000/svg">
  <path d="M173.33 54H6.67A6.73 6.73 0 0 1 0 47.25V6.75C0 3.04 3 0 6.67 0h166.66A6.73 6.73 0 0 1 180 6.75v40.5c0 3.71-3 6.75-6.67 6.75Z" fill="#000"/>
  <path d="m27.63 26.22-14.2 15.26a3.84 3.84 0 0 0 5.65 2.35l.05-.03 15.97-9.33-7.48-8.25Z" fill="#EA4335"/>
  <path d="m41.98 23.63-.01-.02-6.9-4.05-7.77 7 7.8 7.9 6.86-4a3.89 3.89 0 0 0 2.02-3.43c0-1.47-.8-2.75-2-3.4Z" fill="#FBBC04"/>
  <path d="M13.43 12.52a3.7 3.7 0 0 0-.13 1v26.96c0 .35.04.68.13 1L28.1 26.62l-14.68-14.1Z" fill="#4285F4"/>
  <path d="m27.73 27 7.34-7.44-15.96-9.37a3.85 3.85 0 0 0-5.69 2.33L27.73 27Z" fill="#34A853"/>
  <path d="M131.52 26.67h2.17V12.1h-2.17v14.57Zm19.59-9.32-2.5 6.31h-.07l-2.59-6.31h-2.34l3.88 8.82-2.21 4.91h2.26l5.99-13.73h-2.42ZM138.77 25c-.7 0-1.7-.35-1.7-1.24 0-1.12 1.24-1.55 2.3-1.55.96 0 1.4.2 1.99.49a2.64 2.64 0 0 1-2.59 2.3Zm.27-7.98c-1.58 0-3.2.69-3.88 2.23l1.93.8c.4-.8 1.18-1.07 1.98-1.07 1.13 0 2.27.68 2.29 1.88v.15a4.8 4.8 0 0 0-2.27-.56c-2.08 0-4.2 1.14-4.2 3.28 0 1.95 1.7 3.2 3.62 3.2 1.46 0 2.27-.65 2.78-1.42h.07v1.12h2.1v-5.58c0-2.59-1.93-4.03-4.42-4.03Zm-13.44 2.09h-3.1v-5h3.1a2.52 2.52 0 0 1 2.55 2.5c0 1.13-.93 2.5-2.55 2.5Zm-.06-7.02h-5.21v14.57h2.17v-5.52h3.04c2.41 0 4.78-1.75 4.78-4.53 0-2.78-2.37-4.52-4.78-4.52ZM97.13 25c-1.5 0-2.77-1.25-2.77-2.98 0-1.75 1.26-3.02 2.77-3.02 1.48 0 2.64 1.27 2.64 3.02 0 1.73-1.16 2.98-2.64 2.98Zm2.5-6.85h-.08a3.43 3.43 0 0 0-2.61-1.1 4.93 4.93 0 0 0-4.75 4.97 4.9 4.9 0 0 0 4.75 4.94c1.18 0 2.12-.53 2.6-1.13h.08v.71c0 1.9-1.01 2.91-2.65 2.91a2.74 2.74 0 0 1-2.5-1.76l-1.89.79c.55 1.31 2 2.93 4.4 2.93 2.55 0 4.7-1.5 4.7-5.17v-8.9h-2.06v.81Zm3.56 8.5h2.18V12.1h-2.18v14.57Zm5.39-4.8a2.72 2.72 0 0 1 2.59-2.9c.86 0 1.6.44 1.84 1.06l-4.43 1.84Zm6.76-1.65c-.42-1.11-1.67-3.16-4.25-3.16-2.55 0-4.67 2.01-4.67 4.96 0 2.78 2.1 4.96 4.92 4.96a4.93 4.93 0 0 0 4.13-2.2l-1.69-1.13a2.83 2.83 0 0 1-2.44 1.37c-1.1 0-1.9-.5-2.4-1.5l6.62-2.74-.22-.56Zm-52.8-1.64v2.1h5.02a4.39 4.39 0 0 1-1.14 2.65 5.15 5.15 0 0 1-3.89 1.54c-3.1 0-5.52-2.5-5.52-5.6a5.52 5.52 0 0 1 9.32-4.08l1.48-1.49a7.34 7.34 0 0 0-5.28-2.12 7.8 7.8 0 0 0-7.8 7.7 7.8 7.8 0 0 0 7.8 7.7c2.3 0 4.02-.75 5.37-2.16a6.95 6.95 0 0 0 1.82-4.92c0-.49-.03-.94-.1-1.32h-7.09ZM75.44 25c-1.5 0-2.8-1.23-2.8-3 0-1.78 1.3-3 2.8-3 1.5 0 2.8 1.22 2.8 3 0 1.77-1.3 3-2.8 3Zm0-7.96A4.89 4.89 0 0 0 70.47 22a4.9 4.9 0 0 0 4.98 4.96A4.9 4.9 0 0 0 80.42 22a4.89 4.89 0 0 0-4.97-4.96ZM86.3 25c-1.5 0-2.8-1.23-2.8-3 0-1.78 1.3-3 2.8-3 1.5 0 2.8 1.22 2.8 3 0 1.77-1.3 3-2.8 3Zm0-7.96A4.89 4.89 0 0 0 81.32 22a4.9 4.9 0 0 0 4.98 4.96A4.9 4.9 0 0 0 91.28 22a4.89 4.89 0 0 0-4.98-4.96ZM54.82 40.11v-.83h3.52v.83h-3.52Z" fill="#fff"/>
  <path d="M54.82 40.11h.13v-.7h3.25v.57h-3.38v.27h3.65v-1.1h-3.79v1.1h.14v-.14Zm7 3.84a4.02 4.02 0 0 1-3.12-1.4l.7-.7a3.1 3.1 0 0 0 2.42 1.14c.78 0 1.45-.25 2.02-.73a2.9 2.9 0 0 0 1-1.95h-3.37v-.94h3.38a2.94 2.94 0 0 0-3.03-2.68c-.92 0-1.65.34-2.19 1l-.7-.68a3.63 3.63 0 0 1 2.89-1.28 3.99 3.99 0 0 1 4.1 4.11c0 1.17-.4 2.15-1.18 2.94a3.96 3.96 0 0 1-2.92 1.17Z" fill="#fff"/>
  <path d="M61.82 43.95v-.13a4 4 0 0 1-3.02-1.36l-.1.09.1.09.7-.7-.1-.1-.1.09c.69.79 1.54 1.2 2.52 1.19a3.12 3.12 0 0 0 3.16-2.79l.02-.15h-3.4v-.68H65l-.02-.15a3.08 3.08 0 0 0-3.16-2.8 2.8 2.8 0 0 0-2.3 1.06l.11.08.1-.1-.7-.67-.1.1.1.08a3.5 3.5 0 0 1 2.79-1.24c1.13 0 2.06.38 2.82 1.14.76.76 1.14 1.7 1.14 2.84s-.38 2.08-1.14 2.84a3.82 3.82 0 0 1-2.82 1.14v.27a4.1 4.1 0 0 0 3.01-1.22 4.12 4.12 0 0 0 1.22-3.03c0-1.2-.41-2.22-1.22-3.03a4.1 4.1 0 0 0-3.01-1.22 3.8 3.8 0 0 0-3 1.34l-.07.1.79.76.1.1.1-.11c.5-.64 1.19-.95 2.08-.95a2.83 2.83 0 0 1 2.89 2.55l.14-.01v-.14h-3.51v1.22h3.5v-.14l-.13-.01a2.8 2.8 0 0 1-.96 1.86 3 3 0 0 1-4.25-.4l-.1-.11-.8.8-.08.09.07.1a4.28 4.28 0 0 0 3.23 1.46v-.15Zm7.82 0a4.02 4.02 0 0 1-3.12-1.4l.7-.7a3.1 3.1 0 0 0 2.42 1.14c.78 0 1.45-.25 2.02-.73a2.9 2.9 0 0 0 1-1.95H69.3v-.94h3.38a2.94 2.94 0 0 0-1.01-1.95 3.01 3.01 0 0 0-2.02-.73c-.92 0-1.65.34-2.19 1l-.7-.68a3.63 3.63 0 0 1 2.9-1.28 3.98 3.98 0 0 1 4.1 4.11 4.04 4.04 0 0 1-1.2 2.94 3.96 3.96 0 0 1-2.9 1.17Z" fill="#fff"/>
  <path d="M69.64 43.95v-.13a4 4 0 0 1-3.02-1.36l-.1.09.1.09.7-.7-.1-.1-.1.09c.69.79 1.54 1.2 2.52 1.19a3.1 3.1 0 0 0 3.16-2.79l.02-.15h-3.4v-.68h3.4l-.02-.15a3.08 3.08 0 0 0-3.16-2.8 2.8 2.8 0 0 0-2.3 1.06l.11.08.1-.1-.7-.67-.1.1.1.08a3.5 3.5 0 0 1 2.8-1.24A3.8 3.8 0 0 1 72.46 37c.76.76 1.14 1.7 1.14 2.84s-.38 2.08-1.14 2.84a3.82 3.82 0 0 1-2.82 1.14v.27a4.1 4.1 0 0 0 3.01-1.22 4.12 4.12 0 0 0 1.22-3.03 4.12 4.12 0 0 0-4.23-4.25 3.8 3.8 0 0 0-3 1.34l-.07.1.9.86.09-.11c.5-.64 1.19-.95 2.08-.95a2.83 2.83 0 0 1 2.89 2.55l.14-.01v-.14h-3.51v1.22h3.5v-.14l-.13-.01a2.8 2.8 0 0 1-.96 1.86 3 3 0 0 1-4.25-.4l-.1-.11-.8.8-.08.09.07.1a4.28 4.28 0 0 0 3.23 1.46v-.15Zm9.17 0a3.98 3.98 0 0 1-4.1-4.11c.01-1.17.4-2.15 1.19-2.94a3.95 3.95 0 0 1 2.91-1.17c1.19 0 2.15.42 2.9 1.28l-.71.68c-.54-.66-1.26-1-2.19-1a3.01 3.01 0 0 0-3.06 3.15c0 .94.3 1.7.89 2.28.59.58 1.31.87 2.17.87a3.1 3.1 0 0 0 2.42-1.15l.7.7a4.02 4.02 0 0 1-3.12 1.41Z" fill="#fff"/>
  <path d="M78.81 43.95v-.13A3.82 3.82 0 0 1 76 42.68a3.85 3.85 0 0 1-1.14-2.84c0-1.14.38-2.08 1.14-2.84a3.82 3.82 0 0 1 2.82-1.14 3.5 3.5 0 0 1 2.8 1.24l.1-.09-.1-.1-.7.69.09.1.1-.09a2.8 2.8 0 0 0-2.29-1.05 3.12 3.12 0 0 0-3.19 3.28 3.13 3.13 0 0 0 3.19 3.27c.98.01 1.84-.4 2.52-1.18l-.1-.09-.1.1.71.7.1-.1-.1-.08c-.35.42-.79.75-1.31 1a4 4 0 0 1-1.72.36v.27c.66 0 1.27-.13 1.83-.4a3.98 3.98 0 0 0 1.4-1.06l.07-.1-.78-.78-.1-.1-.1.1a2.97 2.97 0 0 1-2.32 1.1c-.83 0-1.51-.27-2.08-.83a2.91 2.91 0 0 1-.84-2.18 2.85 2.85 0 0 1 2.92-3.01c.9 0 1.57.31 2.09.95l.09.11.9-.87-.08-.1a3.77 3.77 0 0 0-3-1.33c-1.19 0-2.2.4-3 1.22a4.12 4.12 0 0 0-1.22 3.03 4.12 4.12 0 0 0 4.22 4.25v-.14Zm8.3-3.25h2.62l-1.28-3.56h-.05l-1.29 3.56Zm-2.23 3.08 2.97-7.88H89l2.97 7.88h-1.13l-.76-2.14h-3.3L86 43.78h-1.12Z" fill="#fff"/>
  <path d="M87.11 40.7v.13h2.81l-1.38-3.82h-.23l-1.39 3.82h.2v-.13l.12.04 1.29-3.55-.13-.05v.14h.05v-.14l-.13.05 1.22 3.37h-2.43v.14Zm-2.23 3.08.13.04 2.93-7.79h.96l2.87 7.61h-.83l-.76-2.13h-3.5l-.77 2.13h-1.03v.27h1.22l.77-2.13h3.12l.76 2.13h1.4l-3.06-8.14h-1.33l-3.07 8.14h.2v-.13Zm9.14-.97h2.03a1.31 1.31 0 0 0 1.3-1.3 1.2 1.2 0 0 0-.36-.88c-.25-.27-.58-.4-.98-.4h-2v2.58Zm0-3.53h1.83c.38 0 .7-.13.92-.38.23-.25.35-.53.35-.83 0-.3-.11-.58-.34-.83a1.13 1.13 0 0 0-.88-.37h-1.88v2.4ZM93 43.78V35.9h2.85c.62 0 1.15.2 1.6.61a1.98 1.98 0 0 1 .38 2.53c-.19.28-.44.5-.77.65v.04a2 2 0 0 1 .96.68 2.07 2.07 0 0 1-.34 2.73 2.4 2.4 0 0 1-1.67.64h-3Z" fill="#fff"/>
  <path d="M94.02 42.81v.13h2.03c.42 0 .78-.15 1.05-.45.26-.29.4-.62.4-.98s-.15-.69-.42-.97a1.4 1.4 0 0 0-1.07-.45h-2.13v2.85h.14v-.13h.13v-2.45H96c.37 0 .65.12.88.36.23.25.34.5.34.8a1.17 1.17 0 0 1-1.18 1.16h-2.03v.13Zm0-3.53v.13h1.83c.41 0 .76-.14 1.02-.42.25-.27.38-.59.38-.92 0-.34-.13-.65-.37-.92a1.27 1.27 0 0 0-.98-.41h-2.02v2.67h.14v-.13h.13V37h1.75a1 1 0 0 1 .78.33c.2.23.3.47.3.74s-.1.5-.3.74c-.21.22-.47.33-.83.34h-1.83v.13ZM93 43.78h.14v-7.75h2.71c.59 0 1.08.2 1.51.58a1.83 1.83 0 0 1 .37 2.35 1.7 1.7 0 0 1-.72.6l-.08.04v.22l.1.04c.36.12.65.33.89.63.23.3.34.64.34 1.04 0 .62-.22 1.1-.66 1.51-.46.4-.98.6-1.6.6h-3v.27h3c.68 0 1.28-.22 1.77-.67.5-.45.76-1.03.76-1.7 0-.46-.14-.87-.4-1.21a2.2 2.2 0 0 0-1.02-.73l-.05.13h.14v-.04h-.14l.06.12c.34-.16.62-.4.83-.7a2.11 2.11 0 0 0-.4-2.7 2.44 2.44 0 0 0-1.7-.64h-2.98v8.14H93v-.13Zm8.16-3.08h2.61l-1.28-3.56h-.05l-1.28 3.56Zm-2.24 3.08 2.97-7.88h1.15l2.97 7.88h-1.13l-.75-2.14h-3.32l-.77 2.14h-1.12Z" fill="#fff"/>
  <path d="M101.16 40.7v.13h2.8l-1.38-3.82h-.23l-1.39 3.82h.2v-.13l.12.04 1.29-3.55-.13-.05v.14h.05v-.14l-.13.05 1.22 3.37h-2.42v.14Zm-2.24 3.08.13.04 2.93-7.79h.96l2.87 7.61h-.83l-.76-2.13h-3.5l-.77 2.13h-1.03v.27h1.22l.77-2.13h3.12l.76 2.13h1.4l-3.06-8.14h-1.33l-3.07 8.14h.2v-.13Zm7.8 0 2.64-4.07-2.49-3.8h1.21l1.92 3h.04l1.91-3h1.22l-2.5 3.8 2.65 4.07h-1.19l-2.09-3.23H110l-2.1 3.23h-1.18Z" fill="#fff"/>
  <path d="m106.72 43.78.11.07 2.69-4.14-2.4-3.68h.89l1.91 3.02h.2l1.9-3.02h.9l-2.4 3.68 2.55 3.93h-.87l-2.09-3.22h-.19l-2.09 3.22h-1.11v.27h1.26l2.13-3.28-.11-.08v.14h.04v-.14l-.11.08 2.13 3.28h1.5l-2.72-4.2 2.57-3.94h-1.53l-1.95 3.07.11.08v-.14H110v.14l.11-.08-1.95-3.07h-1.53l2.57 3.94-2.73 4.2h.25v-.13Z" fill="#fff"/>
</svg>
