<svg width="270" height="80" fill="none" xmlns="http://www.w3.org/2000/svg">
  <g clip-path="url(#a)">
    <mask id="b" style="mask-type:luminance" maskUnits="userSpaceOnUse" x="-21" y="-20" width="311" height="121">
      <path d="M-20-20h310v120H-20V-20Z" fill="#fff"/>
    </mask>
    <g mask="url(#b)">
      <path d="M260 80H10A10 10 0 0 1 0 70V10A10 10 0 0 1 10 0h250a10 10 0 0 1 10 10v60a10 10 0 0 1-10 10Z" fill="#000"/>
    </g>
    <mask id="c" style="mask-type:luminance" maskUnits="userSpaceOnUse" x="-21" y="-20" width="311" height="121">
      <path d="M-20-20h310v120H-20V-20Z" fill="#fff"/>
    </mask>
    <g mask="url(#c)">
      <path d="M213.9 38.9h3.7v-25h-3.7v25Zm33.6-16-4.3 10.8h-.1L238.6 23h-4l6.7 15.2-3.8 8.4h3.9L251.6 23h-4.1Zm-21.2 13.2c-1.2 0-3-.7-3-2.2 0-1.9 2.2-2.6 4-2.6 1.7 0 2.5.3 3.5.8-.3 2.3-2.3 4-4.5 4Zm.5-13.7c-2.7 0-5.5 1.1-6.7 3.8l3.3 1.4c.7-1.4 2-1.9 3.4-1.9 2 0 4 1.2 4 3.2v.3c-.7-.4-2.2-1-4-1-3.5 0-7.1 2-7.1 5.7 0 3.3 2.9 5.5 6.2 5.5 2.5 0 3.9-1.2 4.7-2.5h.2v2h3.6v-9.6c0-4.5-3.3-7-7.6-7Zm-23 3.5h-5.4v-8.5h5.3c2.8 0 4.4 2.3 4.4 4.3 0 1.9-1.6 4.2-4.4 4.2Zm-.2-12h-9v25h3.8v-9.5h5.2c4.1 0 8.2-3 8.2-7.7 0-4.8-4-7.8-8.2-7.8Zm-48.8 22.2c-2.5 0-4.7-2.2-4.7-5.2s2.2-5.1 4.8-5.1c2.5 0 4.5 2.1 4.5 5.1 0 3-2 5.2-4.6 5.2Zm4.3-11.8c-1-1-2.5-1.9-4.6-1.9a8.5 8.5 0 0 0-8.1 8.5c0 4.8 3.9 8.5 8.1 8.5 2 0 3.7-.9 4.5-2h.1v1.3c0 3.3-1.7 5-4.5 5a4.7 4.7 0 0 1-4.3-3l-3.2 1.3a8 8 0 0 0 7.5 5c4.4 0 8-2.5 8-8.8V22.9h-3.5v1.4Zm6.2 14.6h3.7v-25h-3.7v25Zm9.2-8.2c0-3.3 2.6-5 4.4-5 1.5 0 2.8.7 3.2 1.8l-7.6 3.2Zm11.6-2.9c-.7-1.9-2.9-5.4-7.3-5.4s-8 3.4-8 8.5c0 4.8 3.6 8.5 8.4 8.5 4 0 6.2-2.4 7.1-3.8l-2.9-1.9a4.9 4.9 0 0 1-4.2 2.4c-1.9 0-3.2-1-4-2.6l11.3-4.7-.4-1ZM95.5 25v3.6h8.6c-.2 2-1 3.5-2 4.6a8.8 8.8 0 0 1-6.6 2.6 9.5 9.5 0 0 1-9.5-9.6 9.5 9.5 0 0 1 16-7l2.5-2.6c-2.1-2-5-3.6-9-3.6C88.2 13 82 19 82 26.2c0 7.3 6.1 13.2 13.4 13.2 4 0 6.9-1.3 9.2-3.7a12 12 0 0 0 3.1-8.4c0-.9 0-1.6-.2-2.3h-12Zm22.1 11c-2.5 0-4.8-2-4.8-5 0-3.2 2.3-5.2 4.8-5.2 2.6 0 4.8 2 4.8 5.1 0 3-2.2 5.2-4.8 5.2Zm0-13.6a8.4 8.4 0 0 0-8.5 8.5c0 4.9 3.8 8.5 8.5 8.5 4.8 0 8.6-3.6 8.6-8.5 0-5-3.9-8.5-8.6-8.5Zm18.7 13.7c-2.6 0-4.8-2.2-4.8-5.2s2.2-5.1 4.8-5.1c2.5 0 4.8 2 4.8 5.1 0 3-2.3 5.2-4.8 5.2Zm0-13.7a8.4 8.4 0 0 0-8.6 8.5c0 4.9 3.9 8.5 8.6 8.5 4.7 0 8.5-3.6 8.5-8.5 0-5-3.8-8.5-8.5-8.5Z" fill="#fff"/>
    </g>
    <mask id="d" style="mask-type:luminance" maskUnits="userSpaceOnUse" x="-21" y="-20" width="311" height="121">
      <path d="M-20-20h310v120H-20V-20Z" fill="#fff"/>
    </mask>
    <g mask="url(#d)">
      <path d="M41.4 38.9 20.1 61.5a5.7 5.7 0 0 0 8.5 3.4l24-13.8-11.2-12.2Z" fill="#EA4335"/>
    </g>
    <mask id="e" style="mask-type:luminance" maskUnits="userSpaceOnUse" x="-21" y="-20" width="311" height="121">
      <path d="M-20-20h310v120H-20V-20Z" fill="#fff"/>
    </mask>
    <g mask="url(#e)">
      <path d="m63 35-10.4-6L41 39.4 52.7 51l10.2-6a5.8 5.8 0 0 0 .1-10Z" fill="#FBBC04"/>
    </g>
    <mask id="f" style="mask-type:luminance" maskUnits="userSpaceOnUse" x="-21" y="-20" width="311" height="121">
      <path d="M-20-20h310v120H-20V-20Z" fill="#fff"/>
    </mask>
    <g mask="url(#f)">
      <path d="M20.1 18.6 20 20v40l.2 1.5 22-22-22-21Z" fill="#4285F4"/>
    </g>
    <mask id="g" style="mask-type:luminance" maskUnits="userSpaceOnUse" x="-21" y="-20" width="311" height="121">
      <path d="M-20-20h310v120H-20V-20Z" fill="#fff"/>
    </mask>
    <g mask="url(#g)">
      <path d="m41.6 40 11-11-24-13.9a5.8 5.8 0 0 0-8.5 3.4L41.6 40Z" fill="#34A853"/>
    </g>
    <path d="M87.1 51.8a6.4 6.4 0 0 1 6.5 6.5c0 1.2-.3 2.4-.9 3.4-.5 1-1.3 1.7-2.3 2.3a6.7 6.7 0 0 1-8.3-1.4l1.4-1.3c.4.5 1 1 1.6 1.2a4.7 4.7 0 0 0 4.1 0 4.3 4.3 0 0 0 2.4-3.3h-5.7v-1.8h5.7a4.5 4.5 0 0 0-2.4-3.3 4.7 4.7 0 0 0-4 0c-.5.2-1 .6-1.4 1l-1.4-1.3a6 6 0 0 1 4.7-2Zm7.8 3.9h2v3.5h4.3v-3.5h1.9v8.9h-2V61H97v3.6h-2v-9Zm9.4 7.2h1c.2-.4.5-1 .6-1.7.2-.7.3-1.5.3-2.3v-3.2h7.3v7.2h1.4v4.4H113v-2.7h-7v2.7h-1.8v-4.4Zm7.4 0v-5.5H108V59a9.8 9.8 0 0 1-.8 3.9h4.4Zm7.7 2c-1 0-1.8-.3-2.4-.7-.7-.5-1.2-1-1.5-1.8l1.6-.7c.5 1 1.3 1.5 2.4 1.5.7 0 1.2-.2 1.7-.6.5-.5.9-1 1-1.7h-3.8v-1.5h3.8a2.8 2.8 0 0 0-4.1-2c-.4.3-.7.7-.9 1.1l-1.6-.7A4 4 0 0 1 117 56c.7-.4 1.5-.6 2.4-.6 1 0 1.7.2 2.4.6a4.8 4.8 0 0 1 2.2 4.1 5 5 0 0 1-.6 2.5 4 4 0 0 1-1.6 1.7c-.7.4-1.5.6-2.4.6Zm9.2 0c-1 0-1.8-.3-2.4-.7-.7-.5-1.2-1-1.5-1.8l1.6-.7c.5 1 1.3 1.5 2.4 1.5.7 0 1.2-.2 1.7-.6.5-.5.9-1 1-1.7h-3.8v-1.5h3.8a2.8 2.8 0 0 0-4.1-2c-.4.3-.7.7-.9 1.1l-1.6-.7a4 4 0 0 1 1.4-1.8c.7-.4 1.5-.6 2.4-.6 1 0 1.7.2 2.4.6.7.4 1.3 1 1.6 1.7.4.7.6 1.5.6 2.4a5 5 0 0 1-.6 2.5 4 4 0 0 1-1.6 1.7c-.7.4-1.5.6-2.4.6Zm10 0a4.6 4.6 0 0 1-4-2.3 5 5 0 0 1-.6-2.5 4.6 4.6 0 0 1 4.6-4.7c1 0 1.9.2 2.6.7a4 4 0 0 1 1.4 1.7l-1.8.8c-.3-1-1.1-1.4-2.2-1.4a2.5 2.5 0 0 0-2.3 1.4 3.3 3.3 0 0 0 0 3c.2.5.6.9 1 1.1.4.3.8.4 1.3.4.6 0 1-.1 1.4-.4.4-.2.7-.6 1-1l1.7.7c-.3.8-.9 1.4-1.5 1.8-.7.4-1.6.7-2.6.7Zm11.7 0c-.7 0-1.2-.2-1.7-.4-.5-.3-1-.6-1.2-1a3 3 0 0 1-.4-1.7c0-.9.3-1.6 1-2.1.7-.6 1.6-.8 2.6-.8a6.3 6.3 0 0 1 2.5.4V59c0-.6-.2-1-.6-1.4a3 3 0 0 0-1.6-.5 2.9 2.9 0 0 0-2.3 1.1l-1.3-1c.4-.5.9-1 1.5-1.3.6-.3 1.3-.4 2.1-.4 1.3 0 2.3.3 3 1 .7.6 1 1.5 1 2.6v5.6h-1.8v-1.1h-.1a3 3 0 0 1-1.1 1c-.5.2-1 .4-1.6.4Zm.3-1.6a2.4 2.4 0 0 0 2.1-1.2c.3-.4.4-.8.4-1.3l-1-.3-1-.2c-.8 0-1.4.2-1.7.5-.3.2-.5.6-.5 1 0 .5.2.8.5 1 .3.3.7.5 1.2.5Zm6-7.6h4.4c.6 0 1 0 1.4.3.5.2.8.4 1 .8.3.4.4.8.4 1.2 0 .4-.1.9-.3 1.2-.2.3-.5.6-.8.7v.1c.4.2.8.5 1 .8.3.4.4.8.4 1.2 0 .5-.1 1-.4 1.4-.3.4-.6.7-1 .9a3 3 0 0 1-1.4.3h-4.7v-9Zm4.2 3.6c.3 0 .6-.1.8-.3.2-.2.3-.4.3-.7a1 1 0 0 0-.3-.7 1 1 0 0 0-.8-.4h-2.3v2h2.3Zm.3 3.7c.3 0 .6-.1.8-.3.2-.3.4-.5.4-.9a1 1 0 0 0-.4-.7 1 1 0 0 0-.8-.4h-2.6V63h2.6Zm7 1.9c-.7 0-1.2-.2-1.7-.4-.5-.3-1-.6-1.2-1a3 3 0 0 1-.4-1.7c0-.9.3-1.6 1-2.1.7-.6 1.6-.8 2.7-.8a6.3 6.3 0 0 1 2.4.4V59c0-.6-.2-1-.6-1.4a2.9 2.9 0 0 0-3.8.6l-1.4-1c.4-.5.9-1 1.5-1.3.7-.3 1.4-.4 2.1-.4 1.3 0 2.3.3 3 1 .7.6 1 1.5 1 2.6v5.6H171v-1.1h-.1a3 3 0 0 1-1 1c-.6.2-1.1.4-1.7.4Zm.3-1.6a2.4 2.4 0 0 0 2.2-1.2c.2-.4.3-.8.3-1.3a4.4 4.4 0 0 0-2-.5c-.8 0-1.3.2-1.7.5-.3.2-.5.6-.5 1 0 .5.2.8.5 1 .3.3.7.5 1.2.5Zm8.7 1.6c-.6 0-1.2-.2-1.7-.4a4 4 0 0 1-1.2-1 3 3 0 0 1-.4-1.7c0-.9.3-1.6 1-2.1.7-.6 1.6-.8 2.7-.8a6.4 6.4 0 0 1 2.4.4V59c0-.6-.2-1-.6-1.4a2.9 2.9 0 0 0-3.8.6l-1.4-1c.4-.5.9-1 1.5-1.3.7-.3 1.4-.4 2.1-.4 1.3 0 2.3.3 3 1 .7.6 1 1.5 1 2.6v5.6H180v-1.1h-.1a3 3 0 0 1-1 1c-.5.2-1 .4-1.7.4Zm.4-1.6a2.4 2.4 0 0 0 2-1.2c.3-.4.4-.8.4-1.3l-1-.3-1-.2c-.8 0-1.3.2-1.7.5-.3.2-.5.6-.5 1 0 .5.2.8.5 1 .3.3.7.5 1.3.5Zm5.8-7.6h1.9v1.1a3 3 0 0 1 1.2-1 3 3 0 0 1 1.7-.4 4 4 0 0 1 2.2.6c.6.4 1.2 1 1.5 1.7.4.7.6 1.5.6 2.4a5 5 0 0 1-.6 2.5c-.3.7-.9 1.2-1.5 1.7a4 4 0 0 1-4 .1 3 3 0 0 1-1-1h-.1v5h-1.9V55.7Zm4.5 7.4c.5 0 1-.1 1.3-.4.4-.2.8-.6 1-1 .3-.5.4-1 .4-1.6 0-.6-.1-1-.4-1.5a2 2 0 0 0-1-1 2.5 2.5 0 0 0-2.6 0c-.4.2-.7.5-1 1a3 3 0 0 0-.3 1.5c0 .6 0 1.1.3 1.6.3.4.6.8 1 1 .4.3.9.4 1.3.4Zm8.7 1.8c-.7 0-1.2-.2-1.7-.4-.5-.3-1-.6-1.2-1a3 3 0 0 1-.4-1.7c0-.9.3-1.6 1-2.1.7-.6 1.6-.8 2.6-.8a6.4 6.4 0 0 1 2.5.4V59c0-.6-.2-1-.6-1.4a3 3 0 0 0-1.6-.5 2.9 2.9 0 0 0-2.3 1.1l-1.3-1c.4-.5.9-1 1.5-1.3.6-.3 1.3-.4 2.1-.4 1.3 0 2.3.3 3 1 .7.6 1 1.5 1 2.6v5.6h-1.8v-1.1h-.1a3 3 0 0 1-1.1 1c-.5.2-1 .4-1.6.4Zm.3-1.6A2.4 2.4 0 0 0 199 62c.3-.4.4-.8.4-1.3l-1-.3-1-.2c-.8 0-1.4.2-1.7.5-.3.2-.5.6-.5 1 0 .5.2.8.5 1 .3.3.7.5 1.2.5Zm6-7.6h2V60l-.2 1.7h.1l4.2-6h2v8.9h-2v-4.4l.1-1.7h-.1l-4.2 6h-2v-8.8Zm4-1.7c-.4 0-.8 0-1.1-.3-.4-.2-.7-.4-.9-.8-.2-.3-.3-.7-.3-1.2h1.4c0 .3.1.5.3.7.1.2.3.3.6.3s.5-.1.6-.3c.2-.2.3-.4.3-.7h1.4c0 .5-.1.9-.3 1.2a2.3 2.3 0 0 1-2 1.1Zm7 4.2c-.4 0-.7-.1-1-.4-.2-.3-.3-.6-.3-1 0-.3 0-.6.3-1 .3-.2.6-.3 1-.3s.7.1 1 .4c.2.3.4.6.4 1a1.3 1.3 0 0 1-1.4 1.3Zm0 6.5c-.4 0-.7-.1-1-.4-.2-.3-.3-.6-.3-1 0-.3 0-.6.3-.9.3-.3.6-.4 1-.4s.7.1 1 .4c.2.3.4.6.4 1a1.3 1.3 0 0 1-1.4 1.3Z" fill="#fff"/>
  </g>
  <defs>
    <clipPath id="a">
      <path fill="#fff" transform="matrix(1 0 0 -1 0 80)" d="M0 0h270v80H0z"/>
    </clipPath>
  </defs>
</svg>
