<svg id="artwork" xmlns="http://www.w3.org/2000/svg" version="1.1" viewBox="0 0 239 70.9">
  <defs>
    <style>
      .st5{fill:#fff}
    </style>
  </defs>
  <rect width="239" height="70.8" rx="8.8" ry="8.8"/>
  <path class="st5" d="M120.6 38.5c-4.1 0-7.5 3.2-7.5 7.6s3.4 7.5 7.5 7.5 7.6-3.2 7.6-7.6-3.4-7.5-7.6-7.5Zm0 12.1c-2.3 0-4.2-1.9-4.2-4.6s2-4.5 4.2-4.5 4.3 1.8 4.3 4.5-2 4.6-4.3 4.6Zm-16.5-12c-4.1 0-7.5 3.1-7.5 7.4s3.4 7.6 7.5 7.6 7.6-3.2 7.6-7.6-3.4-7.5-7.6-7.5Zm0 12c-2.3 0-4.2-1.9-4.2-4.6s2-4.5 4.2-4.5 4.3 1.8 4.3 4.5-2 4.6-4.3 4.6Zm-19.6-9.8V44h7.7a6.7 6.7 0 0 1-1.8 4 7.8 7.8 0 0 1-5.9 2.4 8.4 8.4 0 0 1-8.4-8.5 8.4 8.4 0 0 1 14.2-6.2l2.2-2.3a11.1 11.1 0 0 0-8-3.2c-6.4 0-11.8 5.3-11.8 11.7S78 53.6 84.5 53.6c3.5 0 6.1-1.1 8.2-3.3 2-2 2.7-5 2.7-7.4l-.1-2H84.5Zm80.2 2.5c-.6-1.6-2.5-4.8-6.4-4.8s-7.1 3-7.1 7.6c0 4.2 3.2 7.5 7.4 7.5 3.5 0 5.5-2.1 6.3-3.4l-2.6-1.7c-.8 1.3-2 2.1-3.7 2.1s-2.8-.8-3.6-2.3l10-4.1-.3-.9Zm-10.3 2.5c0-2.9 2.3-4.3 4-4.3 1.3 0 2.4.6 2.8 1.5l-6.8 2.8Zm-8.1 7.3h3.3V31h-3.3v22.1Zm-5.5-12.9a5.2 5.2 0 0 0-4-1.7c-3.8 0-7.2 3.3-7.2 7.6s3.4 7.5 7.2 7.5a5 5 0 0 0 4-1.7v1c0 3-1.5 4.5-4 4.5-2 0-3.2-1.5-3.8-2.7l-2.9 1.2c.9 2 3 4.5 6.7 4.5 3.9 0 7.2-2.3 7.2-7.9V39h-3.2v1.2ZM137 50.6c-2.2 0-4.2-1.9-4.2-4.5s2-4.6 4.2-4.6 4 2 4 4.6-1.7 4.5-4 4.5ZM180.2 31h-7.9v22.1h3.3v-8.4h4.6c3.7 0 7.3-2.6 7.3-6.8s-3.6-6.9-7.3-6.9Zm0 10.7h-4.6V34h4.7a3.8 3.8 0 1 1 0 7.6Zm20.5-3.2c-2.4 0-4.9 1-5.9 3.4l3 1.2c.6-1.2 1.8-1.6 3-1.6 1.7 0 3.4 1 3.4 2.8v.3c-.6-.4-1.8-.9-3.4-.9-3.2 0-6.4 1.7-6.4 5 0 3 2.6 4.8 5.5 4.8 2.2 0 3.5-1 4.2-2.1h.1V53h3.2v-8.5c0-4-3-6.1-6.7-6.1Zm-.4 12.1c-1 0-2.6-.5-2.6-1.9 0-1.7 1.9-2.3 3.5-2.3 1.5 0 2.2.3 3 .7a4 4 0 0 1-3.9 3.5ZM219 39l-3.8 9.6-4-9.6h-3.6l6 13.4-3.4 7.4h3.4l9.1-20.8H219Zm-29.7 14h3.3V31h-3.3v22.1Z"/>
  <path d="m36.7 34.4-18.9 20a5 5 0 0 0 7.5 3l21.3-12.2-10-10.8Z" style="fill:#ea4335"/>
  <path d="m55.7 31-9.1-5.3-10.3 9.2 10.3 10.3 9.1-5.2c1.6-1 2.7-2.6 2.7-4.5s-1-3.6-2.6-4.5Z" style="fill:#fbbc04"/>
  <path d="m17.8 16.5-.2 1.3V53c0 .5 0 1 .2 1.3L37.3 35 17.8 16.5Z" style="fill:#4285f4"/>
  <path d="m36.8 35.4 9.8-9.7-21.2-12.3a5.1 5.1 0 0 0-7.6 3l19 19Z" style="fill:#34a853"/>
  <g style="isolation:isolate">
    <path class="st5" d="M79.8 14.7v8.6h-1.3v-5.1h-2.2a3 3 0 0 0-1.5.3c-.4.3-.6.6-.6 1.2 0 .5.2 1 .5 1.4.4.5.8 1 1.5 1.6l-1 .8a12 12 0 0 1-1.6-2c-.4-.6-.6-1.3-.6-2 0-.8.3-1.4.8-1.8s1.4-.6 2.3-.6h2.4v-2.4h-6.2v-1h9v1h-1.5Z"/>
    <path class="st5" d="M78.5 13.8a26.3 26.3 0 0 0-1-2.7l-.5-.5h-1.3l-.7.2-.3-1.1.7-.2h.8l1.2.1c.3.1.6.3.8.7l.7 1.3.8 2.1h-1.2Zm15.5.9h-1.6v8.6h-1.2v-3l.4.2a3 3 0 0 1-1.2.7 4.2 4.2 0 0 1-3 0 2.5 2.5 0 0 1-1.5-2.4c0-.9.3-1.6.9-2 .6-.5 1.3-.7 2.3-.7h.8l.7.2v1H89c-.6 0-1 0-1.4.3s-.6.7-.6 1.2.2.9.5 1.2.7.4 1.3.4c.5 0 1-.1 1.3-.4a3 3 0 0 0 1-.9v.8-5.2h-6v-1h8.7v1Z"/>
    <path class="st5" d="M96.4 14.7v8.6h-1.3v-8.6h-1.3v-1H98v1h-1.6Z"/>
    <path class="st5" d="M105.2 14.7v8.6H104v-3.8l.3.4a3 3 0 0 1-1 .6c-.4.2-.8.3-1.3.3-.6 0-1.1-.1-1.6-.3l-1-1c-.2-.5-.3-1.1-.3-1.8v-3h-1.2v-1h9v1h-1.6Zm-1.2 0h-3.7v3c0 .5 0 .9.2 1.2 0 .2.3.5.5.6l.9.2c.4 0 .9-.1 1.3-.4l1-.9-.3.8v-4.4Z"/>
    <path class="st5" d="m111 14.7.5-.2.2.8.1.9c0 .6-.1 1-.3 1.5s-.6.7-1 1a7 7 0 0 1-1.5.8v-.2l1 1 1.2 1.2 1.3 1.1-1 .8a43 43 0 0 1-3.5-3.8 4 4 0 0 1-.6-1l-.2-.7c0-.3.1-.4.3-.5l.6-.2c.2 0 .5 0 .8.3l.7.8-.7-.2c.5-.2 1-.5 1.2-.8.3-.4.5-.8.5-1.3 0-.3 0-.6-.2-.9l-.2-.6.6.2h-4.2v-1h6.6v1H111Z"/>
    <path class="st5" d="M122.7 14.7v8.6h-1.2v-8.6h-2v3.6l-.1.8-.2.6a2 2 0 0 1-1.1 1.1c-.4.2-.8.2-1.3.2l-1.2-.2c-.4-.2-.7-.4-.9-.7-.2-.2-.3-.5-.4-.9l-.2-1.4v-3H113v-1.1h11.4v1h-1.5Zm-6 5.2c.6 0 1-.1 1.2-.5l.2-.6v-4h-2.7v4l.3.6.4.4.7.1Zm4.6 4.1.5-.1h.4c.6 0 1 0 1.5.2l1.2.9c.4.4.8.9 1.2 1.6l-.9.6-1-1.4c-.4-.3-.6-.5-1-.6l-1-.2h-.4l-.3.1-.2-1.1Z"/>
    <path class="st5" d="M133.3 13.6v1.1h-1.6v8.6h-1.2v-3.4l.3.4-1 .7c-.4.2-1 .2-1.5.2-1 0-1.8-.3-2.4-.8-.6-.6-1-1.5-1.3-2.7.8-.1 1.4-.3 1.7-.6.4-.2.6-.5.6-1l-.3-.9-.7-.7.7.2H124v-1h9.2Zm-6.5 1.1.5-.3c.2.3.5.6.6 1l.2 1c0 .5-.1.9-.4 1.3s-.8.6-1.5.8c.2.6.4 1 .8 1.2s.7.4 1.3.4 1 0 1.4-.4c.4-.2.8-.5 1-.9l-.2.8v-4.8h-3.6Z"/>
    <path class="st5" d="M135.7 14.7v8.6h-1.2v-8.6H133v-1h4.2v1h-1.6Z"/>
    <path class="st5" d="M141.6 23.5a24.4 24.4 0 0 1-3.4-4.1c-.1-.3-.3-.5-.3-.8l-.1-.6c0-.3 0-.5.2-.6.1-.2.3-.2.6-.2s.5 0 .8.2l.7.8h-.7c.5-.2.8-.5 1-.9l.2-1.2a3.6 3.6 0 0 0-.4-1.6l.7.2H137v-1h6.5v1H141l.5-.2.3.8v1a3.1 3.1 0 0 1-.6 2l-.1.1c-.2.3-.4.5-.7.6a5 5 0 0 1-1 .5v-.2l.8 1 1 1.2 1.3 1.1-1 .9Zm1.7-4-1.4-.1-1.4-.5.5-1a5.8 5.8 0 0 0 4.7 0v1.2l-1.2.3-1.2.2Zm1.6 3.8v-8.6h-1.7v-1h4.6v1h-1.6v8.6H145Zm11.1.2a24.4 24.4 0 0 1-3.3-4.1c-.1-.3-.3-.5-.3-.8l-.1-.6c0-.3 0-.5.2-.6.1-.2.3-.2.6-.2s.5 0 .8.2l.7.8h-.7c.5-.2.8-.5 1-.9l.2-1.2a3.6 3.6 0 0 0-.4-1.6l.7.2h-3.8v-1h6.5v1h-2.6l.5-.2.3.8v1a3.1 3.1 0 0 1-.6 2l-.1.1c-.2.3-.4.5-.7.6l-1 .5v-.2l.8 1 1 1.2 1.3 1.1-1 .9Zm1.8-4-1.4-.1-1.4-.5.4-1a5.8 5.8 0 0 0 4.8 0v1.2l-1.2.3-1.2.2Zm1.6 3.8v-8.6h-1.7v-1h4.6v1h-1.6v8.6h-1.2Z"/>
    <path class="st5" d="M159.6 27.4a4.9 4.9 0 0 1-3.2-1.1c-.5-.3-1-.8-1.4-1.3l1-.8a5.4 5.4 0 0 0 2.3 2l1.2.1c.6 0 1 0 1.3-.3.2-.2.4-.5.4-.8 0-.3-.1-.6-.3-.8-.2-.2-.4-.2-.8-.2a2 2 0 0 0-.8.1l-.7.6-.7-.9a3 3 0 0 1 2.2-.9c.8 0 1.3.2 1.7.6s.6 1 .6 1.6c0 .7-.3 1.2-.7 1.6s-1.2.5-2 .5h-.1Zm6.9-12.7.5-.2.2.8.1.9c0 .6-.1 1-.4 1.5s-.5.7-1 1a7 7 0 0 1-1.4.8v-.2l1 1 1.2 1.2 1.3 1.1-1 .8a43 43 0 0 1-3.5-3.8c-.3-.3-.5-.7-.6-1l-.1-.7c0-.3 0-.4.2-.5l.6-.2c.2 0 .5 0 .8.3l.8.8-.8-.2c.6-.2 1-.5 1.3-.8.2-.4.4-.8.4-1.3l-.1-.9-.3-.6.7.2H162v-1h6.6v1h-2.2Z"/>
    <path class="st5" d="M166 27.4a4.8 4.8 0 0 1-3.3-1.1l-1.3-1.3.9-.8 1.2 1.2 1.1.7 1.3.2c.5 0 1 0 1.2-.3.3-.2.4-.5.4-.8 0-.3 0-.6-.2-.8-.2-.2-.5-.2-.9-.2a2 2 0 0 0-.8.1l-.7.6-.7-.9a3 3 0 0 1 2.3-.9c.7 0 1.2.2 1.6.6s.6 1 .6 1.6c0 .7-.2 1.2-.7 1.6-.5.4-1.2.5-2 .5Zm11.2-12.7h-1.5v8.6h-1.3v-3l.4.2c-.3.3-.7.6-1.1.7l-1.6.3c-.6 0-1-.1-1.5-.3s-.8-.5-1-1-.5-.8-.5-1.4c0-.9.3-1.6 1-2s1.3-.7 2.2-.7h.8l.7.2v1h-1.4c-.6 0-1 0-1.5.3s-.5.7-.5 1.2.1.9.4 1.2.7.4 1.3.4c.5 0 1-.1 1.4-.4a3 3 0 0 0 1-.9l-.1.8v-5.2h-6v-1h8.8v1Z"/>
    <path class="st5" d="M179.7 14.7v8.6h-1.3v-8.6H177v-1h4.3v1h-1.6Z"/>
    <path class="st5" d="M188.5 14.7v8.6h-1.3v-5.1h-2.1a3 3 0 0 0-1.6.3c-.3.3-.5.6-.5 1.2 0 .5.1 1 .4 1.4.4.5.8 1 1.5 1.6l-1 .8a12 12 0 0 1-1.6-2c-.4-.6-.6-1.3-.6-2 0-.8.3-1.4.8-1.8a4 4 0 0 1 2.3-.6h2.4v-2.4H181v-1h9v1h-1.5Zm17.5 0h-5v3.4l-.2-.1.8-.7 1.2-.2c.7 0 1.3.2 1.7.6s.6 1 .6 1.9a4.4 4.4 0 0 1-1.3 3l-1-.7.8-1c.2-.5.3-.9.3-1.4s0-.8-.3-1-.5-.4-1-.4c-.3 0-.6.2-.9.4-.3.2-.5.5-.7.9v-.6 4.5h-1.2V20l.2.4-.7.5-.8.4-1 .1c-.5 0-1 0-1.4-.3s-.8-.5-1-.9-.4-.9-.4-1.5c0-.8.2-1.4.8-2s1.4-.6 2.4-.6a4.3 4.3 0 0 1 1.3.1v1.1a4.6 4.6 0 0 0-1.3-.1c-.7 0-1.1.1-1.5.4s-.5.7-.5 1.2.2.9.5 1.1.7.4 1.2.4 1-.1 1.3-.4.8-.5 1-.9l-.1.8v-5H194v-1.2h12v1.1Z"/>
    <path class="st5" d="m210.2 14.7.5-.2.2.8v.9c0 .6 0 1-.3 1.5a3 3 0 0 1-1 1 7 7 0 0 1-1.4.8v-.2l1 1 1.2 1.2 1.2 1.1-.9.8a43 43 0 0 1-3.6-3.8 4 4 0 0 1-.5-1l-.2-.7c0-.3.1-.4.2-.5l.6-.2c.3 0 .6 0 .9.3l.7.8-.7-.2c.5-.2 1-.5 1.2-.8s.5-.8.5-1.3c0-.3 0-.6-.2-.9l-.2-.6.6.2h-4.2v-1h6.5v1h-2.1Z"/>
    <path class="st5" d="M214.8 14.7v8.6h-1.3v-8.6H212v-1h4.2v1h-1.6Z"/>
  </g>
</svg>
