<svg width="180" height="54" fill="none" xmlns="http://www.w3.org/2000/svg">
  <path d="M173.3 54H6.7A6.7 6.7 0 0 1 0 47.2V6.8C0 3 3 0 6.7 0h166.6a6.7 6.7 0 0 1 6.7 6.8v40.5c0 3.7-3 6.7-6.7 6.7Z" fill="#000"/>
  <path d="M27.6 26.2 13.4 41.5a3.8 3.8 0 0 0 5.7 2.3l16-9.3-7.5-8.3Z" fill="#EA4335"/>
  <path d="m42 23.6-7-4-7.7 7 7.8 7.9 6.9-4a3.9 3.9 0 0 0 2-3.5 4 4 0 0 0-2-3.4Z" fill="#FBBC04"/>
  <path d="M13.4 12.5a3.7 3.7 0 0 0-.1 1v27l.1 1 14.7-14.9-14.7-14Z" fill="#4285F4"/>
  <path d="m27.7 27 7.4-7.4-16-9.4a3.9 3.9 0 0 0-5.7 2.3L27.7 27Z" fill="#34A853"/>
  <path d="M131.5 26.7h2.2V12h-2.2v14.6Zm19.6-9.3-2.5 6.3-2.6-6.3h-2.4l3.9 8.8-2.2 4.9h2.2l6-13.8h-2.4ZM138.8 25c-.7 0-1.7-.3-1.7-1.2 0-1.2 1.2-1.6 2.3-1.6 1 0 1.4.2 2 .5a2.6 2.6 0 0 1-2.6 2.3Zm.2-8c-1.5 0-3.2.7-3.8 2.2l1.9.9c.4-.9 1.2-1.1 2-1.1 1.1 0 2.2.7 2.3 1.9v.1a4.8 4.8 0 0 0-2.3-.6c-2 0-4.2 1.2-4.2 3.3 0 2 1.7 3.2 3.6 3.2a3 3 0 0 0 2.8-1.4v1.1h2.2V21c0-2.5-2-4-4.5-4Zm-13.4 2.1h-3.1v-5h3.1a2.5 2.5 0 0 1 2.6 2.5c0 1.1-1 2.5-2.6 2.5Zm0-7h-5.3v14.6h2.2V21h3c2.5 0 4.8-1.7 4.8-4.5S128 12 125.5 12ZM97 25c-1.5 0-2.7-1.3-2.7-3s1.2-3 2.7-3c1.5 0 2.7 1.3 2.7 3s-1.2 3-2.7 3Zm2.5-6.8a3.4 3.4 0 0 0-2.7-1.2 5 5 0 0 0-4.7 5 4.9 4.9 0 0 0 4.7 5c1.2 0 2.2-.6 2.6-1.2h.1v.7c0 2-1 3-2.6 3a2.7 2.7 0 0 1-2.5-1.8l-2 .8c.6 1.3 2 3 4.5 3s4.7-1.6 4.7-5.3v-8.9h-2v.8Zm3.6 8.4h2.2V12.1h-2.2v14.6Zm5.4-4.8a2.7 2.7 0 0 1 2.6-2.9c.8 0 1.6.5 1.8 1.1l-4.4 1.8Zm6.7-1.6c-.4-1.1-1.6-3.2-4.2-3.2s-4.7 2-4.7 5c0 2.8 2.1 5 5 5a5 5 0 0 0 4-2.2l-1.6-1.2a2.8 2.8 0 0 1-2.5 1.4c-1 0-1.9-.5-2.4-1.5l6.7-2.7-.3-.6Zm-52.8-1.6v2h5a4.4 4.4 0 0 1-1 2.7 5.2 5.2 0 0 1-4 1.5 5.5 5.5 0 0 1-5.5-5.6 5.5 5.5 0 0 1 9.3-4l1.5-1.5a7.3 7.3 0 0 0-5.3-2.1 7.8 7.8 0 0 0-7.8 7.7 7.8 7.8 0 0 0 7.8 7.7 7 7 0 0 0 5.4-2.2 7 7 0 0 0 1.8-5v-1.2h-7.2Zm13 6.4c-1.6 0-2.9-1.2-2.9-3s1.3-3 2.8-3c1.5 0 2.8 1.2 2.8 3s-1.3 3-2.8 3Zm0-8a4.9 4.9 0 0 0-5 5 4.9 4.9 0 0 0 5 5 4.9 4.9 0 0 0 5-5 4.9 4.9 0 0 0-5-5Zm10.8 8c-1.5 0-2.8-1.2-2.8-3s1.3-3 2.8-3c1.5 0 2.8 1.2 2.8 3s-1.3 3-2.8 3Zm0-8a4.9 4.9 0 0 0-5 5 4.9 4.9 0 0 0 5 5 4.9 4.9 0 0 0 5-5 4.9 4.9 0 0 0-5-5ZM62.7 38.7v1h-1.4v7.7H60v-2.3a3.6 3.6 0 0 1-2.1.7 3 3 0 0 1-1.4-.3 2.2 2.2 0 0 1-1.2-2c0-.6 0-1 .3-1.4.3-.4.6-.7 1-.9.5-.2 1-.3 1.6-.3a7.8 7.8 0 0 1 1.4.2l-.1 1-1.3-.1c-.6 0-1 0-1.3.3a1.3 1.3 0 0 0-.5 1.1c0 .3 0 .6.2.8.1.2.3.3.6.4l.7.2c.8 0 1.5-.3 2.1-1v-4h-5.4v-1h8Z" fill="#fff"/>
  <path d="M62.7 38.7h-.1v.9H61v7.7h-.8v-2.4l-.2.1a3.4 3.4 0 0 1-2.1.6 3 3 0 0 1-1.3-.2 2.1 2.1 0 0 1-1.2-2 2.1 2.1 0 0 1 1.3-2 3.9 3.9 0 0 1 1.5-.3 7.6 7.6 0 0 1 1.3.1v-.1l-.1 1h.1V42l-1.3-.2c-.6 0-1 .2-1.4.4a1.4 1.4 0 0 0-.5 1.2c0 .3 0 .6.2.9.1.2.3.4.6.5a2 2 0 0 0 .8.1 3 3 0 0 0 2.2-1v-4.3H55v-.7h7.8v-.3h-8.1v1.3H60v4h.1v-.2c-.7.7-1.3 1-2 1-.3 0-.6 0-.8-.2a1.1 1.1 0 0 1-.5-.4 1.3 1.3 0 0 1-.2-.7c0-.4.2-.7.5-1a2 2 0 0 1 1.2-.3l1.3.1h.1l.1-1.2a7.9 7.9 0 0 0-1.5-.2 4 4 0 0 0-1.6.3 2.4 2.4 0 0 0-1.5 2.3c0 .5.2 1 .4 1.3.2.4.6.7 1 1l1.4.2a4 4 0 0 0 2.2-.7H60v2.4h1.4v-7.7h1.4v-1.3.1Z" fill="#fff"/>
  <path d="M68.5 39.7h-1.4a3.3 3.3 0 0 1 0 2.3 2.5 2.5 0 0 1-.5.8 3.2 3.2 0 0 1-.7.6l-1 .5a24.8 24.8 0 0 0 3.2 3l-.7.7a28.3 28.3 0 0 1-3.4-3.3 7 7 0 0 1-.6-.8 2 2 0 0 1-.2-.5 1.3 1.3 0 0 1 0-.3.7.7 0 0 1 .4-.7h.5l.6.1.5.4c.3-.1.6-.4.8-.7l.2-1a3.3 3.3 0 0 0-.2-1h-3.4v-1h6v1Z" fill="#fff"/>
  <path d="M68.5 39.7v-.1H67v.2a3.2 3.2 0 0 1 0 2.2 2.4 2.4 0 0 1-.4.7l-.8.6c-.2.2-.6.3-.9.4l-.2.1.2.2a18.7 18.7 0 0 0 3.2 3v-.2l-.8.7.1.1v-.1a28.3 28.3 0 0 1-3.3-3.3 6.8 6.8 0 0 1-.5-.8l-.2-.4a1.2 1.2 0 0 1 0-.3v-.3l.2-.2a1 1 0 0 1 1 0l.5.4v.1h.1c.4-.2.7-.5.9-.8a2 2 0 0 0 .2-1 3.4 3.4 0 0 0-.2-1.2v-.1h-3.3v-.8h5.6v1h.3v-1.2h-6.2v1.2H66h-.1a3.2 3.2 0 0 1 .2 1c0 .4-.1.7-.3 1l-.7.6v.1h.2l-.5-.5a1.3 1.3 0 0 0-.7-.2l-.6.1a.8.8 0 0 0-.3.4.9.9 0 0 0-.2.4l.1.4h.1l.1.5.6.7a27 27 0 0 0 3.4 3.4h.1l.8-.8h.1v-.2a30.2 30.2 0 0 1-3.2-3l-.1.2v.1l1-.5.8-.6a2.6 2.6 0 0 0 .7-1.9c0-.5-.1-1-.3-1.3v.1h1.5-.1Zm9 3.1h-1.4a6.9 6.9 0 0 0-1.4.1c-.3 0-.5.2-.7.4-.2.2-.2.5-.2.8 0 .3 0 .6.2.9l.6.8 1.2 1-.8.8a14 14 0 0 1-1.4-1.4l-.7-1a2.6 2.6 0 0 1-.3-1.2c0-.3 0-.6.2-.8.1-.3.3-.6.6-.8l1-.4 1.4-.2h1.8v-2H72v-1h8.2v1h-1.5v7.6h-1.1v-4.6Z" fill="#fff"/>
  <path d="M77.6 42.8v-.1H76l-1.4.1c-.3 0-.6.2-.8.4-.2.2-.3.5-.3.9a2 2 0 0 0 .2 1l.7.8 1.2 1v-.1l-.8.7.1.1h.1a13.9 13.9 0 0 1-1.4-1.5l-.7-1c-.2-.3-.2-.7-.2-1a2 2 0 0 1 .7-1.6c.2-.2.5-.3.9-.4a6.1 6.1 0 0 1 1.4-.1h2v-2.4H72v-.7h8v.7h-1.5v7.7h-.9v-4.6h-.1v.1h-.1v4.8h1.4v-7.7h1.4v-1.3h-8.4v1.2h5.6v2h-3.2l-1 .5a2.1 2.1 0 0 0-.8 1.7c0 .4 0 .8.3 1.2.1.4.4.8.7 1.1l1.4 1.4h.1l1-.8-.1-.1a12.3 12.3 0 0 1-1.2-1 3.8 3.8 0 0 1-.6-.9l-.2-.8c0-.3 0-.6.2-.7.2-.2.4-.3.7-.3L76 43h1.5v-.2Z" fill="#fff"/>
  <path d="m77.6 38.8-.6-1.7-.6-1a1.3 1.3 0 0 0-.9-.2 2.6 2.6 0 0 0-1 .2l-.3-1a3.3 3.3 0 0 1 1.3-.2c.4 0 .7 0 1 .2.3.1.6.3.8.6.3.3.5.7.7 1.2l.6 2h-1Z" fill="#fff"/>
  <path d="M77.6 38.8h.1l-.6-1.8a2.5 2.5 0 0 0-.6-1l-1-.2a2.7 2.7 0 0 0-1 .2v.1h.2l-.3-1h-.2v.1a3.3 3.3 0 0 1 1.3-.2 2.1 2.1 0 0 1 1.7.8c.3.3.5.7.7 1.2l.6 1.9h.2v-.2h-1.1v.3h1.2v-.2l-.7-2a5.1 5.1 0 0 0-.7-1.2c-.2-.3-.5-.5-.8-.6a2.6 2.6 0 0 0-1.1-.3 4.3 4.3 0 0 0-1.3.3H74l.4 1.3h.1a2.5 2.5 0 0 1 1-.3c.2 0 .5.1.7.3l.6.8.6 1.8Zm15.4 0a8.9 8.9 0 0 0-2.5-2.2 5.5 5.5 0 0 0-3.7-.6c-.3 0-.5.2-.7.3a1.4 1.4 0 0 0-.6 1.1v.8a3 3 0 0 0 .4.5h1.5v1H86v7.7h-1.2v-7.7h-1.2v-1h1.1a3 3 0 0 1-.3-.6 2.6 2.6 0 0 1 .2-1.8c.1-.3.3-.6.6-.8a3 3 0 0 1 1-.5l1.3-.1a7.2 7.2 0 0 1 5.4 2.3l1.3 1.6H93Z" fill="#fff"/>
  <path d="M93 38.8h.1a9 9 0 0 0-2.5-2.3 5.7 5.7 0 0 0-3.8-.6c-.3 0-.6.2-.8.3l-.5.5a1.5 1.5 0 0 0-.2.8c0 .2 0 .5.2.7l.3.6h1.5v.8h-1.5v7.7H85v-7.7h-1.3v-.7H85v-.2a2.5 2.5 0 0 1-.2-2.4l.6-.6c.2-.3.5-.4 1-.5l1.2-.2a7.1 7.1 0 0 1 5.3 2.3L94 39v-.2h-1v.3h1.4v-.2a10.6 10.6 0 0 0-3-3 7.4 7.4 0 0 0-4-1l-1.3.1-1 .5a2.4 2.4 0 0 0-.9 1.9 2.8 2.8 0 0 0 .4 1.5h.1v-.2h-1.2v1.2h1.2v7.8h1.4V40h1.5v-1.3h-1.7v.1h.1a2.4 2.4 0 0 1-.3-.6v-.6a1.2 1.2 0 0 1 .5-1l-.1-.2v.1l.7-.3a5.4 5.4 0 0 1 3.6.6A8.7 8.7 0 0 1 93 39h.1Z" fill="#fff"/>
  <path d="M95.6 43v-3.3h-3.1V43h3Zm2.5-3.3h-1.4v7.7h-1.1V44h-3.1v.5a1 1 0 0 1-.2.7.6.6 0 0 1-.5.2c-.2 0-.5 0-.7-.3a2.6 2.6 0 0 1-.7-.7 1.5 1.5 0 0 1-.3-.8c0-.2.1-.3.3-.4l.6-.2h.4v-3.2h-1.8v-1h8.6v1Z" fill="#fff"/>
  <path d="M95.6 43h.1v-3.4h-3.4V43h3.4v-.2h-3.1v-3h2.8v3h.2Zm2.5-3.3v-.1h-1.5v7.7h-.9v-3.5h-3.4v.6l-.1.6a.5.5 0 0 1-.4.2c-.2 0-.4 0-.7-.3l-.6-.6a1.4 1.4 0 0 1-.2-.7l.1-.4.6-.1h.5v-3.5h-1.8v-.7H98v.8h.3v-1.1h-8.9v1.3h1.8v3h-.9a.7.7 0 0 0-.3.7c0 .2 0 .5.3.8l.7.8c.3.2.5.3.8.3s.4-.1.6-.3l.2-.7V44h2.8v3.5h1.4v-7.7h1.5v-.2H98Z" fill="#fff"/>
  <path d="m102.6 44.6 1 .7c.2.2.5.2.8.2l.7-.1c.3-.1.4-.3.6-.6l.2-.9c0-.4 0-.7-.2-1a1.1 1.1 0 0 0-.5-.5 1.4 1.4 0 0 0-1.5.2c-.2.2-.5.6-.7 1.2l-.4.8Zm-.6-1.3-.9-.8a1.8 1.8 0 0 0-.8-.2c-.3 0-.5 0-.8.2-.2 0-.4.3-.5.5a2 2 0 0 0-.2 1c0 .3 0 .6.2.9a1.1 1.1 0 0 0 1 .6c.4 0 .7 0 1-.3l.7-1.1.3-.9Zm3.3-2c.5.3 1 .6 1.3 1 .3.5.4 1 .4 1.6 0 .5-.1 1-.3 1.4a2 2 0 0 1-.9.9c-.3.2-.8.3-1.3.3a3 3 0 0 1-1.6-.5 6 6 0 0 1-.8-.6 2.6 2.6 0 0 1-.8.9c-.4.2-.8.2-1.3.2a2.2 2.2 0 0 1-2-1.2 3 3 0 0 1-.4-1.4c0-.5.1-1 .4-1.4.2-.4.5-.7.8-.9.4-.2.8-.3 1.3-.3a3 3 0 0 1 1.6.5l.8.6.8-.8.9-.3v-1.6H97v-1h10.9v1h-2.6v1.7Z" fill="#fff"/>
  <path d="M102.6 44.6h-.1c.3.4.7.7 1 .8a2 2 0 0 0 .9.3c.3 0 .6 0 .8-.2l.6-.6.2-1c0-.4 0-.7-.2-1l-.5-.6a1.5 1.5 0 0 0-1.7.2c-.3.3-.5.7-.7 1.2l-.5 1h.1l.1-.1h.1l.4-.8c.2-.5.5-.9.7-1a1.2 1.2 0 0 1 1.4-.2l.4.4.1.9-.1.9a1 1 0 0 1-.5.5l-.7.1a1.8 1.8 0 0 1-.8-.2 3.7 3.7 0 0 1-1-.7Zm-.6-1.3.1-.1a4.2 4.2 0 0 0-1-.8 2 2 0 0 0-.9-.3l-.7.2-.6.6c-.2.3-.3.6-.3 1l.2 1a1.3 1.3 0 0 0 1.3.8c.3 0 .7-.2 1-.4l.7-1.2.4-.9h-.2l-.4.8c-.3.5-.5 1-.8 1.1a1.2 1.2 0 0 1-1.3.2 1 1 0 0 1-.4-.5 2 2 0 0 1-.2-.9c0-.3 0-.6.2-.8.1-.3.3-.4.5-.5a1.6 1.6 0 0 1 1.5 0l.9.7Zm3.3-2v.2c.5.2.9.5 1.1.9a2.7 2.7 0 0 1 .2 2.8c-.2.4-.5.7-.8.9a2.3 2.3 0 0 1-1.3.3 2.8 2.8 0 0 1-1.6-.5 5.8 5.8 0 0 1-.7-.6h-.1l-.9.9-1.2.2a2 2 0 0 1-1.9-1.1 2.8 2.8 0 0 1-.3-1.4c0-.5 0-1 .3-1.3.2-.4.5-.7.8-.9l1.2-.3a2.9 2.9 0 0 1 1.6.5l.7.6h.2c.2-.4.5-.6.7-.8a2 2 0 0 1 1-.3v-1.8h-7.2v-.7h10.6v.7h-2.5v1.9l.1-.1h.1v-1.5h2.6v-1.3H96.9v1.3h7.2v1.4h.1v-.1c-.4 0-.7.1-1 .3a2.9 2.9 0 0 0-.8.8l.1.1.1-.1a6.3 6.3 0 0 0-.8-.6 3.1 3.1 0 0 0-1.7-.5c-.5 0-1 0-1.3.3-.4.2-.7.6-1 1a3 3 0 0 0-.3 1.4 3 3 0 0 0 .4 1.5 2.3 2.3 0 0 0 2.1 1.3c.5 0 1-.1 1.3-.3.4-.2.7-.5 1-.9h-.2l.7.7a3.2 3.2 0 0 0 1.7.5c.6 0 1-.1 1.4-.4.4-.2.7-.5 1-1l.2-1.4a3 3 0 0 0-.4-1.7c-.3-.4-.8-.8-1.3-1v.2Z" fill="#fff"/>
  <path d="M115.8 38.7v1h-1.5v7.7h-1.1v-2.3a3.6 3.6 0 0 1-2.2.7 3 3 0 0 1-1.3-.3 2.2 2.2 0 0 1-1.3-2 2.2 2.2 0 0 1 1.4-2.3c.4-.2 1-.3 1.5-.3a7.8 7.8 0 0 1 1.4.2v1l-1.3-.1c-.6 0-1 0-1.4.3a1.3 1.3 0 0 0-.5 1.1l.2.8.6.5.7.1a3 3 0 0 0 2.2-1v-4h-5.4v-1h8Z" fill="#fff"/>
  <path d="M115.8 38.7h-.2v.9h-1.4v7.7h-.9v-2.4l-.2.1a3.4 3.4 0 0 1-2 .6 3 3 0 0 1-1.4-.2 2 2 0 0 1-1.2-2c0-.5.2-.9.4-1.3a2 2 0 0 1 1-.8l1.4-.2a7.6 7.6 0 0 1 1.4.1v-.1h-.1v1-.1a7 7 0 0 0-1.2-.2c-.6 0-1.1.2-1.5.4-.3.3-.5.7-.5 1.2a1.4 1.4 0 0 0 .8 1.4l.9.1a3 3 0 0 0 2.2-1v-4.3H108v-.7h7.9v-.3h-8.2v1.3h5.4v4h.2l-.1-.2c-.6.7-1.3 1-2 1-.3 0-.5 0-.7-.2a1.1 1.1 0 0 1-.5-.4 1.3 1.3 0 0 1-.2-.7c0-.4.1-.7.4-1a2 2 0 0 1 1.3-.3l1.2.1h.2V41a7.9 7.9 0 0 0-1.5-.2 4 4 0 0 0-1.6.3 2 2 0 0 0-1 1c-.3.3-.4.8-.4 1.3a2.4 2.4 0 0 0 1.3 2.2c.4.2.9.3 1.4.3a4 4 0 0 0 2.3-.7h-.4v2.4h1.4v-7.7h1.5v-1.3h-.1v.1Z" fill="#fff"/>
  <path d="M119.5 39.7H118v7.7h-1v-7.7h-1.3v-1h3.9v1Z" fill="#fff"/>
  <path d="M119.5 39.7v-.1h-1.6v7.7h-.9v-7.7h-1.2v-.8h3.6v1h.2v-1.2h-4v1.2h1.2v7.8h1.4v-7.7h1.4v-.2h-.1Z" fill="#fff"/>
</svg>
