<svg width="180" height="54" fill="none" xmlns="http://www.w3.org/2000/svg">
  <path d="M173.33 54H6.67A6.73 6.73 0 0 1 0 47.25V6.75C0 3.04 3 0 6.67 0h166.66A6.73 6.73 0 0 1 180 6.75v40.5c0 3.71-3 6.75-6.67 6.75Z" fill="#000"/>
  <path d="m27.63 26.22-14.2 15.26a3.84 3.84 0 0 0 5.65 2.35l.05-.03 15.97-9.33-7.48-8.25Z" fill="#EA4335"/>
  <path d="m41.98 23.63-.01-.02-6.9-4.05-7.77 7 7.8 7.9 6.86-4a3.89 3.89 0 0 0 2.02-3.43c0-1.47-.8-2.75-2-3.4Z" fill="#FBBC04"/>
  <path d="M13.43 12.52a3.7 3.7 0 0 0-.13 1v26.96c0 .35.04.68.13 1L28.1 26.62l-14.68-14.1Z" fill="#4285F4"/>
  <path d="m27.73 27 7.34-7.44-15.96-9.37a3.85 3.85 0 0 0-5.69 2.33L27.73 27Z" fill="#34A853"/>
  <path d="M131.52 26.67h2.17V12.1h-2.17v14.57Zm19.59-9.32-2.5 6.31h-.07l-2.59-6.31h-2.34l3.88 8.82-2.21 4.91h2.26l5.99-13.73h-2.42ZM138.77 25c-.7 0-1.7-.35-1.7-1.24 0-1.12 1.24-1.55 2.3-1.55.96 0 1.4.2 1.99.49a2.64 2.64 0 0 1-2.59 2.3Zm.27-7.98c-1.58 0-3.2.69-3.88 2.23l1.93.8c.4-.8 1.18-1.07 1.98-1.07 1.13 0 2.27.68 2.29 1.88v.15a4.8 4.8 0 0 0-2.27-.56c-2.08 0-4.2 1.14-4.2 3.28 0 1.95 1.7 3.2 3.62 3.2 1.46 0 2.27-.65 2.78-1.42h.07v1.12h2.1v-5.58c0-2.59-1.93-4.03-4.42-4.03Zm-13.44 2.09h-3.1v-5h3.1a2.52 2.52 0 0 1 2.55 2.5c0 1.13-.93 2.5-2.55 2.5Zm-.06-7.02h-5.21v14.57h2.17v-5.52h3.04c2.41 0 4.78-1.75 4.78-4.53 0-2.78-2.37-4.52-4.78-4.52ZM97.13 25c-1.5 0-2.76-1.25-2.76-2.98 0-1.75 1.25-3.02 2.76-3.02 1.48 0 2.64 1.27 2.64 3.02 0 1.73-1.16 2.98-2.64 2.98Zm2.5-6.85h-.08a3.43 3.43 0 0 0-2.61-1.1 4.93 4.93 0 0 0-4.75 4.97 4.9 4.9 0 0 0 4.75 4.94c1.18 0 2.12-.53 2.6-1.13h.08v.71c0 1.9-1.01 2.91-2.64 2.91a2.74 2.74 0 0 1-2.5-1.76l-1.9.79c.55 1.31 2 2.93 4.4 2.93 2.55 0 4.7-1.5 4.7-5.17v-8.9h-2.06v.81Zm3.56 8.5h2.18V12.1h-2.18v14.57Zm5.39-4.8a2.72 2.72 0 0 1 2.59-2.9c.86 0 1.6.44 1.84 1.06l-4.43 1.84Zm6.76-1.65c-.42-1.11-1.67-3.16-4.25-3.16-2.55 0-4.67 2.01-4.67 4.96 0 2.78 2.1 4.96 4.92 4.96a4.93 4.93 0 0 0 4.13-2.2l-1.69-1.13a2.83 2.83 0 0 1-2.44 1.37c-1.1 0-1.9-.5-2.4-1.5l6.62-2.74-.22-.56Zm-52.8-1.64v2.1h5.03a4.38 4.38 0 0 1-1.15 2.65 5.15 5.15 0 0 1-3.89 1.54c-3.1 0-5.52-2.5-5.52-5.6a5.52 5.52 0 0 1 9.32-4.08l1.48-1.49a7.34 7.34 0 0 0-5.28-2.12 7.8 7.8 0 0 0-7.8 7.7 7.8 7.8 0 0 0 7.8 7.7c2.3 0 4.02-.75 5.37-2.16a6.95 6.95 0 0 0 1.82-4.92c0-.49-.03-.94-.1-1.32h-7.09ZM75.44 25c-1.5 0-2.8-1.23-2.8-3 0-1.78 1.3-3 2.8-3 1.5 0 2.8 1.22 2.8 3 0 1.77-1.3 3-2.8 3Zm0-7.96A4.89 4.89 0 0 0 70.47 22a4.9 4.9 0 0 0 4.98 4.96A4.9 4.9 0 0 0 80.42 22a4.89 4.89 0 0 0-4.97-4.96ZM86.3 25c-1.5 0-2.8-1.23-2.8-3 0-1.78 1.3-3 2.8-3 1.5 0 2.8 1.22 2.8 3 0 1.77-1.3 3-2.8 3Zm0-7.96A4.89 4.89 0 0 0 81.32 22a4.9 4.9 0 0 0 4.98 4.96A4.9 4.9 0 0 0 91.28 22a4.89 4.89 0 0 0-4.98-4.96ZM62.71 38.72v1h-1.45v7.71h-1.12v-2.31a3.57 3.57 0 0 1-2.16.66 3 3 0 0 1-1.34-.29 2.23 2.23 0 0 1-1.27-2.07c0-.51.12-.96.36-1.34.25-.37.59-.66 1.03-.85.44-.2.95-.3 1.53-.3a7.82 7.82 0 0 1 1.4.15l-.09 1.02c-.52-.1-.94-.14-1.25-.14-.6 0-1.05.12-1.37.38a1.3 1.3 0 0 0-.48 1.08c0 .3.07.56.2.77.14.21.33.36.56.46.23.1.48.15.76.15.78 0 1.49-.33 2.12-1v-4.08h-5.42v-1h8Z" fill="#fff"/>
  <path d="M62.71 38.72h-.13v.87h-1.46v7.7h-.85v-2.43l-.21.15a3.44 3.44 0 0 1-2.08.64c-.48 0-.9-.1-1.28-.28a2.1 2.1 0 0 1-1.2-1.95 2.14 2.14 0 0 1 1.3-2.08 3.9 3.9 0 0 1 1.5-.27 7.59 7.59 0 0 1 1.35.14l.04-.13-.14-.01-.08 1.02h.13l.03-.12c-.53-.1-.95-.15-1.28-.15-.61 0-1.1.14-1.45.42a1.4 1.4 0 0 0-.53 1.18c0 .32.07.6.22.84.15.23.36.4.61.51a2 2 0 0 0 .82.16 3 3 0 0 0 2.21-1.04l.04-.04V39.6h-5.41v-.74h7.85v-.26H54.6v1.26H60v3.95h.14l-.1-.1c-.61.65-1.28.97-2.02.97-.26 0-.5-.05-.71-.14a1.11 1.11 0 0 1-.5-.41 1.26 1.26 0 0 1-.18-.7c0-.43.15-.74.44-.97a2 2 0 0 1 1.28-.36c.3 0 .72.04 1.23.14l.14.03.1-1.28-.1-.03a7.88 7.88 0 0 0-1.43-.15c-.6 0-1.12.1-1.58.3a2.4 2.4 0 0 0-1.47 2.32c0 .5.12.93.35 1.31.24.38.57.67.99.88.41.2.88.3 1.4.3a3.99 3.99 0 0 0 2.23-.68l-.07-.11H60v2.44h1.4v-7.7h1.45V38.6h-.14v.13Z" fill="#fff"/>
  <path d="M68.55 39.72H67.1a3.3 3.3 0 0 1 .05 2.32 2.5 2.5 0 0 1-.5.77 3.2 3.2 0 0 1-.75.6c-.3.17-.6.33-.94.47a24.8 24.8 0 0 0 3.18 2.97l-.75.75a28.34 28.34 0 0 1-3.4-3.33 6.91 6.91 0 0 1-.56-.77c-.1-.18-.17-.33-.2-.45a1.33 1.33 0 0 1-.06-.38.71.71 0 0 1 .39-.63c.13-.07.3-.1.5-.1.24 0 .45.05.63.16.17.1.33.25.47.44.36-.18.63-.42.8-.7.16-.27.24-.6.24-.97a3.3 3.3 0 0 0-.23-1.15h-3.35v-1h5.93v1Z" fill="#fff"/>
  <path d="M68.55 39.72v-.13H66.9l.08.18a3.17 3.17 0 0 1 .05 2.22 2.4 2.4 0 0 1-.47.73c-.2.22-.44.41-.72.58-.28.17-.6.32-.92.45l-.17.07.11.14c.39.46.86.95 1.41 1.47.56.52 1.16 1.03 1.8 1.53l.08-.11-.1-.1-.74.76.09.1.08-.11a28.31 28.31 0 0 1-3.37-3.32 6.85 6.85 0 0 1-.55-.75c-.1-.17-.17-.32-.2-.42a1.2 1.2 0 0 1-.04-.34l.07-.29.24-.22a1.07 1.07 0 0 1 1 .05c.16.1.3.23.43.41l.07.1.1-.06c.38-.2.66-.44.85-.74a2 2 0 0 0 .26-1.05 3.39 3.39 0 0 0-.24-1.2l-.04-.08h-3.3v-.74h5.67v.87h.27v-1.13h-6.2v1.26h3.48v-.13l-.12.06a3.16 3.16 0 0 1 .22 1.1c0 .35-.08.65-.23.9-.15.25-.4.47-.74.64l.06.12.1-.08c-.14-.2-.31-.36-.5-.48a1.3 1.3 0 0 0-.7-.18c-.21 0-.4.04-.57.13a.85.85 0 0 0-.34.33.86.86 0 0 0-.11.41c0 .15.02.29.06.42l.12-.04-.12.04c.03.13.11.29.22.48s.3.45.57.78a27.03 27.03 0 0 0 3.41 3.35l.1.08.84-.84.1-.1-.12-.1c-.63-.49-1.22-1-1.77-1.5-.56-.52-1.02-1-1.4-1.45l-.1.09.06.12c.34-.14.66-.3.95-.47.3-.18.56-.39.79-.63a2.65 2.65 0 0 0 .71-1.87c0-.53-.08-.98-.24-1.36l-.12.05v.13h1.59v-.13h-.14Zm9.03 3.12h-1.52a6.9 6.9 0 0 0-1.33.09c-.29.06-.53.18-.71.37-.18.19-.27.46-.27.8 0 .3.07.6.21.87.15.28.36.57.65.86.28.3.67.65 1.16 1.04l-.75.73a13.96 13.96 0 0 1-1.43-1.37c-.3-.35-.54-.7-.71-1.07a2.58 2.58 0 0 1-.26-1.12c0-.3.06-.6.19-.88.12-.28.32-.52.59-.73.27-.21.6-.36.97-.45.38-.1.86-.14 1.43-.14h1.78v-2.12h-5.6v-1h8.19v1H78.7v7.71h-1.13v-4.6Z" fill="#fff"/>
  <path d="M77.58 42.84v-.14h-1.52c-.6 0-1.04.03-1.35.1-.32.06-.58.2-.79.4-.2.23-.3.54-.3.9a2 2 0 0 0 .22.93c.15.3.38.6.67.9.3.3.69.65 1.18 1.04l.08-.1-.1-.1-.74.74.09.1.09-.1a13.88 13.88 0 0 1-1.42-1.37c-.3-.34-.53-.69-.7-1.04-.16-.34-.24-.7-.24-1.06a1.92 1.92 0 0 1 .73-1.51c.25-.2.56-.34.92-.42a6.1 6.1 0 0 1 1.4-.14h1.92V39.6h-5.6v-.74h7.91v.74h-1.45v7.7h-.86v-4.6h-.14v.14h-.13v4.72h1.4v-7.7h1.45v-1.27h-8.45v1.26h5.6v1.86H75.8c-.58 0-1.06.04-1.46.14-.4.1-.74.25-1.02.47a2.13 2.13 0 0 0-.83 1.72c0 .4.09.8.26 1.18.18.37.43.74.73 1.1.32.36.8.82 1.45 1.38l.1.08.94-.92-.12-.1a12.3 12.3 0 0 1-1.15-1.02 3.8 3.8 0 0 1-.62-.83c-.13-.26-.2-.53-.2-.8 0-.33.08-.56.24-.71.16-.17.37-.28.64-.34.28-.06.72-.09 1.3-.09h1.52v-.13Z" fill="#fff"/>
  <path d="M77.59 38.82c-.2-.76-.4-1.35-.59-1.75-.18-.41-.4-.7-.62-.89a1.3 1.3 0 0 0-.84-.27 2.6 2.6 0 0 0-.97.2l-.34-1.02a3.33 3.33 0 0 1 1.27-.21c.4 0 .75.07 1.04.2.3.14.56.35.8.64.24.3.47.7.68 1.2.21.51.42 1.14.63 1.9h-1.06Z" fill="#fff"/>
  <path d="m77.59 38.82.13-.03c-.2-.77-.4-1.36-.6-1.78a2.5 2.5 0 0 0-.66-.93c-.25-.2-.56-.3-.92-.3a2.68 2.68 0 0 0-1.02.2l.05.12.13-.04-.34-1.02-.13.05.05.12a3.3 3.3 0 0 1 1.22-.2 2.1 2.1 0 0 1 1.73.8c.23.28.46.67.67 1.17.2.5.42 1.12.62 1.88l.13-.04v-.13h-1.06v.27h1.23l-.04-.17c-.21-.77-.42-1.4-.64-1.92a5.1 5.1 0 0 0-.7-1.23c-.25-.3-.53-.54-.85-.68a2.6 2.6 0 0 0-1.09-.21 4.31 4.31 0 0 0-1.31.21l-.13.04.43 1.28.13-.05a2.47 2.47 0 0 1 .92-.18c.3 0 .55.08.76.24.2.16.4.43.58.83.19.4.38.98.58 1.74l.03.1h.1v-.14Zm15.41 0a8.9 8.9 0 0 0-2.5-2.2 5.5 5.5 0 0 0-3.7-.62c-.3.07-.53.17-.73.3a1.37 1.37 0 0 0-.6 1.15c0 .28.04.52.12.72a3 3 0 0 0 .3.55h1.54v1h-1.46v7.71h-1.13v-7.71H83.6v-1h1.12c-.12-.2-.2-.43-.27-.65a2.59 2.59 0 0 1 .12-1.77c.14-.3.35-.55.62-.76.27-.21.6-.37 1-.49.38-.11.81-.17 1.3-.17a7.23 7.23 0 0 1 5.39 2.33c.47.48.91 1.02 1.3 1.61H93Z" fill="#fff"/>
  <path d="m93 38.82.1-.08a9.03 9.03 0 0 0-2.54-2.23 5.65 5.65 0 0 0-3.8-.64c-.3.07-.55.18-.76.32-.21.15-.38.33-.5.54a1.5 1.5 0 0 0-.17.73c0 .28.05.54.14.77.09.21.2.4.3.57l.05.05h1.47v.74h-1.45v7.7h-.86v-7.7h-1.25v-.74h1.21l-.1-.2a2.47 2.47 0 0 1-.15-2.3c.13-.27.33-.5.59-.7.25-.2.57-.36.94-.47.37-.11.8-.17 1.26-.17a7.1 7.1 0 0 1 5.3 2.3c.47.47.9 1 1.3 1.59l.1-.08v-.13H93v.27h1.45l-.14-.21a10.62 10.62 0 0 0-2.9-2.9 7.42 7.42 0 0 0-3.92-1.1c-.49 0-.93.06-1.34.17-.4.12-.74.3-1.03.51a2.36 2.36 0 0 0-.9 1.87 2.78 2.78 0 0 0 .4 1.49l.1-.07v-.13h-1.25v1.26h1.25v7.71h1.4v-7.7h1.45v-1.27H85.9v.13l.1-.07a2.4 2.4 0 0 1-.27-.53c-.08-.18-.12-.4-.12-.66a1.23 1.23 0 0 1 .55-1.05l-.08-.1.08.1c.18-.12.4-.21.67-.28a5.39 5.39 0 0 1 3.6.62 8.7 8.7 0 0 1 2.47 2.16l.04.05H93v-.14Z" fill="#fff"/>
  <path d="M95.57 42.94v-3.22h-3.1v3.22h3.1Zm2.58-3.22H96.7v7.71h-1.12v-3.5h-3.1v.51a1 1 0 0 1-.18.65.6.6 0 0 1-.5.23c-.2 0-.45-.1-.71-.28a2.56 2.56 0 0 1-.68-.72 1.49 1.49 0 0 1-.27-.78c0-.2.07-.34.21-.45.15-.1.36-.15.64-.15h.38v-3.22h-1.78v-1h8.57v1Z" fill="#fff"/>
  <path d="M95.57 42.94h.13v-3.35h-3.36v3.48h3.36v-.13h-.13v-.13H92.6v-2.96h2.82v3.09h.14Zm2.58-3.22v-.13h-1.59v7.7h-.86V43.8h-3.36v.64c0 .26-.05.44-.15.56a.46.46 0 0 1-.4.19c-.17 0-.39-.08-.64-.26s-.46-.4-.63-.68a1.37 1.37 0 0 1-.26-.7c0-.17.05-.27.16-.35.11-.08.3-.13.56-.13h.5V39.6h-1.77v-.74h8.3v.87h.27V38.6h-8.84v1.26h1.78v2.96h-.24c-.3 0-.53.05-.71.17a.65.65 0 0 0-.28.56c0 .27.1.55.3.85.2.3.43.55.7.75.29.2.55.31.8.31s.46-.1.6-.28c.15-.19.22-.43.22-.73v-.37h2.82v3.5h1.4v-7.72h1.45v-.13h-.13Z" fill="#fff"/>
  <path d="M102.6 44.59c.34.34.65.59.93.74.28.14.57.21.87.21.26 0 .5-.05.73-.16.22-.11.4-.3.54-.54.14-.25.2-.56.2-.94 0-.38-.05-.7-.17-.93a1.13 1.13 0 0 0-.47-.53 1.36 1.36 0 0 0-1.53.18c-.24.22-.5.6-.73 1.14l-.37.83Zm-.55-1.34c-.36-.36-.67-.6-.94-.75a1.82 1.82 0 0 0-.86-.22c-.26 0-.5.06-.73.17-.22.11-.4.3-.54.54a2 2 0 0 0-.2.93c0 .38.06.7.18.94a1.15 1.15 0 0 0 1.1.68c.33 0 .62-.1.88-.33.25-.23.5-.6.74-1.14l.37-.82Zm3.27-1.87c.53.17.95.47 1.24.93.3.45.44 1 .44 1.63 0 .49-.1.93-.3 1.33-.2.4-.49.7-.86.93-.37.23-.8.34-1.3.34a2.93 2.93 0 0 1-1.66-.5 5.97 5.97 0 0 1-.76-.6 2.6 2.6 0 0 1-.86.82c-.32.19-.73.28-1.22.28a2.2 2.2 0 0 1-2.06-1.2 3 3 0 0 1-.33-1.44c0-.52.1-.97.31-1.37.21-.4.5-.7.88-.92.38-.22.8-.32 1.27-.32a2.96 2.96 0 0 1 1.64.48c.23.15.5.36.78.62.22-.33.46-.58.73-.76.27-.17.58-.28.94-.32v-1.59H97v-1h10.86v1h-2.54v1.66Z" fill="#fff"/>
  <path d="m102.6 44.59-.1.09c.35.35.67.6.97.76a2 2 0 0 0 .93.24c.28 0 .55-.06.79-.18.25-.13.45-.33.6-.6.15-.27.22-.6.22-1s-.06-.72-.2-1v.01c-.12-.26-.3-.46-.51-.58a1.49 1.49 0 0 0-1.69.19c-.27.24-.52.64-.76 1.19l-.41.9.06.07.1-.1.12.06.37-.83c.24-.52.48-.9.7-1.1a1.22 1.22 0 0 1 1.38-.16v.01c.16.1.3.24.4.46.11.22.17.51.17.88 0 .36-.06.65-.19.87-.12.23-.28.39-.48.49-.2.1-.43.15-.67.15a1.8 1.8 0 0 1-.81-.2 3.72 3.72 0 0 1-.9-.72l-.1.1Zm-.55-1.34.1-.1a4.15 4.15 0 0 0-.98-.77c-.3-.15-.6-.23-.92-.23-.28 0-.54.06-.79.18-.25.13-.45.33-.6.6-.14.27-.21.6-.21 1 0 .39.06.72.19.99a1.27 1.27 0 0 0 1.22.76c.36 0 .7-.13.96-.38.28-.24.53-.63.78-1.18l.4-.9-.06-.07-.1.1-.12-.06-.36.82c-.24.53-.48.9-.71 1.1a1.2 1.2 0 0 1-1.36.16c-.17-.1-.3-.25-.41-.47a1.97 1.97 0 0 1-.17-.88c0-.35.07-.64.19-.86.13-.23.29-.4.48-.49a1.64 1.64 0 0 1 1.47.05c.25.13.56.37.9.72l.1-.1Zm3.27-1.87-.04.13c.5.16.89.44 1.17.87.28.43.42.94.42 1.56 0 .47-.1.9-.29 1.27-.19.37-.46.66-.81.88a2.3 2.3 0 0 1-1.23.32 2.8 2.8 0 0 1-1.59-.48 5.8 5.8 0 0 1-.74-.6l-.11-.1-.09.13c-.24.35-.5.61-.81.79-.3.17-.69.26-1.16.26a2.07 2.07 0 0 1-1.94-1.13 2.82 2.82 0 0 1-.32-1.38c0-.5.1-.93.3-1.3.2-.38.48-.67.83-.88.35-.2.75-.3 1.2-.3a2.89 2.89 0 0 1 1.56.46c.23.15.49.35.77.6l.1.1.1-.12c.21-.32.44-.55.7-.72a2 2 0 0 1 .87-.3l.12-.02V39.6h-7.19v-.74h10.58v.74h-2.53v1.89l.1.03.03-.13h.13v-1.53H108V38.6H96.87v1.26h7.2v1.46h.13l-.02-.14c-.37.05-.7.16-1 .35a2.9 2.9 0 0 0-.77.79l.12.08.08-.1a6.25 6.25 0 0 0-.79-.63 3.1 3.1 0 0 0-1.7-.5c-.5 0-.95.1-1.34.33-.4.23-.71.56-.93.98-.22.41-.33.9-.33 1.43a3 3 0 0 0 .34 1.5 2.34 2.34 0 0 0 2.18 1.27c.5 0 .94-.09 1.29-.3.35-.2.65-.48.9-.86l-.1-.08-.1.1c.27.26.53.46.77.62a3.24 3.24 0 0 0 1.74.52c.51 0 .97-.11 1.37-.36.4-.24.7-.57.9-.98.22-.42.33-.88.33-1.4 0-.65-.16-1.22-.47-1.7-.3-.47-.75-.8-1.31-.98l-.04.13Z" fill="#fff"/>
  <path d="M115.75 38.72v1h-1.46v7.71h-1.12v-2.31a3.57 3.57 0 0 1-2.15.66 3 3 0 0 1-1.35-.29 2.23 2.23 0 0 1-1.26-2.07 2.23 2.23 0 0 1 1.39-2.19c.44-.2.95-.3 1.53-.3a7.8 7.8 0 0 1 1.4.15l-.09 1.02c-.52-.1-.94-.14-1.26-.14-.59 0-1.04.12-1.36.38a1.3 1.3 0 0 0-.48 1.08c0 .3.07.56.2.77.14.21.32.36.55.46.23.1.49.15.76.15.79 0 1.5-.33 2.12-1v-4.08h-5.41v-1h7.99Z" fill="#fff"/>
  <path d="M115.75 38.72h-.13v.87h-1.46v7.7h-.85v-2.43l-.21.15a3.44 3.44 0 0 1-2.08.64c-.48 0-.91-.1-1.29-.28a2.09 2.09 0 0 1-1.19-1.95c0-.5.12-.91.34-1.27.23-.35.55-.61.97-.8.42-.19.91-.28 1.48-.28a7.59 7.59 0 0 1 1.36.14l.03-.13-.13-.01-.08 1.02h.13l.02-.12c-.52-.1-.95-.15-1.28-.15-.6 0-1.1.14-1.44.42-.36.28-.54.69-.54 1.18a1.38 1.38 0 0 0 .84 1.35c.25.11.52.16.81.16a3 3 0 0 0 2.22-1.04l.04-.04V39.6h-5.42v-.74h7.86v-.26h-8.13v1.26h5.42v3.95h.13l-.1-.1c-.6.65-1.27.97-2.02.97-.26 0-.5-.05-.7-.14a1.11 1.11 0 0 1-.5-.41 1.25 1.25 0 0 1-.18-.7c0-.43.14-.74.43-.97a2 2 0 0 1 1.28-.36c.3 0 .72.04 1.23.14l.15.03.1-1.28-.1-.03a7.87 7.87 0 0 0-1.43-.15c-.6 0-1.13.1-1.59.3-.46.2-.83.51-1.08.91-.26.4-.38.88-.38 1.41a2.36 2.36 0 0 0 1.34 2.18c.41.21.88.32 1.4.32a3.99 3.99 0 0 0 2.23-.7l-.08-.1h-.13v2.44h1.39v-7.7h1.45V38.6h-.13v.13Z" fill="#fff"/>
  <path d="M119.48 39.72h-1.45v7.71h-1.13v-7.71h-1.25v-1h3.83v1Z" fill="#fff"/>
  <path d="M119.48 39.72v-.13h-1.59v7.7h-.86v-7.7h-1.24v-.74h3.56v.87h.26v-1.13h-4.09v1.26h1.25v7.71h1.39v-7.7h1.45v-.14h-.13Z" fill="#fff"/>
</svg>
