<svg xmlns="http://www.w3.org/2000/svg" viewBox="0 0 239 70.9">
  <rect x="-.1" width="239.2" height="70.9" rx="8.9" ry="8.9"/>
  <path d="M120.6 38.5c-4.1 0-7.5 3.2-7.5 7.6s3.4 7.5 7.5 7.5 7.6-3.2 7.6-7.5-3.4-7.6-7.6-7.6Zm0 12.1c-2.3 0-4.2-1.8-4.2-4.5s2-4.6 4.2-4.6 4.3 1.9 4.3 4.6-2 4.5-4.3 4.5Zm-16.5-12c-4.2 0-7.6 3.1-7.6 7.5s3.4 7.5 7.6 7.5 7.6-3.2 7.6-7.5-3.4-7.6-7.6-7.6Zm0 12c-2.3 0-4.3-1.8-4.3-4.5s2-4.6 4.3-4.6 4.3 1.9 4.3 4.6-2 4.5-4.3 4.5Zm-19.6-9.8V44H92a6.6 6.6 0 0 1-1.7 4 7.8 7.8 0 0 1-6 2.4 8.4 8.4 0 0 1-8.3-8.5 8.4 8.4 0 0 1 14.1-6.2l2.3-2.3c-2-1.8-4.5-3.2-8-3.2-6.5 0-12 5.3-12 11.7s5.5 11.7 12 11.7c3.5 0 6-1 8.1-3.2 2.1-2.1 2.8-5.1 2.8-7.5 0-.8 0-1.5-.2-2H84.5Zm80.3 2.5c-.7-1.6-2.6-4.8-6.5-4.8s-7.1 3-7.1 7.6c0 4.2 3.2 7.5 7.5 7.5 3.4 0 5.4-2.1 6.3-3.3l-2.6-1.8c-.9 1.3-2 2.1-3.7 2.1s-3-.7-3.7-2.3l10.1-4.1-.3-.9ZM154.4 46a4 4 0 0 1 3.9-4.4c1.3 0 2.4.6 2.8 1.6l-6.7 2.8Zm-8.2 7.3h3.3V31h-3.3v22.1Zm-5.4-13h-.1a5.2 5.2 0 0 0-4-1.7c-3.8 0-7.3 3.3-7.3 7.6s3.5 7.5 7.3 7.5c1.8 0 3.2-.8 4-1.7v1c0 3-1.5 4.5-4 4.5-2 0-3.2-1.4-3.8-2.7l-2.8 1.2c.8 2 3 4.5 6.6 4.5 4 0 7.2-2.3 7.2-7.9V39h-3.1v1.2ZM137 50.6c-2.3 0-4.2-1.9-4.2-4.5s1.9-4.6 4.2-4.6 4 2 4 4.6-1.8 4.5-4 4.5ZM180.3 31h-8v22.1h3.4v-8.4h4.6c3.7 0 7.2-2.6 7.2-6.8S184 31 180.3 31Zm0 10.7h-4.7V34h4.7c2.5 0 4 2 4 3.8s-1.5 3.8-4 3.8Zm20.5-3.2c-2.4 0-4.9 1-6 3.4l3 1.2c.6-1.2 1.8-1.6 3-1.6 1.7 0 3.5 1 3.5 2.8v.3c-.6-.4-1.9-.9-3.5-.9-3.1 0-6.3 1.7-6.3 5 0 3 2.6 4.8 5.5 4.8 2.2 0 3.4-1 4.2-2.1V53h3.3v-8.5c0-4-3-6.1-6.7-6.1Zm-.4 12.1c-1.1 0-2.6-.5-2.6-1.8 0-1.7 1.9-2.4 3.5-2.4 1.4 0 2.1.3 3 .7a4 4 0 0 1-4 3.5ZM219 39l-3.8 9.6-4-9.6h-3.6l6 13.4-3.4 7.5h3.4l9.1-21H219Zm-29.7 14h3.4V31h-3.3v22.1Z" style="fill:#fff"/>
  <path d="m36.6 34.4-18.9 20a5 5 0 0 0 7.6 3l21.2-12.2-10-10.8h.1Z" style="fill:#ea4335"/>
  <path d="m55.7 31-9.2-5.3-10.3 9.2 10.3 10.3 9.2-5.2c1.5-1 2.6-2.6 2.6-4.5s-1-3.6-2.6-4.5Z" style="fill:#fbbc04"/>
  <path d="m17.7 16.4-.1 1.4V53l.1 1.3L37.2 35 17.7 16.4Z" style="fill:#4285f4"/>
  <path d="m36.7 35.4 9.8-9.7-21.2-12.3a5.1 5.1 0 0 0-7.6 3l19 19Z" style="fill:#34a853"/>
  <path d="M73 23V12.4h3.2a5.1 5.1 0 0 1 5.4 5.3c0 1.6-.5 2.9-1.5 3.9s-2.3 1.4-4 1.4H73Zm1.3-1.3h1.9c1.2 0 2.2-.3 2.9-1s1-1.7 1-3-.3-2.2-1-3-1.7-1-3-1h-1.8v8Zm7.9 1.3 4-10.6h1.5l4 10.6h-1.5l-1-2.9h-4.5l-1 3h-1.5Zm3-4.1h3.5L87 14l-1.8 4.8Zm9.4 4.1h-1.3V12.4h3.6c1 0 1.7.3 2.3.9s1 1.4 1 2.3-.3 1.6-1 2.2c-.6.6-1.4 1-2.3 1h-2.2V23Zm0-5.6H97c.6 0 1-.2 1.4-.6s.5-.8.5-1.2-.2-1-.5-1.3c-.3-.4-.8-.6-1.4-.6h-2.3v3.7ZM100 23l4-10.6h1.6l4 10.6H108l-1-2.9h-4.4l-1.1 3H100Zm3-4.1h3.5l-1.7-4.8-1.8 4.8Zm10.8 4.1h-1.4v-9.3h-3v-1.3h7.3v1.3h-3V23Zm12.5-10.6-4 4.6 4.3 6H125l-3.4-5-1.7 2v3h-1.3V12.3h1.3v5.5h.1l4.7-5.5h1.7Zm.8 10.6 4-10.6h1.5l4 10.6h-1.5l-1-2.9h-4.5l-1 3H127Zm3-4.1h3.6l-1.8-4.8-1.8 4.8Zm8.1 4.1V12.4h1.7l5.1 8.3h.1v-8.3h1.3V23H145l-5.4-8.6V23h-1.4Zm14.2 0V12.4h3.2c1.7 0 3 .5 4 1.5s1.4 2.2 1.4 3.8-.5 2.9-1.4 3.9-2.3 1.4-4 1.4h-3.2Zm1.4-1.3h1.8c1.3 0 2.2-.3 3-1s1-1.7 1-3-.3-2.2-1-3-1.7-1-3-1h-1.8v8ZM163 23V12.4h1.3V23H163Z" style="stroke:#fff;stroke-miterlimit:10;stroke-width:.2px;fill:#fff"/>
</svg>
