<svg width="180" height="54" fill="none" xmlns="http://www.w3.org/2000/svg">
  <path d="M173.33 54H6.67A6.73 6.73 0 0 1 0 47.25V6.75C0 3.04 3 0 6.67 0h166.66A6.73 6.73 0 0 1 180 6.75v40.5c0 3.71-3 6.75-6.67 6.75Z" fill="#000"/>
  <path d="m27.63 26.22-14.2 15.26a3.84 3.84 0 0 0 5.65 2.35l.05-.03 15.97-9.33-7.48-8.25Z" fill="#EA4335"/>
  <path d="m41.98 23.63-.01-.02-6.9-4.05-7.77 7 7.8 7.9 6.86-4a3.89 3.89 0 0 0 2.02-3.43c0-1.47-.8-2.75-2-3.4Z" fill="#FBBC04"/>
  <path d="M13.43 12.52a3.7 3.7 0 0 0-.13 1v26.96c0 .35.04.68.13 1L28.1 26.62l-14.68-14.1Z" fill="#4285F4"/>
  <path d="m27.73 27 7.34-7.44-15.96-9.37a3.85 3.85 0 0 0-5.69 2.33L27.73 27Z" fill="#34A853"/>
  <path d="M142.58 40h2.49V23.33h-2.49V40ZM165 29.34l-2.85 7.22h-.09l-2.96-7.22h-2.68l4.44 10.1-2.53 5.61h2.6l6.84-15.71H165Zm-14.1 8.77c-.82 0-1.96-.41-1.96-1.42 0-1.29 1.41-1.78 2.64-1.78 1.1 0 1.6.24 2.27.56a3.02 3.02 0 0 1-2.96 2.64Zm.3-9.14c-1.81 0-3.68.8-4.45 2.55l2.21.93c.47-.93 1.35-1.23 2.27-1.23 1.3 0 2.6.78 2.62 2.15v.17a5.5 5.5 0 0 0-2.6-.64c-2.38 0-4.8 1.3-4.8 3.75 0 2.23 1.95 3.67 4.14 3.67a3.5 3.5 0 0 0 3.17-1.63h.09v1.28h2.4v-6.39c0-2.96-2.2-4.6-5.06-4.6Zm-15.38 2.4h-3.54v-5.72h3.53a2.89 2.89 0 0 1 2.92 2.86 2.9 2.9 0 0 1-2.91 2.86Zm-.07-8.04h-5.96V40h2.49v-6.32h3.47c2.76 0 5.47-2 5.47-5.17 0-3.18-2.71-5.18-5.47-5.18Zm-32.5 14.78c-1.72 0-3.16-1.44-3.16-3.42 0-2 1.44-3.45 3.15-3.45 1.7 0 3.03 1.46 3.03 3.45 0 1.98-1.33 3.42-3.03 3.42Zm2.85-7.84h-.1a3.93 3.93 0 0 0-2.98-1.27 5.64 5.64 0 0 0-5.44 5.7c0 3.17 2.6 5.64 5.44 5.64 1.35 0 2.43-.6 2.98-1.28h.09v.81c0 2.17-1.16 3.33-3.03 3.33a3.14 3.14 0 0 1-2.86-2.02l-2.17.9a5.4 5.4 0 0 0 5.03 3.36c2.92 0 5.4-1.72 5.4-5.91V29.35h-2.37v.92Zm4.08 9.73h2.5V23.33h-2.5V40Zm6.17-5.5a3.11 3.11 0 0 1 2.96-3.3c.99 0 1.83.49 2.1 1.2l-5.06 2.1Zm7.73-1.89c-.47-1.27-1.91-3.6-4.85-3.6-2.93 0-5.35 2.3-5.35 5.66 0 3.18 2.4 5.67 5.62 5.67 2.6 0 4.1-1.59 4.73-2.5l-1.93-1.3a3.24 3.24 0 0 1-2.8 1.57 2.89 2.89 0 0 1-2.75-1.72l7.59-3.13-.26-.65Zm-60.41-1.87v2.4h5.76a5.02 5.02 0 0 1-1.32 3.04 5.9 5.9 0 0 1-4.44 1.76 6.32 6.32 0 0 1-6.32-6.4A6.32 6.32 0 0 1 68 26.85l1.7-1.7a8.4 8.4 0 0 0-6.04-2.42 8.93 8.93 0 0 0-8.94 8.8 8.93 8.93 0 0 0 8.94 8.81c2.62 0 4.6-.86 6.14-2.47 1.6-1.59 2.09-3.82 2.09-5.62a7.8 7.8 0 0 0-.13-1.5h-8.1Zm14.77 7.37c-1.72 0-3.2-1.42-3.2-3.44 0-2.04 1.48-3.43 3.2-3.43 1.72 0 3.2 1.4 3.2 3.43 0 2.02-1.48 3.44-3.2 3.44Zm0-9.1a5.59 5.59 0 0 0-5.7 5.66 5.6 5.6 0 0 0 5.7 5.67 5.6 5.6 0 0 0 5.7-5.67 5.59 5.59 0 0 0-5.7-5.67Zm12.42 9.1c-1.72 0-3.2-1.42-3.2-3.44 0-2.04 1.48-3.43 3.2-3.43 1.72 0 3.2 1.4 3.2 3.43 0 2.02-1.48 3.44-3.2 3.44Zm0-9.1a5.59 5.59 0 0 0-5.7 5.66 5.6 5.6 0 0 0 5.7 5.67 5.6 5.6 0 0 0 5.69-5.67 5.59 5.59 0 0 0-5.7-5.67ZM56 16.35h1.43a3 3 0 0 0 2.2-.8c.53-.52.8-1.26.8-2.22a3 3 0 0 0-.8-2.21 3 3 0 0 0-2.2-.8H56v6.03Zm-1.02.98v-8h2.45c1.22 0 2.2.37 2.95 1.12.73.74 1.1 1.7 1.1 2.88 0 1.19-.37 2.15-1.1 2.9a3.98 3.98 0 0 1-2.95 1.1h-2.45Z" fill="#fff"/>
  <path d="M56 16.35v.13h1.43a3.1 3.1 0 0 0 2.28-.83 3.1 3.1 0 0 0 .85-2.32 3.1 3.1 0 0 0-.85-2.31 3.13 3.13 0 0 0-2.28-.84h-1.56v6.3h.14v-.13h.13v-5.9h1.29c.9 0 1.58.26 2.1.76.5.5.77 1.2.77 2.12 0 .93-.26 1.63-.77 2.13s-1.2.76-2.1.76H56v.13Zm-1.02.98h.13V9.47h2.32c1.2 0 2.14.36 2.85 1.07a3.78 3.78 0 0 1 1.07 2.8 3.8 3.8 0 0 1-1.07 2.79 3.84 3.84 0 0 1-2.85 1.07h-2.45v.27h2.45a4.1 4.1 0 0 0 3.04-1.15 4.05 4.05 0 0 0 1.15-2.99 4.1 4.1 0 0 0-1.15-2.98 4.11 4.11 0 0 0-3.04-1.15h-2.58v8.27h.13v-.14Zm9.21-3.13h2.66l-1.31-3.6h-.05l-1.3 3.6Zm-2.27 3.13 3.02-8h1.16l3.01 8h-1.13l-.78-2.16h-3.36l-.78 2.16h-1.14Z" fill="#fff"/>
  <path d="M64.19 14.2v.14h2.85l-1.4-3.88h-.24L64 14.34h.19v-.14l.12.05 1.31-3.6-.13-.05v.13h.05v-.13l-.13.04 1.25 3.43h-2.47v.13Zm-2.27 3.13.12.05 2.99-7.91H66l2.91 7.73h-.85l-.77-2.17h-3.55l-.78 2.17h-1.05v.27h1.23l.78-2.17h3.18l.77 2.17h1.43L66.19 9.2h-1.35l-3.11 8.27h.19v-.14Zm9.38-4.23h1.73c.43 0 .77-.14 1.03-.43s.4-.6.4-.96c0-.35-.14-.67-.4-.96a1.3 1.3 0 0 0-1.03-.43H71.3v2.79Zm0 4.23h-1.02v-8H73c.68 0 1.27.23 1.76.68.5.45.75 1.02.75 1.7a2.2 2.2 0 0 1-.75 1.7 2.5 2.5 0 0 1-1.76.68h-1.7v3.24Z" fill="#fff"/>
  <path d="M71.3 13.1v.14h1.73c.46 0 .85-.16 1.13-.48.28-.3.43-.66.43-1.05 0-.38-.15-.74-.43-1.05a1.46 1.46 0 0 0-1.13-.48h-1.86v3.06h.13v-.13h.14v-2.66h1.59c.4 0 .7.13.93.4.25.26.36.55.36.86 0 .32-.11.6-.36.88a1.2 1.2 0 0 1-.93.39H71.3v.13Zm0 4.23v-.13h-.9V9.47H73c.65 0 1.2.2 1.67.64.47.43.7.95.7 1.6 0 .66-.23 1.18-.7 1.6a2.4 2.4 0 0 1-1.67.65h-1.83v3.37h.27v-3.1H73c.7 0 1.33-.24 1.85-.71.52-.48.79-1.09.79-1.8 0-.72-.27-1.34-.79-1.81A2.66 2.66 0 0 0 73 9.2h-2.86v8.27h1.3v-.14h-.14Zm6.32-3.13h2.66l-1.31-3.6h-.05l-1.3 3.6Zm-2.27 3.13 3.02-8h1.16l3.01 8H81.4l-.77-2.16h-3.36l-.78 2.16h-1.14Z" fill="#fff"/>
  <path d="M77.62 14.2v.14h2.85l-1.4-3.88h-.24l-1.4 3.88h.19v-.14l.12.05 1.31-3.6-.13-.05v.13h.05v-.13l-.13.04 1.25 3.43h-2.47v.13Zm-2.27 3.13.12.05 2.99-7.91h.98l2.91 7.73h-.85l-.77-2.17h-3.55l-.79 2.17h-1.04v.27h1.23l.78-2.17h3.18l.77 2.17h1.43L79.62 9.2h-1.35l-3.11 8.27h.19v-.14Zm10.35 0h-1.02v-7.01h-2.24v-.99h5.5v.99h-2.23v7.01Z" fill="#fff"/>
  <path d="M85.7 17.33v-.13h-.89v-7.02h-2.23v-.71h5.23v.71h-2.24v7.15h.27v-6.88h2.23V9.2h-5.76v1.25h2.23v7.02h1.3v-.14h-.13Zm9.46-8v.05l-2.97 3.43 3.17 4.48v.04H94.1l-2.6-3.73-1.24 1.42v2.31h-1.02v-8h1.02v4.13h.05l3.52-4.13h1.33Z" fill="#fff"/>
  <path d="M95.16 9.33h-.13v.05h.13l-.1-.09-3.04 3.51 3.2 4.53h.14v-.13h-1.2l-2.66-3.82-1.37 1.6v2.22h-.76V9.47h.76v4.12h.24l3.52-4.12h1.27V9.2h-1.4l-3.55 4.17.1.09v-.14h-.05v.14h.14V9.2h-1.3v8.27h1.3v-2.4l1.08-1.25 2.55 3.65h1.46v-.22l-3.13-4.43 2.93-3.4V9.2h-.13v.13ZM98 14.2h2.67l-1.31-3.6h-.04L98 14.2Zm-2.26 3.13 3.02-8h1.16l3.02 8h-1.14l-.77-2.16h-3.37l-.78 2.16h-1.14Z" fill="#fff"/>
  <path d="M98 14.2v.14h2.86l-1.4-3.88h-.24l-1.4 3.88H98v-.14l.12.05 1.31-3.6-.12-.05v.13h.04v-.13l-.13.04 1.25 3.43H98v.13Zm-2.26 3.13.12.05 2.99-7.91h.98l2.91 7.73h-.85l-.77-2.17h-3.55l-.78 2.17h-1.05v.27h1.23l.79-2.17h3.17l.77 2.17h1.43L100 9.2h-1.35l-3.11 8.27h.19v-.14Zm8.36 0v-8h1.25l3.89 6.23h.04l-.04-1.54V9.33h1.02v8h-1.07l-4.07-6.52h-.04l.04 1.54v4.98h-1.02Z" fill="#fff"/>
  <path d="M104.1 17.33h.13V9.47h1.04l3.9 6.22h.25l-.05-1.68V9.47h.76v7.73h-.86l-4.07-6.52h-.26l.05 1.67v4.85h-.9v.27h1.17v-5.12l-.05-1.55h-.13v.14h.04v-.13l-.11.07 4.1 6.59h1.29V9.2h-1.3v4.82l.05 1.54h.13v-.14h-.04v.14l.1-.07-3.92-6.29h-1.46v8.27h.14v-.14Zm11.7-.98h1.42a3 3 0 0 0 2.2-.8c.54-.52.81-1.26.81-2.22 0-.94-.27-1.68-.81-2.21a3 3 0 0 0-2.2-.8h-1.41v6.03Zm-1.02.98v-8h2.44c1.23 0 2.22.37 2.96 1.12.73.74 1.1 1.7 1.1 2.88 0 1.19-.37 2.15-1.1 2.9a3.98 3.98 0 0 1-2.96 1.1h-2.44Z" fill="#fff"/>
  <path d="M115.8 16.35v.13h1.42c.95 0 1.73-.27 2.3-.83a3.1 3.1 0 0 0 .84-2.32 3.1 3.1 0 0 0-.85-2.31 3.13 3.13 0 0 0-2.29-.84h-1.55v6.3h.14v-.13h.13v-5.9h1.28c.9 0 1.6.26 2.1.76.52.5.78 1.2.78 2.12 0 .93-.26 1.63-.77 2.13-.52.5-1.2.76-2.1.76h-1.42v.13Zm-1.02.98h.13V9.47h2.31c1.2 0 2.15.36 2.86 1.07a3.78 3.78 0 0 1 1.07 2.8 3.8 3.8 0 0 1-1.07 2.79 3.84 3.84 0 0 1-2.86 1.07h-2.44v.27h2.44c1.26 0 2.29-.38 3.05-1.15a4.06 4.06 0 0 0 1.15-2.99 4.1 4.1 0 0 0-1.15-2.98 4.11 4.11 0 0 0-3.05-1.15h-2.58v8.27h.14v-.14Zm7.94 0v-8h1.03v8h-1.03Z" fill="#fff"/>
  <path d="M122.72 17.33h.14V9.47h.76v7.73h-.9v.27h1.16V9.2h-1.3v8.27h.14v-.14Z" fill="#fff"/>
</svg>
