<svg width="180" height="54" fill="none" xmlns="http://www.w3.org/2000/svg">
  <path d="M173.3 54H6.7A6.7 6.7 0 0 1 0 47.2V6.8C0 3 3 0 6.7 0h166.6a6.7 6.7 0 0 1 6.7 6.8v40.5c0 3.7-3 6.7-6.7 6.7Z" fill="#000"/>
  <path d="M27.6 26.2 13.4 41.5a3.8 3.8 0 0 0 5.7 2.3l16-9.3-7.5-8.3Z" fill="#EA4335"/>
  <path d="m42 23.6-7-4-7.7 7 7.8 7.9 6.9-4a3.9 3.9 0 0 0 2-3.5 4 4 0 0 0-2-3.4Z" fill="#FBBC04"/>
  <path d="M13.4 12.5a3.7 3.7 0 0 0-.1 1v27l.1 1 14.7-14.9-14.7-14Z" fill="#4285F4"/>
  <path d="m27.7 27 7.4-7.4-16-9.4a3.9 3.9 0 0 0-5.7 2.3L27.7 27Z" fill="#34A853"/>
  <path d="M142.6 40h2.5V23.3h-2.5V40ZM165 29.3l-2.9 7.3-3-7.3h-2.7l4.5 10.1-2.6 5.7h2.6l6.9-15.8H165Zm-14.1 8.8c-.8 0-2-.4-2-1.4 0-1.3 1.4-1.8 2.7-1.8 1 0 1.6.2 2.2.6a3 3 0 0 1-3 2.6Zm.3-9.1c-1.8 0-3.7.8-4.4 2.5l2.2 1c.4-1 1.3-1.3 2.2-1.3 1.3 0 2.6.8 2.7 2.2v.1a5.5 5.5 0 0 0-2.6-.6c-2.4 0-4.8 1.3-4.8 3.8 0 2.2 1.9 3.6 4 3.6a3.5 3.5 0 0 0 3.3-1.6V40h2.5v-6.4c0-3-2.2-4.6-5.1-4.6Zm-15.4 2.4h-3.5v-5.8h3.5a2.9 2.9 0 0 1 3 3 2.9 2.9 0 0 1-3 2.8Zm0-8h-6V40h2.5v-6.3h3.5c2.7 0 5.4-2 5.4-5.2s-2.7-5.2-5.4-5.2ZM103.3 38c-1.8 0-3.2-1.4-3.2-3.4s1.4-3.5 3.1-3.5c1.7 0 3 1.5 3 3.5s-1.3 3.4-3 3.4Zm2.8-7.8h-.1a4 4 0 0 0-3-1.3 5.6 5.6 0 0 0-5.4 5.7c0 3.2 2.6 5.6 5.4 5.6a4 4 0 0 0 3-1.2v.8c0 2.1-1 3.3-3 3.3a3.1 3.1 0 0 1-2.8-2L98 42a5.4 5.4 0 0 0 5 3.3c3 0 5.5-1.7 5.5-5.9v-10H106v.9Zm4 9.7h2.6V23.3h-2.5V40Zm6.3-5.5a3.1 3.1 0 0 1 3-3.3c.9 0 1.7.5 2 1.2l-5 2.1Zm7.7-1.9c-.5-1.3-2-3.6-4.9-3.6-2.9 0-5.3 2.3-5.3 5.7 0 3.1 2.4 5.6 5.6 5.6 2.6 0 4.1-1.5 4.7-2.5l-1.9-1.3a3.2 3.2 0 0 1-2.8 1.6 2.9 2.9 0 0 1-2.7-1.7l7.5-3.1-.2-.7Zm-60.4-1.9V33h5.7a5 5 0 0 1-1.3 3 5.9 5.9 0 0 1-4.4 1.8 6.3 6.3 0 0 1-6.3-6.4A6.3 6.3 0 0 1 68 27l1.7-1.7a8.4 8.4 0 0 0-6-2.5 9 9 0 0 0-9 8.8 9 9 0 0 0 9 8.8 8 8 0 0 0 6.1-2.4c1.6-1.6 2-3.8 2-5.6a7.8 7.8 0 0 0 0-1.5h-8.1ZM78.4 38c-1.7 0-3.2-1.4-3.2-3.4s1.5-3.5 3.2-3.5c1.8 0 3.2 1.4 3.2 3.5 0 2-1.4 3.4-3.2 3.4Zm0-9a5.6 5.6 0 0 0-5.7 5.6 5.6 5.6 0 0 0 5.7 5.6 5.6 5.6 0 0 0 5.7-5.6 5.6 5.6 0 0 0-5.7-5.7ZM91 38c-1.8 0-3.2-1.4-3.2-3.4s1.4-3.5 3.2-3.5c1.7 0 3.2 1.4 3.2 3.5 0 2-1.5 3.4-3.2 3.4Zm0-9a5.6 5.6 0 0 0-5.7 5.6 5.6 5.6 0 0 0 5.7 5.6 5.6 5.6 0 0 0 5.7-5.6 5.6 5.6 0 0 0-5.7-5.7ZM56 16.2h1.4a3 3 0 0 0 2.2-.7 3 3 0 0 0 .8-2.3 3 3 0 0 0-.8-2.2 3 3 0 0 0-2.2-.8H56v6Zm-1 1v-8h2.4a4 4 0 0 1 3 1.2 4 4 0 0 1 1 2.8 4 4 0 0 1-1 3 4 4 0 0 1-3 1H55Z" fill="#fff"/>
  <path d="M56 16.4h1.4a3.1 3.1 0 0 0 2.3-.7 3.1 3.1 0 0 0 .9-2.4 3.1 3.1 0 0 0-.9-2.3 3.1 3.1 0 0 0-2.3-.8H56v6.3h.1v-.1h.1v-6h1.3c1 0 1.6.3 2.1.8s.8 1.2.8 2.1c0 1-.3 1.7-.8 2.2s-1.2.7-2 .7H56v.2Zm-1 1h.1v-8h2.3a4 4 0 0 1 2.9 1.1 3.8 3.8 0 0 1 1 2.8 3.8 3.8 0 0 1-1 2.8 3.8 3.8 0 0 1-2.9 1.1H55v.3h2.4a4.1 4.1 0 0 0 3-1.2 4 4 0 0 0 1.2-3 4.1 4.1 0 0 0-1.1-3 4.1 4.1 0 0 0-3-1.1h-2.7v8.3h.2v-.2Zm9.2-3.2h2.6l-1.3-3.6-1.3 3.6Zm-2.3 3.1 3-8h1.2l3 8H68l-.8-2.1h-3.4l-.7 2.1h-1.2Z" fill="#fff"/>
  <path d="M64.2 14.2v.1H67l-1.4-3.8h-.2L64 14.3h.2v-.1h.1l1.3-3.5-.1-.1v.1-.1l1.2 3.5h-2.5v.1Zm-2.3 3.1h.1l3-7.8h1l3 7.7h-1l-.7-2.2h-3.6l-.7 2.2h-1v.3h1l.8-2.2H67l.8 2.2h1.4l-3.1-8.3h-1.4l-3 8.3h.1v-.2Zm9.4-4.2H73c.5 0 .8-.1 1-.4s.5-.6.5-1c0-.3-.2-.7-.4-1a1.3 1.3 0 0 0-1-.4h-1.8v2.8Zm0 4.2h-1v-8H73c.7 0 1.3.3 1.8.7.5.5.7 1 .7 1.7a2.2 2.2 0 0 1-.7 1.7 2.5 2.5 0 0 1-1.8.7h-1.7v3.2Z" fill="#fff"/>
  <path d="M71.3 13.1v.1H73c.5 0 .9-.1 1.2-.4.2-.3.4-.7.4-1 0-.5-.2-.8-.4-1.1a1.5 1.5 0 0 0-1.2-.5h-1.8v3h.2v-2.8H73c.4 0 .7.2 1 .4.2.3.3.6.3 1 0 .2 0 .5-.3.8a1.2 1.2 0 0 1-1 .4h-1.7v.1Zm0 4.2v-.1h-.9V9.5H73c.7 0 1.2.2 1.7.6.4.4.7 1 .7 1.6a2 2 0 0 1-.7 1.6 2.4 2.4 0 0 1-1.7.7h-1.8v3.3h.2v-3H73a3 3 0 0 0 1.9-.8c.5-.5.7-1 .7-1.8 0-.7-.2-1.3-.7-1.8a2.7 2.7 0 0 0-1.9-.7h-2.9v8.3h1.3v-.2h-.1Zm6.3-3.1h2.7L79 10.6l-1.4 3.6Zm-2.2 3.1 3-8h1.1l3 8h-1.1l-.8-2.1h-3.3l-.8 2.1h-1.1Z" fill="#fff"/>
  <path d="M77.6 14.2v.1h2.9L79 10.5h-.3l-1.4 3.8h.2v-.1h.1l1.3-3.5v-.1.1-.1h-.2l1.3 3.5h-2.5v.1Zm-2.2 3.1 3-7.8h1l3 7.7h-.9l-.8-2.2h-3.5l-.8 2.2h-1v.3h1.2l.8-2.2h3.1l.8 2.2h1.4l-3-8.3h-1.4l-3.1 8.3h.2v-.2Zm10.3 0h-1v-7h-2.3v-1H88v1h-2.2v7Z" fill="#fff"/>
  <path d="M85.7 17.3v-.1h-.9v-7h-2.2v-.7h5.2v.7h-2.2v7.1h.2v-6.9h2.3V9.3h-5.8v1.3h2.2v7h1.3v-.2Zm9.5-8-3 3.5 3.2 4.5H94l-2.6-3.7-1.2 1.4v2.3h-1v-8h1v4.2l3.5-4.2h1.4Z" fill="#fff"/>
  <path d="M95.2 9.3H95h.2-.1l-3 3.5 3.1 4.5h.2v-.1h-1.2l-2.7-3.8-1.4 1.6v2.2h-.7V9.5h.7v4h.3l3.5-4h1.3v-.3h-1.4l-3.6 4.2h.2V9.3h-1.3v8.3h1.3V15l1-1.3 2.6 3.7h1.5v-.3l-3.1-4.4 2.9-3.4v-.2h-.1v.1Zm2.8 4.9h2.7l-1.3-3.6-1.4 3.6Zm-2.3 3.1 3-8h1.2l3 8h-1.1l-.8-2.1h-3.3l-.8 2.1h-1.2Z" fill="#fff"/>
  <path d="M98 14.2v.1h2.9l-1.4-3.8h-.3l-1.4 3.8h.2v-.1h.1l1.3-3.5v-.1.1-.1h-.2l1.3 3.5H98v.1Zm-2.3 3.1h.2l3-7.8h1l2.8 7.7h-.8L101 15h-3.5l-.8 2.2h-1v.3H97l.8-2.2h3.1l.8 2.2h1.4L100 9.2h-1.4l-3 8.3h.1v-.2Zm8.4 0v-8h1.3l3.8 6.3V9.3h1v8h-1l-4-6.5h-.1v6.5h-1Z" fill="#fff"/>
  <path d="M104.1 17.3h.1V9.5h1l4 6.2h.2V9.5h.7v7.7h-.8l-4.1-6.5h-.3v6.5h-.8v.3h1.2v-6.7h-.2v.1l4 6.6h1.3V9.2h-1.3v6.4h.2v-.2.2-.1l-3.9-6.3H104v8.3h.1v-.2Zm11.7-1h1.4a3 3 0 0 0 2.2-.8c.6-.5.8-1.2.8-2.2a3 3 0 0 0-.8-2.2 3 3 0 0 0-2.2-.8h-1.4v6Zm-1 1v-8h2.4a4 4 0 0 1 3 1.1 4 4 0 0 1 1 3 4 4 0 0 1-1 2.8 4 4 0 0 1-3 1.1h-2.4Z" fill="#fff"/>
  <path d="M115.8 16.4h1.4c1 0 1.7-.2 2.3-.7a3.1 3.1 0 0 0 .9-2.4 3.1 3.1 0 0 0-.9-2.3 3.1 3.1 0 0 0-2.3-.8h-1.5v6.3h.1v-.1h.1v-6h1.3c1 0 1.6.3 2.1.8s.8 1.2.8 2.1a3 3 0 0 1-.8 2.2c-.5.5-1.2.7-2 .7h-1.5v.2Zm-1 1h.1v-8h2.3a4 4 0 0 1 2.9 1.1 3.8 3.8 0 0 1 1 2.8 3.8 3.8 0 0 1-1 2.8 3.8 3.8 0 0 1-2.9 1.1h-2.4v.3h2.4c1.3 0 2.3-.4 3-1.2a4 4 0 0 0 1.2-3 4.1 4.1 0 0 0-1.1-3 4.1 4.1 0 0 0-3-1.1h-2.7v8.3h.2v-.2Zm8 0v-8h1v8h-1Z" fill="#fff"/>
  <path d="M122.7 17.3h.2V9.5h.7v7.7h-.9v.3h1.2V9.2h-1.3v8.3h.1v-.2Z" fill="#fff"/>
</svg>
