<svg width="180" height="54" fill="none" xmlns="http://www.w3.org/2000/svg">
  <path d="M173.3 54H6.7A6.7 6.7 0 0 1 0 47.2V6.8C0 3 3 0 6.7 0h166.6a6.7 6.7 0 0 1 6.7 6.8v40.5c0 3.7-3 6.7-6.7 6.7Z" fill="#000"/>
  <path d="M27.6 26.2 13.4 41.5a3.8 3.8 0 0 0 5.7 2.3l16-9.3-7.5-8.3Z" fill="#EA4335"/>
  <path d="m42 23.6-7-4-7.7 7 7.8 7.9 6.9-4a3.9 3.9 0 0 0 2-3.5 4 4 0 0 0-2-3.4Z" fill="#FBBC04"/>
  <path d="M13.4 12.5a3.7 3.7 0 0 0-.1 1v27l.1 1 14.7-14.9-14.7-14Z" fill="#4285F4"/>
  <path d="m27.7 27 7.4-7.4-16-9.4a3.9 3.9 0 0 0-5.7 2.3L27.7 27Z" fill="#34A853"/>
  <path d="M131.5 26.7h2.2V12h-2.2v14.6Zm19.6-9.3-2.5 6.3-2.6-6.3h-2.4l3.9 8.8-2.2 4.9h2.2l6-13.8h-2.4ZM138.8 25c-.7 0-1.7-.3-1.7-1.2 0-1.2 1.2-1.6 2.3-1.6 1 0 1.4.2 2 .5a2.6 2.6 0 0 1-2.6 2.3Zm.2-8c-1.5 0-3.2.7-3.8 2.2l1.9.9c.4-.9 1.2-1.1 2-1.1 1.1 0 2.2.7 2.3 1.9v.1a4.8 4.8 0 0 0-2.3-.6c-2 0-4.2 1.2-4.2 3.3 0 2 1.7 3.2 3.6 3.2a3 3 0 0 0 2.8-1.4v1.1h2.2V21c0-2.5-2-4-4.5-4Zm-13.4 2.1h-3.1v-5h3.1a2.5 2.5 0 0 1 2.6 2.5c0 1.1-1 2.5-2.6 2.5Zm0-7h-5.3v14.6h2.2V21h3c2.5 0 4.8-1.7 4.8-4.5S128 12 125.5 12ZM97 25c-1.5 0-2.7-1.3-2.7-3s1.2-3 2.7-3c1.5 0 2.7 1.3 2.7 3s-1.2 3-2.7 3Zm2.5-6.8a3.4 3.4 0 0 0-2.7-1.2 5 5 0 0 0-4.7 5 4.9 4.9 0 0 0 4.7 5c1.2 0 2.2-.6 2.6-1.2h.1v.7c0 2-1 3-2.6 3a2.7 2.7 0 0 1-2.5-1.8l-2 .8c.6 1.3 2 3 4.5 3s4.7-1.6 4.7-5.3v-8.9h-2v.8Zm3.6 8.4h2.2V12.1h-2.2v14.6Zm5.4-4.8a2.7 2.7 0 0 1 2.6-2.9c.8 0 1.6.5 1.8 1.1l-4.4 1.8Zm6.7-1.6c-.4-1.1-1.6-3.2-4.2-3.2s-4.7 2-4.7 5c0 2.8 2.1 5 5 5a5 5 0 0 0 4-2.2l-1.6-1.2a2.8 2.8 0 0 1-2.5 1.4c-1 0-1.9-.5-2.4-1.5l6.7-2.7-.3-.6Zm-52.8-1.6v2h5a4.4 4.4 0 0 1-1 2.7 5.2 5.2 0 0 1-4 1.5 5.5 5.5 0 0 1-5.5-5.6 5.5 5.5 0 0 1 9.3-4l1.5-1.5a7.3 7.3 0 0 0-5.3-2.1 7.8 7.8 0 0 0-7.8 7.7 7.8 7.8 0 0 0 7.8 7.7 7 7 0 0 0 5.4-2.2 7 7 0 0 0 1.8-5v-1.2h-7.2Zm13 6.4c-1.6 0-2.9-1.2-2.9-3s1.3-3 2.8-3c1.5 0 2.8 1.2 2.8 3s-1.3 3-2.8 3Zm0-8a4.9 4.9 0 0 0-5 5 4.9 4.9 0 0 0 5 5 4.9 4.9 0 0 0 5-5 4.9 4.9 0 0 0-5-5Zm10.8 8c-1.5 0-2.8-1.2-2.8-3s1.3-3 2.8-3c1.5 0 2.8 1.2 2.8 3s-1.3 3-2.8 3Zm0-8a4.9 4.9 0 0 0-5 5 4.9 4.9 0 0 0 5 5 4.9 4.9 0 0 0 5-5 4.9 4.9 0 0 0-5-5ZM59.5 39.3a2 2 0 0 0-1.5-.7 2 2 0 0 0-1.5.7c-.4.4-.6 1-.6 1.7s.2 1.2.6 1.7a2 2 0 0 0 1.5.6 2 2 0 0 0 1.5-.7c.4-.4.6-1 .6-1.6 0-.7-.2-1.3-.6-1.7Zm1.1-.1a3 3 0 0 1 2.6-1.4c1 0 1.7.3 2.3 1 .6.5.9 1.3.9 2.2a3.2 3.2 0 0 1-.9 2.3c-.5.5-1.2.8-2 .8h-1a2.6 2.6 0 0 1-.7-.3l.4-.7 1 .2a2 2 0 0 0 1.6-.7c.3-.4.5-1 .5-1.6 0-.7-.2-1.3-.5-1.7a2 2 0 0 0-1.6-.6 2 2 0 0 0-1.3.4 4 4 0 0 0-.9 1v.4l.1.5a3 3 0 0 1-3.1 3.1 3 3 0 0 1-2.3-.9A3.1 3.1 0 0 1 55 41c0-1 .2-1.7.8-2.3a3 3 0 0 1 2.3-.9l1.5.3 1.1 1Z" fill="#fff"/>
  <path d="m59.5 39.3.1-.1a2 2 0 0 0-1.6-.7 2.1 2.1 0 0 0-1.6.7 2.6 2.6 0 0 0-.6 1.8c0 .7.2 1.3.6 1.7.4.5 1 .7 1.6.7a2.1 2.1 0 0 0 1.6-.7c.4-.4.6-1 .6-1.7s-.2-1.3-.6-1.8v.1h-.2c.4.5.6 1 .6 1.7a2 2 0 0 1-.6 1.5c-.3.4-.8.6-1.4.6a1.9 1.9 0 0 1-1.4-.5A2.2 2.2 0 0 1 56 41c0-.7.2-1.2.6-1.6.3-.4.8-.6 1.4-.6.6 0 1 .2 1.4.6l.1-.1Zm1.1-.1h.1a2.9 2.9 0 0 1 2.5-1.3c1 0 1.7.3 2.2 1 .6.5.8 1.2.8 2a3 3 0 0 1-.8 2.3c-.5.5-1.2.8-2 .8h-.9a2.5 2.5 0 0 1-.6-.3v.1l.4-.7h-.1c.2.2.6.3 1 .3a2.1 2.1 0 0 0 1.7-.7c.4-.4.6-1 .6-1.7s-.2-1.3-.6-1.8a2 2 0 0 0-1.7-.7c-.5 0-1 .2-1.3.4a4.1 4.1 0 0 0-1 1.2v.4h.2-.2a3 3 0 0 1-.7 2.6 2.9 2.9 0 0 1-2.2.9c-1 0-1.7-.3-2.2-.9A3 3 0 0 1 55 41a2.9 2.9 0 0 1 3-3c.5 0 1 0 1.4.3.4.2.8.5 1 1h.4l-.1-.2h.1a3.3 3.3 0 0 0-1.2-1 3.3 3.3 0 0 0-1.5-.4 3.1 3.1 0 0 0-3.3 3.3c0 .9.3 1.7 1 2.3a3 3 0 0 0 2.3 1 3.2 3.2 0 0 0 3.2-3.8v-.4H61l.1.1c.3-.4.6-.8 1-1a1.9 1.9 0 0 1 1.1-.4 2 2 0 0 1 1.5.6c.3.4.5 1 .5 1.6 0 .6-.2 1.2-.5 1.6-.4.3-.8.5-1.5.5-.4 0-.7 0-1-.2l-.5.9v.1l.8.3h1a3 3 0 0 0 2.1-.9c.6-.6.9-1.4.9-2.3 0-1-.3-1.7-.9-2.4a3.1 3.1 0 0 0-2.4-1 3.1 3.1 0 0 0-2.7 1.5Zm1.8 8.5c.3.2.5.3.9.3.3 0 .6 0 .8-.3.3-.3.4-.6.4-1s-.1-.7-.3-1-.5-.4-.9-.4a1 1 0 0 0-.9.4c-.2.3-.3.6-.3 1s.1.7.3 1Zm2.4.5a2 2 0 0 1-1.5.6 2 2 0 0 1-1.5-.6c-.4-.4-.6-1-.6-1.5 0-.6.2-1.1.6-1.5a2 2 0 0 1 1.5-.6c.6 0 1.2.2 1.5.6.4.4.6 1 .6 1.5 0 .6-.2 1-.6 1.5Z" fill="#fff"/>
  <path d="M62.4 47.7c.2.3.5.5.9.5s.7-.2 1-.4c.2-.3.3-.6.3-1 0-.5-.1-.9-.3-1.2-.3-.3-.6-.4-1-.4s-.7.1-1 .4a2 2 0 0 0-.3 1.1c0 .4 0 .8.3 1h.1l.1-.1c-.2-.3-.3-.5-.3-.9s.1-.7.3-.9a1 1 0 0 1 .8-.3c.3 0 .6 0 .8.3l.2 1c0 .3 0 .6-.3.8a1 1 0 0 1-.7.3 1 1 0 0 1-.8-.3Zm2.4.5v-.1c-.4.4-1 .6-1.5.6-.6 0-1-.2-1.4-.6a2 2 0 0 1-.5-1.4c0-.6.1-1 .5-1.5a2 2 0 0 1 1.4-.5 1.9 1.9 0 0 1 1.9 2c0 .6-.1 1-.5 1.4l.1.1h.1c.4-.4.6-.9.6-1.5s-.2-1.1-.6-1.6a2 2 0 0 0-1.6-.7 2 2 0 0 0-1.6.7c-.4.4-.6 1-.6 1.6 0 .6.2 1.2.6 1.6.4.4 1 .7 1.6.7a2.1 2.1 0 0 0 1.6-.7v-.1Zm8.6-6c-.3.6-.6 1-1.1 1.4a4 4 0 0 1-1.8.5c-1 0-1.8-.3-2.4-.9a3.1 3.1 0 0 1-.9-2.3c0-.8.3-1.6 1-2.2.5-.6 1.3-.9 2.3-.9a4 4 0 0 1 1.8.5c.5.4.8.8 1 1.4l-.8.4c-.2-.5-.4-.9-.8-1a2.3 2.3 0 0 0-1.3-.4 2 2 0 0 0-1.6.6c-.3.4-.5 1-.5 1.6 0 .7.2 1.3.6 1.7.4.5 1 .7 1.6.7a2 2 0 0 0 1.2-.4c.4-.2.7-.6.9-1l.8.4Z" fill="#fff"/>
  <path d="M73.3 42.3c-.3.4-.6.9-1.1 1.2-.5.3-1 .5-1.7.5a3 3 0 0 1-2.3-.9 3 3 0 0 1-.8-2.1c0-1 .2-1.6.8-2.2a3 3 0 0 1 2.3-.8 3 3 0 0 1 1.7.4c.5.4.8.8 1 1.3h.1v-.2l-.8.4v.2h.2a2.5 2.5 0 0 0-1-1.2 2.4 2.4 0 0 0-1.3-.4c-.7 0-1.2.2-1.7.7a2.5 2.5 0 0 0-.6 1.7c0 .7.2 1.3.7 1.8.4.5 1 .7 1.6.7a2.4 2.4 0 0 0 2.2-1.5h-.1l.8.5v-.1l.1-.1-.8-.5h-.1v.1c-.3.5-.5.8-.9 1a2 2 0 0 1-1.1.3 2 2 0 0 1-1.5-.6 2.2 2.2 0 0 1-.6-1.6c0-.6.2-1.1.5-1.5a2 2 0 0 1 1.5-.6 2 2 0 0 1 2 1.3v.2l1-.5h.1v-.2a2.8 2.8 0 0 0-1.2-1.4 3.3 3.3 0 0 0-1.8-.5c-1 0-1.9.3-2.5 1-.6.5-1 1.3-.9 2.3 0 .9.3 1.7.9 2.3.6.6 1.4 1 2.5 1 .7 0 1.3-.2 1.8-.6.6-.3 1-.8 1.2-1.4v-.1h-.1ZM71.6 34c0-.2-.2-.4-.4-.5l-.7-.2a1 1 0 0 0-.8.4c-.2.2-.3.6-.3 1 0 .3 0 .7.3.9.1.3.4.5.6.6l-.5.6c-.4-.2-.7-.5-1-.9a2.4 2.4 0 0 1-.3-1.3 2 2 0 0 1 .6-1.5 2 2 0 0 1 1.4-.6c.4 0 .8.1 1 .3.4.1.6.4.8.7l-.7.5Z" fill="#fff"/>
  <path d="M71.6 34h.2l-.5-.5a1.3 1.3 0 0 0-.8-.2c-.4 0-.7.1-1 .4a1.6 1.6 0 0 0-.3 1c0 .4.1.8.3 1l.7.7v-.2l-.5.6v.1l.1-.1-.9-.8a2.2 2.2 0 0 1-.3-1.3c0-.6.2-1 .6-1.4a2 2 0 0 1 2.4-.3l.6.6v-.1l-.6.5.1.2.7-.5v-.2a1.9 1.9 0 0 0-.8-.7 2 2 0 0 0-1-.3 2 2 0 0 0-2.3 2.2c0 .5.2 1 .4 1.4l1 1h.1l.7-.8-.2-.1a1 1 0 0 1-.5-.6 1.5 1.5 0 0 1-.3-.9c0-.3.1-.6.3-.8.2-.2.4-.4.7-.4.3 0 .4 0 .6.2l.4.4.1.2.1-.1V34Zm13 4.1.6-.2h1c.8 0 1.5.2 2 .8.6.5.9 1.3.9 2.3 0 .8-.3 1.6-.9 2.2a3 3 0 0 1-2.3 1 3 3 0 0 1-2.6-1.4 3.1 3.1 0 0 1-2.6 1.3 3 3 0 0 1-2.3-.9 3.2 3.2 0 0 1-.9-2.4c0-.6.2-1.2.4-1.7.3-.5.7-1 1.1-1.3l.6.7a2.7 2.7 0 0 0-.8 1l-.2 1.3c0 .8.2 1.4.6 1.8.3.4.8.7 1.5.7a1.9 1.9 0 0 0 1.5-.7c.4-.5.6-1 .6-1.8a2.7 2.7 0 0 0-1-2.3l.5-.7c.5.3.8.8 1.1 1.3a4 4 0 0 1 .4 2.3l-.1.4c.3.4.6.8 1 1 .3.3.7.5 1.2.5a2 2 0 0 0 1.6-.7c.3-.4.5-1 .5-1.7s-.2-1.2-.5-1.6a2 2 0 0 0-1.5-.7l-1.1.2-.4-.7Z" fill="#fff"/>
  <path d="M84.5 38.1v.1l.7-.2h1c.7 0 1.4.2 2 .8.5.5.7 1.2.7 2.2a3 3 0 0 1-.8 2.1c-.5.6-1.3.9-2.2.9a3 3 0 0 1-1.4-.3 2.8 2.8 0 0 1-1.1-1l-.1-.1-.1.1a3 3 0 0 1-2.5 1.3 3 3 0 0 1-2.2-.9 3 3 0 0 1-.8-2.2c0-.6.1-1.2.4-1.7.2-.6.6-1 1-1.3h-.2l.6.7v-.2l-.8 1c-.2.4-.3 1-.3 1.4 0 .8.2 1.4.6 1.9.5.5 1 .7 1.7.7a2 2 0 0 0 1.6-.7c.4-.5.6-1.1.6-1.9 0-.5 0-1-.3-1.4a2.9 2.9 0 0 0-.8-1v.2l.6-.7h-.2c.5.3.8.8 1 1.3a3.8 3.8 0 0 1 .4 2.2h.2-.2v.4c.3.5.6.9 1 1.2.3.3.8.4 1.3.4a2 2 0 0 0 1.7-.7c.4-.5.6-1 .6-1.8 0-.7-.2-1.3-.6-1.7a2 2 0 0 0-1.7-.7c-.4 0-.8 0-1 .2v.2l.1-.1-.4-.7h-.2l.4 1 .1-.1 1-.2c.6 0 1.1.2 1.4.6.4.3.6.9.6 1.5 0 .7-.2 1.2-.5 1.6a2 2 0 0 1-1.5.6c-.5 0-.8-.1-1.2-.3l-.9-1 .1-.4a4 4 0 0 0-.4-2.3 3.4 3.4 0 0 0-1.1-1.4h-.1l-.7.8v.2c.4.2.6.5.8.9.2.3.2.7.2 1.2 0 .7-.1 1.3-.5 1.7-.3.4-.8.6-1.4.6s-1-.2-1.4-.6a2.5 2.5 0 0 1-.6-1.7 2.6 2.6 0 0 1 1-2.2l-.7-1v.1a3 3 0 0 0-1.2 1.3 4 4 0 0 0-.4 1.9 3 3 0 0 0 1 2.4 3 3 0 0 0 2.3 1 3.2 3.2 0 0 0 2.7-1.4l-.1-.1h-.1a3.1 3.1 0 0 0 2.7 1.5 3.1 3.1 0 0 0 3.3-3.3 3.3 3.3 0 0 0-.9-2.4 3 3 0 0 0-2.2-1l-1 .2c-.3 0-.4 0-.6.2h-.2v.2h.2Zm11.6 4.2c-.2.5-.6 1-1.1 1.3a4 4 0 0 1-1.8.5c-1 0-1.8-.3-2.4-.9a3.1 3.1 0 0 1-.9-2.3c0-.8.3-1.6.9-2.2.6-.6 1.4-.9 2.4-.9a4 4 0 0 1 1.8.5c.5.4.8.8 1 1.4l-.7.4c-.2-.5-.5-.9-.9-1a2.3 2.3 0 0 0-1.2-.4 2 2 0 0 0-1.6.6c-.4.4-.6 1-.6 1.6 0 .7.2 1.3.6 1.7.4.5 1 .7 1.6.7.4 0 .8-.1 1.2-.4s.7-.6.9-1l.8.4Z" fill="#fff"/>
  <path d="M96 42.3c-.3.4-.6.9-1.1 1.2-.5.3-1 .5-1.7.5a3 3 0 0 1-2.3-.9A3 3 0 0 1 90 41c0-1 .2-1.6.8-2.2a3 3 0 0 1 2.3-.8 3 3 0 0 1 1.7.4c.5.4.8.8 1 1.3h.2l-.1-.2-.8.4v.2h.2a2.5 2.5 0 0 0-1-1.2 2.4 2.4 0 0 0-1.3-.4 2 2 0 0 0-1.6.7 2.5 2.5 0 0 0-.7 1.7c0 .7.2 1.3.7 1.8.4.5 1 .7 1.7.7a2.3 2.3 0 0 0 2.2-1.5h-.2l.8.5v-.1l.1-.1-1-.5v.1c-.2.5-.4.8-.8 1a2 2 0 0 1-1.1.3c-.7 0-1.1-.2-1.5-.6A2.2 2.2 0 0 1 91 41c0-.6.2-1.1.5-1.5a2 2 0 0 1 1.5-.6c.5 0 .9 0 1.2.3.4.2.6.6.8 1v.2l1-.5h.1v-.2a2.8 2.8 0 0 0-1.2-1.4 3.3 3.3 0 0 0-1.8-.5c-1 0-1.9.3-2.5 1a3.2 3.2 0 0 0-1 2.3c0 .9.4 1.7 1 2.3.6.6 1.4 1 2.5 1 .7 0 1.3-.2 1.8-.6.6-.3 1-.8 1.2-1.4v-.1H96ZM94.3 34c0-.2-.2-.4-.4-.5l-.7-.2a1 1 0 0 0-.8.4c-.2.2-.3.6-.3 1 0 .3 0 .7.3.9.1.3.3.5.6.6l-.5.6c-.4-.2-.7-.5-1-.9a2.4 2.4 0 0 1-.3-1.3 2 2 0 0 1 .6-1.5 2 2 0 0 1 1.4-.6c.4 0 .8.1 1 .3.4.1.6.4.8.7l-.7.5Z" fill="#fff"/>
  <path d="M94.3 34h.1c0-.2-.3-.4-.5-.5a1.3 1.3 0 0 0-.7-.2c-.4 0-.7.1-1 .4a1.6 1.6 0 0 0-.3 1c0 .4.1.8.3 1 .2.3.4.6.7.7v-.2l-.5.6v.1l.1-.1-.9-.8a2.2 2.2 0 0 1-.3-1.3c0-.6.2-1 .5-1.4a2 2 0 0 1 1.4-.5c.4 0 .7 0 1 .2.3.1.5.4.7.6v-.1l-.7.5h.1l.1.2.8-.6-.1-.1a1.9 1.9 0 0 0-.8-.7 2 2 0 0 0-1-.3c-.7 0-1.2.2-1.6.6a2 2 0 0 0-.7 1.6 2.6 2.6 0 0 0 1.4 2.3h.1l.7-.7-.2-.1a1 1 0 0 1-.5-.6 1.5 1.5 0 0 1-.3-.9c0-.3.1-.6.3-.8a.9.9 0 0 1 .7-.4c.2 0 .4 0 .6.2l.4.4.1.2.1-.1V34Zm3.5 8.5a.6.6 0 0 0-.2.4l.1.5.5.1.4-.1a.6.6 0 0 0 .2-.5.6.6 0 0 0-.6-.6.6.6 0 0 0-.4.2Zm0-3.8a.6.6 0 0 0-.2.4l.1.5.5.1.4-.1.2-.5a.6.6 0 0 0-.2-.4.6.6 0 0 0-.4-.2.6.6 0 0 0-.4.2Zm-.5 5.1a1.2 1.2 0 0 1-.4-.9c0-.4.2-.6.4-.9.2-.2.5-.3.9-.3l.9.3c.2.3.3.5.3 1 0 .3 0 .6-.3.8-.3.2-.6.3-1 .3-.3 0-.6 0-.8-.3Zm0-3.8c-.2-.2-.4-.5-.4-.9 0-.3.2-.6.4-.9.2-.2.5-.3.9-.3l.9.3c.2.3.3.5.3 1 0 .3 0 .6-.3.8-.3.2-.6.3-1 .3-.3 0-.6 0-.8-.3Z" fill="#fff"/>
  <path d="m97.8 42.5-.1-.1a.7.7 0 0 0-.2.5c0 .2 0 .4.2.6l.5.2.5-.2a.7.7 0 0 0 .2-.6.7.7 0 0 0-.2-.5.7.7 0 0 0-.5-.2.7.7 0 0 0-.5.2l.2.2a.5.5 0 0 1 .3-.1h.3l.2.4c0 .2 0 .3-.2.4h.1a.5.5 0 0 1-.4 0h-.4v-.8Zm0-3.8-.1-.1a.7.7 0 0 0-.2.5c0 .2 0 .4.2.6l.5.2a.7.7 0 0 0 .7-.8.7.7 0 0 0-.7-.7c-.2 0-.4 0-.5.2l.2.2.3-.1h.3l.2.4c0 .2 0 .3-.2.4a.5.5 0 0 1-.3 0h-.4v-.8Zm-.5 5.1-.2-.9c0-.3 0-.6.3-.8.2-.2.4-.3.8-.3.3 0 .6.2.8.3.2.2.3.5.3.8a1 1 0 0 1-.3.8c-.2.2-.5.3-.8.3-.4 0-.6-.1-.8-.3l-.1.1-.1.1c.2.3.6.4 1 .4s.7-.2 1-.4c.2-.2.4-.6.4-1s-.2-.7-.4-1c-.3-.2-.6-.3-1-.3s-.8.1-1 .3-.4.6-.4 1 .1.8.4 1Zm0-3.8-.2-.9c0-.3 0-.6.3-.8l.8-.2c.3 0 .6 0 .8.2a1 1 0 0 1 .3.8c0 .4-.1.6-.3.8-.2.2-.5.3-.8.3-.4 0-.6-.1-.8-.3l-.1.1-.1.1c.2.3.6.4 1 .4s.7-.2 1-.4c.2-.2.4-.6.4-1s-.2-.7-.4-1c-.3-.2-.6-.3-1-.3s-.8.1-1 .3c-.3.3-.4.6-.4 1s.1.8.4 1Zm10.4 3c.3.2.6.3 1 .3a2 2 0 0 0 1.6-.6c.3-.4.5-1 .5-1.7s-.2-1.3-.5-1.7a2 2 0 0 0-1.6-.6 2 2 0 0 0-1.2.4c-.4.2-.7.6-1 1v.4a3.8 3.8 0 0 1-.3 2.4c-.3.5-.6 1-1 1.2l-.6-.7a2.8 2.8 0 0 0 1-2.3c0-.7-.2-1.3-.6-1.8a2 2 0 0 0-1.5-.6 2 2 0 0 0-1.5.6 2.6 2.6 0 0 0-.6 1.8c0 .5 0 1 .3 1.3.1.4.4.7.7 1l-.6.7a3.1 3.1 0 0 1-1-1.2 4 4 0 0 1-.4-1.8c0-1 .3-1.8.9-2.4a3 3 0 0 1 2.2-.9l1.5.3c.4.3.8.6 1 1a3 3 0 0 1 2.7-1.3A3 3 0 0 1 112 41a3.2 3.2 0 0 1-.9 2.3 2.8 2.8 0 0 1-2 .8 5.2 5.2 0 0 1-1 0 2.6 2.6 0 0 1-.7-.3l.4-.7Z" fill="#fff"/>
  <path d="M107.7 43v.2l1 .2a2 2 0 0 0 1.7-.7c.4-.4.6-1 .6-1.7s-.2-1.3-.7-1.8a2 2 0 0 0-1.6-.7c-.5 0-1 .2-1.3.5-.4.2-.7.6-1 1v.6h.2-.1a4.2 4.2 0 0 1-.4 2.2c-.3.5-.6 1-1 1.2v.1h.1l-.5-.8h-.1v.2c.4-.3.7-.6.8-1 .2-.4.3-.9.3-1.4 0-.8-.2-1.4-.6-1.9a2 2 0 0 0-1.6-.7 2 2 0 0 0-1.6.7c-.4.5-.6 1.1-.6 1.9 0 .5 0 1 .2 1.4l.8 1v-.2l-.6.7.1.1V44a3 3 0 0 1-1-1.2 3.8 3.8 0 0 1-.3-1.7c0-1 .3-1.7.8-2.3a2.9 2.9 0 0 1 2.2-.8c.5 0 1 0 1.4.3a3 3 0 0 1 1 1h.4a2.9 2.9 0 0 1 2.5-1.3 2.9 2.9 0 0 1 3 3 3 3 0 0 1-.8 2.2c-.5.5-1.2.8-2 .8h-.9a2.5 2.5 0 0 1-.6-.3v.1l.4-.7h-.2l-.4.7v.1l.8.3a5 5 0 0 0 1 0 3 3 0 0 0 2.1-.9c.6-.5.9-1.4.9-2.3a3.1 3.1 0 0 0-3.3-3.3A3.1 3.1 0 0 0 106 39h.2a3.3 3.3 0 0 0-1.2-1 3.3 3.3 0 0 0-1.5-.4 3.2 3.2 0 0 0-2.3 1 3.3 3.3 0 0 0-1 2.4c0 .7.2 1.3.5 1.8.2.6.6 1 1 1.3h.1l.8-.8-.1-.1a2.4 2.4 0 0 1-.7-1 3 3 0 0 1-.3-1.2c0-.7.2-1.3.6-1.7.3-.4.8-.6 1.4-.6s1 .2 1.4.6c.4.4.6 1 .6 1.7 0 .5-.1 1-.3 1.3l-.7.9h-.1l.7.9h.1c.5-.3.8-.7 1.1-1.2a3.9 3.9 0 0 0 .4-2.5V40h-.2l.1.1a4 4 0 0 1 1-1c.3-.3.7-.4 1.1-.4.6 0 1 .2 1.5.6.3.4.5 1 .5 1.6 0 .7-.2 1.2-.5 1.6-.4.4-.8.5-1.4.5-.4 0-.8 0-1-.2h-.2v.1Zm.5-7.2c.2.2.5.4.8.4.4 0 .7-.2.9-.4.2-.3.3-.6.3-1s-.1-.7-.3-1a1 1 0 0 0-.9-.4 1 1 0 0 0-.8.4c-.2.3-.3.6-.3 1s0 .7.3 1Zm2.3.5a2 2 0 0 1-1.5.6 2 2 0 0 1-1.5-.6 2.2 2.2 0 0 1-.6-1.5c0-.6.2-1.1.6-1.5a1.9 1.9 0 0 1 1.5-.7 2 2 0 0 1 1.6.7c.3.4.5 1 .5 1.5a2 2 0 0 1-.6 1.5Z" fill="#fff"/>
  <path d="M108.2 35.8h-.1c.2.3.5.5 1 .5.3 0 .6-.2.9-.4.2-.3.3-.7.3-1 0-.5 0-.9-.3-1.2a1.2 1.2 0 0 0-1-.4c-.4 0-.7.1-1 .4a2 2 0 0 0-.3 1.1c0 .4.1.8.4 1l.2-.1a1.4 1.4 0 0 1-.3-.9c0-.4 0-.7.3-1a.9.9 0 0 1 .7-.3c.4 0 .6.1.8.4.2.2.3.6.3 1 0 .3-.1.6-.3.8a1 1 0 0 1-.8.3 1 1 0 0 1-.7-.3h-.1Zm2.3.5c-.4.3-.9.5-1.5.5a1.8 1.8 0 0 1-1.4-.6 2 2 0 0 1-.5-1.4c0-.6.2-1 .5-1.4a1.8 1.8 0 0 1 1.4-.6 2 2 0 0 1 1.5.6c.3.4.5.9.5 1.4 0 .6-.2 1-.6 1.4l.1.1.1.1c.4-.4.6-1 .6-1.6a3 3 0 0 0-.5-1.6 2 2 0 0 0-1.7-.7 2 2 0 0 0-1.6.7 2.5 2.5 0 0 0 0 3.2c.4.4 1 .6 1.6.6.7 0 1.2-.2 1.6-.6v-.1Zm-2.2 8.3h1v4h1.4v.7h-2.4v-4.7Z" fill="#fff"/>
  <path d="M108.3 44.5v.2h.9v4h1.4v.4h-2.2v-4.6h-.2v5h2.7v-1.1h-1.5v-4h-1.2v.2h.1Zm11-1.2a2.2 2.2 0 0 0-.6-1.6c-.4-.4-1-.7-1.6-.7 0 .7.2 1.3.5 1.7.4.4.9.6 1.5.6h.3Zm1.9-2.3a2.5 2.5 0 0 0-.6-1.7 1.9 1.9 0 0 0-1.5-.7c-.5 0-1 .2-1.3.5a2 2 0 0 0-.6 1c1 .2 1.7.5 2.3 1.2.5.6.8 1.5.8 2.6a4.4 4.4 0 0 1-1.2.2c-1 0-1.7-.3-2.2-.9a3.2 3.2 0 0 1-.9-2.2c0-.6.2-1.2.4-1.7.3-.5.7-.8 1.1-1.1a3 3 0 0 1 1.6-.4 3 3 0 0 1 1.6.4c.5.3.8.6 1 1.1.4.5.5 1 .5 1.7v7.5h1.4v.8h-2.4V41Z" fill="#fff"/>
  <path d="M119.4 43.3h.1a2.3 2.3 0 0 0-.7-1.7 2.8 2.8 0 0 0-1.7-.7h-.2c0 .8.2 1.4.6 1.9.4.4 1 .6 1.6.6h.4v-.1h-.1V43h-.2v.2-.2c-.7 0-1.1-.2-1.5-.5-.3-.4-.5-1-.5-1.6h-.1v.1c.6 0 1 .3 1.5.7.4.3.6.8.6 1.5h.2Zm1.8-2.3h.1c0-.7-.2-1.3-.6-1.8a2 2 0 0 0-1.6-.7 2.1 2.1 0 0 0-1.3.5c-.4.3-.6.7-.8 1.2v.1h.2a3.2 3.2 0 0 1 2.2 1c.5.7.8 1.5.8 2.6h.1v-.1a4.1 4.1 0 0 1-1.2.2c-1 0-1.6-.3-2.1-.9a3 3 0 0 1-.8-2.1c0-.6.1-1.1.3-1.6.3-.5.6-.8 1-1a3 3 0 0 1 1.6-.5 3 3 0 0 1 1.5.4c.5.3.8.6 1 1.1.3.5.5 1 .5 1.6v7.7h1.4v.5h-2.2V41h-.2v8.4h2.6v-1h-1.4V41c0-.6-.1-1.2-.4-1.7a2.9 2.9 0 0 0-1.1-1.2 3.3 3.3 0 0 0-1.7-.4c-.6 0-1.2.1-1.6.4s-1 .7-1.2 1.2a3.5 3.5 0 0 0-.4 1.7c0 1 .3 1.7.9 2.3a3 3 0 0 0 2.3 1 3.5 3.5 0 0 0 1.3-.3 4 4 0 0 0-.8-2.8 3.5 3.5 0 0 0-2.4-1.1v.1a2 2 0 0 1 .7-1c.3-.3.7-.4 1.2-.4.6 0 1 .2 1.4.6.4.4.6 1 .6 1.6Zm9.1-2.9.7-.2h.9c.9 0 1.6.2 2.1.8.6.5.8 1.3.8 2.3a3 3 0 0 1-.8 2.2 3 3 0 0 1-2.3 1 3 3 0 0 1-2.6-1.4 3.1 3.1 0 0 1-2.6 1.3 3 3 0 0 1-2.3-.9 3.2 3.2 0 0 1-.9-2.4c0-.6.2-1.2.4-1.7a3.4 3.4 0 0 1 1.1-1.3l.6.7a2.7 2.7 0 0 0-.8 1c-.2.4-.2.8-.2 1.3 0 .8.2 1.4.5 1.8.4.4 1 .7 1.6.7a1.9 1.9 0 0 0 1.5-.7c.4-.5.6-1 .6-1.8a2.7 2.7 0 0 0-1-2.3l.5-.7c.5.3.8.8 1.1 1.3a4 4 0 0 1 .4 2.3l-.1.4c.3.4.6.8 1 1 .3.3.7.5 1.2.5a2 2 0 0 0 1.6-.7c.3-.4.5-1 .5-1.7s-.2-1.2-.6-1.6a2 2 0 0 0-1.4-.7l-1.1.2-.4-.7Z" fill="#fff"/>
  <path d="M130.3 38.1v.1l.7-.2h.9c.8 0 1.5.2 2 .8.6.5.8 1.2.8 2.2a3 3 0 0 1-.8 2.1c-.5.6-1.3.9-2.2.9a3 3 0 0 1-1.4-.3 2.9 2.9 0 0 1-1.1-1l-.1-.1-.1.1a3 3 0 0 1-2.5 1.3 3 3 0 0 1-2.2-.9 3 3 0 0 1-.8-2.2c0-.6.1-1.2.4-1.7.2-.6.6-1 1-1.3h-.2l.6.7v-.2l-.8 1c-.2.4-.3 1-.3 1.4 0 .8.2 1.4.6 1.9.4.5 1 .7 1.7.7a2 2 0 0 0 1.6-.7c.4-.5.6-1.1.6-1.9 0-.5-.1-1-.3-1.4a2.8 2.8 0 0 0-.8-1v.2l.6-.7h-.2c.5.3.8.8 1 1.3a3.8 3.8 0 0 1 .4 2.2h.2-.2v.4c.3.5.6.9 1 1.2.3.3.8.4 1.3.4a2 2 0 0 0 1.7-.7c.4-.5.6-1 .6-1.8 0-.7-.2-1.3-.6-1.7a2 2 0 0 0-1.6-.7c-.5 0-.9 0-1.2.2v.2l.2-.1-.4-.7h-.2l.4.8v.1h.1l1-.2c.6 0 1 .2 1.4.6.4.3.6.9.6 1.5 0 .7-.2 1.2-.5 1.6a2 2 0 0 1-1.5.6c-.5 0-.8-.1-1.2-.3l-.9-1h-.1.1v-.4a4 4 0 0 0-.3-2.3 3.4 3.4 0 0 0-1.1-1.4h-.1l-.7.9a2.6 2.6 0 0 1 1 2.2c0 .7-.1 1.3-.5 1.7-.4.4-.8.6-1.4.6s-1.1-.2-1.5-.6a2.5 2.5 0 0 1-.5-1.7 3 3 0 0 1 .3-1.2c.1-.4.4-.7.7-1l-.7-1v.1a3 3 0 0 0-1.2 1.3 4 4 0 0 0-.4 1.9 3 3 0 0 0 1 2.4 3.1 3.1 0 0 0 2.3 1 3.2 3.2 0 0 0 2.7-1.4l-.1-.1h-.1c.3.5.7.9 1.1 1 .5.3 1 .4 1.6.4A3.1 3.1 0 0 0 135 41a3.3 3.3 0 0 0-.9-2.4 3 3 0 0 0-2.2-1l-1 .2c-.2 0-.4 0-.7.2v.2h.1Zm4.3 11.2h-2.4v-4.8h1v4h1.4v.8Zm-4.2-4.8h1v4.8h-1v-4.7Z" fill="#fff"/>
  <path d="M134.6 49.3v-.1h-2.2v-4.5h.7v4h1.4v.6h.3v-1h-1.5v-3.9h-1.2v5h2.7v-.1h-.2Zm-4.2-4.8v.2h.9v4.5h-.8v-4.6h-.2v4.8h1.2v-5h-1.2v.1Zm10.2-6.7c.5.3.8.8 1.1 1.3.3.6.5 1.1.5 1.7a3.1 3.1 0 0 1-3.3 3.3 3.1 3.1 0 0 1-3.2-3.3c0-.6.2-1.2.4-1.7.3-.5.7-1 1.1-1.3l.6.7a2.7 2.7 0 0 0-.8 1l-.2 1.3c0 .8.2 1.4.6 1.8.4.4.9.7 1.5.7a2 2 0 0 0 1.6-.7c.4-.4.6-1 .6-1.8a2.7 2.7 0 0 0-1-2.3l.5-.7Z" fill="#fff"/>
  <path d="M140.6 37.8v.1c.4.3.7.7 1 1.3.3.5.4 1 .4 1.6a3 3 0 0 1-.9 2.3 3 3 0 0 1-2.2.9 3 3 0 0 1-3-3.2c0-.6.1-1.1.4-1.6.2-.6.6-1 1-1.3h-.2l.6.7v-.2c-.4.3-.6.6-.8 1-.2.4-.3 1-.3 1.4 0 .8.2 1.4.7 1.9.4.5 1 .7 1.6.7.7 0 1.3-.2 1.7-.7.4-.5.6-1.1.6-1.9a2.8 2.8 0 0 0-1.1-2.4v.2l.6-.7h-.1l-.1-.2-.6.7v.2a2.6 2.6 0 0 1 1 2.2c0 .7-.1 1.3-.5 1.7-.4.4-.8.6-1.5.6-.6 0-1-.2-1.4-.6a2.4 2.4 0 0 1-.6-1.7c0-.5 0-.9.2-1.2.2-.4.4-.7.8-1l-.7-1v.1A3 3 0 0 0 136 39a4 4 0 0 0-.4 1.8 3.2 3.2 0 0 0 3.3 3.4 3.2 3.2 0 0 0 3.4-3.4 4 4 0 0 0-.5-1.7 3.5 3.5 0 0 0-1.1-1.4h-.2v.1Z" fill="#fff"/>
  <path d="M143.4 44v-8.8c0-.6-.1-1-.4-1.3-.2-.4-.5-.5-1-.5-.4 0-.7.1-1 .4-.2.3-.3.7-.3 1.3v.2h-1V35c0-.7.2-1.4.6-1.8.5-.4 1-.7 1.7-.7a2 2 0 0 1 1.7.8c.4.4.6 1 .6 2V44h-1Z" fill="#fff"/>
  <path d="M143.4 44h.1v-8.8c0-.6-.1-1-.3-1.4-.3-.4-.7-.5-1.2-.5-.4 0-.8.1-1 .4a2 2 0 0 0-.5 1.4h-.7c0-.7.2-1.3.6-1.7a2 2 0 0 1 1.6-.6 2 2 0 0 1 1.6.6c.4.5.6 1.1.6 2v8.5h-.8v.2h1v-8.8a3.1 3.1 0 0 0-.6-2 2.3 2.3 0 0 0-1.8-.8c-.7 0-1.3.2-1.8.7a2.6 2.6 0 0 0-.6 1.9v.3h1.2v-.3c0-.6.1-1 .3-1.2.3-.3.5-.4 1-.4.3 0 .6.2.8.4.2.3.3.7.3 1.3v9h.2V44Z" fill="#fff"/>
</svg>
