<svg width="180" height="54" fill="none" xmlns="http://www.w3.org/2000/svg">
  <path d="M173.33 54H6.67A6.73 6.73 0 0 1 0 47.25V6.75C0 3.04 3 0 6.67 0h166.66A6.73 6.73 0 0 1 180 6.75v40.5c0 3.71-3 6.75-6.67 6.75Z" fill="#000"/>
  <path d="m27.63 26.22-14.2 15.26a3.84 3.84 0 0 0 5.65 2.35l.05-.03 15.97-9.33-7.48-8.25Z" fill="#EA4335"/>
  <path d="m41.98 23.63-.01-.02-6.9-4.05-7.77 7 7.8 7.9 6.86-4a3.89 3.89 0 0 0 2.02-3.43c0-1.47-.8-2.75-2-3.4Z" fill="#FBBC04"/>
  <path d="M13.43 12.52a3.7 3.7 0 0 0-.13 1v26.96c0 .35.04.68.13 1L28.1 26.62l-14.68-14.1Z" fill="#4285F4"/>
  <path d="m27.73 27 7.34-7.44-15.96-9.37a3.85 3.85 0 0 0-5.69 2.33L27.73 27Z" fill="#34A853"/>
  <path d="M131.52 26.67h2.17V12.1h-2.17v14.57Zm19.59-9.32-2.5 6.31h-.07l-2.59-6.31h-2.34l3.88 8.82-2.21 4.91h2.26l5.99-13.73h-2.42ZM138.77 25c-.7 0-1.7-.35-1.7-1.24 0-1.12 1.24-1.55 2.3-1.55.96 0 1.4.2 1.99.49a2.64 2.64 0 0 1-2.59 2.3Zm.27-7.98c-1.58 0-3.2.69-3.88 2.23l1.93.8c.4-.8 1.18-1.07 1.98-1.07 1.13 0 2.27.68 2.29 1.88v.15a4.8 4.8 0 0 0-2.27-.56c-2.08 0-4.2 1.14-4.2 3.28 0 1.95 1.7 3.2 3.62 3.2 1.46 0 2.27-.65 2.78-1.42h.07v1.12h2.1v-5.58c0-2.59-1.93-4.03-4.42-4.03Zm-13.44 2.09h-3.1v-5h3.1a2.52 2.52 0 0 1 2.55 2.5c0 1.13-.93 2.5-2.55 2.5Zm-.06-7.02h-5.21v14.57h2.17v-5.52h3.04c2.41 0 4.78-1.75 4.78-4.53 0-2.78-2.37-4.52-4.78-4.52ZM97.13 25c-1.5 0-2.76-1.25-2.76-2.98 0-1.75 1.25-3.02 2.76-3.02 1.48 0 2.64 1.27 2.64 3.02 0 1.73-1.16 2.98-2.64 2.98Zm2.5-6.85h-.08a3.43 3.43 0 0 0-2.61-1.1 4.93 4.93 0 0 0-4.75 4.97 4.9 4.9 0 0 0 4.75 4.94c1.18 0 2.12-.53 2.6-1.13h.08v.71c0 1.9-1.01 2.91-2.64 2.91a2.74 2.74 0 0 1-2.5-1.76l-1.9.79c.55 1.31 2 2.93 4.4 2.93 2.55 0 4.7-1.5 4.7-5.17v-8.9h-2.06v.81Zm3.56 8.5h2.18V12.1h-2.18v14.57Zm5.39-4.8a2.72 2.72 0 0 1 2.59-2.9c.86 0 1.6.44 1.84 1.06l-4.43 1.84Zm6.76-1.65c-.42-1.11-1.67-3.16-4.25-3.16-2.55 0-4.67 2.01-4.67 4.96 0 2.78 2.1 4.96 4.92 4.96a4.93 4.93 0 0 0 4.13-2.2l-1.69-1.13a2.83 2.83 0 0 1-2.44 1.37c-1.1 0-1.9-.5-2.4-1.5l6.62-2.74-.22-.56Zm-52.8-1.64v2.1h5.03a4.39 4.39 0 0 1-1.15 2.65 5.15 5.15 0 0 1-3.89 1.54c-3.1 0-5.52-2.5-5.52-5.6a5.52 5.52 0 0 1 9.32-4.08l1.48-1.49a7.34 7.34 0 0 0-5.28-2.12 7.8 7.8 0 0 0-7.8 7.7 7.8 7.8 0 0 0 7.8 7.7c2.3 0 4.02-.75 5.37-2.16a6.95 6.95 0 0 0 1.82-4.92c0-.49-.03-.94-.1-1.32h-7.09ZM75.44 25c-1.5 0-2.8-1.23-2.8-3 0-1.78 1.3-3 2.8-3 1.5 0 2.8 1.22 2.8 3 0 1.77-1.3 3-2.8 3Zm0-7.96A4.89 4.89 0 0 0 70.47 22a4.9 4.9 0 0 0 4.98 4.96A4.9 4.9 0 0 0 80.42 22a4.89 4.89 0 0 0-4.97-4.96ZM86.3 25c-1.5 0-2.8-1.23-2.8-3 0-1.78 1.3-3 2.8-3 1.5 0 2.8 1.22 2.8 3 0 1.77-1.3 3-2.8 3Zm0-7.96A4.89 4.89 0 0 0 81.32 22a4.9 4.9 0 0 0 4.98 4.96A4.9 4.9 0 0 0 91.28 22a4.89 4.89 0 0 0-4.98-4.96ZM59.53 39.3a1.92 1.92 0 0 0-1.52-.65c-.65 0-1.16.21-1.54.64-.38.42-.57.99-.57 1.7 0 .7.2 1.25.6 1.66a2 2 0 0 0 1.5.62c.63 0 1.14-.2 1.52-.63.38-.43.57-.98.57-1.66 0-.7-.19-1.26-.56-1.69Zm1.07-.15a3.02 3.02 0 0 1 2.61-1.34c.97 0 1.74.3 2.3.92.57.6.85 1.35.85 2.23a3.2 3.2 0 0 1-.83 2.3c-.55.57-1.26.85-2.12.85-.34 0-.64-.02-.9-.07a2.62 2.62 0 0 1-.7-.22l.37-.75c.29.14.65.2 1.07.2.64 0 1.14-.2 1.52-.62.37-.42.56-.98.56-1.67 0-.68-.19-1.24-.56-1.67a1.92 1.92 0 0 0-1.54-.65c-.5 0-.93.13-1.28.4-.34.26-.65.63-.93 1.09l.07.37.03.49a3.03 3.03 0 0 1-3.16 3.1c-.93 0-1.68-.3-2.25-.9a3.15 3.15 0 0 1-.84-2.25c0-.9.28-1.64.85-2.24.56-.6 1.32-.9 2.28-.9.53 0 1.02.1 1.46.32.43.22.81.56 1.14 1Z" fill="#fff"/>
  <path d="m59.53 39.3.1-.1c-.4-.46-.95-.69-1.62-.68a2.1 2.1 0 0 0-1.64.68 2.6 2.6 0 0 0-.6 1.78c0 .73.2 1.33.63 1.77.41.44.96.66 1.6.66a2.1 2.1 0 0 0 1.62-.68c.4-.45.6-1.04.6-1.75 0-.72-.2-1.32-.6-1.78l-.1.1-.1.08c.36.4.54.93.54 1.6 0 .66-.18 1.17-.54 1.57-.36.4-.82.59-1.42.6a1.88 1.88 0 0 1-1.41-.59 2.2 2.2 0 0 1-.56-1.58c0-.68.19-1.2.54-1.6.36-.4.82-.6 1.44-.6.6 0 1.07.2 1.42.6l.1-.09Zm1.07-.15.1.07a2.89 2.89 0 0 1 2.51-1.27c.95 0 1.67.29 2.2.87.55.58.81 1.29.82 2.14a3 3 0 0 1-.8 2.2c-.52.55-1.18.82-2.02.82-.34 0-.63-.02-.87-.07a2.48 2.48 0 0 1-.67-.21l-.05.12.12.06.36-.75-.12-.06-.06.12c.32.15.7.22 1.13.22a2.1 2.1 0 0 0 1.62-.67c.4-.45.6-1.04.6-1.76 0-.7-.2-1.3-.6-1.76-.4-.46-.96-.7-1.64-.7-.53 0-.99.15-1.36.43a4.1 4.1 0 0 0-.97 1.13l-.02.04.07.43.14-.03-.14.03a2.93 2.93 0 0 1-.79 2.57 2.9 2.9 0 0 1-2.2.86c-.9 0-1.61-.29-2.15-.86a3.02 3.02 0 0 1-.8-2.16 2.85 2.85 0 0 1 3-3.02c.5 0 .97.11 1.39.32.41.21.78.53 1.09.96l.11.16.1-.16-.1-.07.1-.08a3.28 3.28 0 0 0-1.19-1.05 3.32 3.32 0 0 0-1.5-.34 3.11 3.11 0 0 0-3.27 3.28c0 .94.29 1.73.88 2.35.58.62 1.38.94 2.34.93a3.17 3.17 0 0 0 3.26-3.74l-.07-.38-.13.03.11.07c.28-.45.58-.8.9-1.06a1.9 1.9 0 0 1 1.2-.37c.62 0 1.09.2 1.44.6.35.41.53.94.53 1.6 0 .66-.18 1.18-.53 1.57-.35.39-.81.58-1.42.58-.41 0-.75-.06-1.01-.2l-.12-.05-.42.87-.06.12.12.06c.23.11.47.19.74.24.26.04.56.06.91.06.9 0 1.64-.3 2.22-.9.58-.6.86-1.4.86-2.38 0-.9-.3-1.7-.88-2.32a3.12 3.12 0 0 0-2.4-.96 3.15 3.15 0 0 0-2.72 1.4l.1.07Zm1.83 8.52c.22.25.5.38.87.38.34 0 .62-.13.84-.37.22-.24.33-.56.33-.94 0-.4-.1-.74-.31-1.01s-.5-.4-.86-.4c-.37 0-.66.13-.87.39-.22.26-.32.6-.32 1 0 .38.1.7.32.95Zm2.38.53c-.37.4-.89.62-1.54.62-.62 0-1.12-.21-1.5-.62-.37-.4-.55-.91-.55-1.52 0-.6.18-1.1.56-1.52.37-.4.88-.6 1.5-.6.66 0 1.18.2 1.54.64.37.43.55.94.55 1.53 0 .56-.18 1.05-.56 1.47Z" fill="#fff"/>
  <path d="m62.43 47.67-.1.08c.24.29.58.43.97.43.37 0 .7-.14.94-.41.24-.27.36-.62.36-1.03 0-.43-.11-.8-.34-1.1-.23-.3-.56-.45-.96-.45-.4 0-.74.15-.98.44-.23.3-.34.66-.34 1.1 0 .4.11.75.35 1.02l.1-.08.1-.09c-.19-.23-.29-.5-.29-.86 0-.39.1-.68.29-.92a.93.93 0 0 1 .77-.34c.33 0 .57.12.75.35.19.24.28.55.28.93 0 .36-.1.63-.29.85a.94.94 0 0 1-.74.32.95.95 0 0 1-.77-.33l-.1.09Zm2.38.53-.1-.1c-.35.39-.82.58-1.44.58-.6 0-1.05-.19-1.4-.57a2.03 2.03 0 0 1-.52-1.43c0-.57.18-1.04.53-1.43.35-.37.8-.56 1.4-.56.64 0 1.1.2 1.44.6.35.4.52.88.52 1.44 0 .53-.17.98-.53 1.38l.1.09.1.08c.4-.43.6-.96.6-1.55 0-.62-.2-1.17-.59-1.62-.39-.46-.95-.7-1.63-.69-.66 0-1.21.22-1.6.65-.4.44-.6.98-.6 1.61 0 .64.2 1.18.59 1.61.4.44.94.66 1.59.66a2.1 2.1 0 0 0 1.64-.67l-.1-.08Zm8.54-5.93c-.2.55-.57 1-1.08 1.33-.53.34-1.12.51-1.8.51-1.02 0-1.81-.3-2.38-.9a3.14 3.14 0 0 1-.86-2.26c0-.9.3-1.64.88-2.24.58-.6 1.37-.9 2.36-.9.68 0 1.27.17 1.8.52.51.34.88.78 1.08 1.33l-.8.4c-.2-.46-.48-.82-.85-1.05a2.26 2.26 0 0 0-1.25-.36c-.67 0-1.2.21-1.6.64-.4.42-.6.97-.6 1.65 0 .67.21 1.23.63 1.67.4.44.93.66 1.57.66.47 0 .89-.11 1.25-.35.37-.24.65-.6.86-1.06l.79.4Z" fill="#fff"/>
  <path d="m73.35 42.27-.13-.05c-.19.52-.53.94-1.03 1.27-.5.32-1.07.49-1.72.49a3 3 0 0 1-2.29-.86 3 3 0 0 1-.82-2.17c0-.87.28-1.57.84-2.15a3 3 0 0 1 2.27-.85c.65 0 1.22.16 1.72.49.5.33.84.74 1.03 1.27l.13-.05-.06-.12-.8.4.07.13.12-.06a2.45 2.45 0 0 0-.9-1.12 2.4 2.4 0 0 0-1.33-.37c-.7 0-1.28.22-1.7.67a2.46 2.46 0 0 0-.62 1.75c0 .7.21 1.3.65 1.76.43.47 1 .71 1.67.7.5 0 .94-.12 1.33-.37.39-.25.69-.63.9-1.12l-.12-.05-.06.12.79.4.06-.11.06-.12-.79-.41-.13-.07-.05.14c-.2.44-.47.77-.81 1-.35.22-.73.33-1.18.33-.6 0-1.09-.2-1.48-.62a2.22 2.22 0 0 1-.58-1.58c0-.65.19-1.17.56-1.56.37-.4.86-.6 1.5-.6a2.07 2.07 0 0 1 1.98 1.34l.06.13.92-.47.1-.05-.04-.11a2.82 2.82 0 0 0-1.13-1.4 3.34 3.34 0 0 0-1.87-.54c-1.02 0-1.85.31-2.46.94-.6.62-.92 1.4-.91 2.33 0 .94.3 1.73.89 2.36.6.62 1.44.94 2.48.93.7 0 1.32-.17 1.87-.53.54-.35.92-.82 1.13-1.4l.05-.1-.1-.06-.07.12Zm-1.71-8.21c-.12-.2-.28-.36-.46-.48-.2-.12-.4-.18-.64-.18-.37 0-.66.13-.86.39-.2.25-.3.56-.3.93 0 .4.09.73.27.98.19.26.4.46.62.61l-.5.6c-.38-.21-.7-.5-.94-.88a2.36 2.36 0 0 1-.36-1.31 2 2 0 0 1 .59-1.52c.39-.37.88-.56 1.47-.56.38 0 .73.08 1.04.24.3.16.54.39.72.68l-.65.5Z" fill="#fff"/>
  <path d="m71.64 34.06.11-.07c-.13-.22-.3-.4-.5-.52a1.3 1.3 0 0 0-.71-.2c-.4 0-.74.15-.96.43a1.6 1.6 0 0 0-.34 1.02c0 .42.1.78.3 1.06.2.27.41.48.65.64l.08-.1-.1-.1-.5.6.1.09.06-.12c-.36-.2-.66-.48-.89-.83a2.22 2.22 0 0 1-.34-1.24c0-.61.19-1.07.55-1.42.36-.35.81-.52 1.38-.52.37 0 .69.07.98.22.28.15.5.36.66.63l.12-.07-.08-.1-.65.5.08.1.08.1.65-.5.1-.06-.07-.1a1.9 1.9 0 0 0-.77-.74c-.33-.17-.7-.25-1.1-.25a2.08 2.08 0 0 0-2.19 2.21c0 .52.12.98.38 1.38.25.4.58.7.98.92l.1.06.66-.8-.12-.08c-.2-.14-.4-.33-.58-.58a1.5 1.5 0 0 1-.25-.9c0-.34.1-.62.28-.85.17-.22.4-.33.75-.33.21 0 .4.05.56.15.17.11.31.25.42.44l.08.13.12-.1-.08-.1Zm12.87 4.04c.22-.1.45-.18.7-.22.25-.04.55-.07.9-.07.86 0 1.57.29 2.12.86.55.57.82 1.34.82 2.3 0 .88-.28 1.62-.84 2.23a3 3 0 0 1-2.3.91 2.98 2.98 0 0 1-2.62-1.33 3.1 3.1 0 0 1-2.61 1.33c-.9 0-1.65-.3-2.25-.91a3.22 3.22 0 0 1-.89-2.35c0-.62.14-1.2.4-1.75.26-.54.62-.97 1.06-1.29l.58.73a2.7 2.7 0 0 0-.75.96c-.17.38-.26.82-.26 1.33 0 .74.2 1.34.58 1.78.38.43.89.65 1.53.65a1.9 1.9 0 0 0 1.53-.66c.38-.45.56-1.04.56-1.77a2.69 2.69 0 0 0-1.03-2.3l.58-.72c.46.32.82.76 1.09 1.32a3.95 3.95 0 0 1 .36 2.26l-.07.4c.3.44.62.8.97 1.07.34.27.76.4 1.25.4.65 0 1.16-.21 1.54-.64.38-.44.57-1 .57-1.68 0-.7-.2-1.26-.57-1.67a1.95 1.95 0 0 0-1.51-.62c-.43 0-.79.07-1.07.2l-.37-.74Z" fill="#fff"/>
  <path d="m84.51 38.1.06.13c.2-.1.43-.18.67-.22.24-.04.53-.06.87-.06.83 0 1.5.27 2.02.81.52.55.79 1.27.8 2.2a3.08 3.08 0 0 1-.82 2.15c-.54.58-1.27.87-2.2.87-.54 0-1.02-.11-1.44-.33a2.84 2.84 0 0 1-1.08-.95l-.1-.15-.11.15a2.92 2.92 0 0 1-2.5 1.28c-.87 0-1.58-.3-2.15-.87a3.08 3.08 0 0 1-.85-2.26c0-.6.13-1.17.38-1.69.26-.52.6-.93 1.02-1.24l-.08-.1-.1.08.58.72.1-.08-.08-.1c-.34.27-.6.61-.79 1-.18.4-.27.87-.27 1.39 0 .77.2 1.4.6 1.86.41.47.97.71 1.64.7.67.01 1.23-.23 1.63-.7.4-.48.6-1.1.6-1.86 0-.52-.1-.99-.28-1.39a2.88 2.88 0 0 0-.8-1l-.09.1.1.08.58-.72-.1-.09-.08.11c.44.31.8.73 1.05 1.27a3.82 3.82 0 0 1 .35 2.18l.13.02-.13-.02-.07.39v.05l.02.05c.3.45.64.83 1 1.1.36.3.81.44 1.33.44.68 0 1.24-.23 1.64-.7.4-.45.6-1.05.6-1.76 0-.72-.2-1.32-.6-1.76a2.08 2.08 0 0 0-1.61-.66c-.44 0-.82.07-1.13.21l.06.12.12-.05-.37-.75-.12.06-.12.06.43.86.11-.06c.27-.12.6-.19 1.02-.19.6 0 1.05.2 1.4.58.36.38.54.9.54 1.58 0 .66-.18 1.18-.53 1.59-.35.4-.82.6-1.44.6-.47 0-.85-.13-1.17-.38-.33-.25-.64-.6-.94-1.04l-.1.07.12.02.07-.38a4.08 4.08 0 0 0-.37-2.34 3.43 3.43 0 0 0-1.13-1.38l-.1-.07-.66.82-.08.1.1.1c.32.25.56.55.73.9.16.36.25.79.25 1.28 0 .71-.18 1.26-.53 1.68-.36.41-.82.62-1.43.62s-1.07-.2-1.43-.61a2.48 2.48 0 0 1-.54-1.69 2.56 2.56 0 0 1 .96-2.19l.1-.08-.74-.93-.1.07c-.47.34-.84.78-1.11 1.34a4.08 4.08 0 0 0-.4 1.81c-.01.99.3 1.81.92 2.44.62.64 1.4.96 2.34.95a3.23 3.23 0 0 0 2.72-1.38l-.12-.08-.1.07a3.12 3.12 0 0 0 2.72 1.4 3.14 3.14 0 0 0 3.29-3.29 3.3 3.3 0 0 0-.87-2.38c-.57-.6-1.32-.9-2.21-.9-.35 0-.66.02-.92.07s-.5.12-.74.24l-.12.06.06.12.12-.06Zm11.54 4.17c-.2.55-.57 1-1.09 1.33-.52.34-1.12.51-1.8.51-1.01 0-1.8-.3-2.38-.9a3.14 3.14 0 0 1-.86-2.26c0-.9.3-1.64.88-2.24.59-.6 1.37-.9 2.36-.9.68 0 1.28.17 1.8.52.52.34.88.78 1.09 1.33l-.8.4c-.2-.46-.48-.82-.85-1.05a2.26 2.26 0 0 0-1.25-.36c-.68 0-1.2.21-1.6.64-.4.42-.6.97-.6 1.65 0 .67.21 1.23.62 1.67.41.44.94.66 1.58.66.46 0 .88-.11 1.25-.35s.65-.6.85-1.06l.8.4Z" fill="#fff"/>
  <path d="m96.05 42.27-.13-.05c-.2.52-.53.94-1.03 1.27-.5.32-1.07.49-1.73.49a3 3 0 0 1-2.28-.86 3 3 0 0 1-.82-2.17c0-.87.28-1.57.84-2.15a3 3 0 0 1 2.26-.85c.66 0 1.23.16 1.73.49.5.33.84.74 1.03 1.27l.13-.05-.06-.12-.8.4.06.13.13-.06a2.45 2.45 0 0 0-.9-1.12 2.4 2.4 0 0 0-1.33-.37c-.7 0-1.28.22-1.7.67a2.46 2.46 0 0 0-.63 1.75c0 .7.22 1.3.65 1.76.44.47 1 .71 1.68.7a2.3 2.3 0 0 0 2.22-1.49l-.12-.05-.06.12.8.4.06-.11.06-.12-.92-.48-.06.14c-.2.44-.46.77-.8 1-.35.22-.74.33-1.18.33-.61 0-1.1-.2-1.48-.62a2.22 2.22 0 0 1-.58-1.58c0-.65.18-1.17.55-1.56.37-.4.86-.6 1.5-.6.45 0 .84.11 1.19.34.34.22.6.55.8 1l.06.13.92-.47.1-.05-.04-.11a2.83 2.83 0 0 0-1.14-1.4 3.34 3.34 0 0 0-1.87-.54c-1.01 0-1.84.31-2.45.94a3.21 3.21 0 0 0-.92 2.33c0 .94.3 1.74.9 2.36.6.62 1.43.94 2.47.93.7 0 1.33-.17 1.87-.53.54-.35.93-.82 1.14-1.4l.04-.1-.1-.06-.06.12Zm-1.71-8.21c-.13-.2-.28-.36-.47-.48-.19-.12-.4-.18-.64-.18a1 1 0 0 0-.85.39c-.2.25-.3.56-.3.93 0 .4.08.73.27.98.18.26.39.46.61.61l-.5.6c-.38-.21-.7-.5-.93-.88a2.36 2.36 0 0 1-.37-1.31 2 2 0 0 1 .6-1.52c.38-.37.87-.56 1.46-.56.4 0 .74.08 1.04.24.3.16.55.39.72.68l-.64.5Z" fill="#fff"/>
  <path d="m94.34 34.06.1-.07c-.12-.22-.3-.4-.5-.52a1.3 1.3 0 0 0-.7-.2c-.4 0-.74.15-.97.43a1.6 1.6 0 0 0-.33 1.02c0 .42.1.78.3 1.06.2.27.4.48.65.64l.07-.1-.1-.1-.5.6.1.09.07-.12c-.37-.2-.66-.48-.89-.83a2.22 2.22 0 0 1-.34-1.24c0-.61.18-1.07.54-1.42.37-.35.82-.52 1.38-.52.37 0 .7.07.98.22.29.15.5.36.67.63l.11-.07-.08-.1-.65.5.09.1.08.1.74-.56-.06-.1a1.9 1.9 0 0 0-.78-.74c-.32-.17-.7-.25-1.1-.25-.61 0-1.15.2-1.56.6-.42.4-.63.94-.63 1.61a2.62 2.62 0 0 0 1.37 2.3l.1.06.66-.8-.12-.08c-.21-.14-.4-.33-.58-.58a1.5 1.5 0 0 1-.26-.9c0-.34.1-.62.28-.85a.89.89 0 0 1 .75-.33c.22 0 .4.05.57.15.17.11.3.25.42.44l.08.13.12-.1-.08-.1Zm3.42 8.42a.57.57 0 0 0-.17.44c0 .2.05.34.15.45.1.1.25.15.45.15.17 0 .32-.05.43-.15a.61.61 0 0 0 .17-.45.56.56 0 0 0-.6-.6.6.6 0 0 0-.43.16Zm0-3.8a.57.57 0 0 0-.17.44c0 .2.05.34.15.45.1.1.25.16.45.16.17 0 .32-.06.43-.16.11-.1.17-.25.17-.45a.56.56 0 0 0-.17-.44.61.61 0 0 0-.43-.15.6.6 0 0 0-.43.15Zm-.48 5.14a1.19 1.19 0 0 1-.34-.9c0-.38.12-.67.34-.88.23-.21.53-.32.9-.32.36 0 .66.1.9.32.24.21.36.5.36.87 0 .39-.12.69-.36.9-.24.21-.54.32-.9.32-.37 0-.67-.1-.9-.31Zm0-3.8c-.22-.21-.34-.5-.34-.9 0-.37.12-.67.34-.88.23-.21.53-.32.9-.32.36 0 .66.11.9.32.24.21.36.5.36.87 0 .4-.12.69-.36.9-.24.21-.54.32-.9.32-.37 0-.67-.1-.9-.31Z" fill="#fff"/>
  <path d="m97.76 42.48-.1-.1a.7.7 0 0 0-.2.54c0 .21.05.4.19.54.13.14.32.2.54.2.2 0 .38-.07.52-.2a.71.71 0 0 0 .22-.54.7.7 0 0 0-.22-.54l-.09.1.09-.1a.74.74 0 0 0-.52-.19.7.7 0 0 0-.52.2l.09.1.1.09a.46.46 0 0 1 .33-.12c.15 0 .25.04.34.12.08.08.13.18.13.34 0 .17-.05.27-.13.35l.09.1-.09-.1a.48.48 0 0 1-.34.12c-.18 0-.28-.04-.35-.12l-.1.1.1-.1c-.07-.07-.11-.18-.12-.35 0-.16.05-.27.13-.34l-.1-.1Zm0-3.8-.1-.1a.7.7 0 0 0-.2.54c0 .22.05.4.19.54.13.14.32.2.54.2a.7.7 0 0 0 .74-.74.7.7 0 0 0-.74-.73c-.2 0-.38.07-.52.2l.09.1.09.1c.09-.09.2-.13.34-.13.15 0 .25.04.34.12.08.08.13.18.13.34 0 .17-.05.27-.13.35a.49.49 0 0 1-.34.12c-.17 0-.28-.04-.35-.11-.07-.08-.11-.19-.12-.36 0-.16.05-.26.13-.34l-.1-.1Zm-.48 5.14.1-.1c-.2-.18-.3-.44-.3-.8 0-.35.1-.6.3-.78.2-.2.45-.29.8-.29.34 0 .6.1.81.29.21.18.31.43.32.77a1 1 0 0 1-.32.8c-.21.19-.47.28-.81.28-.35 0-.6-.1-.8-.27l-.1.1-.09.1c.26.23.6.34.99.34s.73-.12.99-.35c.27-.24.4-.59.4-1 0-.4-.13-.73-.4-.97-.26-.24-.6-.35-1-.35-.39 0-.72.11-.98.35s-.38.58-.38.98c0 .41.12.76.38 1l.1-.1Zm0-3.8.1-.1c-.2-.18-.3-.43-.3-.8 0-.35.1-.6.3-.78.2-.19.45-.28.8-.28.34 0 .6.1.81.28a1 1 0 0 1 .32.77c0 .37-.11.62-.32.8-.2.19-.47.28-.81.28-.35 0-.6-.1-.8-.27l-.1.1-.09.1c.26.23.6.34.99.34s.73-.12.99-.35c.27-.24.4-.58.4-1 0-.4-.13-.73-.4-.97-.26-.23-.6-.35-1-.35-.39 0-.72.12-.98.35-.26.24-.38.58-.38.98 0 .42.12.76.38 1l.1-.1Zm10.42 3.05c.28.13.63.2 1.06.2.62 0 1.12-.2 1.5-.62.37-.4.56-.97.56-1.67s-.2-1.26-.57-1.68a1.94 1.94 0 0 0-1.53-.64c-.5 0-.9.13-1.25.4-.35.26-.67.62-.96 1.09l.07.38a3.78 3.78 0 0 1-.38 2.38c-.27.5-.62.9-1.05 1.2l-.57-.72a2.76 2.76 0 0 0 1-2.29c0-.75-.19-1.34-.57-1.78a1.91 1.91 0 0 0-1.52-.66c-.63 0-1.14.22-1.53.66a2.61 2.61 0 0 0-.57 1.78c0 .5.08.95.26 1.33.17.37.42.7.74.96l-.57.72a3.1 3.1 0 0 1-1.04-1.23 3.93 3.93 0 0 1-.42-1.8c0-.97.3-1.76.9-2.36.6-.6 1.34-.9 2.23-.9.53 0 1.02.1 1.46.32.44.22.82.56 1.14 1a3.04 3.04 0 0 1 2.62-1.33 2.99 2.99 0 0 1 3.14 3.15 3.2 3.2 0 0 1-.83 2.3 2.8 2.8 0 0 1-2.1.85 5.2 5.2 0 0 1-.9-.07 2.6 2.6 0 0 1-.7-.23l.37-.74Z" fill="#fff"/>
  <path d="m107.7 43.07-.06.12c.3.14.68.21 1.12.21.65 0 1.2-.22 1.6-.66.4-.44.6-1.03.6-1.76 0-.72-.2-1.32-.61-1.77-.4-.46-.96-.69-1.63-.68-.51 0-.97.14-1.33.42-.36.27-.7.65-1 1.13l-.02.04.08.43.13-.02-.13.02a4.22 4.22 0 0 1-.37 2.29c-.26.5-.6.88-1 1.16l.07.11.1-.08-.57-.73-.1.09.08.1c.34-.27.6-.61.78-1 .19-.4.28-.87.28-1.39 0-.77-.2-1.4-.61-1.87-.4-.47-.96-.7-1.62-.7-.66 0-1.22.23-1.63.7-.4.46-.6 1.1-.6 1.87 0 .52.08.98.27 1.38.18.4.44.74.78 1l.08-.1-.1-.08-.58.73.1.08.08-.11a2.98 2.98 0 0 1-1-1.18 3.8 3.8 0 0 1-.4-1.74c0-.95.29-1.7.86-2.27a2.89 2.89 0 0 1 2.14-.86c.51 0 .98.1 1.4.31a3 3 0 0 1 1.1.96l.1.16.11-.16a2.86 2.86 0 0 1 2.5-1.27 2.85 2.85 0 0 1 3.01 3.01c0 .94-.26 1.66-.79 2.2-.53.54-1.18.81-2 .81-.34 0-.63-.02-.87-.06a2.47 2.47 0 0 1-.66-.22l-.06.12.11.06.37-.75-.12-.05-.12-.06-.36.74-.06.12.12.06c.23.11.47.2.73.24a5 5 0 0 0 .92.07c.88 0 1.62-.3 2.2-.9.57-.59.86-1.4.86-2.38a3.12 3.12 0 0 0-3.28-3.28 3.12 3.12 0 0 0-2.72 1.4l.11.07.11-.08a3.27 3.27 0 0 0-1.2-1.05 3.34 3.34 0 0 0-1.5-.34 3.2 3.2 0 0 0-2.34.94 3.33 3.33 0 0 0-.94 2.46c0 .67.15 1.29.44 1.86.29.57.65 1 1.09 1.28l.1.07.73-.93-.1-.08a2.42 2.42 0 0 1-.71-.91 3.03 3.03 0 0 1-.25-1.27c0-.73.19-1.29.54-1.7.36-.4.83-.6 1.43-.6s1.06.2 1.42.6c.36.42.54.97.54 1.7 0 .5-.09.91-.25 1.27s-.4.66-.7.91l-.11.08.66.83.07.1.1-.07c.45-.3.81-.72 1.1-1.25a3.9 3.9 0 0 0 .39-2.46l-.07-.38-.13.02.11.07c.29-.46.6-.81.93-1.06.32-.24.7-.37 1.17-.37.6 0 1.07.2 1.43.6.35.4.53.92.53 1.6 0 .67-.18 1.19-.53 1.57-.35.39-.8.57-1.4.58-.4 0-.74-.07-1-.2l-.12-.05-.06.12.12.06Zm.47-7.31c.22.26.5.39.87.39.34 0 .62-.13.84-.37.21-.25.32-.56.32-.94 0-.4-.1-.75-.3-1.02-.21-.28-.5-.42-.86-.42-.38 0-.66.13-.87.4-.2.26-.31.6-.31 1 0 .38.1.7.31.96Zm2.36.54c-.38.4-.89.6-1.53.6-.61 0-1.1-.2-1.48-.61a2.17 2.17 0 0 1-.57-1.52c0-.59.2-1.09.57-1.5a1.9 1.9 0 0 1 1.5-.63c.66 0 1.17.22 1.54.65.37.42.55.93.55 1.53 0 .59-.2 1.08-.58 1.48Z" fill="#fff"/>
  <path d="m108.17 35.76-.1.09c.24.28.57.43.97.43.37 0 .7-.14.94-.42.24-.27.36-.62.36-1.02 0-.43-.12-.8-.34-1.1a1.16 1.16 0 0 0-.96-.47c-.4 0-.74.15-.98.45-.23.29-.34.65-.34 1.08 0 .4.12.76.35 1.05l.1-.09.1-.08a1.4 1.4 0 0 1-.28-.88c0-.38.1-.68.28-.92a.9.9 0 0 1 .77-.34c.33 0 .56.11.75.36.18.25.28.56.28.94 0 .35-.1.63-.3.85a.94.94 0 0 1-.73.32.92.92 0 0 1-.76-.33l-.1.08Zm2.36.54-.1-.09c-.35.37-.82.56-1.43.56a1.8 1.8 0 0 1-1.39-.57 2.04 2.04 0 0 1-.52-1.43c0-.56.17-1.02.52-1.41a1.8 1.8 0 0 1 1.41-.58c.63 0 1.1.2 1.44.6.34.4.52.87.52 1.44 0 .56-.18 1.02-.54 1.4l.1.08.09.1c.4-.43.61-.96.61-1.58 0-.62-.2-1.17-.58-1.62-.4-.46-.95-.7-1.64-.69-.66 0-1.2.22-1.6.67-.4.44-.6.98-.6 1.6 0 .62.2 1.16.6 1.6.4.44.94.66 1.58.66.67 0 1.22-.21 1.63-.64l-.1-.1Zm-2.23 8.25h1.01v3.97h1.42v.77h-2.43v-4.74Z" fill="#fff"/>
  <path d="M108.3 44.55v.14h.88v3.96h1.41v.5h-2.16v-4.6h-.26v4.87h2.7V48.4h-1.43v-3.97h-1.27v.13h.13Zm11.07-1.29a2.2 2.2 0 0 0-.69-1.58c-.43-.4-.96-.63-1.61-.69 0 .7.19 1.26.56 1.67.38.41.87.61 1.48.61h.26Zm1.81-2.28a2.5 2.5 0 0 0-.56-1.68 1.87 1.87 0 0 0-1.5-.65c-.52 0-.95.14-1.28.43-.33.28-.56.65-.68 1.11.98.1 1.75.45 2.31 1.1.56.63.84 1.5.84 2.61a4.43 4.43 0 0 1-1.23.21c-.92 0-1.66-.3-2.21-.9a3.18 3.18 0 0 1-.83-2.25c0-.6.13-1.14.4-1.64.26-.49.62-.86 1.08-1.12.45-.26.98-.39 1.6-.39.6 0 1.13.13 1.58.4.46.25.82.63 1.09 1.12.26.5.4 1.04.4 1.63v7.56h1.41v.77h-2.42V41Z" fill="#fff"/>
  <path d="M119.37 43.26h.14a2.33 2.33 0 0 0-.74-1.68 2.8 2.8 0 0 0-1.69-.72l-.14-.01v.14c0 .73.2 1.32.6 1.76.4.44.93.66 1.57.66h.14l.13-.01h.13v-.14h-.14v-.13h-.14l-.12.01v.13-.13c-.58 0-1.03-.19-1.38-.57-.35-.38-.53-.9-.53-1.58h-.13l-.01.14c.62.06 1.13.27 1.53.65.4.37.62.86.65 1.49h.13Zm1.81-2.28h.13c0-.7-.19-1.3-.58-1.76a2 2 0 0 0-1.6-.7 2.1 2.1 0 0 0-1.38.45c-.35.3-.6.7-.72 1.19l-.04.15.16.02a3.2 3.2 0 0 1 2.22 1.04c.54.61.8 1.45.8 2.53h.14l-.04-.13a4.14 4.14 0 0 1-1.19.2c-.9 0-1.59-.28-2.11-.84a3.05 3.05 0 0 1-.8-2.17c0-.58.13-1.1.38-1.57.26-.47.6-.83 1.03-1.07.44-.25.94-.37 1.53-.37.59 0 1.1.12 1.53.37.44.25.78.6 1.03 1.08.25.47.38.99.38 1.56v7.7h1.42v.5h-2.16v-8.18h-.26v8.44h2.68V48.4h-1.41v-7.43c0-.61-.14-1.18-.41-1.7a2.9 2.9 0 0 0-1.14-1.17 3.3 3.3 0 0 0-1.66-.41c-.63 0-1.18.13-1.66.4s-.86.67-1.13 1.18a3.55 3.55 0 0 0-.41 1.7c0 .94.28 1.73.86 2.35a3 3 0 0 0 2.31.93 3.5 3.5 0 0 0 1.28-.21l.08-.03v-.1c0-1.13-.28-2.04-.87-2.7a3.47 3.47 0 0 0-2.4-1.14l-.01.13.13.04a2 2 0 0 1 .64-1.05c.3-.26.7-.4 1.2-.4.6 0 1.05.2 1.4.6.34.42.52.94.52 1.6h.13Zm9.12-2.88c.22-.1.45-.18.7-.22.25-.04.56-.07.9-.07.86 0 1.57.29 2.12.86.55.57.82 1.34.82 2.3 0 .88-.28 1.62-.84 2.23a3 3 0 0 1-2.3.91 2.99 2.99 0 0 1-2.62-1.33 3.1 3.1 0 0 1-2.61 1.33c-.9 0-1.65-.3-2.25-.91a3.22 3.22 0 0 1-.89-2.35c0-.62.14-1.2.4-1.75a3.4 3.4 0 0 1 1.07-1.29l.57.73a2.7 2.7 0 0 0-.75.96c-.17.38-.26.82-.26 1.33 0 .74.2 1.34.58 1.78.38.43.89.65 1.53.65a1.9 1.9 0 0 0 1.53-.66c.38-.45.56-1.04.56-1.77a2.7 2.7 0 0 0-1.03-2.3l.58-.72c.46.32.82.76 1.09 1.32a3.94 3.94 0 0 1 .36 2.26l-.07.4c.3.44.62.8.97 1.07.34.27.76.4 1.25.4.65 0 1.16-.21 1.54-.64.38-.44.57-1 .57-1.68 0-.7-.2-1.26-.57-1.67a1.95 1.95 0 0 0-1.5-.62c-.44 0-.8.07-1.08.2l-.37-.74Z" fill="#fff"/>
  <path d="m130.3 38.1.06.13c.2-.1.43-.18.67-.22.24-.04.53-.06.87-.06.83 0 1.5.27 2.02.81.53.55.8 1.27.8 2.2 0 .86-.28 1.57-.82 2.15-.54.58-1.27.87-2.2.87-.54 0-1.02-.11-1.44-.33a2.85 2.85 0 0 1-1.08-.95l-.1-.15-.12.15a2.97 2.97 0 0 1-2.49 1.28c-.87 0-1.58-.3-2.15-.87a3.09 3.09 0 0 1-.85-2.26c0-.6.13-1.17.38-1.69.26-.52.6-.93 1.02-1.24l-.07-.1-.1.08.57.72.1-.08-.08-.1c-.34.27-.6.61-.79 1-.18.4-.27.87-.27 1.39 0 .77.2 1.4.6 1.86.41.47.97.71 1.64.7.67.01 1.23-.23 1.63-.7.4-.48.6-1.1.6-1.86 0-.52-.1-.99-.28-1.39a2.77 2.77 0 0 0-.8-1l-.09.1.11.08.58-.72-.1-.09-.09.11c.44.31.8.73 1.05 1.27a3.83 3.83 0 0 1 .35 2.18l.13.02-.13-.02-.07.39v.05l.02.05c.3.45.64.83 1 1.1.36.3.81.44 1.33.44.68 0 1.24-.23 1.64-.7.4-.45.6-1.05.6-1.76 0-.72-.2-1.32-.6-1.76a2.08 2.08 0 0 0-1.6-.66c-.45 0-.83.07-1.14.21l.06.12.12-.05-.37-.75-.12.06-.12.06.37.74.06.12.11-.06c.27-.12.6-.19 1.02-.19.6 0 1.05.2 1.4.58.36.38.54.9.54 1.58 0 .66-.18 1.18-.53 1.59-.35.4-.82.6-1.44.6-.47 0-.85-.13-1.17-.38-.33-.25-.64-.6-.94-1.04l-.1.07.13.02.06-.38a4.09 4.09 0 0 0-.37-2.34 3.43 3.43 0 0 0-1.13-1.38l-.1-.07-.74.93.1.08a2.6 2.6 0 0 1 .98 2.19c0 .71-.18 1.26-.53 1.68-.36.41-.82.62-1.43.62s-1.07-.2-1.43-.61a2.47 2.47 0 0 1-.54-1.69 3 3 0 0 1 .25-1.27c.16-.36.4-.67.7-.92l.1-.08-.73-.93-.1.07c-.47.34-.84.78-1.1 1.34a4.09 4.09 0 0 0-.42 1.81c0 .99.31 1.81.93 2.44a3.1 3.1 0 0 0 2.34.95 3.23 3.23 0 0 0 2.72-1.38l-.12-.08-.1.07c.3.46.7.8 1.17 1.04.46.24.98.35 1.55.35a3.13 3.13 0 0 0 3.29-3.28 3.3 3.3 0 0 0-.86-2.38c-.58-.6-1.33-.9-2.22-.9-.35 0-.66.02-.92.07s-.5.12-.74.24l-.12.06.06.12.12-.06Zm4.33 11.2h-2.41v-4.75h1v3.97h1.4v.77Zm-4.24-4.75h1v4.74h-1v-4.74Z" fill="#fff"/>
  <path d="M134.63 49.3v-.14h-2.28v-4.47h.73v3.96h1.42v.64h.26v-.9h-1.41v-3.97h-1.27v5h2.68v-.13h-.13Zm-4.24-4.75v.14h.87v4.47h-.74v-4.6h-.26v4.86h1.27v-5h-1.27v.13h.13Zm10.21-6.74c.47.32.85.75 1.13 1.3.28.56.42 1.14.42 1.74a3.11 3.11 0 0 1-3.2 3.26 3.1 3.1 0 0 1-3.2-3.26c0-.62.12-1.2.39-1.75.26-.54.62-.97 1.06-1.29l.58.73a2.7 2.7 0 0 0-.75.96c-.17.38-.26.82-.26 1.33 0 .75.2 1.34.6 1.78.4.44.93.66 1.57.66.66 0 1.18-.22 1.58-.66.4-.44.6-1.04.6-1.78a2.71 2.71 0 0 0-1.1-2.3l.57-.72Z" fill="#fff"/>
  <path d="m140.6 37.81-.08.11c.46.3.82.72 1.1 1.25.26.54.4 1.1.4 1.68 0 .93-.3 1.67-.88 2.26-.58.58-1.3.87-2.2.87a2.97 2.97 0 0 1-3.06-3.13c0-.6.12-1.17.38-1.69.25-.52.6-.93 1.02-1.24l-.08-.1-.1.08.57.72.1-.08-.08-.1c-.34.27-.6.61-.78 1-.19.4-.27.87-.27 1.39 0 .77.2 1.4.63 1.87.43.47 1 .71 1.67.7.69.01 1.26-.23 1.68-.7.42-.47.63-1.1.63-1.87a2.84 2.84 0 0 0-1.15-2.4l-.08.1.1.1.58-.73-.1-.09-.1-.08-.59.72-.08.11.11.08a2.56 2.56 0 0 1 1.04 2.19c0 .72-.19 1.28-.56 1.7-.37.4-.85.61-1.47.61-.63 0-1.1-.2-1.48-.62a2.43 2.43 0 0 1-.57-1.69c0-.5.09-.92.25-1.27.17-.36.4-.67.71-.92l.1-.08-.73-.93-.1.07c-.47.34-.84.78-1.11 1.34a4 4 0 0 0-.41 1.81 3.23 3.23 0 0 0 3.34 3.39 3.24 3.24 0 0 0 3.33-3.39c0-.62-.14-1.23-.43-1.8a3.46 3.46 0 0 0-1.18-1.35l-.1-.07-.08.1.1.08Z" fill="#fff"/>
  <path d="M143.38 44v-8.84c0-.54-.11-.97-.33-1.29-.23-.32-.57-.48-1.03-.48-.4 0-.74.14-.99.42-.25.28-.37.7-.37 1.27v.18h-.96v-.16c0-.75.21-1.36.64-1.8.42-.44.98-.67 1.68-.67.74 0 1.3.24 1.71.72.4.47.61 1.13.61 1.97V44h-.96Z" fill="#fff"/>
  <path d="M143.38 44h.13v-8.84c0-.55-.11-1.01-.35-1.36-.25-.36-.65-.54-1.14-.54-.44 0-.81.15-1.09.46-.28.32-.4.78-.4 1.36v.05h-.7v-.03c0-.73.2-1.3.6-1.7.4-.42.92-.63 1.6-.63a2 2 0 0 1 1.6.66c.38.45.58 1.07.58 1.89v8.55h-.83v.26h1.1v-8.81a3.1 3.1 0 0 0-.65-2.06 2.25 2.25 0 0 0-1.8-.76c-.73 0-1.34.24-1.79.7a2.64 2.64 0 0 0-.68 1.9v.3h1.23v-.32c0-.55.13-.93.34-1.18.23-.25.51-.37.9-.38.42 0 .71.15.9.43.2.29.31.7.31 1.21v8.97h.14V44Z" fill="#fff"/>
</svg>
