<svg id="artwork" xmlns="http://www.w3.org/2000/svg" version="1.1" viewBox="0 0 239 70.9">
  <defs>
    <style>
      .st4{fill:#fff}
    </style>
  </defs>
  <rect width="239" height="70.8" rx="8.8" ry="8.8"/>
  <path class="st4" d="M120.6 38.5c-4.1 0-7.5 3.2-7.5 7.5s3.4 7.5 7.5 7.5a7.5 7.5 0 1 0 0-15Zm0 12c-2.3 0-4.2-1.8-4.2-4.5s2-4.5 4.2-4.5 4.3 1.8 4.3 4.5-2 4.6-4.3 4.6Zm-16.5-12c-4.1 0-7.5 3.2-7.5 7.5s3.4 7.5 7.5 7.5a7.5 7.5 0 1 0 0-15Zm0 12c-2.3 0-4.2-1.8-4.2-4.5s2-4.5 4.2-4.5 4.3 1.8 4.3 4.5-2 4.6-4.3 4.6Zm-19.6-9.7V44h7.7a6.7 6.7 0 0 1-1.8 4 7.8 7.8 0 0 1-5.9 2.4 8.4 8.4 0 0 1-8.4-8.5 8.4 8.4 0 0 1 14.2-6.2l2.2-2.3a11.8 11.8 0 0 0-19.8 8.5c0 6.5 5.3 11.7 11.8 11.7 3.5 0 6.1-1.1 8.2-3.3 2-2.1 2.7-5 2.7-7.5l-.1-2H84.5Zm80.2 2.5c-.6-1.7-2.5-4.8-6.4-4.8s-7.1 3-7.1 7.5c0 4.2 3.2 7.5 7.4 7.5 3.5 0 5.5-2 6.3-3.3l-2.6-1.7c-.8 1.2-2 2-3.7 2s-2.8-.7-3.6-2.2l10-4.2-.3-.8Zm-10.3 2.5c0-2.9 2.3-4.4 4-4.4 1.3 0 2.4.7 2.8 1.6l-6.8 2.8Zm-8.1 7.3h3.3V31h-3.3v22Zm-5.5-13a5.2 5.2 0 0 0-4-1.6c-3.8 0-7.2 3.3-7.2 7.6s3.4 7.5 7.2 7.5a5 5 0 0 0 4-1.8V53c0 3-1.5 4.5-4 4.5-2 0-3.2-1.5-3.8-2.7l-2.9 1.2c.9 2 3 4.4 6.7 4.4 3.9 0 7.2-2.2 7.2-7.8V39h-3.2v1.2ZM137 50.7c-2.2 0-4.2-2-4.2-4.5s2-4.6 4.2-4.6 4 2 4 4.6-1.7 4.5-4 4.5ZM180.2 31h-7.9v22h3.3v-8.4h4.6c3.7 0 7.3-2.6 7.3-6.9s-3.6-6.8-7.3-6.8Zm0 10.6h-4.6V34h4.7a3.8 3.8 0 1 1 0 7.6Zm20.5-3.1c-2.4 0-4.9 1-5.9 3.3l3 1.3c.6-1.3 1.8-1.7 3-1.7 1.7 0 3.4 1 3.4 2.9v.2c-.6-.3-1.8-.8-3.4-.8-3.2 0-6.4 1.7-6.4 5 0 2.9 2.6 4.8 5.5 4.8 2.2 0 3.5-1 4.2-2.2h.1v1.8h3.2v-8.5c0-4-3-6.1-6.7-6.1Zm-.4 12c-1 0-2.6-.5-2.6-1.8 0-1.7 1.9-2.3 3.5-2.3 1.5 0 2.2.3 3 .7a4 4 0 0 1-3.9 3.5ZM219 39l-3.8 9.6-4-9.6h-3.6l6 13.5-3.4 7.4h3.4l9.1-20.9H219Zm-29.7 14.2h3.3V31h-3.3v22Z"/>
  <path d="m36.7 34.4-18.9 20a5 5 0 0 0 7.5 3l21.3-12.2-10-10.9Z" style="fill:#ea4335"/>
  <path d="m55.7 31-9.1-5.3-10.4 9.1 10.4 10.4 9.1-5.3c1.6-.8 2.7-2.5 2.7-4.4s-1-3.7-2.7-4.5Z" style="fill:#fbbc04"/>
  <path d="m17.8 16.4-.2 1.3v35.4c0 .5 0 .9.2 1.3l19.5-19.5-19.5-18.5Z" style="fill:#4285f4"/>
  <path d="m36.8 35.4 9.8-9.8-21.2-12.2a5.1 5.1 0 0 0-7.6 3l19 19Z" style="fill:#34a853"/>
  <path class="st4" d="M75.7 12.2H74v11h6.4v-1.6h-4.7v-9.4zm10.1 0-4.1 11h1.9l1-2.8H89l1 2.8h2l-4.2-11h-2Zm-.7 6.6 1.2-3.3.4-1.2h.1l.4 1.3 1.2 3.2h-3.3Zm12.4-2-.7-.2c-.7-.2-1.1-.5-1.5-.7-.3-.3-.4-.6-.4-1s.2-.7.5-1 .8-.3 1.3-.3.9.1 1.2.4l.7.9 1.5-.7a3.4 3.4 0 0 0-3.5-2.2c-.6 0-1.2.1-1.7.4s-1 .6-1.3 1a3 3 0 0 0-.4 1.6c0 .8.2 1.4.7 1.9.5.5 1.2.8 1.9 1.1l.7.2c.8.3 1.4.6 1.7 1s.5.6.5 1c0 .6-.2 1-.5 1.2s-.9.5-1.4.5c-.6 0-1.1-.2-1.5-.6s-.7-1-.9-1.5l-1.6.6c.3 1 .8 1.8 1.5 2.3a4 4 0 0 0 4.2.4c.6-.2 1-.6 1.4-1a3 3 0 0 0 .6-1.9c0-.8-.3-1.5-.8-2s-1.3-1-2.2-1.4Zm4.2-2.9h3.1v9.3h1.7v-9.3h3.1v-1.7h-7.9v1.7zm20.1 4.2.1 2.1h-.1l-4.9-8h-2.1v11h1.7v-6.3l-.1-2.1h.1l5.2 8.4h1.8v-11h-1.7v5.9zm4.5 5.1h6.7v-1.6h-5v-3h4.5v-1.7H128v-3h5v-1.7h-6.7v11zm15.6-10.3a6 6 0 0 0-3-.7h-3.5v11h3.5c1.1 0 2.1-.2 3-.6s1.5-1.2 2-2 .6-1.8.6-2.9-.2-2-.7-2.8-1-1.5-2-2Zm-.2 7.7c-.6.7-1.6 1-2.8 1H137v-7.7h1.8c1.2 0 2.2.3 2.9 1s1 1.6 1 2.8-.4 2.2-1 2.8Zm13.9-8c-.5-.2-1.1-.4-1.8-.4H150v11h1.8V19h2c.7 0 1.3-.2 1.8-.5s1-.6 1.3-1.2.5-1 .5-1.7-.1-1.2-.5-1.7-.7-1-1.3-1.2Zm-.1 3.8c-.1.3-.3.5-.6.7s-.6.2-1 .2h-2.2V14h2.2c.3 0 .7 0 1 .2l.6.7.2.8c.1.3 0 .6-.2.8Zm8.5-3.5c.3-.4.5-.8.5-1.3s-.2-1-.6-1.3c-.3-.3-.7-.5-1.2-.5s-1 .2-1.3.5c-.3.4-.5.8-.5 1.3l.1.7.4.6-3.9 10.3h2l1-2.8h4.4l1 2.9h2l-4-10.4Zm-1.8-1.8.5-.1c.2 0 .3 0 .4.2l.2.4c0 .2 0 .3-.2.4l-.4.2c-.1 0-.3 0-.5-.2a.6.6 0 0 1-.1-.4l.1-.4Zm-1.2 7.7 1.2-3.3.4-1.2h.1l.4 1.3 1.2 3.2H161Z"/>
</svg>
