<svg width="180" height="54" fill="none" xmlns="http://www.w3.org/2000/svg">
  <path d="M173.33 54H6.67A6.73 6.73 0 0 1 0 47.25V6.75C0 3.04 3 0 6.67 0h166.66A6.73 6.73 0 0 1 180 6.75v40.5c0 3.71-3 6.75-6.67 6.75Z" fill="#000"/>
  <path d="m27.63 26.22-14.2 15.26a3.84 3.84 0 0 0 5.65 2.35l.05-.03 15.97-9.33-7.48-8.25Z" fill="#EA4335"/>
  <path d="m41.98 23.63-.01-.02-6.9-4.05-7.77 7 7.8 7.9 6.86-4a3.89 3.89 0 0 0 2.02-3.43c0-1.47-.8-2.75-2-3.4Z" fill="#FBBC04"/>
  <path d="M13.43 12.52a3.7 3.7 0 0 0-.13 1v26.96c0 .35.04.68.13 1L28.1 26.62l-14.68-14.1Z" fill="#4285F4"/>
  <path d="m27.73 27 7.34-7.44-15.96-9.37a3.85 3.85 0 0 0-5.69 2.33L27.73 27Z" fill="#34A853"/>
  <path d="M131.52 26.67h2.17V12.1h-2.17v14.57Zm19.59-9.32-2.5 6.31h-.07l-2.59-6.31h-2.34l3.88 8.82-2.21 4.91h2.26l5.99-13.73h-2.42ZM138.77 25c-.7 0-1.7-.35-1.7-1.24 0-1.12 1.24-1.55 2.3-1.55.96 0 1.4.2 1.99.49a2.64 2.64 0 0 1-2.59 2.3Zm.27-7.98c-1.58 0-3.2.69-3.88 2.23l1.93.8c.4-.8 1.18-1.07 1.98-1.07 1.13 0 2.27.68 2.29 1.88v.15a4.8 4.8 0 0 0-2.27-.56c-2.08 0-4.2 1.14-4.2 3.28 0 1.95 1.7 3.2 3.62 3.2 1.46 0 2.27-.65 2.78-1.42h.07v1.12h2.1v-5.58c0-2.59-1.93-4.03-4.42-4.03Zm-13.44 2.09h-3.1v-5h3.1a2.52 2.52 0 0 1 2.55 2.5c0 1.13-.93 2.5-2.55 2.5Zm-.06-7.02h-5.21v14.57h2.17v-5.52h3.04c2.41 0 4.78-1.75 4.78-4.53 0-2.78-2.37-4.52-4.78-4.52ZM97.13 25c-1.5 0-2.76-1.25-2.76-2.98 0-1.75 1.25-3.02 2.76-3.02 1.48 0 2.64 1.27 2.64 3.02 0 1.73-1.16 2.98-2.64 2.98Zm2.5-6.85h-.08a3.43 3.43 0 0 0-2.61-1.1 4.93 4.93 0 0 0-4.75 4.97 4.9 4.9 0 0 0 4.75 4.94c1.18 0 2.12-.53 2.6-1.13h.08v.71c0 1.9-1.01 2.91-2.64 2.91a2.74 2.74 0 0 1-2.5-1.76l-1.9.79c.55 1.31 2 2.93 4.4 2.93 2.55 0 4.7-1.5 4.7-5.17v-8.9h-2.06v.81Zm3.56 8.5h2.18V12.1h-2.18v14.57Zm5.39-4.8a2.72 2.72 0 0 1 2.59-2.9c.86 0 1.6.44 1.84 1.06l-4.43 1.84Zm6.76-1.65c-.42-1.11-1.67-3.16-4.25-3.16-2.55 0-4.67 2.01-4.67 4.96 0 2.78 2.1 4.96 4.92 4.96a4.93 4.93 0 0 0 4.13-2.2l-1.69-1.13a2.83 2.83 0 0 1-2.44 1.37c-1.1 0-1.9-.5-2.4-1.5l6.62-2.74-.22-.56Zm-52.8-1.64v2.1h5.03a4.39 4.39 0 0 1-1.15 2.65 5.15 5.15 0 0 1-3.89 1.54c-3.1 0-5.52-2.5-5.52-5.6a5.52 5.52 0 0 1 9.32-4.08l1.48-1.49a7.34 7.34 0 0 0-5.28-2.12 7.8 7.8 0 0 0-7.8 7.7 7.8 7.8 0 0 0 7.8 7.7c2.3 0 4.02-.75 5.37-2.16a6.95 6.95 0 0 0 1.82-4.92c0-.49-.03-.94-.1-1.32h-7.09ZM75.44 25c-1.5 0-2.8-1.23-2.8-3 0-1.78 1.3-3 2.8-3 1.5 0 2.8 1.22 2.8 3 0 1.77-1.3 3-2.8 3Zm0-7.96A4.89 4.89 0 0 0 70.47 22a4.9 4.9 0 0 0 4.98 4.96A4.9 4.9 0 0 0 80.42 22a4.89 4.89 0 0 0-4.97-4.96ZM86.3 25c-1.5 0-2.8-1.23-2.8-3 0-1.78 1.3-3 2.8-3 1.5 0 2.8 1.22 2.8 3 0 1.77-1.3 3-2.8 3Zm0-7.96A4.89 4.89 0 0 0 81.32 22a4.9 4.9 0 0 0 4.98 4.96A4.9 4.9 0 0 0 91.28 22a4.89 4.89 0 0 0-4.98-4.96Zm-26.16 22.9v-2.92h-2.8v2.92h2.8Zm2.34-2.92h-1.32V44h-1.02v-3.16h-2.8v.46c0 .24-.05.44-.16.58a.54.54 0 0 1-.45.2c-.2 0-.41-.08-.65-.25a2.32 2.32 0 0 1-.61-.65c-.17-.26-.25-.5-.25-.7 0-.18.06-.31.2-.4a1 1 0 0 1 .57-.14h.34v-2.92h-1.6v-.9h7.75v.9Z" fill="#fff"/>
  <path d="M60.14 39.94h.13v-3.05h-3.06v3.18h3.06v-.13h-.13v-.14h-2.66v-2.64H60v2.78h.13Zm2.34-2.92v-.13h-1.45v6.98h-.76V40.7h-3.06v.59c0 .22-.05.39-.14.5l.1.08-.1-.08a.4.4 0 0 1-.34.16c-.15 0-.35-.08-.58-.24a2.2 2.2 0 0 1-.57-.61 1.21 1.21 0 0 1-.23-.63c0-.14.05-.22.14-.3a.9.9 0 0 1 .5-.11h.47v-3.18h-1.6v-.64h7.48v.77h.27V36H54.6v1.17h1.6v2.64H56c-.27 0-.49.05-.65.17a.6.6 0 0 0-.26.51c0 .24.1.5.27.77.18.28.4.51.65.7.25.17.5.27.73.27.22 0 .42-.09.55-.26.14-.17.2-.4.2-.66v-.33H60v3.16h1.28v-6.97h1.32v-.14h-.13Z" fill="#fff"/>
  <path d="M65.76 37.02h-1.32V44h-1.02v-6.98h-1.13v-.9h3.47v.9Z" fill="#fff"/>
  <path d="M65.76 37.02v-.13H64.3v6.98h-.76v-6.98h-1.12v-.64h3.2v.77h.26V36h-3.73v1.17h1.13v6.97h1.28v-6.97h1.32v-.14h-.13Zm5.12 0v2.31c0 .4.01.7.04.9.03.2.07.36.14.47l.24.3c.1.08.21.14.36.19a2.1 2.1 0 0 0 1.43-.15 3 3 0 0 0 .82-.62v-3.4h-3.03Zm5.37 0h-1.32V44H73.9v-2.46l-3.89 2.62-.59-.83 2.15-1.27a1.9 1.9 0 0 1-.99-.42 1.94 1.94 0 0 1-.55-.8 4.16 4.16 0 0 1-.18-1.38v-2.44h-1v-.9h7.39v.9Z" fill="#fff"/>
  <path d="M70.88 37.02h-.14v2.31c0 .4.02.71.05.92.03.21.08.38.15.52h.01l.24.31h.01v.02c.12.1.26.17.42.21a2.23 2.23 0 0 0 1.52-.16 3 3 0 0 0 .87-.63l.04-.04v-3.59h-3.3v.13h.13v.14h2.9v3.26h.13l-.1-.09c-.23.25-.5.44-.79.58a1.96 1.96 0 0 1-1.33.15.76.76 0 0 1-.3-.16l-.1.1.11-.09-.24-.3-.1.09.12-.07a1.1 1.1 0 0 1-.13-.42 6.71 6.71 0 0 1-.04-.88v-2.3h-.13Zm5.37 0v-.13H74.8v6.98h-.75v-2.58l-4 2.69-.43-.6 2.34-1.39-.36-.06a1.8 1.8 0 0 1-.92-.4c-.23-.2-.4-.45-.52-.75-.1-.29-.16-.73-.16-1.32V36.9h-1v-.64h7.11v.77h.27V36h-7.65v1.17h1v2.3c0 .6.06 1.07.18 1.42a2.03 2.03 0 0 0 1.64 1.32l.03-.14-.07-.11-2.27 1.34.68.95.07.1 3.8-2.55v2.34h1.27v-6.97h1.32v-.14h-.13Z" fill="#fff"/>
  <path d="M79.53 37.02H78.2V44h-1.02v-6.98h-1.13v-.9h3.47v.9Z" fill="#fff"/>
  <path d="M79.53 37.02v-.13h-1.46v6.98h-.75v-6.98h-1.13v-.64h3.2v.77h.27V36h-3.73v1.17h1.12v6.97h1.3v-6.97h1.3v-.14h-.12Z" fill="#fff"/>
  <path d="M81.35 37.02v2.31c0 .4.02.7.05.9.03.2.07.36.14.47l.24.3c.09.08.21.14.35.19a2.1 2.1 0 0 0 1.43-.15c.3-.15.58-.36.83-.62l.47.87c-.35.24-.64.42-.86.53a3.39 3.39 0 0 1-1.44.32c-.35 0-.67-.06-.96-.18a1.72 1.72 0 0 1-.72-.52 2 2 0 0 1-.42-.8c-.08-.3-.12-.7-.12-1.18v-2.44h-1v-.9h4.08v.9h-2.07Z" fill="#fff"/>
  <path d="M81.35 37.02h-.13v2.31c0 .4.02.71.05.92.03.21.07.38.15.52l.25.31.02.02c.1.1.25.17.4.21a2.23 2.23 0 0 0 1.52-.16 3 3 0 0 0 .88-.63l-.1-.1-.11.07.46.86.12-.06-.07-.11c-.35.24-.63.41-.85.52a3.31 3.31 0 0 1-1.38.31c-.33 0-.64-.06-.9-.17a1.76 1.76 0 0 1-1.07-1.23 4.64 4.64 0 0 1-.12-1.15V36.9h-1v-.64h3.82v.64h-2.07v.13h.13v.14h2.2V36h-4.34v1.17h1v2.3c0 .5.04.9.12 1.22a2.02 2.02 0 0 0 1.22 1.4c.3.14.65.2 1.01.2a3.32 3.32 0 0 0 1.5-.34c.23-.12.53-.3.88-.55l.1-.06-.62-1.13-.12.13c-.25.25-.5.44-.8.58a1.96 1.96 0 0 1-1.33.15.77.77 0 0 1-.3-.16l-.1.1.11-.09-.24-.3-.1.09.11-.07c-.05-.09-.1-.23-.12-.42a6.73 6.73 0 0 1-.04-.88v-2.3h-.14Z" fill="#fff"/>
  <path d="M88.3 39.84h-1.38c-.53 0-.93.03-1.2.09-.26.05-.48.17-.64.33-.17.17-.25.42-.25.73 0 .27.07.53.2.78s.32.52.58.79c.26.27.61.58 1.05.93l-.68.66a12.6 12.6 0 0 1-1.3-1.24 4.39 4.39 0 0 1-.64-.96 2.34 2.34 0 0 1-.23-1.02 1.77 1.77 0 0 1 .71-1.46c.24-.19.53-.32.88-.4.34-.09.77-.13 1.29-.13h1.61v-1.92h-5.06v-.9h7.4v.9h-1.32V44H88.3v-4.16Z" fill="#fff"/>
  <path d="M88.3 39.84v-.13h-1.38c-.54 0-.94.03-1.22.09-.29.06-.53.18-.72.37-.2.2-.28.49-.28.82 0 .3.07.58.2.84.15.27.35.54.61.82.27.27.63.59 1.07.95l.08-.1-.09-.1-.68.66.1.1.08-.1c-.59-.51-1.02-.92-1.28-1.23a4.26 4.26 0 0 1-.63-.94 2.2 2.2 0 0 1-.22-.96c0-.26.06-.5.16-.74.1-.23.27-.43.5-.61.23-.18.5-.3.83-.39.33-.08.75-.12 1.26-.12h1.74V36.9h-5.06v-.64h7.14v.64h-1.32v6.98h-.76V39.7h-.13v.13h-.13v4.3h1.28v-6.98h1.32v-1.17H83.1v1.17h5.07v1.65h-1.48c-.53 0-.97.04-1.32.13-.36.08-.68.23-.94.43a1.93 1.93 0 0 0-.75 1.56c0 .37.08.73.24 1.07.16.34.38.67.67 1 .28.33.71.75 1.3 1.26l.1.08.87-.86-.11-.1a8.67 8.67 0 0 1-1.04-.92 3.28 3.28 0 0 1-.57-.75 1.54 1.54 0 0 1-.17-.72c0-.3.07-.5.2-.63.15-.15.34-.25.58-.3a6.3 6.3 0 0 1 1.17-.08h1.38v-.14Zm10.43-2.82h-2.35v4.02c0 .22-.05.4-.16.52a.57.57 0 0 1-.45.18c-.21 0-.44-.09-.68-.27a2.2 2.2 0 0 1-.6-.65c-.15-.26-.23-.5-.23-.72 0-.21.07-.38.2-.49.12-.1.3-.16.57-.16h.34v-2.43h-1.63v-.9h7.32v.9h-1.32V44h-1.01v-6.98Z" fill="#fff"/>
  <path d="M98.73 37.02v-.13h-2.48v4.15c0 .2-.05.34-.13.43-.08.1-.19.14-.35.14a.99.99 0 0 1-.6-.24 2.07 2.07 0 0 1-.56-.62 1.3 1.3 0 0 1-.21-.65c0-.2.05-.3.14-.38.09-.08.25-.13.49-.13h.47v-2.7h-1.62v-.64h7.05v.64H99.6v6.98h-.75v-6.98h-.13v.13h-.14v7.11h1.29v-6.97h1.31v-1.17H93.6v1.17h1.63v2.16h-.21c-.28 0-.5.06-.66.2-.17.13-.24.34-.24.58 0 .25.09.51.25.79.16.27.37.5.63.7.25.18.5.28.76.29a.7.7 0 0 0 .55-.23.9.9 0 0 0 .2-.61v-3.88h2.2v-.14Z" fill="#fff"/>
  <path d="M100.87 37.02v-.9h7.21v.9h-1.31V44h-1.02v-3.77h-2.28v.68c0 .22-.06.4-.17.52a.62.62 0 0 1-.48.18c-.2 0-.42-.09-.65-.26-.24-.18-.43-.4-.59-.65a1.4 1.4 0 0 1-.24-.73c0-.43.26-.65.77-.65h3.64v-2.3h-4.88Z" fill="#fff"/>
  <path d="M100.87 37.02h.14v-.77h6.94v.64h-1.31v6.98h-.76v-3.78h-2.55v.82c0 .2-.05.34-.13.43-.09.09-.2.14-.38.14a.98.98 0 0 1-.57-.24 2.1 2.1 0 0 1-.56-.61 1.3 1.3 0 0 1-.21-.66c0-.19.05-.3.14-.38.1-.08.25-.13.5-.13h3.76v-2.57h-5v.27h4.73v2.03h-3.5a1 1 0 0 0-.66.2.74.74 0 0 0-.24.58c0 .26.09.52.26.8.16.27.37.5.62.69.25.18.49.28.73.29.23 0 .43-.08.57-.23.15-.15.2-.37.2-.61v-.55h2.02v3.77h1.3v-6.97h1.3v-1.17h-7.47v1.17h.13v-.14Z" fill="#fff"/>
  <path d="M104.76 44.15a3.66 3.66 0 0 1 1.41-.29c.42 0 .78.08 1.08.23a1.62 1.62 0 0 1 .93 1.55 1.6 1.6 0 0 1-1.05 1.53 4.09 4.09 0 0 1-3.9-.75 7.1 7.1 0 0 1-1.1-1.16l.79-.54c.35.44.67.79.96 1.04.3.24.6.43.93.55.32.12.7.18 1.1.18.45 0 .78-.08 1-.25a.8.8 0 0 0 .34-.7.71.71 0 0 0-.14-.45.86.86 0 0 0-.38-.27c-.15-.06-.32-.1-.5-.1a2.63 2.63 0 0 0-1.14.28l-.33-.85Z" fill="#fff"/>
  <path d="m104.76 44.15.06.13a3.45 3.45 0 0 1 1.36-.28c.4 0 .73.07 1.01.2a1.48 1.48 0 0 1 .86 1.44 1.47 1.47 0 0 1-.97 1.4 2.9 2.9 0 0 1-1.17.22 3.94 3.94 0 0 1-2.6-.94c-.36-.3-.72-.68-1.07-1.14l-.1.08.07.11.78-.54-.07-.1-.1.08c.35.44.67.8.97 1.05a3.21 3.21 0 0 0 2.12.76c.47 0 .83-.08 1.09-.27a.93.93 0 0 0 .38-.8c0-.21-.05-.4-.17-.54a.99.99 0 0 0-.43-.31 1.5 1.5 0 0 0-.54-.1 2.77 2.77 0 0 0-1.2.28l.05.12.13-.05-.33-.84-.13.04-.12.05.33.84.05.14.13-.06a2.62 2.62 0 0 1 1.09-.26c.16 0 .3.03.45.08.13.06.23.13.31.23.08.1.12.21.12.37a.7.7 0 0 1-.28.6c-.19.13-.5.21-.93.21-.4 0-.75-.05-1.06-.17-.3-.11-.6-.29-.88-.53a7.3 7.3 0 0 1-.95-1l-.08-.1-.88.6-.12.08.09.11c.36.47.73.86 1.11 1.18a4.21 4.21 0 0 0 4.04.77c.37-.15.65-.37.85-.66a1.94 1.94 0 0 0 .04-1.99 1.75 1.75 0 0 0-.76-.67c-.32-.16-.7-.24-1.14-.24a3.68 3.68 0 0 0-1.46.3l-.12.05.05.12.12-.05Zm.73-7.94c-.2-.33-.36-.65-.47-.97-.1-.32-.16-.62-.16-.89 0-.36.09-.67.26-.93s.4-.46.7-.58a2.9 2.9 0 0 1 2.35.12l-.28.83c-.15-.07-.3-.14-.46-.19a1.62 1.62 0 0 0-.51-.08c-.33 0-.59.1-.77.27-.19.19-.28.44-.28.75 0 .25.05.5.15.76.1.26.27.57.5.91h-1.03Z" fill="#fff"/>
  <path d="m105.49 36.21.11-.07a4.7 4.7 0 0 1-.45-.94 2.7 2.7 0 0 1-.15-.85c0-.34.08-.62.23-.86.15-.24.36-.41.64-.53a2.77 2.77 0 0 1 2.24.12l.06-.12-.13-.04-.28.83.13.04.06-.11a2.71 2.71 0 0 0-.48-.2 1.76 1.76 0 0 0-.55-.09c-.36 0-.66.1-.87.3-.2.22-.31.51-.31.85 0 .27.05.53.16.8.1.28.28.6.52.95l.1-.08v-.13h-1.03v.27h1.29l-.14-.21c-.23-.34-.4-.64-.5-.89a2.07 2.07 0 0 1-.14-.7c0-.3.09-.5.24-.66.15-.15.37-.23.68-.23a2.05 2.05 0 0 1 .9.25l.14.08.33-.99.04-.1-.1-.06a3.09 3.09 0 0 0-1.41-.33c-.4 0-.75.07-1.06.2a1.68 1.68 0 0 0-1.03 1.64c0 .3.06.6.17.93.1.33.27.67.47 1l.04.07h.08v-.14Zm6.48 6.91c.35-.1.6-.22.78-.39a.8.8 0 0 0 .26-.61c0-.67-.52-1-1.57-1-.57 0-1.02.1-1.33.34-.31.23-.47.56-.47.97a1.85 1.85 0 0 0 .38 1.08c.14.18.34.4.61.65.27.25.65.58 1.15.98l-.68.66c-.46-.38-.8-.68-1.03-.9a8.32 8.32 0 0 1-.63-.63 3.81 3.81 0 0 1-.46-.63 2.55 2.55 0 0 1-.35-1.3c0-.33.07-.62.22-.88a2 2 0 0 1 .57-.66 1.6 1.6 0 0 1-.64-1.26c0-.26.05-.48.15-.66.1-.18.24-.33.42-.44.18-.12.38-.2.6-.25.23-.06.52-.08.86-.08h1.67v-1.09h-4.58v-.9h6.91v.9h-1.31v1.99h-2.72c-.27 0-.47.02-.6.05a.54.54 0 0 0-.43.55c0 .32.2.57.6.75a4.09 4.09 0 0 1 2.5.08c.37.16.65.38.85.67.2.29.3.6.3.95 0 .48-.14.88-.43 1.2-.28.33-.7.56-1.27.71l-.33-.85Z" fill="#fff"/>
  <path d="m111.97 43.12.03.13c.36-.1.64-.23.84-.42.2-.19.3-.43.3-.71a.97.97 0 0 0-.45-.87c-.3-.19-.71-.27-1.25-.27-.6 0-1.06.12-1.4.37a1.3 1.3 0 0 0-.53 1.08c0 .22.03.41.1.6.06.18.16.37.3.56.15.2.36.41.63.67.27.25.65.58 1.15.98l.09-.1-.1-.1-.68.66.1.1.08-.1c-.45-.38-.8-.68-1.02-.89a7.34 7.34 0 0 1-1.07-1.23c-.1-.2-.2-.4-.25-.6a2.4 2.4 0 0 1-.08-.63 1.7 1.7 0 0 1 .74-1.44l.14-.1-.13-.11c-.4-.34-.6-.71-.6-1.16a1.14 1.14 0 0 1 .51-.99c.16-.1.35-.18.56-.23.22-.05.5-.08.83-.08h1.8v-1.35h-4.58v-.64h6.65v.64h-1.32v1.99h-2.58c-.27 0-.48.01-.63.05a.71.71 0 0 0-.38.24.68.68 0 0 0-.15.44c0 .38.25.68.67.87l.04.03.05-.02a3.94 3.94 0 0 1 2.4.07c.37.15.63.36.81.62.19.27.27.56.27.88 0 .46-.13.82-.39 1.12-.26.3-.66.52-1.2.67l.03.12.13-.04-.34-.86-.12.05-.12.05.33.85.04.12.12-.04c.58-.15 1.02-.4 1.33-.75.3-.34.46-.78.46-1.29 0-.37-.1-.72-.32-1.03a2.06 2.06 0 0 0-.92-.71 4.22 4.22 0 0 0-2.59-.08l.04.12.06-.12c-.37-.18-.5-.37-.51-.63 0-.12.03-.2.09-.28l.24-.14c.1-.03.3-.05.56-.05h2.85v-1.98h1.32v-1.17h-7.18v1.17h4.57v.81h-1.53c-.35 0-.65.03-.89.09-.24.05-.45.14-.64.27-.2.12-.35.29-.46.49-.12.2-.18.44-.18.72 0 .53.24 1 .7 1.36l.08-.1-.08-.1c-.25.18-.46.42-.61.7-.16.27-.23.6-.23.95a2.65 2.65 0 0 0 .36 1.36c.13.21.28.43.48.65.2.22.4.43.64.65l1.03.9.1.07.76-.75.1-.1-.1-.1c-.5-.4-.89-.72-1.15-.97a5.53 5.53 0 0 1-.59-.63 1.71 1.71 0 0 1-.27-.49 1.58 1.58 0 0 1-.08-.5 1 1 0 0 1 .41-.87c.28-.21.7-.32 1.25-.32.51 0 .88.08 1.1.23.23.14.33.34.34.64 0 .21-.07.37-.22.51-.15.15-.4.27-.72.36l-.15.04.06.14.12-.05Z" fill="#fff"/>
  <path d="M118.1 37.02h-1.32V44h-1.03v-6.98h-1.12v-.9h3.46v.9Zm-2.34-.8a9.86 9.86 0 0 0-.53-1.6 2.14 2.14 0 0 0-.56-.8 1.2 1.2 0 0 0-.76-.24c-.14 0-.28.01-.41.03a3.3 3.3 0 0 0-.47.14l-.3-.92a3.03 3.03 0 0 1 1.14-.19c.36 0 .68.07.94.19.27.12.51.31.73.58.21.26.42.63.61 1.08.2.46.39 1.03.57 1.72h-.96Z" fill="#fff"/>
  <path d="M118.1 37.02v-.13h-1.46v6.98h-.75v-6.98h-1.13v-.64h3.2v.77h.27V36h-3.73v1.17h1.12v6.97h1.29v-6.97h1.32v-.14h-.14Zm-2.34-.8.13-.04a9.77 9.77 0 0 0-.54-1.62 2.26 2.26 0 0 0-.6-.84 1.31 1.31 0 0 0-.84-.28 2.66 2.66 0 0 0-.93.18l.05.13.13-.04-.3-.92-.14.04.05.13a2.9 2.9 0 0 1 1.1-.18c.35 0 .64.06.89.17.24.1.47.29.67.54.2.25.4.6.6 1.06.19.45.38 1.01.56 1.7l.13-.04v-.13h-.96v.27h1.13l-.04-.17c-.19-.7-.38-1.27-.58-1.74a4.8 4.8 0 0 0-.63-1.12 2.16 2.16 0 0 0-.77-.61c-.29-.14-.62-.2-1-.2a4.02 4.02 0 0 0-1.19.2l-.12.04.4 1.18.12-.05c.17-.07.32-.12.44-.14.13-.02.26-.03.4-.03.27 0 .48.07.66.22.19.14.37.39.53.75.17.35.34.88.52 1.57l.03.1h.1v-.14Z" fill="#fff"/>
  <path d="M121.24 39.77c.23.03.58.04 1.07.04h1.95v-2.79h-2.79a3 3 0 0 1 .21 1.18c0 .67-.15 1.2-.44 1.57Zm5.36-2.75h-1.32V44h-1.02v-3.28h-1.53c-.91 0-1.6-.1-2.07-.28-.19.14-.4.26-.63.36a19.1 19.1 0 0 0 2.7 2.68l-.7.67a25.12 25.12 0 0 1-2.6-2.62c-.35-.42-.6-.76-.77-1.04-.1-.17-.16-.3-.2-.42a1.27 1.27 0 0 1-.05-.37l.08-.32c.06-.1.15-.19.27-.25a.9.9 0 0 1 .46-.1c.2 0 .4.05.55.14.16.1.3.23.43.4.15-.12.26-.3.34-.54a3.4 3.4 0 0 0-.1-2h-2.53v-.91h8.69v.9Z" fill="#fff"/>
  <path d="m121.24 39.77-.02.13c.24.03.6.05 1.1.05h2.07v-3.06h-3.12l.08.19c.13.3.2.68.2 1.12 0 .65-.15 1.14-.42 1.49l-.14.18.23.03.02-.13.1.08c.32-.4.47-.96.47-1.65 0-.47-.07-.88-.22-1.23l-.12.05v.14h2.66v2.52h-1.82a9.5 9.5 0 0 1-1.06-.04l-.01.13Zm5.36-2.75v-.13h-1.45v6.98h-.76v-3.29h-1.66c-.9 0-1.58-.09-2.02-.26l-.07-.03-.06.05c-.18.13-.38.24-.6.33l-.16.07.1.14a19.79 19.79 0 0 0 2.71 2.7l.09-.1-.1-.1-.68.68.1.1.09-.1a22.47 22.47 0 0 1-2.59-2.61 8.6 8.6 0 0 1-.76-1.03l-.12.07.12-.06c-.1-.17-.16-.3-.2-.4-.02-.1-.04-.21-.04-.33h-.13l.13.03.08-.32-.13-.03.12.06.21-.2c.1-.05.23-.08.4-.08.19 0 .35.04.48.13.14.08.28.2.4.37l.08.11.11-.1c.17-.14.3-.35.38-.6a3.55 3.55 0 0 0 .06-1.58c-.04-.21-.1-.38-.16-.52l-.04-.08h-2.49v-.64h8.42v.77h.27V36h-8.95v1.17h2.67v-.14l-.12.06a3.26 3.26 0 0 1 .09 1.9c-.08.22-.18.38-.3.5l.08.1.1-.08a1.48 1.48 0 0 0-.46-.44 1.2 1.2 0 0 0-.62-.17c-.2 0-.38.04-.53.12a.77.77 0 0 0-.31.3l-.01.02-.09.33v.04c0 .14.01.28.05.4.04.14.12.29.22.46.17.28.43.63.78 1.05a22.99 22.99 0 0 0 2.62 2.65l.1.08.77-.77.1-.1-.12-.1a19.46 19.46 0 0 1-2.67-2.65l-.1.08.05.12c.25-.1.46-.23.66-.37l-.08-.1-.05.12c.5.19 1.2.28 2.12.28h1.4v3.28h1.28v-6.97h1.32v-.14h-.13Zm-2.46 7.54a3.62 3.62 0 0 1 2.11.26 4.72 4.72 0 0 1 1.35 1.07c.22.25.46.58.73.98l-.73.52a7.2 7.2 0 0 0-.85-1.12 2.53 2.53 0 0 0-2.45-.77l-.16-.94Z" fill="#fff"/>
  <path d="m124.14 44.56.03.13a3.5 3.5 0 0 1 1.33.02 3.28 3.28 0 0 1 1.35.65c.22.17.44.37.65.62.22.24.46.57.72.96l.1-.07-.07-.1-.72.51.08.11.1-.07c-.3-.47-.58-.85-.87-1.14a2.68 2.68 0 0 0-2.58-.8l.04.12.13-.02-.16-.94-.13.02-.13.02.16.94.02.15.15-.05a2.4 2.4 0 0 1 2.31.74c.27.27.55.64.84 1.1l.08.12.84-.6.1-.08-.07-.1c-.26-.4-.51-.74-.74-1a4.94 4.94 0 0 0-.69-.65 3.73 3.73 0 0 0-1.45-.7 3.8 3.8 0 0 0-1.45-.02l-.12.03.02.12.13-.02Z" fill="#fff"/>
</svg>
