<svg id="artwork" xmlns="http://www.w3.org/2000/svg" version="1.1" viewBox="0 0 239 70.9">
  <defs>
    <style>
      .st4{fill:#fff}
    </style>
  </defs>
  <rect width="239" height="70.8" rx="8.8" ry="8.8"/>
  <path class="st4" d="M115 38.5c-4.2 0-7.6 3.2-7.6 7.5s3.4 7.5 7.5 7.5a7.5 7.5 0 1 0 .1-15Zm0 12c-2.3 0-4.3-1.8-4.3-4.5s2-4.5 4.3-4.5 4.2 1.8 4.2 4.5-2 4.6-4.3 4.6Zm-16.5-12c-4.2 0-7.6 3.2-7.6 7.5s3.4 7.5 7.6 7.5 7.5-3.2 7.5-7.5-3.4-7.5-7.5-7.5Zm0 12c-2.3 0-4.3-1.8-4.3-4.5s2-4.5 4.3-4.5 4.2 1.8 4.2 4.5-2 4.6-4.2 4.6Zm-19.6-9.7V44h7.6a6.7 6.7 0 0 1-1.7 4 7.8 7.8 0 0 1-6 2.4 8.4 8.4 0 0 1-8.3-8.5 8.4 8.4 0 0 1 14.1-6.2l2.3-2.3A11.8 11.8 0 0 0 67 41.9c0 6.5 5.4 11.7 12 11.7a10.4 10.4 0 0 0 10.9-10.8c0-.7 0-1.4-.2-2H79Zm80.2 2.5c-.7-1.7-2.6-4.8-6.5-4.8s-7 3-7 7.5c0 4.2 3.1 7.5 7.4 7.5 3.4 0 5.4-2 6.3-3.3l-2.6-1.7c-.9 1.2-2 2-3.7 2s-2.9-.7-3.7-2.2l10.1-4.2-.3-.8Zm-10.3 2.5a4.1 4.1 0 0 1 4-4.4c1.2 0 2.3.7 2.7 1.6l-6.7 2.8Zm-8.2 7.3h3.3V31h-3.3v22Zm-5.4-13h-.1a5.2 5.2 0 0 0-4-1.6c-3.8 0-7.2 3.3-7.2 7.6s3.4 7.5 7.2 7.5a5 5 0 0 0 4-1.8V53c0 3-1.5 4.5-4 4.5-2 0-3.2-1.5-3.7-2.7l-3 1.2c1 2 3.1 4.4 6.7 4.4 4 0 7.2-2.2 7.2-7.8V39h-3.1v1.2Zm-3.8 10.5c-2.3 0-4.2-2-4.2-4.5s1.9-4.6 4.2-4.6 4 2 4 4.6-1.8 4.5-4 4.5ZM174.6 31h-8v22h3.4v-8.4h4.6c3.6 0 7.2-2.6 7.2-6.9s-3.6-6.8-7.2-6.8Zm0 10.6H170V34h4.7c2.5 0 4 2 4 3.8s-1.5 3.8-4 3.8Zm20.4-3.1c-2.4 0-4.8 1-5.9 3.3l3 1.3c.6-1.3 1.8-1.7 3-1.7 1.7 0 3.5 1 3.5 2.9v.2c-.6-.3-2-.8-3.5-.8-3.1 0-6.3 1.7-6.3 5 0 2.9 2.5 4.8 5.4 4.8 2.3 0 3.5-1 4.3-2.2v1.8h3.3v-8.5c0-4-3-6.1-6.8-6.1Zm-.3 12c-1.1 0-2.6-.5-2.6-1.8 0-1.7 1.9-2.3 3.5-2.3 1.4 0 2.1.3 3 .7a4 4 0 0 1-4 3.5ZM213.4 39l-3.8 9.6h-.1l-4-9.6H202l5.9 13.5-3.4 7.4h3.5l9-20.9h-3.6Zm-29.8 14.2h3.3V31h-3.3v22Z"/>
  <path d="m36.7 34.4-18.9 20a5 5 0 0 0 7.5 3l21.3-12.2-10-10.9Z" style="fill:#ea4335"/>
  <path d="m55.7 31-9.1-5.3-10.3 9.1 10.3 10.4 9.1-5.3c1.6-.8 2.7-2.5 2.7-4.4s-1-3.7-2.6-4.5Z" style="fill:#fbbc04"/>
  <path d="m17.8 16.4-.2 1.3v35.4c0 .5 0 .9.2 1.3l19.5-19.5-19.5-18.5Z" style="fill:#4285f4"/>
  <path d="m36.8 35.4 9.8-9.8-21.2-12.2a5.1 5.1 0 0 0-7.6 3l19 19Z" style="fill:#34a853"/>
  <path class="st4" d="M75.6 14c-.1-.5-.3-.9-.5-1.1-.2-.3-.4-.5-.7-.6a2.7 2.7 0 0 0-1.6 0h-.6l.3 1a3 3 0 0 1 1-.2h.6c.2 0 .3.3.4.4l.4.8.4 1.3H67v.9h1.6l.4.4.2.7c0 .3-.1.6-.4.8l-1.4.4c.2 1 .6 1.7 1 2.2s1.2.6 2 .6c.4 0 .8 0 1.1-.2.3 0 .4-.2.6-.3v2.2h1v-6.8h2.2v6.8h1v-6.8h1.3v-1h-1.4l-.6-1.6Zm-4.1 6.4c-.4.2-.7.3-1.2.3s-.8 0-1-.3-.5-.5-.7-1a3 3 0 0 0 1.2-.6c.3-.3.4-.7.4-1.1 0-.3 0-.6-.2-.8 0-.2-.2-.3-.3-.5H72v3.4l-.6.6Zm16-4.9h-6.9v1h1V19l.1 1.1.5.8 1.1.7 1 .5.7.4.3.3.1.3v.4l-.3.4 1 .4a2 2 0 0 0 .4-1.2c0-.2 0-.4-.2-.6L86 22l-1-.6-1-.5-.7-.4-.4-.4-.2-.5v-3.3h2.9v1.9l-.1.7-.4.4c-.2.1-.3.3-.6.3l.5.9.9-.4.5-.7.1-1v-2h2v2.3c0 .5 0 1 .3 1.3.1.4.4.7.8.9l1.2.2c.4 0 .8 0 1.1-.2l.6-.3v2.5h1v-6.8h1.3v-.9h-7.2Zm2 1h2.9v3l-.6.6a2 2 0 0 1-1 .3c-.3 0-.6 0-.8-.2l-.4-.5a2 2 0 0 1-.2-.9v-2.4Zm23.5-3.1.4-.2c.2-.2.1-.3.1-.5l-.1-.4-.5-.2c-.2 0-.3 0-.4.2l-.2.4c0 .1 0 .4.2.5l.4.2Z"/>
  <path class="st4" d="M113 14.8c.5 0 1-.1 1.4-.5.4-.3.7-.8.9-1.6l-.9-.3c0 .6-.2 1-.5 1.3-.3.2-.6.3-1 .3s-.7 0-1-.3c-.2-.2-.3-.6-.4-1.2l-.9.2c.2.8.4 1.3.8 1.6.5.4 1 .5 1.5.5Zm12 .7H97.7v1h1.6c.2 0 .3.2.4.3l.2.8c0 .3-.1.5-.4.7l-1.4.5c.2 1 .6 1.6 1 2.1.5.5 1.2.7 2 .7.4 0 .8 0 1.1-.2l.6-.3v2.1h1v-6.8h5.6v1h-1.7c-.7 0-1.2.2-1.5.4s-.4.6-.4 1 0 .6.2.9l.5.5-.4.4c-.2.3-.3.7-.3 1.2s.1 1 .4 1.3.7.8 1.2 1l1.8.9.5-.9-1.6-.7-1-.7c-.2-.3-.4-.6-.4-1 0-.3.2-.7.5-.9.3-.2.7-.3 1.3-.3.5 0 .9 0 1.1.2s.3.4.3.7c0 .2 0 .4-.2.6l-.6.4.7.8.9-.8c.2-.3.2-.6.2-1s0-.6-.2-.9-.4-.5-.8-.7a4.2 4.2 0 0 0-2.6 0l-.4-.4a.7.7 0 0 1-.1-.4c0-.2 0-.4.2-.5l.8-.2h2.6v-2h2.2v7h1v-7h6v3.8l-.3.4-1.8-2.2h1.1l.6.1v-.8l-.5-.1h-.7c-.8 0-1.4.1-2 .5s-.7.9-.7 1.7c0 .6.2 1.2.7 1.5a3.4 3.4 0 0 0 3 .5l.7-.4v2h1v-6.9h2.2v6.8h1v-6.8h5v1.5c-1.1 0-1.9.2-2.5.7-.5.4-.8 1-.8 2 0 .5.1 1 .4 1.3s.6.8 1 1c.4.2 1 .3 1.5.3a3.7 3.7 0 0 0 2.5-.8l-.4-.9-1 .6-1 .2c-.6 0-1-.2-1.5-.5-.3-.3-.5-.7-.5-1.3 0-.6.2-1 .6-1.3.4-.3 1-.4 1.7-.4h1v-2.4h1.5v-1H125v.1Zm-22.8 4.9c-.3.2-.7.3-1.1.3s-.8 0-1.1-.3-.5-.5-.6-1a3 3 0 0 0 1.1-.6c.3-.3.4-.7.4-1.1l-.1-.8-.4-.5h2.4v3.4l-.6.6Zm14.5.3c-.3-.2-.4-.6-.4-1 0-.5.1-.8.5-1l1.8 2.2-.7.1c-.5 0-.9-.1-1.2-.3Zm52.7-5.2h-1a22.2 22.2 0 0 0-1.2-2.7l-.7-.5a2.7 2.7 0 0 0-1.5 0h-.6l.3 1a3 3 0 0 1 1-.2h.5l.4.4.4.8.4 1.3h-33v.9h4.6v1h-1.5c-.7 0-1.1.2-1.5.4s-.4.6-.4 1c0 .5 0 .8.4 1.1.2.3.5.6.9.8l.7-.2h.7c.4 0 .7 0 .9.2l.3.6c0 .3-.1.6-.4.7s-.6.3-1 .3-1-.1-1.5-.4l-1.3-1-.6.8c.4.4 1 .8 1.5 1 .5.4 1.2.5 1.9.5.5 0 1 0 1.4-.3s.6-.3.7-.6a1.9 1.9 0 0 0-.2-2.3c-.4-.3-1-.4-1.6-.4h-.7a4 4 0 0 0-.6.2l-.4-.4a.7.7 0 0 1-.1-.4c0-.3 0-.4.2-.5l.7-.2h2.5v-2h2.2v6.9h1v-6.8h5.2l.5.3.2.8c0 .4-.1.7-.5 1l-1.6.3.2.9c.5 0 1-.1 1.3-.3l.6.6c.2.3.3.7.3 1s-.1.8-.4 1-.5.3-1 .3-.6-.1-1-.3l-.7-1-.8-2-.9.4.7 1.8c.2.5.5.9.8 1.2a2.7 2.7 0 0 0 2.1.8c.7 0 1.2-.2 1.6-.5s.6-1 .6-1.5 0-.8-.2-1.2l-.8-1 .4-.3c.2-.3.3-.7.3-1 0-.3 0-.6-.2-.8 0-.2-.2-.3-.3-.5h6.2v2.3h-3.5c-.3 0-.5 0-.6.2l-.2.4c0 .2 0 .4.2.5l.3.6.5.4.5.1c.2 0 .3 0 .4-.2l.2-.5v-.7h2.3v3.7h1v-6.8h7.4v1.6h-.2c-.7 0-1.3.2-1.8.6l-.5-.4a2 2 0 0 0-1.1-.3c-.6 0-1.1.2-1.6.6-.4.3-.6.8-.6 1.5s.3 1.4.7 2 1.1 1 2 1.5l.5-.8c-.7-.4-1.3-.9-1.6-1.3-.4-.4-.5-.8-.5-1.3 0-.4 0-.7.3-1s.5-.3 1-.3l.7.2.3.3a4 4 0 0 0-.4 1.3l1 .3c0-.5.2-1 .3-1.2l.6-.7.8-.2v4.5h1.1v-6.9h2.2v6.9h1v-6.9h5.6v1.1h-1.4c-.7 0-1.2.1-1.5.4-.3.2-.4.6-.4 1s0 .8.4 1.1c.2.3.5.6.9.8l.7-.2h.7l.9.1c.2.1.3.4.3.7 0 .3-.2.5-.4.7s-.6.2-1 .2-1 0-1.5-.3l-1.3-1-.6.8c.4.4.9.8 1.4 1s1.2.4 2 .4c.5 0 1 0 1.3-.2l.8-.7c.2-.3.2-.6.2-1 0-.5-.1-1-.5-1.2-.3-.3-.9-.5-1.5-.5h-.7a4 4 0 0 0-.7.2l-.3-.4a.7.7 0 0 1-.2-.4c0-.2 0-.4.2-.5l.8-.1h2.4v-2h1.3v-.9h-7Zm21.7 8.5a3 3 0 0 0-1.1-.3h-.8l.2 1h1.4c.2 0 .5.3.7.5l.9 1.1.7-.5c-.3-.5-.7-1-1-1.2l-1-.7Z"/>
  <path class="st4" d="M214.4 23.2h1v-6.8h1.3v-.9h-9.8a15.6 15.6 0 0 0-1.1-2.7l-.7-.5a2.7 2.7 0 0 0-1.5-.1l-.6.1.2 1a3 3 0 0 1 1-.3c.3 0 .4 0 .6.2l.4.3.4.8.4 1.3h-26.6v.9h1.6v2.3h-.3c-.3 0-.5 0-.6.2l-.2.5c0 .1 0 .3.2.5 0 .2.2.3.3.5l.5.4.5.2.4-.2c.2-.1.2-.3.2-.5v-4h2.3v6.9h1v-6.9h4l.2.4v.7c0 .4 0 .7-.2 1l-.7.5-.4-.4-.6-.2c-.2 0-.4 0-.5.2l-.2.4.1.6.5.8c.3.5.7 1 1.2 1.4l1.7 1.6.7-.6-1-1-1-.8-.7-.8c.4-.2.8-.3 1.1-.6a2.3 2.3 0 0 0 1-2v-.7l-.1-.4h5.8v2.2h-3.5c-.3 0-.5 0-.6.2l-.2.4c0 .2 0 .4.2.6 0 .2.2.3.3.5l.5.4.5.1.4-.1.2-.6v-.6h2.3v3.6l-.5.1c-.3.1-.6.3-.8.6l.5.6.6-.4.7-.1c.3 0 .5 0 .6.2l.2.6c0 .3 0 .5-.3.6s-.6.3-1 .3-.7 0-1-.2l-1-.6c-.2-.2-.6-.5-.9-1l-.7.7 1 1 1.3.8 1.3.2c.7 0 1.3-.2 1.7-.5s.5-.7.5-1.2-.1-1-.4-1.3c-.2-.2-.5-.3-.9-.4v-6.7h5.6v1h-1.7c-.7 0-1.1.1-1.4.4-.4.2-.5.6-.5 1 0 .3 0 .6.2.8l.5.5-.3.4c-.3.3-.4.7-.4 1.2s.1 1 .4 1.4.7.7 1.2 1l1.8.8.5-.8-1.6-.7c-.4-.2-.8-.5-1-.8-.2-.2-.3-.5-.3-.9s.1-.7.4-1c.3-.2.7-.3 1.3-.3.5 0 .9.1 1 .3s.4.4.4.7c0 .1 0 .3-.2.5l-.6.5.7.7c.4-.2.7-.5.9-.8s.2-.6.2-1 0-.6-.2-.8-.4-.5-.8-.7a4.2 4.2 0 0 0-2.6 0l-.4-.4a.7.7 0 0 1-.1-.5c0-.2 0-.3.2-.5s.5-.1.8-.1h2.6v-2h2.2v6.9h1v-6.9h3.7l.1.4a2.6 2.6 0 0 1-.1 1.7l-.4.5-.4-.4c-.2-.2-.4-.2-.6-.2l-.5.2c-.1.2-.2.2-.2.5v.5l.4.6 1 1.5 1.7 1.8.7-.7-1-1a34 34 0 0 1-1.4-1.6c.3 0 .5-.2.8-.3l.1-.1 1 .4a6.2 6.2 0 0 0 2.2 0l.3-.1v3.2Zm-.4-4-1 .1a5 5 0 0 1-.9 0l-.6-.3.3-.4.1-1V17l-.2-.5h2.7v2.8h-.4Zm2.1 4.8a3 3 0 0 0-1.1-.3h-.7l.1 1h1.4c.2 0 .5.3.7.5l.9 1.1.7-.5c-.4-.5-.7-1-1-1.2l-1-.7Zm2.2-2.3c-.2 0-.4 0-.5.2s-.3.4-.3.7c0 .3.1.5.3.6l.5.2c.2 0 .4 0 .6-.2l.2-.6c0-.4 0-.6-.2-.7l-.6-.2Zm0-3.6c.2 0 .4 0 .6-.2l.2-.6c0-.3 0-.6-.2-.7l-.6-.2-.5.2a1 1 0 0 0-.3.7c0 .3.1.5.3.6l.5.2Z"/>
</svg>
