<svg width="180" height="54" fill="none" xmlns="http://www.w3.org/2000/svg">
  <path d="M173.3 54H6.7A6.7 6.7 0 0 1 0 47.2V6.8C0 3 3 0 6.7 0h166.6a6.7 6.7 0 0 1 6.7 6.8v40.5c0 3.7-3 6.7-6.7 6.7Z" fill="#000"/>
  <path d="M27.6 26.2 13.4 41.5a3.8 3.8 0 0 0 5.7 2.3l16-9.3-7.5-8.3Z" fill="#EA4335"/>
  <path d="m42 23.6-7-4-7.7 7 7.8 7.9 6.9-4a3.9 3.9 0 0 0 2-3.5 4 4 0 0 0-2-3.4Z" fill="#FBBC04"/>
  <path d="M13.4 12.5a3.7 3.7 0 0 0-.1 1v27l.1 1 14.7-14.9-14.7-14Z" fill="#4285F4"/>
  <path d="m27.7 27 7.4-7.4-16-9.4a3.9 3.9 0 0 0-5.7 2.3L27.7 27Z" fill="#34A853"/>
  <path d="M131.5 26.7h2.2V12h-2.2v14.6Zm19.6-9.3-2.5 6.3-2.6-6.3h-2.4l3.9 8.8-2.2 4.9h2.2l6-13.8h-2.4ZM138.8 25c-.7 0-1.7-.3-1.7-1.2 0-1.2 1.2-1.6 2.3-1.6 1 0 1.4.2 2 .5a2.6 2.6 0 0 1-2.6 2.3Zm.2-8c-1.5 0-3.2.7-3.8 2.2l1.9.9c.4-.9 1.2-1.1 2-1.1 1.1 0 2.2.7 2.3 1.9v.1a4.8 4.8 0 0 0-2.3-.6c-2 0-4.2 1.2-4.2 3.3 0 2 1.7 3.2 3.6 3.2a3 3 0 0 0 2.8-1.4v1.1h2.2V21c0-2.5-2-4-4.5-4Zm-13.4 2.1h-3.1v-5h3.1a2.5 2.5 0 0 1 2.6 2.5c0 1.1-1 2.5-2.6 2.5Zm0-7h-5.3v14.6h2.2V21h3c2.5 0 4.8-1.7 4.8-4.5S128 12 125.5 12ZM97 25c-1.5 0-2.7-1.3-2.7-3s1.2-3 2.7-3c1.5 0 2.7 1.3 2.7 3s-1.2 3-2.7 3Zm2.5-6.8a3.4 3.4 0 0 0-2.7-1.2 5 5 0 0 0-4.7 5 4.9 4.9 0 0 0 4.7 5c1.2 0 2.2-.6 2.6-1.2h.1v.7c0 2-1 3-2.6 3a2.7 2.7 0 0 1-2.5-1.8l-2 .8c.6 1.3 2 3 4.5 3s4.7-1.6 4.7-5.3v-8.9h-2v.8Zm3.6 8.4h2.2V12.1h-2.2v14.6Zm5.4-4.8a2.7 2.7 0 0 1 2.6-2.9c.8 0 1.6.5 1.8 1.1l-4.4 1.8Zm6.7-1.6c-.4-1.1-1.6-3.2-4.2-3.2s-4.7 2-4.7 5c0 2.8 2.1 5 5 5a5 5 0 0 0 4-2.2l-1.6-1.2a2.8 2.8 0 0 1-2.5 1.4c-1 0-1.9-.5-2.4-1.5l6.7-2.7-.3-.6Zm-52.8-1.6v2h5a4.4 4.4 0 0 1-1 2.7 5.2 5.2 0 0 1-4 1.5 5.5 5.5 0 0 1-5.5-5.6 5.5 5.5 0 0 1 9.3-4l1.5-1.5a7.3 7.3 0 0 0-5.3-2.1 7.8 7.8 0 0 0-7.8 7.7 7.8 7.8 0 0 0 7.8 7.7 7 7 0 0 0 5.4-2.2 7 7 0 0 0 1.8-5v-1.2h-7.2Zm13 6.4c-1.6 0-2.9-1.2-2.9-3s1.3-3 2.8-3c1.5 0 2.8 1.2 2.8 3s-1.3 3-2.8 3Zm0-8a4.9 4.9 0 0 0-5 5 4.9 4.9 0 0 0 5 5 4.9 4.9 0 0 0 5-5 4.9 4.9 0 0 0-5-5Zm10.8 8c-1.5 0-2.8-1.2-2.8-3s1.3-3 2.8-3c1.5 0 2.8 1.2 2.8 3s-1.3 3-2.8 3Zm0-8a4.9 4.9 0 0 0-5 5 4.9 4.9 0 0 0 5 5 4.9 4.9 0 0 0 5-5 4.9 4.9 0 0 0-5-5ZM60.1 40v-3h-2.8v3h2.8Zm2.4-3h-1.3v7h-1v-3.2h-2.9v.5l-.1.6a.5.5 0 0 1-.5.2l-.6-.3a2.3 2.3 0 0 1-.6-.6l-.3-.7c0-.2 0-.3.2-.4a1 1 0 0 1 .6-.2h.3V37h-1.6v-.9h7.8v1Z" fill="#fff"/>
  <path d="M60.1 40h.2v-3.1h-3V40h3v-.2H60v-.1h-2.6v-2.6H60v2.7h.1Zm2.4-3H61v7h-.7v-3.2h-3v.6l-.2.5a.4.4 0 0 1-.4.2l-.6-.3a2.2 2.2 0 0 1-.5-.6 1.2 1.2 0 0 1-.3-.6c0-.2.1-.3.2-.3a.9.9 0 0 1 .5-.1h.5V37h-1.6v-.7h7.4v.8h.3v-1h-8v1.2h1.6v2.6H56a1 1 0 0 0-.7.2.6.6 0 0 0-.2.5c0 .2 0 .5.3.8l.6.7.7.2c.3 0 .5 0 .6-.2l.2-.7V41H60v3h1.3v-7h1.3-.1Z" fill="#fff"/>
  <path d="M65.8 37h-1.4v7h-1v-7h-1.1v-.9h3.5v1Z" fill="#fff"/>
  <path d="M65.8 37h-1.5v7h-.8v-7h-1v-.6h3.1v.7h.3v-1h-3.7v1.2h1v7h1.4v-7h1.3V37h-.1Zm5 0v2.3l.1 1c0 .1 0 .3.2.4l.2.3.4.2A2.1 2.1 0 0 0 73 41a3 3 0 0 0 .8-.6V37h-3Zm5.5 0h-1.4v7h-1v-2.5L70 44.2l-.6-.9 2.2-1.2a1.9 1.9 0 0 1-1-.5 2 2 0 0 1-.6-.8 4.2 4.2 0 0 1-.1-1.3V37h-1v-.9h7.3v1Z" fill="#fff"/>
  <path d="M70.9 37h-.2v3.3l.2.5.3.3.4.2a2.2 2.2 0 0 0 1.5-.1 3 3 0 0 0 1-.7v-3.6h-3.3v.3h3v3.2h.1l-.9.5a2 2 0 0 1-1.3.2.8.8 0 0 1-.3-.2l-.1.1h.1l-.2-.4-.1.1a1.1 1.1 0 0 1 0-.5 6.7 6.7 0 0 1 0-.9V37h-.2Zm5.3 0h-1.4v7H74v-2.6L70 44l-.4-.6L72 42h-.4a1.8 1.8 0 0 1-1-.5 2 2 0 0 1-.4-.7l-.2-1.3v-2.6h-1v-.6h7.1v.7h.3v-1h-7.7v1.2h1v2.3c0 .6 0 1 .2 1.4a2 2 0 0 0 1.6 1.3V42l-2.3 1.3.7 1 3.9-2.5v2.3H75v-7h1.3-.2Z" fill="#fff"/>
  <path d="M79.5 37h-1.3v7h-1v-7H76v-.9h3.4v1Z" fill="#fff"/>
  <path d="M79.5 37h-1.4v7h-.8v-7h-1.1v-.6h3.2v.7h.3v-1h-3.8v1.2h1.2v7h1.3v-7h1.3V37h-.2Z" fill="#fff"/>
  <path d="M81.3 37v2.3l.1 1 .1.4.3.3.3.2a2.1 2.1 0 0 0 1.5-.2l.8-.6.5.9-.9.5a3.4 3.4 0 0 1-1.4.3l-1-.1a1.7 1.7 0 0 1-.7-.6 2 2 0 0 1-.4-.8l-.2-1.1V37h-1v-.9h4.1v1h-2Z" fill="#fff"/>
  <path d="M81.3 37v3.3l.1.5.3.3.4.2a2.2 2.2 0 0 0 1.5-.1 3 3 0 0 0 .9-.7h-.2l.4.9.2-.1-.1-.1-.9.5a3.3 3.3 0 0 1-1.3.3c-.4 0-.7 0-1-.2a1.8 1.8 0 0 1-1-1.2 4.6 4.6 0 0 1-.1-1.1v-2.6h-1v-.6h3.8v.6h-2v.3h2.3V36h-4.4v1.2h1v2.3l.1 1.2a2 2 0 0 0 1.3 1.4l1 .2A3.3 3.3 0 0 0 84 42l.8-.6h.1l-.6-1.2-.1.1c-.3.3-.5.5-.8.6a2 2 0 0 1-1.3.2.8.8 0 0 1-.3-.2l-.1.1-.2-.4v.1-.5a6.7 6.7 0 0 1-.1-.9V37h-.1Z" fill="#fff"/>
  <path d="M88.3 39.8h-1.4l-1.2.1c-.2 0-.5.2-.6.4-.2.1-.3.4-.3.7l.2.8.6.8 1 .9-.6.7a12.6 12.6 0 0 1-1.3-1.3 4.4 4.4 0 0 1-.7-1 2.3 2.3 0 0 1-.2-1 1.8 1.8 0 0 1 .7-1.4c.3-.2.5-.4.9-.4l1.3-.2h1.6V37h-5v-.9h7.3v1h-1.3V44h-1v-4.2Z" fill="#fff"/>
  <path d="M88.3 39.8h-2.6c-.3 0-.5.2-.7.4-.2.2-.3.5-.3.8 0 .3 0 .6.2.8l.6.9 1 .9.2-.1-.1-.1-.7.7h.2l-1.3-1.3a4.3 4.3 0 0 1-.6-1 2.2 2.2 0 0 1-.3-.9l.2-.7.5-.6.8-.4 1.3-.1h1.7v-2.2h-5v-.6h7.1v.6h-1.3v7h-.8v-4.2h-.1v.1h-.1v4.3h1.2v-7h1.4V36H83v1.2h5v1.6h-1.4l-1.3.1-1 .5a2 2 0 0 0-.7 1.5c0 .4 0 .8.2 1 .2.4.4.8.7 1l1.3 1.4 1-.8-.2-.1a8.7 8.7 0 0 1-1-1 3.3 3.3 0 0 1-.6-.7 1.5 1.5 0 0 1-.1-.7c0-.3 0-.5.2-.6.1-.2.3-.3.5-.3A6.3 6.3 0 0 1 87 40h1.4v-.2ZM98.7 37h-2.3v4c0 .3 0 .4-.2.6a.6.6 0 0 1-.4.1c-.2 0-.5 0-.7-.2a2.2 2.2 0 0 1-.6-.7c-.2-.2-.2-.5-.2-.7 0-.2 0-.4.2-.5l.5-.1h.4V37h-1.7v-.9h7.4v1h-1.4V44h-1v-7Z" fill="#fff"/>
  <path d="M98.7 37h-2.4v4l-.2.5-.3.1a1 1 0 0 1-.6-.2 2 2 0 0 1-.6-.7 1.3 1.3 0 0 1-.2-.6l.1-.4.5-.1h.5v-2.7h-1.6v-.7h7v.7h-1.3v7h-.8v-7 .1h-.2v7.1h1.3v-7h1.3V36h-7.6v1.2h1.6v2.1H95c-.3 0-.5 0-.6.2-.2.1-.3.4-.3.6l.3.8c.1.3.3.5.6.7.3.2.5.3.8.3a.7.7 0 0 0 .5-.3.9.9 0 0 0 .2-.6v-3.8h2.2V37Z" fill="#fff"/>
  <path d="M100.9 37v-.9h7.2v1h-1.3V44h-1v-3.8h-2.3v.7c0 .2 0 .4-.2.5a.6.6 0 0 1-.5.2c-.2 0-.4 0-.6-.3a.9.9 0 0 1-.6-.6 1.4 1.4 0 0 1-.3-.7c0-.5.3-.7.8-.7h3.6V37H101Z" fill="#fff"/>
  <path d="M100.9 37h.1v-.7h7v.6h-1.4v7h-.7V40h-2.6v.8l-.1.4-.4.2a1 1 0 0 1-.5-.3 2.1 2.1 0 0 1-.6-.6 1.3 1.3 0 0 1-.2-.6l.1-.4.5-.1h3.8v-2.6h-5v.3h4.7v2h-3.5a1 1 0 0 0-.6.2.7.7 0 0 0-.3.6l.3.8.6.7.7.3c.3 0 .5-.1.6-.3l.2-.6v-.5h2V44h1.3v-7h1.3v-1h-7.5v1.2h.2V37Z" fill="#fff"/>
  <path d="M104.8 44.1a3.7 3.7 0 0 1 1.4-.2c.4 0 .7 0 1 .2a1.6 1.6 0 0 1 1 1.5 1.6 1.6 0 0 1-1 1.6 4 4 0 0 1-4-.8 7.1 7.1 0 0 1-1-1.1l.7-.6 1 1c.3.3.6.5 1 .6l1 .2c.5 0 .8 0 1-.3a.8.8 0 0 0 .4-.7.7.7 0 0 0-.2-.4.9.9 0 0 0-.4-.3h-.5a2.6 2.6 0 0 0-1.1.2l-.3-.9Z" fill="#fff"/>
  <path d="M104.8 44.1v.2a3.5 3.5 0 0 1 1.4-.3c.4 0 .7 0 1 .2a1.5 1.5 0 0 1 .9 1.4 1.5 1.5 0 0 1-1 1.4 2.9 2.9 0 0 1-1.2.3 4 4 0 0 1-2.6-1 7 7 0 0 1-1-1.1h-.2l.1.2.8-.6h-.2l1 1a3.2 3.2 0 0 0 2.1.8c.5 0 .8 0 1.1-.3a1 1 0 0 0 .4-.8c0-.2 0-.4-.2-.5a1 1 0 0 0-.4-.3 1.5 1.5 0 0 0-.6-.1 2.8 2.8 0 0 0-1.2.3v.1h.2l-.3-.9h-.1l-.2.1.4.8v.2h.2a2.6 2.6 0 0 1 1-.3h.5l.3.3.1.3a.7.7 0 0 1-.3.6c-.1.2-.5.2-.9.2a3 3 0 0 1-1-.1 3 3 0 0 1-1-.6 7.3 7.3 0 0 1-.9-1l-1 .5v.2l1.1 1.2a4.2 4.2 0 0 0 4 .8c.5-.2.7-.4 1-.7a2 2 0 0 0 0-2 1.8 1.8 0 0 0-.8-.6 2 2 0 0 0-1.1-.3 3.7 3.7 0 0 0-1.5.3h-.1v.2h.2Zm.7-7.9a5 5 0 0 1-.5-1 3 3 0 0 1-.1-.9c0-.3 0-.6.2-.9l.7-.6a2.9 2.9 0 0 1 2.4.2l-.3.8-.5-.2a1.6 1.6 0 0 0-.5 0 1 1 0 0 0-.7.2 1 1 0 0 0-.3.7l.1.8.5 1h-1Z" fill="#fff"/>
  <path d="M105.5 36.2h.1a4.7 4.7 0 0 1-.5-1 2.7 2.7 0 0 1-.1-.8c0-.4 0-.7.2-1l.7-.4a2.8 2.8 0 0 1 2.2 0l-.3.8.1-.1a2.7 2.7 0 0 0-.4-.2 1.8 1.8 0 0 0-.6-.1c-.3 0-.6 0-.9.3-.2.2-.3.5-.3.8 0 .3 0 .6.2.8l.5 1h.1V36h-1v.2h1.3l-.2-.2a5 5 0 0 1-.5-.9 2 2 0 0 1-.1-.7c0-.3 0-.5.2-.6.2-.2.4-.2.7-.2a2 2 0 0 1 1 .2l.4-.9v-.1a3 3 0 0 0-1.5-.4c-.4 0-.7 0-1 .2a1.7 1.7 0 0 0-1 1.6l.1 1 .5 1Zm6.5 7c.3-.2.6-.3.7-.5a.8.8 0 0 0 .3-.6c0-.6-.5-1-1.6-1-.5 0-1 .1-1.3.4-.3.2-.5.5-.5 1a1.9 1.9 0 0 0 .4 1l.6.7 1.2 1-.7.6-1-.9a8.3 8.3 0 0 1-.7-.6 3.8 3.8 0 0 1-.4-.7 2.5 2.5 0 0 1-.4-1.3c0-.3.1-.6.3-.8a2 2 0 0 1 .5-.7 1.6 1.6 0 0 1-.6-1.3l.1-.6.5-.5.6-.2h2.5V37h-4.6v-.9h7v1h-1.4v2h-3.3a.5.5 0 0 0-.4.5c0 .3.2.6.6.8a4 4 0 0 1 2.5 0l.8.7a2 2 0 0 1-.1 2.2c-.3.3-.7.5-1.3.7l-.3-.9Z" fill="#fff"/>
  <path d="M112 43.1v.1c.4 0 .6-.2.8-.4.2-.2.3-.4.3-.7a1 1 0 0 0-.4-.9l-1.3-.2c-.6 0-1 .1-1.4.3a1.3 1.3 0 0 0-.5 1.1l.1.6.3.6.6.7 1.2 1V45l-.7.6.1.1v-.1l-1-.9a7.3 7.3 0 0 1-1-1.2l-.3-.6a2.4 2.4 0 0 1 0-.7 1.7 1.7 0 0 1 .7-1.4h.1v-.2c-.5-.3-.7-.7-.7-1.2a1.1 1.1 0 0 1 .5-1l.6-.2h2.6v-1.4H108v-.7h6.7v.7h-1.3v2h-3.2a.7.7 0 0 0-.4.3.7.7 0 0 0-.2.4c0 .4.3.7.7.9a4 4 0 0 1 2.5 0c.4.2.6.4.8.7.2.2.3.5.3.9s-.2.8-.4 1c-.3.4-.7.6-1.2.7v.2h.1l-.3-1-.1.1h-.1l.3 1h.1c.6-.2 1-.4 1.4-.8.3-.3.4-.7.4-1.2 0-.4 0-.8-.3-1a2 2 0 0 0-1-.8 4.2 4.2 0 0 0-2.5 0h.1c-.4-.2-.5-.4-.5-.7v-.3l.3-.1h3.4v-2h1.4V36h-7.2v1.2h4.5v.8H110l-.6.3-.5.5-.2.7c0 .6.3 1 .7 1.4l.1-.1v-.1a2 2 0 0 0-.7.7l-.2 1a2.6 2.6 0 0 0 .4 1.3l.4.7.7.6 1 1h.1l.8-.8V45c-.5-.4-1-.7-1.2-1a5.5 5.5 0 0 1-.6-.6 1.7 1.7 0 0 1-.2-.5 1.6 1.6 0 0 1-.1-.5 1 1 0 0 1 .4-.8 2 2 0 0 1 1.2-.4c.5 0 1 .1 1.1.3.3.1.4.3.4.6 0 .2 0 .4-.2.5l-.8.4h-.1v.2h.2Z" fill="#fff"/>
  <path d="M118.1 37h-1.3v7h-1v-7h-1.2v-.9h3.5v1Zm-2.3-.8a9.9 9.9 0 0 0-.6-1.6 2.1 2.1 0 0 0-.5-.8 1.2 1.2 0 0 0-.8-.2h-.4a3.3 3.3 0 0 0-.5.2l-.3-1a3 3 0 0 1 1.2-.2l1 .2.6.6c.2.3.5.6.6 1l.6 1.8h-1Z" fill="#fff"/>
  <path d="M118.1 37h-1.5v7h-.7v-7h-1.1v-.6h3.2v.7h.2v-1h-3.7v1.2h1.1v7h1.3v-7h1.3V37h-.1Zm-2.3-.8a9.8 9.8 0 0 0-.5-1.6 2.3 2.3 0 0 0-.6-.9 1.3 1.3 0 0 0-.8-.3 2.7 2.7 0 0 0-1 .2l.1.2h.2l-.3-1h-.2v.2a2.9 2.9 0 0 1 1.2-.2c.3 0 .6 0 .9.2.2 0 .4.2.6.5l.6 1 .6 1.8h.1V36h-1v.3h1.2v-.2l-.6-1.8a4.8 4.8 0 0 0-.7-1 2.2 2.2 0 0 0-.7-.7l-1-.2a4 4 0 0 0-1.2.2h-.1l.4 1.2.5-.2h.4c.3 0 .5 0 .7.2l.5.8c.2.3.3.9.5 1.6h.2Z" fill="#fff"/>
  <path d="M121.2 39.8h3.1V37h-2.8a3 3 0 0 1 .2 1.2c0 .7-.2 1.2-.5 1.6Zm5.4-2.8h-1.3v7h-1v-3.3h-1.6a6 6 0 0 1-2-.3l-.7.4a19.1 19.1 0 0 0 2.7 2.7l-.7.6a25.1 25.1 0 0 1-2.6-2.6 9 9 0 0 1-1-1.4 1.3 1.3 0 0 1 0-.4v-.3l.4-.3a.9.9 0 0 1 .4 0h.6l.4.5c.2-.2.3-.3.3-.6a3.4 3.4 0 0 0 0-2h-2.6v-.9h8.7v1Z" fill="#fff"/>
  <path d="M121.2 39.8v.1h3.1v-3h-3v.2c.2.3.2.7.2 1.1 0 .6-.1 1.1-.4 1.5l-.1.2h.2v-.1h.1c.4-.4.5-1 .5-1.6 0-.5 0-.9-.2-1.2h-.1v.2h2.6v2.5h-1.8a9.5 9.5 0 0 1-1 0Zm5.4-2.8h-1.4v7h-.8v-3.3h-1.7a6 6 0 0 1-2-.3h-.1l-.6.4h-.2l.1.2a19.8 19.8 0 0 0 2.7 2.7l.1-.1v-.1l-.8.7h.2a22.5 22.5 0 0 1-2.6-2.6 8.6 8.6 0 0 1-.7-1h-.1a3 3 0 0 1-.1-.5v-.3h-.2.1l.1-.3h-.1.1l.2-.2h.9l.4.5h.2l.4-.6a3.5 3.5 0 0 0 0-1.6l-.1-.5V37H118v-.6h8.5v.7h.2v-1h-9v1.2h2.7V37a3.3 3.3 0 0 1 0 2c0 .2-.2.4-.3.5h.2a1.5 1.5 0 0 0-.5-.4 1.2 1.2 0 0 0-.6-.2l-.5.1a.8.8 0 0 0-.3.3l-.1.4v.4l.2.5.8 1a23 23 0 0 0 2.6 2.7h.1l.8-.7.1-.1-.1-.1a19.5 19.5 0 0 1-2.7-2.7v.2l.6-.3v-.1c.4.3 1.1.4 2 .4h1.4V44h1.3v-7h1.3-.1Zm-2.5 7.6a3.6 3.6 0 0 1 2.2.2 4.7 4.7 0 0 1 1.3 1l.7 1-.7.6a7.2 7.2 0 0 0-.9-1.1 2.5 2.5 0 0 0-2.4-.8l-.2-1Z" fill="#fff"/>
  <path d="M124.1 44.6a3.5 3.5 0 0 1 1.4.1 3.3 3.3 0 0 1 1.4.7l.6.6.7 1 .1-.1v-.1l-.8.5h.2l-.9-1.1a2.7 2.7 0 0 0-2.5-.8v.1h.1l-.1-1h-.2v1.2h.2a2.4 2.4 0 0 1 2.4.7l.8 1v.2l1-.6v-.2l-.8-1a5 5 0 0 0-.7-.6 3.7 3.7 0 0 0-1.4-.7 3.8 3.8 0 0 0-1.5 0h-.1.1Z" fill="#fff"/>
</svg>
