<svg xmlns="http://www.w3.org/2000/svg" viewBox="0 0 239 70.9">
  <rect x="-.1" width="239.2" height="70.9" rx="8.9" ry="8.9"/>
  <path d="M120.6 38.5c-4.2 0-7.5 3.2-7.5 7.6s3.4 7.5 7.5 7.5 7.6-3.2 7.6-7.5-3.4-7.6-7.6-7.6Zm0 12.1c-2.3 0-4.2-1.8-4.2-4.5s2-4.6 4.2-4.6 4.3 1.9 4.3 4.6-2 4.5-4.3 4.5Zm-16.5-12c-4.2 0-7.5 3.1-7.5 7.5s3.4 7.5 7.5 7.5 7.6-3.2 7.6-7.5-3.4-7.6-7.6-7.6Zm0 12c-2.3 0-4.2-1.8-4.2-4.5s2-4.6 4.2-4.6 4.3 1.9 4.3 4.6-2 4.5-4.3 4.5Zm-19.6-9.8v3.3H92a6.7 6.7 0 0 1-1.7 4 7.8 7.8 0 0 1-6 2.3 8.4 8.4 0 0 1-8.3-8.5 8.4 8.4 0 0 1 14.1-6.2l2.3-2.3c-2-1.8-4.4-3.2-8-3.2-6.5 0-11.9 5.3-11.9 11.7s5.5 11.7 12 11.7c3.5 0 6-1.1 8.1-3.3 2.2-2 2.8-5 2.8-7.5 0-.7 0-1.4-.2-2H84.5Zm80.3 2.5c-.7-1.6-2.6-4.8-6.5-4.8s-7.1 3-7.1 7.6c0 4.2 3.2 7.5 7.5 7.5 3.4 0 5.4-2.1 6.2-3.3l-2.5-1.8c-.9 1.3-2 2.1-3.7 2.1s-3-.8-3.7-2.3l10.1-4.1-.3-.9Zm-10.3 2.5a4.1 4.1 0 0 1 4-4.4c1.2 0 2.3.7 2.7 1.6l-6.7 2.8Zm-8.2 7.4h3.3V31h-3.3v22.1Zm-5.4-13h-.1a5.2 5.2 0 0 0-4-1.7c-3.8 0-7.2 3.3-7.2 7.6s3.4 7.5 7.2 7.5c1.8 0 3.2-.8 4-1.7v1c0 3-1.5 4.5-4 4.5-2 0-3.2-1.5-3.8-2.7l-2.8 1.2c.8 2 3 4.5 6.6 4.5 4 0 7.2-2.3 7.2-7.9V39h-3.1v1.2ZM137 50.6c-2.3 0-4.2-1.9-4.2-4.5s1.9-4.6 4.2-4.6 4 2 4 4.6-1.8 4.5-4 4.5ZM180.3 31h-8v22.1h3.3v-8.3h4.7c3.6 0 7.2-2.7 7.2-7S184 31 180.3 31Zm0 10.7h-4.7V34h4.7c2.5 0 4 2 4 3.8s-1.5 3.8-4 3.8Zm20.5-3.2c-2.4 0-4.9 1-6 3.4l3 1.2c.6-1.2 1.8-1.6 3-1.6 1.7 0 3.5 1 3.5 2.9v.2c-.6-.4-1.9-.9-3.4-.9-3.2 0-6.4 1.8-6.4 5 0 3 2.6 4.9 5.5 4.9 2.2 0 3.4-1 4.2-2.2h.1v1.7h3.2v-8.5c0-3.9-3-6-6.7-6Zm-.4 12.1c-1.1 0-2.6-.5-2.6-1.8 0-1.8 1.9-2.4 3.5-2.4 1.4 0 2.1.3 3 .7a4 4 0 0 1-4 3.5ZM219 39l-3.8 9.6-4-9.6h-3.6l6 13.4-3.4 7.5h3.4l9.1-21H219Zm-29.7 14h3.4V31h-3.3v22.1Z" style="fill:#fff"/>
  <path d="m36.6 34.4-18.9 20a5 5 0 0 0 7.5 3.1h.1l21.2-12.3-10-10.8Z" style="fill:#ea4335"/>
  <path d="m55.7 31-9.2-5.3-10.3 9.2 10.3 10.3 9.1-5.2a5 5 0 0 0 0-9Z" style="fill:#fbbc04"/>
  <path d="m17.7 16.4-.1 1.4V53l.1 1.3L37.2 35 17.7 16.4Z" style="fill:#4285f4"/>
  <path d="m36.7 35.4 9.8-9.7-21.2-12.3a5.1 5.1 0 0 0-7.6 3s19 19 19 19Z" style="fill:#34a853"/>
  <path d="M81.8 21.7c-1 1-2.4 1.6-4 1.6s-2.8-.6-3.8-1.6c-1-1.1-1.6-2.4-1.6-4s.5-2.9 1.6-4c1-1 2.3-1.5 3.9-1.5s2.8.5 3.9 1.6 1.5 2.4 1.5 4-.5 2.8-1.5 3.9Zm-6.8-1c.8.9 1.7 1.3 2.9 1.3s2-.4 2.9-1.2c.8-.8 1.1-1.8 1.1-3s-.4-2.3-1.1-3.1c-.8-.8-1.8-1.2-3-1.2s-2 .4-2.8 1.2c-.8.8-1.2 1.8-1.2 3s.4 2.3 1.2 3ZM85.3 23V12.4h1.6l5.2 8.3v-8.3h1.4V23H92l-5.4-8.6V23h-1.3Zm14.2 0h-1.4v-9.3h-3v-1.3h7.4v1.3h-3V23Zm4.7 0V12.4h3.3c1.6 0 2.9.5 3.9 1.5s1.4 2.2 1.4 3.8-.4 2.9-1.4 3.9c-1 1-2.3 1.4-4 1.4h-3.2Zm1.4-1.3h1.9a4 4 0 0 0 2.9-1c.7-.7 1-1.7 1-3s-.3-2.2-1-3a4 4 0 0 0-3-1h-1.8v8Zm15.4-8h-5v3.4h4.4v1.3H116v3.3h4.9V23h-6.3V12.4h6.3v1.3Zm10-1.3-4 4.6 4.2 6h-1.6l-3.5-5-1.6 2v3H123V12.4h1.4v5.5l4.7-5.5h1.8Zm5.2 10.6V12.4h1.4V17h5.3v-4.6h1.3V23H143v-4.8h-5.3V23h-1.4Zm16.7-9.3H148v3.4h4.4v1.3H148v3.3h4.9V23h-6.2V12.4h6.2v1.3Zm5.7 9.3h-1.3v-9.3h-3v-1.3h7.3v1.3h-3V23Zm16.8-1.3a5.5 5.5 0 0 1-7.8 0c-1-1.1-1.5-2.4-1.5-4s.5-2.9 1.5-4c1-1 2.4-1.5 4-1.5s2.8.5 3.8 1.6c1 1 1.6 2.4 1.6 4s-.5 2.8-1.6 3.9Zm-6.7-1c.8.9 1.7 1.3 2.9 1.3s2-.4 2.8-1.2c.8-.8 1.2-1.8 1.2-3s-.4-2.3-1.2-3.1c-.7-.8-1.7-1.2-2.9-1.2s-2 .4-2.8 1.2c-.8.8-1.2 1.8-1.2 3s.4 2.3 1.2 3Zm11.6 2.3h-1.4V12.4h3.6a3.3 3.3 0 0 1 3.4 3.2 3 3 0 0 1-1 2.2c-.7.6-1.5 1-2.4 1h-2.2V23Zm0-5.6h2.3c.5 0 1-.2 1.4-.6s.5-.8.5-1.2-.2-1-.5-1.3-.9-.6-1.4-.6h-2.3v3.7Z" style="stroke:#fff;stroke-miterlimit:10;stroke-width:.2px;fill:#fff"/>
</svg>
