<svg width="180" height="54" fill="none" xmlns="http://www.w3.org/2000/svg">
  <path d="M173.33 54H6.67A6.73 6.73 0 0 1 0 47.25V6.75C0 3.04 3 0 6.67 0h166.66A6.73 6.73 0 0 1 180 6.75v40.5c0 3.71-3 6.75-6.67 6.75Z" fill="#000"/>
  <path d="m27.63 26.22-14.2 15.26a3.84 3.84 0 0 0 5.65 2.35l.05-.03 15.97-9.33-7.48-8.25Z" fill="#EA4335"/>
  <path d="m41.98 23.63-.01-.02-6.9-4.05-7.77 7 7.8 7.9 6.86-4a3.89 3.89 0 0 0 2.02-3.43c0-1.47-.8-2.75-2-3.4Z" fill="#FBBC04"/>
  <path d="M13.43 12.52a3.7 3.7 0 0 0-.13 1v26.96c0 .35.04.68.13 1L28.1 26.62l-14.68-14.1Z" fill="#4285F4"/>
  <path d="m27.73 27 7.34-7.44-15.96-9.37a3.85 3.85 0 0 0-5.69 2.33L27.73 27Z" fill="#34A853"/>
  <path d="M141.25 38.67h2.49V22h-2.5v16.67ZM163.65 28l-2.84 7.23h-.09L157.76 28h-2.68l4.44 10.1-2.53 5.62h2.6L166.41 28h-2.76Zm-14.1 8.77c-.82 0-1.95-.4-1.95-1.41 0-1.29 1.41-1.78 2.63-1.78 1.1 0 1.61.23 2.28.56a3.02 3.02 0 0 1-2.96 2.63Zm.3-9.13c-1.8 0-3.67.8-4.44 2.55l2.2.92c.48-.92 1.36-1.22 2.28-1.22 1.29 0 2.6.77 2.62 2.14v.18a5.5 5.5 0 0 0-2.6-.65c-2.38 0-4.8 1.31-4.8 3.76 0 2.23 1.95 3.66 4.14 3.66a3.5 3.5 0 0 0 3.17-1.63h.09v1.29h2.4v-6.4c0-2.95-2.21-4.6-5.06-4.6Zm-15.38 2.4h-3.54v-5.72h3.54a2.89 2.89 0 0 1 2.92 2.86 2.9 2.9 0 0 1-2.92 2.85Zm-.06-8.04h-5.96v16.67h2.48v-6.32h3.48c2.75 0 5.47-2 5.47-5.18 0-3.18-2.72-5.17-5.47-5.17ZM101.9 36.78c-1.72 0-3.16-1.44-3.16-3.42 0-2 1.44-3.46 3.16-3.46 1.7 0 3.03 1.46 3.03 3.46 0 1.98-1.33 3.42-3.03 3.42Zm2.86-7.84h-.09a3.93 3.93 0 0 0-2.98-1.27 5.64 5.64 0 0 0-5.44 5.7c0 3.17 2.6 5.64 5.44 5.64 1.35 0 2.42-.6 2.98-1.29h.09v.82c0 2.17-1.16 3.33-3.03 3.33a3.14 3.14 0 0 1-2.86-2.02l-2.17.9a5.4 5.4 0 0 0 5.03 3.35c2.92 0 5.39-1.72 5.39-5.9V28h-2.36v.93Zm4.08 9.73h2.49V22h-2.5v16.67Zm6.16-5.5a3.11 3.11 0 0 1 2.97-3.31c.99 0 1.82.5 2.1 1.2l-5.07 2.1Zm7.74-1.9c-.48-1.26-1.92-3.6-4.86-3.6-2.92 0-5.35 2.3-5.35 5.67 0 3.18 2.4 5.67 5.63 5.67 2.6 0 4.1-1.59 4.73-2.51l-1.94-1.3a3.24 3.24 0 0 1-2.79 1.58 2.89 2.89 0 0 1-2.75-1.72l7.58-3.14-.25-.64Zm-60.41-1.86v2.4h5.75a5.02 5.02 0 0 1-1.3 3.03 5.9 5.9 0 0 1-4.45 1.76A6.32 6.32 0 0 1 56 30.2a6.32 6.32 0 0 1 10.65-4.68l1.7-1.7a8.39 8.39 0 0 0-6.03-2.42 8.93 8.93 0 0 0-8.94 8.8 8.93 8.93 0 0 0 8.94 8.81c2.62 0 4.6-.86 6.14-2.47 1.59-1.59 2.08-3.82 2.08-5.63a7.8 7.8 0 0 0-.13-1.5h-8.1Zm14.77 7.37c-1.72 0-3.2-1.42-3.2-3.44 0-2.04 1.48-3.44 3.2-3.44 1.72 0 3.2 1.4 3.2 3.44 0 2.02-1.48 3.44-3.2 3.44Zm0-9.11a5.59 5.59 0 0 0-5.7 5.67 5.6 5.6 0 0 0 5.7 5.67 5.6 5.6 0 0 0 5.69-5.67 5.59 5.59 0 0 0-5.7-5.67Zm12.41 9.1c-1.71 0-3.2-1.41-3.2-3.43 0-2.04 1.49-3.44 3.2-3.44 1.72 0 3.2 1.4 3.2 3.44 0 2.02-1.48 3.44-3.2 3.44Zm0-9.1a5.59 5.59 0 0 0-5.69 5.67 5.6 5.6 0 0 0 5.7 5.67 5.6 5.6 0 0 0 5.69-5.67 5.59 5.59 0 0 0-5.7-5.67ZM55.18 14.3c.6.6 1.32.9 2.18.9.85 0 1.58-.3 2.17-.9.6-.6.89-1.37.89-2.3 0-.93-.3-1.7-.89-2.3-.59-.6-1.32-.9-2.17-.9-.86 0-1.58.3-2.18.9-.59.6-.88 1.37-.88 2.3 0 .93.3 1.7.88 2.3Zm5.11.67a3.93 3.93 0 0 1-2.93 1.2A4.09 4.09 0 0 1 53.25 12a4.09 4.09 0 0 1 4.1-4.17c1.17 0 2.15.4 2.94 1.22.79.81 1.18 1.8 1.18 2.96a4.1 4.1 0 0 1-1.18 2.97Z" fill="#fff"/>
  <path d="m55.18 14.3-.09.09c.61.62 1.38.94 2.27.94a3.1 3.1 0 0 0 2.27-.94c.61-.62.92-1.43.92-2.39 0-.96-.3-1.77-.92-2.39a3.07 3.07 0 0 0-2.27-.94c-.89 0-1.66.32-2.27.94a3.27 3.27 0 0 0-.93 2.39c0 .96.31 1.77.93 2.39l.1-.1.09-.09a3 3 0 0 1-.85-2.2 3 3 0 0 1 .85-2.2 2.8 2.8 0 0 1 2.08-.86c.82 0 1.5.28 2.08.86a3 3 0 0 1 .85 2.2 3 3 0 0 1-.85 2.2 2.8 2.8 0 0 1-2.08.86 2.8 2.8 0 0 1-2.08-.86l-.1.1Zm5.11.67-.1-.1a3.8 3.8 0 0 1-2.83 1.18A3.96 3.96 0 0 1 53.38 12a3.96 3.96 0 0 1 3.98-4.05A3.95 3.95 0 0 1 61.34 12c0 1.14-.38 2.09-1.14 2.87l.1.1.09.09A4.23 4.23 0 0 0 61.6 12a4.22 4.22 0 0 0-4.24-4.31A4.22 4.22 0 0 0 53.12 12a4.22 4.22 0 0 0 4.24 4.31c1.2 0 2.22-.42 3.03-1.25l-.1-.1ZM62.91 16V8h1.25l3.9 6.22h.04l-.05-1.54V8h1.03v8h-1.07l-4.07-6.52h-.04l.04 1.54V16h-1.03Z" fill="#fff"/>
  <path d="M62.91 16h.14V8.13h1.04l3.89 6.23h.25l-.04-1.68V8.13h.76v7.74h-.87l-4.07-6.53h-.25l.05 1.68v4.85h-.9v.26h1.16v-5.11l-.04-1.55h-.13v.14h.04v-.13l-.11.07 4.1 6.58h1.28V7.87h-1.3v4.81l.05 1.55h.14v-.14h-.05v.13l.11-.07-3.92-6.28h-1.46v8.26h.13V16Zm10.73 0H72.6V8.98h-2.24V8h5.5v.98h-2.23V16Z" fill="#fff"/>
  <path d="M73.64 16v-.13h-.9V8.85h-2.23v-.72h5.23v.72H73.5V16h.27V9.12h2.24V7.87h-5.77v1.25h2.24v7.01h1.3V16h-.14Zm4.56-.98h1.42a3 3 0 0 0 2.19-.8c.54-.53.81-1.27.81-2.22 0-.95-.27-1.68-.8-2.22a3 3 0 0 0-2.2-.8H78.2v6.04Zm-1.03.98V8h2.45c1.22 0 2.2.37 2.95 1.11.73.74 1.1 1.7 1.1 2.89 0 1.18-.37 2.15-1.1 2.89A3.98 3.98 0 0 1 79.62 16h-2.45Z" fill="#fff"/>
  <path d="M78.2 15.02v.13h1.42a3.1 3.1 0 0 0 2.28-.83 3.1 3.1 0 0 0 .85-2.32 3.1 3.1 0 0 0-.85-2.31 3.13 3.13 0 0 0-2.28-.84h-1.56v6.3h.14v-.13h.13v-5.9h1.29c.9 0 1.58.25 2.1.76.5.5.77 1.2.77 2.12 0 .93-.26 1.63-.77 2.13-.52.5-1.2.75-2.1.75H78.2v.14Zm-1.03.98h.13V8.13h2.32c1.2 0 2.14.36 2.85 1.08A3.78 3.78 0 0 1 83.54 12a3.8 3.8 0 0 1-1.07 2.8 3.84 3.84 0 0 1-2.85 1.07h-2.45v.26h2.45a4.1 4.1 0 0 0 3.04-1.15A4.06 4.06 0 0 0 83.8 12c0-1.21-.38-2.22-1.14-2.98a4.11 4.11 0 0 0-3.04-1.15h-2.58v8.26h.13V16Zm12.61-7.02h-3.64v2.54h3.28v.96h-3.28v2.54h3.64V16h-4.67V8h4.67v.98Z" fill="#fff"/>
  <path d="M89.78 8.98v-.13h-3.77v2.8h3.28v.7h-3.28v2.8h3.64v.72h-4.4V8.13h4.4v.85h.27V7.87h-4.94v8.26h4.94v-1.25h-3.65v-2.27h3.29V11.4h-3.29V9.12h3.65v-.14h-.14ZM97.31 8v.04l-2.97 3.44 3.17 4.48V16h-1.26l-2.6-3.73-1.23 1.42V16h-1.03V8h1.03v4.12h.04L95.98 8h1.33Z" fill="#fff"/>
  <path d="M97.31 8h-.13v.04h.13l-.1-.08-3.04 3.5L97.38 16h.13v-.13h-1.19l-2.66-3.82-1.37 1.59v2.23h-.76V8.13h.76v4.13h.24l3.52-4.13h1.26v-.26h-1.39l-3.56 4.17.1.08V12h-.04v.13h.13V7.87h-1.3v8.26h1.3v-2.4l1.09-1.25 2.54 3.65h1.47v-.22l-3.14-4.43 2.94-3.39v-.22h-.14V8Zm3.94 8V8h1.02v3.43h4V8h1.03v8h-1.03v-3.6h-4V16h-1.02Z" fill="#fff"/>
  <path d="M101.25 16h.13V8.13h.76v3.43h4.27V8.13h.76v7.74h-.76v-3.61h-4.27v3.6h-.9v.27h1.17v-3.6h3.73v3.6h1.3V7.87h-1.3v3.43h-3.73V7.87h-1.3v8.26h.14V16Zm12.55-7.02h-3.64v2.54h3.29v.96h-3.29v2.54h3.65V16h-4.67V8h4.67v.98Z" fill="#fff"/>
  <path d="M113.8 8.98v-.13h-3.77v2.8h3.28v.7h-3.28v2.8h3.64v.72h-4.4V8.13h4.4v.85h.27V7.87H109v8.26h4.94v-1.25h-3.64v-2.27h3.28V11.4h-3.28V9.12h3.64v-.14h-.13Zm4.34 7.02h-1.03V8.98h-2.23V8h5.5v.98h-2.24V16Z" fill="#fff"/>
  <path d="M118.14 16v-.13h-.9V8.85h-2.23v-.72h5.23v.72h-2.23V16h.27V9.12h2.23V7.87h-5.76v1.25h2.23v7.01h1.3V16h-.14Zm7.54-1.7c.59.6 1.31.9 2.17.9.86 0 1.58-.3 2.17-.9.6-.6.9-1.37.9-2.3 0-.93-.3-1.7-.9-2.3-.59-.6-1.31-.9-2.17-.9-.86 0-1.58.3-2.17.9-.6.6-.9 1.37-.9 2.3 0 .93.3 1.7.9 2.3Zm5.1.67a3.93 3.93 0 0 1-2.93 1.2c-1.17 0-2.15-.4-2.93-1.2a4.1 4.1 0 0 1-1.18-2.97 4.1 4.1 0 0 1 4.11-4.18c1.16 0 2.14.4 2.93 1.22a4.1 4.1 0 0 1 1.18 2.96 4.1 4.1 0 0 1-1.18 2.97Z" fill="#fff"/>
  <path d="m125.68 14.3-.1.09a3.1 3.1 0 0 0 2.27.94c.89 0 1.66-.32 2.27-.94.62-.62.93-1.43.93-2.39 0-.96-.31-1.77-.93-2.39a3.07 3.07 0 0 0-2.27-.94 3.1 3.1 0 0 0-2.27.94 3.27 3.27 0 0 0-.92 2.39c0 .96.3 1.77.92 2.39l.1-.1.1-.09a3 3 0 0 1-.86-2.2 3 3 0 0 1 .85-2.2 2.8 2.8 0 0 1 2.08-.86c.83 0 1.5.28 2.08.86a3 3 0 0 1 .85 2.2 3 3 0 0 1-.85 2.2 2.8 2.8 0 0 1-2.08.86 2.8 2.8 0 0 1-2.08-.86l-.1.1Zm5.1.67-.1-.1a3.8 3.8 0 0 1-2.83 1.18 3.96 3.96 0 0 1-3.98-4.05 3.96 3.96 0 0 1 3.98-4.05 3.95 3.95 0 0 1 3.98 4.05c0 1.14-.38 2.09-1.14 2.87l.1.1.09.09A4.23 4.23 0 0 0 132.1 12a4.23 4.23 0 0 0-4.25-4.31 4.22 4.22 0 0 0-4.24 4.31 4.22 4.22 0 0 0 4.24 4.31c1.2 0 2.22-.42 3.03-1.25l-.1-.1Zm3.65-3.19h1.72c.43 0 .78-.15 1.04-.44.26-.29.4-.6.4-.96 0-.35-.14-.67-.4-.96a1.3 1.3 0 0 0-1.04-.44h-1.72v2.8Zm0 4.22h-1.03V8h2.73c.68 0 1.27.23 1.76.68.5.45.74 1.01.74 1.7a2.2 2.2 0 0 1-.74 1.7c-.5.45-1.08.68-1.76.68h-1.7V16Z" fill="#fff"/>
  <path d="M134.43 11.78v.13h1.72a1.55 1.55 0 0 0 1.56-1.53 1.55 1.55 0 0 0-1.56-1.53h-1.85v3.06h.13v-.13h.13V9.12h1.6c.4 0 .7.13.93.39a1.23 1.23 0 0 1 0 1.74c-.23.26-.53.4-.94.4h-1.72v.13Zm0 4.22v-.13h-.9V8.13h2.6c.65 0 1.2.22 1.67.64.47.43.7.96.7 1.61 0 .65-.23 1.18-.7 1.6a2.4 2.4 0 0 1-1.67.65h-1.83V16h.26v-3.1h1.57c.7 0 1.33-.25 1.85-.72s.79-1.08.79-1.8-.27-1.33-.8-1.8a2.66 2.66 0 0 0-1.84-.71h-2.86v8.26h1.3V16h-.14Z" fill="#fff"/>
</svg>
