<svg width="180" height="54" fill="none" xmlns="http://www.w3.org/2000/svg">
  <path d="M173.3 54H6.7A6.7 6.7 0 0 1 0 47.2V6.8C0 3 3 0 6.7 0h166.6a6.7 6.7 0 0 1 6.7 6.8v40.5c0 3.7-3 6.7-6.7 6.7Z" fill="#000"/>
  <path d="M27.6 26.2 13.4 41.5a3.8 3.8 0 0 0 5.7 2.3l16-9.3-7.5-8.3Z" fill="#EA4335"/>
  <path d="m42 23.6-7-4-7.7 7 7.8 7.9 6.9-4a3.9 3.9 0 0 0 2-3.5 4 4 0 0 0-2-3.4Z" fill="#FBBC04"/>
  <path d="M13.4 12.5a3.7 3.7 0 0 0-.1 1v27l.1 1 14.7-14.9-14.7-14Z" fill="#4285F4"/>
  <path d="m27.7 27 7.4-7.4-16-9.4a3.9 3.9 0 0 0-5.7 2.3L27.7 27Z" fill="#34A853"/>
  <path d="M141.3 38.7h2.4V22h-2.5v16.7ZM163.6 28l-2.8 7.2-3-7.2H155l4.4 10.1-2.5 5.6h2.6l6.8-15.7h-2.8Zm-14 8.8c-.9 0-2-.4-2-1.4 0-1.3 1.4-1.8 2.6-1.8 1.1 0 1.6.2 2.3.5a3 3 0 0 1-3 2.7Zm.3-9.2c-1.8 0-3.7.8-4.5 2.6l2.2 1c.5-1 1.4-1.3 2.3-1.3 1.3 0 2.6.8 2.6 2.1v.2a5.5 5.5 0 0 0-2.6-.6c-2.4 0-4.8 1.3-4.8 3.7 0 2.2 2 3.7 4.2 3.7a3.5 3.5 0 0 0 3.1-1.7h.1v1.3h2.4v-6.4c0-3-2.2-4.6-5-4.6ZM134.5 30h-3.6v-5.7h3.6a2.9 2.9 0 0 1 2.9 2.9 2.9 2.9 0 0 1-3 2.8Zm0-8h-6v16.7h2.4v-6.4h3.5c2.8 0 5.5-2 5.5-5.1 0-3.2-2.7-5.2-5.5-5.2Zm-32.6 14.8c-1.7 0-3.2-1.5-3.2-3.4 0-2 1.5-3.5 3.2-3.5 1.7 0 3 1.5 3 3.5s-1.3 3.4-3 3.4Zm2.9-7.9h-.1a4 4 0 0 0-3-1.2 5.6 5.6 0 0 0-5.5 5.7c0 3.1 2.6 5.6 5.5 5.6a4 4 0 0 0 3-1.3v.8c0 2.2-1.1 3.4-3 3.4a3.1 3.1 0 0 1-2.8-2l-2.2.9a5.4 5.4 0 0 0 5 3.3c3 0 5.4-1.7 5.4-5.9V28h-2.3v1Zm4 9.8h2.5V22h-2.5v16.7Zm6.2-5.5a3.1 3.1 0 0 1 3-3.3c1 0 1.8.5 2 1.2l-5 2Zm7.7-2a5.2 5.2 0 0 0-4.8-3.5c-3 0-5.4 2.3-5.4 5.6 0 3.2 2.4 5.7 5.7 5.7 2.6 0 4-1.6 4.7-2.5l-2-1.3a3.2 3.2 0 0 1-2.7 1.6 2.9 2.9 0 0 1-2.8-1.7l7.6-3.2-.3-.6Zm-60.4-1.8v2.4h5.8a5 5 0 0 1-1.3 3 5.9 5.9 0 0 1-4.5 1.8 6.3 6.3 0 0 1-6.3-6.4 6.3 6.3 0 0 1 10.7-4.7l1.7-1.7a8.4 8.4 0 0 0-6-2.4 9 9 0 0 0-9 8.8 9 9 0 0 0 9 8.8 8 8 0 0 0 6-2.5 8 8 0 0 0 2.1-5.6 7.8 7.8 0 0 0 0-1.5h-8.2Zm14.8 7.4c-1.7 0-3.2-1.4-3.2-3.5 0-2 1.5-3.4 3.2-3.4 1.7 0 3.2 1.4 3.2 3.4s-1.5 3.5-3.2 3.5Zm0-9.1a5.6 5.6 0 0 0-5.7 5.6 5.6 5.6 0 0 0 5.7 5.7 5.6 5.6 0 0 0 5.7-5.7 5.6 5.6 0 0 0-5.7-5.6Zm12.4 9c-1.7 0-3.2-1.3-3.2-3.4 0-2 1.5-3.4 3.2-3.4 1.7 0 3.2 1.4 3.2 3.4s-1.5 3.5-3.2 3.5Zm0-9a5.6 5.6 0 0 0-5.7 5.6 5.6 5.6 0 0 0 5.7 5.7 5.6 5.6 0 0 0 5.7-5.7 5.6 5.6 0 0 0-5.7-5.6ZM55.2 14.3a3 3 0 0 0 2.2.9 3 3 0 0 0 2.1-.9c.6-.6 1-1.4 1-2.3a3 3 0 0 0-1-2.3 3 3 0 0 0-2.1-.9 3 3 0 0 0-2.2.9c-.6.6-.9 1.4-.9 2.3 0 1 .3 1.7.9 2.3Zm5 .7a4 4 0 0 1-2.8 1.2 4 4 0 0 1-4.1-4.2 4 4 0 0 1 4-4.2 4 4 0 0 1 3 1.3 4 4 0 0 1 1.2 3 4.1 4.1 0 0 1-1.2 2.9Z" fill="#fff"/>
  <path d="M55.2 14.3H55a3 3 0 0 0 2.3 1 3.1 3.1 0 0 0 2.2-1 3 3 0 0 0 1-2.3 3 3 0 0 0-1-2.4 3 3 0 0 0-2.2-1 3 3 0 0 0-2.3 1 3.3 3.3 0 0 0-1 2.4c0 1 .4 1.8 1 2.4v-.1l.2-.1a3 3 0 0 1-.9-2.2 3 3 0 0 1 .9-2.2 2.8 2.8 0 0 1 2-.9c.9 0 1.6.3 2.1.9a3 3 0 0 1 .9 2.2 3 3 0 0 1-.9 2.2 2.8 2.8 0 0 1-2 .9 2.8 2.8 0 0 1-2.1-.9l-.1.1Zm5 .7v-.1a3.8 3.8 0 0 1-2.8 1.2 4 4 0 0 1-4-4.1 4 4 0 0 1 4-4 4 4 0 0 1 4 4 4 4 0 0 1-1.2 2.9h.1v.2a4.2 4.2 0 0 0 1.3-3.1 4.2 4.2 0 0 0-4.2-4.3A4.2 4.2 0 0 0 53 12a4.2 4.2 0 0 0 4.3 4.3 4 4 0 0 0 3-1.2l-.1-.1Zm2.7 1V8h1.3l3.9 6.2V8h1v8h-1l-4.2-6.5V16h-1Z" fill="#fff"/>
  <path d="M63 16V8.1h1l4 6.3h.2V8h.7v8h-.8l-4-6.6h-.3V16H63v.2h1.2V9.5H64v.1-.1l4 6.6h1.3V8H68v6.3h.2v-.1.1L64.3 8h-1.4v8h.1Zm10.6 0h-1V9h-2.2V8h5.5v1h-2.3v7Z" fill="#fff"/>
  <path d="M73.6 16v-.1h-.9v-7h-2.2V8h5.2v.7h-2.2V16h.3V9.1H76V8h-5.8v1h2.3v7h1.3-.2Zm4.6-1h1.4a3 3 0 0 0 2.2-.8 3 3 0 0 0 .8-2.2 3 3 0 0 0-.8-2.2 3 3 0 0 0-2.2-.8h-1.4v6Zm-1 1V8h2.4a4 4 0 0 1 3 1.1 4 4 0 0 1 1 2.9 4 4 0 0 1-1 2.9 4 4 0 0 1-3 1.1h-2.4Z" fill="#fff"/>
  <path d="M78.2 15v.1h1.4a3.1 3.1 0 0 0 2.3-.8 3.1 3.1 0 0 0 .8-2.3 3.1 3.1 0 0 0-.8-2.3 3.1 3.1 0 0 0-2.3-.8h-1.5V15h.2V9h1.3c1 0 1.6.3 2.1.8s.8 1.2.8 2.1c0 1-.3 1.6-.8 2.1s-1.2.8-2 .8h-1.5v.1Zm-1 1h.1V8.1h2.3a4 4 0 0 1 2.9 1.1 3.8 3.8 0 0 1 1 2.8 3.8 3.8 0 0 1-1 2.8 3.8 3.8 0 0 1-2.9 1h-2.4v.3h2.4a4.1 4.1 0 0 0 3-1.1 4 4 0 0 0 1.2-3 4 4 0 0 0-1.1-3 4.1 4.1 0 0 0-3-1.1H77V16h.2Zm12.6-7H86v2.5h3.3v1H86V15h3.7v1H85V8h4.7v1Z" fill="#fff"/>
  <path d="M89.8 9v-.1H86v2.7h3.3v.7H86v2.8h3.7v.8h-4.4V8h4.4v1h.2V7.9h-5V16h5v-1h-3.6v-2.3h3.3v-1.2h-3.3V9.1h3.6V9h-.1Zm7.5-1-3 3.5 3.2 4.5h-1.2l-2.6-3.7-1.3 1.4V16h-1V8h1v4.1L96 8h1.3Z" fill="#fff"/>
  <path d="M97.3 8h-.1.1l-3.1 3.5 3.2 4.5h.1v-.1h-1.2L93.7 12l-1.4 1.6V16h-.8V8h.8v4.2h.2L96 8h1.3H96l-3.6 4v.1-.1.1h.1V8h-1.3v8h1.3v-2.4l1.1-1.2 2.6 3.6h1.4l-3-4.4L97.3 8v-.2.1Zm4 8V8h1v3.4h4V8h1v8h-1v-3.6h-4V16h-1Z" fill="#fff"/>
  <path d="M101.3 16V8.1h.8v3.5h4.3V8h.8v8h-.8v-3.6h-4.3V16h-.9v.2h1.2v-3.6h3.7v3.6h1.3V8h-1.3v3.4h-3.7V7.9h-1.3V16h.2Zm12.5-7h-3.6v2.5h3.2v1h-3.2V15h3.6v1h-4.7V8h4.7v1Z" fill="#fff"/>
  <path d="M113.8 9v-.1H110v2.7h3.3v.7H110v2.8h3.7v.8h-4.4V8h4.4v1h.2V7.9H109V16h5v-1h-3.7v-2.3h3.3v-1.2h-3.3V9.1h3.6V9Zm4.3 7h-1V9H115V8h5.5v1H118v7Z" fill="#fff"/>
  <path d="M118.1 16v-.1h-.9v-7H115V8h5.2v.7H118V16h.3V9.1h2.2V8h-5.8v1h2.3v7h1.3-.2Zm7.6-1.7a3 3 0 0 0 2.2.9 3 3 0 0 0 2.1-.9c.6-.6 1-1.4 1-2.3a3 3 0 0 0-1-2.3 3 3 0 0 0-2.1-.9 3 3 0 0 0-2.2.9c-.6.6-1 1.4-1 2.3a3 3 0 0 0 1 2.3Zm5 .7a4 4 0 0 1-2.8 1.2 4 4 0 0 1-3-1.2 4.1 4.1 0 0 1-1.2-3 4.1 4.1 0 0 1 4.1-4.2 4 4 0 0 1 3 1.2 4.1 4.1 0 0 1 1.2 3 4.1 4.1 0 0 1-1.2 3Z" fill="#fff"/>
  <path d="M125.7 14.3h-.1a3.1 3.1 0 0 0 2.3 1 3 3 0 0 0 2.2-1 3 3 0 0 0 1-2.3c0-1-.4-1.8-1-2.4a3 3 0 0 0-2.2-1 3.1 3.1 0 0 0-2.3 1 3.3 3.3 0 0 0-1 2.4c0 1 .4 1.8 1 2.4v-.1l.2-.1a3 3 0 0 1-.9-2.2 3 3 0 0 1 .9-2.2 2.8 2.8 0 0 1 2-.9c.9 0 1.5.3 2.1.9a3 3 0 0 1 .9 2.2 3 3 0 0 1-.9 2.2 2.8 2.8 0 0 1-2 .9 2.8 2.8 0 0 1-2.1-.9l-.1.1Zm5 .7v-.1a3.8 3.8 0 0 1-2.8 1.2 4 4 0 0 1-4-4.1 4 4 0 0 1 4-4 4 4 0 0 1 4 4 4 4 0 0 1-1.2 2.9l.2.2A4.2 4.2 0 0 0 132 12a4.2 4.2 0 0 0-4.3-4.3 4.2 4.2 0 0 0-4.2 4.3 4.2 4.2 0 0 0 4.3 4.3 4 4 0 0 0 3-1.2l-.1-.1Zm3.7-3.2h1.8c.4 0 .7-.2 1-.5.3-.2.4-.6.4-1 0-.3-.1-.6-.4-.9a1.3 1.3 0 0 0-1-.4h-1.8v2.8Zm0 4.2h-1V8h2.7c.7 0 1.3.2 1.8.7.5.4.7 1 .7 1.7a2.2 2.2 0 0 1-.7 1.7c-.5.4-1 .7-1.8.7h-1.7V16Z" fill="#fff"/>
  <path d="M134.4 11.8v.1h1.8a1.6 1.6 0 0 0 1.5-1.5 1.6 1.6 0 0 0-1.5-1.5h-1.9v3h.1v-.1h.2V9h1.6c.4 0 .7.1.9.4a1.2 1.2 0 0 1 0 1.7c-.2.3-.5.5-1 .5h-1.7Zm0 4.2v-.1h-.9V8h2.6c.7 0 1.2.3 1.7.7.5.4.7 1 .7 1.6a2 2 0 0 1-.7 1.6 2.4 2.4 0 0 1-1.7.6h-1.8V16h.3v-3.1h1.5c.7 0 1.4-.3 1.9-.7s.8-1.1.8-1.8-.3-1.4-.8-1.8a2.7 2.7 0 0 0-1.9-.7h-2.8V16h1.3-.2Z" fill="#fff"/>
</svg>
