<svg width="180" height="54" fill="none" xmlns="http://www.w3.org/2000/svg">
  <path d="M173.3 54H6.7A6.7 6.7 0 0 1 0 47.2V6.8C0 3 3 0 6.7 0h166.6a6.7 6.7 0 0 1 6.7 6.8v40.5c0 3.7-3 6.7-6.7 6.7Z" fill="#000"/>
  <path d="M27.6 26.2 13.4 41.5a3.8 3.8 0 0 0 5.7 2.3l16-9.3-7.5-8.3Z" fill="#EA4335"/>
  <path d="m42 23.6-7-4-7.7 7 7.8 7.9 6.9-4a3.9 3.9 0 0 0 2-3.5 4 4 0 0 0-2-3.4Z" fill="#FBBC04"/>
  <path d="M13.4 12.5a3.7 3.7 0 0 0-.1 1v27l.1 1 14.7-14.9-14.7-14Z" fill="#4285F4"/>
  <path d="m27.7 27 7.4-7.4-16-9.4a3.9 3.9 0 0 0-5.7 2.3L27.7 27Z" fill="#34A853"/>
  <path d="M142.6 40h2.5V23.3h-2.5V40ZM165 29.3l-2.9 7.3-3-7.3h-2.7l4.5 10.1-2.6 5.7h2.6l6.9-15.8H165Zm-14.1 8.8c-.8 0-2-.4-2-1.4 0-1.3 1.4-1.8 2.7-1.8 1 0 1.6.2 2.2.6a3 3 0 0 1-3 2.6Zm.3-9.1c-1.8 0-3.7.8-4.4 2.5l2.2 1c.4-1 1.3-1.3 2.2-1.3 1.3 0 2.6.8 2.7 2.2v.1a5.5 5.5 0 0 0-2.6-.6c-2.4 0-4.8 1.3-4.8 3.8 0 2.2 1.9 3.6 4 3.6a3.5 3.5 0 0 0 3.3-1.6V40h2.5v-6.4c0-3-2.2-4.6-5.1-4.6Zm-15.4 2.4h-3.5v-5.8h3.5a2.9 2.9 0 0 1 3 3 2.9 2.9 0 0 1-3 2.8Zm0-8h-6V40h2.5v-6.3h3.5c2.7 0 5.4-2 5.4-5.2s-2.7-5.2-5.4-5.2ZM103.3 38c-1.8 0-3.2-1.4-3.2-3.4s1.4-3.5 3.1-3.5c1.7 0 3 1.5 3 3.5s-1.3 3.4-3 3.4Zm2.8-7.8h-.1a4 4 0 0 0-3-1.3 5.6 5.6 0 0 0-5.4 5.7c0 3.2 2.6 5.6 5.4 5.6a4 4 0 0 0 3-1.2v.8c0 2.1-1 3.3-3 3.3a3.1 3.1 0 0 1-2.8-2L98 42a5.4 5.4 0 0 0 5 3.3c3 0 5.5-1.7 5.5-5.9v-10H106v.9Zm4 9.7h2.6V23.3h-2.5V40Zm6.3-5.5a3.1 3.1 0 0 1 3-3.3c.9 0 1.7.5 2 1.2l-5 2.1Zm7.7-1.9c-.5-1.3-2-3.6-4.9-3.6-2.9 0-5.3 2.3-5.3 5.7 0 3.1 2.4 5.6 5.6 5.6 2.6 0 4.1-1.5 4.7-2.5l-1.9-1.3a3.2 3.2 0 0 1-2.8 1.6 2.9 2.9 0 0 1-2.7-1.7l7.5-3.1-.2-.7Zm-60.4-1.9V33h5.7a5 5 0 0 1-1.3 3 5.9 5.9 0 0 1-4.4 1.8 6.3 6.3 0 0 1-6.3-6.4A6.3 6.3 0 0 1 68 27l1.7-1.7a8.4 8.4 0 0 0-6-2.5 9 9 0 0 0-9 8.8 9 9 0 0 0 9 8.8 8 8 0 0 0 6.1-2.4c1.6-1.6 2-3.8 2-5.6a7.8 7.8 0 0 0 0-1.5h-8.1ZM78.4 38c-1.7 0-3.2-1.4-3.2-3.4s1.5-3.5 3.2-3.5c1.8 0 3.2 1.4 3.2 3.5 0 2-1.4 3.4-3.2 3.4Zm0-9a5.6 5.6 0 0 0-5.7 5.6 5.6 5.6 0 0 0 5.7 5.6 5.6 5.6 0 0 0 5.7-5.6 5.6 5.6 0 0 0-5.7-5.7ZM91 38c-1.8 0-3.2-1.4-3.2-3.4s1.4-3.5 3.2-3.5c1.7 0 3.2 1.4 3.2 3.5 0 2-1.5 3.4-3.2 3.4Zm0-9a5.6 5.6 0 0 0-5.7 5.6 5.6 5.6 0 0 0 5.7 5.6 5.6 5.6 0 0 0 5.7-5.6 5.6 5.6 0 0 0-5.7-5.7ZM58.2 17.2h-1v-7H55v-1h5.5v1h-2.2v7Z" fill="#fff"/>
  <path d="M58.3 17.3v-.1h-1v-7h-2.2v-.7h5.3v.7H58v7.1h.3v-6.9h2.2V9.3H55v1.3h2v7h1.3v-.2h-.1Zm3.5 0v-8h1v8h-1Z" fill="#fff"/>
  <path d="M61.8 17.3h.1V9.5h.8v7.7h-1v.3H63V9.2h-1.2v8.3-.2Zm2.8 0v-8h1v7h3.5v1h-4.5Z" fill="#fff"/>
  <path d="M64.6 17.3h.2V9.5h.7v7H69v.7h-4.4v.3h4.7v-1.3h-3.5v-7h-1.3v8.3h.1v-.2ZM78 13.7c0 1-.4 2-1 2.6a3.9 3.9 0 0 1-3 1.2 4 4 0 0 1-3-1.2c-.7-.8-1.1-1.8-1.1-3s.4-2.1 1.2-3a4 4 0 0 1 3-1.1 4 4 0 0 1 1.6.3c.5.2 1 .5 1.2.9l-.7.7a2.7 2.7 0 0 0-2.2-1 3 3 0 0 0-3 3.2 3 3 0 0 0 3 3.2 3 3 0 0 0 2.3-.9c.4-.4.6-.9.6-1.6H74v-1h4v.6Z" fill="#fff"/>
  <path d="M78 13.7h-.2c0 1-.3 1.9-1 2.5a3.7 3.7 0 0 1-2.8 1.2 3.9 3.9 0 0 1-2.8-1.2 3.9 3.9 0 0 1-1.2-2.9c0-1.1.4-2 1.2-2.9A3.9 3.9 0 0 1 74 9.3a4 4 0 0 1 1.6.3c.5.2 1 .5 1.2.9l.1-.1v-.1l-.8.7h.2c-.5-.7-1.3-1-2.3-1a3 3 0 0 0-2.3 1 3.2 3.2 0 0 0-1 2.3c0 1 .4 1.8 1 2.4.7.6 1.4 1 2.3 1 1 0 1.7-.3 2.3-1 .5-.4.7-1 .7-1.7h-2.9v-.7H78V13h-.1v.6h.3V13H74v1h3l-.1-.1a2.4 2.4 0 0 1-.6 1.5 2.9 2.9 0 0 1-2.2.9 2.9 2.9 0 0 1-2-.9 3 3 0 0 1-1-2.2 3 3 0 0 1 1-2.2 2.9 2.9 0 0 1 2-.8c1 0 1.6.3 2.1.9h.1l1-.8-.2-.1c-.3-.4-.7-.7-1.3-1A4.3 4.3 0 0 0 74 9c-1.2 0-2.2.4-3 1.3a4.2 4.2 0 0 0-1.3 3 4.2 4.2 0 0 0 1.3 3.1 4.2 4.2 0 0 0 3 1.3 4 4 0 0 0 3-1.3 3.7 3.7 0 0 0 1-2.7Zm3.1 3.8c-.5 0-1-.1-1.5-.5a2 2 0 0 1-.8-1.3l1-.4c.2.8.6 1.2 1.4 1.2.5 0 .8-.1 1-.4.3-.3.5-.8.5-1.3V9.3h1v5.5a2.7 2.7 0 0 1-.7 2c-.5.5-1.1.7-1.9.7Z" fill="#fff"/>
  <path d="M81.2 17.5v-.1a2.3 2.3 0 0 1-2.2-1.8h-.2v.2l1-.4v-.1h-.2c.2.9.8 1.4 1.6 1.4.5 0 1-.2 1.2-.5.3-.4.4-.8.4-1.4V9.5h.8v5.3c0 .8-.3 1.5-.7 2-.5.4-1 .6-1.8.6v.3c.8 0 1.5-.3 2-.8s.7-1.2.7-2.1V9.2h-1.3v5.6c0 .5 0 .9-.3 1.2-.2.3-.6.4-1 .4-.7 0-1.1-.4-1.3-1.2v-.1l-1.3.5c.2.7.5 1.2 1 1.5.4.4 1 .5 1.6.5Zm8.9-7.2h-3.7v2.5h3.3v1h-3.3v2.5h3.7v1h-4.7v-8h4.7v1Z" fill="#fff"/>
  <path d="M90 10.3v-.1h-3.7V13h3.3v.7h-3.3v2.8h3.6v.7h-4.4V9.5H90v.8h.3V9.2h-5v8.3h5v-1.3h-3.6V14h3.2v-1.2h-3.2v-2.3h3.6-.1Zm1.7 7v-8h1.2l4 6.3V9.3h1v8h-1.1l-4-6.5h-.1v6.5h-1Z" fill="#fff"/>
  <path d="M91.7 17.3h.1V9.5h1l4 6.2h.2V9.5h.7v7.7h-.9l-4-6.5h-.3v6.5h-.8v.3h1.1v-6.7h-.1v.1h-.1l4.1 6.6H98V9.2h-1.3v6.4h.2v-.2.2-.1L93 9.2h-1.5v8.3h.2v-.2Zm15.6-3.6c0 1-.4 2-1 2.6a3.9 3.9 0 0 1-3 1.2 4 4 0 0 1-3-1.2c-.7-.8-1.1-1.8-1.1-3s.4-2.1 1.2-3a4 4 0 0 1 3-1.1 4 4 0 0 1 1.6.3c.5.2 1 .5 1.2.9l-.7.7a2.7 2.7 0 0 0-2.2-1 3 3 0 0 0-2.1 1 3 3 0 0 0-1 2.2 3 3 0 0 0 1 2.3 3 3 0 0 0 2.1 1 3 3 0 0 0 2.3-1c.4-.4.6-.9.6-1.6h-2.9v-1h4v.6Z" fill="#fff"/>
  <path d="M107.3 13.7h-.2c0 1-.3 1.9-1 2.5a3.7 3.7 0 0 1-2.8 1.2 3.9 3.9 0 0 1-2.8-1.2 3.9 3.9 0 0 1-1.2-2.9 4 4 0 0 1 1.2-2.9 3.9 3.9 0 0 1 2.8-1.1 4 4 0 0 1 1.6.3c.5.2 1 .5 1.2.9l.1-.1v-.1l-.8.7h.2c-.5-.7-1.3-1-2.3-1-.8 0-1.6.3-2.2 1a3.2 3.2 0 0 0-1 2.3 3 3 0 0 0 1 2.4 3.1 3.1 0 0 0 4.6 0c.4-.4.6-1 .7-1.7h-3v-.7h3.8V13h-.1v.6h.3V13h-4.2v1h3a2.4 2.4 0 0 1-.7 1.5 2.9 2.9 0 0 1-2.2.9 2.9 2.9 0 0 1-2-.9 3 3 0 0 1-1-2.2 3 3 0 0 1 1-2.2 2.9 2.9 0 0 1 2-.8c1 0 1.6.3 2.1.9h.1l.8-.7.1-.1v-.1a3.4 3.4 0 0 0-1.4-1 4.3 4.3 0 0 0-1.7-.3c-1.2 0-2.2.4-3 1.3a4.2 4.2 0 0 0-1.3 3c0 1.2.5 2.3 1.3 3.1a4.2 4.2 0 0 0 3 1.3 4 4 0 0 0 3-1.3 3.8 3.8 0 0 0 1.1-2.7h-.1Zm6.1-3.4h-3.6v2.5h3.3v1h-3.3v2.5h3.6v1h-4.7v-8h4.7v1Z" fill="#fff"/>
  <path d="M113.4 10.3v-.1h-3.8V13h3.3v.7h-3.3v2.8h3.7v.7h-4.4V9.5h4.4v.8h.3V9.2h-5v8.3h5v-1.3h-3.7V14h3.3v-1.2h-3.3v-2.3h3.6Zm1.6 7v-8h1v7h3.5v1H115Z" fill="#fff"/>
  <path d="M115 17.3h.2V9.5h.7v7h3.5v.7H115v.3h4.6v-1.3h-3.4v-7h-1.3v8.3h.1v-.2Zm5.8 0v-8h1v8h-1Z" fill="#fff"/>
  <path d="M120.8 17.3h.1V9.5h.8v7.7h-.9v.3h1.2V9.2h-1.3v8.3h.1v-.2Zm10.4-3.6c0 1-.3 2-1 2.6a3.9 3.9 0 0 1-2.9 1.2 4 4 0 0 1-3-1.2c-.7-.8-1.1-1.8-1.1-3s.4-2.1 1.2-3a4 4 0 0 1 3-1.1 4 4 0 0 1 1.6.3c.5.2.9.5 1.2.9l-.7.7a2.7 2.7 0 0 0-2.2-1 3 3 0 0 0-2.2 1 3 3 0 0 0-.9 2.2 3 3 0 0 0 1 2.3 3 3 0 0 0 2.1 1 3 3 0 0 0 2.3-1c.3-.4.6-.9.6-1.6h-2.9v-1h3.9v.6Z" fill="#fff"/>
  <path d="M131.3 13.7h-.2c0 1-.3 1.9-1 2.5a3.7 3.7 0 0 1-2.8 1.2 3.9 3.9 0 0 1-2.8-1.2 3.9 3.9 0 0 1-1.2-2.9c0-1.1.4-2 1.2-2.9a3.9 3.9 0 0 1 2.8-1.1c.6 0 1.1 0 1.6.3.5.2 1 .5 1.2.9l.1-.1v-.1l-.8.7h.2c-.5-.7-1.3-1-2.3-1-.8 0-1.6.3-2.2 1a3.2 3.2 0 0 0-1 2.3 3 3 0 0 0 1 2.4 3.1 3.1 0 0 0 4.6 0c.4-.4.6-1 .7-1.7h-3v-.7h3.8V13h-.1v.6h.3V13h-4.2v1h3l-.1-.1a2.4 2.4 0 0 1-.6 1.5 2.9 2.9 0 0 1-2.2.9 2.9 2.9 0 0 1-2-.9 3 3 0 0 1-1-2.2 3 3 0 0 1 1-2.2 2.9 2.9 0 0 1 2-.8c1 0 1.6.3 2.1.9h.1l.8-.7.1-.1v-.1a5 5 0 0 0-1.4-1 4.3 4.3 0 0 0-1.7-.3c-1.2 0-2.2.4-3 1.3a4.2 4.2 0 0 0-1.3 3 4.2 4.2 0 0 0 1.3 3.1 4.2 4.2 0 0 0 3 1.3 4 4 0 0 0 3-1.3 3.7 3.7 0 0 0 1-2.7Zm5.1-.6h1.8a1.4 1.4 0 0 0 1.4-1.4c0-.3-.1-.7-.4-1a1.3 1.3 0 0 0-1-.4h-1.8v2.8Zm0 4.2h-1v-8h2.7c.7 0 1.3.3 1.8.7.5.5.7 1 .7 1.7a2.2 2.2 0 0 1-.7 1.7c-.5.5-1 .7-1.8.7h-1.7v3.2Z" fill="#fff"/>
  <path d="M136.4 13.1v.1h1.8a1.6 1.6 0 0 0 1.5-1.5c0-.4-.1-.7-.4-1a1.5 1.5 0 0 0-1.1-.5h-1.9v3h.3v-2.8h1.6c.4 0 .7.2.9.4.2.3.4.6.4 1l-.4.8c-.2.3-.5.4-1 .4h-1.7v.1Zm0 4.2v-.1h-.9V9.5h2.6c.7 0 1.2.2 1.7.6.5.4.7 1 .7 1.6a2 2 0 0 1-.7 1.6c-.5.4-1 .7-1.7.7h-1.8v3.3h.3v-3h1.5c.7 0 1.4-.3 1.9-.8s.8-1 .8-1.8c0-.7-.3-1.3-.8-1.8a2.7 2.7 0 0 0-1.9-.7h-2.8v8.3h1.3v-.2h-.2Zm7.7-8 .3-.1.1-.3-.1-.3-.3-.2-.3.2-.2.3.1.3.3.1Zm-1.4 4.9h2.7l-1.3-3.6-1.3 3.6Zm-2.2 3.1 2.8-7.5a1.1 1.1 0 0 1-.4-1c0-.2.1-.5.4-.7.2-.3.5-.4.8-.4.3 0 .6.1.8.4.2.2.3.5.3.8 0 .3 0 .6-.4.9l2.9 7.5h-1.2l-.7-2.1h-3.4l-.8 2.1h-1.1Z" fill="#fff"/>
  <path d="m144 9.3.1.2.4-.2.2-.4-.2-.4-.4-.2-.4.2-.2.3.1.5.4.2h.1v-.3l-.2-.1-.1-.2v-.2l.3-.1h.2v.5l-.3.1v.1Zm-1.2 4.9v.1h2.8l-1.4-3.8h-.2l-1.4 3.8h.1v-.1h.2l1.3-3.5-.1-.1v.1-.1h-.1l1.2 3.5h-2.4v.1Zm-2.3 3.1h.1l2.9-7.6a1 1 0 0 1-.5-.8c0-.3.1-.6.3-.8.2-.2.5-.3.8-.3s.5.1.7.3c.2.3.3.5.3.8a1 1 0 0 1-.4.8l2.8 7.5h-.9L146 15h-3.6l-.8 2.2h-1v.3h1.2l.8-2.2h3.2l.7 2.2h1.5l-3-7.8v.2c.3-.3.5-.6.5-1s-.2-.7-.4-1a1.3 1.3 0 0 0-1-.3 1 1 0 0 0-.8.4 1.2 1.2 0 0 0-.4.9c0 .4.1.7.4 1l.1-.1-3 7.7h.2v-.2Z" fill="#fff"/>
</svg>
