<svg width="180" height="54" fill="none" xmlns="http://www.w3.org/2000/svg">
  <path d="M173.33 54H6.67A6.73 6.73 0 0 1 0 47.25V6.75C0 3.04 3 0 6.67 0h166.66A6.73 6.73 0 0 1 180 6.75v40.5c0 3.71-3 6.75-6.67 6.75Z" fill="#000"/>
  <path d="m27.63 26.22-14.2 15.26a3.84 3.84 0 0 0 5.65 2.35l.05-.03 15.97-9.33-7.48-8.25Z" fill="#EA4335"/>
  <path d="m41.98 23.63-.01-.02-6.9-4.05-7.77 7 7.8 7.9 6.86-4a3.89 3.89 0 0 0 2.02-3.43c0-1.47-.8-2.75-2-3.4Z" fill="#FBBC04"/>
  <path d="M13.43 12.52a3.7 3.7 0 0 0-.13 1v26.96c0 .35.04.68.13 1L28.1 26.62l-14.68-14.1Z" fill="#4285F4"/>
  <path d="m27.73 27 7.34-7.44-15.96-9.37a3.85 3.85 0 0 0-5.69 2.33L27.73 27Z" fill="#34A853"/>
  <path d="M142.58 40h2.49V23.33h-2.49V40ZM165 29.34l-2.85 7.22h-.09l-2.96-7.22h-2.68l4.44 10.1-2.53 5.61h2.6l6.84-15.71H165Zm-14.1 8.77c-.82 0-1.96-.41-1.96-1.42 0-1.29 1.41-1.78 2.64-1.78 1.1 0 1.6.24 2.27.56a3.02 3.02 0 0 1-2.96 2.64Zm.3-9.14c-1.81 0-3.68.8-4.45 2.55l2.21.93c.47-.93 1.35-1.23 2.27-1.23 1.3 0 2.6.78 2.62 2.15v.17a5.5 5.5 0 0 0-2.6-.64c-2.38 0-4.8 1.3-4.8 3.75 0 2.23 1.95 3.67 4.14 3.67a3.5 3.5 0 0 0 3.17-1.63h.09v1.28h2.4v-6.39c0-2.96-2.2-4.6-5.06-4.6Zm-15.38 2.4h-3.54v-5.72h3.53a2.89 2.89 0 0 1 2.92 2.86 2.9 2.9 0 0 1-2.91 2.86Zm-.07-8.04h-5.96V40h2.49v-6.32h3.47c2.76 0 5.47-2 5.47-5.17 0-3.18-2.71-5.18-5.47-5.18Zm-32.5 14.78c-1.72 0-3.16-1.44-3.16-3.42 0-2 1.44-3.45 3.15-3.45 1.7 0 3.03 1.46 3.03 3.45 0 1.98-1.33 3.42-3.03 3.42Zm2.85-7.84h-.1a3.93 3.93 0 0 0-2.98-1.27 5.64 5.64 0 0 0-5.44 5.7c0 3.17 2.6 5.64 5.44 5.64 1.35 0 2.43-.6 2.98-1.28h.09v.81c0 2.17-1.16 3.33-3.03 3.33a3.14 3.14 0 0 1-2.86-2.02l-2.17.9a5.4 5.4 0 0 0 5.03 3.35c2.92 0 5.4-1.71 5.4-5.9V29.35h-2.37v.92Zm4.08 9.73h2.5V23.33h-2.5V40Zm6.17-5.5a3.11 3.11 0 0 1 2.96-3.3c.99 0 1.83.49 2.1 1.2l-5.06 2.1Zm7.73-1.89c-.47-1.27-1.91-3.6-4.85-3.6-2.93 0-5.35 2.29-5.35 5.66 0 3.18 2.4 5.67 5.62 5.67 2.6 0 4.1-1.59 4.73-2.5l-1.93-1.3a3.24 3.24 0 0 1-2.8 1.57 2.89 2.89 0 0 1-2.75-1.72l7.59-3.13-.26-.65Zm-60.41-1.87v2.4h5.76a5.02 5.02 0 0 1-1.32 3.04 5.9 5.9 0 0 1-4.44 1.76 6.32 6.32 0 0 1-6.32-6.4A6.32 6.32 0 0 1 68 26.85l1.7-1.7a8.4 8.4 0 0 0-6.04-2.42 8.93 8.93 0 0 0-8.94 8.8 8.93 8.93 0 0 0 8.94 8.81c2.62 0 4.6-.86 6.14-2.47 1.6-1.59 2.09-3.82 2.09-5.62a7.8 7.8 0 0 0-.13-1.5h-8.1Zm14.77 7.37c-1.72 0-3.2-1.42-3.2-3.44 0-2.04 1.48-3.43 3.2-3.43 1.72 0 3.2 1.4 3.2 3.43 0 2.02-1.48 3.44-3.2 3.44Zm0-9.1a5.59 5.59 0 0 0-5.7 5.66 5.6 5.6 0 0 0 5.7 5.67 5.6 5.6 0 0 0 5.7-5.67 5.59 5.59 0 0 0-5.7-5.67Zm12.42 9.1c-1.72 0-3.2-1.42-3.2-3.44 0-2.04 1.48-3.43 3.2-3.43 1.72 0 3.2 1.4 3.2 3.43 0 2.02-1.48 3.44-3.2 3.44Zm0-9.1a5.59 5.59 0 0 0-5.7 5.66 5.6 5.6 0 0 0 5.7 5.67 5.6 5.6 0 0 0 5.69-5.67 5.59 5.59 0 0 0-5.7-5.67ZM58.25 17.33h-1.03v-7.01H55v-.99h5.5v.99h-2.24v7.01Z" fill="#fff"/>
  <path d="M58.25 17.33v-.13h-.9v-7.02h-2.23v-.71h5.23v.71h-2.23v7.15h.27v-6.88h2.23V9.2h-5.76v1.25h2.23v7.02h1.3v-.14h-.14Zm3.53 0v-8h1.03v8h-1.03Z" fill="#fff"/>
  <path d="M61.78 17.33h.14V9.47h.76v7.73h-.9v.27h1.17V9.2h-1.3v8.27h.13v-.14Zm2.86 0v-8h1.03v7.02h3.46v.98h-4.49Z" fill="#fff"/>
  <path d="M64.64 17.33h.14V9.47h.76v7.01H69v.72h-4.36v.27h4.63v-1.25H65.8V9.2h-1.29v8.27h.13v-.14Zm13.32-3.67c0 1.11-.33 2-1 2.67a3.88 3.88 0 0 1-2.93 1.18 4 4 0 0 1-2.94-1.2c-.81-.8-1.22-1.8-1.22-2.98s.4-2.17 1.22-2.97a4 4 0 0 1 2.94-1.2 4 4 0 0 1 1.64.33c.52.22.94.52 1.25.9l-.7.7a2.7 2.7 0 0 0-2.2-.95 3.07 3.07 0 0 0-3.1 3.19 3.07 3.07 0 0 0 3.11 3.2 3 3 0 0 0 2.23-.9c.39-.38.61-.92.67-1.61h-2.9v-.97h3.88c.03.21.05.41.05.6Z" fill="#fff"/>
  <path d="M77.96 13.66h-.13c0 1.09-.32 1.94-.96 2.57a3.74 3.74 0 0 1-2.84 1.15 3.9 3.9 0 0 1-2.85-1.16A3.9 3.9 0 0 1 70 13.33c0-1.15.39-2.1 1.17-2.88a3.89 3.89 0 0 1 2.85-1.16 4 4 0 0 1 1.59.32c.5.22.9.5 1.2.86l.1-.09-.1-.1-.7.71.1.1.1-.09c-.55-.66-1.33-1-2.3-1-.86 0-1.63.32-2.27.93a3.2 3.2 0 0 0-.96 2.4c0 .98.32 1.79.96 2.4.64.62 1.4.93 2.28.93.92 0 1.7-.3 2.33-.93.41-.41.65-.99.7-1.7l.02-.15h-2.92v-.7h3.75v-.13l-.14.03c.04.2.06.4.06.58h.26c0-.2-.01-.41-.05-.63l-.02-.1H73.9v1.22h3.03v-.13L76.8 14a2.38 2.38 0 0 1-.63 1.54 2.9 2.9 0 0 1-2.14.86 2.9 2.9 0 0 1-2.1-.86 2.93 2.93 0 0 1-.87-2.2c0-.92.29-1.65.88-2.22a2.9 2.9 0 0 1 2.09-.85c.9 0 1.58.3 2.09.9l.09.11.9-.89-.09-.1c-.32-.38-.76-.7-1.3-.92a4.26 4.26 0 0 0-1.7-.35c-1.18 0-2.2.42-3.03 1.24a4.16 4.16 0 0 0-1.25 3.07 4.2 4.2 0 0 0 1.25 3.08 4.16 4.16 0 0 0 3.04 1.24 4 4 0 0 0 3.03-1.23l-.1-.1.1.1a3.74 3.74 0 0 0 1.03-2.76h-.13Zm3.19 3.85c-.59 0-1.08-.16-1.5-.48-.4-.33-.7-.78-.86-1.37l.94-.4c.24.85.72 1.27 1.46 1.27.48 0 .84-.16 1.1-.46.26-.31.39-.73.39-1.26V9.33h1.03v5.46a2.7 2.7 0 0 1-.73 2.01c-.48.48-1.09.71-1.83.71Z" fill="#fff"/>
  <path d="M81.15 17.51v-.13c-.56 0-1.02-.15-1.4-.46-.4-.3-.67-.73-.83-1.3l-.13.04.05.12.94-.39-.05-.12-.13.03c.24.88.8 1.37 1.6 1.36.5 0 .91-.17 1.2-.5.28-.35.41-.8.41-1.35V9.47h.76v5.32c0 .84-.23 1.47-.68 1.92-.46.45-1.03.67-1.74.67v.27c.77 0 1.42-.25 1.93-.75.5-.5.76-1.22.76-2.11V9.2h-1.3v5.6c0 .52-.12.9-.35 1.18-.23.28-.55.41-1 .42-.68-.01-1.1-.36-1.33-1.17l-.05-.14-1.18.49.03.11c.18.61.48 1.1.92 1.44.43.34.96.52 1.57.52v-.14Zm8.92-7.19h-3.64v2.53h3.29v.96h-3.29v2.54h3.64v.98H85.4v-8h4.67v.99Z" fill="#fff"/>
  <path d="M90.07 10.32v-.14H86.3v2.8h3.28v.7H86.3v2.8h3.64v.72h-4.4V9.47h4.4v.85h.27V9.2h-4.94v8.27h4.94v-1.25h-3.65v-2.27h3.29v-1.23h-3.29v-2.27h3.65v-.13h-.14Zm1.61 7.01v-8h1.25l3.9 6.23h.04l-.05-1.54V9.33h1.03v8h-1.07l-4.07-6.52h-.04l.04 1.54v4.98h-1.03Z" fill="#fff"/>
  <path d="M91.68 17.33h.14V9.47h1.04l3.89 6.22H97l-.05-1.68V9.47h.77v7.73h-.87l-4.07-6.53h-.25l.05 1.68v4.85h-.9v.27h1.16v-5.12l-.04-1.55h-.13v.14h.04v-.13l-.11.07 4.1 6.59h1.28V9.2h-1.3v4.82l.05 1.54h.14v-.14h-.05v.14l.11-.07-3.92-6.29h-1.46v8.27h.13v-.14Zm15.59-3.67c0 1.11-.33 2-1 2.67a3.88 3.88 0 0 1-2.94 1.18c-1.15 0-2.13-.4-2.94-1.2-.8-.8-1.21-1.8-1.21-2.98s.4-2.17 1.21-2.97c.8-.8 1.79-1.2 2.94-1.2.58 0 1.13.1 1.65.33.52.22.94.52 1.25.9l-.7.7a2.7 2.7 0 0 0-2.2-.95c-.84 0-1.57.3-2.18.89a3.03 3.03 0 0 0-.92 2.3c0 .95.3 1.72.92 2.31a3 3 0 0 0 2.18.89c.9 0 1.64-.3 2.24-.9.39-.38.61-.92.67-1.61h-2.9v-.97h3.87c.04.21.06.41.06.6Z" fill="#fff"/>
  <path d="M107.27 13.66h-.14c0 1.09-.32 1.94-.95 2.57a3.74 3.74 0 0 1-2.85 1.15 3.9 3.9 0 0 1-2.85-1.16 3.89 3.89 0 0 1-1.17-2.89c0-1.15.4-2.1 1.17-2.88a3.9 3.9 0 0 1 2.85-1.16 4 4 0 0 1 1.6.32c.5.22.9.5 1.2.86l.1-.09-.1-.1-.7.71.1.1.1-.09c-.56-.66-1.33-1-2.3-1-.87 0-1.64.32-2.27.93a3.2 3.2 0 0 0-.97 2.4c0 .98.33 1.79.97 2.4.63.62 1.4.93 2.27.93.93 0 1.71-.3 2.33-.93.42-.41.65-.99.71-1.7l.02-.15h-2.92v-.7h3.74v-.13l-.13.03c.04.2.05.4.05.58h.27c0-.2-.02-.41-.06-.63l-.02-.1h-4.12v1.22h3.04v-.13l-.13-.02a2.39 2.39 0 0 1-.64 1.54 2.9 2.9 0 0 1-2.14.86 2.9 2.9 0 0 1-2.09-.86 2.93 2.93 0 0 1-.88-2.2c0-.92.3-1.65.88-2.22a2.9 2.9 0 0 1 2.1-.85c.9 0 1.58.3 2.08.9l.1.11.8-.8.09-.09-.08-.1a3.4 3.4 0 0 0-1.3-.92 4.25 4.25 0 0 0-1.7-.35c-1.18 0-2.2.42-3.03 1.24a4.15 4.15 0 0 0-1.25 3.07c0 1.22.41 2.25 1.25 3.08a4.16 4.16 0 0 0 3.03 1.24c1.24 0 2.26-.41 3.04-1.23l-.1-.1.1.1a3.75 3.75 0 0 0 1.03-2.76h-.13Zm6.14-3.34h-3.64v2.53h3.29v.96h-3.3v2.54h3.65v.98h-4.67v-8h4.67v.99Z" fill="#fff"/>
  <path d="M113.41 10.32v-.14h-3.77v2.8h3.28v.7h-3.28v2.8h3.64v.72h-4.4V9.47h4.4v.85h.27V9.2h-4.94v8.27h4.94v-1.25h-3.65v-2.27h3.29v-1.23h-3.29v-2.27h3.65v-.13h-.14Zm1.61 7.01v-8h1.03v7.02h3.46v.98h-4.49Z" fill="#fff"/>
  <path d="M115.02 17.33h.14V9.47h.76v7.01h3.46v.72h-4.36v.27h4.63v-1.25h-3.47V9.2h-1.3v8.27h.14v-.14Zm5.78 0v-8h1.04v8h-1.03Z" fill="#fff"/>
  <path d="M120.8 17.33h.14V9.47h.76v7.73h-.9v.27h1.17V9.2h-1.3v8.27h.14v-.14Zm10.45-3.67c0 1.11-.33 2-.99 2.67a3.88 3.88 0 0 1-2.94 1.18c-1.15 0-2.13-.4-2.94-1.2-.8-.8-1.21-1.8-1.21-2.98s.4-2.17 1.2-2.97c.82-.8 1.8-1.2 2.95-1.2.58 0 1.12.1 1.65.33.52.22.93.52 1.25.9l-.7.7a2.7 2.7 0 0 0-2.2-.95c-.84 0-1.57.3-2.18.89a3.03 3.03 0 0 0-.92 2.3c0 .95.3 1.72.92 2.31a3 3 0 0 0 2.18.89c.9 0 1.64-.3 2.24-.9.38-.38.6-.92.67-1.61h-2.9v-.97h3.87c.04.21.06.41.06.6Z" fill="#fff"/>
  <path d="M131.25 13.66h-.13c0 1.09-.32 1.94-.95 2.57a3.74 3.74 0 0 1-2.85 1.15 3.9 3.9 0 0 1-2.85-1.16 3.89 3.89 0 0 1-1.17-2.89c0-1.15.39-2.1 1.17-2.88a3.9 3.9 0 0 1 2.85-1.16c.56 0 1.09.1 1.6.32.5.22.9.5 1.2.86l.1-.09-.1-.1-.7.71.1.1.1-.09c-.56-.66-1.34-1-2.3-1-.87 0-1.64.32-2.27.93a3.2 3.2 0 0 0-.97 2.4c0 .98.32 1.79.97 2.4.63.62 1.4.93 2.27.93.93 0 1.71-.3 2.33-.93.41-.41.65-.99.71-1.7l.01-.15h-2.91v-.7h3.74v-.13l-.13.03c.03.2.05.4.05.58h.27c0-.2-.02-.41-.06-.63l-.02-.1h-4.12v1.22h3.04v-.13l-.13-.02a2.39 2.39 0 0 1-.64 1.54 2.9 2.9 0 0 1-2.14.86 2.9 2.9 0 0 1-2.09-.86 2.93 2.93 0 0 1-.88-2.2c0-.92.3-1.65.88-2.22a2.9 2.9 0 0 1 2.1-.85c.9 0 1.58.3 2.08.9l.1.11.8-.8.09-.09-.08-.1c-.33-.38-.77-.7-1.3-.92a4.25 4.25 0 0 0-1.7-.35c-1.18 0-2.2.42-3.03 1.24a4.16 4.16 0 0 0-1.26 3.07 4.2 4.2 0 0 0 1.25 3.08 4.16 4.16 0 0 0 3.04 1.24c1.24 0 2.26-.41 3.04-1.23l-.1-.1.1.1a3.74 3.74 0 0 0 1.03-2.76h-.13Zm5.19-.56h1.72a1.4 1.4 0 0 0 1.43-1.4c0-.34-.13-.66-.4-.95a1.3 1.3 0 0 0-1.03-.43h-1.72v2.79Zm0 4.23h-1.03v-8h2.73c.68 0 1.26.23 1.76.68.5.45.74 1.02.74 1.7a2.2 2.2 0 0 1-.74 1.7c-.5.46-1.09.68-1.76.68h-1.7v3.24Z" fill="#fff"/>
  <path d="M136.44 13.1v.14h1.72a1.55 1.55 0 0 0 1.56-1.53c0-.38-.14-.74-.42-1.05a1.46 1.46 0 0 0-1.14-.48h-1.85v3.06h.13v-.13h.13v-2.66h1.59c.4 0 .7.13.94.4.24.26.36.55.36.86 0 .32-.12.6-.36.88-.24.26-.54.38-.94.39h-1.72v.13Zm0 4.23v-.13h-.9V9.47h2.6c.65 0 1.2.2 1.67.64.47.43.7.95.7 1.6 0 .66-.23 1.18-.7 1.6-.47.44-1.03.65-1.67.65h-1.83v3.37h.26v-3.1h1.57c.7 0 1.33-.24 1.85-.71.52-.48.79-1.09.78-1.8 0-.72-.26-1.34-.78-1.81a2.66 2.66 0 0 0-1.85-.71h-2.86v8.27h1.3v-.14h-.14Zm7.64-8 .31-.13.14-.31-.13-.32-.32-.13-.31.13-.13.32.11.3.29.14h.04Zm-1.33 4.87h2.66l-1.3-3.6h-.05l-1.3 3.6Zm-2.27 3.13 2.85-7.55a1.11 1.11 0 0 1-.41-.9c0-.32.11-.6.34-.82.22-.22.5-.34.82-.34.32 0 .6.12.82.35.23.22.34.5.34.82 0 .35-.13.65-.4.89l2.84 7.55h-1.14l-.77-2.16h-3.36l-.79 2.16h-1.14Z" fill="#fff"/>
  <path d="m144.08 9.33.05.13.32-.14.05-.02.15-.36.02-.05-.15-.37-.02-.05-.37-.15-.05-.03-.36.16-.05.02-.16.36-.02.05.16.41.33.16.03.02h.1l.02-.01-.05-.13V9.2h-.01l-.21-.1-.08-.21.1-.22.2-.09.21.1.1.2-.1.22-.26.11.05.12Zm-1.33 4.87v.14h2.85l-1.4-3.88h-.23l-1.4 3.88h.18v-.14l.13.05 1.3-3.6-.12-.05v.13h.04v-.13l-.12.04 1.24 3.43h-2.47v.13Zm-2.27 3.13.13.05 2.88-7.64-.07-.06a.98.98 0 0 1-.37-.8c0-.3.1-.53.3-.73.2-.2.43-.3.73-.3s.52.1.73.3c.2.22.3.45.3.74a1 1 0 0 1-.37.79l-.07.06 2.82 7.46h-.86l-.77-2.17h-3.55l-.78 2.17h-1.05v.27h1.24l.78-2.17h3.18l.77 2.17h1.42l-2.91-7.74-.13.05.09.1c.3-.26.46-.6.46-1 0-.35-.13-.66-.38-.9a1.25 1.25 0 0 0-.92-.39c-.36 0-.67.13-.92.38a1.2 1.2 0 0 0-.37.92c0 .4.15.74.46 1l.08-.11-.12-.05-2.92 7.74h.2v-.14Z" fill="#fff"/>
</svg>
