<svg id="artwork" xmlns="http://www.w3.org/2000/svg" version="1.1" viewBox="0 0 239 70.9">
  <defs>
    <style>
      .st5{fill:#fff}
    </style>
  </defs>
  <rect width="239" height="70.8" rx="8.8" ry="8.8"/>
  <path class="st5" d="M120.6 38.5c-4.1 0-7.5 3.2-7.5 7.6s3.4 7.5 7.5 7.5 7.6-3.2 7.6-7.6-3.4-7.5-7.6-7.5Zm0 12.1c-2.3 0-4.2-1.9-4.2-4.6s2-4.5 4.2-4.5 4.3 1.8 4.3 4.5-2 4.6-4.3 4.6Zm-16.5-12c-4.1 0-7.5 3.1-7.5 7.4s3.4 7.6 7.5 7.6 7.6-3.2 7.6-7.6-3.4-7.5-7.6-7.5Zm0 12c-2.3 0-4.2-1.9-4.2-4.6s2-4.5 4.2-4.5 4.3 1.8 4.3 4.5-2 4.6-4.3 4.6Zm-19.6-9.8V44h7.7a6.7 6.7 0 0 1-1.8 4 7.8 7.8 0 0 1-5.9 2.4 8.4 8.4 0 0 1-8.4-8.5 8.4 8.4 0 0 1 14.2-6.2l2.2-2.3a11.1 11.1 0 0 0-8-3.2c-6.4 0-11.8 5.3-11.8 11.7S78 53.6 84.5 53.6c3.5 0 6.1-1.1 8.2-3.3 2-2 2.7-5 2.7-7.4l-.1-2H84.5Zm80.2 2.5c-.6-1.6-2.5-4.8-6.4-4.8s-7.1 3-7.1 7.6c0 4.2 3.2 7.5 7.4 7.5 3.5 0 5.5-2.1 6.3-3.4l-2.6-1.7c-.8 1.3-2 2.1-3.7 2.1s-2.8-.8-3.6-2.3l10-4.1-.3-.9Zm-10.3 2.5c0-2.9 2.3-4.3 4-4.3 1.3 0 2.4.6 2.8 1.5l-6.8 2.8Zm-8.1 7.3h3.3V31h-3.3v22.1Zm-5.5-12.9a5.2 5.2 0 0 0-4-1.7c-3.8 0-7.2 3.3-7.2 7.6s3.4 7.5 7.2 7.5a5 5 0 0 0 4-1.7v1c0 3-1.5 4.5-4 4.5-2 0-3.2-1.5-3.8-2.7l-2.9 1.2c.9 2 3 4.5 6.7 4.5 3.9 0 7.2-2.3 7.2-7.9V39h-3.2v1.2ZM137 50.6c-2.2 0-4.2-1.9-4.2-4.5s2-4.6 4.2-4.6 4 2 4 4.6-1.7 4.5-4 4.5ZM180.2 31h-7.9v22.1h3.3v-8.4h4.6c3.7 0 7.3-2.6 7.3-6.8s-3.6-6.9-7.3-6.9Zm0 10.7h-4.6V34h4.7a3.8 3.8 0 1 1 0 7.6Zm20.5-3.2c-2.4 0-4.9 1-5.9 3.4l3 1.2c.6-1.2 1.8-1.6 3-1.6 1.7 0 3.4 1 3.4 2.8v.3c-.6-.4-1.8-.9-3.4-.9-3.2 0-6.4 1.7-6.4 5 0 3 2.6 4.8 5.5 4.8 2.2 0 3.5-1 4.2-2.1h.1V53h3.2v-8.5c0-4-3-6.1-6.7-6.1Zm-.4 12.1c-1 0-2.6-.5-2.6-1.9 0-1.7 1.9-2.3 3.5-2.3 1.5 0 2.2.3 3 .7a4 4 0 0 1-3.9 3.5ZM219 39l-3.8 9.6-4-9.6h-3.6l6 13.4-3.4 7.4h3.4l9.1-20.8H219Zm-29.7 14h3.3V31h-3.3v22.1Z"/>
  <path d="m36.7 34.4-18.9 20a5 5 0 0 0 7.5 3l21.3-12.2-10-10.8Z" style="fill:#ea4335"/>
  <path d="m55.7 31-9.1-5.3-10.4 9.2 10.4 10.3 9.1-5.2c1.6-1 2.7-2.6 2.7-4.5s-1-3.6-2.7-4.5Z" style="fill:#fbbc04"/>
  <path d="m17.8 16.5-.2 1.3V53c0 .5 0 1 .2 1.3L37.3 35 17.8 16.5Z" style="fill:#4285f4"/>
  <path d="m36.8 35.4 9.8-9.7-21.2-12.3a5.1 5.1 0 0 0-7.6 3l19 19Z" style="fill:#34a853"/>
  <g style="isolation:isolate">
    <path class="st5" d="M77 23.3c-.5 0-1-.1-1.5-.4a4.7 4.7 0 0 1-2.3-2.1l-.3-1.5c0-.6 0-1 .3-1.3l1-.8c.5-.2 1-.3 1.6-.3h.7l-.1 1.2h-.6c-.5 0-1 0-1.2.2-.3.2-.5.5-.5 1 0 .4.1.7.3 1l.7 1 1 .6c.4.2.7.2 1.1.2h.6c.2 0 .4-.2.5-.3l.2-.5.1-.9v-5.7h-6.4v-1h9.1v1h-1.5v5.9c0 .6 0 1-.3 1.5s-.5.7-.9.8c-.4.2-.9.3-1.5.3Zm-.5 2.7a5.7 5.7 0 0 1-3-.7l.3-1 1.1.5 1.6.2a5.1 5.1 0 0 0 2.8-.8l.2 1.1-1.3.6-1.7.2Z"/>
    <path class="st5" d="M89.8 18.2A33.1 33.1 0 0 1 86 16c-.7-.4-1.3-1-1.9-1.6l.9.3h-4v-1h10v1h-5.5l.2-.2 1.5 1 1.6.9 1.5.7-.5 1Zm-3.3 5a5 5 0 0 1-2.1-.3c-.6-.3-1-.7-1.5-1.2a11 11 0 0 1-1.1-1.8l1-1.3 1.3-.8c.4-.2.9-.3 1.4-.3h.8c.3 0 .4.2.6.3l-.5.1.9-1.8 1 .6-1 1.9-.5.2-.5-.1-.7-.1c-.5 0-1 .1-1.3.4L83 20l1 1.1c.3.4.6.6 1 .8.4.2.9.3 1.4.3a7.8 7.8 0 0 0 2.2-.4l1.2-.5.5 1.1-2 .7-1.9.2Z"/>
    <path class="st5" d="M88.3 13.8c-.2-.9-.5-1.5-.8-2-.3-.4-.6-.8-1-1a3 3 0 0 0-1.3-.2h-.4V9.4h.2c.8 0 1.4.1 2 .5.6.3 1 .7 1.5 1.4s.7 1.4.9 2.4h-1.2Zm13.1 9.5v-2.8l.1.2-1 .4-1.2.1c-1 0-1.7-.3-2.3-.8S95.9 19 95.5 18l.8-.9c.2-.3.3-.6.3-1l-.1-.8-.3-.7h-1.4v-1H97l.5 1.2.2 1.2c0 .6-.1 1-.3 1.4l-.8 1v-.8c.4.8.7 1.4 1.1 1.8s.9.6 1.5.6c.4 0 .8 0 1.2-.2l1-.5v.2-6h2.7v1.1h-1.5v8.6h-1.3Zm3.1 3.7c-.3-.6-.5-1-.9-1.3a2 2 0 0 0-1-.6l-1-.1h-.2v-1.2h.1c.6 0 1 .1 1.6.3.5.1.9.4 1.3.9.4.4.8 1 1 1.8l-1 .3Z"/>
    <path class="st5" d="M108.9 23.3a4 4 0 0 1-1.6-.4 4.6 4.6 0 0 1-2.3-2.1c-.3-.5-.4-1-.4-1.5 0-.4 0-.7.2-1l.5-.6c.3-.3.7-.5 1-.6l2-.2h2v-2.2H104v-1h9.2v1h-1.5v6c0 .5 0 1-.3 1.4s-.5.7-.9.9c-.4.2-1 .3-1.5.3Zm0-1.2h.7c.2 0 .4-.2.5-.3l.2-.5.1-.9V18h-2l-1.4.1c-.3 0-.6.2-.7.3a1 1 0 0 0-.3.5l-.1.5c0 .3 0 .6.3 1 .1.3.4.6.7.8l1 .7c.4.2.7.2 1 .2Z"/>
    <path class="st5" d="M114.2 19.2v-4.5h-1.3v-1h3.9v1h-1.4v4.5h-1.2Z"/>
    <path class="st5" d="M123.2 23.3v-2.8l.1.2-1 .4-1.2.1c-1 0-1.7-.3-2.3-.8s-1.1-1.3-1.5-2.3l.7-.9c.3-.3.4-.6.4-1l-.1-.8-.3-.7h-1.4v-1h2.3l.5 1.2.2 1.2c0 .6-.1 1-.3 1.4l-.8 1v-.8c.3.8.7 1.4 1 1.8s1 .6 1.6.6c.4 0 .8 0 1.1-.2l1.1-.5v.2-6h2.7v1.1h-1.5v8.6h-1.3Z"/>
    <path class="st5" d="m129.7 23.3-2-.3-1.6-.7.5-1.2c.5.4 1 .6 1.5.8.5.2 1 .2 1.6.2l1.2-.1c.3-.1.7-.3 1-.6l.2-1c0-.4 0-.7-.2-1l-.6-.6-.9-.5a18.3 18.3 0 0 1-1.8.1h-1a1 1 0 0 1-.5-.4l-.2-.4c0-.3.1-.5.4-.6l1-.2a6.3 6.3 0 0 1 2.2.4c.4-.1.7-.4 1-.7.2-.3.3-.7.3-1.1a2.7 2.7 0 0 0-.2-1l.7.3h-6.6v-1h8.7v1h-2l.5-.3a4.3 4.3 0 0 1 .1 1c0 .6-.1 1.1-.4 1.4a3 3 0 0 1-1 .9l1 .6.6.9.2 1.2c0 .6-.1 1.1-.5 1.6-.3.4-.7.7-1.3 1a5 5 0 0 1-1.9.3Zm16.1 0-.2-2a7 7 0 0 0-.6-1.6l-.1-.4a4 4 0 0 0-1.3-1.3 3 3 0 0 0-1.6-.5c-.6 0-1 .2-1.4.4-.3.3-.5.7-.5 1.2s.2 1 .5 1.2.7.4 1.2.4a3 3 0 0 0 1.9-.5c.5-.4.9-.9 1.1-1.3l.1-.4.3-1.2.1-1.1a7 7 0 0 0-.1-1.4h-7v-1.1h9.8v1h-1.6a8.6 8.6 0 0 1 0 3.2c-.2.6-.4 1.1-.8 1.6l-.2.4c-.4.5-.8 1-1.4 1.4a4 4 0 0 1-2.2.5c-.6 0-1.1 0-1.6-.3a2 2 0 0 1-1-1c-.3-.3-.4-.8-.4-1.4s.1-1 .4-1.4l1.1-1 1.5-.2a4 4 0 0 1 2 .4c.6.3 1.1.8 1.6 1.3l.2.3.8 1.5a10.8 10.8 0 0 1 .7 3.3h-1.3Z"/>
    <path class="st5" d="M152.7 23.3a4 4 0 0 1-1.6-.4 4.6 4.6 0 0 1-2.3-2.1l-.3-1.5c0-.4 0-.7.2-1l.5-.6c.2-.3.6-.5 1-.6l2-.2h2v-2.2h-6.4v-1h9.2v1h-1.5v6c0 .5-.1 1-.3 1.4a2 2 0 0 1-1 .9 3 3 0 0 1-1.5.3Zm.1-1.2h.7c.2 0 .3-.2.5-.3l.2-.5V18h-2l-1.3.1c-.4 0-.6.2-.8.3a1 1 0 0 0-.3.5v.5c0 .3 0 .6.2 1l.7.8 1 .7c.4.2.8.2 1.1.2Z"/>
    <path class="st5" d="m154.3 13.8-.2-1c0-.3-.2-.5-.4-.6a1 1 0 0 0-.6-.2h-1.2c-.3 0-.7 0-1-.2a2 2 0 0 1-.7-.7c-.3-.3-.4-.8-.6-1.4l1-.3.4.9.4.5.6.2h.6l.6-.1c.4 0 .7 0 1 .2.4.2.6.5.9.9s.3 1 .3 1.7h-1.1Z"/>
  </g>
</svg>
