<svg width="180" height="54" fill="none" xmlns="http://www.w3.org/2000/svg">
  <path d="M173.33 54H6.67A6.73 6.73 0 0 1 0 47.25V6.75C0 3.04 3 0 6.67 0h166.66A6.73 6.73 0 0 1 180 6.75v40.5c0 3.71-3 6.75-6.67 6.75Z" fill="#000"/>
  <path d="m27.63 26.22-14.2 15.26a3.84 3.84 0 0 0 5.65 2.35l.05-.03 15.97-9.33-7.48-8.25Z" fill="#EA4335"/>
  <path d="m41.98 23.63-.01-.02-6.9-4.05-7.77 7 7.8 7.9 6.86-4a3.89 3.89 0 0 0 2.02-3.43c0-1.47-.8-2.75-2-3.4Z" fill="#FBBC04"/>
  <path d="M13.43 12.52a3.7 3.7 0 0 0-.13 1v26.96c0 .35.04.68.13 1L28.1 26.62l-14.68-14.1Z" fill="#4285F4"/>
  <path d="m27.73 27 7.34-7.44-15.96-9.37a3.85 3.85 0 0 0-5.69 2.33L27.73 27Z" fill="#34A853"/>
  <path d="M131.52 32h2.17V17.43h-2.17V32Zm19.59-9.32L148.6 29h-.07l-2.59-6.32h-2.34l3.88 8.83-2.21 4.9h2.27l5.97-13.73h-2.41Zm-12.34 7.67c-.7 0-1.7-.36-1.7-1.24 0-1.13 1.24-1.56 2.3-1.56.96 0 1.41.2 1.99.49a2.64 2.64 0 0 1-2.59 2.3Zm.27-7.99c-1.58 0-3.2.7-3.88 2.23l1.93.8c.4-.8 1.18-1.06 1.98-1.06 1.13 0 2.27.67 2.29 1.87v.15a4.8 4.8 0 0 0-2.27-.56c-2.08 0-4.2 1.14-4.2 3.28 0 1.95 1.71 3.2 3.62 3.2 1.46 0 2.27-.65 2.78-1.42h.07v1.13h2.1v-5.59c0-2.59-1.93-4.03-4.42-4.03Zm-13.44 2.1h-3.1v-5h3.1a2.52 2.52 0 0 1 2.55 2.5c0 1.12-.93 2.5-2.55 2.5Zm-.06-7.03h-5.21V32h2.17v-5.52h3.04c2.41 0 4.78-1.75 4.78-4.52 0-2.78-2.37-4.53-4.78-4.53ZM97.13 30.35c-1.5 0-2.76-1.26-2.76-2.99 0-1.74 1.25-3.02 2.76-3.02 1.48 0 2.64 1.28 2.64 3.02 0 1.73-1.16 2.99-2.64 2.99Zm2.5-6.86h-.08a3.43 3.43 0 0 0-2.61-1.1 4.93 4.93 0 0 0-4.75 4.97 4.9 4.9 0 0 0 4.75 4.94c1.18 0 2.12-.52 2.6-1.13h.08v.72c0 1.9-1.01 2.9-2.64 2.9a2.74 2.74 0 0 1-2.5-1.76l-1.9.8a4.72 4.72 0 0 0 4.4 2.92c2.55 0 4.7-1.5 4.7-5.16v-8.9h-2.06v.8Zm3.56 8.51h2.18V17.43h-2.18V32Zm5.39-4.8a2.72 2.72 0 0 1 2.59-2.9c.86 0 1.6.43 1.84 1.05l-4.43 1.84Zm6.76-1.66c-.42-1.1-1.67-3.15-4.25-3.15-2.55 0-4.67 2-4.67 4.95 0 2.78 2.1 4.96 4.92 4.96a4.93 4.93 0 0 0 4.13-2.2l-1.69-1.12a2.83 2.83 0 0 1-2.44 1.37c-1.1 0-1.9-.5-2.4-1.5l6.62-2.75-.22-.56Zm-52.8-1.63V26h5.03a4.39 4.39 0 0 1-1.15 2.65 5.15 5.15 0 0 1-3.89 1.54c-3.1 0-5.52-2.5-5.52-5.6a5.52 5.52 0 0 1 9.32-4.1l1.48-1.47a7.34 7.34 0 0 0-5.28-2.13 7.8 7.8 0 0 0-7.8 7.7 7.8 7.8 0 0 0 7.8 7.7c2.3 0 4.02-.75 5.37-2.16a6.95 6.95 0 0 0 1.82-4.92c0-.49-.03-.94-.1-1.31h-7.09Zm12.9 6.44c-1.5 0-2.8-1.24-2.8-3 0-1.79 1.3-3.01 2.8-3.01 1.5 0 2.8 1.22 2.8 3 0 1.77-1.3 3-2.8 3Zm0-7.96a4.89 4.89 0 0 0-4.97 4.95 4.9 4.9 0 0 0 4.98 4.96 4.9 4.9 0 0 0 4.97-4.96 4.89 4.89 0 0 0-4.97-4.95Zm10.86 7.96c-1.5 0-2.8-1.24-2.8-3 0-1.79 1.3-3.01 2.8-3.01 1.5 0 2.8 1.22 2.8 3 0 1.77-1.3 3-2.8 3Zm0-7.96a4.89 4.89 0 0 0-4.98 4.95 4.9 4.9 0 0 0 4.98 4.96 4.9 4.9 0 0 0 4.98-4.96 4.89 4.89 0 0 0-4.98-4.95Zm-24.38-12.3V8.21h-3.54c.03.3.1.57.23.79a2.2 2.2 0 0 0 .97.9c.18.09.33.15.46.18h1.88Zm-6.8-3.96c0-.2.03-.4.09-.6a1.4 1.4 0 0 1 .75-.9 1.68 1.68 0 0 1 1.5.08c.24.14.45.32.63.53.17.22.32.44.44.69l.3.67-.62.27a3.2 3.2 0 0 0-.68-1.16 1.1 1.1 0 0 0-.79-.38c-.2 0-.36.07-.48.2a.84.84 0 0 0-.17.55v1.5h8.2v.64h-1.41v2.7h-3.25c-.14 0-.28.02-.43.06-.14.04-.28.11-.4.2-.12.1-.22.21-.3.36-.08.14-.12.3-.12.5s.06.4.17.6a2 2 0 0 0 .47.55 2.95 2.95 0 0 0 1.75.57c.35 0 .67-.08.99-.22.3-.15.64-.39.98-.71l.46.6c-.34.4-.72.7-1.15.88a3.76 3.76 0 0 1-2.78.04c-.4-.15-.74-.36-1.01-.6a2.61 2.61 0 0 1-.62-.82c-.14-.3-.21-.59-.21-.87 0-.48.14-.87.42-1.16.29-.3.66-.5 1.12-.62a2.24 2.24 0 0 1-1.06-.91 2.73 2.73 0 0 1-.36-1.15H56.1v2.7a66.17 66.17 0 0 0 .09 3.54h-1.15l.03-.84.03-.92a43.21 43.21 0 0 0 .03-1.77V8.22h-.38v-.64h.38V6.13Z" fill="#fff"/>
  <path d="M61.92 10.09h.13v-2h-3.8v.14c.02.32.1.6.24.84a2.35 2.35 0 0 0 1.03.96c.19.1.35.15.49.18h2.04v-.13h-.13v-.13h-1.88v.14l.03-.14a2.15 2.15 0 0 1-1.35-1 1.83 1.83 0 0 1-.2-.74h-.14v.14h3.4v1.74h.14Zm-6.8-3.96h.13c0-.19.03-.37.08-.56a1.27 1.27 0 0 1 .69-.81c.17-.09.39-.13.65-.13.27 0 .52.06.73.2a2.92 2.92 0 0 1 1.02 1.16l.28.65.12-.04-.05-.13-.61.28.05.12.13-.04c-.2-.54-.44-.95-.71-1.22a1.27 1.27 0 0 0-.89-.42.72.72 0 0 0-.58.26.97.97 0 0 0-.2.63v1.63h8.2v.37h-1.42v2.7h-3.1c-.16 0-.32.03-.48.07-.16.05-.3.13-.44.23s-.25.23-.33.4c-.1.16-.14.35-.14.57 0 .22.06.43.18.65.12.22.3.42.5.6a3.09 3.09 0 0 0 1.84.6c.37-.01.71-.09 1.04-.24.33-.16.67-.4 1.02-.74l-.1-.1-.1.09.46.6.1-.08-.1-.08c-.32.38-.68.66-1.1.84a3.4 3.4 0 0 1-1.35.26c-.5 0-.94-.07-1.33-.22a3.08 3.08 0 0 1-.96-.58 2.6 2.6 0 0 1-.6-.78 1.9 1.9 0 0 1-.2-.81c0-.45.14-.8.4-1.07.26-.28.61-.47 1.05-.58l.4-.1-.38-.16a2.09 2.09 0 0 1-1-.85 2.6 2.6 0 0 1-.33-1.09v-.13h-1.73v2.85a68.6 68.6 0 0 0 .08 3.54l.14-.01v-.14h-1.15v.14h.13l.04-.83.03-.93a43.55 43.55 0 0 0 .02-1.77V8.08h-.38v-.37h.38V6.13H55v1.31h-.39v.91H55v2.58a69.3 69.3 0 0 1-.03 1.76l-.03.93-.04.83v.14h1.43l-.01-.14a45.72 45.72 0 0 1-.08-2.69V8.35h1.32v-.13h-.13c0 .2.04.4.1.6.07.21.16.41.27.61a2.36 2.36 0 0 0 1.13.97l.05-.12-.03-.13c-.48.12-.88.33-1.19.65-.3.33-.46.76-.46 1.26 0 .3.08.62.23.93.15.32.37.6.65.86a3.57 3.57 0 0 0 2.47.87 3.36 3.36 0 0 0 2.66-1.2l.07-.08-.53-.7-.09-.12-.1.11a3.6 3.6 0 0 1-.95.68c-.3.14-.6.21-.93.21-.36 0-.68-.05-.96-.15-.28-.1-.52-.23-.7-.38-.2-.16-.34-.33-.44-.51a1.1 1.1 0 0 1-.15-.53.9.9 0 0 1 .36-.76 1.34 1.34 0 0 1 .76-.24H63v-2.7h1.4v-.9h-8.18V6.07c0-.2.05-.35.14-.46.09-.1.2-.16.37-.16.23 0 .46.1.7.34.23.23.45.6.65 1.12l.05.13.74-.33.1-.05-.03-.12c-.08-.2-.17-.43-.3-.68a3.32 3.32 0 0 0-1.11-1.28 1.65 1.65 0 0 0-.87-.23c-.3 0-.55.05-.77.16a1.54 1.54 0 0 0-.82.98c-.06.2-.1.42-.1.63h.14Zm11.91 4.33h2.7V8.22H66.2c.26.34.45.7.58 1.08.13.38.22.77.25 1.16Zm3.76 4h-1.16l.03-.74.03-.82a33.96 33.96 0 0 0 .03-1.62H67a2.6 2.6 0 0 1-.5 1.18 1.4 1.4 0 0 1-.39.38.85.85 0 0 1-.44.13.57.57 0 0 1-.47-.2.81.81 0 0 1-.16-.53c0-.13.03-.27.08-.42a2.03 2.03 0 0 1 .6-.86c.14-.13.3-.24.47-.32 0-.2-.03-.4-.06-.6a2.95 2.95 0 0 0-.46-1.19c-.12-.2-.28-.41-.47-.63h-.67v-.64h7.43v.64h-1.28v2.7a35.08 35.08 0 0 0 .04 1.77c0 .32.02.63.03.93l.04.84Z" fill="#fff"/>
  <path d="M67.03 10.46v.13h2.82V8.1h-3.91l.15.2a4.16 4.16 0 0 1 .81 2.18l.01.12h.12v-.13l.14-.01c-.04-.4-.13-.8-.26-1.2a4.1 4.1 0 0 0-.6-1.11l-.1.08v.13h3.38v1.97h-2.56v.14Zm3.76 4v-.14h-1.16v.14h.13l.04-.74.03-.81a34.25 34.25 0 0 0 .02-1.63v-.13H66.9l-.02.1a2.56 2.56 0 0 1-.47 1.13c-.11.15-.23.26-.36.34a.68.68 0 0 1-.37.12c-.17 0-.28-.05-.36-.15-.09-.1-.14-.24-.14-.45 0-.1.03-.23.08-.38a1.97 1.97 0 0 1 .56-.8c.13-.12.28-.22.44-.3l.08-.04v-.09c-.01-.2-.03-.41-.07-.61a3.09 3.09 0 0 0-.47-1.24c-.13-.2-.3-.42-.5-.65l-.03-.05h-.6v-.37h7.17v.37h-1.28v2.85a35.43 35.43 0 0 0 .04 1.77l.03.93c0 .3.02.58.03.84l.14-.01h.13l-.04-.84-.03-.93a89.7 89.7 0 0 1-.03-1.76V8.35h1.27v-.9h-7.7v.9h.8v-.13l-.1.08a4.7 4.7 0 0 1 .76 1.2 4.68 4.68 0 0 1 .21 1.15l.13-.01-.06-.12A2.4 2.4 0 0 0 65 11.77c-.06.17-.1.32-.1.47 0 .25.07.46.2.62a.7.7 0 0 0 .57.25c.17 0 .35-.06.51-.16.16-.1.3-.24.43-.4a2.71 2.71 0 0 0 .52-1.24l-.13-.03v.13h2.72v-.13h-.13a68.7 68.7 0 0 1-.03 1.62l-.03.81-.04.74v.14h1.44v-.14h-.14Zm4.88-9.36c-.27 0-.5.05-.68.18-.18.12-.27.31-.27.57l.05.28.12.24-.35.23a1.86 1.86 0 0 1-.26-.38 1.22 1.22 0 0 1-.13-.58c0-.17.03-.33.1-.5a1.35 1.35 0 0 1 .75-.77c.19-.08.41-.12.67-.12.24 0 .46.04.65.12a1.3 1.3 0 0 1 .75.77c.06.17.09.33.09.5 0 .22-.05.41-.13.58-.1.17-.18.3-.25.38l-.36-.23a.87.87 0 0 0 .17-.52c0-.26-.09-.45-.27-.57-.18-.13-.4-.19-.65-.19Zm2.57 11.93a6.73 6.73 0 0 1-1.92.72c-.22.05-.44.07-.65.07-.44 0-.9-.08-1.36-.23-.48-.15-.9-.34-1.3-.56l.21-.56a8.37 8.37 0 0 0 4.4.12c.18-.04.32-.08.41-.12l.2.56Zm0-1.58a6.98 6.98 0 0 1-1.92.73A4.42 4.42 0 0 1 74.3 16c-.47-.15-.9-.34-1.29-.56l.21-.54.4.11a10.82 10.82 0 0 0 2 .26 6.84 6.84 0 0 0 1.4-.13 10.6 10.6 0 0 0 1.01-.24l.2.54Zm.42-3.22a2 2 0 0 1-.65 1.5c-.21.2-.46.37-.75.51s-.6.23-.94.3l-.18-.83c.2-.04.41-.1.6-.2.2-.08.36-.18.5-.31.15-.13.26-.27.35-.44a1.27 1.27 0 0 0-.07-1.22 2.1 2.1 0 0 0-.5-.55 2.52 2.52 0 0 0-1.35-.51 2.7 2.7 0 0 0-1.33.45c-.23.15-.41.33-.56.55-.15.21-.23.46-.23.75 0 .21.05.4.14.57.09.17.2.32.35.45a2.44 2.44 0 0 0 1.13.46l-.19.82a3.32 3.32 0 0 1-.93-.27 2.5 2.5 0 0 1-.72-.5c-.2-.19-.35-.41-.46-.67a2.4 2.4 0 0 1-.16-.86 2.25 2.25 0 0 1 .8-1.77c.24-.2.5-.36.8-.48.28-.12.57-.21.87-.27v-1.5H72.2v-.63h7.75v.64h-3.81v1.5a4 4 0 0 1 .98.3 2.9 2.9 0 0 1 1.35 1.3c.13.28.2.58.2.9Z" fill="#fff"/>
  <path d="M75.67 5.1v-.14c-.29 0-.54.07-.75.2a.77.77 0 0 0-.34.7l.06.3v.01l.08.15-.26.16.08.12.1-.1a1.73 1.73 0 0 1-.24-.35 1.08 1.08 0 0 1-.12-.51c0-.15.03-.3.09-.45a.94.94 0 0 1 .25-.4c.11-.12.26-.22.43-.3.17-.07.37-.1.62-.1.23 0 .43.03.6.1.17.08.31.18.42.3.12.11.2.25.25.4.06.15.09.3.09.45 0 .2-.04.37-.12.51-.09.17-.17.29-.23.36l.1.09.07-.12-.36-.22-.07.11.11.08a1 1 0 0 0 .2-.6.78.78 0 0 0-.33-.68c-.2-.14-.46-.21-.73-.21v.27a1 1 0 0 1 .58.16c.14.1.2.23.21.46 0 .17-.05.3-.14.44l-.09.12.57.36.07-.08a2 2 0 0 0 .27-.41c.1-.19.15-.4.15-.64 0-.18-.03-.37-.1-.54a1.42 1.42 0 0 0-.81-.85c-.21-.1-.45-.13-.71-.13-.27 0-.51.04-.72.13-.2.09-.38.2-.52.35a1.58 1.58 0 0 0-.41 1.04c0 .23.05.45.15.64.09.17.18.3.27.4l.07.09.55-.35-.16-.33-.05-.27-.13.03h.13c0-.23.07-.36.22-.46.16-.1.35-.16.6-.16v-.14Zm2.57 11.93-.07-.12-.58.3a5.59 5.59 0 0 1-1.92.47 4.3 4.3 0 0 1-1.32-.22 6.9 6.9 0 0 1-1.27-.55l-.07.12.12.05.22-.56-.13-.05-.05.13.42.13.62.13a10.02 10.02 0 0 0 1.41.13 7.02 7.02 0 0 0 1.42-.13l.62-.13.42-.13-.05-.13-.12.05.2.55.13-.04.12-.05-.2-.55-.05-.13-.12.05-.4.12a7.89 7.89 0 0 1-4.32-.12l-.12-.05-.26.68-.05.1.1.06c.4.23.84.42 1.33.58a4.57 4.57 0 0 0 2.08.17 5.9 5.9 0 0 0 1.35-.44l.6-.3.1-.06-.04-.1-.12.04Zm0-1.58-.07-.11a6.9 6.9 0 0 1-1.22.54 5.86 5.86 0 0 1-1.28.23 4.3 4.3 0 0 1-1.32-.23 7 7 0 0 1-1.27-.55l-.07.12.12.05.22-.55-.13-.04-.05.12a10.65 10.65 0 0 0 2.45.38 7.05 7.05 0 0 0 1.42-.13 10.59 10.59 0 0 0 1.04-.25l-.05-.12-.12.04.2.55.13-.05.12-.05-.25-.67-.12.05-.4.11a10.59 10.59 0 0 1-1.97.26 6.74 6.74 0 0 1-1.37-.14 10.62 10.62 0 0 1-.98-.23l-.12-.05-.3.78.1.06c.4.22.83.41 1.31.57a4.56 4.56 0 0 0 2.09.17 6.23 6.23 0 0 0 1.95-.74l.1-.06-.04-.1-.12.04Zm.42-3.22h-.13c0 .27-.05.53-.16.77-.1.24-.26.45-.45.64a3.37 3.37 0 0 1-1.62.76l.02.13.13-.03-.18-.82-.13.03.02.13a3 3 0 0 0 .64-.2c.2-.09.38-.2.53-.34.16-.14.28-.3.37-.48.1-.18.15-.38.15-.6 0-.26-.08-.52-.22-.75a2.25 2.25 0 0 0-.53-.58 2.63 2.63 0 0 0-1.43-.54h-.01a2.85 2.85 0 0 0-1.4.48c-.24.15-.43.34-.6.57-.16.24-.24.52-.24.83 0 .23.05.45.15.64.1.18.23.34.39.48a2.58 2.58 0 0 0 1.2.5l.02-.14-.13-.03-.2.82.13.03.02-.13a3.18 3.18 0 0 1-.9-.26 2.4 2.4 0 0 1-.68-.46c-.18-.19-.33-.4-.43-.64a2.1 2.1 0 0 1-.15-.81 2.11 2.11 0 0 1 .76-1.67c.22-.19.47-.34.75-.46.29-.12.57-.2.85-.26l.1-.02V8.08h-2.97v-.37h7.49v.37H76v1.74l.11.02a3.09 3.09 0 0 1 1.73.83c.21.2.38.44.5.7.13.27.19.55.19.86h.27c0-.35-.07-.67-.21-.97-.14-.3-.33-.56-.57-.79a3.15 3.15 0 0 0-.84-.56 4.15 4.15 0 0 0-1.02-.33l-.02.13h.13V8.35h3.82v-.9h-8.02v.9h2.97v1.36h.14l-.03-.13c-.3.06-.6.15-.9.27-.3.13-.58.3-.82.5a2.38 2.38 0 0 0-.85 1.87c0 .34.05.64.17.92.11.27.28.52.49.72.2.21.46.38.75.52.3.14.62.23.97.28l.13.02.21-.94.04-.14-.15-.02c-.2-.03-.4-.08-.58-.15a1.8 1.8 0 0 1-.48-.28 1.3 1.3 0 0 1-.32-.4 1.09 1.09 0 0 1-.12-.52c0-.26.06-.48.2-.68.14-.2.3-.37.52-.5a2.58 2.58 0 0 1 1.26-.44v-.13.13a2.38 2.38 0 0 1 1.27.48c.19.15.34.33.46.52.12.2.18.4.18.62a1 1 0 0 1-.11.47c-.08.15-.18.28-.31.4-.14.12-.3.22-.47.3a2.7 2.7 0 0 1-.58.18l-.13.03.2.95.03.13.13-.03c.35-.06.68-.16.98-.3.3-.14.56-.32.78-.53.22-.21.4-.45.51-.73.13-.27.19-.56.19-.87h-.14ZM55.29 42.04l-.46-.3.57-.81a.73.73 0 0 1-.4-.22.61.61 0 0 1-.17-.45c0-.2.07-.37.21-.5a.7.7 0 0 1 .51-.22c.2 0 .37.07.52.21a.7.7 0 0 1 .2.51c0 .21-.1.47-.31.8l-.67.98Z" fill="#fff"/>
  <path d="m55.29 42.04.07-.12-.34-.22.5-.7.11-.17-.2-.04a.6.6 0 0 1-.34-.18.47.47 0 0 1-.13-.35c0-.16.06-.3.17-.41a.57.57 0 0 1 .42-.18c.17 0 .3.06.42.18s.17.25.18.41c0 .16-.1.41-.3.72l.1.07-.1-.07-.67.98.1.08.12.07.67-.98c.22-.33.34-.61.34-.87a.83.83 0 0 0-.25-.6.84.84 0 0 0-.6-.25.83.83 0 0 0-.61.25.83.83 0 0 0-.26.6c0 .21.07.4.21.54.13.14.3.22.48.26l.02-.13-.1-.08-.58.81-.08.11.68.45.08-.11-.11-.07Zm2.89 3.43.33.37a2.65 2.65 0 0 0 1.9.8 2.75 2.75 0 0 0 1.2-.3c.2-.11.36-.25.49-.42a1.02 1.02 0 0 0 .07-1.07 1.67 1.67 0 0 0-.3-.4 4.36 4.36 0 0 0-.94-.6 3.87 3.87 0 0 1-1.23.27c-.43 0-.74-.07-.95-.2-.2-.13-.3-.28-.3-.45 0-.14.1-.28.28-.42.19-.13.5-.2.95-.2.3 0 .65.06 1.03.16.28-.15.53-.32.75-.52.21-.2.32-.43.32-.69l-.05-.32a1.53 1.53 0 0 0-.14-.37h-4.5v-.64h7.44v.64h-1.97a1.8 1.8 0 0 1 .2.81c-.01.32-.1.6-.29.85-.18.24-.41.46-.68.64.2.1.39.22.56.34.18.13.34.27.47.43.14.16.24.33.32.52a1.9 1.9 0 0 1-.16 1.65c-.2.27-.42.5-.7.66-.28.17-.58.29-.9.36a4.12 4.12 0 0 1-2.01-.05 3.3 3.3 0 0 1-.85-.4 2.6 2.6 0 0 1-.91-1.07l.57-.38Z" fill="#fff"/>
  <path d="m58.18 45.47-.1.08.33.38a2.84 2.84 0 0 0 1.14.72 2.6 2.6 0 0 0 1.48.05c.23-.05.45-.14.65-.25.21-.11.38-.27.52-.45a1.15 1.15 0 0 0 .09-1.22 1.8 1.8 0 0 0-.34-.42 4.46 4.46 0 0 0-.98-.63l-.04-.03-.05.02a3.68 3.68 0 0 1-1.18.26c-.42 0-.7-.06-.87-.17-.19-.13-.25-.23-.25-.34 0-.08.06-.19.23-.3.14-.11.44-.18.87-.18.29 0 .62.05 1 .15h.05l.04-.01c.3-.15.55-.33.78-.54.23-.22.36-.49.36-.79l-.04-.34v-.02a1.67 1.67 0 0 0-.17-.4l-.04-.07h-4.43v-.37h7.17v.37h-2.05l.09.2.14.38c.02.12.03.24.03.37 0 .3-.08.54-.25.77-.17.23-.39.43-.65.61l-.18.13.2.1a3.38 3.38 0 0 1 .99.73c.13.15.23.31.3.49.07.17.1.36.1.56 0 .4-.08.7-.25.96-.18.26-.4.47-.66.63-.27.16-.55.27-.86.34a3.92 3.92 0 0 1-1.94-.05c-.32-.1-.59-.23-.81-.38a2.48 2.48 0 0 1-.87-1.01l-.12.05.07.12.58-.39-.08-.11-.07-.11-.58.38-.1.07.05.1a2.82 2.82 0 0 0 .97 1.12 3.43 3.43 0 0 0 2.05.58c.27 0 .57-.04.9-.11.34-.08.66-.2.95-.37.3-.18.54-.42.74-.71.2-.3.3-.68.3-1.11a1.76 1.76 0 0 0-.47-1.22c-.14-.16-.3-.31-.49-.45a4.23 4.23 0 0 0-.58-.35l-.06.12.07.11c.28-.2.52-.42.72-.67.2-.27.3-.59.3-.93a1.94 1.94 0 0 0-.2-.87l-.12.06v.13h2.1v-.9h-7.7v.9h4.63v-.13l-.12.06c.06.12.11.23.13.34l.13-.03-.13.01.05.33.13-.02h-.14c0 .23-.08.42-.27.6-.2.19-.44.35-.72.49l.06.12.03-.13c-.39-.1-.74-.16-1.06-.16-.46 0-.8.07-1.02.22-.21.15-.34.32-.34.54 0 .22.14.4.36.55.24.15.58.22 1.02.22a3.97 3.97 0 0 0 1.28-.28l-.06-.12-.05.12a4.17 4.17 0 0 1 .9.58c.12.12.21.24.29.36a.89.89 0 0 1-.07.93 1.4 1.4 0 0 1-.44.38 2.62 2.62 0 0 1-1.91.18 2.5 2.5 0 0 1-1.03-.65 6.07 6.07 0 0 1-.32-.36l-.08-.1-.1.07.07.11Zm4.54-5.27a4.9 4.9 0 0 0-.48-.73 3 3 0 0 0-1.38-1.03c-.28-.1-.58-.16-.9-.16h-1.58v-.82h1.57c.35 0 .68.06 1 .18.3.12.6.3.87.5.27.22.51.49.73.8.22.3.4.65.57 1.04l-.4.22Z" fill="#fff"/>
  <path d="m62.72 40.2.11-.06a3.8 3.8 0 0 0-1.12-1.38 2.82 2.82 0 0 0-1.76-.61h-1.43v-.56h1.43a2.94 2.94 0 0 1 1.79.66c.26.21.5.46.7.76.21.3.4.64.56 1.02l.12-.05-.06-.12-.4.22.06.12.06.12.4-.23.11-.06-.05-.1c-.16-.4-.36-.75-.58-1.07A3.74 3.74 0 0 0 61 37.52a2.86 2.86 0 0 0-1.05-.2h-1.7v1.1h1.7c.32 0 .6.05.87.15a2.87 2.87 0 0 1 1.32.98c.17.23.33.46.46.71l.06.12.12-.06-.06-.12Zm10.31 7.15h-.1v.13c0 .32-.06.64-.18.93.42.17.83.4 1.24.7.4.3.8.68 1.2 1.14l-.5.4a6.2 6.2 0 0 0-1.28-1.08 4.5 4.5 0 0 0-1.07-.5c-.18.2-.39.36-.63.48s-.5.18-.8.18a2.07 2.07 0 0 1-.87-.21 1.07 1.07 0 0 1-.32-.25.5.5 0 0 1-.12-.34.6.6 0 0 1 .13-.39c.09-.1.2-.2.35-.26a2.1 2.1 0 0 1 .96-.2 4 4 0 0 1 .78.07c.1-.25.14-.47.14-.67v-.13h-.08l.02-.6.03-.65c-.33.2-.69.37-1.08.52a3.76 3.76 0 0 1-2.33.07 1.9 1.9 0 0 1-.7-.4 1.6 1.6 0 0 1-.42-.63 2.42 2.42 0 0 1-.02-1.5l.24-.55.24-.49c.08-.15.11-.32.11-.5a2.17 2.17 0 0 0-.64-1.5h-.57v-.65h1.21a6 6 0 0 1 .7 1.27 2.52 2.52 0 0 1 .14.86 2.46 2.46 0 0 1-.27 1.17l-.18.48a1.6 1.6 0 0 0-.08.53c0 .1.02.21.06.34.03.14.1.26.2.38a1.2 1.2 0 0 0 1 .44c.3 0 .65-.07 1.06-.21.42-.15.87-.36 1.35-.65l.01-.66v-3.95h2.25v.64h-1.28v2.7a61.54 61.54 0 0 0 .03 1.77l.03.93.04.84Z" fill="#fff"/>
  <path d="M73.03 47.35v-.14h-.23v.27c0 .3-.06.6-.17.88l-.05.13.12.05c.41.16.81.38 1.21.67.4.3.8.67 1.18 1.13l.1-.1-.08-.1-.5.4.08.1.1-.09a6.47 6.47 0 0 0-1.3-1.1c-.21-.12-.4-.22-.59-.3a9.83 9.83 0 0 0-.52-.2l-.08-.03-.06.07a1.9 1.9 0 0 1-.59.44c-.22.1-.46.16-.73.16a1.9 1.9 0 0 1-.42-.05 1.64 1.64 0 0 1-.4-.14l-.27-.22-.1-.25c0-.13.03-.22.1-.3a.86.86 0 0 1 .3-.23 2.15 2.15 0 0 1 .9-.2c.27 0 .53.03.77.08l.1.02.05-.1c.1-.26.15-.5.15-.73v-.26h-.22v.14H72c.02-.18.02-.38.03-.6l.02-.64.02-.26-.22.13c-.32.2-.67.37-1.05.51a3.62 3.62 0 0 1-2.25.08c-.27-.1-.49-.22-.65-.38-.17-.16-.3-.35-.38-.58a2.3 2.3 0 0 1-.02-1.41c.07-.2.15-.37.23-.53l.24-.49c.09-.17.13-.36.13-.57a2.3 2.3 0 0 0-.68-1.6l-.04-.04h-.5v-.37h1.08v-.13l-.1.07a5.84 5.84 0 0 1 .67 1.24 2.39 2.39 0 0 1 .13.82c0 .24-.02.44-.07.61-.05.18-.11.35-.18.51a5 5 0 0 0-.18.5 1.6 1.6 0 0 0-.03.94 1.25 1.25 0 0 0 .65.77c.18.1.41.14.68.14.31 0 .68-.07 1.1-.22.43-.14.9-.36 1.38-.66l.06-.04v-.07l.02-.66V40.6h1.98v.37H72.8v2.85a61.77 61.77 0 0 0 .03 1.77l.03.93.04.84.13-.01.13-.01-.03-.83-.04-.93a40.36 40.36 0 0 1-.02-1.76v-2.58h1.28v-.9h-2.52v4.08l-.01.65h.13l-.07-.1c-.47.28-.92.5-1.32.63-.4.14-.75.2-1.02.2-.24 0-.43-.03-.56-.1a1.06 1.06 0 0 1-.34-.28l-.17-.33a1.23 1.23 0 0 1-.05-.31c0-.18.02-.34.07-.48l.18-.48c.07-.16.13-.34.18-.53a2.48 2.48 0 0 0 .06-1.09 4.17 4.17 0 0 0-.39-1.1 6.05 6.05 0 0 0-.44-.71l-.04-.06h-1.42v.91h.71v-.13l-.1.09a2.04 2.04 0 0 1 .61 1.41 1 1 0 0 1-.1.46l-.24.48c-.08.17-.17.36-.24.55a2.55 2.55 0 0 0 .02 1.6c.1.27.24.5.44.68.2.2.46.34.76.44a3.9 3.9 0 0 0 2.42-.08c.4-.15.77-.32 1.1-.53l-.07-.11h-.13l-.03.65c0 .21-.01.4-.03.59v.14h.22v-.13h-.13v.13c0 .18-.04.39-.13.62l.12.05.03-.13a4.2 4.2 0 0 0-.81-.08c-.18 0-.35.02-.53.06-.18.03-.34.09-.5.16-.15.07-.28.17-.38.3a.71.71 0 0 0-.17.47c0 .15.06.3.16.42s.22.21.36.29a2.17 2.17 0 0 0 .94.22c.3 0 .6-.06.85-.2.26-.12.48-.28.67-.5l-.1-.08-.05.12c.16.06.33.12.5.2a4.3 4.3 0 0 1 1.16.71c.2.17.42.38.65.62l.08.1.7-.56-.08-.1A7.4 7.4 0 0 0 74.07 49c-.41-.3-.84-.54-1.27-.71l-.05.12.13.05c.12-.31.19-.64.19-.98v-.13h-.14v.13h.24v-.14h-.14Z" fill="#fff"/>
  <path d="M74.3 41.1v-.63h2.62v.64h-1.27v.13a68.4 68.4 0 0 0 .08 3.53h-1.15l.04-.84.03-.92a43.46 43.46 0 0 0 .03-1.77v-.13h-.39Z" fill="#fff"/>
  <path d="M74.3 41.1h.13v-.5h2.35v.37h-1.27v.27a68.72 68.72 0 0 0 .09 3.53h.13v-.14h-1.15v.14h.13l.04-.84.03-.92a43.63 43.63 0 0 0 .03-1.77v-.27h-.52v.27h.39v-.13h-.14v.13a69.53 69.53 0 0 1-.02 1.76l-.04.92c0 .3-.02.58-.03.84l-.01.14h1.43v-.14A40.4 40.4 0 0 1 75.8 43l-.02-.93v-.96h-.13v.13h1.4v-.9h-2.9v.9h.14v-.13Z" fill="#fff"/>
  <path d="M83.26 47.35H82.1c.02-.19.03-.39.03-.6l.03-.65c-.33.2-.69.37-1.08.52a3.76 3.76 0 0 1-2.34.07c-.28-.1-.52-.23-.7-.4a1.6 1.6 0 0 1-.41-.63 2.42 2.42 0 0 1-.02-1.5c.07-.2.15-.38.24-.55l.24-.49c.07-.15.1-.32.1-.5a2.16 2.16 0 0 0-.64-1.5h-.57v-.65h1.22a5.92 5.92 0 0 1 .69 1.27 2.53 2.53 0 0 1 .06 1.51c-.05.19-.11.36-.18.52l-.18.48a1.55 1.55 0 0 0-.03.87 1 1 0 0 0 .2.38 1.2 1.2 0 0 0 1 .44c.3 0 .65-.07 1.07-.21.41-.15.86-.36 1.35-.65v-4.61h2.26v.64h-1.28v2.7a71 71 0 0 0 .03 1.77c0 .32.02.63.03.93 0 .3.02.58.04.84Z" fill="#fff"/>
  <path d="M83.26 47.35v-.14H82.1v.14h.14l.02-.6.03-.64.02-.26-.22.13c-.32.2-.67.37-1.06.51a3.62 3.62 0 0 1-2.24.08c-.27-.1-.5-.22-.66-.38-.17-.16-.3-.35-.38-.58a2.28 2.28 0 0 1-.02-1.41c.07-.2.15-.37.24-.53l.24-.49c.08-.17.12-.36.12-.57a2.31 2.31 0 0 0-.68-1.6l-.03-.04h-.5v-.37h1.08v-.13l-.1.07a5.95 5.95 0 0 1 .66 1.24 2.39 2.39 0 0 1 .14.82c0 .24-.03.44-.08.61-.05.18-.1.35-.17.51a8.4 8.4 0 0 0-.19.5c-.06.16-.08.35-.08.56a1.26 1.26 0 0 0 .27.81c.11.13.26.25.43.34.19.1.42.14.69.14.31 0 .68-.07 1.1-.22.43-.14.89-.36 1.38-.66l.06-.04v-.07l.01-.66V40.6h1.99v.37h-1.28v2.85a71.15 71.15 0 0 0 .02 1.77l.03.93.04.84.14-.01.13-.01-.04-.83-.03-.93a44.8 44.8 0 0 1-.03-1.76v-2.58h1.28v-.9h-2.52v4.73h.13l-.07-.1c-.48.28-.92.5-1.33.63-.4.14-.74.2-1.01.2-.24 0-.43-.03-.56-.1a1.06 1.06 0 0 1-.35-.28l-.17-.33a1.2 1.2 0 0 1-.05-.31c0-.18.03-.34.07-.48l.18-.48c.07-.16.13-.34.19-.53a2.48 2.48 0 0 0 .06-1.09 4.16 4.16 0 0 0-.39-1.1 6.13 6.13 0 0 0-.44-.71l-.04-.06h-1.42v.91h.7v-.13l-.09.09a2.04 2.04 0 0 1 .6 1.41 1 1 0 0 1-.1.46l-.23.48a7 7 0 0 0-.25.55 2.55 2.55 0 0 0 .02 1.6 1.87 1.87 0 0 0 1.2 1.12 3.9 3.9 0 0 0 2.43-.08c.4-.15.76-.32 1.1-.53l-.07-.11h-.14l-.02.65c0 .21-.02.4-.03.59l-.01.14h1.44l-.01-.14h-.13Z" fill="#fff"/>
  <path d="m85.6 45.47.33.37a2.64 2.64 0 0 0 2.5.73c.21-.05.42-.13.61-.23.2-.11.35-.25.48-.42a1.02 1.02 0 0 0 .07-1.07 1.67 1.67 0 0 0-.3-.4 4.3 4.3 0 0 0-.94-.6 3.87 3.87 0 0 1-1.23.27c-.43 0-.74-.07-.94-.2-.2-.13-.3-.28-.3-.45 0-.14.09-.28.27-.42.2-.13.5-.2.95-.2.3 0 .65.06 1.03.16.29-.15.54-.32.75-.52.21-.2.32-.43.32-.69l-.04-.32a1.53 1.53 0 0 0-.15-.37h-4.5v-.64h7.44v.64h-1.97a1.8 1.8 0 0 1 .2.81c-.01.32-.1.6-.29.85-.18.24-.4.46-.68.64.2.1.39.22.57.34a2.7 2.7 0 0 1 .79.95 1.9 1.9 0 0 1-.17 1.65c-.19.27-.42.5-.7.66-.28.17-.58.29-.9.36a4.12 4.12 0 0 1-2.01-.05 3.3 3.3 0 0 1-.84-.4 2.6 2.6 0 0 1-.92-1.07l.57-.38Z" fill="#fff"/>
  <path d="m85.6 45.47-.1.08.33.38c.14.15.3.28.5.4h-.01a2.6 2.6 0 0 0 2.13.37c.23-.05.45-.14.65-.25.21-.11.39-.27.53-.45a1.15 1.15 0 0 0 .08-1.22 1.8 1.8 0 0 0-.33-.42 4.5 4.5 0 0 0-.97-.63l-.06-.03-.05.02a3.68 3.68 0 0 1-1.18.26c-.41 0-.7-.06-.87-.17-.19-.13-.24-.23-.24-.34 0-.08.05-.19.22-.3.15-.11.44-.18.87-.18.29 0 .62.05 1 .15h.05l.04-.01c.3-.15.56-.33.78-.54.24-.22.36-.49.36-.79l-.04-.34v-.02a1.67 1.67 0 0 0-.17-.4l-.03-.07h-4.44v-.37h7.17v.37h-2.05l.09.2a1.65 1.65 0 0 1 .18.75c0 .3-.09.54-.25.77-.18.23-.4.43-.66.61l-.18.13.2.1a3.34 3.34 0 0 1 .99.73c.13.15.23.31.3.49.07.17.1.36.1.56 0 .4-.08.7-.25.96-.18.26-.4.47-.66.63-.26.16-.55.27-.86.34a3.92 3.92 0 0 1-1.94-.05 3.2 3.2 0 0 1-.8-.38 2.46 2.46 0 0 1-.88-1.01l-.12.05.07.12.58-.39-.08-.11-.07-.11-.58.38-.09.07.05.1a2.82 2.82 0 0 0 .96 1.12 3.43 3.43 0 0 0 2.05.58c.27 0 .58-.04.9-.11.35-.08.66-.2.95-.37.3-.18.54-.42.74-.71.2-.3.3-.68.3-1.11a1.76 1.76 0 0 0-.46-1.22 4.25 4.25 0 0 0-1.08-.8l-.06.12.08.11c.28-.2.52-.42.71-.67.2-.27.3-.59.3-.93a1.94 1.94 0 0 0-.2-.87l-.12.06v.13h2.1v-.9h-7.7v.9h4.63v-.13l-.12.06c.07.12.11.23.14.34l.13-.03-.14.01.05.33.13-.02h-.13a.8.8 0 0 1-.28.6c-.2.19-.44.35-.72.49l.06.12.04-.13c-.4-.1-.75-.16-1.07-.16-.46 0-.8.07-1.02.22-.2.15-.34.32-.34.54 0 .22.14.4.36.55.24.15.58.22 1.02.22a3.96 3.96 0 0 0 1.28-.28l-.05-.12-.06.12a4.17 4.17 0 0 1 .9.58c.12.12.22.24.29.36.07.12.1.25.1.38 0 .23-.06.4-.17.55-.11.15-.26.28-.43.38a2.63 2.63 0 0 1-1.91.18 2.51 2.51 0 0 1-1.03-.65 6 6 0 0 1-.33-.36l-.08-.1-.1.07.07.11Zm10.93-2.05a2 2 0 0 0-1.02.24.71.71 0 0 0-.4.66c0 .17.04.31.14.44.09.12.2.22.35.3a2.36 2.36 0 0 0 .95.23c.43-.01.78-.1 1.06-.27.27-.17.5-.4.67-.68-.21-.27-.46-.5-.74-.66a1.94 1.94 0 0 0-1.01-.26Zm2.25-1.5a8.37 8.37 0 0 0-.1-.81h-4.93v-.64h7.53v.64H99.7a6.35 6.35 0 0 1 .1.84c0 .9-.16 1.69-.48 2.37.25.41.45.88.58 1.4.14.51.23 1.06.28 1.63h-.96a10.09 10.09 0 0 0-.49-2.14 2.82 2.82 0 0 1-2.11.9 3.4 3.4 0 0 1-.84-.1 2.5 2.5 0 0 1-.76-.33c-.23-.15-.4-.33-.55-.56a1.46 1.46 0 0 1-.21-.8c0-.3.07-.57.22-.78.15-.21.34-.39.56-.52a3.49 3.49 0 0 1 1.5-.37 3 3 0 0 1 2.07.8c.1-.49.16-1 .16-1.53Z" fill="#fff"/>
  <path d="M96.53 43.42v-.13c-.43 0-.8.08-1.09.25a.87.87 0 0 0-.46.78c0 .2.05.37.16.52a1.67 1.67 0 0 0 .9.52c.18.03.35.05.5.05.45 0 .83-.09 1.14-.27.3-.19.53-.43.71-.73l.05-.08-.06-.07a2.72 2.72 0 0 0-.78-.7 2.07 2.07 0 0 0-1.07-.27v.27c.36 0 .67.08.94.23.27.17.5.37.7.63l.1-.08-.1-.07c-.17.27-.38.48-.63.64a1.94 1.94 0 0 1-1.44.18c-.16-.03-.3-.08-.44-.15a1 1 0 0 1-.3-.27.57.57 0 0 1-.12-.35c0-.24.1-.4.34-.55.24-.14.55-.21.95-.21v-.14Zm2.25-1.5h.13a9.17 9.17 0 0 0-.1-.84l-.03-.1h-4.9v-.38h7.26v.37h-1.6l.04.16.06.4.03.42a5.5 5.5 0 0 1-.46 2.31l-.03.07.04.06c.24.4.43.85.57 1.36.13.51.22 1.05.26 1.6h.14v-.14h-.96v.14l.13-.02a9.45 9.45 0 0 0-.5-2.17l-.08-.19-.14.15a2.69 2.69 0 0 1-2.02.85c-.26 0-.53-.03-.8-.1-.27-.06-.5-.17-.72-.3-.2-.14-.38-.31-.5-.52a1.3 1.3 0 0 1-.2-.72c0-.3.07-.53.2-.71a1.97 1.97 0 0 1 1.22-.75c.26-.06.5-.08.73-.08a2.87 2.87 0 0 1 1.98.76l.17.16.05-.23c.1-.5.16-1.02.16-1.56h-.26c0 .52-.06 1.02-.16 1.5l.13.03.09-.1a3.21 3.21 0 0 0-3.73-.44 1.9 1.9 0 0 0-.6.55c-.17.24-.25.53-.25.87 0 .32.08.62.24.87.15.23.35.43.59.59a3.12 3.12 0 0 0 1.66.45 2.96 2.96 0 0 0 2.21-.93l-.1-.1-.12.05a6.69 6.69 0 0 1 .48 2.1l.02.12h1.22l-.01-.14a9.1 9.1 0 0 0-.28-1.66 5.5 5.5 0 0 0-.6-1.43l-.1.07.11.05a5.76 5.76 0 0 0 .45-2.88l-.06-.41-.13.03v.13h1.7v-.9h-7.79v.9h5.05v-.13l-.13.02a7.11 7.11 0 0 1 .1.79h.14Zm7.52 1.88h-2.46c-.34 0-.6.08-.79.21-.18.14-.27.36-.27.66 0 .27.07.52.2.75.13.22.3.42.51.59a2.5 2.5 0 0 0 1.53.54c.27 0 .49-.04.66-.12a.96.96 0 0 0 .56-.72c.03-.15.05-.3.05-.46V43.8Zm.95-2.7v4.18c0 .4-.05.73-.16 1.01a1.69 1.69 0 0 1-1.13 1.06 3.23 3.23 0 0 1-3.78-1.63 2.5 2.5 0 0 1-.24-1.07c0-.53.15-.95.46-1.24.31-.29.79-.44 1.44-.44h2.45v-1.86h-4.87v-.64h7.2v.64h-1.37Z" fill="#fff"/>
  <path d="M106.3 43.8v-.13h-2.46c-.36 0-.65.07-.87.24a.89.89 0 0 0-.32.76c0 .3.07.57.21.81.14.25.32.46.55.63a2.66 2.66 0 0 0 1.6.57c.3 0 .53-.04.72-.13a1.1 1.1 0 0 0 .64-.81c.04-.16.05-.33.05-.5v-1.57h-.13v.14h-.13v1.44c0 .14-.02.29-.05.43a.96.96 0 0 1-.16.37.82.82 0 0 1-.33.26c-.14.07-.34.1-.6.1a2.37 2.37 0 0 1-1.45-.5c-.2-.16-.35-.35-.48-.56a1.3 1.3 0 0 1-.18-.68c0-.27.08-.44.22-.55.15-.11.38-.18.7-.18h2.46v-.13Zm.95-2.7h-.13v4.18c0 .38-.05.7-.15.97a1.54 1.54 0 0 1-1.05.98 3.09 3.09 0 0 1-2.97-.7 2.97 2.97 0 0 1-.64-.86 2.3 2.3 0 0 1-.24-1.02c0-.5.15-.88.42-1.14.28-.26.72-.4 1.35-.4h2.58v-2.14h-4.86v-.37h6.93v.37h-1.37v.14h.13v.13h1.5v-.9h-7.46v.9h4.87v1.6h-2.32c-.67 0-1.19.15-1.53.47-.34.32-.5.78-.5 1.34 0 .4.08.78.26 1.13a3 3 0 0 0 .71.95 3.47 3.47 0 0 0 3.22.75 1.8 1.8 0 0 0 1.22-1.14c.11-.3.16-.65.16-1.06V41.1h-.13Zm-1.88-3.59c.53 0 .94.19 1.23.56.28.38.47.88.55 1.5l-.34.17a4.8 4.8 0 0 0-.19-.54c-.07-.17-.16-.3-.27-.42a.94.94 0 0 0-.38-.27 1.5 1.5 0 0 0-.9-.05 49.14 49.14 0 0 0-.73.17 1.75 1.75 0 0 1-1.67-.45c-.35-.33-.57-.8-.66-1.44l.35-.17c.12.4.3.71.53.91.23.2.56.3.99.3.12 0 .24-.01.36-.04l.36-.1.37-.09c.13-.02.26-.04.4-.04Z" fill="#fff"/>
  <path d="M105.37 37.51v.14c.5 0 .86.16 1.12.5.27.35.45.83.53 1.44l.13-.02-.06-.12-.34.17.06.12.13-.03c-.06-.2-.12-.4-.2-.57a1.69 1.69 0 0 0-.29-.45 1.23 1.23 0 0 0-.42-.3l-.06.12.06-.13c-.17-.07-.37-.1-.6-.1-.13 0-.26.01-.38.04l-.37.1-.37.08c-.12.03-.25.04-.38.04-.47 0-.86-.15-1.17-.46-.32-.3-.53-.75-.62-1.35l-.13.01.06.12.35-.17-.06-.12-.13.04a2 2 0 0 0 .58.97c.26.23.62.33 1.07.33.13 0 .26-.01.39-.04l.36-.1.37-.09-.03-.13.03.14c.11-.03.24-.04.37-.04v-.27c-.15 0-.3.01-.43.04l-.37.1-.37.09-.32.04c-.4 0-.7-.1-.9-.27-.2-.18-.37-.46-.49-.84l-.04-.15-.5.23-.08.05.01.1c.1.64.32 1.15.69 1.5.36.36.83.54 1.36.54a2 2 0 0 0 .44-.05l.38-.09a47 47 0 0 1 .36-.09l.33-.04c.2 0 .36.03.48.09.13.05.24.13.33.24.1.1.18.23.25.38.07.16.13.33.18.53l.05.15.57-.28-.01-.1a3.28 3.28 0 0 0-.59-1.56 1.6 1.6 0 0 0-1.33-.61v.13Z" fill="#fff"/>
</svg>
