<svg width="180" height="54" fill="none" xmlns="http://www.w3.org/2000/svg">
  <path d="M173.3 54H6.7A6.7 6.7 0 0 1 0 47.2V6.8C0 3 3 0 6.7 0h166.6a6.7 6.7 0 0 1 6.7 6.8v40.5c0 3.7-3 6.7-6.7 6.7Z" fill="#000"/>
  <path d="M27.6 26.2 13.4 41.5a3.8 3.8 0 0 0 5.7 2.3l16-9.3-7.5-8.3Z" fill="#EA4335"/>
  <path d="m42 23.6-7-4-7.7 7 7.8 7.9 6.9-4a3.9 3.9 0 0 0 2-3.5 4 4 0 0 0-2-3.4Z" fill="#FBBC04"/>
  <path d="M13.4 12.5a3.7 3.7 0 0 0-.1 1v27l.1 1 14.7-14.9-14.7-14Z" fill="#4285F4"/>
  <path d="m27.7 27 7.4-7.4-16-9.4a3.9 3.9 0 0 0-5.7 2.3L27.7 27Z" fill="#34A853"/>
  <path d="M131.5 32h2.2V17.4h-2.2V32Zm19.6-9.3-2.5 6.3-2.7-6.3h-2.3l3.9 8.8-2.2 5h2.2l6-13.8h-2.4Zm-12.3 7.7c-.7 0-1.7-.4-1.7-1.3 0-1.1 1.2-1.5 2.3-1.5 1 0 1.4.2 2 .4a2.6 2.6 0 0 1-2.6 2.3Zm.2-8c-1.5 0-3.2.7-3.8 2.2l1.9.8c.4-.8 1.2-1 2-1 1.1 0 2.2.6 2.3 1.8v.2a4.8 4.8 0 0 0-2.3-.6c-2 0-4.2 1.1-4.2 3.3 0 2 1.7 3.2 3.6 3.2a3 3 0 0 0 2.8-1.4v1h2.2v-5.5c0-2.6-2-4-4.5-4Zm-13.4 2h-3.1v-5h3.1a2.5 2.5 0 0 1 2.6 2.6c0 1-1 2.5-2.6 2.5Zm0-7h-5.3V32h2.2v-5.5h3c2.5 0 4.8-1.8 4.8-4.5 0-2.8-2.3-4.6-4.8-4.6ZM97 30.4c-1.5 0-2.7-1.3-2.7-3 0-1.8 1.2-3 2.7-3 1.5 0 2.7 1.2 2.7 3 0 1.7-1.2 3-2.7 3Zm2.5-7a3.4 3.4 0 0 0-2.7-1 5 5 0 0 0-4.7 5 4.9 4.9 0 0 0 4.7 4.9c1.2 0 2.2-.5 2.6-1.1h.1v.7c0 1.9-1 2.9-2.6 2.9a2.7 2.7 0 0 1-2.5-1.8l-2 .8a4.7 4.7 0 0 0 4.5 3c2.5 0 4.7-1.5 4.7-5.2v-9h-2v.9Zm3.6 8.6h2.2V17.4h-2.2V32Zm5.4-4.8a2.7 2.7 0 0 1 2.6-2.9c.8 0 1.6.4 1.8 1l-4.4 1.9Zm6.7-1.7c-.4-1-1.6-3.1-4.2-3.1s-4.7 2-4.7 5c0 2.7 2.1 4.9 5 4.9a5 5 0 0 0 4-2.2l-1.6-1.1a2.8 2.8 0 0 1-2.5 1.3c-1 0-1.9-.5-2.4-1.5l6.7-2.7-.3-.6ZM62.5 24v2h5a4.4 4.4 0 0 1-1 2.6 5.2 5.2 0 0 1-4 1.6 5.5 5.5 0 0 1-5.5-5.6 5.5 5.5 0 0 1 9.3-4.1l1.5-1.5a7.3 7.3 0 0 0-5.3-2.1 7.8 7.8 0 0 0-7.8 7.7 7.8 7.8 0 0 0 7.8 7.7A7 7 0 0 0 68 30a7 7 0 0 0 1.8-4.9V24h-7.2Zm13 6.5a3 3 0 0 1-2.9-3c0-1.8 1.3-3 2.8-3 1.5 0 2.8 1.2 2.8 3 0 1.7-1.3 3-2.8 3Zm0-8a4.9 4.9 0 0 0-5 5 4.9 4.9 0 0 0 5 4.9 4.9 4.9 0 0 0 5-5 4.9 4.9 0 0 0-5-5Zm10.8 8c-1.5 0-2.8-1.3-2.8-3 0-1.8 1.3-3 2.8-3 1.5 0 2.8 1.2 2.8 3 0 1.7-1.3 3-2.8 3Zm0-8a4.9 4.9 0 0 0-5 5 4.9 4.9 0 0 0 5 4.9 4.9 4.9 0 0 0 5-5 4.9 4.9 0 0 0-5-5ZM61.9 10V8.2h-3.5c0 .3 0 .6.2.8a2.2 2.2 0 0 0 1 .9l.4.2h2Zm-6.8-4 .1-.6a1.4 1.4 0 0 1 .8-.9 1.7 1.7 0 0 1 1.5.1l.6.5.4.7.3.7-.6.3a3.2 3.2 0 0 0-.7-1.2 1.1 1.1 0 0 0-.8-.4l-.4.2a.8.8 0 0 0-.2.6v1.5h8.2v.6h-1.4V11h-3.7l-.4.3-.3.3-.1.5c0 .2 0 .4.2.6a2 2 0 0 0 .4.6 3 3 0 0 0 1.8.6l1-.3 1-.7.4.6a3 3 0 0 1-1.1 1 3.8 3.8 0 0 1-2.8 0c-.4-.2-.8-.4-1-.7a2.6 2.6 0 0 1-.7-.8 2 2 0 0 1-.2-.8c0-.5.2-1 .5-1.2.2-.3.6-.5 1-.6a2.2 2.2 0 0 1-1-1 2.7 2.7 0 0 1-.3-1H56V11a66.2 66.2 0 0 0 0 3.6h-1v-1.8a43.2 43.2 0 0 0 0-1.8V8.2h-.3v-.6h.3V6Z" fill="#fff"/>
  <path d="M62 10V8h-3.7v.2c0 .4 0 .6.2.9a2.4 2.4 0 0 0 1 1l.5.1h2V10h-2a2.1 2.1 0 0 1-1.3-1 1.8 1.8 0 0 1-.2-.8h-.1v.1h3.4v1.8h.1Zm-7-3.8h.2v-.5a1.3 1.3 0 0 1 .7-.8l.7-.2c.2 0 .5 0 .7.2a3 3 0 0 1 1 1.2l.3.6h.1v-.1l-.6.3h.1c-.2-.5-.4-1-.7-1.2a1.3 1.3 0 0 0-.9-.4.7.7 0 0 0-.5.3 1 1 0 0 0-.2.6v1.6h8.2v.4h-1.5v2.7h-3a2 2 0 0 0-.5 0l-.5.3c-.2 0-.2.2-.3.4a1 1 0 0 0-.1.6l.1.6.5.6a3 3 0 0 0 1.9.6c.3 0 .7 0 1-.2a4 4 0 0 0 1-.8h-.2l.5.6v-.1a3 3 0 0 1-1.1.8 3.4 3.4 0 0 1-1.4.3c-.5 0-.9-.1-1.3-.3a3 3 0 0 1-1-.5 2.6 2.6 0 0 1-.5-.8 1.9 1.9 0 0 1-.2-.8c0-.5 0-.8.3-1.1a2 2 0 0 1 1.1-.6h.4l-.4-.2a2 2 0 0 1-1-.9 2.6 2.6 0 0 1-.3-1V8H56v2.8a68.6 68.6 0 0 0 0 3.6h.2v-.2H55v.2h.2v-1.8a43.5 43.5 0 0 0 0-1.8V8.1H55v-.4h.3V6.1H55v1.3h-.4v1h.4v2.5a69.3 69.3 0 0 1 0 1.8v1l-.1.7v.2h1.4v-.1a45.7 45.7 0 0 1 0-2.7V8.3h1.3-.2l.1.5.3.6a2.4 2.4 0 0 0 1.1 1v-.3l-1.1.7c-.3.3-.5.8-.5 1.3 0 .3 0 .6.2.9l.7.8a3.6 3.6 0 0 0 2.4 1 3.4 3.4 0 0 0 2.7-1.3l-.4-.8h-.2a3.6 3.6 0 0 1-1 .7l-1 .2-.9-.1-.7-.4-.4-.5a1.1 1.1 0 0 1-.2-.6.9.9 0 0 1 .4-.7 1.3 1.3 0 0 1 .7-.3H63V8.3h1.4v-.9h-8.2V6.1c0-.2 0-.4.2-.5l.3-.1c.3 0 .5 0 .7.3.3.2.5.6.7 1.1V7l.8-.3v-.2l-.3-.6a3.3 3.3 0 0 0-1-1.3 1.6 1.6 0 0 0-1-.2l-.7.1a1.5 1.5 0 0 0-.8 1L55 6h.1Zm12 4.4h2.6V8.2h-3.5c.3.4.5.7.6 1.1l.2 1.2Zm3.7 4h-1.2V13a34 34 0 0 0 .1-1.6H67a2.6 2.6 0 0 1-.5 1.2 1.4 1.4 0 0 1-.4.3.8.8 0 0 1-.4.2.6.6 0 0 1-.5-.2.8.8 0 0 1-.2-.6l.1-.4a2 2 0 0 1 .6-.8l.5-.4V10a3 3 0 0 0-.5-1.1l-.5-.7h-.7v-.6H72v.6h-1.3V11a35 35 0 0 0 0 1.8v1.8Z" fill="#fff"/>
  <path d="M67 10.5h3V8.2h-4l.2.2a4.2 4.2 0 0 1 .8 2.2v.1h.1v-.1h.2L67 9.4a4.1 4.1 0 0 0-.6-1.2v.2h3.3v2H67Zm3.8 4v-.2h-1.2v.2h.2v-1.6a34.3 34.3 0 0 0 0-1.6v-.1H67a2.6 2.6 0 0 1-.5 1.2l-.3.3a.7.7 0 0 1-.4.1l-.4-.1-.1-.5V12a2 2 0 0 1 .6-.8c.2-.2.3-.3.5-.3V10a3 3 0 0 0-.5-1.2 6 6 0 0 0-.5-.7h-.6v-.4h7.1v.4h-1.2v2.8a35.4 35.4 0 0 0 0 1.8v1.8h.3v-1.9a89.7 89.7 0 0 1 0-1.7V8.3h1v-.9h-7.7v1h.8v-.2l-.1.1a4.7 4.7 0 0 1 .8 1.2 4.7 4.7 0 0 1 .2 1.1h.1a2.4 2.4 0 0 0-1.2 1.2l-.1.4c0 .3 0 .5.2.7a.7.7 0 0 0 .6.2c.1 0 .3 0 .5-.2l.4-.4a2.7 2.7 0 0 0 .5-1.2v.1h2.7v-.1h-.1a68.7 68.7 0 0 1 0 1.6v.8l-.1.7v.2h1.4v-.1h-.1ZM75.7 5c-.3 0-.5 0-.7.2-.2.1-.3.3-.3.6V6l.2.3-.4.2a1.9 1.9 0 0 1-.2-.4 1.2 1.2 0 0 1-.1-.6V5a1.4 1.4 0 0 1 .8-.7l.7-.1h.6a1.3 1.3 0 0 1 .8.8v1.1l-.3.4-.4-.2a.9.9 0 0 0 .2-.5c0-.3-.1-.5-.3-.6a1 1 0 0 0-.6-.2Zm2.5 12a6.7 6.7 0 0 1-1.9.6 3 3 0 0 1-.6.1c-.5 0-1 0-1.4-.2A7 7 0 0 1 73 17l.2-.5a8.4 8.4 0 0 0 4.4 0h.4l.2.5Zm0-1.7a7 7 0 0 1-1.9.8 4.4 4.4 0 0 1-2-.2c-.5-.1-.9-.3-1.3-.6l.2-.5.4.1a10.8 10.8 0 0 0 2 .3A6.8 6.8 0 0 0 77 15a10.6 10.6 0 0 0 1-.2l.2.5Zm.5-3.2a2 2 0 0 1-.7 1.5l-.7.5c-.2.1-.6.3-1 .3l-.2-.8c.2 0 .4 0 .6-.2.2 0 .4-.2.5-.3l.4-.4a1.3 1.3 0 0 0 0-1.3 2.1 2.1 0 0 0-.6-.5 2.5 2.5 0 0 0-1.3-.5 2.7 2.7 0 0 0-1.4.4 2 2 0 0 0-.5.6 1 1 0 0 0-.3.7l.2.6c0 .2.2.3.3.5a2.4 2.4 0 0 0 1.2.4l-.2.8a3.3 3.3 0 0 1-1-.2 2.5 2.5 0 0 1-.7-.5 2 2 0 0 1-.4-.7 2.4 2.4 0 0 1-.2-.9 2.3 2.3 0 0 1 .8-1.7l.8-.5.9-.3V8.2h-3v-.6H80v.6h-4v1.5a4 4 0 0 1 1 .3 2.9 2.9 0 0 1 1.4 1.3l.2 1Z" fill="#fff"/>
  <path d="M75.7 5.1V5c-.3 0-.6 0-.8.2a.8.8 0 0 0-.3.7v.3l.1.1-.2.2v.1l.1-.1a1.7 1.7 0 0 1-.2-.3 1 1 0 0 1-.1-.6v-.4a1 1 0 0 1 .3-.4l.4-.3.7-.1h.6l.4.4.2.4.1.4v.6l-.3.3v.1l.1-.1-.3-.2v.2a1 1 0 0 0 .2-.6.8.8 0 0 0-.3-.7c-.2-.2-.5-.2-.7-.2v.2a1 1 0 0 1 .5.2c.2 0 .2.2.3.5 0 .1 0 .3-.2.4v.1l.5.4v-.1a2 2 0 0 0 .3-.4l.2-.7-.1-.5a1.4 1.4 0 0 0-.8-.8l-.7-.2c-.3 0-.5 0-.8.2-.2 0-.3.2-.5.3a1.6 1.6 0 0 0-.4 1c0 .3 0 .5.2.7l.2.4h.1l.6-.3-.2-.3v-.3h-.2.1c0-.2.1-.3.3-.4l.6-.2v-.1Zm2.5 12v-.2l-.6.3a5.6 5.6 0 0 1-2 .5 4.3 4.3 0 0 1-1.2-.2 6.9 6.9 0 0 1-1.3-.6v.1l.3-.5h-.2v.1l.4.1.6.2a10 10 0 0 0 1.4 0 7 7 0 0 0 1.4 0l.7-.2.4-.1v-.1h-.2l.2.6h.1l.2-.1-.2-.6v-.1H78l-.4.2a7.9 7.9 0 0 1-4.3-.1l-.1-.1-.3.7v.1c.4.3.9.5 1.4.6a4.6 4.6 0 0 0 2 .2 5.9 5.9 0 0 0 1.4-.4l.6-.3.1-.1V17h-.2Zm0-1.7a6.9 6.9 0 0 1-1.3.5 5.9 5.9 0 0 1-1.2.2 4.3 4.3 0 0 1-1.4-.2 7 7 0 0 1-1.2-.6v.2l.3-.5h-.2a10.7 10.7 0 0 0 2.4.4 7 7 0 0 0 1.4-.1 10.6 10.6 0 0 0 1-.3l.1.5h.1l.2-.1-.3-.7H78l-.4.2a10.6 10.6 0 0 1-2 .3 6.7 6.7 0 0 1-1.3-.2 10.6 10.6 0 0 1-1-.2h-.1l-.3.7c.5.3.9.5 1.4.6a4.6 4.6 0 0 0 2 .2 6.2 6.2 0 0 0 2-.7h.1v-.2h-.2Zm.5-3.2h-.2l-.1.8a2 2 0 0 1-.5.6 3.4 3.4 0 0 1-1.6.8v.1h.1l-.1-.8H76v.1a3 3 0 0 0 .7-.2c.2 0 .4-.2.5-.3l.4-.5.1-.6c0-.2 0-.5-.2-.7a2.3 2.3 0 0 0-.5-.6 2.6 2.6 0 0 0-1.4-.5 2.9 2.9 0 0 0-1.4.4l-.6.6c-.2.2-.3.5-.3.8 0 .3 0 .5.2.7 0 .2.2.3.4.5a2.6 2.6 0 0 0 1.2.5v-.2H75l-.2.8h.2v-.1a3.2 3.2 0 0 1-.9-.3 2.4 2.4 0 0 1-.7-.4L73 13a2.1 2.1 0 0 1-.2-.8 2.1 2.1 0 0 1 .8-1.6l.7-.5.9-.3h.1V8.1h-3v-.4h7.5v.4H76v1.7h.1a3 3 0 0 1 1.7.9c.3.2.4.4.5.7.2.2.2.5.2.8h.3c0-.3 0-.6-.2-1l-.6-.7a3.1 3.1 0 0 0-.8-.6 4.2 4.2 0 0 0-1-.3v.1-1.3h3.9v-1h-8v1h3v1.3-.1l-.8.2-.9.5a2.4 2.4 0 0 0-.8 2c0 .3 0 .6.2.8 0 .3.2.6.4.8l.8.5 1 .3.3-1v-.1h-.1l-.6-.2a1.8 1.8 0 0 1-.5-.3 1.3 1.3 0 0 1-.3-.4 1 1 0 0 1-.1-.5c0-.2 0-.5.2-.7l.5-.5a2.6 2.6 0 0 1 1.3-.4v-.1.1a2.4 2.4 0 0 1 1.2.5l.5.5.2.6a1 1 0 0 1-.1.5l-.3.4a2 2 0 0 1-.5.3 2.7 2.7 0 0 1-.6.2H76l.2 1h.1l1-.2.8-.6.5-.7.2-.9h-.1ZM55.3 42l-.5-.3.6-.8a.7.7 0 0 1-.4-.2.6.6 0 0 1-.2-.4l.2-.5a.7.7 0 0 1 .5-.3l.6.2a.7.7 0 0 1 .2.6l-.3.8-.7 1Z" fill="#fff"/>
  <path d="m55.3 42-.3-.3.5-.7.1-.2h-.2a.6.6 0 0 1-.3-.2.5.5 0 0 1-.1-.3l.1-.4a.6.6 0 0 1 .4-.2l.5.1c.2.2.1.3.1.5 0 .1 0 .4-.3.7h.1l-.7 1 .2.1.7-1 .3-.8a.8.8 0 0 0-.2-.6.8.8 0 0 0-.6-.3.8.8 0 0 0-.7.3.8.8 0 0 0-.2.6c0 .2 0 .4.2.5l.5.3v-.2h-.1l-.6.8.6.5h.1l-.1-.2Zm2.9 3.5.3.3a2.6 2.6 0 0 0 2 .8 2.8 2.8 0 0 0 1.1-.3c.2 0 .4-.2.5-.4a1 1 0 0 0 0-1 1.7 1.7 0 0 0-.2-.5 4.4 4.4 0 0 0-1-.6 3.9 3.9 0 0 1-1.2.3c-.4 0-.7 0-1-.2l-.2-.4c0-.2 0-.3.2-.5l1-.2 1 .2.8-.5c.2-.2.3-.4.3-.7v-.3a1.5 1.5 0 0 0-.2-.4H57v-.6h7.4v.6h-2a1.8 1.8 0 0 1 .3.8l-.3.9-.7.6.6.3.4.5c.2.1.3.3.3.5a1.9 1.9 0 0 1-.1 1.6l-.7.7a3 3 0 0 1-1 .4 4.1 4.1 0 0 1-2 0 3.3 3.3 0 0 1-.8-.5 2.6 2.6 0 0 1-.9-1l.6-.4Z" fill="#fff"/>
  <path d="M58.2 45.5H58l.3.4a2.8 2.8 0 0 0 1.1.8 2.6 2.6 0 0 0 1.5 0c.3 0 .5-.1.7-.3.2 0 .4-.2.5-.4a1.1 1.1 0 0 0 0-1.2 1.8 1.8 0 0 0-.3-.4 4.5 4.5 0 0 0-1-.7 3.7 3.7 0 0 1-1.2.3c-.4 0-.7 0-.9-.2-.2-.1-.2-.2-.2-.3 0-.1 0-.2.2-.3l.9-.2 1 .1c.4-.1.6-.3.8-.5.3-.2.4-.5.4-.8v-.3a1.7 1.7 0 0 0-.2-.5h-4.5v-.4h7.2v.4h-2v.2l.2.3v.4c0 .3 0 .6-.2.8l-.7.6-.2.1.2.1a3.4 3.4 0 0 1 1 .8c.2.1.3.3.3.4l.1.6c0 .4 0 .7-.2 1l-.7.6a3 3 0 0 1-.8.3 4 4 0 0 1-2 0 3 3 0 0 1-.8-.4 2.5 2.5 0 0 1-.9-1v.2l.6-.4-.1-.1v-.1l-.7.3v.2a2.8 2.8 0 0 0 1 1.1 3.4 3.4 0 0 0 2 .6l.9-.1c.3 0 .7-.2 1-.4.3-.1.5-.4.7-.7.2-.3.3-.7.3-1a1.8 1.8 0 0 0-.5-1.3 3 3 0 0 0-.5-.5 4.2 4.2 0 0 0-.5-.3l-.1.1v.1l.8-.7c.2-.2.3-.5.3-.9a2 2 0 0 0-.2-.9l-.1.1v.1h2v-.9H57v1h4.6V41h-.1l.1.4h.1-.1v.3h.2-.2c0 .2 0 .4-.2.6a3 3 0 0 1-.8.5l.1.1v.1l-1-.2c-.5 0-.8 0-1 .2-.3.2-.4.4-.4.6 0 .2.2.4.4.5.2.2.6.2 1 .2A4 4 0 0 0 61 44v-.2l-.1.2a4.2 4.2 0 0 1 .9.5c0 .2.2.3.3.4a.9.9 0 0 1-.1 1 1.4 1.4 0 0 1-.5.3 2.6 2.6 0 0 1-1.9.2 2.5 2.5 0 0 1-1-.7 6 6 0 0 1-.3-.3v-.1H58v.2Zm4.5-5.3a4.9 4.9 0 0 0-.5-.7 3 3 0 0 0-1.3-1c-.3-.2-.6-.2-1-.2h-1.5v-.8H60l1 .1.8.5.8.8.5 1-.4.3Z" fill="#fff"/>
  <path d="M62.7 40.2h.1a3.8 3.8 0 0 0-1-1.4 2.8 2.8 0 0 0-1.8-.6h-1.5v-.6H60a3 3 0 0 1 1.7.6l.7.8c.3.3.4.6.6 1h.1v-.1l-.4.2v.2l.5-.2v-.2l-.5-1a3.7 3.7 0 0 0-1.7-1.4 2.9 2.9 0 0 0-1-.2h-1.7v1.1H60c.3 0 .6 0 .8.2a2.9 2.9 0 0 1 1.3 1l.5.7h.2v-.1ZM73 47.4l-.2 1 1.2.7 1.2 1.2-.5.4a6.2 6.2 0 0 0-1.3-1.1 4.5 4.5 0 0 0-1-.5l-.7.5c-.2.2-.5.1-.8.1a2 2 0 0 1-.9-.2 1 1 0 0 1-.3-.2.5.5 0 0 1-.1-.4.6.6 0 0 1 .1-.4l.4-.2a2.1 2.1 0 0 1 1-.2 4 4 0 0 1 .7 0l.2-.6v-.2h-.1v-1.2l-1 .5a3.8 3.8 0 0 1-2.4 0 1.9 1.9 0 0 1-.7-.3 1.6 1.6 0 0 1-.4-.6 2.4 2.4 0 0 1 0-1.5l.2-.6.3-.5v-.5a2.2 2.2 0 0 0-.6-1.5h-.5v-.6H68a6 6 0 0 1 .7 1.2 2.5 2.5 0 0 1 .1.9 2.5 2.5 0 0 1-.3 1.2l-.1.5a1.6 1.6 0 0 0-.1.5v.3l.2.4a1.2 1.2 0 0 0 1 .4c.3 0 .7 0 1.1-.2l1.4-.6v-4.7h2.2v.7H73v2.7a61.5 61.5 0 0 0 0 1.8v1l.1.8Z" fill="#fff"/>
  <path d="M73 47.4v-.2h-.2v.3c0 .3 0 .6-.2.9l.1.1 1.2.7 1.2 1.1V50l-.5.4v.1h.2a6.5 6.5 0 0 0-1.3-1.1l-.6-.3a9.8 9.8 0 0 0-.5-.2h-.1a1.9 1.9 0 0 1-.7.4l-.7.2a1.9 1.9 0 0 1-.4 0 1.6 1.6 0 0 1-.4-.2l-.3-.2v-.6a.9.9 0 0 1 .3-.2 2.1 2.1 0 0 1 1-.2h.7l.1.1v-.1l.2-.7v-.3h-.2v.2h.1v-1.4h-.2a2 2 0 0 1-1 .6 3.6 3.6 0 0 1-2.3 0l-.6-.3-.4-.6a2.3 2.3 0 0 1 0-1.4l.2-.5.3-.5.1-.6a2.3 2.3 0 0 0-.7-1.6h-.5v-.4h1v-.1a5.8 5.8 0 0 1 .6 1.3 2.4 2.4 0 0 1 .2.8l-.1.6-.2.5a5 5 0 0 0-.2.5 1.6 1.6 0 0 0 0 1 1.3 1.3 0 0 0 .6.7l.7.2 1.1-.2 1.4-.7v-4.6h2v.4h-1.2v2.8a61.8 61.8 0 0 0 0 1.8v1l.1.8h.3v-.9l-.1-1a40.4 40.4 0 0 1 0-1.7v-2.6h1.2v-.9h-2.5v4.8h.1V45l-1.3.6-1 .2-.6-.1a1 1 0 0 1-.4-.3l-.1-.3a1.2 1.2 0 0 1 0-.3v-.5l.2-.5.1-.5a2.5 2.5 0 0 0 .1-1.1 4.2 4.2 0 0 0-.4-1.1 6 6 0 0 0-.4-.7h-1.5v.8h.7a2 2 0 0 1 .5 1.4 1 1 0 0 1 0 .5l-.3.5-.2.5a2.5 2.5 0 0 0 0 1.6c0 .3.2.5.4.7l.8.4a3.9 3.9 0 0 0 2.4 0l1.1-.6v-.1h-.2v1.4h.2v-.1h-.2l-.1.7h.1a4.2 4.2 0 0 0-.8-.2l-.5.1a2 2 0 0 0-.5.2 1 1 0 0 0-.4.3.7.7 0 0 0-.1.4l.1.4c.1.1.2.3.4.3a2.2 2.2 0 0 0 1 .3l.8-.2.6-.5V49l-.1.1.5.2a4.3 4.3 0 0 1 1.2.7l.6.6v.1l.8-.5-.1-.1a7.4 7.4 0 0 0-1.2-1.2l-1.3-.7v.1c.2-.3.3-.6.3-1h-.2.3-.2Z" fill="#fff"/>
  <path d="M74.3 41.1v-.6h2.6v.6h-1.3v.1a68.4 68.4 0 0 0 .1 3.6h-1.1V43a43.5 43.5 0 0 0 0-1.8h-.3Z" fill="#fff"/>
  <path d="M74.3 41.1h.1v-.5h2.4v.4h-1.3v.2a68.7 68.7 0 0 0 .1 3.6h.1v-.2h-1.1v.2h.1V43a43.6 43.6 0 0 0 .1-1.8V41h-.5v.2h.4-.2a69.5 69.5 0 0 1 0 1.8v1.9h1.4v-.1a40.4 40.4 0 0 1-.1-1.8v-1.9h-.1v.1H77v-.9h-3v1h.2V41Zm9 6.3H82V46l-1 .5a3.8 3.8 0 0 1-2.4 0 2 2 0 0 1-.7-.3 1.6 1.6 0 0 1-.4-.6 2.4 2.4 0 0 1 0-1.5l.3-.6.2-.5v-.5a2.2 2.2 0 0 0-.6-1.5H77v-.6h1.2a6 6 0 0 1 .7 1.2 2.5 2.5 0 0 1 0 1.6l-.1.5-.2.5a1.6 1.6 0 0 0 0 .8 1 1 0 0 0 .2.4 1.2 1.2 0 0 0 1 .4c.3 0 .6 0 1-.2l1.4-.6v-4.6h2.2v.6h-1.2v2.7a71 71 0 0 0 0 1.8v1.8Z" fill="#fff"/>
  <path d="M83.3 47.4v-.2H82v.1h.1v-1.2l.1-.3-.2.2-1 .5a3.6 3.6 0 0 1-2.3 0 1 1 0 0 1-.7-.3l-.3-.6a2.3 2.3 0 0 1 0-1.4c0-.2 0-.4.2-.5l.2-.5.1-.6a2.3 2.3 0 0 0-.6-1.6H77v-.4h1.1v-.1H78a6 6 0 0 1 .7 1.3 2.4 2.4 0 0 1 .1.8v.6l-.3.5a8.4 8.4 0 0 0-.1.5l-.1.6a1.3 1.3 0 0 0 .2.8l.5.3.7.2 1-.2 1.4-.7h.1v-4.6h2v.4H83v2.8a71.2 71.2 0 0 0 0 1.8v1l.1.8h.2v-1.9a44.8 44.8 0 0 1 0-1.7v-2.6h1.3v-.9H82v4.8h.2V45l-1.4.6-1 .2-.6-.1a1 1 0 0 1-.3-.3l-.2-.3a1.2 1.2 0 0 1 0-.3v-.5l.2-.5.2-.5a2.5 2.5 0 0 0 0-1.1 4.2 4.2 0 0 0-.4-1.1 6.1 6.1 0 0 0-.4-.7h-1.5v.8h.7a2 2 0 0 1 .6 1.4 1 1 0 0 1-.1.5l-.3.5a7 7 0 0 0-.2.5 2.5 2.5 0 0 0 0 1.6 1.9 1.9 0 0 0 1.2 1.1 3.9 3.9 0 0 0 2.4 0l1.1-.6v-.1H82v1.4h1.4v-.2h-.1Z" fill="#fff"/>
  <path d="m85.6 45.5.3.3a2.6 2.6 0 0 0 2.5.8l.6-.3c.2 0 .4-.2.5-.4a1 1 0 0 0 0-1 1.7 1.7 0 0 0-.2-.5 4.3 4.3 0 0 0-1-.6 3.9 3.9 0 0 1-1.2.3c-.4 0-.7 0-1-.2l-.2-.4c0-.2 0-.3.2-.5l1-.2 1 .2.8-.5c.2-.2.3-.4.3-.7v-.3a1.5 1.5 0 0 0-.2-.4h-4.5v-.6H92v.6h-2a1.8 1.8 0 0 1 .3.8l-.3.9-.7.6.6.3a2.7 2.7 0 0 1 .8 1 1.9 1.9 0 0 1-.2 1.6l-.7.7a3 3 0 0 1-.9.4 4.1 4.1 0 0 1-2 0 3.3 3.3 0 0 1-.9-.5 2.6 2.6 0 0 1-.9-1l.6-.4Z" fill="#fff"/>
  <path d="M85.6 45.5h-.1l.3.4.5.4a2.6 2.6 0 0 0 2.1.4c.3 0 .5-.1.7-.3.2 0 .4-.2.5-.4a1.1 1.1 0 0 0 .1-1.2 1.8 1.8 0 0 0-.3-.4 4.5 4.5 0 0 0-1-.7h-.1a3.7 3.7 0 0 1-1.2.3c-.4 0-.7 0-.9-.2l-.2-.3c0-.1 0-.2.2-.3l.9-.2 1 .1c.4-.1.7-.3.9-.5.2-.2.3-.5.3-.8v-.3a1.7 1.7 0 0 0-.2-.5h-4.5v-.4h7.2v.4h-2v.2a1.6 1.6 0 0 1 .2.7c0 .3 0 .6-.2.8a3 3 0 0 1-.7.6l-.1.1.2.1a3.3 3.3 0 0 1 1 .8l.2.4.1.6c0 .4 0 .7-.2 1l-.7.6c-.2.2-.5.3-.8.3a4 4 0 0 1-2 0 3.2 3.2 0 0 1-.8-.4 2.5 2.5 0 0 1-.8-1H85l.1.2.6-.4-.1-.1v-.1l-.6.3-.1.1v.1a2.8 2.8 0 0 0 1 1.1 3.4 3.4 0 0 0 2 .6l1-.1c.3 0 .6-.2.9-.4.3-.1.5-.4.7-.7.2-.3.3-.7.3-1a1.8 1.8 0 0 0-.5-1.3 4.3 4.3 0 0 0-1-.8v.2l.7-.6c.2-.3.3-.6.3-1a2 2 0 0 0-.2-.8H90v.1h2v-.9h-7.6v1H89V41l.1.4h.2-.2v.3h.2-.1a.8.8 0 0 1-.3.6 3 3 0 0 1-.7.5v.1-.1l-1-.2c-.5 0-.8 0-1 .2-.2.2-.4.4-.4.6 0 .2.2.4.4.5.2.2.6.3 1 .3a4 4 0 0 0 1.3-.3v-.2l-.1.2a4.2 4.2 0 0 1 .9.5l.3.4v.9l-.5.4a2.6 2.6 0 0 1-2 .2 2.5 2.5 0 0 1-1-.7 6 6 0 0 1-.3-.3v-.1h-.2l.1.2Zm11-2a2 2 0 0 0-1 .2.7.7 0 0 0-.5.6c0 .2 0 .3.2.5l.3.3a2.4 2.4 0 0 0 1 .2c.4 0 .7-.1 1-.3l.7-.7c-.2-.2-.5-.5-.8-.6a2 2 0 0 0-1-.3Zm2.2-1.6a8.4 8.4 0 0 0-.1-.8h-5v-.6h7.6v.6h-1.6a6.3 6.3 0 0 1 .1.8c0 1-.2 1.7-.5 2.4.3.4.5.9.6 1.4l.3 1.6h-1a10 10 0 0 0-.5-2 2.8 2.8 0 0 1-2 .8 3.4 3.4 0 0 1-1 0 2.5 2.5 0 0 1-.7-.4l-.5-.6a1.5 1.5 0 0 1-.2-.8c0-.3 0-.5.2-.8l.5-.5a3.5 3.5 0 0 1 1.5-.4 3 3 0 0 1 2.1.8l.2-1.5Z" fill="#fff"/>
  <path d="M96.5 43.4v-.1c-.4 0-.8 0-1 .2a.9.9 0 0 0-.5.8l.1.5a1.7 1.7 0 0 0 1 .6h.4c.5 0 .9 0 1.2-.3l.7-.7v-.1a2.7 2.7 0 0 0-.8-.7 2 2 0 0 0-1-.3v.3c.3 0 .6 0 .9.2l.7.6v-.1a2 2 0 0 1-.7.6 2 2 0 0 1-1.4.2c-.2 0-.3 0-.4-.2a1 1 0 0 1-.3-.2.6.6 0 0 1-.2-.4c0-.2.1-.4.4-.5.2-.2.5-.2 1-.2v-.2Zm2.3-1.5h.1a9.2 9.2 0 0 0 0-.8l-.1-.1h-5v-.4h7.3v.4h-1.6v.1l.1.4v.4a5.5 5.5 0 0 1-.4 2.4l.6 1.4.3 1.6h-.9.2a9.4 9.4 0 0 0-.5-2.1l-.1-.2-.2.1a2.7 2.7 0 0 1-2 .9l-.8-.1-.7-.3c-.2-.2-.4-.3-.5-.6a1.3 1.3 0 0 1-.2-.7c0-.3 0-.5.2-.7a2 2 0 0 1 1.2-.7l.8-.1a2.9 2.9 0 0 1 2 .7l.1.2v-.2c.2-.5.2-1 .2-1.6h-.2l-.2 1.5h.2a3.2 3.2 0 0 0-3.7-.5 1.9 1.9 0 0 0-.6.6c-.2.2-.3.5-.3.8l.3.9.6.6a3.1 3.1 0 0 0 1.6.4 3 3 0 0 0 2.2-.9h-.2a6.7 6.7 0 0 1 .5 2v.2h1.2v-.2a9.1 9.1 0 0 0-.3-1.6 5.5 5.5 0 0 0-.6-1.5v.1a5.8 5.8 0 0 0 .5-2.8V41h-.2v.1h1.7v-.9h-7.8v1h5V41a7.1 7.1 0 0 1 0 .8h.2Zm7.5 1.9h-2.5c-.3 0-.6 0-.7.2a1 1 0 0 0-.3.7c0 .2 0 .5.2.7l.5.6a2.5 2.5 0 0 0 1.5.6c.3 0 .5 0 .7-.2a1 1 0 0 0 .5-.7v-1.9Zm1-2.7v4.2l-.2 1a1.7 1.7 0 0 1-1.1 1 3.2 3.2 0 0 1-3.8-1.6 2.5 2.5 0 0 1-.3-1c0-.6.2-1 .5-1.3.3-.3.8-.4 1.4-.4h2.5v-2h-4.9v-.6h7.2v.6h-1.3Z" fill="#fff"/>
  <path d="M106.3 43.8v-.1h-2.5c-.3 0-.6 0-.8.2a.9.9 0 0 0-.4.8c0 .3.1.5.3.8l.5.6a2.7 2.7 0 0 0 1.6.6c.3 0 .5 0 .7-.2a1.1 1.1 0 0 0 .7-.8v-2h-.1v.1h-.1v1.9a1 1 0 0 1-.3.3.8.8 0 0 1-.3.3l-.6.1a2.4 2.4 0 0 1-1.4-.5c-.2-.2-.4-.3-.5-.6a1.3 1.3 0 0 1-.2-.6c0-.3 0-.5.2-.6l.7-.2h2.5Zm1-2.7h-.2v4.2l-.1 1a1.5 1.5 0 0 1-1 1 3 3 0 0 1-3-.8 3 3 0 0 1-.7-.8 2.3 2.3 0 0 1-.2-1c0-.6.1-1 .4-1.2.3-.3.7-.4 1.3-.4h2.6V41h-4.8v-.4h6.9v.4H107v.1h.2v.1h1.5v-.9h-7.5v1h4.9v1.5h-2.4c-.6 0-1.1.2-1.5.5-.3.3-.5.8-.5 1.3 0 .4 0 .8.3 1.2a3 3 0 0 0 .7 1 3.5 3.5 0 0 0 3.2.7 1.8 1.8 0 0 0 1.2-1.2l.2-1V41h-.1Zm-2-3.6c.6 0 1 .2 1.3.6.3.3.5.8.6 1.5l-.4.1a4.8 4.8 0 0 0-.2-.5l-.2-.4a1 1 0 0 0-.4-.3 1.5 1.5 0 0 0-1 0 49.1 49.1 0 0 0-.7.1 1.8 1.8 0 0 1-1.6-.4c-.4-.4-.6-.8-.7-1.5l.4-.1c0 .4.3.7.5.9.2.2.5.3 1 .3h.3l.4-.2h.8Z" fill="#fff"/>
  <path d="M105.4 37.5v.1c.5 0 .8.2 1 .5.4.4.5.9.6 1.5h.2l-.1-.2-.3.2v.1h.1c0-.2 0-.4-.2-.6a1.7 1.7 0 0 0-.3-.4 1.2 1.2 0 0 0-.4-.3v.1-.1l-.6-.1h-.4l-.3.1-.4.1h-.4c-.4 0-.8-.1-1.1-.4-.4-.3-.6-.8-.7-1.4v.2l.3-.2v-.1h-.2a2 2 0 0 0 .6 1c.3.2.6.3 1 .3h.5l.3-.1.4-.1v-.2.2h.4v-.3a2 2 0 0 0-.5 0l-.3.1-.4.1h-.3c-.4 0-.7 0-1-.2l-.4-.9v-.1l-.6.2v.2c0 .6.3 1.1.7 1.5.3.3.8.5 1.3.5a2 2 0 0 0 .5 0l.3-.1a47 47 0 0 1 .4-.1h.8l.3.3.3.3.2.6v.1l.6-.3a3.3 3.3 0 0 0-.6-1.6 1.6 1.6 0 0 0-1.3-.6v.1Z" fill="#fff"/>
</svg>
