<svg id="artwork" xmlns="http://www.w3.org/2000/svg" version="1.1" viewBox="0 0 239.5 70.9">
  <defs>
    <style>
      .st4{fill:#fff}
    </style>
  </defs>
  <rect x=".2" width="239.2" height="70.9" rx="8.9" ry="8.9"/>
  <path class="st4" d="M120.9 38.5c-4.2 0-7.6 3.2-7.6 7.6s3.4 7.5 7.6 7.5 7.6-3.2 7.6-7.5-3.4-7.6-7.6-7.6Zm0 12.1c-2.3 0-4.3-1.8-4.3-4.5s2-4.6 4.3-4.6 4.3 1.9 4.3 4.6-2 4.5-4.3 4.5Zm-16.5-12c-4.2 0-7.6 3.1-7.6 7.5s3.4 7.5 7.6 7.5 7.5-3.2 7.5-7.5-3.4-7.6-7.5-7.6Zm0 12c-2.3 0-4.3-1.8-4.3-4.5s2-4.6 4.3-4.6 4.2 1.9 4.2 4.6-2 4.5-4.2 4.5Zm-19.6-9.8V44h7.6a6.6 6.6 0 0 1-1.7 4 7.8 7.8 0 0 1-6 2.4 8.4 8.4 0 0 1-8.3-8.5 8.4 8.4 0 0 1 14.1-6.2l2.3-2.3c-2-1.8-4.5-3.2-8-3.2-6.5 0-12 5.3-12 11.7s5.5 11.7 12 11.7c3.4 0 6-1 8.1-3.2 2.1-2.1 2.8-5.1 2.8-7.5 0-.8 0-1.5-.2-2H84.8Zm80.2 2.5c-.6-1.6-2.5-4.8-6.4-4.8s-7.1 3-7.1 7.6c0 4.2 3.2 7.5 7.5 7.5 3.4 0 5.4-2.1 6.2-3.3l-2.5-1.8c-.9 1.3-2 2.1-3.7 2.1s-3-.7-3.7-2.3l10-4.1-.2-.9ZM154.7 46c0-3 2.3-4.4 4-4.4 1.3 0 2.4.6 2.8 1.6l-6.7 2.8Zm-8.1 7.3h3.3V31h-3.3v22.1Zm-5.4-13h-.2a5.2 5.2 0 0 0-4-1.7c-3.7 0-7.2 3.3-7.2 7.6s3.5 7.5 7.3 7.5c1.8 0 3.2-.8 4-1.7v1c0 3-1.5 4.5-4 4.5-2 0-3.2-1.4-3.8-2.7l-2.9 1.2c.9 2 3 4.5 6.7 4.5 4 0 7.2-2.3 7.2-7.9V39h-3.1v1.2Zm-3.9 10.4c-2.3 0-4.2-1.9-4.2-4.5s2-4.6 4.2-4.6 4 2 4 4.6-1.7 4.5-4 4.5ZM180.6 31h-8v22.1h3.3v-8.4h4.7c3.6 0 7.2-2.6 7.2-6.8s-3.6-6.9-7.2-6.9Zm0 10.7H176V34h4.7a3.8 3.8 0 1 1 0 7.6Zm20.5-3.2c-2.4 0-5 1-6 3.4l3 1.2c.6-1.2 1.8-1.6 3-1.6 1.7 0 3.5 1 3.5 2.8v.3c-.6-.4-1.9-.9-3.5-.9-3.1 0-6.3 1.7-6.3 5 0 3 2.5 4.8 5.4 4.8 2.3 0 3.5-1 4.3-2.1V53h3.3v-8.5c0-4-3-6.1-6.8-6.1Zm-.4 12.1c-1.1 0-2.6-.5-2.6-1.8 0-1.7 1.8-2.4 3.5-2.4 1.4 0 2.1.3 3 .7a4 4 0 0 1-4 3.5ZM219.4 39l-3.8 9.6h-.1l-4-9.6H208l6 13.4-3.5 7.5h3.5l9-21h-3.6Zm-29.8 14h3.3V31h-3.3v22.1Z"/>
  <path d="M36.9 34.4 18 54.4a5 5 0 0 0 7.5 3l21.3-12.2-10-10.8Z" style="fill:#ea4335"/>
  <path d="m56 31-9.2-5.3-10.3 9.2 10.3 10.3L56 40c1.6-1 2.7-2.6 2.7-4.5s-1-3.6-2.6-4.5Z" style="fill:#fbbc04"/>
  <path d="m18 16.4-.2 1.4V53c0 .5 0 1 .2 1.3L37.5 35 18 16.4Z" style="fill:#4285f4"/>
  <path d="m37 35.4 9.8-9.7-21.2-12.3a5.1 5.1 0 0 0-7.6 3l19 19Z" style="fill:#34a853"/>
  <path class="st4" d="M79.8 12.7a4 4 0 0 0-1.8-.5h-3.8v11H76V19h2c.7 0 1.3-.2 1.8-.5.6-.2 1-.7 1.3-1.2a3.4 3.4 0 0 0 0-3.4c-.3-.6-.7-1-1.3-1.2Zm-.1 3.7-.7.7c-.2.2-.6.3-1 .3h-2v-3.5h2c.4 0 .8 0 1 .2l.7.7.2.8c0 .3 0 .6-.2.9Zm12-3.6c-.9-.6-1.9-.8-3-.8a5.6 5.6 0 0 0-4.9 2.8c-.5 1-.7 1.9-.7 3a5.7 5.7 0 0 0 2.8 5c.8.5 1.8.7 2.9.7a5.6 5.6 0 0 0 5-2.8c.4-1 .7-1.9.7-3s-.3-2-.8-2.9a5.5 5.5 0 0 0-2-2Zm.5 7c-.3.7-.8 1.2-1.4 1.5s-1.3.6-2 .6a4 4 0 0 1-3.5-2c-.3-.6-.5-1.3-.5-2.2s.2-1.5.5-2.1.9-1.1 1.5-1.5a4.2 4.2 0 0 1 4 0c.6.3 1 .9 1.4 1.5s.5 1.3.5 2.1-.1 1.5-.5 2.2Zm10.5-2.2v-.1c.4-.2.8-.5 1-.9.3-.4.4-.9.4-1.4s-.1-1-.4-1.5c-.3-.5-.7-.8-1.2-1s-1-.5-1.6-.5h-4.2v11h4.3c.7 0 1.2 0 1.8-.3.5-.3 1-.6 1.2-1.1a2.8 2.8 0 0 0 0-3.2c-.3-.5-.8-.8-1.4-1Zm-4.3-3.8h2.5a1.5 1.5 0 0 1 1.5 1.5c0 .4-.1.8-.4 1.1s-.7.5-1.2.5h-2.3v-3Zm4 7.4c-.4.3-.8.5-1.4.5h-2.6v-3.3h2.6c.6 0 1 .2 1.3.5s.5.7.5 1.1-.2.9-.5 1.2Zm4.3-9h1.7v11h-1.7zm4.6 11.1h6.7v-1.7h-5v-3h4.5v-1.7H113v-3h5v-1.7h-6.7v11.1zm14-4.6c.7-.2 1.3-.5 1.8-1.1a3.2 3.2 0 0 0 .3-3.7c-.4-.5-.8-1-1.4-1.2s-1.1-.5-1.8-.5h-3.9v11h1.7V19h1.3l3 4.3h2v-.1l-3-4.4Zm-3.3-1.4v-3.5h2.2c.4 0 .7.1 1 .3l.6.7c.2.2.2.5.2.8 0 .5-.2 1-.5 1.3s-.8.5-1.3.5H122Zm15.3-3.3v-1.8h-7.5v1.7h5.5l-5.7 7.6v1.8h7.8v-1.7h-5.8l5.7-7.6zm7.1 7.6 5.7-7.6v-1.8h-7.5v1.7h5.5l-5.8 7.6v1.8h7.8v-1.7h-5.7z"/>
</svg>
