<svg width="180" height="54" fill="none" xmlns="http://www.w3.org/2000/svg">
  <path d="M173.33 54H6.67A6.73 6.73 0 0 1 0 47.25V6.75C0 3.04 3 0 6.67 0h166.66A6.73 6.73 0 0 1 180 6.75v40.5c0 3.71-3 6.75-6.67 6.75Z" fill="#000"/>
  <path d="m27.63 26.22-14.2 15.26a3.84 3.84 0 0 0 5.65 2.35l.05-.03 15.97-9.33-7.48-8.25Z" fill="#EA4335"/>
  <path d="m41.98 23.63-.01-.02-6.9-4.05-7.77 7 7.8 7.9 6.86-4a3.89 3.89 0 0 0 2.02-3.43c0-1.47-.8-2.75-2-3.4Z" fill="#FBBC04"/>
  <path d="M13.43 12.52a3.7 3.7 0 0 0-.13 1v26.96c0 .35.04.68.13 1L28.1 26.62l-14.68-14.1Z" fill="#4285F4"/>
  <path d="m27.73 27 7.34-7.44-15.96-9.37a3.85 3.85 0 0 0-5.69 2.33L27.73 27Z" fill="#34A853"/>
  <path d="M142.58 40h2.49V23.33h-2.49V40ZM165 29.34l-2.85 7.22h-.09l-2.96-7.22h-2.68l4.44 10.1-2.53 5.61h2.6l6.84-15.71H165Zm-14.1 8.77c-.82 0-1.96-.41-1.96-1.42 0-1.29 1.41-1.78 2.64-1.78 1.1 0 1.6.24 2.27.56a3.02 3.02 0 0 1-2.96 2.64Zm.3-9.14c-1.81 0-3.68.8-4.45 2.55l2.21.93c.47-.93 1.35-1.23 2.27-1.23 1.3 0 2.6.78 2.62 2.15v.17a5.5 5.5 0 0 0-2.6-.64c-2.38 0-4.8 1.3-4.8 3.75 0 2.23 1.95 3.67 4.14 3.67a3.5 3.5 0 0 0 3.17-1.63h.09v1.28h2.4v-6.39c0-2.96-2.2-4.6-5.06-4.6Zm-15.38 2.4h-3.54v-5.72h3.53a2.89 2.89 0 0 1 2.92 2.86 2.9 2.9 0 0 1-2.91 2.86Zm-.07-8.04h-5.96V40h2.49v-6.32h3.47c2.76 0 5.47-2 5.47-5.17 0-3.18-2.71-5.18-5.47-5.18Zm-32.5 14.78c-1.72 0-3.16-1.44-3.16-3.42 0-2 1.44-3.45 3.15-3.45 1.7 0 3.03 1.46 3.03 3.45 0 1.98-1.33 3.42-3.03 3.42Zm2.85-7.84h-.1a3.93 3.93 0 0 0-2.98-1.27 5.64 5.64 0 0 0-5.44 5.7c0 3.17 2.6 5.64 5.44 5.64 1.35 0 2.43-.6 2.98-1.28h.09v.81c0 2.17-1.16 3.33-3.03 3.33a3.14 3.14 0 0 1-2.86-2.02l-2.17.9a5.4 5.4 0 0 0 5.03 3.35c2.92 0 5.4-1.71 5.4-5.9V29.35h-2.37v.92Zm4.08 9.73h2.5V23.33h-2.5V40Zm6.17-5.5a3.11 3.11 0 0 1 2.96-3.3c.99 0 1.83.49 2.1 1.2l-5.06 2.1Zm7.73-1.89c-.47-1.27-1.91-3.6-4.85-3.6-2.93 0-5.35 2.29-5.35 5.66 0 3.18 2.4 5.67 5.62 5.67 2.6 0 4.1-1.59 4.73-2.5l-1.93-1.3a3.24 3.24 0 0 1-2.8 1.57 2.89 2.89 0 0 1-2.75-1.72l7.59-3.13-.26-.65Zm-60.41-1.87v2.4h5.76a5.02 5.02 0 0 1-1.32 3.04 5.9 5.9 0 0 1-4.44 1.76 6.32 6.32 0 0 1-6.32-6.4A6.32 6.32 0 0 1 68 26.85l1.7-1.7a8.4 8.4 0 0 0-6.04-2.42 8.93 8.93 0 0 0-8.94 8.8 8.93 8.93 0 0 0 8.94 8.81c2.62 0 4.6-.86 6.14-2.47 1.6-1.59 2.09-3.82 2.09-5.62a7.8 7.8 0 0 0-.13-1.5h-8.1Zm14.77 7.37c-1.72 0-3.2-1.42-3.2-3.44 0-2.04 1.48-3.43 3.2-3.43 1.72 0 3.2 1.4 3.2 3.43 0 2.02-1.48 3.44-3.2 3.44Zm0-9.1a5.59 5.59 0 0 0-5.7 5.66 5.6 5.6 0 0 0 5.7 5.67 5.6 5.6 0 0 0 5.7-5.67 5.59 5.59 0 0 0-5.7-5.67Zm12.42 9.1c-1.72 0-3.2-1.42-3.2-3.44 0-2.04 1.48-3.43 3.2-3.43 1.72 0 3.2 1.4 3.2 3.43 0 2.02-1.48 3.44-3.2 3.44Zm0-9.1a5.59 5.59 0 0 0-5.7 5.66 5.6 5.6 0 0 0 5.7 5.67 5.6 5.6 0 0 0 5.69-5.67 5.59 5.59 0 0 0-5.7-5.67ZM56.23 13.1h1.72a1.4 1.4 0 0 0 1.43-1.4c0-.34-.13-.66-.39-.95-.26-.29-.6-.43-1.04-.43h-1.72v2.79Zm0 4.23H55.2v-8h2.73c.68 0 1.26.23 1.76.68.5.45.74 1.02.74 1.7a2.2 2.2 0 0 1-.74 1.7 2.5 2.5 0 0 1-1.76.68h-1.7v3.24Z" fill="#fff"/>
  <path d="M56.23 13.1v.14h1.72c.46 0 .86-.16 1.14-.48.28-.3.43-.66.43-1.05 0-.38-.15-.74-.43-1.05a1.46 1.46 0 0 0-1.14-.48H56.1v3.06h.13v-.13h.13v-2.66h1.6c.4 0 .7.13.93.4.24.26.36.55.36.86 0 .32-.12.6-.36.88-.23.26-.53.38-.94.39h-1.72v.13Zm0 4.23v-.13h-.9V9.47h2.6c.65 0 1.2.2 1.67.64.47.43.7.95.7 1.6 0 .66-.23 1.18-.7 1.6a2.4 2.4 0 0 1-1.67.65H56.1v3.37h.26v-3.1h1.57c.7 0 1.33-.24 1.85-.71.52-.48.79-1.09.79-1.8 0-.72-.27-1.34-.8-1.81a2.66 2.66 0 0 0-1.84-.71h-2.86v8.27h1.3v-.14h-.14Zm6.93-1.7c.6.6 1.32.9 2.18.9.85 0 1.58-.3 2.17-.9.6-.6.89-1.37.89-2.3 0-.93-.3-1.7-.89-2.3-.59-.6-1.32-.9-2.17-.9-.86 0-1.58.3-2.18.9-.59.6-.88 1.37-.88 2.3 0 .93.3 1.7.88 2.3Zm5.11.67a3.92 3.92 0 0 1-2.93 1.21 4.1 4.1 0 0 1-4.11-4.18 4.09 4.09 0 0 1 4.1-4.18 4.1 4.1 0 0 1 4.11 4.18 4.1 4.1 0 0 1-1.17 2.97Z" fill="#fff"/>
  <path d="m63.16 15.63-.09.1c.61.62 1.38.93 2.27.93.89 0 1.65-.31 2.27-.94.61-.62.92-1.43.92-2.39 0-.96-.3-1.76-.92-2.39a3.07 3.07 0 0 0-2.27-.94c-.89 0-1.66.32-2.27.94a3.27 3.27 0 0 0-.93 2.4c0 .95.31 1.76.93 2.38l.1-.09.09-.1a3 3 0 0 1-.85-2.2 3 3 0 0 1 .85-2.2 2.8 2.8 0 0 1 2.08-.86c.82 0 1.5.29 2.08.86a3 3 0 0 1 .85 2.2 3 3 0 0 1-.85 2.2 2.8 2.8 0 0 1-2.08.87 2.8 2.8 0 0 1-2.08-.86l-.1.09Zm5.11.67-.1-.1a3.8 3.8 0 0 1-2.83 1.18 3.96 3.96 0 0 1-3.98-4.05 3.96 3.96 0 0 1 3.98-4.04c1.13 0 2.06.39 2.83 1.18a3.96 3.96 0 0 1 1.15 2.86c0 1.14-.38 2.1-1.14 2.88l.1.09.09.1a4.23 4.23 0 0 0 1.21-3.07 4.23 4.23 0 0 0-4.24-4.3 4.23 4.23 0 0 0-4.24 4.31 4.23 4.23 0 0 0 4.24 4.3c1.2 0 2.22-.41 3.03-1.25l-.1-.1Zm3.65.05h2.07c.4 0 .71-.14.96-.41.24-.28.37-.58.37-.9 0-.34-.13-.64-.38-.9a1.3 1.3 0 0 0-1-.42h-2.02v2.63Zm0-3.59h1.86c.4 0 .7-.12.94-.38.23-.26.35-.54.35-.85 0-.3-.11-.58-.34-.83a1.15 1.15 0 0 0-.9-.38h-1.91v2.44Zm-1.03 4.57v-8h2.9c.62 0 1.16.21 1.62.62.46.42.69.94.69 1.56a1.84 1.84 0 0 1-1.09 1.67v.04c.4.14.72.37.98.7.25.32.38.7.38 1.13 0 .66-.24 1.2-.72 1.63-.49.44-1.05.65-1.7.65h-3.06Z" fill="#fff"/>
  <path d="M71.92 16.35v.13h2.07c.42 0 .79-.15 1.06-.46.26-.29.4-.63.4-.99s-.14-.7-.42-.99c-.27-.3-.65-.45-1.09-.45H71.8v2.9h.13v-.14h.13v-2.5h1.9c.37 0 .66.13.89.37.23.26.34.52.34.81 0 .3-.1.56-.33.82-.23.25-.5.37-.86.37h-2.07v.13Zm0-3.59v.14h1.86a1.38 1.38 0 0 0 1.42-1.37c0-.33-.13-.65-.37-.92-.25-.29-.6-.43-1-.43h-2.04v2.72h.13v-.14h.13v-2.31h1.78a1 1 0 0 1 .8.34c.21.23.3.47.3.74s-.1.52-.31.76c-.21.23-.48.34-.84.34h-1.86v.13Zm-1.03 4.57h.13V9.47h2.76c.6 0 1.1.19 1.54.58.43.4.64.87.65 1.46a1.7 1.7 0 0 1-1.01 1.55l-.08.03v.23l.1.03c.36.12.66.34.9.65.24.3.35.65.35 1.05 0 .63-.22 1.13-.67 1.54-.46.4-1 .6-1.62.61H70.9v.27h3.05c.69 0 1.3-.23 1.8-.69a2.25 2.25 0 0 0 .36-2.95c-.28-.34-.63-.6-1.04-.73l-.05.12h.14v-.04H75l.06.12c.35-.16.63-.4.84-.7a2.18 2.18 0 0 0-.41-2.75 2.48 2.48 0 0 0-1.72-.65h-3.02v8.27h.13v-.14Zm6.86 0v-8h1.03v8h-1.03Z" fill="#fff"/>
  <path d="M77.75 17.33h.14V9.47h.76v7.73h-.9v.27h1.16V9.2h-1.3v8.27h.14v-.14Zm7.53-7.01h-3.64v2.53h3.28v.96h-3.28v2.54h3.64v.98h-4.67v-8h4.67v.99Z" fill="#fff"/>
  <path d="M85.28 10.32v-.14h-3.77v2.8h3.28v.7h-3.28v2.8h3.64v.72h-4.4V9.47h4.4v.85h.27V9.2h-4.94v8.27h4.94v-1.25h-3.65v-2.27h3.29v-1.23h-3.29v-2.27h3.65v-.13h-.14Zm2.64 2.81h1.65c.41 0 .76-.13 1.06-.4.3-.27.44-.6.44-1.02 0-.35-.13-.67-.39-.96-.26-.29-.6-.43-1.04-.43h-1.72v2.81Zm-1.03 4.2v-8h2.73c.67 0 1.26.23 1.76.68.5.45.74 1.02.74 1.7 0 .56-.18 1.06-.55 1.48-.36.43-.82.7-1.36.81l-.02.04 2.24 3.25v.04h-1.21l-2.16-3.24h-1.14v3.24h-1.03Z" fill="#fff"/>
  <path d="M87.92 13.13v.14h1.65c.44 0 .83-.15 1.15-.44a1.54 1.54 0 0 0 .06-2.17 1.46 1.46 0 0 0-1.14-.48h-1.85v3.09h.13v-.14h.13v-2.68h1.59c.4 0 .7.13.94.4.24.26.36.55.36.86 0 .38-.13.68-.4.92-.27.25-.59.37-.97.37h-1.65v.13Zm-1.03 4.2h.13V9.47h2.6c.65 0 1.2.2 1.67.64.47.43.7.95.7 1.6a2.25 2.25 0 0 1-1.8 2.16l-.06.01-.1.16 2.27 3.3h.13v-.14H91.3l-2.16-3.24H87.8v3.24h-.9v.27h1.16v-3.24H89l2.15 3.24h1.43v-.22l-2.27-3.29-.11.08.1.07.03-.03-.11-.08.03.13a2.5 2.5 0 0 0 2.01-2.42c0-.71-.26-1.33-.78-1.8a2.66 2.66 0 0 0-1.85-.71h-2.86v8.27h.13v-.14Zm6.24 0v-1.07l4.25-5.94H93.3v-.99h5.28v1.08l-4.26 5.94h4.3v.98h-5.5Z" fill="#fff"/>
  <path d="M93.13 17.33h.13V16.3l4.38-6.12h-4.2v-.71h5v.9l-4.38 6.11h4.43v.72h-5.36v.27h5.63v-1.25h-4.18l4.13-5.77V9.2h-5.54v1.25h3.95L93 16.22v1.25h.14v-.14Zm9.2 0v-1.07l4.26-5.94h-4.08v-.99h5.28v1.08l-4.26 5.94h4.3v.98h-5.5Z" fill="#fff"/>
  <path d="M102.33 17.33h.14V16.3l4.38-6.12h-4.2v-.71h5v.9l-4.38 6.11h4.43v.72h-5.37v.27h5.63v-1.25h-4.17l4.13-5.77V9.2h-5.54v1.25h3.95l-4.13 5.77v1.25h.13v-.14Z" fill="#fff"/>
</svg>
