<svg width="180" height="54" fill="none" xmlns="http://www.w3.org/2000/svg">
  <path d="M173.33 54H6.67A6.73 6.73 0 0 1 0 47.25V6.75C0 3.04 3 0 6.67 0h166.66A6.73 6.73 0 0 1 180 6.75v40.5c0 3.71-3 6.75-6.67 6.75Z" fill="#000"/>
  <path d="m27.63 26.22-14.2 15.26a3.84 3.84 0 0 0 5.65 2.35l.05-.03 15.97-9.33-7.48-8.25Z" fill="#EA4335"/>
  <path d="m41.98 23.63-.01-.02-6.9-4.05-7.77 7 7.8 7.9 6.86-4a3.89 3.89 0 0 0 2.02-3.43c0-1.47-.8-2.75-2-3.4Z" fill="#FBBC04"/>
  <path d="M13.43 12.52a3.7 3.7 0 0 0-.13 1v26.96c0 .35.04.68.13 1L28.1 26.62l-14.68-14.1Z" fill="#4285F4"/>
  <path d="m27.73 27 7.34-7.44-15.96-9.37a3.85 3.85 0 0 0-5.69 2.33L27.73 27Z" fill="#34A853"/>
  <path d="M142.58 40h2.49V23.33h-2.49V40ZM165 29.34l-2.85 7.22h-.09l-2.96-7.22h-2.68l4.44 10.1-2.53 5.61h2.6l6.84-15.71H165Zm-14.1 8.77c-.82 0-1.96-.41-1.96-1.42 0-1.29 1.41-1.78 2.64-1.78 1.1 0 1.6.24 2.27.56a3.02 3.02 0 0 1-2.96 2.64Zm.3-9.14c-1.81 0-3.68.8-4.45 2.55l2.21.93c.47-.93 1.35-1.23 2.27-1.23 1.3 0 2.6.78 2.62 2.15v.17a5.5 5.5 0 0 0-2.6-.64c-2.38 0-4.8 1.3-4.8 3.75 0 2.23 1.95 3.67 4.14 3.67a3.5 3.5 0 0 0 3.17-1.63h.09v1.28h2.4v-6.39c0-2.96-2.2-4.6-5.06-4.6Zm-15.38 2.4h-3.54v-5.72h3.53a2.89 2.89 0 0 1 2.92 2.86 2.9 2.9 0 0 1-2.91 2.86Zm-.07-8.04h-5.96V40h2.49v-6.32h3.47c2.76 0 5.47-2 5.47-5.17 0-3.18-2.71-5.18-5.47-5.18Zm-32.5 14.78c-1.72 0-3.16-1.44-3.16-3.42 0-2 1.44-3.45 3.15-3.45 1.7 0 3.03 1.46 3.03 3.45 0 1.98-1.33 3.42-3.03 3.42Zm2.85-7.84h-.1a3.93 3.93 0 0 0-2.98-1.27 5.64 5.64 0 0 0-5.44 5.7c0 3.17 2.6 5.64 5.44 5.64 1.35 0 2.43-.6 2.98-1.28h.09v.81c0 2.17-1.16 3.33-3.03 3.33a3.14 3.14 0 0 1-2.86-2.02l-2.17.9a5.4 5.4 0 0 0 5.03 3.35c2.92 0 5.4-1.71 5.4-5.9V29.35h-2.37v.92Zm4.08 9.73h2.5V23.33h-2.5V40Zm6.17-5.5a3.11 3.11 0 0 1 2.96-3.3c.99 0 1.83.49 2.1 1.2l-5.06 2.1Zm7.73-1.89c-.47-1.27-1.91-3.6-4.85-3.6-2.93 0-5.35 2.29-5.35 5.66 0 3.18 2.4 5.67 5.62 5.67 2.6 0 4.1-1.59 4.73-2.5l-1.93-1.3a3.24 3.24 0 0 1-2.8 1.57 2.89 2.89 0 0 1-2.75-1.72l7.59-3.13-.26-.65Zm-60.41-1.87v2.4h5.76a5.02 5.02 0 0 1-1.32 3.04 5.9 5.9 0 0 1-4.44 1.76 6.32 6.32 0 0 1-6.32-6.4A6.32 6.32 0 0 1 68 26.85l1.7-1.7a8.4 8.4 0 0 0-6.04-2.42 8.93 8.93 0 0 0-8.94 8.8 8.93 8.93 0 0 0 8.94 8.81c2.62 0 4.6-.86 6.14-2.47 1.6-1.59 2.09-3.82 2.09-5.62a7.8 7.8 0 0 0-.13-1.5h-8.1Zm14.77 7.37c-1.72 0-3.2-1.42-3.2-3.44 0-2.04 1.48-3.43 3.2-3.43 1.72 0 3.2 1.4 3.2 3.43 0 2.02-1.48 3.44-3.2 3.44Zm0-9.1a5.59 5.59 0 0 0-5.7 5.66 5.6 5.6 0 0 0 5.7 5.67 5.6 5.6 0 0 0 5.7-5.67 5.59 5.59 0 0 0-5.7-5.67Zm12.42 9.1c-1.72 0-3.2-1.42-3.2-3.44 0-2.04 1.48-3.43 3.2-3.43 1.72 0 3.2 1.4 3.2 3.43 0 2.02-1.48 3.44-3.2 3.44Zm0-9.1a5.59 5.59 0 0 0-5.7 5.66 5.6 5.6 0 0 0 5.7 5.67 5.6 5.6 0 0 0 5.69-5.67 5.59 5.59 0 0 0-5.7-5.67ZM56.14 16.35h1.42a3 3 0 0 0 2.2-.8c.54-.52.8-1.26.8-2.22 0-.94-.26-1.68-.8-2.21a3 3 0 0 0-2.2-.8h-1.42v6.03Zm-1.02.98v-8h2.44c1.23 0 2.22.37 2.95 1.12a3.9 3.9 0 0 1 1.11 2.88c0 1.19-.37 2.15-1.1 2.9a3.98 3.98 0 0 1-2.96 1.1h-2.44Z" fill="#fff"/>
  <path d="M56.14 16.35v.13h1.42c.95 0 1.72-.27 2.3-.83a3.1 3.1 0 0 0 .84-2.32 3.1 3.1 0 0 0-.85-2.31 3.13 3.13 0 0 0-2.29-.84h-1.55v6.3h.13v-.13h.14v-5.9h1.28c.9 0 1.6.26 2.1.76.52.5.77 1.2.78 2.12 0 .93-.26 1.63-.77 2.13-.52.5-1.2.76-2.1.76h-1.43v.13Zm-1.02.98h.13V9.47h2.31c1.2 0 2.15.36 2.86 1.07a3.78 3.78 0 0 1 1.07 2.8 3.8 3.8 0 0 1-1.07 2.79 3.84 3.84 0 0 1-2.86 1.07h-2.44v.27h2.44c1.26 0 2.28-.39 3.05-1.15a4.05 4.05 0 0 0 1.14-2.99c0-1.2-.38-2.21-1.14-2.98a4.11 4.11 0 0 0-3.05-1.15h-2.58v8.27h.14v-.14Zm7.94 0v-8h1.03v8h-1.03Z" fill="#fff"/>
  <path d="M63.06 17.33h.14V9.47h.76v7.73h-.9v.27h1.16V9.2h-1.3v8.27h.14v-.14Zm5.12.18c-.58 0-1.15-.19-1.7-.57a2.64 2.64 0 0 1-1.1-1.6l.94-.38c.12.44.34.81.69 1.12a1.87 1.87 0 0 0 2.31.1c.32-.24.48-.56.48-.96 0-.45-.16-.79-.48-1.03a4.91 4.91 0 0 0-1.5-.68 4.01 4.01 0 0 1-1.6-.86 1.8 1.8 0 0 1-.56-1.36c0-.58.23-1.07.69-1.5a2.5 2.5 0 0 1 1.77-.64c.68 0 1.23.17 1.66.51.42.34.7.71.82 1.11l-.93.4a1.4 1.4 0 0 0-.5-.7c-.27-.22-.6-.33-1.03-.33-.39 0-.73.1-1 .33a1 1 0 0 0-.43.82c0 .3.13.55.4.75.25.2.63.4 1.12.56.4.12.73.25 1 .36.26.12.53.28.8.48.27.2.47.44.61.74s.2.63.2 1.02-.07.73-.23 1.04c-.16.3-.37.55-.64.72a3.15 3.15 0 0 1-1.8.55Z" fill="#fff"/>
  <path d="M68.18 17.51v-.13c-.55 0-1.1-.18-1.63-.55a2.5 2.5 0 0 1-1.04-1.52l-.12.03.05.13.93-.38-.05-.13-.12.04c.11.46.36.86.72 1.18.37.32.8.48 1.26.48a2 2 0 0 0 1.22-.38c.35-.25.53-.62.53-1.06 0-.48-.17-.87-.52-1.14a5.03 5.03 0 0 0-1.55-.7c-.7-.21-1.21-.5-1.55-.83a1.67 1.67 0 0 1-.51-1.26c0-.54.2-1 .64-1.4.43-.4.98-.6 1.68-.6a2.4 2.4 0 0 1 2.36 1.52l.12-.04-.05-.12-.94.4.06.12.12-.04a1.52 1.52 0 0 0-.54-.77 1.7 1.7 0 0 0-1.1-.36c-.42 0-.8.12-1.1.36-.3.24-.47.56-.47.93 0 .34.16.63.44.86.27.22.66.4 1.17.57.4.13.72.25.98.37.25.11.51.26.78.46.25.18.44.4.57.68.13.28.2.6.2.97s-.08.7-.23.98c-.15.28-.35.5-.6.67a3.02 3.02 0 0 1-1.71.53v.27a3.34 3.34 0 0 0 1.87-.57c.28-.2.5-.46.68-.78.17-.33.25-.7.25-1.1 0-.4-.07-.76-.22-1.08a2.03 2.03 0 0 0-.65-.79 5.61 5.61 0 0 0-1.83-.86 3.58 3.58 0 0 1-1.1-.53.8.8 0 0 1-.33-.65c0-.29.11-.52.37-.72.25-.2.55-.3.92-.3.4 0 .7.1.94.3.25.2.4.41.46.63l.04.15 1.19-.5-.04-.12a2.49 2.49 0 0 0-.87-1.17 2.7 2.7 0 0 0-1.74-.54c-.75 0-1.38.22-1.86.67-.48.45-.73.99-.73 1.6 0 .58.2 1.07.59 1.45.39.38.94.67 1.66.9.68.2 1.17.43 1.46.65.29.22.42.52.42.93 0 .37-.13.64-.42.85-.29.22-.64.32-1.06.33-.4 0-.75-.14-1.08-.42a2 2 0 0 1-.65-1.05l-.03-.15-1.08.44-.11.04.03.12c.17.71.56 1.28 1.14 1.67.57.4 1.17.6 1.78.6v-.14Zm5.17-4.41h1.72c.44 0 .78-.14 1.04-.43s.4-.6.4-.96c0-.35-.14-.67-.4-.96-.26-.29-.6-.43-1.04-.43h-1.72v2.79Zm0 4.23h-1.03v-8h2.73c.68 0 1.27.23 1.76.68.5.45.74 1.02.74 1.7a2.2 2.2 0 0 1-.74 1.7 2.5 2.5 0 0 1-1.76.68h-1.7v3.24Z" fill="#fff"/>
  <path d="M73.35 13.1v.14h1.72c.46 0 .86-.16 1.14-.48.28-.3.43-.66.43-1.05 0-.38-.15-.74-.43-1.05a1.46 1.46 0 0 0-1.14-.48h-1.85v3.06h.13v-.13h.13v-2.66h1.6c.4 0 .7.13.93.4.24.26.36.55.36.86 0 .32-.11.6-.36.88-.23.26-.53.38-.94.39h-1.72v.13Zm0 4.23v-.13h-.9V9.47h2.6c.65 0 1.2.2 1.67.64.47.43.7.95.7 1.6 0 .66-.23 1.18-.7 1.6-.47.44-1.02.65-1.67.65h-1.83v3.37h.26v-3.1h1.57c.7 0 1.33-.24 1.85-.71.52-.48.79-1.09.79-1.8 0-.72-.27-1.34-.79-1.81a2.66 2.66 0 0 0-1.85-.71H72.2v8.27h1.3v-.14h-.14Zm6.93-1.7c.6.6 1.32.9 2.18.9.85 0 1.58-.3 2.17-.9.6-.6.89-1.37.89-2.3 0-.93-.3-1.7-.89-2.3-.6-.6-1.32-.9-2.17-.9-.86 0-1.58.3-2.18.9-.59.6-.88 1.37-.88 2.3 0 .93.3 1.7.88 2.3Zm5.11.67a3.93 3.93 0 0 1-2.93 1.21 4.09 4.09 0 0 1-4.11-4.18 4.09 4.09 0 0 1 4.1-4.18 4.1 4.1 0 0 1 4.11 4.18 4.1 4.1 0 0 1-1.17 2.97Z" fill="#fff"/>
  <path d="m80.28 15.63-.1.1c.62.62 1.39.93 2.28.93.88 0 1.65-.31 2.27-.94.61-.62.92-1.43.92-2.39 0-.96-.3-1.76-.92-2.39a3.07 3.07 0 0 0-2.27-.94c-.9 0-1.66.32-2.27.94a3.27 3.27 0 0 0-.93 2.4c0 .95.31 1.76.93 2.38l.1-.09.09-.1a3 3 0 0 1-.85-2.2 3 3 0 0 1 .85-2.2 2.8 2.8 0 0 1 2.08-.86c.82 0 1.5.29 2.08.86a3 3 0 0 1 .85 2.2 3 3 0 0 1-.85 2.2 2.8 2.8 0 0 1-2.08.87 2.8 2.8 0 0 1-2.08-.86l-.1.09Zm5.11.67-.1-.1a3.8 3.8 0 0 1-2.83 1.18 3.96 3.96 0 0 1-3.98-4.05 3.96 3.96 0 0 1 3.98-4.04c1.13 0 2.06.39 2.83 1.18a3.96 3.96 0 0 1 1.15 2.86c0 1.14-.38 2.1-1.14 2.88l.1.09.09.1a4.23 4.23 0 0 0 1.21-3.07 4.23 4.23 0 0 0-4.24-4.3 4.23 4.23 0 0 0-4.24 4.31 4.23 4.23 0 0 0 4.24 4.3c1.2 0 2.22-.41 3.03-1.25l-.1-.1Zm2.62 1.03v-8h1.25l3.9 6.23h.04l-.05-1.54V9.33h1.03v8h-1.07l-4.07-6.52h-.05l.05 1.54v4.98H88Z" fill="#fff"/>
  <path d="M88.01 17.33h.14V9.47h1.04l3.89 6.22h.25l-.05-1.68V9.47h.77v7.73h-.87l-4.07-6.53h-.25l.05 1.68v4.85H88v.27h1.16v-5.12l-.04-1.55h-.14v.14h.05v-.13l-.11.07 4.1 6.59h1.28V9.2H93v4.82l.05 1.54h.14v-.14h-.05v.14l.11-.07-3.92-6.29h-1.46v8.27H88v-.14Zm8.96-8.63h-.9l.59-1.42h1.12l-.8 1.43Zm-.96 8.63v-8h1.03v8H96Z" fill="#fff"/>
  <path d="M96.97 8.7v-.13h-.7l.48-1.16h.8l-.7 1.23.12.07.12.06.92-1.63h-1.44l-.69 1.7h1.17l.04-.07-.12-.06Zm-.96 8.63h.14V9.47h.76v7.73H96v.27h1.16V9.2h-1.3v8.27H96v-.14Zm4.84 0-2.82-8h1.14l2.2 6.5h.04l2.28-6.5h1.14l-2.9 8h-1.08Z" fill="#fff"/>
  <path d="m100.85 17.33.13-.04-2.76-7.82h.86l2.19 6.49h.23l2.28-6.5h.86l-2.81 7.74h-.98v.27h1.17l3-8.27h-1.43l-2.3 6.58.12.04v-.13h-.05v.13l.13-.04-2.22-6.58h-1.42l2.9 8.27h.1v-.14Zm9.81-7.01h-3.64v2.53h3.28v.96h-3.28v2.54h3.64v.98h-4.67v-8h4.67v.99Z" fill="#fff"/>
  <path d="M110.66 10.32v-.14h-3.78v2.8h3.29v.7h-3.29v2.8h3.65v.72h-4.4V9.47h4.4v.85h.26V9.2h-4.93v8.27h4.93v-1.25h-3.64v-2.27h3.28v-1.23h-3.28v-2.27h3.64v-.13h-.13Zm1.61 7.01v-8h1.03v7.02h3.46v.98h-4.5Z" fill="#fff"/>
  <path d="M112.27 17.33h.13V9.47h.76v7.01h3.47v.72h-4.36v.27h4.62v-1.25h-3.46V9.2h-1.3v8.27h.14v-.14Zm8.47 0v-8h1.25l3.89 6.23h.04l-.04-1.54V9.33h1.03v8h-1.08l-4.06-6.52h-.05l.05 1.54v4.98h-1.03Z" fill="#fff"/>
  <path d="M120.74 17.33h.13V9.47h1.05l3.88 6.22h.26l-.05-1.68V9.47h.76v7.73h-.86l-4.07-6.53h-.26l.05 1.68v4.85h-.9v.27h1.17v-5.12l-.05-1.55h-.13v.14h.05v-.13l-.12.07 4.1 6.59h1.29V9.2h-1.3v4.82l.05 1.54h.13v-.14h-.04v.14l.11-.07-3.93-6.29h-1.45v8.27h.13v-.14Zm9.43-1.7c.6.6 1.32.9 2.18.9.85 0 1.58-.3 2.17-.9.6-.6.89-1.37.89-2.3 0-.93-.3-1.7-.9-2.3-.58-.6-1.3-.9-2.16-.9-.86 0-1.59.3-2.18.9-.59.6-.89 1.37-.89 2.3 0 .93.3 1.7.9 2.3Zm5.1.67a3.93 3.93 0 0 1-2.93 1.21 4.1 4.1 0 0 1-4.11-4.18 4.1 4.1 0 0 1 4.12-4.18c1.16 0 2.13.41 2.92 1.22.8.81 1.19 1.8 1.19 2.96a4.1 4.1 0 0 1-1.18 2.97Z" fill="#fff"/>
  <path d="m130.17 15.63-.1.1c.62.62 1.39.93 2.28.93.88 0 1.65-.31 2.26-.94.62-.62.93-1.43.93-2.39 0-.96-.3-1.76-.93-2.39a3.07 3.07 0 0 0-2.27-.94c-.88 0-1.65.32-2.26.94a3.27 3.27 0 0 0-.93 2.4c0 .95.31 1.76.93 2.38l.1-.09.09-.1a3 3 0 0 1-.85-2.2 3 3 0 0 1 .85-2.2 2.8 2.8 0 0 1 2.07-.86c.83 0 1.51.29 2.08.86a3 3 0 0 1 .86 2.2 3 3 0 0 1-.86 2.2 2.8 2.8 0 0 1-2.07.87 2.8 2.8 0 0 1-2.08-.86l-.1.09Zm5.1.67-.09-.1a3.8 3.8 0 0 1-2.84 1.18 3.96 3.96 0 0 1-3.98-4.05 3.95 3.95 0 0 1 3.99-4.04c1.13 0 2.06.39 2.83 1.18a3.95 3.95 0 0 1 1.14 2.86c0 1.14-.38 2.1-1.14 2.88l.1.09.1.1a4.23 4.23 0 0 0 1.21-3.07 4.23 4.23 0 0 0-4.25-4.3 4.23 4.23 0 0 0-4.24 4.31 4.23 4.23 0 0 0 4.25 4.3c1.2 0 2.22-.41 3.03-1.25l-.1-.1Z" fill="#fff"/>
</svg>
