<svg width="270" height="80" fill="none" xmlns="http://www.w3.org/2000/svg">
  <g clip-path="url(#a)">
    <mask id="b" style="mask-type:luminance" maskUnits="userSpaceOnUse" x="-21" y="-20" width="311" height="121">
      <path d="M-20-20h310v120H-20V-20Z" fill="#fff"/>
    </mask>
    <g mask="url(#b)">
      <path d="M260 80H10A10 10 0 0 1 0 70V10A10 10 0 0 1 10 0h250a10 10 0 0 1 10 10v60a10 10 0 0 1-10 10Z" fill="#000"/>
    </g>
    <mask id="c" style="mask-type:luminance" maskUnits="userSpaceOnUse" x="-21" y="-20" width="311" height="121">
      <path d="M-20-20h310v120H-20V-20Z" fill="#fff"/>
    </mask>
    <g mask="url(#c)">
      <path d="M213.9 60h3.7V35h-3.7v25Zm33.6-16-4.3 10.8h-.1L238.6 44h-4l6.7 15.2-3.8 8.4h3.9L251.6 44h-4.1Zm-21.2 13.2c-1.2 0-3-.6-3-2.2 0-1.9 2.2-2.6 4-2.6 1.7 0 2.5.3 3.5.8-.3 2.3-2.3 4-4.5 4Zm.5-13.7c-2.7 0-5.5 1.2-6.7 3.8l3.3 1.4c.7-1.4 2-1.9 3.4-1.9 2 0 4 1.2 4 3.3v.2c-.7-.4-2.2-1-4-1-3.5 0-7.1 2-7.1 5.7 0 3.3 2.9 5.5 6.2 5.5 2.5 0 3.9-1.1 4.7-2.5h.2v2h3.6v-9.6c0-4.5-3.3-7-7.6-7Zm-23 3.6h-5.4v-8.6h5.3c2.8 0 4.4 2.3 4.4 4.3 0 1.9-1.6 4.3-4.4 4.3Zm-.2-12.1h-9v25h3.8v-9.5h5.2c4.1 0 8.2-3 8.2-7.7 0-4.8-4-7.8-8.2-7.8Zm-48.8 22.2c-2.5 0-4.7-2.2-4.7-5.2s2.2-5.1 4.8-5.1c2.5 0 4.5 2.1 4.5 5.1 0 3-2 5.2-4.6 5.2Zm4.3-11.8c-1-1-2.5-1.9-4.6-1.9a8.5 8.5 0 0 0-8.1 8.5c0 4.8 3.9 8.5 8.1 8.5 2 0 3.7-.9 4.5-2h.1v1.3c0 3.3-1.7 5-4.5 5a4.7 4.7 0 0 1-4.3-3l-3.2 1.3a8 8 0 0 0 7.5 5c4.4 0 8-2.5 8-8.8V44h-3.5v1.4Zm6.2 14.6h3.7V35h-3.7v25Zm9.2-8.2c0-3.3 2.6-5 4.4-5 1.5 0 2.8.7 3.2 1.8l-7.6 3.2Zm11.6-2.9c-.7-1.9-2.9-5.4-7.3-5.4s-8 3.5-8 8.5c0 4.8 3.6 8.5 8.4 8.5 4 0 6.2-2.4 7.1-3.8l-2.9-1.9a4.9 4.9 0 0 1-4.2 2.4c-1.9 0-3.2-.9-4-2.6l11.3-4.7-.4-1Zm-90.6-2.8v3.6h8.6c-.2 2-1 3.5-2 4.6a8.8 8.8 0 0 1-6.6 2.6 9.5 9.5 0 0 1-9.5-9.6 9.5 9.5 0 0 1 16-7l2.5-2.6c-2.1-2-5-3.6-9-3.6-7.3 0-13.4 6-13.4 13.2 0 7.3 6.1 13.2 13.4 13.2 4 0 6.9-1.3 9.2-3.7a12 12 0 0 0 3.1-8.4c0-.9 0-1.6-.2-2.3H95.5Zm22.1 11c-2.5 0-4.8-2-4.8-5 0-3.1 2.3-5.2 4.8-5.2 2.6 0 4.8 2 4.8 5.1 0 3-2.2 5.2-4.8 5.2Zm0-13.6a8.4 8.4 0 0 0-8.5 8.5c0 5 3.8 8.5 8.5 8.5 4.8 0 8.6-3.6 8.6-8.5 0-5-3.9-8.5-8.6-8.5Zm18.7 13.7c-2.6 0-4.8-2.2-4.8-5.2s2.2-5.1 4.8-5.1c2.5 0 4.8 2 4.8 5.1 0 3-2.3 5.2-4.8 5.2Zm0-13.7a8.4 8.4 0 0 0-8.6 8.5c0 5 3.9 8.5 8.6 8.5 4.7 0 8.5-3.6 8.5-8.5 0-5-3.8-8.5-8.5-8.5Z" fill="#fff"/>
    </g>
    <mask id="d" style="mask-type:luminance" maskUnits="userSpaceOnUse" x="-21" y="-20" width="311" height="121">
      <path d="M-20-20h310v120H-20V-20Z" fill="#fff"/>
    </mask>
    <g mask="url(#d)">
      <path d="M41.4 38.9 20.1 61.5a5.7 5.7 0 0 0 8.5 3.4l24-13.8-11.2-12.2Z" fill="#EA4335"/>
    </g>
    <mask id="e" style="mask-type:luminance" maskUnits="userSpaceOnUse" x="-21" y="-20" width="311" height="121">
      <path d="M-20-20h310v120H-20V-20Z" fill="#fff"/>
    </mask>
    <g mask="url(#e)">
      <path d="m63 35-10.4-6L41 39.4 52.7 51l10.2-6a5.8 5.8 0 0 0 .1-10Z" fill="#FBBC04"/>
    </g>
    <mask id="f" style="mask-type:luminance" maskUnits="userSpaceOnUse" x="-21" y="-20" width="311" height="121">
      <path d="M-20-20h310v120H-20V-20Z" fill="#fff"/>
    </mask>
    <g mask="url(#f)">
      <path d="M20.1 18.6 20 20v40l.2 1.5 22-22-22-21Z" fill="#4285F4"/>
    </g>
    <mask id="g" style="mask-type:luminance" maskUnits="userSpaceOnUse" x="-21" y="-20" width="311" height="121">
      <path d="M-20-20h310v120H-20V-20Z" fill="#fff"/>
    </mask>
    <g mask="url(#g)">
      <path d="m41.6 40 11-11-24-13.9a5.8 5.8 0 0 0-8.5 3.5L41.6 40Z" fill="#34A853"/>
    </g>
    <path d="M87.2 26.3c-.6 0-1.2-.2-1.8-.4l-1.6-1a5 5 0 0 1-1-1.5c-.3-.5-.5-1.1-.5-1.7 0-.6.2-1 .4-1.5a2 2 0 0 1 1.2-.8 4.8 4.8 0 0 1 2.2-.3h.4l-.1 1.5h-.7c-.5 0-1 0-1.2.2-.3.2-.5.6-.5 1s.1.8.3 1.1a3.7 3.7 0 0 0 1.8 1.7 3.1 3.1 0 0 0 1.9.1c.2 0 .4-.1.5-.3l.2-.4.1-1v-6.2h-7.2v-1.4H92v1.4h-1.6v6.4c0 .7-.1 1.3-.4 1.8-.2.4-.6.7-1 1a5 5 0 0 1-1.9.3Zm-.5 3.2c-.8 0-1.5 0-2-.2l-1.5-.6.4-1.4 1.3.6 1.8.2a6 6 0 0 0 3-.8l.5 1.4a7 7 0 0 1-3.5.8Zm11-3.2a6 6 0 0 1-2.6-.5 5 5 0 0 1-1.7-1.4 11 11 0 0 1-1.3-2c.5-.5 1-1 1.3-1.5l1.5-1c.4-.2 1-.3 1.6-.3l.8.1c.3 0 .6.2.8.3l-.7.2 1-2.1 1.3.8-1 2.1-.8.3-.6-.1h-.7c-.5 0-1 0-1.5.4l-1.4 1.3.2-.6c.3.6.7 1 1 1.4.4.4.8.6 1.2.8.4.2 1 .3 1.6.3h1.2l1.2-.4 1.3-.5.6 1.4-2 .7a9 9 0 0 1-2.3.3Zm3.6-5.7a61.2 61.2 0 0 1-4.4-2.4l-2.1-1.8 1.1.4h-4.5v-1.4h11.3v1.4h-6l.2-.4a14.8 14.8 0 0 0 3.3 2l1.8.8-.7 1.4Zm-1.9-5c-.2-1-.5-1.6-.8-2.1A2.9 2.9 0 0 0 96 12h-.5v-1.5h.5a6 6 0 0 1 2.3.5c.7.4 1.2 1 1.7 1.6.4.7.8 1.7 1 2.8h-1.6Zm14.2 10.7v-3l.1.2-1.1.4-1.3.1c-1.1 0-2-.3-2.7-1a7 7 0 0 1-1.8-2.5l.9-1c.2-.3.3-.7.3-1.2v-.8a3 3 0 0 0-.3-.7H106v-1.4h2.8c.3.4.5 1 .6 1.4l.2 1.5a3 3 0 0 1-.4 1.5c-.2.4-.5.8-1 1.1l.2-1c.3 1 .7 1.6 1.1 2 .5.4 1 .6 1.7.6l1.3-.1 1.1-.6v.2-6.6h3.2v1.4h-1.6v9.5h-1.7Zm2.8 4.7a8 8 0 0 0-.8-1.1l-1.2-.8-.7.5a2.7 2.7 0 0 1-2.2-.1c-.3-.2-.5-.5-.5-1 0-.3.2-.6.5-.8.3-.2.7-.2 1.2-.2a3.8 3.8 0 0 1 .9 0v-1.3h1.7v1.2l-.2.5c.5.3 1 .6 1.3 1l1.2 1.3-1.2.8Zm1.2-9.2v-5h-1.4v-1.4h4.5v1.4h-1.5v5h-1.6Zm10 4.5v-3 .2l-1.1.4-1.3.1c-1 0-2-.3-2.7-1a7 7 0 0 1-1.8-2.5c.4-.3.7-.6.9-1 .2-.3.4-.7.4-1.2 0-.2 0-.5-.2-.8l-.2-.7H120v-1.4h2.8c.3.4.5 1 .6 1.4.2.5.2 1 .2 1.5a3 3 0 0 1-.3 1.5l-1 1.1.1-1c.4 1 .7 1.6 1.2 2 .4.4 1 .6 1.6.6l1.3-.1a5 5 0 0 0 1.1-.6v.2-6.6h3.3v1.4h-1.7v9.5h-1.7Zm7.2 0a8.6 8.6 0 0 1-4.3-1.2l.6-1.4a8 8 0 0 0 1.8.8 6 6 0 0 0 3.2.1 2 2 0 0 0 1-.6c.2-.3.3-.6.3-1s0-.7-.2-1a2 2 0 0 0-.7-.7 3 3 0 0 0-1-.5 10 10 0 0 1-2 .2l-1.2-.1-.6-.4a.9.9 0 0 1-.2-.6c0-.3.2-.6.5-.7.3-.2.7-.3 1.2-.3a6.8 6.8 0 0 1 2.5.5l1-.7c.2-.3.3-.8.3-1.3a3.3 3.3 0 0 0-.2-1.1l1 .5h-7.6v-1.4h10v1.4H138l.5-.4.2.6v.5c0 .7-.1 1.2-.4 1.6l-1 1 1 .7.6 1 .2 1.2a3 3 0 0 1-.5 1.8 3 3 0 0 1-1.6 1.1 5 5 0 0 1-2.2.4Zm17.3 0a13 13 0 0 0-.9-4l-.2-.3c-.3-.6-.8-1.1-1.3-1.5-.6-.3-1.1-.5-1.8-.5-.6 0-1 .2-1.5.4-.3.3-.5.7-.5 1.3 0 .5.2 1 .5 1.2.4.3.8.4 1.4.4.8 0 1.5-.2 2-.6.5-.4.9-.9 1.2-1.4v-.5c.3-.4.4-.8.4-1.2a12.1 12.1 0 0 0 0-2.8h-8v-1.4h11.4v1.4H153a13.3 13.3 0 0 1 .1 1.6c0 .6 0 1.3-.3 2-.1.6-.4 1.2-.8 1.8l-.2.3c-.5.7-1 1.2-1.7 1.7-.7.4-1.6.6-2.5.6-.7 0-1.4-.1-1.9-.4-.5-.2-1-.6-1.2-1-.3-.5-.4-1-.4-1.7s.1-1.3.4-1.7a3 3 0 0 1 1.3-1c.5-.3 1.1-.4 1.8-.4 1 0 1.7.1 2.4.5.6.3 1.2.8 1.7 1.5l.2.3 1 1.6.5 2 .3 1.8H152Zm7.7 0a5.5 5.5 0 0 1-3.5-1.4 5 5 0 0 1-1-1.5c-.3-.5-.5-1.1-.5-1.7l.2-1 .6-.8a3 3 0 0 1 1.2-.6c.5-.2 1.3-.3 2.2-.3h2.4v-2.2H154v-1.4h10.6v1.4H163v6.4c0 .7-.2 1.3-.4 1.8-.3.4-.6.7-1.1 1-.5.2-1.1.3-1.8.3Zm0-1.5h.7l.5-.4.3-.4v-3.5h-2l-1.6.1c-.4 0-.6.2-.8.3a1 1 0 0 0-.3.5v.5c0 .3 0 .7.2 1a3.7 3.7 0 0 0 1.8 1.7l1.2.2Zm1.6-9.3-.2-1.1-.4-.6a1 1 0 0 0-.7-.2h-.6a4 4 0 0 1-.7 0c-.4 0-.8 0-1.2-.2a2 2 0 0 1-.8-.8 7 7 0 0 1-.7-1.6l1.4-.4.4 1 .4.5.7.1h1.4c.4 0 .8 0 1.2.2.4.2.7.6 1 1 .2.5.3 1.2.3 2.1h-1.5Z" fill="#fff"/>
  </g>
  <defs>
    <clipPath id="a">
      <path fill="#fff" transform="matrix(1 0 0 -1 0 80)" d="M0 0h270v80H0z"/>
    </clipPath>
  </defs>
</svg>
