<svg width="180" height="54" fill="none" xmlns="http://www.w3.org/2000/svg">
  <path d="M173.3 54H6.7A6.7 6.7 0 0 1 0 47.2V6.8C0 3 3 0 6.7 0h166.6a6.7 6.7 0 0 1 6.7 6.8v40.5c0 3.7-3 6.7-6.7 6.7Z" fill="#000"/>
  <path d="M27.6 26.2 13.4 41.5a3.8 3.8 0 0 0 5.7 2.3l16-9.3-7.5-8.3Z" fill="#EA4335"/>
  <path d="m42 23.6-7-4-7.7 7 7.8 7.9 6.9-4a3.9 3.9 0 0 0 2-3.5 4 4 0 0 0-2-3.4Z" fill="#FBBC04"/>
  <path d="M13.4 12.5a3.7 3.7 0 0 0-.1 1v27l.1 1 14.7-14.9-14.7-14Z" fill="#4285F4"/>
  <path d="m27.7 27 7.4-7.4-16-9.4a3.9 3.9 0 0 0-5.7 2.3L27.7 27Z" fill="#34A853"/>
  <path d="M142.6 40h2.5V23.3h-2.5V40ZM165 29.3l-2.9 7.3-3-7.3h-2.7l4.5 10.1-2.6 5.7h2.6l6.9-15.8H165Zm-14.1 8.8c-.8 0-2-.4-2-1.4 0-1.3 1.4-1.8 2.7-1.8 1 0 1.6.2 2.2.6a3 3 0 0 1-3 2.6Zm.3-9.1c-1.8 0-3.7.8-4.4 2.5l2.2 1c.4-1 1.3-1.3 2.2-1.3 1.3 0 2.6.8 2.7 2.2v.1a5.5 5.5 0 0 0-2.6-.6c-2.4 0-4.8 1.3-4.8 3.8 0 2.2 1.9 3.6 4 3.6a3.5 3.5 0 0 0 3.3-1.6V40h2.5v-6.4c0-3-2.2-4.6-5.1-4.6Zm-15.4 2.4h-3.5v-5.8h3.5a2.9 2.9 0 0 1 3 3 2.9 2.9 0 0 1-3 2.8Zm0-8h-6V40h2.5v-6.3h3.5c2.7 0 5.4-2 5.4-5.2s-2.7-5.2-5.4-5.2ZM103.3 38c-1.8 0-3.2-1.4-3.2-3.4s1.4-3.5 3.1-3.5c1.7 0 3 1.5 3 3.5s-1.3 3.4-3 3.4Zm2.8-7.8h-.1a4 4 0 0 0-3-1.3 5.6 5.6 0 0 0-5.4 5.7c0 3.2 2.6 5.6 5.4 5.6a4 4 0 0 0 3-1.2v.8c0 2.1-1 3.3-3 3.3a3.1 3.1 0 0 1-2.8-2L98 42a5.4 5.4 0 0 0 5 3.3c3 0 5.5-1.7 5.5-5.9v-10H106v.9Zm4 9.7h2.6V23.3h-2.5V40Zm6.3-5.5a3.1 3.1 0 0 1 3-3.3c.9 0 1.7.5 2 1.2l-5 2.1Zm7.7-1.9c-.5-1.3-2-3.6-4.9-3.6-2.9 0-5.3 2.3-5.3 5.7 0 3.1 2.4 5.6 5.6 5.6 2.6 0 4.1-1.5 4.7-2.5l-1.9-1.3a3.2 3.2 0 0 1-2.8 1.6 2.9 2.9 0 0 1-2.7-1.7l7.5-3.1-.2-.7Zm-60.4-1.9V33h5.7a5 5 0 0 1-1.3 3 5.9 5.9 0 0 1-4.4 1.8 6.3 6.3 0 0 1-6.3-6.4A6.3 6.3 0 0 1 68 27l1.7-1.7a8.4 8.4 0 0 0-6-2.5 9 9 0 0 0-9 8.8 9 9 0 0 0 9 8.8 8 8 0 0 0 6.1-2.4c1.6-1.6 2-3.8 2-5.6a7.8 7.8 0 0 0 0-1.5h-8.1ZM78.4 38c-1.7 0-3.2-1.4-3.2-3.4s1.5-3.5 3.2-3.5c1.8 0 3.2 1.4 3.2 3.5 0 2-1.4 3.4-3.2 3.4Zm0-9a5.6 5.6 0 0 0-5.7 5.6 5.6 5.6 0 0 0 5.7 5.6 5.6 5.6 0 0 0 5.7-5.6 5.6 5.6 0 0 0-5.7-5.7ZM91 38c-1.8 0-3.2-1.4-3.2-3.4s1.4-3.5 3.2-3.5c1.7 0 3.2 1.4 3.2 3.5 0 2-1.5 3.4-3.2 3.4Zm0-9a5.6 5.6 0 0 0-5.7 5.6 5.6 5.6 0 0 0 5.7 5.6 5.6 5.6 0 0 0 5.7-5.6 5.6 5.6 0 0 0-5.7-5.7ZM57 14.1h2.7l-1.3-3.6-1.4 3.6Zm-2 3.2 3-8h1l3 8h-1l-.9-2.1h-3.3l-.8 2.1h-1.1Z" fill="#fff"/>
  <path d="M57.1 14.2v.1H60l-1.4-3.8h-.3L57 14.3h.2v-.1h.2l1.3-3.5-.2-.1v.1-.1l1.2 3.5H57v.1ZM55 17.3l3-7.8h1l3 7.7h-1l-.8-2.2h-3.5l-.8 2.2h-1v.3H56l.8-2.2H60l.8 2.2h1.4l-3-8.3h-1.4l-3.1 8.3h.2v-.2Zm11.9.2a4 4 0 0 1-3-1.2c-.8-.8-1.2-1.8-1.2-3s.4-2.2 1.2-3a4 4 0 0 1 3-1.2c1.2 0 2.1.5 2.9 1.4l-.7.7a2.7 2.7 0 0 0-2.2-1 3 3 0 0 0-3.1 3.1 3 3 0 0 0 3 3.2c1 0 1.8-.4 2.5-1.1l.7.7a4.2 4.2 0 0 1-3.1 1.4Z" fill="#fff"/>
  <path d="M66.8 17.5v-.1c-1.2 0-2.1-.4-3-1.2a3.9 3.9 0 0 1-1-2.9 3.9 3.9 0 0 1 1-2.9 3.9 3.9 0 0 1 3-1.1c1.1 0 2 .4 2.8 1.3v-.2l-.7.7h.2a2.8 2.8 0 0 0-2.3-1.1 3.2 3.2 0 0 0-3.3 3.3 3.2 3.2 0 0 0 3.3 3.4c1 0 1.8-.4 2.5-1.2v-.1H69l.7.8.1-.1V16a4 4 0 0 1-3.1 1.4v.3a4.3 4.3 0 0 0 3.2-1.5l.1-.1-.8-.8v-.1H69a3 3 0 0 1-2.3 1.2 2.9 2.9 0 0 1-2.2-.9 3 3 0 0 1-.8-2.2c0-.9.3-1.6.8-2.2a2.9 2.9 0 0 1 2.2-.8c.9 0 1.6.3 2 1h.2l.8-.8v-.1a3.8 3.8 0 0 0-3-1.4 4 4 0 0 0-3.1 1.3 4.2 4.2 0 0 0-1.2 3c0 1.2.4 2.3 1.2 3.1a4.2 4.2 0 0 0 3 1.2Zm7.3 0a2.8 2.8 0 0 1-2.1-.9 3.2 3.2 0 0 1-.8-2.2v-5h1v5c0 .6.2 1.1.5 1.5.3.4.8.6 1.4.6.7 0 1.1-.2 1.5-.6.3-.3.5-.9.5-1.5v-5h1v5a3 3 0 0 1-.8 2.2 2.8 2.8 0 0 1-2.2 1Z" fill="#fff"/>
  <path d="M74.1 17.5v-.1c-.8 0-1.5-.3-2-.8a3 3 0 0 1-.8-2.2v-5h.8v5c0 .7.1 1.2.5 1.6.4.5.9.7 1.5.7s1.2-.2 1.6-.7c.3-.4.5-1 .5-1.6v-5h.8v5a3.1 3.1 0 0 1-.8 2.2c-.5.5-1.2.8-2 .8v.3a3 3 0 0 0 2.2-1c.6-.6.8-1.4.8-2.3V9.2H76v5.2c0 .6-.1 1.1-.4 1.5a2 2 0 0 1-1.4.5c-.6 0-1-.2-1.3-.5a2.2 2.2 0 0 1-.5-1.5V9.2H71v5.2c0 1 .3 1.7.9 2.3a3 3 0 0 0 2.2 1v-.2Zm4.7-.2v-8h1l2.8 4.9 2.8-4.9h1v8h-1v-6.1l-2.5 4.4h-.6l-2.5-4.4v6.1h-1Z" fill="#fff"/>
  <path d="M78.8 17.3V9.5h1l2.7 4.8h.2l2.8-4.8h.8v7.7h-.8v-6.1h-.2l-2.5 4.4h-.4l-2.5-4.4h-.3v6.1h-.9v.3H80v-6.3h-.2v.2-.2.1l2.5 4.5h.8l2.5-4.5h-.2v6.2h1.3V9.2h-1.3l-2.8 5h.1v-.1.1l-2.7-5h-1.3v8.3h.2v-.2ZM92 13.1h1.7a1.4 1.4 0 0 0 1.4-1.4c0-.3-.1-.7-.4-1-.2-.2-.6-.4-1-.4H92v2.8Zm0 4.2h-1v-8h2.7c.6 0 1.2.3 1.7.7.5.5.8 1 .8 1.7a2.2 2.2 0 0 1-.8 1.7 2.5 2.5 0 0 1-1.7.7H92v3.2Z" fill="#fff"/>
  <path d="M92 13.1v.1h1.7c.4 0 .8-.1 1.1-.4.3-.3.4-.7.4-1 0-.5-.1-.8-.4-1.1a1.5 1.5 0 0 0-1.1-.5h-1.9v3h.2v-2.8h1.7c.4 0 .7.2 1 .4.2.3.3.6.3 1 0 .2-.1.5-.4.8a1.2 1.2 0 0 1-1 .4H92v.1Zm0 4.2v-.1h-1V9.5h2.7c.6 0 1.2.2 1.6.6.5.4.7 1 .7 1.6a2 2 0 0 1-.7 1.6 2.4 2.4 0 0 1-1.6.7h-1.9v3.3h.3v-3h1.6c.7 0 1.3-.3 1.8-.8s.8-1 .8-1.8c0-.7-.3-1.3-.8-1.8a2.7 2.7 0 0 0-1.8-.7h-2.9v8.3h1.3v-.2H92Zm10.1-7h-3.6v2.5h3.3v1h-3.3v2.5h3.6v1h-4.6v-8h4.6v1Z" fill="#fff"/>
  <path d="M102.1 10.3v-.1h-3.7V13h3.2v.7h-3.2v2.8h3.6v.7h-4.4V9.5h4.4v.8h.3V9.2h-5v8.3h5v-1.3h-3.7V14h3.3v-1.2h-3.3v-2.3h3.7-.2Z" fill="#fff"/>
</svg>
