<svg id="artwork" xmlns="http://www.w3.org/2000/svg" version="1.1" viewBox="0 0 239 70.9">
  <defs>
    <style>
      .st1{isolation:isolate}.st5{fill:#fff}
    </style>
  </defs>
  <rect width="239" height="70.8" rx="8.8" ry="8.8"/>
  <path class="st5" d="M120.6 38.5c-4.1 0-7.5 3.2-7.5 7.6s3.4 7.5 7.5 7.5 7.6-3.2 7.6-7.6-3.4-7.5-7.6-7.5Zm0 12.1c-2.3 0-4.2-1.9-4.2-4.6s2-4.5 4.2-4.5 4.3 1.8 4.3 4.5-2 4.6-4.3 4.6Zm-16.5-12c-4.1 0-7.5 3.1-7.5 7.4s3.4 7.6 7.5 7.6 7.6-3.2 7.6-7.6-3.4-7.5-7.6-7.5Zm0 12c-2.3 0-4.2-1.9-4.2-4.6s2-4.5 4.2-4.5 4.3 1.8 4.3 4.5-2 4.6-4.3 4.6Zm-19.6-9.8V44h7.7a6.7 6.7 0 0 1-1.8 4 7.8 7.8 0 0 1-5.9 2.4 8.4 8.4 0 0 1-8.4-8.5 8.4 8.4 0 0 1 14.2-6.2l2.2-2.3a11.1 11.1 0 0 0-8-3.2c-6.4 0-11.8 5.3-11.8 11.7S78 53.6 84.5 53.6c3.5 0 6.1-1.1 8.2-3.3 2-2 2.7-5 2.7-7.4l-.1-2H84.5Zm80.2 2.5c-.6-1.6-2.5-4.8-6.4-4.8s-7.1 3-7.1 7.6c0 4.2 3.2 7.5 7.4 7.5 3.5 0 5.5-2.1 6.3-3.4l-2.6-1.7c-.8 1.3-2 2.1-3.7 2.1s-2.8-.8-3.6-2.3l10-4.1-.3-.9Zm-10.3 2.5c0-2.9 2.3-4.3 4-4.3 1.3 0 2.4.6 2.8 1.5l-6.8 2.8Zm-8.1 7.3h3.3V31h-3.3v22.1Zm-5.5-12.9a5.2 5.2 0 0 0-4-1.7c-3.8 0-7.2 3.3-7.2 7.6s3.4 7.5 7.2 7.5a5 5 0 0 0 4-1.7v1c0 3-1.5 4.5-4 4.5-2 0-3.2-1.5-3.8-2.7l-2.9 1.2c.9 2 3 4.5 6.7 4.5 3.9 0 7.2-2.3 7.2-7.9V39h-3.2v1.2ZM137 50.6c-2.2 0-4.2-1.9-4.2-4.5s2-4.6 4.2-4.6 4 2 4 4.6-1.7 4.5-4 4.5ZM180.2 31h-7.9v22.1h3.3v-8.4h4.6c3.7 0 7.3-2.6 7.3-6.8s-3.6-6.9-7.3-6.9Zm0 10.7h-4.6V34h4.7a3.8 3.8 0 1 1 0 7.6Zm20.5-3.2c-2.4 0-4.9 1-5.9 3.4l3 1.2c.6-1.2 1.8-1.6 3-1.6 1.7 0 3.4 1 3.4 2.8v.3c-.6-.4-1.8-.9-3.4-.9-3.2 0-6.4 1.7-6.4 5 0 3 2.6 4.8 5.5 4.8 2.2 0 3.5-1 4.2-2.1h.1V53h3.2v-8.5c0-4-3-6.1-6.7-6.1Zm-.4 12.1c-1 0-2.6-.5-2.6-1.9 0-1.7 1.9-2.3 3.5-2.3 1.5 0 2.2.3 3 .7a4 4 0 0 1-3.9 3.5ZM219 39l-3.8 9.6-4-9.6h-3.6l6 13.4-3.4 7.4h3.4l9.1-20.8H219Zm-29.7 14h3.3V31h-3.3v22.1Z"/>
  <path d="m36.7 34.4-18.9 20a5 5 0 0 0 7.5 3l21.3-12.2-10-10.8Z" style="fill:#ea4335"/>
  <path d="m55.7 31-9.1-5.3-10.4 9.2 10.4 10.3 9.1-5.2c1.6-1 2.7-2.6 2.7-4.5s-1-3.6-2.7-4.5Z" style="fill:#fbbc04"/>
  <path d="m17.8 16.5-.2 1.3V53c0 .5 0 1 .2 1.3L37.3 35 17.8 16.5Z" style="fill:#4285f4"/>
  <path d="m36.8 35.4 9.8-9.7-21.2-12.3a5.1 5.1 0 0 0-7.6 3l19 19Z" style="fill:#34a853"/>
  <g class="st1">
    <path class="st5" d="M74 12.3h3.5c1.2 0 2.2.2 3 .6s1.5 1.1 2 2c.4.8.6 1.8.6 2.9s-.2 2-.6 2.8c-.5.9-1.2 1.5-2 2s-1.9.7-3 .7H74v-11Zm3.5 9.3a4 4 0 0 0 2.9-1c.6-.7 1-1.6 1-2.8s-.3-2.2-1-2.9a4 4 0 0 0-3-1h-1.7v7.7h1.8Z"/>
  </g>
  <g class="st1">
    <path class="st5" d="M85.4 12.3H92v1.6h-5v3h4.5v1.7H87v3h5v1.7h-6.7v-11Z"/>
  </g>
  <g class="st1">
    <path class="st5" d="M95 22.7a4 4 0 0 1-1.5-2.2l1.6-.7c.1.6.4 1.1.9 1.5s.9.6 1.5.6c.5 0 1-.2 1.3-.5.4-.2.6-.6.6-1.1 0-.5-.2-.8-.5-1.1s-.9-.6-1.7-1l-.7-.2a5 5 0 0 1-1.9-1c-.5-.6-.7-1.2-.7-2 0-.5.1-1 .4-1.5.3-.5.7-.8 1.3-1.1a3 3 0 0 1 1.7-.4c1 0 1.8.2 2.4.7s1 1 1.1 1.6l-1.5.6a2 2 0 0 0-2-1.3c-.4 0-.9.1-1.2.4s-.5.6-.5 1 .1.7.5 1l1.4.6.7.3c1 .3 1.7.7 2.2 1.3s.8 1.2.8 2a3 3 0 0 1-.6 1.9c-.4.5-.8.8-1.4 1a4 4 0 0 1-1.8.4 4 4 0 0 1-2.4-.8Z"/>
  </g>
  <g class="st1">
    <path class="st5" d="M105.5 22.8a5.5 5.5 0 0 1-2-2.1c-.5-.9-.8-1.9-.8-3s.3-2 .8-2.9 1.2-1.6 2-2c1-.6 1.9-.8 3-.8.8 0 1.6.1 2.2.5s1.3.7 1.8 1.3l-1.2 1.2a3.5 3.5 0 0 0-2.8-1.4c-.8 0-1.5.2-2 .6a3 3 0 0 0-1.5 1.4c-.4.6-.6 1.3-.6 2.2a4 4 0 0 0 2 3.6 4.1 4.1 0 0 0 5.2-1l1.3 1.1a5.6 5.6 0 0 1-4.4 2c-1.1 0-2-.2-3-.7Z"/>
  </g>
  <g class="st1">
    <path class="st5" d="M118 12.3h2l4.2 11h-2l-1-2.8h-4.4l-1 2.8H114l4.1-11Zm2.7 6.6-1.2-3.3-.4-1.3h-.1l-.4 1.3-1.2 3.3h3.3Z"/>
  </g>
  <g class="st1">
    <path class="st5" d="M125.9 12.3h3.8a3.4 3.4 0 0 1 3.6 3.3 3 3 0 0 1-.7 2c-.5.6-1.1 1-1.8 1.1v.1l3 4.4h-2l-3-4.2h-1.2v4.3h-1.7v-11Zm3.8 5c.5 0 1-.1 1.3-.4s.5-.8.5-1.3c0-.3 0-.5-.2-.8-.1-.3-.3-.5-.6-.7s-.6-.2-1-.2h-2.1v3.5h2Z"/>
  </g>
  <g class="st1">
    <path class="st5" d="M137.7 22.8a5.5 5.5 0 0 1-2-2.1c-.6-.9-.8-1.9-.8-3a5.7 5.7 0 0 1 9.8-3.9l-1.2 1.2a3 3 0 0 0-1.3-1c-.4-.2-1-.4-1.6-.4-.7 0-1.4.2-2 .6-.6.3-1 .8-1.4 1.4-.4.6-.6 1.3-.6 2.2a4 4 0 0 0 2 3.6 4.1 4.1 0 0 0 5.2-1l1.2 1.1a5.5 5.5 0 0 1-4.4 2c-1 0-2-.2-2.9-.7Z"/>
  </g>
  <g class="st1">
    <path class="st5" d="M150.2 12.3h2l4.1 11h-1.9l-1-2.8H149l-1 2.8h-2l4.2-11Zm0-1.1a2 2 0 0 1-1-1.7h1.3c0 .2 0 .4.2.5.1.2.3.2.5.2l.6-.2.2-.5h1.3c0 .3-.1.7-.3 1l-.8.7a2 2 0 0 1-2 0Zm2.7 7.7-1.2-3.3-.4-1.3h-.1l-.5 1.3-1.1 3.3h3.3Z"/>
  </g>
  <g class="st1">
    <path class="st5" d="M161.4 12.3h3.6c1.1 0 2.1.2 3 .6s1.5 1.1 2 2c.4.8.6 1.8.6 2.9s-.2 2-.7 2.8c-.4.9-1 1.5-2 2s-1.8.7-3 .7h-3.5v-11Zm3.5 9.3c1.3 0 2.2-.3 3-1s1-1.6 1-2.8-.4-2.2-1-2.9a4 4 0 0 0-3-1h-1.7v7.7h1.7Z"/>
  </g>
  <g class="st1">
    <path class="st5" d="M172.8 12.3h6.7v1.6h-5v3h4.5v1.7h-4.5v3h5v1.7h-6.7v-11Z"/>
  </g>
  <g class="st1">
    <path class="st5" d="M185.2 12.3h3.8a3.4 3.4 0 0 1 3.1 1.6 3.4 3.4 0 0 1 0 3.5c-.3.5-.7.9-1.3 1.2s-1.1.4-1.8.4h-2v4.3h-1.8v-11Zm3.9 5c.3 0 .7 0 1-.2l.6-.7.2-.8c0-.3 0-.5-.2-.8l-.6-.7c-.2-.2-.7-.2-1-.2h-2.2v3.4h2.2Z"/>
  </g>
  <g class="st1">
    <path class="st5" d="M194.4 12.3h6.7v1.6h-5v3h4.5v1.7h-4.5v3h5v1.7h-6.7v-11Z"/>
  </g>
</svg>
