<svg width="180" height="54" fill="none" xmlns="http://www.w3.org/2000/svg">
  <path d="M173.33 54H6.67A6.73 6.73 0 0 1 0 47.25V6.75C0 3.04 3 0 6.67 0h166.66A6.73 6.73 0 0 1 180 6.75v40.5c0 3.71-3 6.75-6.67 6.75Z" fill="#000"/>
  <path d="m27.63 26.22-14.2 15.26a3.84 3.84 0 0 0 5.65 2.35l.05-.03 15.97-9.33-7.48-8.25Z" fill="#EA4335"/>
  <path d="m41.98 23.63-.01-.02-6.9-4.05-7.77 7 7.8 7.9 6.86-4a3.89 3.89 0 0 0 2.02-3.43c0-1.47-.8-2.75-2-3.4Z" fill="#FBBC04"/>
  <path d="M13.43 12.52a3.7 3.7 0 0 0-.13 1v26.96c0 .35.04.68.13 1L28.1 26.62l-14.68-14.1Z" fill="#4285F4"/>
  <path d="m27.73 27 7.34-7.44-15.96-9.37a3.85 3.85 0 0 0-5.69 2.33L27.73 27Z" fill="#34A853"/>
  <path d="M142.58 40h2.49V23.33h-2.49V40ZM165 29.34l-2.85 7.22h-.09l-2.96-7.22h-2.68l4.44 10.1-2.53 5.61h2.6l6.84-15.71H165Zm-14.1 8.77c-.82 0-1.96-.41-1.96-1.42 0-1.29 1.41-1.78 2.64-1.78 1.1 0 1.6.24 2.27.56a3.02 3.02 0 0 1-2.96 2.64Zm.3-9.14c-1.81 0-3.68.8-4.45 2.55l2.21.93c.47-.93 1.35-1.23 2.27-1.23 1.3 0 2.6.78 2.62 2.15v.17a5.5 5.5 0 0 0-2.6-.64c-2.38 0-4.8 1.3-4.8 3.75 0 2.23 1.95 3.67 4.14 3.67a3.5 3.5 0 0 0 3.17-1.63h.09v1.28h2.4v-6.39c0-2.96-2.2-4.6-5.06-4.6Zm-15.38 2.4h-3.54v-5.72h3.53a2.89 2.89 0 0 1 2.92 2.86 2.9 2.9 0 0 1-2.91 2.86Zm-.07-8.04h-5.96V40h2.49v-6.32h3.47c2.76 0 5.47-2 5.47-5.17 0-3.18-2.71-5.18-5.47-5.18Zm-32.5 14.78c-1.72 0-3.16-1.44-3.16-3.42 0-2 1.44-3.45 3.15-3.45 1.7 0 3.03 1.46 3.03 3.45 0 1.98-1.33 3.42-3.03 3.42Zm2.85-7.84h-.1a3.93 3.93 0 0 0-2.98-1.27 5.64 5.64 0 0 0-5.44 5.7c0 3.17 2.6 5.64 5.44 5.64 1.35 0 2.43-.6 2.98-1.28h.09v.81c0 2.17-1.16 3.33-3.03 3.33a3.14 3.14 0 0 1-2.86-2.02l-2.17.9a5.4 5.4 0 0 0 5.03 3.36c2.92 0 5.4-1.72 5.4-5.91V29.35h-2.37v.92Zm4.08 9.73h2.5V23.33h-2.5V40Zm6.17-5.5a3.11 3.11 0 0 1 2.96-3.3c.99 0 1.83.49 2.1 1.2l-5.06 2.1Zm7.73-1.89c-.47-1.27-1.91-3.6-4.85-3.6-2.93 0-5.35 2.3-5.35 5.66 0 3.18 2.4 5.67 5.62 5.67 2.6 0 4.1-1.59 4.73-2.5l-1.93-1.3a3.24 3.24 0 0 1-2.8 1.57 2.89 2.89 0 0 1-2.75-1.72l7.59-3.13-.26-.65Zm-60.41-1.87v2.4h5.76a5.02 5.02 0 0 1-1.32 3.04 5.9 5.9 0 0 1-4.44 1.76 6.32 6.32 0 0 1-6.32-6.4A6.32 6.32 0 0 1 68 26.85l1.7-1.7a8.4 8.4 0 0 0-6.04-2.42 8.93 8.93 0 0 0-8.94 8.8 8.93 8.93 0 0 0 8.94 8.81c2.62 0 4.6-.86 6.14-2.47 1.6-1.59 2.09-3.82 2.09-5.62a7.8 7.8 0 0 0-.13-1.5h-8.1Zm14.77 7.37c-1.72 0-3.2-1.42-3.2-3.44 0-2.04 1.48-3.43 3.2-3.43 1.72 0 3.2 1.4 3.2 3.43 0 2.02-1.48 3.44-3.2 3.44Zm0-9.1a5.59 5.59 0 0 0-5.7 5.66 5.6 5.6 0 0 0 5.7 5.67 5.6 5.6 0 0 0 5.7-5.67 5.59 5.59 0 0 0-5.7-5.67Zm12.42 9.1c-1.72 0-3.2-1.42-3.2-3.44 0-2.04 1.48-3.43 3.2-3.43 1.72 0 3.2 1.4 3.2 3.43 0 2.02-1.48 3.44-3.2 3.44Zm0-9.1a5.59 5.59 0 0 0-5.7 5.66 5.6 5.6 0 0 0 5.7 5.67 5.6 5.6 0 0 0 5.69-5.67 5.59 5.59 0 0 0-5.7-5.67ZM58 13.29a5.28 5.28 0 0 1-.76 3.06h4.04v-6.03H58v2.97Zm-1.85 5.74h-.98v-2.68h.78c.7-.6 1.03-1.62 1.02-3.06V9.33h5.34v7.02h.9v2.68h-1v-1.7h-6.06v1.7Z" fill="#fff"/>
  <path d="M58 13.29h-.14v.1c0 1.2-.25 2.16-.73 2.89l-.14.2h4.42v-6.3h-3.55v3.11h.27v-2.84h3.02v5.77h-3.91v.13l.1.07c.53-.78.79-1.79.79-3.02v-.11H58Zm-1.85 5.74v-.13h-.85v-2.42h.7l.04-.03c.72-.62 1.06-1.66 1.06-3.07V9.47h5.08v7.01h.89v2.42h-.72v-1.7h-6.33v1.83h.26v-1.56h5.8v1.7h1.26v-2.95h-.9V9.2h-5.6v4.18c0 1.38-.34 2.32-.98 2.87l.1.1v-.13h-.92v2.94h1.24v-.13h-.13Zm9.96-3.4c.6.6 1.32.9 2.18.9.85 0 1.58-.3 2.17-.9.6-.6.89-1.37.89-2.3 0-.93-.3-1.7-.9-2.3-.58-.6-1.3-.9-2.16-.9-.86 0-1.58.3-2.18.9-.59.6-.89 1.37-.89 2.3 0 .93.3 1.7.9 2.3Zm5.1.67a3.92 3.92 0 0 1-2.92 1.21 4.09 4.09 0 0 1-4.11-4.18 4.09 4.09 0 0 1 4.1-4.18 4.1 4.1 0 0 1 4.11 4.18 4.1 4.1 0 0 1-1.17 2.97Z" fill="#fff"/>
  <path d="m66.11 15.63-.1.1c.62.62 1.39.93 2.28.93.88 0 1.65-.31 2.26-.94.62-.62.93-1.43.93-2.39 0-.96-.3-1.76-.93-2.39A3.07 3.07 0 0 0 68.3 10c-.9 0-1.66.32-2.27.94a3.27 3.27 0 0 0-.93 2.4c0 .95.31 1.76.93 2.38l.1-.09.09-.1a3 3 0 0 1-.85-2.2 3 3 0 0 1 .85-2.2 2.8 2.8 0 0 1 2.08-.86c.82 0 1.5.29 2.07.86a3 3 0 0 1 .86 2.2 3 3 0 0 1-.86 2.2 2.8 2.8 0 0 1-2.07.87 2.8 2.8 0 0 1-2.08-.86l-.1.09Zm5.1.67-.09-.1a3.8 3.8 0 0 1-2.83 1.18 3.96 3.96 0 0 1-3.98-4.05 3.96 3.96 0 0 1 3.98-4.04c1.13 0 2.06.39 2.83 1.18a3.96 3.96 0 0 1 1.14 2.86c0 1.14-.37 2.1-1.14 2.88l.1.09.1.1a4.23 4.23 0 0 0 1.21-3.07 4.22 4.22 0 0 0-4.24-4.3 4.23 4.23 0 0 0-4.24 4.31 4.23 4.23 0 0 0 4.24 4.3c1.2 0 2.22-.41 3.03-1.25l-.1-.1Zm6.36 1.21c-1.17 0-2.16-.4-2.96-1.2-.8-.8-1.2-1.78-1.2-2.98 0-1.19.4-2.18 1.2-2.98.8-.8 1.79-1.2 2.96-1.2 1.2 0 2.19.44 2.94 1.31l-.72.7a2.7 2.7 0 0 0-2.22-1.02 3.03 3.03 0 0 0-3.1 3.2 3.03 3.03 0 0 0 3.1 3.2c.96-.01 1.78-.4 2.46-1.17l.72.71a4.2 4.2 0 0 1-3.17 1.43Z" fill="#fff"/>
  <path d="M77.57 17.51v-.13a3.88 3.88 0 0 1-2.86-1.16 3.9 3.9 0 0 1-1.16-2.89 3.9 3.9 0 0 1 1.16-2.89 3.89 3.89 0 0 1 2.86-1.15c1.18 0 2.11.42 2.84 1.26l.1-.09-.1-.1-.7.7.08.1.1-.09A2.83 2.83 0 0 0 77.58 10a3.16 3.16 0 0 0-3.24 3.33 3.16 3.16 0 0 0 3.24 3.33c1 0 1.86-.4 2.56-1.2l-.1-.1-.1.1.72.72.1-.1-.1-.08a4.07 4.07 0 0 1-3.07 1.38v.27a4.33 4.33 0 0 0 3.27-1.48l.08-.1-.9-.9-.1.1a3.02 3.02 0 0 1-2.36 1.13 2.9 2.9 0 0 1-2.11-.85 2.96 2.96 0 0 1-.86-2.22c0-.92.29-1.65.86-2.21a2.9 2.9 0 0 1 2.11-.85c.9 0 1.6.32 2.12.97l.1.11.81-.8.1-.08-.09-.1a3.84 3.84 0 0 0-3.04-1.35c-1.2 0-2.23.41-3.05 1.24a4.17 4.17 0 0 0-1.24 3.07c0 1.22.41 2.26 1.24 3.08a4.16 4.16 0 0 0 3.05 1.24v-.14Zm7.33-.18h-1.03v-7.01h-2.23v-.99h5.5v.99H84.9v7.01Z" fill="#fff"/>
  <path d="M84.9 17.33v-.13H84v-7.02h-2.23v-.71H87v.71h-2.23v7.15h.27v-6.88h2.23V9.2h-5.76v1.25h2.23v7.02h1.3v-.14h-.14Zm9.3-8-3.03 6.75c-.42.96-1.04 1.43-1.87 1.43-.24 0-.5-.06-.8-.18l.28-.95c.17.1.35.15.53.15.24 0 .43-.05.56-.14.13-.1.25-.26.36-.5l.29-.65-2.7-5.9h1.21l1.98 4.59h.05l1.93-4.6h1.2Z" fill="#fff"/>
  <path d="m94.2 9.33-.13-.05-3.02 6.75c-.42.92-.98 1.34-1.75 1.35a2 2 0 0 1-.74-.17l-.05.12.13.04.26-.95-.12-.04-.07.12c.2.1.4.16.6.16.26 0 .47-.05.63-.16.16-.12.3-.3.41-.56l.3-.64.02-.06-2.64-5.77h.92l1.97 4.59h.22l1.94-4.6h1.12V9.2h-1.3l-1.97 4.67.13.06v-.14H91v.14l.12-.06-2-4.67h-1.51l2.75 6.04-.26.59c-.1.23-.22.38-.32.45a.81.81 0 0 1-.48.12.94.94 0 0 1-.47-.13l-.15-.09-.31 1.12-.03.11.1.05c.3.12.58.19.85.19.89 0 1.57-.53 1.99-1.51L94.4 9.2h-.2v.13Zm1.16 8v-8h5.79v8h-1.03v-7.01h-3.73v7.01h-1.03Z" fill="#fff"/>
  <path d="M95.36 17.33h.13V9.47h5.52v7.73h-.76v-7.02h-4v7.02h-.9v.27h1.17v-7.02h3.47v7.02h1.3V9.2h-6.06v8.27h.13v-.14Zm7.62 0v-8H104v3.43h4V9.33h1.02v8H108v-3.6h-4v3.6h-1.03Z" fill="#fff"/>
  <path d="M102.98 17.33h.13V9.47h.76v3.43h4.27V9.47h.76v7.73h-.76v-3.6h-4.27v3.6h-.9v.27h1.17v-3.61h3.73v3.6h1.3V9.2h-1.3v3.43h-3.73V9.2h-1.3v8.27h.14v-.14Zm9.32-1.7c.6.6 1.32.9 2.18.9.85 0 1.58-.3 2.17-.9.6-.6.89-1.37.89-2.3 0-.93-.3-1.7-.9-2.3-.58-.6-1.3-.9-2.16-.9-.86 0-1.58.3-2.18.9-.59.6-.88 1.37-.88 2.3 0 .93.3 1.7.88 2.3Zm5.11.67a3.92 3.92 0 0 1-2.93 1.21 4.1 4.1 0 0 1-4.11-4.18 4.1 4.1 0 0 1 4.1-4.18 4.1 4.1 0 0 1 4.11 4.18 4.1 4.1 0 0 1-1.17 2.97Z" fill="#fff"/>
  <path d="m112.3 15.63-.1.1c.62.62 1.39.93 2.28.93.88 0 1.65-.31 2.27-.94.61-.62.92-1.43.92-2.39 0-.96-.3-1.76-.92-2.39a3.07 3.07 0 0 0-2.27-.94c-.9 0-1.66.32-2.27.94a3.27 3.27 0 0 0-.93 2.4c0 .95.31 1.76.93 2.38l.1-.09.09-.1a3 3 0 0 1-.85-2.2 3 3 0 0 1 .85-2.2 2.8 2.8 0 0 1 2.08-.86c.82 0 1.5.29 2.08.86a3 3 0 0 1 .85 2.2 3 3 0 0 1-.85 2.2 2.8 2.8 0 0 1-2.08.87 2.8 2.8 0 0 1-2.08-.86l-.1.09Zm5.11.67-.1-.1a3.8 3.8 0 0 1-2.83 1.18 3.96 3.96 0 0 1-3.98-4.05 3.96 3.96 0 0 1 3.98-4.04c1.13 0 2.06.39 2.83 1.18a3.95 3.95 0 0 1 1.14 2.86c0 1.14-.37 2.1-1.14 2.88l.1.09.1.1a4.23 4.23 0 0 0 1.21-3.07 4.23 4.23 0 0 0-4.24-4.3 4.23 4.23 0 0 0-4.25 4.31 4.23 4.23 0 0 0 4.25 4.3c1.2 0 2.22-.41 3.03-1.25l-.1-.1Zm6.41.05h2.07c.4 0 .71-.14.96-.41.24-.28.37-.58.37-.9 0-.34-.13-.64-.38-.9a1.3 1.3 0 0 0-1-.42h-2.02v2.63Zm0-3.59h1.87c.38 0 .7-.12.93-.38.23-.26.35-.54.35-.85 0-.3-.11-.58-.34-.83a1.15 1.15 0 0 0-.9-.38h-1.91v2.44Zm-1.03 4.57v-8h2.9c.62 0 1.16.21 1.62.62a2.01 2.01 0 0 1 .4 2.57 2 2 0 0 1-.8.66v.04c.4.14.72.37.98.7.25.32.38.7.38 1.13 0 .66-.24 1.2-.73 1.63-.48.44-1.04.65-1.7.65h-3.05Z" fill="#fff"/>
  <path d="M123.82 16.35v.13h2.07c.42 0 .79-.15 1.06-.46.26-.29.4-.63.4-.99s-.14-.7-.42-.99c-.27-.3-.65-.45-1.09-.45h-2.16v2.9h.14v-.14h.13v-2.5h1.9c.37 0 .66.13.89.37.23.26.34.52.34.81 0 .3-.1.56-.33.82-.22.25-.5.37-.86.37h-2.07v.13Zm0-3.59v.14h1.87a1.37 1.37 0 0 0 1.41-1.37c0-.33-.13-.65-.37-.92-.25-.29-.6-.43-1-.43h-2.05v2.72h.14v-.14h.13v-2.31h1.78a1 1 0 0 1 .8.34c.2.23.3.47.3.74s-.1.52-.31.76c-.21.23-.48.34-.83.34h-1.87v.13Zm-1.03 4.57h.13V9.47h2.77c.6 0 1.1.19 1.53.58.44.4.64.87.64 1.46 0 .36-.09.66-.27.93a1.7 1.7 0 0 1-.73.62l-.08.03v.23l.1.03c.36.12.66.34.9.65.24.3.35.65.35 1.05 0 .63-.22 1.13-.67 1.54-.46.4-1 .6-1.62.61h-3.05v.27h3.05c.69 0 1.3-.23 1.8-.69a2.25 2.25 0 0 0 .36-2.95c-.28-.34-.63-.6-1.04-.73l-.04.12h.13v-.04h-.13l.05.12c.35-.16.63-.4.84-.7.22-.32.32-.69.32-1.09 0-.66-.24-1.22-.73-1.66a2.48 2.48 0 0 0-1.72-.65h-3.02v8.27h.13v-.14Z" fill="#fff"/>
</svg>
