<svg xmlns="http://www.w3.org/2000/svg" viewBox="0 0 239 70.9">
  <rect x="-.1" width="239.2" height="70.9" rx="8.9" ry="8.9"/>
  <path d="M120.6 38.5c-4.1 0-7.5 3.2-7.5 7.6s3.4 7.5 7.5 7.5 7.6-3.2 7.6-7.5-3.4-7.6-7.6-7.6Zm0 12.1c-2.3 0-4.2-1.8-4.2-4.5s2-4.6 4.2-4.6 4.3 1.9 4.3 4.6-2 4.5-4.3 4.5Zm-16.5-12c-4.2 0-7.6 3.1-7.6 7.5s3.4 7.5 7.6 7.5 7.6-3.2 7.6-7.5-3.4-7.6-7.6-7.6Zm0 12c-2.3 0-4.3-1.8-4.3-4.5s2-4.6 4.3-4.6 4.3 1.9 4.3 4.6-2 4.5-4.3 4.5Zm-19.6-9.8V44H92a6.6 6.6 0 0 1-1.7 4 7.8 7.8 0 0 1-6 2.4 8.4 8.4 0 0 1-8.3-8.5 8.4 8.4 0 0 1 14.1-6.2l2.3-2.3c-2-1.8-4.5-3.2-8-3.2-6.5 0-12 5.3-12 11.7s5.5 11.7 12 11.7c3.5 0 6-1 8.1-3.2 2.1-2.1 2.8-5.1 2.8-7.5 0-.8 0-1.5-.2-2H84.5Zm80.3 2.5c-.7-1.6-2.6-4.8-6.5-4.8s-7.1 3-7.1 7.6c0 4.2 3.2 7.5 7.5 7.5 3.4 0 5.4-2.1 6.3-3.3l-2.6-1.8c-.9 1.3-2 2.1-3.7 2.1s-3-.7-3.7-2.3l10.1-4.1-.3-.9ZM154.4 46a4 4 0 0 1 3.9-4.4c1.3 0 2.4.6 2.8 1.6l-6.7 2.8Zm-8.2 7.3h3.3V31h-3.3v22.1Zm-5.4-13h-.1a5.2 5.2 0 0 0-4-1.7c-3.8 0-7.3 3.3-7.3 7.6s3.5 7.5 7.3 7.5c1.8 0 3.2-.8 4-1.7v1c0 3-1.5 4.5-4 4.5-2 0-3.2-1.4-3.8-2.7l-2.8 1.2c.8 2 3 4.5 6.6 4.5 4 0 7.2-2.3 7.2-7.9V39h-3.1v1.2ZM137 50.6c-2.3 0-4.2-1.9-4.2-4.5s1.9-4.6 4.2-4.6 4 2 4 4.6-1.8 4.5-4 4.5ZM180.3 31h-8v22.1h3.4v-8.4h4.6c3.7 0 7.2-2.6 7.2-6.8S184 31 180.3 31Zm0 10.7h-4.7V34h4.7c2.5 0 4 2 4 3.8s-1.5 3.8-4 3.8Zm20.5-3.2c-2.4 0-4.9 1-6 3.4l3 1.2c.6-1.2 1.8-1.6 3-1.6 1.7 0 3.5 1 3.5 2.8v.3c-.6-.4-1.9-.9-3.5-.9-3.1 0-6.3 1.7-6.3 5 0 3 2.6 4.8 5.5 4.8 2.2 0 3.4-1 4.2-2.1V53h3.3v-8.5c0-4-3-6.1-6.7-6.1Zm-.4 12.1c-1.1 0-2.6-.5-2.6-1.8 0-1.7 1.9-2.4 3.5-2.4 1.4 0 2.1.3 3 .7a4 4 0 0 1-4 3.5ZM219 39l-3.8 9.6-4-9.6h-3.6l6 13.4-3.4 7.5h3.4l9.1-21H219Zm-29.7 14h3.4V31h-3.3v22.1Z" style="fill:#fff"/>
  <path d="m36.6 34.4-18.9 20a5 5 0 0 0 7.6 3l21.2-12.2-10-10.8h.1Z" style="fill:#ea4335"/>
  <path d="m55.7 31-9.2-5.3-10.3 9.2 10.3 10.3 9.2-5.2c1.5-1 2.6-2.6 2.6-4.5s-1-3.6-2.6-4.5Z" style="fill:#fbbc04"/>
  <path d="m17.7 16.4-.1 1.4V53l.1 1.3L37.2 35 17.7 16.4Z" style="fill:#4285f4"/>
  <path d="m36.7 35.4 9.8-9.7-21.2-12.3a5.1 5.1 0 0 0-7.6 3l19 19Z" style="fill:#34a853"/>
  <path d="M74.5 25.3h-1.3v-3.6h1c1-.8 1.4-2.1 1.4-4v-5.3h7v9.3H84v3.6h-1.3V23h-8v2.3Zm2.5-7.6a7 7 0 0 1-1 4h5.3v-8H77v4Zm17.5 3.9c-1 1.1-2.3 1.7-3.9 1.7s-2.8-.6-3.9-1.7-1.5-2.3-1.5-3.9.5-2.9 1.5-4c1-1 2.4-1.5 4-1.5s2.7.5 3.8 1.6c1 1 1.6 2.4 1.6 4s-.5 2.8-1.6 3.8Zm-6.8-.8c.8.8 1.8 1.2 3 1.2s2-.4 2.8-1.2c.8-.8 1.2-1.8 1.2-3s-.4-2.3-1.2-3.1c-.8-.8-1.7-1.2-2.9-1.2s-2 .4-2.9 1.2c-.7.8-1.2 1.8-1.2 3s.4 2.3 1.2 3Zm15.3 2.5c-1.6 0-2.9-.6-4-1.6s-1.6-2.4-1.6-4 .6-3 1.6-4 2.4-1.6 4-1.6 2.9.6 3.9 1.8l-1 .9a3.6 3.6 0 0 0-3-1.3 4 4 0 0 0-2.9 1.1c-.8.8-1.2 1.8-1.2 3s.4 2.4 1.2 3.1a4 4 0 0 0 3 1.2c1.2 0 2.3-.5 3.2-1.5l1 1a5.6 5.6 0 0 1-4.2 1.9Zm9.7-.3h-1.4v-9.3h-3v-1.3h7.4v1.3h-3V23ZM125 12.4l-4 9c-.5 1.2-1.3 1.9-2.4 1.9-.4 0-.7-.1-1.1-.3l.3-1.2.8.2c.3 0 .5 0 .7-.2l.5-.7.4-.8-3.6-7.9h1.6l2.6 6.1 2.6-6h1.6v-.1Zm1.6 10.6V12.4h7.7V23h-1.4v-9.3h-5V23h-1.3Zm10.1 0V12.4h1.4v4.5h5.3v-4.5h1.4V23h-1.4v-4.8H138V23h-1.4Zm19.3-1.4a5.4 5.4 0 0 1-7.9 0c-1.1-1.1-1.6-2.3-1.6-3.9s.6-2.9 1.6-4c1-1 2.3-1.5 4-1.5s2.7.5 3.8 1.6c1 1 1.6 2.4 1.6 4s-.5 2.8-1.6 3.8Zm-6.9-.8c.8.8 1.8 1.2 3 1.2s2-.4 2.8-1.2c.8-.8 1.2-1.8 1.2-3s-.4-2.3-1.2-3.1c-.8-.8-1.8-1.2-2.9-1.2s-2.1.4-2.9 1.2c-.8.8-1.2 1.8-1.2 3s.4 2.3 1.2 3ZM163 23V12.4h3.9c.8 0 1.6.3 2.2.8.6.6.9 1.3.9 2 0 .6-.2 1-.4 1.4-.3.4-.6.7-1 .9a2.6 2.6 0 0 1 1.7 2.5c0 .8-.3 1.6-1 2.1s-1.3.9-2.2.9h-4Zm1.4-6h2.5a1.7 1.7 0 0 0 1.7-1.7c0-.4-.1-.8-.5-1.1-.3-.3-.7-.5-1.2-.5h-2.5v3.2Zm0 4.7h2.8c.5 0 1-.2 1.2-.5s.5-.8.5-1.2-.1-.9-.5-1.2c-.3-.4-.7-.6-1.3-.6h-2.7v3.5Z" style="stroke:#fff;stroke-miterlimit:10;stroke-width:.2px;fill:#fff"/>
</svg>
