<svg width="270" height="80" fill="none" xmlns="http://www.w3.org/2000/svg">
  <g clip-path="url(#a)">
    <mask id="b" style="mask-type:luminance" maskUnits="userSpaceOnUse" x="0" y="0" width="270" height="81">
      <path d="M0 0h270v80H0V0Z" fill="#fff"/>
    </mask>
    <g mask="url(#b)">
      <path d="M260 80H10A10 10 0 0 1 0 70V10A10 10 0 0 1 10 0h250a10 10 0 0 1 10 10v60a10 10 0 0 1-10 10Z" fill="#000"/>
    </g>
    <mask id="c" style="mask-type:luminance" maskUnits="userSpaceOnUse" x="0" y="0" width="270" height="81">
      <path d="M0 0h270v80H0V0Z" fill="#fff"/>
    </mask>
    <g mask="url(#c)">
      <path d="M41.4 38.9 20.1 61.5a5.7 5.7 0 0 0 8.5 3.4l24-13.8-11.2-12.2Z" fill="#EA4335"/>
    </g>
    <mask id="d" style="mask-type:luminance" maskUnits="userSpaceOnUse" x="0" y="0" width="270" height="81">
      <path d="M0 0h270v80H0V0Z" fill="#fff"/>
    </mask>
    <g mask="url(#d)">
      <path d="m63 35-10.4-6L41 39.4 52.7 51l10.2-6a5.8 5.8 0 0 0 .1-10Z" fill="#FBBC04"/>
    </g>
    <mask id="e" style="mask-type:luminance" maskUnits="userSpaceOnUse" x="0" y="0" width="270" height="81">
      <path d="M0 0h270v80H0V0Z" fill="#fff"/>
    </mask>
    <g mask="url(#e)">
      <path d="M20.1 18.6 20 20v40l.2 1.5 22-22-22-21Z" fill="#4285F4"/>
    </g>
    <mask id="f" style="mask-type:luminance" maskUnits="userSpaceOnUse" x="0" y="0" width="270" height="81">
      <path d="M0 0h270v80H0V0Z" fill="#fff"/>
    </mask>
    <g mask="url(#f)">
      <path d="m41.6 40 11-11-24-13.9a5.8 5.8 0 0 0-8.5 3.5L41.6 40Z" fill="#34A853"/>
    </g>
    <path d="M83.6 13.8h2V19h5.7v-5.2h2v12.5h-2v-5.5h-5.8v5.5h-2V13.8Zm16.2 0h2.3l4.6 12.5h-2.1l-1.1-3.2h-5l-1.2 3.2H95l4.7-12.5Zm3 7.5-1.3-3.7-.5-1.5h-.1l-.5 1.5-1.3 3.7h3.7Zm5.8-7.5h7.6v1.9h-5.6v3.2h2.8a4.6 4.6 0 0 1 3.5 1.7 4.2 4.2 0 0 1 0 4c-.4.5-.9 1-1.5 1.2-.6.3-1.3.5-2 .5h-4.8V13.8Zm4.9 10.6c.6 0 1-.1 1.4-.5.4-.4.5-.8.5-1.3s-.1-1-.5-1.3c-.3-.4-.8-.6-1.4-.6h-3v3.7h3Zm9.7-10.6h2.2l4.6 12.5h-2l-1.1-3.2h-5l-1.2 3.2h-2.1l4.7-12.5Zm3 7.5-1.4-3.7-.5-1.5-.6 1.5-1.3 3.7h3.7Zm5.8-7.5h4.6a4 4 0 0 1 1.9.5 3.3 3.3 0 0 1 1.8 2.8 2.8 2.8 0 0 1-1.6 2.7 3.1 3.1 0 0 1 1.5 4.8c-.3.5-.8 1-1.4 1.2-.6.3-1.3.5-2 .5H132V13.8Zm4.6 5.2c.5 0 1-.1 1.3-.5a1.7 1.7 0 0 0 0-2.4c-.3-.3-.8-.5-1.3-.5H134V19h2.7Zm.2 5.5c.6 0 1-.2 1.4-.6a1.8 1.8 0 0 0 0-2.6 2 2 0 0 0-1.4-.5h-2.9v3.7h3Zm6.3-10.7h2v6.8l-.2 2.4h.1l5.5-9.2h2.3v12.5h-2v-7l.1-2.4-5.7 9.4h-2.1V13.8Zm15.1 1.9h-3.4v-1.9h8.9v1.9h-3.5v10.6h-2V15.7Zm7.5-1.9h7.6v1.9h-5.7V19h5v2h-5v3.4h5.7v1.9h-7.6V13.8Zm14 0h2V19h5.8v-5.2h1.9v12.5h-2v-5.5h-5.7v5.5h-2V13.8Zm16.3 0h2.2l4.7 12.5h-2.2l-1-3.2h-5.1l-1.2 3.2h-2.1l4.7-12.5Zm3 7.5-1.4-3.7-.5-1.5-.6 1.5-1.3 3.7h3.8ZM89 58.1a10.1 10.1 0 0 1-8.8-4.9 10 10 0 0 1-1.4-5.1 9.9 9.9 0 0 1 5-8.8 10.5 10.5 0 0 1 9.2-.5 9 9 0 0 1 3.2 2.1L94 43a6.3 6.3 0 0 0-2.3-1.6c-.8-.4-1.8-.6-2.9-.6-1.2 0-2.4.3-3.5 1-1 .5-2 1.4-2.6 2.5-.6 1-1 2.3-1 3.8a7.3 7.3 0 0 0 3.6 6.3c1.1.6 2.3.9 3.6.9a7 7 0 0 0 5-2l1-1.4.5-2h-6.6v-2.7h9.4l.2 1.6c0 1.2-.2 2.4-.6 3.5-.4 1.2-1 2.1-1.8 3a9.4 9.4 0 0 1-7 2.7Zm19 0c-1.4 0-2.7-.3-3.8-.9-1-.6-2-1.5-2.6-2.6a7.9 7.9 0 0 1 .1-7.5c.6-1.1 1.4-2 2.5-2.6 1.1-.7 2.4-1 3.7-1a7.1 7.1 0 0 1 7.3 7.3 8 8 0 0 1-1 3.8c-.6 1.1-1.4 2-2.5 2.6a8 8 0 0 1-3.8 1Zm0-2.7a4.2 4.2 0 0 0 3.6-2.1 5 5 0 0 0 .6-2.5c0-1-.2-1.7-.6-2.4a4 4 0 0 0-1.6-1.6 4.2 4.2 0 0 0-5.7 1.6c-.4.7-.6 1.5-.6 2.4a4.6 4.6 0 0 0 2.1 4.1 4 4 0 0 0 2.1.5Zm16.3 2.7a6.8 6.8 0 0 1-6.3-3.6c-.6-1-.9-2.3-.9-3.7 0-1.3.3-2.6 1-3.7.5-1.1 1.4-2 2.5-2.6 1-.7 2.3-1 3.7-1a7.1 7.1 0 0 1 7.2 7.3c0 1.4-.3 2.7-.9 3.8a7 7 0 0 1-6.3 3.6Zm0-2.7a4.2 4.2 0 0 0 3.7-2.1 5 5 0 0 0 .6-2.5c0-1-.2-1.7-.6-2.4a4 4 0 0 0-1.6-1.6 4.2 4.2 0 0 0-5.7 1.6c-.4.7-.6 1.5-.6 2.4a4.6 4.6 0 0 0 2.1 4.1 4 4 0 0 0 2.1.5Zm16.2 8.6c-1.7 0-3.1-.4-4.3-1.2a5.7 5.7 0 0 1-2.2-2.7l2.8-1.2c.3.7.8 1.3 1.4 1.8a4 4 0 0 0 2.3.6 4 4 0 0 0 2.9-1.1c.7-.8 1-1.8 1-3.2v-1.2a5.8 5.8 0 0 1-7.7 1.1c-1-.5-1.8-1.4-2.3-2.5a7.8 7.8 0 0 1 0-7.5c.5-1 1.3-1.9 2.3-2.5a6 6 0 0 1 5.8-.3c.8.4 1.4.9 1.8 1.5h.2V44h2.8v13c0 1.6-.3 2.8-.9 3.9-.5 1-1.3 1.8-2.4 2.4-1 .5-2.2.8-3.5.8Zm0-8.8a4 4 0 0 0 2-.5c.6-.4 1-1 1.4-1.6.4-.7.6-1.5.6-2.4 0-1.4-.4-2.5-1.2-3.3a3.8 3.8 0 0 0-2.8-1.2 4 4 0 0 0-2 .6c-.7.3-1.1.8-1.5 1.5a5 5 0 0 0-.5 2.4c0 1 .1 1.7.5 2.4s.8 1.2 1.5 1.6c.6.3 1.3.5 2 .5Zm10.3-16.8h3v19.3h-3V38.4Zm12.8 19.7a6.7 6.7 0 0 1-6.2-3.5c-.6-1-.9-2.3-.9-3.6 0-1.4.3-2.6 1-3.7a6.6 6.6 0 0 1 5.8-3.4c1.6 0 3 .5 4 1.4 1 1 1.6 2 2 3.1l.4.8-9.6 4a3.7 3.7 0 0 0 3.5 2.2c1.4 0 2.6-.7 3.5-2l2.4 1.6a8 8 0 0 1-2.3 2.2 7 7 0 0 1-3.6 1Zm2.4-10c-.2-.4-.5-.7-1-1a3 3 0 0 0-1.6-.4 3 3 0 0 0-1.8.5 3.8 3.8 0 0 0-2 3.6l6.4-2.6Zm12.2-9.7h6.7a6.5 6.5 0 0 1 5.4 2.9c.6.9 1 1.9 1 3s-.4 2.2-1 3a6 6 0 0 1-2.3 2.2c-1 .5-2 .7-3.1.7h-3.7v7.5h-3V38.4Zm6.8 9c.6 0 1.2-.2 1.7-.5a3 3 0 0 0 1-1.1c.4-.5.5-1 .5-1.5s-.1-1-.4-1.5c-.3-.4-.6-.8-1.1-1-.5-.4-1-.5-1.7-.5h-3.8v6h3.8Zm8.6-9h3v19.3h-3V38.4ZM204.4 58a6 6 0 0 1-2.7-.5 4.4 4.4 0 0 1-2.4-4.1 4 4 0 0 1 1.6-3.4c1-.8 2.4-1.2 4-1.2a9.5 9.5 0 0 1 3.8.7V49c0-.8-.3-1.5-1-2-.6-.6-1.4-.8-2.4-.8-.7 0-1.4.1-2 .4a4 4 0 0 0-1.5 1.3l-2-1.6c.6-.9 1.3-1.5 2.3-2 1-.4 2-.7 3.3-.7 2 0 3.5.5 4.6 1.5 1 1 1.6 2.4 1.6 4.1v8.6h-3v-1.6c-.5.6-1 1-1.7 1.5a7 7 0 0 1-2.5.5Zm.5-2.4a3.7 3.7 0 0 0 3.8-3.8l-1.5-.5c-.5-.2-1.1-.2-1.7-.2-1.1 0-2 .2-2.4.6-.6.5-.8 1-.8 1.7s.2 1.2.7 1.6c.5.4 1.1.6 1.9.6Zm13.5 1.3-5.7-13h3.4l3.8 9.3h.1l3.8-9.4h3.3l-8.5 19.7h-3.1l3-6.6Zm10-9h8.8v2.6h-8.9V48Zm15.9 9-5.7-13h3.3l3.9 9.3 3.9-9.4h3.2l-8.5 19.7h-3l2.9-6.6Z" fill="#fff"/>
  </g>
  <defs>
    <clipPath id="a">
      <path fill="#fff" d="M0 0h270v80H0z"/>
    </clipPath>
  </defs>
</svg>
