<svg width="180" height="54" fill="none" xmlns="http://www.w3.org/2000/svg">
  <path d="M173.33 54H6.67A6.73 6.73 0 0 1 0 47.25V6.75C0 3.04 3 0 6.67 0h166.66A6.73 6.73 0 0 1 180 6.75v40.5c0 3.71-3 6.75-6.67 6.75Z" fill="#000"/>
  <path d="m27.63 26.22-14.2 15.26a3.84 3.84 0 0 0 5.65 2.35l.05-.03 15.97-9.33-7.48-8.25Z" fill="#EA4335"/>
  <path d="m41.98 23.63-.01-.02-6.9-4.05-7.77 7 7.8 7.9 6.86-4a3.89 3.89 0 0 0 2.02-3.43c0-1.47-.8-2.75-2-3.4Z" fill="#FBBC04"/>
  <path d="M13.43 12.52a3.7 3.7 0 0 0-.13 1v26.96c0 .35.04.68.13 1L28.1 26.62l-14.68-14.1Z" fill="#4285F4"/>
  <path d="m27.73 27 7.34-7.44-15.96-9.37a3.85 3.85 0 0 0-5.69 2.33L27.73 27Z" fill="#34A853"/>
  <path d="M131.52 32h2.17V17.43h-2.17V32Zm19.59-9.32L148.6 29h-.07l-2.59-6.32h-2.34l3.88 8.83-2.21 4.9h2.27l5.97-13.73h-2.41Zm-12.34 7.67c-.7 0-1.7-.36-1.7-1.24 0-1.13 1.24-1.56 2.3-1.56.96 0 1.41.2 1.99.49a2.64 2.64 0 0 1-2.59 2.3Zm.27-7.99c-1.58 0-3.2.7-3.88 2.23l1.93.8c.4-.8 1.18-1.06 1.98-1.06 1.13 0 2.27.67 2.29 1.87v.15a4.8 4.8 0 0 0-2.27-.56c-2.08 0-4.2 1.14-4.2 3.28 0 1.95 1.71 3.2 3.62 3.2 1.46 0 2.27-.65 2.78-1.42h.07v1.13h2.1v-5.59c0-2.59-1.93-4.03-4.42-4.03Zm-13.44 2.1h-3.1v-5h3.1a2.52 2.52 0 0 1 2.55 2.5c0 1.12-.93 2.5-2.55 2.5Zm-.06-7.03h-5.21V32h2.17v-5.52h3.04c2.41 0 4.78-1.75 4.78-4.52 0-2.78-2.37-4.53-4.78-4.53ZM97.13 30.35c-1.5 0-2.76-1.26-2.76-2.99 0-1.74 1.25-3.02 2.76-3.02 1.48 0 2.64 1.28 2.64 3.02 0 1.73-1.16 2.99-2.64 2.99Zm2.5-6.86h-.08a3.43 3.43 0 0 0-2.61-1.1 4.93 4.93 0 0 0-4.75 4.97 4.9 4.9 0 0 0 4.75 4.94c1.18 0 2.12-.52 2.6-1.13h.08v.72c0 1.9-1.01 2.9-2.64 2.9a2.74 2.74 0 0 1-2.5-1.76l-1.9.8a4.72 4.72 0 0 0 4.4 2.92c2.55 0 4.7-1.5 4.7-5.16v-8.9h-2.06v.8Zm3.56 8.51h2.18V17.43h-2.18V32Zm5.39-4.8a2.72 2.72 0 0 1 2.59-2.9c.86 0 1.6.43 1.84 1.05l-4.43 1.84Zm6.76-1.66c-.42-1.1-1.67-3.15-4.25-3.15-2.55 0-4.67 2-4.67 4.95 0 2.78 2.1 4.96 4.92 4.96a4.93 4.93 0 0 0 4.13-2.2l-1.69-1.12a2.83 2.83 0 0 1-2.44 1.37c-1.1 0-1.9-.5-2.4-1.5l6.62-2.75-.22-.56Zm-52.8-1.63V26h5.03a4.38 4.38 0 0 1-1.15 2.65 5.15 5.15 0 0 1-3.89 1.54c-3.1 0-5.52-2.5-5.52-5.6a5.52 5.52 0 0 1 9.32-4.1l1.48-1.47a7.34 7.34 0 0 0-5.28-2.13 7.8 7.8 0 0 0-7.8 7.7 7.8 7.8 0 0 0 7.8 7.7c2.3 0 4.02-.75 5.37-2.16a6.95 6.95 0 0 0 1.82-4.92c0-.49-.03-.94-.1-1.31h-7.09Zm12.9 6.44c-1.5 0-2.8-1.24-2.8-3 0-1.79 1.3-3.01 2.8-3.01 1.5 0 2.8 1.22 2.8 3 0 1.77-1.3 3-2.8 3Zm0-7.96a4.89 4.89 0 0 0-4.97 4.95 4.9 4.9 0 0 0 4.98 4.96 4.9 4.9 0 0 0 4.97-4.96 4.89 4.89 0 0 0-4.97-4.95Zm10.86 7.96c-1.5 0-2.8-1.24-2.8-3 0-1.79 1.3-3.01 2.8-3.01 1.5 0 2.8 1.22 2.8 3 0 1.77-1.3 3-2.8 3Zm0-7.96a4.89 4.89 0 0 0-4.98 4.95 4.9 4.9 0 0 0 4.98 4.96 4.9 4.9 0 0 0 4.98-4.96 4.89 4.89 0 0 0-4.98-4.95Zm-27.84 21.4h-.09a1 1 0 0 0-.6.15.5.5 0 0 0-.22.43c0 .16.05.28.13.38.1.09.22.13.4.13.18 0 .31-.05.4-.14.09-.1.13-.22.13-.38 0-.21-.05-.4-.15-.57Zm.75.1c.07.17.1.35.1.55 0 .37-.1.65-.3.84-.22.19-.52.28-.91.28-.4 0-.72-.1-.95-.33a1.17 1.17 0 0 1-.34-.88c0-.38.15-.67.45-.9.3-.22.69-.33 1.18-.33.73 0 1.3.18 1.73.53.42.36.62.82.62 1.4 0 .69-.23 1.22-.7 1.6-.46.39-1.13.58-2.01.58a3.8 3.8 0 0 1-1.73-.36 2.42 2.42 0 0 1-1.08-1.02 3.13 3.13 0 0 1-.36-1.52c0-.58.14-1.1.42-1.55.27-.45.66-.8 1.17-1.04.5-.24 1.08-.37 1.73-.37a6.35 6.35 0 0 1 2.53.45l-.27.7a5.3 5.3 0 0 0-2.28-.43c-.78 0-1.4.2-1.86.58-.46.4-.69.95-.69 1.68 0 .65.2 1.17.6 1.56.4.39 1 .58 1.76.58.67 0 1.18-.12 1.52-.35.34-.24.51-.59.51-1.05 0-.3-.07-.55-.2-.76-.15-.2-.36-.34-.64-.44Z" fill="#fff"/>
  <path d="M58.46 43.79v-.14h-.09c-.28 0-.51.06-.69.18a.63.63 0 0 0-.26.54c0 .18.05.35.17.47.12.12.3.18.49.18.2 0 .38-.06.5-.19a.68.68 0 0 0 .16-.47c0-.23-.05-.45-.16-.64l-.04-.07h-.08v.14l-.11.06c.08.15.13.32.13.5 0 .14-.04.23-.1.3-.05.06-.15.1-.3.1s-.24-.04-.3-.1l-.1.1.1-.1c-.06-.06-.1-.14-.1-.28 0-.15.05-.24.16-.32.1-.08.28-.13.53-.13h.1v-.13Zm.75.1-.12.05c.06.15.09.31.09.5 0 .34-.1.58-.27.74-.17.16-.44.25-.81.25-.38 0-.65-.1-.85-.3-.2-.18-.3-.43-.3-.78a.9.9 0 0 1 .39-.79c.26-.2.63-.3 1.1-.3.71 0 1.25.17 1.64.5.4.33.58.74.58 1.28 0 .67-.22 1.16-.65 1.51-.43.36-1.07.54-1.93.54-.67 0-1.22-.11-1.67-.34a2.3 2.3 0 0 1-1.02-.97 3 3 0 0 1-.35-1.45c0-.56.14-1.05.4-1.48.26-.43.63-.76 1.11-.99a3.8 3.8 0 0 1 1.68-.35 5.59 5.59 0 0 1 2.48.43l.05-.12-.13-.05-.26.7.12.05.05-.12a5.46 5.46 0 0 0-2.33-.45c-.8 0-1.46.2-1.95.62s-.73 1.02-.73 1.78c0 .68.21 1.24.64 1.66.44.41 1.06.62 1.85.62a2.8 2.8 0 0 0 1.6-.39c.37-.25.57-.66.57-1.15 0-.32-.08-.6-.24-.83-.16-.23-.4-.4-.7-.5l-.27-.1.1.28.13-.05-.04.12c.26.1.44.23.56.4.13.18.19.4.19.68 0 .43-.15.72-.46.94-.3.21-.78.33-1.44.33-.75 0-1.3-.19-1.66-.54a1.94 1.94 0 0 1-.56-1.47c0-.7.21-1.21.64-1.58a2.63 2.63 0 0 1 1.77-.55 5.13 5.13 0 0 1 2.23.42l.13.06.31-.83.05-.13-.12-.04a5.84 5.84 0 0 0-1.18-.35c-.4-.07-.87-.1-1.4-.1-.67 0-1.27.12-1.8.37-.52.25-.93.62-1.22 1.1a3.03 3.03 0 0 0-.43 1.6c0 .6.12 1.13.38 1.6.25.46.63.82 1.13 1.07.5.25 1.1.37 1.79.37.9 0 1.6-.2 2.1-.6.5-.4.75-1 .75-1.72 0-.6-.23-1.11-.68-1.49a2.72 2.72 0 0 0-1.81-.56 2 2 0 0 0-1.26.36c-.33.24-.5.59-.5 1 0 .4.13.74.38.98.26.25.61.37 1.04.37.41 0 .75-.1 1-.32.23-.22.35-.55.34-.94 0-.22-.03-.42-.1-.6l-.13.05ZM69 42.8c0 .89-.18 1.67-.51 2.35-.34.68-.83 1.2-1.48 1.55a4.8 4.8 0 0 1-2.34.53c-.69 0-1.28-.11-1.79-.33a2.5 2.5 0 0 1-1.54-2.37c0-.42.11-.8.33-1.11.23-.32.55-.57.97-.74.42-.18.99-.27 1.7-.27H65c-.02-.3-.11-.53-.28-.7a.93.93 0 0 0-.68-.24c-.53 0-.79.2-.79.61l.03.22-.73.12a2.54 2.54 0 0 1-.05-.43c0-.38.13-.68.4-.89.25-.2.62-.3 1.09-.3.55 0 .98.15 1.29.47.3.32.45.8.45 1.4v.43h-1.34c-.59 0-1.04.05-1.35.16-.31.11-.54.27-.7.48-.15.2-.23.48-.23.8 0 .6.23 1.09.68 1.43.46.35 1.09.52 1.9.52a3.9 3.9 0 0 0 1.9-.43c.52-.29.93-.71 1.21-1.28a4.4 4.4 0 0 0 .42-1.98 4.2 4.2 0 0 0-.42-1.96 2.84 2.84 0 0 0-1.22-1.22 3.75 3.75 0 0 0-1.77-.42 5.93 5.93 0 0 0-3.02.83l-.34-.68a6.82 6.82 0 0 1 3.37-.88 5 5 0 0 1 1.58.25c.49.16.93.42 1.33.77.4.34.7.8.93 1.36.23.56.34 1.21.34 1.95Z" fill="#fff"/>
  <path d="M69 42.8h-.14c0 .87-.17 1.64-.49 2.3-.32.64-.8 1.14-1.42 1.48-.63.34-1.38.51-2.28.51-.67 0-1.25-.1-1.73-.31a2.4 2.4 0 0 1-1.1-.9 2.45 2.45 0 0 1-.36-1.35c0-.4.1-.74.3-1.03a2 2 0 0 1 .91-.7c.4-.16.95-.25 1.66-.25h.78v-.14a1.2 1.2 0 0 0-.32-.79 1.1 1.1 0 0 0-.78-.28c-.28 0-.5.05-.67.18a.68.68 0 0 0-.25.56v.01l.01.1-.6.1.02.13.13-.02c-.03-.17-.04-.3-.04-.4 0-.36.1-.6.34-.8.23-.18.56-.28 1-.28.54 0 .93.15 1.2.44.27.3.42.72.42 1.32v.28h-1.21c-.6 0-1.06.06-1.4.17-.32.12-.58.3-.76.53a1.5 1.5 0 0 0-.25.88c0 .64.24 1.17.73 1.54a3.2 3.2 0 0 0 1.97.55c.76 0 1.42-.15 1.97-.45a3 3 0 0 0 1.27-1.34c.3-.59.44-1.27.44-2.04a4.3 4.3 0 0 0-.44-2.02c-.3-.56-.72-1-1.27-1.28a3.88 3.88 0 0 0-1.84-.43 6.04 6.04 0 0 0-3.1.85l.08.11.12-.06-.34-.68-.12.06.06.12a6.68 6.68 0 0 1 3.3-.86c.56 0 1.07.08 1.55.24a3.38 3.38 0 0 1 2.18 2.05 5 5 0 0 1 .33 1.9h.26c0-.75-.11-1.42-.34-2a3.65 3.65 0 0 0-2.35-2.2 5.13 5.13 0 0 0-1.62-.26c-1.22 0-2.37.3-3.44.9l-.1.06.39.8.06.12.12-.07a5.83 5.83 0 0 1 2.96-.82c.64 0 1.2.14 1.71.4.5.27.9.66 1.16 1.17.27.51.41 1.14.41 1.9 0 .74-.14 1.38-.4 1.92-.28.55-.66.95-1.17 1.22a3.7 3.7 0 0 1-1.84.42c-.78 0-1.38-.17-1.8-.5a1.56 1.56 0 0 1-.64-1.32c0-.3.07-.54.2-.72.14-.19.35-.33.64-.43.3-.1.73-.16 1.31-.16h1.47v-.55c0-.64-.15-1.15-.48-1.5a1.86 1.86 0 0 0-1.4-.52c-.48 0-.88.1-1.17.34-.3.23-.44.58-.44 1 0 .12.02.27.05.44l.02.13.86-.14.13-.02-.05-.35-.13.02h.13c0-.17.05-.28.15-.35.1-.08.26-.13.51-.13a.8.8 0 0 1 .59.21c.14.14.22.33.24.61h.13v-.14h-.64a4.7 4.7 0 0 0-1.76.27c-.44.19-.79.45-1.02.8-.24.34-.36.73-.36 1.18 0 .57.14 1.07.41 1.5.28.43.69.76 1.21.99a4.6 4.6 0 0 0 1.84.34c.93 0 1.74-.18 2.4-.55a3.6 3.6 0 0 0 1.54-1.6c.34-.7.51-1.5.51-2.41H69Zm2.64.69c-.3.34-.57.68-.8 1l.35.03c-.04.15-.06.32-.06.5 0 .49.16.85.49 1.1.32.25.8.37 1.43.37.7 0 1.22-.15 1.56-.45.35-.3.52-.72.52-1.27 0-.52-.16-.91-.48-1.18a2.1 2.1 0 0 0-1.38-.4 4.65 4.65 0 0 0-1.63.3Zm6.98.67c0 .61-.1 1.14-.32 1.6a2.35 2.35 0 0 1-2.23 1.38c-.21 0-.37 0-.48-.03l.04-.7c.15.02.27.02.36.02.4 0 .74-.09 1.02-.27.27-.18.48-.44.62-.8.14-.34.21-.77.21-1.26 0-.82-.23-1.45-.7-1.9a2.68 2.68 0 0 0-1.94-.68c-.47 0-.94.1-1.4.28a4.7 4.7 0 0 0-1.34.82c.28-.1.61-.14 1-.14.76 0 1.36.2 1.79.59.43.4.64.96.64 1.69 0 .8-.24 1.41-.73 1.84-.48.42-1.2.63-2.14.63-.8 0-1.44-.18-1.9-.54a1.91 1.91 0 0 1-.67-1.57v-.13l-.38.64-.65-.37a19.7 19.7 0 0 1 2.27-2.83c-.13-.5-.38-.75-.75-.75-.2 0-.36.06-.48.17-.12.11-.17.29-.17.52l.02.27.09.3-.73.16a2.63 2.63 0 0 1-.13-.81c0-.4.12-.72.37-.95.25-.23.58-.34 1.02-.34.61 0 1.05.31 1.31.94.5-.4 1-.7 1.5-.87a4.31 4.31 0 0 1 3.33.13c.5.27.89.66 1.15 1.17.27.52.4 1.1.4 1.79Z" fill="#fff"/>
  <path d="m71.64 43.49-.1-.09c-.3.35-.57.69-.81 1.02l-.14.2.59.04v-.14l-.12-.03a2.2 2.2 0 0 0-.07.54c0 .5.18.93.55 1.2.36.27.86.4 1.5.4.72 0 1.28-.16 1.66-.48.38-.33.57-.8.57-1.38 0-.54-.18-.99-.53-1.28-.36-.3-.85-.44-1.47-.44a4.21 4.21 0 0 0-1.68.31l-.03.02-.02.02.1.09.05.12a3.95 3.95 0 0 1 1.58-.29c.58 0 1 .13 1.3.37.28.24.43.59.43 1.08 0 .53-.16.9-.47 1.17-.31.27-.8.42-1.48.42-.61 0-1.06-.12-1.35-.35-.3-.22-.44-.53-.44-.98 0-.18.02-.34.06-.47l.04-.16-.52-.03v.13l.1.08c.24-.33.5-.66.8-1l-.1-.09Zm6.98.67h-.13c0 .6-.1 1.1-.31 1.54a2.22 2.22 0 0 1-2.1 1.31c-.21 0-.37-.01-.47-.03l-.02.13.13.01.04-.7h-.13v.13l.36.01c.42 0 .79-.09 1.09-.29.3-.2.53-.48.68-.85.15-.37.22-.81.22-1.32 0-.84-.25-1.52-.75-2a2.81 2.81 0 0 0-2.03-.71c-.49 0-.98.1-1.46.29-.48.19-.94.47-1.36.84l-.52.45.65-.22c.26-.1.58-.14.94-.14.75 0 1.31.2 1.71.56.4.36.6.88.6 1.59 0 .77-.23 1.34-.68 1.73-.45.4-1.13.6-2.06.6-.79 0-1.39-.17-1.81-.5-.42-.34-.63-.82-.63-1.47v-.62l-.56.95-.54-.3-.06.11.1.08a19.4 19.4 0 0 1 2.27-2.81l.05-.06-.02-.07c-.13-.53-.44-.86-.88-.85a.8.8 0 0 0-.57.2.86.86 0 0 0-.22.63l.03.27v.01l.09.33.13-.04-.03-.13-.72.15.02.13.13-.05a2.43 2.43 0 0 1-.13-.76c0-.38.11-.65.33-.85.22-.2.52-.3.93-.3.57 0 .94.26 1.19.85l.07.17.14-.12c.49-.39.97-.67 1.45-.85a4.18 4.18 0 0 1 3.22.13c.49.26.85.63 1.1 1.12.26.48.39 1.06.39 1.72h.26c0-.7-.13-1.31-.4-1.85a2.86 2.86 0 0 0-1.22-1.23 4.44 4.44 0 0 0-3.44-.14c-.51.19-1.02.49-1.53.9l.08.1.13-.05c-.27-.67-.78-1.03-1.44-1.03-.46 0-.83.13-1.11.38-.28.25-.42.62-.41 1.05 0 .28.04.56.14.85l.03.11.99-.2-.05-.14a4.1 4.1 0 0 1-.08-.3l-.13.03.13-.01-.02-.27-.13.02h.13c0-.23.05-.36.13-.43.1-.09.21-.13.39-.13.3 0 .49.17.62.64l.13-.03-.09-.1c-.65.63-1.41 1.58-2.3 2.85l-.08.12.9.5.44-.74-.11-.07h-.14v.13c0 .71.25 1.28.73 1.67a3.1 3.1 0 0 0 1.98.57c.96 0 1.71-.21 2.23-.66.52-.45.78-1.12.77-1.94 0-.76-.22-1.37-.68-1.79a2.68 2.68 0 0 0-1.89-.62c-.39 0-.73.05-1.03.15l.04.12.1.1c.4-.35.83-.61 1.28-.8.45-.18.9-.27 1.36-.27.8 0 1.4.22 1.85.64.44.43.66 1.02.66 1.81 0 .48-.07.89-.2 1.22-.14.33-.33.57-.58.73a1.7 1.7 0 0 1-.94.25c-.09 0-.2 0-.35-.02h-.14l-.04.82-.01.12.11.02a2.96 2.96 0 0 0 1.9-.34c.42-.25.74-.62.96-1.09.22-.47.33-1.02.33-1.65h-.13Z" fill="#fff"/>
  <path d="M80.24 40.56c.07-.17.1-.37.1-.6a.94.94 0 0 0-.53-.88c-.36-.19-.9-.29-1.6-.29-.73 0-1.26.1-1.62.3a.95.95 0 0 0-.54.88c0 .22.03.42.1.6l-.7.12a2 2 0 0 1-.15-.75c0-.59.25-1.05.74-1.38a3.9 3.9 0 0 1 2.16-.5c.95 0 1.67.17 2.15.5.5.33.74.78.74 1.37a2 2 0 0 1-.14.76l-.7-.13Z" fill="#fff"/>
  <path d="m80.24 40.56.13.05c.07-.2.1-.41.1-.65.01-.43-.2-.78-.6-1-.39-.2-.94-.3-1.67-.3s-1.29.1-1.68.31c-.4.21-.61.57-.6 1 0 .23.03.45.1.64l.13-.05-.03-.13-.7.12.03.14.12-.05a1.9 1.9 0 0 1-.13-.7c0-.55.22-.96.67-1.27.46-.3 1.16-.47 2.1-.47.92 0 1.62.16 2.07.47.46.3.67.7.67 1.26 0 .26-.04.49-.13.7l.13.05.02-.13-.7-.12-.03.13-.02.13.7.13.1.02.05-.1c.1-.26.15-.52.15-.81a1.7 1.7 0 0 0-.8-1.48 4 4 0 0 0-2.22-.52c-.96 0-1.7.17-2.23.52s-.8.86-.8 1.5c0 .26.05.53.15.78l.04.1.81-.14.16-.02-.06-.15c-.06-.16-.1-.35-.1-.55.01-.35.15-.58.48-.77.33-.18.85-.28 1.55-.28.7 0 1.22.1 1.55.28.32.18.46.41.46.76 0 .21-.03.4-.1.55l-.05.16.16.02.02-.13Zm4.43 2.64c-.2.59-.48 1.02-.85 1.3-.38.28-.89.43-1.53.45.22.52.54.91.95 1.16.42.25.96.38 1.63.38.7 0 1.24-.15 1.62-.46.38-.31.57-.75.57-1.3 0-.5-.16-.89-.5-1.15a2.1 2.1 0 0 0-1.36-.4c-.24 0-.41.01-.53.03Zm-2.68.7.07.34h.1c.25 0 .45-.01.6-.04a1.42 1.42 0 0 0 .9-.59c.13-.17.25-.4.35-.65a2.28 2.28 0 0 0-.3-.97.65.65 0 0 0-.56-.3c-.21 0-.37.05-.48.17-.12.12-.17.29-.17.52l.02.26.09.3-.72.16a2.59 2.59 0 0 1-.14-.81c0-.4.12-.72.37-.95.25-.23.59-.34 1.02-.34.32 0 .6.08.81.25.22.17.39.42.5.76a3.34 3.34 0 0 1 2.65-1.22c.7 0 1.3.13 1.83.4.52.27.92.66 1.2 1.16.28.51.42 1.1.42 1.78 0 .65-.12 1.2-.35 1.66a2.35 2.35 0 0 1-2.2 1.35c-.21 0-.38 0-.49-.03l.04-.7c.15.02.27.02.36.02.6 0 1.06-.2 1.38-.6.32-.4.48-.96.48-1.68 0-.82-.24-1.46-.73-1.93a2.7 2.7 0 0 0-1.96-.7 2.79 2.79 0 0 0-2.18 1c.17-.03.33-.04.48-.04.77 0 1.37.2 1.8.59.42.4.64.96.64 1.69 0 .76-.26 1.36-.76 1.8-.51.45-1.25.67-2.21.67a3.54 3.54 0 0 1-2.44-.81 3.9 3.9 0 0 1-1.15-2.4l.73-.13Z" fill="#fff"/>
  <path d="m84.67 43.2-.13-.03c-.19.56-.46.96-.8 1.22-.35.26-.83.4-1.45.42l-.2.01.08.18c.22.54.56.96 1 1.23.45.27 1.01.4 1.7.4.72 0 1.3-.16 1.7-.5.42-.33.62-.82.62-1.4 0-.53-.18-.97-.54-1.25a2.26 2.26 0 0 0-1.45-.43c-.24 0-.42 0-.55.02l-.08.02-.03.08.13.04.01.13.52-.02a2 2 0 0 1 1.29.36c.29.24.43.57.44 1.05 0 .52-.18.9-.52 1.2-.35.28-.86.43-1.54.43-.65 0-1.17-.13-1.56-.36-.39-.24-.69-.6-.9-1.1l-.12.05v.13c.67-.02 1.2-.17 1.6-.47.4-.3.7-.76.9-1.36l-.12-.04Zm-2.68.7-.13.01.07.36.03.1h.2c.25 0 .46-.01.63-.04a1.56 1.56 0 0 0 .98-.64c.14-.19.26-.41.36-.68l.01-.03v-.04a2.4 2.4 0 0 0-.32-1.03.79.79 0 0 0-.67-.36.77.77 0 0 0-.58.22.85.85 0 0 0-.2.6v.01l.02.27v.01c.02.09.05.2.1.33l.12-.04-.03-.13-.72.15.03.13.12-.05a2.42 2.42 0 0 1-.13-.76c0-.38.11-.65.33-.85.22-.2.52-.3.93-.3.3 0 .54.07.73.22.2.14.35.37.46.69l.08.22.15-.18a3.2 3.2 0 0 1 2.54-1.17c.68 0 1.27.13 1.77.39s.88.62 1.14 1.1c.27.5.4 1.06.4 1.72 0 .63-.1 1.16-.33 1.6A2.22 2.22 0 0 1 88 47c-.2 0-.37-.01-.46-.03l-.03.13.14.01.04-.7h-.14v.13l.36.01a1.8 1.8 0 0 0 1.48-.65c.35-.43.51-1.02.51-1.76a2.7 2.7 0 0 0-.76-2.02 2.83 2.83 0 0 0-2.06-.74 3 3 0 0 0-1.27.26 2.9 2.9 0 0 0-1 .78l-.24.27.35-.05c.16-.02.32-.04.46-.04.75 0 1.3.2 1.7.56.4.36.6.88.6 1.59 0 .73-.24 1.29-.71 1.7-.48.42-1.18.63-2.12.63a3.4 3.4 0 0 1-2.35-.77 3.73 3.73 0 0 1-1.11-2.33l-.13.02.02.14.73-.13-.02-.13-.02-.13-.74.12-.13.02.02.13a4 4 0 0 0 1.2 2.49c.64.56 1.5.84 2.53.84.98 0 1.75-.22 2.3-.7.53-.46.8-1.11.8-1.9a2.3 2.3 0 0 0-.69-1.79 2.68 2.68 0 0 0-1.88-.62c-.16 0-.32 0-.5.03l.02.14.1.08a2.65 2.65 0 0 1 2.08-.95c.8 0 1.42.23 1.87.67.45.44.68 1.04.68 1.83 0 .7-.15 1.23-.45 1.6-.29.36-.7.55-1.27.55-.08 0-.2 0-.35-.02h-.13l-.06.94.12.02a3 3 0 0 0 1.87-.32c.4-.24.73-.6.96-1.08.24-.48.36-1.05.36-1.71 0-.7-.14-1.31-.43-1.84a2.9 2.9 0 0 0-1.26-1.22 4.09 4.09 0 0 0-3.42-.1 3.7 3.7 0 0 0-1.22.95l.1.09.13-.05a1.7 1.7 0 0 0-.55-.82 1.42 1.42 0 0 0-.9-.28c-.45 0-.82.13-1.1.38-.28.25-.41.62-.41 1.05 0 .28.05.56.14.85l.04.11.98-.2-.04-.14a4.42 4.42 0 0 1-.09-.3l-.13.03.13-.01-.02-.27-.13.02h.13c0-.21.05-.34.13-.43.09-.08.2-.13.39-.13.2 0 .33.07.45.24.12.17.22.48.27.92l.14-.02-.13-.05c-.1.25-.2.46-.32.63-.12.16-.25.28-.4.36-.13.09-.28.14-.42.17-.15.02-.34.04-.58.04v.13-.13h-.1v.13l.13-.03a4.26 4.26 0 0 1-.07-.34l-.02-.13-.13.02.02.13Z" fill="#fff"/>
  <path d="m90.18 38.44.3.02c.37 0 .56-.14.56-.43l-.1-.28-.28-.1c-.16 0-.28.04-.35.12-.08.09-.12.24-.13.45v.22Zm-.95-1.37c.35.1.57.26.67.49a.85.85 0 0 1 .8-.5.9.9 0 0 1 .68.26c.17.17.25.4.25.7 0 .32-.1.57-.28.75-.2.18-.47.27-.82.27-.16 0-.27 0-.35-.02v2.68h-.7v-3.01c0-.33-.04-.56-.12-.7a.76.76 0 0 0-.4-.3l.27-.62Z" fill="#fff"/>
  <path d="M90.18 38.44v.13l.28.03h.01a.8.8 0 0 0 .5-.14.5.5 0 0 0 .2-.43v-.02l-.11-.3-.02-.07-.34-.12-.02-.01h-.02c-.18 0-.35.05-.45.18a.9.9 0 0 0-.16.52v.35l.12.01.01-.13h.14v-.22h-.14.14c0-.19.05-.31.09-.36.04-.05.11-.08.25-.09v-.13l-.05.13.22.08.08.23.13-.05h-.14l-.09.22c-.05.05-.16.08-.33.08v.13-.13l-.29-.02v.13Zm-.95-1.37-.04.12c.33.1.51.24.59.42l.11.26.13-.25c.15-.3.36-.42.69-.42.26 0 .44.07.58.21.13.14.2.33.2.61 0 .3-.08.5-.24.66-.16.15-.39.23-.72.23-.15 0-.26 0-.32-.02l-.16-.03v2.7h-.44V38.7c0-.34-.03-.59-.13-.76a.9.9 0 0 0-.47-.36l-.05.12.12.06.27-.63-.12-.05-.12-.06-.33.76.13.05c.18.06.28.15.34.25.06.08.1.3.1.62v3.14h.97v-2.8h-.14l-.02.12c.1.02.2.03.37.03.37 0 .69-.1.9-.3.23-.22.33-.51.33-.86 0-.32-.09-.6-.28-.8-.2-.2-.46-.29-.77-.29a1 1 0 0 0-.93.57l.12.06.12-.06c-.12-.27-.38-.46-.75-.56l-.12-.03-.04.1.12.06Zm15.93 6.13c0 .58-.2 1.04-.58 1.39-.39.34-.93.5-1.63.5-.59 0-1.04-.11-1.34-.35-.3-.24-.45-.6-.45-1.06 0-.12.02-.24.06-.36h-1.57v-.69h3.86v.7H102a.73.73 0 0 0-.08.34c0 .48.34.72 1.02.72.47 0 .83-.1 1.07-.31.25-.2.37-.5.37-.87 0-.58-.22-1.01-.65-1.3a3.6 3.6 0 0 0-1.94-.41c-1.23 0-2.18.32-2.85.96-.66.65-1 1.56-1 2.72 0 1.05.3 1.86.91 2.44.6.57 1.45.86 2.54.86.96 0 1.72-.23 2.27-.69.56-.46.84-1.1.84-1.95 0-.11 0-.24-.02-.4l.74-.04a3.3 3.3 0 0 1-.45 2.25c-.32.5-.77.9-1.36 1.17-.6.27-1.26.4-2 .4-1.38 0-2.44-.35-3.16-1.06a4.02 4.02 0 0 1-1.08-3c0-.88.19-1.66.56-2.32a3.7 3.7 0 0 1 1.6-1.52c.7-.35 1.5-.53 2.43-.53 1.12 0 1.97.21 2.54.63.57.42.86 1.01.86 1.78Z" fill="#fff"/>
  <path d="M105.16 43.2h-.13c0 .55-.19.97-.54 1.29-.36.31-.86.48-1.54.48-.57 0-.99-.12-1.25-.33-.27-.22-.4-.52-.4-.96l.04-.32.05-.17h-1.6v-.43h3.58v.43h-1.45l-.04.07a.85.85 0 0 0-.1.4c0 .28.1.51.32.66.2.14.49.2.84.2.49 0 .88-.1 1.16-.34.28-.23.42-.57.41-.97 0-.61-.23-1.1-.7-1.4a3.72 3.72 0 0 0-2.02-.45c-1.26 0-2.24.33-2.94 1a3.75 3.75 0 0 0-1.04 2.82c0 1.07.32 1.93.95 2.53.63.6 1.52.9 2.63.9a3.6 3.6 0 0 0 2.36-.72c.6-.48.89-1.18.89-2.05l-.03-.41-.13.01v.14l.74-.05v-.13l-.13.02a3.17 3.17 0 0 1-.43 2.15c-.3.5-.74.87-1.3 1.13-.58.26-1.23.4-1.96.4-1.35 0-2.36-.35-3.05-1.03-.7-.68-1.05-1.64-1.05-2.91 0-.87.18-1.62.54-2.26.36-.64.87-1.12 1.54-1.46a5.22 5.22 0 0 1 2.38-.52c1.1 0 1.92.21 2.46.6.54.4.8.94.8 1.68h.27c0-.8-.3-1.45-.91-1.89a4.4 4.4 0 0 0-2.62-.65c-.94 0-1.78.18-2.5.54-.71.36-1.27.89-1.65 1.57a4.82 4.82 0 0 0-.57 2.39c0 1.32.37 2.36 1.12 3.1.75.74 1.84 1.1 3.24 1.1a4.9 4.9 0 0 0 2.06-.42 3.2 3.2 0 0 0 1.93-3.1c0-.17-.02-.32-.04-.46l-.02-.12-.86.05h-.14l.01.15.03.38c0 .81-.27 1.41-.79 1.85-.53.43-1.25.66-2.2.66a3.39 3.39 0 0 1-2.44-.83c-.57-.55-.86-1.31-.86-2.34 0-1.14.32-2 .96-2.62.63-.62 1.54-.93 2.75-.93.85 0 1.47.14 1.87.4.4.26.58.63.59 1.18 0 .35-.11.59-.32.77-.22.17-.54.27-.99.27a1.3 1.3 0 0 1-.69-.15c-.13-.1-.2-.22-.2-.43l.07-.29-.12-.06v.14h1.64v-.96h-4.12v.96h1.7v-.14l-.13-.04c-.04.14-.06.27-.06.4 0 .5.16.9.5 1.17.34.26.81.38 1.42.38.72 0 1.3-.17 1.72-.54.41-.37.62-.88.62-1.49h-.13Zm1.81 2.87c.24.3.59.46 1.03.46.26 0 .46-.05.58-.15.12-.1.18-.24.18-.43 0-.17-.06-.3-.17-.4a.67.67 0 0 0-.46-.16c-.42 0-.8.23-1.16.68Zm7.02-2.9a6.4 6.4 0 0 1-.33 2.15 3.1 3.1 0 0 1-.95 1.42c-.42.32-.9.49-1.43.49-.33 0-.6-.07-.81-.2a1.14 1.14 0 0 1-.46-.49 1.5 1.5 0 0 1-.13-.63c0-.18.02-.35.06-.51.05-.17.14-.4.27-.7.1-.27.19-.5.23-.67.04-.17.06-.34.06-.52 0-.45-.15-.8-.44-1.05a1.8 1.8 0 0 0-1.2-.37c-.46 0-.87.1-1.21.3-.35.2-.62.49-.8.87a3.28 3.28 0 0 0-.19 2.21c.46-.51.97-.77 1.52-.77.4 0 .73.12.97.35.24.23.36.52.36.87 0 .42-.13.74-.39.97-.26.22-.63.34-1.11.34a2.1 2.1 0 0 1-1.16-.34 2.2 2.2 0 0 1-.78-.96 3.6 3.6 0 0 1 .11-3.02c.24-.48.6-.86 1.08-1.13.47-.27 1.02-.4 1.64-.4.73 0 1.31.19 1.73.56.43.37.63.86.63 1.47a2.82 2.82 0 0 1-.15.93l-.22.58c-.1.25-.18.43-.22.56-.03.13-.05.26-.05.38 0 .22.06.38.18.5.12.1.29.16.5.16.34 0 .66-.13.95-.39.29-.25.52-.63.7-1.14.17-.5.26-1.1.26-1.8a4.9 4.9 0 0 0-.44-2.14c-.3-.6-.72-1.07-1.27-1.38a3.97 3.97 0 0 0-1.98-.47 6.36 6.36 0 0 0-3.26.83l-.34-.68a7.74 7.74 0 0 1 3.62-.88c.93 0 1.72.19 2.38.56a3.7 3.7 0 0 1 1.54 1.62c.35.71.53 1.55.53 2.53Z" fill="#fff"/>
  <path d="m106.97 46.07-.1.08c.26.34.66.52 1.13.51.28 0 .5-.04.67-.17a.66.66 0 0 0 .22-.54c0-.2-.07-.38-.2-.5a.8.8 0 0 0-.56-.2c-.47 0-.9.27-1.27.73l-.06.09.06.08.1-.08.11.08c.35-.43.7-.62 1.06-.63.17 0 .29.05.37.12.09.09.13.17.13.3 0 .17-.05.27-.13.34s-.25.12-.5.12c-.42 0-.7-.14-.93-.41l-.1.08Zm7.02-2.9h-.13c0 .8-.11 1.5-.33 2.1-.21.6-.52 1.05-.9 1.36-.4.31-.84.46-1.35.46a1.4 1.4 0 0 1-.74-.17 1 1 0 0 1-.4-.43 1.36 1.36 0 0 1-.13-.58c0-.17.02-.33.06-.48.05-.15.13-.38.26-.68.11-.28.2-.5.24-.69.04-.18.06-.36.06-.55 0-.47-.16-.87-.48-1.15-.32-.27-.76-.4-1.3-.4-.47 0-.9.1-1.27.32-.37.21-.66.52-.86.91a3 3 0 0 0-.3 1.37c0 .38.04.7.11.95l.07.23.16-.18c.44-.5.91-.73 1.42-.73.38 0 .66.1.88.31.21.2.31.46.31.78 0 .4-.11.67-.34.87-.22.2-.56.3-1.02.3-.41 0-.77-.1-1.08-.32a2.07 2.07 0 0 1-.74-.9 3.14 3.14 0 0 1-.26-1.29c0-.61.12-1.14.36-1.6a2.5 2.5 0 0 1 1.03-1.08c.45-.26.98-.39 1.58-.39.71 0 1.25.18 1.65.53.39.35.58.8.58 1.37a2.74 2.74 0 0 1-.14.89l-.23.57c-.1.25-.17.44-.21.58a1.4 1.4 0 0 0-.06.41c0 .24.06.45.22.59.15.14.36.2.6.2.37 0 .72-.14 1.03-.42.3-.27.55-.67.73-1.2a5.6 5.6 0 0 0 .27-1.83c0-.84-.15-1.58-.45-2.2a3.21 3.21 0 0 0-1.33-1.45 4.1 4.1 0 0 0-2.04-.48 6.5 6.5 0 0 0-3.33.85l.07.11.12-.06-.34-.68-.12.06.06.12a7.64 7.64 0 0 1 3.56-.86c.9 0 1.68.18 2.32.54.64.35 1.13.87 1.48 1.56.34.69.52 1.51.52 2.47h.26c0-1-.18-1.86-.54-2.59-.37-.73-.9-1.3-1.59-1.68a4.97 4.97 0 0 0-2.45-.57c-1.31 0-2.54.3-3.69.9l-.11.05.4.8.06.13.13-.07a6.24 6.24 0 0 1 3.19-.82c.75 0 1.38.16 1.91.46.53.3.93.73 1.22 1.32.28.58.42 1.28.42 2.09a5.4 5.4 0 0 1-.25 1.75c-.17.49-.4.85-.66 1.08-.27.24-.55.35-.85.35-.2 0-.33-.05-.42-.13-.09-.08-.14-.2-.14-.39l.05-.34c.04-.12.1-.3.21-.55l.23-.59a3.29 3.29 0 0 0 .16-.97 2 2 0 0 0-.68-1.57c-.45-.4-1.06-.6-1.82-.6-.64 0-1.22.15-1.7.43-.5.28-.89.67-1.14 1.18a3.62 3.62 0 0 0-.1 3.13 2.15 2.15 0 0 0 2.06 1.38c.49 0 .9-.12 1.19-.37.29-.26.43-.62.43-1.07 0-.38-.13-.72-.4-.97a1.48 1.48 0 0 0-1.06-.38c-.6 0-1.14.28-1.62.81l.1.1.13-.04c-.07-.23-.1-.52-.1-.88 0-.48.1-.9.27-1.24.18-.36.43-.62.75-.81.33-.19.7-.29 1.14-.29.5 0 .87.12 1.13.35.25.22.38.52.38.94 0 .17-.01.33-.05.5-.04.15-.12.37-.23.63-.13.3-.22.55-.26.72-.05.18-.08.36-.08.55 0 .24.05.48.15.69.1.22.28.4.51.55.24.14.54.21.88.21.56 0 1.07-.17 1.5-.52.44-.34.77-.84 1-1.48.23-.63.34-1.36.34-2.18H114Zm.35 3.26c.17.06.37.09.6.09.52 0 .9-.19 1.14-.55.24-.37.36-.92.36-1.66 0-.74-.12-1.3-.36-1.66-.23-.37-.62-.56-1.14-.56-.23 0-.43.03-.61.1l-.14-.68c.29-.09.57-.13.85-.13.7 0 1.23.24 1.61.73.38.5.57 1.22.57 2.2 0 .96-.19 1.69-.57 2.18-.38.5-.92.74-1.6.74-.28 0-.56-.04-.86-.13l.16-.67Z" fill="#fff"/>
  <path d="m114.34 46.43-.04.12c.19.07.4.1.64.1.55 0 1-.2 1.25-.61.26-.4.38-.98.38-1.73s-.12-1.33-.37-1.73c-.27-.42-.7-.63-1.27-.62-.23 0-.45.03-.65.1l.05.13.13-.03-.14-.68-.13.03.04.13c.27-.08.55-.13.8-.13.67 0 1.16.23 1.52.69.35.45.54 1.15.54 2.1 0 .95-.2 1.65-.55 2.11-.35.46-.84.68-1.5.68-.26 0-.53-.04-.8-.12l-.05.13.13.03.16-.68-.14-.02-.13-.03-.15.67-.02.12.12.04c.3.09.6.13.88.13.72 0 1.31-.26 1.72-.79.4-.52.6-1.28.6-2.27 0-.98-.2-1.74-.6-2.27-.4-.52-1-.79-1.72-.78-.3 0-.59.04-.89.13l-.12.04.17.8.03.14.14-.05c.17-.05.36-.09.56-.09.5 0 .83.17 1.04.5a3 3 0 0 1 .34 1.59c0 .72-.12 1.25-.34 1.58-.21.33-.53.49-1.03.5-.22 0-.4-.03-.55-.09l-.14-.05-.03.15.13.03Zm12.18-2.51c0 1.01-.26 1.8-.78 2.37-.53.57-1.24.85-2.13.85-.2 0-.38 0-.56-.03l.04-.7c.15.02.29.02.43.02.73 0 1.28-.21 1.66-.64.38-.43.57-1.05.57-1.87 0-.72-.17-1.3-.51-1.74-.34-.44-.8-.66-1.39-.66-.53 0-.97.17-1.3.51-.35.34-.61.84-.79 1.49.14-.06.3-.1.48-.1.37 0 .67.13.89.37.21.24.32.59.32 1.03 0 .45-.1.87-.3 1.23-.22.37-.52.66-.92.87-.4.2-.87.3-1.41.3-.91 0-1.62-.27-2.13-.83a3.35 3.35 0 0 1-.76-2.33c0-.66.13-1.23.37-1.72.24-.5.6-.88 1.06-1.15.47-.27 1.01-.4 1.64-.4a4 4 0 0 1 .51.03l-.04.7a5.96 5.96 0 0 0-.44-.02c-.78 0-1.36.22-1.74.65-.39.44-.58 1.1-.58 1.96 0 .75.18 1.33.55 1.75.36.42.88.63 1.56.63.58 0 1.04-.15 1.38-.46.33-.3.5-.71.5-1.23 0-.46-.17-.7-.5-.7l-.26.04-.25.15-.74-.23c.16-1.08.5-1.9 1.02-2.45a2.53 2.53 0 0 1 1.92-.82c.54 0 1.01.12 1.4.37.4.25.7.62.91 1.1.22.47.32 1.03.32 1.66Z" fill="#fff"/>
  <path d="M126.52 43.92h-.13c0 .99-.26 1.74-.75 2.28-.5.54-1.16.8-2.03.81-.19 0-.37-.01-.55-.03l-.01.13h.13l.04-.69h-.13l-.01.13.44.01c.75 0 1.35-.22 1.76-.68.4-.46.6-1.12.6-1.96 0-.74-.17-1.35-.54-1.82a1.8 1.8 0 0 0-1.49-.71 1.9 1.9 0 0 0-1.4.55c-.37.36-.63.88-.82 1.54l-.07.28.26-.12a.97.97 0 0 1 .42-.08c.34 0 .6.1.79.32.19.21.29.52.29.94 0 .43-.1.82-.3 1.17a2 2 0 0 1-.85.8c-.38.2-.83.3-1.35.3-.89 0-1.55-.26-2.03-.79a3.22 3.22 0 0 1-.72-2.24c0-.64.12-1.2.35-1.67a2.5 2.5 0 0 1 1.01-1.08c.44-.26.96-.39 1.56-.39.19 0 .35.01.5.03l.02-.13h-.13l-.04.69h.13l.01-.13a6.2 6.2 0 0 0-.45-.01c-.8 0-1.43.22-1.84.7-.42.47-.61 1.15-.61 2.04 0 .77.19 1.39.58 1.84.39.45.96.68 1.66.68.6 0 1.1-.17 1.46-.5.37-.33.55-.79.55-1.33a1 1 0 0 0-.15-.6.56.56 0 0 0-.48-.23l-.28.04h-.03l-.22.13-.68-.2-.04.12.13.02c.16-1.06.5-1.85 1-2.37a2.34 2.34 0 0 1 1.8-.79 2.25 2.25 0 0 1 2.2 1.38c.2.46.3 1 .3 1.62h.28c0-.65-.11-1.22-.33-1.72a2.49 2.49 0 0 0-2.44-1.55c-.8 0-1.47.3-2.01.87-.55.58-.9 1.42-1.06 2.52l-.02.11.85.26.05.02.28-.16.24-.03-.02-.14v.14c.14 0 .2.04.26.12.06.08.1.22.1.44 0 .49-.15.85-.46 1.13-.3.28-.72.43-1.28.43-.65 0-1.12-.2-1.46-.59a2.45 2.45 0 0 1-.52-1.66c0-.85.2-1.47.55-1.87.35-.4.89-.6 1.64-.6l.43.01.14.01.04-.83.01-.13-.12-.01a4.1 4.1 0 0 0-.53-.03c-.65 0-1.22.14-1.7.42-.5.28-.87.68-1.12 1.2a3.99 3.99 0 0 0-.38 1.78c0 1.02.26 1.84.8 2.42.53.6 1.28.88 2.22.88a3 3 0 0 0 1.47-.33c.42-.21.75-.52.97-.91.22-.39.33-.83.33-1.3 0-.47-.12-.84-.36-1.12a1.27 1.27 0 0 0-1-.4c-.19 0-.37.03-.53.1l.06.12.13.03c.17-.63.43-1.1.75-1.42.31-.32.7-.47 1.21-.48.55 0 .97.2 1.28.61.32.41.48.96.49 1.66 0 .8-.2 1.38-.54 1.78-.35.4-.86.6-1.56.6-.14 0-.28 0-.42-.02h-.14l-.04.82-.01.13.13.01a5 5 0 0 0 .57.04c.92 0 1.67-.3 2.22-.9.56-.6.83-1.43.83-2.46h-.14Zm3.87-.72c-.2.59-.48 1.02-.85 1.3-.38.28-.89.43-1.53.45.22.52.53.91.95 1.16.42.25.96.38 1.63.38.7 0 1.24-.15 1.62-.46.38-.31.57-.75.57-1.3 0-.5-.16-.89-.5-1.15-.32-.26-.78-.4-1.36-.4-.23 0-.41.01-.53.03Zm-2.68.7.07.34h.1c.25 0 .45-.01.6-.04a1.42 1.42 0 0 0 .9-.59c.13-.17.25-.4.35-.65a2.28 2.28 0 0 0-.3-.97.65.65 0 0 0-.56-.3c-.21 0-.37.05-.48.17-.12.12-.17.29-.17.52l.02.26.09.3-.72.16c-.1-.28-.14-.55-.14-.81 0-.4.12-.72.37-.95.25-.23.59-.34 1.02-.34.32 0 .6.08.81.25.22.17.39.42.5.76a3.34 3.34 0 0 1 2.65-1.22c.7 0 1.3.13 1.83.4.52.27.92.66 1.2 1.16.28.51.41 1.1.41 1.78 0 .65-.1 1.2-.34 1.66a2.36 2.36 0 0 1-2.2 1.35c-.21 0-.38 0-.49-.03l.04-.7c.15.02.27.02.36.02.6 0 1.06-.2 1.38-.6.32-.4.48-.96.48-1.68 0-.82-.24-1.46-.73-1.93a2.7 2.7 0 0 0-1.96-.7c-.45 0-.85.08-1.22.25a2.8 2.8 0 0 0-.96.75c.17-.03.33-.04.48-.04.77 0 1.37.2 1.8.59.42.4.63.96.63 1.69 0 .76-.25 1.36-.75 1.8-.51.45-1.25.67-2.21.67a3.53 3.53 0 0 1-2.44-.81 3.9 3.9 0 0 1-1.15-2.4l.73-.13Z" fill="#fff"/>
  <path d="m130.39 43.2-.13-.03c-.19.56-.46.96-.8 1.22-.35.26-.83.4-1.45.42l-.2.01.08.18c.23.54.56.96 1 1.23.45.27 1.01.4 1.7.4.72 0 1.3-.16 1.7-.5.42-.33.63-.82.62-1.4 0-.53-.17-.97-.54-1.25a2.26 2.26 0 0 0-1.45-.43c-.24 0-.42 0-.55.02l-.08.02-.03.08.13.04.01.13.52-.02a2 2 0 0 1 1.29.36c.29.24.43.57.44 1.05 0 .52-.18.9-.52 1.2a2.4 2.4 0 0 1-1.54.43c-.65 0-1.17-.13-1.56-.36-.39-.24-.69-.6-.9-1.1l-.12.05v.13c.67-.02 1.2-.17 1.6-.47.4-.3.7-.76.9-1.36l-.12-.04Zm-2.68.7-.13.01c.02.12.04.23.08.36l.02.1h.2c.25 0 .46-.01.63-.04a1.57 1.57 0 0 0 .98-.64c.14-.19.26-.41.36-.68l.01-.03v-.04a2.4 2.4 0 0 0-.32-1.03.79.79 0 0 0-.67-.36.77.77 0 0 0-.58.22.85.85 0 0 0-.2.6v.01l.02.27v.01l.09.33.13-.04-.03-.13-.72.15.03.13.12-.05a2.47 2.47 0 0 1-.13-.76c0-.38.12-.65.33-.85.22-.2.52-.3.93-.3.3 0 .54.07.73.22.2.14.35.37.46.69l.08.22.15-.18a3.22 3.22 0 0 1 2.54-1.17c.68 0 1.27.13 1.77.39s.88.62 1.14 1.1c.27.5.4 1.06.4 1.72 0 .63-.11 1.16-.32 1.6a2.22 2.22 0 0 1-2.09 1.28c-.2 0-.37-.01-.46-.03l-.03.13.14.01.04-.7h-.14v.13l.36.01a1.8 1.8 0 0 0 1.48-.65c.35-.43.51-1.02.51-1.76a2.7 2.7 0 0 0-.76-2.02c-.51-.5-1.2-.74-2.06-.74a3 3 0 0 0-1.27.26 2.9 2.9 0 0 0-1 .78l-.24.27.35-.05c.16-.02.32-.04.46-.04.75 0 1.3.2 1.7.56.4.36.6.88.6 1.59 0 .73-.24 1.29-.71 1.7-.47.42-1.18.63-2.12.63a3.4 3.4 0 0 1-2.35-.77 3.73 3.73 0 0 1-1.11-2.33l-.13.02.02.14.73-.13-.02-.13-.02-.13-.86.14.02.13a4 4 0 0 0 1.2 2.49c.63.56 1.48.84 2.52.84.98 0 1.75-.22 2.3-.7.53-.46.8-1.11.8-1.9 0-.76-.23-1.37-.68-1.79a2.68 2.68 0 0 0-1.89-.62c-.16 0-.32 0-.5.03l.02.14.1.08a2.75 2.75 0 0 1 2.08-.95c.8 0 1.42.23 1.87.67.45.44.68 1.04.69 1.83 0 .7-.16 1.23-.46 1.6-.3.36-.7.55-1.27.55-.09 0-.2 0-.35-.02h-.13l-.06.94.12.02a3.01 3.01 0 0 0 1.87-.32c.4-.24.73-.6.96-1.08.24-.48.36-1.05.36-1.71 0-.7-.14-1.31-.44-1.84a2.9 2.9 0 0 0-1.25-1.22 4.09 4.09 0 0 0-3.42-.1 3.6 3.6 0 0 0-1.22.95l.1.09.13-.05c-.12-.35-.3-.63-.55-.82a1.42 1.42 0 0 0-.9-.28c-.44 0-.82.13-1.1.38-.28.25-.42.62-.41 1.05 0 .28.05.56.14.85l.04.11.83-.17.15-.03-.04-.14a4.5 4.5 0 0 1-.09-.3l-.13.03.13-.01-.02-.27-.13.02h.13c0-.21.05-.34.13-.43.09-.08.2-.13.39-.13.2 0 .33.07.45.24.12.17.22.48.28.92l.13-.02-.13-.05c-.1.25-.2.46-.32.63a1.32 1.32 0 0 1-.82.53c-.15.02-.34.04-.58.04v.13-.13h-.1v.13l.13-.03a4.3 4.3 0 0 1-.07-.34l-.02-.13-.13.02.02.13Z" fill="#fff"/>
  <path d="m135.9 38.44.3.02c.37 0 .55-.14.55-.43l-.1-.28-.28-.1c-.15 0-.27.04-.34.12-.08.09-.12.24-.13.45v.22Zm-.95-1.37c.35.1.57.26.67.49a.84.84 0 0 1 .8-.5.9.9 0 0 1 .68.26c.17.17.25.4.25.7a1 1 0 0 1-.29.75c-.19.18-.46.27-.82.27-.15 0-.26 0-.34-.02v2.68h-.7v-3.01c0-.33-.04-.56-.12-.7a.76.76 0 0 0-.4-.3l.27-.62Z" fill="#fff"/>
  <path d="m135.9 38.44-.01.13.3.03a.8.8 0 0 0 .5-.14c.13-.1.2-.26.2-.43v-.02l-.11-.3-.02-.07-.34-.12-.02-.01h-.03c-.17 0-.34.05-.44.18-.11.13-.15.3-.16.52v.35l.12.01.01-.13h.13v-.22h-.13.13a.67.67 0 0 1 .1-.36c.04-.05.1-.08.25-.09v-.13l-.05.13.22.08.08.23.12-.05h-.13l-.09.22c-.06.05-.17.08-.34.08v.13l.02-.13-.3-.02v.13Zm-.95-1.37-.04.12c.33.1.51.24.59.42l.1.26.14-.25a.71.71 0 0 1 .69-.42c.25 0 .44.07.58.21.13.14.2.33.2.61 0 .3-.08.5-.24.66-.16.15-.4.23-.73.23-.14 0-.25 0-.31-.02l-.16-.03v2.7h-.44V38.7c0-.34-.03-.59-.13-.76a.9.9 0 0 0-.47-.36l-.05.12.12.06.27-.63-.12-.05-.13-.06-.32.76.13.05c.18.06.28.15.34.25.05.08.1.3.1.62v3.14h.97v-2.8h-.14l-.02.12c.09.02.2.03.36.03.38 0 .7-.1.92-.3.22-.22.32-.51.32-.86 0-.32-.09-.6-.28-.8-.2-.2-.46-.29-.77-.29a1 1 0 0 0-.93.57l.12.06.12-.06c-.12-.27-.39-.46-.75-.56l-.12-.03-.05.1.13.06Zm5.3 6.13a2.5 2.5 0 0 1-.85 1.3c-.37.28-.88.43-1.53.45.22.52.54.91.96 1.16.41.25.95.38 1.63.38.7 0 1.24-.15 1.62-.46.38-.31.56-.75.56-1.3 0-.5-.16-.89-.49-1.15-.32-.26-.78-.4-1.37-.4-.23 0-.4.01-.53.03Zm-2.67.7c.01.1.04.21.07.34h.1c.24 0 .44-.01.6-.04a1.42 1.42 0 0 0 .9-.59c.13-.17.24-.4.34-.65a2.3 2.3 0 0 0-.3-.97.65.65 0 0 0-.56-.3c-.2 0-.37.05-.48.17a.74.74 0 0 0-.17.52l.03.26.08.3-.72.16a2.63 2.63 0 0 1-.13-.81c0-.4.12-.72.37-.95.24-.23.58-.34 1.01-.34.32 0 .6.08.81.25.22.17.4.42.51.76a3.34 3.34 0 0 1 2.65-1.22c.7 0 1.3.13 1.83.4.52.27.92.66 1.2 1.16.27.51.41 1.1.41 1.78 0 .65-.11 1.2-.34 1.66a2.35 2.35 0 0 1-2.2 1.35c-.22 0-.38 0-.5-.03l.05-.7c.15.02.27.02.36.02.6 0 1.05-.2 1.37-.6.32-.4.48-.96.48-1.68 0-.82-.24-1.46-.72-1.93a2.7 2.7 0 0 0-1.97-.7 2.78 2.78 0 0 0-2.18 1c.17-.03.33-.04.49-.04.77 0 1.36.2 1.79.59.43.4.64.96.64 1.69 0 .76-.25 1.36-.76 1.8-.5.45-1.24.67-2.2.67a3.53 3.53 0 0 1-2.44-.81 3.9 3.9 0 0 1-1.16-2.4l.74-.13Z" fill="#fff"/>
  <path d="m140.25 43.2-.13-.03c-.18.56-.45.96-.8 1.22-.34.26-.82.4-1.45.42l-.2.01.08.18c.23.54.56.96 1 1.23.45.27 1.02.4 1.7.4.73 0 1.3-.16 1.71-.5.41-.33.62-.82.62-1.4 0-.53-.18-.97-.54-1.25a2.26 2.26 0 0 0-1.46-.43c-.23 0-.41 0-.54.02l-.09.02-.03.08.13.04.02.13.51-.02a2 2 0 0 1 1.29.36c.3.24.44.57.44 1.05 0 .52-.17.9-.52 1.2-.35.28-.85.43-1.53.43a3 3 0 0 1-1.56-.36c-.4-.24-.7-.6-.9-1.1l-.13.05v.13a2.8 2.8 0 0 0 1.61-.47c.4-.3.7-.76.9-1.36l-.13-.04Zm-2.67.7-.14.01.08.36.02.1h.2c.26 0 .46-.01.63-.04a1.56 1.56 0 0 0 .99-.64c.13-.19.25-.41.36-.68v-.07a2.4 2.4 0 0 0-.31-1.03.79.79 0 0 0-.68-.36.77.77 0 0 0-.57.22.85.85 0 0 0-.21.6v.01l.03.27v.01c.02.09.04.2.09.33l.12-.04-.02-.13-.72.15.02.13.13-.05a2.47 2.47 0 0 1-.13-.76c0-.38.11-.65.33-.85.21-.2.51-.3.92-.3.3 0 .54.07.73.22.2.14.35.37.47.69l.07.22.15-.18a3.2 3.2 0 0 1 2.55-1.17c.68 0 1.27.13 1.77.39s.87.62 1.14 1.1c.26.5.4 1.06.4 1.72 0 .63-.12 1.16-.33 1.6a2.22 2.22 0 0 1-2.08 1.28c-.21 0-.37-.01-.47-.03l-.02.13.13.01.04-.7h-.13l-.01.13.37.01a1.8 1.8 0 0 0 1.48-.65c.34-.43.5-1.02.5-1.76a2.7 2.7 0 0 0-.76-2.02 2.8 2.8 0 0 0-2.06-.74 2.91 2.91 0 0 0-2.28 1.04l-.22.27.35-.05c.16-.02.31-.04.46-.04.75 0 1.3.2 1.7.56.4.36.6.88.6 1.59a2.1 2.1 0 0 1-.72 1.7c-.47.42-1.17.63-2.12.63a3.4 3.4 0 0 1-2.34-.77 3.73 3.73 0 0 1-1.12-2.33l-.13.02.02.14.74-.13-.02-.13-.03-.13-.73.12-.13.02.02.13a4 4 0 0 0 1.2 2.49 3.7 3.7 0 0 0 2.52.84c.99 0 1.76-.22 2.3-.7.53-.46.8-1.11.8-1.9a2.3 2.3 0 0 0-.68-1.79 2.68 2.68 0 0 0-1.88-.62c-.16 0-.33 0-.5.03l.02.14.1.08a2.66 2.66 0 0 1 2.07-.95c.8 0 1.42.23 1.88.67.45.44.68 1.04.68 1.83 0 .7-.16 1.23-.45 1.6-.3.36-.7.55-1.27.55-.1 0-.2 0-.35-.02H143l-.05.82v.12l.11.02a3 3 0 0 0 1.87-.32c.4-.24.73-.6.97-1.08.24-.48.35-1.05.35-1.71 0-.7-.14-1.31-.43-1.84a2.91 2.91 0 0 0-1.25-1.22 4.08 4.08 0 0 0-3.42-.1c-.47.22-.88.54-1.22.95l.1.09.13-.05c-.13-.35-.3-.63-.55-.82a1.42 1.42 0 0 0-.9-.28c-.45 0-.83.13-1.1.38-.28.25-.42.62-.42 1.05 0 .28.05.56.15.85l.03.11.98-.2-.04-.14a3.86 3.86 0 0 1-.08-.3l-.13.03.13-.01-.03-.27-.13.02h.14c0-.21.04-.34.13-.43.08-.08.2-.13.38-.13.2 0 .33.07.46.24.12.17.21.48.27.92l.13-.02-.12-.05c-.1.25-.2.46-.33.63a1.32 1.32 0 0 1-.81.53c-.15.02-.34.04-.58.04v.13-.13h-.1v.13l.13-.03a4.3 4.3 0 0 1-.07-.34l-.02-.13-.13.02.02.13ZM61.42 6.2a4.8 4.8 0 0 0-1.53-1.16c.07.2.12.48.14.86.01.32.06.53.16.64.1.1.24.16.43.16.17 0 .32-.04.45-.11.12-.08.24-.21.35-.4Zm-5.29 2.66a10 10 0 0 1-.98.04h-.26v-.72h3.75a1.08 1.08 0 0 0-.3-.75.99.99 0 0 0-.72-.26c-.28 0-.5.05-.63.16a.53.53 0 0 0-.21.45v.15l-.79.04-.01-.25c0-.4.14-.72.41-.94.28-.22.67-.33 1.17-.33.6 0 1.06.17 1.38.51.32.35.48.84.48 1.5v.44h-.73c-.62 0-1.07.02-1.35.07-.3.05-.55.15-.78.3-.23.15-.4.33-.5.56-.12.23-.17.49-.17.8 0 .59.23 1.05.69 1.39.45.33 1.1.5 1.94.5a4.7 4.7 0 0 0 1.64-.27 3.03 3.03 0 0 0 1.9-2c.15-.47.23-.97.23-1.51a4 4 0 0 0-.46-1.96 1.6 1.6 0 0 1-.56.48 1.5 1.5 0 0 1-.7.17c-.43 0-.75-.13-.97-.39-.22-.26-.33-.64-.33-1.16 0-.4-.02-.68-.04-.84a.5.5 0 0 0-.26-.38l-.04-.01.27-.67a5.95 5.95 0 0 1 2.92 1.86c.67.83 1 1.81 1 2.95 0 .91-.18 1.71-.54 2.4A3.64 3.64 0 0 1 61 12.76a5.4 5.4 0 0 1-2.51.54c-.72 0-1.34-.11-1.86-.34a2.4 2.4 0 0 1-1.54-2.27c0-.4.09-.76.26-1.07.17-.32.43-.57.78-.76Z" fill="#fff"/>
  <path d="m61.42 6.2.1-.1c-.4-.46-.93-.86-1.57-1.17l-.32-.16.13.32c.07.16.12.44.13.82.02.32.07.56.2.71.12.15.31.22.53.22.2 0 .37-.05.52-.14.15-.1.28-.24.4-.44l.04-.08-.06-.07-.1.08-.12-.06a1 1 0 0 1-.3.34.7.7 0 0 1-.38.1c-.17 0-.27-.05-.33-.12-.06-.06-.12-.25-.13-.55-.02-.4-.07-.7-.15-.9l-.12.04-.06.12c.61.31 1.1.68 1.49 1.12l.1-.09Zm-5.29 2.66-.01-.13c-.28.02-.6.04-.97.04h-.13V8.3h3.76v-.14a1.2 1.2 0 0 0-.34-.83c-.2-.2-.5-.3-.82-.3-.3 0-.54.05-.71.18a.67.67 0 0 0-.27.56v.16l.14-.01V7.8l-.66.03-.01-.12-.13.01h.13a1 1 0 0 1 .37-.84c.24-.2.6-.3 1.08-.3.57 0 .99.16 1.28.47.3.31.44.77.45 1.4v.32h-.6c-.62 0-1.08.02-1.38.07-.3.05-.58.15-.82.31a1.5 1.5 0 0 0-.56.62c-.12.25-.17.53-.17.86 0 .62.25 1.14.74 1.5.49.35 1.16.52 2.02.52.63 0 1.2-.1 1.69-.28.5-.18.91-.46 1.24-.82.33-.35.57-.78.74-1.26.16-.48.24-1 .24-1.55a4.1 4.1 0 0 0-.49-2.02l-.1-.18-.12.16c-.14.2-.31.34-.51.44-.2.1-.4.16-.64.16-.4 0-.68-.12-.87-.35-.2-.22-.3-.57-.3-1.07 0-.4-.01-.68-.04-.87a.64.64 0 0 0-.33-.46l-.05-.03-.05.13.12.05.28-.67-.13-.05-.04.13c1.26.4 2.2 1 2.85 1.81.65.8.97 1.76.98 2.87 0 .9-.18 1.67-.53 2.34a3.5 3.5 0 0 1-1.52 1.51c-.67.35-1.49.53-2.45.53-.71 0-1.31-.11-1.8-.33-.5-.22-.86-.51-1.1-.88-.25-.37-.37-.8-.37-1.27a2 2 0 0 1 .24-1c.16-.3.4-.53.74-.71l.57-.32-.65.07.01.13-.06-.12a2.07 2.07 0 0 0-1.11 1.95c0 .52.13 1 .4 1.42.28.41.69.74 1.22.97.54.24 1.17.35 1.91.35 1 0 1.86-.18 2.57-.55a3.77 3.77 0 0 0 1.64-1.63c.37-.7.55-1.53.55-2.46a4.7 4.7 0 0 0-1.03-3.04 6.08 6.08 0 0 0-2.98-1.9l-.11-.03-.32.78-.05.12.16.07.05-.13-.07.12a.4.4 0 0 1 .2.28c.02.15.04.43.04.82 0 .54.1.96.36 1.25.25.29.62.43 1.07.43a1.64 1.64 0 0 0 1.36-.7l-.1-.08-.12.07c.3.54.45 1.17.45 1.89 0 .53-.08 1.02-.23 1.47a3.2 3.2 0 0 1-.68 1.16c-.3.33-.67.58-1.13.75-.47.17-1 .26-1.6.26-.82 0-1.44-.16-1.87-.47a1.49 1.49 0 0 1-.63-1.29c0-.28.05-.53.15-.73.1-.2.25-.37.46-.51.22-.14.46-.23.73-.28a9.2 9.2 0 0 1 1.33-.07h.86v-.57c0-.68-.16-1.21-.51-1.59a1.93 1.93 0 0 0-1.48-.56 2 2 0 0 0-1.25.36 1.3 1.3 0 0 0-.47 1.05l.02.26v.13l.93-.05h.13l-.01-.21v-.07c0-.16.05-.26.16-.34.1-.08.28-.14.55-.13.28 0 .48.07.63.22.15.15.24.36.26.65h.13v-.14h-3.89v1h.4c.38 0 .7-.02 1-.05l-.02-.13Zm15.08-1.13c0 .16-.02.34-.07.54l-.77-.12c.03-.14.04-.25.04-.33 0-.43-.28-.65-.84-.65a1 1 0 0 0-.73.27c-.18.17-.27.42-.29.74h.13c1.02 0 1.78.22 2.27.65.5.44.75 1.1.75 1.96 0 .79-.2 1.4-.6 1.85-.4.44-.93.66-1.6.66-.4 0-.75-.08-1.05-.22a2.3 2.3 0 0 1-.82-.75c-.27.38-.54.63-.83.77-.28.13-.63.2-1.04.2-.67 0-1.2-.23-1.6-.69a2.8 2.8 0 0 1-.6-1.91c0-.55.13-1.04.38-1.48.25-.44.61-.78 1.08-1.02a3.53 3.53 0 0 1 1.63-.36c.22 0 .4 0 .53.03l-.06.75a2.7 2.7 0 0 0-.42-.03c-.73 0-1.3.2-1.71.58a2.1 2.1 0 0 0-.62 1.6c0 .56.13.99.38 1.3.25.3.61.45 1.09.45.47 0 .82-.14 1.06-.4.24-.26.36-.67.36-1.22v-.08H68v.08c0 .56.12.97.37 1.23.24.26.6.39 1.1.39.47 0 .82-.15 1.06-.44.24-.29.36-.72.36-1.3a2 2 0 0 0-.28-1.16 1.54 1.54 0 0 0-.88-.55 6.6 6.6 0 0 0-1.66-.17h-.3v-.45c0-.65.16-1.14.48-1.49.32-.34.78-.51 1.38-.51.49 0 .87.1 1.16.32.28.22.42.54.42.96Z" fill="#fff"/>
  <path d="M71.21 7.73h-.13c0 .14-.02.31-.07.51l.13.03.02-.13-.77-.12-.02.13.13.03c.03-.14.05-.26.05-.36a.71.71 0 0 0-.27-.6 1.15 1.15 0 0 0-.71-.18c-.33 0-.62.1-.82.3-.2.2-.31.5-.33.83v.14h.26c1 0 1.72.22 2.18.62.47.41.7 1.02.7 1.86 0 .77-.19 1.35-.56 1.76a2 2 0 0 1-1.5.62 2.2 2.2 0 0 1-1-.21 2.14 2.14 0 0 1-.76-.7l-.1-.16-.12.16c-.26.36-.52.6-.77.72-.26.12-.6.19-.99.19a1.9 1.9 0 0 1-1.5-.64 2.7 2.7 0 0 1-.56-1.83c0-.53.12-1 .36-1.42a2.4 2.4 0 0 1 1.02-.96 3.4 3.4 0 0 1 1.57-.35c.22 0 .39.01.5.03l.03-.13-.13-.01-.06.75h.13l.02-.13a2.78 2.78 0 0 0-.44-.02c-.75 0-1.36.2-1.8.61-.45.42-.66 1-.66 1.7 0 .58.13 1.04.4 1.38.29.33.7.5 1.2.5s.9-.14 1.16-.44c.27-.3.4-.74.4-1.31v-.08h-.14v.14H68v-.14h-.13v.08c0 .58.12 1.03.4 1.32.28.3.69.43 1.2.43.5 0 .9-.16 1.16-.48.27-.33.4-.8.4-1.38 0-.54-.1-.96-.31-1.25a1.66 1.66 0 0 0-.96-.6 6.75 6.75 0 0 0-1.7-.17h-.16v-.32c0-.63.16-1.08.45-1.4.29-.3.7-.47 1.28-.47.47 0 .82.1 1.08.3.24.19.37.46.37.85h.27c0-.45-.16-.82-.48-1.07a2 2 0 0 0-1.24-.35c-.62 0-1.13.19-1.48.56-.35.38-.51.91-.51 1.58v.58h.43c.7 0 1.24.06 1.62.16.38.1.64.28.81.5.16.23.26.6.26 1.1 0 .55-.12.95-.33 1.2-.22.26-.52.4-.96.4-.47 0-.8-.13-1-.35-.22-.22-.34-.6-.34-1.14v-.21h-1v.2c0 .54-.12.92-.33 1.14-.2.23-.51.35-.96.35-.45 0-.76-.13-.99-.4a1.89 1.89 0 0 1-.35-1.22c0-.64.2-1.13.58-1.5a2.3 2.3 0 0 1 1.62-.54c.17 0 .3.01.4.03l.14.02.07-.89.01-.12-.12-.02a3.68 3.68 0 0 0-.55-.04c-.64 0-1.2.13-1.7.38-.48.25-.86.6-1.12 1.07-.27.46-.4.98-.4 1.55 0 .84.2 1.52.63 2 .42.49 1 .74 1.7.73.43 0 .8-.07 1.1-.21.31-.15.6-.42.88-.8l-.1-.09-.12.08c.26.36.55.63.87.79.32.16.7.23 1.1.23.7 0 1.28-.23 1.7-.7a2.8 2.8 0 0 0 .64-1.94c0-.89-.26-1.59-.79-2.06-.53-.46-1.32-.69-2.36-.69h-.13v.14h.14c.01-.29.1-.5.25-.65.15-.15.35-.22.63-.22.26 0 .45.05.55.13.1.08.16.2.16.38 0 .07-.01.17-.04.3l-.04.14.92.14.12.02.03-.12c.05-.2.08-.4.08-.57h-.14Z" fill="#fff"/>
</svg>
