<svg width="180" height="54" fill="none" xmlns="http://www.w3.org/2000/svg">
  <path d="M173.3 54H6.7A6.7 6.7 0 0 1 0 47.2V6.8C0 3 3 0 6.7 0h166.6a6.7 6.7 0 0 1 6.7 6.8v40.5c0 3.7-3 6.7-6.7 6.7Z" fill="#000"/>
  <path d="M27.6 26.2 13.4 41.5a3.8 3.8 0 0 0 5.7 2.3l16-9.3-7.5-8.3Z" fill="#EA4335"/>
  <path d="m42 23.6-7-4-7.7 7 7.8 7.9 6.9-4a3.9 3.9 0 0 0 2-3.5 4 4 0 0 0-2-3.4Z" fill="#FBBC04"/>
  <path d="M13.4 12.5a3.7 3.7 0 0 0-.1 1v27l.1 1 14.7-14.9-14.7-14Z" fill="#4285F4"/>
  <path d="m27.7 27 7.4-7.4-16-9.4a3.9 3.9 0 0 0-5.7 2.3L27.7 27Z" fill="#34A853"/>
  <path d="M131.5 32h2.2V17.4h-2.2V32Zm19.6-9.3-2.5 6.3-2.7-6.3h-2.3l3.9 8.8-2.2 5h2.2l6-13.8h-2.4Zm-12.3 7.7c-.7 0-1.7-.4-1.7-1.3 0-1.1 1.2-1.5 2.3-1.5 1 0 1.4.2 2 .4a2.6 2.6 0 0 1-2.6 2.3Zm.2-8c-1.5 0-3.2.7-3.8 2.2l1.9.8c.4-.8 1.2-1 2-1 1.1 0 2.2.6 2.3 1.8v.2a4.8 4.8 0 0 0-2.3-.6c-2 0-4.2 1.1-4.2 3.3 0 2 1.7 3.2 3.6 3.2a3 3 0 0 0 2.8-1.4v1h2.2v-5.5c0-2.6-2-4-4.5-4Zm-13.4 2h-3.1v-5h3.1a2.5 2.5 0 0 1 2.6 2.6c0 1-1 2.5-2.6 2.5Zm0-7h-5.3V32h2.2v-5.5h3c2.5 0 4.8-1.8 4.8-4.5 0-2.8-2.3-4.6-4.8-4.6ZM97 30.4c-1.5 0-2.7-1.3-2.7-3 0-1.8 1.2-3 2.7-3 1.5 0 2.7 1.2 2.7 3 0 1.7-1.2 3-2.7 3Zm2.5-7a3.4 3.4 0 0 0-2.7-1 5 5 0 0 0-4.7 5 4.9 4.9 0 0 0 4.7 4.9c1.2 0 2.2-.5 2.6-1.1h.1v.7c0 1.9-1 2.9-2.6 2.9a2.7 2.7 0 0 1-2.5-1.8l-2 .8a4.7 4.7 0 0 0 4.5 3c2.5 0 4.7-1.5 4.7-5.2v-9h-2v.9Zm3.6 8.6h2.2V17.4h-2.2V32Zm5.4-4.8a2.7 2.7 0 0 1 2.6-2.9c.8 0 1.6.4 1.8 1l-4.4 1.9Zm6.7-1.7c-.4-1-1.6-3.1-4.2-3.1s-4.7 2-4.7 5c0 2.7 2.1 4.9 5 4.9a5 5 0 0 0 4-2.2l-1.6-1.1a2.8 2.8 0 0 1-2.5 1.3c-1 0-1.9-.5-2.4-1.5l6.7-2.7-.3-.6ZM62.5 24v2h5a4.4 4.4 0 0 1-1 2.6 5.2 5.2 0 0 1-4 1.6 5.5 5.5 0 0 1-5.5-5.6 5.5 5.5 0 0 1 9.3-4.1l1.5-1.5a7.3 7.3 0 0 0-5.3-2.1 7.8 7.8 0 0 0-7.8 7.7 7.8 7.8 0 0 0 7.8 7.7A7 7 0 0 0 68 30a7 7 0 0 0 1.8-4.9V24h-7.2Zm13 6.5a3 3 0 0 1-2.9-3c0-1.8 1.3-3 2.8-3 1.5 0 2.8 1.2 2.8 3 0 1.7-1.3 3-2.8 3Zm0-8a4.9 4.9 0 0 0-5 5 4.9 4.9 0 0 0 5 4.9 4.9 4.9 0 0 0 5-5 4.9 4.9 0 0 0-5-5Zm10.8 8c-1.5 0-2.8-1.3-2.8-3 0-1.8 1.3-3 2.8-3 1.5 0 2.8 1.2 2.8 3 0 1.7-1.3 3-2.8 3Zm0-8a4.9 4.9 0 0 0-5 5 4.9 4.9 0 0 0 5 4.9 4.9 4.9 0 0 0 5-5 4.9 4.9 0 0 0-5-5ZM58.5 43.8h-.1a1 1 0 0 0-.6.1.5.5 0 0 0-.2.5v.3l.5.2c.2 0 .3 0 .4-.2l.1-.3-.1-.6Zm.7 0 .1.6c0 .4 0 .7-.3.9-.2.2-.5.3-.9.3s-.7-.1-1-.4a1.2 1.2 0 0 1-.3-.8c0-.4.2-.7.5-1a2 2 0 0 1 1.1-.3c.8 0 1.3.2 1.8.6.4.3.6.8.6 1.4a2 2 0 0 1-.7 1.6c-.5.3-1.1.5-2 .5a3.8 3.8 0 0 1-1.7-.3 2.4 2.4 0 0 1-1.1-1 3.1 3.1 0 0 1-.4-1.6c0-.5.2-1 .4-1.5.3-.5.7-.8 1.2-1a4 4 0 0 1 1.7-.4 6.3 6.3 0 0 1 2.6.4l-.3.7a5.3 5.3 0 0 0-2.3-.4c-.8 0-1.4.2-1.8.6a2 2 0 0 0-.7 1.7c0 .6.2 1.1.6 1.5.4.4 1 .6 1.7.6s1.2-.1 1.5-.4c.4-.2.6-.5.6-1l-.2-.8-.7-.4Z" fill="#fff"/>
  <path d="M58.5 43.8v-.1h-.1l-.7.1a.6.6 0 0 0-.3.6c0 .1 0 .3.2.4.1.2.3.2.5.2s.4 0 .5-.2a.7.7 0 0 0 .1-.4l-.1-.7h-.1l-.1.1v1h-.7v-.3l.1-.4h.6v-.2Zm.7 0-.1.1v.5c0 .4 0 .6-.2.8l-.8.2c-.4 0-.7 0-.8-.3-.2-.1-.3-.4-.3-.7a.9.9 0 0 1 .3-.8 2 2 0 0 1 1.1-.3c.8 0 1.3.1 1.7.5.4.3.6.7.6 1.2 0 .7-.3 1.2-.7 1.6-.4.3-1 .5-2 .5-.6 0-1.1-.1-1.6-.3a2.3 2.3 0 0 1-1-1 3 3 0 0 1-.4-1.5c0-.5.2-1 .4-1.4.3-.5.7-.8 1.1-1a3.8 3.8 0 0 1 1.7-.4 5.6 5.6 0 0 1 2.5.4v-.1l-.3.7.1-.1a5.5 5.5 0 0 0-2.3-.4c-.8 0-1.5.2-2 .6s-.7 1-.7 1.7.2 1.3.7 1.7c.4.4 1 .6 1.8.6a2.8 2.8 0 0 0 1.6-.4c.4-.2.6-.6.6-1.1 0-.3 0-.6-.3-.8-.1-.3-.4-.4-.7-.5l-.2-.1v.2h.2v.1l.5.4c.2.2.2.4.2.7 0 .4-.1.7-.4 1-.3.1-.8.3-1.5.3s-1.3-.2-1.6-.6a2 2 0 0 1-.6-1.5c0-.7.2-1.2.6-1.5a2.6 2.6 0 0 1 1.8-.6 5.1 5.1 0 0 1 2.2.4l.2.1.3-.8v-.2a5.8 5.8 0 0 0-1.3-.3l-1.4-.1c-.6 0-1.2 0-1.8.3-.5.3-.9.6-1.2 1.1a3 3 0 0 0-.4 1.6c0 .6.1 1.2.4 1.6.2.5.6.8 1 1a4 4 0 0 0 1.9.5c.9 0 1.6-.2 2-.6.6-.4.8-1 .8-1.8 0-.6-.2-1-.6-1.5a2.7 2.7 0 0 0-1.9-.5 2 2 0 0 0-1.2.3c-.3.3-.5.6-.5 1s.1.8.4 1c.2.3.6.4 1 .4s.8-.1 1-.3c.2-.2.4-.6.3-1v-.6h-.2Zm9.8-1a6 6 0 0 1-.5 2.4c-.4.6-.8 1.1-1.5 1.5a4.8 4.8 0 0 1-2.3.5c-.7 0-1.3 0-1.8-.3a2.5 2.5 0 0 1-1.6-2.4c0-.4.1-.8.4-1 .2-.4.5-.6 1-.8.4-.2 1-.3 1.6-.3h.7a1 1 0 0 0-.3-.7 1 1 0 0 0-.7-.2c-.5 0-.8.2-.8.6v.2l-.7.1a2.5 2.5 0 0 1 0-.4c0-.4.1-.7.4-.9.3-.2.6-.3 1-.3.6 0 1 .1 1.4.5.3.3.4.8.4 1.4v.4h-1.3c-.6 0-1 0-1.4.2-.3 0-.5.2-.7.4l-.2.8c0 .6.2 1.1.7 1.5.5.3 1 .5 1.9.5a3.9 3.9 0 0 0 1.9-.4 3 3 0 0 0 1.2-1.3 4.4 4.4 0 0 0 .4-2 4.2 4.2 0 0 0-.4-2 2.8 2.8 0 0 0-1.2-1.2 3.8 3.8 0 0 0-1.8-.4 6 6 0 0 0-3 .8l-.3-.7a6.8 6.8 0 0 1 3.3-.8 5 5 0 0 1 1.6.2c.5.2 1 .4 1.3.8.4.3.7.8 1 1.3.2.6.3 1.3.3 2Z" fill="#fff"/>
  <path d="M69 42.8h-.1c0 .9-.2 1.6-.5 2.3-.4.6-.8 1.1-1.5 1.5-.6.3-1.3.5-2.2.5-.7 0-1.3-.1-1.8-.3a2.4 2.4 0 0 1-1-1 2.5 2.5 0 0 1-.4-1.3c0-.4 0-.7.3-1a2 2 0 0 1 .9-.7c.4-.2 1-.3 1.6-.3h.8a1.2 1.2 0 0 0-.3-.9 1.1 1.1 0 0 0-.8-.3 1 1 0 0 0-.6.2.7.7 0 0 0-.3.6l-.6.2v.1h.2V42c0-.4 0-.6.3-.8.2-.2.5-.3 1-.3s.9.2 1.2.5c.2.3.4.7.4 1.3v.3H63c-.3.1-.6.3-.8.6a1.5 1.5 0 0 0-.2.8c0 .7.2 1.2.7 1.6a3.2 3.2 0 0 0 2 .5 4 4 0 0 0 2-.4 3 3 0 0 0 1.2-1.4c.3-.6.5-1.2.5-2a4.3 4.3 0 0 0-.5-2 3 3 0 0 0-1.3-1.3 3.9 3.9 0 0 0-1.8-.4 6 6 0 0 0-3.1.8v.1h.2l-.3-.7h-.2l.1.2a6.7 6.7 0 0 1 3.3-.9c.6 0 1 0 1.6.2a3.4 3.4 0 0 1 2.1 2.1 5 5 0 0 1 .4 1.9h.2c0-.8 0-1.4-.3-2a3.6 3.6 0 0 0-2.4-2.2 5.1 5.1 0 0 0-1.6-.3 7 7 0 0 0-3.4 1h-.1l.4.8v.1h.1a5.8 5.8 0 0 1 3-.9c.6 0 1.2.2 1.7.4.5.3 1 .7 1.2 1.2a4.9 4.9 0 0 1 0 3.9c-.3.5-.7.9-1.2 1.1a3.7 3.7 0 0 1-1.8.5 3 3 0 0 1-1.8-.5 1.6 1.6 0 0 1-.7-1.4l.2-.7.7-.4 1.3-.2h1.4v-.5c0-.7-.1-1.2-.4-1.5a1.9 1.9 0 0 0-1.4-.5c-.5 0-1 0-1.2.3-.3.2-.4.6-.4 1v.7l.9-.2h.1v-.3h-.2.2l.1-.4.5-.1a.8.8 0 0 1 .6.2c.2.1.2.3.3.6v-.1h-.6a4.7 4.7 0 0 0-1.7.2 2 2 0 0 0-1 .8 2 2 0 0 0-.4 1.2c0 .6.1 1.1.4 1.5.3.5.7.8 1.2 1a4.6 4.6 0 0 0 1.9.4c.9 0 1.7-.2 2.4-.6a3.6 3.6 0 0 0 1.5-1.6c.4-.7.5-1.5.5-2.4H69Zm2.6.7-.8 1h.4v.5c0 .5 0 .9.4 1.1.3.3.8.4 1.4.4.7 0 1.3-.2 1.6-.5.4-.3.5-.7.5-1.2 0-.6-.1-1-.4-1.2a2.1 2.1 0 0 0-1.4-.4 4.7 4.7 0 0 0-1.7.3Zm7 .7c0 .6 0 1.1-.3 1.6a2.4 2.4 0 0 1-2.2 1.3h-.5v-.7h.4c.4 0 .7 0 1-.2.3-.2.5-.5.6-.8.2-.4.2-.8.2-1.3 0-.8-.2-1.4-.7-1.9a2.7 2.7 0 0 0-1.9-.7c-.5 0-1 .1-1.4.3a4.7 4.7 0 0 0-1.3.8 3 3 0 0 1 1-.1c.7 0 1.3.2 1.7.6.5.4.7 1 .7 1.7 0 .8-.3 1.4-.7 1.8-.5.4-1.2.6-2.2.6a3 3 0 0 1-1.9-.5 2 2 0 0 1-.7-1.6V45l-.3.6-.7-.3a19.7 19.7 0 0 1 2.3-2.9c-.1-.5-.4-.7-.8-.7-.2 0-.3 0-.4.2-.2 0-.2.2-.2.5v.2l.1.3-.7.2a2.6 2.6 0 0 1-.2-.8c0-.4.2-.7.4-1 .3-.2.6-.3 1-.3.6 0 1 .3 1.3 1a5 5 0 0 1 1.5-1 4.3 4.3 0 0 1 3.4.2c.5.3.9.7 1.1 1.2.3.5.4 1 .4 1.8Z" fill="#fff"/>
  <path d="M71.6 43.5v-.1l-.9 1-.1.2h.6l-.1-.1a2.2 2.2 0 0 0-.1.5c0 .5.2 1 .5 1.2.4.3.9.4 1.5.4.8 0 1.3-.1 1.7-.4.4-.4.6-.8.6-1.4 0-.6-.2-1-.6-1.3-.3-.3-.8-.4-1.4-.4a4.2 4.2 0 0 0-1.7.3v.2a4 4 0 0 1 1.7-.3c.5 0 1 .2 1.3.4.2.2.4.6.4 1 0 .6-.2 1-.5 1.2-.3.3-.8.5-1.5.5-.6 0-1-.2-1.3-.4-.3-.2-.4-.5-.4-1v-.6h-.5v.1h.1c.3-.2.5-.6.8-1Zm7 .7h-.1c0 .6-.1 1-.3 1.5A2.2 2.2 0 0 1 76 47h-.5v.1h.1v-.7.2h.3c.4 0 .8-.1 1-.3.4-.2.6-.5.8-.9l.2-1.3c0-.8-.3-1.5-.8-2a2.8 2.8 0 0 0-2-.7 4 4 0 0 0-1.5.3c-.4.2-.9.4-1.3.8l-.5.5.6-.2 1-.2c.7 0 1.3.2 1.7.6.4.3.6.9.6 1.6 0 .7-.3 1.3-.7 1.7a3 3 0 0 1-2 .6 3 3 0 0 1-1.9-.5c-.4-.3-.6-.8-.6-1.5v-.6l-.6 1-.5-.3v.1a19.4 19.4 0 0 1 2.3-2.8v-.1c-.1-.5-.4-.9-.9-.8a.8.8 0 0 0-.5.2.9.9 0 0 0-.2.6v.6h.2v-.2l-.7.2v.1h.1a2.4 2.4 0 0 1-.1-.8c0-.4 0-.7.3-.9.2-.2.5-.3 1-.3s.9.3 1.1.9v.2l.2-.2 1.5-.8a4.2 4.2 0 0 1 3.2.1c.5.3.9.7 1.1 1.1.3.5.4 1.1.4 1.8h.3a4 4 0 0 0-.4-1.9 2.9 2.9 0 0 0-1.3-1.2 4.4 4.4 0 0 0-3.4-.2c-.5.2-1 .5-1.5 1h.2c-.3-.7-.8-1-1.5-1-.4 0-.8 0-1 .3-.4.3-.5.7-.5 1 0 .4 0 .7.2 1l1-.1v-.2a4.1 4.1 0 0 1-.2-.3v-.2h-.1.1c0-.2 0-.4.2-.4l.3-.2c.3 0 .5.2.7.7v-.2c-.6.7-1.4 1.6-2.3 2.9v.1l.8.5.5-.7-.1-.1h-.2v.1c0 .7.3 1.3.7 1.7a3.1 3.1 0 0 0 2 .6c1 0 1.7-.2 2.3-.7.5-.4.7-1.1.7-2 0-.7-.2-1.3-.7-1.7a2.7 2.7 0 0 0-1.8-.6l-1 .1v.2l1.3-.8c.5-.2 1-.2 1.4-.2.8 0 1.4.2 1.9.6.4.4.6 1 .6 1.8 0 .5 0 .9-.2 1.2-.1.4-.3.6-.6.8a1.7 1.7 0 0 1-1 .2h-.4v.9a3 3 0 0 0 2-.3c.4-.2.7-.6 1-1 .1-.6.3-1.1.3-1.7h-.2Z" fill="#fff"/>
  <path d="m80.2 40.6.1-.6a1 1 0 0 0-.5-1l-1.6-.2c-.7 0-1.3 0-1.6.3a1 1 0 0 0-.6.9l.1.6h-.7a2 2 0 0 1-.1-.7c0-.6.2-1 .7-1.3a3.9 3.9 0 0 1 2.2-.5c1 0 1.7.1 2.1.5.5.3.8.7.8 1.3a2 2 0 0 1-.2.8l-.7-.1Z" fill="#fff"/>
  <path d="M80.2 40.6h.2V40a1 1 0 0 0-.5-1c-.4-.2-1-.3-1.7-.3s-1.3 0-1.7.3a1 1 0 0 0-.6 1l.1.6h.1v-.2l-.7.2h.2a1.9 1.9 0 0 1-.2-.7c0-.5.3-1 .7-1.2a4 4 0 0 1 2.1-.5c1 0 1.6.2 2 .5.5.3.7.7.7 1.2v.7l-.6-.2v.2l.6.2h.1c.2-.3.2-.6.2-.9a1.7 1.7 0 0 0-.8-1.4 4 4 0 0 0-2.2-.6c-1 0-1.7.2-2.2.6s-.8.8-.8 1.5l.1.7v.1l.9-.1h.1v-.2l-.1-.5c0-.4.1-.6.4-.8.4-.2.9-.3 1.6-.3.7 0 1.2.1 1.5.3.4.2.5.4.5.8v.5l-.1.2h.1v-.1Zm4.5 2.6c-.2.6-.5 1-.9 1.3-.4.3-.9.4-1.5.5.2.5.5.9 1 1.1.4.3.9.4 1.6.4.7 0 1.2-.2 1.6-.5.4-.3.6-.7.6-1.3 0-.5-.2-.9-.5-1.1a2.1 2.1 0 0 0-1.4-.4h-.5Zm-2.7.7v.3h.8a1.4 1.4 0 0 0 .9-.6l.3-.6a2.3 2.3 0 0 0-.3-1 .7.7 0 0 0-.6-.3c-.2 0-.3 0-.4.2-.2 0-.2.3-.2.5v.2l.1.3-.7.2a2.6 2.6 0 0 1-.2-.8c0-.4.2-.7.4-1 .3-.2.6-.3 1-.3s.6 0 .8.3c.3.1.4.4.5.7a3.3 3.3 0 0 1 2.7-1.2 4 4 0 0 1 1.8.4c.5.3 1 .6 1.2 1.1.3.6.4 1.1.4 1.8s0 1.2-.3 1.7A2.4 2.4 0 0 1 88 47h-.5v-.7h.4c.6 0 1-.2 1.4-.6.3-.4.5-1 .5-1.7 0-.8-.3-1.4-.8-1.9a2.7 2.7 0 0 0-2-.7 2.8 2.8 0 0 0-2.1 1h.5c.7 0 1.3.2 1.8.6.4.4.6 1 .6 1.7s-.2 1.3-.7 1.8a4 4 0 0 1-2.3.6 3.5 3.5 0 0 1-2.4-.8 3.9 3.9 0 0 1-1.1-2.4l.7-.1Z" fill="#fff"/>
  <path d="M84.7 43.2h-.2c-.1.5-.4 1-.8 1.2-.3.3-.8.4-1.4.4H82v.2c.3.5.6 1 1 1.2.5.3 1 .4 1.8.4.7 0 1.3-.1 1.7-.5.4-.3.6-.8.6-1.4 0-.5-.2-1-.5-1.2a2.3 2.3 0 0 0-1.5-.5h-.6v.4h.6a2 2 0 0 1 1.3.4c.3.2.4.5.4 1s-.1 1-.5 1.2c-.3.3-.8.5-1.5.5a3 3 0 0 1-1.6-.4 2 2 0 0 1-.9-1.1h-.1v.2c.7 0 1.2-.2 1.6-.5.4-.3.7-.8.9-1.4h-.1Zm-2.7.7h-.1v.4h1a1.6 1.6 0 0 0 1-.6l.3-.7a2.4 2.4 0 0 0-.3-1 .8.8 0 0 0-.6-.4.8.8 0 0 0-.6.2.8.8 0 0 0-.2.6v.6h.2v-.2l-.7.2v.1h.1a2.4 2.4 0 0 1-.1-.8c0-.4 0-.7.3-.9.2-.2.5-.3 1-.3.2 0 .5.1.7.3.2.1.3.3.4.7l.1.2.2-.2a3.2 3.2 0 0 1 2.5-1.2c.7 0 1.3.2 1.8.4s.9.6 1.1 1.1c.3.5.4 1 .4 1.7s0 1.2-.3 1.6A2.2 2.2 0 0 1 88 47h-.5v.1h.2v-.7h-.1v.1h.3a1.8 1.8 0 0 0 1.5-.6c.3-.4.5-1 .5-1.8a2.7 2.7 0 0 0-.8-2 2.8 2.8 0 0 0-2-.7 3 3 0 0 0-1.3.2 2.9 2.9 0 0 0-1 .8l-.2.3h.3l.5-.1c.7 0 1.3.2 1.7.6.4.3.6.8.6 1.6 0 .7-.3 1.2-.7 1.7-.5.4-1.2.6-2.1.6a3.4 3.4 0 0 1-2.4-.8 3.7 3.7 0 0 1-1.1-2.3h-.1v.1h.7v-.4h-1v.2a4 4 0 0 0 1.2 2.5c.7.6 1.5.9 2.6.9a4 4 0 0 0 2.3-.7c.5-.5.8-1.2.8-2a2.3 2.3 0 0 0-.7-1.7 2.7 2.7 0 0 0-2-.7H85v.2h.1a2.6 2.6 0 0 1 2-.9 3 3 0 0 1 2 .7c.4.5.6 1 .6 1.8 0 .7-.1 1.3-.4 1.6-.3.4-.7.6-1.3.6h-.5v1a3 3 0 0 0 2-.4c.4-.2.7-.6 1-1a4.8 4.8 0 0 0-.1-3.6A2.9 2.9 0 0 0 89 41a4 4 0 0 0-3.4-.1 3.7 3.7 0 0 0-1.2 1h.2a1.7 1.7 0 0 0-.6-.9 1.4 1.4 0 0 0-.9-.2c-.4 0-.8 0-1 .3-.3.3-.5.7-.5 1 0 .4 0 .6.2 1l1-.2v.1a4.4 4.4 0 0 1-.1-.3h-.2.2v-.2h-.2.1c0-.2 0-.4.2-.5h.4c.2 0 .3 0 .4.2l.3.9h.1l-.1-.1a3 3 0 0 1-.3.6l-.4.4-.5.2h-.5v.1-.1H82v.1a4.3 4.3 0 0 1 0-.3v-.2.2Z" fill="#fff"/>
  <path d="M90.2 38.4h.3c.4 0 .5 0 .5-.4v-.2l-.3-.1h-.4l-.1.5v.2Zm-1-1.3c.4 0 .6.2.7.5a.8.8 0 0 1 .8-.5.9.9 0 0 1 .7.2c.2.2.2.4.2.7 0 .3 0 .6-.2.8-.2.2-.5.2-.9.2h-.3v2.7h-.7v-3l-.1-.7a.8.8 0 0 0-.4-.3l.2-.6Z" fill="#fff"/>
  <path d="M90.2 38.4v.2h.3a.8.8 0 0 0 .5-.1.5.5 0 0 0 .2-.5l-.1-.3-.4-.2c-.2 0-.4 0-.5.2a.9.9 0 0 0-.1.5v.4-.2h.2v-.2h-.1.1l.1-.3.3-.1v-.2.2h.1l.1.3h.1-.1v.1l-.4.1v.2-.2h-.3v.1Zm-1-1.3.6.5v.3l.2-.3c.2-.3.4-.4.7-.4.3 0 .4 0 .6.2l.2.6c0 .3 0 .5-.3.7-.1.1-.3.2-.7.2h-.4v2.7h-.5v-2.9l-.1-.8a.9.9 0 0 0-.5-.3v.1l.4-.6h-.2l-.4.7h.1c.2 0 .3.2.4.3v3.7h1V39h-.1v.2h.3c.4 0 .7-.1 1-.3.2-.2.3-.5.3-.9 0-.3-.1-.6-.3-.8a1 1 0 0 0-.8-.3 1 1 0 0 0-1 .6h.3c-.1-.3-.4-.4-.7-.5h-.1Zm16 6.1c0 .6-.2 1-.6 1.4-.4.3-1 .5-1.6.5-.6 0-1-.1-1.4-.4-.3-.2-.4-.6-.4-1v-.4h-1.6v-.7h4v.7H102a.7.7 0 0 0 0 .4c0 .5.3.7 1 .7.4 0 .8-.1 1-.3.3-.2.4-.5.4-.9 0-.6-.2-1-.7-1.3a3.6 3.6 0 0 0-2-.4 4 4 0 0 0-2.8 1c-.6.6-1 1.5-1 2.7a3 3 0 0 0 1 2.4c.5.6 1.4.9 2.5.9 1 0 1.7-.2 2.3-.7.5-.5.8-1.1.8-2v-.4h.7a3.3 3.3 0 0 1-.4 2.3 3 3 0 0 1-1.4 1.1c-.6.3-1.3.4-2 .4-1.4 0-2.4-.3-3.2-1a4 4 0 0 1-1-3c0-1 .2-1.7.5-2.4a3.7 3.7 0 0 1 1.6-1.5c.7-.3 1.5-.5 2.5-.5s2 .2 2.5.6c.6.4.9 1 .9 1.8Z" fill="#fff"/>
  <path d="M105.2 43.2h-.2c0 .6-.2 1-.5 1.3-.4.3-.9.5-1.6.5-.5 0-1-.2-1.2-.4-.3-.2-.4-.5-.4-1v-.4h-1.5v-.4h3.6v.4h-1.5a.8.8 0 0 0-.1.5c0 .2 0 .5.3.6.2.2.5.2.8.2.5 0 1 0 1.2-.3.3-.3.4-.6.4-1 0-.6-.2-1-.7-1.4a3.7 3.7 0 0 0-2-.4 4 4 0 0 0-3 1 3.8 3.8 0 0 0-1 2.8c0 1 .3 2 1 2.5.6.6 1.5 1 2.6 1a3.6 3.6 0 0 0 2.3-.8c.6-.5 1-1.2 1-2v-.5h-.2v.2h.7v-.2h-.1a3.2 3.2 0 0 1-.4 2.2c-.3.5-.8.8-1.3 1.1-.6.3-1.3.4-2 .4-1.4 0-2.4-.3-3-1-.8-.7-1.1-1.7-1.1-3 0-.8.2-1.6.5-2.2.4-.6 1-1.1 1.6-1.5a5.2 5.2 0 0 1 2.4-.5c1 0 1.9.2 2.4.6.6.4.8 1 .8 1.7h.3c0-.8-.3-1.5-1-1.9a4.4 4.4 0 0 0-2.5-.6c-1 0-1.8.1-2.5.5-.8.4-1.3.9-1.7 1.6a4.8 4.8 0 0 0-.6 2.4c0 1.3.4 2.3 1.2 3 .7.8 1.8 1.2 3.2 1.2a4.9 4.9 0 0 0 2-.5 3.2 3.2 0 0 0 2-3v-.6h-1v.5c0 .8-.3 1.4-.8 1.9-.6.4-1.3.6-2.2.6a3.4 3.4 0 0 1-2.5-.8c-.5-.5-.8-1.3-.8-2.3 0-1.2.3-2 1-2.6.6-.7 1.5-1 2.7-1 .8 0 1.5.2 1.9.4.4.3.5.7.5 1.2 0 .4 0 .6-.3.8l-1 .2a1.3 1.3 0 0 1-.7-.1l-.2-.4.1-.3h-.1 1.6v-.9h-4v1h1.6v-.2h-.1v.4c0 .5 0 .9.4 1.1.4.3.8.4 1.4.4.8 0 1.3-.1 1.8-.5.4-.4.6-.9.6-1.5h-.1Zm1.8 2.9c.2.3.6.4 1 .4l.6-.1.2-.4-.2-.4a.7.7 0 0 0-.5-.2c-.4 0-.8.2-1.1.7Zm7-3a6.4 6.4 0 0 1-.3 2.2 3.1 3.1 0 0 1-1 1.4c-.4.4-.9.5-1.4.5-.4 0-.6 0-.8-.2a1.1 1.1 0 0 1-.5-.5 1.5 1.5 0 0 1-.1-.6v-.5l.3-.7.2-.7.1-.5c0-.4-.1-.8-.4-1a1.8 1.8 0 0 0-1.2-.4c-.5 0-1 0-1.3.3a2 2 0 0 0-.7.9 3.3 3.3 0 0 0-.2 2.2 2 2 0 0 1 1.5-.8c.4 0 .7.1 1 .3.2.3.3.6.3 1 0 .3-.1.7-.4.9-.2.2-.6.3-1 .3a2.1 2.1 0 0 1-1.2-.3 2.2 2.2 0 0 1-.8-1 3.6 3.6 0 0 1 0-3c.3-.5.7-.9 1.2-1.1.4-.3 1-.4 1.6-.4.7 0 1.3.2 1.7.5.5.4.7.9.7 1.5a2.8 2.8 0 0 1-.2 1l-.2.5-.2.6v.4l.1.5.5.1c.3 0 .7-.1 1-.4l.7-1.1.2-1.8a4.9 4.9 0 0 0-.4-2.2c-.3-.6-.7-1-1.3-1.3a4 4 0 0 0-2-.5 6.4 6.4 0 0 0-3.2.8l-.4-.7a7.7 7.7 0 0 1 3.6-.8c1 0 1.8.2 2.4.5a3.7 3.7 0 0 1 1.6 1.6c.3.8.5 1.6.5 2.6Z" fill="#fff"/>
  <path d="m107 46-.1.2c.2.3.6.5 1.1.5.3 0 .5 0 .7-.2a.7.7 0 0 0 .2-.6c0-.2 0-.3-.2-.5a.8.8 0 0 0-.6-.2c-.4 0-.9.3-1.2.8h-.1v.1h.2c.4-.4.8-.6 1.1-.6l.4.1.1.3-.1.4-.5.1c-.4 0-.7-.1-1-.4Zm7-2.8h-.1a6 6 0 0 1-.4 2 3 3 0 0 1-.9 1.4c-.4.3-.8.5-1.3.5a1.4 1.4 0 0 1-.8-.2 1 1 0 0 1-.4-.4 1.4 1.4 0 0 1 0-.6v-.5l.2-.6.3-.7v-.6c0-.5-.1-.9-.4-1.1a2 2 0 0 0-1.3-.4c-.5 0-1 0-1.3.3a2 2 0 0 0-.9.9 3 3 0 0 0-.3 1.4l.1 1 .1.1.2-.1c.4-.5.9-.8 1.4-.8.4 0 .6.1.9.3.2.2.3.5.3.8 0 .4-.1.7-.4.9-.2.2-.5.3-1 .3-.4 0-.8-.1-1-.3a2 2 0 0 1-.8-1 3.1 3.1 0 0 1-.3-1.2c0-.6.2-1.2.4-1.6a2.5 2.5 0 0 1 1-1.1 3 3 0 0 1 1.6-.4c.7 0 1.3.2 1.6.5.4.4.6.8.6 1.4a2.7 2.7 0 0 1-.1.9l-.2.6-.2.6a1.4 1.4 0 0 0-.1.4c0 .2 0 .4.2.6l.6.2c.4 0 .7-.2 1-.5.3-.2.6-.6.8-1.2a5.6 5.6 0 0 0 .2-1.8 5 5 0 0 0-.4-2.2 3.2 3.2 0 0 0-1.3-1.4 4.1 4.1 0 0 0-2-.5 6.5 6.5 0 0 0-3.4.8v.1h.2l-.4-.7v.2a7.6 7.6 0 0 1 3.5-.9c1 0 1.7.2 2.4.6.6.3 1 .8 1.4 1.5.4.7.6 1.5.6 2.5h.2c0-1-.2-1.9-.5-2.6-.4-.7-1-1.3-1.6-1.7a5 5 0 0 0-2.5-.6c-1.3 0-2.5.3-3.7 1l.3.8.1.1h.1a6.2 6.2 0 0 1 3.2-.9c.8 0 1.4.2 2 .5.5.3.9.7 1.1 1.3.3.6.5 1.3.5 2.1a5.4 5.4 0 0 1-.3 1.8l-.6 1c-.3.3-.6.4-.9.4l-.4-.1-.2-.4.1-.4.2-.5.2-.6a3.3 3.3 0 0 0 .2-1 2 2 0 0 0-.7-1.6c-.4-.4-1-.6-1.8-.6-.6 0-1.2.2-1.7.5a2 2 0 0 0-1.1 1.1 3.6 3.6 0 0 0-.1 3.2 2.1 2.1 0 0 0 2 1.4c.5 0 1-.2 1.2-.4.3-.3.4-.6.4-1 0-.5 0-.8-.4-1a1.5 1.5 0 0 0-1-.4c-.6 0-1.2.2-1.6.8h.2a3 3 0 0 1-.1-.8c0-.5 0-1 .3-1.3.1-.3.4-.6.7-.8a2 2 0 0 1 1.1-.3c.5 0 1 .1 1.2.4.2.2.4.5.4 1v.4l-.3.6-.3.8v1.2l.6.5c.2.2.5.3.9.3.5 0 1-.2 1.5-.6.4-.3.7-.8 1-1.4.2-.7.3-1.4.3-2.2h-.1Zm.3 3.2.6.1c.6 0 1-.2 1.2-.5.2-.4.3-1 .3-1.7a3 3 0 0 0-.3-1.6c-.3-.4-.6-.6-1.2-.6h-.6l-.1-.6.8-.1a2 2 0 0 1 1.6.7c.4.5.6 1.2.6 2.2 0 1-.2 1.7-.6 2.2-.3.5-.9.7-1.6.7a3 3 0 0 1-.8-.1l.1-.7Z" fill="#fff"/>
  <path d="M114.3 46.4v.2h.6c.6 0 1-.2 1.3-.6a3.9 3.9 0 0 0 0-3.4c-.3-.4-.7-.6-1.3-.6a2 2 0 0 0-.6 0v.2h.2l-.2-.7h-.1v.1h.8c.7 0 1.2.1 1.5.6.4.5.6 1.2.6 2.1 0 1-.2 1.7-.6 2.1-.3.5-.8.7-1.5.7l-.8-.1v.1h.1l.2-.6h-.2v-.1l-.2.7v.1l1 .2a2 2 0 0 0 1.7-.8c.4-.5.6-1.3.6-2.3a4 4 0 0 0-.6-2.3 2 2 0 0 0-1.8-.7 3 3 0 0 0-.9 0v.1l.1.8v.2h.2l.5-.2c.5 0 .9.2 1 .5a3 3 0 0 1 .4 1.6 3 3 0 0 1-.3 1.6c-.2.3-.6.5-1 .5l-.6-.1h-.2v.1h.1Zm12.2-2.5c0 1-.2 1.8-.8 2.4-.5.6-1.2.8-2 .8h-.6v-.7h.4c.8 0 1.3-.2 1.7-.6.4-.4.6-1 .6-1.9 0-.7-.2-1.3-.6-1.7-.3-.5-.8-.7-1.3-.7-.6 0-1 .2-1.3.5-.4.4-.7.9-.8 1.5h.4c.4 0 .7 0 1 .3.1.2.3.6.3 1 0 .5-.1.9-.3 1.3l-1 .8c-.4.2-.8.3-1.4.3-.9 0-1.6-.3-2.1-.8a3.4 3.4 0 0 1-.8-2.3c0-.7.2-1.3.4-1.8s.6-.8 1-1.1a3 3 0 0 1 1.7-.4 4 4 0 0 1 .5 0v.7a6 6 0 0 0-.5 0c-.7 0-1.3.2-1.7.7-.4.4-.6 1-.6 2 0 .7.2 1.2.6 1.7.3.4.8.6 1.5.6.6 0 1-.2 1.4-.5.3-.3.5-.7.5-1.2s-.2-.7-.5-.7h-.3l-.2.2-.7-.2c.1-1.1.5-2 1-2.5a2.5 2.5 0 0 1 1.9-.8c.5 0 1 .1 1.4.4.4.2.7.6.9 1 .2.5.3 1 .3 1.7Z" fill="#fff"/>
  <path d="M126.5 44h-.1a3 3 0 0 1-.8 2.2c-.5.5-1.1.8-2 .8a5 5 0 0 1-.5 0v.1l.1-.7h-.1v.2h.4c.8 0 1.4-.3 1.8-.7a3 3 0 0 0 .6-2c0-.7-.2-1.3-.6-1.8a1.8 1.8 0 0 0-1.5-.7 1.9 1.9 0 0 0-1.4.5l-.8 1.6v.3l.2-.2a1 1 0 0 1 .4 0c.4 0 .6 0 .8.3.2.2.3.5.3 1 0 .4 0 .7-.3 1a2 2 0 0 1-.8.9c-.4.2-.9.3-1.4.3-.9 0-1.5-.3-2-.8a3.2 3.2 0 0 1-.7-2.2c0-.7 0-1.2.3-1.7a2.5 2.5 0 0 1 1-1 3 3 0 0 1 1.6-.5h.5-.1v.6-.1a6.2 6.2 0 0 0-.4 0c-.8 0-1.4.2-1.8.7-.4.4-.6 1.1-.6 2 0 .8.2 1.4.6 1.8.4.5 1 .7 1.6.7.6 0 1.1-.1 1.5-.5.4-.3.5-.8.5-1.3a1 1 0 0 0-.1-.6.6.6 0 0 0-.5-.2h-.3l-.2.1-.7-.2v.2a6 6 0 0 1 1-2.4 2.3 2.3 0 0 1 1.9-.8 2.3 2.3 0 0 1 2.2 1.4c.2.5.3 1 .3 1.6h.3c0-.6-.2-1.2-.4-1.7a2.5 2.5 0 0 0-2.4-1.5c-.8 0-1.5.3-2 .8-.6.6-1 1.4-1 2.5l-.1.2.8.2h.1l.3-.1h.2V44v.1c.1 0 .2 0 .3.2v.4c0 .5 0 .9-.4 1.1-.3.3-.7.5-1.3.5-.6 0-1.1-.2-1.4-.6a2.5 2.5 0 0 1-.6-1.7c0-.8.2-1.5.6-1.9.3-.4.9-.6 1.6-.6h.6v-.9a4.1 4.1 0 0 0-.6 0 3 3 0 0 0-1.7.4c-.5.3-.9.7-1.1 1.2a4 4 0 0 0-.4 1.8c0 1 .3 1.8.8 2.4.5.6 1.3.9 2.2.9a3 3 0 0 0 1.5-.4c.4-.2.7-.5 1-.9.2-.4.3-.8.3-1.3 0-.4-.1-.8-.4-1.1a1.3 1.3 0 0 0-1-.4l-.5.1v.1h.2l.7-1.4c.3-.3.7-.4 1.2-.4.6 0 1 .2 1.3.6.3.4.5 1 .5 1.6a3 3 0 0 1-.5 1.8c-.4.4-.9.6-1.6.6h-.5v.9a5 5 0 0 0 .6 0c1 0 1.7-.2 2.2-.8.6-.6.9-1.4.9-2.5h-.2Zm3.9-.8c-.2.6-.5 1-.9 1.3-.3.3-.9.4-1.5.5.2.5.5.9 1 1.1.4.3 1 .4 1.6.4.7 0 1.2-.2 1.6-.5.4-.3.6-.7.6-1.3 0-.5-.2-.9-.5-1.1-.3-.3-.8-.4-1.4-.4h-.5Zm-2.7.7v.3h.8a1.4 1.4 0 0 0 .9-.6l.3-.6a2.3 2.3 0 0 0-.3-1 .7.7 0 0 0-.5-.3c-.2 0-.4 0-.5.2l-.2.5v.2l.1.3-.7.2-.1-.8c0-.4 0-.7.3-1 .3-.2.6-.3 1-.3s.7 0 .9.3c.2.1.4.4.5.7a3.3 3.3 0 0 1 2.6-1.2 4 4 0 0 1 1.8.4c.6.3 1 .6 1.3 1.1.2.6.4 1.1.4 1.8s-.1 1.2-.4 1.7a2.4 2.4 0 0 1-2.2 1.3h-.5v-.7h.4c.6 0 1-.2 1.4-.6.3-.4.5-1 .5-1.7a3 3 0 0 0-.7-1.9 2.7 2.7 0 0 0-2-.7c-.5 0-.9.1-1.2.3a2.8 2.8 0 0 0-1 .7h.5c.8 0 1.4.2 1.8.6.4.4.6 1 .6 1.7s-.2 1.3-.7 1.8c-.5.4-1.3.6-2.2.6a3.5 3.5 0 0 1-2.5-.8A3.9 3.9 0 0 1 127 44l.7-.1Z" fill="#fff"/>
  <path d="M130.4 43.2h-.1c-.2.5-.5 1-.8 1.2-.4.3-.9.4-1.5.4h-.2v.2c.3.5.6 1 1 1.2.5.3 1.1.4 1.8.4s1.3-.1 1.7-.5c.4-.3.6-.8.6-1.4 0-.5-.2-1-.5-1.2a2.3 2.3 0 0 0-1.5-.5h-.6v.2l.1.1h.5a2 2 0 0 1 1.3.4c.3.2.4.5.4 1s-.1 1-.5 1.2a2.4 2.4 0 0 1-1.5.5 3 3 0 0 1-1.6-.4 2 2 0 0 1-.9-1.1v.2c.6 0 1.1-.2 1.5-.5.4-.3.7-.8 1-1.4h-.2Zm-2.7.7h-.1v.4h1a1.6 1.6 0 0 0 1-.6l.3-.7a2.4 2.4 0 0 0-.3-1 .8.8 0 0 0-.6-.4.8.8 0 0 0-.6.2.8.8 0 0 0-.2.6v.3l.1.3h.1v-.2l-.7.2v.1h.1a2.5 2.5 0 0 1-.1-.8c0-.4.1-.7.3-.9.3-.2.6-.3 1-.3.3 0 .5.1.7.3.2.1.3.3.5.7v.2l.2-.2a3.2 3.2 0 0 1 2.5-1.2c.7 0 1.3.2 1.8.4s.9.6 1.1 1.1c.3.5.4 1 .4 1.7s0 1.2-.3 1.6a2.2 2.2 0 0 1-2 1.3h-.5v.1l.1-.7h-.1v.2h.3a1.8 1.8 0 0 0 1.5-.7c.4-.4.5-1 .5-1.7a2.7 2.7 0 0 0-.7-2c-.5-.6-1.2-.8-2.1-.8a3 3 0 0 0-1.3.3 2.9 2.9 0 0 0-1 .7l-.2.3h.8c.8 0 1.3.1 1.7.5.4.3.6.9.6 1.6 0 .7-.2 1.3-.7 1.7-.5.4-1.2.6-2.1.6a3.4 3.4 0 0 1-2.4-.8 3.7 3.7 0 0 1-1-2.3h-.2v.2l.7-.2v-.2l-.9.1v.1a4 4 0 0 0 1.2 2.5c.7.6 1.5.9 2.6.9a4 4 0 0 0 2.3-.7c.5-.5.8-1.1.8-2 0-.7-.3-1.3-.7-1.7a2.7 2.7 0 0 0-1.9-.6h-.5v.1l.1.1a2.8 2.8 0 0 1 2.1-1 3 3 0 0 1 1.9.7c.4.5.7 1 .7 1.9 0 .7-.2 1.2-.5 1.6-.3.3-.7.5-1.3.5h-.4l-.1 1h.1a3 3 0 0 0 1.9-.4c.4-.2.7-.6 1-1 .2-.5.3-1.1.3-1.8s-.1-1.3-.4-1.8a2.9 2.9 0 0 0-1.3-1.2 4 4 0 0 0-3.4-.1 3.6 3.6 0 0 0-1.2 1h.2a2 2 0 0 0-.5-.9 1.4 1.4 0 0 0-1-.2c-.4 0-.8 0-1 .3-.3.3-.5.7-.5 1 0 .4 0 .7.2 1l.9-.1h.1v-.2a4.5 4.5 0 0 1-.1-.3h-.2.2v-.2h-.2.2V42l.5-.2c.2 0 .3 0 .4.3l.3.9h.1-.1a3 3 0 0 1-.3.5 1.3 1.3 0 0 1-.8.6h-.6v.1h-.1.1a4.3 4.3 0 0 1 0-.3v-.2h-.2v.2Z" fill="#fff"/>
  <path d="M135.9 38.4h.3c.4 0 .6 0 .6-.4l-.1-.2-.3-.1h-.4l-.1.5v.2Zm-1-1.3c.4 0 .6.2.7.5a.8.8 0 0 1 .8-.5.9.9 0 0 1 .7.2c.2.2.3.4.3.7a1 1 0 0 1-.3.8c-.2.2-.5.2-.9.2h-.3v2.7h-.7v-3l-.1-.7a.8.8 0 0 0-.4-.3l.3-.6Z" fill="#fff"/>
  <path d="M135.9 38.4v.2h.3a.8.8 0 0 0 .5-.1l.2-.5-.1-.3-.4-.2c-.2 0-.4 0-.5.2l-.1.5v.4l.1-.2h.1v-.2h-.1.1a.7.7 0 0 1 .1-.3l.3-.1v-.2.2h.1l.1.3h.1l-.2.1-.3.1v.2-.2h-.3v.1Zm-1-1.3.6.5.1.3.1-.3a.7.7 0 0 1 .7-.4c.3 0 .5 0 .6.2l.2.6c0 .3 0 .5-.2.7l-.8.2h-.4v2.7h-.5v-2.9l-.1-.8a.9.9 0 0 0-.5-.3v.1h.1l.3-.6h-.3l-.3.7h.1c.2 0 .3.2.4.3v3.7h1V39h-.1v.2h.3c.4 0 .7-.1 1-.3.2-.2.3-.5.3-.9 0-.3-.1-.6-.3-.8a1 1 0 0 0-.8-.3 1 1 0 0 0-.9.6h.2c0-.3-.3-.4-.7-.5h-.1Zm5.4 6.1a2.5 2.5 0 0 1-.9 1.3c-.4.3-.9.4-1.5.5.2.5.5.9 1 1.1.3.3.9.4 1.6.4.7 0 1.2-.2 1.6-.5.4-.3.5-.7.5-1.3 0-.5-.1-.9-.4-1.1-.4-.3-.8-.4-1.4-.4h-.5Zm-2.7.7v.3h.8a1.4 1.4 0 0 0 .9-.6l.3-.6a2.3 2.3 0 0 0-.3-1 .7.7 0 0 0-.6-.3c-.2 0-.3 0-.4.2a.7.7 0 0 0-.2.5v.5l-.6.2a2.6 2.6 0 0 1-.2-.8c0-.4.2-.7.4-1 .3-.2.6-.3 1-.3.3 0 .6 0 .8.3.3.1.4.4.5.7a3.3 3.3 0 0 1 2.7-1.2 4 4 0 0 1 1.8.4c.5.3 1 .6 1.2 1.1.3.6.4 1.1.4 1.8s0 1.2-.3 1.7a2.4 2.4 0 0 1-2.2 1.3h-.5v-.7h.4c.6 0 1-.2 1.4-.6.3-.4.5-1 .5-1.7 0-.8-.3-1.4-.8-1.9a2.7 2.7 0 0 0-2-.7 2.8 2.8 0 0 0-2.1 1h.5c.7 0 1.3.2 1.8.6.4.4.6 1 .6 1.7s-.2 1.3-.8 1.8c-.5.4-1.2.6-2.2.6a3.5 3.5 0 0 1-2.4-.8 3.9 3.9 0 0 1-1.2-2.4l.8-.1Z" fill="#fff"/>
  <path d="M140.3 43.2h-.2c-.2.5-.4 1-.8 1.2-.3.3-.8.4-1.4.4h-.2v.2c.3.5.6 1 1 1.2.5.3 1 .4 1.8.4.7 0 1.3-.1 1.7-.5.4-.3.6-.8.6-1.4 0-.5-.2-1-.6-1.2a2.3 2.3 0 0 0-1.4-.5h-.6v.4h.6a2 2 0 0 1 1.3.4c.3.2.4.5.4 1s-.2 1-.5 1.2c-.4.3-.9.5-1.5.5a3 3 0 0 1-1.6-.4 2 2 0 0 1-.9-1.1h-.1v.2a2.8 2.8 0 0 0 1.6-.5c.4-.3.7-.8.9-1.4h-.1Zm-2.7.7h-.2l.1.4h.9a1.6 1.6 0 0 0 1-.6l.3-.7a2.4 2.4 0 0 0-.3-1 .8.8 0 0 0-.7-.4.8.8 0 0 0-.5.2.8.8 0 0 0-.2.6v.6h.2v-.2l-.7.2v.1h.1a2.5 2.5 0 0 1-.1-.8c0-.4 0-.7.3-.9.2-.2.5-.3 1-.3.2 0 .5.1.7.3.2.1.3.3.4.7v.2l.2-.2a3.2 3.2 0 0 1 2.6-1.2c.7 0 1.3.2 1.8.4s.8.6 1.1 1.1c.3.5.4 1 .4 1.7s-.1 1.2-.3 1.6a2.2 2.2 0 0 1-2.1 1.3h-.5v.1h.1v-.7.2h.3a1.8 1.8 0 0 0 1.5-.7c.3-.4.5-1 .5-1.7a2.7 2.7 0 0 0-.8-2 2.8 2.8 0 0 0-2-.8 3 3 0 0 0-2.3 1l-.2.3h.8c.7 0 1.3.1 1.7.5.4.3.6.9.6 1.6a2.1 2.1 0 0 1-.8 1.7c-.4.4-1.1.6-2 .6a3.4 3.4 0 0 1-2.4-.8A3.7 3.7 0 0 1 137 44h-.2v.2l.8-.2v-.2h-.8l-.1.1v.1a4 4 0 0 0 1.2 2.5 3.7 3.7 0 0 0 2.5.9c1 0 1.8-.3 2.3-.7.6-.5.8-1.1.8-2a2.3 2.3 0 0 0-.6-1.7 2.7 2.7 0 0 0-2-.6h-.4v.2a2.7 2.7 0 0 1 2.2-1c.8 0 1.4.3 1.8.7.5.5.7 1 .7 1.9 0 .7-.1 1.2-.4 1.6-.3.3-.7.5-1.3.5h-.5v.9a3 3 0 0 0 2-.3c.3-.2.7-.6.9-1 .2-.5.3-1.1.3-1.8s0-1.3-.4-1.8a3 3 0 0 0-1.2-1.2 4 4 0 0 0-3.5-.1c-.4.2-.8.5-1.2 1h.3c-.2-.4-.3-.7-.6-.9a1.4 1.4 0 0 0-.9-.2c-.4 0-.8 0-1 .3-.4.3-.5.7-.5 1l.1 1 1-.1v-.2a3.9 3.9 0 0 1 0-.3h-.2.1v-.2h-.1.1l.1-.4.4-.2c.2 0 .3 0 .5.3.1.1.2.4.2.9h.2-.1l-.4.5a1.3 1.3 0 0 1-.8.6h-.6v.1a4.3 4.3 0 0 1 0-.3v-.2h-.2v.2ZM61.4 6.2A4.8 4.8 0 0 0 60 5l.1.9c0 .3 0 .5.2.6l.4.2.5-.1.3-.4Zm-5.3 2.7a10 10 0 0 1-1 0H55v-.7h3.7a1 1 0 0 0-.3-.8 1 1 0 0 0-.7-.2l-.6.1a.5.5 0 0 0-.2.5v.1H56v-.2c0-.4.1-.7.4-1l1.2-.2c.6 0 1 .1 1.3.5.4.3.5.8.5 1.5v.4h-2.1a2 2 0 0 0-.7.4c-.3.1-.4.3-.5.5-.2.3-.2.5-.2.8 0 .6.2 1 .7 1.4.4.4 1 .5 2 .5a4.7 4.7 0 0 0 1.6-.2 3 3 0 0 0 1.9-2l.2-1.6a4 4 0 0 0-.5-2 1.6 1.6 0 0 1-.5.6 1.5 1.5 0 0 1-.7.1c-.5 0-.8-.1-1-.4-.2-.2-.3-.6-.3-1.1V5a.5.5 0 0 0-.3-.3l.2-.7a6 6 0 0 1 3 1.8c.6.9 1 1.9 1 3a6 6 0 0 1-.6 2.4 3.6 3.6 0 0 1-1.6 1.6 5.4 5.4 0 0 1-2.5.5c-.7 0-1.3-.1-1.9-.3a2.4 2.4 0 0 1-1.5-2.3c0-.4 0-.8.3-1 .1-.4.4-.6.7-.8Z" fill="#fff"/>
  <path d="m61.4 6.2.1-.1c-.4-.5-1-.9-1.5-1.2l-.4-.1.2.3v.8l.3.7c.1.2.3.2.5.2l.5-.1.4-.4v-.1h-.2a1 1 0 0 1-.3.3.7.7 0 0 1-.4 0h-.3l-.1-.6L60 5v.2a5 5 0 0 1 1.4 1h.1Zm-5.3 2.7v-.2h-1v-.4h3.7v-.1a1.2 1.2 0 0 0-.4-.9c-.2-.2-.5-.3-.8-.3-.3 0-.5 0-.7.2a.7.7 0 0 0-.3.6v.1h.2v-.1H56h.1a1 1 0 0 1 .4-1l1-.2c.6 0 1 .1 1.3.5.3.3.5.7.5 1.4v.3h-2a2 2 0 0 0-.8.3 1.5 1.5 0 0 0-.6.7 2 2 0 0 0-.1.8c0 .6.2 1.2.7 1.5.5.4 1.2.5 2 .5a5 5 0 0 0 1.7-.2 3 3 0 0 0 1.2-.9c.4-.3.6-.7.8-1.2l.2-1.6a4.1 4.1 0 0 0-.5-2v-.2l-.2.2-.5.4-.6.2c-.4 0-.7-.1-.9-.3-.2-.3-.3-.6-.3-1.1V5a.6.6 0 0 0-.4-.5v.2l.3-.7h-.1c1.2.4 2.2 1 2.8 1.8.7.8 1 1.8 1 2.9a5 5 0 0 1-.5 2.3 3.5 3.5 0 0 1-1.6 1.5c-.6.4-1.4.6-2.4.6-.7 0-1.3-.1-1.8-.4-.5-.2-.9-.5-1.1-.8a2 2 0 0 1-.4-1.3 2 2 0 0 1 .3-1c.1-.3.4-.5.7-.7l.6-.3H56V9v-.2a2 2 0 0 0-1.1 2c0 .5 0 1 .4 1.4.2.4.7.7 1.2 1A6.7 6.7 0 0 0 61 13a3.8 3.8 0 0 0 1.6-1.7c.4-.7.6-1.5.6-2.4a4.7 4.7 0 0 0-1-3 6 6 0 0 0-3-2H59l-.3.8v.1h.1a.4.4 0 0 1 .2.4V6c0 .5.1 1 .4 1.2.3.3.6.5 1 .5a1.6 1.6 0 0 0 1.4-.7v-.1h-.2c.3.6.5 1.2.5 2 0 .5-.1 1-.3 1.4a3.2 3.2 0 0 1-.6 1.2c-.3.3-.7.5-1.2.7-.4.2-1 .3-1.6.3a3 3 0 0 1-1.8-.5 1.5 1.5 0 0 1-.7-1.3c0-.3 0-.5.2-.7 0-.2.2-.4.4-.5.3-.2.5-.3.8-.3a9.2 9.2 0 0 1 1.3 0h.8v-.6c0-.7-.1-1.3-.5-1.6a2 2 0 0 0-1.4-.6 2 2 0 0 0-1.3.4 1.3 1.3 0 0 0-.5 1v.4H57v-.3c0-.2 0-.3.2-.4h.5l.7.1.2.7h.1V8h-3.8v1h1.4v-.1Zm15.1-1.2v.6l-.8-.2v-.3c0-.4-.3-.6-.8-.6a1 1 0 0 0-.8.2l-.2.8c1.1 0 1.9.2 2.4.6.5.5.7 1.1.7 2 0 .8-.2 1.4-.6 1.8a2 2 0 0 1-1.6.7c-.4 0-.7 0-1-.2a2.3 2.3 0 0 1-.9-.8c-.2.4-.5.7-.8.8l-1 .2a2 2 0 0 1-1.6-.7 2.8 2.8 0 0 1-.6-1.9c0-.6 0-1 .3-1.5.3-.4.7-.8 1.1-1a3.5 3.5 0 0 1 1.7-.4h.5v.8a2.7 2.7 0 0 0-.5 0c-.7 0-1.3.2-1.7.6a2.1 2.1 0 0 0-.6 1.6c0 .5.1 1 .4 1.3.2.3.6.4 1 .4.5 0 .9-.1 1.1-.4.2-.2.4-.7.4-1.2h.7c0 .6.1 1 .4 1.2.2.3.6.4 1 .4.5 0 .9-.1 1.1-.4.3-.3.4-.7.4-1.3a2 2 0 0 0-.3-1.2 1.5 1.5 0 0 0-.9-.5 6.6 6.6 0 0 0-1.6-.2h-.3v-.5c0-.6.1-1 .5-1.4.3-.4.7-.6 1.3-.6.5 0 .9.1 1.2.4.3.2.4.5.4 1Z" fill="#fff"/>
  <path d="M71.2 7.7h-.1v.5l-.7-.2v.1h.1v-.3a.7.7 0 0 0-.2-.6 1.1 1.1 0 0 0-.7-.2c-.4 0-.6.1-.8.3-.2.2-.4.5-.4.9v.1h.3c1 0 1.7.2 2.2.6.4.4.7 1 .7 1.9 0 .8-.2 1.3-.6 1.7a2 2 0 0 1-1.5.7 2.2 2.2 0 0 1-1-.2 2.1 2.1 0 0 1-.8-.7V12l-.2.2-.7.7-1 .2a1.9 1.9 0 0 1-1.5-.7 2.7 2.7 0 0 1-.6-1.8c0-.5.1-1 .4-1.4a2.4 2.4 0 0 1 1-1 3.4 3.4 0 0 1 1.6-.3h.5v-.1H67l-.1.7h.1v-.1a2.8 2.8 0 0 0-.4 0c-.7 0-1.4.2-1.8.6-.4.4-.7 1-.7 1.7 0 .5.2 1 .4 1.3.3.4.7.5 1.2.5s1 0 1.2-.4c.3-.3.4-.7.4-1.3h-.1.7-.1c0 .6 0 1 .4 1.3.3.3.7.4 1.2.4s.9-.1 1.1-.4c.3-.4.4-.8.4-1.4 0-.6 0-1-.3-1.3a1.7 1.7 0 0 0-1-.6 6.8 6.8 0 0 0-1.6-.1h-.2v-.4c0-.6.2-1 .5-1.4.2-.3.7-.4 1.2-.4s.9 0 1.1.3c.3.2.4.4.4.8h.3c0-.4-.2-.8-.5-1a2 2 0 0 0-1.3-.4 2 2 0 0 0-1.4.6c-.4.3-.6.9-.6 1.5V9h.5c.7 0 1.2 0 1.6.2.4 0 .6.3.8.5.2.2.3.6.3 1 0 .6-.2 1-.4 1.3-.2.2-.5.4-1 .4-.4 0-.7-.1-1-.4-.1-.2-.3-.6-.3-1.1v-.2h-1v.2c0 .5 0 1-.3 1.1-.2.3-.5.4-1 .4-.4 0-.7-.2-1-.4a1.9 1.9 0 0 1-.3-1.2c0-.7.2-1.2.6-1.5a2.3 2.3 0 0 1 1.6-.6h.5l.1-.8v-.1h-.1a3.7 3.7 0 0 0-.5-.1 3 3 0 0 0-1.7.4c-.5.2-1 .6-1.2 1a3 3 0 0 0-.4 1.6c0 .8.2 1.5.7 2 .4.5 1 .7 1.7.7.4 0 .8 0 1-.2.4-.1.7-.4 1-.8h-.2c.2.4.5.6.8.8.3.2.7.2 1 .2.8 0 1.4-.2 1.8-.7a2.8 2.8 0 0 0 .6-2c0-.8-.2-1.5-.8-2-.5-.4-1.3-.7-2.3-.7h-.1v.2l.3-.7.7-.2.5.1.2.4v.3l-.1.2 1 .1v-.1l.2-.6h-.2Z" fill="#fff"/>
</svg>
