<svg width="180" height="54" fill="none" xmlns="http://www.w3.org/2000/svg">
  <path d="M173.3 54H6.7A6.7 6.7 0 0 1 0 47.2V6.8C0 3 3 0 6.7 0h166.6a6.7 6.7 0 0 1 6.7 6.8v40.5c0 3.7-3 6.7-6.7 6.7Z" fill="#000"/>
  <path d="M27.6 26.2 13.4 41.5a3.8 3.8 0 0 0 5.7 2.3l16-9.3-7.5-8.3Z" fill="#EA4335"/>
  <path d="m42 23.6-7-4-7.7 7 7.8 7.9 6.9-4a3.9 3.9 0 0 0 2-3.5 4 4 0 0 0-2-3.4Z" fill="#FBBC04"/>
  <path d="M13.4 12.5a3.7 3.7 0 0 0-.1 1v27l.1 1 14.7-14.9-14.7-14Z" fill="#4285F4"/>
  <path d="m27.7 27 7.4-7.4-16-9.4a3.9 3.9 0 0 0-5.7 2.3L27.7 27Z" fill="#34A853"/>
  <path d="M141.3 38.7h2.4V22h-2.5v16.7ZM163.6 28l-2.8 7.2-3-7.2H155l4.4 10.1-2.5 5.6h2.6l6.8-15.7h-2.8Zm-14 8.8c-.9 0-2-.4-2-1.4 0-1.3 1.4-1.8 2.6-1.8 1.1 0 1.6.2 2.3.5a3 3 0 0 1-3 2.7Zm.3-9.2c-1.8 0-3.7.8-4.5 2.6l2.2 1c.5-1 1.4-1.3 2.3-1.3 1.3 0 2.6.8 2.6 2.1v.2a5.5 5.5 0 0 0-2.6-.6c-2.4 0-4.8 1.3-4.8 3.7 0 2.2 2 3.7 4.2 3.7a3.5 3.5 0 0 0 3.1-1.7h.1v1.3h2.4v-6.4c0-3-2.2-4.6-5-4.6ZM134.5 30h-3.6v-5.7h3.6a2.9 2.9 0 0 1 2.9 2.9 2.9 2.9 0 0 1-3 2.8Zm0-8h-6v16.7h2.4v-6.4h3.5c2.8 0 5.5-2 5.5-5.1 0-3.2-2.7-5.2-5.5-5.2Zm-32.6 14.8c-1.7 0-3.2-1.5-3.2-3.4 0-2 1.5-3.5 3.2-3.5 1.7 0 3 1.5 3 3.5s-1.3 3.4-3 3.4Zm2.9-7.9h-.1a4 4 0 0 0-3-1.2 5.6 5.6 0 0 0-5.5 5.7c0 3.1 2.6 5.6 5.5 5.6a4 4 0 0 0 3-1.3v.8c0 2.2-1.1 3.4-3 3.4a3.1 3.1 0 0 1-2.8-2l-2.2.9a5.4 5.4 0 0 0 5 3.3c3 0 5.4-1.7 5.4-5.9V28h-2.3v1Zm4 9.8h2.5V22h-2.5v16.7Zm6.2-5.5a3.1 3.1 0 0 1 3-3.3c1 0 1.8.5 2 1.2l-5 2Zm7.7-2a5.2 5.2 0 0 0-4.8-3.5c-3 0-5.4 2.3-5.4 5.6 0 3.2 2.4 5.7 5.7 5.7 2.6 0 4-1.6 4.7-2.5l-2-1.3a3.2 3.2 0 0 1-2.7 1.6 2.9 2.9 0 0 1-2.8-1.7l7.6-3.2-.3-.6Zm-60.4-1.8v2.4h5.8a5 5 0 0 1-1.3 3 5.9 5.9 0 0 1-4.5 1.8 6.3 6.3 0 0 1-6.3-6.4 6.3 6.3 0 0 1 10.7-4.7l1.7-1.7a8.4 8.4 0 0 0-6-2.4 9 9 0 0 0-9 8.8 9 9 0 0 0 9 8.8 8 8 0 0 0 6-2.5 8 8 0 0 0 2.1-5.6 7.8 7.8 0 0 0 0-1.5h-8.2Zm14.8 7.4c-1.7 0-3.2-1.4-3.2-3.5 0-2 1.5-3.4 3.2-3.4 1.7 0 3.2 1.4 3.2 3.4s-1.5 3.5-3.2 3.5Zm0-9.1a5.6 5.6 0 0 0-5.7 5.6 5.6 5.6 0 0 0 5.7 5.7 5.6 5.6 0 0 0 5.7-5.7 5.6 5.6 0 0 0-5.7-5.6Zm12.4 9c-1.7 0-3.2-1.3-3.2-3.4 0-2 1.5-3.4 3.2-3.4 1.7 0 3.2 1.4 3.2 3.4s-1.5 3.5-3.2 3.5Zm0-9a5.6 5.6 0 0 0-5.7 5.6 5.6 5.6 0 0 0 5.7 5.7 5.6 5.6 0 0 0 5.7-5.7 5.6 5.6 0 0 0-5.7-5.6ZM54.2 16V8h1.2l4 6.2V8h1v8h-1.1l-4-6.5h-.1V16h-1Z" fill="#fff"/>
  <path d="M54.2 16h.1V8.1h1l4 6.3h.2V8h.7v8h-.8l-4.1-6.6H55l.1 1.7V16h-.9v.2h1.2V9.5h-.2v.1-.1l4 6.6h1.3V8h-1.3v6.3h.2v-.1.1L55.5 8h-1.4v8Zm9.6-3.1h2.7l-1.3-3.6H65l-1.3 3.6ZM61.5 16l3-8h1.2l3 8h-1.1l-.8-2.2h-3.4l-.7 2.2h-1.2Z" fill="#fff"/>
  <path d="M63.8 12.9v.1h2.8l-1.4-3.9H65L63.6 13h.2v-.1h.1l1.3-3.6h-.1v.1-.1l1.2 3.4h-2.5v.2ZM61.5 16h.1l3-7.9h1l3 7.8h-1l-.7-2.2h-3.6l-.7 2.2h-1v.2h1.2l.7-2.1h3.2l.8 2.1h1.4L65.8 8h-1.3l-3.2 8h.2Zm12.6 0-2.8-8h1.2l2.2 6.5L77 8h1l-2.9 8h-1Z" fill="#fff"/>
  <path d="m74.2 16-2.6-8h.9l2.2 6.5h.2L77.2 8h.8l-2.9 8h-1v.2h1.2l3-8.2H77l-2.3 6.6h.1v-.1h.1L72.6 8h-1.4l2.8 8Zm6.3-1.7a3 3 0 0 0 2.2.9 3 3 0 0 0 2.1-.9c.6-.6 1-1.4 1-2.3a3 3 0 0 0-1-2.3 3 3 0 0 0-2.1-.9 3 3 0 0 0-2.2.9c-.6.6-.9 1.4-.9 2.3 0 1 .3 1.7.9 2.3Zm5.1.7a4 4 0 0 1-3 1.2 4 4 0 0 1-4-4.2 4 4 0 0 1 4-4.2c1.2 0 2.2.4 3 1.3a4.1 4.1 0 0 1 1.2 2.9 4.1 4.1 0 0 1-1.2 3Z" fill="#fff"/>
  <path d="M80.5 14.3h-.1a3.1 3.1 0 0 0 2.3 1 3 3 0 0 0 2.2-1c.7-.5 1-1.3 1-2.3a3 3 0 0 0-1-2.4 3 3 0 0 0-2.2-1 3.1 3.1 0 0 0-2.3 1 3.3 3.3 0 0 0-1 2.4c0 1 .4 1.8 1 2.4l.1-.1.1-.1a3 3 0 0 1-.9-2.2 3 3 0 0 1 .9-2.2 2.8 2.8 0 0 1 2-.9c.9 0 1.6.3 2.1.9a3 3 0 0 1 .9 2.2 3 3 0 0 1-.9 2.2 2.8 2.8 0 0 1-2 .9 2.8 2.8 0 0 1-2.1-.9l-.1.1Zm5.1.7v-.1a3.8 3.8 0 0 1-3 1.2 4 4 0 0 1-3.9-4.1 4 4 0 0 1 4-4 4 4 0 0 1 4 4 4 4 0 0 1-1.2 2.9h.1l.1.2A4.2 4.2 0 0 0 87 12a4.2 4.2 0 0 0-4.2-4.3 4.2 4.2 0 0 0-4.3 4.3 4.2 4.2 0 0 0 4.3 4.3 4 4 0 0 0 3-1.2l-.1-.1Zm2.6 1V8h1v7h3.5v1h-4.5Z" fill="#fff"/>
  <path d="M88.2 16h.2V8.1h.7v7h3.5v.8h-4.4v.2H93V15h-3.5V8h-1.3v8h.1Zm7.6.2a2.3 2.3 0 0 1-2.3-1.9l1-.4c.2.9.6 1.3 1.4 1.3.5 0 .8-.2 1-.5.3-.3.5-.7.5-1.2V8h1v5.5c0 .8-.3 1.5-.7 2s-1.1.7-1.9.7Z" fill="#fff"/>
  <path d="M95.8 16.2V16c-.5 0-1-.2-1.4-.5-.4-.3-.6-.7-.8-1.3h-.1v.1l1-.4h-.2c.2.8.8 1.3 1.6 1.3.5 0 .9-.1 1.2-.5.3-.3.4-.8.4-1.3V8h.8v5.4a3 3 0 0 1-.7 1.9c-.5.4-1 .6-1.8.7v.2c.8 0 1.5-.2 2-.7.5-.5.7-1.2.7-2.1V7.9h-1.3v5.6c0 .5 0 .9-.3 1.2-.2.2-.6.4-1 .4-.7 0-1.1-.4-1.4-1.2v-.1l-1.2.5a2.5 2.5 0 0 0 2.5 2v-.1Zm5.7-1.9a3 3 0 0 0 2.2.9 3 3 0 0 0 2.2-.9c.6-.6.9-1.4.9-2.3 0-1-.3-1.7-1-2.3a3 3 0 0 0-2.1-.9 3 3 0 0 0-2.2.9c-.6.6-.9 1.4-.9 2.3 0 1 .3 1.7 1 2.3Zm5.1.7a4 4 0 0 1-2.9 1.2 4.1 4.1 0 0 1-4.1-4.2 4.1 4.1 0 0 1 4-4.2 4 4 0 0 1 3 1.3 4.1 4.1 0 0 1 1.2 2.9 4.1 4.1 0 0 1-1.2 3Z" fill="#fff"/>
  <path d="M101.5 14.3a3 3 0 0 0 2.2 1 3.1 3.1 0 0 0 2.3-1c.6-.5.9-1.3.9-2.3a3 3 0 0 0-1-2.4 3 3 0 0 0-2.2-1 3 3 0 0 0-2.3 1 3.3 3.3 0 0 0-.9 2.4 3 3 0 0 0 1 2.4v-.1l.1-.1a3 3 0 0 1-.8-2.2 3 3 0 0 1 .8-2.2 2.8 2.8 0 0 1 2.1-.9c.8 0 1.5.3 2 .9a3 3 0 0 1 1 2.2 3 3 0 0 1-1 2.2 2.8 2.8 0 0 1-2 .9 2.8 2.8 0 0 1-2-.9l-.2.1Zm5.1.7v-.1a3.8 3.8 0 0 1-2.9 1.2 4 4 0 0 1-4-4.1 4 4 0 0 1 4-4 4 4 0 0 1 4 4 4 4 0 0 1-1.2 2.9h.1l.1.2A4.2 4.2 0 0 0 108 12a4.2 4.2 0 0 0-4.2-4.3 4.2 4.2 0 0 0-4.2 4.3 4.2 4.2 0 0 0 4.2 4.3 4 4 0 0 0 3-1.2V15Zm7 1-2.9-8h1.1l2.2 6.5 2.4-6.5h1.1l-2.9 8h-1Z" fill="#fff"/>
  <path d="M113.5 16h.1L111 8h.8l2.2 6.5h.3l2.2-6.5h1l-2.9 7.8h-1v.2h1.2l3-8.2h-1.4l-2.3 6.6v-.1h.2L111.9 8h-1.4l3 8.2V16Z" fill="#fff"/>
</svg>
