<svg id="artwork" xmlns="http://www.w3.org/2000/svg" version="1.1" viewBox="0 0 239 70.9">
  <defs>
    <style>
      .st1{isolation:isolate}.st5{fill:#fff}
    </style>
  </defs>
  <rect x="-.1" width="239.2" height="70.9" rx="8.9" ry="8.9"/>
  <path d="m36.6 34.4-18.9 20a5 5 0 0 0 7.6 3l21.2-12.2-10-10.8h.1Z" style="fill:#ea4335"/>
  <path d="m55.7 31-9.2-5.3-10.3 9.2 10.3 10.3 9.2-5.2c1.5-1 2.6-2.6 2.6-4.5s-1-3.6-2.6-4.5Z" style="fill:#fbbc04"/>
  <path d="m17.7 16.4-.1 1.4V53l.1 1.3L37.2 35 17.7 16.4Z" style="fill:#4285f4"/>
  <path d="m36.7 35.4 9.8-9.7-21.2-12.3a5.1 5.1 0 0 0-7.6 3l19 19Z" style="fill:#34a853"/>
  <g class="st1">
    <path class="st5" d="M74 14h2l5 8v-8h1.6v11h-1.8l-5.2-8.4V25H74V14Z"/>
  </g>
  <g class="st1">
    <path class="st5" d="M88.4 14h2l4.1 11h-1.9l-1-2.8h-4.4l-1 2.8h-2l4.2-11Zm2.7 6.6-1.2-3.3-.4-1.3h-.1l-.5 1.3-1.1 3.3H91Z"/>
  </g>
  <g class="st1">
    <path class="st5" d="M98.6 14h1.9l2.5 7.3.3 1.2h.1l.4-1.2 2.6-7.3h1.9l-4 11h-1.8l-4-11Z"/>
  </g>
  <g class="st1">
    <path class="st5" d="M111.8 24.5a5.8 5.8 0 0 1-2.8-5 5.8 5.8 0 0 1 2.8-5c.9-.5 1.8-.8 3-.8s2 .3 2.8.8a5.7 5.7 0 0 1 2.8 5 5.8 5.8 0 0 1-2.8 5 5.7 5.7 0 0 1-5.8 0Zm5-1.4c.5-.3 1-.8 1.3-1.5.4-.6.6-1.3.6-2s-.2-1.6-.6-2.2-.8-1.1-1.4-1.5-1.3-.5-2-.5-1.4.2-2 .5c-.6.4-1 .9-1.4 1.5s-.6 1.3-.6 2.1.2 1.5.6 2.1a3.8 3.8 0 0 0 3.4 2c.7 0 1.4-.1 2-.5Z"/>
  </g>
  <g class="st1">
    <path class="st5" d="M122.7 14h1.7v9.4h4.7V25h-6.4V14Z"/>
  </g>
  <g class="st1">
    <path class="st5" d="M131.7 24.6a3.7 3.7 0 0 1-1.4-2l1.6-.6c.4 1 1 1.6 2 1.6.5 0 1-.1 1.2-.5s.5-.9.5-1.5V14h1.7v7.6c0 .7-.1 1.4-.4 2-.3.5-.7 1-1.2 1.2s-1.2.5-1.8.5c-.9 0-1.6-.3-2.2-.7Z"/>
  </g>
  <g class="st1">
    <path class="st5" d="M142.3 24.5a5.8 5.8 0 0 1-2.8-5 5.8 5.8 0 0 1 2.8-5c.8-.5 1.8-.8 2.9-.8a5.6 5.6 0 0 1 5 3c.5.8.7 1.8.7 2.8s-.3 2-.8 3a5.5 5.5 0 0 1-5 2.8c-1 0-2-.3-2.8-.8Zm4.9-1.4c.6-.3 1-.8 1.4-1.5.4-.6.5-1.3.5-2s-.1-1.6-.5-2.2-.8-1.1-1.4-1.5c-.6-.3-1.3-.5-2-.5s-1.4.2-2 .5-1.1.9-1.4 1.5-.6 1.3-.6 2.1.2 1.5.6 2.1a3.9 3.9 0 0 0 3.4 2c.7 0 1.4-.1 2-.5Zm7.6-9.1h2l2.4 7.3.4 1.2.5-1.2 2.6-7.3h1.8l-4 11h-1.8l-3.9-11Z"/>
  </g>
  <g class="st1">
    <path class="st5" d="M77.6 51.5a10 10 0 0 1-5-8.8 10 10 0 0 1 5-8.8 10.6 10.6 0 0 1 9.2-.5c1.3.5 2.3 1.3 3.2 2.2l-2.2 2.1a6.4 6.4 0 0 0-2.2-1.6c-.9-.4-1.9-.6-3-.6-1.2 0-2.3.3-3.4 1-1 .5-2 1.4-2.6 2.5-.7 1-1 2.3-1 3.7s.3 2.7 1 3.8c.6 1.1 1.5 2 2.6 2.6 1 .6 2.2.9 3.5.9 1.1 0 2.1-.2 2.9-.6s1.5-.8 2-1.3c.5-.4.8-1 1-1.5.4-.6.5-1.3.6-2h-6.5V42H92l.1 1.6a11 11 0 0 1-.5 3.5 9.4 9.4 0 0 1-9 5.8 10 10 0 0 1-5-1.3Z"/>
  </g>
  <g class="st1">
    <path class="st5" d="M98 51.9a6 6 0 0 1-2.6-2.6 7.6 7.6 0 0 1 0-7.5 7 7 0 0 1 6.3-3.6 7.2 7.2 0 0 1 6.3 3.6 7.8 7.8 0 0 1-.1 7.5c-.7 1.2-1.4 2-2.5 2.6a7.6 7.6 0 0 1-7.5 0Zm5.8-2.3a4 4 0 0 0 1.5-1.6c.4-.7.6-1.5.6-2.5s-.2-1.7-.6-2.4a4.1 4.1 0 0 0-3.6-2.2 4.2 4.2 0 0 0-3.7 2.2c-.4.7-.6 1.5-.6 2.4s.2 1.8.6 2.5a4.1 4.1 0 0 0 3.7 2.1c.7 0 1.4-.2 2-.5Zm10.5 2.3c-1-.6-2-1.5-2.5-2.6a7.6 7.6 0 0 1 0-7.5 7 7 0 0 1 6.3-3.6c1.4 0 2.6.3 3.7 1 1.1.6 2 1.5 2.6 2.6s.9 2.4.9 3.7-.3 2.6-1 3.8-1.4 2-2.5 2.6a7.6 7.6 0 0 1-7.5 0Zm5.9-2.3a4 4 0 0 0 1.5-1.6c.4-.7.6-1.5.6-2.5s-.2-1.7-.6-2.4-.9-1.2-1.5-1.6a4.2 4.2 0 0 0-4.2 0 4.5 4.5 0 0 0-2.2 4c0 .9.2 1.8.6 2.5a4.1 4.1 0 0 0 3.7 2.1c.7 0 1.4-.2 2-.5Z"/>
  </g>
  <g class="st1">
    <path class="st5" d="M129.9 57.5a5.7 5.7 0 0 1-2.2-2.7l2.7-1.2a3.8 3.8 0 0 0 3.7 2.4 4 4 0 0 0 3-1.2c.7-.7 1-1.8 1-3.2v-1.3h-.1c-.5.7-1 1.2-1.8 1.6a7 7 0 0 1-2.6.5A6.2 6.2 0 0 1 128 49c-.6-1-.9-2.3-.9-3.7s.3-2.6.9-3.7a6.4 6.4 0 0 1 5.6-3.4 5.5 5.5 0 0 1 4.4 2.1h.1v-1.7h2.9v13c0 1.6-.3 2.8-.9 3.9-.6 1-1.4 1.8-2.4 2.4-1 .5-2.3.8-3.6.8a7 7 0 0 1-4.2-1.2Zm6.2-8.3c.6-.3 1.1-.8 1.5-1.5s.5-1.5.5-2.4c0-1.4-.4-2.4-1.1-3.2a3.9 3.9 0 0 0-2.9-1.2c-.7 0-1.4.2-2 .5s-1.1.9-1.5 1.5a6 6 0 0 0 0 4.8c.3.7.9 1.1 1.5 1.5.6.3 1.3.5 2 .5s1.4-.2 2-.5Z"/>
  </g>
  <g class="st1">
    <path class="st5" d="M144.3 33h3v19.4h-3V33.1Z"/>
  </g>
  <g class="st1">
    <path class="st5" d="M151.9 51.4c-.9-1-1.3-2.4-1.3-4.2v-8.6h3v8.2c0 1.1.2 2 .7 2.5.6.6 1.3.8 2.1.8.7 0 1.4-.2 2-.5.4-.4.9-.9 1.1-1.5.3-.6.5-1.3.5-2v-7.5h3v13.8h-3v-1.7h-.1c-.4.6-1 1.1-1.8 1.5-.8.5-1.6.7-2.5.7-1.7 0-3-.5-3.8-1.5Z"/>
  </g>
  <g class="st1">
    <path class="st5" d="M173.1 33h6.7c1.2 0 2.2.3 3.2.8s1.7 1.2 2.3 2.1.8 2 .8 3.1a5.7 5.7 0 0 1-3.1 5.2c-1 .5-2 .7-3.2.7h-3.7v7.6h-3V33Zm6.8 9a3 3 0 0 0 1.7-.4 3 3 0 0 0 1.1-4 2 2 0 0 0-1-1.2c-.6-.3-1.1-.4-1.8-.4h-3.7v6h3.7Z"/>
  </g>
  <g class="st1">
    <path class="st5" d="M188.5 33h3v19.4h-3V33.1Z"/>
  </g>
  <g class="st1">
    <path class="st5" d="M196.5 52.3a4.8 4.8 0 0 1-2.5-4.1c0-1.4.6-2.5 1.6-3.4s2.5-1.2 4.1-1.2a9.8 9.8 0 0 1 3.8.7v-.7c0-.8-.4-1.5-1-2-.6-.6-1.4-.9-2.4-.9-.7 0-1.4.2-2 .5a4 4 0 0 0-1.5 1.3l-2.1-1.6a6 6 0 0 1 2.4-2c1-.5 2-.7 3.2-.7 2 0 3.6.5 4.6 1.5 1.1 1 1.7 2.3 1.7 4.1v8.6h-3v-1.6c-.5.6-1 1-1.8 1.5s-1.5.6-2.5.6-1.8-.2-2.6-.6Zm5.1-2.4c.6-.4 1-.8 1.4-1.4.3-.6.5-1.2.5-1.9a6.6 6.6 0 0 0-3.2-.8c-1.1 0-2 .3-2.5.7s-.8 1-.8 1.7c0 .6.3 1.2.8 1.6.5.4 1 .6 1.9.6a5 5 0 0 0 2-.5Z"/>
  </g>
  <g class="st1">
    <path class="st5" d="m213.2 51.7-5.7-13h3.3l3.9 9.3 3.9-9.4h3.2l-8.5 19.7h-3.1l3-6.6Z"/>
  </g>
</svg>
