<svg width="180" height="54" fill="none" xmlns="http://www.w3.org/2000/svg">
  <path d="M173.33 54H6.67A6.73 6.73 0 0 1 0 47.25V6.75C0 3.04 3 0 6.67 0h166.66A6.73 6.73 0 0 1 180 6.75v40.5c0 3.71-3 6.75-6.67 6.75Z" fill="#000"/>
  <path d="m27.63 26.22-14.2 15.26a3.84 3.84 0 0 0 5.65 2.35l.05-.03 15.97-9.33-7.48-8.25Z" fill="#EA4335"/>
  <path d="m41.98 23.63-.01-.02-6.9-4.05-7.77 7 7.8 7.9 6.86-4a3.89 3.89 0 0 0 2.02-3.43c0-1.47-.8-2.75-2-3.4Z" fill="#FBBC04"/>
  <path d="M13.43 12.52a3.7 3.7 0 0 0-.13 1v26.96c0 .35.04.68.13 1L28.1 26.62l-14.68-14.1Z" fill="#4285F4"/>
  <path d="m27.73 27 7.34-7.44-15.96-9.37a3.85 3.85 0 0 0-5.69 2.33L27.73 27Z" fill="#34A853"/>
  <path d="M141.25 38.67h2.49V22h-2.5v16.67ZM163.65 28l-2.84 7.23h-.09L157.76 28h-2.68l4.44 10.1-2.53 5.62h2.6L166.41 28h-2.76Zm-14.1 8.77c-.82 0-1.95-.4-1.95-1.41 0-1.29 1.41-1.78 2.63-1.78 1.1 0 1.61.23 2.28.56a3.02 3.02 0 0 1-2.96 2.63Zm.3-9.13c-1.8 0-3.67.8-4.44 2.55l2.2.92c.48-.92 1.36-1.22 2.28-1.22 1.29 0 2.6.77 2.62 2.14v.18a5.5 5.5 0 0 0-2.6-.65c-2.38 0-4.8 1.31-4.8 3.76 0 2.23 1.95 3.66 4.14 3.66a3.5 3.5 0 0 0 3.17-1.63h.09v1.29h2.4v-6.4c0-2.95-2.21-4.6-5.06-4.6Zm-15.38 2.4h-3.54v-5.72h3.54a2.89 2.89 0 0 1 2.92 2.86 2.9 2.9 0 0 1-2.92 2.85Zm-.06-8.04h-5.96v16.67h2.48v-6.32h3.48c2.75 0 5.47-2 5.47-5.18 0-3.18-2.72-5.17-5.47-5.17ZM101.9 36.78c-1.72 0-3.16-1.44-3.16-3.42 0-2 1.44-3.46 3.16-3.46 1.7 0 3.03 1.46 3.03 3.46 0 1.98-1.33 3.42-3.03 3.42Zm2.86-7.84h-.09a3.93 3.93 0 0 0-2.98-1.27 5.64 5.64 0 0 0-5.44 5.7c0 3.17 2.6 5.64 5.44 5.64 1.35 0 2.42-.6 2.98-1.29h.09v.82c0 2.17-1.16 3.33-3.03 3.33a3.14 3.14 0 0 1-2.86-2.02l-2.17.9a5.4 5.4 0 0 0 5.03 3.35c2.92 0 5.39-1.72 5.39-5.9V28h-2.36v.93Zm4.08 9.73h2.49V22h-2.5v16.67Zm6.16-5.5a3.11 3.11 0 0 1 2.97-3.31c.99 0 1.82.5 2.1 1.2l-5.07 2.1Zm7.74-1.9c-.48-1.26-1.92-3.6-4.86-3.6-2.92 0-5.35 2.3-5.35 5.67 0 3.18 2.4 5.67 5.63 5.67 2.6 0 4.1-1.59 4.73-2.51l-1.94-1.3a3.24 3.24 0 0 1-2.79 1.58 2.88 2.88 0 0 1-2.75-1.72l7.58-3.14-.25-.64Zm-60.41-1.86v2.4h5.75a5.02 5.02 0 0 1-1.3 3.03 5.9 5.9 0 0 1-4.45 1.76A6.32 6.32 0 0 1 56 30.2a6.32 6.32 0 0 1 10.65-4.68l1.7-1.7a8.39 8.39 0 0 0-6.03-2.42 8.93 8.93 0 0 0-8.94 8.8 8.93 8.93 0 0 0 8.94 8.81c2.62 0 4.6-.86 6.14-2.47 1.59-1.59 2.08-3.82 2.08-5.63a7.8 7.8 0 0 0-.13-1.5h-8.1Zm14.77 7.37c-1.72 0-3.2-1.42-3.2-3.44 0-2.04 1.48-3.44 3.2-3.44 1.72 0 3.2 1.4 3.2 3.44 0 2.02-1.48 3.44-3.2 3.44Zm0-9.11a5.59 5.59 0 0 0-5.7 5.67 5.6 5.6 0 0 0 5.7 5.67 5.6 5.6 0 0 0 5.69-5.67 5.59 5.59 0 0 0-5.7-5.67Zm12.41 9.1c-1.71 0-3.2-1.41-3.2-3.43 0-2.04 1.49-3.44 3.2-3.44 1.72 0 3.2 1.4 3.2 3.44 0 2.02-1.48 3.44-3.2 3.44Zm0-9.1a5.59 5.59 0 0 0-5.69 5.67 5.6 5.6 0 0 0 5.7 5.67 5.6 5.6 0 0 0 5.69-5.67 5.59 5.59 0 0 0-5.7-5.67ZM54.2 16V8h1.24l3.9 6.22h.04l-.05-1.54V8h1.03v8H59.3l-4.07-6.52h-.04l.04 1.54V16H54.2Z" fill="#fff"/>
  <path d="M54.2 16h.13V8.13h1.04l3.89 6.23h.25l-.04-1.68V8.13h.76v7.74h-.87L55.3 9.34h-.25l.05 1.68v4.85h-.9v.26h1.16v-5.11l-.04-1.55h-.13v.14h.04v-.13l-.11.07 4.1 6.58h1.28V7.87h-1.3v4.81l.04 1.55h.14v-.14h-.05v.13l.12-.07-3.93-6.28h-1.46v8.26h.13V16Zm9.6-3.13h2.65l-1.3-3.6h-.05l-1.3 3.6ZM61.51 16l3.02-8h1.16l3.02 8h-1.14l-.77-2.17h-3.37L62.66 16h-1.14Z" fill="#fff"/>
  <path d="M63.8 12.87V13h2.84l-1.4-3.87H65L63.6 13h.2v-.13l.12.05 1.3-3.61-.12-.05v.14h.04v-.14l-.12.05 1.24 3.43h-2.47v.13ZM61.51 16l.13.05 2.98-7.92h.98l2.92 7.74h-.86l-.77-2.17h-3.55l-.78 2.17h-1.05v.26h1.24l.78-2.16h3.17l.78 2.16h1.42l-3.1-8.26h-1.34l-3.12 8.26h.2V16Zm12.64 0-2.82-8h1.14l2.2 6.5h.04L76.99 8h1.14l-2.9 8h-1.08Z" fill="#fff"/>
  <path d="m74.15 16 .12-.04-2.75-7.83h.86l2.19 6.5h.23l2.28-6.5h.86l-2.81 7.74h-.98v.26h1.16l3-8.26H76.9l-2.3 6.58.12.04v-.13h-.05v.13l.13-.04-2.22-6.58h-1.43l2.91 8.26h.1V16Zm6.35-1.7c.6.6 1.32.9 2.17.9.86 0 1.58-.3 2.18-.9.59-.6.89-1.37.89-2.3 0-.93-.3-1.7-.9-2.3-.59-.6-1.31-.9-2.17-.9-.85 0-1.58.3-2.17.9-.6.6-.89 1.37-.89 2.3 0 .93.3 1.7.89 2.3Zm5.1.67a3.93 3.93 0 0 1-2.93 1.2A4.09 4.09 0 0 1 78.56 12a4.09 4.09 0 0 1 4.11-4.17c1.17 0 2.14.4 2.93 1.22A4.1 4.1 0 0 1 86.78 12a4.1 4.1 0 0 1-1.17 2.97Z" fill="#fff"/>
  <path d="m80.5 14.3-.1.09a3.1 3.1 0 0 0 2.27.94c.9 0 1.66-.32 2.27-.94.62-.62.93-1.43.93-2.39 0-.96-.31-1.77-.93-2.39a3.07 3.07 0 0 0-2.27-.94 3.1 3.1 0 0 0-2.27.94 3.27 3.27 0 0 0-.92 2.39c0 .96.3 1.77.92 2.39l.1-.1.1-.09a3 3 0 0 1-.86-2.2 3 3 0 0 1 .85-2.2 2.8 2.8 0 0 1 2.08-.86c.83 0 1.51.28 2.08.86a3 3 0 0 1 .85 2.2 3 3 0 0 1-.85 2.2 2.8 2.8 0 0 1-2.08.86 2.8 2.8 0 0 1-2.08-.86l-.09.1Zm5.1.67-.09-.1a3.8 3.8 0 0 1-2.84 1.18A3.96 3.96 0 0 1 78.7 12a3.96 3.96 0 0 1 3.98-4.05A3.95 3.95 0 0 1 86.65 12c0 1.14-.38 2.09-1.14 2.87l.1.1.1.09A4.23 4.23 0 0 0 86.9 12a4.22 4.22 0 0 0-4.24-4.31A4.22 4.22 0 0 0 78.43 12a4.23 4.23 0 0 0 4.24 4.31c1.2 0 2.22-.42 3.03-1.25l-.1-.1ZM88.23 16V8h1.02v7.02h3.47V16h-4.5Z" fill="#fff"/>
  <path d="M88.23 16h.13V8.13h.76v7.02h3.46v.72h-4.35v.26h4.62v-1.25H89.4V7.87h-1.3v8.26h.14V16Zm7.61.18a2.33 2.33 0 0 1-2.36-1.86l.94-.39c.23.85.72 1.27 1.46 1.27.48 0 .84-.16 1.1-.47.26-.3.39-.73.39-1.26V8h1.02v5.45c0 .87-.24 1.55-.72 2.02s-1.09.7-1.83.7Z" fill="#fff"/>
  <path d="M95.84 16.18v-.13c-.56 0-1.02-.16-1.4-.46-.4-.3-.67-.74-.83-1.3l-.13.03.05.13.94-.4-.05-.12-.13.04c.24.88.8 1.37 1.59 1.36.5 0 .92-.17 1.2-.51.28-.34.42-.8.42-1.35V8.13h.76v5.32c0 .85-.23 1.48-.68 1.92-.46.45-1.03.67-1.74.68v.26c.77 0 1.42-.25 1.93-.75.5-.5.76-1.21.76-2.1v-5.6h-1.3v5.61c0 .51-.12.9-.35 1.18-.23.27-.55.41-1 .41-.68 0-1.1-.36-1.34-1.16l-.04-.15-1.18.5.03.11a2.47 2.47 0 0 0 2.49 1.95v-.13Zm5.69-1.88c.59.6 1.31.9 2.17.9.86 0 1.58-.3 2.17-.9.6-.6.9-1.37.9-2.3 0-.93-.3-1.7-.9-2.3-.59-.6-1.31-.9-2.17-.9-.86 0-1.58.3-2.17.9-.6.6-.9 1.37-.9 2.3 0 .93.3 1.7.9 2.3Zm5.1.67a3.93 3.93 0 0 1-2.93 1.2A4.1 4.1 0 0 1 99.59 12a4.1 4.1 0 0 1 4.1-4.17c1.17 0 2.15.4 2.94 1.22A4.1 4.1 0 0 1 107.8 12a4.1 4.1 0 0 1-1.18 2.97Z" fill="#fff"/>
  <path d="m101.53 14.3-.1.09c.61.62 1.38.94 2.27.94a3.1 3.1 0 0 0 2.27-.94c.62-.62.93-1.43.92-2.39 0-.96-.3-1.77-.92-2.39a3.07 3.07 0 0 0-2.27-.94c-.89 0-1.66.32-2.27.94a3.27 3.27 0 0 0-.93 2.39c0 .96.31 1.77.93 2.39l.1-.1.1-.09a3 3 0 0 1-.86-2.2 3 3 0 0 1 .85-2.2 2.8 2.8 0 0 1 2.08-.86c.83 0 1.5.28 2.08.86a3 3 0 0 1 .85 2.2 3 3 0 0 1-.85 2.2 2.8 2.8 0 0 1-2.08.86 2.8 2.8 0 0 1-2.08-.86l-.1.1Zm5.1.67-.1-.1a3.8 3.8 0 0 1-2.83 1.18A3.96 3.96 0 0 1 99.72 12a3.96 3.96 0 0 1 3.98-4.05 3.95 3.95 0 0 1 3.98 4.05c0 1.14-.38 2.09-1.14 2.87l.1.1.09.09a4.23 4.23 0 0 0 1.21-3.06 4.23 4.23 0 0 0-4.24-4.31A4.23 4.23 0 0 0 99.46 12a4.23 4.23 0 0 0 4.24 4.31c1.2 0 2.22-.42 3.03-1.25l-.1-.1Zm6.89 1.03-2.81-8h1.14l2.19 6.5h.04l2.28-6.5h1.14l-2.9 8h-1.08Z" fill="#fff"/>
  <path d="m113.52 16 .13-.04-2.76-7.83h.86l2.2 6.5h.22l2.28-6.5h.86l-2.8 7.74h-.99v.26h1.17l3-8.26h-1.42l-2.31 6.58.12.04v-.13h-.04v.13l.12-.04-2.22-6.58h-1.42l2.9 8.26h.1V16Z" fill="#fff"/>
</svg>
