<svg width="270" height="80" fill="none" xmlns="http://www.w3.org/2000/svg">
  <g clip-path="url(#a)">
    <mask id="b" style="mask-type:luminance" maskUnits="userSpaceOnUse" x="0" y="0" width="270" height="81">
      <path d="M0 0h270v80H0V0Z" fill="#fff"/>
    </mask>
    <g mask="url(#b)">
      <path d="M260 80H10A10 10 0 0 1 0 70V10A10 10 0 0 1 10 0h250a10 10 0 0 1 10 10v60a10 10 0 0 1-10 10Z" fill="#000"/>
    </g>
    <mask id="c" style="mask-type:luminance" maskUnits="userSpaceOnUse" x="0" y="0" width="270" height="81">
      <path d="M0 0h270v80H0V0Z" fill="#fff"/>
    </mask>
    <g mask="url(#c)">
      <path d="M41.4 38.9 20.1 61.5a5.7 5.7 0 0 0 8.5 3.4l24-13.8-11.2-12.2Z" fill="#EA4335"/>
    </g>
    <mask id="d" style="mask-type:luminance" maskUnits="userSpaceOnUse" x="0" y="0" width="270" height="81">
      <path d="M0 0h270v80H0V0Z" fill="#fff"/>
    </mask>
    <g mask="url(#d)">
      <path d="m63 35-10.4-6L41 39.4 52.7 51l10.2-6a5.8 5.8 0 0 0 .1-10Z" fill="#FBBC04"/>
    </g>
    <mask id="e" style="mask-type:luminance" maskUnits="userSpaceOnUse" x="0" y="0" width="270" height="81">
      <path d="M0 0h270v80H0V0Z" fill="#fff"/>
    </mask>
    <g mask="url(#e)">
      <path d="M20.1 18.6 20 20v40l.2 1.5 22-22-22-21Z" fill="#4285F4"/>
    </g>
    <mask id="f" style="mask-type:luminance" maskUnits="userSpaceOnUse" x="0" y="0" width="270" height="81">
      <path d="M0 0h270v80H0V0Z" fill="#fff"/>
    </mask>
    <g mask="url(#f)">
      <path d="m41.6 40 11-11-24-13.9a5.8 5.8 0 0 0-8.5 3.5L41.6 40Z" fill="#34A853"/>
    </g>
    <path d="M83.6 15.8h2.3l5.6 9v-9h1.9v12.5h-2l-5.9-9.6v9.6h-2V15.8Zm16.4 0h2.2l4.7 12.5h-2.2l-1-3.2h-5.1l-1.2 3.2h-2.1l4.7-12.5Zm3 7.5-1.4-3.7-.5-1.5-.6 1.5-1.3 3.7h3.8Zm8.5-7.5h2.1l2.8 8.2.4 1.5h.1l.5-1.5 2.9-8.2h2.1L118 28.3h-2l-4.4-12.5Zm18.2 12.7a6.3 6.3 0 0 1-5.6-3.2 6 6 0 0 1-.9-3.3 6.5 6.5 0 0 1 3.2-5.6c1-.6 2-.9 3.3-.9a6.3 6.3 0 0 1 5.6 3.3c.6 1 .8 2 .8 3.2a6.3 6.3 0 0 1-6.5 6.5Zm0-1.8c.8 0 1.6-.2 2.3-.6.6-.4 1.2-1 1.6-1.7a5 5 0 0 0 .6-2.4c0-.9-.2-1.7-.6-2.4a4.4 4.4 0 0 0-3.9-2.3 4.8 4.8 0 0 0-3.9 2.3c-.4.7-.6 1.5-.6 2.4 0 1 .2 1.7.6 2.4.4.8 1 1.3 1.6 1.7.7.4 1.5.6 2.3.6Zm9-10.9h2v10.6h5.3v1.9h-7.3V15.8Zm12.7 12.7a4 4 0 0 1-2.5-.7 4.1 4.1 0 0 1-1.5-2.2l1.8-.7c.4 1.2 1 1.8 2.2 1.8.6 0 1-.2 1.4-.6.4-.4.6-1 .6-1.7v-8.6h1.9v8.6c0 .9-.2 1.6-.5 2.2-.3.7-.8 1.1-1.4 1.5-.6.3-1.3.4-2 .4Zm12.7 0a6.3 6.3 0 0 1-5.6-3.2 7 7 0 0 1-.8-3.3 6.5 6.5 0 1 1 13 0c0 1.2-.4 2.3-1 3.3a6.3 6.3 0 0 1-5.6 3.2Zm0-1.8c.9 0 1.6-.2 2.3-.6.7-.4 1.2-1 1.6-1.7a5 5 0 0 0 .6-2.4c0-.9-.2-1.7-.6-2.4a4.4 4.4 0 0 0-3.9-2.3 4.9 4.9 0 0 0-3.8 2.3c-.4.7-.6 1.5-.6 2.4 0 1 .2 1.7.6 2.4a4.3 4.3 0 0 0 3.8 2.3Zm11.6-10.9h2.2l2.7 8.2.5 1.5.6-1.5 2.9-8.2h2l-4.4 12.5h-2l-4.5-12.5ZM93.5 59.7a11.3 11.3 0 0 1-11.4-11.4 11.3 11.3 0 0 1 11.4-11.5c1.7 0 3.2.3 4.6 1 1.4.5 2.6 1.3 3.6 2.4l-2.4 2.4a7.3 7.3 0 0 0-2.5-1.8 8 8 0 0 0-3.3-.7 8 8 0 0 0-4 1 7.6 7.6 0 0 0-2.9 2.9 8.2 8.2 0 0 0-1 4.3c0 1.6.3 3 1 4.2a8 8 0 0 0 6.9 3.9 8 8 0 0 0 3.3-.6c.8-.4 1.6-.9 2.3-1.5a6.8 6.8 0 0 0 1.8-3.9h-7.4v-3H104l.2 1.7c0 1.4-.2 2.7-.7 4a8.3 8.3 0 0 1-2 3.3c-2 2.2-4.8 3.3-8 3.3Zm21.5 0c-1.6 0-3-.4-4.3-1.1a7.7 7.7 0 0 1-2.8-3c-.7-1.2-1-2.7-1-4.2s.3-3 1-4.2a7.5 7.5 0 0 1 2.8-3 8.2 8.2 0 0 1 4.3-1 8 8 0 0 1 4.2 1c1.2.8 2.2 1.8 2.9 3 .7 1.3 1 2.7 1 4.2s-.3 3-1 4.2a7.7 7.7 0 0 1-3 3 8 8 0 0 1-4.1 1Zm0-3.1c.8 0 1.6-.2 2.4-.6.7-.5 1.3-1 1.7-1.8a5.7 5.7 0 0 0 0-5.5c-.4-.8-1-1.4-1.7-1.8-.8-.4-1.6-.7-2.4-.7a4.7 4.7 0 0 0-4.2 2.5c-.4.7-.6 1.6-.6 2.7 0 1 .2 2 .6 2.8a4.6 4.6 0 0 0 4.2 2.4Zm18.5 3c-1.6 0-3-.3-4.3-1a7.7 7.7 0 0 1-2.8-3c-.7-1.2-1-2.7-1-4.2s.3-3 1-4.2a7.5 7.5 0 0 1 2.8-3 8.2 8.2 0 0 1 4.3-1 8 8 0 0 1 4.2 1c1.2.8 2.2 1.8 2.9 3 .7 1.3 1 2.7 1 4.2s-.3 3-1 4.2a7.7 7.7 0 0 1-3 3 8 8 0 0 1-4.1 1Zm0-3c.8 0 1.6-.2 2.3-.6.8-.5 1.4-1 1.8-1.8a5.7 5.7 0 0 0 0-5.5 4 4 0 0 0-1.8-1.8c-.7-.4-1.5-.7-2.3-.7a4.7 4.7 0 0 0-4.2 2.5c-.4.7-.6 1.6-.6 2.7 0 1 .2 2 .6 2.8a4.6 4.6 0 0 0 4.2 2.4Zm18.2 9.7a8 8 0 0 1-4.8-1.4 7 7 0 0 1-2.5-3l3.2-1.4a4.4 4.4 0 0 0 4.1 2.7c1.4 0 2.5-.4 3.3-1.2a5 5 0 0 0 1.3-3.6V57h-.2c-.6.7-1.2 1.3-2 1.7-1 .4-1.9.6-3 .6a7 7 0 0 1-3.6-1c-1.1-.6-2-1.6-2.7-2.8a9.6 9.6 0 0 1 0-8.5 7.4 7.4 0 0 1 2.7-2.8 6.9 6.9 0 0 1 6.5-.4c.9.4 1.5 1 2 1.7h.3v-1.9h3.1v14.7c0 1.7-.3 3.2-1 4.4-.6 1.1-1.5 2-2.7 2.6-1.1.7-2.5 1-4 1Zm0-10c.8 0 1.6-.2 2.3-.6.7-.4 1.2-1 1.6-1.7.4-.8.7-1.7.7-2.8a5 5 0 0 0-1.4-3.6c-.8-1-1.9-1.4-3.2-1.4-.8 0-1.6.2-2.3.6-.7.4-1.2 1-1.6 1.7a6 6 0 0 0-.6 2.7c0 1.1.2 2 .6 2.8.4.7 1 1.3 1.6 1.7.7.4 1.5.6 2.3.6Zm11.7-19h3.3v21.9h-3.3V37.3Zm13 22.4c-2 0-3.4-.6-4.3-1.7a7 7 0 0 1-1.5-4.7v-9.7h3.3v9.2c0 1.3.3 2.2 1 2.8.5.7 1.3 1 2.3 1 .8 0 1.5-.2 2.1-.6.6-.5 1-1 1.4-1.7.3-.7.5-1.4.5-2.2v-8.5h3.3v15.6h-3.1v-2h-.2c-.4.7-1 1.3-2 1.8a6 6 0 0 1-2.8.7Zm19.8-22.4h7.5a7.4 7.4 0 0 1 6.2 3.3c.6 1 1 2.1 1 3.4 0 1.3-.4 2.4-1 3.5-.7 1-1.5 1.8-2.6 2.4-1.1.5-2.3.8-3.6.8h-4.1v8.5h-3.4V37.3Zm7.6 10.2c.7 0 1.4-.2 2-.5.5-.4 1-.8 1.2-1.3a3.5 3.5 0 0 0 0-3.3c-.3-.6-.7-1-1.3-1.3a4 4 0 0 0-2-.5h-4.1v6.9h4.2Zm9.7-10.2h3.4v21.9h-3.4V37.3Zm12.2 22.4c-1 0-2-.2-3-.7-.8-.4-1.5-1-2-1.8s-.7-1.8-.7-2.8c0-1.6.6-2.9 1.8-3.8 1.2-1 2.7-1.4 4.6-1.4a10.8 10.8 0 0 1 4.2.8v-.8a3 3 0 0 0-1-2.3c-.8-.6-1.7-.9-2.8-.9a6 6 0 0 0-2.3.5c-.7.4-1.2.8-1.7 1.5l-2.3-1.8a7 7 0 0 1 2.7-2.3c1-.5 2.3-.8 3.6-.8 2.3 0 4 .6 5.2 1.7a6 6 0 0 1 1.9 4.7v9.7h-3.3v-1.9h-.2a4 4 0 0 1-1.9 1.7 5 5 0 0 1-2.8.7Zm.6-2.8c.8 0 1.5-.2 2.2-.6a4.2 4.2 0 0 0 2-3.7L229 52l-1.9-.2c-1.3 0-2.2.2-2.8.7-.6.5-.9 1.2-.9 2 0 .7.3 1.3.9 1.7.5.5 1.2.7 2.1.7Zm15.3 1.4-6.5-14.7h3.8l4.4 10.6h.1l4.3-10.6h3.7l-9.6 22.2h-3.6l3.4-7.5Z" fill="#fff"/>
  </g>
  <defs>
    <clipPath id="a">
      <path fill="#fff" d="M0 0h270v80H0z"/>
    </clipPath>
  </defs>
</svg>
