<svg width="180" height="54" fill="none" xmlns="http://www.w3.org/2000/svg">
  <path d="M173.33 54H6.67A6.73 6.73 0 0 1 0 47.25V6.75C0 3.04 3 0 6.67 0h166.66A6.73 6.73 0 0 1 180 6.75v40.5c0 3.71-3 6.75-6.67 6.75Z" fill="#000"/>
  <path d="m27.63 26.22-14.2 15.26a3.84 3.84 0 0 0 5.65 2.35l.05-.03 15.97-9.33-7.48-8.25Z" fill="#EA4335"/>
  <path d="m41.98 23.63-.01-.02-6.9-4.05-7.77 7 7.8 7.9 6.86-4a3.89 3.89 0 0 0 2.02-3.43c0-1.47-.8-2.75-2-3.4Z" fill="#FBBC04"/>
  <path d="M13.43 12.52a3.7 3.7 0 0 0-.13 1v26.96c0 .35.04.68.13 1L28.1 26.62l-14.68-14.1Z" fill="#4285F4"/>
  <path d="m27.73 27 7.34-7.44-15.96-9.37a3.85 3.85 0 0 0-5.69 2.33L27.73 27Z" fill="#34A853"/>
  <path d="M55.21 17.33v-8h1.03l2.78 4.87h.05l2.78-4.87h1.03v8h-1.03v-4.75l.04-1.34h-.04l-2.5 4.4h-.6l-2.51-4.4h-.05l.05 1.34v4.75H55.2Z" fill="#fff"/>
  <path d="M55.21 17.33h.13V9.47h.82l2.78 4.87h.2l2.79-4.87h.81v7.73h-.76v-4.61l.05-1.48h-.26l-2.5 4.4h-.45l-2.5-4.4h-.26l.04 1.48v4.61h-.89v.27h1.16v-4.89l-.04-1.34h-.14v.14h.05v-.14l-.12.07 2.54 4.46h.76l2.54-4.46-.11-.07v.14h.04v-.14h-.13l-.05 1.34v4.89h1.3V9.2h-1.24l-2.82 4.94.12.06v-.13h-.05v.13l.12-.06-2.82-4.94h-1.24v8.27h.13v-.14Zm14.17-7.01h-3.64v2.53h3.28v.96h-3.28v2.54h3.64v.98H64.7v-8h4.67v.99Z" fill="#fff"/>
  <path d="M69.38 10.32v-.14H65.6v2.8h3.29v.7H65.6v2.8h3.65v.72h-4.4V9.47h4.4v.85h.26V9.2h-4.93v8.27h4.93v-1.25h-3.64v-2.27h3.28v-1.23h-3.28v-2.27h3.64v-.13h-.13Zm2.63 2.81h1.66c.4 0 .76-.13 1.05-.4a1.37 1.37 0 0 0 .05-1.98 1.3 1.3 0 0 0-1.03-.43H72v2.81ZM71 17.33v-8h2.72c.68 0 1.27.23 1.76.68.5.45.75 1.02.75 1.7A2.37 2.37 0 0 1 74.3 14l-.03.04 2.25 3.25v.04H75.3l-2.16-3.24H72v3.24h-1Z" fill="#fff"/>
  <path d="M72.01 13.13v.14h1.66c.44 0 .83-.15 1.14-.44.32-.3.49-.68.49-1.12 0-.38-.15-.74-.43-1.05a1.46 1.46 0 0 0-1.13-.48h-1.86v3.09h.13v-.14h.14v-2.68h1.59c.4 0 .7.13.94.4.24.26.35.55.35.86 0 .38-.13.68-.4.92-.27.25-.58.37-.96.37H72v.13ZM71 17.33h.13V9.47h2.6c.64 0 1.19.2 1.66.64.47.43.7.95.7 1.6a2.24 2.24 0 0 1-1.8 2.16l-.06.01-.05.08-.05.08 2.28 3.3h.13v-.14h-1.15l-2.15-3.24h-1.35v3.24h-.9v.27h1.17v-3.24h.93l2.16 3.24h1.42v-.22l-2.27-3.29-.1.08.1.07.03-.03-.12-.08.03.13a2.5 2.5 0 0 0 2.02-2.42c0-.71-.27-1.33-.79-1.8a2.66 2.66 0 0 0-1.85-.71h-2.86v8.27H71v-.14Zm7.7-4.2h1.65c.41 0 .76-.13 1.06-.4.3-.27.44-.6.44-1.02 0-.35-.13-.67-.4-.96a1.3 1.3 0 0 0-1.03-.43H78.7v2.81Zm-1.03 4.2v-8h2.73c.67 0 1.26.23 1.75.68.5.45.75 1.02.75 1.7 0 .56-.18 1.06-.55 1.48-.36.43-.82.7-1.36.81l-.03.04 2.25 3.25v.04H82l-2.15-3.24H78.7v3.24h-1.03Z" fill="#fff"/>
  <path d="M78.7 13.13v.14h1.65c.44 0 .83-.15 1.15-.44a1.54 1.54 0 0 0 .06-2.17 1.46 1.46 0 0 0-1.14-.48h-1.86v3.09h.14v-.14h.13v-2.68h1.59c.4 0 .7.13.94.4.24.26.35.55.35.86 0 .38-.13.68-.4.92-.27.25-.58.37-.96.37H78.7v.13Zm-1.03 4.2h.13V9.47h2.6c.64 0 1.2.2 1.67.64.46.43.7.95.7 1.6a2.23 2.23 0 0 1-1.81 2.16l-.05.01-.06.08-.05.08 2.28 3.3h.13v-.14h-1.14l-2.16-3.24h-1.35v3.24h-.9v.27h1.17v-3.24h.94l2.15 3.24h1.42v-.22l-2.27-3.29-.1.08.1.07.03-.03-.11-.08.02.13a2.5 2.5 0 0 0 2.02-2.42c0-.71-.26-1.33-.79-1.8a2.66 2.66 0 0 0-1.84-.71h-2.86v8.27h.13v-.14Zm11.35-7.01h-3.64v2.53h3.28v.96h-3.28v2.54h3.64v.98h-4.67v-8h4.67v.99Z" fill="#fff"/>
  <path d="M89.02 10.32v-.14h-3.78v2.8h3.29v.7h-3.29v2.8h3.65v.72h-4.4V9.47h4.4v.85h.26V9.2h-4.93v8.27h4.93v-1.25h-3.64v-2.27h3.29v-1.23h-3.3v-2.27h3.64v-.13h-.13Zm4.29 7.01v-8h1.25l3.9 6.23h.04l-.05-1.54V9.33h1.03v8h-1.07l-4.07-6.52h-.04l.04 1.54v4.98h-1.03Z" fill="#fff"/>
  <path d="M93.31 17.33h.14V9.47h1.04l3.89 6.22h.25l-.04-1.68V9.47h.76v7.73h-.87l-4.07-6.52h-.25l.05 1.67v4.85h-.9v.27h1.16v-5.12l-.04-1.55h-.13v.14h.04v-.13l-.11.07 4.1 6.59h1.28V9.2h-1.3v4.82l.05 1.54h.14v-.14h-.05v.14l.12-.07-3.93-6.29h-1.46v8.27h.13v-.14Zm11.23-8.78a.6.6 0 0 1-.45-.19.6.6 0 0 1-.19-.45.6.6 0 0 1 .2-.45.62.62 0 0 1 .44-.18.62.62 0 0 1 .64.63.6.6 0 0 1-.19.45.6.6 0 0 1-.45.2Zm-1.88 0a.6.6 0 0 1-.44-.19.61.61 0 0 1-.2-.45.6.6 0 0 1 .2-.45.62.62 0 0 1 .44-.18.62.62 0 0 1 .64.63c0 .18-.06.32-.18.45a.6.6 0 0 1-.46.2Zm3.32 1.77h-3.64v2.53h3.28v.96h-3.28v2.54h3.64v.98h-4.67v-8h4.67v.99Z" fill="#fff"/>
  <path d="M104.54 8.55v-.13a.47.47 0 0 1-.35-.15.47.47 0 0 1-.15-.36c0-.14.04-.25.15-.35.1-.1.21-.15.35-.15a.5.5 0 0 1 .36.14l.1-.1-.1.1c.1.1.14.2.14.36a.5.5 0 0 1-.5.51v.26c.21 0 .4-.07.55-.23l-.1-.09.1.1a.75.75 0 0 0 .22-.55c0-.21-.07-.4-.22-.55a.76.76 0 0 0-.55-.22c-.2 0-.4.08-.54.23a.74.74 0 0 0-.23.54c0 .2.08.4.23.55l.1-.1-.1.1c.15.14.34.23.54.22v-.13Zm-1.88 0v-.13a.47.47 0 0 1-.35-.15.48.48 0 0 1-.15-.36c0-.14.05-.25.15-.35.1-.1.21-.15.35-.15.16 0 .27.05.37.14l.1-.1-.1.1c.09.1.14.2.14.36a.5.5 0 0 1-.15.36c-.1.1-.21.15-.36.15v.26c.21 0 .4-.07.55-.23a.75.75 0 0 0 .22-.54c0-.21-.07-.4-.21-.55a.76.76 0 0 0-.56-.22c-.2 0-.39.08-.54.23a.74.74 0 0 0-.23.54c0 .2.08.4.23.54.15.15.34.24.54.23v-.13Zm3.32 1.77v-.14h-3.78v2.8h3.3v.7h-3.3v2.8h3.65v.72h-4.4V9.47h4.4v.85h.26V9.2h-4.93v8.27h4.93v-1.25h-3.64v-2.27h3.29v-1.23h-3.29v-2.27h3.64v-.13h-.13ZM142.58 40h2.49V23.33h-2.49V40ZM165 29.34l-2.85 7.22h-.09l-2.96-7.22h-2.68l4.44 10.1-2.53 5.61h2.6l6.84-15.71H165Zm-14.1 8.77c-.82 0-1.96-.41-1.96-1.42 0-1.29 1.41-1.78 2.64-1.78 1.1 0 1.6.24 2.27.56a3.02 3.02 0 0 1-2.96 2.64Zm.3-9.14c-1.81 0-3.68.8-4.45 2.55l2.21.93c.47-.93 1.35-1.23 2.27-1.23 1.3 0 2.6.78 2.62 2.15v.17a5.5 5.5 0 0 0-2.6-.64c-2.38 0-4.8 1.3-4.8 3.75 0 2.23 1.95 3.67 4.14 3.67a3.5 3.5 0 0 0 3.17-1.63h.09v1.28h2.4v-6.39c0-2.96-2.2-4.6-5.06-4.6Zm-15.38 2.4h-3.54v-5.72h3.53a2.89 2.89 0 0 1 2.92 2.86 2.9 2.9 0 0 1-2.91 2.86Zm-.07-8.04h-5.96V40h2.49v-6.32h3.47c2.76 0 5.47-2 5.47-5.17 0-3.18-2.71-5.18-5.47-5.18Zm-32.5 14.78c-1.72 0-3.16-1.44-3.16-3.42 0-2 1.44-3.45 3.15-3.45 1.7 0 3.03 1.46 3.03 3.45 0 1.98-1.33 3.42-3.03 3.42Zm2.85-7.84h-.1a3.93 3.93 0 0 0-2.98-1.27 5.64 5.64 0 0 0-5.44 5.7c0 3.17 2.6 5.64 5.44 5.64 1.35 0 2.43-.6 2.98-1.28h.09v.81c0 2.17-1.16 3.33-3.03 3.33a3.14 3.14 0 0 1-2.86-2.02l-2.17.9a5.4 5.4 0 0 0 5.03 3.35c2.92 0 5.4-1.71 5.4-5.9V29.35h-2.37v.92Zm4.08 9.73h2.5V23.33h-2.5V40Zm6.17-5.5a3.11 3.11 0 0 1 2.96-3.3c.99 0 1.83.49 2.1 1.2l-5.06 2.1Zm7.73-1.89c-.47-1.27-1.91-3.6-4.85-3.6-2.93 0-5.35 2.29-5.35 5.66 0 3.18 2.4 5.67 5.62 5.67 2.6 0 4.1-1.59 4.73-2.5l-1.93-1.3a3.24 3.24 0 0 1-2.8 1.57 2.89 2.89 0 0 1-2.75-1.72l7.59-3.13-.26-.65Zm-60.41-1.87v2.4h5.76a5.02 5.02 0 0 1-1.32 3.04 5.9 5.9 0 0 1-4.44 1.76 6.32 6.32 0 0 1-6.32-6.4A6.32 6.32 0 0 1 68 26.85l1.7-1.7a8.4 8.4 0 0 0-6.04-2.42 8.93 8.93 0 0 0-8.94 8.8 8.93 8.93 0 0 0 8.94 8.81c2.62 0 4.6-.86 6.14-2.47 1.6-1.59 2.09-3.82 2.09-5.62a7.8 7.8 0 0 0-.13-1.5h-8.1Zm14.77 7.37c-1.72 0-3.2-1.42-3.2-3.44 0-2.04 1.48-3.43 3.2-3.43 1.72 0 3.2 1.4 3.2 3.43 0 2.02-1.48 3.44-3.2 3.44Zm0-9.1a5.59 5.59 0 0 0-5.7 5.66 5.6 5.6 0 0 0 5.7 5.67 5.6 5.6 0 0 0 5.7-5.67 5.59 5.59 0 0 0-5.7-5.67Zm12.42 9.1c-1.72 0-3.2-1.42-3.2-3.44 0-2.04 1.48-3.43 3.2-3.43 1.72 0 3.2 1.4 3.2 3.43 0 2.02-1.48 3.44-3.2 3.44Zm0-9.1a5.59 5.59 0 0 0-5.7 5.66 5.6 5.6 0 0 0 5.7 5.67 5.6 5.6 0 0 0 5.69-5.67 5.59 5.59 0 0 0-5.7-5.67Z" fill="#fff"/>
</svg>
