<svg xmlns="http://www.w3.org/2000/svg" viewBox="0 0 239 70.9">
  <rect x="-.1" width="239.2" height="70.9" rx="8.9" ry="8.9"/>
  <path d="m36.6 34.4-18.9 20a5 5 0 0 0 7.6 3l21.2-12.2-10-10.8h.1Z" style="fill:#ea4335"/>
  <path d="m55.7 31-9.2-5.3-10.3 9.2 10.3 10.3 9.2-5.2c1.5-1 2.6-2.6 2.6-4.5s-1-3.6-2.6-4.5Z" style="fill:#fbbc04"/>
  <path d="m17.7 16.4-.1 1.4V53l.1 1.3L37.2 35 17.7 16.4Z" style="fill:#4285f4"/>
  <path d="m36.7 35.4 9.8-9.7-21.2-12.3a5.1 5.1 0 0 0-7.6 3l19 19Z" style="fill:#34a853"/>
  <path d="M80.8 16.8h-5.1v-4.6h-1.8v11.1h1.8v-4.9h5.1v4.9h1.7V12.2h-1.7v4.6zm7.5-4.6-4.2 11h2l1-2.7h4.4l1 2.8h1.9l-4.2-11h-2Zm-.7 6.6 1.2-3.2.4-1.3h.1l.4 1.3 1.2 3.2h-3.3Zm14.5-1.7a4 4 0 0 0-1.7-.4h-2.6V14h5v-1.7H96v11h4.3c.6 0 1.2 0 1.7-.3a3 3 0 0 0 1.3-1.2 3.1 3.1 0 0 0 0-3.4c-.3-.5-.7-.9-1.3-1.1Zm-.4 4c-.3.4-.8.5-1.3.5h-2.6v-3.3h2.6c.6 0 1 .2 1.3.5s.4.7.4 1.2-.1.8-.4 1.1Zm7.3-8.9-4.2 11h1.9l1-2.7h4.4l1 2.8h2l-4.2-11h-2Zm-.7 6.6 1.2-3.2.4-1.3.5 1.3 1.2 3.2h-3.3Zm14.4-1.2v-.1a2 2 0 0 0 1-1c.3-.3.4-.8.4-1.3s-.1-1-.4-1.5c-.3-.5-.7-.8-1.2-1a3 3 0 0 0-1.6-.5h-4.2v11h4.4c.6 0 1.2 0 1.7-.3s1-.7 1.2-1.1a2.9 2.9 0 0 0 0-3.2c-.3-.5-.8-.8-1.4-1Zm-4.2-3.8h2.4c.4 0 .8.2 1.1.5.3.3.5.6.5 1s-.2.8-.5 1c-.3.4-.7.5-1.2.5h-2.3v-3Zm3.8 7.4c-.3.3-.7.5-1.2.5h-2.6v-3.3h2.5a1.7 1.7 0 0 1 1.8 1.6c0 .4-.2.8-.5 1.2Zm6-.8h-.1l.1-2.1v-6.1h-1.7v11.1h1.8l5-8.4h.1l-.1 2.2v6.2h1.7V12.2h-1.9l-4.9 8.2zm8.5-6.5h3.1v9.4h1.7v-9.4h3.1v-1.7h-7.9v1.7zm9.7 9.4h6.7v-1.7h-5v-3h4.5v-1.7h-4.5v-3h5v-1.7h-6.7v11.1zm19.3-6.5h-5.1v-4.6h-1.8v11.1h1.8v-4.9h5.1v4.9h1.7V12.2h-1.7v4.6zm9.4-4.6h-2l-4 11h1.8l1-2.7h4.5l1 2.8h1.9l-4.2-11Zm-2.6 6.6 1.2-3.2.4-1.3h.1l.4 1.3 1.2 3.2h-3.3ZM78.7 41.9v2.3h5.8L84 46c-.3.5-.6 1-1 1.3a6.2 6.2 0 0 1-4.3 1.7c-1.1 0-2.2-.3-3.1-.8a6 6 0 0 1-2.3-2.3c-.6-1-.9-2-.9-3.3s.3-2.4.9-3.4a6.3 6.3 0 0 1 5.4-3c.9 0 1.8.1 2.5.5.8.3 1.5.8 2 1.4l1.9-1.9a7.7 7.7 0 0 0-2.8-1.9 9.4 9.4 0 0 0-8.1.5 8.7 8.7 0 0 0-4.5 7.8 8.8 8.8 0 0 0 4.5 7.7 9 9 0 0 0 4.5 1.2c2.6 0 4.7-.8 6.3-2.5a7 7 0 0 0 1.6-2.6 10.8 10.8 0 0 0 .4-4.6h-8.4Zm20.1-2.5c-1-.6-2.1-.9-3.3-.9s-2.4.3-3.3.9a6 6 0 0 0-2.3 2.3 7.3 7.3 0 0 0 0 6.6 6 6 0 0 0 2.3 2.4c1 .5 2 .8 3.3.8a6.2 6.2 0 0 0 6.3-6.5c0-1.2-.2-2.3-.8-3.3a6 6 0 0 0-2.2-2.3Zm-.1 7.8a3.6 3.6 0 0 1-3.3 1.9 3.7 3.7 0 0 1-3.2-1.9c-.3-.6-.5-1.3-.5-2.2s.2-1.5.5-2.1a3.8 3.8 0 0 1 3.3-1.9 3.6 3.6 0 0 1 3.2 1.9c.3.6.5 1.3.5 2.1s-.2 1.6-.5 2.2Zm14.6-7.8a6 6 0 0 0-3.3-.9 6.2 6.2 0 0 0-6.4 6.5c0 1.2.3 2.3.8 3.3a6 6 0 0 0 2.3 2.4c1 .5 2 .8 3.3.8a6.2 6.2 0 0 0 6.4-6.5c0-1.2-.3-2.3-.9-3.3a6 6 0 0 0-2.2-2.3Zm0 7.8a3.6 3.6 0 0 1-3.3 1.9 3.7 3.7 0 0 1-3.3-1.9c-.3-.6-.5-1.3-.5-2.2s.2-1.5.5-2.1c.4-.6.8-1 1.4-1.4.6-.3 1.2-.5 1.9-.5a3.6 3.6 0 0 1 3.2 1.9c.4.6.5 1.3.5 2.1s-.1 1.6-.5 2.2Zm14.4-6.8h-.1c-.4-.6-1-1-1.6-1.4a5.4 5.4 0 0 0-5.1.3c-1 .6-1.6 1.3-2.1 2.3a6.9 6.9 0 0 0 0 6.5 6 6 0 0 0 2 2.2 5.5 5.5 0 0 0 5.2.3c.7-.3 1.2-.8 1.6-1.3h.1v1.1c0 1.2-.3 2.2-1 2.9-.5.7-1.4 1-2.5 1-.8 0-1.5-.2-2-.6s-1-.9-1.3-1.5l-2.4 1a5 5 0 0 0 2 2.4c1 .7 2.2 1 3.7 1 1.2 0 2.2-.2 3.1-.7 1-.4 1.7-1.1 2.2-2s.7-2.1.7-3.5V39h-2.5v1.5Zm-.5 6.5c-.3.6-.7 1-1.3 1.4a3 3 0 0 1-1.7.4A3.4 3.4 0 0 1 121 47c-.3-.5-.5-1.2-.5-2s.2-1.6.5-2.1a3.4 3.4 0 0 1 3-1.8c1 0 2 .3 2.6 1 .7.7 1 1.6 1 2.8 0 .8-.1 1.5-.5 2.1Zm6-12.9h2.6v17.1h-2.6zm14.5 5.4c-1-.6-2-.8-3.2-.8s-2.3.2-3.2.8a6 6 0 0 0-2.2 2.4 7 7 0 0 0-.7 3.3c0 1.2.2 2.3.8 3.3a6 6 0 0 0 5.4 3.1c1.3 0 2.4-.3 3.3-.8 1-.6 1.7-1.4 2.3-2.4l-2.2-1c-.4.5-.8 1-1.4 1.3-.5.4-1.2.6-2 .6-.9 0-1.7-.4-2.4-1a3.7 3.7 0 0 1-1.2-2.6h9.4v-.8a7 7 0 0 0-.7-3.2c-.5-1-1.1-1.7-2-2.2Zm-6.6 4.2c.2-.8.6-1.5 1.2-2s1.3-.8 2.2-.8c.7 0 1.3.2 1.7.5s.9.6 1.1 1l.4 1.3h-6.6Zm24.9-8.9a5 5 0 0 0-2.8-.7h-5.9v17.1h2.7v-6.6h3.2c1 0 2-.2 2.8-.7.9-.4 1.6-1 2-1.9.6-.8.8-1.7.8-2.7s-.2-1.9-.7-2.7a5.2 5.2 0 0 0-2-1.8Zm-.2 5.8c-.2.5-.5.8-1 1-.4.3-1 .5-1.5.5H160v-5.4h3.3a3 3 0 0 1 1.5.3c.5.3.8.6 1 1s.3.9.3 1.3 0 1-.3 1.3Zm5.1-6.5h2.6v17.1h-2.6zm10.3 4.5c-1 0-2 .3-2.9.7s-1.5 1-2 1.7l1.8 1.4c.3-.5.7-.8 1.3-1s1.1-.5 1.8-.5c.8 0 1.6.2 2.1.7.6.5.8 1 .8 1.8v.7c-.3-.2-.7-.4-1.3-.5l-2-.2c-1.4 0-2.6.4-3.6 1.1-.9.7-1.4 1.7-1.4 3 0 .8.2 1.5.6 2.1.4.7 1 1.2 1.6 1.5a5.2 5.2 0 0 0 4.5 0 4 4 0 0 0 1.5-1.3h.1V51h2.6v-7.6c0-1.6-.5-2.8-1.4-3.6s-2.3-1.3-4.1-1.3Zm2.5 9.2a3.3 3.3 0 0 1-2.9 1.6c-.7 0-1.2-.1-1.7-.5-.4-.4-.6-.8-.6-1.4 0-.6.2-1.1.7-1.5.4-.4 1.2-.6 2.2-.6a5.9 5.9 0 0 1 2.8.7 3 3 0 0 1-.5 1.6Zm10.5-.5h-.1l-3.4-8.3h-3l5.1 11.6-2.7 5.8h2.8l7.5-17.4h-2.9l-3.3 8.3zm7.3-4.6h7.9v2.3h-7.9zm18.9-3.7-3.4 8.3h-.1l-3.4-8.3h-3l5.1 11.6-2.6 5.8h2.7l7.6-17.4h-2.9z" style="fill:#fff"/>
</svg>
