<svg width="180" height="54" fill="none" xmlns="http://www.w3.org/2000/svg">
  <path d="M173.33 54H6.67A6.73 6.73 0 0 1 0 47.25V6.75C0 3.04 3 0 6.67 0h166.66A6.73 6.73 0 0 1 180 6.75v40.5c0 3.71-3 6.75-6.67 6.75Z" fill="#000"/>
  <path d="m27.63 26.22-14.2 15.26a3.84 3.84 0 0 0 5.65 2.35l.05-.03 15.97-9.33-7.48-8.25Z" fill="#EA4335"/>
  <path d="m41.98 23.63-.01-.02-6.9-4.05-7.77 7 7.8 7.9 6.86-4a3.89 3.89 0 0 0 2.02-3.43c0-1.47-.8-2.75-2-3.4Z" fill="#FBBC04"/>
  <path d="M13.43 12.52a3.7 3.7 0 0 0-.13 1v26.96c0 .35.04.68.13 1L28.1 26.62l-14.68-14.1Z" fill="#4285F4"/>
  <path d="m27.73 27 7.34-7.44-15.96-9.37a3.85 3.85 0 0 0-5.69 2.33L27.73 27Z" fill="#34A853"/>
  <path d="M142.58 40h2.49V23.33h-2.49V40ZM165 29.34l-2.85 7.22h-.09l-2.96-7.22h-2.68l4.44 10.1-2.53 5.61h2.6l6.84-15.71H165Zm-14.1 8.77c-.82 0-1.96-.41-1.96-1.42 0-1.29 1.41-1.78 2.64-1.78 1.1 0 1.6.24 2.27.56a3.02 3.02 0 0 1-2.96 2.64Zm.3-9.14c-1.81 0-3.68.8-4.45 2.55l2.21.93c.47-.93 1.35-1.23 2.27-1.23 1.3 0 2.6.78 2.62 2.15v.17a5.5 5.5 0 0 0-2.6-.64c-2.38 0-4.8 1.3-4.8 3.75 0 2.23 1.95 3.67 4.14 3.67a3.5 3.5 0 0 0 3.17-1.63h.09v1.28h2.4v-6.39c0-2.96-2.2-4.6-5.06-4.6Zm-15.38 2.4h-3.54v-5.72h3.53a2.89 2.89 0 0 1 2.92 2.86 2.9 2.9 0 0 1-2.91 2.86Zm-.07-8.04h-5.96V40h2.49v-6.32h3.47c2.76 0 5.47-2 5.47-5.17 0-3.18-2.71-5.18-5.47-5.18Zm-32.5 14.78c-1.72 0-3.16-1.44-3.16-3.42 0-2 1.44-3.45 3.15-3.45 1.7 0 3.03 1.46 3.03 3.45 0 1.98-1.33 3.42-3.03 3.42Zm2.85-7.84h-.1a3.93 3.93 0 0 0-2.98-1.27 5.64 5.64 0 0 0-5.44 5.7c0 3.17 2.6 5.64 5.44 5.64 1.35 0 2.43-.6 2.98-1.28h.09v.81c0 2.17-1.16 3.33-3.03 3.33a3.14 3.14 0 0 1-2.86-2.02l-2.17.9a5.4 5.4 0 0 0 5.03 3.35c2.92 0 5.4-1.71 5.4-5.9V29.35h-2.37v.92Zm4.08 9.73h2.5V23.33h-2.5V40Zm6.17-5.5a3.11 3.11 0 0 1 2.96-3.3c.99 0 1.83.49 2.1 1.2l-5.06 2.1Zm7.73-1.89c-.47-1.27-1.91-3.6-4.85-3.6-2.93 0-5.35 2.29-5.35 5.66 0 3.18 2.4 5.67 5.62 5.67 2.6 0 4.1-1.59 4.73-2.5l-1.93-1.3a3.24 3.24 0 0 1-2.8 1.57 2.89 2.89 0 0 1-2.75-1.72l7.59-3.13-.26-.65Zm-60.41-1.87v2.4h5.76a5.02 5.02 0 0 1-1.32 3.04 5.9 5.9 0 0 1-4.44 1.76 6.32 6.32 0 0 1-6.32-6.4A6.32 6.32 0 0 1 68 26.85l1.7-1.7a8.4 8.4 0 0 0-6.04-2.42 8.93 8.93 0 0 0-8.94 8.8 8.93 8.93 0 0 0 8.94 8.81c2.62 0 4.6-.86 6.14-2.47 1.6-1.59 2.09-3.82 2.09-5.62a7.8 7.8 0 0 0-.13-1.5h-8.1Zm14.77 7.37c-1.72 0-3.2-1.42-3.2-3.44 0-2.04 1.48-3.43 3.2-3.43 1.72 0 3.2 1.4 3.2 3.43 0 2.02-1.48 3.44-3.2 3.44Zm0-9.1a5.59 5.59 0 0 0-5.7 5.66 5.6 5.6 0 0 0 5.7 5.67 5.6 5.6 0 0 0 5.7-5.67 5.59 5.59 0 0 0-5.7-5.67Zm12.42 9.1c-1.72 0-3.2-1.42-3.2-3.44 0-2.04 1.48-3.43 3.2-3.43 1.72 0 3.2 1.4 3.2 3.43 0 2.02-1.48 3.44-3.2 3.44Zm0-9.1a5.59 5.59 0 0 0-5.7 5.66 5.6 5.6 0 0 0 5.7 5.67 5.6 5.6 0 0 0 5.69-5.67 5.59 5.59 0 0 0-5.7-5.67Zm-35.8-11.68v-8h1.03v3.43h4V9.33h1.03v8h-1.03v-3.6h-4v3.6h-1.03Z" fill="#fff"/>
  <path d="M55.06 17.33h.14V9.47h.76v3.43h4.26V9.47H61v7.73h-.77v-3.6h-4.26v3.6h-.9v.27h1.16v-3.61h3.74v3.6h1.3V9.2h-1.3v3.43h-3.74V9.2h-1.29v8.27h.13v-.14Zm9.49-3.13h2.66l-1.3-3.6h-.05l-1.3 3.6Zm-2.27 3.13 3.02-8h1.16l3.02 8h-1.14l-.77-2.16H64.2l-.78 2.16h-1.14Z" fill="#fff"/>
  <path d="M64.55 14.2v.14h2.85L66 10.46h-.24l-1.4 3.88h.2v-.14l.12.05 1.3-3.6-.12-.05v.13h.04v-.13l-.12.04 1.24 3.43h-2.47v.13Zm-2.27 3.13.13.05 2.98-7.91h.98l2.91 7.73h-.85l-.77-2.17h-3.55l-.78 2.17h-1.05v.27h1.24l.78-2.17h3.17l.77 2.17h1.43L66.55 9.2h-1.34l-3.12 8.27h.2v-.14Zm11.45-.98c.4 0 .73-.14.97-.4a1.35 1.35 0 0 0 0-1.85c-.24-.27-.56-.4-.97-.4h-2.06v2.65h2.06Zm-.04-3.64c.66 0 1.23.21 1.7.64.49.43.72.99.72 1.67 0 .69-.23 1.24-.71 1.67-.48.43-1.05.64-1.71.64h-3.05v-8h4.67v.99h-3.64v2.39h2.02Z" fill="#fff"/>
  <path d="M73.73 16.35v.13c.44 0 .8-.15 1.07-.45a1.48 1.48 0 0 0 0-2.02c-.27-.3-.63-.45-1.07-.45h-2.2v2.92h2.2v-.26H71.8v-2.4h1.93c.38 0 .65.12.87.37a1.22 1.22 0 0 1 0 1.66c-.22.25-.5.37-.87.37v.13Zm-.04-3.64v.13c.63 0 1.17.2 1.62.61a2 2 0 0 1 .67 1.57 2 2 0 0 1-.67 1.57c-.45.4-.99.6-1.62.61h-2.92V9.47h4.4v.71h-3.64v2.66h2.16v-.27H71.8v-2.12h3.64V9.2h-4.93v8.27h3.18c.7 0 1.3-.23 1.8-.68.5-.45.76-1.05.76-1.77s-.26-1.32-.76-1.77a2.6 2.6 0 0 0-1.8-.68v.14Zm5.41 1.49h2.66l-1.31-3.6h-.05l-1.3 3.6Zm-2.27 3.13 3.02-8H81l3.02 8h-1.14l-.78-2.16h-3.36l-.78 2.16h-1.14Z" fill="#fff"/>
  <path d="M79.1 14.2v.14h2.85l-1.4-3.88h-.24l-1.4 3.88h.19v-.14l.12.05 1.31-3.6-.13-.05v.13h.05v-.13l-.13.04 1.25 3.43H79.1v.13Zm-2.27 3.13.12.05 2.99-7.91h.98l2.91 7.73h-.85l-.77-2.17h-3.55l-.78 2.17h-1.05v.27h1.23l.78-2.17h3.18l.77 2.17h1.43L81.1 9.2h-1.35l-3.11 8.27h.19v-.14Zm9.38-.98h2.07c.4 0 .72-.14.96-.41a1.27 1.27 0 0 0-.01-1.8 1.3 1.3 0 0 0-1-.42h-2.02v2.63Zm0-3.59h1.87c.39 0 .7-.12.93-.38.24-.26.35-.54.35-.85 0-.3-.1-.58-.34-.83a1.15 1.15 0 0 0-.9-.38h-1.9v2.44Zm-1.02 4.57v-8h2.89c.63 0 1.17.21 1.63.62.45.42.68.94.68 1.56 0 .38-.1.72-.3 1-.2.3-.45.52-.78.67v.04c.4.14.72.37.97.7.25.32.38.7.38 1.13 0 .66-.24 1.2-.72 1.63-.48.44-1.05.65-1.7.65h-3.05Z" fill="#fff"/>
  <path d="M86.21 16.35v.13h2.07c.43 0 .8-.15 1.06-.46.27-.29.4-.63.4-.99s-.14-.7-.41-.99c-.28-.3-.65-.45-1.1-.45h-2.15v2.9h.13v-.14h.14v-2.5h1.89c.38 0 .66.13.9.37.23.26.34.52.34.81 0 .3-.1.56-.34.82-.22.25-.5.37-.86.37h-2.07v.13Zm0-3.59v.14h1.87a1.4 1.4 0 0 0 1.42-1.37c0-.33-.13-.65-.38-.92-.25-.29-.6-.43-1-.43h-2.04v2.72h.13v-.14h.14v-2.31h1.78a1 1 0 0 1 .8.34c.2.23.3.47.3.74s-.1.52-.32.76c-.2.23-.47.34-.83.34h-1.87v.13Zm-1.02 4.57h.13V9.47h2.76c.6 0 1.1.19 1.54.58a1.89 1.89 0 0 1 .37 2.39 1.8 1.8 0 0 1-.74.62l-.07.03v.23l.09.03c.37.12.67.34.9.65.24.3.36.65.36 1.05 0 .63-.22 1.13-.68 1.54-.46.4-.99.6-1.61.61h-3.05v.27h3.05c.68 0 1.29-.23 1.79-.69.5-.45.77-1.04.76-1.73 0-.45-.13-.87-.4-1.22-.27-.34-.62-.6-1.04-.73l-.04.12h.13v-.04h-.13l.05.12a1.88 1.88 0 0 0 1.16-1.79c0-.66-.24-1.22-.72-1.66a2.48 2.48 0 0 0-1.72-.65h-3.03v8.27h.14v-.14Zm13.02-8v8H97.2v-4.98l.04-1.54h-.04l-4.07 6.52h-1.07v-8h1.02v4.69l-.04 1.54h.04l3.9-6.23h1.24Z" fill="#fff"/>
  <path d="M98.21 9.33h-.13v7.87h-.76v-4.85l.04-1.54v-.13h-.25l-4.06 6.52h-.87V9.47h.76V14l-.04 1.54v.14h.25l3.89-6.22h1.17V9.2H96.9l-3.93 6.29.11.07v-.14h-.04v.14h.13l.05-1.54V9.2h-1.3v8.27h1.28l4.1-6.6-.1-.06v.13h.04v-.13h-.13l-.05 1.54v5.12h1.3V9.2h-.14v.13Zm4.56 8h-1.02v-7.01H99.5v-.99h5.5v.99h-2.24v7.01Z" fill="#fff"/>
  <path d="M102.77 17.33v-.13h-.9v-7.02h-2.23v-.71h5.23v.71h-2.23v7.15h.27v-6.88h2.23V9.2h-5.76v1.25h2.23v7.02h1.3v-.14h-.14Zm8.27-7.01h-3.64v2.53h3.28v.96h-3.28v2.54h3.64v.98h-4.67v-8h4.67v.99Z" fill="#fff"/>
  <path d="M111.04 10.32v-.14h-3.78v2.8h3.29v.7h-3.29v2.8h3.65v.72h-4.4V9.47h4.4v.85h.26V9.2h-4.93v8.27h4.93v-1.25h-3.64v-2.27h3.29v-1.23h-3.29v-2.27h3.64v-.13h-.13Zm4.29 7.01v-8h1.03v3.43h4V9.33h1.03v8h-1.03v-3.6h-4v3.6h-1.03Z" fill="#fff"/>
  <path d="M115.33 17.33h.14V9.47h.76v3.43h4.26V9.47h.77v7.73h-.77v-3.6h-4.26v3.6h-.9v.27h1.16v-3.61h3.74v3.6h1.3V9.2h-1.3v3.43h-3.74V9.2h-1.3v8.27h.14v-.14Zm9.49-3.13h2.66l-1.31-3.6h-.05l-1.3 3.6Zm-2.27 3.13 3.02-8h1.16l3.02 8h-1.15l-.77-2.16h-3.36l-.78 2.16h-1.14Z" fill="#fff"/>
  <path d="M124.82 14.2v.14h2.85l-1.4-3.88h-.24l-1.4 3.88h.19v-.14l.12.05 1.31-3.6-.13-.05v.13h.05v-.13l-.13.04 1.25 3.43h-2.47v.13Zm-2.27 3.13.13.05 2.98-7.91h.98l2.91 7.73h-.85l-.77-2.17h-3.55l-.78 2.17h-1.05v.27h1.23l.78-2.17h3.18l.77 2.17h1.43l-3.12-8.27h-1.34l-3.12 8.27h.19v-.14Z" fill="#fff"/>
</svg>
