<svg id="artwork" xmlns="http://www.w3.org/2000/svg" version="1.1" viewBox="0 0 239 70.9">
  <defs>
    <style>
      .st4{fill:#fff}
    </style>
  </defs>
  <rect x="-.1" width="239.1" height="70.8" rx="8.8" ry="8.8"/>
  <path class="st4" d="M120.6 38.5c-4.2 0-7.6 3.2-7.6 7.6s3.4 7.5 7.6 7.5 7.5-3.2 7.5-7.5-3.4-7.6-7.5-7.6Zm0 12.1c-2.3 0-4.3-1.9-4.3-4.6s2-4.5 4.3-4.5 4.2 1.8 4.2 4.5-2 4.6-4.2 4.6Zm-16.5-12c-4.2 0-7.6 3-7.6 7.5s3.4 7.5 7.6 7.5 7.5-3.2 7.5-7.5-3.4-7.6-7.5-7.6Zm0 12c-2.3 0-4.3-1.9-4.3-4.6s2-4.5 4.3-4.5 4.2 1.8 4.2 4.5-2 4.6-4.2 4.6Zm-19.7-9.8V44h7.7a6.6 6.6 0 0 1-1.8 4 7.8 7.8 0 0 1-5.9 2.4 8.3 8.3 0 0 1-8.3-8.5 8.4 8.4 0 0 1 14.1-6.2l2.3-2.3A11.8 11.8 0 0 0 72.6 42c0 6.5 5.4 11.7 11.8 11.7 3.5 0 6.1-1.1 8.2-3.3 2.1-2 2.8-5 2.8-7.4l-.2-2H84.4Zm80.3 2.5c-.7-1.7-2.6-4.8-6.5-4.8s-7 3-7 7.6c0 4.2 3.1 7.5 7.4 7.5 3.4 0 5.4-2.1 6.3-3.3l-2.6-1.8c-.9 1.3-2 2.1-3.7 2.1s-2.9-.8-3.7-2.3l10.1-4.1-.3-.9Zm-10.3 2.5c0-2.9 2.3-4.4 4-4.4 1.2 0 2.4.7 2.7 1.6l-6.7 2.8Zm-8.2 7.3h3.3V31h-3.3v22Zm-5.4-12.9h-.1a5.2 5.2 0 0 0-4-1.7c-3.7 0-7.2 3.3-7.2 7.6s3.4 7.5 7.2 7.5c1.8 0 3.2-.8 4-1.7h.1v1c0 3-1.5 4.5-4 4.5-2 0-3.3-1.5-3.8-2.7l-3 1.3c.8 2 3 4.5 6.7 4.5 3.9 0 7.1-2.3 7.1-7.9V39h-3.1v1.2ZM137 50.6c-2.3 0-4.2-1.9-4.2-4.5s1.9-4.6 4.2-4.6 4 2 4 4.6-1.8 4.5-4 4.5ZM180.2 31h-8v22h3.4v-8.4h4.6c3.7 0 7.3-2.6 7.3-6.8s-3.6-6.9-7.3-6.9Zm0 10.6h-4.6V34h4.7c2.4 0 3.8 2.1 3.8 3.8s-1.4 3.8-3.8 3.8Zm20.5-3.1c-2.4 0-4.9 1-6 3.4l3 1.2a3.3 3.3 0 0 1 3-1.7c1.7 0 3.5 1 3.5 2.9v.2a8 8 0 0 0-3.4-.8c-3.2 0-6.4 1.7-6.4 5 0 3 2.6 4.8 5.5 4.8 2.2 0 3.4-1 4.2-2.1V53h3.3v-8.5c0-4-3-6.1-6.7-6.1Zm-.4 12.1c-1.1 0-2.6-.5-2.6-1.9 0-1.7 1.9-2.3 3.5-2.3 1.4 0 2.1.3 3 .7a4 4 0 0 1-4 3.5ZM219 39l-3.8 9.6-4-9.6h-3.6l6 13.4-3.4 7.4h3.4l9.1-20.8H219Zm-29.7 14h3.3V31h-3.3v22Z"/>
  <path d="m36.6 34.4-18.9 20a5 5 0 0 0 7.5 3l21.3-12.2-10-10.8Z" style="fill:#ea4335"/>
  <path d="m55.7 31-9.2-5.3-10.3 9.1 10.3 10.4 9.1-5.3a5 5 0 0 0 0-8.9Z" style="fill:#fbbc04"/>
  <path d="m17.7 16.4-.1 1.3v35.4l.1 1.3L37.2 35 17.7 16.4Z" style="fill:#4285f4"/>
  <path d="m36.7 35.4 9.8-9.7-21.2-12.3a5.1 5.1 0 0 0-7.6 3l19 19Z" style="fill:#34a853"/>
  <path class="st4" d="M73 23V12.4h1.4v9.3H79V23h-6Zm6.8 0 4-10.6h1.5l4 10.6h-1.5l-1-2.9h-4.5l-1 3h-1.5Zm3-4.1h3.5L84.6 14l-1.8 4.8Zm8.1 4.1V12.4H94c1.7 0 3 .5 4 1.5s1.4 2.2 1.4 3.8-.5 2.9-1.5 3.8S95.7 23 94 23h-3Zm1.3-1.3h2c1.1 0 2.1-.3 2.8-1s1.1-1.7 1.1-3-.3-2.2-1-3-1.7-1-3-1h-1.9v8Zm9.2 1.3V12.4h3.3c1.6 0 3 .5 4 1.5.9 1 1.4 2.2 1.4 3.8s-.5 2.9-1.5 3.8-2.3 1.5-3.9 1.5h-3.3Zm1.4-1.3h1.9c1.2 0 2.2-.3 2.9-1s1-1.7 1-3-.3-2.2-1-3-1.7-1-3-1h-1.8v8Zm7.9 1.3 4-10.6h1.5l4 10.6h-1.5l-1-2.9h-4.5l-1 3h-1.6Zm3-4.1h3.5l-1.8-4.8-1.7 4.8Zm11.6 4.1V12.4h1.7l5.1 8.3h.1v-8.3h1.3V23h-1.4l-5.4-8.6V23h-1.4Zm16.9-9.3h-4.9v3.4h4.4v1.2h-4.4v3.4h4.8V23H136V12.4h6.2v1.3Zm2.1 9.3V12.4h3.2c1.7 0 3 .5 4 1.5s1.4 2.2 1.4 3.8-.5 2.9-1.5 3.8-2.2 1.5-3.9 1.5h-3.2Zm1.3-1.3h2c1.2 0 2.1-.3 2.9-1s1-1.7 1-3-.3-2.2-1-3-1.7-1-3-1h-1.8v8Zm14.2 1.3h-1.4V12.4h3.6c.9 0 1.7.3 2.3.9s1 1.3 1 2.3-.3 1.6-1 2.2c-.6.6-1.4 1-2.3 1h-2.3V23Zm0-5.6h2.2c.6 0 1-.2 1.4-.6s.5-.8.5-1.2-.2-1-.5-1.3c-.3-.4-.8-.6-1.4-.6h-2.2v3.7Zm5.3 5.6 3.8-10c-.4-.3-.5-.7-.5-1.2 0-.4.1-.8.4-1s.7-.5 1.1-.5a1.6 1.6 0 0 1 1.6 1.5c0 .5-.2.9-.6 1.2l3.8 10h-1.5l-1-2.9h-4.5l-1 3h-1.5Zm3-4.1h3.6l-1.8-4.8-1.8 4.8Zm1.8-6.5c.2 0 .3 0 .4-.2l.2-.4c0-.2 0-.3-.2-.4l-.4-.2c-.2 0-.3 0-.4.2l-.2.4c0 .1 0 .3.2.4l.3.2h.1Z"/>
</svg>
