<svg id="artwork" xmlns="http://www.w3.org/2000/svg" version="1.1" viewBox="0 0 239 70.9">
  <defs>
    <style>
      .st1{isolation:isolate}.st5{fill:#fff}
    </style>
  </defs>
  <rect width="239" height="70.8" rx="8.8" ry="8.8"/>
  <path class="st5" d="M120.6 38.5c-4.1 0-7.5 3.2-7.5 7.5s3.4 7.5 7.5 7.5a7.5 7.5 0 1 0 0-15Zm0 12c-2.3 0-4.2-1.8-4.2-4.5s2-4.5 4.2-4.5 4.3 1.8 4.3 4.5-2 4.6-4.3 4.6Zm-16.5-12c-4.1 0-7.5 3.2-7.5 7.5s3.4 7.5 7.5 7.5a7.5 7.5 0 1 0 0-15Zm0 12c-2.3 0-4.2-1.8-4.2-4.5s2-4.5 4.2-4.5 4.3 1.8 4.3 4.5-2 4.6-4.3 4.6Zm-19.6-9.7V44h7.7a6.7 6.7 0 0 1-1.8 4 7.8 7.8 0 0 1-5.9 2.4 8.4 8.4 0 0 1-8.4-8.5 8.4 8.4 0 0 1 14.2-6.2l2.2-2.3a11.8 11.8 0 0 0-19.8 8.5c0 6.5 5.3 11.7 11.8 11.7 3.5 0 6.1-1.1 8.2-3.3 2-2.1 2.7-5 2.7-7.5l-.1-2H84.5Zm80.2 2.5c-.6-1.7-2.5-4.8-6.4-4.8s-7.1 3-7.1 7.5c0 4.2 3.2 7.5 7.4 7.5 3.5 0 5.5-2 6.3-3.3l-2.6-1.7c-.8 1.2-2 2-3.7 2s-2.8-.7-3.6-2.2l10-4.2-.3-.8Zm-10.3 2.5c0-2.9 2.3-4.4 4-4.4 1.3 0 2.4.7 2.8 1.6l-6.8 2.8Zm-8.1 7.3h3.3V31h-3.3v22Zm-5.5-13a5.2 5.2 0 0 0-4-1.6c-3.8 0-7.2 3.3-7.2 7.6s3.4 7.5 7.2 7.5a5 5 0 0 0 4-1.8V53c0 3-1.5 4.5-4 4.5-2 0-3.2-1.5-3.8-2.7l-2.9 1.2c.9 2 3 4.4 6.7 4.4 3.9 0 7.2-2.2 7.2-7.8V39h-3.2v1.2ZM137 50.7c-2.2 0-4.2-2-4.2-4.5s2-4.6 4.2-4.6 4 2 4 4.6-1.7 4.5-4 4.5ZM180.2 31h-7.9v22h3.3v-8.4h4.6c3.7 0 7.3-2.6 7.3-6.9s-3.6-6.8-7.3-6.8Zm0 10.6h-4.6V34h4.7a3.8 3.8 0 1 1 0 7.6Zm20.5-3.1c-2.4 0-4.9 1-5.9 3.3l3 1.3c.6-1.3 1.8-1.7 3-1.7 1.7 0 3.4 1 3.4 2.9v.2c-.6-.3-1.8-.8-3.4-.8-3.2 0-6.4 1.7-6.4 5 0 2.9 2.6 4.8 5.5 4.8 2.2 0 3.5-1 4.2-2.2h.1v1.8h3.2v-8.5c0-4-3-6.1-6.7-6.1Zm-.4 12c-1 0-2.6-.5-2.6-1.8 0-1.7 1.9-2.3 3.5-2.3 1.5 0 2.2.3 3 .7a4 4 0 0 1-3.9 3.5ZM219 39l-3.8 9.6-4-9.6h-3.6l6 13.5-3.4 7.4h3.4l9.1-20.9H219Zm-29.7 14.2h3.3V31h-3.3v22Z"/>
  <path d="m36.7 34.4-18.9 20a5 5 0 0 0 7.5 3l21.3-12.2-10-10.9Z" style="fill:#ea4335"/>
  <path d="m55.7 31-9.1-5.3-10.4 9.1 10.4 10.4 9.1-5.3c1.6-.8 2.7-2.5 2.7-4.4s-1-3.7-2.7-4.5Z" style="fill:#fbbc04"/>
  <path d="m17.8 16.4-.2 1.3v35.4c0 .5 0 .9.2 1.3l19.5-19.5-19.5-18.5Z" style="fill:#4285f4"/>
  <path d="m36.8 35.4 9.8-9.8-21.2-12.2a5.1 5.1 0 0 0-7.6 3l19 19Z" style="fill:#34a853"/>
  <g class="st1">
    <path class="st5" d="M74 12.2h1.7v11H74v-11Z"/>
  </g>
  <g class="st1">
    <path class="st5" d="M78.5 12.2h3.8c.7 0 1.2.2 1.8.4.6.3 1 .7 1.3 1.2a3.4 3.4 0 0 1 0 3.5 3 3 0 0 1-1.3 1.2c-.6.3-1.1.4-1.8.4h-2v4.3h-1.8v-11Zm3.8 5.1c.4 0 .8 0 1-.2l.7-.7.2-.8c0-.3 0-.6-.2-.8l-.7-.7a2 2 0 0 0-1-.2h-2v3.4h2Z"/>
  </g>
  <g class="st1">
    <path class="st5" d="M90.2 12.2h2l4 11h-1.8l-1-2.8h-4.5l-1 2.8H86l4.1-11Zm2.6 6.6-1.2-3.3-.4-1.2H91l-.4 1.2-1.2 3.3h3.3Z"/>
  </g>
  <g class="st1">
    <path class="st5" d="M99.1 13.9h-3v-1.7h7.8V14h-3v9.3H99V14Z"/>
  </g>
  <g class="st1">
    <path class="st5" d="M105.7 12.2h6.7V14h-5v3h4.5v1.6h-4.5v3h5v1.7h-6.7v-11Z"/>
  </g>
  <g class="st1">
    <path class="st5" d="M118 12.2h1.8v5.3l4.6-5.3h2v.1l-4 4.7 4.4 6.1v.1h-2l-3.5-5-1.5 1.8v3.2h-1.7v-11Z"/>
  </g>
  <g class="st1">
    <path class="st5" d="M127.7 12.2h2l1.6 7.1.2 1h.1l.3-1 2.2-7h1.7l2 7 .3 1h.1l.2-1 1.7-7h2l-3 11h-1.8l-2.1-7.3-.2-1h-.1l-.3 1-2.2 7.2h-1.8l-3-11Z"/>
  </g>
  <g class="st1">
    <path class="st5" d="M143.7 12.2h6.7V14h-5v3h4.5v1.6h-4.5v3h5v1.7h-6.7v-11Z"/>
  </g>
  <g class="st1">
    <path class="st5" d="M152.8 12.2h2l5 8v-8h1.6v11h-1.7l-5.2-8.4h-.1v8.4h-1.6v-11Zm14 5.9-3.7-5.9h2l2.5 4.1h.1l2.4-4h2l-3.6 5.8v5.1h-1.7v-5Z"/>
  </g>
  <g class="st1">
    <path class="st5" d="M173.8 12.2h6.7V14h-5v3h4.5v1.6h-4.4v3h5v1.7h-6.8v-11Z"/>
  </g>
</svg>
