<svg width="180" height="54" fill="none" xmlns="http://www.w3.org/2000/svg">
  <path d="M173.33 54H6.67A6.73 6.73 0 0 1 0 47.25V6.75C0 3.04 3 0 6.67 0h166.66A6.73 6.73 0 0 1 180 6.75v40.5c0 3.71-3 6.75-6.67 6.75Z" fill="#000"/>
  <path d="m27.63 26.22-14.2 15.26a3.84 3.84 0 0 0 5.65 2.35l.05-.03 15.97-9.33-7.48-8.25Z" fill="#EA4335"/>
  <path d="m41.98 23.63-.01-.02-6.9-4.05-7.77 7 7.8 7.9 6.86-4a3.89 3.89 0 0 0 2.02-3.43c0-1.47-.8-2.75-2-3.4Z" fill="#FBBC04"/>
  <path d="M13.43 12.52a3.7 3.7 0 0 0-.13 1v26.96c0 .35.04.68.13 1L28.1 26.62l-14.68-14.1Z" fill="#4285F4"/>
  <path d="m27.73 27 7.34-7.44-15.96-9.37a3.85 3.85 0 0 0-5.69 2.33L27.73 27Z" fill="#34A853"/>
  <path d="M142.58 40h2.49V23.33h-2.49V40ZM165 29.34l-2.85 7.22h-.09l-2.96-7.22h-2.68l4.44 10.1-2.53 5.61h2.6l6.84-15.71H165Zm-14.1 8.77c-.82 0-1.96-.41-1.96-1.42 0-1.29 1.41-1.78 2.64-1.78 1.1 0 1.6.24 2.27.56a3.02 3.02 0 0 1-2.96 2.64Zm.3-9.14c-1.81 0-3.68.8-4.45 2.55l2.21.93c.47-.93 1.35-1.23 2.27-1.23 1.3 0 2.6.78 2.62 2.15v.17a5.5 5.5 0 0 0-2.6-.64c-2.38 0-4.8 1.3-4.8 3.75 0 2.23 1.95 3.67 4.14 3.67a3.5 3.5 0 0 0 3.17-1.63h.09v1.28h2.4v-6.39c0-2.96-2.2-4.6-5.06-4.6Zm-15.38 2.4h-3.54v-5.72h3.53a2.89 2.89 0 0 1 2.92 2.86 2.9 2.9 0 0 1-2.91 2.86Zm-.07-8.04h-5.96V40h2.49v-6.32h3.47c2.76 0 5.47-2 5.47-5.17 0-3.18-2.71-5.18-5.47-5.18Zm-32.5 14.78c-1.72 0-3.16-1.44-3.16-3.42 0-2 1.44-3.45 3.15-3.45 1.7 0 3.03 1.46 3.03 3.45 0 1.98-1.33 3.42-3.03 3.42Zm2.85-7.84h-.1a3.93 3.93 0 0 0-2.98-1.27 5.64 5.64 0 0 0-5.44 5.7c0 3.17 2.6 5.64 5.44 5.64 1.35 0 2.43-.6 2.98-1.28h.09v.81c0 2.17-1.16 3.33-3.03 3.33a3.14 3.14 0 0 1-2.86-2.02l-2.17.9a5.4 5.4 0 0 0 5.03 3.36c2.92 0 5.4-1.72 5.4-5.91V29.35h-2.37v.92Zm4.08 9.73h2.5V23.33h-2.5V40Zm6.17-5.5a3.11 3.11 0 0 1 2.96-3.3c.99 0 1.83.49 2.1 1.2l-5.06 2.1Zm7.73-1.89c-.47-1.27-1.91-3.6-4.85-3.6-2.93 0-5.35 2.3-5.35 5.66 0 3.18 2.4 5.67 5.62 5.67 2.6 0 4.1-1.59 4.73-2.5l-1.93-1.3a3.24 3.24 0 0 1-2.8 1.57 2.89 2.89 0 0 1-2.75-1.72l7.59-3.13-.26-.65Zm-60.41-1.87v2.4h5.76a5.02 5.02 0 0 1-1.32 3.04 5.9 5.9 0 0 1-4.44 1.76 6.32 6.32 0 0 1-6.32-6.4A6.32 6.32 0 0 1 68 26.85l1.7-1.7a8.4 8.4 0 0 0-6.04-2.42 8.93 8.93 0 0 0-8.94 8.8 8.93 8.93 0 0 0 8.94 8.81c2.62 0 4.6-.86 6.14-2.47 1.6-1.59 2.09-3.82 2.09-5.62a7.8 7.8 0 0 0-.13-1.5h-8.1Zm14.77 7.37c-1.72 0-3.2-1.42-3.2-3.44 0-2.04 1.48-3.43 3.2-3.43 1.72 0 3.2 1.4 3.2 3.43 0 2.02-1.48 3.44-3.2 3.44Zm0-9.1a5.59 5.59 0 0 0-5.7 5.66 5.6 5.6 0 0 0 5.7 5.67 5.6 5.6 0 0 0 5.7-5.67 5.59 5.59 0 0 0-5.7-5.67Zm12.42 9.1c-1.72 0-3.2-1.42-3.2-3.44 0-2.04 1.48-3.43 3.2-3.43 1.72 0 3.2 1.4 3.2 3.43 0 2.02-1.48 3.44-3.2 3.44Zm0-9.1a5.59 5.59 0 0 0-5.7 5.66 5.6 5.6 0 0 0 5.7 5.67 5.6 5.6 0 0 0 5.69-5.67 5.59 5.59 0 0 0-5.7-5.67ZM54.99 17.33v-8h1.03v8h-1.03Z" fill="#fff"/>
  <path d="M54.99 17.33h.13V9.47h.76v7.73h-.9v.27h1.17V9.2h-1.3v8.27H55v-.14Zm3.89-4.23h1.72a1.4 1.4 0 0 0 1.43-1.4c0-.34-.13-.66-.4-.95a1.3 1.3 0 0 0-1.03-.43h-1.72v2.79Zm0 4.23h-1.03v-8h2.73c.67 0 1.26.23 1.75.68.5.45.75 1.02.75 1.7a2.2 2.2 0 0 1-.75 1.7c-.5.46-1.08.68-1.75.68h-1.7v3.24Z" fill="#fff"/>
  <path d="M58.88 13.1v.14h1.72a1.54 1.54 0 0 0 1.56-1.53c0-.38-.15-.74-.42-1.05a1.46 1.46 0 0 0-1.14-.48h-1.86v3.06h.14v-.13H59v-2.66h1.59c.4 0 .7.13.94.4.24.26.35.55.35.86 0 .32-.11.6-.35.88-.24.26-.54.38-.94.39h-1.72v.13Zm0 4.23v-.13h-.9V9.47h2.6c.64 0 1.2.2 1.66.64.47.43.7.95.7 1.6 0 .66-.23 1.18-.7 1.6a2.4 2.4 0 0 1-1.66.65h-1.84v3.37h.27v-3.1h1.57c.7 0 1.33-.24 1.84-.71.53-.48.8-1.09.8-1.8 0-.72-.27-1.34-.8-1.81a2.66 2.66 0 0 0-1.84-.71h-2.86v8.27H59v-.14h-.13Zm6.31-3.13h2.66l-1.31-3.6h-.04l-1.31 3.6Zm-2.27 3.13 3.02-8h1.16l3.02 8h-1.14l-.77-2.16h-3.37l-.78 2.16h-1.14Z" fill="#fff"/>
  <path d="M65.19 14.2v.14h2.85l-1.4-3.88h-.24L65 14.34h.19v-.14l.12.05 1.31-3.6-.12-.05v.13h.04v-.13l-.13.04 1.25 3.43h-2.47v.13Zm-2.27 3.13.12.05 2.99-7.91H67l2.91 7.73h-.85l-.77-2.17h-3.55l-.78 2.17h-1.05v.27h1.23l.79-2.17h3.17l.77 2.17h1.43L67.19 9.2h-1.35l-3.11 8.27h.19v-.14Zm10.36 0h-1.03v-7.01h-2.23v-.99h5.5v.99h-2.24v7.01Z" fill="#fff"/>
  <path d="M73.28 17.33v-.13h-.9v-7.02h-2.23v-.71h5.23v.71h-2.23v7.15h.26v-6.88h2.24V9.2h-5.77v1.25h2.24v7.02h1.3v-.14h-.14Zm8.2-7.01h-3.64v2.53h3.28v.96h-3.28v2.54h3.64v.98h-4.67v-8h4.67v.99Z" fill="#fff"/>
  <path d="M81.48 10.32v-.14H77.7v2.8H81v.7h-3.3v2.8h3.65v.72h-4.4V9.47h4.4v.85h.26V9.2h-4.93v8.27h4.93v-1.25h-3.64v-2.27h3.29v-1.23h-3.29v-2.27h3.64v-.13h-.13Zm10.22-.99v.05l-2.98 3.43 3.17 4.48v.04h-1.26l-2.6-3.73-1.23 1.42v2.31h-1.03v-8h1.03v4.13h.04l3.52-4.13h1.33Z" fill="#fff"/>
  <path d="M91.7 9.33h-.14v.05h.13l-.1-.09-3.04 3.51 3.21 4.53h.13v-.13H90.7l-2.66-3.82-1.37 1.6v2.22h-.77V9.47h.77v4.12h.24l3.52-4.12h1.26V9.2H90.3l-3.56 4.17.1.09v-.14h-.04v.14h.13V9.2h-1.3v8.27h1.3v-2.4l1.09-1.25 2.54 3.65h1.47v-.22l-3.14-4.43 2.94-3.4V9.2h-.14v.13Zm10.56 0-2.13 8h-1.05l-1.72-5.27h-.05l-1.72 5.27h-1.05l-2.22-8h1.07l1.69 6.3h.04l1.73-5.22h.97l1.73 5.21h.04l1.6-6.29h1.07Z" fill="#fff"/>
  <path d="m102.26 9.33-.13-.03-2.1 7.9h-.85l-1.73-5.27h-.23l-1.73 5.27h-.85L92.5 9.47h.8l1.69 6.29h.24l1.73-5.22h.77l1.73 5.22h.24l1.6-6.3h.97V9.2h-1.17l-1.63 6.4.13.02v-.13h-.04v.13l.12-.04-1.76-5.3h-1.15L95 15.57l.12.04v-.13h-.04v.13l.13-.03-1.72-6.39h-1.35l2.3 8.27h1.25l1.75-5.37-.13-.04v.13h.05v-.13l-.13.04 1.75 5.37h1.25l2.2-8.27h-.17v.13Zm5.88.99h-3.64v2.53h3.28v.96h-3.28v2.54h3.64v.98h-4.67v-8h4.67v.99Z" fill="#fff"/>
  <path d="M108.14 10.32v-.14h-3.78v2.8h3.29v.7h-3.29v2.8h3.65v.72h-4.4V9.47h4.4v.85h.26V9.2h-4.94v8.27h4.94v-1.25h-3.64v-2.27h3.29v-1.23h-3.29v-2.27h3.64v-.13h-.13Zm1.61 7.01v-8H111l3.89 6.23h.04l-.04-1.54V9.33h1.03v8h-1.08l-4.06-6.52h-.05l.05 1.54v4.98h-1.03Z" fill="#fff"/>
  <path d="M109.75 17.33h.13V9.47h1.05l3.88 6.22h.26l-.05-1.68V9.47h.76v7.73h-.86l-4.07-6.52h-.25l.04 1.67v4.85h-.89v.27h1.16v-5.12l-.05-1.55h-.13v.14h.05v-.13l-.12.07 4.11 6.59h1.28V9.2h-1.3v4.82l.05 1.54h.13v-.14h-.04v.14l.11-.07-3.93-6.29h-1.45v8.27h.13v-.14Zm11.05 0h-1.03v-3.72l-2.7-4.28h1.21l1.98 3.26h.05l1.93-3.26h1.2l-2.64 4.28v3.72Z" fill="#fff"/>
  <path d="M120.8 17.33v-.13h-.9v-3.63l-2.58-4.1h.89l1.98 3.25h.2l1.93-3.25h.89l-2.55 4.1v3.76h.27v-3.68l2.75-4.45h-1.52l-1.97 3.32.12.07v-.14h-.05v.14l.12-.07-2.02-3.32h-1.52l2.8 4.45v3.82h1.3v-.14h-.14Zm8.48-7.01h-3.64v2.53h3.28v.96h-3.28v2.54h3.64v.98h-4.67v-8h4.67v.99Z" fill="#fff"/>
  <path d="M129.28 10.32v-.14h-3.78v2.8h3.29v.7h-3.29v2.8h3.65v.72h-4.4V9.47h4.4v.85h.26V9.2h-4.93v8.27h4.93v-1.25h-3.64v-2.27h3.29v-1.23h-3.3v-2.27h3.65v-.13h-.13Z" fill="#fff"/>
</svg>
