<svg id="artwork" xmlns="http://www.w3.org/2000/svg" version="1.1" viewBox="0 0 239 70.9">
  <defs>
    <style>
      .st1{isolation:isolate}.st5{fill:#fff}
    </style>
  </defs>
  <path d="M230 70.3H8.9A8.8 8.8 0 0 1 0 61.6v-52C0 5 4 1 8.8 1h221.3c4.9 0 8.9 4 8.9 8.7v52c0 4.7-4 8.6-8.9 8.6Z"/>
  <path d="M31.5 34.6 13.1 54.3a5 5 0 0 0 7.3 3l20.8-12-9.7-10.6Z" style="fill:#ea4335"/>
  <path d="m50.2 31.3-9-5.2-10 9 10 10.1 9-5.1a5 5 0 0 0 0-8.7Z" style="fill:#fbbc04"/>
  <path d="M13 17v37.2l19.1-19-19-18.1Z" style="fill:#4285f4"/>
  <path d="m31.7 35.7 9.5-9.6-20.7-12a5 5 0 0 0-7.4 3l18.6 18.5Z" style="fill:#34a853"/>
  <g class="st1">
    <path class="st5" d="M63.7 54.4V46H65v7.3h6.6V46h1.3v8.4h-9.2Zm16.6.2a5 5 0 0 1-3.8-1.7 8 8 0 0 1-1.5-4.5c0-1 .3-2 .6-3a6.3 6.3 0 0 1 7.9-3.5c.5.2 1 .5 1.4.9.4.3.7.7 1 1.2l.5 1.6.1 2.5v6.3h-1.3v-7.9l-.4-1.7c-.1-.5-.4-.8-.8-1.1-.2-.3-.6-.5-1-.7-.5-.2-1-.2-1.6-.2a5 5 0 0 0-3.3 1.2c-.5.5-1 1.1-1.2 1.8s-.5 1.7-.5 2.8c0 .6 0 1.2.2 1.7l.5 1.3a3.9 3.9 0 0 0 1.9 1.7h.2a3.4 3.4 0 0 0 1.2.2c.6 0 1-.1 1.3-.4.3-.3.4-.7.4-1.3 0-.5 0-.8-.3-1.1-.3-.3-.6-.5-1-.5s-.9.1-1.1.4-.4.7-.4 1.2c0 .4 0 .7.2 1 0 .4.3.7.5 1l-.9.2-.7-1c-.2-.4-.3-.9-.3-1.5l.3-1.2c.2-.4.5-.6.9-.9a3 3 0 0 1 1.5-.3c.5 0 .9.1 1.3.3.4.2.7.5.9 1 .2.3.3.8.3 1.4 0 .6-.1 1.2-.4 1.6-.3.4-.6.7-1 .9a4 4 0 0 1-1.6.3Zm16.2-8.8a3.2 3.2 0 0 1 3.2 2.2c.2.8.3 1.7.3 2.7 0 1.3-.1 2.3-.4 3s-.8 1.4-1.3 1.9c-.4.3-.8.6-1.3.7a7 7 0 0 1-1.5.4H92l-1 .2-.6.2-.4.5-.2.8a5.9 5.9 0 0 0 0 .8h-1.2a8 8 0 0 1 0-1c0-.5 0-1 .2-1.2a2.2 2.2 0 0 1 1.2-1l.6-.3h2.8c1 0 1.7 0 2.4-.2.7-.1 1.2-.4 1.6-.7s.8-.9 1-1.6a9 9 0 0 0 .3-2.5 6 6 0 0 0-.3-2.2c-.2-.6-.5-1-.8-1.2a2 2 0 0 0-1.2-.4c-.3 0-.5 0-.8.2l-.6.4a2 2 0 0 0-.4.8l-.1 1.3v4.8h-1.3v-4.8l-.1-1.3-.3-.9a1.1 1.1 0 0 0-1-.5c-.2 0-.4 0-.6.2l-.4.3-.3.9v6.2h-1.3V48c0-.3.2-.6.3-.8 0-.3.3-.5.5-.7l.7-.5 1-.1c.4 0 .8 0 1 .2l.9.6c.3.3.4.6.5 1h-.3c0-.4.3-.7.5-1s.5-.5.9-.6l1.3-.2Z"/>
    <path class="st5" d="M105.5 51.1c-.6 0-1.1 0-1.5-.2l-.9-.8-.4-1-.2-1a6.3 6.3 0 0 1 .3-1.8l1.2.3a5.3 5.3 0 0 0-.2 1.5c0 .6.2 1 .4 1.4s.6.5 1.2.5l.8-.1.4-.5.1-.7-.1-.7c0-.2-.2-.3-.4-.5l-.6-.3-1.4-.1h-6.5v-1h8.4c.4 0 .8.4 1 .6l.7.8c.2.3.2.7.2 1.2 0 .3 0 .7-.2 1a2.2 2.2 0 0 1-1.3 1.2c-.3.2-.7.2-1 .2Zm7.1 3.5c-.6 0-1.2-.1-1.7-.3-.5-.2-.8-.5-1.1-.8-.3-.4-.4-.9-.4-1.4s.1-1 .4-1.4c.3-.4.8-.7 1.4-1 .6-.2 1.4-.3 2.4-.3h2.8l1.3.1c.3.1.8.1 1 .3.3 0 .6.2.8.4l.7.8c.2.3.2.7.2 1.1 0 .8-.2 1.4-.7 1.8a3 3 0 0 1-2 .6 7 7 0 0 1-1.5-.1l.3-1h1.1c.5 0 .9 0 1-.3.3-.2.5-.6.5-1s-.1-.7-.3-.9l-.6-.4a3 3 0 0 0-.8-.2h-5.2l-.9.3-.5.5-.1.7c0 .5.1.8.5 1a3.2 3.2 0 0 0 2.6.2c.3-.1.6-.4.8-.7l.2-1.4v-4h-2.6v2.7l-1.2.2v-4h8v1h-3v4c0 .6 0 1.1-.2 1.5l-.4 1-1.3.8-1.6.2Z"/>
  </g>
  <path class="st5" d="M102 19c-3.3 0-6.1 2.6-6.1 6.1s2.7 6 6.1 6 6.1-2.5 6.1-6-2.7-6-6-6Zm0 9.8c-1.8 0-3.4-1.5-3.4-3.7s1.6-3.7 3.4-3.7 3.4 1.5 3.4 3.7-1.5 3.7-3.4 3.7ZM88.7 19c-3.4 0-6.1 2.6-6.1 6.1s2.7 6 6 6 6.2-2.5 6.2-6-2.7-6-6.1-6Zm0 9.8c-1.9 0-3.4-1.5-3.4-3.7s1.5-3.7 3.4-3.7 3.4 1.5 3.4 3.7-1.6 3.7-3.4 3.7Zm-15.9-8v2.7H79a5.6 5.6 0 0 1-1.4 3.2 6 6 0 0 1-4.7 2 7 7 0 0 1-6.8-7 6.8 6.8 0 0 1 11.4-5l1.8-1.8a9 9 0 0 0-6.4-2.6c-5.2 0-9.6 4.2-9.6 9.4s4.3 9.5 9.6 9.5c2.8 0 5-1 6.6-2.6a8.5 8.5 0 0 0 2.2-6l-.1-1.7h-8.8Zm64.9 2c-.5-1.3-2-3.8-5.2-3.8s-5.8 2.5-5.8 6a6 6 0 0 0 6 6.2 6 6 0 0 0 5.1-2.7l-2-1.4c-.7 1-1.7 1.7-3 1.7s-2.4-.7-3-1.9l8.1-3.3-.2-.7Zm-8.3 2.1a3.3 3.3 0 0 1 3.2-3.5c1 0 2 .5 2.2 1.3l-5.4 2.2Zm-6.7 6h2.7v-18h-2.7v18Zm-4.3-10.5h-.1A4.2 4.2 0 0 0 115 19c-3 0-5.9 2.7-5.9 6.1s2.8 6 5.9 6c1.4 0 2.6-.6 3.2-1.3v.9c0 2.3-1.2 3.5-3.2 3.5-1.6 0-2.6-1.2-3-2.1l-2.4 1a5.8 5.8 0 0 0 5.4 3.5c3.1 0 5.8-1.8 5.8-6.3v-11h-2.5v1Zm-3.1 8.4c-1.8 0-3.4-1.6-3.4-3.7s1.5-3.7 3.4-3.7 3.3 1.6 3.3 3.7-1.5 3.7-3.3 3.7Zm34.9-15.9h-6.4v18h2.7V24h3.7c3 0 5.9-2.2 5.9-5.6s-3-5.6-6-5.6Zm0 8.6h-3.7v-6h3.8c2 0 3 1.6 3 3s-1 3-3 3Zm16.5-2.5c-1.9 0-3.9.8-4.7 2.7l2.4 1c.5-1 1.4-1.3 2.4-1.3 1.4 0 2.8.8 2.8 2.3v.2c-.5-.3-1.5-.7-2.8-.7-2.5 0-5.1 1.4-5.1 4 0 2.4 2 4 4.4 4 1.8 0 2.8-.9 3.4-1.8v1.4h2.7v-6.9c0-3.2-2.4-5-5.5-5Zm-.3 9.8c-.8 0-2-.4-2-1.5 0-1.4 1.5-2 2.8-2 1.1 0 1.7.3 2.4.7a3.2 3.2 0 0 1-3.2 2.8Zm15.2-9.4-3.1 7.7h-.1l-3.2-7.7h-2.8l4.7 10.8-2.7 6h2.8l7.3-16.8h-3Zm-24 11.4h2.6V13h-2.7v18Z"/>
  <g class="st1">
    <path class="st5" d="M190.2 31c-.5 0-1 0-1.4-.2l-1-.7c0-.3-.2-.5-.4-.8s-.2-.6-.3-1l-.1-1.7v-7.3h1.8v8.6c0 .5.3 1 .6 1.2l.5.3.6.1c.4 0 .8 0 1.2-.3l1-1V30l-1 .7a3 3 0 0 1-1.5.3Zm2.3-.2V19.3h1.8v10h7.3v-10h1.8v11.5h-10.9Z"/>
    <path class="st5" d="M203.6 13.3c.7 0 1.4.1 2 .3a4.6 4.6 0 0 1 2.5 2.3 11.4 11.4 0 0 1 .7 4.7v10.2H207V21l-.1-2.5-.4-1.6a4 4 0 0 0-.6-1c-.3-.4-.6-.6-1-.8-.5-.2-.9-.2-1.4-.2-.6 0-1 0-1.5.3-.4.2-.7.5-1 1s-.3.8-.3 1.4a5.3 5.3 0 0 0 .7 2.5h-1.9l-.4-1.2a5.4 5.4 0 0 1 .2-3.2c.3-.6.6-1 1-1.4.5-.3 1-.6 1.5-.7a6 6 0 0 1 1.7-.3ZM215.8 31a3.6 3.6 0 0 1-3.5-2.3c-.3-.7-.5-1.7-.5-3a8 8 0 0 1 .5-2.9c.4-.8.8-1.5 1.4-2s1.3-1 2-1.3c.8-.3 1.6-.5 2.4-.5a7 7 0 0 1 2 .3 4 4 0 0 1 1.9 1c.4.4.7.9.9 1.4l.4 1.6.2 2.3v1.3c0 .4.2.7.3 1l.5 1 .8.4a2.7 2.7 0 0 0 2.3-.1c.3-.2.6-.6.8-1.1s.4-1.3.4-2.2-.1-1.8-.4-2.6a11.2 11.2 0 0 0-2.3-4l1.7-1c.9 1.1 1.5 2.3 2 3.5a10.2 10.2 0 0 1 .3 6.9c-.4.8-.9 1.4-1.5 1.8-.7.4-1.5.5-2.4.5-.6 0-1.2 0-1.7-.2s-.9-.4-1.3-.8-.7-1-1-1.7-.3-1.7-.3-2.7l-.1-1.5c0-.6-.2-1-.4-1.6a3 3 0 0 0-.7-1.2l-1-.5c-.4-.2-1-.2-1.5-.2a4.2 4.2 0 0 0-4 2.6c-.3.8-.5 1.7-.5 2.8 0 .9 0 1.6.3 2.1.2.5.5 1 .9 1.2s.7.3 1.2.3c.4 0 .7 0 1-.2.2-.2.5-.4.6-.7l.2-1.1c0-.7-.2-1.3-.5-1.6s-.9-.6-1.4-.6-1 .2-1.6.5c-.5.2-.9.6-1.3 1l-.3-1.3a5 5 0 0 1 1.5-1.2c.7-.3 1.3-.4 2-.4a3.2 3.2 0 0 1 3.4 3.3c0 .8-.2 1.5-.5 2s-.7 1-1.3 1.3a4 4 0 0 1-1.9.4ZM226 16.7c-.5 0-.8-.1-1-.4-.3-.2-.5-.6-.5-1s.1-.7.4-1c.3-.2.6-.4 1-.4s.7.1 1 .4.4.6.4 1-.1.8-.4 1c-.2.3-.6.4-1 .4Z"/>
  </g>
</svg>
