<svg width="180" height="54" fill="none" xmlns="http://www.w3.org/2000/svg">
  <path d="M173.3 54H6.7A6.7 6.7 0 0 1 0 47.2V6.8C0 3 3 0 6.7 0h166.6a6.7 6.7 0 0 1 6.7 6.8v40.5c0 3.7-3 6.7-6.7 6.7Z" fill="#000"/>
  <path d="M27.6 26.2 13.4 41.5a3.8 3.8 0 0 0 5.7 2.3l16-9.3-7.5-8.3Z" fill="#EA4335"/>
  <path d="m42 23.6-7-4-7.7 7 7.8 7.9 6.9-4a3.9 3.9 0 0 0 2-3.5 4 4 0 0 0-2-3.4Z" fill="#FBBC04"/>
  <path d="M13.4 12.5a3.7 3.7 0 0 0-.1 1v27l.1 1 14.7-14.9-14.7-14Z" fill="#4285F4"/>
  <path d="m27.7 27 7.4-7.4-16-9.4a3.9 3.9 0 0 0-5.7 2.3L27.7 27Z" fill="#34A853"/>
  <path d="M131.5 26.7h2.2V12h-2.2v14.6Zm19.6-9.3-2.5 6.3-2.6-6.3h-2.4l3.9 8.8-2.2 4.9h2.2l6-13.8h-2.4ZM138.8 25c-.7 0-1.7-.3-1.7-1.2 0-1.2 1.2-1.6 2.3-1.6 1 0 1.4.2 2 .5a2.6 2.6 0 0 1-2.6 2.3Zm.2-8c-1.5 0-3.2.7-3.8 2.2l1.9.9c.4-.9 1.2-1.1 2-1.1 1.1 0 2.2.7 2.3 1.9v.1a4.8 4.8 0 0 0-2.3-.6c-2 0-4.2 1.2-4.2 3.3 0 2 1.7 3.2 3.6 3.2a3 3 0 0 0 2.8-1.4v1.1h2.2V21c0-2.5-2-4-4.5-4Zm-13.4 2.1h-3.1v-5h3.1a2.5 2.5 0 0 1 2.6 2.5c0 1.1-1 2.5-2.6 2.5Zm0-7h-5.3v14.6h2.2V21h3c2.5 0 4.8-1.7 4.8-4.5S128 12 125.5 12ZM97 25c-1.5 0-2.7-1.3-2.7-3s1.2-3 2.7-3c1.5 0 2.7 1.3 2.7 3s-1.2 3-2.7 3Zm2.5-6.8a3.4 3.4 0 0 0-2.7-1.2 5 5 0 0 0-4.7 5 4.9 4.9 0 0 0 4.7 5c1.2 0 2.2-.6 2.6-1.2h.1v.7c0 2-1 3-2.6 3a2.7 2.7 0 0 1-2.5-1.8l-2 .8c.6 1.3 2 3 4.5 3s4.7-1.6 4.7-5.3v-8.9h-2v.8Zm3.6 8.4h2.2V12.1h-2.2v14.6Zm5.4-4.8a2.7 2.7 0 0 1 2.6-2.9c.8 0 1.6.5 1.8 1.1l-4.4 1.8Zm6.7-1.6c-.4-1.1-1.6-3.2-4.2-3.2s-4.7 2-4.7 5c0 2.8 2.1 5 5 5a5 5 0 0 0 4-2.2l-1.6-1.2a2.8 2.8 0 0 1-2.5 1.4c-1 0-1.9-.5-2.4-1.5l6.7-2.7-.3-.6Zm-52.8-1.6v2h5a4.4 4.4 0 0 1-1 2.7 5.2 5.2 0 0 1-4 1.5 5.5 5.5 0 0 1-5.5-5.6 5.5 5.5 0 0 1 9.3-4l1.5-1.5a7.3 7.3 0 0 0-5.3-2.1 7.8 7.8 0 0 0-7.8 7.7 7.8 7.8 0 0 0 7.8 7.7 7 7 0 0 0 5.4-2.2 7 7 0 0 0 1.8-5v-1.2h-7.2Zm13 6.4c-1.6 0-2.9-1.2-2.9-3s1.3-3 2.8-3c1.5 0 2.8 1.2 2.8 3s-1.3 3-2.8 3Zm0-8a4.9 4.9 0 0 0-5 5 4.9 4.9 0 0 0 5 5 4.9 4.9 0 0 0 5-5 4.9 4.9 0 0 0-5-5Zm10.8 8c-1.5 0-2.8-1.2-2.8-3s1.3-3 2.8-3c1.5 0 2.8 1.2 2.8 3s-1.3 3-2.8 3Zm0-8a4.9 4.9 0 0 0-5 5 4.9 4.9 0 0 0 5 5 4.9 4.9 0 0 0 5-5 4.9 4.9 0 0 0-5-5Zm-26 29.5 1.5.3c.5 0 .9-.1 1.2-.3.2-.3.3-.6.3-1s0-.6-.2-.9a2.2 2.2 0 0 0-.6-.7 6.2 6.2 0 0 1-2.2 2.7Zm-.6-8.2c-.5 0-.9.1-1.1.3a1 1 0 0 0-.4.9c0 .3 0 .5.2.7.2.2.5.2.8.2.3 0 .5 0 .7-.2l.2-.8c0-.4-.1-.8-.4-1Zm-.3 7.8a5.6 5.6 0 0 0 2.3-2.7 6.2 6.2 0 0 0-2.2-.3c-1 0-1.9.2-2.6.5a6.8 6.8 0 0 0 2.5 2.5Zm-3.2-2c-.4.3-.6.8-.6 1.3s0 .8.3 1c.3.3.7.4 1.2.4a3.8 3.8 0 0 0 1.4-.2 7.2 7.2 0 0 1-2.3-2.5Zm4.4-5.6c.3.3.4.6.4 1 0 .5-.2 1-.5 1.3-.3.3-.8.4-1.4.4-.5 0-1-.2-1.3-.5a1.6 1.6 0 0 1-.5-1.2c0-.6.2-1 .7-1.4a3 3 0 0 1 1.8-.5c1 0 1.9.3 2.5.9.5.6.8 1.5.8 2.6 0 .6 0 1.3-.3 2a2.7 2.7 0 0 1 1.5 2.4 2 2 0 0 1-.6 1.6c-.4.3-1 .5-1.8.5s-1.6-.2-2.5-.5a6 6 0 0 1-2.5.5c-.7 0-1.3-.2-1.7-.5a2 2 0 0 1-.6-1.6 2.6 2.6 0 0 1 1.1-2.2 7.6 7.6 0 0 1-.8-3.6c0-1 .2-1.9.6-2.7a4.7 4.7 0 0 1 2-1.9 6.2 6.2 0 0 1 3-.7 6.2 6.2 0 0 1 2.9.6 4.1 4.1 0 0 1 1.8 2c.4.9.6 2 .6 3.4V44h-1v-3.1c0-1.3-.1-2.4-.4-3.2-.3-.8-.8-1.4-1.4-1.8a4.6 4.6 0 0 0-2.6-.6 5.1 5.1 0 0 0-2.3.5 4 4 0 0 0-1.7 1.6 4.8 4.8 0 0 0-.6 2.4 6.7 6.7 0 0 0 .7 3 9 9 0 0 1 3-.5c.8 0 1.7.1 2.4.4l.2-1.6c0-.6-.1-1.2-.4-1.7a2 2 0 0 0-1-1Z" fill="#fff"/>
  <path d="M60.3 46.5v.2l1.5.2c.5 0 1 0 1.2-.3a1.6 1.6 0 0 0 .2-2.1 2.3 2.3 0 0 0-.6-.7l-.1-.1-.1.1a6.1 6.1 0 0 1-2.1 2.6l-.2.2h.3a6.3 6.3 0 0 0 2.2-2.7h-.1a1.8 1.8 0 0 1 .7 1.6c0 .4-.1.7-.3.9-.3.2-.6.3-1 .3a4.2 4.2 0 0 1-1.5-.3v.2Zm-.6-8.2c-.5 0-1 0-1.2.2a1.1 1.1 0 0 0-.5 1c0 .3.1.6.3.8.2.2.5.3.8.3a1 1 0 0 0 .8-.3c.2-.2.3-.5.3-.9s-.1-.8-.4-1.1l-.2.1c.2.3.4.6.4 1 0 .3-.1.5-.3.7a.8.8 0 0 1-.5.2.8.8 0 0 1-.7-.2.8.8 0 0 1-.2-.6c0-.4.1-.6.3-.7.3-.2.6-.3 1-.3h.1v-.2Zm-.3 7.8v.1a5.7 5.7 0 0 0 2.4-2.7v-.1a6.4 6.4 0 0 0-2.3-.4 6 6 0 0 0-2.6.5h-.2l.1.2a7 7 0 0 0 2.5 2.5h.1V46a6.7 6.7 0 0 1-2.4-2.5v.2a6 6 0 0 1 2.5-.5 6 6 0 0 1 2.1.4v-.2a5.6 5.6 0 0 1-2.3 2.6h.1Zm-3.2-2L56 44a2 2 0 0 0-.7 1.4c0 .5.2.9.4 1.2.3.2.7.3 1.2.3a4 4 0 0 0 1.6-.2l.2-.1-.2-.2a7 7 0 0 1-2.3-2.4v-.2l-.2.1v.2a8.5 8.5 0 0 0 1 1.5c.5.4.9.8 1.4 1v-.2a3.6 3.6 0 0 1-1.4.3c-.5 0-.9-.1-1-.3-.3-.2-.4-.5-.4-1s.2-.9.6-1.3h-.1Zm4.4-5.6.2 1c0 .5-.1.9-.4 1.2-.3.2-.7.4-1.3.4-.5 0-.9-.2-1.2-.5a1.5 1.5 0 0 1-.5-1.1c0-.6.2-1 .7-1.3a3 3 0 0 1 1.7-.5c1 0 1.8.3 2.4.9.5.6.8 1.4.8 2.5l-.3 2c.5.4.9.7 1.1 1.1.3.4.4.8.4 1.3 0 .7-.2 1.1-.6 1.5-.4.3-1 .5-1.7.5-.8 0-1.6-.2-2.4-.6h-.1c-.8.4-1.6.6-2.5.6-.7 0-1.2-.2-1.6-.5a2 2 0 0 1-.6-1.5c0-.4 0-.8.3-1.1l.8-1h.1v-.2a7.5 7.5 0 0 1-.9-3.5c0-1 .2-1.8.7-2.6a4.6 4.6 0 0 1 1.9-1.9 6 6 0 0 1 2.8-.6 6 6 0 0 1 3 .6A4 4 0 0 1 65 37c.4.9.6 2 .6 3.4v3.4H65V41a10 10 0 0 0-.4-3.3 3.6 3.6 0 0 0-1.4-1.8 4.8 4.8 0 0 0-2.6-.6c-1 0-1.8.1-2.5.5a4 4 0 0 0-1.7 1.6 5 5 0 0 0-.6 2.5 6.9 6.9 0 0 0 .7 3v.2h.2a7 7 0 0 1 2.8-.6c1 0 1.8.1 2.5.4h.1v-.1c.2-.5.3-1 .3-1.6 0-.7-.2-1.3-.4-1.8-.3-.5-.7-.8-1.2-1l-.4-.1.2.3h.1c.4.2.8.5 1 1 .3.4.4 1 .4 1.6 0 .6 0 1-.2 1.5h.1a7.7 7.7 0 0 0-2.5-.5c-1 0-2 .2-2.9.6v.1h.2a8.3 8.3 0 0 1-.6-1.5 6.3 6.3 0 0 1-.1-1.5c0-.9.2-1.7.5-2.3a3.8 3.8 0 0 1 1.6-1.6 5 5 0 0 1 2.3-.5c1 0 1.9.2 2.5.6.6.4 1 1 1.3 1.7.3.8.5 1.9.5 3.2v3.2H66v-3.7a8 8 0 0 0-.6-3.5 4.2 4.2 0 0 0-1.9-2 6.4 6.4 0 0 0-3-.6 6.3 6.3 0 0 0-3 .7 4.9 4.9 0 0 0-2 2 5.5 5.5 0 0 0-.7 2.7 7.7 7.7 0 0 0 1 3.6v-.1c-.4.3-.8.6-1 1-.2.4-.3.8-.3 1.3 0 .7.3 1.3.7 1.7.5.4 1 .6 1.8.6 1 0 1.8-.2 2.6-.6V47h-.1a6 6 0 0 0 2.5.7c.8 0 1.4-.2 1.9-.6.4-.4.7-1 .7-1.7 0-.5-.2-1-.4-1.4a3.4 3.4 0 0 0-1.2-1.1h-.1l.1.1a7 7 0 0 0 .3-2 4 4 0 0 0-.9-2.7 3.3 3.3 0 0 0-2.5-1c-.8 0-1.4.2-2 .6-.4.3-.6.8-.6 1.5 0 .5.2 1 .5 1.3a2 2 0 0 0 1.4.5 2 2 0 0 0 1.5-.5c.3-.3.5-.7.5-1.3a2 2 0 0 0-.3-1.1h-.1Zm12.2-3a.7.7 0 0 1-.8.8.7.7 0 0 1-.5-.2.7.7 0 0 1-.3-.6c0-.2.1-.4.3-.5a.7.7 0 0 1 .5-.2.7.7 0 0 1 .8.8Zm-5 6c0 .7.2 1.1.4 1.4.2.3.6.5 1 .5.3 0 .5-.1.7-.3l.2-.9c0-.4 0-.6-.3-.8a1 1 0 0 0-.7-.3 2 2 0 0 0-1.3.5Zm6.8-3.7 1-.6c.4.6.8 1.3 1 2 .3.6.4 1.3.4 2 0 1-.2 1.7-.6 2.2-.4.5-1 .7-1.8.7s-1.4-.2-1.8-.7c-.3-.5-.5-1.2-.5-2.2l-.2-1.7c-.2-.4-.4-.6-.7-.8a2 2 0 0 0-1.1-.3c-.7 0-1.2.2-1.6.6-.5.4-.7 1-.8 1.7a2.4 2.4 0 0 1 1.3-.4c.6 0 1 .1 1.4.5.3.3.5.7.5 1.3a2 2 0 0 1-.6 1.5 2 2 0 0 1-1.4.5 2 2 0 0 1-1.6-.7c-.4-.5-.6-1.3-.6-2.2 0-.7.2-1.4.4-2 .3-.5.7-1 1.3-1.2.5-.3 1-.5 1.7-.5s1.3.2 1.8.5c.4.3.7.6.9 1 .2.5.3 1.2.3 2l.1 1.4.5.7.8.2c.4 0 .8-.2 1-.5.2-.3.4-.8.4-1.5a5 5 0 0 0-1.5-3.5Z" fill="#fff"/>
  <path d="M72.8 35.5h-.2a.6.6 0 0 1-.6.7.6.6 0 0 1-.4-.2.6.6 0 0 1-.2-.5.6.6 0 0 1 .2-.4.6.6 0 0 1 .4-.2.6.6 0 0 1 .6.6h.3a.9.9 0 0 0-.9-.9.9.9 0 0 0-.9 1 .9.9 0 0 0 .9.8c.3 0 .5 0 .6-.2a.9.9 0 0 0 .3-.7h-.1Zm-5 6h-.1c0 .7.2 1.1.4 1.5.3.3.6.5 1 .5s.7-.1.9-.4c.2-.2.3-.5.3-.9s-.1-.7-.4-1a1.1 1.1 0 0 0-.8-.3 2 2 0 0 0-1.4.6h.1l.1.2c.4-.4.8-.5 1.2-.5.3 0 .5 0 .6.3.2.1.3.4.3.7l-.2.8a.8.8 0 0 1-.6.2 1 1 0 0 1-.9-.4 2.2 2.2 0 0 1-.4-1.2Zm6.8-3.7.1.1.9-.6v-.1h-.2a8 8 0 0 1 1.1 2c.3.7.4 1.3.4 2 0 1-.2 1.6-.6 2.1-.4.4-1 .7-1.7.7-.8 0-1.3-.3-1.6-.7a3.3 3.3 0 0 1-.6-2c0-.8 0-1.4-.2-1.8a1.8 1.8 0 0 0-.7-1l-1.2-.2c-.7 0-1.3.2-1.7.6a3 3 0 0 0-.9 1.8v.3l.2-.2c.4-.3.9-.4 1.3-.4.5 0 1 .2 1.3.5.3.3.4.7.4 1.2 0 .6-.2 1-.5 1.4-.3.3-.7.5-1.3.5-.6 0-1-.2-1.5-.7a3.2 3.2 0 0 1-.6-2c0-.8.2-1.4.5-2a2.9 2.9 0 0 1 1.1-1.2c.5-.3 1.1-.4 1.7-.4a3 3 0 0 1 1.7.4c.4.3.7.6.9 1l.2 2c0 .5 0 1 .2 1.3l.5.8.9.2c.5 0 .9-.2 1.1-.5.3-.4.4-1 .4-1.6a5 5 0 0 0-1.5-3.6l-.2.2a4.8 4.8 0 0 1 1.4 3.4 2.5 2.5 0 0 1-.3 1.4c-.2.3-.5.4-1 .4-.2 0-.5 0-.6-.2a1.2 1.2 0 0 1-.5-.6 4.2 4.2 0 0 1-.1-1.3c0-.8-.1-1.5-.3-2-.2-.5-.5-.8-1-1.1a3.3 3.3 0 0 0-1.8-.5c-.6 0-1.3.2-1.8.5a3 3 0 0 0-1.3 1.3c-.3.6-.4 1.2-.4 2 0 1 .2 1.7.6 2.2.4.6 1 .8 1.7.8a2 2 0 0 0 1.5-.5c.4-.4.6-1 .6-1.6 0-.6-.2-1-.6-1.4a2 2 0 0 0-1.4-.6c-.5 0-1 .2-1.4.5l.2.1c0-.7.3-1.2.8-1.6a2 2 0 0 1 1.5-.6c.4 0 .8.1 1 .3.3.1.5.4.6.8.2.4.2 1 .2 1.6 0 1 .2 1.7.6 2.2.4.6 1 .8 2 .8.7 0 1.4-.2 1.8-.7.5-.6.7-1.3.7-2.3 0-.7-.2-1.4-.4-2a7.5 7.5 0 0 0-1.2-2V37l-1 .7h-.2l.1.2.1-.1ZM85 43.3h.4c.4 0 .8-.1 1-.3.2-.3.3-.6.3-1s0-.6-.3-.8a1 1 0 0 0-.7-.4 1 1 0 0 0-.8.3c-.2.2-.3.5-.3 1 0 .4.1.8.4 1.2Zm-1-.4a2.2 2.2 0 0 1-.3-1c0-.6.2-1 .5-1.4a2 2 0 0 1 1.5-.5c.6 0 1 .2 1.4.5.3.4.5.9.5 1.5a2 2 0 0 1-.6 1.5c-.4.4-1 .6-1.6.6a3.8 3.8 0 0 1-3.5-2.1 5.2 5.2 0 0 1-.5-2.3c0-1 .2-2 .7-2.8a4.7 4.7 0 0 1 4.1-2.5c1 0 1.6.2 2.1.5.6.3 1 .7 1.3 1.4.3.6.4 1.5.4 2.7v5h-1v-4.3l-.1-2.2a3.2 3.2 0 0 0-.5-1.3 2 2 0 0 0-.9-.7 3.7 3.7 0 0 0-3.1.3 3.7 3.7 0 0 0-1.4 1.6 5.1 5.1 0 0 0-.6 2.3c0 .8.2 1.4.4 2 .3.5.6.9 1.1 1.2Z" fill="#fff"/>
  <path d="m84.9 43.3.4.1c.5 0 .8 0 1-.3s.5-.7.5-1.1c0-.4-.1-.7-.4-1a1.1 1.1 0 0 0-.8-.3c-.4 0-.7.1-1 .3l-.2 1c0 .5 0 1 .4 1.3l.2-.1a2 2 0 0 1-.4-1.2c0-.3.1-.6.3-.8a.9.9 0 0 1 .7-.3c.3 0 .5.1.6.3.2.2.3.5.3.8 0 .4-.1.7-.3.9-.2.2-.5.3-.9.3H85Zm-1-.4a2 2 0 0 1-.2-1c0-.5.2-1 .5-1.3.4-.3.8-.5 1.4-.5.5 0 1 .2 1.3.5.3.4.5.8.5 1.4 0 .6-.2 1.1-.6 1.4a2.2 2.2 0 0 1-1.5.6 3.6 3.6 0 0 1-3.3-2.1 5 5 0 0 1-.5-2.2c0-1 .2-2 .6-2.7a4.6 4.6 0 0 1 4-2.4c.9 0 1.6.1 2 .4.6.3 1 .7 1.3 1.3.2.6.4 1.5.4 2.7v4.9H89v-4.2c0-1 0-1.7-.2-2.2a3.2 3.2 0 0 0-.5-1.3 2 2 0 0 0-1-.8 3.8 3.8 0 0 0-3.2.3c-.6.4-1 .9-1.5 1.6a6 6 0 0 0-.5 2.4c0 .8.1 1.4.4 2 .3.5.7 1 1.2 1.3l.4.2-.3-.4c-.5-.3-.8-.7-1-1.2a4.3 4.3 0 0 1-.4-1.9 5 5 0 0 1 .5-2.3 3.6 3.6 0 0 1 4.4-1.8l.8.7.5 1.2.1 2.2v4.4H90v-5.2a7 7 0 0 0-.4-2.7 3 3 0 0 0-1.3-1.5 4.5 4.5 0 0 0-2.2-.4 4.8 4.8 0 0 0-4.2 2.5 5.7 5.7 0 0 0-.7 2.8c0 1 .2 1.7.5 2.4a3.9 3.9 0 0 0 3.6 2.2c.7 0 1.3-.2 1.7-.6.4-.4.6-1 .6-1.6a2.1 2.1 0 0 0-.5-1.6 2 2 0 0 0-1.5-.5c-.7 0-1.2.1-1.6.5a2 2 0 0 0-.5 1.5c0 .4 0 .7.2 1h.1Zm14.4-5.2V44h-6.8v-6.3h1v5.5h4.8v-5.5h1Z" fill="#fff"/>
  <path d="M98.3 37.7h-.1v6.2h-6.6v-6h.8v5.4h5v-5.5h1v-.2h-1.2V43h-4.6v-5.4h-1.2V44h7v-6.5.1Zm7.2 8h-5l-.2.2v.1c0 .3.2.5.5.6l1.5.2h.1c.7 0 1.3 0 1.8-.3.5-.1 1-.4 1.3-.7Zm5.3 0h-4a4.7 4.7 0 0 1-1.9 1.5 6.4 6.4 0 0 1-2.5.4h-.2a4 4 0 0 1-2-.4c-.6-.3-.9-.8-.9-1.3l.2-.6a.9.9 0 0 1 .4-.3h6.2c.3-.5.6-1 .7-1.7.2-.7.2-1.4.2-2.1a4 4 0 0 0-.4-2.1 1.4 1.4 0 0 0-1.3-.7c-.3 0-.6 0-.8.2-.2.1-.3.3-.4.6l-.2 1.2V44h-1v-3.8a3 3 0 0 0-.2-1.4.8.8 0 0 0-.7-.4c-.3 0-.6 0-.7.2a1 1 0 0 0-.3.7l-.1 1.2V44h-1v-4c0-.6 0-1.1.2-1.5a1.7 1.7 0 0 1 1.7-1c.8 0 1.3.3 1.6 1 .2-.3.5-.6.8-.7.3-.2.7-.3 1.2-.3.8 0 1.5.3 2 1 .4.6.7 1.5.7 2.6a9.6 9.6 0 0 1-.2 2 6.3 6.3 0 0 1-.6 1.8h2.5v-7.3h1v8Z" fill="#fff"/>
  <path d="M105.5 45.8v-.2h-5l-.2.1-.1.3c0 .3.2.6.6.7.3.2.8.2 1.5.2h.1c.7 0 1.3 0 1.8-.2l1.4-.8.3-.3h-.4v.2-.1c-.4.3-.9.6-1.4.7a5.4 5.4 0 0 1-1.7.3h-.1a4 4 0 0 1-1.4-.2c-.4-.2-.5-.3-.5-.5h-.1.1l.1-.1h5v-.1Zm5.3 0v-.2h-4.1a4.6 4.6 0 0 1-1.8 1.4 7 7 0 0 1-2.5.5h-.2c-.8 0-1.5-.2-2-.5s-.7-.6-.7-1.1l.1-.5a.7.7 0 0 1 .4-.3h6.2c.3-.6.6-1.1.7-1.8l.3-2.1a4.2 4.2 0 0 0-.5-2.2c-.3-.5-.8-.8-1.4-.8l-.9.3-.5.6-.1 1.3v3.5h-.7v-3.7c0-.7-.1-1.2-.3-1.5a.9.9 0 0 0-.8-.5c-.3 0-.6.1-.8.3l-.4.8v4.5h-.8v-3.7l.2-1.4.6-.8 1-.2c.8 0 1.2.3 1.5 1l.1.3.2-.3c.1-.3.4-.6.7-.7a2.2 2.2 0 0 1 3 .6c.4.6.6 1.5.6 2.6a9.5 9.5 0 0 1-.2 2 6 6 0 0 1-.6 1.7v.2h2.9v-7.2h.7v7.9h.2v-8.2h-1.2v7.2h-2.4v.2c.3-.5.6-1 .7-1.7l.2-2c0-1.3-.2-2.2-.7-2.9-.5-.6-1.2-1-2.1-1-.5 0-1 .1-1.3.3a2 2 0 0 0-.8.9h.2a1.8 1.8 0 0 0-1.7-1.2 1.8 1.8 0 0 0-1.8 1.2 4 4 0 0 0-.2 1.5v4h1.2v-3.6l.1-1.1c0-.3.1-.5.3-.7l.6-.2c.3 0 .4.1.6.4l.2 1.3v4h1.2v-3.8c0-.5 0-1 .2-1.1 0-.3.2-.5.4-.6l.7-.2c.5 0 1 .2 1.2.7.3.4.4 1 .4 2a9 9 0 0 1-.2 2 5.4 5.4 0 0 1-.7 1.7h.1-6.2a1 1 0 0 0-.5.4 1 1 0 0 0-.2.6c0 .6.3 1 .9 1.4a4 4 0 0 0 2 .5h.3a6.6 6.6 0 0 0 2.6-.5c.7-.3 1.4-.8 1.9-1.4l-.1-.1v.1h4.1v-.1h-.1Zm4.3-5.5h1v-1.8h-2v1.8h1Zm1 .8h-1c-.8 0-1.4 0-1.7.2-.3.2-.5.5-.5 1 0 .3.1.5.4.7.3.2.6.3 1.1.3.6 0 1-.1 1.2-.4.3-.3.4-.7.4-1.3V41Zm-3-3.4h6v.8H117v1.8h.3c1 0 1.7.1 2.2.5.4.3.7.8.7 1.5 0 .5-.2 1-.6 1.3a2.1 2.1 0 0 1-1.4.5 4.1 4.1 0 0 1-1.1-.2l.2-.8.7.2c.4 0 .7-.1.9-.3.2-.2.3-.4.3-.8a1 1 0 0 0-.5-.9l-1.5-.2h-.2v.3a3.3 3.3 0 0 1-.4 1.7c-.2.4-.5.6-.9.8l-1.4.2a2.8 2.8 0 0 1-1.7-.5c-.5-.3-.7-.8-.7-1.4 0-.4.1-.7.3-1s.5-.5 1-.7v-2.8Z" fill="#fff"/>
  <path d="M115.1 40.3v.1h1v-2H114v2h1.2v-.3a7 7 0 0 0-1 .1v.1-1.6h1.8V40h-.8v.2Zm1 .8v-.2h-1c-.8 0-1.4.1-1.8.3a1 1 0 0 0-.5 1c0 .4.1.7.4 1l1.2.2c.6 0 1-.1 1.3-.4.3-.4.4-.8.4-1.4v-.7.2h-.2v.5c0 .5-.1 1-.4 1.2-.2.2-.5.4-1.1.4-.4 0-.8-.1-1-.3a.7.7 0 0 1-.4-.6c0-.4.2-.7.5-.8.3-.2.8-.3 1.5-.3h1V41Zm-3-3.4v.1h5.9v.6h-2.2v2h.5c1 0 1.7.2 2 .5.5.3.7.8.7 1.4 0 .5-.1 1-.5 1.2-.3.3-.7.4-1.3.4a4 4 0 0 1-1.1-.1v.1l.3-.7h-.1c.2.2.5.2.7.2.4 0 .8 0 1-.3.2-.2.3-.5.3-.9s-.2-.7-.5-1c-.3-.2-.8-.3-1.6-.3h-.4v.5c0 .8 0 1.3-.3 1.6-.2.4-.5.6-.8.8l-1.4.2c-.7 0-1.2-.2-1.6-.5a1.5 1.5 0 0 1-.7-1.3c0-.3.1-.7.3-1 .2-.2.5-.4 1-.5v-3h-.3v2.9h.2v-.2c-.5.2-.9.4-1 .7-.3.3-.4.7-.4 1.1 0 .6.2 1.1.7 1.5a2.9 2.9 0 0 0 1.8.6c.6 0 1-.1 1.5-.3a2 2 0 0 0 1-.8c.2-.4.3-1 .3-1.8v-.2h.1c.7 0 1.2 0 1.5.3s.3.4.3.7 0 .6-.2.7c-.1.2-.4.2-.8.2a2.6 2.6 0 0 1-.7 0l-.1-.1-.3.9.1.1a3.7 3.7 0 0 0 1.2.2c.6 0 1.2-.2 1.5-.5.4-.3.6-.8.6-1.4a2 2 0 0 0-.8-1.6c-.5-.4-1.2-.6-2.2-.6h-.2v-1.4h2.1v-1.1H113v.1h.2Z" fill="#fff"/>
</svg>
