<svg width="180" height="54" fill="none" xmlns="http://www.w3.org/2000/svg">
  <path d="M173.33 54H6.67A6.73 6.73 0 0 1 0 47.25V6.75C0 3.04 3 0 6.67 0h166.66A6.73 6.73 0 0 1 180 6.75v40.5c0 3.71-3 6.75-6.67 6.75Z" fill="#000"/>
  <path d="m27.63 26.22-14.2 15.26a3.84 3.84 0 0 0 5.65 2.35l.05-.03 15.97-9.33-7.48-8.25Z" fill="#EA4335"/>
  <path d="m41.98 23.63-.01-.02-6.9-4.05-7.77 7 7.8 7.9 6.86-4a3.89 3.89 0 0 0 2.02-3.43c0-1.47-.8-2.75-2-3.4Z" fill="#FBBC04"/>
  <path d="M13.43 12.52a3.7 3.7 0 0 0-.13 1v26.96c0 .35.04.68.13 1L28.1 26.62l-14.68-14.1Z" fill="#4285F4"/>
  <path d="m27.73 27 7.34-7.44-15.96-9.37a3.85 3.85 0 0 0-5.69 2.33L27.73 27Z" fill="#34A853"/>
  <path d="M131.52 26.67h2.17V12.1h-2.17v14.57Zm19.59-9.32-2.5 6.31h-.07l-2.59-6.31h-2.34l3.88 8.82-2.21 4.91h2.26l5.99-13.73h-2.42ZM138.77 25c-.7 0-1.7-.35-1.7-1.24 0-1.12 1.24-1.55 2.3-1.55.96 0 1.4.2 1.99.49a2.64 2.64 0 0 1-2.59 2.3Zm.27-7.98c-1.58 0-3.2.69-3.88 2.23l1.93.8c.4-.8 1.18-1.07 1.98-1.07 1.13 0 2.27.68 2.29 1.88v.15a4.8 4.8 0 0 0-2.27-.56c-2.08 0-4.2 1.14-4.2 3.28 0 1.95 1.7 3.2 3.62 3.2 1.46 0 2.27-.65 2.78-1.42h.07v1.12h2.1v-5.58c0-2.59-1.93-4.03-4.42-4.03Zm-13.44 2.09h-3.1v-5h3.1a2.52 2.52 0 0 1 2.55 2.5c0 1.13-.93 2.5-2.55 2.5Zm-.06-7.02h-5.21v14.57h2.17v-5.52h3.04c2.41 0 4.78-1.75 4.78-4.53 0-2.78-2.37-4.52-4.78-4.52ZM97.13 25c-1.5 0-2.76-1.25-2.76-2.98 0-1.75 1.25-3.02 2.76-3.02 1.48 0 2.64 1.27 2.64 3.02 0 1.73-1.16 2.98-2.64 2.98Zm2.5-6.85h-.08a3.43 3.43 0 0 0-2.61-1.1 4.93 4.93 0 0 0-4.75 4.97 4.9 4.9 0 0 0 4.75 4.94c1.18 0 2.12-.53 2.6-1.13h.08v.71c0 1.9-1.01 2.91-2.64 2.91a2.74 2.74 0 0 1-2.5-1.76l-1.9.79c.55 1.31 2 2.93 4.4 2.93 2.55 0 4.7-1.5 4.7-5.17v-8.9h-2.06v.81Zm3.56 8.5h2.18V12.1h-2.18v14.57Zm5.39-4.8a2.72 2.72 0 0 1 2.59-2.9c.86 0 1.6.44 1.84 1.06l-4.43 1.84Zm6.76-1.65c-.42-1.11-1.67-3.16-4.25-3.16-2.55 0-4.67 2.01-4.67 4.96 0 2.78 2.1 4.96 4.92 4.96a4.93 4.93 0 0 0 4.13-2.2l-1.69-1.13a2.83 2.83 0 0 1-2.44 1.37c-1.1 0-1.9-.5-2.4-1.5l6.62-2.74-.22-.56Zm-52.8-1.64v2.1h5.03a4.39 4.39 0 0 1-1.15 2.65 5.15 5.15 0 0 1-3.89 1.54c-3.1 0-5.52-2.5-5.52-5.6a5.52 5.52 0 0 1 9.32-4.08l1.48-1.49a7.34 7.34 0 0 0-5.28-2.12 7.8 7.8 0 0 0-7.8 7.7 7.8 7.8 0 0 0 7.8 7.7c2.3 0 4.02-.75 5.37-2.16a6.95 6.95 0 0 0 1.82-4.92c0-.49-.03-.94-.1-1.32h-7.09ZM75.44 25c-1.5 0-2.8-1.23-2.8-3 0-1.78 1.3-3 2.8-3 1.5 0 2.8 1.22 2.8 3 0 1.77-1.3 3-2.8 3Zm0-7.96A4.89 4.89 0 0 0 70.47 22a4.9 4.9 0 0 0 4.98 4.96A4.9 4.9 0 0 0 80.42 22a4.89 4.89 0 0 0-4.97-4.96ZM86.3 25c-1.5 0-2.8-1.23-2.8-3 0-1.78 1.3-3 2.8-3 1.5 0 2.8 1.22 2.8 3 0 1.77-1.3 3-2.8 3Zm0-7.96A4.89 4.89 0 0 0 81.32 22a4.9 4.9 0 0 0 4.98 4.96A4.9 4.9 0 0 0 91.28 22a4.89 4.89 0 0 0-4.98-4.96ZM60.34 46.55c.45.17.95.25 1.49.25.5 0 .87-.11 1.12-.34.25-.23.38-.57.38-1.01 0-.3-.07-.57-.2-.84a2.21 2.21 0 0 0-.63-.72 6.22 6.22 0 0 1-2.16 2.67Zm-.63-8.2h-.09c-.44 0-.79.1-1.05.3a.97.97 0 0 0-.39.81c0 .3.1.54.27.72.18.18.41.27.7.27.3 0 .52-.1.7-.28.16-.18.24-.43.24-.75 0-.4-.13-.77-.38-1.07Zm-.29 7.75a5.57 5.57 0 0 0 2.25-2.66 6.23 6.23 0 0 0-2.2-.35c-1.01 0-1.86.17-2.55.5a6.8 6.8 0 0 0 2.5 2.52Zm-3.24-2.04c-.42.38-.62.84-.62 1.37 0 .46.12.8.37 1.03.25.23.62.34 1.12.34a3.77 3.77 0 0 0 1.49-.24 7.18 7.18 0 0 1-2.36-2.5Zm4.46-5.6c.23.32.34.69.34 1.09 0 .5-.16.9-.5 1.21-.32.3-.77.46-1.34.46-.53 0-.98-.17-1.33-.5a1.65 1.65 0 0 1-.52-1.25c0-.6.23-1.06.68-1.4.46-.34 1.08-.5 1.86-.5 1.03 0 1.84.3 2.42.93.57.63.86 1.5.86 2.6 0 .64-.1 1.3-.3 1.97.49.3.87.66 1.13 1.08.26.42.39.87.39 1.36 0 .66-.21 1.18-.64 1.56-.42.37-1.01.55-1.77.55-.83 0-1.66-.18-2.47-.56a6 6 0 0 1-2.53.56c-.73 0-1.3-.18-1.72-.56a2 2 0 0 1-.63-1.55 2.61 2.61 0 0 1 1.18-2.22 7.59 7.59 0 0 1-.88-3.6c0-.98.22-1.87.68-2.7a4.74 4.74 0 0 1 1.95-1.89 6.17 6.17 0 0 1 2.94-.67 6.2 6.2 0 0 1 2.93.62A4.1 4.1 0 0 1 65.15 37c.42.87.63 2.02.63 3.44v3.55h-.98V40.9c0-1.34-.15-2.41-.44-3.2-.3-.8-.75-1.4-1.38-1.8a4.61 4.61 0 0 0-2.54-.61 5.1 5.1 0 0 0-2.38.54c-.7.37-1.25.9-1.64 1.58a4.83 4.83 0 0 0-.58 2.4 6.65 6.65 0 0 0 .71 3.01c.84-.36 1.8-.55 2.89-.55.91 0 1.74.13 2.47.39.14-.48.2-.99.2-1.51 0-.68-.12-1.26-.38-1.73a2 2 0 0 0-1.09-.96Z" fill="#fff"/>
  <path d="m60.34 46.55-.05.13c.47.17.98.25 1.54.25.51 0 .92-.11 1.21-.37.29-.26.43-.64.42-1.11 0-.31-.07-.61-.22-.9a2.34 2.34 0 0 0-.66-.77l-.13-.1-.07.15a6.1 6.1 0 0 1-2.12 2.61l-.2.15.23.09.05-.13.07.11a6.34 6.34 0 0 0 2.21-2.72l-.12-.05-.08.1a1.8 1.8 0 0 1 .78 1.46c0 .42-.12.71-.34.9-.22.2-.55.32-1.03.32a4.2 4.2 0 0 1-1.45-.24l-.04.12Zm-.63-8.2v-.13h-.09c-.46 0-.84.1-1.13.32a1.1 1.1 0 0 0-.44.92c0 .33.1.6.3.81.2.21.49.31.8.31a1 1 0 0 0 .79-.32c.2-.2.29-.5.29-.84 0-.44-.14-.83-.42-1.16l-.04-.04h-.06v.13l-.1.09c.23.28.35.6.35.98 0 .3-.08.51-.22.66a.75.75 0 0 1-.58.23.81.81 0 0 1-.62-.22.84.84 0 0 1-.22-.63c0-.31.1-.53.33-.7.23-.18.55-.28.97-.28h.09v-.13Zm-.29 7.75.07.11a5.71 5.71 0 0 0 2.3-2.72l.06-.12-.13-.05a6.37 6.37 0 0 0-2.26-.36 6 6 0 0 0-2.6.5l-.13.06.07.13a6.96 6.96 0 0 0 2.55 2.56l.08.04.06-.04-.07-.11.07-.12a6.69 6.69 0 0 1-2.46-2.47l-.11.07.05.12c.67-.31 1.5-.47 2.5-.47.84 0 1.56.11 2.15.34l.05-.13-.12-.05a5.64 5.64 0 0 1-2.2 2.6l.07.1Zm-3.24-2.04-.1-.1c-.43.4-.66.9-.66 1.47 0 .48.13.87.42 1.13.28.26.7.37 1.2.37a3.93 3.93 0 0 0 1.53-.25l.26-.09-.22-.14a7.04 7.04 0 0 1-2.32-2.46l-.08-.14-.13.1.1.1-.12.07a8.5 8.5 0 0 0 1.1 1.45c.4.42.83.8 1.3 1.1l.08-.11-.05-.13a3.63 3.63 0 0 1-1.44.24c-.48 0-.82-.11-1.03-.31-.22-.2-.33-.5-.33-.93 0-.5.19-.91.58-1.28l-.1-.1Zm4.46-5.6-.1.07c.2.3.3.64.3 1.02 0 .47-.14.83-.44 1.11-.3.28-.71.42-1.26.42-.5 0-.9-.15-1.24-.45a1.5 1.5 0 0 1-.48-1.16c0-.56.2-.97.63-1.3a2.93 2.93 0 0 1 1.78-.47c1 0 1.77.3 2.32.9.55.59.83 1.42.83 2.5 0 .63-.1 1.27-.3 1.93l-.03.1.09.06c.48.28.84.63 1.08 1.03.25.4.37.82.37 1.29 0 .64-.2 1.11-.59 1.46-.39.34-.94.52-1.68.52-.81 0-1.62-.18-2.42-.55l-.05-.03-.06.03c-.8.37-1.63.55-2.47.55-.7 0-1.24-.18-1.63-.53-.4-.35-.59-.82-.6-1.45 0-.43.1-.8.29-1.16.19-.35.47-.67.85-.96l.09-.06-.05-.1a7.5 7.5 0 0 1-.87-3.54c0-.96.22-1.83.67-2.63a4.6 4.6 0 0 1 1.9-1.84 6.04 6.04 0 0 1 2.87-.65c1.16 0 2.12.2 2.87.6.75.4 1.32 1.02 1.72 1.87.4.85.61 1.98.61 3.4v3.41h-.71V40.9c0-1.35-.15-2.43-.44-3.25a3.62 3.62 0 0 0-1.44-1.87 4.78 4.78 0 0 0-2.6-.63c-.91 0-1.73.19-2.45.57-.73.37-1.3.92-1.7 1.62-.4.7-.59 1.54-.59 2.48a6.9 6.9 0 0 0 .72 3.06l.06.12.12-.05a7 7 0 0 1 2.83-.54c.9 0 1.71.12 2.43.37l.13.05.04-.14c.14-.49.21-1 .21-1.54 0-.7-.13-1.3-.4-1.8-.28-.5-.67-.84-1.16-1.02l-.4-.14.24.34.11-.07-.04.12c.43.16.76.45 1 .9.26.45.38 1 .39 1.67 0 .51-.07 1-.2 1.47l.12.04.05-.13a7.66 7.66 0 0 0-2.52-.39c-1.1 0-2.08.19-2.94.56l.05.12.12-.05a8.25 8.25 0 0 1-.53-1.51 6.3 6.3 0 0 1-.16-1.44c0-.9.19-1.69.56-2.35a3.8 3.8 0 0 1 1.58-1.52 4.96 4.96 0 0 1 2.32-.53c1.05 0 1.86.2 2.46.59.61.39 1.05.96 1.34 1.73.28.77.42 1.83.42 3.16v3.22h1.25v-3.69c0-1.43-.2-2.6-.64-3.5a4.23 4.23 0 0 0-1.84-2 6.4 6.4 0 0 0-2.99-.63 6.3 6.3 0 0 0-3 .69 4.87 4.87 0 0 0-2 1.94 5.55 5.55 0 0 0-.71 2.75 7.73 7.73 0 0 0 .9 3.67l.12-.06-.08-.11c-.4.3-.72.66-.93 1.05-.2.38-.3.81-.3 1.28-.01.68.21 1.25.67 1.65.45.4 1.06.6 1.8.6.9 0 1.76-.2 2.6-.58l-.06-.12-.06.12a6 6 0 0 0 2.53.58c.78 0 1.4-.2 1.86-.6.46-.4.68-.96.68-1.65 0-.51-.14-1-.41-1.43a3.42 3.42 0 0 0-1.18-1.12l-.07.11.13.04c.2-.68.31-1.35.31-2 0-1.14-.3-2.04-.9-2.7a3.26 3.26 0 0 0-2.51-.98c-.8 0-1.45.18-1.94.53-.49.36-.74.88-.74 1.5 0 .55.2 1.01.57 1.36a2 2 0 0 0 1.42.53 2 2 0 0 0 1.44-.5c.36-.32.53-.77.53-1.3 0-.43-.12-.82-.36-1.17l-.1.08Zm12.12-2.91a.74.74 0 0 1-.76.76.74.74 0 0 1-.54-.21.74.74 0 0 1-.22-.55c0-.22.07-.4.22-.55a.73.73 0 0 1 .54-.21.74.74 0 0 1 .76.76Zm-4.95 6.03c.04.58.17 1.02.4 1.32.23.3.55.45.94.45.3 0 .53-.1.7-.3.18-.2.27-.47.27-.83s-.1-.64-.3-.85a1 1 0 0 0-.76-.3c-.43 0-.84.17-1.25.51Zm6.81-3.8.89-.6c.52.67.9 1.33 1.15 1.99.25.66.37 1.34.37 2.05 0 .96-.2 1.68-.6 2.17-.41.48-1.01.73-1.81.73s-1.4-.25-1.78-.75c-.38-.5-.57-1.2-.57-2.13 0-.72-.07-1.29-.21-1.69-.15-.4-.36-.69-.66-.88a2.03 2.03 0 0 0-1.11-.27c-.65 0-1.19.2-1.62.6-.44.41-.72.97-.82 1.7a2.4 2.4 0 0 1 1.37-.43c.56 0 1 .16 1.33.5.33.33.5.78.5 1.35a2 2 0 0 1-.52 1.46c-.34.36-.8.54-1.4.54-.67 0-1.2-.26-1.61-.76-.4-.5-.61-1.22-.61-2.15 0-.75.14-1.4.43-1.94.3-.56.7-.98 1.22-1.27.53-.3 1.12-.45 1.77-.45.71 0 1.29.15 1.73.43.43.28.74.65.92 1.1.19.45.28 1.1.28 1.95 0 .6.05 1.05.16 1.35.1.3.26.53.46.67.21.15.48.23.81.23.45 0 .79-.17 1.02-.5.22-.32.34-.82.34-1.48a4.94 4.94 0 0 0-1.43-3.51Z" fill="#fff"/>
  <path d="M72.76 35.55h-.13a.6.6 0 0 1-.63.63.6.6 0 0 1-.45-.18.6.6 0 0 1-.17-.45.6.6 0 0 1 .17-.45.6.6 0 0 1 .45-.18.6.6 0 0 1 .63.63h.27a.87.87 0 0 0-.9-.9.87.87 0 0 0-.9.9.87.87 0 0 0 .9.9c.25 0 .47-.1.64-.26a.9.9 0 0 0 .26-.64h-.14Zm-4.95 6.03-.13.01c.03.6.17 1.06.42 1.4.26.32.62.5 1.05.5.32 0 .6-.12.8-.35.2-.22.3-.54.3-.92s-.1-.7-.32-.94a1.14 1.14 0 0 0-.87-.35c-.47 0-.91.19-1.34.55l-.05.04v.07h.14l.09.1c.39-.34.77-.5 1.16-.5.29 0 .5.1.67.27.17.18.25.43.26.76 0 .34-.09.58-.24.75a.77.77 0 0 1-.6.24 1 1 0 0 1-.83-.4 2.2 2.2 0 0 1-.38-1.23h-.13Zm6.81-3.8.08.12.88-.6-.07-.11-.1.08c.5.65.88 1.3 1.13 1.94.24.65.36 1.32.36 2 0 .95-.2 1.64-.58 2.1-.38.44-.93.67-1.7.67-.78 0-1.32-.23-1.67-.69a3.3 3.3 0 0 1-.54-2.05c0-.73-.08-1.3-.23-1.73a1.8 1.8 0 0 0-.7-.95c-.32-.2-.72-.3-1.2-.3-.66 0-1.24.22-1.7.65a2.93 2.93 0 0 0-.87 1.77l-.04.3.25-.17c.4-.28.84-.41 1.3-.41.53 0 .94.15 1.24.46.3.3.45.71.45 1.26 0 .6-.16 1.04-.47 1.37-.32.33-.74.5-1.31.5-.64 0-1.12-.24-1.5-.71a3.23 3.23 0 0 1-.59-2.07c0-.73.14-1.35.42-1.88a2.9 2.9 0 0 1 1.17-1.22c.5-.28 1.07-.42 1.7-.42a3 3 0 0 1 1.65.4c.42.27.7.61.88 1.04.17.42.26 1.06.26 1.9 0 .6.06 1.07.17 1.4.11.32.29.57.52.73.23.17.53.25.88.25.48 0 .88-.19 1.13-.55.24-.36.36-.88.36-1.56a5.06 5.06 0 0 0-1.46-3.6l-.1.09-.1.09a4.8 4.8 0 0 1 1.39 3.42 2.5 2.5 0 0 1-.31 1.4c-.21.3-.5.44-.91.44-.31 0-.55-.07-.73-.2a1.23 1.23 0 0 1-.42-.6 4.2 4.2 0 0 1-.15-1.31c0-.86-.1-1.52-.28-2-.2-.48-.53-.87-.98-1.16a3.27 3.27 0 0 0-1.8-.45c-.67 0-1.29.15-1.83.46-.55.3-.97.75-1.27 1.33-.3.57-.45 1.24-.45 2 0 .95.2 1.7.63 2.24.43.53 1.02.8 1.72.8a2 2 0 0 0 1.5-.58c.37-.38.55-.91.55-1.55 0-.6-.17-1.09-.53-1.45a1.94 1.94 0 0 0-1.43-.54c-.52 0-1 .15-1.45.46l.08.1.13.03c.1-.7.37-1.24.78-1.62.4-.38.91-.57 1.53-.57.44 0 .78.09 1.04.26.26.16.46.43.6.81.14.38.2.93.2 1.64 0 .94.2 1.68.6 2.21.42.54 1.06.8 1.89.8.82 0 1.47-.26 1.9-.78.44-.52.64-1.28.64-2.25 0-.72-.12-1.42-.38-2.1a7.5 7.5 0 0 0-1.17-2.01l-.07-.1-1 .67-.12.08.1.12.1-.1Zm10.25 5.48c.13.03.29.04.47.04.4 0 .72-.12.94-.34.23-.23.34-.56.34-.97 0-.35-.1-.63-.3-.84a.97.97 0 0 0-.76-.33 1 1 0 0 0-.78.32c-.2.2-.3.5-.3.87 0 .5.13.91.39 1.25Zm-1.04-.37a2.2 2.2 0 0 1-.23-1c0-.57.18-1.03.53-1.38a2 2 0 0 1 1.46-.51c.57 0 1.03.18 1.39.54.35.36.53.84.53 1.45a2 2 0 0 1-.6 1.55c-.4.37-.95.55-1.62.55a3.76 3.76 0 0 1-3.45-2.14 5.17 5.17 0 0 1-.5-2.3c0-1.03.21-1.94.64-2.73a4.7 4.7 0 0 1 4.17-2.49c.86 0 1.56.15 2.1.45.55.3.96.76 1.24 1.38.28.63.42 1.53.42 2.7v5.02h-.98v-4.27c0-.94-.05-1.67-.14-2.2a3.24 3.24 0 0 0-.48-1.28 1.94 1.94 0 0 0-.87-.72 3.66 3.66 0 0 0-3.14.3 3.7 3.7 0 0 0-1.43 1.55 5.14 5.14 0 0 0-.53 2.38c0 .72.13 1.35.39 1.9.25.54.62.96 1.1 1.25Z" fill="#fff"/>
  <path d="m84.87 43.26-.03.13c.15.03.31.04.5.04.43 0 .79-.12 1.04-.38s.37-.62.37-1.06c0-.37-.1-.69-.32-.93a1.1 1.1 0 0 0-.87-.37c-.36 0-.66.11-.88.36-.22.24-.33.57-.33.96 0 .52.14.97.41 1.33l.03.04.05.01.03-.13.1-.08c-.23-.31-.35-.7-.35-1.17 0-.35.09-.6.25-.78a.87.87 0 0 1 .7-.28c.28 0 .49.1.66.28.17.2.25.44.25.76 0 .4-.1.67-.3.87-.18.2-.45.3-.84.3-.17 0-.33 0-.45-.03l-.02.13Zm-1.04-.37.12-.05c-.15-.3-.22-.6-.22-.94 0-.55.17-.97.5-1.3.32-.3.76-.47 1.36-.47.54 0 .96.17 1.3.5.32.34.49.78.49 1.36 0 .64-.2 1.11-.56 1.45a2.2 2.2 0 0 1-1.53.52 3.63 3.63 0 0 1-3.33-2.07 5.04 5.04 0 0 1-.5-2.24c0-1.01.22-1.9.64-2.67a4.57 4.57 0 0 1 4.05-2.42c.84 0 1.52.15 2.04.44.51.28.9.72 1.18 1.32.26.6.4 1.48.4 2.64v4.9h-.7V39.7c0-.94-.05-1.68-.15-2.21a3.18 3.18 0 0 0-.5-1.34 2.07 2.07 0 0 0-.93-.78 3.78 3.78 0 0 0-3.26.32c-.63.37-1.12.9-1.48 1.6-.36.7-.54 1.5-.54 2.44 0 .73.13 1.38.4 1.95.26.57.65 1 1.15 1.32l.4.24-.21-.41-.12.05.07-.1c-.46-.3-.8-.69-1.05-1.21a4.28 4.28 0 0 1-.37-1.84 5 5 0 0 1 .5-2.32 3.59 3.59 0 0 1 4.4-1.79c.34.14.6.36.82.68.22.31.37.72.46 1.23.1.51.14 1.23.14 2.17v4.4h1.24v-5.15c0-1.18-.14-2.1-.43-2.75a2.99 2.99 0 0 0-1.3-1.45 4.46 4.46 0 0 0-2.16-.46 4.84 4.84 0 0 0-4.28 2.56 5.74 5.74 0 0 0-.67 2.79c0 .87.17 1.66.52 2.36a3.9 3.9 0 0 0 3.57 2.21c.7 0 1.27-.19 1.7-.58.44-.4.66-.96.66-1.65a2.1 2.1 0 0 0-.58-1.54 2 2 0 0 0-1.48-.58c-.65 0-1.17.18-1.56.55-.38.37-.56.87-.56 1.48 0 .37.08.73.24 1.05l.12-.06Zm14.5-5.19v6.28h-6.82v-6.27h.98v5.46h4.86V37.7h.98Z" fill="#fff"/>
  <path d="M98.33 37.7h-.13v6.15h-6.56v-6h.71v5.45h5.14v-5.46h.84v-.27h-1.11v5.46h-4.6v-5.46h-1.24v6.55h7.09v-6.55h-.14v.14Zm7.21 8.06h-4.85l-.23.01-.12.09-.05.17c0 .23.17.42.52.56.35.14.84.21 1.47.21h.13c.68 0 1.27-.08 1.78-.26.5-.17.96-.43 1.35-.78Zm5.26 0h-4.04a4.7 4.7 0 0 1-1.86 1.4 6.4 6.4 0 0 1-2.52.46h-.22c-.83 0-1.5-.15-2.03-.46-.52-.31-.78-.74-.78-1.28 0-.23.06-.41.17-.56a.89.89 0 0 1 .43-.3c.18-.06.46-.08.83-.08h5.33c.3-.47.54-1.03.7-1.67.16-.65.23-1.34.23-2.08a4 4 0 0 0-.44-2.1 1.42 1.42 0 0 0-1.29-.71c-.31 0-.58.07-.8.21-.2.14-.36.34-.46.6-.1.27-.15.66-.15 1.17v3.62h-.98v-3.8c0-.64-.08-1.1-.23-1.38a.75.75 0 0 0-.7-.42c-.32 0-.56.08-.71.24-.16.15-.26.4-.31.7-.06.32-.09.72-.09 1.2v3.46h-.98V40.1c0-.62.08-1.1.22-1.46a1.69 1.69 0 0 1 1.7-1.08c.78 0 1.32.37 1.63 1.09.17-.34.42-.61.76-.8.33-.2.73-.29 1.18-.29.85 0 1.5.32 1.97.96.47.63.7 1.53.7 2.7a9.6 9.6 0 0 1-.2 2.06 6.3 6.3 0 0 1-.6 1.67h2.56V37.7h.98v8.05Z" fill="#fff"/>
  <path d="M105.54 45.76v-.14h-4.86l-.23.02h-.03l-.16.1-.04.03-.07.24v.02c0 .3.24.54.61.68.38.15.88.22 1.52.22h.13c.69 0 1.3-.08 1.82-.26s1-.45 1.4-.82l.27-.23h-.36v.14l-.08-.1c-.39.34-.83.6-1.32.76a5.4 5.4 0 0 1-1.73.25h-.13c-.62 0-1.1-.07-1.42-.2-.33-.14-.44-.29-.44-.44h-.13l.13.03.03-.12.06-.04.19-.01h4.84v-.13Zm5.26 0v-.14h-4.1l-.04.05a4.57 4.57 0 0 1-1.8 1.36c-.73.3-1.55.46-2.48.46h-.22c-.81 0-1.47-.15-1.96-.45-.49-.3-.71-.66-.72-1.16 0-.2.05-.36.15-.47a.7.7 0 0 1 .37-.26c.15-.05.42-.08.79-.08h5.4l.04-.06c.3-.49.54-1.05.7-1.71.17-.66.25-1.36.25-2.11a4.2 4.2 0 0 0-.46-2.17c-.31-.5-.8-.78-1.4-.77-.34 0-.64.07-.88.23-.23.16-.4.39-.52.67-.1.29-.15.69-.15 1.21v3.5h-.72v-3.68c0-.65-.08-1.13-.25-1.44a.89.89 0 0 0-.82-.5c-.33 0-.61.1-.8.28-.18.19-.29.45-.35.79-.05.32-.08.73-.08 1.21v3.33h-.71V40.1c0-.6.07-1.08.2-1.4.14-.34.34-.58.6-.75.27-.17.59-.25.98-.25.74 0 1.21.32 1.5 1l.12.27.13-.26c.16-.32.4-.57.7-.75.31-.17.68-.26 1.12-.26.81 0 1.42.3 1.86.9.44.6.67 1.47.67 2.63a9.5 9.5 0 0 1-.2 2.02 6.03 6.03 0 0 1-.58 1.63l-.11.2h2.92v-7.23h.72v7.92h.26v-8.19h-1.24v7.23h-2.44v.14l.12.06c.27-.5.48-1.07.61-1.7.14-.63.21-1.32.21-2.08 0-1.2-.23-2.13-.72-2.8-.49-.66-1.2-1-2.08-1-.47 0-.9.1-1.25.3a2 2 0 0 0-.8.86l.11.06.13-.05a1.78 1.78 0 0 0-1.76-1.17 1.83 1.83 0 0 0-1.82 1.16c-.16.38-.23.88-.23 1.51v4.03h1.25v-3.6c0-.47.03-.87.08-1.17.05-.3.14-.5.27-.64.12-.12.32-.2.61-.2.28 0 .45.1.59.35.13.25.21.69.21 1.32v3.94h1.25v-3.76c0-.5.05-.88.14-1.11.1-.25.23-.42.42-.55.19-.12.42-.19.72-.19.53 0 .9.21 1.18.65.27.44.42 1.12.42 2.03 0 .73-.08 1.41-.23 2.05a5.4 5.4 0 0 1-.68 1.62l.11.08v-.14h-5.32c-.39 0-.67.03-.88.1-.2.06-.37.18-.5.34-.13.17-.2.4-.2.64 0 .59.3 1.07.85 1.4.55.32 1.25.48 2.1.48h.22a6.6 6.6 0 0 0 2.58-.48c.76-.32 1.4-.8 1.9-1.44l-.1-.08v.13h4.17v-.13h-.13Zm4.31-5.49h.9v-1.74h-1.95v1.8c.3-.04.66-.06 1.05-.06Zm.9.79h-.97c-.76 0-1.3.09-1.64.27-.34.18-.51.49-.51.92 0 .33.14.58.4.77.27.18.64.27 1.11.27.58 0 1-.14 1.24-.42.25-.28.37-.71.37-1.3v-.51Zm-2.84-3.35h5.92v.82h-2.12v1.74h.31c1 0 1.73.17 2.19.52.46.34.69.83.69 1.47 0 .58-.18 1.02-.52 1.34a2.1 2.1 0 0 1-1.47.47 4.1 4.1 0 0 1-1.11-.17l.2-.75c.27.08.53.12.78.12.38 0 .67-.09.86-.25.18-.17.27-.44.27-.8a.97.97 0 0 0-.43-.87c-.3-.2-.8-.3-1.5-.3h-.27v.38a3.3 3.3 0 0 1-.33 1.68c-.22.36-.53.62-.9.77-.38.16-.85.23-1.42.23a2.8 2.8 0 0 1-1.73-.51c-.45-.34-.68-.8-.68-1.38 0-.4.1-.74.31-1.02s.53-.5.95-.65V37.7Z" fill="#fff"/>
  <path d="M115.11 40.27v.13h1.03v-2h-2.22v2.09l.16-.03c.3-.04.64-.06 1.03-.06v-.27c-.4 0-.75.02-1.07.07l.02.13h.13v-1.67h1.69v1.47h-.77v.14Zm.9.79v-.14h-.97c-.77 0-1.33.1-1.7.3-.39.2-.59.57-.58 1.03 0 .36.16.67.46.88.3.2.7.3 1.18.3.6 0 1.06-.15 1.34-.47.28-.32.4-.78.4-1.39v-.65h-.13v.14h-.13v.51c0 .57-.12.97-.34 1.21-.2.24-.58.38-1.14.38-.45 0-.8-.09-1.03-.25a.74.74 0 0 1-.35-.66c0-.4.15-.64.44-.8.3-.17.83-.26 1.58-.26h.97v-.13Zm-2.84-3.35v.13h5.79v.56h-2.12v2h.44c.99 0 1.69.17 2.1.5.43.32.64.76.64 1.36 0 .55-.16.95-.47 1.24-.31.28-.76.43-1.38.43a3.97 3.97 0 0 1-1.07-.16l-.04.13.13.04.2-.75-.12-.04-.04.13c.28.08.55.12.81.12.4 0 .72-.08.95-.29.22-.2.32-.51.32-.9 0-.41-.17-.76-.5-.97-.33-.22-.85-.31-1.58-.32h-.39v.5c0 .76-.11 1.3-.31 1.62-.22.34-.5.58-.84.72-.36.14-.82.22-1.37.22-.69 0-1.23-.17-1.65-.49a1.5 1.5 0 0 1-.63-1.27c0-.37.1-.68.29-.94.19-.25.48-.46.88-.6l.09-.04v-2.93h-.27v2.84h.14l-.05-.13c-.44.17-.78.4-1 .7-.23.3-.34.68-.34 1.1 0 .61.25 1.12.72 1.49a2.9 2.9 0 0 0 1.82.54c.58 0 1.07-.08 1.47-.24.4-.17.73-.45.96-.83.25-.4.36-.98.36-1.75v-.24h.12c.7 0 1.19.1 1.44.27s.37.4.37.75-.08.57-.23.7c-.15.14-.4.23-.77.23a2.6 2.6 0 0 1-.73-.11l-.14-.04-.24.88-.04.12.13.04a3.7 3.7 0 0 0 1.16.17c.65 0 1.18-.16 1.55-.5.38-.35.56-.84.56-1.44 0-.67-.25-1.21-.74-1.58-.5-.38-1.25-.55-2.27-.55h-.17v-1.47h2.12v-1.09h-6.2v.14h.14Z" fill="#fff"/>
</svg>
