<svg width="270" height="80" fill="none" xmlns="http://www.w3.org/2000/svg">
  <g clip-path="url(#a)">
    <mask id="b" style="mask-type:luminance" maskUnits="userSpaceOnUse" x="-17" y="-20" width="304" height="118">
      <path d="M-16.7-19.8h303.4V97.6H-16.7V-19.8Z" fill="#fff"/>
    </mask>
    <g mask="url(#b)">
      <path d="M260 78H10a10 10 0 0 1-10-9.8V9.5A10 10 0 0 1 10-.3h250a10 10 0 0 1 10 9.8v58.7a10 10 0 0 1-10 9.8Z" fill="#000"/>
    </g>
    <mask id="c" style="mask-type:luminance" maskUnits="userSpaceOnUse" x="-17" y="-20" width="304" height="118">
      <path d="M-16.7-19.8h303.4V97.6H-16.7V-19.8Z" fill="#fff"/>
    </mask>
    <g mask="url(#c)">
      <path d="M35.6 37.7 14.8 60a5.6 5.6 0 0 0 8.3 3.4l23.5-13.6-11-12Z" fill="#EA4335"/>
    </g>
    <mask id="d" style="mask-type:luminance" maskUnits="userSpaceOnUse" x="-17" y="-20" width="304" height="118">
      <path d="M-16.7-19.8h303.4V97.6H-16.7V-19.8Z" fill="#fff"/>
    </mask>
    <g mask="url(#d)">
      <path d="m56.7 34-10.1-6L35 38.3l11.5 11.5 10-5.8a5.6 5.6 0 0 0 .1-10Z" fill="#FBBC04"/>
    </g>
    <mask id="e" style="mask-type:luminance" maskUnits="userSpaceOnUse" x="-17" y="-20" width="304" height="118">
      <path d="M-16.7-19.8h303.4V97.6H-16.7V-19.8Z" fill="#fff"/>
    </mask>
    <g mask="url(#e)">
      <path d="m14.8 17.9-.2 1.4v39.1c0 .5 0 1 .2 1.5l21.5-21.6-21.5-20.4Z" fill="#4285F4"/>
    </g>
    <mask id="f" style="mask-type:luminance" maskUnits="userSpaceOnUse" x="-17" y="-20" width="304" height="118">
      <path d="M-16.7-19.8h303.4V97.6H-16.7V-19.8Z" fill="#fff"/>
    </mask>
    <g mask="url(#f)">
      <path d="M35.8 38.9 46.6 28 23 14.5a5.6 5.6 0 0 0-8.3 3.4l21 21Z" fill="#34A853"/>
    </g>
    <path d="M77.4 60.3a6 6 0 0 1-2.4-.5c-.7-.4-1.3-.8-1.9-1.4-.5-.6-1-1.4-1.2-2.2-.3-.9-.4-1.8-.4-2.8a9 9 0 0 1 .6-3.4 7.1 7.1 0 0 1 4-4 8 8 0 0 1 5.2-.1 5 5 0 0 1 1.7 1 4.8 4.8 0 0 1 1.7 3.1l.2 2.8V60h-1.8v-6.3a23 23 0 0 0-.4-4.3l-.8-1.3c-.4-.4-.8-.6-1.3-.8A5 5 0 0 0 79 47c-.6 0-1.2.1-2 .4a5.3 5.3 0 0 0-3.1 3c-.4.9-.6 1.9-.6 3l.2 2L74 57l1 1c.3.3.7.5 1 .6h.4a4.1 4.1 0 0 0 1.4.3c.5 0 1-.2 1.3-.5.3-.3.5-.8.5-1.4 0-.4-.1-.9-.4-1.2-.2-.3-.6-.5-1.1-.5-.5 0-.8.2-1.1.5-.3.3-.4.7-.4 1.2s0 .9.2 1.2c.1.4.3.7.6 1l-1.3.2-.8-1a3.4 3.4 0 0 1 0-3c.3-.5.6-.8 1-1 .5-.3 1.1-.5 1.9-.5.6 0 1.1.2 1.6.4.5.3.8.6 1 1 .3.6.5 1 .5 1.7s-.2 1.4-.5 1.9c-.4.4-.8.8-1.4 1a5 5 0 0 1-1.9.4Zm10-.3v-9.5h1.8v8.1h7v-8H98V60H87.4Zm21.8-9.7c.9 0 1.7.2 2.3.7a4 4 0 0 1 1.4 1.9c.4.8.5 1.8.5 3a12.8 12.8 0 0 1-1.4 5.8l-.3.8a7 7 0 0 1-3 2.3 11 11 0 0 1-4.2.8h-.3c-.8 0-1.5-.1-2.2-.3a4 4 0 0 1-1.7-.9 2 2 0 0 1-.7-1.5c0-.3 0-.5.2-.7 0-.2.2-.4.4-.5l.6-.3h15.8v1.4h-15.1c-.1 0-.2.1-.2.3 0 .3.3.6.8.8.5.1 1.2.3 2.2.3h.2a10 10 0 0 0 3-.4c.8-.3 1.6-.7 2.2-1.4l.4-1a7.5 7.5 0 0 0 1.3-3.3l.2-2.2a7 7 0 0 0-.3-2.5c-.3-.6-.6-1-1-1.3-.3-.2-.8-.4-1.3-.4-.2 0-.5 0-.8.2-.2 0-.4.2-.6.4l-.5 1V60h-1.9v-6.8l-.4-1-.4-.3-.6-.2c-.3 0-.5 0-.7.2-.2 0-.3.2-.4.3a2 2 0 0 0-.4 1V60h-1.8v-7.2l.4-1 .5-.7a2 2 0 0 1 1-.6 3.6 3.6 0 0 1 2.4 0c.4.2.7.4 1 .8l.7 1.2-.6-.2.7-1a3 3 0 0 1 1-.7c.5-.2 1-.3 1.6-.3Zm6.8 12.5V50.5h1.8v12.3H116Zm7.4-2.5c-.7 0-1.4-.2-2-.4-.6-.2-1-.5-1.4-1-.3-.4-.4-.9-.4-1.5s.1-1.2.5-1.6c.3-.5.8-.8 1.6-1.1.7-.2 1.7-.4 2.9-.4h3.3a12.7 12.7 0 0 1 2.7.4l1 .5a2.7 2.7 0 0 1 1 2.2c0 .9-.3 1.6-.9 2-.5.6-1.3.8-2.3.8h-.9l-.8-.2.3-1.4a4.4 4.4 0 0 0 1.2.2c.5 0 .9-.1 1.2-.4.2-.2.4-.6.4-1.1 0-.4-.1-.6-.3-.9-.1-.2-.3-.3-.6-.4l-1-.2-1-.1H123l-1 .4-.5.5-.2.8c0 .5.3.8.7 1 .4.3.9.5 1.5.5.5 0 1-.1 1.3-.3.3-.1.6-.4.8-.8.2-.3.3-.9.3-1.5v-4.4H123v3l-1.6.2v-4.6h9.4V52h-3.1v4.2c0 .8-.1 1.4-.3 1.8 0 .5-.3.9-.6 1.2a3 3 0 0 1-1.4.9c-.6.2-1.3.3-2 .3Z" fill="#fff"/>
    <mask id="g" style="mask-type:luminance" maskUnits="userSpaceOnUse" x="-17" y="-20" width="304" height="118">
      <path d="M-16.7-19.8h303.4V97.6H-16.7V-19.8Z" fill="#fff"/>
    </mask>
    <g mask="url(#g)">
      <path d="M178 33.4h3V13.2h-3v20.2Zm27.2-13-3.5 8.8h-.1l-3.6-8.7h-3.2l5.3 12.2-3 6.8h3.1l8.3-19h-3.3ZM188 31.2c-1 0-2.3-.5-2.3-1.7 0-1.6 1.7-2.2 3.2-2.2 1.3 0 2 .3 2.7.7a3.7 3.7 0 0 1-3.6 3.2Zm.4-11c-2.2 0-4.4.9-5.4 3l2.7 1.1c.6-1 1.6-1.5 2.8-1.5 1.5 0 3.1 1 3.1 2.6v.3c-.5-.4-1.7-.8-3.1-.8-2.9 0-5.8 1.6-5.8 4.5 0 2.7 2.3 4.5 5 4.5 2 0 3.1-1 3.8-2h.1v1.6h3v-7.8c0-3.6-2.7-5.6-6.2-5.6ZM169.8 23h-4.3v-7h4.3c2.2 0 3.5 2 3.5 3.6 0 1.5-1.3 3.4-3.5 3.4Zm-.1-9.7h-7.2v20.2h3v-7.7h4.2c3.3 0 6.6-2.4 6.6-6.2 0-3.9-3.3-6.3-6.6-6.3ZM130.3 31c-2 0-3.8-1.7-3.8-4.1 0-2.5 1.7-4.2 3.8-4.2 2 0 3.7 1.7 3.7 4.2 0 2.4-1.7 4.1-3.7 4.1Zm3.5-9.5h-.2c-.6-.8-2-1.5-3.6-1.5a6.9 6.9 0 0 0 0 13.7c1.7 0 3-.7 3.6-1.6h.2v1c0 2.7-1.5 4-3.7 4-1.9 0-3-1.3-3.5-2.4L124 36c.7 1.8 2.7 4 6 4 3.6 0 6.6-2 6.6-7V20.4h-2.8v1Zm4.9 11.8h3V13.2h-3v20.2Zm7.5-6.7c-.1-2.6 2-4 3.6-4 1.2 0 2.2.6 2.5 1.5l-6.1 2.5Zm9.3-2.3c-.5-1.5-2.3-4.3-5.8-4.3-3.6 0-6.5 2.7-6.5 6.8 0 3.9 2.9 6.9 6.8 6.9 3.2 0 5-2 5.7-3l-2.3-1.6A4 4 0 0 1 150 31c-1.5 0-2.6-.7-3.3-2l9.2-3.9-.4-.8Zm-73.2-2.2V25h7a6 6 0 0 1-1.6 3.7c-1 1-2.6 2-5.4 2a7.7 7.7 0 0 1-7.6-7.7 7.7 7.7 0 0 1 12.9-5.6l2-2.1c-1.7-1.7-4-3-7.3-3-5.9 0-10.8 4.8-10.8 10.7 0 6 5 10.7 10.8 10.7 3.2 0 5.6-1 7.5-3 1.9-2 2.5-4.6 2.5-6.8 0-.7 0-1.3-.2-1.8h-9.8Zm18 8.9c-2.2 0-4-1.7-4-4.2a4 4 0 0 1 4-4.1c2 0 3.8 1.7 3.8 4.1 0 2.5-1.8 4.2-3.9 4.2Zm0-11a6.8 6.8 0 0 0-7 6.8c0 4 3.1 6.9 7 6.9 3.7 0 6.8-3 6.8-6.9 0-4-3-6.8-6.9-6.8Zm15 11a4 4 0 0 1-4-4.2 4 4 0 0 1 4-4.1 4 4 0 0 1 3.9 4.1c0 2.5-1.8 4.2-4 4.2Zm0-11a6.8 6.8 0 0 0-7 6.8c0 4 3.2 6.9 7 6.9s6.9-3 6.9-6.9c0-4-3.1-6.8-7-6.8Z" fill="#fff"/>
    </g>
    <path d="M217.7 33.4v-13h2.4v11h7.8v-11h2.5v13h-12.7Zm-2.7.2c-.6 0-1.1 0-1.6-.2a3.1 3.1 0 0 1-1.6-1.6l-.4-1.2-.1-2v-8.3h2.4v8l.1 1.7c0 .5.2 1 .5 1.3a1.6 1.6 0 0 0 1.3.4c.4 0 .9-.1 1.2-.3.4-.3.8-.6 1.1-1.2v2.2l-1.2.9c-.5.2-1 .3-1.7.3Zm14.4-20a9 9 0 0 1 3 .4 7 7 0 0 1 2.3 1.4c.4.4.8.8 1.1 1.4l.8 2.1c.2.9.3 2 .3 3.3v11.2h-2.5V22.8c0-1.2 0-2.2-.2-3l-.5-1.8-.9-1.2a5 5 0 0 0-1.5-1c-.6-.2-1.3-.3-2-.3a4 4 0 0 0-2 .5 3 3 0 0 0-1.8 2.8c0 .6 0 1 .2 1.5.1.4.3.7.6 1l1 .8 1.3.4v2c-1-.2-2-.4-2.8-.9a5.4 5.4 0 0 1-2-2c-.5-.7-.7-1.7-.7-2.8 0-1 .2-2 .8-2.8a5 5 0 0 1 2.2-1.8c1-.4 2-.6 3.3-.6Zm13.9 20c-1 0-1.8-.1-2.5-.6-.7-.4-1.3-1-1.7-2-.4-.8-.6-2-.6-3.3 0-1.3.2-2.4.6-3.3a6.6 6.6 0 0 1 4-3.9 9.6 9.6 0 0 1 5.3-.2 5 5 0 0 1 2.2 1.3c.4.4.7.8 1 1.4.3.5.4 1.1.6 1.9a22.8 22.8 0 0 1 .3 4c0 .5.1.9.3 1.3l.5.8.8.5 1 .2c.6 0 1-.1 1.4-.4.4-.2.7-.6 1-1.2a7 7 0 0 0 .4-2.4 9.8 9.8 0 0 0-1.4-5 8 8 0 0 0-1.5-2l2.2-1.5a18 18 0 0 1 2.3 4c.6 1.3.8 2.8.8 4.4 0 1.3-.2 2.4-.6 3.3-.4 1-1 1.6-1.7 2a6.3 6.3 0 0 1-4.9.4c-.6-.1-1-.4-1.5-.8-.5-.5-1-1-1.2-1.9-.3-.8-.5-1.8-.5-3l-.1-1.7a8 8 0 0 0-.4-1.6c-.1-.5-.4-1-.7-1.3l-1.2-.7a4 4 0 0 0-1.7-.3 4.8 4.8 0 0 0-4.5 2.9c-.4.9-.6 2-.6 3s.1 1.8.3 2.3c.2.6.5 1 1 1.3.3.2.8.3 1.3.3.4 0 .7 0 1-.2.3-.2.5-.4.7-.8l.2-1.2c0-.7-.2-1.2-.6-1.6a2 2 0 0 0-1.5-.6c-.6 0-1.2.2-1.7.6-.6.3-1 .7-1.5 1.2l-.4-1.8a6 6 0 0 1 1.8-1.3 5 5 0 0 1 2.3-.6c1.2 0 2.1.4 2.8 1.1.8.7 1.1 1.6 1.1 2.8 0 1-.1 1.7-.5 2.3a4 4 0 0 1-1.4 1.5c-.7.3-1.4.5-2.3.5Zm6.2-16c-.5 0-.9-.2-1.2-.5-.3-.3-.5-.7-.5-1.2s.2-.9.5-1.2c.3-.3.7-.5 1.2-.5s.9.2 1.2.5c.3.3.5.7.5 1.2s-.2 1-.5 1.2c-.3.3-.7.5-1.2.5Z" fill="#fff"/>
  </g>
  <defs>
    <clipPath id="a">
      <path fill="#fff" transform="matrix(1 0 0 -1 0 80)" d="M0 0h270v80H0z"/>
    </clipPath>
  </defs>
</svg>
