<svg width="180" height="54" fill="none" xmlns="http://www.w3.org/2000/svg">
  <path d="M173.33 54H6.67A6.73 6.73 0 0 1 0 47.25V6.75C0 3.04 3 0 6.67 0h166.66A6.73 6.73 0 0 1 180 6.75v40.5c0 3.71-3 6.75-6.67 6.75Z" fill="#000"/>
  <path d="m27.63 26.22-14.2 15.26a3.84 3.84 0 0 0 5.65 2.35l.05-.03 15.97-9.33-7.48-8.25Z" fill="#EA4335"/>
  <path d="m41.98 23.63-.01-.02-6.9-4.05-7.77 7 7.8 7.9 6.86-4a3.89 3.89 0 0 0 2.02-3.43c0-1.47-.8-2.75-2-3.4Z" fill="#FBBC04"/>
  <path d="M13.43 12.52a3.7 3.7 0 0 0-.13 1v26.96c0 .35.04.68.13 1L28.1 26.62l-14.68-14.1Z" fill="#4285F4"/>
  <path d="m27.73 27 7.34-7.44-15.96-9.37a3.85 3.85 0 0 0-5.69 2.33L27.73 27Z" fill="#34A853"/>
  <path d="M131.52 26.67h2.17V12.1h-2.17v14.57Zm19.59-9.32-2.5 6.31h-.07l-2.59-6.31h-2.34l3.88 8.82-2.21 4.91h2.26l5.99-13.73h-2.42ZM138.77 25c-.7 0-1.7-.35-1.7-1.24 0-1.12 1.24-1.55 2.3-1.55.96 0 1.4.2 1.99.49a2.64 2.64 0 0 1-2.59 2.3Zm.27-7.98c-1.58 0-3.2.69-3.88 2.23l1.93.8c.4-.8 1.18-1.07 1.98-1.07 1.13 0 2.27.68 2.29 1.88v.15a4.8 4.8 0 0 0-2.27-.56c-2.08 0-4.2 1.14-4.2 3.28 0 1.95 1.7 3.2 3.62 3.2 1.46 0 2.27-.65 2.78-1.42h.07v1.12h2.1v-5.58c0-2.59-1.93-4.03-4.42-4.03Zm-13.44 2.09h-3.1v-5h3.1a2.52 2.52 0 0 1 2.55 2.5c0 1.13-.93 2.5-2.55 2.5Zm-.06-7.02h-5.21v14.57h2.17v-5.52h3.04c2.41 0 4.78-1.75 4.78-4.53 0-2.78-2.37-4.52-4.78-4.52ZM97.13 25c-1.5 0-2.76-1.25-2.76-2.98 0-1.75 1.25-3.02 2.76-3.02 1.48 0 2.64 1.27 2.64 3.02 0 1.73-1.16 2.98-2.64 2.98Zm2.5-6.85h-.08a3.43 3.43 0 0 0-2.61-1.1 4.93 4.93 0 0 0-4.75 4.97 4.9 4.9 0 0 0 4.75 4.94c1.18 0 2.12-.53 2.6-1.13h.08v.71c0 1.9-1.01 2.91-2.64 2.91a2.74 2.74 0 0 1-2.5-1.76l-1.9.79c.55 1.31 2 2.93 4.4 2.93 2.55 0 4.7-1.5 4.7-5.17v-8.9h-2.06v.81Zm3.56 8.5h2.18V12.1h-2.18v14.57Zm5.39-4.8a2.72 2.72 0 0 1 2.59-2.9c.86 0 1.6.44 1.84 1.06l-4.43 1.84Zm6.76-1.65c-.42-1.11-1.67-3.16-4.25-3.16-2.55 0-4.67 2.01-4.67 4.96 0 2.78 2.1 4.96 4.92 4.96a4.93 4.93 0 0 0 4.13-2.2l-1.69-1.13a2.83 2.83 0 0 1-2.44 1.37c-1.1 0-1.9-.5-2.4-1.5l6.62-2.74-.22-.56Zm-52.8-1.64v2.1h5.03a4.38 4.38 0 0 1-1.15 2.65 5.15 5.15 0 0 1-3.89 1.54c-3.1 0-5.52-2.5-5.52-5.6a5.52 5.52 0 0 1 9.32-4.08l1.48-1.49a7.34 7.34 0 0 0-5.28-2.12 7.8 7.8 0 0 0-7.8 7.7 7.8 7.8 0 0 0 7.8 7.7c2.3 0 4.02-.75 5.37-2.16a6.95 6.95 0 0 0 1.82-4.92c0-.49-.03-.94-.1-1.32h-7.09ZM75.44 25c-1.5 0-2.8-1.23-2.8-3 0-1.78 1.3-3 2.8-3 1.5 0 2.8 1.22 2.8 3 0 1.77-1.3 3-2.8 3Zm0-7.96A4.89 4.89 0 0 0 70.47 22a4.9 4.9 0 0 0 4.98 4.96A4.9 4.9 0 0 0 80.42 22a4.89 4.89 0 0 0-4.97-4.96ZM86.3 25c-1.5 0-2.8-1.23-2.8-3 0-1.78 1.3-3 2.8-3 1.5 0 2.8 1.22 2.8 3 0 1.77-1.3 3-2.8 3Zm0-7.96A4.89 4.89 0 0 0 81.32 22a4.9 4.9 0 0 0 4.98 4.96A4.9 4.9 0 0 0 91.28 22a4.89 4.89 0 0 0-4.98-4.96ZM65.14 36.8c-.21.27-.32.57-.32.89 0 .25.08.45.23.6.15.15.35.22.6.22s.45-.07.59-.21a.8.8 0 0 0 .2-.58c0-.31-.08-.55-.27-.7-.18-.15-.47-.23-.87-.23h-.16Zm-9.26 3.64c.28.2.6.3.96.3.34 0 .59-.07.76-.2a.7.7 0 0 0 .25-.6c0-.22-.07-.4-.2-.53a.7.7 0 0 0-.52-.2c-.31 0-.58.1-.8.32a1.6 1.6 0 0 0-.45.91Zm4.88-2.08.02-.02h.26c.57.42 1 .88 1.28 1.38.27.51.41 1.07.41 1.7 0 1.02-.33 1.82-1 2.38-.67.57-1.64.86-2.92.86a4.2 4.2 0 0 1-2.9-.95 3.22 3.22 0 0 1-1.05-2.52c0-.87.21-1.57.65-2.08.44-.51 1-.77 1.68-.77.5 0 .9.14 1.19.42.3.29.45.67.45 1.14 0 .53-.17.95-.5 1.25-.34.3-.81.45-1.43.45-.37 0-.73-.1-1.07-.28.03.73.31 1.3.84 1.73.52.42 1.22.64 2.1.64.95 0 1.67-.2 2.18-.59.5-.4.75-.96.75-1.72a2.53 2.53 0 0 0-1.16-2.11 2.07 2.07 0 0 1-1.4-.5c-.34-.32-.5-.74-.5-1.26 0-.48.17-.87.52-1.18a1.9 1.9 0 0 1 1.31-.47h.1c.42 0 .76.08 1.02.24.26.16.48.4.66.71.17-.34.4-.58.7-.73.3-.14.67-.22 1.14-.22h.3a1.53 1.53 0 0 1-.07-.45c0-.42.17-.76.49-1 .32-.26.74-.39 1.25-.39.46 0 .83.1 1.13.28.3.19.53.49.7.9l-.95.24c-.15-.4-.43-.6-.86-.6a.93.93 0 0 0-.6.18.6.6 0 0 0-.23.49c0 .15.03.27.1.37.64.03 1.14.2 1.48.51.35.31.52.75.52 1.32 0 .49-.16.88-.48 1.18a1.8 1.8 0 0 1-1.26.44c-.53 0-.94-.15-1.24-.45a1.5 1.5 0 0 1-.45-1.1c0-.33.09-.66.26-.99h-.2c-.71 0-1.13.38-1.25 1.15h-.95c-.06-.36-.2-.64-.41-.84-.21-.2-.46-.3-.74-.3h-.05c-.3 0-.52.06-.68.2a.68.68 0 0 0-.24.54c0 .28.08.48.24.6.16.13.41.2.75.2h.11v.02Z" fill="#fff"/>
  <path d="m65.14 36.8-.1-.09c-.23.3-.35.63-.35.98 0 .27.09.52.27.7.17.17.42.26.7.26a.9.9 0 0 0 .67-.26c.17-.17.25-.4.25-.67 0-.34-.1-.62-.32-.8-.23-.19-.55-.26-.96-.26h-.22l-.04.05.1.08v.13h.16c.38 0 .64.08.79.2.14.13.22.31.23.6 0 .21-.06.37-.18.48-.11.12-.26.18-.49.18a.68.68 0 0 1-.5-.19.67.67 0 0 1-.2-.5c0-.29.1-.56.3-.82l-.1-.08Zm-9.26 3.64-.08.11c.3.21.66.32 1.04.32.35 0 .64-.07.84-.24.2-.16.3-.4.3-.68a.87.87 0 0 0-.23-.63.83.83 0 0 0-.62-.24c-.34 0-.65.12-.9.35a1.8 1.8 0 0 0-.49.99l-.01.08.07.05.08-.1.13.02c.07-.38.21-.66.41-.84a1 1 0 0 1 .71-.28c.2 0 .32.05.43.15.1.11.16.25.16.45 0 .22-.07.37-.2.48-.14.1-.36.17-.68.17-.33 0-.63-.09-.89-.27l-.07.11Zm4.88-2.08.12.07v-.02l-.1-.07v.13h.26v-.13l-.08.1c.56.42.97.86 1.24 1.35.27.49.4 1.02.4 1.62 0 1-.32 1.75-.96 2.3-.63.53-1.57.81-2.83.81-1.2 0-2.14-.3-2.81-.9-.67-.6-1-1.4-1.01-2.43 0-.85.21-1.5.62-2 .42-.48.93-.72 1.58-.72.47 0 .83.13 1.1.4.27.25.4.58.4 1.03 0 .5-.15.88-.45 1.15-.3.28-.74.42-1.34.42a2 2 0 0 1-1-.27l-.22-.11.01.24c.04.76.34 1.38.9 1.83a3.4 3.4 0 0 0 2.19.66c.95 0 1.7-.2 2.25-.61.54-.42.81-1.05.8-1.83 0-.44-.1-.86-.31-1.26a2.76 2.76 0 0 0-.9-.96l-.04-.03h-.03c-.6-.02-1.03-.17-1.32-.46-.3-.29-.46-.66-.46-1.16 0-.45.16-.8.48-1.08.32-.29.72-.43 1.22-.43h.1c.4 0 .72.07.95.21.24.15.44.36.61.66l.12.22.11-.22c.17-.32.39-.53.65-.67.27-.13.63-.2 1.08-.2h.48l-.06-.18a1.38 1.38 0 0 1-.05-.41c0-.39.14-.67.43-.9.3-.24.68-.36 1.17-.36.44 0 .79.1 1.06.27.27.16.49.44.64.83l.12-.05-.03-.13-.94.24.03.13.13-.04a.98.98 0 0 0-.99-.7c-.26 0-.5.07-.68.21a.73.73 0 0 0-.28.6c0 .17.03.32.12.44l.03.06h.07c.63.03 1.1.2 1.4.48.32.29.48.68.48 1.22 0 .46-.15.81-.44 1.08-.29.27-.67.4-1.17.4-.5 0-.88-.14-1.15-.4-.27-.28-.4-.6-.4-1 0-.32.07-.63.24-.94l.1-.2h-.42c-.77 0-1.27.46-1.38 1.27l.13.02v-.13h-.95v.13l.13-.02a1.6 1.6 0 0 0-.45-.92 1.17 1.17 0 0 0-.83-.34h-.05c-.31 0-.58.07-.77.23a.84.84 0 0 0-.29.65c0 .3.1.55.3.71.2.16.48.22.83.22h.11v-.13h-.13v.47l.25-.38-.12-.07h.14v-.15h-.25c-.32 0-.54-.07-.67-.17-.12-.1-.19-.25-.19-.5 0-.2.06-.33.2-.44.12-.11.31-.18.59-.18h.05a.9.9 0 0 1 .65.27c.18.18.3.43.36.77l.02.12h1.19l.02-.12c.12-.72.45-1.02 1.11-1.04h.2v-.13l-.12-.06c-.18.34-.27.7-.27 1.06 0 .46.16.86.48 1.18.33.33.79.5 1.34.49.55 0 1-.16 1.35-.47.35-.32.53-.76.53-1.28 0-.6-.19-1.08-.57-1.42-.37-.34-.9-.51-1.57-.54v.13l.11-.07a.54.54 0 0 1-.08-.3c0-.17.06-.29.19-.39a.8.8 0 0 1 .51-.15c.38 0 .6.15.74.52l.04.11 1.06-.27.14-.04-.05-.14a1.9 1.9 0 0 0-.75-.96c-.32-.2-.72-.3-1.2-.3-.53 0-.98.13-1.33.4-.36.28-.54.67-.54 1.12 0 .18.02.35.07.5l.12-.05v-.13h-.3c-.47 0-.87.08-1.19.23-.32.16-.58.43-.76.79l.12.06.11-.07a1.99 1.99 0 0 0-.7-.76 2.1 2.1 0 0 0-1.09-.25h-.1c-.55 0-1.03.17-1.4.5-.37.33-.57.77-.56 1.28 0 .55.17 1.01.53 1.35.36.35.87.52 1.5.54v-.13l-.07.1a2.4 2.4 0 0 1 1.1 2.01c0 .73-.24 1.25-.7 1.61-.48.37-1.17.56-2.1.56-.85 0-1.53-.2-2.02-.6-.5-.4-.75-.94-.79-1.64l-.13.01-.07.12c.37.2.75.3 1.14.3a2.2 2.2 0 0 0 1.52-.49c.36-.33.54-.8.54-1.35 0-.5-.16-.92-.49-1.23a1.78 1.78 0 0 0-1.28-.46c-.72 0-1.33.27-1.78.81a3.24 3.24 0 0 0-.69 2.17c0 1.08.37 1.97 1.1 2.62.73.66 1.74.98 3 .98 1.29 0 2.3-.29 3-.88a3.1 3.1 0 0 0 1.05-2.5c0-.64-.15-1.22-.44-1.75a4.5 4.5 0 0 0-1.31-1.43l-.03-.02h-.39l-.05.07.11.08Zm15.89.26c-.08-.5-.29-.89-.63-1.17-.35-.3-.8-.44-1.38-.44-.41 0-.74.08-.96.24a.7.7 0 0 0-.34.6c0 .26.1.49.28.67a5 5 0 0 1 3.03.1Zm-2.17 3.62h.95c.04.45.17.8.41 1.06.24.26.53.39.88.39.39 0 .67-.14.86-.42.18-.28.27-.7.27-1.25 0-.85-.24-1.52-.72-2.01a2.72 2.72 0 0 0-2.04-.74h-.19a2.9 2.9 0 0 0-2.09.72 2.7 2.7 0 0 0-.75 2c0 .57.09 1 .27 1.28.19.28.47.42.86.42.36 0 .65-.13.88-.39.23-.25.37-.6.4-1.06Zm-1.73-3.36a1.67 1.67 0 0 1-.02-2.1c.25-.3.61-.5 1.09-.6a1.6 1.6 0 0 1-.15-.7c0-.43.16-.76.48-1.01.33-.26.75-.38 1.26-.38.45 0 .83.1 1.13.28.3.18.53.48.69.9l-.94.24a.85.85 0 0 0-.86-.6.94.94 0 0 0-.6.17.6.6 0 0 0-.23.5c0 .18.06.35.2.5.89.04 1.58.31 2.08.8.5.5.74 1.12.74 1.84 0 .1 0 .24-.02.43.4.32.72.74.94 1.23.22.5.33 1.04.33 1.65 0 .83-.18 1.47-.54 1.93-.37.47-.87.7-1.5.7-.44 0-.8-.09-1.1-.25a2.27 2.27 0 0 1-.78-.81c-.2.34-.43.6-.73.78-.29.19-.68.28-1.17.28-.61 0-1.1-.24-1.46-.7a3.05 3.05 0 0 1-.55-1.93c0-.7.14-1.32.44-1.87.3-.54.72-.97 1.27-1.28Z" fill="#fff"/>
  <path d="m76.65 38.62.13-.02c-.08-.52-.3-.95-.68-1.26a2.22 2.22 0 0 0-1.46-.46c-.43 0-.78.08-1.04.26a.84.84 0 0 0-.4.7c0 .3.12.57.33.78l.05.05.08-.02a4.87 4.87 0 0 1 2.94.1l.22.07-.04-.22-.13.02.05-.13a5.42 5.42 0 0 0-3.12-.1l.04.13.1-.1a.77.77 0 0 1-.25-.57c0-.2.08-.35.28-.5.2-.13.5-.2.9-.2.54 0 .96.14 1.28.4.32.26.52.62.59 1.09l.13-.02Zm-2.17 3.62v.13h.95v-.13h-.13c.03.48.18.87.44 1.16.26.28.6.42.98.42.42 0 .76-.16.97-.48.2-.3.3-.75.3-1.32 0-.87-.25-1.58-.77-2.1a2.85 2.85 0 0 0-2.13-.79h-.19c-.9 0-1.64.26-2.18.77-.53.51-.8 1.22-.8 2.09 0 .59.1 1.04.3 1.35.2.32.55.48.97.48.39 0 .73-.14.98-.43.25-.28.4-.67.44-1.14l-.13-.01-.14-.02c-.04.44-.16.77-.37 1a1 1 0 0 1-.78.33c-.35 0-.58-.12-.75-.36a2.24 2.24 0 0 1-.25-1.2c0-.82.24-1.44.72-1.9a2.76 2.76 0 0 1 2-.69h.18c.85 0 1.49.24 1.94.7.46.47.69 1.1.7 1.92 0 .54-.1.94-.26 1.18-.16.23-.4.35-.75.35a.98.98 0 0 1-.78-.34 1.56 1.56 0 0 1-.37-.98l-.01-.13h-1.2l-.02.12.14.02Zm-1.73-3.36.1-.08c-.24-.3-.35-.63-.35-.98 0-.38.1-.69.33-.96a1.9 1.9 0 0 1 1.02-.56l.16-.04-.07-.15c-.09-.19-.14-.4-.14-.64 0-.38.14-.67.44-.9.3-.23.68-.35 1.17-.35.44 0 .79.09 1.06.26s.48.44.63.84l.13-.05-.03-.13-.94.24.03.13.12-.05a.98.98 0 0 0-.98-.7c-.27 0-.5.08-.68.22a.73.73 0 0 0-.29.6c0 .21.08.42.23.6l.04.04h.06c.87.04 1.52.3 2 .76.46.48.7 1.05.7 1.74l-.03.41v.08l.05.04c.4.32.7.7.91 1.18.21.48.32 1.01.32 1.6 0 .81-.18 1.42-.52 1.85-.34.43-.79.64-1.4.64-.42 0-.76-.08-1.02-.23-.26-.15-.51-.4-.73-.76l-.12-.2-.11.2a2 2 0 0 1-.69.74 2.1 2.1 0 0 1-1.1.25c-.58 0-1.01-.21-1.36-.65a2.92 2.92 0 0 1-.52-1.84c0-.68.14-1.28.43-1.8.28-.53.68-.93 1.21-1.23l.14-.08-.1-.12-.1.08-.07-.11c-.57.31-1.01.76-1.32 1.33-.3.56-.46 1.21-.46 1.93 0 .83.2 1.5.58 2 .39.5.92.76 1.57.76.5 0 .92-.1 1.24-.3.32-.19.58-.47.78-.83l-.12-.06-.11.07c.24.39.51.68.83.85.31.19.7.27 1.16.27.67 0 1.22-.25 1.6-.74.4-.5.58-1.17.58-2.02 0-.62-.12-1.2-.35-1.7a3.42 3.42 0 0 0-.98-1.29l-.08.1.13.02.02-.44c0-.75-.26-1.4-.78-1.93a3.12 3.12 0 0 0-2.17-.84v.14l.1-.09a.65.65 0 0 1-.17-.42c0-.18.06-.29.18-.4a.8.8 0 0 1 .52-.15c.38.01.6.16.73.53l.05.1 1.2-.3-.06-.14a1.9 1.9 0 0 0-.74-.97c-.33-.2-.73-.3-1.2-.3-.53 0-.99.14-1.34.41-.35.28-.54.66-.53 1.11 0 .28.05.53.16.76l.12-.06-.03-.13c-.5.12-.89.33-1.16.65a1.8 1.8 0 0 0 .01 2.27l.1-.08Zm9.62-2.14a2.77 2.77 0 0 0-.4-.03c-.3 0-.52.06-.7.19a.6.6 0 0 0-.24.5c0 .21.05.38.17.5.12.12.3.17.52.17.52 0 .77-.26.77-.78 0-.2-.04-.38-.12-.55Zm.96.29c.03.14.04.27.04.38 0 .46-.14.83-.44 1.1-.3.28-.7.41-1.21.41-.5 0-.9-.14-1.18-.43a1.44 1.44 0 0 1-.43-1.05c0-.5.18-.88.54-1.16.36-.28.86-.42 1.48-.42.86 0 1.68.26 2.46.8.78.52 1.4 1.24 1.87 2.14.46.9.69 1.87.69 2.9 0 1-.2 1.74-.6 2.22-.4.5-1 .74-1.8.74-.5 0-.94-.12-1.31-.36a5.92 5.92 0 0 1-1.35-1.44 4.7 4.7 0 0 0-.67-.8.69.69 0 0 0-.42-.14.6.6 0 0 0-.5.23.9.9 0 0 0-.2.59c0 .27.05.52.14.78.1.25.24.52.45.8l-1 .34a4.3 4.3 0 0 1-.45-.96c-.1-.3-.14-.62-.14-.96 0-.5.15-.93.47-1.26.31-.34.71-.5 1.2-.5.27 0 .52.04.73.13.2.09.39.2.55.36.16.16.4.45.73.87.28.38.5.66.68.83.17.18.34.31.51.4.18.08.39.12.63.12.45 0 .78-.17 1-.5.22-.33.33-.82.33-1.48 0-.93-.26-1.84-.78-2.73a4.76 4.76 0 0 0-2.02-1.95Z" fill="#fff"/>
  <path d="m82.37 36.74.02-.13a2.86 2.86 0 0 0-.42-.04c-.31 0-.57.07-.77.22a.7.7 0 0 0-.3.61c0 .24.06.44.2.6.16.14.37.2.62.2.28 0 .51-.06.68-.23.16-.16.23-.4.23-.68 0-.21-.05-.42-.14-.61l-.03-.06-.07-.01-.02.13-.12.06c.07.15.11.31.11.5 0 .23-.06.39-.15.49-.1.1-.25.15-.49.15-.2 0-.34-.05-.42-.14-.1-.09-.14-.21-.14-.4 0-.17.06-.29.2-.4a1 1 0 0 1 .61-.16c.13 0 .25.01.38.03l.02-.13Zm.96.29-.13.02c.03.14.04.27.04.36 0 .44-.13.76-.4 1a1.6 1.6 0 0 1-1.12.38c-.48 0-.83-.13-1.09-.4a1.3 1.3 0 0 1-.39-.95c0-.46.16-.8.5-1.06.32-.25.79-.39 1.4-.39.82 0 1.61.26 2.38.77a5.5 5.5 0 0 1 1.82 2.1c.45.88.68 1.83.68 2.83 0 .99-.2 1.7-.57 2.15-.37.45-.92.68-1.7.68-.48 0-.9-.11-1.24-.33-.34-.22-.79-.7-1.31-1.4a4.7 4.7 0 0 0-.7-.83.82.82 0 0 0-.5-.18c-.24 0-.46.1-.6.28-.15.18-.23.41-.23.68 0 .28.05.56.15.82.1.27.25.55.46.84l.11-.07-.04-.13-1 .34.04.12.12-.07a3.1 3.1 0 0 1-.57-1.85c0-.48.13-.86.43-1.17.29-.31.64-.46 1.1-.47a1.67 1.67 0 0 1 1.19.47c.15.15.39.43.7.85.3.38.52.66.7.85a1.6 1.6 0 0 0 1.24.55c.48 0 .87-.19 1.11-.55.24-.37.35-.89.35-1.56a5.5 5.5 0 0 0-.8-2.8 4.9 4.9 0 0 0-2.07-2l-.24-.12.05.26.13-.02-.06.12c.8.39 1.45 1.02 1.96 1.9.51.87.76 1.76.76 2.66 0 .64-.1 1.12-.3 1.4-.2.3-.47.44-.89.44-.22 0-.41-.03-.57-.1-.16-.08-.32-.2-.48-.37a9.78 9.78 0 0 1-.67-.82 8.83 8.83 0 0 0-.74-.88c-.17-.17-.37-.3-.59-.4-.23-.1-.5-.14-.79-.14-.5 0-.95.18-1.29.55-.34.36-.5.82-.5 1.35 0 .35.04.68.14 1 .1.32.26.65.47 1l.05.08 1.28-.43-.11-.14c-.2-.28-.35-.54-.43-.78a2.13 2.13 0 0 1-.13-.73c0-.22.06-.38.16-.5.1-.13.22-.19.4-.19l.34.12c.1.08.33.34.64.77.54.73 1 1.21 1.39 1.47.39.25.86.38 1.38.38.83 0 1.48-.26 1.9-.78.43-.53.63-1.3.63-2.32a6.4 6.4 0 0 0-.7-2.95 5.77 5.77 0 0 0-1.92-2.2 4.44 4.44 0 0 0-2.53-.82 2.5 2.5 0 0 0-1.56.45c-.4.3-.6.74-.6 1.27 0 .44.16.83.47 1.14.31.32.75.48 1.28.48s.98-.15 1.3-.45c.32-.3.49-.7.49-1.2 0-.12-.02-.25-.05-.4l-.13.02Z" fill="#fff"/>
  <path d="M89.46 47.2c-.36-.37-.65-.65-.87-.84-.21-.2-.41-.33-.6-.4a1.6 1.6 0 0 0-.62-.12 1 1 0 0 0-.72.25.84.84 0 0 0-.28.66c0 .33.11.59.35.76.23.18.56.27.99.27a2.64 2.64 0 0 0 1.75-.57Zm.57-.64c.18-.29.3-.61.4-.97a5.5 5.5 0 0 0-.67-4.16 6.92 6.92 0 0 0-2.4-2.23l.5-.86c1.2.7 2.11 1.59 2.74 2.64a6.5 6.5 0 0 1 .72 4.97 4 4 0 0 1-.64 1.27c.21.2.4.34.54.43a.85.85 0 0 0 .85.03c.12-.06.25-.17.39-.34l.59.63c-.23.25-.45.42-.67.53a1.7 1.7 0 0 1-1.51-.03c-.23-.12-.5-.33-.8-.63-.33.27-.7.48-1.1.62a4 4 0 0 1-1.3.2c-.69 0-1.24-.17-1.65-.52a1.73 1.73 0 0 1-.62-1.4c0-.52.18-.94.53-1.28a2 2 0 0 1 1.44-.5c.45 0 .85.1 1.22.32.36.21.84.64 1.44 1.28Z" fill="#fff"/>
  <path d="m89.46 47.2.1-.08c-.37-.38-.66-.67-.88-.86a1.82 1.82 0 0 0-1.31-.56c-.32 0-.6.1-.81.29a.98.98 0 0 0-.33.76c0 .36.14.67.4.87.27.2.63.3 1.08.3a2.91 2.91 0 0 0 1.83-.61l.11-.09-.1-.1-.1.09-.08-.1a2.63 2.63 0 0 1-1.66.54 1.5 1.5 0 0 1-.91-.24.77.77 0 0 1-.3-.66.7.7 0 0 1 .24-.56.9.9 0 0 1 .63-.22c.21 0 .4.04.57.1.17.08.36.2.56.39.21.18.5.47.86.84l.1-.1Zm.57-.64.11.07c.19-.3.33-.64.42-1a5.63 5.63 0 0 0-.69-4.26 7.05 7.05 0 0 0-2.43-2.29l-.07.12.11.06.5-.85-.11-.07-.07.11a7.54 7.54 0 0 1 2.68 2.6 6.36 6.36 0 0 1 .72 4.86 3.9 3.9 0 0 1-.63 1.23l-.07.1.09.07c.22.2.4.36.57.45a.98.98 0 0 0 .97.04c.14-.07.28-.2.43-.37l-.1-.09-.1.1.59.63.1-.1-.1-.09c-.22.24-.43.4-.63.5-.2.1-.42.15-.67.15-.27 0-.5-.06-.71-.17a3.62 3.62 0 0 1-.77-.61l-.08-.09-.1.08c-.32.26-.67.46-1.06.59-.39.13-.8.2-1.26.2-.67 0-1.18-.17-1.57-.5a1.6 1.6 0 0 1-.57-1.28c0-.5.16-.88.5-1.2.32-.3.76-.46 1.34-.46.43 0 .8.1 1.15.3.35.2.82.62 1.41 1.26l.12.13.1-.15-.12-.07.1-.1a7.3 7.3 0 0 0-1.47-1.3 2.52 2.52 0 0 0-1.29-.34c-.63 0-1.15.18-1.53.54-.38.36-.58.83-.58 1.39 0 .6.23 1.12.67 1.5.44.36 1.03.55 1.74.54a3.63 3.63 0 0 0 2.5-.85l-.1-.1-.09.1c.31.3.58.52.83.65.25.14.53.2.84.2.29 0 .56-.05.8-.17.23-.12.46-.3.7-.56l.08-.09-.68-.72-.1-.1-.1.1c-.13.16-.25.27-.35.32a.72.72 0 0 1-.7-.04 3.15 3.15 0 0 1-.53-.41l-.09.1.1.08c.3-.39.52-.83.67-1.32a6.63 6.63 0 0 0-.74-5.07 7.8 7.8 0 0 0-2.77-2.69l-.12-.06-.57.97-.06.11.1.07a6.78 6.78 0 0 1 2.36 2.2 5.37 5.37 0 0 1 .65 4.05c-.09.34-.22.65-.38.93l.1.07Zm15.41-7.66c-.2.28-.31.58-.31.9 0 .25.07.44.22.6a.8.8 0 0 0 .6.22.8.8 0 0 0 .6-.22.8.8 0 0 0 .2-.57c0-.32-.1-.55-.28-.7-.18-.16-.47-.23-.87-.23h-.16Zm-6.8 3.96a3.78 3.78 0 0 0-.68-.74.94.94 0 0 0-.55-.17.75.75 0 0 0-.58.24.91.91 0 0 0-.22.64c0 .27.08.48.24.65.16.17.38.25.65.25s.49-.07.67-.22c.19-.15.34-.37.46-.65Zm-2.31-2.34a2.47 2.47 0 0 1-.22-.99c0-.45.17-.82.51-1.12.34-.29.78-.44 1.32-.44h.1c.42 0 .76.08 1.02.24.26.15.48.39.66.7.17-.33.4-.57.7-.72.3-.14.67-.22 1.14-.22h3.49c.47 0 .84.03 1.12.08.28.05.54.15.77.3.23.15.4.34.53.58.12.24.19.53.19.89 0 .49-.16.88-.48 1.17-.32.3-.74.44-1.27.44s-.94-.14-1.24-.44a1.5 1.5 0 0 1-.45-1.1c0-.33.09-.67.26-.99h-3.03c-.71 0-1.13.38-1.24 1.15h-.96c-.06-.36-.2-.64-.4-.85-.22-.2-.47-.3-.75-.3h-.05c-.31 0-.54.07-.7.2-.15.13-.22.33-.22.59 0 .2.05.39.15.56l-.95.27Zm2.92 3.1c-.29.4-.57.67-.84.81-.27.15-.6.23-.96.23-.57 0-1.01-.17-1.33-.51a1.87 1.87 0 0 1-.47-1.34 1.7 1.7 0 0 1 1.74-1.78 2 2 0 0 1 1 .27c.3.18.7.59 1.19 1.22.36.49.66.8.9.95.23.14.51.22.84.22.43 0 .74-.14.96-.42.21-.27.32-.69.32-1.24a4.9 4.9 0 0 0-1.47-3.37l-.1-.28a8.47 8.47 0 0 0-2.76-1.68l.47-.99a9.92 9.92 0 0 1 3.57 2.56l.15.4a5.67 5.67 0 0 1 1.16 3.4c0 .8-.2 1.44-.62 1.9-.41.46-1 .69-1.73.69-.4 0-.75-.08-1.07-.24a3.26 3.26 0 0 1-.95-.8Z" fill="#fff"/>
  <path d="m105.44 38.9-.1-.08c-.23.3-.35.63-.35.98 0 .27.09.51.27.69.17.18.42.27.7.27.27 0 .5-.09.68-.26.16-.17.25-.4.25-.67 0-.34-.1-.62-.33-.8-.22-.19-.55-.26-.96-.26h-.22l-.04.05.1.08v.13h.16c.38 0 .64.08.79.2.15.13.23.3.23.6 0 .21-.06.36-.18.48-.1.12-.26.18-.48.18a.68.68 0 0 1-.51-.19.68.68 0 0 1-.2-.5c0-.3.1-.56.3-.82l-.1-.08Zm-6.8 3.96.1-.08c-.3-.39-.52-.64-.7-.77-.19-.13-.4-.2-.63-.19-.27 0-.5.1-.68.28-.17.19-.25.44-.25.73 0 .3.09.55.27.74.2.2.45.3.75.3s.55-.09.76-.26c.2-.16.37-.4.5-.7l.03-.07-.05-.06-.1.08-.13-.05a1.6 1.6 0 0 1-.42.6.88.88 0 0 1-.59.2c-.25-.01-.42-.08-.55-.22a.77.77 0 0 1-.2-.56c0-.24.06-.42.18-.55.12-.13.27-.2.48-.2a.8.8 0 0 1 .47.15c.14.1.36.34.65.71l.1-.08Zm-2.31-2.34.12-.05a2.3 2.3 0 0 1-.2-.94c0-.41.15-.74.46-1.02.32-.27.72-.4 1.23-.4h.1c.4 0 .72.07.95.21.24.14.44.36.61.66l.12.22.12-.22c.16-.32.38-.54.64-.67.27-.13.63-.2 1.08-.2h3.49c.46 0 .83.02 1.1.07.27.05.5.14.71.28.22.14.38.31.49.53.11.21.17.49.17.83 0 .46-.14.8-.44 1.08-.29.26-.67.4-1.17.4-.5 0-.87-.14-1.14-.4-.28-.28-.41-.6-.41-1 0-.32.08-.63.24-.94l.1-.2h-3.25c-.77 0-1.27.46-1.38 1.27l.14.02v-.13h-.96v.13l.13-.02a1.6 1.6 0 0 0-.45-.92 1.18 1.18 0 0 0-.83-.34h-.05c-.33 0-.6.07-.78.23a.87.87 0 0 0-.28.69c0 .23.06.44.17.63l.12-.07-.04-.13-.95.27.04.13.03.13 1.12-.32-.09-.15a.95.95 0 0 1-.13-.5c0-.23.07-.38.18-.48.12-.1.32-.17.6-.17h.06a.9.9 0 0 1 .65.27c.19.18.3.43.37.77l.01.11h1.19l.02-.11c.12-.73.45-1.02 1.11-1.04h3.03v-.13l-.12-.06c-.18.34-.27.7-.27 1.05 0 .46.16.87.49 1.19.33.33.78.49 1.33.49s1.01-.16 1.36-.48c.34-.32.52-.75.52-1.27 0-.37-.07-.7-.2-.95a1.65 1.65 0 0 0-.58-.63 2.15 2.15 0 0 0-.81-.32c-.3-.06-.68-.08-1.15-.08h-3.49c-.48 0-.88.07-1.2.23a1.8 1.8 0 0 0-.76.78l.12.07.11-.07a2 2 0 0 0-.7-.76 2.08 2.08 0 0 0-1.09-.25h-.1a2.1 2.1 0 0 0-1.4.47c-.37.32-.56.74-.56 1.22 0 .35.07.7.22 1.04l.05.11.11-.03-.03-.13Zm2.92 3.1-.11-.07a2.6 2.6 0 0 1-.8.77c-.24.13-.54.2-.9.2-.53 0-.93-.15-1.22-.46-.3-.32-.44-.72-.44-1.25 0-.5.15-.88.46-1.19.3-.3.67-.45 1.15-.46.34 0 .65.09.93.25.27.16.66.56 1.15 1.2l.11-.09-.1.09c.36.48.66.8.92.97.26.16.57.24.92.24.46 0 .82-.15 1.06-.46.24-.31.35-.76.35-1.33a5 5 0 0 0-1.5-3.46l-.1.09.12-.05-.1-.27-.01-.03-.02-.02a8.58 8.58 0 0 0-2.8-1.71l-.05.12.12.06.47-.99-.12-.06-.05.13a9.8 9.8 0 0 1 3.52 2.51l.1-.08-.12.04.15.4v.02l.02.02a5.53 5.53 0 0 1 1.13 3.31c0 .8-.2 1.4-.59 1.82-.39.43-.92.64-1.63.64-.38 0-.71-.07-1-.22-.3-.15-.6-.4-.92-.76l-.11-.13-.1.14.1.08-.1.09c.34.37.67.65 1 .82.34.17.71.25 1.13.25.76 0 1.39-.24 1.83-.73.44-.49.65-1.16.65-2 0-1.23-.4-2.39-1.18-3.47l-.1.08.12-.05-.15-.4-.01-.02-.02-.02a10.04 10.04 0 0 0-3.62-2.59l-.11-.05-.53 1.1-.07.13.14.05a8.3 8.3 0 0 1 2.71 1.66l.1-.1-.13.05.1.27.01.03.02.02a4.76 4.76 0 0 1 1.43 3.28c0 .54-.1.92-.29 1.16-.19.24-.45.36-.84.36-.32 0-.57-.06-.78-.2-.2-.12-.5-.43-.86-.9a5.3 5.3 0 0 0-1.23-1.27 2.06 2.06 0 0 0-1.07-.28c-.53 0-1 .18-1.34.54-.36.36-.54.82-.54 1.37a2 2 0 0 0 .52 1.43c.34.37.83.55 1.42.55.38 0 .73-.08 1.02-.24.3-.16.6-.45.88-.84l-.1-.08Zm11.12.07c.54 0 .95-.16 1.26-.48.3-.33.45-.75.45-1.27 0-.51-.15-.93-.46-1.26a1.64 1.64 0 0 0-1.25-.49c-.51 0-.92.17-1.23.49-.31.32-.47.74-.47 1.26s.16.94.46 1.26c.3.33.71.49 1.24.49Zm0-4.47c.52 0 .99.12 1.4.35.42.24.75.56.98.98.23.42.34.89.34 1.4 0 .8-.25 1.44-.75 1.95-.5.5-1.16.76-1.97.76-.51 0-.98-.12-1.4-.34a2.4 2.4 0 0 1-.96-.97 2.83 2.83 0 0 1-.35-1.4c0-.51.11-.98.35-1.4.23-.41.55-.74.97-.97.41-.24.88-.36 1.4-.36Z" fill="#fff"/>
  <path d="M110.37 43.69v.13c.56 0 1.02-.17 1.35-.52.34-.35.5-.81.5-1.36 0-.54-.17-1-.5-1.35-.34-.35-.8-.53-1.35-.53-.54 0-1 .17-1.33.53-.33.35-.5.8-.5 1.35 0 .54.16 1 .49 1.35.33.36.79.53 1.34.53v-.27c-.5 0-.87-.15-1.15-.44-.27-.3-.41-.68-.41-1.17 0-.5.14-.87.42-1.17.29-.3.66-.44 1.14-.44.5 0 .86.15 1.15.44.29.3.43.68.43 1.17 0 .5-.14.88-.42 1.17-.28.3-.65.44-1.16.44v.14Zm0-4.47v.14c.5 0 .94.1 1.34.33.4.22.7.53.92.93.22.4.33.84.33 1.33 0 .76-.24 1.37-.71 1.85-.48.48-1.1.72-1.88.72-.5 0-.93-.1-1.33-.32-.4-.21-.7-.51-.92-.92a2.7 2.7 0 0 1-.33-1.33c0-.5.11-.93.33-1.33.22-.4.53-.7.92-.93.4-.22.83-.33 1.33-.33v-.27a2.73 2.73 0 0 0-2.48 1.4 2.8 2.8 0 0 0-.36 1.46c0 .53.11 1.02.36 1.46.24.45.59.79 1.03 1.03.43.23.92.35 1.45.35.84 0 1.53-.27 2.06-.8s.8-1.22.8-2.04a2.9 2.9 0 0 0-.37-1.46 2.58 2.58 0 0 0-1.02-1.03 2.96 2.96 0 0 0-1.47-.37v.13Zm6.33-2.02a4 4 0 0 0 .23.71c.07.16.16.27.24.34.09.06.2.09.33.09.16 0 .3-.05.45-.15.15-.1.35-.32.62-.66l.38-.5a4.6 4.6 0 0 1 1.16-1.15c.35-.21.78-.32 1.3-.32l.06.95c-.28.01-.51.06-.69.13-.17.06-.34.16-.49.3-.15.12-.36.36-.62.7l-.28.37c-.34.44-.66.76-.96.96-.3.2-.63.3-1 .3-.48 0-.85-.16-1.13-.46-.27-.3-.48-.73-.63-1.27l1.02-.33Zm.61 5.04h.96c.03.45.17.8.4 1.06.25.26.54.39.88.39.4 0 .68-.14.87-.42.18-.28.27-.7.27-1.25 0-.85-.24-1.52-.72-2.01a2.72 2.72 0 0 0-2.04-.74h-.19a2.9 2.9 0 0 0-2.09.72 2.7 2.7 0 0 0-.76 2c0 .57.1 1 .28 1.28.18.28.47.42.86.42.35 0 .64-.13.88-.39.23-.25.36-.6.4-1.06Zm.48 1.36c-.2.34-.44.6-.73.78-.3.19-.68.28-1.17.28a1.8 1.8 0 0 1-1.47-.7 3.05 3.05 0 0 1-.55-1.93c0-.73.16-1.37.48-1.92.32-.56.78-1 1.38-1.3a4.4 4.4 0 0 1 2.11-.47c.79 0 1.47.15 2.05.45.59.3 1.04.74 1.35 1.3.31.56.47 1.2.47 1.94 0 .83-.18 1.47-.54 1.93-.37.47-.87.7-1.5.7-.45 0-.81-.09-1.1-.25a2.27 2.27 0 0 1-.78-.81Z" fill="#fff"/>
  <path d="m116.7 37.2-.14.04c.09.31.16.56.25.73.08.17.17.3.28.38.12.09.26.12.4.12.2 0 .38-.06.54-.17.17-.12.37-.35.64-.7l.38-.49c.42-.55.8-.92 1.13-1.12.32-.2.73-.3 1.23-.3v-.13h-.13l.06.96.13-.01v-.14c-.3.02-.54.06-.73.14-.2.07-.38.18-.54.32-.16.14-.37.38-.64.73l-.28.37c-.33.43-.64.74-.92.93a1.7 1.7 0 0 1-.94.27 1.3 1.3 0 0 1-1.02-.4 2.95 2.95 0 0 1-.6-1.23l-.13.04.04.13 1.03-.34-.05-.12-.04-.13-1.14.37.03.12c.15.56.37 1 .67 1.33.3.33.71.5 1.21.5.4 0 .76-.1 1.08-.32a4.7 4.7 0 0 0 1-1l.27-.36c.27-.34.47-.57.6-.69.15-.12.3-.2.46-.27.16-.06.38-.1.65-.12h.14l-.08-1.1v-.12h-.13c-.54 0-1 .12-1.37.34-.37.23-.77.63-1.2 1.2l-.38.48a3.3 3.3 0 0 1-.58.64.65.65 0 0 1-.38.13l-.25-.07a.72.72 0 0 1-.2-.29 3.97 3.97 0 0 1-.23-.68l-.03-.13-.14.04.04.13Zm.61 5.04v.13h.96v-.13h-.13c.03.48.17.87.44 1.16.26.28.6.42.97.42.42 0 .77-.16.98-.48.2-.3.3-.75.3-1.32 0-.87-.25-1.58-.77-2.1a2.85 2.85 0 0 0-2.13-.79h-.19c-.9 0-1.65.26-2.18.77-.54.51-.8 1.22-.8 2.09 0 .59.1 1.04.3 1.35.2.32.55.48.97.48.39 0 .72-.14.98-.43.25-.28.4-.67.44-1.14l-.14-.01-.13-.02c-.04.44-.17.77-.37 1a1 1 0 0 1-.78.33c-.36 0-.59-.12-.75-.36a2.23 2.23 0 0 1-.25-1.2c0-.82.24-1.44.71-1.9a2.76 2.76 0 0 1 2-.69h.19c.85 0 1.49.24 1.94.7.46.47.69 1.1.69 1.92 0 .54-.1.94-.26 1.18-.16.23-.39.35-.75.35-.3 0-.56-.1-.77-.34a1.56 1.56 0 0 1-.38-.98v-.13h-1.2l-.02.12.13.02Zm.48 1.36-.12-.07a2 2 0 0 1-.68.74 2.1 2.1 0 0 1-1.1.25 1.6 1.6 0 0 1-1.36-.65 2.92 2.92 0 0 1-.52-1.84c0-.7.15-1.32.46-1.86.3-.53.74-.94 1.32-1.25a4.4 4.4 0 0 1 2.05-.45c.77 0 1.43.15 2 .44.55.3.98.7 1.28 1.25.3.54.46 1.16.46 1.87 0 .81-.18 1.42-.52 1.85-.34.43-.8.64-1.4.64-.42 0-.76-.08-1.02-.23-.27-.15-.51-.4-.74-.76l-.12-.2-.1.2.1.07-.1.07c.24.39.51.68.83.85.31.19.7.27 1.15.27.67 0 1.22-.25 1.61-.74.39-.5.57-1.17.57-2.02 0-.75-.16-1.42-.48-2a3.32 3.32 0 0 0-1.4-1.35 4.53 4.53 0 0 0-2.12-.47c-.82 0-1.55.16-2.17.48-.63.32-1.1.77-1.44 1.35a3.98 3.98 0 0 0-.49 2c0 .82.19 1.5.58 2 .38.5.92.75 1.57.75.5 0 .92-.1 1.24-.3.32-.19.57-.47.78-.83l-.12-.06Zm7.41.09c.54 0 .96-.16 1.27-.48.3-.33.45-.75.45-1.27 0-.51-.16-.93-.47-1.26a1.64 1.64 0 0 0-1.24-.49c-.52 0-.93.17-1.23.49-.31.32-.47.74-.47 1.26s.15.94.45 1.26c.3.33.72.49 1.25.49Zm0-4.47c.53 0 1 .12 1.41.35.42.24.75.56.97.98.24.42.35.89.35 1.4 0 .8-.25 1.44-.75 1.95-.5.5-1.16.76-1.97.76-.52 0-.98-.12-1.4-.34a2.4 2.4 0 0 1-.97-.97 2.83 2.83 0 0 1-.35-1.4c0-.51.12-.98.35-1.4.24-.41.56-.74.97-.97.41-.24.88-.36 1.4-.36Z" fill="#fff"/>
  <path d="M125.2 43.69v.13c.57 0 1.03-.17 1.36-.52.33-.35.5-.81.5-1.36a1.77 1.77 0 0 0-1.84-1.88 1.76 1.76 0 0 0-1.84 1.88c0 .54.16 1 .48 1.35.33.36.8.53 1.35.53v-.27c-.5 0-.88-.15-1.15-.44-.28-.3-.41-.68-.42-1.17 0-.5.15-.87.43-1.17.29-.3.65-.44 1.14-.44.5 0 .86.15 1.15.44.28.3.42.68.42 1.17 0 .5-.14.88-.41 1.17-.28.3-.65.44-1.16.44v.14Zm0-4.47v.14c.5 0 .95.1 1.35.33.4.22.7.53.92.93.22.4.33.84.33 1.33 0 .76-.24 1.37-.72 1.85s-1.1.72-1.87.72c-.5 0-.94-.1-1.33-.32-.4-.21-.7-.51-.92-.92a2.7 2.7 0 0 1-.33-1.33c0-.5.1-.93.33-1.33.22-.4.52-.7.92-.93.4-.22.83-.33 1.33-.33v-.27c-.54 0-1.03.12-1.46.37-.44.25-.78.6-1.02 1.03a2.9 2.9 0 0 0-.37 1.46 3 3 0 0 0 .36 1.46c.25.45.6.79 1.03 1.03.44.23.93.35 1.46.35a2.8 2.8 0 0 0 2.06-.8c.53-.53.8-1.22.8-2.04 0-.53-.13-1.02-.37-1.46a2.57 2.57 0 0 0-1.02-1.03 2.96 2.96 0 0 0-1.47-.37v.13Zm9.46 4.49.4.02c.34 0 .6-.07.75-.21a.76.76 0 0 0 .25-.61.7.7 0 0 0-.2-.54.88.88 0 0 0-.6-.19.84.84 0 0 0-.61.2c-.15.14-.22.34-.22.6 0 .26.08.5.22.73Zm-.84-7.36a1.2 1.2 0 0 0-.44-.43c-.18-.1-.38-.15-.6-.15a.97.97 0 0 0-.6.16c-.13.1-.2.25-.2.43 0 .17.06.3.2.39.12.09.29.13.49.13.48 0 .86-.17 1.15-.53Zm.22.82c-.37.33-.81.5-1.34.5-.48 0-.86-.12-1.16-.35a1.11 1.11 0 0 1-.43-.94c0-.43.15-.77.45-1.03.3-.25.71-.38 1.22-.38a2 2 0 0 1 1.53.62c.4.42.6.94.6 1.57 0 .67-.19 1.17-.54 1.5-.36.34-.88.51-1.56.51-.47 0-1-.1-1.6-.31l.34-.8c.4.17.8.26 1.2.26.47 0 .8-.1 1-.28.19-.2.28-.49.28-.87Zm-1.41 6.43c-.2.34-.44.6-.73.78-.3.19-.69.28-1.18.28-.6 0-1.09-.23-1.46-.69a2.84 2.84 0 0 1-.55-1.84c0-.76.17-1.43.52-2a3.4 3.4 0 0 1 1.5-1.33 5.87 5.87 0 0 1 5.46.46l-.6.84c-.46-.3-.9-.52-1.3-.65a4.92 4.92 0 0 0-1.36-.18c-1 0-1.78.25-2.35.75-.57.5-.85 1.2-.85 2.1 0 1.04.38 1.57 1.14 1.57.36 0 .66-.13.88-.38.23-.25.36-.6.4-1.07h.96c.03.59.23.99.59 1.2a1.9 1.9 0 0 1-.13-.68c0-.46.16-.83.47-1.1.31-.29.73-.43 1.26-.43.5 0 .93.15 1.25.46.33.3.5.69.5 1.15 0 .57-.19 1.02-.55 1.34-.37.32-.86.48-1.48.48-.58 0-1.06-.09-1.45-.26-.39-.17-.7-.43-.94-.8Z" fill="#fff"/>
  <path d="m134.66 43.71-.02.13c.14.02.28.02.42.02.36 0 .64-.07.84-.24a.9.9 0 0 0 .3-.71.82.82 0 0 0-.26-.64.99.99 0 0 0-.69-.22.98.98 0 0 0-.7.24.91.91 0 0 0-.25.69c0 .28.08.56.24.8l.04.06h.06l.02-.13.1-.07c-.13-.21-.2-.43-.2-.66 0-.24.07-.39.18-.5.1-.1.27-.16.51-.16s.4.05.51.15c.1.1.16.23.17.44 0 .24-.07.39-.2.5-.13.12-.35.19-.67.19-.14 0-.27 0-.4-.02v.13Zm-.84-7.36.12-.07a1.4 1.4 0 0 0-.5-.48c-.2-.1-.42-.16-.66-.16-.28 0-.5.05-.68.18a.66.66 0 0 0-.25.54c0 .2.09.39.25.5.15.1.35.16.57.16.5 0 .94-.2 1.26-.58l.06-.08-.05-.08-.12.07-.1-.08c-.27.32-.6.48-1.05.48a.73.73 0 0 1-.42-.11c-.1-.07-.13-.14-.14-.28 0-.15.05-.25.15-.33l-.08-.1.08.1c.1-.07.27-.12.52-.12.2 0 .38.04.53.13.15.08.29.2.4.38l.11-.07Zm.22.82-.1-.1c-.33.3-.74.46-1.24.46-.46 0-.81-.1-1.07-.31a1 1 0 0 1-.39-.84c0-.4.13-.7.4-.93a1.7 1.7 0 0 1 1.14-.35c.6 0 1.07.2 1.44.58.36.4.55.88.55 1.48 0 .64-.17 1.1-.5 1.4-.32.31-.8.48-1.47.48-.44 0-.96-.1-1.54-.3l-.04.12.12.05.33-.8-.12-.05-.06.12c.42.18.84.28 1.26.27.48 0 .85-.09 1.09-.32.22-.22.33-.56.33-.96v-.3l-.22.2.09.1h-.14c0 .36-.09.61-.25.77-.15.15-.45.25-.9.25a2.8 2.8 0 0 1-1.15-.26l-.12-.05-.39.93-.05.13.13.04c.6.22 1.15.32 1.64.32.7 0 1.26-.17 1.65-.54.39-.37.58-.91.58-1.6 0-.66-.21-1.22-.63-1.66a2.15 2.15 0 0 0-1.63-.67c-.53 0-.97.14-1.3.42-.34.28-.5.67-.5 1.13 0 .43.16.8.48 1.05.32.25.74.37 1.24.37.56 0 1.04-.18 1.43-.54l-.1-.1Zm-1.41 6.43-.12-.07a2 2 0 0 1-.68.74c-.27.16-.63.25-1.1.25-.58 0-1.01-.2-1.36-.63a2.7 2.7 0 0 1-.53-1.76 3.36 3.36 0 0 1 1.95-3.21 5.75 5.75 0 0 1 5.34.46l.07-.11-.11-.08-.6.83.1.08.08-.11a4.8 4.8 0 0 0-2.74-.85c-1.02 0-1.84.25-2.44.78a2.8 2.8 0 0 0-.9 2.2c0 .53.1.95.31 1.25.22.3.56.45.97.45.4 0 .73-.14.98-.42.25-.28.4-.67.43-1.15l-.13-.01v.13h.96v-.13h-.14c.04.62.25 1.07.66 1.32l.33.2-.14-.36c-.08-.2-.12-.42-.12-.64 0-.43.15-.75.43-1.01s.67-.39 1.17-.39c.48 0 .86.15 1.16.42.3.29.45.63.45 1.06 0 .54-.17.94-.5 1.24-.34.29-.8.44-1.4.44a3.5 3.5 0 0 1-1.39-.24 1.9 1.9 0 0 1-.88-.76l-.12-.18-.11.2.12.06-.12.07c.26.39.6.68 1 .86.42.17.92.26 1.5.26a2.3 2.3 0 0 0 1.58-.51c.4-.35.59-.84.59-1.44 0-.5-.18-.92-.53-1.25a1.9 1.9 0 0 0-1.35-.5c-.55 0-1 .15-1.35.46-.34.3-.51.72-.51 1.21 0 .26.04.5.13.73l.13-.04.06-.12c-.3-.19-.48-.54-.52-1.1v-.13h-1.21l-.01.12c-.04.45-.17.78-.37 1a1 1 0 0 1-.78.33c-.35 0-.58-.1-.75-.33-.16-.23-.26-.6-.26-1.1 0-.87.27-1.53.8-2a3.29 3.29 0 0 1 2.27-.72 4.46 4.46 0 0 1 2.59.81l.1.07.68-.93.09-.12-.12-.08a6.01 6.01 0 0 0-5.59-.47 3.5 3.5 0 0 0-1.56 1.38c-.36.6-.54 1.29-.54 2.07a3 3 0 0 0 .58 1.93c.4.48.93.73 1.56.73.5 0 .93-.1 1.25-.3.31-.19.57-.47.77-.83l-.12-.06Z" fill="#fff"/>
</svg>
