<svg id="artwork" xmlns="http://www.w3.org/2000/svg" version="1.1" viewBox="0 0 239 70.9">
  <defs>
    <style>
      .st1{isolation:isolate}.st5{fill:#fff}
    </style>
  </defs>
  <rect x="-.1" width="239.2" height="70.9" rx="8.9" ry="8.9"/>
  <path class="st5" d="M120.6 39.5c-4.1 0-7.5 3.2-7.5 7.5s3.4 7.6 7.5 7.6 7.6-3.2 7.6-7.6-3.4-7.5-7.6-7.5Zm0 12.1c-2.3 0-4.2-1.9-4.2-4.6s2-4.5 4.2-4.5 4.3 1.8 4.3 4.5-2 4.6-4.3 4.6Zm-16.5-12c-4.2 0-7.6 3-7.6 7.4s3.4 7.6 7.6 7.6 7.6-3.2 7.6-7.6-3.4-7.5-7.6-7.5Zm0 12c-2.3 0-4.3-1.9-4.3-4.6s2-4.5 4.3-4.5 4.3 1.8 4.3 4.5-2 4.6-4.3 4.6Zm-19.6-9.8V45H92a6.6 6.6 0 0 1-1.7 4 7.8 7.8 0 0 1-6 2.4 8.4 8.4 0 0 1-8.3-8.5 8.4 8.4 0 0 1 14.1-6.3l2.3-2.2a12 12 0 0 0-20 8.5 12 12 0 0 0 12 11.7 10.4 10.4 0 0 0 10.9-10.8c0-.7 0-1.4-.2-2H84.5Zm80.3 2.5c-.7-1.7-2.6-4.8-6.5-4.8s-7.1 3-7.1 7.5c0 4.3 3.2 7.6 7.5 7.6 3.4 0 5.4-2.1 6.3-3.4l-2.6-1.7c-.9 1.3-2 2.1-3.7 2.1s-3-.8-3.7-2.3l10.1-4.1-.3-.9Zm-10.3 2.5a4.1 4.1 0 0 1 3.9-4.4c1.3 0 2.4.7 2.8 1.6l-6.7 2.8Zm-8.2 7.3h3.3V32h-3.3v22Zm-5.4-13h-.1a5.2 5.2 0 0 0-4-1.6c-3.8 0-7.3 3.3-7.3 7.6s3.5 7.5 7.3 7.5c1.8 0 3.2-.8 4-1.7v1c0 3-1.5 4.5-4 4.5-2 0-3.2-1.5-3.8-2.7l-2.8 1.2a7 7 0 0 0 6.6 4.4c4 0 7.2-2.2 7.2-7.8V40h-3.1v1.2ZM137 51.7c-2.3 0-4.2-1.9-4.2-4.5s1.9-4.6 4.2-4.6 4 2 4 4.6-1.8 4.5-4 4.5ZM180.3 32h-8v22h3.4v-8.4h4.6c3.7 0 7.2-2.6 7.2-6.8s-3.6-7-7.2-7Zm0 10.6h-4.7V35h4.7c2.5 0 4 2.1 4 3.8s-1.5 3.8-4 3.8Zm20.5-3.1c-2.4 0-4.9 1-6 3.3l3 1.3c.6-1.3 1.8-1.7 3-1.7 1.7 0 3.5 1 3.5 2.9v.2c-.6-.3-1.9-.8-3.5-.8-3.1 0-6.3 1.7-6.3 5 0 3 2.6 4.8 5.5 4.8 2.2 0 3.4-1 4.2-2.1V54h3.3v-8.5c0-4-3-6.1-6.7-6.1Zm-.4 12.1c-1.1 0-2.6-.5-2.6-1.9 0-1.7 1.9-2.3 3.5-2.3 1.4 0 2.1.3 3 .7a4 4 0 0 1-4 3.5ZM219 40l-3.8 9.6-4-9.6h-3.6l6 13.4-3.4 7.4h3.4l9.1-20.8H219Zm-29.7 14h3.4V32h-3.3v22Z"/>
  <path d="m36.6 34.4-18.9 20a5 5 0 0 0 7.6 3l21.2-12.2-10-10.8h.1Z" style="fill:#ea4335"/>
  <path d="m55.7 31-9.2-5.3-10.3 9.2 10.3 10.3 9.2-5.2c1.5-1 2.6-2.6 2.6-4.5s-1-3.6-2.6-4.5Z" style="fill:#fbbc04"/>
  <path d="m17.7 16.4-.1 1.4V53l.1 1.3L37.2 35 17.7 16.4Z" style="fill:#4285f4"/>
  <path d="m36.7 35.4 9.8-9.7-21.2-12.3a5.1 5.1 0 0 0-7.6 3l19 19Z" style="fill:#34a853"/>
  <g class="st1">
    <path class="st5" d="M80 22.1a3 3 0 0 1-1-.1 2 2 0 0 1-.7-.5l-.7-1h.3l-.7 1a2 2 0 0 1-.9.5l-1 .1c-.7 0-1.3-.3-1.8-.9-.5-.5-.7-1.3-.7-2.4 0-.9.2-1.7.6-2.4s1-1.2 1.7-1.6c.8-.4 1.7-.6 2.7-.6s2 .2 2.6.6c.8.4 1.3 1 1.7 1.6s.6 1.5.6 2.4c0 .7-.1 1.3-.4 1.8s-.5.9-.8 1.1-.9.4-1.4.4Zm0-1.2c.4 0 .7-.2 1-.5.3-.3.4-.8.4-1.6A4 4 0 0 0 81 17c-.2-.5-.6-.9-1.1-1.2-.6-.3-1.2-.4-2-.4h-.2a4 4 0 0 0-2 .4c-.5.3-1 .7-1.2 1.2-.3.5-.4 1-.4 1.8 0 .7.1 1.3.4 1.6.2.3.6.5 1 .5s.9-.2 1.1-.5c.3-.3.5-.8.5-1.3h1.2c0 .6.3 1 .6 1.4.3.3.7.4 1 .4Zm-2.7-5.5-.9-.2c-.3-.1-.5-.3-.7-.7-.3-.3-.5-.7-.6-1.3l1.3-.4.4 1.1c.2.2.3.3.6.3.2 0 .4 0 .5-.2l.8-.8.5-.6c.3-.5.7-.8 1-1.1a2 2 0 0 1 1-.6l1-.2.2 1.2c-.4 0-.7 0-1 .2-.2 0-.4.2-.6.4l-.7.8-.4.5-.8.9-.8.5-.8.2Z"/>
    <path class="st5" d="M78.9 15.2h-1a7 7 0 0 1-1-.4l.4-1 .7.3h.8c.5 0 .9 0 1.2-.2.3-.2.4-.5.4-1v-.2c0-.4-.1-.7-.4-1-.3-.3-.7-.4-1.2-.4l-.7.1c-.2.1-.2.3-.2.5s0 .4.2.5l.7.1c.4 0 .7-.1 1-.3l.7-.7.4.8-.5.5-.7.4-1 .2c-.6 0-1-.1-1.4-.3-.4-.3-.6-.6-.6-1.1 0-.4.1-.6.3-.9s.4-.4.8-.5a2 2 0 0 1 1-.3c1 0 1.6.3 2 .8.5.4.7 1 .7 1.8s-.2 1.3-.7 1.7-1 .6-2 .6Zm.5-6.7c.6 0 1.1 0 1.5.3l.8 1-1.2.4a1 1 0 0 0-.4-.5c-.2-.2-.4-.2-.7-.2-.3 0-.6 0-.8.2s-.3.3-.3.6v.4l.3.3-1 .5a2.2 2.2 0 0 1-.4-1.3c0-.6.2-1 .6-1.3s1-.4 1.6-.4Zm11.1 13.6c-.5 0-.9 0-1.2-.2-.4-.2-.7-.4-1-.8L87.1 20l-.6-.7a2 2 0 0 0-.4-.4 1 1 0 0 0-.4-.1c-.3 0-.5.1-.6.3a1 1 0 0 0-.3.7l.2 1c.2.4.3.7.6 1l-1.3.5L84 21c-.2-.4-.2-.8-.2-1.3 0-.4 0-.8.2-1l.8-.9a2 2 0 0 1 1-.3l1 .2.9.6.7 1 .8 1 .7.5.8.1c.6 0 1-.1 1.2-.5.3-.3.5-.8.5-1.4a3.1 3.1 0 0 0-1.4-2.7c-.4-.3-1-.5-1.5-.7l-1.8-.2H87l1.2-1.2c1.2 0 2.1.3 3 .8.8.4 1.4 1 1.8 1.6.4.7.6 1.5.6 2.4 0 .6 0 1.2-.3 1.7s-.6.8-1 1c-.4.3-1 .5-1.7.5ZM87 15.3l-.9-.1c-.3-.1-.5-.3-.7-.7-.3-.3-.5-.7-.6-1.3l1.3-.4.4 1.1c.2.2.3.3.6.3.2 0 .4 0 .6-.2l.7-.8.5-.6 1-1.1a2 2 0 0 1 1-.6l1-.2.2 1.2c-.4 0-.7 0-1 .2a2 2 0 0 0-.6.4l-.7.8-.4.5-.8.9-.8.5-.8.2Z"/>
    <path class="st5" d="M88.6 13.6c0-.4 0-.7.2-.9l.8-.6v.2c-.4-.2-.7-.4-.9-.7s-.2-.5-.2-.9l.1-.7a1.7 1.7 0 0 1 1-.8l.7-.2h5.6v1h-5.4a1 1 0 0 0-.4.1l-.3.3v.7l.3.2.4.1h2.8v1.2h-2.8l-.4.2-.2.6v.3l.2.2.4.2h1.1v1.2H91l-1.3-.2-.8-.6c-.2-.3-.3-.6-.3-1Zm12.8 8.5c-.5 0-.9 0-1.3-.2-.3-.2-.7-.4-1-.8l-1-1.2-.6-.7a2 2 0 0 0-.4-.4 1 1 0 0 0-.5-.1c-.2 0-.4.1-.5.3a1 1 0 0 0-.3.7c0 .4 0 .7.2 1 .1.4.3.7.6 1l-1.3.5-.5-1.2c-.2-.4-.2-.8-.2-1.3 0-.4 0-.8.2-1l.8-.9c.3-.2.6-.3 1-.3l1 .2.8.6.8 1 .8 1 .7.5.8.1c.5 0 1-.1 1.2-.5.3-.3.4-.8.4-1.4a3.1 3.1 0 0 0-1.3-2.7c-.4-.3-1-.5-1.5-.7l-1.8-.2h-.7l1.2-1.2a6.1 6.1 0 0 1 4.8 2.4c.4.7.6 1.5.6 2.4 0 .6 0 1.2-.3 1.7s-.6.8-1 1c-.5.3-1 .5-1.7.5Zm-3.7-6.8-.8-.1c-.3-.1-.5-.3-.8-.7-.2-.3-.4-.7-.5-1.3l1.2-.4c.2.5.3 1 .5 1.1.1.2.3.3.6.3.2 0 .4 0 .5-.2l.8-.8.5-.6c.3-.5.7-.8 1-1.1.2-.3.6-.5.9-.6l1.2-.2V12c-.3 0-.6 0-.8.2a2 2 0 0 0-.7.4l-.7.8-.4.5-.8.9-.8.5-.8.2Z"/>
    <path class="st5" d="M100.7 15.2h-1l-1-.4.4-1 .7.3h1.6c.3-.1.5-.3.6-.5.2-.2.2-.5.2-.9 0-.5-.1-1-.4-1.3-.3-.3-.7-.4-1.2-.4l-.7.1c-.2.2-.3.3-.3.6 0 .2 0 .3.2.4l.4.2h.3c.5 0 .8 0 1-.3.3-.2.6-.4.8-.8l.6.7-.5.6a2.3 2.3 0 0 1-1.8.8c-.4 0-.7 0-1-.2l-.8-.5c-.2-.3-.2-.5-.2-1 0-.4.1-.9.5-1.2.4-.3 1-.5 1.6-.5.5 0 1 .1 1.4.4s.7.6.9 1c.2.4.3.9.3 1.4 0 .9-.2 1.5-.7 2a3 3 0 0 1-2 .5Z"/>
  </g>
  <g class="st1">
    <path class="st5" d="M106.4 22.1c-.8 0-1.4 0-1.9-.3-.4-.1-.8-.4-1-.7s-.3-.8-.3-1.2c0-.7.2-1.2.7-1.6.6-.4 1.3-.5 2.3-.5s2 .2 2.6.6 1.3.9 1.7 1.5l.5 1a4.1 4.1 0 0 1 0 1.8l-.1.7-1.2-.2.2-.6V22c0-.6-.1-1-.4-1.5-.3-.5-.7-.8-1.3-1s-1.2-.5-2-.5c-.6 0-1 .1-1.3.3-.3.2-.5.4-.5.7 0 .2 0 .4.2.6.2.1.4.3.7.3l1 .2a4 4 0 0 0 2-.4 3 3 0 0 0 1.5-1c.3-.2.4-.5.6-.9a3.9 3.9 0 0 0 0-2.4l-.6-.7-.8-.2c-.3 0-.6 0-.8.2l-.5.6c-.2.2-.3.5-.3.8h-1.2c-.1-.5-.3-1-.6-1.2-.2-.3-.6-.4-1-.4s-.7 0-.9.2a1 1 0 0 0-.3.7l.1.5.2.4-1.2.3a3.4 3.4 0 0 1-.3-1.3c0-.4 0-.8.3-1l.8-.8 1.2-.2 1 .1.8.5.6 1h-.3c.3-.5.5-.8.8-1l.8-.5.9-.1c.4 0 .8 0 1 .2l1 .6.6 1 .2 1.5c0 .7-.2 1.3-.4 1.8s-.5 1-1 1.3v.1h-.1l-.1.1a5.7 5.7 0 0 1-4 1.3Zm6.5-3.4c0-.6.1-1.2.4-1.7.3-.5.7-1 1.2-1.2.6-.3 1.1-.5 1.8-.5s1.3.2 1.8.4c.5.3 1 .7 1.2 1.3.3.5.4 1 .4 1.7s-.1 1.2-.4 1.8a3.2 3.2 0 0 1-3 1.6 3.3 3.3 0 0 1-3.4-3.4Zm1.3 0c0 .6.1 1.1.5 1.6s.9.6 1.6.6c.5 0 .9-.1 1.2-.3.3-.2.6-.5.7-.8l.3-1.1c0-.6-.2-1.1-.6-1.6a2 2 0 0 0-1.6-.6c-.5 0-.8.1-1.2.3a2 2 0 0 0-.7.8c-.2.3-.2.7-.2 1Zm13.8 3.4a3 3 0 0 1-1-.1 2 2 0 0 1-.8-.5l-.6-1h.3c-.3.4-.5.8-.8 1-.2.3-.5.4-.8.5l-1 .1c-.7 0-1.3-.3-1.8-.9-.5-.5-.7-1.3-.7-2.4 0-.9.2-1.7.6-2.4s1-1.2 1.7-1.6c.8-.4 1.6-.6 2.7-.6s1.9.2 2.6.6a4.3 4.3 0 0 1 2.2 4c0 .7 0 1.3-.3 1.8-.2.5-.5.9-.9 1.1s-.8.4-1.3.4Zm0-1.2c.4 0 .7-.2 1-.5.2-.3.4-.8.4-1.6a4 4 0 0 0-.4-1.8c-.3-.5-.6-.9-1.2-1.2s-1.1-.4-1.9-.4h-.2a4 4 0 0 0-2 .4c-.5.3-1 .7-1.2 1.2-.3.5-.4 1-.4 1.8 0 .7.1 1.3.4 1.6.2.3.6.5 1 .5s.9-.2 1.1-.5c.3-.3.5-.8.5-1.3h1.2c0 .6.3 1 .6 1.4.3.3.7.4 1 .4Zm-2.7-5.5-.9-.2c-.3-.1-.5-.3-.8-.7-.2-.3-.4-.7-.5-1.3l1.3-.4.4 1.1c.1.2.3.3.6.3.2 0 .4 0 .5-.2l.8-.8.5-.6c.3-.5.7-.8 1-1.1a2.9 2.9 0 0 1 2-.8l.2 1.2c-.4 0-.7 0-1 .2-.2 0-.4.2-.6.4l-.7.8-.4.5-.8.9-.8.5-.8.2Z"/>
    <path class="st5" d="M133 22.1c-.7 0-1.3-.2-1.8-.5-.5-.4-1-.8-1.4-1.4l.6-1 .9 1 .8.5 1 .2c.5 0 1-.2 1.2-.5.3-.4.4-.8.4-1.5s-.1-1-.3-1.5-.6-.9-1-1.2l-1.4-.8.6-1.2 1.7 1c.5.5 1 1 1.2 1.6.3.6.5 1.3.5 2 0 1-.3 1.9-.8 2.4-.5.6-1.2 1-2.2 1Zm9 0c-1 0-2-.2-2.7-.5a4 4 0 0 1-1.6-1.6 4 4 0 0 1-.6-2.2c0-.8.1-1.4.4-2 .3-.5.6-1 1-1.2s1-.4 1.5-.4.8 0 1.1.2l.7.7c.2.3.3.6.3 1l-.3 1.2c-.1.3-.4.5-.8.7a3 3 0 0 1-1.3.3c-.4 0-.7 0-1-.2-.3 0-.5-.2-.7-.4l-.5-.5.3-1 .4.4a2 2 0 0 0 1.4.6c.4 0 .7 0 1-.3.2-.1.3-.4.3-.7s-.1-.5-.3-.7a.9.9 0 0 0-.6-.2c-.5 0-1 .2-1.2.6-.3.4-.5 1-.5 1.6v.3l.3 1.2c.1.3.3.7.6 1 .3.2.7.5 1.2.6a5.1 5.1 0 0 0 4.3-.4c.7-.5 1-1.2 1-2 0-.7-.1-1.2-.5-1.7s-.8-.8-1.6-1.1l.7-1.2c.8.3 1.5.9 2 1.5s.7 1.5.7 2.4c0 .7-.2 1.4-.5 2-.3.6-.9 1.1-1.6 1.5s-1.7.5-2.8.5Z"/>
    <path class="st5" d="M149.8 15.4c-.4 0-.7 0-1-.2a1.8 1.8 0 0 1-1-1 2.2 2.2 0 0 1 0-1.5l.4-.7 1.3-.1a3 3 0 0 0-.5.7l-.2.8c0 .3 0 .5.3.7.1.2.4.3.7.3.4 0 .7-.1.8-.3.2-.2.2-.4.2-.7 0-.4-.1-.7-.4-1a2 2 0 0 0-1-.2h-2c-.5 0-.9.2-1.1.4a2 2 0 0 0-.5 1h-1.2c0-.4-.2-.8-.5-1-.3-.2-.6-.4-1-.4h-.2c-.4 0-.7.1-.9.3a1 1 0 0 0-.3.7c0 .2 0 .3.2.5 0 .1.2.3.4.3l.7.2h.5v1.1h-.5c-.5 0-1 0-1.3-.3a2 2 0 0 1-1-.7l-.2-1.2c0-.6.2-1.1.6-1.5s1-.5 1.8-.5h1l.8.5c.3.2.5.5.6 1l-.2-.2.5-.7.8-.5 1.1-.2h1c.8 0 1.3 0 1.7.2l1 .4.6.7.2 1c0 .7-.2 1.2-.6 1.5s-1 .6-1.6.6Zm.4-6.6c.6 0 1.1 0 1.5.3l.8 1.1-1.2.4-.2-.5c-.1-.2-.2-.2-.4-.2l-.5-.1c-.3 0-.5 0-.7.2l-.3.6.1.5.6.6-1.1.4-.6-.7a2 2 0 0 1-.2-.9c0-.4.1-.7.3-1 .2-.2.4-.4.8-.5l1.1-.2Z"/>
  </g>
  <g class="st1">
    <path class="st5" d="M161.6 22.1c-.5 0-1 0-1.3-.3l-1-.7a19 19 0 0 1-1-1.2l-.8-.9c-.2-.2-.5-.3-.8-.3a1 1 0 0 0-.7.3c-.2.2-.3.5-.3.8 0 .3 0 .6.3.8.2.2.5.4.8.4s.7-.1.9-.4l.6-.9.8 1-.6.7a2.3 2.3 0 0 1-1.8.7c-.5 0-1 0-1.3-.3a2 2 0 0 1-.7-.9c-.2-.4-.2-.7-.2-1.1 0-.5 0-.9.3-1.2.2-.3.4-.6.8-.8.3-.2.7-.2 1-.2l1 .1.9.7.9 1 .7.9.7.5h.8c.5 0 1 0 1.2-.4.3-.4.4-.8.4-1.5s-.1-1-.4-1.5-.5-.9-1-1.2l-1.3-.8.6-1.2 1.7 1c.5.5 1 1 1.2 1.7.3.6.5 1.2.5 2a4 4 0 0 1-.4 1.7c-.2.5-.5.9-1 1.1a3 3 0 0 1-1.6.4Zm-4.5-6.8-.9-.1c-.2-.1-.5-.3-.7-.7-.3-.3-.5-.7-.6-1.3l1.3-.4.4 1.1c.2.2.3.3.6.3.2 0 .4 0 .6-.2l.7-.8.5-.6 1-1.1a2 2 0 0 1 1-.6l1.1-.2V12c-.3 0-.6 0-.8.2-.3 0-.5.2-.7.4l-.7.8-.4.5-.8.9-.8.5-.8.2Z"/>
    <path class="st5" d="M167.3 15.4c-.4 0-.7 0-1-.2a1.8 1.8 0 0 1-1-1 2.2 2.2 0 0 1 0-1.5l.4-.7 1.3-.1a3 3 0 0 0-.5.7l-.2.8c0 .3 0 .5.3.7.1.2.4.3.7.3.4 0 .7-.1.8-.3.2-.2.2-.4.2-.7 0-.4-.1-.7-.4-1a2 2 0 0 0-1-.2h-2c-.5 0-.9.2-1.1.4l-.5 1h-1.2c0-.4-.2-.8-.5-1-.3-.2-.6-.4-1-.4h-.2c-.4 0-.7.1-.9.3-.2.2-.2.4-.2.7v.5c.1.1.3.3.5.3l.7.2h.5v1.1h-.5c-.5 0-1 0-1.3-.3a2 2 0 0 1-.9-.7c-.2-.3-.3-.7-.3-1.2 0-.6.2-1.1.6-1.5s1-.5 1.8-.5h1.1c.3 0 .5.3.7.5.3.2.5.5.6 1l-.2-.2.5-.7.8-.5 1.1-.2h1a9 9 0 0 1 1.7.2c.4 0 .8.2 1 .4l.6.7.2 1a2 2 0 0 1-.6 1.5c-.4.4-1 .6-1.6.6Zm-1.7 3.3c0-.6.1-1.2.4-1.7a3.3 3.3 0 0 1 3-1.7c.6 0 1.2.2 1.8.4.5.3.9.7 1.2 1.3.3.5.4 1 .4 1.7s-.1 1.2-.4 1.8c-.3.5-.7.9-1.2 1.2-.5.3-1.1.4-1.8.4s-1.3-.1-1.8-.4c-.5-.3-1-.7-1.2-1.3a3 3 0 0 1-.4-1.7Zm1.2 0c0 .6.2 1.1.6 1.6.3.4.9.6 1.6.6l1.2-.3.7-.8c.2-.3.2-.7.2-1.1 0-.6-.2-1.1-.5-1.6s-1-.6-1.6-.6a2 2 0 0 0-1.9 1l-.3 1.2Zm13.9 3.4a3 3 0 0 1-1-.1 2 2 0 0 1-.8-.5l-.7-1h.3c-.2.4-.4.8-.7 1a2 2 0 0 1-.9.5l-1 .1c-.7 0-1.3-.3-1.8-.9-.4-.5-.7-1.3-.7-2.4 0-.9.2-1.7.7-2.4s1-1.2 1.7-1.6c.7-.4 1.6-.6 2.6-.6s2 .2 2.7.6a4 4 0 0 1 1.6 1.6c.4.7.6 1.5.6 2.4 0 .7-.1 1.3-.3 1.8-.2.5-.5.9-1 1.1s-.8.4-1.3.4Zm-.1-1.2c.4 0 .8-.2 1-.5.3-.3.4-.8.4-1.6a4 4 0 0 0-.4-1.8c-.2-.5-.6-.9-1.1-1.2a4 4 0 0 0-2-.4h-.2a4 4 0 0 0-2 .4 3 3 0 0 0-1.2 1.2c-.2.5-.4 1-.4 1.8 0 .7.2 1.3.4 1.6.3.3.6.5 1 .5.5 0 .9-.2 1.2-.5.3-.3.4-.8.5-1.3h1.2c0 .6.2 1 .5 1.4.4.3.7.4 1 .4Zm-2.7-5.5-.8-.2c-.3-.1-.6-.3-.8-.7l-.6-1.3 1.3-.4c.2.5.3 1 .5 1.1.1.2.3.3.5.3s.4 0 .6-.2l.8-.8.4-.6 1-1.1a2 2 0 0 1 1-.6l1.1-.2.1 1.2c-.3 0-.6 0-.9.2l-.7.4-.7.8-.3.5-.8.9-.8.5-.9.2Zm6.5 3.3a3.2 3.2 0 0 1 1.6-3c.5-.2 1.1-.4 1.8-.4s1.2.2 1.8.4a3.6 3.6 0 0 1 1.6 3c0 .7-.1 1.2-.4 1.8-.3.5-.7.9-1.2 1.2-.5.3-1.1.4-1.8.4s-1.3-.1-1.8-.4c-.5-.3-1-.7-1.2-1.3a3 3 0 0 1-.4-1.7Zm1.2 0c0 .6.2 1.1.6 1.6s.9.6 1.6.6l1.2-.3.7-.8.2-1.1c0-.6-.2-1.1-.5-1.6s-1-.6-1.6-.6a2 2 0 0 0-1.9 1l-.3 1.2Zm14.6 3.4c-.6 0-1 0-1.5-.2a2.6 2.6 0 0 1-1.6-1.3h.2l-.7 1a2 2 0 0 1-.8.4l-1 .1c-.8 0-1.4-.3-1.8-.8-.5-.6-.7-1.4-.7-2.4s.2-1.8.6-2.5c.5-.7 1-1.3 1.9-1.6s1.8-.6 2.9-.6a7.3 7.3 0 0 1 4 1.2l-.8 1a7.2 7.2 0 0 0-2-1 6 6 0 0 0-1.3 0c-.9 0-1.6 0-2.2.3A3 3 0 0 0 194 17c-.3.5-.4 1.1-.4 1.9s0 1.2.3 1.5.6.5 1 .5c.6 0 1-.2 1.2-.5.3-.4.5-.8.5-1.4h1.2c0 .4.1.8.3 1.1.2.3.4.5.8.6l.6.2h.8c.4 0 .7 0 .9-.2.2-.2.3-.4.3-.8s0-.5-.3-.7l-.7-.2c-.3 0-.5 0-.7.2-.2.2-.3.4-.3.8l.1.7.4.5-1 .2-.4-.8c-.2-.2-.2-.5-.2-.9 0-.5.2-1 .6-1.4s.9-.5 1.5-.5c.5 0 .9.1 1.2.3l.8.7c.2.3.3.6.3 1l-.2 1a2 2 0 0 1-.6.8l-.8.4-1 .1Zm-3.1-6.8-1-.1-.7-.7-.6-1.3 1.3-.4c.2.5.3 1 .5 1.1.1.2.3.3.5.3.3 0 .4 0 .6-.2l.8-.8.5-.6c.3-.5.6-.8 1-1.1.2-.3.6-.5.9-.6l1.2-.2V12c-.3 0-.6 0-.8.2-.3 0-.5.2-.7.4l-.7.8-.4.5-.8.9-.8.5-.9.2Z"/>
    <path class="st5" d="M198.9 15.2h-1l-1-.4.4-1 .7.3h1.6c.3 0 .5-.3.6-.5.2-.2.2-.5.2-.9 0-.5-.1-1-.4-1.3-.3-.3-.7-.4-1.2-.4l-.7.1c-.2.2-.3.3-.3.6 0 .2 0 .3.2.4l.4.2h.3c.5 0 .8 0 1-.3.3-.2.6-.4.8-.8l.6.7-.5.6a2.3 2.3 0 0 1-1.8.8c-.4 0-.7 0-1-.2l-.8-.5c-.2-.2-.3-.5-.3-1 0-.4.2-.9.6-1.2s.9-.5 1.5-.5 1 .1 1.5.4.7.6.9 1c.2.4.3.9.3 1.4 0 .9-.2 1.5-.7 2a3 3 0 0 1-2 .5Z"/>
  </g>
  <g class="st1">
    <path class="st5" d="M206.8 16c0-.5 0-.7.3-.9.2-.2.4-.2.6-.2l.7.2c.2.2.3.4.3.8s0 .7-.3.8c-.2.2-.4.3-.7.3s-.4 0-.6-.3c-.2-.1-.3-.4-.3-.8Zm0 5c0-.3 0-.6.3-.7l.6-.3c.2 0 .5 0 .7.3.2.1.3.4.3.7s0 .7-.3.9l-.7.2c-.3 0-.4 0-.6-.2-.2-.2-.3-.5-.3-.8Z"/>
  </g>
</svg>
