<svg width="180" height="54" fill="none" xmlns="http://www.w3.org/2000/svg">
  <path d="M173.33 54H6.67A6.73 6.73 0 0 1 0 47.25V6.75C0 3.04 3 0 6.67 0h166.66A6.73 6.73 0 0 1 180 6.75v40.5c0 3.71-3 6.75-6.67 6.75Z" fill="#000"/>
  <path d="m27.63 26.22-14.2 15.26a3.84 3.84 0 0 0 5.65 2.35l.05-.03 15.97-9.33-7.48-8.25Z" fill="#EA4335"/>
  <path d="m41.98 23.63-.01-.02-6.9-4.05-7.77 7 7.8 7.9 6.86-4a3.89 3.89 0 0 0 2.02-3.43c0-1.47-.8-2.75-2-3.4Z" fill="#FBBC04"/>
  <path d="M13.43 12.52a3.7 3.7 0 0 0-.13 1v26.96c0 .35.04.68.13 1L28.1 26.62l-14.68-14.1Z" fill="#4285F4"/>
  <path d="m27.73 27 7.34-7.44-15.96-9.37a3.85 3.85 0 0 0-5.69 2.33L27.73 27Z" fill="#34A853"/>
  <path d="M142.58 40h2.49V23.33h-2.49V40ZM165 29.34l-2.85 7.22h-.09l-2.96-7.22h-2.68l4.44 10.1-2.53 5.61h2.6l6.84-15.71H165Zm-14.1 8.77c-.82 0-1.96-.41-1.96-1.42 0-1.29 1.41-1.78 2.64-1.78 1.1 0 1.6.24 2.27.56a3.02 3.02 0 0 1-2.96 2.64Zm.3-9.14c-1.81 0-3.68.8-4.45 2.55l2.21.93c.47-.93 1.35-1.23 2.27-1.23 1.3 0 2.6.78 2.62 2.15v.17a5.5 5.5 0 0 0-2.6-.64c-2.38 0-4.8 1.3-4.8 3.75 0 2.23 1.95 3.67 4.14 3.67a3.5 3.5 0 0 0 3.17-1.63h.09v1.28h2.4v-6.39c0-2.96-2.2-4.6-5.06-4.6Zm-15.38 2.4h-3.54v-5.72h3.53a2.89 2.89 0 0 1 2.92 2.86 2.9 2.9 0 0 1-2.91 2.86Zm-.07-8.04h-5.96V40h2.49v-6.31h3.47c2.76 0 5.47-2 5.47-5.18 0-3.18-2.71-5.18-5.47-5.18Zm-32.5 14.78c-1.72 0-3.16-1.44-3.16-3.42 0-2 1.44-3.45 3.15-3.45 1.7 0 3.03 1.46 3.03 3.45 0 1.98-1.33 3.42-3.03 3.42Zm2.85-7.84h-.1a3.93 3.93 0 0 0-2.98-1.27 5.64 5.64 0 0 0-5.44 5.7c0 3.17 2.6 5.64 5.44 5.64 1.35 0 2.43-.6 2.98-1.28h.09v.81c0 2.17-1.16 3.33-3.03 3.33a3.14 3.14 0 0 1-2.86-2.02l-2.17.9a5.4 5.4 0 0 0 5.03 3.36c2.92 0 5.4-1.72 5.4-5.91V29.35h-2.37v.92Zm4.08 9.73h2.5V23.33h-2.5V40Zm6.17-5.5a3.11 3.11 0 0 1 2.96-3.3c.99 0 1.83.49 2.1 1.2l-5.06 2.1Zm7.73-1.89c-.47-1.27-1.91-3.6-4.85-3.6-2.93 0-5.35 2.3-5.35 5.66 0 3.18 2.4 5.67 5.62 5.67 2.6 0 4.1-1.59 4.73-2.5l-1.93-1.3a3.24 3.24 0 0 1-2.8 1.57 2.89 2.89 0 0 1-2.75-1.72l7.59-3.13-.26-.65Zm-60.41-1.87v2.4h5.76a5.02 5.02 0 0 1-1.32 3.04 5.9 5.9 0 0 1-4.44 1.76 6.32 6.32 0 0 1-6.32-6.4A6.32 6.32 0 0 1 68 26.85l1.7-1.7a8.4 8.4 0 0 0-6.04-2.42 8.93 8.93 0 0 0-8.94 8.8 8.93 8.93 0 0 0 8.94 8.81c2.62 0 4.6-.86 6.14-2.47 1.6-1.59 2.09-3.82 2.09-5.62a7.8 7.8 0 0 0-.13-1.5h-8.1Zm14.77 7.37c-1.72 0-3.2-1.42-3.2-3.44 0-2.04 1.48-3.43 3.2-3.43 1.72 0 3.2 1.4 3.2 3.43 0 2.02-1.48 3.44-3.2 3.44Zm0-9.1a5.59 5.59 0 0 0-5.7 5.66 5.6 5.6 0 0 0 5.7 5.67 5.6 5.6 0 0 0 5.7-5.67 5.59 5.59 0 0 0-5.7-5.67Zm12.42 9.1c-1.72 0-3.2-1.42-3.2-3.44 0-2.04 1.48-3.43 3.2-3.43 1.72 0 3.2 1.4 3.2 3.43 0 2.02-1.48 3.44-3.2 3.44Zm0-9.1a5.59 5.59 0 0 0-5.7 5.66 5.6 5.6 0 0 0 5.7 5.67 5.6 5.6 0 0 0 5.69-5.67 5.59 5.59 0 0 0-5.7-5.67ZM58.76 13.9a.54.54 0 0 0-.16-.41.6.6 0 0 0-.43-.15c-.16 0-.3.05-.4.15-.12.1-.17.24-.17.42 0 .17.05.3.16.4.11.1.25.16.41.16.18 0 .32-.05.43-.16.1-.1.16-.23.16-.4Zm-.73 1.15c-.34-.03-.6-.14-.79-.34-.19-.2-.28-.47-.28-.8 0-.36.1-.65.32-.85.21-.2.52-.3.9-.3.4 0 .71.1.92.33.21.21.32.53.32.94a2.1 2.1 0 0 1-.3 1.09c-.1.15-.2.3-.34.43a6.72 6.72 0 0 1-.92.82 39.1 39.1 0 0 1-.96.7c-.14.1-.23.2-.3.26h-1.05v-.71a8.8 8.8 0 0 0-.38-2.61 6.56 6.56 0 0 1-.13-1.07 2.35 2.35 0 0 1 .84-1.83c.28-.21.61-.38 1-.5.4-.12.83-.18 1.33-.18.56 0 1.04.06 1.43.2a2.2 2.2 0 0 1 1.51 1.42c.11.34.17.7.17 1.1v4.18H60.3v-4.12c0-.3-.04-.57-.13-.82a1.6 1.6 0 0 0-1.04-1.01 3.23 3.23 0 0 0-1.83-.02c-.26.08-.5.2-.68.34-.19.14-.33.32-.43.52-.1.21-.15.44-.15.7 0 .28.02.54.06.8l.16.78.16.88c.06.31.1.66.12 1.05.1-.1.22-.2.38-.31a15.79 15.79 0 0 0 .9-.73.7.7 0 0 0 .2-.34Z" fill="#fff"/>
  <path d="M58.76 13.9h.13c0-.2-.06-.38-.2-.5a.74.74 0 0 0-.52-.2.76.76 0 0 0-.5.19.67.67 0 0 0-.2.52c0 .2.07.37.2.5s.31.2.5.19a.7.7 0 0 0 .52-.2c.13-.12.2-.3.2-.5h-.27a.4.4 0 0 1-.12.32.46.46 0 0 1-.33.11.44.44 0 0 1-.32-.11.4.4 0 0 1-.12-.31c0-.16.05-.25.12-.32a.45.45 0 0 1 .32-.12c.16 0 .26.04.34.12.07.07.11.16.11.32h.14Zm-.73 1.15.01-.13a1.03 1.03 0 0 1-.7-.3 1 1 0 0 1-.24-.71 1 1 0 0 1 .27-.75c.19-.18.45-.27.81-.27.38 0 .65.1.83.29.18.18.28.46.28.85a1.94 1.94 0 0 1-.6 1.43 6.62 6.62 0 0 1-.9.8 44.41 44.41 0 0 1-.97.7l-.32.28.1.1v-.14h-.92v-.58a9.13 9.13 0 0 0-.13-1.58 8.85 8.85 0 0 0-.25-1.06 4.05 4.05 0 0 1-.13-1.04 2.08 2.08 0 0 1 .8-1.72c.26-.2.57-.37.95-.49.38-.11.8-.17 1.29-.17.55 0 1.01.07 1.39.2.38.12.68.3.91.53.24.22.4.49.51.8.1.32.16.67.16 1.05v4.06h-.74v-3.99c0-.31-.05-.6-.14-.86a1.73 1.73 0 0 0-1.13-1.1 3.36 3.36 0 0 0-1.9-.02c-.29.09-.53.2-.73.36a1.6 1.6 0 0 0-.63 1.33c0 .28.02.56.06.82l.16.8.16.86c.06.3.1.65.12 1.04l.02.3.2-.22.37-.3.47-.36c.16-.13.3-.25.43-.38a.83.83 0 0 0 .26-.4l.03-.15-.15-.01-.01.13-.13-.03-.18.27a15.48 15.48 0 0 1-.88.72c-.17.12-.3.23-.4.33l.1.09h.13a9.6 9.6 0 0 0-.28-1.96l-.15-.78c-.04-.24-.07-.5-.07-.77 0-.24.05-.45.14-.64.1-.19.22-.34.4-.48.16-.13.38-.24.63-.31a3.08 3.08 0 0 1 1.74.02 1.47 1.47 0 0 1 .96.93c.09.22.13.48.13.77v4.26h1.28v-4.33c0-.4-.06-.78-.18-1.13a2.26 2.26 0 0 0-.57-.92c-.27-.25-.6-.45-1.01-.59-.42-.14-.9-.2-1.48-.2-.5 0-.96.05-1.37.18-.4.12-.75.3-1.04.53a2.36 2.36 0 0 0-.9 1.93 4.27 4.27 0 0 0 .14 1.1l.13.5a8.3 8.3 0 0 1 .24 2.08v.85h1.25l.04-.05c.05-.06.15-.14.28-.24a48.1 48.1 0 0 1 .96-.7 7.02 7.02 0 0 0 .94-.84c.14-.14.26-.3.35-.45a2.2 2.2 0 0 0 .32-1.16c0-.43-.1-.79-.35-1.04a1.35 1.35 0 0 0-1.02-.37c-.4 0-.75.11-.99.34-.24.23-.36.56-.36.95 0 .36.1.66.31.9.21.22.51.34.88.37v-.13Zm8.61 2.28h-1.01v-4.39c0-.25-.03-.48-.1-.69-.06-.2-.15-.38-.27-.53a1.22 1.22 0 0 0-.46-.34c-.2-.08-.4-.12-.66-.12-.35 0-.7.07-1.04.2a5.1 5.1 0 0 0-1 .54l-.46-.74c.34-.25.71-.45 1.12-.6a3.84 3.84 0 0 1 2.44-.06c.31.12.57.28.79.5.2.22.37.48.48.79.11.3.17.66.17 1.04v4.4Z" fill="#fff"/>
  <path d="M66.64 17.33v-.13h-.88v-4.26c0-.26-.03-.5-.1-.72a1.6 1.6 0 0 0-.3-.58c-.13-.17-.3-.3-.51-.38a1.6 1.6 0 0 0-.71-.14c-.37 0-.73.08-1.1.22-.35.14-.7.32-1.02.56l.08.1.11-.07-.46-.74-.11.07.08.11c.33-.24.7-.44 1.1-.59a3.72 3.72 0 0 1 2.33-.05 2 2 0 0 1 .74.46c.2.2.35.45.46.74.1.3.15.63.15 1v4.4h.27v-4.4c0-.4-.06-.76-.17-1.09a2.26 2.26 0 0 0-1.35-1.36 3.98 3.98 0 0 0-2.53.06c-.42.15-.81.36-1.16.62l-.1.07.53.84.07.13.12-.09c.3-.22.63-.4.96-.52.34-.13.67-.2 1-.2.24 0 .44.04.6.11.17.07.3.17.42.3.1.14.19.3.25.5.05.18.08.4.08.64v4.53h1.28v-.14h-.13Zm3.55-1.03c0 .17.05.31.16.42.1.1.25.15.42.15.17 0 .3-.05.41-.15.11-.1.17-.25.17-.42 0-.17-.06-.3-.17-.4a.58.58 0 0 0-.4-.16.6.6 0 0 0-.43.15c-.1.1-.16.24-.16.4Zm-.65 0c0-.37.1-.65.3-.85.2-.2.49-.3.84-.3h.18l.12.02V13c0-.25-.03-.48-.09-.7a1.6 1.6 0 0 0-.27-.55 1.25 1.25 0 0 0-.46-.36c-.2-.09-.41-.13-.66-.13-.35 0-.7.06-1.04.18-.34.13-.67.3-.98.53l-.48-.7a4.2 4.2 0 0 1 1.12-.61 3.83 3.83 0 0 1 2.44-.06c.31.12.57.28.79.5.2.22.37.48.48.79.11.3.17.66.17 1.04v3.37c0 .36-.11.64-.32.84-.22.2-.52.3-.92.3-.39 0-.69-.1-.9-.3a1.1 1.1 0 0 1-.32-.84Z" fill="#fff"/>
  <path d="M70.19 16.3h-.13c0 .2.06.38.2.51.13.13.31.2.51.2a.7.7 0 0 0 .5-.2.64.64 0 0 0 .2-.51.6.6 0 0 0-.2-.5.71.71 0 0 0-.5-.19.7.7 0 0 0-.51.19c-.14.12-.2.3-.2.5h.26c0-.14.04-.23.12-.3.08-.08.18-.12.33-.12.14 0 .24.04.32.11a.4.4 0 0 1 .12.3c0 .16-.04.25-.12.33a.44.44 0 0 1-.32.12c-.15 0-.25-.04-.33-.12-.08-.08-.12-.17-.12-.32h-.13Zm-.65 0h.13c0-.34.1-.59.27-.76.17-.17.41-.26.74-.26v-.13.13h.17l.12.02.15.02V13c0-.26-.03-.5-.1-.73a1.72 1.72 0 0 0-.3-.6 1.3 1.3 0 0 0-.5-.4 1.7 1.7 0 0 0-.72-.15 3.85 3.85 0 0 0-2.1.74l.08.1.1-.07-.47-.7-.11.07.08.11c.33-.24.7-.44 1.1-.59a3.73 3.73 0 0 1 2.33-.05 2 2 0 0 1 .74.46c.2.2.35.45.46.74.1.3.15.63.15 1v3.37a1 1 0 0 1-.27.74c-.19.18-.45.27-.83.27-.37 0-.63-.1-.81-.27-.18-.17-.28-.4-.28-.74h-.26c0 .38.11.7.36.94.24.23.58.34 1 .34.41 0 .75-.11 1-.34.24-.23.36-.56.36-.94v-3.37c0-.4-.06-.76-.17-1.09a2.26 2.26 0 0 0-1.35-1.36 3.98 3.98 0 0 0-2.53.06c-.42.15-.81.36-1.16.62l-.1.07.63.93.1-.08c.31-.22.63-.4.96-.51.33-.12.66-.18.99-.18.24 0 .43.04.6.12.17.08.3.18.41.32.12.14.2.31.26.51.05.2.08.42.08.66v2.17h.13l.02-.13-.12-.02h-.19c-.39 0-.71.1-.94.33-.23.23-.35.56-.34.95h.13Zm9.75 0a.6.6 0 0 0-.2-.47c-.14-.12-.35-.2-.65-.25v.68c0 .18.03.32.09.41.06.1.17.15.32.15.13 0 .23-.05.32-.13a.6.6 0 0 0 .12-.4Zm-5.84-4.66c0 .16.05.3.15.4.1.1.25.16.43.16.17 0 .3-.05.41-.16.1-.1.16-.24.16-.4a.54.54 0 0 0-.16-.42.58.58 0 0 0-.4-.15.6.6 0 0 0-.44.15c-.1.1-.15.24-.15.42Zm4.99-1.09v4.41c.28.03.52.09.72.17.2.08.35.18.48.3.12.11.21.24.27.4.05.14.08.3.08.47 0 .36-.1.64-.32.84-.22.2-.54.3-.98.3a1.8 1.8 0 0 1-.6-.09.9.9 0 0 1-.6-.69 2.43 2.43 0 0 1-.06-.6v-.4c-.2.03-.4.1-.61.21a3.53 3.53 0 0 0-1.14.89c-.17.18-.31.37-.43.57h-1.01v-4.57l-.13.02h-.17c-.36 0-.64-.1-.84-.3-.2-.2-.3-.48-.3-.84 0-.37.1-.65.32-.85.21-.2.51-.3.9-.3.4 0 .7.1.91.3.21.2.32.49.32.85v4.5a3 3 0 0 1 .44-.43 3.42 3.42 0 0 1 1.13-.57c.2-.07.4-.12.6-.14v-4.45h1.02Z" fill="#fff"/>
  <path d="M79.29 16.3h.13a.74.74 0 0 0-.24-.57c-.17-.15-.4-.23-.72-.28l-.15-.02v.83c0 .2.03.36.1.49.1.14.26.2.44.2.16 0 .3-.06.41-.17a.68.68 0 0 0 .16-.48h-.26c0 .15-.04.24-.1.3l-.21.08c-.13 0-.18-.03-.2-.08a.65.65 0 0 1-.08-.34v-.68h-.13l-.02.13c.28.04.47.12.58.22.1.1.15.21.16.37h.13Zm-5.84-4.66h-.14c0 .2.07.37.2.5s.32.2.52.19a.67.67 0 0 0 .7-.7c0-.2-.06-.38-.2-.5a.72.72 0 0 0-.5-.2c-.2 0-.39.07-.52.2a.69.69 0 0 0-.2.5h.27c0-.15.04-.24.12-.31.07-.08.18-.12.33-.12.14 0 .24.04.32.12.08.07.12.17.12.32a.4.4 0 0 1-.12.3.44.44 0 0 1-.32.12c-.15 0-.26-.04-.33-.11a.4.4 0 0 1-.12-.31h-.13Zm4.99-1.09h-.13v4.53l.12.01c.27.03.5.09.68.16.18.08.33.17.44.27.1.1.19.22.23.35.05.13.08.27.08.43 0 .33-.1.57-.28.74-.18.17-.47.27-.89.27-.22 0-.4-.03-.55-.08a.77.77 0 0 1-.33-.22.9.9 0 0 1-.19-.38 2.32 2.32 0 0 1-.06-.57v-.57l-.16.03c-.21.05-.43.12-.64.23a4.62 4.62 0 0 0-1.62 1.51l.1.07v-.13h-.87v-4.6l-.27.04h-.16v.14-.13c-.33 0-.57-.1-.74-.26-.18-.17-.27-.41-.27-.75s.1-.58.28-.75c.18-.18.44-.27.8-.27.39 0 .65.1.83.27.18.17.27.4.27.75v4.89l.24-.3a3.19 3.19 0 0 1 1.5-.97c.2-.06.4-.1.6-.13l.11-.02V10.7h.88v-.27H77.3V15h.13l-.02-.14a3.81 3.81 0 0 0-2.27 1.2l.1.09h.14v-4.51c0-.39-.11-.71-.35-.95a1.4 1.4 0 0 0-1.01-.34c-.41 0-.75.11-1 .34-.24.23-.36.56-.36.95 0 .38.11.71.35.94.23.23.55.33.93.33h.18l.14-.02-.02-.13h-.14v4.7h1.22l.04-.06a4.31 4.31 0 0 1 1.51-1.4c.2-.1.4-.17.58-.2l-.02-.14h-.13v.41c0 .24.02.45.07.64a1.04 1.04 0 0 0 .69.78c.18.07.39.1.63.1.46 0 .82-.11 1.07-.34.25-.23.37-.56.37-.94 0-.19-.03-.36-.1-.53a1.18 1.18 0 0 0-.3-.44 1.7 1.7 0 0 0-.52-.32 2.85 2.85 0 0 0-.75-.18l-.02.13h.13v-4.54h-.13v.13Zm-2.7-4.88c0 .15.05.28.14.37.1.09.22.13.38.13a.5.5 0 0 0 .36-.13c.1-.1.14-.22.14-.37a.48.48 0 0 0-.5-.5.52.52 0 0 0-.38.13.48.48 0 0 0-.14.37Zm1.63.07a.9.9 0 0 1-.29.7c-.2.18-.47.27-.82.27s-.62-.1-.83-.28a.98.98 0 0 1-.3-.76c0-.17.03-.33.1-.46a.86.86 0 0 1 .3-.34c.14-.1.33-.18.56-.24.23-.06.52-.1.85-.13.45-.04.81-.08 1.1-.14.27-.05.49-.1.65-.18a.76.76 0 0 0 .33-.26c.07-.1.11-.21.13-.35h.89c-.04.22-.09.4-.16.57a.94.94 0 0 1-.31.4c-.14.11-.31.2-.53.26-.21.07-.48.12-.81.15a17.8 17.8 0 0 0-.8.09l-.2.03-.12.03.17.23c.06.1.1.24.1.41Z" fill="#fff"/>
  <path d="M75.74 5.67h-.13c0 .18.05.35.18.47a.7.7 0 0 0 .47.17c.17 0 .33-.06.45-.17a.62.62 0 0 0 .19-.47.61.61 0 0 0-.64-.63.65.65 0 0 0-.47.17.61.61 0 0 0-.18.46h.26c0-.13.04-.2.1-.27a.4.4 0 0 1 .29-.1l.27.1c.06.07.1.14.1.27s-.04.2-.1.27l-.27.1c-.13 0-.22-.03-.29-.1a.35.35 0 0 1-.1-.27h-.13Zm1.63.07h-.13c0 .26-.08.45-.25.6-.17.15-.4.24-.73.24-.33 0-.56-.09-.74-.25a.84.84 0 0 1-.26-.66c0-.16.03-.3.08-.4.06-.11.14-.2.26-.3.13-.08.3-.15.52-.2.22-.07.5-.1.84-.14.44-.04.8-.08 1.1-.13a3 3 0 0 0 .68-.2c.18-.08.3-.18.4-.3.07-.12.12-.26.14-.4l-.13-.03v.14h.89v-.14l-.13-.02c-.04.2-.09.39-.15.54a.9.9 0 0 1-.27.35c-.12.1-.28.17-.49.24a5 5 0 0 1-.79.14l.02.13-.01-.13a23.7 23.7 0 0 0-.81.08l-.2.04h-.01l-.13.03-.19.06.3.39.1-.09-.11.07c.04.07.07.19.07.34h.26a.94.94 0 0 0-.1-.47v-.01l-.19-.24-.1.08.03.13.11-.03.2-.03-.02-.13.02.13a7.96 7.96 0 0 1 .79-.09c.33-.03.61-.08.84-.15.23-.07.42-.16.57-.28.16-.13.27-.28.35-.46.08-.17.13-.37.17-.6l.03-.15h-1.16l-.02.11-.11.3a.63.63 0 0 1-.28.2 2.7 2.7 0 0 1-.62.18c-.28.05-.63.1-1.08.14a5.4 5.4 0 0 0-.87.13 1.9 1.9 0 0 0-.6.26 1 1 0 0 0-.36.4c-.07.15-.1.32-.1.51 0 .35.11.65.34.86.24.21.55.31.92.31s.68-.1.9-.3c.23-.2.35-.48.34-.8h-.13Zm7.58 10.56a.54.54 0 0 0-.15-.41.6.6 0 0 0-.43-.15c-.17 0-.3.05-.41.15-.1.1-.16.23-.16.4 0 .18.05.32.16.42.1.1.24.15.4.15.19 0 .33-.05.44-.15.1-.1.15-.24.15-.42Zm-1.8-7.2c0-.47-.12-.83-.38-1.09-.25-.25-.65-.37-1.19-.37h-.88c0-.52.04-.94.12-1.28.09-.33.22-.6.4-.8.2-.2.44-.33.74-.41.3-.08.67-.12 1.11-.12H86v.8h-3.02a2 2 0 0 0-.49.06c-.15.05-.29.1-.4.2a.9.9 0 0 0-.37.75h.07c.42 0 .79.04 1.09.12.3.08.55.22.74.4.18.2.32.43.41.73.09.3.13.67.13 1.1v5.98l.13-.02h.17c.36 0 .64.1.84.3.2.2.3.48.3.84s-.1.64-.32.85c-.21.2-.51.3-.9.3-.4 0-.7-.1-.91-.3-.21-.2-.32-.49-.32-.85V9.11Z" fill="#fff"/>
  <path d="M84.95 16.3h.14c0-.2-.07-.38-.2-.5a.73.73 0 0 0-.52-.2c-.2 0-.37.07-.5.19-.14.13-.2.3-.2.5s.06.39.2.52c.13.12.3.19.5.19s.39-.06.52-.2a.7.7 0 0 0 .2-.5h-.27c0 .14-.04.24-.12.31-.07.08-.18.12-.33.12a.44.44 0 0 1-.32-.12c-.08-.07-.12-.17-.12-.32 0-.14.04-.23.12-.3a.45.45 0 0 1 .32-.12c.15 0 .26.04.33.11a.4.4 0 0 1 .12.31h.13Zm-1.8-7.2h.13c0-.5-.13-.9-.41-1.18-.3-.29-.73-.42-1.29-.42h-.88v.14h.13c0-.5.05-.92.12-1.24.08-.32.2-.57.38-.75.16-.17.38-.3.66-.37.29-.08.65-.12 1.08-.12h2.8v.54h-2.89a2 2 0 0 0-.52.07c-.17.04-.32.11-.45.2-.13.1-.23.22-.3.36l.11.06-.11-.06c-.08.15-.12.32-.12.5v.14h.2c.42 0 .77.04 1.05.12.29.08.51.2.68.37.17.17.3.39.38.67.09.28.13.64.13 1.06v6.13l.27-.03.16-.01v-.13.13c.33 0 .57.1.74.26.18.17.27.4.27.75 0 .34-.1.58-.28.75-.18.17-.44.27-.81.27-.38 0-.64-.1-.82-.27-.18-.17-.27-.41-.28-.75V9.11h-.26v7.18c0 .39.11.71.36.94.24.24.58.35 1 .34.41 0 .75-.1 1-.34.24-.23.36-.55.36-.94 0-.39-.11-.71-.35-.94a1.29 1.29 0 0 0-.93-.34l-.18.01-.14.02.02.13h.14V9.2c0-.44-.05-.82-.14-1.13a1.9 1.9 0 0 0-.45-.8c-.2-.2-.48-.34-.8-.43a4.1 4.1 0 0 0-1.12-.13h-.07v.14h.14a.8.8 0 0 1 .08-.38l.23-.27c.1-.07.22-.13.36-.17.14-.04.3-.06.45-.06h3.15V4.9h-3.06c-.45 0-.83.04-1.14.12-.33.08-.6.23-.8.45a2 2 0 0 0-.44.86 6 6 0 0 0-.12 1.3v.14h1.01c.52 0 .88.12 1.1.34.22.22.34.54.34 1h.13Z" fill="#fff"/>
  <path d="M91.58 11.6a.51.51 0 0 0-.12-.36.45.45 0 0 0-.34-.13c-.16 0-.27.04-.35.13a.51.51 0 0 0-.11.35l.04.2.12.19.16.15.19.13.28-.27a.6.6 0 0 0 .13-.39Zm-5.2.04c0 .16.05.3.15.4.1.1.25.16.43.16.17 0 .3-.05.41-.16.1-.1.16-.24.16-.4a.54.54 0 0 0-.16-.42.58.58 0 0 0-.4-.15.59.59 0 0 0-.44.15c-.1.1-.15.24-.15.42Zm5.98 5.7h-1.01v-3.02c0-.3-.03-.53-.08-.73-.05-.19-.11-.31-.18-.37-.29.25-.57.51-.86.8a8.9 8.9 0 0 0-1.52 2.02c-.22.4-.4.82-.53 1.3h-1.01v-4.58l-.13.02h-.17c-.36 0-.64-.1-.84-.3-.2-.2-.3-.48-.3-.84 0-.37.1-.65.32-.85.2-.2.51-.3.9-.3.4 0 .7.1.91.3.21.2.32.49.32.85v3.84c.12-.25.28-.5.46-.76a7.94 7.94 0 0 1 1.3-1.4c.23-.2.45-.39.67-.54l-.27-.23-.23-.27-.16-.32a1.23 1.23 0 0 1 .03-.84.96.96 0 0 1 .63-.56c.15-.05.32-.07.5-.07.19 0 .35.02.5.07a.95.95 0 0 1 .65.55c.07.13.1.3.1.47a1 1 0 0 1-.17.6c-.11.18-.26.34-.45.5a2 2 0 0 1 .32.36c.08.12.14.25.19.38.04.14.07.28.09.43l.02.47v3.01Z" fill="#fff"/>
  <path d="M91.58 11.6h.13a.64.64 0 0 0-.16-.46.58.58 0 0 0-.43-.17.56.56 0 0 0-.45.18.65.65 0 0 0-.14.44v.01l.04.22v.03l.13.2.01.02.18.16.2.14.1.06.35-.34h.01v-.01c.11-.13.16-.3.16-.48h-.26c0 .13-.04.23-.1.3l.1.1-.09-.1-.2.19-.1-.06-.14-.14-.1-.14-.03-.19-.13.03h.13c0-.12.03-.2.08-.26s.12-.09.25-.09l.24.09c.05.05.09.14.09.27h.13Zm-5.2.04h-.14c0 .2.07.37.2.5s.32.2.52.19a.67.67 0 0 0 .7-.7c0-.2-.06-.38-.2-.5a.72.72 0 0 0-.5-.2c-.2 0-.39.07-.52.2a.68.68 0 0 0-.2.5h.27c0-.15.04-.24.12-.31.07-.08.17-.12.33-.12.14 0 .24.04.32.12.08.07.12.17.12.32a.4.4 0 0 1-.12.3.44.44 0 0 1-.32.12c-.15 0-.26-.04-.33-.11a.4.4 0 0 1-.12-.31h-.13Zm5.98 5.7v-.14h-.88v-2.88c0-.3-.03-.55-.08-.76-.06-.2-.11-.35-.22-.44l-.09-.07-.08.07c-.3.25-.59.52-.88.8a9.1 9.1 0 0 0-1.54 2.05c-.22.4-.4.85-.54 1.33l.13.03v-.13h-.88v-4.6l-.27.04h-.16v.14-.13c-.33 0-.57-.1-.74-.26-.18-.17-.27-.41-.27-.75s.1-.58.28-.75c.18-.18.44-.27.8-.27.39 0 .65.1.83.27.18.17.27.4.27.75v4.4l.26-.5c.12-.24.27-.49.45-.74a7.91 7.91 0 0 1 1.27-1.38c.23-.2.46-.38.67-.54l.14-.1-.4-.33-.2-.25-.16-.3-.12.06.13-.04-.05-.32c0-.17.02-.3.07-.43a.82.82 0 0 1 .22-.3c.09-.08.2-.14.33-.18a1.6 1.6 0 0 1 .92 0 .83.83 0 0 1 .57.48 1 1 0 0 1 .09.41c0 .2-.05.38-.15.53-.1.16-.25.31-.43.46l-.12.1.12.1c.12.12.22.23.3.34a1.48 1.48 0 0 1 .25.75c.02.14.02.3.02.46v3.01h.27v-3c0-.18 0-.34-.02-.5a2.1 2.1 0 0 0-.1-.45 1.7 1.7 0 0 0-.2-.42c-.09-.13-.2-.26-.34-.39l-.1.1.1.1c.19-.15.35-.33.47-.51.13-.2.2-.43.2-.68 0-.2-.04-.37-.1-.53a1.1 1.1 0 0 0-.3-.39c-.13-.1-.28-.18-.45-.23a1.84 1.84 0 0 0-1.08 0 1.09 1.09 0 0 0-.71.64 1.36 1.36 0 0 0-.03.94l.16.33.01.01.24.29.29.24.08-.1-.08-.11a8.5 8.5 0 0 0-1.38 1.23 7.93 7.93 0 0 0-1.1 1.52l.13.06h.13v-3.84c0-.39-.11-.71-.36-.95a1.4 1.4 0 0 0-1-.34c-.41 0-.75.11-1 .34-.24.23-.36.56-.36.95 0 .38.11.71.35.94.23.23.55.33.93.33h.18l.14-.02-.02-.13h-.14v4.7h1.25l.02-.09a6.66 6.66 0 0 1 1.22-2.34 8.95 8.95 0 0 1 1.66-1.71l-.09-.1-.08.1c.02.02.09.13.13.3.05.18.07.42.07.7v3.15h1.28v-.14h-.13Zm3.29-1.04a.5.5 0 0 0-.16-.4.6.6 0 0 0-.42-.16c-.17 0-.3.05-.42.15-.1.1-.15.24-.15.4 0 .18.05.32.15.43.11.1.25.15.42.15.17 0 .32-.05.42-.15.1-.1.16-.25.16-.42Zm4.08 1.03h-.96a8.57 8.57 0 0 0-.53-1.25 5.7 5.7 0 0 0-.66-1.03c-.24-.29-.5-.52-.76-.69a1.55 1.55 0 0 0-.84-.25c-.16 0-.31.02-.45.06a.99.99 0 0 0-.36.16l-.23.27a.82.82 0 0 0-.08.38v.2l.12-.02h.17c.36 0 .64.1.84.3.2.19.3.47.3.84 0 .36-.1.64-.3.84-.22.2-.52.3-.9.3-.4 0-.71-.1-.93-.3a1.1 1.1 0 0 1-.31-.84v-1.33c0-.25.03-.47.1-.68.08-.2.2-.38.35-.53.16-.15.36-.27.6-.35.25-.09.53-.13.87-.13.37 0 .71.07 1.03.21.3.14.6.32.84.55a4.26 4.26 0 0 1 1.08 1.63v-2.34c0-.35-.05-.65-.16-.91-.1-.26-.24-.48-.43-.65-.18-.17-.4-.3-.67-.39a2.8 2.8 0 0 0-.86-.12 4.33 4.33 0 0 0-2.48.74l-.47-.74c.37-.25.8-.46 1.27-.6a5.64 5.64 0 0 1 3.03-.04 2.41 2.41 0 0 1 1.58 1.45c.13.35.2.75.2 1.2v4.06Z" fill="#fff"/>
  <path d="M95.65 16.3h.14c0-.2-.07-.38-.2-.5a.73.73 0 0 0-.52-.19.67.67 0 0 0-.7.69c0 .2.06.38.2.51.12.13.3.2.5.2s.38-.07.51-.2a.7.7 0 0 0 .2-.51h-.26c0 .15-.04.24-.12.32-.08.08-.18.12-.33.12a.44.44 0 0 1-.32-.12c-.08-.08-.12-.17-.12-.32a.4.4 0 0 1 .12-.31.44.44 0 0 1 .32-.11c.15 0 .25.04.33.11a.4.4 0 0 1 .12.3h.13Zm4.08 1.03v-.13h-.96v.13l.12-.04a8.79 8.79 0 0 0-.53-1.27c-.2-.4-.43-.75-.68-1.05-.25-.3-.51-.54-.8-.72a1.66 1.66 0 0 0-.9-.27c-.17 0-.33.02-.48.06-.16.04-.3.1-.4.18l-.02.01-.24.28-.01.01v.02a.95.95 0 0 0-.1.44v.35l.27-.04h.16v-.14.14c.33 0 .57.09.74.26.17.16.26.4.26.75a1 1 0 0 1-.27.74c-.18.18-.44.27-.8.27-.39 0-.65-.1-.83-.27-.19-.17-.28-.4-.28-.74v-1.33c0-.24.03-.44.1-.63s.17-.35.32-.49c.14-.13.32-.24.55-.32.22-.07.5-.12.82-.12.36 0 .68.07.97.2.3.14.57.31.81.53a4.14 4.14 0 0 1 1.04 1.57l.26.72v-3.1c0-.36-.05-.68-.16-.96a1.87 1.87 0 0 0-1.18-1.11 2.92 2.92 0 0 0-.9-.14 4.46 4.46 0 0 0-2.57.77l.08.11.11-.07-.47-.74-.11.07.07.11a4.5 4.5 0 0 1 1.24-.6 5.48 5.48 0 0 1 2.94-.02 2.18 2.18 0 0 1 1.5 1.37c.13.33.2.71.2 1.14v4.07h.26v-4.07c0-.46-.07-.87-.2-1.24a2.45 2.45 0 0 0-.64-.94 2.82 2.82 0 0 0-1.03-.59 5.78 5.78 0 0 0-3.1.03c-.5.16-.94.37-1.32.63l-.1.08.6.96.12-.08a4.2 4.2 0 0 1 2.41-.72c.3 0 .58.04.82.12a1.59 1.59 0 0 1 1.02.96c.1.23.14.52.14.86v2.34h.14l.12-.05a4.39 4.39 0 0 0-1.11-1.68 3.35 3.35 0 0 0-.88-.57 2.6 2.6 0 0 0-1.08-.22c-.35 0-.65.04-.91.13s-.48.22-.65.38c-.17.17-.3.36-.38.59a2.1 2.1 0 0 0-.12.72v1.33c0 .38.12.7.36.94.25.23.6.34 1.01.34.41 0 .75-.11 1-.34.23-.23.35-.56.35-.94 0-.4-.1-.72-.34-.94a1.27 1.27 0 0 0-.94-.34h-.17l-.14.02.02.14h.13v-.2c0-.13.03-.23.07-.32l-.12-.06.1.09.23-.28-.1-.08.08.1c.09-.05.19-.1.31-.14.13-.03.27-.05.42-.05.26 0 .51.08.76.24.26.16.5.38.73.66.24.28.45.61.65 1 .2.38.37.8.52 1.24l.03.09h1.2v-.14h-.14Zm4.99-3.43a.55.55 0 0 0-.16-.41.6.6 0 0 0-.42-.15c-.17 0-.3.05-.4.15-.12.1-.17.24-.17.42 0 .17.05.3.16.4.1.1.24.16.41.16.18 0 .32-.05.42-.16a.5.5 0 0 0 .16-.4Zm-.72 1.15c-.34-.03-.6-.14-.8-.34-.18-.2-.27-.47-.27-.8 0-.36.1-.65.32-.85.21-.2.51-.3.9-.3.4 0 .7.1.92.33.21.21.32.53.32.94a2.1 2.1 0 0 1-.64 1.52 6.84 6.84 0 0 1-.92.82 53.65 53.65 0 0 1-.96.7c-.14.1-.24.2-.3.26h-1.06v-.71a8.85 8.85 0 0 0-.37-2.61 6.76 6.76 0 0 1-.13-1.07 2.21 2.21 0 0 1 .84-1.82c.28-.22.6-.4 1-.51a4.5 4.5 0 0 1 1.33-.18c.56 0 1.04.06 1.43.2a2.23 2.23 0 0 1 1.51 1.42c.1.34.16.7.16 1.1v4.18h-1v-4.12c0-.3-.05-.57-.14-.82a1.62 1.62 0 0 0-1.05-1.01 3.23 3.23 0 0 0-1.83-.02c-.26.08-.48.2-.67.34a1.46 1.46 0 0 0-.58 1.22c0 .28.02.54.06.8l.15.78.17.88c.05.31.1.66.12 1.05.1-.1.21-.2.37-.31a14.6 14.6 0 0 0 .9-.73.7.7 0 0 0 .22-.34Z" fill="#fff"/>
  <path d="M104.72 13.9h.14c0-.2-.07-.38-.2-.5a.73.73 0 0 0-.52-.2c-.2 0-.37.07-.5.19a.67.67 0 0 0-.2.52.67.67 0 0 0 .7.69.7.7 0 0 0 .52-.2c.13-.12.2-.3.2-.5h-.27a.4.4 0 0 1-.12.32.46.46 0 0 1-.33.11.44.44 0 0 1-.32-.11.4.4 0 0 1-.12-.31c0-.16.04-.25.12-.32a.45.45 0 0 1 .32-.12c.15 0 .25.04.33.12.08.07.12.16.12.32h.13Zm-.72 1.15v-.13a1.03 1.03 0 0 1-.7-.3 1 1 0 0 1-.24-.71c0-.34.1-.58.28-.75.18-.18.44-.27.81-.27.38 0 .64.1.82.29.19.18.28.46.28.85a1.95 1.95 0 0 1-.28 1.02c-.08.14-.2.28-.32.41a6.57 6.57 0 0 1-.9.8 44.43 44.43 0 0 1-.96.7c-.14.11-.25.2-.32.28l.1.1v-.14h-.92v-.58a8.85 8.85 0 0 0-.13-1.58 8.67 8.67 0 0 0-.25-1.06 3.94 3.94 0 0 1-.13-1.04 2.08 2.08 0 0 1 .8-1.72c.25-.2.57-.37.95-.49.37-.11.8-.17 1.28-.17.56 0 1.02.07 1.4.2.38.12.68.3.91.53.23.22.4.49.5.8.12.32.17.67.17 1.05v4.06h-.74v-3.99c0-.31-.05-.6-.14-.86a1.75 1.75 0 0 0-1.13-1.1 3.45 3.45 0 0 0-1.91-.02c-.28.09-.52.2-.72.36a1.6 1.6 0 0 0-.64 1.33c0 .28.03.56.07.82l.15.8.17.86c.05.3.1.65.11 1.04l.02.3.21-.22c.09-.08.2-.18.36-.3l.48-.36c.16-.13.3-.25.43-.38a.83.83 0 0 0 .26-.4l.03-.15-.15-.01-.01.13-.13-.03-.19.27a14.23 14.23 0 0 1-.88.72c-.16.12-.29.23-.39.33l.1.09h.13a9.52 9.52 0 0 0-.29-1.96l-.15-.78c-.04-.24-.06-.5-.06-.77 0-.24.05-.45.14-.64.09-.19.22-.34.4-.48.16-.13.37-.24.63-.31a3.09 3.09 0 0 1 1.74.02 1.46 1.46 0 0 1 .96.93c.09.22.13.48.13.77v4.26h1.28v-4.33c0-.4-.06-.78-.18-1.13a2.28 2.28 0 0 0-.57-.92 2.83 2.83 0 0 0-1.02-.59c-.4-.14-.9-.2-1.48-.2-.5 0-.95.05-1.36.18-.4.12-.75.3-1.04.53a2.36 2.36 0 0 0-.9 1.93 5.76 5.76 0 0 0 .26 1.6 8.2 8.2 0 0 1 .25 2.08v.85h1.25l.04-.05c.05-.06.15-.14.28-.24a55.37 55.37 0 0 1 .96-.7 7.07 7.07 0 0 0 .94-.84c.13-.14.25-.3.35-.45a2.15 2.15 0 0 0 .32-1.16c0-.43-.11-.79-.35-1.04a1.35 1.35 0 0 0-1.02-.37c-.4 0-.75.11-1 .34-.24.23-.36.56-.35.95 0 .36.1.66.3.9.22.22.52.34.89.37v-.13Zm7.9 1.25a.55.55 0 0 0-.16-.41.59.59 0 0 0-.43-.15c-.17 0-.3.05-.41.15-.1.1-.16.23-.16.4 0 .18.05.32.16.42.1.1.24.15.41.15a.6.6 0 0 0 .43-.15c.1-.1.15-.24.15-.42Zm-3.67-9.14.36-.78c.12-.26.24-.49.35-.67.11-.19.22-.34.34-.46.12-.12.24-.21.38-.27.13-.05.28-.08.46-.08.3 0 .54.1.72.33.18.22.27.6.27 1.1v8.84l.12-.02h.17c.36 0 .64.1.84.3.2.2.3.48.3.84s-.1.64-.32.85c-.2.2-.5.3-.9.3s-.7-.1-.91-.3c-.21-.2-.32-.49-.32-.85v-10c0-.22-.01-.37-.04-.46l-.15-.13-.1.02-.11.1-.14.2-.19.36-1.06 2.16h-.74l-.59-3.64h.94l.32 2.26Z" fill="#fff"/>
  <path d="M111.9 16.3h.13c0-.2-.07-.38-.2-.5a.72.72 0 0 0-.52-.2c-.2 0-.37.07-.5.19-.14.13-.2.3-.2.5s.06.39.2.52c.13.12.3.19.5.19s.39-.06.52-.2a.7.7 0 0 0 .2-.5h-.27c0 .14-.04.24-.12.31-.07.08-.17.12-.33.12a.44.44 0 0 1-.32-.12c-.08-.07-.12-.17-.12-.32 0-.14.04-.23.12-.3a.44.44 0 0 1 .32-.12c.16 0 .26.04.33.11a.4.4 0 0 1 .12.31h.13Zm-3.67-9.14.12.06.37-.78a5 5 0 0 1 .66-1.1l.33-.24c.12-.04.25-.07.4-.07.28 0 .47.1.63.28.14.19.23.53.23 1.03v8.98l.27-.03.17-.01-.01-.13v.13c.33 0 .57.1.75.26.17.17.26.4.26.75 0 .34-.1.58-.28.75-.18.17-.44.27-.8.27-.38 0-.65-.1-.83-.27-.18-.17-.27-.41-.27-.75v-10c0-.22-.02-.38-.06-.5v-.03l-.18-.16-.05-.04-.17.03-.03.01-.14.12h-.01l-.15.23-.2.37.13.06-.13-.06-1.02 2.08h-.55l-.54-3.37h.66l.37 2.6.19-.41-.12-.06.13-.02-.34-2.38h-1.2l.62 3.9h.94l1.1-2.22.18-.35-.11-.07.1.08.13-.19.08-.06.1.08.09-.1-.13.05c.02.05.04.2.04.41v10c0 .39.12.71.36.94.24.24.58.35 1 .34.41 0 .75-.1 1-.34.24-.23.36-.55.36-.94 0-.39-.11-.71-.35-.94a1.28 1.28 0 0 0-.93-.34l-.18.01-.13.02.02.13h.13V6.34c0-.53-.09-.93-.3-1.2a1 1 0 0 0-.82-.38c-.19 0-.36.03-.52.1-.15.06-.29.16-.42.3-.12.12-.24.29-.36.48-.1.2-.23.42-.35.68l-.36.79.12.05Zm8.53 6.74a.55.55 0 0 0-.15-.41.6.6 0 0 0-.43-.15c-.16 0-.3.05-.4.15-.12.1-.17.24-.17.42 0 .17.05.3.16.4.1.1.25.16.41.16a.6.6 0 0 0 .43-.16c.1-.1.15-.23.15-.4Zm-.72 1.15a1.2 1.2 0 0 1-.8-.34c-.18-.2-.27-.47-.27-.8 0-.36.1-.65.32-.85.21-.2.51-.3.9-.3.4 0 .7.1.92.33.21.21.32.53.32.94a2.1 2.1 0 0 1-.3 1.09c-.1.15-.2.3-.34.43a6.84 6.84 0 0 1-.92.82l-.51.38-.45.32c-.14.1-.24.2-.3.26h-1.05v-.71a8.82 8.82 0 0 0-.38-2.61 5.87 5.87 0 0 1-.13-1.07 2.35 2.35 0 0 1 .84-1.83c.28-.21.6-.38 1-.5a4.5 4.5 0 0 1 1.33-.18c.56 0 1.04.06 1.43.2a2.23 2.23 0 0 1 1.51 1.42c.1.34.17.7.17 1.1v4.18h-1.02v-4.12c0-.3-.04-.57-.13-.82a1.61 1.61 0 0 0-1.05-1.01 3.23 3.23 0 0 0-1.83-.02c-.26.08-.48.2-.67.34a1.46 1.46 0 0 0-.58 1.22c0 .28.02.54.06.8l.15.78.17.88c.06.31.1.66.12 1.05.1-.1.22-.2.38-.31a15.76 15.76 0 0 0 .89-.73.7.7 0 0 0 .22-.34Z" fill="#fff"/>
  <path d="M116.76 13.9h.14c0-.2-.07-.38-.2-.5a.73.73 0 0 0-.52-.2.74.74 0 0 0-.5.19.67.67 0 0 0-.2.52c0 .2.06.37.2.5.13.13.3.2.5.19a.7.7 0 0 0 .52-.2c.13-.12.2-.3.2-.5h-.27a.4.4 0 0 1-.12.32.45.45 0 0 1-.33.11.44.44 0 0 1-.32-.11.4.4 0 0 1-.12-.31c0-.16.04-.25.12-.32a.46.46 0 0 1 .32-.12c.15 0 .26.04.33.12.08.07.12.16.12.32h.13Zm-.72 1.15v-.13a1.03 1.03 0 0 1-.7-.3 1 1 0 0 1-.24-.71c0-.34.1-.58.28-.75.19-.18.45-.27.81-.27.38 0 .64.1.83.29.17.18.27.46.27.85a1.95 1.95 0 0 1-.6 1.43 6.57 6.57 0 0 1-.9.8 44.27 44.27 0 0 1-.96.7c-.14.11-.25.2-.32.28l.1.1v-.14h-.92v-.58a9.16 9.16 0 0 0-.13-1.58 8.64 8.64 0 0 0-.25-1.06 3.95 3.95 0 0 1-.13-1.04 2.1 2.1 0 0 1 .8-1.72c.25-.2.57-.37.95-.49.37-.11.8-.17 1.29-.17.55 0 1.01.07 1.39.2.38.12.68.3.91.53.23.22.4.49.5.8.12.32.17.67.17 1.05v4.06h-.74v-3.99c0-.31-.05-.6-.14-.86a1.73 1.73 0 0 0-1.13-1.1 3.37 3.37 0 0 0-1.9-.02c-.29.09-.53.2-.73.36a1.6 1.6 0 0 0-.63 1.33c0 .28.02.56.06.82l.15.8a9.1 9.1 0 0 1 .28 1.9l.02.3.21-.22c.09-.08.2-.18.36-.3a14.68 14.68 0 0 0 .91-.74.83.83 0 0 0 .26-.4l.03-.15-.15-.01-.01.13-.13-.03-.19.27a15.63 15.63 0 0 1-.88.72c-.16.12-.29.23-.39.33l.1.09h.13a9.53 9.53 0 0 0-.29-1.96l-.15-.78c-.04-.24-.06-.5-.06-.77 0-.24.05-.45.14-.64.1-.19.22-.34.4-.48.16-.13.37-.24.63-.31a3.09 3.09 0 0 1 1.74.02 1.46 1.46 0 0 1 .97.93c.08.22.12.48.12.77v4.26h1.28v-4.33c0-.4-.06-.78-.18-1.13a2.25 2.25 0 0 0-.57-.92c-.27-.25-.6-.45-1.02-.59-.4-.14-.9-.2-1.47-.2-.5 0-.96.05-1.37.18-.4.12-.75.3-1.04.53a2.36 2.36 0 0 0-.9 1.93 4.19 4.19 0 0 0 .14 1.1l.12.5a8.82 8.82 0 0 1 .22 1.23c.02.24.03.52.03.85v.85h1.25l.04-.05c.05-.06.15-.14.28-.24a55.37 55.37 0 0 1 .96-.7 6.85 6.85 0 0 0 .94-.84c.14-.14.25-.3.35-.45a2.2 2.2 0 0 0 .32-1.16c0-.43-.11-.79-.35-1.04a1.35 1.35 0 0 0-1.02-.37c-.4 0-.75.11-1 .34-.23.23-.36.56-.35.95 0 .36.1.66.3.9.22.22.52.34.89.37v-.13Zm1.51-10.36.07.18.19.06.18-.06.07-.18-.07-.2-.18-.06c-.17 0-.26.08-.26.26Zm1.23.27-.06.34-.16.32-.2.26-.2.19c.4 0 .72-.05.95-.12.23-.08.4-.2.53-.37.13-.17.2-.38.25-.64.03-.26.05-.58.05-.95h.9c0 .45-.04.84-.1 1.17-.05.34-.17.61-.36.83-.18.22-.44.38-.79.5-.34.1-.8.15-1.38.15h-.67v-.59l.23-.18.2-.22.14-.24.06-.24-.26.15-.3.05a.47.47 0 0 1-.4-.19.78.78 0 0 1-.14-.5c0-.2.06-.37.18-.5.1-.12.3-.19.58-.19.17 0 .31.03.43.08a.8.8 0 0 1 .3.21l.17.31c.04.12.05.24.05.37Z" fill="#fff"/>
  <path d="m117.55 4.69-.13.04.07.18.03.06.24.09.05.02.22-.09.06-.02.09-.24.02-.04-.09-.24-.02-.05-.23-.1h-.05l-.3.1-.1.29v.02l.01.02.13-.04h.13l.03-.1.1-.03v-.13l-.05.12.12.05.03.09-.03.07-.07.03-.09-.03-.05-.12-.12.05Zm1.23.27-.13-.03-.06.33-.15.29-.19.24-.4.41h.32c.4 0 .73-.04.98-.13.25-.08.46-.22.6-.41.14-.19.23-.42.27-.7.04-.27.05-.6.05-.97h-.13v.14h.9v-.14h-.14c0 .44-.03.83-.09 1.15a1.6 1.6 0 0 1-.33.77c-.16.19-.4.34-.73.44-.33.1-.77.16-1.34.16h-.53v-.4l.17-.14h.01l.2-.23.02-.01.15-.26.01-.01.06-.26.07-.3-.5.29-.28.05.02.13v-.14a.35.35 0 0 1-.29-.13.65.65 0 0 1-.11-.41c0-.2.05-.32.13-.42.08-.08.23-.14.48-.14.16 0 .29.02.39.07l.25.17.1-.09-.12.07.17.3.12-.06-.13.04.05.33h.27c0-.14-.02-.28-.06-.4v-.02l-.18-.32-.01-.01V4.2a.93.93 0 0 0-.36-.25 1.2 1.2 0 0 0-.48-.09c-.3 0-.53.07-.68.23a.85.85 0 0 0-.21.6c0 .23.05.42.17.58.12.15.3.23.5.23h.01l.31-.05h.03l.28-.17-.07-.11-.13-.03-.05.22-.13.2-.18.21-.22.18-.05.04v.79h.8a5 5 0 0 0 1.42-.17c.36-.12.65-.3.85-.53.2-.24.33-.54.4-.9a7 7 0 0 0 .08-1.19v-.13h-1.15V4c0 .37-.02.68-.06.93-.03.25-.1.44-.21.58a.93.93 0 0 1-.47.32c-.22.07-.52.1-.9.11v.14l.1.09.18-.19.21-.27V5.7l.17-.33.01-.02.07-.36v-.02h-.13Zm2.82 9.13c0 .17.05.3.16.4.1.1.25.16.42.16.17 0 .3-.05.42-.15.1-.1.16-.24.16-.41a.55.55 0 0 0-.16-.42.58.58 0 0 0-.42-.15.6.6 0 0 0-.42.15c-.1.1-.16.24-.16.42Zm3.28 3.36c-.28 0-.5-.02-.69-.07a1.13 1.13 0 0 1-.47-.24 1.56 1.56 0 0 1-.35-.45 7.5 7.5 0 0 1-.32-.72l-.32-.85-.27.08-.29.04c-.4 0-.7-.1-.9-.3-.21-.2-.31-.49-.31-.85s.1-.64.31-.84c.21-.2.51-.3.9-.3.2 0 .35.02.49.07.13.05.25.13.36.25.1.1.2.25.28.42.09.18.18.39.27.63l.58 1.53c.1.28.2.47.31.58.1.1.24.16.4.16.17 0 .31-.05.42-.16.1-.1.16-.3.16-.58V13c0-.25-.04-.48-.12-.7a1.5 1.5 0 0 0-.95-.9 2.4 2.4 0 0 0-.83-.14c-.37 0-.75.07-1.12.2-.38.13-.75.32-1.1.55l-.47-.75c.37-.24.77-.44 1.2-.6a4.38 4.38 0 0 1 2.71-.06 3 3 0 0 1 .92.5 2.35 2.35 0 0 1 .77 1.83v2.89c0 .27-.03.5-.08.71-.05.2-.14.38-.27.51-.12.14-.28.24-.48.31-.2.07-.45.1-.75.1Z" fill="#fff"/>
  <path d="M121.6 14.09h-.13c0 .2.06.38.2.5.13.13.31.2.51.2s.38-.07.5-.2c.14-.12.2-.3.2-.5s-.06-.39-.2-.52a.72.72 0 0 0-.5-.18c-.2 0-.38.06-.51.18a.68.68 0 0 0-.2.52h.26c0-.15.05-.25.12-.32a.52.52 0 0 1 .33-.12c.14 0 .24.04.32.12.08.07.12.17.12.32 0 .14-.04.24-.12.31a.44.44 0 0 1-.32.11.52.52 0 0 1-.33-.1v-.01c-.08-.07-.12-.17-.12-.31h-.13Zm3.28 3.36v-.13a2.7 2.7 0 0 1-.66-.07.93.93 0 0 1-.41-.2c-.12-.1-.23-.25-.33-.43s-.2-.42-.3-.7l-.32-.84-.05-.12-.38.11-.27.04.01.13v-.14c-.38 0-.64-.09-.81-.26-.18-.17-.27-.41-.27-.75 0-.33.1-.57.27-.75.18-.17.44-.26.81-.26.18 0 .32.02.44.07l.3.2c.1.1.19.24.27.4l.26.62.58 1.53c.11.28.22.49.34.62.14.14.31.2.5.2a.7.7 0 0 0 .51-.2c.15-.15.2-.38.2-.67V13c0-.26-.04-.51-.13-.74a1.63 1.63 0 0 0-1.02-1 2.67 2.67 0 0 0-.88-.13c-.39 0-.78.07-1.17.2-.39.14-.76.33-1.12.57l.07.11.12-.07-.47-.75-.12.07.08.11c.35-.23.74-.43 1.17-.58a4.25 4.25 0 0 1 2.62-.06c.35.11.64.27.87.48.24.2.42.45.54.74.13.29.19.61.19.98v2.89c0 .26-.03.49-.08.68-.05.19-.13.34-.23.45a1 1 0 0 1-.44.28c-.18.06-.41.09-.7.09v.27c.3 0 .57-.04.79-.11a1.27 1.27 0 0 0 .84-.91c.06-.22.09-.47.09-.75v-2.89c0-.4-.07-.76-.21-1.08a2.3 2.3 0 0 0-.61-.84 2.8 2.8 0 0 0-.96-.53 4.52 4.52 0 0 0-2.8.06c-.45.16-.86.36-1.23.61l-.1.07.53.86.07.12.12-.08c.34-.23.7-.4 1.06-.53.37-.13.73-.2 1.08-.2.3 0 .56.05.78.13.23.08.4.19.55.33.14.14.25.3.33.5.07.2.1.41.1.65v2.85c0 .26-.05.42-.12.49a.43.43 0 0 1-.32.12.4.4 0 0 1-.3-.13 1.66 1.66 0 0 1-.29-.53l-.58-1.53a7 7 0 0 0-.27-.64c-.1-.18-.2-.33-.3-.46a1.1 1.1 0 0 0-.42-.27 1.46 1.46 0 0 0-.53-.09c-.4 0-.75.1-1 .34a1.3 1.3 0 0 0-.35.94c0 .39.12.71.35.94.24.23.58.34 1 .34h.01l.3-.04.17-.04.28.72c.1.3.21.54.32.74.1.2.23.37.38.5.15.12.33.21.53.26.2.05.44.08.72.08v-.14Zm8.76-.12h-1.02v-4.39c0-.25-.03-.48-.09-.69-.06-.2-.15-.38-.27-.53a1.22 1.22 0 0 0-.46-.34c-.2-.08-.41-.12-.66-.12a3 3 0 0 0-1.05.2 4.6 4.6 0 0 0-.99.54l-.46-.74a4.7 4.7 0 0 1 1.12-.6 3.84 3.84 0 0 1 2.44-.06 2.12 2.12 0 0 1 1.27 1.29c.11.3.17.66.17 1.04v4.4Z" fill="#fff"/>
  <path d="M133.64 17.33v-.13h-.88v-4.26c0-.26-.03-.5-.1-.72a1.58 1.58 0 0 0-.3-.58 1.2 1.2 0 0 0-.51-.38c-.21-.1-.45-.14-.71-.14a3 3 0 0 0-1.1.22c-.35.14-.7.32-1.02.56l.08.1.11-.07-.46-.74-.11.07.08.11c.33-.24.7-.44 1.1-.59a3.72 3.72 0 0 1 2.33-.05 1.86 1.86 0 0 1 1.19 1.2c.1.3.16.63.16 1v4.4h.27v-4.4c0-.4-.06-.76-.17-1.09a2.27 2.27 0 0 0-1.35-1.37 3.97 3.97 0 0 0-2.53.06c-.43.16-.81.37-1.16.63l-.1.07.53.84.07.13.12-.09a3.73 3.73 0 0 1 1.96-.72c.24 0 .44.04.6.11.17.07.3.17.42.3a2.05 2.05 0 0 1 .34 1.14v4.53h1.27v-.14h-.13Zm1.56 0v-2.36c0-.22.03-.4.08-.58a1.18 1.18 0 0 1 .64-.76c.17-.08.37-.15.61-.2a1.4 1.4 0 0 0-.37-.22 3.54 3.54 0 0 0-1.16-.27c.02-.37.09-.7.2-1.01a2.26 2.26 0 0 1 1.42-1.32c.36-.12.79-.18 1.28-.18.56 0 1.03.06 1.4.2a2.13 2.13 0 0 1 1.39 1.42c.09.34.14.7.14 1.1v4.18h-1.02v-4.12c0-.3-.03-.57-.1-.82a1.45 1.45 0 0 0-.92-1.01 2.61 2.61 0 0 0-.89-.14c-.32 0-.6.04-.82.11-.23.07-.41.16-.56.28a1.2 1.2 0 0 0-.33.39c-.07.14-.13.28-.15.43a2.4 2.4 0 0 1 .9.31c.13.08.24.15.34.23l.24.24v.34c-.23.05-.43.1-.6.18-.16.07-.3.16-.4.27a1 1 0 0 0-.23.4 1.8 1.8 0 0 0-.07.56v2.35h-1.02Z" fill="#fff"/>
  <path d="M135.2 17.33h.14v-2.36c0-.2.02-.38.06-.54.05-.15.12-.28.2-.4.1-.1.22-.2.38-.28a3 3 0 0 1 .58-.2l.27-.05-.21-.18a1.3 1.3 0 0 0-.4-.23 3.55 3.55 0 0 0-1.22-.28v.13h.14c.01-.35.08-.67.2-.97a2 2 0 0 1 .49-.75c.22-.2.5-.37.84-.48.34-.12.75-.18 1.23-.18.55 0 1 .07 1.36.2.36.12.64.3.85.52.21.23.36.5.45.8a4 4 0 0 1 .13 1.06v4.06h-.74v-3.99c0-.31-.04-.6-.1-.85a1.59 1.59 0 0 0-1-1.1c-.27-.1-.59-.15-.95-.15-.34 0-.62.04-.86.11a2.1 2.1 0 0 0-.6.3 1.4 1.4 0 0 0-.53.9l-.02.14.13.02a2.91 2.91 0 0 1 1.17.52l.09-.1-.1.1.2.18v.29h.14l-.03-.13c-.23.05-.44.11-.61.19-.19.08-.34.18-.45.3-.13.13-.21.28-.27.45-.05.18-.08.38-.08.6v2.22h-.88v.27h1.15v-2.5c0-.2.02-.36.07-.5a.87.87 0 0 1 .2-.35 1 1 0 0 1 .36-.25c.16-.07.35-.12.57-.17l.1-.02v-.51l-.28-.27a3.13 3.13 0 0 0-1.3-.57l-.03.12.13.02c.02-.13.07-.26.14-.4.06-.12.16-.23.3-.34.12-.1.3-.19.5-.25.21-.07.47-.1.8-.1.33 0 .62.04.84.13a1.31 1.31 0 0 1 .84.92c.06.23.1.49.1.78v4.26h1.27v-4.33a4 4 0 0 0-.15-1.12 2.21 2.21 0 0 0-1.46-1.52c-.4-.14-.88-.2-1.45-.2-.5 0-.94.05-1.32.18a2.29 2.29 0 0 0-1.5 1.4c-.12.32-.2.68-.2 1.06l-.01.14h.13c.06 0 .15 0 .28.02a3.38 3.38 0 0 1 .83.23c.14.06.25.12.34.2l.08-.1-.03-.14c-.24.06-.46.13-.64.22a1.34 1.34 0 0 0-.71.84c-.06.2-.08.4-.08.62v2.5h.13v-.14Z" fill="#fff"/>
</svg>
