<svg id="artwork" xmlns="http://www.w3.org/2000/svg" version="1.1" viewBox="0 0 239 70.9">
  <defs>
    <style>
      .st4{fill:#fff}
    </style>
  </defs>
  <rect x="-.1" width="239.2" height="70.9" rx="8.9" ry="8.9"/>
  <path class="st4" d="M120.6 38.5c-4.1 0-7.5 3.2-7.5 7.6s3.4 7.5 7.5 7.5 7.6-3.2 7.6-7.5-3.4-7.6-7.6-7.6Zm0 12.1c-2.3 0-4.2-1.8-4.2-4.5s2-4.6 4.2-4.6 4.3 1.9 4.3 4.6-2 4.5-4.3 4.5Zm-16.5-12c-4.2 0-7.6 3.1-7.6 7.5s3.4 7.5 7.6 7.5 7.6-3.2 7.6-7.5-3.4-7.6-7.6-7.6Zm0 12c-2.3 0-4.3-1.8-4.3-4.5s2-4.6 4.3-4.6 4.3 1.9 4.3 4.6-2 4.5-4.3 4.5Zm-19.6-9.8V44H92a6.6 6.6 0 0 1-1.7 4 7.8 7.8 0 0 1-6 2.4 8.4 8.4 0 0 1-8.3-8.5 8.4 8.4 0 0 1 14.1-6.2l2.3-2.3c-2-1.8-4.5-3.2-8-3.2-6.5 0-12 5.3-12 11.7s5.5 11.7 12 11.7c3.5 0 6-1 8.1-3.2 2.1-2.1 2.8-5.1 2.8-7.5 0-.8 0-1.5-.2-2H84.5Zm80.3 2.5c-.7-1.6-2.6-4.8-6.5-4.8s-7.1 3-7.1 7.6c0 4.2 3.2 7.5 7.5 7.5 3.4 0 5.4-2.1 6.3-3.3l-2.6-1.8c-.9 1.3-2 2.1-3.7 2.1s-3-.7-3.7-2.3l10.1-4.1-.3-.9ZM154.4 46a4 4 0 0 1 3.9-4.4c1.3 0 2.4.6 2.8 1.6l-6.7 2.8Zm-8.2 7.3h3.3V31h-3.3v22.1Zm-5.4-13h-.1a5.2 5.2 0 0 0-4-1.7c-3.8 0-7.3 3.3-7.3 7.6s3.5 7.5 7.3 7.5c1.8 0 3.2-.8 4-1.7v1c0 3-1.5 4.5-4 4.5-2 0-3.2-1.4-3.8-2.7l-2.8 1.2c.8 2 3 4.5 6.6 4.5 4 0 7.2-2.3 7.2-7.9V39h-3.1v1.2ZM137 50.6c-2.3 0-4.2-1.9-4.2-4.5s1.9-4.6 4.2-4.6 4 2 4 4.6-1.8 4.5-4 4.5ZM180.3 31h-8v22.1h3.4v-8.4h4.6c3.7 0 7.2-2.6 7.2-6.8S184 31 180.3 31Zm0 10.7h-4.7V34h4.7c2.5 0 4 2 4 3.8s-1.5 3.8-4 3.8Zm20.5-3.2c-2.4 0-4.9 1-6 3.4l3 1.2c.6-1.2 1.8-1.6 3-1.6 1.7 0 3.5 1 3.5 2.8v.3c-.6-.4-1.9-.9-3.5-.9-3.1 0-6.3 1.7-6.3 5 0 3 2.6 4.8 5.5 4.8 2.2 0 3.4-1 4.2-2.1V53h3.3v-8.5c0-4-3-6.1-6.7-6.1Zm-.4 12.1c-1.1 0-2.6-.5-2.6-1.8 0-1.7 1.9-2.4 3.5-2.4 1.4 0 2.1.3 3 .7a4 4 0 0 1-4 3.5ZM219 39l-3.8 9.6-4-9.6h-3.6l6 13.4-3.4 7.5h3.4l9.1-21H219Zm-29.7 14h3.4V31h-3.3v22.1Z"/>
  <path d="m36.6 34.4-18.9 20a5 5 0 0 0 7.6 3l21.2-12.2-10-10.8h.1Z" style="fill:#ea4335"/>
  <path d="m55.7 31-9.2-5.3-10.3 9.2 10.3 10.3 9.2-5.2c1.5-1 2.6-2.6 2.6-4.5s-1-3.6-2.6-4.5Z" style="fill:#fbbc04"/>
  <path d="m17.7 16.4-.1 1.4V53l.1 1.3L37.2 35 17.7 16.4Z" style="fill:#4285f4"/>
  <path d="m36.7 35.4 9.8-9.7-21.2-12.3a5.1 5.1 0 0 0-7.6 3l19 19Z" style="fill:#34a853"/>
  <path class="st4" d="M77 20c-.5 0-.8-.2-1-.4-.3-.3-.4-.7-.4-1.1 0-.5.1-.8.4-1.1s.7-.4 1.2-.4 1 .1 1.2.4c.3.3.5.7.5 1.3a2.7 2.7 0 0 1-.4 1.4l-.5.6-.6.5-.6.6-.7.5-.6.4-.4.4h-1.4v-2.2l-.2-.9-.1-.7-.2-.7-.1-.6v-.8c0-.5 0-1 .2-1.3s.5-.8.9-1.1c.3-.3.8-.5 1.3-.7a6 6 0 0 1 1.8-.2 6 6 0 0 1 1.9.3c.5.1 1 .4 1.2.7.4.3.6.7.8 1.1l.2 1.5V23h-1.3v-5.5l-.2-1.1-.5-.8a2 2 0 0 0-1-.5c-.3-.2-.7-.2-1.1-.2L76 15l-1 .5-.5.7a2 2 0 0 0-.2 1l.1 1 .2 1 .2 1.2.2 1.4.5-.4.6-.5.6-.5.3-.4Zm1-1.5-.2-.6a.9.9 0 0 0-.6-.2l-.6.2c-.2.1-.2.4-.2.6l.2.5c.2.2.4.2.6.2l.6-.2.2-.5ZM88.4 23h-1.3v-5.8l-.1-1-.4-.6-.6-.5-1-.2-1.3.3-1.3.7-.6-1 1.4-.7a5 5 0 0 1 3.3-.1c.4.1.7.4 1 .7.3.2.5.6.7 1s.2.9.2 1.4V23Zm3.9-1.4c0-.4.1-.8.4-1 .3-.4.6-.5 1.1-.5h.4v-2.9l-.1-.9c0-.3-.2-.5-.4-.7l-.6-.5-.9-.2c-.5 0-1 .1-1.4.3-.4.1-.8.4-1.3.7l-.6-1 1.5-.8a5 5 0 0 1 3.2 0c.4.1.8.3 1 .6.4.3.6.7.7 1l.2 1.4v4.5c0 .5-.1.9-.4 1.1s-.7.4-1.2.4-1-.1-1.2-.4-.5-.6-.5-1h.1Zm.9 0c0 .3 0 .5.2.6l.5.2c.2 0 .4 0 .6-.2s.2-.3.2-.6 0-.4-.2-.5l-.6-.2c-.3 0-.4.1-.5.2-.2.2-.3.3-.3.5Zm10.9-7.6v6c.4 0 .7 0 1 .2l.6.4.4.5v.7c0 .4 0 .8-.4 1-.2.4-.7.5-1.2.5l-.8-.1-.6-.4-.2-.5-.1-.8v-.6a3 3 0 0 0-.8.3 4.7 4.7 0 0 0-1.5 1.2l-.6.7h-1.4v-6h-.4c-.4 0-.8-.1-1-.4-.4-.3-.5-.7-.5-1.1s.1-.9.4-1.2c.3-.2.7-.4 1.2-.4s1 .2 1.2.4c.3.3.5.7.5 1.2v6c.1-.3.3-.5.5-.6l.8-.5.7-.3.8-.2v-6h1.4Zm-6.6 1.5c0 .2 0 .4.2.5l.6.2c.2 0 .4 0 .5-.2.2-.1.2-.3.2-.5 0-.3 0-.5-.2-.6l-.5-.2a1 1 0 0 0-.6.2l-.2.6Zm7.8 6.1-.3-.6c-.2-.2-.5-.2-.9-.3v.9l.1.5c.1.2.2.2.5.2.1 0 .3 0 .4-.2.1 0 .2-.2.2-.5Zm-2.6-14c0 .4-.1.7-.4 1-.3.2-.6.3-1 .3s-.9 0-1.2-.3c-.3-.3-.4-.6-.4-1l.1-.7.4-.4c.2-.1.5-.3.8-.3l1-.2 1.5-.2.8-.3c.2 0 .4-.2.5-.3l.1-.5h1.2l-.2.8-.4.5a2 2 0 0 1-.7.4l-1 .2h-1.4l-.2.1.3.3v.6Zm-2.2 0c0 .1 0 .3.2.4l.5.2c.2 0 .4 0 .5-.2.1 0 .2-.2.2-.5s0-.3-.2-.4a.6.6 0 0 0-.5-.2c-.2 0-.4 0-.5.2l-.2.4Zm9.9 4.5a2 2 0 0 0-.5-1.4c-.4-.4-.9-.5-1.6-.5H107c0-.7 0-1.3.2-1.7 0-.5.3-.8.5-1.1.3-.3.6-.4 1-.6s.9-.1 1.5-.1h3.9v1h-4l-.7.1-.5.3-.4.4-.1.6c.7 0 1.1 0 1.5.2.4 0 .8.2 1 .5l.6 1 .1 1.4v8h.4c.5 0 .9 0 1.1.3.3.3.5.7.5 1.1s-.2.9-.5 1.2c-.3.2-.7.4-1.2.4s-1-.2-1.2-.4c-.3-.3-.4-.7-.4-1.2v-9.5Zm2.4 9.5-.2-.5a.9.9 0 0 0-.6-.2l-.6.2-.2.5.2.6.6.2c.2 0 .4 0 .6-.2s.2-.3.2-.6Z"/>
  <path class="st4" d="M122.6 23h-1.3v-4l-.1-1-.3-.4a37 37 0 0 0-2.2 2.3 10 10 0 0 0-1.6 3.1h-1.4v-6h-.4c-.5 0-.8-.1-1.1-.4-.3-.3-.4-.7-.4-1.1s.1-.9.4-1.2c.3-.2.7-.4 1.2-.4s1 .2 1.2.4c.3.3.4.7.4 1.2v5l.7-1 .8-1 .9-.8.9-.7-.4-.3-.3-.4-.2-.4v-1.1l.4-.5a1.7 1.7 0 0 1 1.2-.4l.6.1.6.3.3.5.1.6c0 .3 0 .6-.2.8l-.6.7.4.4.3.6v.5l.1.7v4Zm-8-7.5c0 .2.1.4.3.5l.5.2c.2 0 .4 0 .6-.2l.2-.5c0-.3 0-.5-.2-.6l-.6-.2c-.3 0-.4.1-.5.2-.2.2-.2.3-.2.6Zm7 0c0-.3 0-.5-.2-.6a.6.6 0 0 0-.4-.2l-.5.2-.1.5v.3l.2.2a1.8 1.8 0 0 0 .4.4l.4-.4.2-.5Zm10.8 7.5h-1.3a10.3 10.3 0 0 0-1.6-3l-1-1a2 2 0 0 0-1-.3l-.7.1-.5.2-.3.4a1 1 0 0 0 0 .5v.2h.2c.5 0 .9.1 1.2.4.2.3.4.7.4 1.1s-.2.9-.5 1.2c-.2.2-.6.4-1.1.4s-1-.2-1.3-.4-.4-.7-.4-1.2V20l.1-1 .5-.6.8-.5a3.8 3.8 0 0 1 2.5.1l1.1.7.9 1 .6 1.2v-3.1l-.2-1.2a2.2 2.2 0 0 0-1.5-1.4l-1.1-.1a5.6 5.6 0 0 0-3.3 1l-.7-1c.5-.4 1-.6 1.7-.8a7.8 7.8 0 0 1 4 0c.6 0 1 .3 1.4.7l.8 1.1c.2.4.2 1 .2 1.6V23Zm-5.4-1.4c0-.2 0-.4-.2-.5l-.6-.2-.5.2c-.2.2-.2.3-.2.5l.2.6.5.2c.2 0 .4 0 .6-.2s.2-.3.2-.6Zm11-1.6c-.4 0-.7-.2-1-.4a2 2 0 0 1-.3-1.1c0-.5.1-.8.4-1.1.3-.3.7-.4 1.2-.4s1 .1 1.2.4c.3.3.4.7.4 1.3a2.7 2.7 0 0 1-.4 1.4c0 .2-.3.4-.4.6l-.6.5-.6.6-.7.5-.6.4-.4.4h-1.4v-2.2l-.2-.9-.2-.7-.1-.7-.1-.6v-.8c0-.5 0-1 .2-1.3l.8-1.1c.3-.3.8-.5 1.4-.7a6 6 0 0 1 1.7-.2c.8 0 1.4 0 2 .3s.9.4 1.2.7c.4.3.6.7.8 1.1l.2 1.5V23H141v-5.5l-.1-1.1a2 2 0 0 0-.6-.8 2 2 0 0 0-.8-.5c-.4-.2-.8-.2-1.3-.2l-1.2.1-.8.5-.6.7a2 2 0 0 0-.2 1v1l.3 1 .2 1.2.2 1.4c0-.1.2-.3.5-.4l.6-.5.5-.5.3-.4Zm1-1.5c0-.3 0-.4-.2-.6s-.3-.2-.5-.2l-.6.2-.2.6c0 .2 0 .4.2.5.1.2.3.2.6.2s.4 0 .5-.2l.2-.5Zm4.7-9 .5-1 .5-1 .4-.6.5-.3.6-.1c.4 0 .8.1 1 .4s.3.8.3 1.5v11.8h.4c.5 0 .9 0 1.1.3.3.3.4.7.4 1.1s0 .9-.4 1.2c-.3.2-.7.4-1.2.4s-1-.2-1.2-.4c-.3-.3-.4-.7-.4-1.2V7.7l-.3-.1-.3.1-.1.3-.3.5-1.4 2.8h-1l-.8-4.8h1.3l.4 3Zm4.9 12.1-.2-.5-.6-.2-.6.2-.2.5.2.6.6.2c.2 0 .4 0 .6-.2s.2-.3.2-.6ZM154 20c-.4 0-.7-.2-1-.4a2 2 0 0 1-.3-1.1c0-.5.1-.8.4-1.1.3-.3.7-.4 1.2-.4s1 .1 1.2.4c.3.3.4.7.4 1.3a2.7 2.7 0 0 1-.4 1.4c0 .2-.2.4-.4.6l-.6.5-.6.6-.7.5-.6.4-.4.4h-1.4v-2.2l-.2-.9-.1-.7-.2-.7-.1-.6v-.8c0-.5 0-1 .2-1.3l.8-1.1c.3-.3.9-.5 1.4-.7a6 6 0 0 1 1.8-.2 6 6 0 0 1 1.9.3c.5.1 1 .4 1.2.7.4.3.6.7.8 1.1l.2 1.5V23h-1.4v-5.5l-.1-1.1a2 2 0 0 0-1.4-1.3c-.4-.2-.8-.2-1.2-.2l-1.2.1-1 .5-.5.7a2 2 0 0 0-.2 1l.1 1 .2 1 .2 1.2.2 1.4.5-.4.6-.5.6-.5.2-.4Zm1-1.5c0-.3 0-.4-.2-.6s-.3-.2-.5-.2l-.6.2-.2.6c0 .2 0 .4.2.5.1.2.3.2.6.2s.4 0 .5-.2l.2-.5Zm2.7-11.9V7l-.3.4-.2.3-.3.3c.5 0 1 0 1.2-.2l.8-.5.3-.8V5.3h1.2a9 9 0 0 1 0 1.6c-.2.4-.3.8-.6 1s-.5.6-1 .7c-.5.2-1 .3-1.8.3h-1V8c.2 0 .3-.2.4-.3l.2-.3.2-.3.1-.3-.3.2h-.4c-.2 0-.4 0-.5-.2l-.2-.7c0-.3 0-.5.2-.6s.4-.3.8-.3l.5.1.4.3.3.4v.5Zm-1.6-.4v.3h.6V6l-.3-.1c-.2 0-.3.1-.3.3Zm9.7 17-.9-.1-.6-.3-.5-.6c0-.3-.2-.6-.4-1l-.4-1.1-.4.1c-.2.1-.2 0-.4 0-.5 0-.9 0-1.1-.4-.3-.2-.5-.6-.5-1s.2-1 .5-1.2c.3-.3.6-.4 1.2-.4l.6.1c.2 0 .3.2.5.3l.4.6.3.8.8 2c.1.4.2.7.4.8.1.2.3.2.5.2l.6-.2.2-.7v-3.8c0-.4 0-.7-.2-1l-.4-.7-.8-.5-1.1-.1c-.5 0-1 0-1.5.2a7 7 0 0 0-1.5.8l-.6-1c.5-.4 1-.6 1.6-.8a5.8 5.8 0 0 1 3.6-.1c.5.1.9.4 1.2.6s.6.7.8 1.1.2.9.2 1.4V22l-.4.6-.7.4a3 3 0 0 1-1 .2Zm-4.3-4.5c0 .3 0 .4.2.6s.3.2.6.2l.5-.2.2-.6c0-.3 0-.4-.2-.5-.1-.2-.3-.2-.6-.2l-.5.2c-.2.1-.2.3-.2.5Zm16 4.3H176v-5.8l-.1-1c0-.2-.2-.4-.4-.6a1 1 0 0 0-.6-.5l-.9-.2-1.4.3-1.3.7-.6-1c.4-.3 1-.5 1.5-.7a5 5 0 0 1 3.2-.1c.4.1.8.4 1 .7.3.2.6.6.7 1l.2 1.4V23Zm2 0v-3l.1-.8.3-.6.6-.4.8-.3-.5-.2-.6-.2-.6-.2h-.3c0-.5 0-1 .2-1.3l.7-1.1c.3-.3.7-.5 1.2-.7s1-.2 1.7-.2c.8 0 1.4 0 1.9.2s.9.5 1.2.8c.3.3.5.7.6 1.1l.2 1.5V23h-1.3v-5.4l-.2-1.1c0-.4-.2-.6-.4-.9l-.8-.5-1.2-.1-1.1.1a2 2 0 0 0-1.2.9l-.2.6a4 4 0 0 1 1.7.7l.3.3v.4l-.8.3c-.2 0-.4.2-.5.3l-.3.6-.1.7v3.2h-1.4Z"/>
</svg>
