<svg width="180" height="54" fill="none" xmlns="http://www.w3.org/2000/svg">
  <path d="M173.3 54H6.7A6.7 6.7 0 0 1 0 47.2V6.8C0 3 3 0 6.7 0h166.6a6.7 6.7 0 0 1 6.7 6.8v40.5c0 3.7-3 6.7-6.7 6.7Z" fill="#000"/>
  <path d="M27.6 26.2 13.4 41.5a3.8 3.8 0 0 0 5.7 2.3l16-9.3-7.5-8.3Z" fill="#EA4335"/>
  <path d="m42 23.6-7-4-7.7 7 7.8 7.9 6.9-4a3.9 3.9 0 0 0 2-3.5 4 4 0 0 0-2-3.4Z" fill="#FBBC04"/>
  <path d="M13.4 12.5a3.7 3.7 0 0 0-.1 1v27l.1 1 14.7-14.9-14.7-14Z" fill="#4285F4"/>
  <path d="m27.7 27 7.4-7.4-16-9.4a3.9 3.9 0 0 0-5.7 2.3L27.7 27Z" fill="#34A853"/>
  <path d="M142.6 40h2.5V23.3h-2.5V40ZM165 29.3l-2.9 7.3-3-7.3h-2.7l4.5 10.1-2.6 5.7h2.6l6.9-15.8H165Zm-14.1 8.8c-.8 0-2-.4-2-1.4 0-1.3 1.4-1.8 2.7-1.8 1 0 1.6.2 2.2.6a3 3 0 0 1-3 2.6Zm.3-9.1c-1.8 0-3.7.8-4.4 2.5l2.2 1c.4-1 1.3-1.3 2.2-1.3 1.3 0 2.6.8 2.7 2.2v.1a5.5 5.5 0 0 0-2.6-.6c-2.4 0-4.8 1.3-4.8 3.8 0 2.2 1.9 3.6 4 3.6a3.5 3.5 0 0 0 3.3-1.6V40h2.5v-6.4c0-3-2.2-4.6-5.1-4.6Zm-15.4 2.4h-3.5v-5.8h3.5a2.9 2.9 0 0 1 3 3 2.9 2.9 0 0 1-3 2.8Zm0-8h-6V40h2.5v-6.3h3.5c2.7 0 5.4-2 5.4-5.2s-2.7-5.2-5.4-5.2ZM103.3 38c-1.8 0-3.2-1.4-3.2-3.4s1.4-3.5 3.1-3.5c1.7 0 3 1.5 3 3.5s-1.3 3.4-3 3.4Zm2.8-7.8h-.1a4 4 0 0 0-3-1.3 5.6 5.6 0 0 0-5.4 5.7c0 3.2 2.6 5.6 5.4 5.6a4 4 0 0 0 3-1.2v.8c0 2.1-1 3.3-3 3.3a3.1 3.1 0 0 1-2.8-2L98 42a5.4 5.4 0 0 0 5 3.3c3 0 5.5-1.7 5.5-5.9v-10H106v.9Zm4 9.7h2.6V23.3h-2.5V40Zm6.3-5.5a3.1 3.1 0 0 1 3-3.3c.9 0 1.7.5 2 1.2l-5 2.1Zm7.7-1.9c-.5-1.3-2-3.6-4.9-3.6-2.9 0-5.3 2.3-5.3 5.7 0 3.1 2.4 5.6 5.6 5.6 2.6 0 4.1-1.5 4.7-2.5l-1.9-1.3a3.2 3.2 0 0 1-2.8 1.6 2.9 2.9 0 0 1-2.7-1.7l7.5-3.1-.2-.7Zm-60.4-1.9V33h5.7a5 5 0 0 1-1.3 3 5.9 5.9 0 0 1-4.4 1.8 6.3 6.3 0 0 1-6.3-6.4A6.3 6.3 0 0 1 68 27l1.7-1.7a8.4 8.4 0 0 0-6-2.5 9 9 0 0 0-9 8.8 9 9 0 0 0 9 8.8 8 8 0 0 0 6.1-2.4c1.6-1.6 2-3.8 2-5.6a7.8 7.8 0 0 0 0-1.5h-8.1ZM78.4 38c-1.7 0-3.2-1.4-3.2-3.4s1.5-3.5 3.2-3.5c1.8 0 3.2 1.4 3.2 3.5 0 2-1.4 3.4-3.2 3.4Zm0-9a5.6 5.6 0 0 0-5.7 5.6 5.6 5.6 0 0 0 5.7 5.6 5.6 5.6 0 0 0 5.7-5.6 5.6 5.6 0 0 0-5.7-5.7ZM91 38c-1.8 0-3.2-1.4-3.2-3.4s1.4-3.5 3.2-3.5c1.7 0 3.2 1.4 3.2 3.5 0 2-1.5 3.4-3.2 3.4Zm0-9a5.6 5.6 0 0 0-5.7 5.6 5.6 5.6 0 0 0 5.7 5.6 5.6 5.6 0 0 0 5.7-5.6 5.6 5.6 0 0 0-5.7-5.7ZM58.8 13.8a.5.5 0 0 0-.2-.4.6.6 0 0 0-.4-.2c-.2 0-.3 0-.4.2l-.2.4c0 .2 0 .3.2.4l.4.2c.1 0 .3 0 .4-.2l.2-.4ZM58 15c-.3 0-.6 0-.8-.3-.2-.2-.2-.5-.2-.8 0-.4 0-.6.3-.8.2-.2.5-.3.9-.3s.7 0 .9.3c.2.2.3.5.3 1a2.1 2.1 0 0 1-.3 1c0 .2-.2.3-.3.4a6.7 6.7 0 0 1-1 .9 39.1 39.1 0 0 1-.9.7l-.3.2h-1v-.7a8.8 8.8 0 0 0-.4-2.6 6.6 6.6 0 0 1-.2-1 2.4 2.4 0 0 1 1-2l1-.5 1.3-.2c.6 0 1 0 1.4.2a2.2 2.2 0 0 1 1.5 1.4c.2.4.2.7.2 1.1v4.2h-1v-4l-.1-1a1.6 1.6 0 0 0-1-1 3.2 3.2 0 0 0-1.9 0l-.7.4-.4.5-.2.7.1.8.2.8.1.9.1 1 .4-.3a15.8 15.8 0 0 0 1-.7.7.7 0 0 0 .1-.4Z" fill="#fff"/>
  <path d="m58.8 13.9-.1-.5a.7.7 0 0 0-.5-.2.8.8 0 0 0-.5.2.7.7 0 0 0-.2.5c0 .2 0 .4.2.5l.5.2a.7.7 0 0 0 .5-.2l.2-.5h-.3a.4.4 0 0 1-.1.3.5.5 0 0 1-.3.1.4.4 0 0 1-.4 0 .4.4 0 0 1 0-.4v-.3a.5.5 0 0 1 .4-.1h.3l.1.4h.2ZM58 15a1 1 0 0 1-.7-.4 1 1 0 0 1-.2-.7 1 1 0 0 1 .3-.7c.2-.2.4-.3.8-.3s.6 0 .8.3c.2.2.3.4.3.8a2 2 0 0 1-.6 1.5 6.6 6.6 0 0 1-1 .8 44.4 44.4 0 0 1-.9.7l-.3.2.1.1v-.1h-1v-.6a9.1 9.1 0 0 0 0-1.6 8.8 8.8 0 0 0-.3-1 4 4 0 0 1-.1-1 2 2 0 0 1 .8-1.8 3 3 0 0 1 1-.5l1.2-.1c.6 0 1 0 1.4.2.4 0 .7.3 1 .5l.4.8.2 1v4.1h-.8v-4l-.1-.9a1.7 1.7 0 0 0-1.1-1 3.4 3.4 0 0 0-2 0 1 1 0 0 0-.7.3 1.6 1.6 0 0 0-.6 1.3v.8l.2.8.2.9.1 1v.3l.2-.2.4-.3.5-.3.4-.4a.8.8 0 0 0 .3-.4v-.2H58v.2l-.2.2a15.5 15.5 0 0 1-.9.7 3 3 0 0 0-.4.3l.1.1h.2a9.6 9.6 0 0 0-.3-2l-.2-.7v-.8l.1-.6.4-.5.6-.3a3 3 0 0 1 1.8 0 1.5 1.5 0 0 1 1 1v5h1.3V13l-.1-1a2.3 2.3 0 0 0-.6-1 2 2 0 0 0-1-.6l-1.5-.2c-.5 0-1 0-1.4.2a3 3 0 0 0-1 .5 2.4 2.4 0 0 0-.9 2 4.3 4.3 0 0 0 .1 1l.2.5a8.3 8.3 0 0 1 .2 2.1v.9h1.3l.3-.3a48.1 48.1 0 0 1 1-.7 7 7 0 0 0 .9-.9l.3-.4a2.2 2.2 0 0 0 .4-1.2c0-.4-.1-.8-.4-1a1.4 1.4 0 0 0-1-.4c-.4 0-.8.1-1 .4-.3.2-.4.5-.4 1 0 .3.1.6.3.8.2.2.5.4 1 .4V15Zm8.6 2.3h-1v-5l-.3-.6a1.2 1.2 0 0 0-.5-.3l-.7-.1a3 3 0 0 0-1 .2 5.1 5.1 0 0 0-1 .5l-.5-.7 1.2-.6a3.8 3.8 0 0 1 2.4-.1l.8.5.5.8.1 1v4.4Z" fill="#fff"/>
  <path d="M66.6 17.3v-.1h-.8v-4.3l-.1-.7a1.6 1.6 0 0 0-.3-.6c-.2-.1-.3-.3-.5-.3a1.6 1.6 0 0 0-.8-.2 3 3 0 0 0-1 .2l-1 .6v.1h.1l-.4-.8h-.2l.1.2a3 3 0 0 1 1.1-.6 3.7 3.7 0 0 1 2.4 0 2 2 0 0 1 .7.4l.4.7.2 1v4.4h.3V13c0-.4 0-.7-.2-1a2.3 2.3 0 0 0-1.4-1.4 4 4 0 0 0-2.5 0l-1.1.7h-.1l.5.9v.1h.2a4 4 0 0 1 1-.6l1-.2.5.1c.2 0 .3.2.5.3l.2.5v5.1h1.4v-.2h-.2Zm3.6-1 .1.4.5.2c.1 0 .3 0 .4-.2l.1-.4-.1-.4a.6.6 0 0 0-.4-.2.6.6 0 0 0-.5.2l-.1.4Zm-.7 0c0-.4.1-.7.3-.9.2-.2.5-.3.9-.3h.2v-2.8a1.6 1.6 0 0 0-.3-.6 1.3 1.3 0 0 0-.4-.3l-.7-.1-1 .1a4 4 0 0 0-1 .6l-.5-.7a4.2 4.2 0 0 1 1.1-.6 3.8 3.8 0 0 1 2.5-.1l.8.5.4.8.2 1v3.4c0 .4-.1.6-.3.8-.2.2-.5.3-1 .3-.3 0-.6 0-.8-.3a1.1 1.1 0 0 1-.4-.8Z" fill="#fff"/>
  <path d="M70.2 16.3H70c0 .2 0 .4.2.5l.5.2a.7.7 0 0 0 .5-.2.6.6 0 0 0 .2-.5.6.6 0 0 0-.2-.5.7.7 0 0 0-.5-.2.7.7 0 0 0-.5.2c-.2.1-.2.3-.2.5h.2l.1-.3.4-.1h.3a.4.4 0 0 1 .1.4l-.1.3a.4.4 0 0 1-.3.1h-.4v-.4h-.2Zm-.7 0h.2c0-.3 0-.6.2-.8l.8-.2v-.1h.1l.2.1h.1v-3a1.7 1.7 0 0 0-.4-.6 1.3 1.3 0 0 0-.5-.4 1.7 1.7 0 0 0-.7-.2 3.9 3.9 0 0 0-2.1.8h.2l-.5-.7H67v.2l1.2-.6a3.7 3.7 0 0 1 2.3 0 2 2 0 0 1 .7.4l.5.7.2 1v3.4a1 1 0 0 1-.3.7c-.2.2-.5.3-.8.3-.4 0-.7 0-.9-.3l-.2-.7h-.3c0 .4.1.7.4 1 .2.2.5.3 1 .3.4 0 .7-.1 1-.4.2-.2.3-.5.3-.9v-3.4l-.1-1a2.3 2.3 0 0 0-1.4-1.4 4 4 0 0 0-2.5 0l-1.2.7.5 1 .1-.1 1-.5 1-.2.6.1c.2 0 .3.2.4.3l.3.5v2.9h.2V15h-.3c-.4 0-.7.1-1 .3-.2.3-.3.6-.3 1h.1Zm9.8 0a.6.6 0 0 0-.2-.5l-.7-.2v.7l.1.4.3.1.4-.1a.6.6 0 0 0 0-.4Zm-5.9-4.7.2.4.4.2c.2 0 .3 0 .4-.2l.2-.4a.5.5 0 0 0-.2-.4.6.6 0 0 0-.4-.1.6.6 0 0 0-.4.1l-.1.4Zm5-1V15l.8.1.4.3c.2.1.2.3.3.4v.5c0 .4 0 .6-.2.8-.3.2-.6.3-1 .3a1.8 1.8 0 0 1-.6 0 .9.9 0 0 1-.6-.7 2.4 2.4 0 0 1 0-.6v-.4a2 2 0 0 0-.7.2 3.5 3.5 0 0 0-1.1.9l-.5.5h-1v-4.5h-.3c-.3 0-.6-.1-.8-.3-.2-.2-.3-.5-.3-.9 0-.3.1-.6.3-.8.2-.2.5-.3 1-.3.3 0 .6 0 .8.3.2.2.3.5.3.8v4.5a3 3 0 0 1 .5-.4 3.4 3.4 0 0 1 1.1-.6l.6-.1v-4.5h1Z" fill="#fff"/>
  <path d="M79.3 16.3h.1a.7.7 0 0 0-.2-.6l-.7-.2h-.2v.8l.1.5.4.1.5-.1a.7.7 0 0 0 .1-.5h-.2l-.1.3h-.5a.7.7 0 0 1 0-.3v-.7h-.2v.1l.6.2.2.4Zm-5.8-4.7h-.2c0 .2 0 .4.2.5l.5.2a.7.7 0 0 0 .7-.7c0-.2 0-.3-.2-.5a.7.7 0 0 0-.5-.2l-.5.2a.7.7 0 0 0-.2.5h.3l.1-.3.3-.1.4.1v.3a.4.4 0 0 1 0 .3.4.4 0 0 1-.4.2l-.3-.1a.4.4 0 0 1-.1-.4h-.1Zm5-1h-.2V15h.1c.3 0 .5 0 .7.2l.5.2.2.4v.4c0 .3 0 .6-.2.7-.2.2-.5.3-1 .3h-.5a.8.8 0 0 1-.3-.3.9.9 0 0 1-.2-.4 2.3 2.3 0 0 1 0-.5v-.6h-.2l-.6.3a4.6 4.6 0 0 0-1.7 1.5h.1v-.1h-.8v-4.6h-.5v.2-.1a1 1 0 0 1-.7-.3c-.2-.2-.3-.4-.3-.8s.1-.5.3-.7c.2-.2.5-.3.8-.3.4 0 .7.1.8.3.2.2.3.4.3.7v5l.3-.4a3.2 3.2 0 0 1 1.5-1h.6v-4.5h1v-.3h-1.2V15h.1v-.1a3.8 3.8 0 0 0-2.3 1.2h.3v-4.5c0-.4-.1-.7-.4-1a1.4 1.4 0 0 0-1-.3c-.4 0-.7.2-1 .4-.2.2-.3.6-.3 1 0 .3 0 .6.3.9.2.2.6.3 1 .3h.2v-.1H74v4.7h1.2v-.1A4.3 4.3 0 0 1 77 16l.6-.2v-.1h-.2v1a1 1 0 0 0 .8.8h.6c.5 0 .8 0 1-.3.3-.2.4-.5.4-.9v-.5a1.2 1.2 0 0 0-.4-.5 1.7 1.7 0 0 0-.5-.3 2.9 2.9 0 0 0-.7-.2v.2-4.6.2Zm-2.8-5c0 .2 0 .4.2.4l.4.2a.5.5 0 0 0 .3-.2l.2-.3a.5.5 0 0 0-.5-.5.5.5 0 0 0-.4.1.5.5 0 0 0-.2.4Zm1.7.1a.9.9 0 0 1-.3.7c-.2.2-.5.3-.8.3s-.7 0-.9-.3a1 1 0 0 1-.3-.7l.1-.5a.9.9 0 0 1 .3-.3l.6-.3.8-.1a10.1 10.1 0 0 0 1.8-.3.8.8 0 0 0 .3-.3l.1-.3h1l-.2.5a1 1 0 0 1-.3.4l-.6.3-.8.2a17.8 17.8 0 0 0-.8 0h-.2v.4l.2.4Z" fill="#fff"/>
  <path d="M75.7 5.7V6a.7.7 0 0 0 .6.2c.1 0 .3 0 .4-.2a.6.6 0 0 0 .2-.4.6.6 0 0 0-.6-.7.7.7 0 0 0-.5.2.6.6 0 0 0-.2.5h.3v-.3a.4.4 0 0 1 .4-.1l.2.1.1.3v.2l-.3.1H76a.3.3 0 0 1-.1-.3h-.2Zm1.7 0h-.2c0 .3 0 .5-.2.6a1 1 0 0 1-.7.3 1 1 0 0 1-.8-.3.8.8 0 0 1-.2-.6v-.4l.3-.3.5-.2.9-.2 1-.1a3 3 0 0 0 .7-.2c.2 0 .3-.2.4-.3l.2-.4h-.1v.1h.8v-.1l-.2.5a.9.9 0 0 1-.3.3l-.5.3a5 5 0 0 1-.8.1V5a23.7 23.7 0 0 0-.8 0h-.3l-.2.1.3.4v.3h.3a1 1 0 0 0-.1-.4l-.2-.3v.2h.2V5v.2a8 8 0 0 1 .8-.1l.9-.2.6-.3.3-.4.2-.6v-.2H79v.4a.6.6 0 0 1-.4.2 2.7 2.7 0 0 1-.6.2l-1 .2a5.4 5.4 0 0 0-1 .1 1.9 1.9 0 0 0-.5.3 1 1 0 0 0-.4.4l-.1.5c0 .3.1.6.3.8.3.2.6.3 1 .3s.6 0 .9-.3c.2-.2.3-.4.3-.8h-.1Zm7.5 10.6a.5.5 0 0 0-.1-.4.6.6 0 0 0-.4-.2c-.2 0-.3 0-.4.2l-.2.4c0 .2 0 .3.2.4l.4.2c.1 0 .3 0 .4-.2l.1-.4Zm-1.8-7.2c0-.5 0-.8-.3-1-.3-.3-.7-.5-1.2-.5h-.9l.1-1.2.4-.8c.2-.2.5-.4.8-.4l1-.2h3v.8h-3a2 2 0 0 0-.5 0 1 1 0 0 0-.4.3.9.9 0 0 0-.4.7c.5 0 .9 0 1.2.2.3 0 .5.2.7.4l.4.7.2 1v6h.3c.3 0 .6.2.8.4.2.2.3.4.3.8s-.1.6-.3.8c-.2.2-.5.3-1 .3-.3 0-.6 0-.8-.3-.2-.2-.4-.4-.4-.8V9Z" fill="#fff"/>
  <path d="m85 16.3-.1-.5a.7.7 0 0 0-.5-.2c-.2 0-.4 0-.5.2-.2.1-.2.3-.2.5l.2.5.5.2c.2 0 .4 0 .5-.2a.7.7 0 0 0 .2-.5h-.3l-.1.3-.3.1a.4.4 0 0 1-.4 0V16a.5.5 0 0 1 .4-.1h.3a.4.4 0 0 1 .1.4h.2Zm-1.8-7.2c0-.5 0-.9-.3-1.2-.3-.3-.8-.4-1.3-.4h-.9v.1h.1c0-.5 0-.9.2-1.2 0-.3.2-.6.3-.7l.7-.4 1-.1h3v.5h-3a2 2 0 0 0-.4 0L82 6a1 1 0 0 0-.3.3h.1c-.2.2-.2.4-.2.5V7h1.2l.7.5c.2.1.3.4.4.6l.1 1v6.2h.5v-.1c.3 0 .5.2.7.3.2.2.3.4.3.8 0 .3-.1.6-.3.7-.2.2-.5.3-.8.3-.4 0-.7 0-.8-.3-.2-.1-.3-.4-.3-.7V9H83v7.2c0 .4.1.7.4 1 .2.2.6.3 1 .3s.7-.1 1-.4c.2-.2.3-.5.3-1 0-.3 0-.6-.3-.9a1.3 1.3 0 0 0-1-.3h-.2v.2h.2v-6L84.3 8a1.9 1.9 0 0 0-.5-.8l-.8-.5a4.1 4.1 0 0 0-1.1 0 .8.8 0 0 1 .1-.3l.3-.3.3-.2h3.6v-1h-3L82 5l-.8.5a2 2 0 0 0-.4.8 6 6 0 0 0-.1 1.3v.2h1c.5 0 .9 0 1 .3.3.2.4.6.4 1h.1Z" fill="#fff"/>
  <path d="M91.6 11.6a.5.5 0 0 0-.1-.4.5.5 0 0 0-.4 0h-.3a.5.5 0 0 0-.1.4v.2l.1.2.2.1.2.2.2-.3a.6.6 0 0 0 .2-.4Zm-5.2 0 .1.4.5.2c.1 0 .3 0 .4-.2l.1-.4a.5.5 0 0 0-.1-.4.6.6 0 0 0-.4-.1.6.6 0 0 0-.5.1l-.1.4Zm6 5.7h-1v-3l-.1-.7-.2-.4-.9.8a8.9 8.9 0 0 0-1.5 2l-.5 1.3h-1v-4.5h-.3c-.4 0-.7-.1-.9-.3-.2-.2-.3-.5-.3-.9 0-.3.1-.6.3-.8.2-.2.6-.3 1-.3.3 0 .6 0 .9.3.2.2.3.5.3.8v3.9l.4-.8a8 8 0 0 1 1.3-1.4l.7-.5-.3-.2-.2-.3-.2-.3a1.2 1.2 0 0 1 0-.9 1 1 0 0 1 .7-.5l.5-.1h.5a1 1 0 0 1 .7.6v.5a1 1 0 0 1-.1.6 2 2 0 0 1-.5.5 2 2 0 0 1 .4.3l.1.4.1.5v3.4Z" fill="#fff"/>
  <path d="M91.6 11.6h.1a.6.6 0 0 0-.2-.5.6.6 0 0 0-.4-.1.6.6 0 0 0-.4.1.7.7 0 0 0-.2.5v.2l.2.2.2.2.2.2.4-.3c.2-.2.2-.3.2-.5h-.3v.4-.1l-.2.2H91l-.2-.2v-.2l-.1-.1h-.1l.2-.3h.5v.3h.2Zm-5.2 0h-.2l.2.5.6.2a.7.7 0 0 0 .7-.7l-.2-.5a.7.7 0 0 0-.5-.2l-.6.2a.7.7 0 0 0-.2.5h.3l.1-.3.4-.1.3.1.1.3a.4.4 0 0 1-.1.3.4.4 0 0 1-.3.2c-.2 0-.3 0-.4-.2a.4.4 0 0 1 0-.3h-.2Zm6 5.7v-.1h-1v-3.6l-.2-.5H91l-1 .8a9.1 9.1 0 0 0-1.5 2l-.5 1.4v-.1h-.8v-4.6h-.4v.2-.1a1 1 0 0 1-.8-.3l-.2-.8c0-.4 0-.5.2-.7.2-.2.5-.3.8-.3.4 0 .7.1.9.3.2.2.2.4.2.7V16l.3-.5.5-.7a8 8 0 0 1 1.2-1.4l.7-.5.1-.1-.4-.3-.2-.3-.1-.3v-.3l.1-.4a.8.8 0 0 1 .2-.3l.3-.2a1.6 1.6 0 0 1 1 0 .8.8 0 0 1 .5.5 1 1 0 0 1 .1.4l-.1.5a2 2 0 0 1-.5.5v.2c.2 0 .3.2.3.3a1.5 1.5 0 0 1 .3.8v3.4h.3v-3.5a2.1 2.1 0 0 0-.1-.4 1.7 1.7 0 0 0-.2-.4l-.4-.4v.2l.5-.5.2-.7-.1-.5a1.1 1.1 0 0 0-.3-.4l-.5-.3a1.8 1.8 0 0 0-1 0 1 1 0 0 0-.7.7 1.4 1.4 0 0 0 0 1v.2h.1l.2.3.3.3.1-.1v-.1a8.5 8.5 0 0 0-1.5 1.2 8 8 0 0 0-1 1.5h.2v-3.8c0-.3-.1-.7-.4-1a1.4 1.4 0 0 0-1-.2c-.4 0-.7 0-1 .3-.2.2-.3.6-.3 1 0 .3.1.7.3.9.3.2.6.3 1 .3h.3v-.1H87v4.7h1.3v-.1a6.7 6.7 0 0 1 1.2-2.4 9 9 0 0 1 1.7-1.7H91v.3l.1.7v3.2h1.3v-.2h-.1Zm3.2-1a.5.5 0 0 0-.1-.4.6.6 0 0 0-.4-.2c-.2 0-.3 0-.4.2l-.2.4.1.4.5.2c.1 0 .3 0 .4-.2l.2-.4Zm4.1 1h-1a8.6 8.6 0 0 0-.5-1.2 5.7 5.7 0 0 0-.6-1c-.3-.3-.5-.6-.8-.7a1.6 1.6 0 0 0-.8-.3h-.5a1 1 0 0 0-.3.2l-.3.3a.8.8 0 0 0 0 .4v.2h.2c.4 0 .7 0 .9.3.2.2.3.4.3.8s-.1.6-.3.8c-.2.2-.5.3-1 .3-.3 0-.6 0-.8-.3a1.1 1.1 0 0 1-.4-.8V15l.1-.7.4-.5.6-.4.9-.1c.3 0 .7 0 1 .2l.8.5a4.3 4.3 0 0 1 1.1 1.7v-2.4l-.1-.9-.5-.6-.6-.4a2.8 2.8 0 0 0-.9-.1 4.3 4.3 0 0 0-2.5.7l-.5-.7c.4-.3.8-.5 1.3-.6a5.6 5.6 0 0 1 3 0 2.4 2.4 0 0 1 1.6 1.4c.2.3.2.7.2 1.2v4Z" fill="#fff"/>
  <path d="m95.7 16.3-.1-.5a.7.7 0 0 0-.5-.2.7.7 0 0 0-.7.7c0 .2 0 .4.2.5l.5.2c.2 0 .4 0 .5-.2a.7.7 0 0 0 .2-.5h-.3l-.1.3-.3.1a.4.4 0 0 1-.3 0l-.2-.4a.4.4 0 0 1 .2-.3.4.4 0 0 1 .3-.1h.3a.4.4 0 0 1 .1.4h.2Zm4 1v-.1h-1v.1h.2a8.8 8.8 0 0 0-.5-1.3l-.7-1c-.3-.3-.5-.6-.8-.7a1.7 1.7 0 0 0-1-.3h-.4a1 1 0 0 0-.4.2l-.3.3a1 1 0 0 0 0 .5v.3h.4v-.1c.3 0 .5.2.7.4.2.1.3.4.3.7a1 1 0 0 1-.3.7c-.2.2-.5.3-.8.3-.4 0-.7 0-.8-.3-.2-.1-.3-.4-.3-.7v-2c0-.2.2-.3.4-.5l.5-.3h.9l1 .1.7.5a4.1 4.1 0 0 1 1 1.6l.3.7v-3l-.1-1a1.9 1.9 0 0 0-1.2-1.1 3 3 0 0 0-.9-.2 4.5 4.5 0 0 0-2.6.8l.1.1h.1l-.4-.8h-.2l.1.2a4.5 4.5 0 0 1 1.3-.6 5.5 5.5 0 0 1 2.9 0 2.2 2.2 0 0 1 1.5 1.3l.2 1.2v4h.3v-4l-.2-1.3a2.5 2.5 0 0 0-.7-1 2.8 2.8 0 0 0-1-.5 5.8 5.8 0 0 0-3.1 0 5 5 0 0 0-1.3.7h-.1l.6 1a4.2 4.2 0 0 1 2.5-.8l.8.1a1.6 1.6 0 0 1 1 1l.2.8v2.4h.2a4.4 4.4 0 0 0-1-1.8 3.4 3.4 0 0 0-1-.5 2.6 2.6 0 0 0-1-.3c-.4 0-.7 0-1 .2l-.6.4-.4.5a2.1 2.1 0 0 0 0 .8v1.3c0 .4 0 .7.3 1 .2.2.6.3 1 .3s.7-.1 1-.4c.2-.2.3-.5.3-.9s0-.7-.3-1a1.3 1.3 0 0 0-1-.3h-.3v.2h.2v-.6l.3-.2h-.1l.4-.1h.4c.2 0 .5 0 .7.2l.8.6.6 1 .5 1.3h1.3-.2Zm5-3.4a.6.6 0 0 0-.1-.4.6.6 0 0 0-.5-.2c-.1 0-.3 0-.4.2l-.1.4.1.4.4.2c.2 0 .4 0 .5-.2a.5.5 0 0 0 .1-.4Zm-.7 1.2c-.3 0-.6-.2-.8-.4-.2-.2-.3-.5-.3-.8 0-.3.1-.6.4-.8.2-.2.5-.3.9-.3s.7 0 .9.3c.2.2.3.5.3 1a2.1 2.1 0 0 1-.7 1.5 6.8 6.8 0 0 1-.9.8 53.6 53.6 0 0 1-1 .7l-.2.2h-1v-.7a8.8 8.8 0 0 0-.5-2.6 6.8 6.8 0 0 1 0-1 2.2 2.2 0 0 1 .8-1.9l1-.5a4.5 4.5 0 0 1 1.3-.2c.5 0 1 0 1.4.2a2.2 2.2 0 0 1 1.5 1.5l.2 1v4.2h-1v-4c0-.4 0-.7-.2-1a1.6 1.6 0 0 0-1-1 3.2 3.2 0 0 0-1.8 0l-.7.4a1.5 1.5 0 0 0-.6 1.2v.8l.2.8.2.9.1 1 .4-.3a14.6 14.6 0 0 0 .9-.7.7.7 0 0 0 .2-.3Z" fill="#fff"/>
  <path d="M104.7 13.9h.2l-.2-.5a.7.7 0 0 0-.6-.2c-.2 0-.3 0-.5.2a.7.7 0 0 0-.2.5.7.7 0 0 0 .7.7.7.7 0 0 0 .6-.2l.2-.5h-.3a.4.4 0 0 1-.1.3.5.5 0 0 1-.4.1.4.4 0 0 1-.3 0 .4.4 0 0 1-.1-.4l.1-.3a.5.5 0 0 1 .3-.1h.4v.4h.2ZM104 15a1 1 0 0 1-.7-.4 1 1 0 0 1-.2-.7c0-.3 0-.6.2-.7.2-.2.5-.3.9-.3.3 0 .6 0 .8.3.2.2.2.4.2.8a2 2 0 0 1-.2 1l-.4.5a6.6 6.6 0 0 1-.8.8 44.4 44.4 0 0 1-1 .7l-.3.2v.1-.1h-.8v-.6a8.8 8.8 0 0 0-.2-1.6 8.7 8.7 0 0 0-.2-1 4 4 0 0 1-.2-1 2 2 0 0 1 .8-1.8 3 3 0 0 1 1-.5l1.3-.1c.5 0 1 0 1.4.2.4 0 .7.3.9.5l.5.8.2 1v4.1h-.8v-4l-.1-.9a1.8 1.8 0 0 0-1.2-1 3.5 3.5 0 0 0-1.9 0 1 1 0 0 0-.7.3 1.6 1.6 0 0 0-.6 1.3v.8l.2.8.2.9v1.3l.3-.2.4-.3.4-.3.5-.4a.8.8 0 0 0 .2-.4v-.2l-.1.2h-.1l-.2.2a14.2 14.2 0 0 1-.9.7l-.4.3.1.1h.1a9.5 9.5 0 0 0-.2-2l-.2-.7v-1.4l.5-.5.6-.3a3 3 0 0 1 1.8 0 1.5 1.5 0 0 1 1 1v5h1.3V13c0-.4 0-.7-.2-1a2.3 2.3 0 0 0-.5-1 2.8 2.8 0 0 0-1-.6l-1.5-.2c-.5 0-1 0-1.4.2a3 3 0 0 0-1 .5 2.4 2.4 0 0 0-1 2 5.8 5.8 0 0 0 .3 1.5 8.2 8.2 0 0 1 .3 2.1v.9h1.2l.4-.3a55.4 55.4 0 0 1 1-.7 7 7 0 0 0 .8-.9l.4-.4a2.1 2.1 0 0 0 .3-1.2c0-.4 0-.8-.3-1a1.4 1.4 0 0 0-1-.4c-.5 0-.8.1-1 .4-.3.2-.4.5-.4 1 0 .3.1.6.3.8.2.2.5.4.9.4V15Zm7.9 1.3a.6.6 0 0 0-.2-.4.6.6 0 0 0-.4-.2c-.2 0-.3 0-.4.2l-.2.4c0 .2 0 .3.2.4l.4.2a.6.6 0 0 0 .4-.2l.2-.4Zm-3.7-9.1.4-.8a6.7 6.7 0 0 1 .7-1.2l.4-.2.4-.1c.3 0 .6.1.7.3.2.3.3.6.3 1.1v8.9h.3c.4 0 .6 0 .8.3.2.2.3.4.3.8s0 .6-.3.8c-.2.2-.5.3-.9.3s-.7 0-.9-.3c-.2-.2-.3-.4-.3-.8V5.8l-.2-.1h-.1l-.1.1-.2.2-.1.4-1.1 2.1h-.7L107 5h1l.2 2.3Z" fill="#fff"/>
  <path d="M111.9 16.3h.1c0-.2 0-.4-.2-.5a.7.7 0 0 0-.5-.2c-.2 0-.4 0-.5.2l-.2.5c0 .2 0 .4.2.5l.5.2c.2 0 .4 0 .5-.2a.7.7 0 0 0 .2-.5h-.2c0 .1 0 .2-.2.3l-.3.1a.4.4 0 0 1-.3 0l-.1-.4V16a.4.4 0 0 1 .4-.1h.3a.4.4 0 0 1 .2.4Zm-3.7-9.1h.2l.3-.8a5 5 0 0 1 .7-1l.3-.3h.4c.3 0 .5 0 .6.2.2.2.3.5.3 1v9h.4v-.1c.3 0 .6.2.8.3l.2.8c0 .3 0 .6-.3.7-.1.2-.4.3-.8.3-.3 0-.6 0-.8-.3-.2-.1-.3-.4-.3-.7V5.8l-.2-.2h-.2l-.2.1-.2.2-.2.4h.2-.2l-1 2.1h-.5L107 5h.7l.4 2.6.1-.4-.3-2.4h-1.2l.6 3.9h1l1-2.3.3-.3h-.2.1l.2-.2h.2v10.4c0 .4 0 .7.3 1 .3.2.6.3 1 .3s.8-.1 1-.4c.3-.2.4-.5.4-1 0-.3-.1-.6-.4-.9a1.3 1.3 0 0 0-.9-.3h-.2v.2h.1V6.3c0-.5 0-.9-.3-1.2a1 1 0 0 0-.8-.3h-.5l-.4.4-.4.4-.3.7-.4.8h.1Zm8.6 6.7a.6.6 0 0 0-.2-.4.6.6 0 0 0-.4-.2c-.2 0-.3 0-.4.2l-.2.4c0 .2 0 .3.2.4l.4.2a.6.6 0 0 0 .4-.2l.2-.4ZM116 15a1.2 1.2 0 0 1-.8-.3l-.2-.8c0-.4 0-.6.3-.8.2-.2.5-.3.9-.3s.7 0 1 .3l.2 1a2.1 2.1 0 0 1-.3 1c0 .2-.2.3-.3.4a6.8 6.8 0 0 1-1 .9l-.4.3-.5.4-.3.2h-1v-.7a8.8 8.8 0 0 0-.4-2.6 5.9 5.9 0 0 1-.1-1 2.4 2.4 0 0 1 .8-1.9l1-.5a4.5 4.5 0 0 1 1.3-.2c.6 0 1 0 1.5.2a2.2 2.2 0 0 1 1.5 1.4l.1 1.1v4.2h-1v-4l-.1-1a1.6 1.6 0 0 0-1-1 3.2 3.2 0 0 0-1.9 0l-.7.4a1.5 1.5 0 0 0-.5 1.2v.8l.2.8.1.9.2 1 .3-.3a15.8 15.8 0 0 0 1-.7.7.7 0 0 0 .1-.3Z" fill="#fff"/>
  <path d="M116.8 13.9h.1c0-.2 0-.4-.2-.5a.7.7 0 0 0-.5-.2.7.7 0 0 0-.5.2.7.7 0 0 0-.2.5c0 .2 0 .4.2.5l.5.2a.7.7 0 0 0 .5-.2l.2-.5h-.3a.4.4 0 0 1 0 .3.5.5 0 0 1-.4.1.4.4 0 0 1-.3 0 .4.4 0 0 1-.2-.4c0-.2 0-.2.2-.3a.5.5 0 0 1 .3-.1h.3l.1.4h.2ZM116 15a1 1 0 0 1-.7-.4 1 1 0 0 1-.2-.7c0-.3.1-.6.3-.7.2-.2.4-.3.8-.3s.6 0 .8.3c.2.2.3.4.3.8a2 2 0 0 1-.6 1.5 6.6 6.6 0 0 1-1 .8 44.3 44.3 0 0 1-.9.7l-.3.2.1.1v-.1h-1v-.6a9.2 9.2 0 0 0 0-1.6 8.6 8.6 0 0 0-.3-1 4 4 0 0 1-.1-1 2.1 2.1 0 0 1 .8-1.8 3 3 0 0 1 1-.5l1.2-.1c.6 0 1 0 1.4.2.4 0 .7.3 1 .5l.4.8.2 1v4.1h-.7v-4l-.2-.9a1.7 1.7 0 0 0-1.1-1 3.4 3.4 0 0 0-2 0l-.6.3a1.6 1.6 0 0 0-.7 1.3v.8l.2.8a9.1 9.1 0 0 1 .3 2v.2l.2-.2.4-.3a14.7 14.7 0 0 0 1-.7.8.8 0 0 0 .2-.4v-.2h-.1v.2h-.2l-.2.2a15.6 15.6 0 0 1-.9.7l-.3.3v.1h.2a9.5 9.5 0 0 0-.3-2l-.2-.7v-.8l.1-.6.4-.5.7-.3a3 3 0 0 1 1.7 0 1.5 1.5 0 0 1 1 1v5h1.4V13l-.2-1a2.3 2.3 0 0 0-.6-1 2 2 0 0 0-1-.6l-1.5-.2c-.5 0-1 0-1.3.2a3 3 0 0 0-1 .5 2.4 2.4 0 0 0-1 2 4.2 4.2 0 0 0 .1 1l.2.5a8.8 8.8 0 0 1 .2 1.3v1.8h1.3l.3-.3a55.4 55.4 0 0 1 1-.7 6.8 6.8 0 0 0 .9-.9l.3-.4a2.2 2.2 0 0 0 .4-1.2c0-.4-.2-.8-.4-1a1.4 1.4 0 0 0-1-.4c-.4 0-.8.1-1 .4-.2.2-.4.5-.4 1 0 .3.1.6.3.8.3.2.6.4 1 .4V15Zm1.6-10.3v.2h.4v-.4h-.2c-.2 0-.2 0-.2.2Zm1.2.3v.3l-.2.3-.2.3-.2.2 1-.1.4-.4c.2-.2.2-.4.3-.7V4h1l-.2 1.3c0 .3-.1.6-.3.8l-.8.5a5 5 0 0 1-1.4.1h-.7v-.5l.3-.2.2-.2.1-.3v-.2l-.2.1h-.3a.5.5 0 0 1-.4-.1.8.8 0 0 1-.1-.5c0-.2 0-.4.2-.5l.5-.2h.5a.8.8 0 0 1 .3.3l.1.3V5Z" fill="#fff"/>
  <path d="M117.5 4.7V5l.3.2.2-.1.2-.3v-.3h-.1l-.2-.1-.4.1v.3h.2v-.1h.1v-.2.2h.1v.2h-.2v-.2h-.2Zm1.3.3h-.1l-.1.3-.2.3-.2.2-.4.4h.4l1-.1.5-.4c.2-.2.3-.5.3-.7V4h.8-.1v1a1.6 1.6 0 0 1-.4.8l-.8.4c-.3.2-.7.2-1.3.2h-.5V6l.1-.1.3-.3.1-.2.1-.3v-.3l-.4.3h-.3v.2-.2a.3.3 0 0 1-.3-.1.7.7 0 0 1 0-.4v-.4l.5-.2.4.1.3.2v-.1l.1.4.1-.1h-.1V5h.3v-.4l-.2-.4a1 1 0 0 0-.4-.3 1.2 1.2 0 0 0-.5 0c-.3 0-.5 0-.7.2a.8.8 0 0 0-.2.6c0 .2 0 .4.2.6l.5.2h.3l.3-.2v-.1h-.2v.2l-.1.2-.2.2-.2.2v.8h.7a5 5 0 0 0 1.4-.2c.4-.1.7-.3.9-.5l.4-1a7 7 0 0 0 0-1.1v-.1h-1V4l-.2 1c0 .2 0 .4-.2.5a1 1 0 0 1-.4.3l-1 .1v.2h.2l.1-.1.3-.3.1-.3.1-.4h-.1Zm2.8 9c0 .3 0 .4.2.5l.4.2.4-.2.2-.4a.6.6 0 0 0-.2-.4.6.6 0 0 0-.4-.2.6.6 0 0 0-.4.2l-.2.4Zm3.3 3.5-.7-.1a1.1 1.1 0 0 1-.5-.3 1.6 1.6 0 0 1-.3-.4 7.5 7.5 0 0 1-.4-.7l-.3-.9-.2.1h-.3c-.4 0-.7 0-1-.3l-.2-.8c0-.4 0-.6.3-.8.2-.2.5-.3.9-.3h.5l.3.3.3.4.3.6.6 1.6c0 .2.2.4.3.5l.4.2c.1 0 .3 0 .4-.2l.1-.5v-3.6a1.5 1.5 0 0 0-1-.9 2.4 2.4 0 0 0-.9-.1c-.3 0-.7 0-1 .2a5 5 0 0 0-1.2.5l-.4-.7c.3-.3.7-.5 1.2-.6a4.4 4.4 0 0 1 2.7-.1 3 3 0 0 1 .9.5 2.4 2.4 0 0 1 .8 1.8v3l-.1.6c0 .2-.2.4-.3.5a1 1 0 0 1-.5.4h-.7Z" fill="#fff"/>
  <path d="M121.6 14h-.1c0 .3 0 .5.2.6l.5.2c.2 0 .4 0 .5-.2l.2-.5c0-.2 0-.4-.2-.5a.7.7 0 0 0-.5-.2c-.2 0-.4 0-.5.2a.7.7 0 0 0-.2.5h.2c0-.2 0-.3.2-.3a.5.5 0 0 1 .3-.2c.1 0 .2 0 .3.2l.1.3-.1.3a.4.4 0 0 1-.3.1.5.5 0 0 1-.3 0v-.1l-.2-.3h-.1Zm3.3 3.4a2.7 2.7 0 0 1-.7-.1 1 1 0 0 1-.4-.3l-.3-.4-.3-.7-.3-.8V15h-.5l-.2.1v.1-.1c-.4 0-.7 0-.8-.3-.2-.1-.3-.4-.3-.7 0-.3 0-.6.3-.8l.8-.2h.4l.3.3.3.4.2.6.6 1.5c.1.3.2.5.4.6.1.2.3.2.5.2a.7.7 0 0 0 .5-.2l.2-.7V13c0-.3 0-.5-.2-.7a1.6 1.6 0 0 0-1-1 2.7 2.7 0 0 0-.9-.2l-1.1.2-1.1.6v.1h.1l-.4-.8h-.1v.2l1.2-.6a4.3 4.3 0 0 1 2.6 0c.4 0 .7.2.9.4l.5.7c.2.3.2.7.2 1v3.6l-.3.5a1 1 0 0 1-.4.2l-.7.1v.3l.8-.1a1.3 1.3 0 0 0 .8-1V13l-.1-1a2.3 2.3 0 0 0-.6-.9 2.8 2.8 0 0 0-1-.5 4.5 4.5 0 0 0-2.8 0l-1.2.7h-.1l.5.9v.1h.2a3.3 3.3 0 0 1 2.1-.7c.3-.1.6 0 .8 0l.6.4.3.5.1.6V16l-.1.4a.4.4 0 0 1-.3.2.4.4 0 0 1-.3-.2 1.7 1.7 0 0 1-.3-.5l-.6-1.5a7 7 0 0 0-.3-.7l-.3-.4a1.1 1.1 0 0 0-.4-.3 1.5 1.5 0 0 0-.5 0c-.4 0-.8 0-1 .3a1.3 1.3 0 0 0-.4.9c0 .4.1.7.4 1 .2.2.6.3 1 .3h.3l.2-.1.2.7.4.8.3.4.6.3h.7Zm8.7 0h-1v-5.2l-.3-.5a1.2 1.2 0 0 0-.5-.3l-.7-.1a3 3 0 0 0-1 .2 4.6 4.6 0 0 0-1 .5l-.5-.7a4.7 4.7 0 0 1 1.2-.6 3.8 3.8 0 0 1 2.4-.1 2.1 2.1 0 0 1 1.3 1.3l.1 1v4.4Z" fill="#fff"/>
  <path d="M133.6 17.3v-.1h-.8v-4.3l-.1-.7a1.6 1.6 0 0 0-.3-.6 1.2 1.2 0 0 0-.6-.3l-.7-.2a3 3 0 0 0-1 .2l-1 .6v.1h.1l-.4-.8h-.2l.1.2a3 3 0 0 1 1.1-.6 3.7 3.7 0 0 1 2.3 0 1.9 1.9 0 0 1 1.2 1.1l.2 1v4.4h.3V13c0-.4 0-.7-.2-1a2.3 2.3 0 0 0-1.3-1.4 4 4 0 0 0-2.6 0l-1.1.7h-.1l.5.9v.1h.2a3.7 3.7 0 0 1 2-.8l.5.1c.2 0 .3.2.5.3a2 2 0 0 1 .3 1.1v4.6h1.3v-.2h-.2Zm1.6 0v-2.9a1.2 1.2 0 0 1 .7-.8l.6-.2a1.4 1.4 0 0 0-.3-.2 3.5 3.5 0 0 0-1.2-.3c0-.3 0-.7.2-1a2.3 2.3 0 0 1 1.4-1.3 4 4 0 0 1 1.3-.2c.6 0 1 0 1.4.2a2.1 2.1 0 0 1 1.4 1.4l.1 1.1v4.2h-1v-5a1.4 1.4 0 0 0-1-1 2.6 2.6 0 0 0-.9 0h-.8l-.6.3a1.2 1.2 0 0 0-.3.4l-.2.4a2.4 2.4 0 0 1 1 .4l.3.2.2.2v.4l-.6.1-.4.3a1 1 0 0 0-.2.4 1.8 1.8 0 0 0 0 .6v2.3h-1.1Z" fill="#fff"/>
  <path d="M135.2 17.3h.1V15l.1-.6.2-.4.4-.3a3 3 0 0 1 .6-.1l.2-.1-.2-.2a1.3 1.3 0 0 0-.4-.2 3.5 3.5 0 0 0-1.2-.3v.1h.1l.2-1a2 2 0 0 1 .5-.7l.9-.5 1.2-.1c.5 0 1 0 1.4.2.3 0 .6.3.8.5l.5.8a4 4 0 0 1 0 1v4.1h-.7v-4.8a1.6 1.6 0 0 0-1-1.1l-1-.2a3 3 0 0 0-.9.1 2.1 2.1 0 0 0-.6.3 1.4 1.4 0 0 0-.5 1h.1a3 3 0 0 1 1.2.6V13v.1l.2.2v.3h.1v-.2a3 3 0 0 0-.6.2l-.5.3-.2.5-.1.6v2.2h-.9v.3h1.1V15l.1-.5a.9.9 0 0 1 .2-.4 1 1 0 0 1 .4-.2l.5-.2h.1v-.5l-.2-.3a3.1 3.1 0 0 0-1.3-.6v.1l.2-.3c0-.2.2-.3.3-.4l.5-.2.8-.1.8.1a1.3 1.3 0 0 1 .9 1v5h1.4V13a4 4 0 0 0-.2-1 2.2 2.2 0 0 0-1.5-1.6l-1.4-.2c-.5 0-1 0-1.3.2a2.3 2.3 0 0 0-1.5 1.4 3 3 0 0 0-.2 1v.2h.4a3.4 3.4 0 0 1 .8.2l.3.2h.1v-.2l-.6.2a1.3 1.3 0 0 0-.8.8v3.2h.1v-.2Z" fill="#fff"/>
</svg>
