<svg width="270" height="80" fill="none" xmlns="http://www.w3.org/2000/svg">
  <g clip-path="url(#a)">
    <mask id="b" style="mask-type:luminance" maskUnits="userSpaceOnUse" x="-21" y="-20" width="311" height="121">
      <path d="M-20-20h310v120H-20V-20Z" fill="#fff"/>
    </mask>
    <g mask="url(#b)">
      <path d="M260 80H10A10 10 0 0 1 0 70V10A10 10 0 0 1 10 0h250a10 10 0 0 1 10 10v60a10 10 0 0 1-10 10Z" fill="#000"/>
    </g>
    <mask id="c" style="mask-type:luminance" maskUnits="userSpaceOnUse" x="-21" y="-20" width="311" height="121">
      <path d="M-20-20h310v120H-20V-20Z" fill="#fff"/>
    </mask>
    <g mask="url(#c)">
      <path d="M213.9 60h3.7V35h-3.7v25Zm33.6-16-4.3 10.8h-.1L238.6 44h-4l6.7 15.2-3.8 8.4h3.9L251.6 44h-4.1Zm-21.2 13.2c-1.2 0-3-.6-3-2.2 0-1.9 2.2-2.6 4-2.6 1.7 0 2.5.3 3.5.8-.3 2.3-2.3 4-4.5 4Zm.5-13.7c-2.7 0-5.5 1.2-6.7 3.8l3.3 1.4c.7-1.4 2-1.9 3.4-1.9 2 0 4 1.2 4 3.3v.2c-.7-.4-2.2-1-4-1-3.5 0-7.1 2-7.1 5.7 0 3.3 2.9 5.5 6.2 5.5 2.5 0 3.9-1.1 4.7-2.5h.2v2h3.6v-9.6c0-4.5-3.3-7-7.6-7Zm-23 3.6h-5.4v-8.6h5.3c2.8 0 4.4 2.3 4.4 4.3 0 1.9-1.6 4.3-4.4 4.3Zm-.2-12.1h-9v25h3.8v-9.5h5.2c4.1 0 8.2-3 8.2-7.7 0-4.8-4-7.8-8.2-7.8Zm-48.8 22.2c-2.5 0-4.7-2.2-4.7-5.2s2.2-5.1 4.8-5.1c2.5 0 4.5 2.1 4.5 5.1 0 3-2 5.2-4.6 5.2Zm4.3-11.8c-1-1-2.5-1.9-4.6-1.9a8.5 8.5 0 0 0-8.1 8.5c0 4.8 3.9 8.5 8.1 8.5 2 0 3.7-.9 4.5-2h.1v1.3c0 3.3-1.7 5-4.5 5a4.7 4.7 0 0 1-4.3-3l-3.2 1.3a8 8 0 0 0 7.5 5c4.4 0 8-2.5 8-8.8V44h-3.5v1.4Zm6.2 14.6h3.7V35h-3.7v25Zm9.2-8.2c0-3.3 2.6-5 4.4-5 1.5 0 2.8.7 3.2 1.8l-7.6 3.2Zm11.6-2.9c-.7-1.9-2.9-5.4-7.3-5.4s-8 3.5-8 8.5c0 4.8 3.6 8.5 8.4 8.5 4 0 6.2-2.4 7.1-3.8l-2.9-1.9a4.9 4.9 0 0 1-4.2 2.4c-1.9 0-3.2-.9-4-2.6l11.3-4.7-.4-1Zm-90.6-2.8v3.6h8.6c-.2 2-1 3.5-2 4.6a8.8 8.8 0 0 1-6.6 2.6 9.5 9.5 0 0 1-9.5-9.6 9.5 9.5 0 0 1 16-7l2.5-2.6c-2.1-2-5-3.6-9-3.6-7.3 0-13.4 6-13.4 13.2 0 7.3 6.1 13.2 13.4 13.2 4 0 6.9-1.3 9.2-3.7a12 12 0 0 0 3.1-8.4c0-.9 0-1.6-.2-2.3H95.5Zm22.1 11c-2.5 0-4.8-2-4.8-5 0-3.1 2.3-5.2 4.8-5.2 2.6 0 4.8 2 4.8 5.1 0 3-2.2 5.2-4.8 5.2Zm0-13.6a8.4 8.4 0 0 0-8.5 8.5c0 5 3.8 8.5 8.5 8.5 4.8 0 8.6-3.6 8.6-8.5 0-5-3.9-8.5-8.6-8.5Zm18.7 13.7c-2.6 0-4.8-2.2-4.8-5.2s2.2-5.1 4.8-5.1c2.5 0 4.8 2 4.8 5.1 0 3-2.3 5.2-4.8 5.2Zm0-13.7a8.4 8.4 0 0 0-8.6 8.5c0 5 3.9 8.5 8.6 8.5 4.7 0 8.5-3.6 8.5-8.5 0-5-3.8-8.5-8.5-8.5Z" fill="#fff"/>
    </g>
    <mask id="d" style="mask-type:luminance" maskUnits="userSpaceOnUse" x="-21" y="-20" width="311" height="121">
      <path d="M-20-20h310v120H-20V-20Z" fill="#fff"/>
    </mask>
    <g mask="url(#d)">
      <path d="M41.4 38.9 20.1 61.5a5.7 5.7 0 0 0 8.5 3.4l24-13.8-11.2-12.2Z" fill="#EA4335"/>
    </g>
    <mask id="e" style="mask-type:luminance" maskUnits="userSpaceOnUse" x="-21" y="-20" width="311" height="121">
      <path d="M-20-20h310v120H-20V-20Z" fill="#fff"/>
    </mask>
    <g mask="url(#e)">
      <path d="m63 35-10.4-6L41 39.4 52.7 51l10.2-6a5.8 5.8 0 0 0 .1-10Z" fill="#FBBC04"/>
    </g>
    <mask id="f" style="mask-type:luminance" maskUnits="userSpaceOnUse" x="-21" y="-20" width="311" height="121">
      <path d="M-20-20h310v120H-20V-20Z" fill="#fff"/>
    </mask>
    <g mask="url(#f)">
      <path d="M20.1 18.6 20 20v40l.2 1.5 22-22-22-21Z" fill="#4285F4"/>
    </g>
    <mask id="g" style="mask-type:luminance" maskUnits="userSpaceOnUse" x="-21" y="-20" width="311" height="121">
      <path d="M-20-20h310v120H-20V-20Z" fill="#fff"/>
    </mask>
    <g mask="url(#g)">
      <path d="m41.6 40 11-11-24-13.9a5.8 5.8 0 0 0-8.5 3.5L41.6 40Z" fill="#34A853"/>
    </g>
    <mask id="h" style="mask-type:luminance" maskUnits="userSpaceOnUse" x="-21" y="-20" width="311" height="121">
      <path d="M-20-20h310v120H-20V-20Z" fill="#fff"/>
    </mask>
    <g mask="url(#h)">
      <path d="M88.1 20.9c0-.3 0-.5-.2-.7a.9.9 0 0 0-.6-.2c-.3 0-.5 0-.7.2l-.2.7c0 .2 0 .4.2.6l.7.2c.2 0 .4 0 .6-.2.2-.2.2-.4.2-.6Zm-1 1.7c-.6 0-1-.2-1.2-.5-.3-.3-.5-.7-.5-1.2 0-.6.2-1 .5-1.3a2 2 0 0 1 1.4-.5c.6 0 1 .2 1.4.5.3.4.4.8.4 1.5v.8l-.4.8-.5.6a10.3 10.3 0 0 1-2.2 1.8 60.2 60.2 0 0 0-1.1.9h-1.6v-1a13.1 13.1 0 0 0-.5-4 9.3 9.3 0 0 1-.2-1.6c0-.5 0-1 .3-1.5.2-.5.5-.9 1-1.2.3-.4.8-.6 1.4-.8.6-.2 1.3-.3 2-.3.9 0 1.6.1 2.2.3.6.2 1 .5 1.4.9.4.4.7.8.8 1.3.2.5.3 1 .3 1.6V26h-1.5v-6.2l-.2-1.2a2.4 2.4 0 0 0-1.6-1.5c-.4-.2-.9-.2-1.4-.2L86 17a3 3 0 0 0-1 .5 2.2 2.2 0 0 0-1 1.9 24.3 24.3 0 0 0 .6 3.7l.2 1.5.6-.4a24.8 24.8 0 0 0 1.3-1.1l.3-.5Z" fill="#fff"/>
    </g>
    <mask id="i" style="mask-type:luminance" maskUnits="userSpaceOnUse" x="-21" y="-20" width="311" height="121">
      <path d="M-20-20h310v120H-20V-20Z" fill="#fff"/>
    </mask>
    <g mask="url(#i)">
      <path d="M88.1 20.9c0-.3 0-.5-.2-.7a.9.9 0 0 0-.6-.2c-.3 0-.5 0-.7.2l-.2.7c0 .2 0 .4.2.6l.7.2c.2 0 .4 0 .6-.2.2-.2.2-.4.2-.6Zm-1 1.7c-.6 0-1-.2-1.2-.5-.3-.3-.5-.7-.5-1.2 0-.6.2-1 .5-1.3a2 2 0 0 1 1.4-.5c.6 0 1 .2 1.4.5.3.4.4.8.4 1.5v.8l-.4.8-.5.6a10.3 10.3 0 0 1-2.2 1.8 60.2 60.2 0 0 0-1.1.9h-1.6v-1a13.1 13.1 0 0 0-.5-4 9.3 9.3 0 0 1-.2-1.6c0-.5 0-1 .3-1.5.2-.5.5-.9 1-1.2.3-.4.8-.6 1.4-.8.6-.2 1.3-.3 2-.3.9 0 1.6.1 2.2.3.6.2 1 .5 1.4.9.4.4.7.8.8 1.3.2.5.3 1 .3 1.6V26h-1.5v-6.2l-.2-1.2a2.4 2.4 0 0 0-1.6-1.5c-.4-.2-.9-.2-1.4-.2L86 17a3 3 0 0 0-1 .5 2.2 2.2 0 0 0-1 1.9 24.3 24.3 0 0 0 .6 3.7l.2 1.5.6-.4a24.8 24.8 0 0 0 1.3-1.1l.3-.5Z" stroke="#fff" stroke-width=".3" stroke-miterlimit="10"/>
    </g>
    <mask id="j" style="mask-type:luminance" maskUnits="userSpaceOnUse" x="-21" y="-20" width="311" height="121">
      <path d="M-20-20h310v120H-20V-20Z" fill="#fff"/>
    </mask>
    <g mask="url(#j)">
      <path d="M100 26h-1.6v-6.6l-.1-1c0-.3-.2-.6-.4-.8l-.7-.5c-.3-.2-.6-.2-1-.2-.5 0-1 0-1.6.3l-1.4.8-.7-1.1 1.6-1a5.7 5.7 0 0 1 3.7 0c.5.2.9.4 1.2.8l.7 1.1c.2.5.3 1 .3 1.6V26Z" fill="#fff" stroke="#fff" stroke-width=".3" stroke-miterlimit="10"/>
    </g>
    <mask id="k" style="mask-type:luminance" maskUnits="userSpaceOnUse" x="-21" y="-20" width="311" height="121">
      <path d="M-20-20h310v120H-20V-20Z" fill="#fff"/>
    </mask>
    <g mask="url(#k)">
      <path d="M105.3 24.4c0 .3 0 .5.2.7l.7.2c.2 0 .4 0 .6-.2l.2-.7c0-.2 0-.4-.2-.6a.9.9 0 0 0-.6-.2c-.3 0-.5 0-.7.2l-.2.6Zm-1 0c0-.5.2-1 .5-1.2.3-.3.7-.5 1.2-.5a4.4 4.4 0 0 1 .5 0v-3.2c0-.4 0-.7-.2-1 0-.4-.2-.6-.4-.9l-.7-.5-1-.2c-.5 0-1 0-1.5.3a6 6 0 0 0-1.5.8l-.7-1.1 1.7-1a5.8 5.8 0 0 1 3.6 0 3.2 3.2 0 0 1 2 2l.2 1.5v5c0 .6-.2 1-.5 1.3a2 2 0 0 1-1.4.5c-.5 0-1-.2-1.3-.5-.3-.3-.5-.7-.5-1.3Z" fill="#fff"/>
    </g>
    <mask id="l" style="mask-type:luminance" maskUnits="userSpaceOnUse" x="-21" y="-20" width="311" height="121">
      <path d="M-20-20h310v120H-20V-20Z" fill="#fff"/>
    </mask>
    <g mask="url(#l)">
      <path d="M105.3 24.4c0 .3 0 .5.2.7l.7.2c.2 0 .4 0 .6-.2l.2-.7c0-.2 0-.4-.2-.6a.9.9 0 0 0-.6-.2c-.3 0-.5 0-.7.2l-.2.6Zm-1 0c0-.5.2-1 .5-1.2.3-.3.7-.5 1.2-.5a4.4 4.4 0 0 1 .5 0v-3.2c0-.4 0-.7-.2-1 0-.4-.2-.6-.4-.9l-.7-.5-1-.2c-.5 0-1 0-1.5.3a6 6 0 0 0-1.5.8l-.7-1.1 1.7-1a5.8 5.8 0 0 1 3.6 0 3.2 3.2 0 0 1 2 2l.2 1.5v5c0 .6-.2 1-.5 1.3a2 2 0 0 1-1.4.5c-.5 0-1-.2-1.3-.5-.3-.3-.5-.7-.5-1.3Z" stroke="#fff" stroke-width=".3" stroke-miterlimit="10"/>
    </g>
    <mask id="m" style="mask-type:luminance" maskUnits="userSpaceOnUse" x="-21" y="-20" width="311" height="121">
      <path d="M-20-20h310v120H-20V-20Z" fill="#fff"/>
    </mask>
    <g mask="url(#m)">
      <path d="M119 24.4a1 1 0 0 0-.4-.7c-.2-.1-.5-.3-1-.3v1l.2.6c0 .2.2.2.5.2.2 0 .3 0 .4-.2.2-.1.2-.3.2-.6Zm-8.8-7c0 .3 0 .5.2.7l.6.2c.3 0 .5 0 .7-.2l.2-.6c0-.3 0-.5-.2-.7a.9.9 0 0 0-.7-.2c-.2 0-.4 0-.6.2-.2.2-.2.4-.2.7Zm7.5-1.6v6.6c.4 0 .7.2 1 .3l.8.4.4.6v.7c0 .6 0 1-.4 1.3-.3.3-.8.5-1.5.5-.3 0-.6 0-.9-.2-.2 0-.4-.2-.5-.4-.2-.1-.3-.3-.4-.6v-1.5c-.4 0-.7.2-1 .3a5.3 5.3 0 0 0-1.7 1.3l-.6.9h-1.5v-6.9h-.5c-.5 0-1 0-1.2-.4-.4-.3-.5-.7-.5-1.2 0-.6.2-1 .5-1.3.3-.3.7-.5 1.3-.5.6 0 1 .2 1.4.5.3.3.5.7.5 1.3v6.7l.6-.6a5 5 0 0 1 1.7-.9l1-.2v-6.7h1.5Z" fill="#fff"/>
    </g>
    <mask id="n" style="mask-type:luminance" maskUnits="userSpaceOnUse" x="-21" y="-20" width="311" height="121">
      <path d="M-20-20h310v120H-20V-20Z" fill="#fff"/>
    </mask>
    <g mask="url(#n)">
      <path d="M119 24.4a1 1 0 0 0-.4-.7c-.2-.1-.5-.3-1-.3v1l.2.6c0 .2.2.2.5.2.2 0 .3 0 .4-.2.2-.1.2-.3.2-.6Zm-8.8-7c0 .3 0 .5.2.7l.6.2c.3 0 .5 0 .7-.2l.2-.6c0-.3 0-.5-.2-.7a.9.9 0 0 0-.7-.2c-.2 0-.4 0-.6.2-.2.2-.2.4-.2.7Zm7.5-1.6v6.6c.4 0 .7.2 1 .3l.8.4.4.6v.7c0 .6 0 1-.4 1.3-.3.3-.8.5-1.5.5-.3 0-.6 0-.9-.2-.2 0-.4-.2-.5-.4-.2-.1-.3-.3-.4-.6v-1.5c-.4 0-.7.2-1 .3a5.3 5.3 0 0 0-1.7 1.3l-.6.9h-1.5v-6.9h-.5c-.5 0-1 0-1.2-.4-.4-.3-.5-.7-.5-1.2 0-.6.2-1 .5-1.3.3-.3.7-.5 1.3-.5.6 0 1 .2 1.4.5.3.3.5.7.5 1.3v6.7l.6-.6a5 5 0 0 1 1.7-.9l1-.2v-6.7h1.5Z" stroke="#fff" stroke-width=".3" stroke-miterlimit="10"/>
    </g>
    <mask id="o" style="mask-type:luminance" maskUnits="userSpaceOnUse" x="-21" y="-20" width="311" height="121">
      <path d="M-20-20h310v120H-20V-20Z" fill="#fff"/>
    </mask>
    <g mask="url(#o)">
      <path d="M113.6 8.5c0 .2 0 .4.2.6l.6.2.5-.2c.2-.2.2-.4.2-.6 0-.2 0-.4-.2-.5a.8.8 0 0 0-.5-.2c-.2 0-.4 0-.6.2l-.2.5Zm2.5.1c0 .4-.2.8-.5 1-.3.3-.7.5-1.2.5s-1-.2-1.2-.4c-.4-.3-.5-.7-.5-1.2l.1-.7.5-.5c.2-.1.5-.3.8-.3l1.3-.2a20 20 0 0 0 2.6-.5c.3-.1.4-.3.5-.4l.2-.5h1.4l-.3.8c0 .3-.2.5-.4.6l-.8.4-1.3.2a28 28 0 0 0-1.6.3l.2.3.2.6Z" fill="#fff"/>
    </g>
    <mask id="p" style="mask-type:luminance" maskUnits="userSpaceOnUse" x="-21" y="-20" width="311" height="121">
      <path d="M-20-20h310v120H-20V-20Z" fill="#fff"/>
    </mask>
    <g mask="url(#p)">
      <path d="M113.6 8.5c0 .2 0 .4.2.6l.6.2.5-.2c.2-.2.2-.4.2-.6 0-.2 0-.4-.2-.5a.8.8 0 0 0-.5-.2c-.2 0-.4 0-.6.2l-.2.5Zm2.5.1c0 .4-.2.8-.5 1-.3.3-.7.5-1.2.5s-1-.2-1.2-.4c-.4-.3-.5-.7-.5-1.2l.1-.7.5-.5c.2-.1.5-.3.8-.3l1.3-.2a20 20 0 0 0 2.6-.5c.3-.1.4-.3.5-.4l.2-.5h1.4l-.3.8c0 .3-.2.5-.4.6l-.8.4-1.3.2a28 28 0 0 0-1.6.3l.2.3.2.6Z" stroke="#fff" stroke-width=".3" stroke-miterlimit="10"/>
    </g>
    <mask id="q" style="mask-type:luminance" maskUnits="userSpaceOnUse" x="-21" y="-20" width="311" height="121">
      <path d="M-20-20h310v120H-20V-20Z" fill="#fff"/>
    </mask>
    <g mask="url(#q)">
      <path d="M127.4 24.4c0-.2 0-.4-.2-.6a.9.9 0 0 0-.6-.2c-.3 0-.5 0-.7.2l-.2.6c0 .3 0 .5.2.7l.7.2c.2 0 .4 0 .6-.2l.2-.7Zm-2.7-10.7c0-.8-.2-1.3-.5-1.7-.4-.4-1-.5-1.8-.5H121l.1-2 .6-1.2c.3-.2.7-.5 1.1-.6l1.7-.2h4.4v1.2h-4.5l-.8.1-.6.3a1.3 1.3 0 0 0-.5 1.2l1.7.1 1.1.6c.3.3.5.7.6 1.1.2.5.2 1 .2 1.7v9h.5c.5 0 1 0 1.2.4.4.3.5.7.5 1.2 0 .6-.2 1-.5 1.3-.3.3-.7.5-1.3.5-.6 0-1-.2-1.4-.5-.3-.3-.5-.7-.5-1.3V13.7Z" fill="#fff"/>
    </g>
    <mask id="r" style="mask-type:luminance" maskUnits="userSpaceOnUse" x="-21" y="-20" width="311" height="121">
      <path d="M-20-20h310v120H-20V-20Z" fill="#fff"/>
    </mask>
    <g mask="url(#r)">
      <path d="M127.4 24.4c0-.2 0-.4-.2-.6a.9.9 0 0 0-.6-.2c-.3 0-.5 0-.7.2l-.2.6c0 .3 0 .5.2.7l.7.2c.2 0 .4 0 .6-.2l.2-.7Zm-2.7-10.7c0-.8-.2-1.3-.5-1.7-.4-.4-1-.5-1.8-.5H121l.1-2 .6-1.2c.3-.2.7-.5 1.1-.6l1.7-.2h4.4v1.2h-4.5l-.8.1-.6.3a1.3 1.3 0 0 0-.5 1.2l1.7.1 1.1.6c.3.3.5.7.6 1.1.2.5.2 1 .2 1.7v9h.5c.5 0 1 0 1.2.4.4.3.5.7.5 1.2 0 .6-.2 1-.5 1.3-.3.3-.7.5-1.3.5-.6 0-1-.2-1.4-.5-.3-.3-.5-.7-.5-1.3V13.7Z" stroke="#fff" stroke-width=".3" stroke-miterlimit="10"/>
    </g>
    <mask id="s" style="mask-type:luminance" maskUnits="userSpaceOnUse" x="-21" y="-20" width="311" height="121">
      <path d="M-20-20h310v120H-20V-20Z" fill="#fff"/>
    </mask>
    <g mask="url(#s)">
      <path d="M137.4 17.4c0-.2 0-.4-.2-.5a.7.7 0 0 0-.5-.2c-.3 0-.4 0-.5.2-.2 0-.2.3-.2.5v.3l.2.3.3.2.3.2.4-.4.2-.6Zm-7.8 0c0 .3 0 .5.2.7l.6.2c.3 0 .5 0 .7-.2l.2-.6c0-.3 0-.5-.2-.7a.9.9 0 0 0-.7-.2c-.2 0-.4 0-.6.2-.2.2-.2.4-.2.7Zm9 8.6H137v-5.6l-.4-.6a25.3 25.3 0 0 0-2.5 2.6 12.2 12.2 0 0 0-1.8 3.6h-1.6v-6.9h-.4c-.5 0-1 0-1.3-.4-.3-.3-.4-.7-.4-1.2 0-.6.1-1 .5-1.3.3-.3.7-.5 1.3-.5.6 0 1 .2 1.4.5.3.3.5.7.5 1.3v5.7l.7-1.1a11.6 11.6 0 0 1 1.9-2.1l1-.8a4 4 0 0 1-.4-.4 2.5 2.5 0 0 1-.6-.9v-1.2a1.4 1.4 0 0 1 1-.9h1.5l.6.3.4.6.1.7c0 .3 0 .6-.2.9l-.7.7.5.6a2.4 2.4 0 0 1 .4 1.2V26Z" fill="#fff"/>
    </g>
    <mask id="t" style="mask-type:luminance" maskUnits="userSpaceOnUse" x="-21" y="-20" width="311" height="121">
      <path d="M-20-20h310v120H-20V-20Z" fill="#fff"/>
    </mask>
    <g mask="url(#t)">
      <path d="M137.4 17.4c0-.2 0-.4-.2-.5a.7.7 0 0 0-.5-.2c-.3 0-.4 0-.5.2-.2 0-.2.3-.2.5v.3l.2.3.3.2.3.2.4-.4.2-.6Zm-7.8 0c0 .3 0 .5.2.7l.6.2c.3 0 .5 0 .7-.2l.2-.6c0-.3 0-.5-.2-.7a.9.9 0 0 0-.7-.2c-.2 0-.4 0-.6.2-.2.2-.2.4-.2.7Zm9 8.6H137v-5.6l-.4-.6a25.3 25.3 0 0 0-2.5 2.6 12.2 12.2 0 0 0-1.8 3.6h-1.6v-6.9h-.4c-.5 0-1 0-1.3-.4-.3-.3-.4-.7-.4-1.2 0-.6.1-1 .5-1.3.3-.3.7-.5 1.3-.5.6 0 1 .2 1.4.5.3.3.5.7.5 1.3v5.7l.7-1.1a11.6 11.6 0 0 1 1.9-2.1l1-.8a4 4 0 0 1-.4-.4 2.5 2.5 0 0 1-.6-.9v-1.2a1.4 1.4 0 0 1 1-.9h1.5l.6.3.4.6.1.7c0 .3 0 .6-.2.9l-.7.7.5.6a2.4 2.4 0 0 1 .4 1.2V26Z" stroke="#fff" stroke-width=".3" stroke-miterlimit="10"/>
    </g>
    <mask id="u" style="mask-type:luminance" maskUnits="userSpaceOnUse" x="-21" y="-20" width="311" height="121">
      <path d="M-20-20h310v120H-20V-20Z" fill="#fff"/>
    </mask>
    <g mask="url(#u)">
      <path d="m143.5 24.4-.3-.6a.9.9 0 0 0-.6-.2c-.3 0-.5 0-.6.2l-.3.6c0 .3.1.5.3.7l.6.2c.3 0 .5 0 .6-.2.2-.2.3-.4.3-.7Zm6 1.6h-1.4a12.8 12.8 0 0 0-1.7-3.4c-.4-.5-.8-.8-1.2-1a2.3 2.3 0 0 0-2-.3c-.1 0-.3 0-.4.2a1.2 1.2 0 0 0-.5 1v.3h.4c.6 0 1 0 1.3.4.3.3.4.7.4 1.2 0 .6-.1 1-.4 1.3a2 2 0 0 1-1.4.5c-.6 0-1-.2-1.4-.5-.3-.3-.4-.7-.4-1.3v-2l.1-1 .6-.8c.2-.2.5-.4.9-.5a4 4 0 0 1 1.3-.2l1.5.3c.5.3.9.5 1.3.9l1 1.1.6 1.3V20c0-.5-.1-1-.3-1.4a2 2 0 0 0-.6-1l-1-.5-1.3-.2a6.5 6.5 0 0 0-3.7 1.1l-.7-1.1a7 7 0 0 1 1.9-1 8.4 8.4 0 0 1 4.5 0c.6.2 1 .5 1.5.9.4.3.7.8.9 1.3.2.5.3 1.1.3 1.8V26Z" fill="#fff"/>
    </g>
    <mask id="v" style="mask-type:luminance" maskUnits="userSpaceOnUse" x="-21" y="-20" width="311" height="121">
      <path d="M-20-20h310v120H-20V-20Z" fill="#fff"/>
    </mask>
    <g mask="url(#v)">
      <path d="m143.5 24.4-.3-.6a.9.9 0 0 0-.6-.2c-.3 0-.5 0-.6.2l-.3.6c0 .3.1.5.3.7l.6.2c.3 0 .5 0 .6-.2.2-.2.3-.4.3-.7Zm6 1.6h-1.4a12.8 12.8 0 0 0-1.7-3.4c-.4-.5-.8-.8-1.2-1a2.3 2.3 0 0 0-2-.3c-.1 0-.3 0-.4.2a1.2 1.2 0 0 0-.5 1v.3h.4c.6 0 1 0 1.3.4.3.3.4.7.4 1.2 0 .6-.1 1-.4 1.3a2 2 0 0 1-1.4.5c-.6 0-1-.2-1.4-.5-.3-.3-.4-.7-.4-1.3v-2l.1-1 .6-.8c.2-.2.5-.4.9-.5a4 4 0 0 1 1.3-.2l1.5.3c.5.3.9.5 1.3.9l1 1.1.6 1.3V20c0-.5-.1-1-.3-1.4a2 2 0 0 0-.6-1l-1-.5-1.3-.2a6.5 6.5 0 0 0-3.7 1.1l-.7-1.1a7 7 0 0 1 1.9-1 8.4 8.4 0 0 1 4.5 0c.6.2 1 .5 1.5.9.4.3.7.8.9 1.3.2.5.3 1.1.3 1.8V26Z" stroke="#fff" stroke-width=".3" stroke-miterlimit="10"/>
    </g>
    <mask id="w" style="mask-type:luminance" maskUnits="userSpaceOnUse" x="-21" y="-20" width="311" height="121">
      <path d="M-20-20h310v120H-20V-20Z" fill="#fff"/>
    </mask>
    <g mask="url(#w)">
      <path d="M157 20.9c0-.3 0-.5-.2-.7a.9.9 0 0 0-.6-.2c-.2 0-.4 0-.6.2-.2.2-.2.4-.2.7 0 .2 0 .4.2.6l.6.2c.3 0 .5 0 .6-.2l.3-.6Zm-1 1.7c-.5 0-1-.2-1.2-.5-.3-.3-.4-.7-.4-1.2 0-.6.2-1 .5-1.3.3-.3.7-.5 1.3-.5.6 0 1 .2 1.4.5.3.4.5.8.5 1.5a3 3 0 0 1-1 2.2 10.3 10.3 0 0 1-2.1 1.8 60.2 60.2 0 0 0-1.1.9h-1.6v-1a13.1 13.1 0 0 0-.6-4 9.3 9.3 0 0 1-.2-1.6l.3-1.5a4 4 0 0 1 1-1.2c.4-.4.9-.6 1.5-.8.6-.2 1.2-.3 2-.3s1.5.1 2.1.3c.6.2 1 .5 1.5.9l.8 1.3.2 1.6V26h-1.5v-6.2c0-.4 0-.8-.2-1.2a2.4 2.4 0 0 0-1.6-1.5c-.4-.2-.8-.2-1.3-.2l-1.4.1a3 3 0 0 0-1 .5 2.2 2.2 0 0 0-.9 1.9l.1 1.2a24.3 24.3 0 0 0 .5 2.5l.2 1.5.5-.4a24.8 24.8 0 0 0 1.4-1.1l.3-.5Z" fill="#fff"/>
    </g>
    <mask id="x" style="mask-type:luminance" maskUnits="userSpaceOnUse" x="-21" y="-20" width="311" height="121">
      <path d="M-20-20h310v120H-20V-20Z" fill="#fff"/>
    </mask>
    <g mask="url(#x)">
      <path d="M157 20.9c0-.3 0-.5-.2-.7a.9.9 0 0 0-.6-.2c-.2 0-.4 0-.6.2-.2.2-.2.4-.2.7 0 .2 0 .4.2.6l.6.2c.3 0 .5 0 .6-.2l.3-.6Zm-1 1.7c-.5 0-1-.2-1.2-.5-.3-.3-.4-.7-.4-1.2 0-.6.2-1 .5-1.3.3-.3.7-.5 1.3-.5.6 0 1 .2 1.4.5.3.4.5.8.5 1.5a3 3 0 0 1-1 2.2 10.3 10.3 0 0 1-2.1 1.8 60.2 60.2 0 0 0-1.1.9h-1.6v-1a13.1 13.1 0 0 0-.6-4 9.3 9.3 0 0 1-.2-1.6l.3-1.5a4 4 0 0 1 1-1.2c.4-.4.9-.6 1.5-.8.6-.2 1.2-.3 2-.3s1.5.1 2.1.3c.6.2 1 .5 1.5.9l.8 1.3.2 1.6V26h-1.5v-6.2c0-.4 0-.8-.2-1.2a2.4 2.4 0 0 0-1.6-1.5c-.4-.2-.8-.2-1.3-.2l-1.4.1a3 3 0 0 0-1 .5 2.2 2.2 0 0 0-.9 1.9l.1 1.2a24.3 24.3 0 0 0 .5 2.5l.2 1.5.5-.4a24.8 24.8 0 0 0 1.4-1.1l.3-.5Z" stroke="#fff" stroke-width=".3" stroke-miterlimit="10"/>
    </g>
    <mask id="y" style="mask-type:luminance" maskUnits="userSpaceOnUse" x="-21" y="-20" width="311" height="121">
      <path d="M-20-20h310v120H-20V-20Z" fill="#fff"/>
    </mask>
    <g mask="url(#y)">
      <path d="M167.8 24.4c0-.2 0-.4-.2-.6a.9.9 0 0 0-.6-.2c-.3 0-.5 0-.7.2l-.2.6c0 .3 0 .5.3.7l.6.2c.2 0 .4 0 .6-.2.2-.2.2-.4.2-.7Zm-5.5-13.7.6-1.1.5-1 .5-.7.6-.4.7-.2c.4 0 .8.2 1 .6.3.3.5.8.5 1.6v13.3h.4c.5 0 1 0 1.3.4.3.3.4.7.4 1.2 0 .6-.1 1-.5 1.3-.3.3-.7.5-1.3.5-.6 0-1-.2-1.4-.5-.3-.3-.5-.7-.5-1.3V8.8c0-.2-.1-.2-.2-.2h-.2l-.2.1-.2.3-.3.6-1.6 3.2h-1l-1-5.5h1.5l.4 3.4Z" fill="#fff"/>
    </g>
    <mask id="z" style="mask-type:luminance" maskUnits="userSpaceOnUse" x="-21" y="-20" width="311" height="121">
      <path d="M-20-20h310v120H-20V-20Z" fill="#fff"/>
    </mask>
    <g mask="url(#z)">
      <path d="M167.8 24.4c0-.2 0-.4-.2-.6a.9.9 0 0 0-.6-.2c-.3 0-.5 0-.7.2l-.2.6c0 .3 0 .5.3.7l.6.2c.2 0 .4 0 .6-.2.2-.2.2-.4.2-.7Zm-5.5-13.7.6-1.1.5-1 .5-.7.6-.4.7-.2c.4 0 .8.2 1 .6.3.3.5.8.5 1.6v13.3h.4c.5 0 1 0 1.3.4.3.3.4.7.4 1.2 0 .6-.1 1-.5 1.3-.3.3-.7.5-1.3.5-.6 0-1-.2-1.4-.5-.3-.3-.5-.7-.5-1.3V8.8c0-.2-.1-.2-.2-.2h-.2l-.2.1-.2.3-.3.6-1.6 3.2h-1l-1-5.5h1.5l.4 3.4Z" stroke="#fff" stroke-width=".3" stroke-miterlimit="10"/>
    </g>
    <mask id="A" style="mask-type:luminance" maskUnits="userSpaceOnUse" x="-21" y="-20" width="311" height="121">
      <path d="M-20-20h310v120H-20V-20Z" fill="#fff"/>
    </mask>
    <g mask="url(#A)">
      <path d="M175.1 20.9c0-.3 0-.5-.2-.7a.9.9 0 0 0-.6-.2c-.3 0-.5 0-.6.2a1 1 0 0 0-.3.7c0 .2 0 .4.3.6l.6.2c.2 0 .4 0 .6-.2.2-.2.2-.4.2-.6Zm-1 1.7c-.6 0-1-.2-1.2-.5-.3-.3-.4-.7-.4-1.2 0-.6.1-1 .4-1.3.4-.3.8-.5 1.4-.5.6 0 1 .2 1.4.5.3.4.4.8.4 1.5a3.1 3.1 0 0 1-.4 1.6l-.5.6a9.8 9.8 0 0 1-1.4 1.3 47.6 47.6 0 0 1-1.9 1.4h-1.6v-1a13.8 13.8 0 0 0-.5-4 9.3 9.3 0 0 1-.2-1.6c0-.5 0-1 .3-1.5.2-.5.5-.9 1-1.2.3-.4.8-.6 1.4-.8.6-.2 1.3-.3 2-.3.9 0 1.6.1 2.2.3.6.2 1 .5 1.4.9.4.4.7.8.8 1.3.2.5.3 1 .3 1.6V26h-1.5v-6.2l-.2-1.2a2.4 2.4 0 0 0-1.6-1.5c-.4-.2-.8-.2-1.4-.2l-1.3.1a3 3 0 0 0-1 .5 2.2 2.2 0 0 0-1 1.9l.2 1.2a24.3 24.3 0 0 0 .4 2.5l.2 1.5c.2 0 .3-.2.6-.4a22.3 22.3 0 0 0 1.3-1.1l.4-.5Z" fill="#fff"/>
    </g>
    <mask id="B" style="mask-type:luminance" maskUnits="userSpaceOnUse" x="-21" y="-20" width="311" height="121">
      <path d="M-20-20h310v120H-20V-20Z" fill="#fff"/>
    </mask>
    <g mask="url(#B)">
      <path d="M175.1 20.9c0-.3 0-.5-.2-.7a.9.9 0 0 0-.6-.2c-.3 0-.5 0-.6.2a1 1 0 0 0-.3.7c0 .2 0 .4.3.6l.6.2c.2 0 .4 0 .6-.2.2-.2.2-.4.2-.6Zm-1 1.7c-.6 0-1-.2-1.2-.5-.3-.3-.4-.7-.4-1.2 0-.6.1-1 .4-1.3.4-.3.8-.5 1.4-.5.6 0 1 .2 1.4.5.3.4.4.8.4 1.5a3.1 3.1 0 0 1-.4 1.6l-.5.6a9.8 9.8 0 0 1-1.4 1.3 47.6 47.6 0 0 1-1.9 1.4h-1.6v-1a13.8 13.8 0 0 0-.5-4 9.3 9.3 0 0 1-.2-1.6c0-.5 0-1 .3-1.5.2-.5.5-.9 1-1.2.3-.4.8-.6 1.4-.8.6-.2 1.3-.3 2-.3.9 0 1.6.1 2.2.3.6.2 1 .5 1.4.9.4.4.7.8.8 1.3.2.5.3 1 .3 1.6V26h-1.5v-6.2l-.2-1.2a2.4 2.4 0 0 0-1.6-1.5c-.4-.2-.8-.2-1.4-.2l-1.3.1a3 3 0 0 0-1 .5 2.2 2.2 0 0 0-1 1.9l.2 1.2a24.3 24.3 0 0 0 .4 2.5l.2 1.5c.2 0 .3-.2.6-.4a22.3 22.3 0 0 0 1.3-1.1l.4-.5Z" stroke="#fff" stroke-width=".3" stroke-miterlimit="10"/>
    </g>
    <mask id="C" style="mask-type:luminance" maskUnits="userSpaceOnUse" x="-21" y="-20" width="311" height="121">
      <path d="M-20-20h310v120H-20V-20Z" fill="#fff"/>
    </mask>
    <g mask="url(#C)">
      <path d="m176.3 7 .1.3.3.1.3-.1v-.6h-.3c-.2 0-.4 0-.4.3Zm1.9.4-.1.6a2.5 2.5 0 0 1-.6.8l-.2.3c.5 0 1 0 1.4-.2.3 0 .6-.3.8-.5.2-.3.3-.6.3-1L180 6h1.3v1.7l-.6 1.3c-.3.3-.7.6-1.2.7-.5.2-1.2.3-2 .3h-1V9a2.8 2.8 0 0 0 .8-.9v-.3l-.3.2h-.5c-.2 0-.4 0-.6-.2l-.2-.8c0-.3.1-.5.3-.7.1-.2.4-.3.8-.3l.7.1a1.2 1.2 0 0 1 .7.8v.5Z" fill="#fff"/>
    </g>
    <mask id="D" style="mask-type:luminance" maskUnits="userSpaceOnUse" x="-21" y="-20" width="311" height="121">
      <path d="M-20-20h310v120H-20V-20Z" fill="#fff"/>
    </mask>
    <g mask="url(#D)">
      <path d="m176.3 7 .1.3.3.1.3-.1v-.6h-.3c-.2 0-.4 0-.4.3Zm1.9.4-.1.6a2.5 2.5 0 0 1-.6.8l-.2.3c.5 0 1 0 1.4-.2.3 0 .6-.3.8-.5.2-.3.3-.6.3-1L180 6h1.3v1.7l-.6 1.3c-.3.3-.7.6-1.2.7-.5.2-1.2.3-2 .3h-1V9a2.8 2.8 0 0 0 .8-.9v-.3l-.3.2h-.5c-.2 0-.4 0-.6-.2l-.2-.8c0-.3.1-.5.3-.7.1-.2.4-.3.8-.3l.7.1a1.2 1.2 0 0 1 .7.8v.5Z" stroke="#fff" stroke-width=".3" stroke-miterlimit="10"/>
    </g>
    <mask id="E" style="mask-type:luminance" maskUnits="userSpaceOnUse" x="-21" y="-20" width="311" height="121">
      <path d="M-20-20h310v120H-20V-20Z" fill="#fff"/>
    </mask>
    <g mask="url(#E)">
      <path d="M182.4 21.1c0 .3 0 .5.2.6.2.2.4.3.7.3l.6-.3c.2-.1.2-.3.2-.6 0-.2 0-.4-.2-.6a.9.9 0 0 0-.6-.2c-.3 0-.5 0-.7.2l-.2.6Zm5 5h-1.1c-.3 0-.5-.2-.7-.4l-.5-.7-.5-1-.5-1.3a2.8 2.8 0 0 1-.8.2c-.6 0-1-.2-1.4-.5-.3-.3-.5-.7-.5-1.3 0-.5.2-1 .5-1.2a2 2 0 0 1 1.4-.5l.7.1.5.4.4.6.5 1 .8 2.3c.2.4.3.7.5.8l.6.3c.2 0 .5 0 .6-.3.2-.1.3-.4.3-.8v-4.3l-.2-1c-.1-.4-.3-.6-.6-.9l-.8-.5-1.3-.2-1.7.3-1.6.8-.7-1.1c.5-.4 1.1-.7 1.8-1a6.6 6.6 0 0 1 4 0c.6.2 1 .4 1.4.8.4.3.7.7.9 1.1.2.5.3 1 .3 1.6v4.3l-.1 1.1-.4.8-.8.4-1 .2Z" fill="#fff"/>
    </g>
    <mask id="F" style="mask-type:luminance" maskUnits="userSpaceOnUse" x="-21" y="-20" width="311" height="121">
      <path d="M-20-20h310v120H-20V-20Z" fill="#fff"/>
    </mask>
    <g mask="url(#F)">
      <path d="M182.4 21.1c0 .3 0 .5.2.6.2.2.4.3.7.3l.6-.3c.2-.1.2-.3.2-.6 0-.2 0-.4-.2-.6a.9.9 0 0 0-.6-.2c-.3 0-.5 0-.7.2l-.2.6Zm5 5h-1.1c-.3 0-.5-.2-.7-.4l-.5-.7-.5-1-.5-1.3a2.8 2.8 0 0 1-.8.2c-.6 0-1-.2-1.4-.5-.3-.3-.5-.7-.5-1.3 0-.5.2-1 .5-1.2a2 2 0 0 1 1.4-.5l.7.1.5.4.4.6.5 1 .8 2.3c.2.4.3.7.5.8l.6.3c.2 0 .5 0 .6-.3.2-.1.3-.4.3-.8v-4.3l-.2-1c-.1-.4-.3-.6-.6-.9l-.8-.5-1.3-.2-1.7.3-1.6.8-.7-1.1c.5-.4 1.1-.7 1.8-1a6.6 6.6 0 0 1 4 0c.6.2 1 .4 1.4.8.4.3.7.7.9 1.1.2.5.3 1 .3 1.6v4.3l-.1 1.1-.4.8-.8.4-1 .2Z" stroke="#fff" stroke-width=".3" stroke-miterlimit="10"/>
    </g>
    <mask id="G" style="mask-type:luminance" maskUnits="userSpaceOnUse" x="-21" y="-20" width="311" height="121">
      <path d="M-20-20h310v120H-20V-20Z" fill="#fff"/>
    </mask>
    <g mask="url(#G)">
      <path d="M200.5 26h-1.6v-6.6l-.1-1c0-.3-.2-.6-.4-.8l-.7-.5c-.3-.2-.6-.2-1-.2-.5 0-1 0-1.6.3l-1.4.8-.7-1.1 1.6-1a5.7 5.7 0 0 1 3.7 0c.5.2.9.4 1.2.8l.7 1.1c.2.5.3 1 .3 1.6V26Z" fill="#fff" stroke="#fff" stroke-width=".3" stroke-miterlimit="10"/>
    </g>
    <mask id="H" style="mask-type:luminance" maskUnits="userSpaceOnUse" x="-21" y="-20" width="311" height="121">
      <path d="M-20-20h310v120H-20V-20Z" fill="#fff"/>
    </mask>
    <g mask="url(#H)">
      <path d="M202.8 26v-3.5l.1-1a1.8 1.8 0 0 1 1-1c.2-.2.5-.3.9-.4a2 2 0 0 0-.6-.3 5.5 5.5 0 0 0-1.7-.4l.3-1.5c.2-.5.5-.9.8-1.2l1.3-.8a6 6 0 0 1 2-.3c.8 0 1.5.1 2 .3.6.2 1 .5 1.4.9.3.4.6.8.7 1.3.2.5.2 1 .2 1.6V26h-1.5v-6.2l-.1-1.2-.5-1c-.3-.2-.5-.4-1-.5a4 4 0 0 0-1.3-.2l-1.2.1-.8.4-.5.6-.2.7a3.6 3.6 0 0 1 1.3.4 3.5 3.5 0 0 1 .9.7v.6l-1 .2-.5.4-.4.6V26h-1.6Z" fill="#fff" stroke="#fff" stroke-width=".3" stroke-miterlimit="10"/>
    </g>
  </g>
  <defs>
    <clipPath id="a">
      <path fill="#fff" transform="matrix(1 0 0 -1 0 80)" d="M0 0h270v80H0z"/>
    </clipPath>
  </defs>
</svg>
