<svg width="180" height="54" fill="none" xmlns="http://www.w3.org/2000/svg">
  <path d="M173.33 54H6.67A6.73 6.73 0 0 1 0 47.25V6.75C0 3.04 3 0 6.67 0h166.66A6.73 6.73 0 0 1 180 6.75v40.5c0 3.71-3 6.75-6.67 6.75Z" fill="#000"/>
  <path d="m27.63 26.22-14.2 15.26a3.84 3.84 0 0 0 5.65 2.35l.05-.03 15.97-9.33-7.48-8.25Z" fill="#EA4335"/>
  <path d="m41.98 23.63-.01-.02-6.9-4.05-7.77 7 7.8 7.9 6.86-4a3.89 3.89 0 0 0 2.02-3.43c0-1.47-.8-2.75-2-3.4Z" fill="#FBBC04"/>
  <path d="M13.43 12.52a3.7 3.7 0 0 0-.13 1v26.96c0 .35.04.68.13 1L28.1 26.62l-14.68-14.1Z" fill="#4285F4"/>
  <path d="m27.73 27 7.34-7.44-15.96-9.37a3.85 3.85 0 0 0-5.69 2.33L27.73 27Z" fill="#34A853"/>
  <path d="M131.52 26.67h2.17V12.1h-2.17v14.57Zm19.59-9.32-2.5 6.31h-.07l-2.59-6.31h-2.34l3.88 8.82-2.21 4.91h2.26l5.99-13.73h-2.42ZM138.77 25c-.7 0-1.7-.35-1.7-1.24 0-1.12 1.24-1.55 2.3-1.55.96 0 1.4.2 1.99.49a2.64 2.64 0 0 1-2.59 2.3Zm.27-7.98c-1.58 0-3.2.69-3.88 2.23l1.93.8c.4-.8 1.18-1.07 1.98-1.07 1.13 0 2.27.68 2.29 1.88v.15a4.8 4.8 0 0 0-2.27-.56c-2.08 0-4.2 1.14-4.2 3.28 0 1.95 1.7 3.2 3.62 3.2 1.46 0 2.27-.65 2.78-1.42h.07v1.12h2.1v-5.58c0-2.59-1.93-4.03-4.42-4.03Zm-13.44 2.09h-3.1v-5h3.1a2.52 2.52 0 0 1 2.55 2.5c0 1.13-.93 2.5-2.55 2.5Zm-.06-7.02h-5.21v14.57h2.17v-5.52h3.04c2.41 0 4.78-1.75 4.78-4.53 0-2.78-2.37-4.52-4.78-4.52ZM97.13 25c-1.5 0-2.76-1.25-2.76-2.98 0-1.75 1.25-3.02 2.76-3.02 1.48 0 2.64 1.27 2.64 3.02 0 1.73-1.16 2.98-2.64 2.98Zm2.5-6.85h-.08a3.43 3.43 0 0 0-2.61-1.1 4.93 4.93 0 0 0-4.75 4.97 4.9 4.9 0 0 0 4.75 4.94c1.18 0 2.12-.53 2.6-1.13h.08v.71c0 1.9-1.01 2.91-2.64 2.91a2.74 2.74 0 0 1-2.5-1.76l-1.9.79c.55 1.31 2 2.93 4.4 2.93 2.55 0 4.7-1.5 4.7-5.17v-8.9h-2.06v.81Zm3.56 8.5h2.18V12.1h-2.18v14.57Zm5.39-4.8a2.72 2.72 0 0 1 2.59-2.9c.86 0 1.6.44 1.84 1.06l-4.43 1.84Zm6.76-1.65c-.42-1.11-1.67-3.16-4.25-3.16-2.55 0-4.67 2.01-4.67 4.96 0 2.78 2.1 4.96 4.92 4.96a4.93 4.93 0 0 0 4.13-2.2l-1.69-1.13a2.83 2.83 0 0 1-2.44 1.37c-1.1 0-1.9-.5-2.4-1.5l6.62-2.74-.22-.56Zm-52.8-1.64v2.1h5.03a4.38 4.38 0 0 1-1.15 2.65 5.15 5.15 0 0 1-3.89 1.54c-3.1 0-5.52-2.5-5.52-5.6a5.52 5.52 0 0 1 9.32-4.08l1.48-1.49a7.34 7.34 0 0 0-5.28-2.12 7.8 7.8 0 0 0-7.8 7.7 7.8 7.8 0 0 0 7.8 7.7c2.3 0 4.02-.75 5.37-2.16a6.95 6.95 0 0 0 1.82-4.92c0-.49-.03-.94-.1-1.32h-7.09ZM75.44 25c-1.5 0-2.8-1.23-2.8-3 0-1.78 1.3-3 2.8-3 1.5 0 2.8 1.22 2.8 3 0 1.77-1.3 3-2.8 3Zm0-7.96A4.89 4.89 0 0 0 70.47 22a4.9 4.9 0 0 0 4.98 4.96A4.9 4.9 0 0 0 80.42 22a4.89 4.89 0 0 0-4.97-4.96ZM86.3 25c-1.5 0-2.8-1.23-2.8-3 0-1.78 1.3-3 2.8-3 1.5 0 2.8 1.22 2.8 3 0 1.77-1.3 3-2.8 3Zm0-7.96A4.89 4.89 0 0 0 81.32 22a4.9 4.9 0 0 0 4.98 4.96A4.9 4.9 0 0 0 91.28 22a4.89 4.89 0 0 0-4.98-4.96ZM55.76 38.47h-.96v-2.56h.96v2.56Z" fill="#fff"/>
  <path d="M55.76 38.47v-.13h-.82v-2.3h.68v2.43h.27v-2.7h-1.22v2.83h1.22v-.13h-.13Zm2.74 4.56h1.43c.94 0 1.68-.27 2.23-.8a3 3 0 0 0 .82-2.26 3 3 0 0 0-.82-2.25 3.03 3.03 0 0 0-2.23-.81H58.5v6.12Zm-1.05 1V35.9h2.48c1.25 0 2.25.38 3 1.13a3.98 3.98 0 0 1 1.12 2.93c0 1.2-.38 2.17-1.13 2.93a4.03 4.03 0 0 1-2.99 1.12h-2.48Z" fill="#fff"/>
  <path d="M58.5 43.03v.13h1.43a3.2 3.2 0 0 0 2.32-.84c.58-.57.86-1.36.86-2.35s-.28-1.78-.86-2.35a3.17 3.17 0 0 0-2.32-.85h-1.57v6.39h.13v-.13h.14v-5.99h1.3c.91 0 1.61.26 2.14.77.51.51.78 1.22.78 2.16 0 .94-.27 1.65-.78 2.16a2.9 2.9 0 0 1-2.14.76H58.5v.14Zm-1.05 1h.13v-7.99h2.35a3.9 3.9 0 0 1 2.9 1.1 3.84 3.84 0 0 1 1.08 2.83c0 1.17-.36 2.1-1.08 2.83a3.9 3.9 0 0 1-2.9 1.09h-2.48v.27h2.48a4.2 4.2 0 0 0 3.09-1.17 4.11 4.11 0 0 0 1.16-3.02c0-1.23-.39-2.25-1.16-3.03a4.18 4.18 0 0 0-3.09-1.16h-2.61v8.38h.13v-.14Zm12.78-7.13h-3.7v2.58h3.34v.97h-3.33v2.58h3.7v1H65.5V35.9h4.73v1Z" fill="#fff"/>
  <path d="M70.23 36.9v-.13H66.4v2.84h3.34v.71H66.4v2.84h3.7v.73h-4.47v-7.85h4.47v.87h.27v-1.13h-5v8.38h5v-1.27h-3.7v-2.3H70v-1.24h-3.33v-2.31h3.7v-.13h-.14Zm1.49 7.12v-8.11h1.27l3.94 6.31h.05l-.05-1.56V35.9h1.05v8.11h-1.1l-4.12-6.62h-.04l.04 1.57v5.05h-1.04Z" fill="#fff"/>
  <path d="M71.72 44.02h.13v-7.98h1.07l3.94 6.31h.26l-.05-1.7v-4.6h.77v7.84h-.88l-4.12-6.62h-.26l.05 1.7v4.92h-.91v.27h1.18v-5.2l-.05-1.56h-.13v.14h.04v-.14l-.11.08 4.16 6.68h1.3v-8.38h-1.3v4.88l.03 1.56h.14v-.13h-.05v.13l.12-.07-3.99-6.37H71.6v8.38h.13v-.14Zm12-3.17h2.7l-1.33-3.66h-.04l-1.33 3.66Zm-2.3 3.17 3.06-8.11h1.18l3.06 8.11h-1.16l-.78-2.2h-3.4l-.8 2.2h-1.16Z" fill="#fff"/>
  <path d="M83.72 40.85v.13h2.89l-1.42-3.92h-.24l-1.42 3.92h.2v-.13l.12.05 1.32-3.66-.12-.05v.13h.04v-.13l-.12.05 1.26 3.48h-2.5v.13Zm-2.3 3.17.13.05 3.02-8.03h1l2.96 7.85h-.87l-.78-2.2h-3.6l-.8 2.2h-1.06v.27h1.25l.8-2.2h3.22l.78 2.2h1.44l-3.16-8.38H84.4l-3.16 8.38h.19v-.14Zm8.36 0v-8.11h1.04v7.12h3.52v1h-4.56Z" fill="#fff"/>
  <path d="M89.78 44.02h.13v-7.98h.78v7.12h3.51v.73h-4.42v.27h4.69v-1.27h-3.52v-7.11h-1.3v8.38h.13v-.14Zm5.69 0v-8.11h1.04v8.11h-1.04Z" fill="#fff"/>
  <path d="M95.47 44.02h.13v-7.98h.78v7.85h-.91v.27h1.18v-8.38h-1.31v8.38h.13v-.14Zm2.91 0v-8.11h1.26l3.95 6.31h.04l-.04-1.56V35.9h1.04v8.11h-1.09l-4.12-6.62h-.05l.05 1.57v5.05h-1.04Z" fill="#fff"/>
  <path d="M98.38 44.02h.13v-7.98h1.06l3.95 6.31h.25l-.05-1.7v-4.6h.78v7.84h-.88l-4.13-6.62h-.25l.04 1.7v4.92h-.9v.27h1.17v-5.2l-.04-1.56h-.14v.14h.05v-.14l-.12.08 4.17 6.68h1.3v-8.38h-1.31v4.88l.04 1.56h.13v-.13h-.04v.13l.11-.07-3.98-6.37h-1.48v8.38h.14v-.14Z" fill="#fff"/>
</svg>
