<svg width="180" height="54" fill="none" xmlns="http://www.w3.org/2000/svg">
  <path d="M173.3 54H6.7A6.7 6.7 0 0 1 0 47.2V6.8C0 3 3 0 6.7 0h166.6a6.7 6.7 0 0 1 6.7 6.8v40.5c0 3.7-3 6.7-6.7 6.7Z" fill="#000"/>
  <path d="M27.6 26.2 13.4 41.5a3.8 3.8 0 0 0 5.7 2.3l16-9.3-7.5-8.3Z" fill="#EA4335"/>
  <path d="m42 23.6-7-4-7.7 7 7.8 7.9 6.9-4a3.9 3.9 0 0 0 2-3.5 4 4 0 0 0-2-3.4Z" fill="#FBBC04"/>
  <path d="M13.4 12.5a3.7 3.7 0 0 0-.1 1v27l.1 1 14.7-14.9-14.7-14Z" fill="#4285F4"/>
  <path d="m27.7 27 7.4-7.4-16-9.4a3.9 3.9 0 0 0-5.7 2.3L27.7 27Z" fill="#34A853"/>
  <path d="M131.5 26.7h2.2V12h-2.2v14.6Zm19.6-9.3-2.5 6.3-2.6-6.3h-2.4l3.9 8.8-2.2 4.9h2.2l6-13.8h-2.4ZM138.8 25c-.7 0-1.7-.3-1.7-1.2 0-1.2 1.2-1.6 2.3-1.6 1 0 1.4.2 2 .5a2.6 2.6 0 0 1-2.6 2.3Zm.2-8c-1.5 0-3.2.7-3.8 2.2l1.9.9c.4-.9 1.2-1.1 2-1.1 1.1 0 2.2.7 2.3 1.9v.1a4.8 4.8 0 0 0-2.3-.6c-2 0-4.2 1.2-4.2 3.3 0 2 1.7 3.2 3.6 3.2a3 3 0 0 0 2.8-1.4v1.1h2.2V21c0-2.5-2-4-4.5-4Zm-13.4 2.1h-3.1v-5h3.1a2.5 2.5 0 0 1 2.6 2.5c0 1.1-1 2.5-2.6 2.5Zm0-7h-5.3v14.6h2.2V21h3c2.5 0 4.8-1.7 4.8-4.5S128 12 125.5 12ZM97 25c-1.5 0-2.7-1.3-2.7-3s1.2-3 2.7-3c1.5 0 2.7 1.3 2.7 3s-1.2 3-2.7 3Zm2.5-6.8a3.4 3.4 0 0 0-2.7-1.2 5 5 0 0 0-4.7 5 4.9 4.9 0 0 0 4.7 5c1.2 0 2.2-.6 2.6-1.2h.1v.7c0 2-1 3-2.6 3a2.7 2.7 0 0 1-2.5-1.8l-2 .8c.6 1.3 2 3 4.5 3s4.7-1.6 4.7-5.3v-8.9h-2v.8Zm3.6 8.4h2.2V12.1h-2.2v14.6Zm5.4-4.8a2.7 2.7 0 0 1 2.6-2.9c.8 0 1.6.5 1.8 1.1l-4.4 1.8Zm6.7-1.6c-.4-1.1-1.6-3.2-4.2-3.2s-4.7 2-4.7 5c0 2.8 2.1 5 5 5a5 5 0 0 0 4-2.2l-1.6-1.2a2.8 2.8 0 0 1-2.5 1.4c-1 0-1.9-.5-2.4-1.5l6.7-2.7-.3-.6Zm-52.8-1.6v2h5a4.4 4.4 0 0 1-1 2.7 5.2 5.2 0 0 1-4 1.5 5.5 5.5 0 0 1-5.5-5.6 5.5 5.5 0 0 1 9.3-4l1.5-1.5a7.3 7.3 0 0 0-5.3-2.1 7.8 7.8 0 0 0-7.8 7.7 7.8 7.8 0 0 0 7.8 7.7 7 7 0 0 0 5.4-2.2 7 7 0 0 0 1.8-5v-1.2h-7.2Zm13 6.4c-1.6 0-2.9-1.2-2.9-3s1.3-3 2.8-3c1.5 0 2.8 1.2 2.8 3s-1.3 3-2.8 3Zm0-8a4.9 4.9 0 0 0-5 5 4.9 4.9 0 0 0 5 5 4.9 4.9 0 0 0 5-5 4.9 4.9 0 0 0-5-5Zm10.8 8c-1.5 0-2.8-1.2-2.8-3s1.3-3 2.8-3c1.5 0 2.8 1.2 2.8 3s-1.3 3-2.8 3Zm0-8a4.9 4.9 0 0 0-5 5 4.9 4.9 0 0 0 5 5 4.9 4.9 0 0 0 5-5 4.9 4.9 0 0 0-5-5ZM55.8 38.5h-1v-2.6h1v2.6Z" fill="#fff"/>
  <path d="M55.8 38.5v-.2h-.9V36h.7v2.5h.3v-2.7h-1.2v2.8h1.2v-.1h-.1Zm2.7 4.5h1.4a3 3 0 0 0 2.3-.8A3 3 0 0 0 63 40a3 3 0 0 0-.8-2.3 3 3 0 0 0-2.3-.8h-1.4V43Zm-1 1v-8h2.4a4 4 0 0 1 3 1.1 4 4 0 0 1 1.2 3 4 4 0 0 1-1.2 2.9 4 4 0 0 1-3 1.1h-2.5Z" fill="#fff"/>
  <path d="M58.5 43v.2h1.4a3.2 3.2 0 0 0 2.4-.9c.5-.5.8-1.3.8-2.3s-.3-1.8-.9-2.4a3.2 3.2 0 0 0-2.3-.8h-1.5v6.4-.2h.2v-6H60c1 0 1.6.3 2.2.8.5.5.7 1.2.7 2.2a3 3 0 0 1-.7 2.1 2.9 2.9 0 0 1-2.2.8h-1.4v.1Zm-1 1v-8H60a3.9 3.9 0 0 1 3 1.1 3.8 3.8 0 0 1 1 2.9 4 4 0 0 1-1 2.8 3.9 3.9 0 0 1-3 1h-2.4v.4H60a4.2 4.2 0 0 0 3-1.2 4.1 4.1 0 0 0 1.2-3c0-1.3-.4-2.3-1.2-3a4.2 4.2 0 0 0-3-1.2h-2.7v8.4h.2V44Zm12.7-7h-3.7v2.6H70v1h-3.4V43h3.7v1h-4.7v-8h4.7v1Z" fill="#fff"/>
  <path d="M70.2 36.9v-.1h-3.8v2.8h3.3v.7h-3.3v2.9h3.7v.7h-4.5V36h4.5v1h.3v-1.2h-5v8.4h5v-1.3h-3.7v-2.3H70v-1.3h-3.3V37h3.7-.2Zm1.5 7.1v-8H73l4 6.2V36h1v8h-1.1l-4.1-6.6V44h-1Z" fill="#fff"/>
  <path d="M71.7 44h.1v-8H73l4 6.4h.2V36h.7v7.8H77l-4.2-6.6h-.2v6.7h-.9v.3H73v-6.8h-.2v.1-.1l4.1 6.8h1.3v-8.4h-1.3v6.4h.2v-.1.1l-4-6.4h-1.4v8.4h.1V44Zm12-3.1h2.7l-1.3-3.7-1.4 3.6ZM81.4 44l3-8h1.3l3 8h-1.1l-.8-2.2h-3.4l-.8 2.2h-1.2Z" fill="#fff"/>
  <path d="M83.7 40.9h3l-1.5-3.8h-.3L83.5 41h.2v-.1h.2l1.3-3.7H85v.1-.1l1.2 3.5h-2.5v.1ZM81.4 44h.1l3-8h1l3 7.9h-.8l-.8-2.2h-3.6l-.8 2.2h-1v.3h1.2l.8-2.2h3.2l.8 2.2h1.4l-3.2-8.4h-1.3l-3.2 8.4h.2V44Zm8.4 0v-8h1v7h3.5v1h-4.5Z" fill="#fff"/>
  <path d="M89.8 44h.1v-8h.8v7.2h3.5v.7h-4.4v.3h4.7v-1.3h-3.6v-7.1h-1.3v8.4h.2V44Zm5.7 0v-8h1v8h-1Z" fill="#fff"/>
  <path d="M95.5 44h.1v-8h.8v8h-1v.3h1.2v-8.4h-1.3v8.4h.2V44Zm2.9 0v-8h1.2l4 6.2V36h1v8h-1l-4.2-6.6V44h-1Z" fill="#fff"/>
  <path d="M98.4 44h.1v-8h1l4 6.4h.3V36h.7v7.8h-.9l-4.1-6.6h-.3v6.7h-.8v.3h1.2v-6.8h-.2v.1-.1h-.1l4.2 6.8h1.3v-8.4h-1.3v6.4h.1v-.1.1h.1l-4-6.4h-1.5v8.4h.2V44Z" fill="#fff"/>
</svg>
