<svg width="180" height="54" fill="none" xmlns="http://www.w3.org/2000/svg">
  <path d="M173.33 54H6.67A6.73 6.73 0 0 1 0 47.25V6.75C0 3.04 3 0 6.67 0h166.66A6.73 6.73 0 0 1 180 6.75v40.5c0 3.71-3 6.75-6.67 6.75Z" fill="#000"/>
  <path d="m27.63 26.22-14.2 15.26a3.84 3.84 0 0 0 5.65 2.35l.05-.03 15.97-9.33-7.48-8.25Z" fill="#EA4335"/>
  <path d="m41.98 23.63-.01-.02-6.9-4.05-7.77 7 7.8 7.9 6.86-4a3.89 3.89 0 0 0 2.02-3.43c0-1.47-.8-2.75-2-3.4Z" fill="#FBBC04"/>
  <path d="M13.43 12.52a3.7 3.7 0 0 0-.13 1v26.96c0 .35.04.68.13 1L28.1 26.62l-14.68-14.1Z" fill="#4285F4"/>
  <path d="m27.73 27 7.34-7.44-15.96-9.37a3.85 3.85 0 0 0-5.69 2.33L27.73 27Z" fill="#34A853"/>
  <path d="M142.58 40h2.49V23.33h-2.49V40ZM165 29.34l-2.85 7.22h-.09l-2.96-7.22h-2.68l4.44 10.1-2.53 5.61h2.6l6.84-15.71H165Zm-14.1 8.77c-.82 0-1.96-.41-1.96-1.42 0-1.29 1.41-1.78 2.64-1.78 1.1 0 1.6.24 2.27.56a3.02 3.02 0 0 1-2.96 2.64Zm.3-9.14c-1.81 0-3.68.8-4.45 2.55l2.21.93c.47-.93 1.35-1.23 2.27-1.23 1.3 0 2.6.78 2.62 2.15v.17a5.5 5.5 0 0 0-2.6-.64c-2.38 0-4.8 1.3-4.8 3.75 0 2.23 1.95 3.67 4.14 3.67a3.5 3.5 0 0 0 3.17-1.63h.09v1.28h2.4v-6.39c0-2.96-2.2-4.6-5.06-4.6Zm-15.38 2.4h-3.54v-5.72h3.53a2.89 2.89 0 0 1 2.92 2.86 2.9 2.9 0 0 1-2.91 2.86Zm-.07-8.04h-5.96V40h2.49v-6.32h3.47c2.76 0 5.47-2 5.47-5.17 0-3.18-2.71-5.18-5.47-5.18Zm-32.5 14.78c-1.72 0-3.16-1.44-3.16-3.42 0-2 1.44-3.45 3.15-3.45 1.7 0 3.03 1.46 3.03 3.45 0 1.98-1.33 3.42-3.03 3.42Zm2.85-7.84h-.1a3.93 3.93 0 0 0-2.98-1.27 5.64 5.64 0 0 0-5.44 5.7c0 3.17 2.6 5.64 5.44 5.64 1.35 0 2.43-.6 2.98-1.28h.09v.81c0 2.17-1.16 3.33-3.03 3.33a3.14 3.14 0 0 1-2.86-2.02l-2.16.9a5.4 5.4 0 0 0 5.02 3.35c2.92 0 5.4-1.71 5.4-5.9V29.35h-2.37v.92Zm4.08 9.73h2.5V23.33h-2.5V40Zm6.17-5.5a3.1 3.1 0 0 1 2.96-3.3c.99 0 1.83.49 2.1 1.2l-5.06 2.1Zm7.73-1.89c-.47-1.27-1.91-3.6-4.85-3.6-2.93 0-5.35 2.29-5.35 5.66 0 3.18 2.4 5.67 5.62 5.67 2.6 0 4.1-1.59 4.73-2.5l-1.93-1.3a3.24 3.24 0 0 1-2.8 1.57 2.89 2.89 0 0 1-2.75-1.72l7.59-3.13-.26-.65Zm-60.41-1.87v2.4h5.76a5.02 5.02 0 0 1-1.32 3.04 5.9 5.9 0 0 1-4.44 1.76 6.32 6.32 0 0 1-6.32-6.4A6.32 6.32 0 0 1 68 26.85l1.7-1.7a8.4 8.4 0 0 0-6.04-2.42 8.93 8.93 0 0 0-8.94 8.8 8.93 8.93 0 0 0 8.94 8.81c2.62 0 4.6-.86 6.14-2.47 1.6-1.59 2.09-3.82 2.09-5.62a7.8 7.8 0 0 0-.13-1.5h-8.1Zm14.77 7.37c-1.72 0-3.2-1.42-3.2-3.44 0-2.04 1.48-3.43 3.2-3.43 1.72 0 3.2 1.4 3.2 3.43 0 2.02-1.48 3.44-3.2 3.44Zm0-9.1a5.59 5.59 0 0 0-5.7 5.66 5.6 5.6 0 0 0 5.7 5.67 5.6 5.6 0 0 0 5.7-5.67 5.59 5.59 0 0 0-5.7-5.67Zm12.42 9.1c-1.72 0-3.2-1.42-3.2-3.44 0-2.04 1.48-3.43 3.2-3.43 1.72 0 3.2 1.4 3.2 3.43 0 2.02-1.48 3.44-3.2 3.44Zm0-9.1a5.59 5.59 0 0 0-5.7 5.66 5.6 5.6 0 0 0 5.7 5.67 5.6 5.6 0 0 0 5.69-5.67 5.59 5.59 0 0 0-5.7-5.67Zm-33.1-11.46a2.8 2.8 0 0 1-1.57-.5c-.5-.33-.85-.83-1.05-1.49l.98-.4a2 2 0 0 0 .62 1 1.68 1.68 0 0 0 2.14-.04c.32-.27.47-.61.47-1.02 0-.4-.16-.73-.48-1-.32-.27-.71-.4-1.16-.4h-.69v-1.01h.6c.43 0 .78-.12 1.05-.35.28-.23.42-.54.42-.93 0-.37-.14-.66-.4-.87-.27-.2-.6-.31-1-.31-.69 0-1.15.34-1.4 1.04l-.98-.42c.15-.43.43-.81.82-1.15.4-.33.92-.5 1.56-.5.71 0 1.3.2 1.78.63.48.41.71.94.71 1.58 0 .77-.36 1.34-1.07 1.71v.05c.39.16.7.41.96.74.25.34.38.74.38 1.2 0 .7-.26 1.29-.78 1.75a2.8 2.8 0 0 1-1.91.7Z" fill="#fff"/>
  <path d="M57.76 17.55v-.13c-.51 0-1-.16-1.5-.48-.47-.31-.8-.78-.99-1.42l-.13.04.05.12.98-.4-.05-.13-.13.04c.13.45.35.82.67 1.08a1.79 1.79 0 0 0 2.3-.05 1.43 1.43 0 0 0 0-2.22c-.35-.3-.77-.44-1.25-.44h-.56v-.74h.48c.44 0 .83-.12 1.13-.38.3-.25.46-.61.46-1.03 0-.4-.15-.74-.45-.97a1.7 1.7 0 0 0-1.08-.35c-.74 0-1.27.4-1.52 1.13l.13.05.05-.13-1-.42-.04.13.12.04c.15-.4.4-.76.79-1.09a2.2 2.2 0 0 1 1.47-.47c.69 0 1.24.2 1.7.6.44.4.66.87.66 1.48 0 .72-.32 1.23-1 1.6l-.07.03v.22l.08.03c.37.16.67.39.9.7.24.32.36.68.36 1.11 0 .68-.24 1.22-.74 1.66-.5.44-1.1.66-1.82.66v.27c.78 0 1.45-.25 2-.73s.83-1.11.82-1.86c0-.48-.13-.9-.4-1.27a2.5 2.5 0 0 0-1.02-.79l-.05.13h.13v-.05h-.13l.06.12a1.96 1.96 0 0 0 1.15-1.83c0-.67-.26-1.25-.76-1.68a2.75 2.75 0 0 0-1.87-.66c-.66 0-1.22.17-1.64.53-.41.35-.7.75-.87 1.2l-.04.12 1.1.47.14.05.04-.13c.24-.65.63-.94 1.27-.95.37 0 .67.1.91.29a.9.9 0 0 1 .35.76c0 .35-.12.62-.36.83-.25.2-.57.32-.96.32h-.74v1.27h.82c.42 0 .77.12 1.07.37.3.26.44.54.44.9 0 .37-.14.67-.43.92s-.63.37-1.03.37c-.37 0-.67-.1-.93-.33a1.87 1.87 0 0 1-.58-.95l-.04-.14-1.23.51.04.12c.2.68.57 1.21 1.1 1.56a2.9 2.9 0 0 0 1.64.53v-.14Zm5.72-3.45h2.78l-1.36-3.77h-.05l-1.37 3.77Zm-2.36 3.27L64.27 9h1.21l3.15 8.36h-1.19l-.8-2.27h-3.52l-.81 2.27h-1.2Z" fill="#fff"/>
  <path d="M63.48 14.1v.13h2.97L65 10.2h-.23l-1.47 4.03h.2v-.13l.12.05 1.37-3.77-.13-.05v.14h.05v-.14l-.13.05 1.3 3.59h-2.59v.13Zm-2.36 3.27.12.05 3.12-8.27h1.03l3.05 8.08h-.9l-.81-2.26h-3.7l-.82 2.26h-1.1v.27h1.29l.82-2.26h3.32l.8 2.26h1.48l-3.25-8.62h-1.4l-3.25 8.62h.2v-.13Zm9.66-1.03h2.16c.41 0 .75-.14 1-.43a1.3 1.3 0 0 0-.01-1.88 1.35 1.35 0 0 0-1.04-.43h-2.11v2.74Zm0-3.74h1.95c.4 0 .73-.14.97-.4.25-.27.37-.57.37-.89 0-.32-.12-.6-.36-.87a1.2 1.2 0 0 0-.93-.4h-2v2.56Zm-1.07 4.77V9h3.02c.65 0 1.22.22 1.7.65.47.43.71.98.71 1.63 0 .4-.1.75-.3 1.05-.21.3-.49.53-.83.69v.04c.41.14.75.39 1.02.73.26.34.4.74.4 1.19a2.2 2.2 0 0 1-.76 1.7c-.5.45-1.1.68-1.78.68h-3.18Z" fill="#fff"/>
  <path d="M70.78 16.34v.13h2.16a1.52 1.52 0 0 0 1.52-1.51c0-.37-.15-.72-.43-1.03a1.49 1.49 0 0 0-1.14-.46h-2.24v3h.13v-.13h.13v-2.6h1.98c.4 0 .7.12.94.38a1.2 1.2 0 0 1 .01 1.7c-.23.26-.52.39-.9.39h-2.16v.13Zm0-3.74v.13h1.95c.43 0 .8-.15 1.07-.45.26-.28.4-.61.4-.97 0-.35-.13-.68-.39-.96-.26-.3-.62-.44-1.03-.44h-2.13v2.82h.13v-.13h.13v-2.43h1.87c.35 0 .62.12.84.36.21.24.32.5.32.78 0 .29-.1.54-.34.8-.22.23-.5.35-.87.35h-1.95v.14Zm-1.07 4.77h.13V9.15h2.89c.62 0 1.15.2 1.6.61.46.41.68.9.68 1.53 0 .37-.1.7-.29.98-.19.28-.44.49-.76.64l-.08.03v.23l.09.03c.39.13.7.36.95.68.25.32.37.68.37 1.1 0 .66-.23 1.18-.7 1.61-.49.43-1.04.64-1.7.64h-3.18v.27h3.18c.72 0 1.35-.24 1.87-.7.53-.48.8-1.1.8-1.81a2 2 0 0 0-.43-1.27 2.25 2.25 0 0 0-1.08-.77l-.04.12h.14v-.04H74l.06.12c.36-.17.66-.41.87-.74a2.23 2.23 0 0 0-.43-2.85c-.5-.45-1.1-.68-1.78-.68h-3.16v8.62h.14v-.13Zm8.62-3.27h2.77l-1.36-3.77h-.05l-1.36 3.77Zm-2.37 3.27L79.1 9h1.21l3.15 8.36h-1.19l-.8-2.27h-3.52l-.81 2.27h-1.2Z" fill="#fff"/>
  <path d="M78.33 14.1v.13h2.96l-1.46-4.03h-.23l-1.46 4.03h.19v-.13l.12.05 1.37-3.77-.13-.05v.14h.05v-.14l-.13.05 1.3 3.59h-2.58v.13Zm-2.37 3.27.12.05 3.12-8.27h1.03l3.05 8.08h-.9l-.8-2.26h-3.7l-.83 2.26h-1.1v.27h1.3l.8-2.26h3.33l.8 2.26h1.48l-3.25-8.62h-1.4l-3.24 8.62h.19v-.13Zm8.59 0V9h1.07v3.59h4.18V9h1.07v8.36H89.8V13.6h-4.18v3.77h-1.07Z" fill="#fff"/>
  <path d="M84.55 17.37h.13V9.15h.8v3.58h4.45V9.15h.8v8.08h-.8v-3.76H85.5v3.76h-.94v.27h1.2v-3.77h3.92v3.77H91V8.88h-1.34v3.58h-3.91V8.88h-1.34v8.62h.13v-.13Zm10.88 0h-1.07v-7.33h-2.34V9.01h5.74v1.03h-2.33v7.33Z" fill="#fff"/>
  <path d="M95.43 17.37v-.14h-.94V9.91h-2.33v-.76h5.47v.76H95.3v7.46h.26v-7.2h2.34V8.88h-6.01v1.3h2.33v7.32h1.34v-.13h-.13Zm4.42-3.27h2.77l-1.36-3.77h-.05l-1.36 3.77Zm-2.37 3.27L100.63 9h1.21l3.15 8.36h-1.19l-.8-2.27h-3.51l-.82 2.27h-1.2Z" fill="#fff"/>
  <path d="M99.85 14.1v.13h2.96l-1.46-4.03h-.23l-1.46 4.03h.19v-.13l.12.05 1.37-3.77-.13-.05v.14h.05v-.14l-.13.05 1.3 3.59h-2.58v.13Zm-2.37 3.27.12.05 3.12-8.27h1.03l3.05 8.08h-.9l-.8-2.26h-3.7l-.83 2.26h-1.1v.27h1.3l.8-2.26h3.33l.8 2.26h1.48l-3.25-8.62h-1.4L97.3 17.5h.19v-.13Zm13.92-3.83v3.83h-1.07v-3.83h-.05l-3.24 3.83h-1.4v-.05l3.52-4.04-3.38-4.22v-.05h1.3l3.2 4.06h.05V9.01h1.07v4.06h.05l3.2-4.06h1.3v.05l-3.38 4.22 3.52 4.04v.05h-1.4l-3.24-3.83h-.05Z" fill="#fff"/>
  <path d="M111.4 13.54h-.13v3.7h-.8V13.4h-.25l-3.24 3.82h-1.34v.14h.13v-.05h-.13l.1.09 3.6-4.12L105.9 9h-.13v.14h1.24l3.2 4.06h.24V9.15h.8v4.06h.25l3.2-4.06h1.24V9h-.13l-3.42 4.28 3.6 4.12.1-.09h-.14v.05h.13v-.14h-1.34l-3.24-3.82h-.24v.13h.13v.13h.05v-.13l-.1.09 3.28 3.87h1.6v-.23l-3.49-3.99 3.35-4.17v-.23h-1.5L111.33 13l.1.08v-.13h-.04v.13h.14v-4.2h-1.34v4.2h.13v-.14h-.05v.13l.1-.08-3.23-4.1h-1.5v.22l3.34 4.17-3.48 4v.22h1.6l3.28-3.87-.1-.09v.13h.04v-.13h-.13v3.96h1.34v-3.96h-.14Zm12.16-4.53v8.36h-1.08v-5.2l.05-1.62h-.05l-4.25 6.82h-1.12V9h1.08v4.9l-.05 1.6h.05l4.06-6.5h1.3Z" fill="#fff"/>
  <path d="M123.56 9.01h-.14v8.22h-.8v-5.06l.05-1.75h-.26l-4.25 6.81h-.91V9.15h.8v4.75l-.04 1.6v.15h.25l4.06-6.5h1.24v-.27h-1.39l-4.1 6.56.12.07v-.13h-.05v.13h.14l.04-1.6V8.88h-1.34v8.62h1.33l4.28-6.88-.1-.07v.14h.04v-.14h-.13l-.05 1.61v5.34h1.34V8.88h-.13v.13Zm4.55 8.36h-1.07v-7.33h-2.34V9.01h5.74v1.03h-2.33v7.33Z" fill="#fff"/>
  <path d="M128.11 17.37v-.14h-.94V9.91h-2.33v-.76h5.47v.76h-2.33v7.46h.26v-7.2h2.34V8.88h-6v1.3h2.33v7.32h1.34v-.13h-.14Zm9.97-8.36v8.36H137v-5.2l.05-1.62H137l-4.25 6.82h-1.11V9h1.07v4.9l-.05 1.6h.05l4.06-6.5h1.3Z" fill="#fff"/>
  <path d="M138.08 9.01h-.14v8.22h-.8v-5.06l.05-1.75h-.26l-4.25 6.81h-.91V9.15h.8v4.75l-.04 1.75h.25l4.06-6.5h1.24v-.27h-1.38l-4.1 6.56.1.07v-.13h-.04v.13h.14l.04-1.6V8.88h-1.34v8.62h1.33l4.29-6.88-.12-.07v.14h.05v-.14h-.13l-.05 1.61v5.34h1.34V8.88h-.13v.13Zm6.44 8.54a2.8 2.8 0 0 1-1.57-.5c-.5-.33-.85-.83-1.05-1.49l.98-.4a2 2 0 0 0 .62 1 1.68 1.68 0 0 0 2.14-.04c.32-.27.47-.61.47-1.02 0-.4-.16-.73-.48-1-.32-.27-.71-.4-1.16-.4h-.69v-1.01h.6c.43 0 .78-.12 1.05-.35.28-.23.41-.54.41-.93 0-.37-.13-.66-.4-.87-.26-.2-.6-.31-1-.31-.68 0-1.14.34-1.38 1.04l-1-.42c.16-.43.44-.81.83-1.15.4-.33.92-.5 1.56-.5.71 0 1.3.2 1.78.63.47.41.71.94.71 1.58 0 .77-.36 1.34-1.07 1.71v.05c.39.16.7.41.96.74.25.34.38.74.38 1.2 0 .7-.26 1.29-.78 1.75a2.8 2.8 0 0 1-1.91.7Z" fill="#fff"/>
  <path d="M144.52 17.55v-.13c-.51 0-1-.16-1.5-.48-.47-.31-.8-.78-.99-1.42l-.13.04.05.12.98-.4-.05-.13-.13.04c.13.45.35.82.66 1.08a1.8 1.8 0 0 0 2.31-.05 1.43 1.43 0 0 0 0-2.22c-.35-.3-.77-.44-1.25-.44h-.56v-.74h.48c.44 0 .83-.12 1.13-.38.3-.25.46-.61.46-1.03 0-.4-.16-.74-.45-.97a1.7 1.7 0 0 0-1.09-.35c-.73 0-1.26.4-1.5 1.13l.12.05.05-.13-1-.42-.05.13.13.04c.15-.4.4-.76.79-1.09a2.2 2.2 0 0 1 1.47-.47c.69 0 1.24.2 1.7.6.44.4.66.87.66 1.48 0 .72-.32 1.23-1 1.6l-.07.03v.22l.08.03c.37.16.67.39.9.7.24.32.36.68.36 1.11a2.1 2.1 0 0 1-.74 1.66c-.5.44-1.1.66-1.82.66v.27c.78 0 1.45-.25 2-.73a2.4 2.4 0 0 0 .82-1.86c0-.48-.13-.9-.4-1.27a2.5 2.5 0 0 0-1.02-.79l-.05.13h.13v-.05h-.13l.06.12a1.96 1.96 0 0 0 1.14-1.83c0-.67-.25-1.25-.75-1.68a2.75 2.75 0 0 0-1.88-.66c-.66 0-1.2.17-1.63.53-.41.35-.7.75-.87 1.2l-.04.12 1.1.47.14.05.04-.13c.24-.65.63-.94 1.26-.95.38 0 .68.1.92.29a.9.9 0 0 1 .35.76c0 .35-.12.62-.37.83-.25.2-.56.32-.95.32h-.74v1.27h.82c.42 0 .77.12 1.07.37.3.26.44.54.44.9 0 .37-.14.67-.43.92s-.63.37-1.03.37c-.37 0-.67-.1-.94-.33a1.87 1.87 0 0 1-.57-.95l-.04-.14-1.12.47-.1.04.03.12c.2.68.56 1.21 1.1 1.56a2.9 2.9 0 0 0 1.64.53v-.14Z" fill="#fff"/>
</svg>
