<svg width="180" height="54" fill="none" xmlns="http://www.w3.org/2000/svg">
  <path d="M173.3 54H6.7A6.7 6.7 0 0 1 0 47.2V6.8C0 3 3 0 6.7 0h166.6a6.7 6.7 0 0 1 6.7 6.8v40.5c0 3.7-3 6.7-6.7 6.7Z" fill="#000"/>
  <path d="M27.6 26.2 13.4 41.5a3.8 3.8 0 0 0 5.7 2.3l16-9.3-7.5-8.3Z" fill="#EA4335"/>
  <path d="m42 23.6-7-4-7.7 7 7.8 7.9 6.9-4a3.9 3.9 0 0 0 2-3.5 4 4 0 0 0-2-3.4Z" fill="#FBBC04"/>
  <path d="M13.4 12.5a3.7 3.7 0 0 0-.1 1v27l.1 1 14.7-14.9-14.7-14Z" fill="#4285F4"/>
  <path d="m27.7 27 7.4-7.4-16-9.4a3.9 3.9 0 0 0-5.7 2.3L27.7 27Z" fill="#34A853"/>
  <path d="M142.6 40h2.5V23.3h-2.5V40ZM165 29.3l-2.9 7.3-3-7.3h-2.7l4.5 10.1-2.6 5.7h2.6l6.9-15.8H165Zm-14.1 8.8c-.8 0-2-.4-2-1.4 0-1.3 1.4-1.8 2.7-1.8 1 0 1.6.2 2.2.6a3 3 0 0 1-3 2.6Zm.3-9.1c-1.8 0-3.7.8-4.4 2.5l2.2 1c.4-1 1.3-1.3 2.2-1.3 1.3 0 2.6.8 2.7 2.2v.1a5.5 5.5 0 0 0-2.6-.6c-2.4 0-4.8 1.3-4.8 3.8 0 2.2 1.9 3.6 4 3.6a3.5 3.5 0 0 0 3.3-1.6V40h2.5v-6.4c0-3-2.2-4.6-5.1-4.6Zm-15.4 2.4h-3.5v-5.8h3.5a2.9 2.9 0 0 1 3 3 2.9 2.9 0 0 1-3 2.8Zm0-8h-6V40h2.5v-6.3h3.5c2.7 0 5.4-2 5.4-5.2s-2.7-5.2-5.4-5.2ZM103.3 38c-1.8 0-3.2-1.4-3.2-3.4s1.4-3.5 3.1-3.5c1.7 0 3 1.5 3 3.5s-1.3 3.4-3 3.4Zm2.8-7.8h-.1a4 4 0 0 0-3-1.3 5.6 5.6 0 0 0-5.4 5.7c0 3.2 2.6 5.6 5.4 5.6a4 4 0 0 0 3-1.2v.8c0 2.1-1 3.3-3 3.3a3.1 3.1 0 0 1-2.8-2L98 42a5.4 5.4 0 0 0 5 3.3c3 0 5.5-1.7 5.5-5.9v-10H106v.9Zm4 9.7h2.6V23.3h-2.5V40Zm6.3-5.5a3.1 3.1 0 0 1 3-3.3c.9 0 1.7.5 2 1.2l-5 2.1Zm7.7-1.9c-.5-1.3-2-3.6-4.9-3.6-2.9 0-5.3 2.3-5.3 5.7 0 3.1 2.4 5.6 5.6 5.6 2.6 0 4.1-1.5 4.7-2.5l-1.9-1.3a3.2 3.2 0 0 1-2.8 1.6 2.9 2.9 0 0 1-2.7-1.7l7.5-3.1-.2-.7Zm-60.4-1.9V33h5.7a5 5 0 0 1-1.3 3 5.9 5.9 0 0 1-4.4 1.8 6.3 6.3 0 0 1-6.3-6.4A6.3 6.3 0 0 1 68 27l1.7-1.7a8.4 8.4 0 0 0-6-2.5 9 9 0 0 0-9 8.8 9 9 0 0 0 9 8.8 8 8 0 0 0 6.1-2.4c1.6-1.6 2-3.8 2-5.6a7.8 7.8 0 0 0 0-1.5h-8.1ZM78.4 38c-1.7 0-3.2-1.4-3.2-3.4s1.5-3.5 3.2-3.5c1.8 0 3.2 1.4 3.2 3.5 0 2-1.4 3.4-3.2 3.4Zm0-9a5.6 5.6 0 0 0-5.7 5.6 5.6 5.6 0 0 0 5.7 5.6 5.6 5.6 0 0 0 5.7-5.6 5.6 5.6 0 0 0-5.7-5.7ZM91 38c-1.8 0-3.2-1.4-3.2-3.4s1.4-3.5 3.2-3.5c1.7 0 3.2 1.4 3.2 3.5 0 2-1.5 3.4-3.2 3.4Zm0-9a5.6 5.6 0 0 0-5.7 5.6 5.6 5.6 0 0 0 5.7 5.6 5.6 5.6 0 0 0 5.7-5.6 5.6 5.6 0 0 0-5.7-5.7ZM57.8 17.4a2.8 2.8 0 0 1-1.6-.5 2 2 0 0 1-1-1.4l1-.4a2 2 0 0 0 .5 1 1.7 1.7 0 0 0 2.2 0c.3-.4.5-.7.5-1.1 0-.4-.2-.7-.5-1-.3-.3-.7-.4-1.2-.4H57v-1h.6c.5 0 .8-.1 1-.4.4-.2.5-.5.5-.9a1 1 0 0 0-.4-.9c-.3-.2-.6-.3-1-.3-.7 0-1.2.4-1.4 1l-1-.3c.2-.5.4-.9.8-1.2.4-.3 1-.5 1.6-.5.7 0 1.3.2 1.8.6.5.4.7 1 .7 1.6 0 .8-.4 1.3-1 1.7l.9.8c.2.4.4.8.4 1.2 0 .7-.3 1.3-.8 1.8a2.8 2.8 0 0 1-2 .7Z" fill="#fff"/>
  <path d="M57.8 17.6v-.2c-.5 0-1-.1-1.5-.5-.5-.3-.8-.7-1-1.4H55v.2l1-.4V15c.1.5.3 1 .7 1.2a1.8 1.8 0 0 0 2.3 0 1.4 1.4 0 0 0 0-2.3 2 2 0 0 0-1.3-.4h-.6v-.8h.5c.5 0 .9-.1 1.2-.4.3-.2.4-.6.4-1s-.1-.7-.4-1a1.7 1.7 0 0 0-1.1-.3c-.8 0-1.3.4-1.5 1.1h.1l-1-.5v.1h.1c.2-.3.4-.7.8-1a2.2 2.2 0 0 1 1.5-.5c.7 0 1.2.2 1.7.6.4.4.6.9.6 1.5 0 .7-.3 1.2-1 1.6v.3c.4.1.7.4 1 .7.2.3.3.7.3 1.1a2 2 0 0 1-.7 1.7c-.5.4-1.1.6-1.8.6v.3c.7 0 1.4-.3 2-.7s.8-1.2.8-1.9a2 2 0 0 0-.4-1.3 2.5 2.5 0 0 0-1-.8v.2a2 2 0 0 0 1.1-1.8c0-.7-.2-1.2-.7-1.7a2.8 2.8 0 0 0-2-.6c-.6 0-1.1.1-1.6.5a3 3 0 0 0-.8 1.2v.1l1 .5h.2c.3-.7.6-1 1.3-1 .4 0 .7 0 .9.2a.9.9 0 0 1 .3.8c0 .4 0 .6-.3.8-.3.2-.6.4-1 .4H57v1.2h.8c.4 0 .8.1 1 .4.4.3.5.5.5.9s-.1.7-.4 1-.6.3-1 .3-.7-.1-1-.3a1.9 1.9 0 0 1-.6-1l-1.2.5v.1a3 3 0 0 0 1.1 1.6 2.9 2.9 0 0 0 1.7.5v-.2Zm5.7-3.5h2.8l-1.4-3.8-1.4 3.8ZM61 17.4 64.3 9h1.2l3.1 8.4h-1.2l-.8-2.3h-3.5l-.8 2.3h-1.2Z" fill="#fff"/>
  <path d="M63.5 14.1v.1h3l-1.5-4h-.2l-1.5 4h.2v-.1h.1l1.4-3.7h-.2L66 14h-2.6v.1ZM61 17.4h.1l3.2-8.2h1l3 8h-.9l-.8-2.2H63l-.8 2.2h-1v.3h1.2l.8-2.3h3.3l.8 2.3h1.5l-3.2-8.6h-1.4l-3.3 8.6h.2v-.1Zm9.7-1h2.1c.4 0 .8-.2 1-.5a1.3 1.3 0 0 0 0-1.9 1.4 1.4 0 0 0-1-.4h-2.1v2.7Zm0-3.8h2c.3 0 .7-.1.9-.4.3-.3.4-.6.4-.9 0-.3-.1-.6-.4-.9a1.2 1.2 0 0 0-1-.4h-2v2.6Zm-1 4.8V9h3a2 2 0 0 1 1.6.7c.5.4.7 1 .7 1.6 0 .4 0 .7-.3 1a2 2 0 0 1-.8.7c.4.2.8.5 1 .8.3.3.4.7.4 1.2a2.2 2.2 0 0 1-.7 1.7c-.5.4-1.1.7-1.8.7h-3.2Z" fill="#fff"/>
  <path d="M70.8 16.3v.2h2.1a1.5 1.5 0 0 0 1.6-1.5c0-.4-.2-.8-.5-1a1.5 1.5 0 0 0-1.1-.5h-2.3v3h.2v-.2h.1v-2.6h2c.4 0 .7.2 1 .4a1.2 1.2 0 0 1 0 1.7c-.3.3-.6.4-1 .4h-2.1v.1Zm0-3.7v.1h2c.4 0 .7-.1 1-.4.3-.3.4-.6.4-1 0-.3-.1-.7-.4-1-.2-.2-.6-.4-1-.4h-2.1v2.8-.1h.2v-2.4h1.9c.3 0 .6 0 .8.3.2.3.3.5.3.8 0 .3 0 .5-.3.8-.2.2-.5.4-.9.4h-2v.1Zm-1 4.8V9.2h3c.6 0 1 .2 1.5.6.5.4.7.9.7 1.5 0 .4 0 .7-.3 1-.2.2-.4.5-.7.6h-.1v.3c.5.1.8.4 1 .7.3.3.4.7.4 1a2 2 0 0 1-.7 1.7c-.5.4-1 .6-1.7.6h-3.2v.3H73c.7 0 1.3-.2 1.9-.7.5-.5.8-1.1.8-1.8a2 2 0 0 0-.5-1.3 2.3 2.3 0 0 0-1-.7H74v.2l1-.8a2.2 2.2 0 0 0-.5-2.8c-.5-.5-1.1-.7-1.8-.7h-3.1v8.6h.1v-.1Zm8.5-3.3h2.8l-1.4-3.8-1.4 3.8ZM76 17.4 79 9h1.2l3.2 8.4h-1.2l-.8-2.3h-3.6l-.8 2.3h-1Z" fill="#fff"/>
  <path d="M78.3 14.1v.1h3l-1.5-4h-.2l-1.5 4h.2v-.1h.2l1.3-3.7h-.1l1.2 3.6h-2.6v.1ZM76 17.4l3.2-8.2h1l3 8h-.8l-.8-2.2h-3.7l-.9 2.2h-1v.3h1.3l.8-2.3h3.3l.8 2.3h1.5l-3.3-8.6H79l-3.2 8.6h.2v-.1Zm8.5 0V9h1.1v3.6h4.2V9h1v8.4h-1v-3.8h-4.2v3.8h-1Z" fill="#fff"/>
  <path d="M84.5 17.4h.2V9.2h.8v3.5h4.4V9.2h.8v8H90v-3.7h-4.4v3.7h-1v.3h1.3v-3.8h3.9v3.8H91V8.9h-1.3v3.6h-4V8.9h-1.3v8.6h.1v-.1Zm11 0h-1.1V10H92V9h5.8v1h-2.4v7.4Z" fill="#fff"/>
  <path d="M95.4 17.4v-.2h-1V10h-2.2v-.8h5.4v.8h-2.3v7.5h.3v-7.2h2.3V8.9h-6v1.3h2.3v7.3h1.4v-.1h-.2ZM100 14h2.7l-1.3-3.8L100 14Zm-2.4 3.3 3.1-8.4h1.2l3.2 8.4h-1.2L103 15h-3.5l-.8 2.3h-1.2Z" fill="#fff"/>
  <path d="M99.8 14.1v.1h3l-1.5-4h-.2l-1.4 4h.1v-.1h.2l1.3-3.7h-.2l1.3 3.6H100v.1Zm-2.3 3.3h.1l3.1-8.2h1l3.1 8h-.9l-.8-2.2h-3.7l-.8 2.2h-1.1v.3h1.3l.8-2.3h3.3l.8 2.3h1.5l-3.3-8.6h-1.4l-3.2 8.6h.2v-.1Zm13.9-3.9v3.9h-1v-3.9h-.1l-3.3 3.9h-1.4l3.6-4.1-3.4-4.2h1.3l3.2 4V9h1.1v4l3.2-4h1.3l-3.3 4.2 3.5 4h-1.4l-3.3-3.8Z" fill="#fff"/>
  <path d="M111.4 13.5h-.1v3.7h-.8v-3.8h-.3l-3.2 3.8h-1.4v.2h.2-.2.1l3.6-4.1L106 9h-.1v.1h1.2l3.2 4.1h.3v-4h.8v4h.2l3.2-4h1.2V9l-3.5 4.3 3.6 4.1v-.2h-1.3l-3.2-3.8h-.2v.3h.1v-.2.1l3.2 3.9h1.6v-.2l-3.5-4 3.4-4.2v-.2h-1.5l-3.3 4.1h.2V9h-1.3v4h.1v-.2.2-.1l-3.2-4.1h-1.5V9l3.4 4.2-3.5 4v.2h1.6l3.3-3.9h-.2v3.9h1.3v-4h-.1ZM123.6 9v8.4h-1.1v-6.9l-4.3 6.9h-1V9h1v6.5l4-6.5h1.3Z" fill="#fff"/>
  <path d="M123.6 9h-.2v8.2h-.8v-6.8h-.2l-4.2 6.8h-1v-8h.8v6.4h.3l4-6.4h1.3v-.3h-1.4l-4.1 6.5v.1-.1.1h.2V9H117v8.6h1.3l4.3-6.9h-.2v6.9h1.3V8.9h-.1V9Zm4.5 8.4h-1V10h-2.4V9h5.7v1h-2.3v7.4Z" fill="#fff"/>
  <path d="M128.1 17.4v-.2h-1V10h-2.3v-.8h5.5v.8H128v7.5h.2v-7.2h2.4V8.9h-6v1.3h2.3v7.3h1.4v-.1h-.2Zm10-8.4v8.4H137v-6.8l-4.3 6.8h-1V9h1v6.5l4-6.5h1.4Z" fill="#fff"/>
  <path d="M138 9v8.2h-.9v-6.8h-.2l-4.2 6.8h-1v-8h.9v6.5h.2l4-6.5h1.3v-.3h-1.4l-4.1 6.5.1.1v-.1.1h.1V9h-1.3v8.6h1.3l4.3-6.9h-.1l-.1 1.6v5.3h1.3V8.9h-.1V9Zm6.5 8.5a2.8 2.8 0 0 1-1.5-.5c-.5-.3-.9-.8-1.1-1.4l1-.4a2 2 0 0 0 .6 1 1.7 1.7 0 0 0 2.1 0c.4-.4.5-.7.5-1.1 0-.4-.2-.7-.5-1-.3-.3-.7-.4-1.1-.4h-.7v-1h.6c.4 0 .8-.1 1-.4.3-.2.4-.5.4-.9a1 1 0 0 0-.4-.9c-.2-.2-.6-.3-1-.3-.6 0-1.1.4-1.3 1l-1-.3c.1-.5.4-.9.8-1.2.4-.3 1-.5 1.6-.5.7 0 1.3.2 1.7.6.5.4.7 1 .7 1.6 0 .8-.3 1.3-1 1.7l1 .8.3 1.2c0 .7-.2 1.3-.8 1.8a2.8 2.8 0 0 1-1.9.7Z" fill="#fff"/>
  <path d="M144.5 17.6v-.2c-.5 0-1-.1-1.5-.5-.4-.3-.8-.7-1-1.4h-.1v.2l1-.4V15h-.2c.2.5.4 1 .7 1.2a1.8 1.8 0 0 0 2.3 0 1.4 1.4 0 0 0 0-2.3c-.3-.3-.7-.4-1.2-.4h-.6v-.8h.5c.4 0 .8-.1 1.1-.4.3-.2.5-.6.5-1s-.2-.7-.5-1a1.7 1.7 0 0 0-1-.3c-.8 0-1.3.4-1.6 1.1h.2l-1-.5v.1l.9-1a2.2 2.2 0 0 1 1.4-.5c.7 0 1.3.2 1.7.6.5.4.7.9.7 1.5 0 .7-.3 1.2-1 1.6v.3c.4.1.7.4 1 .7.2.3.3.7.3 1.1a2.1 2.1 0 0 1-.8 1.7c-.5.4-1 .6-1.8.6v.3a3 3 0 0 0 2-.7 2.4 2.4 0 0 0 .8-1.9 2 2 0 0 0-.4-1.3 2.5 2.5 0 0 0-1-.8v.2h.1-.1a2 2 0 0 0 1.2-1.8c0-.7-.3-1.2-.8-1.7a2.8 2.8 0 0 0-1.9-.6c-.6 0-1.2.1-1.6.5a3 3 0 0 0-.9 1.2v.1l1.1.5h.1c.3-.7.7-1 1.3-1 .4 0 .7 0 1 .2a.9.9 0 0 1 .3.8c0 .4-.1.6-.4.8-.2.2-.5.4-1 .4h-.7v1.2h.9c.4 0 .7.1 1 .4.3.3.5.5.5.9s-.2.7-.5 1-.6.3-1 .3-.7-.1-1-.3a1.9 1.9 0 0 1-.5-1l-1.2.4v.2a3 3 0 0 0 1 1.6 2.9 2.9 0 0 0 1.7.5v-.2Z" fill="#fff"/>
</svg>
