<svg id="artwork" xmlns="http://www.w3.org/2000/svg" version="1.1" viewBox="0 0 239 70.9">
  <defs>
    <style>
      .st1{isolation:isolate}.st5{fill:#fff}
    </style>
  </defs>
  <rect width="239" height="70.8" rx="8.8" ry="8.8"/>
  <path class="st5" d="M120.6 38.5c-4.1 0-7.5 3.2-7.5 7.5s3.4 7.5 7.5 7.5a7.5 7.5 0 1 0 0-15Zm0 12c-2.3 0-4.2-1.8-4.2-4.5s2-4.5 4.2-4.5 4.3 1.8 4.3 4.5-2 4.6-4.3 4.6Zm-16.5-12c-4.1 0-7.5 3.2-7.5 7.5s3.4 7.5 7.5 7.5a7.5 7.5 0 1 0 0-15Zm0 12c-2.3 0-4.2-1.8-4.2-4.5s2-4.5 4.2-4.5 4.3 1.8 4.3 4.5-2 4.6-4.3 4.6Zm-19.6-9.7V44h7.7a6.7 6.7 0 0 1-1.8 4 7.8 7.8 0 0 1-5.9 2.4 8.4 8.4 0 0 1-8.4-8.5 8.4 8.4 0 0 1 14.2-6.2l2.2-2.3a11.8 11.8 0 0 0-19.8 8.5c0 6.5 5.3 11.7 11.8 11.7 3.5 0 6.1-1.1 8.2-3.3 2-2.1 2.7-5 2.7-7.5l-.1-2H84.5Zm80.2 2.5c-.6-1.7-2.5-4.8-6.4-4.8s-7.1 3-7.1 7.5c0 4.2 3.2 7.5 7.4 7.5 3.5 0 5.5-2 6.3-3.3l-2.6-1.7c-.8 1.2-2 2-3.7 2s-2.8-.7-3.6-2.2l10-4.2-.3-.8Zm-10.3 2.5c0-2.9 2.3-4.4 4-4.4 1.3 0 2.4.7 2.8 1.6l-6.8 2.8Zm-8.1 7.3h3.3V31h-3.3v22Zm-5.5-13a5.2 5.2 0 0 0-4-1.6c-3.8 0-7.2 3.3-7.2 7.6s3.4 7.5 7.2 7.5a5 5 0 0 0 4-1.8V53c0 3-1.5 4.5-4 4.5-2 0-3.2-1.5-3.8-2.7l-2.9 1.2c.9 2 3 4.4 6.7 4.4 3.9 0 7.2-2.2 7.2-7.8V39h-3.2v1.2ZM137 50.7c-2.2 0-4.2-2-4.2-4.5s2-4.6 4.2-4.6 4 2 4 4.6-1.7 4.5-4 4.5ZM180.2 31h-7.9v22h3.3v-8.4h4.6c3.7 0 7.3-2.6 7.3-6.9s-3.6-6.8-7.3-6.8Zm0 10.6h-4.6V34h4.7a3.8 3.8 0 1 1 0 7.6Zm20.5-3.1c-2.4 0-4.9 1-5.9 3.3l3 1.3c.6-1.3 1.8-1.7 3-1.7 1.7 0 3.4 1 3.4 2.9v.2c-.6-.3-1.8-.8-3.4-.8-3.2 0-6.4 1.7-6.4 5 0 2.9 2.6 4.8 5.5 4.8 2.2 0 3.5-1 4.2-2.2h.1v1.8h3.2v-8.5c0-4-3-6.1-6.7-6.1Zm-.4 12c-1 0-2.6-.5-2.6-1.8 0-1.7 1.9-2.3 3.5-2.3 1.5 0 2.2.3 3 .7a4 4 0 0 1-3.9 3.5ZM219 39l-3.8 9.6-4-9.6h-3.6l6 13.5-3.4 7.4h3.4l9.1-20.9H219Zm-29.7 14.2h3.3V31h-3.3v22Z"/>
  <path d="m36.7 34.4-18.9 20a5 5 0 0 0 7.5 3l21.3-12.2-10-10.9Z" style="fill:#ea4335"/>
  <path d="m55.7 31-9.1-5.3-10.4 9.1 10.4 10.4 9.1-5.3c1.6-.8 2.7-2.5 2.7-4.4s-1-3.7-2.7-4.5Z" style="fill:#fbbc04"/>
  <path d="m17.8 16.4-.2 1.3v35.4c0 .5 0 .9.2 1.3l19.5-19.5-19.5-18.5Z" style="fill:#4285f4"/>
  <path d="m36.8 35.4 9.8-9.8-21.2-12.2a5.1 5.1 0 0 0-7.6 3l19 19Z" style="fill:#34a853"/>
  <g class="st1">
    <path class="st5" d="M74.8 22.8a3.6 3.6 0 0 1-1.4-2.1L75 20c.1.5.4 1 .8 1.3.3.3.8.5 1.3.5s1-.2 1.4-.5c.4-.4.6-.8.6-1.3s-.2-1-.6-1.3-1-.6-1.6-.6H76v-1.5h.8c.6 0 1-.1 1.4-.4.4-.3.5-.7.5-1.2s-.1-.8-.5-1.1-.7-.5-1.2-.5-.9.2-1.2.5c-.3.2-.5.5-.6 1l-1.6-.7c.3-.6.7-1.2 1.2-1.6.6-.5 1.3-.7 2.2-.7a4 4 0 0 1 1.8.4c.5.2 1 .6 1.2 1 .3.5.4 1 .4 1.6s0 1-.3 1.4l-1 1c.5.3 1 .6 1.2 1.1.3.4.5 1 .5 1.6s-.2 1.2-.5 1.8c-.3.5-.8.9-1.3 1.2a4 4 0 0 1-4.2-.3Z"/>
  </g>
  <g class="st1">
    <path class="st5" d="M86 12.2h2l4 11h-1.9l-1-2.8h-4.4l-1 2.9h-2l4.2-11Zm2.6 6.6-1.2-3.3-.4-1.2h-.1l-.4 1.2-1.2 3.3h3.3Z"/>
  </g>
  <g class="st1">
    <path class="st5" d="M93.8 12.2h4.1c.6 0 1.1.2 1.6.4.5.3 1 .6 1.2 1 .3.5.5 1 .5 1.6s-.2 1-.4 1.4c-.3.4-.7.7-1.1.9.5.3 1 .6 1.3 1s.6 1 .6 1.6-.2 1.2-.5 1.7c-.3.4-.7.8-1.3 1-.5.3-1 .5-1.7.5h-4.3v-11Zm4 4.6c.5 0 1-.1 1.2-.4a1.5 1.5 0 0 0 0-2.1c-.3-.3-.7-.5-1.1-.5h-2.4v3h2.3Zm.3 4.8c.5 0 1-.1 1.3-.4.3-.4.4-.7.4-1.2s-.1-.8-.5-1.1c-.3-.3-.7-.5-1.3-.5h-2.5v3.3H98Z"/>
  </g>
  <g class="st1">
    <path class="st5" d="M106.6 12.2h2l4.1 11h-1.9l-1-2.8h-4.4l-1 2.9h-2l4.2-11Zm2.6 6.6-1.1-3.3-.5-1.2-.5 1.2-1.2 3.3h3.3Z"/>
  </g>
  <g class="st1">
    <path class="st5" d="M114.4 12.2h1.7v4.6h5.2v-4.6h1.7v11h-1.7v-4.8h-5.1v4.9h-1.8v-11Z"/>
  </g>
  <g class="st1">
    <path class="st5" d="M127.8 13.9h-3v-1.7h7.8V14h-3v9.3h-1.8V14Z"/>
  </g>
  <g class="st1">
    <path class="st5" d="M136.5 12.2h2l4 11h-1.8l-1-2.8h-4.5l-1 2.9h-1.9l4.2-11Zm2.6 6.6-1.1-3.3-.5-1.2-.5 1.2-1.2 3.3h3.3Z"/>
  </g>
  <g class="st1">
    <path class="st5" d="m143.7 23.2 4.4-5.4-4.2-5.5h2l4 5.1v-5.2h1.8v5.2l4-5.2h2v.1l-4.2 5.5 4.4 5.4h-2.2l-4-4.9v5h-1.8v-5l-4 5h-2.2v-.1Z"/>
  </g>
  <g class="st1">
    <path class="st5" d="M159.4 12.2h1.8v6l-.1 2.2 5-8.2h2v11h-1.8V15l-5 8.4h-1.9v-11Zm13.4 1.7h-3.1v-1.7h7.9V14h-3v9.3h-1.8V14Z"/>
  </g>
  <g class="st1">
    <path class="st5" d="M179.4 12.2h1.7v8.2l4.9-8.2h2v11h-1.7V15l-5 8.4h-2v-11Zm15.5 10.6a3.6 3.6 0 0 1-1.4-2.1l1.6-.6c0 .5.4 1 .7 1.3.4.3.9.5 1.4.5.5 0 1-.2 1.4-.5a1.7 1.7 0 0 0 0-2.6c-.5-.4-1-.6-1.6-.6h-.9v-1.5h.8c.6 0 1-.1 1.4-.4.4-.3.5-.7.5-1.2s-.1-.8-.5-1.1-.7-.5-1.2-.5-.9.2-1.2.5c-.3.2-.5.5-.6 1l-1.6-.7c.3-.6.6-1.2 1.2-1.6s1.3-.7 2.2-.7a4 4 0 0 1 1.8.4c.5.2.9.6 1.2 1s.4 1 .4 1.6-.1 1-.4 1.4a3 3 0 0 1-1 1c.6.3 1 .6 1.3 1.1.3.4.5 1 .5 1.6s-.2 1.2-.5 1.8-.8.9-1.3 1.2a4 4 0 0 1-4.2-.3Z"/>
  </g>
</svg>
