<svg width="180" height="54" fill="none" xmlns="http://www.w3.org/2000/svg">
  <path d="M173.3 54H6.7A6.7 6.7 0 0 1 0 47.2V6.8C0 3 3 0 6.7 0h166.6a6.7 6.7 0 0 1 6.7 6.8v40.5c0 3.7-3 6.7-6.7 6.7Z" fill="#000"/>
  <path d="M27.6 26.2 13.4 41.5a3.8 3.8 0 0 0 5.7 2.3l16-9.3-7.5-8.3Z" fill="#EA4335"/>
  <path d="m42 23.6-7-4-7.7 7 7.8 7.9 6.9-4a3.9 3.9 0 0 0 2-3.5 4 4 0 0 0-2-3.4Z" fill="#FBBC04"/>
  <path d="M13.4 12.5a3.7 3.7 0 0 0-.1 1v27l.1 1 14.7-14.9-14.7-14Z" fill="#4285F4"/>
  <path d="m27.7 27 7.4-7.4-16-9.4a3.9 3.9 0 0 0-5.7 2.3L27.7 27Z" fill="#34A853"/>
  <path d="M130.2 30.7h2.2V16h-2.2v14.6Zm19.6-9.3-2.5 6.3-2.7-6.3h-2.3l3.9 8.8-2.3 4.9h2.3l6-13.7h-2.4ZM137.4 29c-.7 0-1.7-.3-1.7-1.2 0-1.2 1.3-1.6 2.3-1.6 1 0 1.4.2 2 .5a2.6 2.6 0 0 1-2.6 2.3Zm.3-8c-1.6 0-3.2.7-3.9 2.2l2 .9c.4-.9 1.1-1.1 2-1.1 1 0 2.2.7 2.2 1.9v.1a4.8 4.8 0 0 0-2.2-.6c-2.1 0-4.2 1.2-4.2 3.3 0 2 1.7 3.2 3.6 3.2a3 3 0 0 0 2.8-1.4v1.1h2.1V25c0-2.5-1.9-4-4.4-4Zm-13.4 2.1h-3.1v-5h3a2.5 2.5 0 0 1 2.6 2.5c0 1.1-1 2.5-2.5 2.5Zm0-7H119v14.6h2.2V25h3c2.4 0 4.8-1.7 4.8-4.5s-2.4-4.5-4.8-4.5ZM95.7 29c-1.5 0-2.8-1.3-2.8-3s1.3-3 2.8-3c1.5 0 2.6 1.3 2.6 3s-1.1 3-2.6 3Zm2.5-6.8a3.4 3.4 0 0 0-2.7-1.2 5 5 0 0 0-4.7 5 4.9 4.9 0 0 0 4.7 5c1.2 0 2.1-.6 2.6-1.2v.7c0 2-1 3-2.6 3a2.7 2.7 0 0 1-2.5-1.8l-1.9.8a4.7 4.7 0 0 0 4.4 3c2.6 0 4.8-1.6 4.8-5.3v-8.9h-2.1v.9Zm3.6 8.4h2.1V16.1H102v14.6Zm5.3-4.8a2.7 2.7 0 0 1 2.6-2.9c.9 0 1.6.5 1.9 1.1l-4.5 1.8Zm6.8-1.6c-.4-1.1-1.7-3.2-4.2-3.2-2.6 0-4.7 2-4.7 5 0 2.8 2 5 4.9 5a5 5 0 0 0 4.1-2.2l-1.7-1.2A2.8 2.8 0 0 1 110 29c-1.1 0-1.9-.5-2.4-1.5l6.6-2.7-.2-.6Zm-52.8-1.6v2h5a4.4 4.4 0 0 1-1.1 2.7 5.2 5.2 0 0 1-3.9 1.5 5.5 5.5 0 0 1-5.5-5.5 5.5 5.5 0 0 1 9.3-4.1l1.5-1.5a7.3 7.3 0 0 0-5.3-2.1 7.8 7.8 0 0 0-7.8 7.7 7.8 7.8 0 0 0 7.8 7.7 7 7 0 0 0 5.4-2.2 7 7 0 0 0 1.8-5l-.1-1.2h-7.1Zm13 6.4c-1.6 0-2.9-1.2-2.9-3s1.3-3 2.8-3c1.5 0 2.8 1.2 2.8 3s-1.3 3-2.8 3Zm0-8a4.9 4.9 0 0 0-5 5 4.9 4.9 0 0 0 5 5 4.9 4.9 0 0 0 4.9-5 4.9 4.9 0 0 0-5-5ZM85 29c-1.5 0-2.8-1.2-2.8-3s1.3-3 2.8-3c1.5 0 2.8 1.2 2.8 3s-1.3 3-2.8 3Zm0-8a4.9 4.9 0 0 0-5 5 4.9 4.9 0 0 0 5 5 4.9 4.9 0 0 0 5-5 4.9 4.9 0 0 0-5-5Zm59.7-9.6h-4.5c-.6 0-1.1 0-1.6.4-.3.2-.6.5-.6.7 0 .5 1 .8 2.6.8h2l2-.1-.7.8h-2.3l-1.5.1c-1.3 0-2.6-.1-2.6-1 0-.5.2-.9.5-1.3.7-1 1.6-1.4 2.4-1.4l2.8.1h1.5v1Z" fill="#fff"/>
  <path d="M144.7 11.4v-.1h-1.6l-2.9-.1a3 3 0 0 0-1.6.5c-.4.2-.7.4-.7.7l.2.5c.5.4 1.3.5 2.5.5h4v-.2h-.2.2-.1a5 5 0 0 1-.7.7l.1.1h-3.8a6.9 6.9 0 0 1-1.8-.1c-.4-.2-.7-.4-.7-.8 0-.3.2-.7.5-1.1h-.1c.8-1 1.6-1.4 2.4-1.4l2.8.1h1.4v.8h.3v-1h-1.7l-2.8-.1c-.9 0-1.8.4-2.6 1.4-.3.5-.5.9-.5 1.3 0 .6.4 1 1 1 .5.2 1.2.2 1.8.2h3.9l.7-.9V13h-.1a63.4 63.4 0 0 0-4 0c-.8 0-1.4 0-1.8-.2a1.4 1.4 0 0 1-.5-.2l-.1-.2c0-.1.2-.4.5-.6v-.1c.4-.2 1-.3 1.5-.3h4.7-.2Zm6.6-3v1.2c0 .4 0 .8-.2 1-.3.5-.6.8-1 .8-.3 0-.7-.2-1-.6-.3.4-.7.6-1.3.6-.4 0-.6-.2-.6-.6a2 2 0 0 1-1.6.6h-.1c-.4 0-.5-.3-.5-.5 0-.1.1-.4.5-.4h.2c.7 0 1.2-.2 1.5-.7l.4-.5.6-.2-.5 1c0 .3.2.4.4.4s.4 0 .6-.2c.3-.2.3-.4.5-1.1l.5-.3v.7c0 .6.3.9.7.9.2 0 .3-.1.3-.4l-.1-1.1.6-.7Z" fill="#fff"/>
  <path d="M151.3 8.4h-.2l.1 1.2c0 .3 0 .7-.2 1h.1-.1c-.3.4-.6.7-1 .7-.2 0-.5-.2-.7-.6h-.3c-.3.4-.7.6-1.1.6-.4 0-.5-.1-.6-.5v-.1h-.2a2 2 0 0 1-1.5.6h-.1l-.3-.1V11c0-.2 0-.4.3-.4h.2c.7 0 1.3-.1 1.7-.7l.3-.5.5-.2v-.1h-.1v.1h.1l-.1-.2-.5 1.1a.5.5 0 0 0 .5.5c.2 0 .5 0 .7-.2a.8.8 0 0 0 .3-.4l.3-.8h-.2.1l.4-.2h-.1.1-.1l-.1.7c0 .6.5.9.9.9l.3-.1.2-.3-.2-1.2h-.1l.7-.6h-.1l.1-.2h-.1l-.7.7V9l.1 1.2-.2.1c-.3 0-.6-.2-.6-.7v-.8h-.1l-.5.3-.3.8a.6.6 0 0 1-.2.3v.1-.1a1 1 0 0 1-.6.2c-.2 0-.2 0-.2-.2l.4-1V9l-.7.2-.5.6c-.3.4-.7.6-1.4.6h-.2a.7.7 0 0 0-.5.2l-.1.4v.4l.6.2h.1a2 2 0 0 0 1.6-.7h-.2c0 .4.4.7.9.7a1.8 1.8 0 0 0 1.3-.7h-.1c.2.4.6.6 1 .6.5 0 .9-.3 1.1-.8.2-.3.3-.7.3-1l-.1-1.4h-.1Zm1.4 3.1V9.4c0-1.3 0-3.2-.2-4.4l.7-.8a55.4 55.4 0 0 1 .2 6.2c0 .4-.2.7-.6 1.2h-.1Z" fill="#fff"/>
  <path d="M152.7 11.6h.1l.1-1.5v-.7a56 56 0 0 0-.3-4.4l.7-.7v-.1l-.1.1a54.8 54.8 0 0 1 0 6.1c0 .4-.1.7-.5 1.1v.1l.2-.1h-.2v.2h.1c.5-.5.7-.8.7-1.2l.1-1.2c0-1.7 0-3.5-.2-5V4h-.2l-.8.8.2 4.5v2.3ZM55.3 46c-.6 0-1-.1-1.3-.4a1.9 1.9 0 0 1-.5-1.4v-.5l.2-.7h.3v.7c0 .5 0 .9.3 1.1.2.3.6.4 1 .4.5 0 1 0 1.4-.3.5-.2.8-.5 1-.9a5.9 5.9 0 0 1-.7-1.8c0-.2 0-.3.2-.5 0-.1.2-.3.5-.4 0 .2 0 .7.2 1.3l.7.2v.7l-.6-.1v.3c0 .4-.1.7-.4 1.1-.2.4-.6.7-1 .9-.4.2-.9.3-1.4.3Z" fill="#fff"/>
  <path d="M55.3 46c-.6 0-1-.1-1.2-.4-.3-.3-.5-.7-.5-1.3v-.5l.2-.7h-.1l.3.2V43c-.2.2-.2.4-.2.6 0 .5.1 1 .4 1.2.2.3.6.5 1 .5.6 0 1-.2 1.6-.4a2 2 0 0 0 1-1 6 6 0 0 1-.6-1.8v-.4l.5-.4h-.2l.2 1.2h.2-.2l.1.1.8.2v-.1h-.1v.7-.1l-.5-.1-.2-.1v.5h.2-.1c0 .3-.1.7-.4 1a2.7 2.7 0 0 1-1 .9c-.4.2-.8.3-1.3.3v.3a3 3 0 0 0 1.5-.4 2 2 0 0 0 1-1c.3-.3.4-.7.4-1.1v-.3H58v.1l.6.1h.2v-.8l-.1-.1h-.1a1.4 1.4 0 0 1-.7-.2v.1h.1l-.2-1.3V41l-.2.1a1.7 1.7 0 0 0-.6.5 1 1 0 0 0-.1.5c0 .3.2 1 .6 1.9h.2l-.2-.1c-.1.3-.4.5-.9.8-.4.2-.9.3-1.3.3s-.7-.1-1-.3l-.2-1V43l.1-.1-.5-.2h-.1v.1a3.9 3.9 0 0 0-.2 1.3c0 .6.1 1.1.5 1.5.3.3.8.5 1.4.5V46Z" fill="#fff"/>
  <path d="m61.7 44.6-.6.6a4.2 4.2 0 0 1-.6-.6l.6-.6.6.6Zm-1.5.1-.6.7-.6-.6.6-.7.6.6Zm-1.6-1.2v-.7a8.7 8.7 0 0 0 2.4-.4l-.4-1a2.6 2.6 0 0 1-.2-.7l.2-.4.5-.4v.6a44.4 44.4 0 0 1 .3 1v.5c0 .2 0 .5-.3 1l-1 .4-1.5.1Z" fill="#fff"/>
  <path d="M61.7 44.6h-.1a4 4 0 0 1-.6.6h.1a4.5 4.5 0 0 1-.5-.6h-.1v.2l.7-.7-.1-.1H61l.6.7v-.1l.2-.1-.6-.6H61l-.6.7h-.1v.1l.7.6.1.1.7-.7v-.2h-.1Zm-1.5.1h-.1l-.6.6h.2a4.9 4.9 0 0 1-.6-.6H59l.1.2.6-.7h-.2l.6.6h.1l.1-.2a37.8 37.8 0 0 1-.6-.5V44h-.2l-.6.7v.2l.7.6h.1l.6-.7v-.1Zm-1.6-1.2.1-.1v-.6.1l1.3-.1c.4 0 .8-.1 1-.3h.1v-.1a8.6 8.6 0 0 0-.3-1.1 2.7 2.7 0 0 1-.2-.6l.1-.3.4-.4v-.1h-.2l.2.6a46.4 46.4 0 0 1 .2 1v.5c0 .2 0 .5-.3.9h.1l-1.1.3-1.4.2v.2l1.4-.1 1.2-.4c.3-.5.4-.9.4-1.1v-.5a12 12 0 0 0-.3-1 7.2 7.2 0 0 1 0-.6l-.1-.2H61l-.5.5a.8.8 0 0 0-.2.5l.2.7.4 1v-.1l-1 .2-1.3.1-.2.2v.7l.2.1v-.1Zm7.4 0c-.3 0-.5 0-.8-.2 0 .6-.3 1.2-.7 1.6-.4.4-.8.6-1.4.6-.1 0-.4 0-.6-.2a3.3 3.3 0 0 1-.7-.4l.2-.3.9.1a2 2 0 0 0 1.2-.4c.4-.3.6-.7.8-1.3a5 5 0 0 0-.3-.6l-.5-1-.1-.5.1-.4.5-.3c0 .2 0 .4.2.6a13.8 13.8 0 0 1 .5 1.8l.7.2h.1v.7Z" fill="#fff"/>
  <path d="M66 43.5v-.1a1.2 1.2 0 0 1-.7-.2l-.1-.2v.2a2.7 2.7 0 0 1-.8 1.6c-.4.4-.8.5-1.3.5a3 3 0 0 1-1.2-.5v.1l.2-.2H62l.9.1a2 2 0 0 0 1.3-.4c.4-.3.7-.8.9-1.3V43a5.5 5.5 0 0 0-.3-.7 9.3 9.3 0 0 1-.5-.9L64 41l.1-.3.4-.3h-.2l.2.5a12.8 12.8 0 0 1 .6 1.8c.3.2.5.3.8.3v-.1.7l.1.1h.1v-1.1H66l-.7-.2h-.1.1a3.5 3.5 0 0 0-.1-.6l-.4-1.2-.2-.5V40h-.2a2 2 0 0 0-.5.4.7.7 0 0 0-.1.5l.1.6.5 1h.1l.2.6h.1l-.1-.1c-.2.5-.4 1-.8 1.2-.3.3-.7.4-1.1.4l-.9-.1-.3.5.7.4.7.2a2 2 0 0 0 1.5-.6c.4-.5.7-1 .8-1.7h-.2c.2.3.5.3.8.3h.1v-.1Z" fill="#fff"/>
  <path d="M66 43.5v-.7a8.8 8.8 0 0 0 2.1-.3c.3 0 .6-.2.8-.3 0-.4-.3-.7-.6-1a5.3 5.3 0 0 0-1.4-.9h-.2a.6.6 0 0 1-.5-.1.6.6 0 0 1-.1-.5v-.6l.2-.3a33.7 33.7 0 0 1 3.5-1.6l.1.3v.1c0 .3-.2.4-.4.5l-3 1.3a5 5 0 0 1 2.4 1.5c.3.4.4.7.4 1 0 .5-.3 1-.8 1.2-.5.3-1.3.4-2.4.4Z" fill="#fff"/>
  <path d="m66 43.5.2-.1v-.5l-.1-.1v.1a9 9 0 0 0 2-.3l.9-.3v-.1a2.6 2.6 0 0 0-.6-1.1 5.3 5.3 0 0 0-1.4-1l-.4.1v.1-.1a.4.4 0 0 1-.3-.1.5.5 0 0 1 0-.4V39h.1v-.1.1a34.6 34.6 0 0 1 3.4-1.6v-.1h-.1v.3h.2-.1v.1h.1-.1c0 .2-.1.3-.3.4l-3.1 1.3-.4.2h.4a4.8 4.8 0 0 1 2.4 1.5c.3.4.4.7.4 1 0 .4-.2.7-.8 1-.5.2-1.3.4-2.3.4v.2a6 6 0 0 0 2.5-.4c.5-.3.9-.7.8-1.3 0-.3-.1-.7-.4-1a5 5 0 0 0-2.5-1.6v.2l3-1.4c.3 0 .5-.3.5-.6a.6.6 0 0 0-.2-.5 33.6 33.6 0 0 0-3.5 1.6l-.2.1v.3l-.2.6.2.5a.7.7 0 0 0 .6.3h.2v-.2.1a5.2 5.2 0 0 1 1.3.9c.3.3.5.6.6 1l.1-.1v-.1a4.3 4.3 0 0 1-1.7.5 7.8 7.8 0 0 1-1.1 0l-.2.2v.7l.1.1v-.1Zm12 .5-.3-1.5a152.7 152.7 0 0 1-.6-4.7l.1-.5c.1-.2.3-.2.5-.3v.1l.4 1-.3.3v.1l.4 2.9.1 1.2.7.2v.7a1.4 1.4 0 0 1-.7-.2v.4c0 .4 0 .7-.3 1.1-.3.4-.6.7-1 .9a2.8 2.8 0 0 1-1.4.3c-.5 0-1-.1-1.3-.4a1.9 1.9 0 0 1-.4-1.4A4.2 4.2 0 0 1 74 43h.4l-.1.7c0 .5.1.9.3 1.1.3.3.6.4 1 .4l1-.1.9-.5.5-.6Z" fill="#fff"/>
  <path d="M77.9 44h.1l-.2-1.6-.6-3.4a13.3 13.3 0 0 1 0-1.2v-.5l.4-.2h-.1l.3 1.1h.2l-.1-.1-.3.2v.2l.3 2.9.2 1.2v.1l.8.2v-.1.7-.1c-.2 0-.4 0-.6-.2h-.2v.5h.2-.2c0 .3 0 .7-.3 1l-1 .9c-.4.2-.8.3-1.3.3s-.9-.2-1.2-.4c-.3-.3-.4-.7-.4-1.3v-.5l.2-.7H74l.3.2V43h-.1l-.1.7c0 .5 0 1 .4 1.2.2.3.6.5 1 .5a3.2 3.2 0 0 0 2-.7l.5-.6V44h-.2l-.5.5a2.8 2.8 0 0 1-.8.4 3 3 0 0 1-1 .2c-.4 0-.6-.1-.8-.4-.2-.2-.4-.5-.4-1l.1-.6v-.2H74l-.1-.1v.1a6 6 0 0 0-.3 1.3c0 .6.2 1.1.5 1.4.4.4.8.6 1.4.6.5 0 1-.2 1.4-.4a2.9 2.9 0 0 0 1-1c.4-.3.5-.7.5-1.1v-.4h-.1l-.1.2.7.1.2-.1v-.7l-.1-.2-.7-.1-.1.1h.1-.1.1l-.1-1.2h-.1.1l-.3-2.9.2-.2v-.1l-.3-1.1v-.2h-.2a1 1 0 0 0-.6.3.9.9 0 0 0-.1.6V39c0 .7.3 1.7.6 3.4h.2-.2l.3 1.5h.1Z" fill="#fff"/>
  <path d="M82.9 42.8a5 5 0 0 0 2.6-.9l-.7-.8a1.4 1.4 0 0 0-.9-.2 2 2 0 0 0-1 .4c-.5.3-1 .7-1.4 1.3l1.4.2Zm-2.3-1.2h.2l-.3.7.5.2c1.3-1.6 2.3-2.5 3.2-2.5l.7.3.7.5.3.7c0 .4-.1.7-.4 1-.2.3-.6.5-1.1.7-.5.2-1 .3-1.6.3-.5 0-1 0-1.5-.2a4.2 4.2 0 0 1-1.1-.4l-.2.2c-.2.3-.6.4-1 .4h-.1v-.7c.3 0 .6 0 .7-.2l.6-.6.1-.3a.3.3 0 0 1 .3-.1Z" fill="#fff"/>
  <path d="M82.9 42.8v.1a5 5 0 0 0 2.6-.8l.1-.1v-.1c-.2-.4-.5-.7-.8-.9l-.9-.3c-.3 0-.7.2-1.1.5-.5.3-1 .7-1.4 1.3l-.2.2h.2l1.5.2v-.3l-1.4-.1v.2l1.4-1.3c.4-.3.8-.4 1-.4.3 0 .5 0 .8.3l.6.7h.2l-.1-.2c-.9.6-1.7.8-2.5.8v.2Zm-2.3-1.2.2.2v-.2l-.4.7v.1l.6.2h.1c1.3-1.6 2.3-2.4 3-2.4.2 0 .4 0 .7.2l.7.5.3.6c0 .3-.2.6-.4 1l-1 .6c-.6.2-1 .3-1.6.3a7 7 0 0 1-1.4-.2c-.5 0-.9-.2-1.2-.4l-.3.3h.1-.1c-.2.2-.5.3-1 .3v.1l.2-.1H79v-.6.1c.3 0 .5 0 .7-.2l.6-.6.1-.3h-.1.1l.2-.1v-.3a.5.5 0 0 0-.4.3l-.2.2-.4.6-.6.1h-.1l-.2.2v.7l.2.1c.6 0 1 0 1.2-.4l.2-.2h-.1c.2.2.6.4 1.1.5l1.5.1a5 5 0 0 0 1.6-.2 2.7 2.7 0 0 0 1.2-.8c.3-.3.4-.7.4-1.1a1 1 0 0 0-.3-.7 3 3 0 0 0-.8-.6 1.6 1.6 0 0 0-.7-.3c-1 0-2 .9-3.3 2.5l.1.1v-.1a2.6 2.6 0 0 1-.4-.2v.1l.4-.6v-.1l-.3-.2v.1Zm8.2 1.2v.7a2 2 0 0 1-1-.2.8.8 0 0 1-.4-.6l-.3-3.9-.1-1.3.6-.5.1 4.2v1.3a2 2 0 0 0 1 .3h.1Z" fill="#fff"/>
  <path d="M88.8 42.8h-.1v.7-.1a1.7 1.7 0 0 1-.8-.2c-.2-.2-.4-.3-.4-.6l-.3-3.8-.1-1.3H87v.2l.7-.6h-.2v4l.1 1.4v.1l1.2.3v-.1h-.1v.1h.1l.1-.1v-.2h-.1a1.9 1.9 0 0 1-1-.2v.1-5.7l-.3.1-.6.6v1.4c.1 1.7.2 3 .4 3.8 0 .3.2.5.4.7.3.2.7.2 1 .2h.1l.2-.1v-.7h-.2Z" fill="#fff"/>
  <path d="M88.8 43.5v-.7a6 6 0 0 0 2.2-.3l.6-.2 1-.2-.8-.5-.6-.5a1.1 1.1 0 0 0-.5 0c-.3 0-.6 0-.9.2l-.2.1a.5.5 0 0 1-.1-.4c0-.2 0-.4.3-.6l.8-.2c.2 0 .4 0 .7.2l.7.4.8.5c.3.2.5.3.8.3h1l-.4.8h-.7a2 2 0 0 0-.7 0 7 7 0 0 0-1 .5l-1.2.5-1.8.1Z" fill="#fff"/>
  <path d="m88.8 43.5.1-.1v-.5l-.1-.1v.1c1 0 1.7 0 2.3-.3l.5-.2 1-.2h.4l-.4-.3a4.1 4.1 0 0 1-.7-.4 4.9 4.9 0 0 0-.7-.5 1.3 1.3 0 0 0-.5-.1c-.4 0-.7 0-1 .2l.1.1h-.3l.1.2.1-.1-.1-.3c0-.2 0-.3.3-.5a1.5 1.5 0 0 1 1.3 0l.7.4.9.6.7.2 1.1.1v-.1h-.1l-.4.6.1.1v-.1h-1.4l-1 .5a5.4 5.4 0 0 1-3 .6v.2h1.8l1.3-.6a7 7 0 0 1 1-.4l.6-.1h.8l.5-1h-1.2a2.8 2.8 0 0 1-.7-.3l-.8-.5-.8-.5a1.8 1.8 0 0 0-1.6.1.8.8 0 0 0-.4.7c0 .2 0 .4.2.5l.4-.1c.2-.2.5-.2.8-.2a1 1 0 0 1 .4 0l.6.5.8.5V42c-.3 0-.6 0-1 .2v.1H91v.2-.1l-2.2.2-.2.2v.7l.1.1h.1v-.1Zm13 0c-.3 0-.6 0-.8-.2a3 3 0 0 1-.7 1.6 2 2 0 0 1-1.4.6 1.7 1.7 0 0 1-.6-.2 3.3 3.3 0 0 1-.7-.4l.2-.3.9.1a2 2 0 0 0 1.2-.4c.4-.3.6-.7.8-1.3a4.8 4.8 0 0 0-.3-.6l-.5-1-.1-.5.1-.4.4-.3.2.6a18.9 18.9 0 0 1 .6 1.8l.7.2h.1v.7Z" fill="#fff"/>
  <path d="M101.8 43.5v-.1a1.2 1.2 0 0 1-.7-.2l-.2-.2v.2c-.1.7-.4 1.2-.7 1.6-.4.4-.8.5-1.3.5a3.2 3.2 0 0 1-1.2-.5v.1l.2-.2h-.1l.9.1a2 2 0 0 0 1.3-.4c.4-.3.6-.8.8-1.3V43a5.5 5.5 0 0 0-.3-.7 9 9 0 0 1-.5-.9l-.1-.5.1-.3.4-.3h-.2l.2.5h.1-.1a12.8 12.8 0 0 1 .5 1.8c.3.2.6.3 1 .3v-.1h-.2v.6l.1.1.1.1.1-.1v-.7l-.1-.2-.8-.1a3.5 3.5 0 0 0 0-.6 18.1 18.1 0 0 0-.4-1.2l-.2-.5V40h-.2a1.6 1.6 0 0 0-.5.4.7.7 0 0 0-.2.5c0 .2 0 .4.2.6l.5 1h.1-.1l.3.6h.1l-.1-.1a2.6 2.6 0 0 1-.8 1.2c-.3.3-.7.4-1.1.4l-1-.1-.2.4v.1l.7.4.7.2a2 2 0 0 0 1.5-.6c.4-.5.7-1 .8-1.7h-.2c.2.3.5.3.8.3h.1v-.1Z" fill="#fff"/>
  <path d="M104.8 44.5a3.3 3.3 0 0 1-.5.6 3.4 3.4 0 0 1-.6-.5l.6-.6.5.5Zm-.7 1a3 3 0 0 1-.5.4 2.5 2.5 0 0 1-.5-.5l.5-.5.5.5Zm-.7-.8-.5.5a3.9 3.9 0 0 1-.6-.5l.6-.6.5.6Zm-1.5-1.2h-.1v-.7a8.5 8.5 0 0 0 2.4-.4 11.5 11.5 0 0 0-.3-1 2.6 2.6 0 0 1-.2-.7c0-.1 0-.3.2-.4 0-.2.2-.3.4-.4l.1.6.1.5.1.5v.5c0 .2 0 .5-.3 1l-1 .4-1.5.1Z" fill="#fff"/>
  <path d="M104.8 44.5h-.1l-.5.5v.1h.2a3.2 3.2 0 0 1-.6-.6h-.1v.2l.7-.6-.1-.1-.1.1.5.5h.1v-.2l-.4-.5-.1-.1-.1.1-.6.6v.2l.6.5h.2l.5-.6v-.1h-.1Zm-.7 1v-.2l-.5.5v.1l.1-.1-.5-.5-.1.1v.1l.6-.5-.1-.1h-.1l.6.6.1-.2a4.9 4.9 0 0 1-.5-.5v-.1l-.2.1-.5.5-.1.1v.1l.7.5h.1c.2 0 .3-.3.5-.5h.1v-.2l-.2.1Zm-.7-.8-.1-.1-.5.5.1.1a3.8 3.8 0 0 1-.5-.6v.2l.6-.6h-.2l.5.5h.1l.1-.2a9.1 9.1 0 0 1-.5-.5h-.2l-.6.6v.2l.6.5.1.1.6-.7v-.2l-.1.1Zm-1.5-1.2v-.7.1l1.4-.1c.4 0 .7-.1 1-.3v-.1a12.1 12.1 0 0 0-.3-1.1 2.7 2.7 0 0 1-.2-.6l.2-.4.4-.3v-.1h-.2v.6h.2-.1l.1.5h.2-.2l.1.5v.5c0 .2 0 .5-.3.9h.2-.1l-1 .3-1.4.2v.2l1.4-.1 1.1-.4c.3-.5.4-.9.4-1.1v-.5l-.1-.5-.1-.6a6.5 6.5 0 0 1-.1-.5v-.2h-.2l-.5.5a.8.8 0 0 0-.2.5l.2.7.3 1h.1v-.1l-1 .2-1.3.1h-.1l-.2.2v.7l.2.1v-.1Z" fill="#fff"/>
</svg>
