<svg id="artwork" xmlns="http://www.w3.org/2000/svg" version="1.1" viewBox="0 0 239 70.9">
  <defs>
    <style>
      .st5{fill:#fff}
    </style>
  </defs>
  <rect width="239" height="70.8" rx="8.8" ry="8.8"/>
  <path class="st5" d="M120.6 38.5c-4.1 0-7.5 3.2-7.5 7.5s3.4 7.5 7.5 7.5a7.5 7.5 0 1 0 0-15Zm0 12c-2.3 0-4.2-1.8-4.2-4.5s2-4.5 4.2-4.5 4.3 1.8 4.3 4.5-2 4.6-4.3 4.6Zm-16.5-12c-4.1 0-7.5 3.2-7.5 7.5s3.4 7.5 7.5 7.5a7.5 7.5 0 1 0 0-15Zm0 12c-2.3 0-4.2-1.8-4.2-4.5s2-4.5 4.2-4.5 4.3 1.8 4.3 4.5-2 4.6-4.3 4.6Zm-19.6-9.7V44h7.7a6.7 6.7 0 0 1-1.8 4 7.8 7.8 0 0 1-5.9 2.4 8.4 8.4 0 0 1-8.4-8.5 8.4 8.4 0 0 1 14.2-6.2l2.2-2.3a11.8 11.8 0 0 0-19.8 8.5c0 6.5 5.3 11.7 11.8 11.7 3.5 0 6.1-1.1 8.2-3.3 2-2.1 2.7-5 2.7-7.5l-.1-2H84.5Zm80.2 2.5c-.6-1.7-2.5-4.8-6.4-4.8s-7.1 3-7.1 7.5c0 4.2 3.2 7.5 7.4 7.5 3.5 0 5.5-2 6.3-3.3l-2.6-1.7c-.8 1.2-2 2-3.7 2s-2.8-.7-3.6-2.2l10-4.2-.3-.8Zm-10.3 2.5c0-2.9 2.3-4.4 4-4.4 1.3 0 2.4.7 2.8 1.6l-6.8 2.8Zm-8.1 7.3h3.3V31h-3.3v22Zm-5.5-13a5.2 5.2 0 0 0-4-1.6c-3.8 0-7.2 3.3-7.2 7.6s3.4 7.5 7.2 7.5a5 5 0 0 0 4-1.8V53c0 3-1.5 4.5-4 4.5-2 0-3.2-1.5-3.8-2.7l-2.9 1.2c.9 2 3 4.4 6.7 4.4 3.9 0 7.2-2.2 7.2-7.8V39h-3.2v1.2ZM137 50.7c-2.2 0-4.2-2-4.2-4.5s2-4.6 4.2-4.6 4 2 4 4.6-1.7 4.5-4 4.5ZM180.2 31h-7.9v22h3.3v-8.4h4.6c3.7 0 7.3-2.6 7.3-6.9s-3.6-6.8-7.3-6.8Zm0 10.6h-4.6V34h4.7a3.8 3.8 0 1 1 0 7.6Zm20.5-3.1c-2.4 0-4.9 1-5.9 3.3l3 1.3c.6-1.3 1.8-1.7 3-1.7 1.7 0 3.4 1 3.4 2.9v.2c-.6-.3-1.8-.8-3.4-.8-3.2 0-6.4 1.7-6.4 5 0 2.9 2.6 4.8 5.5 4.8 2.2 0 3.5-1 4.2-2.2h.1v1.8h3.2v-8.5c0-4-3-6.1-6.7-6.1Zm-.4 12c-1 0-2.6-.5-2.6-1.8 0-1.7 1.9-2.3 3.5-2.3 1.5 0 2.2.3 3 .7a4 4 0 0 1-3.9 3.5ZM219 39l-3.8 9.6-4-9.6h-3.6l6 13.5-3.4 7.4h3.4l9.1-20.9H219Zm-29.7 14.2h3.3V31h-3.3v22Z"/>
  <path d="m36.7 34.4-18.9 20a5 5 0 0 0 7.5 3l21.3-12.2-10-10.9Z" style="fill:#ea4335"/>
  <path d="m55.7 31-9.1-5.3-10.4 9.1 10.4 10.4 9.1-5.3c1.6-.8 2.7-2.5 2.7-4.4s-1-3.7-2.7-4.5Z" style="fill:#fbbc04"/>
  <path d="m17.8 16.4-.2 1.3v35.4c0 .5 0 .9.2 1.3l19.5-19.5-19.5-18.5Z" style="fill:#4285f4"/>
  <path d="m36.8 35.4 9.8-9.8-21.2-12.2a5.1 5.1 0 0 0-7.6 3l19 19Z" style="fill:#34a853"/>
  <path class="st5" d="M77.2 21.5c-1.2 0-2.2-.3-2.8-.7-.7-.5-1-1.2-1-2.2 0-.6.1-1.1.3-1.7h.6v.8c0 .6 0 1 .2 1.4.3.3.6.6 1.1.7l.9.2h1.1a13.5 13.5 0 0 0 5.2-1l-.3-.7a16 16 0 0 0-.6-1.5v-.4c0-.3 0-.5.2-.7l.9-.7.3 1.5.2 1.2v1.5a8 8 0 0 1-.5 1l-1.6.6a14.8 14.8 0 0 1-4.2.7Zm0 2.8-.5-.5-.4-.4.4-.5.5-.5.4.3.5.6-.3.4-.5.5Zm1.2 1a5 5 0 0 1-.9-.8l.5-.4.4-.5.8.9a13 13 0 0 1-.8.8Zm1-1.3-.5-.4-.4-.4.4-.4.5-.6a15 15 0 0 1 .9.9l-.4.4-.5.6Zm6.8.6-.6-.1a6.6 6.6 0 0 1-1.5-.9l.2-.5h.8l.7.1c.8 0 1.5-.2 2-.6s1-1.1 1.2-2a10.8 10.8 0 0 0-.5-.9l-.7-1.4-.3-1c0-.3 0-.6.2-.8l.8-.5.2.6.2.8.3.7.3 1 .2 1c0 .9-.2 1.6-.5 2.3-.3.7-.7 1.2-1.2 1.6s-1.2.6-1.8.6Zm9.3-3.2a503.6 503.6 0 0 0-.4-9.7l.5-.5.7-.2a10.4 10.4 0 0 0 .5 1.9l-.4.4v8l-.9.1Zm6.1 4.1c-.9 0-1.6-.3-2-.8-.5-.5-.8-1.3-.8-2.2v-.6l.1-.6.2-.9.6.2-.2 1.1c0 .8.2 1.3.6 1.7s.9.6 1.6.6a5.2 5.2 0 0 0 2.8-.8l1-1a22 22 0 0 1-1.2-2.8c0-.4.1-.7.3-1l1-.6v.4l.1.7.2 1a7.4 7.4 0 0 0 1 .2h.6l.6-.2.3-.6.3-.9.2-.6.3-.3.4-.2c.2 0 .3 0 .4.2l-.3.7-.4 1.2a7.1 7.1 0 0 0 2.8.7l-.2-.7-.4-.9-.3-.7v-.4c0-.3 0-.5.3-.8l.8-.6.2 1 .2.9.1.9.1.7v.5l-.3.8-.3.7c-.6 0-1.2 0-1.8-.2l-1.6-.5-.2.2c0 .2-.3.3-.7.4a5.2 5.2 0 0 1-1.3 0h-.6v.3c0 .7-.2 1.3-.6 1.9a5 5 0 0 1-3.9 2Zm18.4-4a30 30 0 0 1-4.5-.5c-.5-.1-.8-.2-.8-.4l.1-.4.2-.6.2-.6.1-.3.6-.5a5.7 5.7 0 0 1 1.2-.6l.7-.2 1-.4.3-.6.6.3a3 3 0 0 1-.6 1 2 2 0 0 1-.8.6l-.8.3-.6.2a4.9 4.9 0 0 0-1.3.6 8 8 0 0 0 2 .5 19.8 19.8 0 0 0 7.6-.5l.3.6c0 .1 0 .3-.2.4 0 .2-.2.3-.4.4a16.6 16.6 0 0 1-4.9.7Zm15 4.5c-1.4 0-2.4-.4-3-1-.8-.7-1.1-1.6-1.1-2.9 0-.6.1-1.2.4-1.9a6.5 6.5 0 0 1 3-2.8c-.1 0-.3 0-.5-.2l-.8-.2h-1.5l-.9.5-.2-.3v-.4c0-.4.1-.7.5-1 .3-.2.8-.4 1.4-.4a15.8 15.8 0 0 1 2.5.6l1.4.4 1.3.1h1.2l-.5 1.4H137a8 8 0 0 0-3.8 1.5c-.6.4-1 .8-1.3 1.3s-.4.9-.4 1.4.1 1 .4 1.3.7.6 1.2.8a5 5 0 0 0 1.9.3 14.6 14.6 0 0 0 3.7-.4l.2.5a11.7 11.7 0 0 1-2.9 1.2 5 5 0 0 1-1 .1Zm6-4.6a503.6 503.6 0 0 0-.5-9.7l.5-.5.7-.2a10.4 10.4 0 0 0 .5 1.9l-.4.4v8l-.9.1Zm6 4.1c-.9 0-1.6-.3-2-.8-.5-.5-.8-1.3-.8-2.2a5.5 5.5 0 0 1 .1-1.2l.2-.9.6.2-.2 1.1c0 .8.2 1.3.6 1.7s.9.6 1.6.6a5.2 5.2 0 0 0 2.8-.8l1-1-.9-1.7c-.2-.5-.2-1-.2-1.2 0-.3 0-.6.2-.8.2-.3.5-.5 1-.7v.6l.3 1.2.3.1c1-1.3 2-2.3 2.8-3 .9-.6 1.6-1 2.3-1 .2 0 .5 0 .7.2a4.1 4.1 0 0 1 1.6 1.2c.3.4.5.7.5 1 0 .7-.2 1.2-.6 1.7-.4.5-1 1-1.8 1.2s-1.7.5-2.6.5a12.5 12.5 0 0 1-3-.4v.6a3 3 0 0 1-.6 1.8c-.4.6-1 1-1.7 1.4a5 5 0 0 1-2.2.6Zm7.6-5.4a7 7 0 0 0 2-.3 10 10 0 0 0 2.2-1l-1.2-1.2c-.4-.3-.9-.4-1.3-.4s-.8.1-1.2.4l-1.3 1-1.3 1.3 1.1.2h1Zm9.6 5.4c-1 0-1.6-.3-2-.8s-.8-1.3-.8-2.2v-.6l.1-.6.2-.9.6.2a5 5 0 0 0-.2 1.1c0 .8.2 1.3.5 1.7s1 .6 1.6.6a5.2 5.2 0 0 0 2.9-.8l.5-.4.4-.5-.4-2.3a73.4 73.4 0 0 0-.6-3.5c0-.7-.2-1.3-.3-1.8l-.2-1.5v-.8c0-.4 0-.7.3-1 .2-.2.5-.3.9-.4l.2 1 .4.9-.4.3.4 4.9.2 1.4.1 1.1v1c0 .7-.2 1.4-.6 2a4.9 4.9 0 0 1-3.9 2Zm13.6-4a7 7 0 0 1-2.2-.3c-.5-.2-.9-.4-1.2-.8-.2-.3-.3-.7-.3-1.2v-.4a5.7 5.7 0 0 1 .2-.8h.6v.6c0 .3 0 .6.2.7.1.2.3.4.7.5l.9.2h1.4a16.3 16.3 0 0 0 3-.3 7 7 0 0 0 1.3-.5l-.6-.9-.9-.9a9 9 0 0 0-1.7-1h-.4a1 1 0 0 1-.7-.3 1 1 0 0 1-.3-.7V15l.2-.6.1-.4.2-.2 1.7-1 1.3-.6 1.2-.5 1.3-.5.2.2v.4a1.1 1.1 0 0 1-.7 1l-1.8.8-1.5.7-1.5.6c.8.2 1.6.5 2.3 1 .7.4 1.2.9 1.6 1.4.5.6.7 1 .7 1.6 0 .8-.5 1.4-1.4 1.9-.9.4-2.2.7-4 .7Zm8.2 3.1-.6-.1-.7-.4-.8-.5.3-.5h.8l.7.1a3 3 0 0 0 2-.6c.5-.5.9-1.1 1.2-2a10.8 10.8 0 0 0-.5-.9l-.8-1.4-.3-1c0-.3.1-.6.3-.8l.7-.5.2.6.3.8.2.7.4 1 .1 1c0 .9-.1 1.6-.4 2.3-.3.7-.8 1.2-1.3 1.6a3 3 0 0 1-1.8.6Zm8.2.9c-1 0-1.6-.3-2.1-.8s-.8-1.3-.8-2.2a5.5 5.5 0 0 1 .2-1.2l.1-.9.7.2c-.2.4-.2.8-.2 1.1 0 .8.2 1.3.5 1.7s1 .6 1.6.6l1.2-.1 1.2-.3 1-.5a4.3 4.3 0 0 0 1.2-1h-.8a7 7 0 0 1-1.8-.4c-.4-.1-.7-.3-.9-.6a2 2 0 0 1-.3-1.2c0-.3 0-.7.2-1.1l.7-1.2c.2-.4.5-.7.9-1 .5-.4 1-.6 1.3-.6.4 0 .7.1.9.4.2.2.3.6.4 1.1l-.6.2-.2-.2h-.3l-.6.1-.7.5-.7.7c-.4.4-.6.8-.7 1.2l.7.3 1 .2c.4 0 .7 0 1 .2l.6.2.4.5v.7c0 .3 0 .6-.3 1l-1 1a7.3 7.3 0 0 1-3.8 1.4Zm9.6 0c-.9 0-1.6-.3-2-.8-.6-.5-.8-1.3-.8-2.2a5.5 5.5 0 0 1 .1-1.2l.2-.9.6.2-.2 1.1c0 .8.2 1.3.6 1.7s.8.6 1.5.6a5.2 5.2 0 0 0 2.9-.8l1-1a22 22 0 0 1-1.2-2.8c0-.4.1-.7.3-1l1-.6v.5l.1.7.2.8.2 1v.9c0 .7-.2 1.3-.6 1.9-.4.5-1 1-1.7 1.3a5 5 0 0 1-2.2.6Z" style="isolation:isolate"/>
</svg>
