<svg width="180" height="54" fill="none" xmlns="http://www.w3.org/2000/svg">
  <path d="M173.33 54H6.67A6.73 6.73 0 0 1 0 47.25V6.75C0 3.04 3 0 6.67 0h166.66A6.73 6.73 0 0 1 180 6.75v40.5c0 3.71-3 6.75-6.67 6.75Z" fill="#000"/>
  <path d="m27.63 26.22-14.2 15.26a3.84 3.84 0 0 0 5.65 2.35l.05-.03 15.97-9.33-7.48-8.25Z" fill="#EA4335"/>
  <path d="m41.98 23.63-.01-.02-6.9-4.05-7.77 7 7.8 7.9 6.86-4a3.89 3.89 0 0 0 2.02-3.43c0-1.47-.8-2.75-2-3.4Z" fill="#FBBC04"/>
  <path d="M13.43 12.52a3.7 3.7 0 0 0-.13 1v26.96c0 .35.04.68.13 1L28.1 26.62l-14.68-14.1Z" fill="#4285F4"/>
  <path d="m27.73 27 7.34-7.44-15.96-9.37a3.85 3.85 0 0 0-5.69 2.33L27.73 27Z" fill="#34A853"/>
  <path d="M130.19 30.67h2.17V16.1h-2.17v14.57Zm19.59-9.32-2.5 6.31h-.07l-2.59-6.31h-2.34l3.88 8.82-2.22 4.92h2.27l5.98-13.74h-2.41ZM137.44 29c-.71 0-1.7-.35-1.7-1.24 0-1.12 1.23-1.55 2.3-1.55.96 0 1.4.2 1.99.49a2.64 2.64 0 0 1-2.59 2.3Zm.26-7.98c-1.57 0-3.2.69-3.88 2.23l1.93.8c.41-.8 1.19-1.07 1.99-1.07 1.13 0 2.27.68 2.29 1.88v.15a4.81 4.81 0 0 0-2.27-.56c-2.08 0-4.2 1.14-4.2 3.28 0 1.95 1.7 3.2 3.62 3.2 1.46 0 2.27-.65 2.77-1.42h.08v1.12h2.1v-5.58c0-2.59-1.93-4.03-4.43-4.03Zm-13.44 2.09h-3.09v-5h3.1a2.52 2.52 0 0 1 2.54 2.5c0 1.13-.92 2.5-2.55 2.5Zm-.05-7.02H119v14.57h2.17v-5.52h3.04c2.4 0 4.78-1.75 4.78-4.53 0-2.78-2.37-4.52-4.78-4.52ZM95.79 29c-1.5 0-2.76-1.25-2.76-2.98 0-1.75 1.26-3.02 2.76-3.02 1.49 0 2.65 1.27 2.65 3.02 0 1.73-1.16 2.98-2.65 2.98Zm2.5-6.85h-.08a3.43 3.43 0 0 0-2.6-1.1 4.93 4.93 0 0 0-4.76 4.97 4.9 4.9 0 0 0 4.75 4.94c1.19 0 2.13-.53 2.61-1.13h.08v.71c0 1.9-1.01 2.91-2.65 2.91a2.74 2.74 0 0 1-2.5-1.76l-1.9.79a4.72 4.72 0 0 0 4.4 2.93c2.56 0 4.72-1.5 4.72-5.17v-8.9h-2.07v.81Zm3.57 8.5h2.17V16.1h-2.17v14.57Zm5.39-4.8a2.72 2.72 0 0 1 2.59-2.9c.86 0 1.6.44 1.84 1.06l-4.44 1.84ZM114 24.2c-.4-1.11-1.67-3.16-4.24-3.16-2.55 0-4.67 2.01-4.67 4.96 0 2.78 2.1 4.96 4.91 4.96a4.93 4.93 0 0 0 4.14-2.2l-1.7-1.13A2.83 2.83 0 0 1 110 29c-1.1 0-1.9-.5-2.4-1.5l6.63-2.74-.23-.56Zm-52.8-1.64v2.1h5.03a4.39 4.39 0 0 1-1.14 2.65 5.15 5.15 0 0 1-3.89 1.54c-3.1 0-5.52-2.5-5.52-5.59a5.52 5.52 0 0 1 9.31-4.1l1.49-1.48a7.34 7.34 0 0 0-5.28-2.12 7.8 7.8 0 0 0-7.81 7.7 7.8 7.8 0 0 0 7.81 7.7c2.3 0 4.02-.75 5.37-2.16a6.95 6.95 0 0 0 1.82-4.92c0-.49-.04-.94-.11-1.32H61.2ZM74.11 29c-1.5 0-2.8-1.23-2.8-3 0-1.78 1.3-3 2.8-3 1.5 0 2.8 1.22 2.8 3 0 1.77-1.3 3-2.8 3Zm0-7.96A4.89 4.89 0 0 0 69.14 26a4.9 4.9 0 0 0 4.97 4.96A4.9 4.9 0 0 0 79.1 26a4.89 4.89 0 0 0-4.98-4.96ZM84.97 29c-1.5 0-2.8-1.23-2.8-3 0-1.78 1.3-3 2.8-3 1.5 0 2.8 1.22 2.8 3 0 1.77-1.3 3-2.8 3Zm0-7.96A4.89 4.89 0 0 0 79.99 26a4.9 4.9 0 0 0 4.98 4.96A4.9 4.9 0 0 0 89.94 26a4.89 4.89 0 0 0-4.97-4.96Zm59.76-9.61h-1.65c-1.04 0-2.26-.1-2.83-.1-.65 0-1.18.16-1.6.44-.37.25-.6.49-.6.69 0 .54 1.04.8 2.55.8.67 0 1.34-.03 2.02-.05l1.94-.03.03.06c-.18.27-.42.53-.68.78-.8 0-1.55.02-2.26.04-.53.02-1.05.04-1.53.04-1.3 0-2.66-.1-2.66-1.08 0-.4.2-.8.5-1.2.74-.96 1.6-1.4 2.44-1.4.65 0 1.82.1 2.77.1h1.56v.9Z" fill="#fff"/>
  <path d="M144.73 11.43v-.13h-1.65c-1.04 0-2.25-.1-2.83-.1-.67 0-1.23.16-1.67.45-.38.28-.66.5-.67.8 0 .2.1.35.23.47.43.34 1.31.46 2.46.47.67 0 1.35-.02 2.02-.05l1.94-.03v-.13l-.12.04.02.06.13-.04-.11-.07c-.17.25-.4.51-.66.76l.1.1v-.14c-.81 0-1.56.02-2.27.04-.54.01-1.05.04-1.53.04a6.9 6.9 0 0 1-1.78-.17c-.48-.15-.74-.36-.75-.78 0-.35.2-.73.47-1.13l-.1-.07.1.08c.73-.94 1.56-1.35 2.34-1.36.64 0 1.82.1 2.77.1h1.43v.79h.26v-1.05h-1.7c-.93 0-2.1-.1-2.75-.1-.9 0-1.8.47-2.56 1.45-.3.43-.52.85-.52 1.29 0 .57.41.9.94 1.04.53.15 1.2.17 1.85.17l1.53-.03c.71-.02 1.47-.05 2.26-.05h.06l.04-.03c.26-.26.5-.53.69-.8l.04-.06-.05-.13-.03-.09h-.1c-.65 0-1.3.02-1.95.04-.67.02-1.34.04-2.01.04-.75 0-1.38-.06-1.8-.19a1.36 1.36 0 0 1-.49-.22l-.13-.25c-.02-.1.18-.34.55-.58l-.08-.11.07.1c.4-.26.9-.4 1.53-.4.56 0 1.78.1 2.83.1h1.78v-.14h-.13Zm6.53-3.07c.08.54.11.98.11 1.28 0 .32-.13.73-.26.98-.27.45-.64.79-1.06.79-.3 0-.63-.23-.9-.6h-.05c-.32.35-.72.62-1.25.62-.4 0-.65-.19-.69-.61h-.03c-.44.5-1.04.6-1.52.6h-.13c-.39 0-.5-.28-.5-.47 0-.17.12-.44.5-.44h.25c.65 0 1.17-.17 1.51-.66l.4-.57.55-.2.02.04c-.28.46-.48.82-.48 1.03 0 .23.15.36.37.36.2 0 .44-.07.64-.2.25-.2.28-.4.5-1.14l.44-.26.04.03c-.06.23-.1.5-.1.7 0 .55.4.83.75.83.2 0 .38-.1.38-.32 0-.28-.09-.74-.18-1.16.2-.24.41-.45.64-.65l.05.02Z" fill="#fff"/>
  <path d="m151.26 8.36-.13.02c.08.54.1.97.1 1.26.01.29-.11.69-.23.92l.11.06-.11-.07c-.26.44-.6.73-.95.72-.24 0-.54-.19-.78-.53l-.04-.06h-.19l-.04.04c-.3.34-.67.57-1.15.58-.35-.02-.5-.13-.56-.5l-.01-.11h-.2l-.05.04c-.4.47-.95.56-1.42.57h-.13c-.16 0-.24-.06-.29-.12l-.07-.23c0-.12.05-.3.36-.3h.25c.67 0 1.25-.19 1.62-.73l.37-.53.5-.18-.03-.12-.11.08.03.03.1-.08-.11-.07c-.28.47-.5.81-.5 1.1a.48.48 0 0 0 .5.5c.24 0 .5-.08.71-.24a.8.8 0 0 0 .31-.42c.08-.18.14-.41.25-.79l-.13-.03.07.11.43-.25-.06-.12-.08.11.04.03.08-.1-.13-.04c-.06.24-.1.52-.1.74 0 .61.47.95.88.95.12 0 .25-.03.34-.1.1-.08.17-.2.17-.35 0-.3-.09-.76-.18-1.2l-.13.04.1.08c.2-.23.4-.44.63-.63l-.09-.1-.06.12.05.02.06-.12.06-.12-.04-.02-.08-.04-.07.06c-.24.2-.46.42-.66.66l-.05.05.02.07c.1.41.18.87.18 1.13 0 .12-.1.18-.25.19-.28 0-.61-.22-.61-.7 0-.18.03-.45.09-.66l.02-.1-.12-.08-.07-.04-.5.3-.05.02-.01.05-.24.76a.62.62 0 0 1-.22.3l.08.11-.08-.1c-.17.11-.38.18-.56.18-.17-.01-.23-.07-.24-.23 0-.14.18-.5.47-.96l.05-.08-.1-.1-.05-.08-.64.22-.04.02-.42.6c-.31.45-.77.6-1.4.6h-.25a.7.7 0 0 0-.5.2l-.13.38c0 .12.03.27.13.4.1.12.28.21.5.21h.13c.5 0 1.15-.1 1.62-.65l-.1-.09v.13h.03v-.13l-.13.01c.03.48.38.75.82.73a1.8 1.8 0 0 0 1.35-.66l-.1-.09v.14h.06v-.14l-.11.08c.27.38.63.65 1 .65.5 0 .9-.38 1.18-.85.14-.28.27-.7.27-1.05 0-.31-.03-.75-.11-1.3l-.01-.06-.06-.04-.06.12Zm1.44 3.19c.06-.45.07-.96.07-1.43v-.7c0-1.31-.14-3.22-.26-4.46.2-.26.48-.56.7-.76l.07.02c.15 1.57.19 3.38.19 5.05 0 .43-.02.86-.05 1.18-.02.4-.22.7-.63 1.15l-.1-.05Z" fill="#fff"/>
  <path d="m152.7 11.55.12.02c.08-.46.08-.98.08-1.45v-.7a56 56 0 0 0-.25-4.47l-.14.01.1.08c.2-.25.48-.54.7-.74l-.1-.1-.03.13.06.02.04-.13-.13.02c.15 1.55.18 3.36.18 5.03 0 .43-.01.86-.05 1.16v.01c-.02.35-.18.61-.6 1.07l.1.1.07-.13-.1-.05-.06.12-.06.12.1.05.09.05.06-.08c.42-.46.65-.8.67-1.23l-.13-.01.13.01c.03-.32.05-.75.05-1.2 0-1.67-.04-3.48-.19-5.05v-.09l-.15-.04-.08-.03-.05.05c-.23.21-.51.51-.72.78l-.03.04v.05c.12 1.24.26 3.14.26 4.45v.7c0 .47 0 .97-.08 1.4l-.01.1.08.05.06-.12ZM55.25 46.03c-.55 0-.98-.16-1.3-.47a1.9 1.9 0 0 1-.45-1.35c0-.18 0-.36.03-.52.02-.17.07-.41.15-.73l.36.09c-.07.28-.11.51-.11.69 0 .47.12.84.35 1.1.24.26.57.4.99.4.48 0 .95-.12 1.43-.36.48-.23.8-.52.95-.86a5.9 5.9 0 0 1-.63-1.84c0-.17.05-.32.14-.45.1-.14.26-.28.5-.41.02.22.1.64.22 1.25v.03c.21.11.45.16.7.16l.08.08v.58l-.08.08c-.21 0-.4-.04-.58-.12l.01.28c0 .4-.12.78-.38 1.14-.25.36-.6.66-1.03.89-.44.23-.89.34-1.35.34Z" fill="#fff"/>
  <path d="M55.25 46.03v-.13c-.53 0-.92-.15-1.2-.44-.28-.28-.42-.7-.42-1.25 0-.18.01-.35.03-.5l.15-.72-.13-.03-.03.13.36.09.03-.13-.13-.04c-.07.3-.11.53-.11.73 0 .49.12.9.38 1.19.27.3.64.44 1.09.44.5 0 1-.13 1.49-.37.5-.24.84-.54 1.02-.92l.02-.06-.02-.05a5.91 5.91 0 0 1-.63-1.8c0-.13.04-.25.12-.37.08-.1.23-.24.45-.37l-.07-.11-.13.01c.03.24.1.65.22 1.26l.14-.02-.14.01v.04l.02.07.06.03c.23.12.5.18.76.18v-.14l-.1.1.05.04v.46l-.04.05.1.09v-.13c-.2 0-.38-.04-.54-.1l-.2-.1.03.5.13-.01h-.13c0 .37-.12.72-.35 1.06a2.7 2.7 0 0 1-1 .85c-.41.22-.84.33-1.28.33v.26a3 3 0 0 0 1.41-.36c.46-.23.82-.54 1.08-.93.27-.38.4-.78.4-1.21v-.28H58l-.06.12c.2.1.41.13.64.13h.06l.12-.12.04-.04v-.68l-.12-.12-.04-.04h-.06a1.4 1.4 0 0 1-.64-.15l-.06.12.13-.01v-.05c-.12-.6-.2-1.02-.22-1.24l-.03-.2-.17.1a1.7 1.7 0 0 0-.54.45.91.91 0 0 0-.16.53c0 .36.22.97.64 1.9l.12-.06-.12-.05c-.14.3-.43.57-.89.8-.46.22-.91.33-1.37.33-.4 0-.68-.12-.89-.35-.2-.23-.32-.56-.32-1.01 0-.16.04-.38.1-.66l.04-.13-.48-.12-.13-.03-.04.13a3.89 3.89 0 0 0-.2 1.28c.01.6.17 1.1.51 1.44.34.35.81.51 1.39.51v-.13Z" fill="#fff"/>
  <path d="M61.67 44.59c-.11.18-.3.4-.58.65a4.15 4.15 0 0 1-.63-.59c.14-.13.35-.35.62-.65.06.06.25.26.6.59Zm-1.45.13c-.12.19-.31.4-.57.66-.3-.23-.5-.43-.65-.59.17-.15.38-.37.63-.65.05.06.25.26.59.58Zm-1.6-1.22-.08-.08v-.58l.08-.08c.48 0 .93-.03 1.37-.1.44-.06.77-.14 1-.25-.07-.26-.19-.61-.35-1.06a2.63 2.63 0 0 1-.19-.65c0-.14.06-.29.17-.43.12-.15.27-.28.46-.39l.11.57a44.37 44.37 0 0 1 .22 1.06c.02.17.04.33.04.47 0 .23-.11.56-.34.99-.26.16-.63.29-1.1.38-.46.1-.93.15-1.39.15Z" fill="#fff"/>
  <path d="m61.67 44.59-.1-.08c-.11.17-.3.38-.57.64l.1.1.08-.11a4.5 4.5 0 0 1-.62-.58l-.1.1.09.09c.15-.14.36-.36.63-.66l-.1-.09-.1.09.6.6.1-.1.09-.1-.6-.58-.09-.1-.1.1c-.27.3-.48.52-.61.64l-.1.09.08.1c.16.18.38.38.66.6l.1.08.08-.08c.27-.26.47-.48.6-.68l.05-.1-.07-.07-.1.1Zm-1.45.13-.12-.07c-.1.17-.29.39-.55.64l.1.1.08-.11a4.9 4.9 0 0 1-.63-.57l-.1.08.1.1c.17-.16.38-.38.63-.66l-.1-.09-.1.1.6.58.09-.1.09-.1a37.8 37.8 0 0 1-.59-.57l-.1-.1-.1.1c-.24.28-.44.5-.6.65l-.1.08.08.1c.15.17.37.37.66.6l.1.08.08-.08c.27-.26.46-.49.59-.69l.06-.09-.08-.07-.1.1Zm-1.6-1.22.1-.1-.05-.04v-.46l.04-.04-.09-.1v.14c.48 0 .94-.04 1.39-.1.44-.07.79-.15 1.03-.27l.1-.05-.03-.1a8.59 8.59 0 0 0-.35-1.08 2.68 2.68 0 0 1-.18-.6c0-.1.05-.22.15-.35.1-.13.24-.25.42-.35l-.07-.12-.13.02.11.58a46.4 46.4 0 0 1 .22 1.06l.03.44c0 .19-.1.5-.32.92l.12.07-.07-.12c-.24.15-.6.28-1.05.37-.46.1-.92.15-1.37.15v.26c.47 0 .95-.05 1.42-.14.48-.1.86-.24 1.14-.41l.03-.02.02-.03c.23-.44.35-.78.35-1.05 0-.15-.01-.31-.04-.49a12.07 12.07 0 0 0-.22-1.07 7.16 7.16 0 0 1-.1-.56l-.03-.19-.17.1c-.2.11-.37.25-.5.42a.85.85 0 0 0-.2.51c0 .14.07.35.2.7.16.44.27.8.34 1.04l.13-.03-.06-.12c-.2.1-.53.18-.96.25-.43.06-.88.09-1.35.09h-.05l-.16.16v.68l.16.16h.05v-.13Zm7.42 0c-.3 0-.56-.08-.79-.24-.1.68-.36 1.21-.74 1.61-.4.4-.85.6-1.39.6-.15 0-.37-.06-.63-.18a3.26 3.26 0 0 1-.64-.36l.14-.32c.35.07.65.1.9.1.5 0 .9-.14 1.25-.42.34-.3.6-.71.79-1.26a4.92 4.92 0 0 0-.3-.61c-.22-.4-.39-.7-.49-.94-.1-.24-.15-.44-.15-.6 0-.16.05-.3.15-.4.1-.1.23-.19.41-.27.05.17.11.37.2.58a13.82 13.82 0 0 1 .54 1.78c.21.13.47.2.75.2l.08.07v.58l-.08.08Z" fill="#fff"/>
  <path d="M66.04 43.5v-.13a1.2 1.2 0 0 1-.71-.21l-.17-.13-.04.21a2.7 2.7 0 0 1-.71 1.54c-.37.38-.79.56-1.29.56a3.09 3.09 0 0 1-1.18-.52l-.09.11.13.05.13-.32-.12-.05-.03.13c.36.07.67.11.94.11a2 2 0 0 0 1.33-.46c.36-.31.64-.75.82-1.32l.02-.05-.02-.04a5.54 5.54 0 0 0-.3-.63 9.3 9.3 0 0 1-.48-.92c-.1-.23-.15-.42-.15-.55 0-.14.04-.23.11-.3.09-.08.21-.17.38-.25l-.06-.12-.13.03.2.6a12.77 12.77 0 0 1 .53 1.74l.01.07.06.04c.24.14.52.2.82.2v-.13l-.1.1.05.04v.46l-.04.05.1.09.09.1.08-.09.04-.04v-.68l-.12-.12-.04-.04h-.06c-.26 0-.5-.06-.68-.17l-.07.11.13-.01a3.54 3.54 0 0 0-.14-.64c-.07-.25-.2-.64-.41-1.18l-.2-.57-.03-.16-.15.08c-.18.09-.33.19-.45.3a.66.66 0 0 0-.18.49c0 .19.05.4.16.65.1.25.27.56.5.96l.12-.07-.12.06c.1.2.2.4.28.6l.13-.05-.13-.04c-.18.53-.43.93-.75 1.2-.32.26-.7.4-1.15.4-.24 0-.54-.04-.89-.11l-.1-.02-.22.51.08.07c.17.12.39.25.66.37.28.13.5.2.69.2a2 2 0 0 0 1.48-.64c.41-.43.67-1 .79-1.68l-.14-.03-.07.11c.24.18.54.26.86.26h.06l.04-.04-.1-.09Z" fill="#fff"/>
  <path d="m66.08 43.5-.08-.08v-.58l.08-.08a8.8 8.8 0 0 0 2.06-.24c.25-.07.52-.18.8-.32-.13-.36-.35-.7-.67-1.01a5.3 5.3 0 0 0-1.36-.89l-.24.03a.56.56 0 0 1-.42-.17.63.63 0 0 1-.17-.45c0-.15.03-.33.1-.56.07-.23.12-.35.16-.37a33.7 33.7 0 0 1 3.44-1.6c.09.08.14.2.14.36v.09c-.04.22-.17.38-.41.48-1.32.55-2.35 1-3.08 1.33a4.95 4.95 0 0 1 2.49 1.51c.26.34.4.66.4.96 0 .52-.27.91-.8 1.18-.54.27-1.35.41-2.44.41Z" fill="#fff"/>
  <path d="m66.08 43.5.1-.1-.05-.04v-.46l.04-.04-.09-.1v.14a9.01 9.01 0 0 0 2.1-.25c.26-.08.53-.19.81-.33l.1-.06-.03-.1a2.58 2.58 0 0 0-.7-1.07 5.3 5.3 0 0 0-1.4-.91l-.03-.02-.28.04.02.13v-.13a.42.42 0 0 1-.33-.14.5.5 0 0 1-.13-.35c0-.12.03-.3.1-.52l.08-.25.03-.06-.06-.05.04.07.02-.02-.06-.05.04.07-.06-.12.06.12a34.61 34.61 0 0 1 3.42-1.6l-.05-.13-.09.1c.07.06.1.14.1.27h.14-.14v.08h.13l-.13-.01c-.03.18-.12.29-.32.38-1.32.55-2.35 1-3.08 1.33l-.35.16.37.09a4.8 4.8 0 0 1 2.41 1.47c.26.32.38.62.38.87 0 .47-.23.8-.74 1.06-.5.26-1.3.4-2.37.4v.26c1.1 0 1.92-.13 2.5-.42.56-.28.88-.73.87-1.3 0-.34-.15-.68-.43-1.04a5.09 5.09 0 0 0-2.56-1.56l-.03.13.06.12c.73-.33 1.75-.78 3.07-1.33.27-.1.45-.31.49-.58v-.11a.6.6 0 0 0-.2-.47l-.05-.05-.08.03a33.62 33.62 0 0 0-3.45 1.61l-.12.18-.1.27c-.07.24-.1.43-.1.6 0 .2.06.4.2.54a.7.7 0 0 0 .52.22l.26-.04-.02-.13-.06.12a5.2 5.2 0 0 1 1.32.87c.32.3.53.61.63.95l.13-.04-.06-.12a4.28 4.28 0 0 1-1.64.48 7.8 7.8 0 0 1-1.15.07h-.05l-.16.16v.68l.16.16h.05v-.13Zm11.82.52-.25-1.56c-.27-1.63-.45-2.77-.54-3.42-.08-.64-.13-1.07-.13-1.27 0-.22.05-.39.15-.5.1-.12.27-.2.49-.26l.02.12.32 1.03-.23.2.02.15.32 2.87c.05.41.1.82.13 1.2v.02c.2.1.44.16.7.16l.09.08v.58l-.08.08a1.4 1.4 0 0 1-.66-.16v.32c0 .4-.12.78-.37 1.14-.24.36-.59.66-1.02.89a2.8 2.8 0 0 1-1.34.34c-.56 0-.99-.16-1.3-.47a1.9 1.9 0 0 1-.46-1.35 4.22 4.22 0 0 1 .19-1.25l.36.09c-.08.28-.11.51-.11.69 0 .47.12.84.35 1.1.24.26.57.4.99.4.3 0 .62-.06.95-.17.33-.1.62-.25.88-.44.25-.18.42-.39.53-.6Z" fill="#fff"/>
  <path d="m77.9 44.02.13-.02-.25-1.56c-.27-1.64-.45-2.78-.54-3.42a13.3 13.3 0 0 1-.12-1.25c0-.2.04-.33.12-.42.07-.09.2-.16.4-.2l-.02-.14-.13.04.02.11.32 1.04.13-.04-.09-.1-.23.2-.05.05.03.22.32 2.86c.05.42.1.82.12 1.2v.04l.02.06.06.03c.23.12.49.18.77.18v-.14l-.1.1.05.04v.46l-.05.05.1.09v-.13c-.22 0-.41-.05-.6-.15l-.2-.1.01.54h.14-.14c0 .37-.11.72-.35 1.07-.23.34-.55.62-.97.84-.42.22-.84.33-1.28.33-.53 0-.92-.15-1.2-.44-.28-.28-.42-.7-.42-1.25 0-.18 0-.35.03-.5.02-.16.07-.4.15-.72l-.13-.03-.03.13.36.09.03-.13-.13-.04c-.08.3-.12.53-.12.73 0 .49.13.9.4 1.19.25.3.63.44 1.08.44a3.23 3.23 0 0 0 1.9-.63c.27-.2.46-.41.58-.66l.02-.04-.01-.04-.13.02-.12-.05c-.1.2-.26.38-.5.56a2.8 2.8 0 0 1-.83.41c-.32.1-.62.16-.91.16-.4 0-.68-.12-.89-.35-.2-.23-.32-.56-.32-1.01 0-.16.03-.38.1-.66l.04-.13-.49-.12-.12-.03-.04.13a6 6 0 0 0-.19 1.28c0 .6.16 1.1.5 1.44.34.35.81.51 1.39.51.48 0 .95-.12 1.4-.35a2.9 2.9 0 0 0 1.07-.93c.27-.38.4-.8.4-1.22v-.32h-.14l-.06.12c.22.12.47.17.72.17h.05l.16-.16v-.68l-.16-.16h-.05c-.25 0-.46-.05-.65-.15l-.06.12.13-.03v-.02l-.13.03.13-.01c-.03-.39-.07-.8-.13-1.21l-.13.02.13-.02-.32-2.86v-.09l.17-.15.06-.06-.02-.08-.32-1.03-.03-.1-.03-.13-.12.02a.97.97 0 0 0-.56.3.89.89 0 0 0-.18.59c0 .22.04.64.13 1.29s.27 1.79.54 3.42l.13-.02-.13.02.25 1.56.13-.02Z" fill="#fff"/>
  <path d="M82.87 42.76c.84 0 1.7-.27 2.59-.82-.2-.34-.43-.6-.7-.8a1.43 1.43 0 0 0-.82-.28 2 2 0 0 0-1.09.44c-.42.3-.88.74-1.37 1.32.5.1.97.14 1.4.14Zm-2.26-1.2.23.09-.3.67.49.18c1.23-1.63 2.28-2.45 3.15-2.45.18 0 .4.07.68.22.26.15.5.34.72.57.2.24.31.44.31.62 0 .4-.13.74-.38 1.05-.25.3-.63.54-1.14.72-.5.18-1.04.27-1.6.27-.46 0-.94-.05-1.43-.15a4.2 4.2 0 0 1-1.17-.4l-.17.2c-.2.23-.56.35-1.05.35l-.08-.08v-.58l.08-.08c.29 0 .52-.05.69-.15.17-.11.34-.31.51-.62l.15-.26a.33.33 0 0 1 .3-.18Z" fill="#fff"/>
  <path d="M82.87 42.76v.14a5 5 0 0 0 2.66-.85l.1-.07-.06-.1c-.2-.36-.45-.64-.74-.85-.3-.2-.59-.3-.89-.3-.35 0-.73.16-1.17.46-.43.31-.9.76-1.4 1.35l-.14.17.22.04c.51.1.99.15 1.42.15v-.27c-.41 0-.87-.05-1.37-.14l-.02.13.1.09c.49-.58.94-1.01 1.35-1.3.4-.29.75-.42 1.01-.42.24 0 .48.08.74.26.25.18.47.43.66.75l.12-.06-.07-.12c-.87.55-1.7.81-2.52.81v.13Zm-2.26-1.2-.05.12.23.09.05-.12-.13-.06-.28.67-.06.12.12.06.5.2.09.02.06-.08c1.22-1.63 2.26-2.4 3.04-2.4.15 0 .36.07.61.2.26.15.48.33.69.55.2.22.28.4.28.53 0 .36-.12.68-.35.96-.24.28-.6.51-1.08.69-.5.17-1.01.26-1.55.26a7 7 0 0 1-1.41-.15c-.48-.1-.86-.23-1.14-.38l-.09-.05-.24.27.1.09-.1-.1c-.17.2-.48.32-.95.32v.13l.1-.1-.05-.04v-.46l.04-.04-.1-.1v.14c.31 0 .57-.06.77-.18.2-.13.38-.35.56-.66l.15-.27-.12-.06.12.06.19-.1v-.27a.47.47 0 0 0-.42.24l-.16.27c-.16.3-.32.48-.46.56-.14.09-.35.14-.62.14h-.06l-.16.16v.68l.16.16h.06c.5 0 .9-.12 1.15-.4l.17-.19-.1-.08-.06.11c.3.17.7.3 1.2.41.5.1.99.15 1.47.15.57 0 1.11-.09 1.63-.27a2.7 2.7 0 0 0 1.2-.77c.28-.32.41-.7.41-1.13 0-.24-.13-.46-.35-.7a2.92 2.92 0 0 0-.75-.6 1.6 1.6 0 0 0-.74-.24c-.95 0-2.01.86-3.26 2.5l.1.08.05-.12a2.62 2.62 0 0 1-.46-.19l-.06.13.12.05.29-.67.05-.13-.35-.14h-.05v.12Zm8.23 1.28v.58l-.08.08c-.38 0-.7-.08-.95-.22a.81.81 0 0 1-.42-.62c-.1-.82-.22-2.1-.33-3.82l-.1-1.29c.18-.18.4-.36.65-.54.05.99.08 2.38.1 4.17l.04 1.33a2 2 0 0 0 1 .25l.09.08Z" fill="#fff"/>
  <path d="M88.84 42.84h-.14v.52l-.04.05.1.09v-.13a1.7 1.7 0 0 1-.88-.2c-.22-.14-.33-.3-.36-.53-.1-.82-.21-2.09-.33-3.8l-.1-1.3-.13.01.1.1c.17-.18.38-.35.63-.53l-.08-.1h-.13c.05.98.08 2.37.1 4.16l.04 1.34v.07l.07.04c.32.18.68.27 1.07.27v-.14l-.1.1.08.08.1-.1.1-.09-.13-.12h-.05a1.9 1.9 0 0 1-.94-.23l-.07.11h.13l-.03-1.33c-.02-1.8-.06-3.19-.1-4.17l-.01-.24-.2.13c-.26.18-.49.37-.67.56l-.04.04.1 1.35c.11 1.72.22 3 .33 3.83.03.3.2.55.48.71.28.16.62.24 1.02.24h.05l.16-.16v-.68l-.04-.04-.1.1Z" fill="#fff"/>
  <path d="m88.8 43.5-.08-.08v-.58l.08-.08c.94 0 1.69-.08 2.23-.24l.54-.19c.36-.13.69-.23.97-.28-.25-.13-.5-.29-.75-.48-.26-.2-.47-.35-.63-.43a1.12 1.12 0 0 0-.5-.12c-.3 0-.58.08-.83.24l-.23.14a.5.5 0 0 1-.14-.38c0-.24.1-.43.32-.58.22-.15.5-.23.85-.23.2 0 .4.05.62.14.2.09.45.23.73.43.34.25.62.44.86.56.23.12.47.21.71.27.25.05.6.08 1.06.08l-.37.71-.54-.05h-.23c-.23 0-.44.03-.64.1a7 7 0 0 0-.95.43c-.48.25-.91.41-1.3.5-.39.08-.98.12-1.78.12Z" fill="#fff"/>
  <path d="m88.8 43.5.1-.1-.05-.04v-.46l.04-.04-.1-.1v.14c.96 0 1.71-.08 2.28-.25l.54-.2c.36-.13.68-.22.95-.27l.4-.07-.36-.18a4.14 4.14 0 0 1-.72-.46 4.88 4.88 0 0 0-.66-.45 1.26 1.26 0 0 0-.56-.13c-.33 0-.63.08-.9.26l.07.1-.07-.1-.23.14.07.11.1-.1c-.07-.06-.1-.15-.1-.28 0-.2.07-.34.26-.47a1.54 1.54 0 0 1 1.34-.08c.2.08.43.22.7.42.34.25.63.44.87.57.25.13.5.22.76.28.26.06.61.08 1.08.08v-.13l-.12-.06-.37.71.12.06.02-.13c-.2-.03-.39-.04-.55-.05v.13l.01-.13h-.03l-.01-.01h-.21v.14-.13c-.24 0-.47.03-.68.1-.22.07-.54.22-.97.44-.47.24-.9.4-1.27.48-.37.08-.96.13-1.75.13v.26c.8 0 1.4-.04 1.8-.12.41-.1.85-.26 1.34-.51.43-.22.74-.36.93-.42.19-.07.39-.1.6-.1h.22l.54.05.09.02.51-1h-.22c-.46 0-.8-.02-1.03-.07a2.78 2.78 0 0 1-.68-.26c-.23-.12-.5-.3-.84-.55-.29-.2-.54-.35-.76-.45a1.79 1.79 0 0 0-1.59.11.81.81 0 0 0-.38.7c0 .18.06.34.18.46l.08.08.31-.2c.23-.14.47-.21.76-.21a1 1 0 0 1 .44.1c.15.08.35.21.61.42.25.2.5.36.77.49l.06-.12-.02-.13c-.3.05-.63.15-1 .29l.05.12-.05-.12-.53.18.04.13-.04-.13c-.52.16-1.26.24-2.2.24h-.05l-.16.16v.68l.16.16h.06v-.13Zm13.02 0c-.3 0-.57-.08-.8-.24a2.92 2.92 0 0 1-.74 1.61c-.39.4-.85.6-1.38.6a1.7 1.7 0 0 1-.64-.18 3.32 3.32 0 0 1-.63-.36l.13-.32c.35.07.66.1.91.1.49 0 .9-.14 1.25-.42.34-.3.6-.71.78-1.26a4.85 4.85 0 0 0-.29-.61c-.22-.4-.39-.7-.5-.94-.1-.24-.14-.44-.14-.6 0-.16.05-.3.14-.4.1-.1.24-.19.42-.27.04.17.1.37.2.58.2.54.33.93.4 1.17.07.24.12.45.13.61.22.13.47.2.76.2l.08.07v.58l-.08.08Z" fill="#fff"/>
  <path d="M101.82 43.5v-.13a1.2 1.2 0 0 1-.71-.21l-.18-.13-.03.21c-.1.66-.35 1.16-.71 1.54-.37.38-.8.56-1.3.56a3.18 3.18 0 0 1-1.18-.52l-.08.11.12.05.14-.32-.13-.05-.02.13c.35.07.67.11.93.11a2 2 0 0 0 1.33-.46c.37-.31.64-.75.83-1.32l.02-.05-.02-.04a5.54 5.54 0 0 0-.3-.63c-.23-.38-.39-.7-.49-.92-.1-.23-.14-.42-.14-.55 0-.14.04-.23.1-.3.1-.08.22-.17.39-.26l-.06-.11-.13.03c.05.18.11.38.2.6l.12-.05-.12.05a12.77 12.77 0 0 1 .53 1.74v.07l.06.04c.24.14.52.2.83.2v-.13l-.1.1.05.04v.46l-.05.05.1.09.1.1.11-.13v-.68l-.16-.16h-.05c-.27 0-.5-.06-.69-.17l-.07.11.13-.01a3.53 3.53 0 0 0-.13-.64 18.1 18.1 0 0 0-.41-1.18c-.09-.2-.15-.4-.2-.57l-.04-.16-.14.08a1.6 1.6 0 0 0-.45.3.66.66 0 0 0-.19.49c0 .19.06.4.17.65.1.25.27.56.5.96l.11-.07-.11.06c.1.2.2.4.28.6l.12-.05-.12-.04a2.6 2.6 0 0 1-.75 1.2c-.32.26-.7.4-1.16.4-.24 0-.53-.04-.88-.11l-.1-.02-.18.42-.04.1.08.06c.17.12.39.25.66.37.28.13.5.2.69.2a2 2 0 0 0 1.48-.64c.4-.43.67-1 .78-1.68l-.13-.03-.08.11c.25.18.54.26.87.26h.05l.04-.04-.1-.09Z" fill="#fff"/>
  <path d="M104.8 44.52a3.3 3.3 0 0 1-.52.59 3.35 3.35 0 0 1-.58-.53c.17-.16.36-.35.56-.58l.54.52Zm-.66.9c-.21.23-.38.4-.51.48a2.53 2.53 0 0 1-.55-.48c.2-.18.37-.35.52-.54.1.13.28.3.54.54Zm-.73-.77c-.1.16-.28.36-.51.59a3.85 3.85 0 0 1-.58-.54c.09-.07.27-.27.56-.58l.53.53Zm-1.55-1.15-.08-.08v-.58l.08-.08c.47 0 .93-.03 1.36-.1.44-.06.78-.14 1-.25a11.5 11.5 0 0 0-.35-1.06 2.63 2.63 0 0 1-.18-.65c0-.14.06-.29.17-.43.11-.15.27-.28.46-.39l.1.57.13.54.1.52.03.47c0 .23-.1.56-.33.99-.27.16-.63.29-1.1.38-.47.1-.93.15-1.4.15Z" fill="#fff"/>
  <path d="m104.8 44.52-.11-.07c-.11.16-.28.35-.5.56l.09.1.08-.1a3.2 3.2 0 0 1-.56-.52l-.1.09.09.1c.17-.16.36-.36.57-.6l-.1-.08-.09.1.53.52.1-.1.09-.1-.53-.52-.1-.1-.1.11c-.2.23-.39.42-.55.57l-.1.08.08.1c.16.19.36.37.6.56l.1.06.08-.07c.23-.22.41-.42.54-.62l.06-.09-.08-.08-.1.1Zm-.66.9-.1-.09c-.2.23-.37.38-.49.46l.08.11.07-.11c-.17-.1-.34-.25-.52-.46l-.1.1.1.1c.2-.19.37-.37.52-.56l-.1-.09-.1.09c.1.13.29.31.55.55l.09-.1.08-.1a4.9 4.9 0 0 1-.51-.52l-.1-.13-.11.13c-.15.18-.31.35-.5.52l-.1.1.08.09c.2.22.39.39.58.5l.08.05.07-.05c.14-.1.31-.27.52-.5l.1-.1-.1-.09-.1.1Zm-.73-.77-.11-.07c-.1.15-.27.34-.5.56l.1.1.08-.1a3.75 3.75 0 0 1-.56-.52l-.1.08.09.1c.1-.08.28-.28.57-.6l-.1-.08-.1.09c.08.1.26.27.54.53l.09-.1.1-.09a9.12 9.12 0 0 1-.53-.52l-.1-.11-.1.1c-.28.32-.47.51-.55.58l-.1.09.09.1c.15.18.35.37.6.55l.09.07.08-.08c.24-.23.42-.43.53-.61l.06-.1-.08-.07-.1.1Zm-1.55-1.15.1-.1-.05-.04v-.46l.04-.04-.1-.1v.14c.49 0 .95-.04 1.4-.1.44-.07.78-.15 1.03-.27l.1-.05-.03-.1a12.1 12.1 0 0 0-.35-1.08 2.73 2.73 0 0 1-.18-.6c0-.1.04-.22.15-.35.1-.13.23-.25.42-.35l-.07-.12-.13.02.1.58.14-.03-.13.02.12.55.13-.03-.13.03.1.51.03.45c0 .19-.1.5-.32.92l.12.07-.07-.12c-.25.15-.6.28-1.06.37-.45.1-.91.15-1.36.15v.26c.47 0 .94-.05 1.42-.14.47-.1.85-.24 1.14-.41l.03-.02.02-.03c.22-.44.34-.78.35-1.05 0-.15-.02-.31-.04-.49l-.1-.52-.12-.55a6.52 6.52 0 0 1-.1-.56l-.04-.19-.17.1c-.2.11-.37.25-.5.42a.84.84 0 0 0-.2.51c0 .14.07.35.2.7.16.44.28.8.34 1.04l.13-.03-.06-.12c-.2.1-.52.18-.95.25-.44.06-.88.09-1.35.09h-.06l-.16.16v.68l.16.16h.06v-.13Z" fill="#fff"/>
</svg>
