<svg width="180" height="54" fill="none" xmlns="http://www.w3.org/2000/svg">
  <path d="M173.3 54H6.7A6.7 6.7 0 0 1 0 47.2V6.8C0 3 3 0 6.7 0h166.6a6.7 6.7 0 0 1 6.7 6.8v40.5c0 3.7-3 6.7-6.7 6.7Z" fill="#000"/>
  <path d="M27.6 26.2 13.4 41.5a3.8 3.8 0 0 0 5.7 2.3l16-9.3-7.5-8.3Z" fill="#EA4335"/>
  <path d="m42 23.6-7-4-7.7 7 7.8 7.9 6.9-4a3.9 3.9 0 0 0 2-3.5 4 4 0 0 0-2-3.4Z" fill="#FBBC04"/>
  <path d="M13.4 12.5a3.7 3.7 0 0 0-.1 1v27l.1 1 14.7-14.9-14.7-14Z" fill="#4285F4"/>
  <path d="m27.7 27 7.4-7.4-16-9.4a3.9 3.9 0 0 0-5.7 2.3L27.7 27Z" fill="#34A853"/>
  <path d="M131.5 26.7h2.2V12h-2.2v14.6Zm19.6-9.3-2.5 6.3-2.6-6.3h-2.4l3.9 8.8-2.2 4.9h2.2l6-13.8h-2.4ZM138.8 25c-.7 0-1.7-.3-1.7-1.2 0-1.2 1.2-1.6 2.3-1.6 1 0 1.4.2 2 .5a2.6 2.6 0 0 1-2.6 2.3Zm.2-8c-1.5 0-3.2.7-3.8 2.2l1.9.9c.4-.9 1.2-1.1 2-1.1 1.1 0 2.2.7 2.3 1.9v.1a4.8 4.8 0 0 0-2.3-.6c-2 0-4.2 1.2-4.2 3.3 0 2 1.7 3.2 3.6 3.2a3 3 0 0 0 2.8-1.4v1.1h2.2V21c0-2.5-2-4-4.5-4Zm-13.4 2.1h-3.1v-5h3.1a2.5 2.5 0 0 1 2.6 2.5c0 1.1-1 2.5-2.6 2.5Zm0-7h-5.3v14.6h2.2V21h3c2.5 0 4.8-1.7 4.8-4.5S128 12 125.5 12ZM97 25c-1.5 0-2.7-1.3-2.7-3s1.2-3 2.7-3c1.5 0 2.7 1.3 2.7 3s-1.2 3-2.7 3Zm2.5-6.8a3.4 3.4 0 0 0-2.7-1.2 5 5 0 0 0-4.7 5 4.9 4.9 0 0 0 4.7 5c1.2 0 2.2-.6 2.6-1.2h.1v.7c0 2-1 3-2.6 3a2.7 2.7 0 0 1-2.5-1.8l-2 .8c.6 1.3 2 3 4.5 3s4.7-1.6 4.7-5.3v-8.9h-2v.8Zm3.6 8.4h2.2V12.1h-2.2v14.6Zm5.4-4.8a2.7 2.7 0 0 1 2.6-2.9c.8 0 1.6.5 1.8 1.1l-4.4 1.8Zm6.7-1.6c-.4-1.1-1.6-3.2-4.2-3.2s-4.7 2-4.7 5c0 2.8 2.1 5 5 5a5 5 0 0 0 4-2.2l-1.6-1.2a2.8 2.8 0 0 1-2.5 1.4c-1 0-1.9-.5-2.4-1.5l6.7-2.7-.3-.6Zm-52.8-1.6v2h5a4.4 4.4 0 0 1-1 2.7 5.2 5.2 0 0 1-4 1.5 5.5 5.5 0 0 1-5.5-5.6 5.5 5.5 0 0 1 9.3-4l1.5-1.5a7.3 7.3 0 0 0-5.3-2.1 7.8 7.8 0 0 0-7.8 7.7 7.8 7.8 0 0 0 7.8 7.7 7 7 0 0 0 5.4-2.2 7 7 0 0 0 1.8-5v-1.2h-7.2Zm13 6.4c-1.6 0-2.9-1.2-2.9-3s1.3-3 2.8-3c1.5 0 2.8 1.2 2.8 3s-1.3 3-2.8 3Zm0-8a4.9 4.9 0 0 0-5 5 4.9 4.9 0 0 0 5 5 4.9 4.9 0 0 0 5-5 4.9 4.9 0 0 0-5-5Zm10.8 8c-1.5 0-2.8-1.2-2.8-3s1.3-3 2.8-3c1.5 0 2.8 1.2 2.8 3s-1.3 3-2.8 3Zm0-8a4.9 4.9 0 0 0-5 5 4.9 4.9 0 0 0 5 5 4.9 4.9 0 0 0 5-5 4.9 4.9 0 0 0-5-5ZM56.6 42.2c.6.6 1.3.9 2.1.9.9 0 1.6-.3 2.2-1a3 3 0 0 0 .9-2.2 3 3 0 0 0-1-2.3c-.5-.6-1.2-.9-2-.9-1 0-1.6.3-2.2 1a3.1 3.1 0 0 0-.9 2.2c0 1 .3 1.7.9 2.3Zm5 .6a3.9 3.9 0 0 1-2.9 1.2 4 4 0 0 1-4-4.1 4 4 0 0 1 4-4.1 4 4 0 0 1 4.1 4.1 4 4 0 0 1-1.2 3Z" fill="#fff"/>
  <path d="M56.6 42.2h-.1a3 3 0 0 0 2.2 1 3 3 0 0 0 2.3-1c.6-.5.9-1.3.9-2.3 0-1-.3-1.7-1-2.4a3 3 0 0 0-2.2-.9 3 3 0 0 0-2.2 1 3.2 3.2 0 0 0-1 2.3c0 1 .4 1.8 1 2.4v-.1l.2-.1a3 3 0 0 1-.9-2.2c0-.9.3-1.6.9-2.2a2.8 2.8 0 0 1 2-.8c.8 0 1.5.2 2 .8s1 1.3 1 2.2a3 3 0 0 1-1 2.2c-.5.5-1.2.8-2 .8a2.8 2.8 0 0 1-2-.8h-.1Zm5 .6a3.8 3.8 0 0 1-2.9 1.1 4 4 0 0 1-3.9-4 4 4 0 0 1 4-4c1 0 2 .4 2.7 1.2a4 4 0 0 1 1.2 2.8 3.9 3.9 0 0 1-1.2 2.9h.1l.1.1a4 4 0 0 0 1.2-3 4.2 4.2 0 0 0-4.2-4.3 4.2 4.2 0 0 0-4.2 4.3 4.2 4.2 0 0 0 4.2 4.3 4 4 0 0 0 3-1.3Zm3.6-3.1H67c.4 0 .7-.1 1-.4.3-.3.4-.6.4-1 0-.3 0-.7-.4-1-.2-.2-.6-.4-1-.4h-1.7v2.8Zm-1 4.2v-8H67c.7 0 1.3.3 1.8.7.5.4.7 1 .7 1.7a2.4 2.4 0 0 1-2 2.3l2.3 3.2h-1.2l-2.1-3.1h-1.2v3.2h-1Z" fill="#fff"/>
  <path d="M65.2 39.7v.1H67c.4 0 .8-.1 1.1-.4.3-.3.5-.7.5-1.1 0-.4-.2-.7-.4-1a1.4 1.4 0 0 0-1.2-.5h-1.8v3h.1v-.1h.2V37H67c.4 0 .7.2 1 .4l.3.9c0 .4-.1.7-.4.9a1.3 1.3 0 0 1-1 .4h-1.6v.1Zm-1 4.2h.1V36H67c.6 0 1.2.2 1.7.6.4.4.7 1 .7 1.6 0 .5-.2 1-.6 1.4-.3.4-.7.6-1.2.7l-.1.1v.1l2.2 3.3h.1v-.2h-1.1l-2.2-3.2h-1.3v3.2h-.9v.3h1.2v-3.2h.9l2.1 3.2h1.4v-.2l-2.2-3.3-.1.1h.1-.1a2.5 2.5 0 0 0 2-2.3c0-.7-.2-1.3-.8-1.8a2.6 2.6 0 0 0-1.8-.7h-2.8V44h.1v-.1Zm10.2-.8a3 3 0 0 0 1.3-.3l-.9-1.4.8-.6 1 1.4a3 3 0 0 0 .8-2.3 3.1 3.1 0 0 0-.9-2.3 2.9 2.9 0 0 0-2.1-.9 3 3 0 0 0-2.2 1 3.1 3.1 0 0 0-.8 2.2c0 1 .3 1.7.8 2.3a3 3 0 0 0 2.2.9Zm2.4 1.3-.5-.8a4 4 0 0 1-1.9.4 4 4 0 0 1-4-4.1 4 4 0 0 1 4-4.1 4 4 0 0 1 4 4.1 4 4 0 0 1-1.3 3.1l.5.9-.8.5Z" fill="#fff"/>
  <path d="M74.4 43v.2c.5 0 1-.1 1.4-.3h.1l-.9-1.5.6-.4 1 1.4v-.1a3.2 3.2 0 0 0 1-2.4 3 3 0 0 0-1-2.4 3 3 0 0 0-2.2-.9 3 3 0 0 0-2.2 1 3.2 3.2 0 0 0-1 2.3 3 3 0 0 0 1 2.4 3 3 0 0 0 2.2.9v-.3c-.8 0-1.5-.3-2-.8a3 3 0 0 1-.9-2.2c0-.9.3-1.6.9-2.2a2.8 2.8 0 0 1 2-.8c.8 0 1.5.2 2 .8s.9 1.3.9 2.2a3 3 0 0 1-.9 2.2l.1.1h.1l-1-1.6-.9.6v.1l1 1.5v-.2a3 3 0 0 1-1.3.3v.2Zm2.4 1.4h.2l-.6-1h-.2a4 4 0 0 1-1.8.5 4 4 0 0 1-4-4 4 4 0 0 1 4-4c1.1 0 2 .4 2.8 1.2a4 4 0 0 1 1.1 2.8c0 1.3-.4 2.3-1.3 3v.1l.5.8-.7.5.1.2.8-.5h.1l-.6-1H77v.1a4.2 4.2 0 0 0 1.5-3.2 4.2 4.2 0 0 0-4.2-4.3 4.2 4.2 0 0 0-4.2 4.3 4.2 4.2 0 0 0 6.2 3.8l-.1-.1h-.1l.6 1 .1-.1v-.1Zm4.4-3.6h2.6l-1.3-3.6-1.3 3.6Zm-2.3 3 3-7.9H83l3 8h-1l-.8-2.2h-3.3L80 44h-1Z" fill="#fff"/>
  <path d="M81.2 40.8v.1H84l-1.4-3.8h-.2L81 40.9h.2v-.1h.1l1.3-3.6h-.1v.1-.1h-.1l1.2 3.4h-2.4v.2Zm-2.3 3 .1.1 3-7.8h1l2.8 7.6H85l-.8-2.1h-3.5l-.8 2.1h-1v.3h1.2l.8-2.1H84l.8 2.1h1.4l-3-8.2h-1.4l-3 8.2h.1v-.1Zm8.2 0V36h1v7h3.4v1h-4.4Z" fill="#fff"/>
  <path d="M87 43.9h.2V36h.8v7h3.4v.6h-4.3v.3h4.6v-1.3h-3.5v-6.9H87V44v-.1Zm5.6 0v-8h1v8h-1Z" fill="#fff"/>
  <path d="M92.7 43.9V36h.8v7.6h-.8v.3h1.1v-8.2h-1.3V44h.2v-.1Zm6.5-1.7a3 3 0 0 0 2.2.9 3 3 0 0 0 2.1-1c.6-.5 1-1.3 1-2.2a3 3 0 0 0-1-2.3 2.9 2.9 0 0 0-2.1-.9 3 3 0 0 0-2.2 1 3.1 3.1 0 0 0-.8 2.2c0 1 .3 1.7.8 2.3Zm5 .6a3.9 3.9 0 0 1-2.8 1.2 4 4 0 0 1-4-4.1 4 4 0 0 1 4-4.1 4 4 0 0 1 4 4.1 4 4 0 0 1-1.1 3Z" fill="#fff"/>
  <path d="M99.2 42.2a3 3 0 0 0 2.2 1 3 3 0 0 0 2.2-1 3 3 0 0 0 1-2.3c0-1-.3-1.7-1-2.4a3 3 0 0 0-2.2-.9 3 3 0 0 0-2.3 1 3.2 3.2 0 0 0-.9 2.3 3 3 0 0 0 1 2.4v-.1l.1-.1a3 3 0 0 1-.8-2.2c0-.9.3-1.6.8-2.2a2.8 2.8 0 0 1 2-.8c.9 0 1.6.2 2.1.8s.9 1.3.9 2.2a3 3 0 0 1-.9 2.2c-.5.5-1.2.8-2 .8s-1.5-.2-2-.8h-.2Zm5 .6a3.8 3.8 0 0 1-2.8 1.1 4 4 0 0 1-4-4 4 4 0 0 1 4-4 4 4 0 0 1 4 4 4 4 0 0 1-1.2 2.9l.2.1a4.2 4.2 0 0 0 1.2-3 4.2 4.2 0 0 0-4.2-4.3 4.2 4.2 0 0 0-4.2 4.3 4.2 4.2 0 0 0 4.2 4.3 4 4 0 0 0 3-1.3h-.1Zm2.7 1V36h1v7h3.4v1H107Z" fill="#fff"/>
  <path d="M106.9 43.9V36h.8v7h3.5v.6h-4.3v.3h4.5v-1.3H108v-6.9h-1.3V44h.2v-.1Zm5.5 0v-8h1v8h-1Z" fill="#fff"/>
  <path d="M112.4 43.9h.2V36h.7v7.6h-.9v.3h1.2v-8.2h-1.3V44h.1v-.1Zm2.9 0v-8h1.2l3.9 6.2v-6.2h1v8h-1l-4.1-6.5v6.5h-1Z" fill="#fff"/>
  <path d="M115.3 43.9h.1V36h1l3.9 6.1h.2V36h.8v7.6h-.9l-4-6.4h-.3v6.4h-.8v.3h1.1v-6.6h-.1v.1-.1h-.1l4 6.6h1.3v-8.2h-1.3V42h.2v.1l-3.8-6.3H115V44h.2v-.1Zm15.5-3.7a3.6 3.6 0 0 1-1 2.7A3.8 3.8 0 0 1 127 44a4 4 0 0 1-2.9-1.2c-.8-.7-1.2-1.7-1.2-2.9s.4-2.2 1.2-3a4 4 0 0 1 3-1.1c.5 0 1 0 1.5.3.6.2 1 .5 1.3.9l-.7.7a2.7 2.7 0 0 0-2.2-1 3 3 0 0 0-3 3.2 3 3 0 0 0 .9 2.3 3 3 0 0 0 2.1.9 3 3 0 0 0 2.2-1c.4-.3.6-.8.7-1.5H127v-1h3.9v.6Z" fill="#fff"/>
  <path d="M130.8 40.2h-.1c0 1.1-.3 2-1 2.6a3.7 3.7 0 0 1-2.8 1.1 3.9 3.9 0 0 1-2.8-1.2 3.9 3.9 0 0 1-1.2-2.8c0-1.1.4-2 1.2-2.9a3.9 3.9 0 0 1 2.8-1.1c.6 0 1.1.1 1.6.3.5.2.9.5 1.2.9v-.2l-.7.7h.2c-.6-.7-1.3-1-2.3-1-.8 0-1.6.3-2.2 1a3.2 3.2 0 0 0-1 2.3 3 3 0 0 0 1 2.4c.6.6 1.4.9 2.2.9 1 0 1.7-.3 2.3-1 .4-.3.7-1 .7-1.6v-.2h-2.8v-.6h3.7v-.2h-.2v.6h.4l-.1-.6v-.1h-4.1v1.2h3v-.1h-.1a2.4 2.4 0 0 1-.7 1.5c-.5.6-1.2.8-2 .8a2.9 2.9 0 0 1-2.1-.8 2.9 2.9 0 0 1-1-2.2 3 3 0 0 1 1-2.2 2.9 2.9 0 0 1 2-.8c1 0 1.6.3 2 .9h.2l.8-.7v-.2c-.3-.4-.8-.7-1.3-1a4.2 4.2 0 0 0-1.7-.3 4 4 0 0 0-3 1.3 4.1 4.1 0 0 0-1.2 3 4 4 0 0 0 1.2 3 4.1 4.1 0 0 0 3 1.3 4 4 0 0 0 3-1.2v-.1a3.7 3.7 0 0 0 1-2.7Z" fill="#fff"/>
</svg>
