<svg id="artwork" xmlns="http://www.w3.org/2000/svg" version="1.1" viewBox="0 0 239 70.9">
  <defs>
    <style>
      .st1{isolation:isolate}.st5{fill:#fff}
    </style>
  </defs>
  <rect x="-.1" width="239.2" height="70.9" rx="8.9" ry="8.9"/>
  <path class="st5" d="M120.6 38.5c-4.1 0-7.5 3.2-7.5 7.6s3.4 7.5 7.5 7.5 7.6-3.2 7.6-7.5-3.4-7.6-7.6-7.6Zm0 12.1c-2.3 0-4.2-1.8-4.2-4.5s2-4.6 4.2-4.6 4.3 1.9 4.3 4.6-2 4.5-4.3 4.5Zm-16.5-12c-4.2 0-7.6 3.1-7.6 7.5s3.4 7.5 7.6 7.5 7.6-3.2 7.6-7.5-3.4-7.6-7.6-7.6Zm0 12c-2.3 0-4.3-1.8-4.3-4.5s2-4.6 4.3-4.6 4.3 1.9 4.3 4.6-2 4.5-4.3 4.5Zm-19.6-9.8V44H92a6.6 6.6 0 0 1-1.7 4 7.8 7.8 0 0 1-6 2.4 8.4 8.4 0 0 1-8.3-8.5 8.4 8.4 0 0 1 14.1-6.2l2.3-2.3c-2-1.8-4.5-3.2-8-3.2-6.5 0-12 5.3-12 11.7s5.5 11.7 12 11.7c3.5 0 6-1 8.1-3.2 2.1-2.1 2.8-5.1 2.8-7.5 0-.8 0-1.5-.2-2H84.5Zm80.3 2.5c-.7-1.6-2.6-4.8-6.5-4.8s-7.1 3-7.1 7.6c0 4.2 3.2 7.5 7.5 7.5 3.4 0 5.4-2.1 6.3-3.3l-2.6-1.8c-.9 1.3-2 2.1-3.7 2.1s-3-.7-3.7-2.3l10.1-4.1-.3-.9ZM154.4 46a4 4 0 0 1 3.9-4.4c1.3 0 2.4.6 2.8 1.6l-6.7 2.8Zm-8.2 7.3h3.3V31h-3.3v22.1Zm-5.4-13h-.1a5.2 5.2 0 0 0-4-1.7c-3.8 0-7.3 3.3-7.3 7.6s3.5 7.5 7.3 7.5c1.8 0 3.2-.8 4-1.7v1c0 3-1.5 4.5-4 4.5-2 0-3.2-1.4-3.8-2.7l-2.8 1.2c.8 2 3 4.5 6.6 4.5 4 0 7.2-2.3 7.2-7.9V39h-3.1v1.2ZM137 50.6c-2.3 0-4.2-1.9-4.2-4.5s1.9-4.6 4.2-4.6 4 2 4 4.6-1.8 4.5-4 4.5ZM180.3 31h-8v22.1h3.4v-8.4h4.6c3.7 0 7.2-2.6 7.2-6.8S184 31 180.3 31Zm0 10.7h-4.7V34h4.7c2.5 0 4 2 4 3.8s-1.5 3.8-4 3.8Zm20.5-3.2c-2.4 0-4.9 1-6 3.4l3 1.2c.6-1.2 1.8-1.6 3-1.6 1.7 0 3.5 1 3.5 2.8v.3c-.6-.4-1.9-.9-3.5-.9-3.1 0-6.3 1.7-6.3 5 0 3 2.6 4.8 5.5 4.8 2.2 0 3.4-1 4.2-2.1V53h3.3v-8.5c0-4-3-6.1-6.7-6.1Zm-.4 12.1c-1.1 0-2.6-.5-2.6-1.8 0-1.7 1.9-2.4 3.5-2.4 1.4 0 2.1.3 3 .7a4 4 0 0 1-4 3.5ZM219 39l-3.8 9.6-4-9.6h-3.6l6 13.4-3.4 7.5h3.4l9.1-21H219Zm-29.7 14h3.4V31h-3.3v22.1Z"/>
  <path d="m36.6 34.4-18.9 20a5 5 0 0 0 7.6 3l21.2-12.2-10-10.8h.1Z" style="fill:#ea4335"/>
  <path d="m55.7 31-9.2-5.3-10.3 9.2 10.3 10.3 9.2-5.2c1.5-1 2.6-2.6 2.6-4.5s-1-3.6-2.6-4.5Z" style="fill:#fbbc04"/>
  <path d="m17.7 16.4-.1 1.4V53l.1 1.3L37.2 35 17.7 16.4Z" style="fill:#4285f4"/>
  <path d="m36.7 35.4 9.8-9.7-21.2-12.3a5.1 5.1 0 0 0-7.6 3l19 19Z" style="fill:#34a853"/>
  <g class="st1">
    <path class="st5" d="m76.6 18-3.8-6H75l2.6 4.2L80 12h2.1l-3.7 6v5.3h-1.8V18Zm8.6 5c-.7-.4-1.2-1-1.5-1.6S83 19.9 83 19v-7h2v7c0 .9.2 1.6.6 2 .5.6 1 .9 1.9.9s1.4-.3 1.9-.8.6-1.2.6-2v-7h1.8V19c0 .9-.2 1.7-.5 2.4s-.9 1.2-1.5 1.6-1.4.6-2.3.6-1.6-.2-2.2-.6Zm8.6-11h1.7v5.4h.1l4.6-5.4h2.2v.1l-4.2 4.8 4.5 6.3v.1h-2.1l-3.6-5-1.5 1.7v3.3h-1.8V12Zm10 0h1.8v9.6h4.8v1.7h-6.6V12Zm11.2 0h2l4.3 11.3h-2l-1-2.9h-4.5l-1 2.9h-2l4.3-11.3Zm2.8 6.8-1.2-3.4-.5-1.3-.5 1.3-1.2 3.4h3.4Zm4.7-6.8h4.3a3 3 0 0 1 1.6.4c.5.3 1 .6 1.3 1 .3.5.4 1 .4 1.6s-.1 1-.4 1.5-.6.7-1.1.9c.6.3 1 .6 1.4 1 .3.5.5 1 .5 1.7s-.1 1.2-.5 1.7c-.3.4-.7.8-1.3 1s-1 .5-1.7.5h-4.5V12Zm4.2 4.7c.5 0 1-.1 1.2-.4a1.5 1.5 0 0 0 0-2.2c-.3-.3-.6-.5-1.1-.5h-2.5v3.1h2.4Zm.3 5c.5 0 1-.2 1.3-.5.3-.4.4-.8.4-1.2s-.1-.8-.5-1.2c-.3-.3-.7-.5-1.3-.5h-2.6v3.4h2.7Z"/>
  </g>
  <g class="st1">
    <path class="st5" d="M136.7 22.8a5.6 5.6 0 0 1-2.1-2.2c-.6-.9-.8-1.9-.8-3s.2-2 .7-3a7 7 0 0 1 2.2-2c.9-.6 1.9-.8 3-.8a5.7 5.7 0 0 1 5 2.9c.5.9.8 1.9.8 3s-.3 2-.8 3c-.5.8-1.2 1.5-2 2a6 6 0 0 1-6 0Zm5-1.5c.6-.3 1.1-.8 1.5-1.5.3-.6.5-1.3.5-2.2a4.1 4.1 0 0 0-2-3.6c-.6-.4-1.3-.6-2-.6s-1.5.2-2.1.6c-.6.3-1.1.8-1.5 1.5-.3.6-.5 1.3-.5 2.1s.2 1.6.5 2.2a4 4 0 0 0 3.5 2 4 4 0 0 0 2-.5ZM147 12h1.8v9.6h4.8v1.7H147V12Zm8 0h1.7v11.3H155V12Z"/>
  </g>
  <g class="st1">
    <path class="st5" d="M159 12h2l5 8.2h.2L166 18v-6h1.7v11.3H166l-5.3-8.7h-.1v8.7H159V12Z"/>
  </g>
  <g class="st1">
    <path class="st5" d="M172.2 22.8a5.8 5.8 0 0 1-3-5.1 5.8 5.8 0 0 1 6-6 6 6 0 0 1 4.2 1.8l-1.3 1.2a4 4 0 0 0-3-1.2 4.1 4.1 0 0 0-3.5 2c-.4.6-.6 1.3-.6 2.2a4 4 0 0 0 4.2 4.2c.6 0 1.2-.1 1.6-.3l1.3-.8c.2-.2.4-.5.5-.9l.4-1.1h-4v-1.6h5.5l.1 1-.3 2c-.2.6-.6 1.2-1 1.7a5.5 5.5 0 0 1-4.3 1.7c-1 0-2-.3-3-.8Z"/>
  </g>
</svg>
