<svg width="180" height="54" fill="none" xmlns="http://www.w3.org/2000/svg">
  <path d="M173.33 54H6.67A6.73 6.73 0 0 1 0 47.25V6.75C0 3.04 3 0 6.67 0h166.66A6.73 6.73 0 0 1 180 6.75v40.5c0 3.71-3 6.75-6.67 6.75Z" fill="#000"/>
  <path d="m27.63 26.22-14.2 15.26a3.84 3.84 0 0 0 5.65 2.35l.05-.03 15.97-9.33-7.48-8.25Z" fill="#EA4335"/>
  <path d="m41.98 23.63-.01-.02-6.9-4.05-7.77 7 7.8 7.9 6.86-4a3.89 3.89 0 0 0 2.02-3.43c0-1.47-.8-2.75-2-3.4Z" fill="#FBBC04"/>
  <path d="M13.43 12.52a3.7 3.7 0 0 0-.13 1v26.96c0 .35.04.68.13 1L28.1 26.62l-14.68-14.1Z" fill="#4285F4"/>
  <path d="m27.73 27 7.34-7.44-15.96-9.37a3.85 3.85 0 0 0-5.69 2.33L27.73 27Z" fill="#34A853"/>
  <path d="M131.52 26.67h2.17V12.1h-2.17v14.57Zm19.59-9.32-2.5 6.31h-.07l-2.59-6.31h-2.34l3.88 8.82-2.21 4.91h2.26l5.99-13.73h-2.42ZM138.77 25c-.7 0-1.7-.35-1.7-1.24 0-1.12 1.24-1.55 2.3-1.55.96 0 1.4.2 1.99.49a2.64 2.64 0 0 1-2.59 2.3Zm.27-7.98c-1.58 0-3.2.69-3.88 2.23l1.93.8c.4-.8 1.18-1.07 1.98-1.07 1.13 0 2.27.68 2.29 1.88v.15a4.8 4.8 0 0 0-2.27-.56c-2.08 0-4.2 1.14-4.2 3.28 0 1.95 1.7 3.2 3.62 3.2 1.46 0 2.27-.65 2.78-1.42h.07v1.12h2.1v-5.58c0-2.59-1.93-4.03-4.42-4.03Zm-13.44 2.09h-3.1v-5h3.1a2.52 2.52 0 0 1 2.55 2.5c0 1.13-.93 2.5-2.55 2.5Zm-.06-7.02h-5.21v14.57h2.17v-5.52h3.04c2.41 0 4.78-1.75 4.78-4.53 0-2.78-2.37-4.52-4.78-4.52ZM97.13 25c-1.5 0-2.76-1.25-2.76-2.98 0-1.75 1.25-3.02 2.76-3.02 1.48 0 2.64 1.27 2.64 3.02 0 1.73-1.16 2.98-2.64 2.98Zm2.5-6.85h-.08a3.43 3.43 0 0 0-2.61-1.1 4.93 4.93 0 0 0-4.75 4.97 4.9 4.9 0 0 0 4.75 4.94c1.18 0 2.12-.53 2.6-1.13h.08v.71c0 1.9-1.01 2.91-2.64 2.91a2.74 2.74 0 0 1-2.5-1.76l-1.9.79c.55 1.31 2 2.93 4.4 2.93 2.55 0 4.7-1.5 4.7-5.17v-8.9h-2.06v.81Zm3.56 8.5h2.18V12.1h-2.18v14.57Zm5.39-4.8a2.72 2.72 0 0 1 2.59-2.9c.86 0 1.6.44 1.84 1.06l-4.43 1.84Zm6.76-1.65c-.42-1.11-1.67-3.16-4.25-3.16-2.55 0-4.67 2.01-4.67 4.96 0 2.78 2.1 4.96 4.92 4.96a4.93 4.93 0 0 0 4.13-2.2l-1.69-1.13a2.83 2.83 0 0 1-2.44 1.37c-1.1 0-1.9-.5-2.4-1.5l6.62-2.74-.22-.56Zm-52.8-1.64v2.1h5.03a4.39 4.39 0 0 1-1.15 2.65 5.15 5.15 0 0 1-3.89 1.54c-3.1 0-5.52-2.5-5.52-5.6a5.52 5.52 0 0 1 9.32-4.08l1.48-1.49a7.34 7.34 0 0 0-5.28-2.12 7.8 7.8 0 0 0-7.8 7.7 7.8 7.8 0 0 0 7.8 7.7c2.3 0 4.02-.75 5.37-2.16a6.95 6.95 0 0 0 1.82-4.92c0-.49-.03-.94-.1-1.32h-7.09ZM75.44 25c-1.5 0-2.8-1.23-2.8-3 0-1.78 1.3-3 2.8-3 1.5 0 2.8 1.22 2.8 3 0 1.77-1.3 3-2.8 3Zm0-7.96A4.89 4.89 0 0 0 70.47 22a4.9 4.9 0 0 0 4.98 4.96A4.9 4.9 0 0 0 80.42 22a4.89 4.89 0 0 0-4.97-4.96ZM86.3 25c-1.5 0-2.8-1.23-2.8-3 0-1.78 1.3-3 2.8-3 1.5 0 2.8 1.22 2.8 3 0 1.77-1.3 3-2.8 3Zm0-7.96A4.89 4.89 0 0 0 81.32 22a4.9 4.9 0 0 0 4.98 4.96A4.9 4.9 0 0 0 91.28 22a4.89 4.89 0 0 0-4.98-4.96ZM56.58 42.17c.59.6 1.3.9 2.15.9.85 0 1.57-.3 2.15-.9.6-.59.88-1.35.88-2.27 0-.92-.29-1.68-.88-2.27-.58-.6-1.3-.9-2.15-.9-.85 0-1.56.3-2.15.9a3.1 3.1 0 0 0-.88 2.27c0 .92.3 1.68.88 2.27Zm5.06.67a3.9 3.9 0 0 1-2.9 1.2 4.06 4.06 0 0 1-4.07-4.14 4.05 4.05 0 0 1 4.06-4.14 4.05 4.05 0 0 1 4.07 4.14c0 1.16-.38 2.14-1.16 2.94Z" fill="#fff"/>
  <path d="m56.58 42.17-.1.1c.61.62 1.37.93 2.25.93.88 0 1.64-.31 2.25-.93.61-.62.92-1.42.92-2.37 0-.95-.3-1.75-.92-2.37a3.04 3.04 0 0 0-2.25-.93c-.88 0-1.64.32-2.24.93a3.24 3.24 0 0 0-.92 2.37c0 .95.3 1.75.91 2.37l.1-.1.1-.09a2.97 2.97 0 0 1-.85-2.18c0-.9.28-1.61.84-2.18a2.78 2.78 0 0 1 2.06-.85c.82 0 1.5.28 2.06.85s.84 1.29.84 2.18c0 .9-.28 1.61-.84 2.18-.56.57-1.24.85-2.06.85a2.8 2.8 0 0 1-2.06-.85l-.09.1Zm5.06.67-.1-.1a3.75 3.75 0 0 1-2.8 1.17 3.92 3.92 0 0 1-3.94-4 3.92 3.92 0 0 1 3.93-4.02c1.12 0 2.05.4 2.8 1.17a3.92 3.92 0 0 1 1.14 2.84 3.9 3.9 0 0 1-1.13 2.85l.1.09.1.1c.8-.83 1.2-1.85 1.2-3.04a4.19 4.19 0 0 0-4.2-4.27 4.2 4.2 0 0 0-4.2 4.27 4.2 4.2 0 0 0 4.2 4.27c1.18 0 2.2-.41 3-1.24l-.1-.1Zm3.59-3.14h1.63c.4 0 .76-.13 1.05-.4.3-.26.44-.6.44-1 0-.35-.13-.67-.4-.96-.25-.28-.6-.43-1.02-.43h-1.7v2.8Zm-1.02 4.16v-7.92h2.7c.67 0 1.25.22 1.74.67.5.44.74 1 .74 1.69a2.35 2.35 0 0 1-1.9 2.27l-.02.03 2.23 3.22v.04h-1.21l-2.14-3.2h-1.12v3.2H64.2Z" fill="#fff"/>
  <path d="M65.23 39.7v.13h1.63c.44 0 .83-.14 1.14-.43.32-.29.48-.67.48-1.1 0-.38-.15-.74-.42-1.05a1.45 1.45 0 0 0-1.13-.47h-1.84v3.05h.14v-.13h.13v-2.66h1.57c.4 0 .7.13.93.4.24.26.35.54.35.86 0 .37-.13.66-.4.9a1.3 1.3 0 0 1-.95.37h-1.63v.13Zm-1.02 4.16h.13v-7.79h2.57c.64 0 1.18.21 1.65.64.47.42.7.94.7 1.59 0 .52-.18.97-.52 1.37-.34.4-.76.66-1.27.76l-.06.01-.05.08-.05.08 2.25 3.26h.14v-.13h-1.14l-2.13-3.21h-1.34v3.2h-.88V44h1.15v-3.21h.92l2.14 3.2h1.41v-.21l-2.25-3.26-.1.08.1.07.03-.03-.12-.08.03.13a2.49 2.49 0 0 0 2-2.4c0-.7-.26-1.31-.78-1.78a2.64 2.64 0 0 0-1.83-.7h-2.84V44h.14v-.14Zm10.19-.79c.45 0 .9-.1 1.33-.31l-.93-1.4.8-.54.92 1.38c.6-.59.9-1.35.9-2.3a3.1 3.1 0 0 0-.87-2.27 2.9 2.9 0 0 0-2.16-.9c-.84 0-1.56.3-2.15.9a3.1 3.1 0 0 0-.88 2.27c0 .92.3 1.68.88 2.27.59.6 1.3.9 2.15.9Zm2.44 1.32-.54-.8c-.6.3-1.23.45-1.9.45a4.06 4.06 0 0 1-4.07-4.14 4.05 4.05 0 0 1 4.06-4.14 4.05 4.05 0 0 1 4.07 4.14c0 1.28-.45 2.32-1.38 3.14l.56.83-.8.52Z" fill="#fff"/>
  <path d="M74.4 43.07v.13c.47 0 .94-.1 1.4-.32l.13-.07L75 41.4l.58-.4.93 1.4.11-.1a3.2 3.2 0 0 0 .95-2.4c0-.95-.3-1.75-.92-2.37a3.04 3.04 0 0 0-2.25-.93c-.87 0-1.63.32-2.24.93a3.24 3.24 0 0 0-.92 2.37c0 .95.3 1.75.92 2.37.6.62 1.37.93 2.24.93v-.27c-.81 0-1.49-.28-2.05-.85a2.97 2.97 0 0 1-.84-2.18c0-.9.28-1.61.84-2.18a2.78 2.78 0 0 1 2.05-.85c.82 0 1.5.28 2.06.85s.84 1.29.84 2.18c0 .92-.29 1.64-.86 2.2l.09.1.11-.07-1-1.5-.9.62-.11.07 1 1.5.11-.06-.05-.13c-.42.2-.85.3-1.29.3v.14Zm2.44 1.32.11-.07-.6-.9-.11.05c-.57.29-1.19.44-1.85.44a3.92 3.92 0 0 1-3.94-4 3.92 3.92 0 0 1 3.94-4.02c1.12 0 2.05.4 2.8 1.17a3.92 3.92 0 0 1 1.14 2.84c0 1.25-.44 2.25-1.34 3.04l-.08.08.54.81-.68.45.07.11.07.11.8-.52.11-.07-.63-.94-.1.07.08.1a4.15 4.15 0 0 0 1.43-3.24 4.2 4.2 0 0 0-4.2-4.27 4.2 4.2 0 0 0-4.2 4.27 4.2 4.2 0 0 0 6.16 3.8l-.06-.11-.11.07.61.92.11-.08-.07-.1Zm4.32-3.63h2.64l-1.3-3.57h-.04l-1.3 3.57Zm-2.24 3.1 2.98-7.92h1.15l3 7.92H84.9l-.76-2.15h-3.33l-.78 2.15h-1.12Z" fill="#fff"/>
  <path d="M81.16 40.76v.14H84l-1.4-3.84h-.23l-1.39 3.84h.2v-.14l.12.05 1.3-3.58-.13-.04v.13h.04v-.13l-.12.04 1.23 3.4h-2.45v.13Zm-2.24 3.1.12.05L82 36.07h.96l2.89 7.66H85l-.77-2.15h-3.51l-.78 2.15h-1.03V44h1.22l.77-2.15h3.15l.76 2.15h1.41l-3.08-8.2H81.8L78.72 44h.2v-.14Zm8.16 0v-7.92h1.02v6.95h3.43v.97h-4.45Z" fill="#fff"/>
  <path d="M87.08 43.86h.14v-7.79h.75v6.95h3.43v.7h-4.32V44h4.59v-1.25h-3.43V35.8h-1.29V44h.13v-.14Zm5.57 0v-7.92h1.02v7.92h-1.02Z" fill="#fff"/>
  <path d="M92.65 43.86h.14v-7.79h.75v7.66h-.89V44h1.15v-8.2h-1.28V44h.13v-.14Zm6.58-1.69c.59.6 1.3.9 2.15.9.85 0 1.57-.3 2.16-.9.58-.59.88-1.35.88-2.27 0-.92-.3-1.68-.88-2.27a2.9 2.9 0 0 0-2.16-.9c-.84 0-1.56.3-2.15.9a3.1 3.1 0 0 0-.88 2.27c0 .92.3 1.68.88 2.27Zm5.06.67a3.9 3.9 0 0 1-2.9 1.2 4.06 4.06 0 0 1-4.07-4.14 4.05 4.05 0 0 1 4.06-4.14 4.05 4.05 0 0 1 4.07 4.14c0 1.16-.38 2.14-1.16 2.94Z" fill="#fff"/>
  <path d="m99.23 42.17-.1.1c.62.62 1.38.93 2.25.93.88 0 1.64-.31 2.25-.93.61-.62.92-1.42.92-2.37 0-.95-.3-1.75-.92-2.37a3.04 3.04 0 0 0-2.25-.93c-.88 0-1.63.32-2.24.93a3.24 3.24 0 0 0-.92 2.37c0 .95.3 1.75.92 2.37l.1-.1.09-.09a2.97 2.97 0 0 1-.85-2.18c0-.9.29-1.61.85-2.18a2.78 2.78 0 0 1 2.05-.85c.82 0 1.5.28 2.06.85s.84 1.29.84 2.18c0 .9-.28 1.61-.84 2.18-.56.57-1.24.85-2.06.85-.81 0-1.49-.28-2.05-.85l-.1.1Zm5.06.67-.1-.1a3.75 3.75 0 0 1-2.8 1.17 3.92 3.92 0 0 1-3.94-4 3.92 3.92 0 0 1 3.93-4.02 3.92 3.92 0 0 1 3.94 4c0 1.14-.37 2.08-1.13 2.86l.1.09.1.1a4.2 4.2 0 0 0 1.2-3.04 4.2 4.2 0 0 0-4.2-4.27 4.19 4.19 0 0 0-4.2 4.27 4.19 4.19 0 0 0 4.2 4.27c1.18 0 2.2-.41 3-1.24l-.1-.1Zm2.57 1.02v-7.92h1.02v6.95h3.43v.97h-4.45Z" fill="#fff"/>
  <path d="M106.86 43.86h.13v-7.79h.76v6.95h3.43v.7h-4.32V44h4.58v-1.25h-3.43V35.8h-1.28V44h.13v-.14Zm5.57 0v-7.92h1.02v7.92h-1.02Z" fill="#fff"/>
  <path d="M112.43 43.86h.13v-7.79h.75v7.66h-.88V44h1.15v-8.2h-1.28V44h.13v-.14Zm2.85 0v-7.92h1.24l3.85 6.16h.04l-.04-1.52v-4.64h1.02v7.92h-1.07l-4.03-6.46h-.04l.04 1.53v4.93h-1.01Z" fill="#fff"/>
  <path d="M115.28 43.86h.13v-7.79h1.03l3.85 6.17h.26l-.05-1.67v-4.5h.75v7.66h-.85l-4.03-6.46h-.26l.05 1.66v4.8h-.88V44h1.15v-5.08l-.05-1.53h-.13v.14h.04v-.13l-.1.07 4.06 6.53h1.27v-8.2h-1.29v4.78l.05 1.53h.13v-.14h-.04v.13l.11-.07-3.89-6.23h-1.45V44h.14v-.14Zm15.54-3.64a3.6 3.6 0 0 1-.99 2.65 3.84 3.84 0 0 1-2.91 1.17 4 4 0 0 1-2.92-1.2c-.8-.78-1.2-1.77-1.2-2.94s.4-2.16 1.2-2.95c.8-.8 1.78-1.19 2.92-1.19.57 0 1.11.11 1.63.33.51.23.93.52 1.24.89l-.7.7a2.67 2.67 0 0 0-2.17-.95 3.06 3.06 0 0 0-3.08 3.17c0 .94.3 1.7.92 2.28.6.6 1.33.89 2.16.89a3 3 0 0 0 2.21-.89c.39-.38.61-.92.67-1.6h-2.88v-.96h3.84c.04.21.06.4.06.6Z" fill="#fff"/>
  <path d="M130.82 40.22h-.14c0 1.08-.31 1.92-.94 2.55a3.7 3.7 0 0 1-2.82 1.14 3.85 3.85 0 0 1-2.82-1.16 3.85 3.85 0 0 1-1.16-2.85c0-1.14.38-2.08 1.16-2.85a3.85 3.85 0 0 1 2.82-1.16c.55 0 1.08.11 1.58.33.5.21.89.5 1.18.84l.1-.08-.09-.1-.7.7.1.1.1-.09c-.55-.66-1.32-1-2.27-.99-.86 0-1.63.31-2.25.92a3.16 3.16 0 0 0-.96 2.38c0 .97.32 1.77.96 2.38.63.61 1.39.92 2.25.92.91 0 1.7-.31 2.3-.93.42-.4.65-.98.71-1.68l.01-.15h-2.89v-.68h3.71v-.14l-.13.03c.03.2.05.39.05.57h.27c0-.2-.02-.4-.06-.62l-.02-.1h-4.08v1.2h3v-.12l-.13-.02a2.35 2.35 0 0 1-.62 1.53c-.57.56-1.26.84-2.12.84a2.9 2.9 0 0 1-2.07-.84 2.9 2.9 0 0 1-.87-2.19c0-.9.29-1.63.87-2.19a2.88 2.88 0 0 1 2.07-.84c.9 0 1.57.3 2.07.9l.1.1.8-.8.08-.08-.08-.1c-.33-.38-.76-.7-1.29-.92a4.23 4.23 0 0 0-1.68-.34c-1.17 0-2.19.41-3 1.23a4.12 4.12 0 0 0-1.25 3.04c0 1.2.42 2.23 1.24 3.04a4.12 4.12 0 0 0 3.01 1.23c1.22 0 2.24-.4 3-1.21l-.09-.1.1.1a3.7 3.7 0 0 0 1.02-2.74h-.13Z" fill="#fff"/>
</svg>
