<svg width="180" height="54" fill="none" xmlns="http://www.w3.org/2000/svg">
  <path d="M173.33 54H6.67A6.73 6.73 0 0 1 0 47.25V6.75C0 3.04 3 0 6.67 0h166.66A6.73 6.73 0 0 1 180 6.75v40.5c0 3.71-3 6.75-6.67 6.75Z" fill="#000"/>
  <path d="m27.63 26.22-14.2 15.26a3.84 3.84 0 0 0 5.65 2.35l.05-.03 15.97-9.33-7.48-8.25Z" fill="#EA4335"/>
  <path d="m41.98 23.63-.01-.02-6.9-4.05-7.77 7 7.8 7.9 6.86-4a3.89 3.89 0 0 0 2.02-3.43c0-1.47-.8-2.75-2-3.4Z" fill="#FBBC04"/>
  <path d="M13.43 12.52a3.7 3.7 0 0 0-.13 1v26.96c0 .35.04.68.13 1L28.1 26.62l-14.68-14.1Z" fill="#4285F4"/>
  <path d="m27.73 27 7.34-7.44-15.96-9.37a3.85 3.85 0 0 0-5.69 2.33L27.73 27Z" fill="#34A853"/>
  <path d="M142.58 40h2.49V23.33h-2.49V40ZM165 29.34l-2.85 7.22h-.09l-2.96-7.22h-2.68l4.44 10.1-2.53 5.61h2.6l6.84-15.71H165Zm-14.1 8.77c-.82 0-1.96-.41-1.96-1.42 0-1.29 1.41-1.78 2.64-1.78 1.1 0 1.6.24 2.27.56a3.02 3.02 0 0 1-2.96 2.64Zm.3-9.14c-1.81 0-3.68.8-4.45 2.55l2.21.93c.47-.93 1.35-1.23 2.27-1.23 1.3 0 2.6.78 2.62 2.15v.17a5.5 5.5 0 0 0-2.6-.64c-2.38 0-4.8 1.3-4.8 3.75 0 2.23 1.95 3.67 4.14 3.67a3.5 3.5 0 0 0 3.17-1.63h.09v1.28h2.4v-6.39c0-2.96-2.2-4.6-5.06-4.6Zm-15.38 2.4h-3.54v-5.72h3.53a2.89 2.89 0 0 1 2.92 2.86 2.9 2.9 0 0 1-2.91 2.86Zm-.07-8.04h-5.96V40h2.49v-6.32h3.47c2.76 0 5.47-2 5.47-5.17 0-3.18-2.71-5.18-5.47-5.18Zm-32.5 14.78c-1.72 0-3.16-1.44-3.16-3.42 0-2 1.44-3.45 3.15-3.45 1.7 0 3.03 1.46 3.03 3.45 0 1.98-1.33 3.42-3.03 3.42Zm2.85-7.84h-.1a3.93 3.93 0 0 0-2.98-1.27 5.64 5.64 0 0 0-5.44 5.7c0 3.17 2.6 5.64 5.44 5.64 1.35 0 2.43-.6 2.98-1.28h.09v.81c0 2.17-1.16 3.33-3.03 3.33a3.14 3.14 0 0 1-2.86-2.02l-2.17.9a5.4 5.4 0 0 0 5.03 3.35c2.92 0 5.4-1.71 5.4-5.9V29.35h-2.37v.92Zm4.08 9.73h2.5V23.33h-2.5V40Zm6.17-5.5a3.11 3.11 0 0 1 2.96-3.3c.99 0 1.83.49 2.1 1.2l-5.06 2.1Zm7.73-1.89c-.47-1.27-1.91-3.6-4.85-3.6-2.93 0-5.35 2.29-5.35 5.66 0 3.18 2.4 5.67 5.62 5.67 2.6 0 4.1-1.59 4.73-2.5l-1.93-1.3a3.24 3.24 0 0 1-2.8 1.57 2.89 2.89 0 0 1-2.75-1.72l7.59-3.13-.26-.65Zm-60.41-1.87v2.4h5.76a5.02 5.02 0 0 1-1.32 3.04 5.9 5.9 0 0 1-4.44 1.76 6.32 6.32 0 0 1-6.32-6.4A6.32 6.32 0 0 1 68 26.85l1.7-1.7a8.4 8.4 0 0 0-6.04-2.42 8.93 8.93 0 0 0-8.94 8.8 8.93 8.93 0 0 0 8.94 8.81c2.62 0 4.6-.86 6.14-2.47 1.6-1.59 2.09-3.82 2.09-5.62a7.8 7.8 0 0 0-.13-1.5h-8.1Zm14.77 7.37c-1.72 0-3.2-1.42-3.2-3.44 0-2.04 1.48-3.43 3.2-3.43 1.72 0 3.2 1.4 3.2 3.43 0 2.02-1.48 3.44-3.2 3.44Zm0-9.1a5.59 5.59 0 0 0-5.7 5.66 5.6 5.6 0 0 0 5.7 5.67 5.6 5.6 0 0 0 5.7-5.67 5.59 5.59 0 0 0-5.7-5.67Zm12.42 9.1c-1.72 0-3.2-1.42-3.2-3.44 0-2.04 1.48-3.43 3.2-3.43 1.72 0 3.2 1.4 3.2 3.43 0 2.02-1.48 3.44-3.2 3.44Zm0-9.1a5.59 5.59 0 0 0-5.7 5.66 5.6 5.6 0 0 0 5.7 5.67 5.6 5.6 0 0 0 5.69-5.67 5.59 5.59 0 0 0-5.7-5.67ZM58.25 16.93h-.98v-6.7h-2.13V9.3h5.24v.94h-2.13v6.7Z" fill="#fff"/>
  <path d="M58.25 16.93v-.13h-.85v-6.7h-2.13v-.67h4.98v.67h-2.13v6.83h.27v-6.57h2.13v-1.2H55v1.2h2.14v6.7h1.25v-.13h-.14Zm4.72-7.7c.17-.46.56-.54.56-.9 0-.2-.15-.32-.35-.32-.23 0-.41.19-.54.37l-.35-.21c.2-.39.51-.72 1.06-.72.49 0 .88.33.88.77 0 .54-.48.66-.77 1.15l-.49-.14Zm1.3 4.71-.7-2.06c-.16-.47-.27-.9-.37-1.31h-.02c-.11.42-.23.86-.37 1.3l-.7 2.07h2.16Zm-2.35.73-.75 2.26h-.96l2.44-7.19h1.12l2.45 7.19h-.99l-.77-2.26h-2.54Z" fill="#fff"/>
  <path d="m62.97 9.23.13.05c.07-.2.19-.32.3-.44.13-.12.26-.27.26-.5a.45.45 0 0 0-.14-.34.5.5 0 0 0-.34-.13c-.31.01-.51.24-.65.43l.11.08.07-.11-.35-.22-.07.12.12.06c.18-.36.45-.64.94-.64.43 0 .75.28.75.63 0 .23-.1.35-.24.5-.15.15-.35.31-.51.58l.11.07.04-.13-.5-.14-.03.13-.03.13.59.17.05-.1c.13-.21.3-.35.47-.52a.93.93 0 0 0 .31-.69c0-.53-.47-.9-1.01-.9-.6 0-.98.38-1.18.79l-.05.1.45.28.1.07.08-.1c.12-.18.28-.33.43-.32.14 0 .2.07.21.2 0 .12-.05.19-.17.31-.12.12-.28.28-.37.54l-.05.13.14.04.03-.13Zm1.3 4.71.13-.04-.7-2.07c-.16-.46-.27-.88-.37-1.3l-.03-.1h-.23l-.02.1c-.11.43-.23.86-.37 1.3l.13.04-.12-.05-.77 2.26h2.54l-.06-.18-.13.04v-.13H62.3l.65-1.9c.14-.44.26-.88.36-1.31l-.12-.03v.13h.02v-.13l-.13.03c.1.41.21.84.37 1.32l.7 2.07.13-.05Zm-2.35.73-.13-.04-.71 2.17h-.68l2.35-6.92h.93l2.36 6.92h-.71l-.77-2.26h-2.74l-.03.09.13.04v.13h2.45l.77 2.26h1.27l-2.54-7.45h-1.31l-2.53 7.45h1.24l.77-2.35-.12-.04Zm5.38 2.26V9.29h.98v7.64h-.98Z" fill="#fff"/>
  <path d="M67.3 16.93h.13v-7.5h.72v7.37h-.85v.26h1.11v-7.9h-1.24v7.9h.13v-.13Zm4.86 0V9.29h1.2l3.7 5.94h.05l-.04-1.47V9.3h.98v7.64h-1.02l-3.89-6.23h-.04l.04 1.47v4.76h-.98Z" fill="#fff"/>
  <path d="M72.16 16.93h.14v-7.5h.98L77 15.37h.26l-.05-1.61V9.43h.72v7.37h-.82l-3.88-6.23h-.26l.05 1.6v4.63h-.85v.26h1.12v-4.89l-.05-1.47h-.13v.13h.04v-.13l-.11.07 3.92 6.3h1.23V9.15h-1.25v4.6l.05 1.48h.13v-.14h-.04v.13l.11-.07-3.75-6h-1.4v7.9h.13v-.13Zm10.01 1.39c0-.28.23-.54.54-.54.29 0 .51.26.51.54 0 .27-.22.54-.52.54a.55.55 0 0 1-.53-.54Zm.87-10.2 1.12 1.2h-.79l-.68-.73h-.02l-.67.74h-.77l1.1-1.22h.71Zm-2.64 5.26c0 1.53.83 2.91 2.29 2.91 1.47 0 2.3-1.35 2.3-2.99 0-1.42-.74-2.92-2.29-2.92-1.54 0-2.3 1.42-2.3 3Zm5.57-.12c0 2.48-1.5 3.79-3.33 3.79-1.9 0-3.23-1.47-3.23-3.65 0-2.28 1.41-3.77 3.33-3.77 1.96 0 3.23 1.5 3.23 3.63Z" fill="#fff"/>
  <path d="M82.17 18.32h.13c0-.2.18-.4.41-.4.2 0 .38.19.38.4 0 .2-.18.4-.39.4-.22 0-.4-.2-.4-.4h-.27c0 .35.29.67.67.67.38 0 .65-.33.66-.67a.66.66 0 0 0-.65-.67.68.68 0 0 0-.68.67h.14Zm.87-10.2-.1.08.92 1h-.43l-.64-.7-.04-.04h-.14l-.67.73h-.41l.86-.94h.65v-.27h-.77l-1.34 1.48h1.12l.72-.78-.1-.09v.14h.02v-.14l-.1.1.72.77h1.15L83.1 7.98h-.06v.13Zm-2.64 5.26h-.14c0 .8.22 1.54.63 2.1.4.57 1.03.94 1.8.94.78 0 1.4-.36 1.81-.93.41-.57.62-1.35.63-2.19 0-.73-.2-1.49-.6-2.07a2.16 2.16 0 0 0-1.83-.98c-.81 0-1.43.38-1.84.96-.4.59-.6 1.36-.6 2.17h.27c0-.77.19-1.5.55-2.01.37-.53.9-.85 1.62-.85.73 0 1.25.34 1.62.86.36.53.54 1.23.54 1.92 0 .8-.2 1.52-.58 2.03-.37.51-.9.83-1.6.83a1.9 1.9 0 0 1-1.58-.83 3.3 3.3 0 0 1-.57-1.95h-.13Zm5.57-.12h-.13c-.01 2.42-1.44 3.65-3.2 3.65-1.83 0-3.1-1.39-3.1-3.5 0-2.24 1.36-3.64 3.2-3.65 1.89 0 3.09 1.42 3.1 3.5h.27c0-1.09-.33-2.03-.92-2.7a3.17 3.17 0 0 0-2.45-1.07c-1 0-1.87.4-2.48 1.08a4.15 4.15 0 0 0-.99 2.83c0 1.12.34 2.06.94 2.73.6.67 1.44 1.05 2.43 1.05.94 0 1.82-.34 2.45-1a4.11 4.11 0 0 0 1.02-2.92h-.14Zm1.39 3.67V9.29h.98v7.64h-.98Z" fill="#fff"/>
  <path d="M87.36 16.93h.13v-7.5h.71v7.37h-.84v.26h1.11v-7.9h-1.25v7.9h.14v-.13ZM93.2 16h1.36c.88 0 1.58-.26 2.1-.77.5-.5.77-1.2.77-2.12 0-.9-.26-1.6-.78-2.12a2.86 2.86 0 0 0-2.1-.76H93.2V16Zm-.98.93V9.29h2.34a3.8 3.8 0 0 1 2.81 1.06c.7.71 1.06 1.63 1.06 2.76s-.35 2.05-1.06 2.76a3.8 3.8 0 0 1-2.81 1.06h-2.34Z" fill="#fff"/>
  <path d="M93.2 16v.12h1.36a3 3 0 0 0 2.19-.8 2.9 2.9 0 0 0 .8-2.21 2.95 2.95 0 0 0-.8-2.21 3 3 0 0 0-2.2-.8h-1.48v6.02h.13V16h.13v-5.63h1.23c.85 0 1.51.25 2 .73.48.48.73 1.14.73 2.02 0 .89-.25 1.55-.73 2.03-.49.48-1.15.72-2 .72H93.2V16Zm-.98.93h.13v-7.5h2.2c1.15 0 2.05.34 2.73 1.02a3.61 3.61 0 0 1 1.02 2.66c0 1.1-.35 1.98-1.02 2.66a3.66 3.66 0 0 1-2.72 1.03h-2.34v.26h2.34c1.2 0 2.18-.36 2.9-1.1.74-.73 1.1-1.7 1.1-2.85 0-1.16-.36-2.12-1.1-2.85a3.93 3.93 0 0 0-2.9-1.1h-2.47v7.9h.13v-.13Zm10.29.17c-.84 0-1.52-.28-2.04-.83a3.04 3.04 0 0 1-.79-2.18V9.3h.98v4.85c0 .6.16 1.09.48 1.46.32.37.77.56 1.37.56.6 0 1.05-.19 1.37-.56.32-.37.48-.86.48-1.46V9.29h.98v4.8c0 .9-.26 1.63-.77 2.18-.5.55-1.2.83-2.06.83Z" fill="#fff"/>
  <path d="M102.51 17.1v-.13c-.81 0-1.45-.27-1.95-.8a2.9 2.9 0 0 1-.74-2.08V9.43h.71v4.7c0 .63.17 1.16.5 1.56.35.4.86.6 1.48.6s1.13-.2 1.47-.6c.34-.4.51-.93.5-1.55V9.43h.72v4.66a3 3 0 0 1-.72 2.1c-.49.51-1.13.78-1.97.78v.26c.9 0 1.63-.29 2.16-.87.54-.57.8-1.34.8-2.27V9.16h-1.25v4.98c0 .58-.15 1.03-.44 1.38-.3.34-.7.5-1.27.5-.57 0-.98-.16-1.27-.5-.3-.35-.44-.8-.44-1.38V9.16h-1.25v4.93c0 .92.27 1.69.82 2.27.55.58 1.27.87 2.14.87v-.13Zm4.49-.17V9.29h1.2l3.72 5.94h.04l-.04-1.47V9.3h.98v7.64h-1.03L108 10.7h-.04l.04 1.47v4.76h-.98Z" fill="#fff"/>
  <path d="M107 16.93h.14v-7.5h.99l3.71 5.94h.26l-.05-1.61V9.43h.71v7.37h-.81l-3.89-6.23h-.25l.05 1.6v4.63H107v.26h1.11v-4.89l-.04-1.47h-.13v.13h.04v-.13l-.11.07 3.92 6.3h1.23V9.15h-1.25v4.6l.05 1.48h.13v-.14h-.04v.13l.1-.07-3.74-6h-1.4v7.9h.13v-.13Zm15-3.51c0 1.07-.31 1.92-.95 2.55a3.7 3.7 0 0 1-2.8 1.13c-1.1 0-2.04-.38-2.81-1.15a3.84 3.84 0 0 1-1.16-2.84c0-1.13.39-2.08 1.16-2.84a3.84 3.84 0 0 1 2.8-1.15c.56 0 1.08.1 1.58.32.5.21.9.5 1.2.85l-.68.68c-.5-.6-1.2-.91-2.1-.91a2.94 2.94 0 0 0-2.96 3.05c0 .9.3 1.64.88 2.2a2.9 2.9 0 0 0 2.09.85c.85 0 1.56-.28 2.13-.85.37-.37.59-.89.64-1.55h-2.77v-.92h3.7c.03.2.05.4.05.58Z" fill="#fff"/>
  <path d="M122 13.42h-.13a3.3 3.3 0 0 1-.91 2.46 3.57 3.57 0 0 1-2.71 1.09 3.71 3.71 0 0 1-2.72-1.11 3.7 3.7 0 0 1-1.12-2.75c0-1.1.37-2 1.12-2.75a3.7 3.7 0 0 1 2.72-1.1c.53 0 1.03.1 1.51.3.48.21.86.48 1.15.82l.1-.09-.1-.09-.67.67.1.1.1-.09a2.71 2.71 0 0 0-2.2-.95 3.06 3.06 0 0 0-3.1 3.18 3.09 3.09 0 0 0 3.11 3.18c.88 0 1.63-.3 2.23-.89.4-.4.62-.94.67-1.63l.02-.14h-2.79v-.65h3.57v-.14l-.13.03c.03.19.05.37.05.55h.27c0-.2-.02-.4-.06-.6l-.02-.1h-3.95v1.18h2.91v-.14h-.13a2.25 2.25 0 0 1-.6 1.45c-.55.55-1.22.82-2.04.82-.78 0-1.43-.27-2-.81a2.78 2.78 0 0 1-.83-2.11c0-.87.27-1.56.83-2.1a2.77 2.77 0 0 1 2-.82c.86 0 1.5.29 1.99.86l.09.12.78-.78.08-.09-.08-.1a3.28 3.28 0 0 0-1.24-.88 4.08 4.08 0 0 0-1.62-.33c-1.14 0-2.11.4-2.9 1.18-.8.79-1.2 1.78-1.2 2.94s.4 2.15 1.2 2.94a3.96 3.96 0 0 0 2.9 1.18c1.18 0 2.16-.39 2.9-1.17l-.1-.09.1.1c.66-.67.99-1.56.99-2.65H122Zm6.15 3.51h-.98v-6.7h-2.14V9.3h5.25v.94h-2.13v6.7Z" fill="#fff"/>
  <path d="M128.15 16.93v-.13h-.85v-6.7h-2.13v-.67h4.98v.67H128v6.83h.27v-6.57h2.13v-1.2h-5.51v1.2h2.13v6.7h1.25v-.13h-.13Zm4.21-4.01h1.57c.4 0 .73-.13 1.01-.38a1.34 1.34 0 0 0 .05-1.89 1.27 1.27 0 0 0-1-.42h-1.63v2.69Zm-.99 4.01V9.29h2.6c.66 0 1.22.22 1.69.65.47.43.7.97.7 1.62a2.27 2.27 0 0 1-1.82 2.19l-.02.03 2.14 3.1v.05h-1.16l-2.06-3.1h-1.08v3.1h-.99Z" fill="#fff"/>
  <path d="M132.36 12.92v.13h1.57c.42 0 .8-.14 1.1-.42.31-.27.47-.64.47-1.07 0-.36-.14-.7-.4-1a1.4 1.4 0 0 0-1.1-.46h-1.78v2.95h.14v-.13h.13v-2.56h1.5c.4 0 .68.13.9.38.23.25.34.52.34.82 0 .36-.12.64-.38.88-.26.23-.55.34-.91.35h-1.58v.13Zm-.99 4.01h.14v-7.5h2.47c.62 0 1.14.2 1.59.6a2 2 0 0 1 .66 1.53 2.14 2.14 0 0 1-1.72 2.06l-.05.01-.05.08-.05.07 2.17 3.15h.13v-.13h-1.09l-2.05-3.1h-1.3v3.1h-.84v.26h1.1v-3.1h.9l2.05 3.1h1.37v-.21l-2.17-3.14-.1.07.1.08.02-.03-.1-.08.02.13a2.4 2.4 0 0 0 1.93-2.32c0-.68-.25-1.27-.75-1.72-.5-.45-1.1-.68-1.77-.68h-2.74v7.9h.13v-.13Zm7.12-8.3v-.05l1.1-1.25h.85l1.1 1.25v.05h-.95l-.53-.64h-.1l-.52.64h-.95Zm3.75 1.6h-3.48v2.42h3.14v.92h-3.14v2.42h3.48v.94h-4.46V9.29h4.46v.94Z" fill="#fff"/>
  <path d="M138.49 8.63h.13l1.03-1.17h.73l1.02 1.17h.14V8.5h-.9l-.48-.6-.04-.04h-.21l-.54.64h-.88v.26h1l.54-.64h.03V8l-.1.09.53.64.03.04h1.15v-.23L140.5 7.2h-.98l-1.17 1.33v.23h.14v-.13Zm3.75 1.6v-.13h-3.61v2.69h3.14v.65h-3.14v2.68h3.48v.68h-4.2V9.43h4.2v.8h.26V9.16h-4.72v7.9h4.72v-1.2h-3.47V13.7h3.13v-1.18h-3.13v-2.16h3.47v-.13h-.13Zm1.43 6.7V9.29h1.2l3.7 5.94h.05l-.05-1.47V9.3h.99v7.64h-1.03l-3.88-6.23h-.04l.04 1.47v4.76h-.98Z" fill="#fff"/>
  <path d="M143.67 16.93h.13v-7.5h.99l3.71 5.94h.25l-.04-1.61V9.43h.71v7.37h-.81l-3.89-6.23h-.25l.04 1.6v4.63h-.84v.26h1.11v-4.89l-.04-1.47h-.13v.13h.04v-.13l-.12.07 3.93 6.3h1.23V9.15h-1.25v4.6l.04 1.48h.14v-.14h-.05v.13l.12-.07-3.75-6h-1.4v7.9h.13v-.13Z" fill="#fff"/>
</svg>
