<svg width="180" height="54" fill="none" xmlns="http://www.w3.org/2000/svg">
  <path d="M173.3 54H6.7A6.7 6.7 0 0 1 0 47.2V6.8C0 3 3 0 6.7 0h166.6a6.7 6.7 0 0 1 6.7 6.8v40.5c0 3.7-3 6.7-6.7 6.7Z" fill="#000"/>
  <path d="M27.6 26.2 13.4 41.5a3.8 3.8 0 0 0 5.7 2.3l16-9.3-7.5-8.3Z" fill="#EA4335"/>
  <path d="m42 23.6-7-4-7.7 7 7.8 7.9 6.9-4a3.9 3.9 0 0 0 2-3.5 4 4 0 0 0-2-3.4Z" fill="#FBBC04"/>
  <path d="M13.4 12.5a3.7 3.7 0 0 0-.1 1v27l.1 1 14.7-14.9-14.7-14Z" fill="#4285F4"/>
  <path d="m27.7 27 7.4-7.4-16-9.4a3.9 3.9 0 0 0-5.7 2.3L27.7 27Z" fill="#34A853"/>
  <path d="M142.6 40h2.5V23.3h-2.5V40ZM165 29.3l-2.9 7.3-3-7.3h-2.7l4.5 10.1-2.6 5.7h2.6l6.9-15.8H165Zm-14.1 8.8c-.8 0-2-.4-2-1.4 0-1.3 1.4-1.8 2.7-1.8 1 0 1.6.2 2.2.6a3 3 0 0 1-3 2.6Zm.3-9.1c-1.8 0-3.7.8-4.4 2.5l2.2 1c.4-1 1.3-1.3 2.2-1.3 1.3 0 2.6.8 2.7 2.2v.1a5.5 5.5 0 0 0-2.6-.6c-2.4 0-4.8 1.3-4.8 3.8 0 2.2 1.9 3.6 4 3.6a3.5 3.5 0 0 0 3.3-1.6V40h2.5v-6.4c0-3-2.2-4.6-5.1-4.6Zm-15.4 2.4h-3.5v-5.8h3.5a2.9 2.9 0 0 1 3 3 2.9 2.9 0 0 1-3 2.8Zm0-8h-6V40h2.5v-6.3h3.5c2.7 0 5.4-2 5.4-5.2s-2.7-5.2-5.4-5.2ZM103.3 38c-1.8 0-3.2-1.4-3.2-3.4s1.4-3.5 3.1-3.5c1.7 0 3 1.5 3 3.5s-1.3 3.4-3 3.4Zm2.8-7.8h-.1a4 4 0 0 0-3-1.3 5.6 5.6 0 0 0-5.4 5.7c0 3.2 2.6 5.6 5.4 5.6a4 4 0 0 0 3-1.2v.8c0 2.1-1 3.3-3 3.3a3.1 3.1 0 0 1-2.8-2L98 42a5.4 5.4 0 0 0 5 3.3c3 0 5.5-1.7 5.5-5.9v-10H106v.9Zm4 9.7h2.6V23.3h-2.5V40Zm6.3-5.5a3.1 3.1 0 0 1 3-3.3c.9 0 1.7.5 2 1.2l-5 2.1Zm7.7-1.9c-.5-1.3-2-3.6-4.9-3.6-2.9 0-5.3 2.3-5.3 5.7 0 3.1 2.4 5.6 5.6 5.6 2.6 0 4.1-1.5 4.7-2.5l-1.9-1.3a3.2 3.2 0 0 1-2.8 1.6 2.9 2.9 0 0 1-2.7-1.7l7.5-3.1-.2-.7Zm-60.4-1.9V33h5.7a5 5 0 0 1-1.3 3 5.9 5.9 0 0 1-4.4 1.8 6.3 6.3 0 0 1-6.3-6.4A6.3 6.3 0 0 1 68 27l1.7-1.7a8.4 8.4 0 0 0-6-2.5 9 9 0 0 0-9 8.8 9 9 0 0 0 9 8.8 8 8 0 0 0 6.1-2.4c1.6-1.6 2-3.8 2-5.6a7.8 7.8 0 0 0 0-1.5h-8.1ZM78.4 38c-1.7 0-3.2-1.4-3.2-3.4s1.5-3.5 3.2-3.5c1.8 0 3.2 1.4 3.2 3.5 0 2-1.4 3.4-3.2 3.4Zm0-9a5.6 5.6 0 0 0-5.7 5.6 5.6 5.6 0 0 0 5.7 5.6 5.6 5.6 0 0 0 5.7-5.6 5.6 5.6 0 0 0-5.7-5.7ZM91 38c-1.8 0-3.2-1.4-3.2-3.4s1.4-3.5 3.2-3.5c1.7 0 3.2 1.4 3.2 3.5 0 2-1.5 3.4-3.2 3.4Zm0-9a5.6 5.6 0 0 0-5.7 5.6 5.6 5.6 0 0 0 5.7 5.6 5.6 5.6 0 0 0 5.7-5.6 5.6 5.6 0 0 0-5.7-5.7ZM58.2 16.8h-1v-6.7h-2v-.9h5.2v1h-2.1v6.6Z" fill="#fff"/>
  <path d="M58.3 17v-.2h-.9v-6.7h-2.1v-.7h5v.7H58v6.8h.3v-6.5h2.1V9.2H55v1.2h2.1V17h1.3v-.2h-.1ZM63 9.1c.1-.4.5-.5.5-.9 0-.2-.1-.3-.3-.3-.3 0-.4.2-.6.4l-.3-.2c.2-.4.5-.8 1-.8s1 .4 1 .8c0 .6-.5.7-.8 1.2l-.5-.2Zm1.3 4.7-.7-2-.4-1.3-.4 1.3-.7 2h2.2Zm-2.4.8-.7 2.2h-1l2.4-7.2h1.2l2.4 7.2h-1l-.7-2.2h-2.6Z" fill="#fff"/>
  <path d="M63 9.2h.1l.3-.4c.1 0 .3-.2.3-.5a.5.5 0 0 0-.2-.3.5.5 0 0 0-.3-.1c-.3 0-.5.2-.7.4h.2l-.3-.2h-.1l.1.1c.2-.3.5-.6 1-.6.4 0 .7.3.7.6s-.1.4-.2.5l-.6.6h.2L63 9v.4l.5.1.5-.6a1 1 0 0 0 .4-.7c0-.5-.5-.9-1-.9-.6 0-1 .4-1.2.8v.1l.4.3h.2c0-.2.2-.4.4-.4l.2.2-.2.4c-.1 0-.3.2-.3.5l-.1.1h.1Zm1.3 4.7h.1l-.7-2a13 13 0 0 1-.4-1.4h-.2l-.4 1.3h.1-.1l-.8 2.3h2.6l-.1-.2h-2.1l.7-2 .3-1.3h-.1v.1-.1h-.1l.3 1.3.7 2h.2Zm-2.4.8h-.1l-.7 2.1h-.7l2.3-7h1l2.3 7h-.7l-.7-2.3h-2.8v.1h.1v.2h2.5l.7 2.3h1.3L64 9.6h-1.3L60 17.1h1.3l.7-2.4Zm5.4 2.2V9.3h1v7.6h-1Z" fill="#fff"/>
  <path d="M67.3 17h.1V9.3h.7v7.4h-.8v.3h1.1V9h-1.2v8h.1v-.2Zm4.9 0V9.2h1.2l3.7 6v-6h1v7.6h-1l-4-6.2V17h-1Z" fill="#fff"/>
  <path d="M72.2 17h.1V9.3h1l3.7 6h.3v-6h.6v7.4h-.8l-3.9-6.2H73v6.3h-.8v.3h1v-6.4.1-.1H73l4 6.4h1.2V9h-1.3v6.1h.2V15v.1l-3.7-6H72V17h.2v-.2Zm10 1.3c0-.3.2-.5.5-.5s.5.2.5.5-.2.6-.5.6a.6.6 0 0 1-.5-.6ZM83 8.1l1.2 1.2h-.8l-.7-.7-.7.7h-.8l1.1-1.2h.7Zm-2.6 5.3c0 1.5.8 2.9 2.3 2.9 1.5 0 2.3-1.4 2.3-3 0-1.4-.7-3-2.3-3-1.5 0-2.3 1.5-2.3 3Zm5.6-.1c0 2.4-1.5 3.8-3.4 3.8s-3.2-1.5-3.2-3.7c0-2.3 1.4-3.8 3.3-3.8 2 0 3.3 1.5 3.3 3.7Z" fill="#fff"/>
  <path d="M82.2 18.3h.1c0-.2.2-.4.4-.4s.4.2.4.4-.2.4-.4.4a.4.4 0 0 1-.4-.4H82c0 .4.3.7.7.7.4 0 .6-.3.7-.7a.7.7 0 0 0-.7-.7.7.7 0 0 0-.7.7h.2ZM83 8.1v.1l.9 1h-.5l-.6-.7h-.2l-.7.7h-.4l.9-1h.6V8h-.7l-1.4 1.5h1.2l.7-.8-.1-.1v.1-.1h-.1l.7.9h1.2L83 8Zm-2.6 5.3h-.1c0 .8.2 1.5.6 2 .4.7 1 1 1.8 1s1.4-.3 1.8-1c.4-.5.6-1.3.6-2.1 0-.7-.2-1.5-.6-2a2.2 2.2 0 0 0-1.8-1c-.8 0-1.4.3-1.8 1-.4.5-.6 1.3-.6 2h.2c0-.7.2-1.4.6-2a2 2 0 0 1 3.2.1c.4.5.6 1.2.6 1.9 0 .8-.2 1.5-.6 2-.4.5-1 .9-1.6.9a1.9 1.9 0 0 1-1.6-.9 3.3 3.3 0 0 1-.6-2h-.1Zm5.6-.1h-.2c0 2.4-1.4 3.6-3.2 3.6-1.8 0-3-1.4-3-3.5 0-2.2 1.3-3.6 3.1-3.6 2 0 3.1 1.4 3.1 3.5h.3c0-1.1-.3-2-1-2.7a3.2 3.2 0 0 0-2.4-1.1c-1 0-1.8.4-2.4 1a4.2 4.2 0 0 0-1 2.9c0 1.1.3 2 1 2.7.5.7 1.3 1 2.3 1 1 0 1.9-.3 2.5-1a4.1 4.1 0 0 0 1-2.8H86Zm1.4 3.6V9.3h1v7.6h-1Z" fill="#fff"/>
  <path d="M87.4 17V9.3h.8v7.4h-.8v.3h1V9h-1.2v8h.2v-.2Zm5.8-1h1.4c.8 0 1.5-.3 2-.8.6-.5.8-1.2.8-2 0-1-.2-1.7-.8-2.2a2.9 2.9 0 0 0-2-.8h-1.4V16Zm-1 1V9.2h2.4a3.8 3.8 0 0 1 2.8 1c.7.8 1 1.7 1 2.8s-.3 2-1 2.8a3.8 3.8 0 0 1-2.8 1h-2.4Z" fill="#fff"/>
  <path d="M93.2 16v.1h1.4a3 3 0 0 0 2.2-.8 2.9 2.9 0 0 0 .8-2.2 3 3 0 0 0-.8-2.2 3 3 0 0 0-2.2-.8H93v6h.1V16h.1v-5.6h1.3c.8 0 1.5.2 2 .7.4.5.7 1.1.7 2 0 1-.3 1.6-.7 2-.5.5-1.2.8-2 .8h-1.4v.1Zm-1 1h.1V9.3h2.2c1.2 0 2.1.4 2.8 1a3.6 3.6 0 0 1 1 2.7c0 1.1-.3 2-1 2.7a3.7 3.7 0 0 1-2.7 1h-2.4v.3h2.4c1.2 0 2.1-.4 2.9-1.1.7-.8 1-1.7 1-2.9 0-1.1-.3-2.1-1-2.8a4 4 0 0 0-3-1.1h-2.4V17h.1v-.2Zm10.3.1c-.8 0-1.5-.3-2-.8a3 3 0 0 1-.8-2.2V9.3h1v4.8c0 .7.1 1.1.4 1.5.4.4.8.6 1.4.6.6 0 1-.2 1.4-.6.3-.4.5-.9.5-1.5V9.3h1V14a3 3 0 0 1-.8 2.2c-.5.5-1.2.8-2 .8Z" fill="#fff"/>
  <path d="M102.5 17.1V17a3 3 0 0 1-2-.8 2.9 2.9 0 0 1-.7-2.1V9.4h.7v4.7c0 .7.2 1.2.5 1.6.4.4.9.6 1.5.6s1.1-.2 1.5-.6c.3-.4.5-1 .5-1.6V9.4h.7v4.7a3 3 0 0 1-.7 2c-.5.6-1.1.9-2 .9v.2c1 0 1.6-.3 2.2-.8.5-.6.8-1.4.8-2.3V9h-1.3v5c0 .6-.1 1-.4 1.4-.3.4-.7.5-1.3.5-.6 0-1-.1-1.3-.5a2 2 0 0 1-.4-1.4V9h-1.2v5c0 1 .2 1.7.8 2.3.5.5 1.2.8 2.1.8V17Zm4.5-.2V9.3h1.2l3.7 6v-6h1v7.6h-1l-3.9-6.2v6.2h-1Z" fill="#fff"/>
  <path d="M107 17h.1V9.3h1l3.7 6h.3v-6h.7v7.4h-.9l-3.8-6.2h-.3v6.3h-.8v.3h1.1v-6.4h-.2v.1-.1l3.9 6.4h1.2V9h-1.2v6.1h.2V15v.1l-3.7-6h-1.4V17h.1v-.2Zm15-3.6c0 1-.3 2-1 2.6a3.7 3.7 0 0 1-2.8 1.1c-1 0-2-.4-2.8-1.2a3.8 3.8 0 0 1-1.1-2.8c0-1.1.4-2 1.1-2.8a3.8 3.8 0 0 1 2.8-1.2c.6 0 1.1.1 1.6.3.5.2 1 .5 1.2.9l-.7.7c-.5-.6-1.2-1-2-1a3 3 0 0 0-3 3.1c0 1 .3 1.6.9 2.2a2.9 2.9 0 0 0 2 .9 3 3 0 0 0 2.2-.9c.3-.4.6-.9.6-1.5h-2.8v-1h3.7l.1.6Z" fill="#fff"/>
  <path d="M122 13.4h-.1a3.3 3.3 0 0 1-1 2.5 3.6 3.6 0 0 1-2.6 1 3.7 3.7 0 0 1-2.8-1 3.7 3.7 0 0 1-1-2.8c0-1 .3-2 1-2.7a3.7 3.7 0 0 1 2.8-1.1c.5 0 1 0 1.5.3.4.2.8.4 1.1.8l.1-.1v-.1l-.8.7h.2a2.7 2.7 0 0 0-2.2-1 3 3 0 0 0-3 3.2 3 3 0 0 0 3 3.2 3 3 0 0 0 2.3-.9c.4-.4.6-1 .7-1.6v-.2h-2.8V13h3.6v-.2h-.2v.6h.3v-.6h-4v1.1h3v-.1h-.2a2.3 2.3 0 0 1-.6 1.4c-.6.6-1.2.8-2 .8s-1.5-.2-2-.8a2.8 2.8 0 0 1-.9-2c0-1 .3-1.6.8-2.2a2.8 2.8 0 0 1 2-.8c1 0 1.5.3 2 .9h.1l.8-.7v-.2a3.3 3.3 0 0 0-1.2-.9 4 4 0 0 0-1.7-.3 4 4 0 0 0-2.9 1.2c-.8.8-1.2 1.8-1.2 3s.4 2 1.2 2.9a4 4 0 0 0 3 1.1c1.1 0 2.1-.4 2.9-1.1l-.1-.1c.7-.6 1-1.5 1-2.6h-.1Zm6.2 3.5h-1v-6.7H125v-.9h5.3v1H128v6.6Z" fill="#fff"/>
  <path d="M128.2 17v-.2h-.9v-6.7h-2.1v-.7h5v.7H128v6.8h.3v-6.5h2.1V9.2h-5.5v1.2h2.1V17h1.3v-.2h-.2Zm4.2-4h1.5c.4 0 .8-.2 1-.5a1.3 1.3 0 0 0 0-1.9 1.3 1.3 0 0 0-1-.4h-1.5V13Zm-1 4V9.2h2.6c.6 0 1.2.2 1.7.6.4.5.7 1 .7 1.7a2.3 2.3 0 0 1-1.9 2.1l2.2 3.2h-1.2l-2-3h-1.1v3h-1Z" fill="#fff"/>
  <path d="M132.4 13h1.5c.5 0 .8 0 1.1-.4.3-.2.5-.6.5-1s-.1-.7-.4-1a1.4 1.4 0 0 0-1.1-.5h-1.8v3h.2v-2.7h1.6c.4 0 .7 0 .9.3l.3.9c0 .3 0 .6-.3.8-.3.3-.6.4-1 .4h-1.5v.1Zm-1 4h.1V9.3h2.5c.6 0 1.1.2 1.6.6a2 2 0 0 1 .6 1.6 2.1 2.1 0 0 1-1.7 2v.1h-.1l2.1 3.2h.2v-.1h-1.1l-2-3.1h-1.4v3.1h-.8v.3h1v-3h1l2 3h1.4l-2.2-3.2v.2-.1a2.4 2.4 0 0 0 1.9-2.2c0-.7-.3-1.3-.8-1.8-.5-.4-1-.6-1.7-.6h-2.8V17h.2v-.2Zm7-8.4 1.2-1.3h.8l1.1 1.3h-1l-.4-.6h-.1l-.6.6h-1Zm3.8 1.6h-3.4v2.4h3.1v1h-3.1V16h3.4v1h-4.4V9.2h4.4v1Z" fill="#fff"/>
  <path d="M138.5 8.6h.1l1-1.1h.8l1 1.1h.1v-.1h-.9l-.4-.6h-.3l-.5.6h-1v.3h1l.6-.7V8l.5.7h1.2v-.2l-1.2-1.3h-1l-1.1 1.3v.3-.2Zm3.7 1.6v-.1h-3.6v2.7h3.2v.6h-3.2v2.7h3.5v.7H138V9.4h4.2v.8h.3v-1h-4.8V17h4.8v-1.2H139v-2.2h3.1v-1.2H139v-2.1h3.5v-.2h-.2Zm1.5 6.7V9.3h1.2l3.7 6v-6h1v7.6h-1l-4-6.2V17h-1Z" fill="#fff"/>
  <path d="M143.7 17h.1V9.3h1l3.7 6h.3v-6h.6v7.4h-.8l-3.9-6.2h-.2v6.3h-.8v.3h1v-6.4.1-.1h-.2l4 6.4h1.2V9h-1.3v6.1h.2V15v.1l-3.7-6h-1.4V17h.2v-.2Z" fill="#fff"/>
</svg>
