<svg width="180" height="54" fill="none" xmlns="http://www.w3.org/2000/svg">
  <path d="M173.33 54H6.67A6.73 6.73 0 0 1 0 47.25V6.75C0 3.04 3 0 6.67 0h166.66A6.73 6.73 0 0 1 180 6.75v40.5c0 3.71-3 6.75-6.67 6.75Z" fill="#000"/>
  <path d="m27.63 26.22-14.2 15.26a3.84 3.84 0 0 0 5.65 2.35l.05-.03 15.97-9.33-7.48-8.25Z" fill="#EA4335"/>
  <path d="m41.98 23.63-.01-.02-6.9-4.05-7.77 7 7.8 7.9 6.86-4a3.89 3.89 0 0 0 2.02-3.43c0-1.47-.8-2.75-2-3.4Z" fill="#FBBC04"/>
  <path d="M13.43 12.52a3.7 3.7 0 0 0-.13 1v26.96c0 .35.04.68.13 1L28.1 26.62l-14.68-14.1Z" fill="#4285F4"/>
  <path d="m27.73 27 7.34-7.44-15.96-9.37a3.85 3.85 0 0 0-5.69 2.33L27.73 27Z" fill="#34A853"/>
  <path d="M142.58 40h2.49V23.33h-2.49V40ZM165 29.34l-2.85 7.22h-.09l-2.96-7.22h-2.68l4.44 10.1-2.53 5.61h2.6l6.84-15.71H165Zm-14.1 8.77c-.82 0-1.96-.41-1.96-1.42 0-1.29 1.41-1.78 2.64-1.78 1.1 0 1.6.24 2.27.56a3.02 3.02 0 0 1-2.96 2.64Zm.3-9.14c-1.81 0-3.68.8-4.45 2.55l2.21.93c.47-.93 1.35-1.23 2.27-1.23 1.3 0 2.6.78 2.62 2.15v.17a5.5 5.5 0 0 0-2.6-.64c-2.38 0-4.8 1.3-4.8 3.75 0 2.23 1.95 3.67 4.14 3.67a3.5 3.5 0 0 0 3.17-1.63h.09v1.28h2.4v-6.39c0-2.96-2.2-4.6-5.06-4.6Zm-15.38 2.4h-3.54v-5.72h3.53a2.89 2.89 0 0 1 2.92 2.86 2.9 2.9 0 0 1-2.91 2.86Zm-.07-8.04h-5.96V40h2.49v-6.32h3.47c2.76 0 5.47-2 5.47-5.17 0-3.18-2.71-5.18-5.47-5.18Zm-32.5 14.78c-1.72 0-3.16-1.44-3.16-3.42 0-2 1.44-3.45 3.15-3.45 1.7 0 3.03 1.46 3.03 3.45 0 1.98-1.33 3.42-3.03 3.42Zm2.85-7.84h-.1a3.93 3.93 0 0 0-2.98-1.27 5.64 5.64 0 0 0-5.44 5.7c0 3.17 2.6 5.64 5.44 5.64 1.35 0 2.43-.6 2.98-1.28h.09v.81c0 2.17-1.16 3.33-3.03 3.33a3.14 3.14 0 0 1-2.86-2.02l-2.17.9a5.4 5.4 0 0 0 5.03 3.35c2.92 0 5.4-1.71 5.4-5.9V29.35h-2.37v.92Zm4.08 9.73h2.5V23.33h-2.5V40Zm6.17-5.5a3.11 3.11 0 0 1 2.96-3.3c.99 0 1.83.49 2.1 1.2l-5.06 2.1Zm7.73-1.89c-.47-1.27-1.91-3.6-4.85-3.6-2.93 0-5.35 2.29-5.35 5.66 0 3.18 2.4 5.67 5.62 5.67 2.6 0 4.1-1.59 4.73-2.5l-1.93-1.3a3.24 3.24 0 0 1-2.8 1.57 2.89 2.89 0 0 1-2.75-1.72l7.59-3.13-.26-.65Zm-60.41-1.87v2.4h5.76a5.02 5.02 0 0 1-1.32 3.04 5.9 5.9 0 0 1-4.44 1.76 6.32 6.32 0 0 1-6.32-6.4A6.32 6.32 0 0 1 68 26.85l1.7-1.7a8.4 8.4 0 0 0-6.04-2.42 8.93 8.93 0 0 0-8.94 8.8 8.93 8.93 0 0 0 8.94 8.81c2.62 0 4.6-.86 6.14-2.47 1.6-1.59 2.09-3.82 2.09-5.62a7.8 7.8 0 0 0-.13-1.5h-8.1Zm14.77 7.37c-1.72 0-3.2-1.42-3.2-3.44 0-2.04 1.48-3.43 3.2-3.43 1.72 0 3.2 1.4 3.2 3.43 0 2.02-1.48 3.44-3.2 3.44Zm0-9.1a5.59 5.59 0 0 0-5.7 5.66 5.6 5.6 0 0 0 5.7 5.67 5.6 5.6 0 0 0 5.7-5.67 5.59 5.59 0 0 0-5.7-5.67Zm12.42 9.1c-1.72 0-3.2-1.42-3.2-3.44 0-2.04 1.48-3.43 3.2-3.43 1.72 0 3.2 1.4 3.2 3.43 0 2.02-1.48 3.44-3.2 3.44Zm0-9.1a5.59 5.59 0 0 0-5.7 5.66 5.6 5.6 0 0 0 5.7 5.67 5.6 5.6 0 0 0 5.69-5.67 5.59 5.59 0 0 0-5.7-5.67ZM59.58 10.08v1.73l.13-.15c1.16.56 2.68 1.43 3.45 2.02l-.5.65a22.28 22.28 0 0 0-3.08-1.94v5.12h-.76v-7.43H55.1v-.72h8.59v.72h-4.1Z" fill="#fff"/>
  <path d="M59.58 10.08h-.13v2.09l.36-.42-.1-.09-.06.12c1.15.55 2.68 1.43 3.43 2l.08-.1-.1-.09-.5.66.1.08.08-.1a22.28 22.28 0 0 0-3.1-1.96l-.19-.1v5.2h-.5V9.94h-3.72V9.5h8.33v.45h-4.1v.14h.12v.13h4.24v-.99h-8.85v1h3.71v7.42h1.04V12.4h-.14l-.06.12c1.1.59 2.4 1.39 3.05 1.92l.1.09.68-.87-.1-.08a24.1 24.1 0 0 0-3.48-2.03l-.1-.04-.19.22.1.09h.14v-1.73h-.14Zm13 .38c-.23-.36-.74-.9-1.18-1.28l.51-.33c.44.34.98.87 1.2 1.23l-.53.38Zm-2.64 5.57c-.58.07-1.17.13-1.75.18v1.28h-.68v-1.22l-2.52.27-.08-.68c.7-.04 1.6-.12 2.6-.21v-.96h-1.27c-.4 0-.69.06-.77.13a4.31 4.31 0 0 0-.23-.66c.15-.03.3-.22.45-.48.08-.12.2-.38.37-.7h-1.1v-.6h1.36c.14-.3.26-.62.36-.94l.71.2c-.1.25-.2.5-.32.74h2.86v.6h-3.14c-.2.38-.42.76-.62 1.09h1.34v-.8h.68v.8h1.54v.62h-1.54v.9l1.75-.16v.6Zm3.1-3.93c-.34 1.2-.83 2.34-1.47 3.34.28.83.64 1.3 1.05 1.3.25 0 .34-.42.4-1.56.15.17.4.3.57.37-.12 1.45-.35 1.89-1.02 1.89-.64 0-1.11-.49-1.47-1.31a8.4 8.4 0 0 1-1.4 1.42 2.79 2.79 0 0 0-.5-.5 6.76 6.76 0 0 0 1.62-1.7 19.2 19.2 0 0 1-.56-3.93h-5.44v-.58h2.34V10H65.3v-.58h1.85v-.78h.69v.78h1.71V10h-1.71v.83h2.38c-.04-.7-.06-1.43-.06-2.17h.71c0 .76 0 1.48.03 2.17h2.56v.58h-2.52c.07 1.2.2 2.27.38 3.12.45-.8.82-1.71 1.06-2.62l.65.18Z" fill="#fff"/>
  <path d="m72.58 10.46.1-.07a7.1 7.1 0 0 0-1.2-1.3l-.08.1.07.1.52-.33-.08-.1-.08.1c.43.33.96.85 1.17 1.19l.11-.07-.08-.11-.53.38.08.1.07.12.54-.38.1-.08-.07-.1A6 6 0 0 0 72 8.75l-.08-.06-.74.48.13.11c.43.38.94.91 1.15 1.25l.08.12.11-.08-.07-.11Zm-2.64 5.57-.02-.13-1.74.18-.12.01v1.26h-.42v-1.23l-.14.02-2.52.26.01.14.13-.02-.08-.67-.13.01.01.14 2.6-.22h.12v-1.23h-1.4c-.2 0-.38.02-.53.04a.71.71 0 0 0-.33.13l.09.1.12-.03a4.38 4.38 0 0 0-.23-.69l-.12.06.03.13c.24-.06.37-.28.53-.55l-.11-.06.11.07c.09-.13.21-.4.38-.71l.1-.2h-1.19v-.32h1.32l.03-.08c.14-.3.27-.63.37-.96l-.13-.04-.03.13.7.2.04-.14-.12-.04c-.1.25-.2.5-.32.73l-.1.2h2.95v.32h-3.1l-.03.07c-.2.39-.41.77-.62 1.08l-.13.2h1.72v-.78h.42v.79h1.53v.35h-1.53v1.19l.14-.02c.58-.04 1.18-.1 1.75-.16l-.01-.13h-.13v.6h.26v-.75l-.14.01-1.75.17v.13h.14v-.77h1.54v-.89h-1.54v-.79h-.94v.8h-1.21v.13l.1.07c.22-.33.43-.71.64-1.1l-.12-.07v.14h3.27v-.86h-2.99v.13l.12.06c.12-.25.23-.5.33-.76l.05-.14-.98-.26-.04.12c-.1.31-.22.63-.35.93l.12.05v-.13h-1.5v.86h1.24v-.14l-.12-.06-.36.7c-.15.26-.31.42-.36.42l-.18.04.08.15c.08.15.18.5.22.64l.05.2.16-.14s.09-.04.21-.06c.13-.03.3-.04.48-.04h1.14v.83h.13l-.01-.13-2.6.21-.14.01.1.81.01.13.13-.01 2.52-.27-.01-.13h-.13v1.35h.94v-1.4h-.13l.01.13 1.76-.19.11-.01v-.12h-.13Zm3.1-3.93-.13-.04a12.63 12.63 0 0 1-1.45 3.3l-.03.06.02.06c.14.42.3.76.49 1s.42.4.68.4l.27-.14c.17-.24.22-.69.27-1.55h-.14l-.1.08c.17.2.43.33.62.4l.05-.12h-.14a3.96 3.96 0 0 1-.28 1.43c-.15.25-.3.32-.6.33-.56 0-1-.43-1.35-1.24l-.09-.2-.14.17c-.41.53-.87 1-1.38 1.4l.09.1.1-.07a2.9 2.9 0 0 0-.53-.53l-.08.11.08.1a6.9 6.9 0 0 0 1.66-1.72l.04-.05-.02-.06a19.13 19.13 0 0 1-.56-3.9v-.13h-5.44v-.32h2.34v-1.1h-1.85v-.31h1.85v-.78h.43v.78h1.7v.32h-1.7v1.09h2.65v-.14c-.04-.69-.06-1.43-.06-2.16h-.14v.13h.71v-.13h-.13a47.15 47.15 0 0 0 .03 2.17v.13h2.56v.32H70.8v.14c.08 1.2.21 2.27.39 3.14l.07.35.18-.31c.45-.82.82-1.74 1.07-2.66l-.13-.03-.04.12.66.19.03-.13.04-.13-.78-.22-.04.13c-.24.9-.6 1.8-1.05 2.6l.12.06.13-.03c-.17-.84-.3-1.9-.38-3.1h-.13v.14h2.65v-.85H70.9v.14l.14-.01a36.96 36.96 0 0 1-.03-2.16v-.14h-.98v.14c0 .74.02 1.48.06 2.17h.13v-.14h-2.25v-.56h1.71V9.3H68v-.78h-.96v.78h-1.85v.85h1.85v.56h-2.35v.85h5.58v-.13h-.13c.09 1.55.27 2.92.57 3.97l.12-.03-.1-.08c-.46.66-1 1.23-1.6 1.66l-.16.1.15.12c.16.11.37.32.48.47l.08.1.1-.08c.53-.41 1-.9 1.43-1.44l-.1-.08-.12.05c.36.84.87 1.4 1.59 1.4.36 0 .66-.15.83-.48.18-.32.26-.8.32-1.54v-.1l-.08-.03c-.16-.06-.4-.2-.52-.34l-.21-.24-.02.33a6.9 6.9 0 0 1-.13 1.18l-.08.21-.06.04c-.15 0-.3-.09-.47-.3a2.8 2.8 0 0 1-.45-.92l-.13.05.12.07c.64-1 1.14-2.17 1.48-3.37l.04-.13-.13-.04-.04.13Zm6.69 2.7c-.14-.9-.49-2.27-.81-3.32l.65-.18c.33 1.04.7 2.4.84 3.3l-.68.2Zm-1.86.54c-.19-.9-.65-2.28-1.05-3.32l.62-.25c.43 1.05.9 2.4 1.1 3.3l-.67.27Zm5.63 1.04v.69h-7.2v-.7h3.84a17.72 17.72 0 0 0 2.05-5.13l.76.28a22.03 22.03 0 0 1-2.07 4.86h2.62Zm-7.33-5.8v1.95c0 1.46-.13 3.62-.92 5.07a2.52 2.52 0 0 0-.6-.4c.73-1.38.8-3.3.8-4.67V9.88h3.86a11.3 11.3 0 0 0-.52-1.14l.7-.17c.25.42.5.97.64 1.31h3.24v.7h-7.2Z" fill="#fff"/>
  <path d="m79.73 14.8.13-.03c-.14-.9-.49-2.27-.81-3.33l-.13.04.03.13.66-.18-.04-.13-.13.04a26 26 0 0 1 .84 3.28l.13-.02-.04-.13-.68.2.04.12.03.13.68-.2.12-.02-.02-.12c-.15-.92-.5-2.27-.84-3.32l-.04-.12-.78.2-.13.04.04.14c.32 1.04.67 2.41.8 3.3l.03.14.14-.04-.03-.13Zm-1.86.54.13-.03c-.19-.9-.66-2.29-1.06-3.34l-.12.05.05.13.62-.26-.05-.12-.12.05c.42 1.04.89 2.4 1.09 3.28l.13-.03-.05-.13-.67.28.05.12.05.12.67-.27.1-.04-.02-.11a23.8 23.8 0 0 0-1.1-3.32l-.06-.12-.74.3-.12.05.04.12c.4 1.04.87 2.42 1.05 3.3l.03.15.15-.06-.05-.12Zm5.63 1.04h-.13v.56h-6.94v-.43h3.78l.04-.06a18.3 18.3 0 0 0 2.07-5.18l-.13-.03-.05.13.76.27.05-.12-.13-.04a21.83 21.83 0 0 1-2.06 4.83l-.12.2h2.86v-.26h-2.62v.13l.11.07a21.6 21.6 0 0 0 2.08-4.9l.04-.12-1.02-.36-.03.15a17.65 17.65 0 0 1-2.04 5.09l.12.07v-.13h-3.98v.95h7.47v-.95h-.13v.13Zm-7.33-5.8h-.14v1.95c0 1.45-.13 3.6-.9 5l.12.07.1-.1a2.6 2.6 0 0 0-.66-.43l-.05.13.12.06c.76-1.42.82-3.36.82-4.73v-2.51h3.92l-.07-.18c-.13-.35-.33-.8-.52-1.16l-.12.06.04.13.7-.17-.04-.13-.11.07c.24.4.5.96.62 1.29l.03.09h3.21v.42h-7.2v.13h.13v.14h7.34v-.96h-3.38v.13l.12-.04c-.13-.35-.4-.91-.64-1.34l-.05-.08-.96.24.08.15c.18.34.38.79.5 1.12l.13-.05v-.13h-4v2.78c0 1.36-.07 3.26-.79 4.6l-.07.13.14.06c.13.05.48.27.57.37l.12.13.1-.16c.8-1.5.92-3.66.92-5.13v-1.96h-.13Zm16.07 3.29v-1.61h-2.62v1.61h2.62Zm0-3.85h-2.62v1.56h2.62v-1.56Zm-5.66 0v1.56h2.32v-1.56h-2.32Zm2.32 3.85v-1.61h-2.32v.57c0 .32-.01.68-.04 1.04h2.36Zm4.05 2.67c0 .47-.13.69-.44.81-.33.12-.9.13-1.81.12-.03-.2-.15-.5-.24-.7.68.03 1.34.02 1.51.02.2-.01.27-.07.27-.25v-1.98h-2.62v2.87h-.72v-2.87h-2.43a5.59 5.59 0 0 1-1.22 3.02c-.1-.15-.4-.4-.55-.48 1.07-1.2 1.17-2.92 1.17-4.27v-3.5h7.08v7.21Z" fill="#fff"/>
  <path d="M92.24 13.87h.13v-1.75h-2.88V14h2.88v-.13h-.13v-.13h-2.49v-1.35h2.35v1.48h.14Zm0-3.85v-.13h-2.75v1.82h2.88V9.89h-.13v.13h-.14v1.42h-2.35v-1.29h2.49v-.13Zm-5.66 0h-.14v1.69h2.6V9.89h-2.6v.13h.14v.13h2.19v1.3H86.7v-1.43h-.13Zm2.32 3.85h.13v-1.75h-2.59v.71c0 .32 0 .67-.04 1.03V14h2.63v-.13h-.13v-.13h-2.36v.13l.13.01c.03-.36.04-.73.04-1.05v-.44h2.06v1.48h.13Zm4.05 2.67h-.14c-.01.46-.09.57-.35.69l.05.12-.05-.12c-.23.08-.66.1-1.31.1h-.45v.14l.13-.02a2.95 2.95 0 0 0-.25-.74l-.12.06-.01.13c.41.02.81.02 1.1.02h.42l.3-.1.1-.28v-2.11h-2.88v2.87h-.46v-2.87h-2.68l-.01.11a5.45 5.45 0 0 1-1.19 2.95l.1.09.11-.08a2.47 2.47 0 0 0-.6-.52l-.06.12.1.09c1.1-1.26 1.2-3 1.2-4.36V9.46h6.81v7.08h.27V9.2h-7.35v3.63c0 1.35-.1 3.02-1.13 4.18l-.11.12.14.09c.13.07.43.32.52.43l.1.14.1-.13a5.67 5.67 0 0 0 1.25-3.08l-.13-.02v.13h2.3v2.87h.98V14.7h2.35v1.85l-.01.09-.12.02v.14-.14h-.41c-.3 0-.7 0-1.1-.02h-.23l.1.2c.1.18.21.5.24.66l.01.11h.57c.66 0 1.1-.02 1.4-.12.37-.14.54-.45.53-.94h-.13Zm2.05.76c.75-.3 1.17-.76 1.22-1.43l-.16.01c-.4 0-.73-.23-.73-.69 0-.45.34-.7.74-.7.53 0 .82.44.82 1.12 0 1.05-.66 1.85-1.68 2.2l-.21-.5Z" fill="#fff"/>
  <path d="m95 17.3.05.13c.77-.32 1.26-.83 1.3-1.55l.02-.15-.32.02v.13-.13c-.34-.01-.58-.18-.59-.56 0-.38.26-.56.6-.56.24 0 .4.08.51.24.12.17.2.42.2.74-.01 1-.62 1.73-1.6 2.08l.04.13.13-.05-.22-.52-.12.05-.13.05.22.52.05.12.12-.05c1.06-.37 1.77-1.22 1.77-2.33 0-.36-.08-.66-.24-.9a.86.86 0 0 0-.72-.35.91.91 0 0 0-.6.21.8.8 0 0 0-.28.62c0 .26.1.48.27.62.16.14.37.2.6.2h.17v-.14h-.14c-.05.6-.42 1-1.14 1.31l-.13.05.05.12.13-.05Zm13.3-1.8v-.8h-3.03v.8h3.03Zm-3.03-2.05v.75h3.03v-.75h-3.03Zm3.72 3.26c0 .37-.08.55-.34.66-.28.1-.71.12-1.4.1a2.77 2.77 0 0 0-.22-.61c.5.02.97.02 1.08 0 .15 0 .19-.03.19-.16v-.68h-3.03v1.5h-.69v-4.63H109v3.82Zm.76-4.93v.55h-5.86v-.55h2.53v-.68h-2v-.53h2v-.6h-2.23V9.4h2.23v-.76h.71v.76h2.34v.55h-2.34v.61h2.05v.53h-2.05v.68h2.62Zm-6.78-.98a12.3 12.3 0 0 0-1.44-1.5l.47-.43c.5.43 1.16 1.03 1.47 1.42l-.5.5Zm1.07 4.29a3 3 0 0 0 .25.6 15.51 15.51 0 0 0-2.02 1.65 2.88 2.88 0 0 0-.38-.61c.19-.1.46-.4.46-.83v-3.53h-1.45v-.69h2.15v4.14l1-.73Z" fill="#fff"/>
  <path d="M108.3 15.5h.13v-.93h-3.3v1.06h3.3v-.14h-.13v-.13h-2.9v-.52h2.77v.65h.13Zm-3.03-2.05h-.14v.88h3.3v-1.01h-3.3v.13h.14v.14h2.9v.48h-2.77v-.62h-.13Zm3.72 3.26h-.13a.8.8 0 0 1-.06.37l-.2.17.05.12-.05-.12c-.2.07-.51.1-1 .1h-.35v.13l.13-.02a2.9 2.9 0 0 0-.22-.66l-.13.06v.13a20.41 20.41 0 0 0 1.1 0l-.02-.12V17l.24-.07.08-.23v-.81h-3.3v1.5h-.41v-4.37h4.14v3.69h.26v-3.96h-4.67v4.9h.95v-1.5h2.77v.59l.01.01-.01-.01.01.01-.01-.01.03.02-.02-.03h-.01l.03.03-.02-.03h-1.14l-.22-.02.1.2c.08.18.17.44.2.59l.02.1.1.01h.37c.49 0 .82-.02 1.09-.11a.6.6 0 0 0 .34-.3c.06-.14.08-.3.08-.5H109Zm.76-4.93h-.14v.42h-5.58v-.29h2.53v-.94h-2v-.26h2v-.88h-2.24v-.29h2.24v-.76h.44v.76h2.33v.29H107v.88h2.04v.26H107v.94h2.75v-.26h-2.48v-.42h2.04v-.79h-2.04v-.35h2.33v-.82h-2.33v-.76h-.98v.76h-2.24v.82h2.24v.35h-2v.8h2v.4h-2.53v.83h6.12v-.82h-.13v.13Zm-6.78-.98.1-.08a11.2 11.2 0 0 0-1.45-1.52l-.09.1.1.1.46-.43-.1-.1-.08.1c.5.43 1.16 1.03 1.45 1.4l.1-.08-.09-.1-.5.51.1.1.1.09.57-.59-.07-.09c-.32-.4-.98-1-1.49-1.44l-.09-.08-.66.61.11.1c.5.45 1.14 1.08 1.42 1.47l.1.13.1-.11-.09-.1Zm1.07 4.29-.13.03a3 3 0 0 0 .27.64l.11-.07-.08-.1c-1.62 1.25-1.88 1.46-2.04 1.67l.1.08.12-.05a3.03 3.03 0 0 0-.4-.65l-.1.09.07.11c.22-.12.52-.45.52-.94v-3.66h-1.45v-.42h1.89v4.27l1.2-.9-.08-.1-.08-.11-.78.58v-4.01h-2.42v.96h1.45v3.4c0 .36-.24.62-.39.7l-.14.08.11.13c.11.12.3.43.36.57l.08.21.14-.18c.13-.15.38-.37 2-1.63l.1-.07-.06-.1c-.07-.12-.2-.4-.24-.57l-.05-.2-.16.13.08.1Zm15.36-6.18v7.63c0 .5-.12.72-.44.85-.32.12-.9.13-1.68.13a4.2 4.2 0 0 0-.24-.75c.63.03 1.24.02 1.42.02.18-.01.24-.06.24-.25V8.91h.7Zm-2.3 6.24h-.69V9.81h.7v5.34Zm-2.47-4.72a10.7 10.7 0 0 1 1.54 2.17l-.56.34-.33-.6-4.2.25-.06-.7.88-.03c.26-.58.54-1.33.72-1.94h-1.59v-.64H116v.64h-2.57c-.25.61-.53 1.33-.8 1.9l2.24-.09c-.25-.35-.52-.7-.77-1l.53-.3Zm1.38 5.43.02.66-4.98.7-.12-.71 2.24-.28v-1.7h-1.85v-.66h1.86v-1.16h.7v1.16h1.82v.66h-1.83v1.62l2.14-.29Z" fill="#fff"/>
  <path d="M119.4 8.91h-.14v7.63c0 .24-.02.4-.08.5-.05.1-.13.17-.27.23l.05.12-.04-.12a6 6 0 0 1-1.64.11v.14l.13-.03c-.04-.2-.15-.55-.25-.78l-.12.06-.01.13c.38.02.76.02 1.03.02h.41l.27-.1.1-.28v-7.5h.56v-.26h-.83v7.76l-.01.08v.02h-.02l-.08.01v.14-.14h-.4c-.27 0-.64 0-1.02-.02h-.22l.1.2c.08.2.2.53.23.71l.02.11h.1c.8 0 1.37 0 1.74-.13a.73.73 0 0 0 .4-.35c.1-.17.12-.37.12-.63V8.78h-.13v.13Zm-2.3 6.24v-.13h-.55V9.94h.42v5.21h.27V9.67h-.96v5.62h.96v-.14h-.14Zm-2.47-4.72-.1.09a11.1 11.1 0 0 1 1.52 2.13l.12-.05-.07-.12-.56.34.07.12.11-.06a9 9 0 0 0-.33-.62l-.04-.07-.08.01-4.2.25v.14l.14-.01-.05-.56.75-.03h.08l.03-.08c.27-.58.54-1.33.73-1.95l.05-.17h-1.63V9.4h4.7v.38h-2.53l-.03.08c-.25.62-.53 1.33-.8 1.9l-.1.2h.23l2.23-.1.24-.02-.13-.2c-.25-.35-.52-.7-.78-1l-.1.08.07.12.53-.3-.07-.12-.06-.12-.68.38.1.12c.26.3.53.65.77 1l.1-.08v-.13l-2.23.1v.13l.12.06c.28-.59.56-1.3.8-1.92l-.12-.05v.14h2.7v-.91h-5.23v.9h1.72v-.13l-.13-.04c-.18.61-.45 1.36-.71 1.92l.12.06v-.14l-1.03.05.07.83.01.13.13-.01 4.2-.25v-.14l-.12.07c.14.22.24.42.33.6l.06.12.8-.47-.06-.1c-.28-.63-.97-1.53-1.56-2.21l-.07-.08-.1.05.07.12Zm1.38 5.43h-.13l.02.66h.13l-.02-.14c-1.8.27-3.7.53-4.98.71l.02.14.13-.03-.12-.72-.13.03.01.13 2.25-.27.12-.02V14.4h-1.86V14h1.86v-1.15h.43V14h1.83v.4h-1.83v1.9l2.3-.3-.03-.14-.01-.13-2 .26v-1.33h1.84v-.92H114v-1.16h-.97v1.16h-1.86v.92h1.86v1.57h.13l-.01-.13-2.25.27-.13.02.16.99.13-.02 4.98-.71.12-.02-.02-.77v-.15l-.15.02.01.13Z" fill="#fff"/>
</svg>
