<svg id="artwork" xmlns="http://www.w3.org/2000/svg" version="1.1" viewBox="0 0 239 70.9">
  <defs>
    <style>
      .st1{isolation:isolate}.st5{fill:#fff}
    </style>
  </defs>
  <rect width="239" height="70.8" rx="8.8" ry="8.8"/>
  <path class="st5" d="M120.6 38.5c-4.1 0-7.5 3.2-7.5 7.6s3.4 7.5 7.5 7.5 7.6-3.2 7.6-7.6-3.4-7.5-7.6-7.5Zm0 12.1c-2.3 0-4.2-1.9-4.2-4.6s2-4.5 4.2-4.5 4.3 1.8 4.3 4.5-2 4.6-4.3 4.6Zm-16.5-12c-4.1 0-7.5 3.1-7.5 7.4s3.4 7.6 7.5 7.6 7.6-3.2 7.6-7.6-3.4-7.5-7.6-7.5Zm0 12c-2.3 0-4.2-1.9-4.2-4.6s2-4.5 4.2-4.5 4.3 1.8 4.3 4.5-2 4.6-4.3 4.6Zm-19.6-9.8V44h7.7a6.7 6.7 0 0 1-1.8 4 7.8 7.8 0 0 1-5.9 2.4 8.4 8.4 0 0 1-8.4-8.5 8.4 8.4 0 0 1 14.2-6.2l2.2-2.3a11.1 11.1 0 0 0-8-3.2c-6.4 0-11.8 5.3-11.8 11.7S78 53.6 84.5 53.6c3.5 0 6.1-1.1 8.2-3.3 2-2 2.7-5 2.7-7.4l-.1-2H84.5Zm80.2 2.5c-.6-1.6-2.5-4.8-6.4-4.8s-7.1 3-7.1 7.6c0 4.2 3.2 7.5 7.4 7.5 3.5 0 5.5-2.1 6.3-3.4l-2.6-1.7c-.8 1.3-2 2.1-3.7 2.1s-2.8-.8-3.6-2.3l10-4.1-.3-.9Zm-10.3 2.5c0-2.9 2.3-4.3 4-4.3 1.3 0 2.4.6 2.8 1.5l-6.8 2.8Zm-8.1 7.3h3.3V31h-3.3v22.1Zm-5.5-12.9a5.2 5.2 0 0 0-4-1.7c-3.8 0-7.2 3.3-7.2 7.6s3.4 7.5 7.2 7.5a5 5 0 0 0 4-1.7v1c0 3-1.5 4.5-4 4.5-2 0-3.2-1.5-3.8-2.7l-2.9 1.2c.9 2 3 4.5 6.7 4.5 3.9 0 7.2-2.3 7.2-7.9V39h-3.2v1.2ZM137 50.6c-2.2 0-4.2-1.9-4.2-4.5s2-4.6 4.2-4.6 4 2 4 4.6-1.7 4.5-4 4.5ZM180.2 31h-7.9v22.1h3.3v-8.4h4.6c3.7 0 7.3-2.6 7.3-6.8s-3.6-6.9-7.3-6.9Zm0 10.7h-4.6V34h4.7a3.8 3.8 0 1 1 0 7.6Zm20.5-3.2c-2.4 0-4.9 1-5.9 3.4l3 1.2c.6-1.2 1.8-1.6 3-1.6 1.7 0 3.4 1 3.4 2.8v.3c-.6-.4-1.8-.9-3.4-.9-3.2 0-6.4 1.7-6.4 5 0 3 2.6 4.8 5.5 4.8 2.2 0 3.5-1 4.2-2.1h.1V53h3.2v-8.5c0-4-3-6.1-6.7-6.1Zm-.4 12.1c-1 0-2.6-.5-2.6-1.9 0-1.7 1.9-2.3 3.5-2.3 1.5 0 2.2.3 3 .7a4 4 0 0 1-3.9 3.5ZM219 39l-3.8 9.6-4-9.6h-3.6l6 13.4-3.4 7.4h3.4l9.1-20.8H219Zm-29.7 14h3.3V31h-3.3v22.1Z"/>
  <path d="m36.7 34.4-18.9 20a5 5 0 0 0 7.5 3l21.3-12.2-10-10.8Z" style="fill:#ea4335"/>
  <path d="m55.7 31-9.1-5.3-10.4 9.2 10.4 10.3 9.1-5.2c1.6-1 2.7-2.6 2.7-4.5s-1-3.6-2.7-4.5Z" style="fill:#fbbc04"/>
  <path d="m17.8 16.5-.2 1.3V53c0 .5 0 1 .2 1.3L37.3 35 17.8 16.5Z" style="fill:#4285f4"/>
  <path d="m36.8 35.4 9.8-9.7-21.2-12.3a5.1 5.1 0 0 0-7.6 3l19 19Z" style="fill:#34a853"/>
  <g class="st1">
    <path class="st5" d="M73.6 17.2h13.7v.6H73.6v-.6Zm1.4 6.6v-.5l-.2-.2c.2 0 .3 0 .5-.3l.6-.7.6-.7.9-1.1a21.8 21.8 0 0 0 1.8-3l.6.2a49.9 49.9 0 0 1-4.2 5.8l-.3.2h-.2v.2ZM74.8 13h11.3v.6H74.8V13Zm.2 10.7v-.5l.6-.3 9.5-.8v.3l.1.3-3.8.3-2.8.2-1.7.2-1 .1-.6.1-.3.1Zm5.1-13.4h.6v7h-.6v-7Zm2.1 8.8.5-.3a30.3 30.3 0 0 1 3.7 5l-.5.2c-.2-.4-.5-1-1-1.5s-.8-1.2-1.3-1.8l-1.4-1.6Z"/>
  </g>
  <g class="st1">
    <path class="st5" d="M89 12.3h13.3v.5H88.9v-.5Zm1 3h11v.6H90.5v8.5H90v-9Zm4 1 .5.3-.8 1-1 .9-1 .7v-.1l-.2-.2-.2-.1a11.7 11.7 0 0 0 2.7-2.4Zm-1.7-3 .5-.3.6 1 .4.8-.5.3a12.8 12.8 0 0 0-1-1.9Zm.6 5.7h.5v4.1H93v-4Zm.3 0h5v3.3h-5v-.5h4.5v-2.2h-4.5V19Zm1.7-8.4.5-.2.5 1 .3 1-.5.2a8 8 0 0 0-.4-1l-.4-1Zm1.8 6.1.4-.4 1.1.8a77.8 77.8 0 0 0 2 1.5l-.3.5-1-.7-1-.8-1.2-.8Zm1.7-3.6.7.2-.9 1.3-.8 1h-.5l.5-.9.6-.8.4-.9Zm2.3 2.2h.6V24l-.5.3h-2.5V24l-.2-.2h2.3l.3-.1v-8.3Z"/>
  </g>
  <g class="st1">
    <path class="st5" d="M105.3 12.5h.6v4a41.8 41.8 0 0 1-.3 4l-.5 2-.8 1.9-.2-.1-.1-.2h-.2l.8-1.9.4-1.9a17.2 17.2 0 0 0 .3-3.7v-4.1Zm.2 0h12v.5h-12v-.5Zm2.1 6.4h8.6v5.2h-.6v-4.6h-7.4v4.7h-.6V19Zm.4 4h8v.7h-8V23Zm2.5-12.2.5-.2.8 1 .5 1.1-.6.3c0-.3-.2-.7-.5-1l-.7-1.2Zm.7 3h.6v5.5h-.6v-5.6Zm.3 2h5.5v.6h-5.5v-.5Z"/>
  </g>
  <g class="st1">
    <path class="st5" d="M119.6 11.6h13.6v.6h-13.6v-.6Zm6.2.3h.6v12.5h-.6V11.9Zm.4 3.6.3-.4 1.6.8 1.5.8 1.5 1 1.1.7-.4.5-1.1-.8c-.4-.3-1-.5-1.4-.9s-1-.6-1.6-.9l-1.5-.8Z"/>
  </g>
  <g class="st1">
    <path class="st5" d="M135 14h13.6v.6h-13.7v-.5Zm.1 8 2.3-.1 2.7-.3 3-.3v.5l-2.9.3-2.7.3-2.3.3v-.6Zm0-5.6h8v.6h-8v-.6Zm.6-4.5h6.7v.5h-6.7v-.5Zm.4 8v-.2l-.2-.2v-.2l.3-.3c0-.2.2-.3.3-.5l.4-.8a18.3 18.3 0 0 0 1.2-3l.6.2a18.4 18.4 0 0 1-1.4 3.3l-.8 1.3-.2.1-.2.1v.2Zm0 0v-.6l.5-.2h6.1v.6h-6.2l-.4.2Zm2.8-9.5h.6v3.9h-.6v-3.9Zm.5 7.2h.6v6.7h-.6v-6.7Zm7.8-2.1.5.2a22.7 22.7 0 0 1-3 6.3 11 11 0 0 1-2.3 2.4l-.3-.2-.2-.2c.8-.6 1.6-1.4 2.2-2.3a17.7 17.7 0 0 0 3-6.2Zm-3.6-5h.6a76.1 76.1 0 0 0 .5 8l.7 2.8c.3.8.6 1.4 1 1.7.3.5.6.7 1 .7.3 0 .4-.3.5-.6l.3-2.1.2.2h.3l-.2 1.9c0 .4-.2.7-.4.9s-.4.3-.7.3c-.5 0-.9-.2-1.2-.5-.4-.3-.7-.8-1-1.4a20.7 20.7 0 0 1-1.2-4.9 44.3 44.3 0 0 1-.5-7Zm1.7.7.4-.3.8.6.7.6.5.6-.4.4-.9-1-1-.9Z"/>
  </g>
</svg>
