<svg width="180" height="54" fill="none" xmlns="http://www.w3.org/2000/svg">
  <path d="M173.3 54H6.7A6.7 6.7 0 0 1 0 47.2V6.8C0 3 3 0 6.7 0h166.6a6.7 6.7 0 0 1 6.7 6.8v40.5c0 3.7-3 6.7-6.7 6.7Z" fill="#000"/>
  <path d="M27.6 26.2 13.4 41.5a3.8 3.8 0 0 0 5.7 2.3l16-9.3-7.5-8.3Z" fill="#EA4335"/>
  <path d="m42 23.6-7-4-7.7 7 7.8 7.9 6.9-4a3.9 3.9 0 0 0 2-3.5 4 4 0 0 0-2-3.4Z" fill="#FBBC04"/>
  <path d="M13.4 12.5a3.7 3.7 0 0 0-.1 1v27l.1 1 14.7-14.9-14.7-14Z" fill="#4285F4"/>
  <path d="m27.7 27 7.4-7.4-16-9.4a3.9 3.9 0 0 0-5.7 2.3L27.7 27Z" fill="#34A853"/>
  <path d="M142.6 40h2.5V23.3h-2.5V40ZM165 29.3l-2.9 7.3-3-7.3h-2.7l4.5 10.1-2.6 5.7h2.6l6.9-15.8H165Zm-14.1 8.8c-.8 0-2-.4-2-1.4 0-1.3 1.4-1.8 2.7-1.8 1 0 1.6.2 2.2.6a3 3 0 0 1-3 2.6Zm.3-9.1c-1.8 0-3.7.8-4.4 2.5l2.2 1c.4-1 1.3-1.3 2.2-1.3 1.3 0 2.6.8 2.7 2.2v.1a5.5 5.5 0 0 0-2.6-.6c-2.4 0-4.8 1.3-4.8 3.8 0 2.2 1.9 3.6 4 3.6a3.5 3.5 0 0 0 3.3-1.6V40h2.5v-6.4c0-3-2.2-4.6-5.1-4.6Zm-15.4 2.4h-3.5v-5.8h3.5a2.9 2.9 0 0 1 3 3 2.9 2.9 0 0 1-3 2.8Zm0-8h-6V40h2.5v-6.3h3.5c2.7 0 5.4-2 5.4-5.2s-2.7-5.2-5.4-5.2ZM103.3 38c-1.8 0-3.2-1.4-3.2-3.4s1.4-3.5 3.1-3.5c1.7 0 3 1.5 3 3.5s-1.3 3.4-3 3.4Zm2.8-7.8h-.1a4 4 0 0 0-3-1.3 5.6 5.6 0 0 0-5.4 5.7c0 3.2 2.6 5.6 5.4 5.6a4 4 0 0 0 3-1.2v.8c0 2.1-1 3.3-3 3.3a3.1 3.1 0 0 1-2.8-2L98 42a5.4 5.4 0 0 0 5 3.3c3 0 5.5-1.7 5.5-5.9v-10H106v.9Zm4 9.7h2.6V23.3h-2.5V40Zm6.3-5.5a3.1 3.1 0 0 1 3-3.3c.9 0 1.7.5 2 1.2l-5 2.1Zm7.7-1.9c-.5-1.3-2-3.6-4.9-3.6-2.9 0-5.3 2.3-5.3 5.7 0 3.1 2.4 5.6 5.6 5.6 2.6 0 4.1-1.5 4.7-2.5l-1.9-1.3a3.2 3.2 0 0 1-2.8 1.6 2.9 2.9 0 0 1-2.7-1.7l7.5-3.1-.2-.7Zm-60.4-1.9V33h5.7a5 5 0 0 1-1.3 3 5.9 5.9 0 0 1-4.4 1.8 6.3 6.3 0 0 1-6.3-6.4A6.3 6.3 0 0 1 68 27l1.7-1.7a8.4 8.4 0 0 0-6-2.5 9 9 0 0 0-9 8.8 9 9 0 0 0 9 8.8 8 8 0 0 0 6.1-2.4c1.6-1.6 2-3.8 2-5.6a7.8 7.8 0 0 0 0-1.5h-8.1ZM78.4 38c-1.7 0-3.2-1.4-3.2-3.4s1.5-3.5 3.2-3.5c1.8 0 3.2 1.4 3.2 3.5 0 2-1.4 3.4-3.2 3.4Zm0-9a5.6 5.6 0 0 0-5.7 5.6 5.6 5.6 0 0 0 5.7 5.6 5.6 5.6 0 0 0 5.7-5.6 5.6 5.6 0 0 0-5.7-5.7ZM91 38c-1.8 0-3.2-1.4-3.2-3.4s1.4-3.5 3.2-3.5c1.7 0 3.2 1.4 3.2 3.5 0 2-1.5 3.4-3.2 3.4Zm0-9a5.6 5.6 0 0 0-5.7 5.6 5.6 5.6 0 0 0 5.7 5.6 5.6 5.6 0 0 0 5.7-5.6 5.6 5.6 0 0 0-5.7-5.7ZM59.6 10v1.7l.1-.1a19 19 0 0 1 3.5 2l-.5.6a22.3 22.3 0 0 0-3.1-2v5.2h-.8V10h-3.7v-.7h8.6v.7h-4.1Z" fill="#fff"/>
  <path d="M59.6 10h-.2v2.2l.4-.4v-.1h-.2a24 24 0 0 1 3.5 2v-.1l-.5.7h.1a22.3 22.3 0 0 0-3-2l-.3-.1v5.2H59V9.9h-3.7v-.4h8.4v.5h-4.1v.2h4.3v-1H55v1h3.7v7.5h1v-5.3h-.1v.1a26 26 0 0 1 3 2l.7-.8v-.1a24.1 24.1 0 0 0-3.5-2h-.1l-.2.1v.1h.2v-1.7h-.1Zm13 .5c-.2-.4-.8-1-1.2-1.3l.5-.3c.4.3 1 .8 1.2 1.2l-.5.4ZM69.9 16l-1.7.2v1.3h-.7v-1.2l-2.5.2V16l2.5-.2v-1h-1.3l-.7.1a4.3 4.3 0 0 0-.3-.6c.2 0 .3-.3.5-.5l.4-.7H65v-.6h1.3l.4-1 .7.2-.3.8h2.8v.6h-3.1l-.6 1h1.3v-.7h.7v.8h1.5v.6h-1.5v.9l1.7-.2v.6Zm3.1-3.9c-.3 1.2-.8 2.3-1.4 3.3.2.9.6 1.3 1 1.3.3 0 .4-.4.4-1.5l.6.4c-.1 1.4-.4 1.8-1 1.8-.7 0-1.1-.4-1.5-1.3a8.4 8.4 0 0 1-1.4 1.5 2.8 2.8 0 0 0-.5-.5 6.8 6.8 0 0 0 1.6-1.7 19.2 19.2 0 0 1-.5-4h-5.5v-.6h2.4V10h-1.9v-.6h1.9v-.8h.6v.8h1.7v.6h-1.7v.8h2.4V8.7h.7v2.1h2.6v.6h-2.6l.4 3.1c.5-.8.8-1.7 1-2.6l.7.2Z" fill="#fff"/>
  <path d="M72.6 10.5v-.1a7.1 7.1 0 0 0-1-1.4h-.1v.2L72 9v-.1h-.2l1.2 1.2h.1V10l-.6.3v.1l.1.2.6-.4V10A6 6 0 0 0 72 8.7l-.8.5h.1l1.2 1.3v.1h.2l-.1-.1ZM69.9 16l-1.7.2H68v1.3h-.5V16h-.1l-2.5.3v.1h.1V16h-.2v.1l2.6-.2h.1v-1.2h-1.4a4 4 0 0 0-.5 0 .7.7 0 0 0-.3.1v.1h.2a4.4 4.4 0 0 0-.2-.7h-.2v.2c.3 0 .4-.3.6-.6h-.1.1l.4-.7v-.2H65v-.3h1.3l.4-1h-.1l.7.3v-.2h-.1a8 8 0 0 1-.3.7l-.1.2h2.9v.3h-3.1v.1l-.6 1-.2.3h1.7v-.8h.5v.8h1.5v.4H68v1.1h.1l1.8-.1v-.2h-.2v.6h.3v-.7h-.2l-1.7.2h.1v-.7H70V14h-1.6v-.8h-1v.8h-1.1v.2l.7-1-.1-.1v.1H70v-.8h-3v.1l.4-.7v-.2l-1-.2v.1l-.3 1h.1v-.1h-1.5v.8H66V13h-.2l-.3.6-.4.4H65l.1.2.2.7v.2l.3-.2h1.8v.8h.1v-.2l-2.6.2h-.1v.9h.2l2.5-.2v-.1h-.1v1.3h1v-1.4h-.2v.2l1.8-.2V16Zm3.1-3.9a12.6 12.6 0 0 1-1.5 3.3c0 .5.2.8.4 1s.5.5.7.5l.3-.2c.2-.2.2-.6.3-1.5H73c0 .3.3.4.5.5v-.1a4 4 0 0 1-.3 1.4c-.2.2-.3.3-.6.3-.6 0-1-.4-1.4-1.2v-.2l-.2.1a8 8 0 0 1-1.4 1.4l.1.1h.1a2.9 2.9 0 0 0-.5-.6l-.1.2a6.9 6.9 0 0 0 1.7-1.7 19.1 19.1 0 0 1-.5-4v-.1h-5.5V11h2.4V9.9h-1.9v-.3h1.9v-.8h.4v.8h1.7v.3h-1.7v1h2.7V8.6h-.2v.1h.7v-.1h-.1a47.1 47.1 0 0 0 0 2.1v.2h2.5v.3h-2.5v.1c0 1.2.2 2.3.4 3.2v.3l.2-.3c.5-.8.9-1.7 1.1-2.6h-.1l.6.2V12l-.7-.2-1.1 2.7h.2c-.1-.8-.3-1.9-.3-3h-.2 2.7v-.8h-2.7v.1h.1a37 37 0 0 1 0-2.1v-.2h-1v2.3h.2v-.1H68v-.6h1.7v-.8H68v-.8h-1v.8h-1.8v.8H67v.6h-2.3v.9h5.6v-.2H70c.1 1.6.3 3 .6 4h.1v-.1c-.5.7-1 1.2-1.7 1.7l.1.2c.2 0 .4.3.5.4v.1h.2l1.4-1.5H71c.4.8.9 1.4 1.6 1.4.3 0 .6-.2.8-.5.2-.3.3-.8.3-1.5v-.1L73 15l-.2-.2v.3a6.9 6.9 0 0 1-.1 1.2l-.1.2c-.2 0-.4 0-.5-.3a2.8 2.8 0 0 1-.5-.9h-.1l.1.1c.6-1 1.1-2.1 1.5-3.3V12H73v.1Zm6.7 2.7a28 28 0 0 0-.8-3.3l.7-.2c.3 1 .7 2.4.8 3.3l-.7.2Zm-1.8.5-1-3.3.5-.2c.5 1 1 2.4 1.1 3.3l-.6.2Zm5.6 1v.8h-7.2v-.7h3.8a17.7 17.7 0 0 0 2-5.2l.8.3a22 22 0 0 1-2 4.9h2.6Zm-7.3-5.7v2c0 1.4-.2 3.5-1 5a2.5 2.5 0 0 0-.6-.4c.8-1.4.8-3.3.8-4.7V10h4a11.3 11.3 0 0 0-.6-1.2l.7-.1.6 1.3h3.3v.7h-7.2Z" fill="#fff"/>
  <path d="M79.7 14.8h.2c-.2-1-.5-2.3-.9-3.4v.2l.6-.2v-.1h-.2a26 26 0 0 1 .9 3.3h.1v-.1l-.7.2v.2l.7-.2h.2v-.1l-.9-3.3V11l-.8.2h-.2v.2c.4 1 .8 2.4.9 3.3v.2h.2v-.2Zm-1.8.5h.1L77 12h-.2v.2l.7-.3v-.1h-.2c.4 1 1 2.4 1.1 3.3h.1v-.2l-.7.3v.1l.1.2.7-.3V15a23.8 23.8 0 0 0-1-3.3v-.1l-.8.3h-.2v.2c.5 1 1 2.4 1.1 3.3v.1h.2v-.2Zm5.6 1h-.1v.6h-7v-.4h3.8a18.3 18.3 0 0 0 2.1-5.2h-.1l.7.3v-.1a21.8 21.8 0 0 1-2.1 4.8l-.2.2h2.9v-.2h-2.6v.1a21.6 21.6 0 0 0 2.2-4.8v-.2l-1-.3v.1a17.6 17.6 0 0 1-2 5.1h-4v.9h7.5v-1h-.1v.2Zm-7.3-5.7H76v2c0 1.4-.1 3.5-.9 5h.2v-.1a2.6 2.6 0 0 0-.6-.4v.1c.8-1.4.9-3.3.9-4.7V10h3.9v-.2l-.6-1.1h-.1V9l.7-.2v-.1h-.1L80 10v.1h3.2v.4H76v.2h.2v.1h7.3v-1h-3.4v.2h.2l-.7-1.4-1 .2v.1c.3.3.5.8.6 1.1h.1v-.2h-4v2.8c0 1.4 0 3.3-.8 4.6v.2l.7.4v.1l.2-.1c.8-1.5.9-3.7.9-5.2v-2h-.1Zm16 3.3v-1.6h-2.6v1.6h2.6Zm0-3.9h-2.6v1.6h2.6V10Zm-5.6 0v1.6h2.3V10h-2.3Zm2.3 3.9v-1.6h-2.3v1.5h2.3Zm4 2.6c0 .5 0 .7-.4.8-.3.2-.9.2-1.8.2l-.2-.7H92c.2 0 .2 0 .2-.3v-2h-2.6v3H89v-3h-2.4a5.6 5.6 0 0 1-1.3 3 2 2 0 0 0-.5-.4c1-1.2 1.2-3 1.2-4.3V9.3h7v7.2Z" fill="#fff"/>
  <path d="M92.2 13.9h.2V12h-3v2h3v-.1h-.2v-.2h-2.5v-1.3h2.4v1.5h.1Zm0-3.9h-2.7v1.8h2.9V10h-.2v.1h-.1v1.4h-2.4v-1.2h2.5V10Zm-5.6 0h-.2v1.7H89V10h-2.6v.1h.2v.2h2.2v1.3h-2.1V10h-.1Zm2.3 3.9h.1V12h-2.6v2H89v-.3h-2.4v.2h.2v-1.5h2v1.5h.2Zm4 2.6c-.1.5-.2.6-.4.7v.2-.2l-1.4.1h-.4v.2h.1a3 3 0 0 0-.2-.8h-.1v.2h1.8v-2.4h-2.8v2.8H89v-2.9h-2.7v.1a5.5 5.5 0 0 1-1.2 3h.3a2.5 2.5 0 0 0-.6-.5l-.1.1h.1c1.1-1.2 1.2-3 1.2-4.3V9.5h6.8v7h.3V9.2h-7.4v3.6c0 1.4 0 3-1.1 4.2l-.1.1.1.1c.2 0 .5.3.5.4l.1.2.1-.1a5.7 5.7 0 0 0 1.3-3.1h-.1 2.3v3h1v-2.9H92v2.1-.1h-1.8l.1.1.3.7v.1h.5l1.4-.1c.4-.2.6-.5.6-1h-.2Zm2.1.8c.7-.3 1.2-.8 1.2-1.4h-.1c-.4 0-.8-.2-.8-.7 0-.5.4-.7.8-.7.5 0 .8.4.8 1.1 0 1-.7 1.9-1.7 2.2l-.2-.5Z" fill="#fff"/>
  <path d="M95 17.3v.1c.8-.3 1.3-.8 1.3-1.5v-.2H96v.2-.2c-.3 0-.5-.1-.5-.5s.2-.6.6-.6c.2 0 .4.1.5.3l.2.7c0 1-.7 1.7-1.6 2v.2h.1l-.2-.6-.1.1h-.1l.2.6h.2c1-.3 1.7-1.2 1.7-2.3 0-.4 0-.7-.2-.9a.9.9 0 0 0-.7-.3 1 1 0 0 0-.6.2.8.8 0 0 0-.3.6c0 .2 0 .5.3.6l.6.2h.1-.1c0 .6-.4 1-1.1 1.3h-.2v.1h.2Zm13.3-1.8v-.8h-3v.8h3Zm-3-2v.7h3v-.8h-3Zm3.7 3.2c0 .4 0 .6-.4.7h-1.4a2.8 2.8 0 0 0-.2-.5h1.1c.2 0 .2 0 .2-.2V16h-3v1.5h-.7V13h4.4v3.8Zm.7-5v.6H104v-.5h2.5V11h-2v-.5h2V10h-2.2v-.6h2.2v-.8h.7v.8h2.4v.6H107v.6h2v.5h-2v.7h2.7Zm-6.7-.9a12.3 12.3 0 0 0-1.5-1.5l.5-.4 1.5 1.4-.5.5Zm1 4.3a3 3 0 0 0 .3.6 15.5 15.5 0 0 0-2 1.6 2.9 2.9 0 0 0-.4-.6c.2 0 .4-.4.4-.8v-3.5H101v-.7h2.1v4.1l1-.7Z" fill="#fff"/>
  <path d="M108.3 15.5h.1v-1h-3.3v1.1h3.3v-.1h-.1v-.1h-2.9v-.6h2.8v.7h.1Zm-3-2h-.2v.8h3.3v-1h-3.3v.1h.2v.2h2.9v.5h-2.8v-.6h-.1Zm3.7 3.2h-.1a.8.8 0 0 1-.1.4l-.2.2h-1.3v.2a2.9 2.9 0 0 0-.1-.7h-.2v.2a20.4 20.4 0 0 0 1.1 0v-.1.1h.3v-1.1h-3.3v1.5h-.4V13h4.2v3.7h.2v-4h-4.6v5h.9V16h2.8v.6h-1.4l.1.2.2.6v.1h.5l1.1-.1a.6.6 0 0 0 .3-.3l.1-.5h-.1Zm.7-5v.5H104v-.3h2.6v-1h-2v-.2h2v-.9h-2.3v-.3h2.3v-.7h.4v.7h2.3v.3H107v1h2v.2h-2v1h2.8v-.3h-2.5v-.5h2v-.8h-2v-.3h2.3v-.8h-2.3v-.8h-1v.8H104v.8h2.3v.3h-2v.8h2v.4h-2.5v.9h6v-.8Zm-6.7-.9a11.2 11.2 0 0 0-1.4-1.6v.2l.5-.4-.1-.1 1.4 1.5v-.2l-.5.5v.1h.2l.5-.5-1.5-1.5-.1-.1-.7.6.1.1c.5.5 1.2 1 1.5 1.5v.1l.2-.1-.1-.1Zm1 4.3a3 3 0 0 0 .2.7v-.2a14.3 14.3 0 0 0-2 1.7h.2a3 3 0 0 0-.4-.7l-.1.1v.1c.3 0 .6-.4.6-.9v-3.7H101v-.4h2v4.3l1.1-1-.1-.1-.8.6v-4h-2.4v1h1.4v3.3c0 .4-.2.6-.4.7h-.1v.2c.2.1.4.4.4.6l.1.2.2-.2c.1-.1.3-.4 2-1.6v-.2l-.2-.6v-.2l-.2.2Zm15.4-6.2v7.6c0 .5-.1.8-.4.9l-1.7.1a4.2 4.2 0 0 0-.3-.7h1.5c.1 0 .2 0 .2-.3V9h.7Zm-2.3 6.3h-.7V9.8h.7v5.3Zm-2.5-4.8a10.7 10.7 0 0 1 1.6 2.2l-.6.3-.3-.6-4.2.3v-.7h.8l.7-2H111v-.6h5v.6h-2.6l-.8 2 2.3-.2-.8-1 .5-.3ZM116 16v.6l-5 .7v-.7l2.2-.3v-1.7h-1.9V14h1.9v-1.2h.7V14h1.8v.6h-1.8v1.6l2.1-.2Z" fill="#fff"/>
  <path d="M119.4 9h-.1v7.5l-.1.5-.3.3a6 6 0 0 1-1.6 0v.2h.1l-.2-.8h-.2v.2h1.7l.1-.4V9h.6v-.2h-.8v7.8h-.1v.2-.2h-1.7l.1.2.2.7v.1h1.9a.7.7 0 0 0 .4-.4l.1-.7V8.8h-.1v.1Zm-2.3 6.2V15h-.5v-5h.4v5h.2V9.7h-1v5.6h1V15h-.1Zm-2.5-4.8v.1a11.1 11.1 0 0 1 1.5 2.1v-.1l-.6.3.1.1h.1a9 9 0 0 0-.3-.6v-.1h-.1l-4.2.2v.2h.1V12h.8l.8-2v-.2h-1.6v-.4h4.7v.4h-2.6l-.8 2v.2h.1l2.3-.1h.2l-.1-.3-.8-1-.1.1v.1l.6-.3-.1-.2-.7.4v.1l.9 1v-.2h-2.2v.2h.2l.8-1.8h-.2 2.7v-.9H111v1h1.7v-.2h-.1l-.7 1.9h.1-1v.9h.2l4.2-.2v-.2h-.1l.3.7v.1l.9-.5h-.1c-.3-.7-1-1.6-1.6-2.3h-.1v.1ZM116 16h-.1v.6h.1v-.1l-5 .7v.1h.2l-.1-.7h-.2v.1l2.3-.2h.1v-2h-1.8V14h1.8v-1.1h.4V14h1.9v.4h-1.9v1.9l2.3-.3v-.3l-2 .3v-1.3h1.8v-1H114v-1.1h-1v1.1h-1.8v1h1.8v1.5h.2v-.1l-2.3.3h-.1l.1 1h.2l5-.8v-.9h-.1v.2Z" fill="#fff"/>
</svg>
