<svg width="180" height="54" fill="none" xmlns="http://www.w3.org/2000/svg">
  <path d="M173.33 54H6.67A6.73 6.73 0 0 1 0 47.25V6.75C0 3.04 3 0 6.67 0h166.66A6.73 6.73 0 0 1 180 6.75v40.5c0 3.71-3 6.75-6.67 6.75Z" fill="#000"/>
  <path d="m27.63 26.22-14.2 15.26a3.84 3.84 0 0 0 5.65 2.35l.05-.03 15.97-9.33-7.48-8.25Z" fill="#EA4335"/>
  <path d="m41.98 23.63-.01-.02-6.9-4.05-7.77 7 7.8 7.9 6.86-4a3.89 3.89 0 0 0 2.02-3.43c0-1.47-.8-2.75-2-3.4Z" fill="#FBBC04"/>
  <path d="M13.43 12.52a3.7 3.7 0 0 0-.13 1v26.96c0 .35.04.68.13 1L28.1 26.62l-14.68-14.1Z" fill="#4285F4"/>
  <path d="m27.73 27 7.34-7.44-15.96-9.37a3.85 3.85 0 0 0-5.69 2.33L27.73 27Z" fill="#34A853"/>
  <path d="M142.58 40h2.49V23.33h-2.49V40ZM165 29.34l-2.85 7.22h-.09l-2.96-7.22h-2.68l4.44 10.1-2.53 5.61h2.6l6.84-15.71H165Zm-14.1 8.77c-.82 0-1.96-.41-1.96-1.42 0-1.29 1.41-1.78 2.64-1.78 1.1 0 1.6.24 2.27.56a3.02 3.02 0 0 1-2.96 2.64Zm.3-9.14c-1.81 0-3.68.8-4.45 2.55l2.21.93c.47-.93 1.35-1.23 2.27-1.23 1.3 0 2.6.78 2.62 2.15v.17a5.5 5.5 0 0 0-2.6-.64c-2.38 0-4.8 1.3-4.8 3.75 0 2.23 1.95 3.67 4.14 3.67a3.5 3.5 0 0 0 3.17-1.63h.09v1.28h2.4v-6.39c0-2.96-2.2-4.6-5.06-4.6Zm-15.38 2.4h-3.54v-5.72h3.53a2.89 2.89 0 0 1 2.92 2.86 2.9 2.9 0 0 1-2.91 2.86Zm-.07-8.04h-5.96V40h2.49v-6.31h3.47c2.76 0 5.47-2 5.47-5.18 0-3.18-2.71-5.18-5.47-5.18Zm-32.5 14.78c-1.72 0-3.16-1.44-3.16-3.42 0-2 1.44-3.45 3.15-3.45 1.7 0 3.03 1.46 3.03 3.45 0 1.98-1.33 3.42-3.03 3.42Zm2.85-7.84h-.1a3.93 3.93 0 0 0-2.98-1.27 5.64 5.64 0 0 0-5.44 5.7c0 3.17 2.6 5.64 5.44 5.64 1.35 0 2.43-.6 2.98-1.28h.09v.81c0 2.17-1.16 3.33-3.03 3.33a3.14 3.14 0 0 1-2.86-2.02l-2.17.9a5.4 5.4 0 0 0 5.03 3.36c2.92 0 5.4-1.72 5.4-5.91V29.35h-2.37v.92Zm4.08 9.73h2.5V23.33h-2.5V40Zm6.17-5.5a3.11 3.11 0 0 1 2.96-3.3c.99 0 1.83.49 2.1 1.2l-5.06 2.1Zm7.73-1.89c-.47-1.27-1.91-3.6-4.85-3.6-2.93 0-5.35 2.3-5.35 5.66 0 3.18 2.4 5.67 5.62 5.67 2.6 0 4.1-1.59 4.73-2.5l-1.93-1.3a3.24 3.24 0 0 1-2.8 1.57 2.89 2.89 0 0 1-2.75-1.72l7.59-3.13-.26-.65Zm-60.41-1.87v2.4h5.76a5.02 5.02 0 0 1-1.32 3.04 5.9 5.9 0 0 1-4.44 1.76 6.32 6.32 0 0 1-6.32-6.4A6.32 6.32 0 0 1 68 26.85l1.7-1.7a8.4 8.4 0 0 0-6.04-2.42 8.93 8.93 0 0 0-8.94 8.8 8.93 8.93 0 0 0 8.94 8.81c2.62 0 4.6-.86 6.14-2.47 1.6-1.59 2.09-3.82 2.09-5.62a7.8 7.8 0 0 0-.13-1.5h-8.1Zm14.77 7.37c-1.72 0-3.2-1.42-3.2-3.44 0-2.04 1.48-3.43 3.2-3.43 1.72 0 3.2 1.4 3.2 3.43 0 2.02-1.48 3.44-3.2 3.44Zm0-9.1a5.59 5.59 0 0 0-5.7 5.66 5.6 5.6 0 0 0 5.7 5.67 5.6 5.6 0 0 0 5.7-5.67 5.59 5.59 0 0 0-5.7-5.67Zm12.42 9.1c-1.72 0-3.2-1.42-3.2-3.44 0-2.04 1.48-3.43 3.2-3.43 1.72 0 3.2 1.4 3.2 3.43 0 2.02-1.48 3.44-3.2 3.44Zm0-9.1a5.59 5.59 0 0 0-5.7 5.66 5.6 5.6 0 0 0 5.7 5.67 5.6 5.6 0 0 0 5.69-5.67 5.59 5.59 0 0 0-5.7-5.67Zm-27.99-17.3c-.04.07-.13.13-.26.14-.3 1.32-.86 3.28-1.33 4.38l-.6-.17a30.8 30.8 0 0 0 1.21-4.56l.98.21Zm-5.28-.13c.52 1.35.88 3.08.94 4.23-.07 0-.14 0-.69.15-.04-1.13-.4-2.88-.9-4.22l.65-.16Zm6.46-1.2v.65H55.6v-.66h3.81V8.33l.9.06c-.02.07-.07.12-.2.14v1.84h3.94Zm-8.8 6.13h9.08v.67h-9.08v-.67Z" fill="#fff"/>
  <path d="m62.87 11.71-.13-.05-.14.06h-.1l-.02.1c-.3 1.32-.85 3.27-1.32 4.36l.12.05.04-.13-.6-.17-.04.13.13.05c.44-1.16.95-3.17 1.22-4.58l-.14-.03-.02.13.97.21.03-.13.02-.13-.97-.2-.13-.04-.03.14c-.26 1.4-.77 3.4-1.2 4.53l-.05.14.74.2.11.04.05-.11a30.87 30.87 0 0 0 1.33-4.4l-.13-.03.01.14c.17-.02.3-.1.37-.22l.06-.15-.16-.04-.02.13Zm-5.28-.13-.12.05c.51 1.34.87 3.05.93 4.18h.13v-.14c-.1 0-.17.02-.72.16l.03.13h.13a15.5 15.5 0 0 0-.9-4.26l-.12.04.03.13.64-.16-.03-.13-.03-.13-.79.2.05.14c.49 1.32.85 3.06.89 4.17v.17l.16-.04c.55-.14.62-.15.66-.15h.14v-.14a15.5 15.5 0 0 0-.96-4.26l-.04-.11-.11.02.03.13Zm6.46-1.2h-.14v.52h-8.18v-.4h3.81V8.48l.75.05.01-.13-.13-.02-.09.03-.11.01v2.1h4.08v-.27h-3.81V8.53h-.14l.02.13c.16-.01.3-.11.32-.25l.02-.14-1.04-.07-.14-.01v2.05h-3.82v.93h8.72v-.93h-.13v.13Zm-8.8 6.13v.13h8.94v.4h-8.8v-.53h-.28v.8h9.35v-.94h-9.35v.14h.14ZM74.18 8.9v6.19c0 .86-.43.88-1.86.88-.03-.2-.14-.51-.24-.7l.87.02c.49 0 .55 0 .55-.21V9.56h-2.25v8.07h-.68V8.89h3.61Zm-7.5 4h2.31v-1.4h-2.32v1.4Zm2.31-3.37h-2.32v1.36H69V9.53Zm-.3 5.87c-.3-.43-.64-.86-.97-1.22l.52-.3c.75.82 1.54 1.9 1.88 2.64l-.56.33c-.12-.27-.31-.6-.52-.94-1.23.39-2.48.78-3.29 1.02l-.13.16-.3-.8.71-.17V8.89h3.6v4.63h-2.96v2.43l2.01-.55Z" fill="#fff"/>
  <path d="M74.18 8.9h-.13v6.19c-.01.41-.08.54-.31.64-.24.1-.7.1-1.42.1v.14l.13-.02a2.87 2.87 0 0 0-.25-.75l-.12.07v.13l.87.02c.25 0 .38 0 .5-.03l.15-.14.03-.17V9.43h-2.52v8.07h-.41V9.02h3.48v-.26h-3.75v9h.95V9.7h1.99v5.44l.01.01v-.02l-.02.01.02.01v-.02c-.01.01-.16.03-.43.02-.23 0-.54 0-.87-.02h-.23l.11.2c.1.17.2.5.23.66l.02.11h.1c.73 0 1.2 0 1.53-.13.34-.12.48-.44.47-.88V8.76h-.13v.13Zm-7.5 4v.13h2.45v-1.66h-2.59v1.66h.13v-.14h.14v-1.25h2.05v1.12h-2.19v.13Zm2.31-3.37V9.4h-2.45v1.63h2.59V9.4h-.14v.13h-.13v1.23h-2.05v-1.1h2.18v-.13Zm-.3 5.87.1-.08c-.3-.43-.63-.87-.97-1.23l-.1.09.07.11.52-.29-.07-.11-.1.09c.74.8 1.53 1.89 1.85 2.6l.13-.06-.07-.12-.56.33.07.12.12-.06a8.64 8.64 0 0 0-.53-.95l-.06-.1-.1.04c-1.22.39-2.47.78-3.28 1.02l-.03.01-.02.02-.21-.58-.13.05.03.13.72-.18.1-.03v-7.2h3.32v4.37h-2.95v2.73l2.36-.65-.1-.15-.12.08-.03-.13-1.84.5v-2.11h2.95v-4.9H65.9v7.36h.13l-.03-.13-.7.18-.16.03.44 1.15.28-.34-.1-.08.03.13c.81-.25 2.06-.63 3.29-1.03l-.04-.12-.12.07c.21.34.4.66.51.92l.06.14.8-.47-.05-.1a12.51 12.51 0 0 0-1.9-2.67l-.07-.08-.76.42.12.13c.32.35.65.78.95 1.2l.1-.07Zm15.78-5.65h-4.24l-.11.03v1.74l.05-.06c1.27.62 2.91 1.55 3.74 2.2l-.47.6a25.19 25.19 0 0 0-3.32-2.08v5.44h-.71V9.75h-3.96v-.67h9.02v.67Z" fill="#fff"/>
  <path d="M84.47 9.75v-.13h-4.26l-.13.03-.1.03v2.21l.3-.34-.11-.09-.06.12a26 26 0 0 1 3.72 2.18l.08-.1-.1-.09-.47.6.1.09.09-.1c-.74-.6-2.14-1.45-3.35-2.1l-.2-.1v5.53h-.44V9.62H75.6v-.4h8.75v.53h.27v-.8h-9.29v.93h3.95v7.87h.98v-5.57h-.13l-.06.12c1.2.64 2.6 1.49 3.3 2.06l.1.08.64-.8-.1-.1a26.22 26.22 0 0 0-3.77-2.2l-.1-.04-.11.14.1.08h.13V9.88h.01l-.03-.13v.13h4.38v-.13h-.14Zm8.23-1.27c.53.4 1.16.98 1.44 1.38l-.5.4a7.67 7.67 0 0 0-1.42-1.45l.48-.33Zm-3.1 6.57v-.62h-1.32v.62h1.33Zm0-1.03v-.62h-1.32v.62h1.33Zm-3.15.4v.63h1.29v-.62h-1.3Zm0-1.02v.62h1.29v-.62h-1.3Zm5.12-2.23c.1 1.27.25 2.44.48 3.4.55-.86.98-1.83 1.3-2.83l.78.22-.2.11a12.25 12.25 0 0 1-1.65 3.33c.33.97.75 1.57 1.26 1.57.3 0 .42-.51.48-1.76.14.14.37.3.54.35-.12 1.59-.36 2.07-1.07 2.07-.73 0-1.28-.61-1.69-1.62a7.97 7.97 0 0 1-1.76 1.62 2.35 2.35 0 0 0-.5-.5c.26-.16.5-.34.74-.53h-1.97v1.04h-.61V16.6h-2.21v-.54h2.2v-.6h-1.76v-2.48h1.77v-.58h-2.05v-.52h2.05v-.67l.82.06c-.01.06-.07.11-.2.13v.48h2.1v.52h-2.1v.58h1.83v2.49h-1.84v.59h2.15v.39a8.9 8.9 0 0 0 1.1-1.18 19.8 19.8 0 0 1-.65-4.1h-5.54v-.58h2.33v-.87h-1.88v-.56h1.88v-.84l.85.05c-.01.07-.06.12-.2.14v.65h1.87v.56h-1.87v.87h2.53c-.04-.73-.07-1.49-.07-2.25l.88.05c0 .08-.06.13-.2.15 0 .7.01 1.38.04 2.05h2.91v.58h-2.87Z" fill="#fff"/>
  <path d="m92.7 8.48-.08.1c.52.4 1.15.98 1.42 1.36l.1-.08-.08-.1-.5.39.08.1.11-.07c-.3-.44-.9-1.05-1.44-1.47l-.09.1.08.11.48-.33-.08-.11-.07-.11-.48.33-.15.1.14.11a7.59 7.59 0 0 1 1.4 1.41l.07.12.62-.47.1-.08-.08-.1a8 8 0 0 0-1.47-1.42l-.07-.05-.08.05.07.11Zm-3.1 6.57h.14v-.76h-1.6v.89h1.6v-.13h-.13v-.14h-1.2v-.35h1.07v.49h.13Zm0-1.03h.14v-.75h-1.6v.88h1.6v-.13h-.13v-.14h-1.2v-.34h1.07v.48h.13Zm-3.15.4h-.14v.76h1.56v-.89h-1.56v.14h.14v.13h1.15v.35h-1.02v-.48h-.13Zm0-1.02h-.14v.75h1.56v-.88h-1.56v.13h.14v.14h1.15v.34h-1.02v-.48h-.13Zm5.12-2.23-.13.01c.09 1.28.25 2.46.48 3.42l.08.3.16-.26a12 12 0 0 0 1.32-2.86l-.13-.04-.03.13.78.22.03-.13-.06-.11-.2.1-.06.03-.01.05c-.38 1.17-.92 2.3-1.63 3.29l-.04.05.03.07c.16.5.36.9.58 1.19.22.29.5.47.8.47l.3-.15c.2-.27.27-.8.32-1.74h-.14l-.1.1c.17.15.4.31.6.37l.04-.12-.13-.01c-.06.79-.15 1.3-.3 1.58s-.3.36-.64.37c-.64 0-1.16-.55-1.56-1.54l-.09-.21-.14.17a7.83 7.83 0 0 1-1.73 1.6l.07.1.11-.07a2.46 2.46 0 0 0-.52-.53l-.08.1.07.12c.26-.16.51-.35.74-.54l.3-.24h-2.48v1.05h-.35v-1.05h-2.21v-.27h2.21v-.86h-1.77v-2.21h1.77v-.85h-2.05v-.25h2.05v-.66l.68.05v-.14l-.12-.02h.02-.02.02-.03l-.08.02-.11.02v.73h2.1v.25h-2.1v.85h1.83v2.21h-1.84v.86h2.15v.56l.22-.2c.4-.36.77-.77 1.1-1.2l.05-.06-.02-.06a19.7 19.7 0 0 1-.64-4.07v-.12H85.5v-.31h2.33V9.58h-1.88v-.3h1.88v-.83l.71.04v-.13l-.12-.02-.09.03-.11.01v.9h1.87v.3h-1.87v1.13h2.8v-.14c-.05-.72-.08-1.48-.08-2.24h-.13v.13l.87.05.01-.13h-.13l-.09.02-.11.02v.11c0 .7 0 1.38.04 2.06v.13h2.91v.3h-2.88v.15h.14v.13h3v-.85h-3.04v.13h.13a46.2 46.2 0 0 1-.04-2.05h-.13l.02.13.22-.08.1-.2v-.12l-.13-.01-.88-.05h-.14v.13c0 .76.03 1.53.07 2.26h.13v-.14h-2.4v-.6h1.87v-.83h-1.87V8.5h-.13l.02.13c.16-.01.3-.11.31-.25l.02-.14-1.14-.07v.85h-1.88v.82h1.88v.6h-2.33v.86h5.68v-.14l-.13.01c.1 1.57.3 3 .64 4.12l.13-.03-.1-.08c-.33.42-.7.81-1.08 1.16l.1.1h.12v-.53h-2.15v-.32h1.84v-2.75h-1.83v-.31h2.1v-.79h-2.1v-.35h-.13l.02.13c.15-.02.28-.09.31-.24l.02-.14-.96-.07-.15-.01v.68h-2.05v.79h2.05v.31H85.8v2.75h1.77v.32h-2.2v.81h2.2v1.04h.88v-1.04h1.84v-.13l-.08-.1c-.23.18-.48.36-.72.52l-.17.1.16.12c.16.11.36.32.46.46l.08.11.1-.07a8.1 8.1 0 0 0 1.8-1.65l-.1-.08-.13.05c.41 1.02 1 1.7 1.81 1.7a.9.9 0 0 0 .88-.5c.18-.36.27-.9.33-1.7v-.1l-.1-.03c-.13-.04-.36-.2-.48-.32l-.22-.21-.01.3a7.11 7.11 0 0 1-.15 1.32.73.73 0 0 1-.1.27l-.1.05c-.2 0-.4-.12-.59-.38a3.9 3.9 0 0 1-.54-1.1l-.13.04.11.07a12.37 12.37 0 0 0 1.66-3.36l-.13-.04.06.12.22-.1.3-.16-1.23-.35-.04.12c-.32 1-.75 1.94-1.29 2.8l.11.07.13-.04a20.8 20.8 0 0 1-.48-3.37l-.13.01Z" fill="#fff"/>
</svg>
