<svg width="180" height="54" fill="none" xmlns="http://www.w3.org/2000/svg">
  <path d="M173.3 54H6.7A6.7 6.7 0 0 1 0 47.2V6.8C0 3 3 0 6.7 0h166.6a6.7 6.7 0 0 1 6.7 6.8v40.5c0 3.7-3 6.7-6.7 6.7Z" fill="#000"/>
  <path d="M27.6 26.2 13.4 41.5a3.8 3.8 0 0 0 5.7 2.3l16-9.3-7.5-8.3Z" fill="#EA4335"/>
  <path d="m42 23.6-7-4-7.7 7 7.8 7.9 6.9-4a3.9 3.9 0 0 0 2-3.5 4 4 0 0 0-2-3.4Z" fill="#FBBC04"/>
  <path d="M13.4 12.5a3.7 3.7 0 0 0-.1 1v27l.1 1 14.7-14.9-14.7-14Z" fill="#4285F4"/>
  <path d="m27.7 27 7.4-7.4-16-9.4a3.9 3.9 0 0 0-5.7 2.3L27.7 27Z" fill="#34A853"/>
  <path d="M142.6 40h2.5V23.3h-2.5V40ZM165 29.3l-2.9 7.3-3-7.3h-2.7l4.5 10.1-2.6 5.7h2.6l6.9-15.8H165Zm-14.1 8.8c-.8 0-2-.4-2-1.4 0-1.3 1.4-1.8 2.7-1.8 1 0 1.6.2 2.2.6a3 3 0 0 1-3 2.6Zm.3-9.1c-1.8 0-3.7.8-4.4 2.5l2.2 1c.4-1 1.3-1.3 2.2-1.3 1.3 0 2.6.8 2.7 2.2v.1a5.5 5.5 0 0 0-2.6-.6c-2.4 0-4.8 1.3-4.8 3.8 0 2.2 1.9 3.6 4 3.6a3.5 3.5 0 0 0 3.3-1.6V40h2.5v-6.4c0-3-2.2-4.6-5.1-4.6Zm-15.4 2.4h-3.5v-5.8h3.5a2.9 2.9 0 0 1 3 3 2.9 2.9 0 0 1-3 2.8Zm0-8h-6V40h2.5v-6.3h3.5c2.7 0 5.4-2 5.4-5.2s-2.7-5.2-5.4-5.2ZM103.3 38c-1.8 0-3.2-1.4-3.2-3.4s1.4-3.5 3.1-3.5c1.7 0 3 1.5 3 3.5s-1.3 3.4-3 3.4Zm2.8-7.8h-.1a4 4 0 0 0-3-1.3 5.6 5.6 0 0 0-5.4 5.7c0 3.2 2.6 5.6 5.4 5.6a4 4 0 0 0 3-1.2v.8c0 2.1-1 3.3-3 3.3a3.1 3.1 0 0 1-2.8-2L98 42a5.4 5.4 0 0 0 5 3.3c3 0 5.5-1.7 5.5-5.9v-10H106v.9Zm4 9.7h2.6V23.3h-2.5V40Zm6.3-5.5a3.1 3.1 0 0 1 3-3.3c.9 0 1.7.5 2 1.2l-5 2.1Zm7.7-1.9c-.5-1.3-2-3.6-4.9-3.6-2.9 0-5.3 2.3-5.3 5.7 0 3.1 2.4 5.6 5.6 5.6 2.6 0 4.1-1.5 4.7-2.5l-1.9-1.3a3.2 3.2 0 0 1-2.8 1.6 2.9 2.9 0 0 1-2.7-1.7l7.5-3.1-.2-.7Zm-60.4-1.9V33h5.7a5 5 0 0 1-1.3 3 5.9 5.9 0 0 1-4.4 1.8 6.3 6.3 0 0 1-6.3-6.4A6.3 6.3 0 0 1 68 27l1.7-1.7a8.4 8.4 0 0 0-6-2.5 9 9 0 0 0-9 8.8 9 9 0 0 0 9 8.8 8 8 0 0 0 6.1-2.4c1.6-1.6 2-3.8 2-5.6a7.8 7.8 0 0 0 0-1.5h-8.1ZM78.4 38c-1.7 0-3.2-1.4-3.2-3.4s1.5-3.5 3.2-3.5c1.8 0 3.2 1.4 3.2 3.5 0 2-1.4 3.4-3.2 3.4Zm0-9a5.6 5.6 0 0 0-5.7 5.6 5.6 5.6 0 0 0 5.7 5.6 5.6 5.6 0 0 0 5.7-5.6 5.6 5.6 0 0 0-5.7-5.7ZM91 38c-1.8 0-3.2-1.4-3.2-3.4s1.4-3.5 3.2-3.5c1.7 0 3.2 1.4 3.2 3.5 0 2-1.5 3.4-3.2 3.4Zm0-9a5.6 5.6 0 0 0-5.7 5.6 5.6 5.6 0 0 0 5.7 5.6 5.6 5.6 0 0 0 5.7-5.6 5.6 5.6 0 0 0-5.7-5.7ZM63 11.6l-.3.1c-.3 1.4-.8 3.3-1.3 4.4l-.6-.1a30.8 30.8 0 0 0 1.2-4.6l1 .2Zm-5.3-.1c.5 1.3.9 3 1 4.2l-.8.2c0-1.2-.4-3-.9-4.3l.7-.1Zm6.5-1.2v.6h-8.5v-.6h3.8v-2h1l-.3.1v1.9h4Zm-8.8 6.1h9v.7h-9v-.7Z" fill="#fff"/>
  <path d="M62.9 11.7h-.4v.1l-1.3 4.4.1-.1-.6-.2v.2h.1a28 28 0 0 0 1.2-4.6v.1l1 .2v-.2l-1-.2h-.1C61.5 13 61 15 60.6 16v.2l.6.2h.2v-.1a30.9 30.9 0 0 0 1.3-4.4l.3-.1v-.2.1Zm-5.3-.1h-.1c.5 1.4.8 3 .9 4.2h.1v-.1l-.7.1v.2h.2a15.5 15.5 0 0 0-1-4.3v.2l.6-.2v-.2l-.8.1v.2c.5 1.3.9 3 1 4.2v.1l.7-.2h.2v-.1a15.5 15.5 0 0 0-1-4.3h-.1Zm6.4-1.2v.5h-8.3v-.4h3.8v-2h.8v-.1H60v2.1h4v-.3h-3.8V8.6h-.1v.2c.2 0 .3-.1.3-.3v-.1l-1-.1h-.1v2h-3.8v1h8.7v-1H64v.2Zm-8.8 6.1v.1h9v.4h-8.8v-.5H55v.8h9.4v-1H55v.2h.1Zm19-7.6v6.2c0 .9-.4.9-1.9.9l-.2-.7h.9c.4 0 .5 0 .5-.2V9.6h-2.2v8h-.7V9h3.6Zm-7.5 4H69v-1.4h-2.3v1.4ZM69 9.5h-2.3V11H69V9.5Zm-.3 5.9a12 12 0 0 0-1-1.2l.5-.3a14 14 0 0 1 2 2.6l-.6.3-.6-.9-3.2 1-.2.2-.3-.8.7-.2V9h3.6v4.6h-3V16l2-.5Z" fill="#fff"/>
  <path d="M74.2 8.9H74v6.2c0 .4-.1.5-.4.6l-1.4.1v.2h.2a2.9 2.9 0 0 0-.3-.8H72v.2h1.4l.1-.1V9.4H71v8.1h-.4V9h3.5v-.2h-3.8v9h1V9.7h2v5.4h-1.5v.2c.2.2.3.5.3.7v.1h.1l1.5-.1c.4-.1.5-.5.5-1V8.9h-.1Zm-7.5 4v.1H69v-1.6h-2.6V13h.3v-1.3h2v1.2h-2.1ZM69 9.5v-.1h-2.5V11h2.6V9.4H69v.1h-.1v1.3h-2V9.7h2v-.2Zm-.3 5.9a11 11 0 0 0-.9-1.3v.2l.5-.3v-.1H68c.8.9 1.6 2 1.9 2.7h.1v-.2l-.6.3v.2l.2-.1a8.6 8.6 0 0 0-.5-1H69l-3.3 1-.2-.5h-.2v.1l.8-.1V9h3.4v4.4h-3V16l2.4-.6-.1-.2-.1.1v-.1l-1.9.5v-2.1h3v-5h-3.9V16h.1l-.7.2h-.2l.5 1.2.3-.4h-.1l3.3-1h-.2l.5.9v.1l.9-.4v-.1a12.5 12.5 0 0 0-2-2.7l-.8.3.1.2c.4.3.7.8 1 1.2v-.1Zm15.8-5.6h-4.3v1.7c1.2.6 2.9 1.5 3.7 2.2l-.5.6a25.2 25.2 0 0 0-3.3-2.1v5.4h-.7V9.7h-4v-.6h9v.7Z" fill="#fff"/>
  <path d="M84.5 9.8v-.2H80V12l.3-.4h-.1a26 26 0 0 1 3.6 2.3l.1-.1v-.1l-.6.6h.2a25 25 0 0 0-3.3-2.1L80 12v5.5h-.5V9.6h-3.9v-.4h8.8v.5h.2V9h-9.3v1h4v7.8h1v-5.5H80v.1c1.2.6 2.6 1.5 3.3 2v.1l.7-.8a26.2 26.2 0 0 0-3.9-2.3l-.2.1.1.1h.2V9.8h4.3-.1Zm8.2-1.3c.5.4 1.2 1 1.4 1.4l-.5.4a7.7 7.7 0 0 0-1.4-1.5l.5-.3ZM89.6 15v-.7h-1.3v.7h1.3Zm0-1v-.7h-1.3v.6h1.3Zm-3.1.3v.7h1.2v-.7h-1.3Zm0-1v.6h1.2v-.6h-1.3Zm5-2.2c.2 1.2.3 2.4.6 3.4.5-.9 1-1.9 1.3-2.9l.7.3H94a12.3 12.3 0 0 1-1.6 3.4c.3 1 .7 1.6 1.2 1.6.3 0 .5-.5.5-1.8l.6.4c-.2 1.6-.4 2-1.1 2-.7 0-1.3-.6-1.7-1.6a8 8 0 0 1-1.8 1.6 2.4 2.4 0 0 0-.5-.5l.8-.5h-2v1h-.6v-1h-2.2V16h2.2v-.6H86V13h1.8v-.6h-2v-.5h2v-.7h.8c0 .1 0 .2-.2.2v.5h2.1v.5h-2v.6h1.8v2.5h-1.9v.6h2.2v.4a8.9 8.9 0 0 0 1-1.2 19.8 19.8 0 0 1-.6-4.1h-5.5v-.6h2.3v-.9h-1.9v-.5h1.9v-.9h.8c0 .1 0 .2-.2.2v.7h2v.5h-2v.9H91V8.3h.8c0 .2 0 .2-.2.2v2h3v.7h-3Z" fill="#fff"/>
  <path d="M92.7 8.5 94 10h.1v-.1l-.5.3v.2l.2-.1c-.3-.5-1-1-1.5-1.5V9l.5-.3-.1-.1v-.1l-.5.3-.2.1.1.1a7.6 7.6 0 0 1 1.4 1.4l.1.1.6-.4.1-.1v-.1a8 8 0 0 0-1.5-1.4h-.2.1ZM89.6 15h.1v-.8h-1.6v.9h1.6v-.2h-1.3v-.3h1v.5h.2Zm0-1h.1v-.8h-1.6v.9h1.6v-.2h-1.3v-.4h1v.5h.2Zm-3.1.3h-.2v.8H88v-1h-1.6v.2h.2v.2h1.1v.3h-1v-.5h-.1Zm0-1h-.2v.8H88v-1h-1.6v.2h.2v.1h1.1v.4h-1v-.5h-.1Zm5-2.2c0 1.3.2 2.4.4 3.4l.1.3.2-.3a12 12 0 0 0 1.3-2.8h-.1l.7.3v-.2h-.2l-.1.1a12 12 0 0 1-1.6 3.3v.1c.1.5.3 1 .5 1.2.3.3.5.5.8.5l.3-.1c.2-.3.3-.8.4-1.8H94v.1c0 .2.3.3.5.4v-.1c-.1.7-.2 1.3-.4 1.5s-.3.4-.6.4c-.7 0-1.2-.5-1.6-1.5v-.2l-.2.1a7.8 7.8 0 0 1-1.7 1.6v.1h.1a2.5 2.5 0 0 0-.5-.6v.2l.8-.5.3-.2h-2.5v1h-.4v-1h-2.2v-.3h2.2v-.9h-1.7V13h1.7v-.8h-2V12h2v-.6h.7v-.1h-.3v.7h2v.3h-2v.8H90v2.2h-1.8v.9h2.1v.6l.2-.2a9 9 0 0 0 1.1-1.2l.1-.1a19.7 19.7 0 0 1-.7-4.1V11h-5.5v-.3h2.3V9.6H86v-.3h1.8v-.9h.7-.2v.9H90v.3h-1.9v1.1H91V8.3h-.2v.2h.9v-.1h-.3v2.3h3v.3h-3v.2h.2v.1h3v-.9h-3v.2a46.2 46.2 0 0 1 0-2h-.1.2l.1-.2v-.1h-.1l-.9-.1h-.1v2.4h.2v-.1h-2.4v-.6h1.8V9h-1.8v-.5h-.2v.1c.2 0 .4 0 .4-.2v-.2h-1.1V9h-2v.8h2v.6h-2.4v.9H91v-.1h-.1c0 1.5.3 3 .6 4h.1l-1.1 1.1v.1h.2V16h-2.2v-.3h1.9v-2.8h-1.9v-.3h2.1v-.8h-2v-.3h-.2v.1c.2 0 .3 0 .3-.2V11h-1v.6h-2v.8h2v.3h-1.8v2.8h1.8v.3h-2.2v.8h2.2v1h.8v-1h1.9v-.2l-.8.5-.2.1.2.1.4.5.1.1h.1A8.1 8.1 0 0 0 92 16h-.2c.4 1 1 1.8 1.8 1.8a.9.9 0 0 0 .9-.5c.2-.4.2-1 .3-1.7v-.1L94 15l-.2-.2v.3a7.1 7.1 0 0 1-.2 1.3.7.7 0 0 1 0 .3h-.2c-.2 0-.4 0-.5-.3a3.9 3.9 0 0 1-.6-1.1h-.1.1A12.4 12.4 0 0 0 94 12h-.2.3l.3-.2-1.2-.3c-.4 1-.8 2-1.4 2.9h.2a20.8 20.8 0 0 1-.4-3.3h-.1Z" fill="#fff"/>
</svg>
