<svg width="180" height="54" fill="none" xmlns="http://www.w3.org/2000/svg">
  <path d="M173.33 54H6.67A6.73 6.73 0 0 1 0 47.25V6.75C0 3.04 3 0 6.67 0h166.66A6.73 6.73 0 0 1 180 6.75v40.5c0 3.71-3 6.75-6.67 6.75Z" fill="#000"/>
  <path d="m27.63 26.22-14.2 15.26a3.84 3.84 0 0 0 5.65 2.35l.05-.03 15.97-9.33-7.48-8.25Z" fill="#EA4335"/>
  <path d="m41.98 23.63-.01-.02-6.9-4.05-7.77 7 7.8 7.9 6.86-4a3.89 3.89 0 0 0 2.02-3.43c0-1.47-.8-2.75-2-3.4Z" fill="#FBBC04"/>
  <path d="M13.43 12.52a3.7 3.7 0 0 0-.13 1v26.96c0 .35.04.68.13 1L28.1 26.62l-14.68-14.1Z" fill="#4285F4"/>
  <path d="m27.73 27 7.34-7.44-15.96-9.37a3.85 3.85 0 0 0-5.69 2.33L27.73 27Z" fill="#34A853"/>
  <path d="M131.52 26.67h2.17V12.1h-2.17v14.57Zm19.59-9.32-2.5 6.31h-.07l-2.59-6.31h-2.34l3.88 8.82-2.21 4.91h2.26l5.99-13.73h-2.42ZM138.77 25c-.7 0-1.7-.35-1.7-1.24 0-1.12 1.24-1.55 2.3-1.55.96 0 1.4.2 1.99.49a2.64 2.64 0 0 1-2.59 2.3Zm.27-7.98c-1.58 0-3.2.69-3.88 2.23l1.93.8c.4-.8 1.18-1.07 1.98-1.07 1.13 0 2.27.68 2.29 1.88v.15a4.8 4.8 0 0 0-2.27-.56c-2.08 0-4.2 1.14-4.2 3.28 0 1.95 1.7 3.2 3.62 3.2 1.46 0 2.27-.65 2.78-1.42h.07v1.12h2.1v-5.58c0-2.59-1.93-4.03-4.42-4.03Zm-13.44 2.09h-3.1v-5h3.1a2.52 2.52 0 0 1 2.55 2.5c0 1.13-.93 2.5-2.55 2.5Zm-.06-7.02h-5.21v14.57h2.17v-5.52h3.04c2.41 0 4.78-1.75 4.78-4.53 0-2.78-2.37-4.52-4.78-4.52ZM97.13 25c-1.5 0-2.76-1.25-2.76-2.98 0-1.75 1.25-3.02 2.76-3.02 1.48 0 2.64 1.27 2.64 3.02 0 1.73-1.16 2.98-2.64 2.98Zm2.5-6.85h-.08a3.43 3.43 0 0 0-2.61-1.1 4.93 4.93 0 0 0-4.75 4.97 4.9 4.9 0 0 0 4.75 4.94c1.18 0 2.12-.53 2.6-1.13h.08v.71c0 1.9-1.01 2.91-2.64 2.91a2.74 2.74 0 0 1-2.5-1.76l-1.9.79c.55 1.31 2 2.93 4.4 2.93 2.55 0 4.7-1.5 4.7-5.17v-8.9h-2.06v.81Zm3.56 8.5h2.18V12.1h-2.18v14.57Zm5.39-4.8a2.72 2.72 0 0 1 2.59-2.9c.86 0 1.6.44 1.84 1.06l-4.43 1.84Zm6.76-1.65c-.42-1.11-1.67-3.16-4.25-3.16-2.55 0-4.67 2.01-4.67 4.96 0 2.78 2.1 4.96 4.92 4.96a4.93 4.93 0 0 0 4.13-2.2l-1.69-1.13a2.83 2.83 0 0 1-2.44 1.37c-1.1 0-1.9-.5-2.4-1.5l6.62-2.74-.22-.56Zm-52.8-1.64v2.1h5.03a4.38 4.38 0 0 1-1.15 2.65 5.15 5.15 0 0 1-3.89 1.54c-3.1 0-5.52-2.5-5.52-5.6a5.52 5.52 0 0 1 9.32-4.08l1.48-1.49a7.34 7.34 0 0 0-5.28-2.12 7.8 7.8 0 0 0-7.8 7.7 7.8 7.8 0 0 0 7.8 7.7c2.3 0 4.02-.75 5.37-2.16a6.95 6.95 0 0 0 1.82-4.92c0-.49-.03-.94-.1-1.32h-7.09ZM75.44 25c-1.5 0-2.8-1.23-2.8-3 0-1.78 1.3-3 2.8-3 1.5 0 2.8 1.22 2.8 3 0 1.77-1.3 3-2.8 3Zm0-7.96A4.89 4.89 0 0 0 70.47 22a4.9 4.9 0 0 0 4.98 4.96A4.9 4.9 0 0 0 80.42 22a4.89 4.89 0 0 0-4.97-4.96ZM86.3 25c-1.5 0-2.8-1.23-2.8-3 0-1.78 1.3-3 2.8-3 1.5 0 2.8 1.22 2.8 3 0 1.77-1.3 3-2.8 3Zm0-7.96A4.89 4.89 0 0 0 81.32 22a4.9 4.9 0 0 0 4.98 4.96A4.9 4.9 0 0 0 91.28 22a4.89 4.89 0 0 0-4.98-4.96ZM62.87 38.38c-.04.07-.13.13-.26.14a30.7 30.7 0 0 1-1.33 4.37l-.6-.17a30.8 30.8 0 0 0 1.21-4.55l.98.21Zm-5.28-.13c.52 1.35.88 3.07.94 4.22-.07 0-.14.01-.69.15-.04-1.13-.4-2.87-.9-4.21l.65-.16Zm6.46-1.21v.66H55.6v-.66h3.81V35l.9.06c-.02.07-.07.12-.2.14v1.84h3.94Zm-8.8 6.13h9.08v.68h-9.08v-.68Z" fill="#fff"/>
  <path d="m62.87 38.38-.13-.05-.13.06h-.1l-.03.1c-.3 1.31-.85 3.27-1.32 4.35l.12.05.04-.12-.6-.17-.04.12.13.05a32.4 32.4 0 0 0 1.22-4.58l-.14-.02-.02.13.97.21.03-.13.02-.13-1.1-.24-.03.13a31.5 31.5 0 0 1-1.2 4.54l-.05.13.74.21.11.03.05-.1a30.86 30.86 0 0 0 1.33-4.4l-.13-.03.01.13c.17-.01.3-.08.37-.22l.06-.15-.16-.03-.02.13Zm-5.28-.13-.12.05c.51 1.33.87 3.05.93 4.18h.13v-.14c-.1 0-.17.02-.72.15l.03.13h.13c-.04-1.15-.4-2.9-.9-4.26l-.12.05.03.13.64-.16-.03-.13-.03-.13-.79.2.05.14c.49 1.32.85 3.06.89 4.17v.16l.16-.04c.55-.14.62-.14.66-.14h.14v-.14a15.8 15.8 0 0 0-.96-4.27l-.04-.1-.11.02.03.13Zm6.46-1.21h-.14v.53h-8.18v-.4h3.81v-2.03l.75.05.01-.13-.13-.02-.09.02-.11.02v2.1h4.08v-.27h-3.81V35.2h-.14l.02.13c.16-.01.3-.12.32-.25l.02-.15-1.04-.07h-.14v2.05h-3.82v.92h8.72v-.92h-.13v.13Zm-8.8 6.13v.14h8.94v.4h-8.8v-.54h-.28v.8h9.35v-.93h-9.35v.13h.14Zm18.93-7.61v6.2c0 .85-.43.87-1.86.87a2.9 2.9 0 0 0-.24-.7l.87.02c.49 0 .55 0 .55-.2v-5.52h-2.25v8.07h-.68v-8.74h3.61Zm-7.5 4h2.31v-1.4h-2.32v1.4Zm2.31-3.36h-2.32v1.36H69V36.2Zm-.3 5.86c-.3-.43-.64-.86-.97-1.22l.52-.29c.75.81 1.54 1.9 1.88 2.63l-.56.33c-.12-.27-.31-.6-.52-.94-1.23.4-2.48.78-3.29 1.03l-.13.16-.3-.8c.21-.05.45-.1.71-.18v-7.22h3.6v4.63h-2.96v2.42l2.01-.55Z" fill="#fff"/>
  <path d="M74.18 35.56h-.13v6.2c-.01.41-.08.53-.31.63-.24.1-.7.11-1.42.11v.13l.13-.02a2.87 2.87 0 0 0-.25-.74l-.12.06v.14l.87.02c.25 0 .38 0 .5-.04l.15-.13.03-.18V36.1h-2.52v8.07h-.41V35.7h3.48v-.27h-3.75v9h.95v-8.06h1.99v5.45h.01v-.01h-.02l.02.02v-.02c-.01 0-.16.02-.43.02l-.87-.02h-.23l.11.2c.1.17.2.49.23.65l.02.12h.1c.73 0 1.2 0 1.53-.13.34-.13.48-.44.47-.89v-6.33h-.13v.14Zm-7.5 4v.13h2.45v-1.65h-2.59v1.65h.13v-.13h.14V38.3h2.05v1.13h-2.19v.13Zm2.31-3.36v-.14h-2.45v1.63h2.59v-1.63h-.14v.14h-.13v1.22h-2.05v-1.09h2.18v-.13Zm-.3 5.86.1-.07c-.3-.44-.63-.87-.97-1.24l-.1.1.07.1.52-.28-.07-.12-.1.1c.74.8 1.53 1.88 1.85 2.6l.13-.07-.07-.11-.56.33.07.11.12-.05a8.65 8.65 0 0 0-.53-.96l-.06-.08-.1.03c-1.22.39-2.47.78-3.28 1.02h-.03l-.01.02-.22-.57-.13.04.03.13c.21-.05.46-.1.72-.18l.1-.02v-7.2h3.32v4.37h-2.95v2.73l2.36-.65-.1-.15-.12.07-.03-.13-1.84.51v-2.12h2.95v-4.9H65.9v7.36h.13l-.03-.12-.7.17-.16.04.36.93.08.22.28-.34-.1-.08.03.12c.81-.24 2.06-.63 3.29-1.02l-.04-.13-.12.07c.21.34.4.67.51.93l.06.14.7-.41.1-.06-.05-.11a12.48 12.48 0 0 0-1.9-2.67l-.07-.08-.76.43.12.12c.32.36.65.78.95 1.2l.1-.07Zm15.78-5.64h-4.24l-.11.03v1.74l.05-.06c1.27.62 2.91 1.55 3.74 2.2l-.47.6a25.14 25.14 0 0 0-3.32-2.08v5.44h-.71v-7.87h-3.96v-.67h9.02v.67Z" fill="#fff"/>
  <path d="M84.47 36.42v-.14h-4.26l-.13.04-.1.03v2.21l.3-.34-.11-.09-.06.12a25.9 25.9 0 0 1 3.72 2.18l.08-.1-.1-.09-.47.6.1.08.09-.1c-.74-.6-2.14-1.44-3.35-2.09l-.2-.1v5.52h-.44v-7.87H75.6v-.4h8.75v.54h.27v-.8h-9.29v.93h3.95v7.87h.98v-5.57h-.13l-.06.12c1.2.63 2.6 1.49 3.3 2.06l.1.08.64-.81-.1-.08A26.16 26.16 0 0 0 80.22 38l-.1-.05-.11.15.1.08h.13v-1.64h.01l-.03-.13v.13h4.38v-.13h-.14Zm8.23-1.27c.53.4 1.16.98 1.44 1.38l-.5.39a7.66 7.66 0 0 0-1.42-1.44l.48-.33Zm-3.1 6.56v-.62h-1.32v.62h1.33Zm0-1.03v-.6h-1.32v.6h1.33Zm-3.15.41v.62h1.29v-.62h-1.3Zm0-1.02v.61h1.29v-.6h-1.3Zm5.12-2.23c.1 1.27.25 2.44.48 3.4.55-.87.98-1.83 1.3-2.83l.78.22-.2.11a12.22 12.22 0 0 1-1.65 3.32c.33.97.75 1.58 1.26 1.58.3 0 .42-.52.48-1.77.14.14.37.3.54.35-.12 1.6-.36 2.08-1.07 2.08-.73 0-1.28-.62-1.69-1.63a7.99 7.99 0 0 1-1.76 1.63 2.35 2.35 0 0 0-.5-.5c.26-.16.5-.35.74-.54h-1.97v1.04h-.61v-1.04h-2.21v-.54h2.2v-.59h-1.76v-2.48h1.77v-.58h-2.05v-.52h2.05v-.67l.82.06c-.01.06-.07.11-.2.13v.48h2.1v.52h-2.1v.58h1.83v2.48h-1.84v.6h2.15v.38a8.9 8.9 0 0 0 1.1-1.18 19.79 19.79 0 0 1-.65-4.1h-5.54v-.57h2.33v-.87h-1.88v-.56h1.88v-.84l.85.05c-.01.07-.06.12-.2.14v.65h1.87v.56h-1.87v.87h2.53a41.3 41.3 0 0 1-.07-2.25l.88.05c0 .08-.06.13-.2.15 0 .7.01 1.38.04 2.05h2.91v.58h-2.87Z" fill="#fff"/>
  <path d="m92.7 35.15-.08.1c.52.4 1.15.98 1.42 1.36l.1-.08-.08-.1-.5.38.08.1.11-.07c-.3-.44-.9-1.04-1.44-1.47l-.09.1.08.12.48-.33-.08-.11-.07-.11-.63.43.14.11a7.57 7.57 0 0 1 1.4 1.41l.07.12.62-.48.1-.07-.08-.1a7.7 7.7 0 0 0-1.47-1.42l-.07-.06-.08.06.07.1Zm-3.1 6.56h.14v-.75h-1.6v.89h1.6v-.14h-.13v-.13h-1.2v-.35h1.07v.48h.13Zm0-1.03h.14v-.74h-1.6v.88h1.6v-.14h-.13v-.13h-1.2v-.35h1.07v.48h.13Zm-3.15.41h-.14v.76h1.56v-.9h-1.56v.14h.14v.14h1.15v.35h-1.02v-.49h-.13Zm0-1.02h-.14v.75h1.56v-.88h-1.56v.13h.14v.13h1.15v.35h-1.02v-.48h-.13Zm5.12-2.23h-.13c.09 1.29.25 2.46.48 3.42l.08.3.16-.26c.56-.87 1-1.84 1.32-2.85l-.13-.04-.03.13.78.22.03-.13-.06-.12-.2.11-.06.03-.01.05c-.38 1.17-.92 2.3-1.63 3.29l-.04.05.03.07c.16.49.36.9.58 1.18.22.3.5.48.8.48l.3-.15c.2-.27.27-.8.32-1.74h-.14l-.1.09c.17.15.4.32.6.38l.04-.13h-.13c-.06.78-.15 1.3-.3 1.58-.15.27-.3.35-.64.36-.64 0-1.16-.54-1.56-1.54l-.09-.2-.14.17a7.82 7.82 0 0 1-1.73 1.6l.07.1.11-.07c-.12-.18-.33-.4-.52-.53l-.08.1.07.12c.26-.17.51-.35.74-.54l.3-.24h-2.48v1.04h-.35v-1.04h-2.21v-.27h2.21V42h-1.77v-2.22h1.77v-.84h-2.05v-.26h2.05v-.66l.68.05v-.13l-.12-.02h.03l-.03-.01v.01h.03l-.03-.01h-.01l-.08.03-.11.01v.73h2.1v.26h-2.1v.84h1.83V42h-1.84v.86h2.15v.55l.22-.2c.4-.35.77-.76 1.1-1.2l.05-.05-.02-.06c-.33-1.1-.53-2.51-.64-4.07v-.12H85.5v-.32h2.33v-1.14h-1.88v-.29h1.88v-.83l.71.04v-.13l-.12-.02-.1.03-.1.01v.9h1.87v.3h-1.87v1.13h2.8v-.14c-.05-.73-.08-1.49-.08-2.24h-.13v.13l.87.05.01-.13h-.13.01v-.01h-.01.01l-.1.02-.11.02v.12c0 .7 0 1.38.04 2.05v.13h2.91v.32h-2.88v.14l.14-.01v.13h3v-.85h-3.04v.14h.13c-.03-.67-.04-1.35-.04-2.05h-.13l.02.13.22-.08.1-.2v-.12l-.12-.02-.9-.05h-.13V35a41 41 0 0 0 .07 2.26l.13-.01v-.14h-2.4v-.6h1.87v-.83h-1.87v-.51h-.13l.02.13c.16-.01.3-.12.31-.26l.02-.14-1-.06h-.14v.84h-1.88v.83h1.88v.6h-2.33v.85h5.68v-.13h-.13c.1 1.58.3 3 .64 4.13l.13-.04-.1-.08c-.33.43-.7.82-1.08 1.17l.1.1h.12v-.53h-2.15v-.32h1.84v-2.75h-1.83v-.32h2.1v-.78h-2.1v-.35h-.13l.02.13c.15-.02.28-.1.31-.24l.02-.14-.96-.07-.15-.01v.68h-2.05v.78h2.05v.32H85.8v2.75h1.77v.32h-2.2v.8h2.2v1.05h.88V43.4h1.84v-.14l-.08-.1c-.23.19-.48.37-.72.52l-.17.1.16.12c.16.12.36.33.46.47l.08.1.1-.06a8.1 8.1 0 0 0 1.8-1.65l-.1-.09-.13.05c.41 1.03 1 1.7 1.81 1.7a.9.9 0 0 0 .88-.5c.18-.36.27-.88.33-1.69v-.1l-.1-.03c-.13-.04-.36-.2-.48-.32l-.22-.21-.01.3a7.12 7.12 0 0 1-.15 1.32.73.73 0 0 1-.1.26l-.1.05c-.2 0-.4-.11-.59-.37a3.7 3.7 0 0 1-.54-1.11l-.13.04.11.08a12.33 12.33 0 0 0 1.66-3.36l-.13-.04.06.12.51-.27-1.22-.34-.04.12c-.32 1-.75 1.94-1.29 2.79l.11.07.13-.03a21 21 0 0 1-.48-3.37h-.13Z" fill="#fff"/>
</svg>
