<svg xmlns="http://www.w3.org/2000/svg" viewBox="0 0 239 70.9">
  <rect x="-.1" width="239.2" height="70.9" rx="8.9" ry="8.9"/>
  <path d="M114.6 22.7c-3.7 0-6.6 2.7-6.6 6.6s3 6.5 6.6 6.5 6.6-2.8 6.6-6.5-3-6.6-6.6-6.6Zm0 10.5c-2 0-3.8-1.6-3.8-4s1.8-4 3.8-4 3.7 1.7 3.7 4-1.7 4-3.7 4ZM100 22.7c-3.6 0-6.6 2.7-6.6 6.6s3 6.5 6.6 6.5 6.6-2.8 6.6-6.5-3-6.6-6.6-6.6Zm0 10.5c-2 0-3.7-1.6-3.7-4s1.7-4 3.7-4 3.8 1.7 3.8 4-1.8 4-3.8 4Zm-17-8.5v2.8h6.7A5.9 5.9 0 0 1 88 31c-1 1-2.5 2-5.1 2a7.3 7.3 0 0 1-7.3-7.4A7.4 7.4 0 0 1 88 20.2l2-2a9.8 9.8 0 0 0-7-2.8c-5.7 0-10.4 4.6-10.4 10.2S77.3 35.8 83 35.8c3 0 5.3-1 7.1-2.8a9.3 9.3 0 0 0 2.4-6.6l-.1-1.7H83Zm70.1 2.2c-.5-1.5-2.2-4.2-5.6-4.2s-6.2 2.6-6.2 6.6c0 3.6 2.8 6.5 6.5 6.5 3 0 4.8-1.8 5.5-2.9l-2.2-1.5c-.8 1.1-1.8 1.9-3.3 1.9s-2.5-.7-3.2-2l8.8-3.7-.3-.7Zm-9 2.2c0-2.6 2-3.9 3.5-3.9 1.1 0 2.1.6 2.4 1.4l-5.8 2.5Zm-7.1 6.3h2.9V16.1H137v19.3Zm-4.7-11.3h-.1a4.6 4.6 0 0 0-3.5-1.4c-3.3 0-6.3 2.9-6.3 6.6s3 6.5 6.3 6.5c1.6 0 2.8-.7 3.5-1.5v1c0 2.5-1.3 3.9-3.5 3.9a3.6 3.6 0 0 1-3.3-2.4l-2.5 1a6.3 6.3 0 0 0 5.9 4c3.4 0 6.2-2 6.2-6.9V23.1h-2.7v1Zm-3.4 9.1c-2 0-3.6-1.6-3.6-4s1.6-4 3.6-4 3.6 1.8 3.6 4-1.6 4-3.6 4Zm37.8-17.1h-7v19.3h3v-7.3h4c3.2 0 6.3-2.3 6.3-6s-3.1-6-6.3-6Zm0 9.3h-4v-6.6h4c2.2 0 3.5 1.8 3.5 3.3s-1.3 3.3-3.4 3.3Zm18-2.8c-2.2 0-4.3 1-5.2 3l2.5 1c.6-1 1.6-1.4 2.7-1.4 1.5 0 3 1 3 2.5v.2c-.5-.3-1.6-.7-3-.7-2.7 0-5.5 1.5-5.5 4.3 0 2.6 2.2 4.3 4.7 4.3 2 0 3-.9 3.7-2h.1v1.6h2.8V28c0-3.5-2.5-5.4-5.8-5.4Zm-.4 10.6c-1 0-2.3-.4-2.3-1.6 0-1.5 1.7-2 3-2a5 5 0 0 1 2.7.6c-.2 1.8-1.8 3-3.4 3ZM200.7 23l-3.3 8.5h-.1l-3.5-8.4h-3.1l5.2 11.7-3 6.5h3l8-18.3h-3.2Zm-26 12.4h2.8V16.1h-2.9v19.3Z" style="fill:#fff"/>
  <path d="m36.6 34.4-18.9 20a5 5 0 0 0 7.6 3l21.2-12.2-10-10.8h.1Z" style="fill:#ea4335"/>
  <path d="m55.7 31-9.2-5.3-10.3 9.2 10.3 10.3 9.2-5.2c1.5-1 2.6-2.6 2.6-4.5s-1-3.6-2.6-4.5Z" style="fill:#fbbc04"/>
  <path d="m17.7 16.4-.1 1.4V53l.1 1.3L37.2 35 17.7 16.4Z" style="fill:#4285f4"/>
  <path d="m36.7 35.4 9.8-9.7-21.2-12.3a5.1 5.1 0 0 0-7.6 3l19 19Z" style="fill:#34a853"/>
  <path d="M73.3 57.4h12v.9h-12v-1ZM85 49.2v1H73.8v-1h5v-2.7l1.2.1s0 .2-.2.2v2.4H85Zm-8.6 1.6c.7 1.8 1.2 4.1 1.3 5.7l-1 .1c0-1.5-.5-3.8-1.1-5.6l.8-.2Zm7 .2c0 .1-.1.2-.3.2a40 40 0 0 1-1.8 5.8l-.8-.2a35 35 0 0 0 1.6-6l1.3.2Zm7.8 4.9-1.3-1.6.7-.4c1 1 2 2.5 2.4 3.5l-.7.4a11 11 0 0 0-.7-1.2l-4.3 1.3-.2.2-.4-1 .9-.2v-9.6h4.8v6.1h-4v3.3l2.7-.8Zm.4-7.8h-3.1v1.8h3v-1.8Zm-3.1 4.5h3v-1.9h-3v1.9Zm10-5.4v8.3c0 1.1-.6 1.2-2.5 1.2l-.3-1h1.1c.7 0 .8 0 .8-.2V48h-3v11h-1V47.3h4.9Zm13.6 1.2h-5.7v2.3c1.7.8 3.9 2 5 2.9l-.6.8c-1-.8-2.8-2-4.4-2.8V59h-1V48.4h-5.2v-.9h12v1-.1Zm9.5 1.9c0 1.7.3 3.2.6 4.5.7-1.1 1.3-2.4 1.7-3.8l1.1.3c0 .1-.1.2-.3.2-.5 1.5-1.2 3-2.2 4.4.5 1.3 1 2 1.7 2 .4 0 .6-.6.7-2.3.1.2.5.4.7.5-.2 2-.5 2.7-1.4 2.7s-1.7-.8-2.3-2.1a15 15 0 0 1-2.3 2.1c-.2-.2-.4-.5-.7-.6l1-.8h-2.6v1.4h-.8v-1.3h-3v-.8h3V56H114v-3.3h2.4V52h-2.8v-.7h2.8v-1l1 .2-.2.2v.6h2.8v.7h-2.8v.8h2.4V56h-2.4v.7h2.8v.5l1.5-1.5a26 26 0 0 1-.9-5.5h-7.3v-.7h3v-1.2H114v-.7h2.5v-1.2l1 .1c0 .1 0 .2-.2.2v.9h2.5v.7h-2.5v1.2h3.4l-.1-3h1.2c0 .1-.1.2-.3.2v2.8h4v.7h-3.9Zm-6.8 3v.8h1.7v-.9h-1.7Zm0 1.3v.8h1.7v-.8h-1.7Zm4.2-.6v-.8h-1.8v.8h1.8Zm0 1.4v-.8h-1.8v.8h1.8Zm4-8.7a10 10 0 0 1 2 1.8l-.7.6a9.5 9.5 0 0 0-1.9-2l.7-.4Z" style="stroke:#fff;stroke-miterlimit:10;stroke-width:.2px;fill:#fff"/>
</svg>
