<svg width="180" height="54" fill="none" xmlns="http://www.w3.org/2000/svg">
  <path d="M173.3 54H6.7A6.7 6.7 0 0 1 0 47.2V6.8C0 3 3 0 6.7 0h166.6a6.7 6.7 0 0 1 6.7 6.8v40.5c0 3.7-3 6.7-6.7 6.7Z" fill="#000"/>
  <path d="M27.6 26.2 13.4 41.5a3.8 3.8 0 0 0 5.7 2.3l16-9.3-7.5-8.3Z" fill="#EA4335"/>
  <path d="m42 23.6-7-4-7.7 7 7.8 7.9 6.9-4a3.9 3.9 0 0 0 2-3.5 4 4 0 0 0-2-3.4Z" fill="#FBBC04"/>
  <path d="M13.4 12.5a3.7 3.7 0 0 0-.1 1v27l.1 1 14.7-14.9-14.7-14Z" fill="#4285F4"/>
  <path d="m27.7 27 7.4-7.4-16-9.4a3.9 3.9 0 0 0-5.7 2.3L27.7 27Z" fill="#34A853"/>
  <path d="M131.5 26.7h2.2V12h-2.2v14.6Zm19.6-9.3-2.5 6.3-2.6-6.3h-2.4l3.9 8.8-2.2 4.9h2.2l6-13.8h-2.4ZM138.8 25c-.7 0-1.7-.3-1.7-1.2 0-1.2 1.2-1.6 2.3-1.6 1 0 1.4.2 2 .5a2.6 2.6 0 0 1-2.6 2.3Zm.2-8c-1.5 0-3.2.7-3.8 2.2l1.9.9c.4-.9 1.2-1.1 2-1.1 1.1 0 2.2.7 2.3 1.9v.1a4.8 4.8 0 0 0-2.3-.6c-2 0-4.2 1.2-4.2 3.3 0 2 1.7 3.2 3.6 3.2a3 3 0 0 0 2.8-1.4v1.1h2.2V21c0-2.5-2-4-4.5-4Zm-13.4 2.1h-3.1v-5h3.1a2.5 2.5 0 0 1 2.6 2.5c0 1.1-1 2.5-2.6 2.5Zm0-7h-5.3v14.6h2.2V21h3c2.5 0 4.8-1.7 4.8-4.5S128 12 125.5 12ZM97 25c-1.5 0-2.7-1.3-2.7-3s1.2-3 2.7-3c1.5 0 2.7 1.3 2.7 3s-1.2 3-2.7 3Zm2.5-6.8a3.4 3.4 0 0 0-2.7-1.2 5 5 0 0 0-4.7 5 4.9 4.9 0 0 0 4.7 5c1.2 0 2.2-.6 2.6-1.2h.1v.7c0 2-1 3-2.6 3a2.7 2.7 0 0 1-2.5-1.8l-2 .8c.6 1.3 2 3 4.5 3s4.7-1.6 4.7-5.3v-8.9h-2v.8Zm3.6 8.4h2.2V12.1h-2.2v14.6Zm5.4-4.8a2.7 2.7 0 0 1 2.6-2.9c.8 0 1.6.5 1.8 1.1l-4.4 1.8Zm6.7-1.6c-.4-1.1-1.6-3.2-4.2-3.2s-4.7 2-4.7 5c0 2.8 2.1 5 5 5a5 5 0 0 0 4-2.2l-1.6-1.2a2.8 2.8 0 0 1-2.5 1.4c-1 0-1.9-.5-2.4-1.5l6.7-2.7-.3-.6Zm-52.8-1.6v2h5a4.4 4.4 0 0 1-1 2.7 5.2 5.2 0 0 1-4 1.5 5.5 5.5 0 0 1-5.5-5.6 5.5 5.5 0 0 1 9.3-4l1.5-1.5a7.3 7.3 0 0 0-5.3-2.1 7.8 7.8 0 0 0-7.8 7.7 7.8 7.8 0 0 0 7.8 7.7 7 7 0 0 0 5.4-2.2 7 7 0 0 0 1.8-5v-1.2h-7.2Zm13 6.4c-1.6 0-2.9-1.2-2.9-3s1.3-3 2.8-3c1.5 0 2.8 1.2 2.8 3s-1.3 3-2.8 3Zm0-8a4.9 4.9 0 0 0-5 5 4.9 4.9 0 0 0 5 5 4.9 4.9 0 0 0 5-5 4.9 4.9 0 0 0-5-5Zm10.8 8c-1.5 0-2.8-1.2-2.8-3s1.3-3 2.8-3c1.5 0 2.8 1.2 2.8 3s-1.3 3-2.8 3Zm0-8a4.9 4.9 0 0 0-5 5 4.9 4.9 0 0 0 5 5 4.9 4.9 0 0 0 5-5 4.9 4.9 0 0 0-5-5ZM62.9 38.4l-.3.1a30.7 30.7 0 0 1-1.3 4.4l-.6-.2a30.8 30.8 0 0 0 1.2-4.5l1 .2Zm-5.3-.1c.5 1.3.9 3 1 4.2l-.8.1c0-1.1-.4-2.9-.9-4.2l.7-.2ZM64 37v.7h-8.4V37h3.8v-2h1l-.3.2V37h4Zm-8.8 6.2h9.1v.6h-9v-.6Z" fill="#fff"/>
  <path d="M62.9 38.4h-.4a30 30 0 0 1-1.3 4.4h.1l-.6-.2v.1h.1a32.4 32.4 0 0 0 1.2-4.5v.1l1 .2v-.2l-1.1-.3v.1a31.5 31.5 0 0 1-1.2 4.6v.1l.6.2h.2a30.9 30.9 0 0 0 1.3-4.4s.2 0 .3-.2v-.1H63Zm-5.3-.1h-.1c.5 1.3.8 3 .9 4.2h.1v-.2l-.7.2v.1h.2c0-1.1-.4-2.9-1-4.2v.1l.6-.1V38l-.8.2v.2c.5 1.3.9 3 1 4.1v.2l.7-.2h.2v-.1a15.8 15.8 0 0 0-1-4.3V38h-.1v.2ZM64 37v.6h-8.3v-.4h3.8v-2h.8V35H60v2h4-3.8v-1.7h-.1v.1c.2 0 .3 0 .3-.2V35h-1.1v2h-3.8v1h8.7v-1H64v.1Zm-8.8 6.2v.1h9v.4h-8.8v-.5H55v.8h9.4v-1H55v.2h.1Zm19-7.6v6.2c0 .8-.4.8-1.9.8a2.9 2.9 0 0 0-.2-.7h.9l.5-.1v-5.6h-2.2v8.1h-.7v-8.7h3.6Zm-7.5 4H69v-1.4h-2.3v1.4Zm2.3-3.4h-2.3v1.4H69v-1.4Zm-.3 5.9a12 12 0 0 0-1-1.3l.5-.2a14 14 0 0 1 2 2.6l-.6.3-.6-1-3.2 1.1-.2.2-.3-.8.7-.2v-7.2h3.6v4.6h-3v2.4l2-.5Z" fill="#fff"/>
  <path d="M74.2 35.6H74v6.2c0 .4-.1.5-.4.6l-1.4.1v.1h.2a2.9 2.9 0 0 0-.3-.7H72v.2h1.4l.1-.2v-5.8H71v8h-.4v-8.4h3.5v-.3h-3.8v9h1v-8h2v5.4h-1.5v.2c.2.2.3.5.3.7h1.6c.4-.2.5-.5.5-1v-6.3h-.1v.2Zm-7.5 4H69V38h-2.6v1.7h.2v-.1h.1v-1.3h2v1.1h-2.1v.2Zm2.3-3.4v-.1h-2.5v1.6h2.6V36H69v.1h-.1v1.2h-2v-1h2v-.2Zm-.3 5.9V42a11 11 0 0 0-.9-1.2v.2l.5-.3v-.2l-.2.2c.8.8 1.6 1.8 1.9 2.6l.1-.1V43l-.6.3v.1h.2a8.7 8.7 0 0 0-.5-1H69l-3.3 1-.3-.6v.2l.7-.2v-7.2h3.4V40h-3v2.7L69 42l-.1-.1h-.1l-1.9.4v-2h3v-5H66v7.4h.1v-.1l-.7.1h-.2l.4 1v.2l.4-.3-.1-.1v.1l3.3-1v-.1H69l.5 1v.1l.8-.4V43a12.5 12.5 0 0 0-1.9-2.6v-.1l-.8.4.1.1 1 1.2Zm15.8-5.7h-4.3v1.8c1.2.5 2.9 1.5 3.7 2.1l-.5.6a25.1 25.1 0 0 0-3.3-2v5.4h-.7v-7.9h-4v-.6h9v.6Z" fill="#fff"/>
  <path d="M84.5 36.4v-.1H80v2.3l.3-.4h-.1a25.9 25.9 0 0 1 3.6 2.2h.1v-.2l-.6.6.1.1h.1a25 25 0 0 0-3.3-2.2H80V44h-.5v-7.8h-3.9v-.4h8.8v.5h.2v-.8h-9.3v1h4v7.8h1v-5.6H80v.2c1.2.6 2.6 1.5 3.3 2v.1l.7-.8a26.2 26.2 0 0 0-3.9-2.3l-.2.1h.2v-1.6h4.4-.1Zm8.2-1.2a6 6 0 0 1 1.4 1.3l-.5.4a7.7 7.7 0 0 0-1.4-1.4l.5-.3Zm-3.1 6.5v-.6h-1.3v.6h1.3Zm0-1V40h-1.3v.6h1.3Zm-3.1.4v.6h1.2v-.6h-1.3Zm0-1v.6h1.2V40h-1.3Zm5-2.3c.2 1.3.3 2.5.6 3.4.5-.8 1-1.8 1.3-2.8l.7.2-.2.1a12.2 12.2 0 0 1-1.6 3.4c.3 1 .7 1.5 1.2 1.5.3 0 .5-.5.5-1.7l.6.3c-.2 1.6-.4 2.1-1.1 2.1-.7 0-1.3-.6-1.7-1.6a8 8 0 0 1-1.8 1.6 2.4 2.4 0 0 0-.5-.5l.8-.5h-2v1h-.6v-1h-2.2v-.6h2.2v-.6h-1.8v-2.5h1.8v-.5h-2v-.6h2V38h.8l-.2.2v.4h2.1v.6h-2v.5h1.8v2.5h-1.9v.6h2.2v.4a8.9 8.9 0 0 0 1-1.2 19.8 19.8 0 0 1-.6-4h-5.5v-.6h2.3v-1h-1.9v-.5h1.9V35h.8c0 .1 0 .2-.2.2v.6h2v.6h-2v.9H91a41.3 41.3 0 0 1 0-2.3h.8c0 .1 0 .2-.2.2v2h3v.6h-3Z" fill="#fff"/>
  <path d="M92.7 35.1v.1l1.3 1.4h.1v-.2l-.5.4v.1h.2a8 8 0 0 0-1.5-1.5v.2l.5-.3-.1-.1V35l-.7.5h.1a7.6 7.6 0 0 1 1.4 1.5l.1.1.6-.5h.1v-.1a7.7 7.7 0 0 0-1.5-1.5h-.2l.1.1Zm-3.1 6.6h.1V41h-1.6v.9h1.6v-.3h-1.3v-.4h1v.5h.2Zm0-1h.1v-.8h-1.6v1h1.6v-.4h-1.3v-.3h1v.5h.2Zm-3.1.4h-.2v.7H88V41h-1.6v.2h.2v.1h1.1v.4h-1V41h-.1Zm0-1h-.2v.7H88V40h-1.6v.2h.2v.1h1.1v.3h-1v-.4h-.1Zm5-2.3c0 1.3.2 2.5.4 3.5l.1.3.2-.3c.5-.9 1-1.8 1.3-2.9h-.1v.1l.7.3v-.2h-.2l-.1.1a12 12 0 0 1-1.6 3.3v.1c.1.5.3 1 .5 1.2.3.3.5.5.8.5l.3-.2c.2-.3.3-.8.4-1.7H94c0 .2.3.4.5.4a4 4 0 0 1-.4 1.5c-.1.3-.3.3-.6.4-.7 0-1.2-.6-1.6-1.6v-.2l-.2.2a7.8 7.8 0 0 1-1.7 1.6h.1c0-.2-.3-.4-.5-.5v.2l.8-.5.3-.3h-2.5v1h-.4v-1h-2.2V43h2.2v-1h-1.7v-2.2h1.7v-.9h-2v-.2h2V38h.7-.3v.7h2v.2h-2v.9H90V42h-1.8v.9h2.1v.5l.2-.2 1.1-1.2h.1v-.1a15 15 0 0 1-.7-4v-.2h-5.5v-.3h2.3v-1.2H86V36h1.8v-1h.7-.2v.9H90v.3h-1.9v1H91V35h-.2v.1h.9-.3v2.3h3v.3h-3v.1h.2v.2h3v-1h-3v.2-2h-.1.2l.1-.2v-.2h-1.1v.1a41 41 0 0 0 0 2.3h.2V37h-2.4v-.6h1.8v-.8h-1.8v-.5h-.2v.1c.2 0 .4-.1.4-.3v.1h-1.1v.8h-2v.8h2v.6h-2.4v.9H91v-.2h-.1c0 1.6.3 3 .6 4.2h.1v-.2L90.4 43v.1h.2v-.5h-2.2v-.3h1.9v-2.8h-1.8v-.3h2v-.8h-2v-.3h-.2l.4-.1v-.2h-1.1v.6h-2v.8h2v.3h-1.8v2.8h1.8v.3h-2.2v.8h2.2v1h.8v-1h1.9v-.2l-.8.5h-.2l.2.2.4.5h.2a8.1 8.1 0 0 0 1.8-1.6v-.1h-.2c.4 1 1 1.7 1.8 1.7a.9.9 0 0 0 .9-.5c.2-.3.2-.9.3-1.7V42l-.6-.3-.2-.2v.3a7.1 7.1 0 0 1-.2 1.3.7.7 0 0 1 0 .2l-.2.1c-.2 0-.4-.1-.5-.4a3.7 3.7 0 0 1-.6-1h-.1.1a12.3 12.3 0 0 0 1.7-3.3h-.2l.6-.2-1.2-.4v.2c-.4 1-.8 2-1.4 2.8h.2a21 21 0 0 1-.4-3.4h-.1Z" fill="#fff"/>
</svg>
