<svg width="180" height="54" fill="none" xmlns="http://www.w3.org/2000/svg">
  <path d="M173.33 54H6.67A6.73 6.73 0 0 1 0 47.25V6.75C0 3.04 3 0 6.67 0h166.66A6.73 6.73 0 0 1 180 6.75v40.5c0 3.71-3 6.75-6.67 6.75Z" fill="#000"/>
  <path d="m27.63 26.22-14.2 15.26a3.84 3.84 0 0 0 5.65 2.35l.05-.03 15.97-9.33-7.48-8.25Z" fill="#EA4335"/>
  <path d="m41.98 23.63-.01-.02-6.9-4.05-7.77 7 7.8 7.9 6.86-4a3.89 3.89 0 0 0 2.02-3.43c0-1.47-.8-2.75-2-3.4Z" fill="#FBBC04"/>
  <path d="M13.43 12.52a3.7 3.7 0 0 0-.13 1v26.96c0 .35.04.68.13 1L28.1 26.62l-14.68-14.1Z" fill="#4285F4"/>
  <path d="m27.73 27 7.34-7.44-15.96-9.37a3.85 3.85 0 0 0-5.69 2.33L27.73 27Z" fill="#34A853"/>
  <path d="M142.58 40h2.49V23.33h-2.49V40ZM165 29.34l-2.85 7.22h-.09l-2.96-7.22h-2.68l4.44 10.1-2.53 5.61h2.6l6.84-15.71H165Zm-14.1 8.77c-.82 0-1.96-.41-1.96-1.42 0-1.29 1.41-1.78 2.64-1.78 1.1 0 1.6.24 2.27.56a3.02 3.02 0 0 1-2.96 2.64Zm.3-9.14c-1.81 0-3.68.8-4.45 2.55l2.21.93c.47-.93 1.35-1.23 2.27-1.23 1.3 0 2.6.78 2.62 2.15v.17a5.5 5.5 0 0 0-2.6-.64c-2.38 0-4.8 1.3-4.8 3.75 0 2.23 1.95 3.67 4.14 3.67a3.5 3.5 0 0 0 3.17-1.63h.09v1.28h2.4v-6.39c0-2.96-2.2-4.6-5.06-4.6Zm-15.38 2.4h-3.54v-5.72h3.53a2.89 2.89 0 0 1 2.92 2.86 2.9 2.9 0 0 1-2.91 2.86Zm-.07-8.04h-5.96V40h2.49v-6.32h3.47c2.76 0 5.47-2 5.47-5.17 0-3.18-2.71-5.18-5.47-5.18Zm-32.5 14.78c-1.72 0-3.16-1.44-3.16-3.42 0-2 1.44-3.45 3.15-3.45 1.7 0 3.03 1.46 3.03 3.45 0 1.98-1.33 3.42-3.03 3.42Zm2.85-7.84h-.1a3.93 3.93 0 0 0-2.98-1.27 5.64 5.64 0 0 0-5.44 5.7c0 3.17 2.6 5.64 5.44 5.64 1.35 0 2.43-.6 2.98-1.28h.09v.81c0 2.17-1.16 3.33-3.03 3.33a3.14 3.14 0 0 1-2.86-2.02l-2.17.9a5.4 5.4 0 0 0 5.03 3.35c2.92 0 5.4-1.71 5.4-5.9V29.35h-2.37v.92Zm4.08 9.73h2.5V23.33h-2.5V40Zm6.17-5.5a3.11 3.11 0 0 1 2.96-3.3c.99 0 1.83.49 2.1 1.2l-5.06 2.1Zm7.73-1.89c-.47-1.27-1.91-3.6-4.85-3.6-2.93 0-5.35 2.29-5.35 5.66 0 3.18 2.4 5.67 5.62 5.67 2.6 0 4.1-1.59 4.73-2.5l-1.93-1.3a3.24 3.24 0 0 1-2.8 1.57 2.89 2.89 0 0 1-2.75-1.72l7.59-3.13-.26-.65Zm-60.41-1.87v2.4h5.76a5.02 5.02 0 0 1-1.32 3.04 5.9 5.9 0 0 1-4.44 1.76 6.32 6.32 0 0 1-6.32-6.4A6.32 6.32 0 0 1 68 26.85l1.7-1.7a8.4 8.4 0 0 0-6.04-2.42 8.93 8.93 0 0 0-8.94 8.8 8.93 8.93 0 0 0 8.94 8.81c2.62 0 4.6-.86 6.14-2.47 1.6-1.59 2.09-3.82 2.09-5.62a7.8 7.8 0 0 0-.13-1.5h-8.1Zm14.77 7.37c-1.72 0-3.2-1.42-3.2-3.44 0-2.04 1.48-3.43 3.2-3.43 1.72 0 3.2 1.4 3.2 3.43 0 2.02-1.48 3.44-3.2 3.44Zm0-9.1a5.59 5.59 0 0 0-5.7 5.66 5.6 5.6 0 0 0 5.7 5.67 5.6 5.6 0 0 0 5.7-5.67 5.59 5.59 0 0 0-5.7-5.67Zm12.42 9.1c-1.72 0-3.2-1.42-3.2-3.44 0-2.04 1.48-3.43 3.2-3.43 1.72 0 3.2 1.4 3.2 3.43 0 2.02-1.48 3.44-3.2 3.44Zm0-9.1a5.59 5.59 0 0 0-5.7 5.66 5.6 5.6 0 0 0 5.7 5.67 5.6 5.6 0 0 0 5.69-5.67 5.59 5.59 0 0 0-5.7-5.67ZM60.92 9.33v.05l-2.97 3.43 3.17 4.48v.04h-1.26l-2.6-3.73-1.23 1.42v2.31H55v-8h1.03v4.13h.04l3.52-4.13h1.33Z" fill="#fff"/>
  <path d="M60.92 9.33h-.13v.05h.13l-.1-.09-3.04 3.51 3.2 4.53h.14v-.13h-1.19l-2.66-3.82-1.38 1.6v2.22h-.76V9.47h.76v4.12h.24l3.52-4.12h1.27V9.2h-1.39l-3.56 4.17.1.09v-.14h-.04v.14h.13V9.2h-1.3v8.27h1.3v-2.4l1.09-1.25 2.54 3.65h1.47v-.22l-3.14-4.43 2.94-3.4V9.2h-.14v.13Zm4.04 8.18a2.8 2.8 0 0 1-2.14-.87 3.2 3.2 0 0 1-.83-2.28V9.33h1.03v5.08c0 .63.17 1.14.5 1.53.33.4.81.59 1.44.59.62 0 1.1-.2 1.43-.59.33-.39.5-.9.5-1.53V9.33h1.03v5.03c0 .95-.27 1.7-.8 2.29a2.8 2.8 0 0 1-2.16.86Z" fill="#fff"/>
  <path d="M64.96 17.51v-.13c-.86 0-1.52-.28-2.05-.83a3.06 3.06 0 0 1-.78-2.19v-4.9h.76v4.95c0 .65.17 1.2.53 1.62.36.42.88.63 1.54.63.65 0 1.17-.2 1.53-.63.36-.42.53-.97.53-1.62V9.47h.76v4.9a3.1 3.1 0 0 1-.76 2.19c-.5.54-1.18.82-2.06.82v.27c.93 0 1.7-.3 2.26-.91.55-.6.83-1.4.83-2.38V9.2h-1.3v5.2c0 .62-.15 1.1-.46 1.46-.3.35-.74.53-1.33.54-.6 0-1.03-.19-1.34-.54a2.2 2.2 0 0 1-.46-1.45V9.2h-1.3v5.16c0 .96.29 1.77.86 2.37.57.61 1.33.92 2.24.92v-.14Zm7.34-.18h-1.03v-7.01h-2.24v-.99h5.5v.99H72.3v7.01Z" fill="#fff"/>
  <path d="M72.3 17.33v-.13h-.9v-7.02h-2.23v-.71h5.23v.71h-2.24v7.15h.27v-6.88h2.23V9.2H68.9v1.25h2.23v7.02h1.3v-.14h-.13Zm3.53 0v-8h1.02v3.43h4V9.33h1.03v8h-1.03v-3.6h-4v3.6h-1.02Z" fill="#fff"/>
  <path d="M75.83 17.33h.13V9.47h.76v3.43H81V9.47h.76v7.73H81v-3.6h-4.27v3.6h-.9v.27H77v-3.61h3.73v3.6h1.3V9.2h-1.3v3.43H77V9.2h-1.3v8.27h.14v-.14Zm9.32-1.7c.6.6 1.32.9 2.17.9.86 0 1.58-.3 2.18-.9.59-.6.89-1.37.89-2.3 0-.93-.3-1.7-.9-2.3-.59-.6-1.31-.9-2.17-.9-.85 0-1.58.3-2.17.9-.6.6-.89 1.37-.89 2.3 0 .93.3 1.7.89 2.3Zm5.1.67a3.93 3.93 0 0 1-2.93 1.21 4.09 4.09 0 0 1-4.11-4.18 4.09 4.09 0 0 1 4.11-4.18 4.1 4.1 0 0 1 4.11 4.18 4.1 4.1 0 0 1-1.17 2.97Z" fill="#fff"/>
  <path d="m85.15 15.63-.1.1a3.1 3.1 0 0 0 2.27.93c.9 0 1.66-.31 2.27-.94.62-.62.93-1.43.93-2.39 0-.96-.31-1.76-.93-2.39a3.07 3.07 0 0 0-2.27-.94 3.1 3.1 0 0 0-2.27.94 3.27 3.27 0 0 0-.92 2.4c0 .95.3 1.76.92 2.38l.1-.09.1-.1a3 3 0 0 1-.85-2.2 3 3 0 0 1 .84-2.2 2.8 2.8 0 0 1 2.08-.86c.83 0 1.51.29 2.08.86a3 3 0 0 1 .85 2.2 3 3 0 0 1-.85 2.2 2.8 2.8 0 0 1-2.08.87 2.8 2.8 0 0 1-2.08-.86l-.09.09Zm5.1.67-.09-.1a3.8 3.8 0 0 1-2.84 1.18 3.96 3.96 0 0 1-3.98-4.05 3.96 3.96 0 0 1 3.98-4.04 3.96 3.96 0 0 1 3.98 4.05c0 1.13-.38 2.08-1.14 2.87l.1.09.1.1a4.23 4.23 0 0 0 1.2-3.07 4.23 4.23 0 0 0-4.24-4.3 4.22 4.22 0 0 0-4.24 4.31 4.22 4.22 0 0 0 4.24 4.3c1.2 0 2.22-.41 3.03-1.25l-.1-.1Zm2.63 1.03v-8h1.02v7.02h3.47v.98h-4.5Z" fill="#fff"/>
  <path d="M92.88 17.33H93V9.47h.76v7.01h3.47v.72h-4.36v.27h4.62v-1.25h-3.46V9.2h-1.3v8.27h.14v-.14Zm10.46-7.01h-3.65v2.53h3.29v.96h-3.29v2.54h3.65v.98h-4.67v-8h4.67v.99Z" fill="#fff"/>
  <path d="M103.34 10.32v-.14h-3.78v2.8h3.28v.7h-3.28v2.8h3.64v.72h-4.4V9.47h4.4v.85h.27V9.2h-4.94v8.27h4.94v-1.25h-3.64v-2.27h3.28v-1.23h-3.28v-2.27h3.64v-.13h-.13Zm10.21-.99v.05l-2.97 3.43 3.17 4.48v.04h-1.26l-2.6-3.73-1.24 1.42v2.31h-1.02v-8h1.02v4.13h.05l3.52-4.13h1.33Z" fill="#fff"/>
  <path d="M113.55 9.33h-.13v.05h.13l-.1-.09-3.04 3.51 3.2 4.53h.14v-.13h-1.2l-2.66-3.82-1.37 1.6v2.22h-.76V9.47h.76v4.12h.24l3.52-4.12h1.27V9.2h-1.4l-3.55 4.17.1.09v-.14h-.05v.14h.14V9.2h-1.3v8.27h1.3v-2.4l1.08-1.25 2.55 3.65h1.46v-.22l-3.13-4.43 2.93-3.4V9.2h-.13v.13Zm4.03 8.18c-.88 0-1.59-.29-2.14-.87a3.19 3.19 0 0 1-.82-2.28V9.33h1.03v5.08c0 .63.16 1.14.5 1.53.33.4.8.59 1.43.59.63 0 1.1-.2 1.44-.59.33-.39.5-.9.5-1.53V9.33h1.02v5.03c0 .95-.26 1.7-.8 2.29a2.8 2.8 0 0 1-2.16.86Z" fill="#fff"/>
  <path d="M117.58 17.51v-.13c-.85 0-1.52-.28-2.04-.83a3.06 3.06 0 0 1-.79-2.19v-4.9h.77v4.95c0 .65.17 1.2.52 1.62.36.42.89.63 1.54.63s1.18-.2 1.54-.63c.35-.42.53-.97.53-1.62V9.47h.76v4.9a3.1 3.1 0 0 1-.77 2.19c-.5.54-1.18.82-2.06.82v.27c.94 0 1.7-.3 2.26-.91.56-.6.84-1.4.84-2.38V9.2h-1.3v5.2c0 .62-.16 1.1-.46 1.46-.3.35-.74.53-1.34.54-.6 0-1.03-.19-1.33-.54a2.16 2.16 0 0 1-.47-1.45V9.2h-1.3v5.16c0 .96.3 1.77.86 2.37.58.61 1.33.92 2.24.92v-.14Zm4.44-3.9v-.85h3.57v.85h-3.57Z" fill="#fff"/>
  <path d="M122.02 13.61h.13v-.71h3.3v.58h-3.43v.27h3.7v-1.12h-3.84v1.12h.14v-.14Z" fill="#fff"/>
</svg>
