<svg id="artwork" xmlns="http://www.w3.org/2000/svg" version="1.1" viewBox="0 0 239 70.9">
  <defs>
    <style>
      .st1{isolation:isolate}.st5{fill:#fff}
    </style>
  </defs>
  <rect x="-.1" width="239.2" height="70.9" rx="8.9" ry="8.9"/>
  <path d="m36.6 34.4-18.9 20a5 5 0 0 0 7.6 3l21.2-12.2-10-10.8h.1Z" style="fill:#ea4335"/>
  <path d="m55.7 31-9.2-5.3-10.3 9.2 10.3 10.3 9.2-5.2c1.5-1 2.6-2.6 2.6-4.5s-1-3.6-2.6-4.5Z" style="fill:#fbbc04"/>
  <path d="m17.7 16.4-.1 1.4V53l.1 1.3L37.2 35 17.7 16.4Z" style="fill:#4285f4"/>
  <path d="m36.7 35.4 9.8-9.7-21.2-12.3a5.1 5.1 0 0 0-7.6 3l19 19Z" style="fill:#34a853"/>
  <g class="st1">
    <path class="st5" d="m76.6 21.7-3.7-6h2l2.5 4.2h.1l2.4-4.1H82l-3.6 5.9v5.1h-1.8v-5.1Z"/>
  </g>
  <g class="st1">
    <path class="st5" d="M83.7 15.8h1.7v11h-1.7v-11Z"/>
  </g>
  <g class="st1">
    <path class="st5" d="M95.9 26.5c-.8.4-1.7.6-2.6.6a5.6 5.6 0 0 1-5.7-5.8 5.8 5.8 0 0 1 2.8-5c.9-.5 1.9-.8 3-.8a5.6 5.6 0 0 1 5 2.9c.4.8.7 1.8.7 2.9a5.8 5.8 0 0 1-2 4.3l.9 1.2-1.3.9-.8-1.2Zm-1-1.4-1.2-1.9 1.3-.9 1.2 1.9c.4-.4.7-.8.8-1.3a4.6 4.6 0 0 0-.2-3.7c-.3-.6-.8-1.2-1.4-1.5s-1.3-.5-2-.5-1.4.1-2 .5c-.7.3-1.1.8-1.5 1.5s-.5 1.3-.5 2 .2 1.6.5 2.2a3.8 3.8 0 0 0 3.5 2l1.5-.3Z"/>
  </g>
  <g class="st1">
    <path class="st5" d="M101.3 15.8h1.7v4.5h5.2v-4.5h1.7v11h-1.7V22H103v4.8h-1.7v-11Zm13.3 10.7a4.6 4.6 0 0 1-2-4v-6.7h1.8v6.9c0 .8.2 1.4.6 2 .4.5 1 .7 1.8.7s1.4-.2 1.8-.7.7-1.2.7-2v-7h1.7v6.9c0 .9-.2 1.6-.5 2.3-.4.7-.8 1.2-1.5 1.6-.6.4-1.3.6-2.2.6s-1.5-.2-2.2-.6Z"/>
  </g>
  <g class="st1">
    <path class="st5" d="M123.5 15.8h4.2a3 3 0 0 1 1.6.4c.5.2 1 .6 1.2 1 .3.5.5 1 .5 1.5a2.5 2.5 0 0 1-1.5 2.3v.1c.5.2 1 .5 1.3 1s.6 1 .6 1.6a3 3 0 0 1-1.8 2.7 3 3 0 0 1-1.7.4h-4.3v-11Zm4.1 4.6c.5 0 .9-.2 1.2-.5a1.5 1.5 0 0 0 0-2c-.3-.4-.7-.5-1.1-.5h-2.4v3h2.3Zm.3 4.8c.5 0 1-.2 1.2-.5a1.6 1.6 0 0 0 0-2.3c-.3-.3-.7-.5-1.3-.5h-2.5v3.3h2.6Z"/>
  </g>
  <g class="st1">
    <path class="st5" d="M133.6 15.8h6.7v1.6h-5v3h4.5v1.7h-4.5v3h5v1.7h-6.7v-11Z"/>
  </g>
  <g class="st1">
    <path class="st5" d="M72.7 35.2h2.7v17.3h-2.7V35.2Z"/>
  </g>
  <g class="st1">
    <path class="st5" d="M79 43.8h8v2.3h-8v-2.3Z"/>
  </g>
  <g class="st1">
    <path class="st5" d="M94.4 51.7a9 9 0 0 1-4.5-7.9 9 9 0 0 1 9-9c1.4 0 2.6.2 3.7.7 1.1.4 2 1.1 2.8 2l-1.8 1.8a5.7 5.7 0 0 0-2-1.4 6 6 0 0 0-2.7-.5 6.3 6.3 0 0 0-5.4 3c-.6 1-.9 2.1-.9 3.4a6.4 6.4 0 0 0 3.2 5.7c.9.6 2 .8 3.2.8 1 0 1.9-.2 2.5-.5a5 5 0 0 0 2.9-2.6l.4-1.7h-5.9v-2.4h8.5v1.4c0 1 0 2.1-.4 3.1s-1 2-1.6 2.7a8.4 8.4 0 0 1-6.4 2.5 9 9 0 0 1-4.6-1.1Z"/>
  </g>
  <g class="st1">
    <path class="st5" d="M112.5 52a6 6 0 0 1-2.2-2.4c-.6-1-.9-2-.9-3.3s.3-2.3.9-3.3c.5-1 1.3-1.8 2.2-2.4s2.1-.8 3.4-.8a6.3 6.3 0 0 1 5.6 3.2 7.3 7.3 0 0 1 0 6.7c-.5 1-1.3 1.7-2.3 2.3s-2 .9-3.3.9-2.4-.3-3.4-.9Zm5.3-2c.5-.4 1-.9 1.4-1.5s.5-1.4.5-2.2-.2-1.6-.5-2.2-.9-1-1.4-1.4c-.6-.3-1.2-.5-2-.5s-1.2.2-1.8.5c-.6.3-1 .8-1.4 1.4a5 5 0 0 0 0 4.4 3.7 3.7 0 0 0 3.3 1.9c.7 0 1.3-.2 1.9-.5Zm9.4 2c-1-.6-1.7-1.4-2.3-2.4s-.8-2-.8-3.3.3-2.3.8-3.3 1.3-1.8 2.3-2.4a7.3 7.3 0 0 1 6.7 0c1 .6 1.7 1.4 2.3 2.4s.8 2.1.8 3.3-.3 2.4-.8 3.4-1.3 1.7-2.3 2.3c-1 .6-2.1.9-3.4.9s-2.3-.3-3.3-.9Zm5.2-2c.6-.4 1-.9 1.4-1.5s.5-1.4.5-2.2-.1-1.6-.5-2.2-.8-1-1.4-1.4c-.5-.3-1.2-.5-1.8-.5s-1.3.2-2 .5c-.5.3-1 .8-1.3 1.4a4.9 4.9 0 0 0 0 4.4 3.7 3.7 0 0 0 3.3 1.9c.6 0 1.3-.2 1.8-.5Zm8.8 7c-1-.7-1.6-1.5-2-2.4l2.5-1c.3.6.7 1 1.3 1.5s1.2.6 2 .6c1.1 0 2-.4 2.6-1 .7-.8 1-1.7 1-3v-1h-.2c-.4.5-.9 1-1.6 1.3a5.7 5.7 0 0 1-5.2-.3 5.6 5.6 0 0 1-2-2.3c-.6-1-.8-2-.8-3.3s.2-2.3.7-3.3c.6-1 1.3-1.7 2.1-2.2a5.5 5.5 0 0 1 5.2-.3c.7.3 1.2.8 1.6 1.4h.2v-1.5h2.5v11.6c0 1.3-.3 2.5-.8 3.4s-1.2 1.7-2.1 2.2-2 .7-3.2.7c-1.5 0-2.8-.4-3.8-1Zm5.6-7.4c.5-.3 1-.8 1.3-1.4s.5-1.3.5-2c0-1.3-.4-2.3-1-3a3.7 3.7 0 0 0-4.4-.5c-.6.3-1 .7-1.3 1.3a4.6 4.6 0 0 0 0 4.2c.3.6.7 1 1.3 1.4.5.3 1.1.4 1.8.4s1.2-.1 1.8-.4Z"/>
  </g>
  <g class="st1">
    <path class="st5" d="M154 35.2h2.7v17.3H154V35.2Z"/>
  </g>
  <g class="st1">
    <path class="st5" d="M162.2 52c-1-.6-1.7-1.3-2.2-2.3a7.4 7.4 0 0 1 0-6.6 6 6 0 0 1 5.3-3.3c1.2 0 2.3.2 3.3.8.9.5 1.6 1.3 2 2.2a7 7 0 0 1 .7 4.1h-9.5c.1 1.1.5 2 1.3 2.6.7.7 1.5 1 2.5 1a3.6 3.6 0 0 0 3.3-2l2.2 1.1c-.6 1-1.3 1.8-2.2 2.4-1 .6-2.1.9-3.4.9-1.2 0-2.3-.3-3.3-.9Zm6.5-7.1a3 3 0 0 0-1.6-2.4c-.4-.3-1-.4-1.8-.4s-1.5.2-2.1.7a4 4 0 0 0-1.2 2h6.7Z"/>
  </g>
  <g class="st1">
    <path class="st5" d="M178.3 35.2h6c1 0 2 .2 2.8.6.9.5 1.6 1.1 2 2 .6.7.8 1.6.8 2.7s-.2 1.9-.7 2.7a6 6 0 0 1-2 1.9 6 6 0 0 1-2.9.6H181v6.8h-2.7V35.2Zm6 8c.7 0 1.2-.2 1.6-.4a2.7 2.7 0 0 0 0-4.7 3 3 0 0 0-1.5-.4H181v5.5h3.4Z"/>
  </g>
  <g class="st1">
    <path class="st5" d="M192 35.2h2.7v17.3h-2.6V35.2Z"/>
  </g>
  <g class="st1">
    <path class="st5" d="M199.2 52.3a4 4 0 0 1-2.2-3.6c0-1.3.5-2.3 1.4-3 1-.8 2.2-1.1 3.7-1.1a8.4 8.4 0 0 1 3.3.6v-.6c0-.8-.3-1.4-.8-1.9-.6-.4-1.3-.7-2.2-.7-.6 0-1.2.2-1.8.4s-1 .7-1.3 1.2l-1.9-1.5c.6-.7 1.3-1.3 2.1-1.7 1-.4 1.9-.7 3-.7a6 6 0 0 1 4 1.4c1 .8 1.5 2 1.5 3.7v7.6h-2.6V51h-.1a4.6 4.6 0 0 1-3.7 1.9c-1 0-1.7-.2-2.4-.6Zm4.6-2.1a3.3 3.3 0 0 0 1.6-3l-1.3-.4a6 6 0 0 0-1.5-.2c-1 0-1.7.2-2.2.6s-.7.9-.7 1.5.2 1 .6 1.4c.5.4 1 .5 1.7.5s1.2-.1 1.8-.4Z"/>
  </g>
  <g class="st1">
    <path class="st5" d="M214.1 51.8 209 40h3l3.4 8.4h.1l3.4-8.4h3l-7.7 17.6h-2.8l2.7-6Z"/>
  </g>
</svg>
