<svg width="270" height="80" fill="none" xmlns="http://www.w3.org/2000/svg">
  <g clip-path="url(#a)">
    <mask id="b" style="mask-type:luminance" maskUnits="userSpaceOnUse" x="0" y="0" width="270" height="81">
      <path d="M0 0h270v80H0V0Z" fill="#fff"/>
    </mask>
    <g mask="url(#b)">
      <path d="M260 80H10A10 10 0 0 1 0 70V10A10 10 0 0 1 10 0h250a10 10 0 0 1 10 10v60a10 10 0 0 1-10 10Z" fill="#000"/>
    </g>
    <mask id="c" style="mask-type:luminance" maskUnits="userSpaceOnUse" x="0" y="0" width="270" height="81">
      <path d="M0 0h270v80H0V0Z" fill="#fff"/>
    </mask>
    <g mask="url(#c)">
      <path d="M41.4 38.9 20.1 61.5a5.7 5.7 0 0 0 8.5 3.4l24-13.8-11.2-12.2Z" fill="#EA4335"/>
    </g>
    <mask id="d" style="mask-type:luminance" maskUnits="userSpaceOnUse" x="0" y="0" width="270" height="81">
      <path d="M0 0h270v80H0V0Z" fill="#fff"/>
    </mask>
    <g mask="url(#d)">
      <path d="m63 35-10.4-6L41 39.4 52.7 51l10.2-6a5.8 5.8 0 0 0 .1-10Z" fill="#FBBC04"/>
    </g>
    <mask id="e" style="mask-type:luminance" maskUnits="userSpaceOnUse" x="0" y="0" width="270" height="81">
      <path d="M0 0h270v80H0V0Z" fill="#fff"/>
    </mask>
    <g mask="url(#e)">
      <path d="M20.1 18.6 20 20v40l.2 1.5 22-22-22-21Z" fill="#4285F4"/>
    </g>
    <mask id="f" style="mask-type:luminance" maskUnits="userSpaceOnUse" x="0" y="0" width="270" height="81">
      <path d="M0 0h270v80H0V0Z" fill="#fff"/>
    </mask>
    <g mask="url(#f)">
      <path d="m41.6 40 11-11-24-13.9a5.8 5.8 0 0 0-8.5 3.5L41.6 40Z" fill="#34A853"/>
    </g>
    <path d="m86.6 24.5-4.2-6.7h2.3l2.8 4.6h.1l2.7-4.6h2.4l-4.1 6.7v5.8h-2v-5.8Zm8-6.7h2v12.5h-2V17.8ZM108.4 30c-.9.4-1.8.7-2.9.7a6.3 6.3 0 0 1-5.6-3.3 7 7 0 0 1-.8-3.3 6.5 6.5 0 0 1 3.1-5.6c1-.6 2.1-.9 3.3-.9a6.3 6.3 0 0 1 5.6 3.3c.6 1 .9 2 .9 3.2a6.6 6.6 0 0 1-2.1 5l.9 1.3-1.5 1-1-1.4Zm-2.9-1.2a4 4 0 0 0 1.8-.4l-1.4-2.1 1.5-1 1.4 2.1c.4-.4.7-.9.9-1.4.2-.6.3-1.2.3-1.9 0-.9-.2-1.7-.6-2.4a4.4 4.4 0 0 0-3.9-2.3 5.2 5.2 0 0 0-3.9 2.3c-.4.7-.6 1.5-.6 2.4 0 1 .2 1.7.6 2.5.4.7 1 1.2 1.7 1.6.7.4 1.4.6 2.2.6Zm9-10.9h2V23h5.8v-5.2h1.9v12.5h-2v-5.5h-5.7v5.5h-2V17.8ZM132 30.6c-.9 0-1.7-.3-2.4-.7-.7-.4-1.3-1-1.7-1.7a6 6 0 0 1-.6-2.7v-7.7h2v7.8c0 1 .2 1.7.7 2.2.5.6 1.2.9 2 .9 1 0 1.6-.3 2-.9.6-.5.8-1.3.8-2.2v-7.8h2v7.7c0 1-.2 1.9-.6 2.6-.4.8-1 1.4-1.6 1.8-.7.4-1.6.7-2.6.7Zm7.8-12.8h4.7a4 4 0 0 1 1.8.5c.6.3 1 .7 1.4 1.2.3.5.5 1 .5 1.6a2.8 2.8 0 0 1-1.7 2.7 3.1 3.1 0 0 1 1.6 4.8c-.4.5-.8 1-1.4 1.2-.6.3-1.3.5-2 .5h-4.9V17.8Zm4.6 5.2c.6 0 1-.1 1.3-.5.4-.3.6-.7.6-1.2a2 2 0 0 0-.5-1.2c-.4-.3-.8-.5-1.3-.5h-2.7V23h2.6Zm.3 5.5c.6 0 1-.2 1.4-.6a1.8 1.8 0 0 0 0-2.6 2 2 0 0 0-1.5-.5h-2.8v3.7h2.9Zm6.5-10.7h7.5v1.9H153V23h5v2h-5v3.4h5.6v1.9h-7.5V17.8Zm-69 21.9h3v19.5h-3V39.7Zm7.1 9.8h9V52h-9v-2.5ZM112 59.7a10.2 10.2 0 0 1-8.8-15.4 10 10 0 0 1 8.8-5c1.5 0 2.9.2 4.2.8 1.2.5 2.3 1.2 3.1 2.2l-2 2a7.2 7.2 0 0 0-5.2-2.2 7 7 0 0 0-7.2 7.4 7 7 0 0 0 1 3.8 7 7 0 0 0 6.1 3.4c1.2 0 2.2-.1 3-.5.7-.3 1.4-.8 2-1.4a3 3 0 0 0 1-1.5c.4-.6.5-1.2.6-2H112v-2.7h9.5l.2 1.6a11 11 0 0 1-.6 3.6c-.4 1.1-1 2.1-1.8 3a9.9 9.9 0 0 1-7.3 2.9Zm19.2 0c-1.4 0-2.6-.4-3.7-1a7 7 0 0 1-2.6-2.7c-.7-1-1-2.3-1-3.7a7 7 0 0 1 1-3.8 6 6 0 0 1 2.6-2.6c1-.7 2.3-1 3.7-1a7.2 7.2 0 0 1 6.4 3.6c.6 1.2.9 2.4.9 3.8s-.3 2.6-1 3.7a6.8 6.8 0 0 1-6.3 3.7Zm0-2.8a4.2 4.2 0 0 0 3.7-2.2 5 5 0 0 0 .6-2.4c0-1-.2-1.8-.6-2.5a4.2 4.2 0 0 0-3.7-2.1 4.2 4.2 0 0 0-3.7 2.1c-.4.7-.6 1.5-.6 2.5a4.5 4.5 0 0 0 2.2 4c.7.4 1.4.6 2.1.6Zm16.5 2.8c-1.4 0-2.6-.4-3.7-1a7 7 0 0 1-2.6-2.7 7.8 7.8 0 0 1 0-7.5 7.2 7.2 0 0 1 6.4-3.6c1.3 0 2.6.3 3.7 1 1.1.6 2 1.5 2.6 2.6a7.6 7.6 0 0 1-2.6 10.2 8 8 0 0 1-3.8 1Zm0-2.8a4.2 4.2 0 0 0 3.7-2.2 5 5 0 0 0 .6-2.4c0-1-.2-1.8-.6-2.5a4.2 4.2 0 0 0-3.7-2.1 4.2 4.2 0 0 0-3.6 2.1c-.4.7-.6 1.5-.6 2.5s.2 1.7.6 2.4c.3.7.9 1.3 1.5 1.6.7.4 1.4.6 2.1.6Zm16.3 8.6c-1.7 0-3-.3-4.2-1.1a5.8 5.8 0 0 1-2.3-2.8l2.9-1.2c.2.7.7 1.3 1.4 1.8.6.4 1.4.7 2.2.7 1.3 0 2.3-.4 3-1.2.7-.7 1-1.8 1-3.2v-1.3a5 5 0 0 1-1.9 1.6 6.2 6.2 0 0 1-8.3-2.9 8 8 0 0 1-.8-3.8 8 8 0 0 1 .9-3.7c.6-1.1 1.4-2 2.4-2.6a6.1 6.1 0 0 1 5.8-.3c.8.3 1.4.9 1.8 1.5h.2v-1.7h2.8v13.1a8 8 0 0 1-.8 4c-.6 1-1.4 1.8-2.5 2.3-1 .6-2.2.8-3.6.8Zm0-8.9a3.9 3.9 0 0 0 3.5-2c.4-.7.6-1.5.6-2.5 0-1.4-.4-2.5-1.2-3.3a3.8 3.8 0 0 0-2.8-1.2 4 4 0 0 0-2.1.6c-.6.3-1.1.8-1.5 1.5a5 5 0 0 0-.5 2.4c0 1 .2 1.8.5 2.5a3.8 3.8 0 0 0 3.6 2Zm10.5-17h3v19.6h-3V39.7Zm12.8 20.1A7.1 7.1 0 0 1 181 56a7.4 7.4 0 0 1-.9-3.6 7 7 0 0 1 1-3.8 6.6 6.6 0 0 1 5.8-3.4c1.7 0 3 .5 4 1.4 1 1 1.8 2 2.2 3.1l.3.9-9.6 4a3.6 3.6 0 0 0 3.5 2.1 4 4 0 0 0 3.5-2l2.5 1.7c-.6.8-1.3 1.5-2.3 2.2-1 .6-2.3 1-3.7 1Zm2.4-10.1c-.2-.5-.5-.9-1-1.1-.5-.3-1-.5-1.7-.5a4 4 0 0 0-3.8 4.2l6.5-2.6Zm12.3-9.9h6.8c1.1 0 2.2.3 3.2.8a6 6 0 0 1 2.3 2.1c.5 1 .8 2 .8 3 0 1.2-.3 2.2-.8 3.2-.6.9-1.4 1.6-2.3 2.1-1 .5-2 .7-3.2.7H205v7.6h-3V39.7Zm6.8 9c.7 0 1.3-.1 1.8-.4a3 3 0 0 0 1-1.2 3 3 0 0 0-1-4c-.5-.3-1.1-.5-1.8-.5h-3.7v6.1h3.7Zm8.7-9h3v19.5h-3V39.7Zm11 20a6 6 0 0 1-2.7-.6 4.6 4.6 0 0 1-2.5-4.1 4 4 0 0 1 1.6-3.4c1-.9 2.5-1.3 4.1-1.3a9.8 9.8 0 0 1 3.8.7v-.7c0-.8-.4-1.5-1-2-.6-.6-1.4-.8-2.4-.8-.7 0-1.4.1-2 .4-.7.3-1.2.7-1.6 1.3l-2-1.6a6.8 6.8 0 0 1 5.6-2.7c2 0 3.6.5 4.7 1.5 1 1 1.6 2.4 1.6 4.1v8.7h-3v-1.6c-.5.6-1 1-1.8 1.5a5 5 0 0 1-2.4.6Zm.5-2.5a3.7 3.7 0 0 0 3.8-3.8c-.4-.3-1-.4-1.5-.6l-1.7-.2c-1.1 0-2 .2-2.5.7-.5.4-.8 1-.8 1.7 0 .6.3 1.1.7 1.6a3 3 0 0 0 2 .6Zm13.6 1.2-5.7-13h3.3l4 9.4 3.9-9.5h3.3l-8.6 19.8h-3.2l3-6.7Z" fill="#fff"/>
  </g>
  <defs>
    <clipPath id="a">
      <path fill="#fff" d="M0 0h270v80H0z"/>
    </clipPath>
  </defs>
</svg>
